<svg width="100" height="100" viewBox="0 0 100 100" fill="none" xmlns="http://www.w3.org/2000/svg">
<g clip-path="url(#clip0_125_4413)">
<path fill-rule="evenodd" clip-rule="evenodd" d="M46.2198 15.915C47.7752 13.3729 51.4873 13.3592 53.0618 15.8897L95.3951 83.9255C97.0458 86.5785 95.1233 90.0001 91.9819 90.0001H14.0492H8.01798C4.89 90.0001 2.96536 86.6046 4.58917 83.9508L46.2198 15.915Z" fill="url(#paint0_linear_125_4413)"/>
<path fill-rule="evenodd" clip-rule="evenodd" d="M94.5418 84.4487L52.2085 16.4128C51.0276 14.515 48.2436 14.5253 47.077 16.4318L5.44637 84.4676C4.22852 86.4579 5.672 89.0046 8.01798 89.0046H91.9819C94.3379 89.0046 95.7799 86.4384 94.5418 84.4487ZM53.0618 15.8897C51.4872 13.3592 47.7752 13.3729 46.2198 15.915L4.58917 83.9508C2.96536 86.6046 4.89 90.0001 8.01798 90.0001H91.9819C95.1233 90.0001 97.0458 86.5785 95.3951 83.9255L53.0618 15.8897Z" fill="#333333"/>
<path d="M56.4316 46.7575C56.4316 49.85 55.7266 53.7094 54.3164 58.3357C53.9948 59.3747 53.6855 60.4138 53.3887 61.4528C53.0918 62.4919 52.7702 63.5433 52.4238 64.6071C51.6816 66.8832 51.0013 67.9841 50.3828 67.9099C49.7148 67.8109 48.9727 66.6605 48.1562 64.4587C48.0078 64.0876 47.7604 63.3949 47.4141 62.3806C47.0924 61.3663 46.6595 60.018 46.1152 58.3357C44.7051 53.8578 44 50.0974 44 47.0544C44 41.8096 46.0781 39.1254 50.2344 39.0017C54.3659 38.9275 56.4316 41.5127 56.4316 46.7575ZM54.9473 74.5153C54.9473 75.7523 54.5391 76.8409 53.7227 77.781C52.832 78.7953 51.6693 79.3025 50.2344 79.3025C48.7253 79.3025 47.5378 78.8324 46.6719 77.8923C45.8555 76.9769 45.4473 75.876 45.4473 74.5896C45.4473 73.2784 45.8555 72.1527 46.6719 71.2126C47.513 70.2725 48.6634 69.8025 50.123 69.8025C51.6569 69.8025 52.8444 70.2725 53.6855 71.2126C54.5267 72.1775 54.9473 73.2784 54.9473 74.5153Z" fill="white"/>
</g>
<defs>
<linearGradient id="paint0_linear_125_4413" x1="-0.515604" y1="20.9921" x2="53.4025" y2="81.5937" gradientUnits="userSpaceOnUse">
<stop stop-color="#FFC671"/>
<stop offset="1" stop-color="#FF6F3D"/>
</linearGradient>
<clipPath id="clip0_125_4413">
<rect width="100" height="100" fill="white"/>
</clipPath>
</defs>
</svg>
