<svg xmlns="http://www.w3.org/2000/svg" width="16" height="16" viewBox="0 0 16 16">
  <title>calendar</title>
  <g>
    <path fill="#83888d" d="M14,2H12V1H11V2H5V1H4V2H2a.86.86,0,0,0-.39.06,1.08,1.08,0,0,0-.34.21,1.08,1.08,0,0,0-.21.34A.86.86,0,0,0,1,3V14a.86.86,0,0,0,.06.39,1.08,1.08,0,0,0,.21.34,1.08,1.08,0,0,0,.34.21A.86.86,0,0,0,2,15H14a.86.86,0,0,0,.39-.06.87.87,0,0,0,.55-.55A.86.86,0,0,0,15,14V3a.86.86,0,0,0-.06-.39,1.08,1.08,0,0,0-.21-.34,1.08,1.08,0,0,0-.34-.21A.86.86,0,0,0,14,2Zm0,12H2V5H14Z"/>
    <path fill="#83888d" d="M6,7H4V9H6Z"/>
    <path fill="#83888d" d="M9,7H7V9H9Z"/>
    <path fill="#83888d" d="M12,7H10V9h2Z"/>
    <path fill="#83888d" d="M6,10H4v2H6Z"/>
    <path fill="#83888d" d="M9,10H7v2H9Z"/>
    <path fill="#83888d" d="M12,10H10v2h2Z"/>
  </g>
</svg>
