<svg version="1.1" xmlns="http://www.w3.org/2000/svg" width="16" height="16" viewBox="0 0 16 16">
<title>general-settings</title>
<path fill="#83888d" d="M10 8c0 1.105-0.895 2-2 2s-2-0.895-2-2c0-1.105 0.895-2 2-2s2 0.895 2 2z"></path>
<path fill="#83888d" d="M15 9v-2h-2.11c-0.137-0.663-0.387-1.25-0.732-1.768l0.012 0.018 1.49-1.49-1.42-1.42-1.49 1.49c-0.5-0.333-1.087-0.583-1.718-0.714l-0.032-0.006v-2.11h-2v2.11c-0.663 0.137-1.25 0.387-1.768 0.732l0.018-0.012-1.49-1.49-1.42 1.42 1.49 1.49c-0.333 0.5-0.583 1.087-0.714 1.718l-0.006 0.032h-2.11v2h2.11c0.137 0.663 0.387 1.25 0.732 1.768l-0.012-0.018-1.49 1.49 1.41 1.41 1.49-1.49c0.503 0.337 1.093 0.591 1.727 0.724l0.033 0.006v2.11h2v-2.11c0.663-0.137 1.25-0.387 1.768-0.732l-0.018 0.012 1.49 1.49 1.41-1.41-1.49-1.49c0.337-0.503 0.591-1.093 0.724-1.727l0.006-0.033zM10.12 10.12v0c-0.543 0.542-1.292 0.877-2.12 0.877s-1.577-0.335-2.12-0.877l0 0c-0.544-0.543-0.88-1.294-0.88-2.123 0-1.657 1.343-3 3-3s3 1.343 3 3c0 0.829-0.336 1.58-0.88 2.123l-0 0z"></path>
</svg>
