<svg width="150" height="150" viewBox="0 0 150 150" fill="none" xmlns="http://www.w3.org/2000/svg">
<g clip-path="url(#clip0_125_6647)">
<path fill-rule="evenodd" clip-rule="evenodd" d="M23 14C23 4.5 31.5 4.5 33.5683 4H113.005C117.225 4 122 8.88244 122 13.066V136.934C122 142 117.235 146 113.005 146H33.5783C28.9609 146 24.555 143.333 23 138V135.5L23 14Z" fill="white"/>
<path fill-rule="evenodd" clip-rule="evenodd" d="M69 87.5C69 87.2239 69.2264 87 69.5057 87H104.494C104.774 87 105 87.2239 105 87.5C105 87.7761 104.774 88 104.494 88H69.5057C69.2264 88 69 87.7761 69 87.5Z" fill="#333333"/>
<path fill-rule="evenodd" clip-rule="evenodd" d="M69 77.5C69 77.2239 69.2224 77 69.4968 77H107.503C107.778 77 108 77.2239 108 77.5C108 77.7761 107.778 78 107.503 78H69.4968C69.2224 78 69 77.7761 69 77.5Z" fill="#333333"/>
<path fill-rule="evenodd" clip-rule="evenodd" d="M69 97.5C69 97.2239 69.2239 97 69.5 97H95.5C95.7761 97 96 97.2239 96 97.5C96 97.7761 95.7761 98 95.5 98H69.5C69.2239 98 69 97.7761 69 97.5Z" fill="#333333"/>
<path fill-rule="evenodd" clip-rule="evenodd" d="M46 127.5C46 127.224 46.2222 127 46.4962 127H66.5038C66.7778 127 67 127.224 67 127.5C67 127.776 66.7778 128 66.5038 128H46.4962C46.2222 128 46 127.776 46 127.5Z" fill="#333333"/>
<path fill-rule="evenodd" clip-rule="evenodd" d="M69 107.5C69 107.224 69.2225 107 69.4969 107H90.5031C90.7775 107 91 107.224 91 107.5C91 107.776 90.7775 108 90.5031 108H69.4969C69.2225 108 69 107.776 69 107.5Z" fill="#333333"/>
<path fill-rule="evenodd" clip-rule="evenodd" d="M81 117.5C81 117.224 80.7769 117 80.5017 117H46.4983C46.2231 117 46 117.224 46 117.5C46 117.776 46.2231 118 46.4983 118H80.5017C80.7769 118 81 117.776 81 117.5Z" fill="#333333"/>
<path d="M101.903 19.5H43.0974C41.0896 19.5 39.5 21.2226 39.5 23.2776V57.7224C39.5 59.7849 41.0819 61.5 43.0974 61.5H101.903C103.91 61.5 105.5 59.7774 105.5 57.7224V23.2776C105.5 21.2226 103.91 19.5 101.903 19.5Z" fill="#BDECFF" stroke="#333333"/>
<path fill-rule="evenodd" clip-rule="evenodd" d="M43.0052 61.0002C41.1934 61.0002 40.3142 58.7692 41.6331 57.5183L59.1381 40.9146L71.6858 53.2756L90.8037 27.0002L105 46.3825V57.9776C105 59.647 103.656 61.0002 101.998 61.0002H43.0052Z" fill="white"/>
<path fill-rule="evenodd" clip-rule="evenodd" d="M59.1529 39.9446L71.5617 51.9334L90.8012 26.0002L106 46.3516V58.0478C106 60.2307 104.208 62.0002 101.998 62.0002H43.0076C40.29 62.0002 38.9714 58.7183 40.9496 56.8781L59.1529 39.9446ZM71.6869 53.4366L59.1398 41.3142L41.6356 57.5974C40.3168 58.8242 41.1959 61.0121 43.0076 61.0121H101.998C103.656 61.0121 104.999 59.685 104.999 58.0478V46.6766L90.8039 27.6685L71.6869 53.4366Z" fill="#333333"/>
<path d="M50 35.5C53.043 35.5 55.5 33.0402 55.5 29.9963C55.5 26.9508 53.0337 24.5 50 24.5C46.9575 24.5 44.5 26.9593 44.5 29.9963C44.5 33.0322 46.9565 35.5 50 35.5Z" fill="url(#paint0_linear_125_6647)" stroke="#333333"/>
<path fill-rule="evenodd" clip-rule="evenodd" d="M23.0198 13.5021L23 62C23 62.2761 22.796 62.5 22.5198 62.5C22.2437 62.5 22 62.2761 22 62C22 45.8342 22.0099 29.6668 22.0099 13.5021C22.0099 8.49867 27.4652 4 32.5018 4H113.468C118.504 4 122.97 8.49782 122.97 13.5019L123 78.4998C123 78.7759 122.776 78.9999 122.5 79C122.224 79.0001 122 78.7764 122 78.5002L121.97 13.5023C121.97 9.04833 117.95 5 113.468 5H32.5018C28.0861 5 23.0198 8.82958 23.0198 13.5021ZM22.5 124.5C22.7761 124.5 23 124.724 23 125V136.954C23 141.39 27.7843 145 32.2837 145H113.578C118.095 145 122 141.362 122 136.934V130.967V125C122 124.724 122.224 124.5 122.5 124.5C122.776 124.5 123 124.724 123 125V136.934C123 141.964 118.597 146 113.578 146H32.2837C27.2657 146 22 141.976 22 136.954V125C22 124.724 22.2239 124.5 22.5 124.5Z" fill="#333333"/>
<path fill-rule="evenodd" clip-rule="evenodd" d="M1 71C1 70 2 69 3 69H56C57 69 58 70 58 71V105C58 106 57 107 56 107H31.987C31.3648 107 30.7781 107.29 30.3996 107.783L23.7941 116.402C23.1198 117.254 21.7615 117.185 21.1865 116.263L15.5939 107.889C15.2228 107.334 14.5988 107 13.9307 107H3C2 107 1 106 1 105V71Z" fill="url(#paint1_linear_125_6647)"/>
<path fill-rule="evenodd" clip-rule="evenodd" d="M24.5831 117.016L24.5785 117.022C23.4833 118.407 21.2975 118.308 20.3473 116.807L14.7623 108.445C14.5768 108.167 14.2648 108 13.9307 108H3C2.17477 108 1.43324 107.597 0.917893 107.082C0.402547 106.567 0 105.825 0 105V71C0 70.1748 0.402547 69.4332 0.917893 68.9179C1.43324 68.4025 2.17477 68 3 68H56C56.8252 68 57.5668 68.4025 58.0821 68.9179C58.5975 69.4332 59 70.1748 59 71V105C59 105.825 58.5975 106.567 58.0821 107.082C57.5668 107.597 56.8252 108 56 108H31.987C31.6759 108 31.3825 108.145 31.1933 108.392L24.5831 117.016ZM21.1865 116.263C21.7615 117.185 23.1198 117.254 23.7941 116.402L30.3996 107.783C30.7781 107.29 31.3648 107 31.987 107H56C57 107 58 106 58 105V71C58 70 57 69 56 69H3C2 69 1 70 1 71V105C1 106 2 107 3 107H13.9307C14.5988 107 15.2228 107.334 15.5939 107.889L21.1865 116.263Z" fill="#333333"/>
<path fill-rule="evenodd" clip-rule="evenodd" d="M12 84C12 83.4474 12.4189 83 12.9363 83H46.0637C46.5811 83 47 83.4474 47 84C47 84.5526 46.5811 85 46.0637 85H12.9363C12.4189 85 12 84.5526 12 84Z" fill="white"/>
<path fill-rule="evenodd" clip-rule="evenodd" d="M12 91C12 90.4474 12.4189 90 12.9363 90H36.0637C36.5811 90 37 90.4474 37 91C37 91.5526 36.5811 92 36.0637 92H12.9363C12.4189 92 12 91.5526 12 91Z" fill="white"/>
<path d="M142.294 82.7057C142.684 82.316 142.683 81.6834 142.293 81.2929L135.222 74.2218C134.831 73.8313 134.199 73.8307 133.809 74.2205L99.2279 108.801L97.2178 116.872C96.8533 118.335 98.1801 119.661 99.6431 119.297L107.713 117.287L142.294 82.7057Z" fill="white"/>
<path fill-rule="evenodd" clip-rule="evenodd" d="M127.222 81.2218L135 89L107.423 116.577L99.6447 108.799L127.222 81.2218Z" fill="url(#paint2_linear_125_6647)"/>
<path fill-rule="evenodd" clip-rule="evenodd" d="M130.293 85.2929L103.423 112.163L104.13 112.87L131 86L130.293 85.2929Z" fill="white"/>
<path fill-rule="evenodd" clip-rule="evenodd" d="M108 116L100.222 108.222L99.5176 108.926L107.296 116.704L108 116Z" fill="#333333"/>
<path fill-rule="evenodd" clip-rule="evenodd" d="M135 88.9998L127.222 81.2218L126.515 81.9289L134.293 89.7071L135 88.9998Z" fill="#333333"/>
<path fill-rule="evenodd" clip-rule="evenodd" d="M137 86.9998L129.222 79.2218L128.515 79.9289L136.293 87.7071L137 86.9998Z" fill="#333333"/>
<path fill-rule="evenodd" clip-rule="evenodd" d="M100.932 118.068L98.1716 115.172L98.1122 117.941L98.9376 118.438L100.932 118.068Z" fill="#333333"/>
<path fill-rule="evenodd" clip-rule="evenodd" d="M134.516 74.9276L141.587 81.9986L107.202 116.384L99.3999 118.328C98.6684 118.51 98.005 117.846 98.1872 117.115L100.131 109.313L134.516 74.9276ZM99.2279 108.801L133.809 74.2205C134.199 73.8307 134.831 73.8313 135.222 74.2218L142.293 81.2929C142.683 81.6834 142.684 82.316 142.294 82.7057L107.713 117.287L99.6431 119.297C98.1801 119.661 96.8533 118.335 97.2178 116.872L99.2279 108.801Z" fill="#333333"/>
</g>
<defs>
<linearGradient id="paint0_linear_125_6647" x1="45" y1="24.6094" x2="55" y2="35" gradientUnits="userSpaceOnUse">
<stop stop-color="#FF8E3D"/>
<stop offset="1" stop-color="#FF6F3D"/>
</linearGradient>
<linearGradient id="paint1_linear_125_6647" x1="-3.67224" y1="51.9069" x2="34.4629" y2="93.9125" gradientUnits="userSpaceOnUse">
<stop stop-color="#FFC671"/>
<stop offset="1" stop-color="#FF6F3D"/>
</linearGradient>
<linearGradient id="paint2_linear_125_6647" x1="111.57" y1="92.354" x2="120.641" y2="101.996" gradientUnits="userSpaceOnUse">
<stop stop-color="#FFC671"/>
<stop offset="1" stop-color="#FF6F3D"/>
</linearGradient>
<clipPath id="clip0_125_6647">
<rect width="150" height="150" fill="white"/>
</clipPath>
</defs>
</svg>
