<svg width="16" height="17" viewBox="0 0 16 17" fill="none" xmlns="http://www.w3.org/2000/svg">
<g clip-path="url(#clip0_13_2742)">
<path d="M8.5 3.75781C11.8012 3.75781 14.5 6.45665 14.5 9.75781C14.5 13.059 11.8012 15.7578 8.5 15.7578C5.19884 15.7578 2.5 13.059 2.5 9.75781C2.5 6.45665 5.19884 3.75781 8.5 3.75781Z" fill="white" stroke="#333333"/>
<mask id="path-2-outside-1_13_2742" maskUnits="userSpaceOnUse" x="4.25755" y="5.42939" width="8.48528" height="8.48528" fill="black">
<rect fill="white" x="4.25755" y="5.42939" width="8.48528" height="8.48528"/>
<path fill-rule="evenodd" clip-rule="evenodd" d="M10.6215 7.55071L9.20729 10.3791L6.37887 11.7933L7.79308 8.96492L10.6215 7.55071Z"/>
</mask>
<path fill-rule="evenodd" clip-rule="evenodd" d="M10.6215 7.55071L9.20729 10.3791L6.37887 11.7933L7.79308 8.96492L10.6215 7.55071Z" fill="#BDECFF"/>
<path d="M9.20729 10.3791L10.1017 10.8263C10.005 11.0199 9.84803 11.1768 9.65451 11.2736L9.20729 10.3791ZM10.6215 7.55071L10.1743 6.65628C10.5593 6.46378 11.0243 6.53924 11.3286 6.8436C11.633 7.14796 11.7084 7.61293 11.5159 7.99792L10.6215 7.55071ZM6.37887 11.7933L6.82608 12.6878C6.44109 12.8803 5.97612 12.8048 5.67176 12.5005C5.3674 12.1961 5.29194 11.7311 5.48444 11.3461L6.37887 11.7933ZM7.79308 8.96492L6.89865 8.51771C6.99542 8.32418 7.15234 8.16726 7.34587 8.07049L7.79308 8.96492ZM8.31287 9.93192L9.72708 7.10349L11.5159 7.99792L10.1017 10.8263L8.31287 9.93192ZM9.65451 11.2736L6.82608 12.6878L5.93165 10.8989L8.76008 9.48471L9.65451 11.2736ZM5.48444 11.3461L6.89865 8.51771L8.68751 9.41213L7.27329 12.2406L5.48444 11.3461ZM11.0687 8.44513L8.24029 9.85935L7.34587 8.07049L10.1743 6.65628L11.0687 8.44513Z" fill="#333333" mask="url(#path-2-outside-1_13_2742)"/>
<path fill-rule="evenodd" clip-rule="evenodd" d="M7.79331 8.96469L9.20752 10.3789L10.6217 7.55048L7.79331 8.96469Z" fill="url(#paint0_linear_13_2742)"/>
<path fill-rule="evenodd" clip-rule="evenodd" d="M12.0381 9.75781C12.0381 10.0356 12.2864 10.2578 12.5967 10.2578H14.0174C14.0174 10.0911 14.0381 9.92448 14.0381 9.75781C14.0381 9.59114 14.0381 9.42448 14.0174 9.25781H12.5967C12.2864 9.25781 12.0381 9.48003 12.0381 9.75781Z" fill="#333333"/>
<path fill-rule="evenodd" clip-rule="evenodd" d="M8.51367 6.22021C8.79145 6.22021 9.01367 5.97194 9.01367 5.66159L9.01367 4.2409C8.84701 4.2409 8.68034 4.22021 8.51367 4.22021C8.347 4.22021 8.18034 4.22022 8.01367 4.2409L8.01367 5.66159C8.01367 5.97194 8.23589 6.22021 8.51367 6.22021Z" fill="#333333"/>
<path fill-rule="evenodd" clip-rule="evenodd" d="M4.98828 9.75781C4.98828 10.0356 4.74 10.2578 4.42966 10.2578H3.00897C3.00897 10.0911 2.98828 9.92448 2.98828 9.75781C2.98828 9.59114 2.98828 9.42448 3.00897 9.25781H4.42966C4.74 9.25781 4.98828 9.48003 4.98828 9.75781Z" fill="#333333"/>
<path fill-rule="evenodd" clip-rule="evenodd" d="M8.5 13.2578C8.77778 13.2578 9 13.5061 9 13.8164L9 15.2371C8.83333 15.2371 8.66667 15.2578 8.5 15.2578C8.33333 15.2578 8.16667 15.2578 8 15.2371L8 13.8164C8 13.5061 8.22222 13.2578 8.5 13.2578Z" fill="#333333"/>
<path d="M11.0528 3.73834C11.0528 2.3282 9.9097 1.18506 8.49957 1.18506C7.08943 1.18506 5.94629 2.3282 5.94629 3.73834" stroke="#333333" stroke-linecap="round" stroke-linejoin="round"/>
</g>
<defs>
<linearGradient id="paint0_linear_13_2742" x1="9.12465" y1="10.4618" x2="8.51394" y2="7.09765" gradientUnits="userSpaceOnUse">
<stop stop-color="#FF8E3D"/>
<stop offset="1" stop-color="#FF6F3D"/>
</linearGradient>
<clipPath id="clip0_13_2742">
<rect width="16" height="16" fill="white" transform="translate(0 0.257812)"/>
</clipPath>
</defs>
</svg>
