<svg width="280" height="280" viewBox="0 0 280 280" fill="none" xmlns="http://www.w3.org/2000/svg">
<mask id="mask0" mask-type="alpha" maskUnits="userSpaceOnUse" x="0" y="0" width="280" height="280">
<rect width="280" height="280" fill="white"/>
</mask>
<g mask="url(#mask0)">
<path opacity="0.6" d="M113.891 13.0947C128.78 -2.17495 153.292 -2.2868 168.32 12.8464L265.205 110.408C280.311 125.62 279.936 150.285 264.373 165.029L167.779 256.547C153.646 269.937 131.701 270.549 116.843 257.967L15.7021 172.313C-1.19362 158.004 -2.41626 132.371 13.0409 116.519L113.891 13.0947Z" fill="#F1F9FE"/>
</g>
<rect x="82.0244" y="111.186" width="121.375" height="68.7691" rx="4.8951" fill="#0F4071"/>
<g filter="url(#filter0_d)">
<path d="M94.5661 57.7622C94.5661 55.0587 96.7577 52.8671 99.4612 52.8671H161.381L192.004 87.1897V172.654C192.004 175.357 189.813 177.549 187.109 177.549H99.4612C96.7577 177.549 94.5661 175.357 94.5661 172.654V57.7622Z" fill="white"/>
<path d="M96.5241 57.7622C96.5241 56.1401 97.8391 54.8252 99.4612 54.8252H160.504L190.046 87.9362V172.654C190.046 174.276 188.731 175.591 187.109 175.591H99.4612C97.8391 175.591 96.5241 174.276 96.5241 172.654V57.7622Z" stroke="white" stroke-width="3.91608"/>
</g>
<path d="M191.969 86.2635L161.721 53.8561V82.3474C161.721 84.5102 163.474 86.2635 165.637 86.2635H191.969Z" fill="#8BB3EA"/>
<line x1="113.228" y1="72.9048" x2="148.287" y2="72.9048" stroke="#586C8F" stroke-width="3.91608" stroke-linecap="round"/>
<line x1="113.228" y1="103.725" x2="132.975" y2="103.725" stroke="#586C8F" stroke-width="3.91608" stroke-linecap="round"/>
<line x1="145.243" y1="103.725" x2="174.734" y2="103.725" stroke="#586C8F" stroke-width="3.91608" stroke-linecap="round"/>
<line x1="113.228" y1="119.135" x2="142.719" y2="119.135" stroke="#586C8F" stroke-width="3.91608" stroke-linecap="round"/>
<line x1="113.228" y1="84.1123" x2="126.016" y2="84.1123" stroke="#586C8F" stroke-width="3.91608" stroke-linecap="round"/>
<path d="M192.921 207.552H91.3495C86.7309 207.552 82.7405 204.325 81.7754 199.808L72.0396 154.246C70.7377 148.153 75.3832 142.41 81.6137 142.41H131.037C133.116 142.41 135.142 141.748 136.82 140.52L154.622 127.489C156.3 126.261 158.326 125.599 160.405 125.599H204.575C210.702 125.599 215.324 131.164 214.199 137.187L202.545 199.56C201.679 204.194 197.635 207.552 192.921 207.552Z" fill="#FFD064"/>
<path d="M192.848 207.552H91.2909C86.6989 207.552 82.724 204.361 81.7319 199.878L80.4389 194.034C79.0864 187.922 83.7381 182.129 89.9978 182.129H123.231C125.31 182.129 127.336 181.467 129.013 180.239L146.816 167.208C148.494 165.98 150.52 165.318 152.599 165.318H196.874C202.966 165.318 207.579 170.823 206.513 176.821L202.487 199.475C201.657 204.148 197.594 207.552 192.848 207.552Z" fill="#FFD064"/>
<defs>
<filter id="filter0_d" x="72.0486" y="29.3706" width="144.431" height="171.675" filterUnits="userSpaceOnUse" color-interpolation-filters="sRGB">
<feFlood flood-opacity="0" result="BackgroundImageFix"/>
<feColorMatrix in="SourceAlpha" type="matrix" values="0 0 0 0 0 0 0 0 0 0 0 0 0 0 0 0 0 0 127 0"/>
<feOffset dx="0.979021"/>
<feGaussianBlur stdDeviation="11.7483"/>
<feColorMatrix type="matrix" values="0 0 0 0 0.305882 0 0 0 0 0.768627 0 0 0 0 0.976471 0 0 0 0.16 0"/>
<feBlend mode="normal" in2="BackgroundImageFix" result="effect1_dropShadow"/>
<feBlend mode="normal" in="SourceGraphic" in2="effect1_dropShadow" result="shape"/>
</filter>
</defs>
</svg>
