<svg width="150" height="150" viewBox="0 0 150 150" fill="none" xmlns="http://www.w3.org/2000/svg">
<path fill-rule="evenodd" clip-rule="evenodd" d="M25 82V46H16C10.598 46 7 50.848 7 54.5728V82H25Z" fill="#BDECFF"/>
<path fill-rule="evenodd" clip-rule="evenodd" d="M26 83H6V54.5728C6 52.4146 7.02703 50.0355 8.74514 48.2052C10.4794 46.3576 12.9825 45 16 45H26V83ZM16 46C10.598 46 7 50.848 7 54.5728V82H25V46H16Z" fill="#333333"/>
<path fill-rule="evenodd" clip-rule="evenodd" d="M25 2H102.106L121 20.6683V82H25V2Z" fill="white"/>
<path fill-rule="evenodd" clip-rule="evenodd" d="M24 1H103L122 20V83H24V1ZM25 2V82H121V20.6683L102.106 2H25Z" fill="#333333"/>
<path fill-rule="evenodd" clip-rule="evenodd" d="M103 2L121 20H103V2Z" fill="url(#paint0_linear_125_6782)"/>
<path fill-rule="evenodd" clip-rule="evenodd" d="M102.617 1.07615C102.991 0.921369 103.421 1.00692 103.707 1.29292L121.707 19.2929C121.993 19.5789 122.079 20.009 121.924 20.3827C121.769 20.7564 121.404 21 121 21H103C102.448 21 102 20.5523 102 20V2.00003C102 1.59557 102.244 1.23093 102.617 1.07615ZM103 2.00003V20H121L103 2.00003Z" fill="#333333"/>
<path fill-rule="evenodd" clip-rule="evenodd" d="M122 46V70H140V53.8144C140 49 136 46 132 46H122Z" fill="#BDECFF"/>
<path fill-rule="evenodd" clip-rule="evenodd" d="M121 45H132C136.452 45 141 48.3524 141 53.8144V71H121V45ZM122 70V46H132C136 46 140 49 140 53.8144V70H122Z" fill="#333333"/>
<path fill-rule="evenodd" clip-rule="evenodd" d="M70.3763 71.6086L61.2807 81.7843H8.68663C4.34173 81.7843 0.565705 85.8238 1.04077 89L9.04124 140.5C12.0414 147 12.0414 147 17.77 147H134.091C138.436 147 140.818 144.172 141.065 140.986L149 73.7891C149 73.7891 146.049 69 143.824 69H76.5621C74.1967 69 72.0688 69.8961 70.3763 71.6086Z" fill="url(#paint1_linear_125_6782)"/>
<path fill-rule="evenodd" clip-rule="evenodd" d="M69.4764 71.7572C71.261 69.9513 73.5162 69 76.0175 69H143.275C147.055 69 149.4 71.9873 148.946 74.3662L141.015 141.535C140.88 143.236 140.176 144.855 138.91 146.051C137.638 147.253 135.829 148 133.543 148H17.2289C12.6436 148 9.0404 144.488 8.51583 141.063C8.51568 141.062 8.51553 141.062 8.51539 141.061L0.0468515 89.4408C-0.222844 87.6376 0.702397 85.7154 2.18835 84.2754C3.68503 82.825 5.82544 81.7843 8.14598 81.7843H60.5133L69.4676 71.7661L69.4764 71.7572ZM70.1964 72.4513L60.9607 82.7843H8.14598C6.12187 82.7843 4.22248 83.6967 2.88427 84.9935C1.53644 86.2997 0.83171 87.9172 1.0354 89.2895C1.03556 89.2906 1.03573 89.2917 1.0359 89.2928L9.50396 140.91C9.95082 143.837 13.1261 147 17.2289 147H133.543C135.602 147 137.156 146.333 138.223 145.325C139.294 144.313 139.903 142.929 140.018 141.448L140.019 141.438L147.957 74.2112L147.961 74.1921C148.281 72.5716 146.591 70 143.275 70H76.0175C73.7922 70 71.795 70.8378 70.1964 72.4513Z" fill="#333333"/>
<path d="M71 12H37V44H71V12Z" fill="white"/>
<path fill-rule="evenodd" clip-rule="evenodd" d="M36 12C36 11.4477 36.4477 11 37 11H71C71.5523 11 72 11.4477 72 12V44C72 44.5523 71.5523 45 71 45H37C36.4477 45 36 44.5523 36 44V12ZM71 12V44H37V12H71Z" fill="#333333"/>
<path fill-rule="evenodd" clip-rule="evenodd" d="M37 44L48.634 33.6061L54.8968 39.2028L64.3663 28L71 37.2651V44H37Z" fill="#E0E0E0"/>
<path fill-rule="evenodd" clip-rule="evenodd" d="M47.9677 32.8604C48.3472 32.5213 48.9208 32.5214 49.3003 32.8605L54.7967 37.7722L63.6026 27.3544C63.8017 27.1189 64.0984 26.9884 64.4065 27.0008C64.7147 27.0132 64.9999 27.1671 65.1794 27.4179L71.8131 36.683C71.9346 36.8528 72 37.0563 72 37.2651V44C72 44.5523 71.5523 45 71 45H37C36.4477 45 36 44.5523 36 44C36 43.7019 36.1305 43.4342 36.3374 43.251L47.9677 32.8604ZM37 44H71V37.2651L64.3663 28L54.8968 39.2028L48.634 33.6061L37 44Z" fill="#333333"/>
<path fill-rule="evenodd" clip-rule="evenodd" d="M37 54.5C37 54.2239 37.2239 54 37.5 54H108.5C108.776 54 109 54.2239 109 54.5C109 54.7761 108.776 55 108.5 55H37.5C37.2239 55 37 54.7761 37 54.5Z" fill="#333333"/>
<path fill-rule="evenodd" clip-rule="evenodd" d="M81 18.5C81 18.2247 81.3843 18 81.8551 18H92.1449C92.6157 18 93 18.2247 93 18.5C93 18.7753 92.6157 19 92.1449 19H81.8551C81.3843 19 81 18.7753 81 18.5Z" fill="#333333"/>
<path fill-rule="evenodd" clip-rule="evenodd" d="M81 28.5C81 28.2239 81.2239 28 81.5 28H110.5C110.776 28 111 28.2239 111 28.5C111 28.7761 110.776 29 110.5 29H81.5C81.2239 29 81 28.7761 81 28.5Z" fill="#333333"/>
<path fill-rule="evenodd" clip-rule="evenodd" d="M81 36.5C81 36.2239 81.2239 36 81.5 36H110.5C110.776 36 111 36.2239 111 36.5C111 36.7761 110.776 37 110.5 37H81.5C81.2239 37 81 36.7761 81 36.5Z" fill="#333333"/>
<path fill-rule="evenodd" clip-rule="evenodd" d="M37 62.5C37 62.2239 37.2239 62 37.5 62H66.5C66.7761 62 67 62.2239 67 62.5C67 62.7761 66.7761 63 66.5 63H37.5C37.2239 63 37 62.7761 37 62.5Z" fill="#333333"/>
<path fill-rule="evenodd" clip-rule="evenodd" d="M49 20.5C49 22.4314 47.4314 24 45.5 24C43.5686 24 42 22.4314 42 20.5C42 18.5686 43.5686 17 45.5 17C47.4314 17 49 18.5686 49 20.5Z" fill="url(#paint2_linear_125_6782)"/>
<defs>
<linearGradient id="paint0_linear_125_6782" x1="99.122" y1="1.0367" x2="109.285" y2="17.4717" gradientUnits="userSpaceOnUse">
<stop stop-color="#FFC671"/>
<stop offset="1" stop-color="#FF6F3D"/>
</linearGradient>
<linearGradient id="paint1_linear_125_6782" x1="38.156" y1="43.2413" x2="92.0374" y2="125.892" gradientUnits="userSpaceOnUse">
<stop stop-color="#FFC671"/>
<stop offset="1" stop-color="#FF6F3D"/>
</linearGradient>
<linearGradient id="paint2_linear_125_6782" x1="43.1542" y1="16.8811" x2="46.1253" y2="21.4658" gradientUnits="userSpaceOnUse">
<stop stop-color="#FFC671"/>
<stop offset="1" stop-color="#FF6F3D"/>
</linearGradient>
</defs>
</svg>
