<svg width="150" height="150" viewBox="0 0 150 150" fill="none" xmlns="http://www.w3.org/2000/svg">
<g clip-path="url(#clip0_125_9677)">
<path d="M88.9494 87.0499L84 92L98.8503 106.848L103.8 101.898L88.9494 87.0499Z" fill="#FEFEFE"/>
<path fill-rule="evenodd" clip-rule="evenodd" d="M83 91L88.6565 85.3427L104.921 101.605L99.2647 107.262L83 91ZM88.6566 86.757L103.507 101.605L99.2646 105.848L84.4143 90.9999L88.6566 86.757Z" fill="#333333"/>
<path fill-rule="evenodd" clip-rule="evenodd" d="M52.4948 102C80.389 102 103 79.3915 103 51.5C103 23.6085 80.389 1 52.4948 1C24.6105 1.00991 1.99976 23.6184 1.99976 51.5099C1.99976 79.4014 24.6105 102 52.4948 102Z" fill="#BDECFF"/>
<path fill-rule="evenodd" clip-rule="evenodd" d="M52.4944 1.78814e-07L52.4948 0C80.9412 1.19209e-07 104 23.0562 104 51.5C104 79.9438 80.9412 103 52.4948 103C24.0585 103 0.999756 79.9539 0.999756 51.5099C0.999756 23.0661 24.0582 0.0101081 52.4944 1.78814e-07ZM52.4948 1C80.389 1 103 23.6085 103 51.5C103 79.3915 80.389 102 52.4948 102C24.6105 102 1.99976 79.4014 1.99976 51.5099C1.99976 23.6184 24.6105 1.00991 52.4948 1Z" fill="#333333"/>
<path d="M51.9998 92C74.0911 92 91.9998 74.0914 91.9998 52C91.9998 29.9086 74.0911 12 51.9998 12C29.9084 12 11.9998 29.9086 11.9998 52C11.9998 74.0914 29.9084 92 51.9998 92Z" fill="#FEFEFE"/>
<path fill-rule="evenodd" clip-rule="evenodd" d="M92.9998 52C92.9998 74.6437 74.6434 93 51.9998 93C29.3561 93 10.9998 74.6437 10.9998 52C10.9998 29.3563 29.3561 11 51.9998 11C74.6434 11 92.9998 29.3563 92.9998 52ZM91.9998 52C91.9998 74.0914 74.0911 92 51.9998 92C29.9084 92 11.9998 74.0914 11.9998 52C11.9998 29.9086 29.9084 12 51.9998 12C74.0911 12 91.9998 29.9086 91.9998 52Z" fill="#333333"/>
<path fill-rule="evenodd" clip-rule="evenodd" d="M99.1301 109.815L137.195 147.87C138.702 149.377 141.17 149.377 142.677 147.87L146.87 143.677C148.377 142.17 148.377 139.702 146.87 138.195L108.805 100.13C107.298 98.6233 104.83 98.6233 103.323 100.13L99.1301 104.323C97.6233 105.84 97.6233 108.308 99.1301 109.815Z" fill="url(#paint0_linear_125_9677)"/>
<path fill-rule="evenodd" clip-rule="evenodd" d="M137.195 147.87C138.702 149.377 141.17 149.377 142.677 147.87L146.87 143.677C148.377 142.17 148.377 139.702 146.87 138.195L108.805 100.13C107.298 98.6233 104.83 98.6233 103.323 100.13L99.1301 104.323C97.6233 105.84 97.6233 108.308 99.1301 109.815L137.195 147.87ZM99.8395 105.028C99.8391 105.028 99.8387 105.029 99.8384 105.029C98.7189 106.157 98.7226 107.993 99.8371 109.108C99.8371 109.108 99.837 109.108 99.8371 109.108L137.902 147.163C139.018 148.279 140.854 148.279 141.97 147.163L146.163 142.97C147.279 141.854 147.279 140.018 146.163 138.902L108.098 100.837C106.982 99.7209 105.146 99.7209 104.03 100.837L99.8395 105.028Z" fill="#333333"/>
</g>
<defs>
<linearGradient id="paint0_linear_125_9677" x1="91.1645" y1="88.9484" x2="127.794" y2="129.295" gradientUnits="userSpaceOnUse">
<stop stop-color="#FFC671"/>
<stop offset="1" stop-color="#FF6F3D"/>
</linearGradient>
<clipPath id="clip0_125_9677">
<rect width="150" height="150" fill="white"/>
</clipPath>
</defs>
</svg>
