<svg width="150" height="150" viewBox="0 0 150 150" fill="none" xmlns="http://www.w3.org/2000/svg">
<g clip-path="url(#clip0_125_7774)">
<path fill-rule="evenodd" clip-rule="evenodd" d="M120 8C120 5.79086 119.181 3.8854 116 4H26.0426C25.7766 4 25.5216 4.10596 25.334 4.29445L4.29134 25.4301C4.10475 25.6175 4 25.8712 4 26.1357V142C4 144.209 5.79086 146 8 146H116C118.209 146 120 144.209 120 142V8Z" fill="white"/>
<path fill-rule="evenodd" clip-rule="evenodd" d="M121 7.5C121 5.01472 118.985 3 116.5 3H27.4142C27.0164 3 26.6349 3.15804 26.3536 3.43934L4.43934 25.3536C4.15803 25.6349 4 26.0164 4 26.4142V141.5C4 143.985 6.01472 146 8.5 146H116.5C118.985 146 121 143.985 121 141.5V83.5C121 83.2239 120.776 83 120.5 83C120.224 83 120 83.2239 120 83.5V141.5C120 143.433 118.433 145 116.5 145H8.5C6.56701 145 5 143.433 5 141.5V26.4142C5 26.2816 5.05268 26.1544 5.14645 26.0607L27.0607 4.14645C27.1544 4.05268 27.2816 4 27.4142 4H116.5C118.433 4 120 5.567 120 7.5V21.25C120 21.5261 120.224 21.75 120.5 21.75C120.776 21.75 121 21.5261 121 21.25V7.5Z" fill="#333333"/>
<path fill-rule="evenodd" clip-rule="evenodd" d="M27 4L5 26H24C25.6569 26 27 24.6569 27 23V4Z" fill="url(#paint0_linear_125_7774)"/>
<path fill-rule="evenodd" clip-rule="evenodd" d="M27.3827 3.07615C27.009 2.92137 26.5789 3.00692 26.2929 3.29292L4.29289 25.2929C4.0069 25.5789 3.92134 26.009 4.07612 26.3827C4.2309 26.7564 4.59554 27 5 27H24C26.2091 27 28 25.2092 28 23V4.00003C28 3.59557 27.7564 3.23093 27.3827 3.07615ZM27 4.00003V23C27 24.6569 25.6569 26 24 26H5L27 4.00003Z" fill="#333333"/>
<path fill-rule="evenodd" clip-rule="evenodd" d="M43.9077 36.504C43.9077 36.2278 43.6835 36.0039 43.4071 36.0039H35.6283C35.3518 36.0039 35.1277 36.2278 35.1277 36.504C35.1277 36.7801 35.3518 37.004 35.6283 37.004H43.4071C43.6835 37.004 43.9077 36.7801 43.9077 36.504ZM77.9893 66.5011C77.9893 66.225 77.7651 66.0011 77.4887 66.0011H55.4624C55.186 66.0011 54.9618 66.225 54.9618 66.5011C54.9618 66.7773 55.186 67.0012 55.4624 67.0012H77.4887C77.7651 67.0012 77.9893 66.7773 77.9893 66.5011ZM45.9511 66.5011C45.9511 66.225 45.727 66.0011 45.4505 66.0011H23.4243C23.1478 66.0011 22.9237 66.225 22.9237 66.5011C22.9237 66.7773 23.1478 67.0012 23.4243 67.0012H45.4505C45.727 67.0012 45.9511 66.7773 45.9511 66.5011ZM83.9964 81.0041C84.2729 81.0041 84.497 81.228 84.497 81.5041C84.497 81.7803 84.2729 82.0042 83.9964 82.0042H22.9237C22.6472 82.0042 22.4231 81.7803 22.4231 81.5041C22.4231 81.228 22.6472 81.0041 22.9237 81.0041H83.9964ZM66.9762 51.507C66.9762 51.2308 66.752 51.0069 66.4756 51.0069H44.9519H23.4282C23.1518 51.0069 22.9276 51.2308 22.9276 51.507C22.9276 51.7832 23.1518 52.0071 23.4282 52.0071H66.4756C66.752 52.0071 66.9762 51.7832 66.9762 51.507ZM51.4577 96.0064C51.7341 96.0064 51.9583 96.2303 51.9583 96.5065C51.9583 96.7826 51.7341 97.0065 51.4577 97.0065H22.8801C22.6036 97.0065 22.3795 96.7826 22.3795 96.5065C22.3795 96.2303 22.6036 96.0064 22.8801 96.0064H51.4577ZM63.9726 126.504C63.9726 126.228 63.7485 126.004 63.472 126.004H22.5006C22.2241 126.004 22 126.228 22 126.504C22 126.78 22.2241 127.004 22.5006 127.004H63.472C63.7485 127.004 63.9726 126.78 63.9726 126.504ZM86.4994 111.01C86.7759 111.01 87 111.234 87 111.51C87 111.786 86.7759 112.01 86.4994 112.01H23.1399C22.8634 112.01 22.6393 111.786 22.6393 111.51C22.6393 111.234 22.8634 111.01 23.1399 111.01H86.4994Z" fill="#333333"/>
<path fill-rule="evenodd" clip-rule="evenodd" d="M85.5 96.499C85.5 96.2229 85.2766 95.999 85.0009 95.999H62.9991C62.7234 95.999 62.5 96.2229 62.5 96.499C62.5 96.7752 62.7234 96.999 62.9991 96.999H85.0009C85.2766 96.999 85.5 96.7752 85.5 96.499Z" fill="#333333"/>
<path fill-rule="evenodd" clip-rule="evenodd" d="M93 21C93 20.4477 92.5523 20 92 20H52C51.4477 20 51 20.4477 51 21C51 21.5523 51.4477 22 52 22H92C92.5523 22 93 21.5523 93 21Z" fill="url(#paint1_linear_125_7774)"/>
<path fill-rule="evenodd" clip-rule="evenodd" d="M141.169 39.8023L112.408 76.2748V115.692C112.408 116.353 111.719 117.314 111.198 116.9L99.8388 107.951C99.3177 107.537 98.6287 107.405 98.6287 106.743V76.266L69.8861 39.8199C66.7497 35.8397 67.8304 32 72.801 32H140.011C144.675 32 142.918 37.5718 141.169 39.8023Z" fill="#BDECFF"/>
<path fill-rule="evenodd" clip-rule="evenodd" d="M112.408 76.2748L141.169 39.8023C142.918 37.5718 144.675 32 140.011 32H71.3877C66.3087 32 67.934 37.3426 69.8861 39.8199L98.6287 76.266V106.743C98.6287 107.405 99.3177 107.537 99.8388 107.951L111.198 116.9C111.719 117.314 112.408 116.353 112.408 115.692V76.2748ZM140.384 39.1845L111.41 75.9274V115.692C111.41 115.69 111.408 115.727 111.391 115.779L100.459 107.168C100.198 106.961 99.8996 106.819 99.6266 106.632V75.9185L70.6692 39.2002C69.7834 38.0759 69.0108 36.3295 68.9981 34.9716C68.9919 34.3167 69.1605 33.8659 69.4461 33.5759C69.7295 33.2881 70.2844 33 71.3877 33H140.011C140.976 33 141.419 33.2807 141.639 33.5459C141.883 33.8389 142.029 34.3192 141.998 35.0198C141.934 36.4435 141.157 38.1986 140.385 39.1837L140.384 39.1845Z" fill="#333333"/>
</g>
<defs>
<linearGradient id="paint0_linear_125_7774" x1="27" y1="3.14062" x2="4.99996" y2="26" gradientUnits="userSpaceOnUse">
<stop stop-color="#FF8E3D"/>
<stop offset="1" stop-color="#FF6F3D"/>
</linearGradient>
<linearGradient id="paint1_linear_125_7774" x1="92.9999" y1="19.9219" x2="92.8169" y2="23.9164" gradientUnits="userSpaceOnUse">
<stop stop-color="#FF8E3D"/>
<stop offset="1" stop-color="#FF6F3D"/>
</linearGradient>
<clipPath id="clip0_125_7774">
<rect width="150" height="150" fill="white"/>
</clipPath>
</defs>
</svg>
