<svg width="100" height="100" viewBox="0 0 100 100" fill="none" xmlns="http://www.w3.org/2000/svg">
<g clip-path="url(#clip0_125_3504)">
<path fill-rule="evenodd" clip-rule="evenodd" d="M46.2198 15.915C47.7752 13.3729 51.4873 13.3592 53.0618 15.8897L95.3951 83.9255C97.0458 86.5785 95.1233 90.0001 91.9819 90.0001H14.0492H8.01798C4.89 90.0001 2.96536 86.6046 4.58917 83.9508L46.2198 15.915Z" fill="url(#paint0_linear_125_3504)"/>
<path fill-rule="evenodd" clip-rule="evenodd" d="M94.5418 84.3756L52.2085 15.4446C51.0276 13.5217 48.2436 13.5322 47.077 15.4638L5.44637 84.3948C4.22852 86.4113 5.672 88.9915 8.01798 88.9915H91.9819C94.3379 88.9915 95.7799 86.3915 94.5418 84.3756ZM53.0618 14.9146C51.4872 12.3508 47.7752 12.3647 46.2198 14.9402L4.58917 83.8712C2.96536 86.5599 4.89 90.0001 8.01798 90.0001H91.9819C95.1233 90.0001 97.0458 86.5335 95.3951 83.8456L53.0618 14.9146Z" fill="#333333"/>
<path d="M56 46.6993C56 49.7686 55.3194 53.599 53.9582 58.1906C53.6478 59.2219 53.3493 60.2531 53.0627 61.2844C52.7761 62.3157 52.4657 63.3592 52.1313 64.415C51.4149 66.674 50.7582 67.7667 50.1612 67.693C49.5164 67.5948 48.8 66.453 48.0119 64.2677C47.8687 63.8994 47.6299 63.2119 47.2955 62.2052C46.9851 61.1985 46.5672 59.8603 46.0418 58.1906C44.6806 53.7463 44 50.0141 44 46.994C44 41.7885 46.006 39.1244 50.0179 39.0017C54.006 38.928 56 41.4939 56 46.6993ZM54.5672 74.2489C54.5672 75.4766 54.1731 76.557 53.3851 77.4901C52.5254 78.4968 51.403 79.0001 50.0179 79.0001C48.5612 79.0001 47.4149 78.5336 46.5791 77.6005C45.791 76.692 45.397 75.5994 45.397 74.3226C45.397 73.0212 45.791 71.904 46.5791 70.971C47.391 70.0379 48.5015 69.5714 49.9104 69.5714C51.391 69.5714 52.5373 70.0379 53.3493 70.971C54.1612 71.9286 54.5672 73.0212 54.5672 74.2489Z" fill="white"/>
</g>
<defs>
<linearGradient id="paint0_linear_125_3504" x1="-0.51536" y1="20.9921" x2="53.4028" y2="81.5937" gradientUnits="userSpaceOnUse">
<stop stop-color="#FFC671"/>
<stop offset="1" stop-color="#FF6F3D"/>
</linearGradient>
<clipPath id="clip0_125_3504">
<rect width="100" height="100" fill="white"/>
</clipPath>
</defs>
</svg>
