<svg width="100" height="100" viewBox="0 0 100 100" fill="none" xmlns="http://www.w3.org/2000/svg">
<path d="M61.6932 39.7624L59.2029 40.3039C58.1277 40.5377 57.2724 41.3299 56.8509 42.3465C56.4292 43.3638 56.4729 44.5312 57.0683 45.4576L58.4466 47.6021C58.8644 48.2525 58.7725 49.1064 58.2263 49.6527L51.6424 56.2382C51.0962 56.7845 50.2425 56.8764 49.5922 56.4585L47.4483 55.0798C46.5222 54.4843 45.3549 54.4406 44.3379 54.8625C43.3215 55.284 42.5295 56.1395 42.2958 57.215L41.7544 59.7059C41.5904 60.4612 40.9216 61 40.1489 61H30.8381C30.0654 61 29.3967 60.4612 29.2326 59.7059L28.6913 57.215C28.4575 56.1395 27.6655 55.284 26.6491 54.8625C25.6321 54.4406 24.4649 54.4843 23.5387 55.0798L21.3948 56.4585C20.7445 56.8764 19.8908 56.7845 19.3446 56.2382L12.7607 49.6527C12.2145 49.1064 12.1226 48.2525 12.5404 47.6021L13.9188 45.4576C14.5141 44.5313 14.5578 43.3638 14.1361 42.3465C13.7146 41.3299 12.8593 40.5377 11.7841 40.3039L9.29379 39.7624C8.53866 39.5979 8 38.9294 8 38.1565V28.8435C8 28.0706 8.53866 27.4021 9.29379 27.2376L11.7841 26.6961C12.8593 26.4623 13.7146 25.6701 14.1361 24.6535C14.5578 23.6362 14.5141 22.4688 13.9188 21.5424L12.5404 19.3979C12.1226 18.7475 12.2145 17.8936 12.7607 17.3473L19.3446 10.7618C19.8908 10.2155 20.7445 10.1236 21.3948 10.5415L23.5387 11.9202C24.4649 12.5157 25.6321 12.5594 26.6491 12.1375C27.6655 11.716 28.4575 10.8605 28.6913 9.78501L29.2326 7.2941C29.3967 6.53879 30.0654 6 30.8381 6H40.1489C40.9216 6 41.5904 6.53879 41.7544 7.2941L42.2958 9.78501C42.5295 10.8605 43.3215 11.716 44.3379 12.1375C45.3549 12.5594 46.5222 12.5157 47.4483 11.9202L49.5922 10.5415C50.2425 10.1236 51.0962 10.215 51.6424 10.7618L58.2263 17.3473C58.7725 17.8936 58.8644 18.7475 58.4466 19.3979L57.0683 21.5424C56.4729 22.4688 56.4292 23.6362 56.8509 24.6535C57.2724 25.6701 58.1277 26.4623 59.2029 26.6961L61.6932 27.2376C62.4484 27.4021 62.987 28.0706 62.987 28.8435V38.1565C62.987 38.9294 62.4484 39.5979 61.6932 39.7624ZM45.3518 33.5C45.3518 28.063 40.9292 23.6394 35.4935 23.6394C30.0578 23.6394 25.6353 28.063 25.6353 33.5C25.6353 38.937 30.0578 43.3606 35.4935 43.3606C40.9292 43.3606 45.3518 38.937 45.3518 33.5Z" fill="url(#paint0_linear)"/>
<path d="M61.6932 39.7624L59.2029 40.3039C58.1277 40.5377 57.2724 41.3299 56.8509 42.3465C56.4292 43.3638 56.4729 44.5312 57.0683 45.4576L58.4466 47.6021C58.8644 48.2525 58.7725 49.1064 58.2263 49.6527L51.6424 56.2382C51.0962 56.7845 50.2425 56.8764 49.5922 56.4585L47.4483 55.0798C46.5222 54.4843 45.3549 54.4406 44.3379 54.8625C43.3215 55.284 42.5295 56.1395 42.2958 57.215L41.7544 59.7059C41.5904 60.4612 40.9216 61 40.1489 61H30.8381C30.0654 61 29.3967 60.4612 29.2326 59.7059L28.6913 57.215C28.4575 56.1395 27.6655 55.284 26.6491 54.8625C25.6321 54.4406 24.4649 54.4843 23.5387 55.0798L21.3948 56.4585C20.7445 56.8764 19.8908 56.7845 19.3446 56.2382L12.7607 49.6527C12.2145 49.1064 12.1226 48.2525 12.5404 47.6021L13.9188 45.4576C14.5141 44.5313 14.5578 43.3638 14.1361 42.3465C13.7146 41.3299 12.8593 40.5377 11.7841 40.3039L9.29379 39.7624C8.53866 39.5979 8 38.9294 8 38.1565V28.8435C8 28.0706 8.53866 27.4021 9.29379 27.2376L11.7841 26.6961C12.8593 26.4623 13.7146 25.6701 14.1361 24.6535C14.5578 23.6362 14.5141 22.4688 13.9188 21.5424L12.5404 19.3979C12.1226 18.7475 12.2145 17.8936 12.7607 17.3473L19.3446 10.7618C19.8908 10.2155 20.7445 10.1236 21.3948 10.5415L23.5387 11.9202C24.4649 12.5157 25.6321 12.5594 26.6491 12.1375C27.6655 11.716 28.4575 10.8605 28.6913 9.78501L29.2326 7.2941C29.3967 6.53879 30.0654 6 30.8381 6H40.1489C40.9216 6 41.5904 6.53879 41.7544 7.2941L42.2958 9.78501C42.5295 10.8605 43.3215 11.716 44.3379 12.1375C45.3549 12.5594 46.5222 12.5157 47.4483 11.9202L49.5922 10.5415C50.2425 10.1236 51.0962 10.215 51.6424 10.7618L58.2263 17.3473C58.7725 17.8936 58.8644 18.7475 58.4466 19.3979L57.0683 21.5424C56.4729 22.4688 56.4292 23.6362 56.8509 24.6535C57.2724 25.6701 58.1277 26.4623 59.2029 26.6961L61.6932 27.2376C62.4484 27.4021 62.987 28.0706 62.987 28.8435V38.1565C62.987 38.9294 62.4484 39.5979 61.6932 39.7624ZM45.3518 33.5C45.3518 28.063 40.9292 23.6394 35.4935 23.6394C30.0578 23.6394 25.6353 28.063 25.6353 33.5C25.6353 38.937 30.0578 43.3606 35.4935 43.3606C40.9292 43.3606 45.3518 38.937 45.3518 33.5Z" fill="#CCE9FF"/>
<path fill-rule="evenodd" clip-rule="evenodd" d="M51.6424 10.7618L58.2263 17.3473C58.7725 17.8936 58.8644 18.7475 58.4466 19.3979L57.0683 21.5424C56.4729 22.4688 56.4292 23.6362 56.8509 24.6535C57.2724 25.6701 58.1277 26.4623 59.2029 26.6961L61.6932 27.2376C62.4484 27.4021 62.987 28.0706 62.987 28.8435V38.1565C62.987 38.9294 62.4484 39.5979 61.6932 39.7624L59.2029 40.3039C58.1277 40.5377 57.2724 41.3299 56.8509 42.3465C56.4292 43.3638 56.4729 44.5312 57.0683 45.4576L58.4466 47.6021C58.8644 48.2525 58.7725 49.1064 58.2263 49.6527L51.6424 56.2382C51.0962 56.7845 50.2425 56.8764 49.5922 56.4585L47.4483 55.0798C46.5222 54.4843 45.3549 54.4406 44.3379 54.8625C43.3215 55.284 42.5295 56.1395 42.2958 57.215L41.7544 59.7059C41.5904 60.4612 40.9216 61 40.1489 61H30.8381C30.0654 61 29.3967 60.4612 29.2326 59.7059L28.6913 57.215C28.4575 56.1395 27.6655 55.284 26.6491 54.8625C25.6321 54.4406 24.4649 54.4843 23.5387 55.0798L21.3948 56.4585C20.7445 56.8764 19.8908 56.7845 19.3446 56.2382L12.7607 49.6527C12.2145 49.1064 12.1226 48.2525 12.5404 47.6021L13.9188 45.4576C14.5141 44.5312 14.5578 43.3638 14.1361 42.3465C13.7146 41.3299 12.8593 40.5377 11.7841 40.3039L9.29379 39.7624C8.53866 39.5979 8 38.9294 8 38.1565V28.8435C8 28.0706 8.53866 27.4021 9.29379 27.2376L11.7841 26.6961C12.8593 26.4623 13.7146 25.6701 14.1361 24.6535C14.5578 23.6362 14.5141 22.4688 13.9188 21.5424L12.5404 19.3979C12.1226 18.7475 12.2145 17.8936 12.7607 17.3473L19.3446 10.7618C19.8908 10.2155 20.7445 10.1236 21.3948 10.5415L23.5387 11.9202C24.4649 12.5157 25.6321 12.5594 26.6491 12.1375C27.6655 11.716 28.4575 10.8605 28.6913 9.78501L29.2326 7.2941C29.3967 6.53879 30.0654 6 30.8381 6H40.1489C40.9216 6 41.5904 6.53879 41.7544 7.2941L42.2958 9.78501C42.5295 10.8605 43.3215 11.716 44.3379 12.1375C45.3549 12.5594 46.5222 12.5157 47.4483 11.9202L49.5922 10.5415C50.2425 10.1236 51.0962 10.215 51.6424 10.7618ZM50.1329 11.3827C50.3879 11.2189 50.722 11.2552 50.9352 11.4686L57.5194 18.0544C57.733 18.268 57.7692 18.6024 57.6056 18.8572L56.2273 21.0016C55.4323 22.2385 55.3968 23.7567 55.9274 25.0365C56.4579 26.316 57.5555 27.3613 58.9905 27.6733L61.4805 28.2147C61.7765 28.2792 61.9873 28.5411 61.9873 28.8435V38.1565C61.9873 38.4588 61.7766 38.7206 61.4808 38.7852M61.4808 38.7852L58.9905 39.3267C57.5555 39.6387 56.4579 40.684 55.9274 41.9635C55.3968 43.2433 55.4323 44.7615 56.2273 45.9984L57.6055 48.1427C57.769 48.3974 57.733 48.732 57.5194 48.9456L50.9355 55.5311C50.7219 55.7447 50.3876 55.7809 50.1329 55.6173L47.9889 54.2387C46.7524 53.4435 45.2345 53.408 43.955 53.9387C42.6758 54.4693 41.6308 55.5672 41.3188 57.0026L40.7774 59.4935C40.7133 59.7887 40.4516 60 40.1489 60H30.8381C30.5354 60 30.2737 59.7888 30.2096 59.4936L29.6682 57.0026C29.3562 55.5672 28.3112 54.4693 27.032 53.9387C25.7525 53.408 24.2346 53.4435 22.9981 54.2387L20.8543 55.6172C20.5996 55.7808 20.2651 55.7447 20.0515 55.5311L13.4676 48.9456C13.254 48.732 13.2179 48.3976 13.3814 48.1428L14.7597 45.9984C15.5547 44.7615 15.5902 43.2433 15.0596 41.9635C14.5292 40.684 13.4315 39.6387 11.9965 39.3267L9.50653 38.7853C9.21056 38.7208 8.99976 38.4589 8.99976 38.1565V28.8435C8.99976 28.5411 9.21056 28.2792 9.50653 28.2147L11.9965 27.6733C13.4315 27.3613 14.5292 26.316 15.0596 25.0365C15.5902 23.7567 15.5547 22.2385 14.7597 21.0016L13.3815 18.8573C13.218 18.6026 13.254 18.268 13.4676 18.0544L20.0515 11.4689C20.2651 11.2553 20.5994 11.2191 20.8541 11.3827L22.9981 12.7613C24.2346 13.5565 25.7525 13.592 27.032 13.0613C28.3112 12.5307 29.3562 11.4328 29.6682 9.99744L30.2096 7.50653C30.2737 7.21133 30.5354 7 30.8381 7H40.1489C40.4516 7 40.7133 7.21117 40.7774 7.50637L41.3188 9.99744C41.6308 11.4328 42.6758 12.5307 43.955 13.0613C45.2345 13.592 46.7524 13.5565 47.9889 12.7613L50.1329 11.3827M46.3515 33.5C46.3515 27.5107 41.4814 22.6394 35.4935 22.6394C29.5057 22.6394 24.6355 27.5107 24.6355 33.5C24.6355 39.4893 29.5057 44.3606 35.4935 44.3606C41.4814 44.3606 46.3515 39.4893 46.3515 33.5ZM35.4935 23.6394C40.9292 23.6394 45.3518 28.063 45.3518 33.5C45.3518 38.937 40.9292 43.3606 35.4935 43.3606C30.0578 43.3606 25.6353 38.937 25.6353 33.5C25.6353 28.063 30.0578 23.6394 35.4935 23.6394Z" fill="#333333"/>
<path d="M91.3059 57.803L89.9926 58.0885C89.4256 58.2117 88.9743 58.6294 88.7517 59.1654V59.1654C88.529 59.7017 88.5516 60.3172 88.8652 60.8056L89.5912 61.9363C89.8113 62.2792 89.7625 62.7294 89.4743 63.0174L86.0005 66.4895C85.7123 66.7775 85.2621 66.8259 84.9194 66.6056L83.7894 65.8787C83.3013 65.5648 82.6859 65.5417 82.1495 65.7641V65.7641C81.6134 65.9864 81.1955 66.4374 81.0719 67.0044L80.7855 68.3177C80.6988 68.7159 80.346 69 79.9385 69H75.0292C74.6218 69 74.2694 68.7159 74.1832 68.3177L73.8986 67.0044C73.7757 66.4374 73.3584 65.9864 72.8227 65.7641V65.7641C72.2866 65.5417 71.6711 65.5648 71.1826 65.8787L70.0516 66.6056C69.7086 66.8259 69.2585 66.7775 68.9707 66.4895L65.5015 63.0174C65.2137 62.7294 65.1656 62.2792 65.3861 61.9363L66.1137 60.8056C66.4279 60.3172 66.4514 59.7017 66.2294 59.1654V59.1654C66.0075 58.6294 65.5568 58.2117 64.99 58.0885L63.6771 57.803C63.279 57.7162 62.9952 57.3638 62.9955 56.9563L62.9988 52.0463C62.9991 51.6388 63.2833 51.2863 63.6816 51.1996L64.9948 50.9141C65.5618 50.7909 66.0131 50.3732 66.2357 49.8372V49.8372C66.4584 49.3009 66.4358 48.6853 66.1222 48.1969L65.3962 47.0663C65.1761 46.7234 65.2249 46.2732 65.5131 45.9852L68.987 42.5131C69.2752 42.2251 69.7253 42.1766 70.068 42.397L71.198 43.1238C71.6861 43.4378 72.3015 43.4608 72.8379 43.2384V43.2384C73.374 43.0162 73.7919 42.5651 73.9155 41.9981L74.2019 40.6849C74.2886 40.2866 74.6414 40.0026 75.0489 40.0026H79.9582C80.3657 40.0026 80.7181 40.2866 80.8043 40.6849L81.0888 41.9981C81.2117 42.5651 81.629 43.0162 82.1648 43.2384V43.2384C82.7009 43.4608 83.3163 43.4378 83.8048 43.1238L84.9358 42.397C85.2788 42.1766 85.7289 42.2249 86.0167 42.5131L89.4859 45.9852C89.7737 46.2732 89.8218 46.7234 89.6013 47.0663L88.8738 48.1969C88.5595 48.6853 88.5361 49.3009 88.7581 49.8372V49.8372C88.9799 50.3732 89.4306 50.7909 89.9975 50.9141L91.3103 51.1996C91.7084 51.2863 91.9922 51.6388 91.992 52.0463L91.9886 56.9563C91.9883 57.3638 91.7041 57.7162 91.3059 57.803ZM82.6917 54.5013C82.6936 51.6348 80.3633 49.3025 77.4972 49.3025C74.6311 49.3025 72.2977 51.6348 72.2957 54.5013C72.2938 57.3678 74.6241 59.7 77.4902 59.7C80.3563 59.7 82.6898 57.3678 82.6917 54.5013Z" fill="url(#paint1_linear)"/>
<path fill-rule="evenodd" clip-rule="evenodd" d="M80.8043 40.6849L81.0888 41.9981C81.2117 42.5651 81.629 43.0162 82.1648 43.2384C82.7009 43.4608 83.3163 43.4378 83.8048 43.1238L84.9358 42.397C85.2788 42.1766 85.7289 42.2249 86.0167 42.5131L89.4859 45.9852C89.7737 46.2732 89.8218 46.7234 89.6013 47.0663L88.8738 48.1969C88.5595 48.6853 88.5361 49.3009 88.7581 49.8372C88.9799 50.3732 89.4306 50.7909 89.9975 50.9141L91.3103 51.1996C91.7084 51.2863 91.9922 51.6388 91.992 52.0463L91.9886 56.9563C91.9883 57.3638 91.7041 57.7162 91.3059 57.803L89.9926 58.0885C89.4256 58.2117 88.9743 58.6294 88.7517 59.1654C88.529 59.7017 88.5516 60.3172 88.8652 60.8056L89.5912 61.9363C89.8113 62.2792 89.7625 62.7294 89.4743 63.0174L86.0005 66.4895C85.7123 66.7775 85.2621 66.8259 84.9194 66.6056L83.7894 65.8787C83.3013 65.5648 82.6859 65.5417 82.1495 65.7641C81.6134 65.9864 81.1955 66.4374 81.0719 67.0044L80.7855 68.3177C80.6988 68.7159 80.346 69 79.9385 69H75.0292C74.6218 69 74.2694 68.7159 74.1832 68.3177L73.8986 67.0044C73.7757 66.4374 73.3584 65.9864 72.8227 65.7641C72.2866 65.5417 71.6711 65.5648 71.1826 65.8787L70.0516 66.6056C69.7086 66.8259 69.2585 66.7775 68.9707 66.4895L65.5015 63.0174C65.2137 62.7294 65.1656 62.2792 65.3861 61.9363L66.1137 60.8056C66.4279 60.3172 66.4514 59.7017 66.2294 59.1654C66.0075 58.6294 65.5568 58.2117 64.99 58.0885L63.6771 57.803C63.279 57.7162 62.9952 57.3638 62.9955 56.9563L62.9988 52.0463C62.9991 51.6388 63.2833 51.2863 63.6816 51.1996L64.9948 50.9141C65.5618 50.7909 66.0131 50.3732 66.2357 49.8372C66.4584 49.3009 66.4358 48.6853 66.1222 48.1969L65.3962 47.0663C65.1761 46.7234 65.2249 46.2732 65.5131 45.9852L68.987 42.5131C69.2752 42.2251 69.7253 42.1766 70.068 42.397L71.198 43.1238C71.6861 43.4378 72.3015 43.4608 72.8379 43.2384C73.374 43.0162 73.7919 42.5651 73.9155 41.9981L74.2019 40.6849C74.2886 40.2866 74.6414 40.0026 75.0489 40.0026H79.9582C80.3657 40.0026 80.7181 40.2866 80.8043 40.6849ZM66.2957 46.6161L69.6173 43.2963L70.6568 43.965C71.4552 44.4786 72.4212 44.4935 73.2202 44.1622C74.0192 43.8309 74.6902 43.1375 74.8923 42.2106L75.1557 41.0026H79.85L80.1117 42.2106C80.3126 43.1375 80.9827 43.8309 81.7812 44.1622C82.5798 44.4935 83.5458 44.4786 84.3449 43.965L85.3853 43.2963L88.7024 46.6161L88.0332 47.6561C87.5191 48.455 87.5036 49.4213 87.8343 50.2202C88.165 51.0191 88.8578 51.6898 89.7844 51.8913L90.9921 52.1539L90.9889 56.8487L89.7809 57.1113C88.854 57.3128 88.1603 57.9834 87.8285 58.7823C87.4967 59.5813 87.5109 60.5475 88.0239 61.3464L88.6917 62.3865L85.3701 65.7062L84.3306 65.0375C83.5322 64.524 82.5662 64.5091 81.7672 64.8404C80.9683 65.1716 80.2972 65.865 80.0951 66.792L79.8317 68H75.1374L74.8757 66.792L73.8986 67.0044L74.8757 66.792C74.6748 65.865 74.0047 65.1716 73.2062 64.8404C72.4076 64.5091 71.4416 64.524 70.6425 65.0375L69.6021 65.7062L66.285 62.3865L66.9542 61.3464C67.4683 60.5475 67.4838 59.5813 67.1531 58.7823C66.8224 57.9834 66.1296 57.3128 65.203 57.1113L63.9953 56.8487L63.9985 52.1539L65.2065 51.8913C66.1334 51.6898 66.8272 51.0191 67.1589 50.2202C67.4907 49.4213 67.4765 48.455 66.9635 47.6561L66.2957 46.6161ZM75.1602 68.1053C75.1602 68.1052 75.1602 68.1052 75.1602 68.1052ZM79.8087 68.1054L79.8087 68.1053ZM75.1787 40.8975L75.1787 40.8973L75.1787 40.8971C75.1787 40.8973 75.1787 40.8974 75.1787 40.8975ZM83.6915 54.5013C83.6938 51.0824 80.9161 48.3025 77.4979 48.3025C74.0798 48.3025 71.2983 51.0824 71.296 54.5013C71.2936 57.9202 74.0713 60.7 77.4895 60.7C80.9077 60.7 83.6891 57.9202 83.6915 54.5013ZM77.4972 49.3025C80.3633 49.3025 82.6936 51.6348 82.6917 54.5013C82.6898 57.3678 80.3563 59.7 77.4902 59.7C74.6241 59.7 72.2938 57.3678 72.2957 54.5013C72.2977 51.6348 74.6311 49.3025 77.4972 49.3025Z" fill="#333333"/>
<path d="M65.2338 81.6436L63.7849 81.9586C63.1594 82.0946 62.6617 82.5556 62.4165 83.1471C62.1711 83.7389 62.1965 84.4182 62.5429 84.9571L63.3449 86.2048C63.588 86.5833 63.5345 87.0801 63.2167 87.3979L59.3861 91.2295C59.0683 91.5474 58.5716 91.6008 58.1933 91.3577L56.9459 90.5555C56.407 90.2091 55.7279 90.1836 55.1362 90.4291C54.5449 90.6743 54.084 91.1721 53.948 91.7978L53.6331 93.2471C53.5376 93.6865 53.1486 94 52.699 94H47.2818C46.8322 94 46.4431 93.6865 46.3477 93.2471L46.0327 91.7978C45.8967 91.1721 45.4359 90.6743 44.8445 90.4291C44.2528 90.1836 43.5737 90.2091 43.0349 90.5555L41.7875 91.3577C41.4091 91.6008 40.9124 91.5474 40.5946 91.2295L36.764 87.3979C36.4462 87.0801 36.3927 86.5833 36.6359 86.2048L37.4378 84.9571C37.7842 84.4182 37.8096 83.7389 37.5642 83.1471C37.319 82.5556 36.8214 82.0946 36.1958 81.9586L34.7469 81.6436C34.3075 81.5479 33.9941 81.1589 33.9941 80.7092L33.9941 75.2908C33.9941 74.8411 34.3075 74.4521 34.7469 74.3564L36.1958 74.0414C36.8214 73.9054 37.319 73.4444 37.5642 72.8529C37.8096 72.2611 37.7842 71.5818 37.4378 71.0429L36.6359 69.7952C36.3927 69.4167 36.4462 68.9199 36.764 68.602L40.5946 64.7705C40.9124 64.4526 41.4091 64.3992 41.7875 64.6423L43.0349 65.4445C43.5737 65.7909 44.2528 65.8164 44.8445 65.5709C45.4359 65.3257 45.8967 64.8279 46.0327 64.2022L46.3477 62.7529C46.4431 62.3135 46.8322 62 47.2818 62H52.699C53.1486 62 53.5376 62.3135 53.6331 62.7529L53.948 64.2022C54.084 64.8279 54.5449 65.3257 55.1362 65.5709C55.7279 65.8164 56.407 65.7909 56.9459 65.4445L58.1933 64.6423C58.5716 64.3992 59.0683 64.4524 59.3861 64.7705L63.2167 68.602C63.5345 68.9199 63.588 69.4167 63.3449 69.7952L62.5429 71.0429C62.1965 71.5818 62.1711 72.2611 62.4165 72.8529C62.6617 73.4444 63.1594 73.9054 63.7849 74.0414L65.2338 74.3564C65.6732 74.4521 65.9866 74.8411 65.9866 75.2908L65.9866 80.7092C65.9866 81.1589 65.6732 81.5479 65.2338 81.6436ZM55.7261 78C55.7261 74.8367 53.153 72.2629 49.9904 72.2629C46.8278 72.2629 44.2547 74.8367 44.2547 78C44.2547 81.1633 46.8278 83.7371 49.9904 83.7371C53.1529 83.7371 55.7261 81.1633 55.7261 78Z" fill="#EFEFEF"/>
<path fill-rule="evenodd" clip-rule="evenodd" d="M53.6331 62.7529L53.948 64.2022C54.084 64.8279 54.5449 65.3257 55.1362 65.5709C55.7279 65.8164 56.407 65.7909 56.9459 65.4445L58.1933 64.6423C58.5716 64.3992 59.0683 64.4524 59.3861 64.7705L63.2167 68.6021C63.5345 68.9199 63.588 69.4167 63.3449 69.7952L62.5429 71.0429C62.1965 71.5818 62.1711 72.2611 62.4165 72.8529C62.6617 73.4444 63.1594 73.9054 63.7849 74.0414L65.2338 74.3564C65.6732 74.4521 65.9866 74.8411 65.9866 75.2908L65.9866 80.7092C65.9866 81.1589 65.6732 81.5479 65.2338 81.6436L63.7849 81.9586C63.1594 82.0946 62.6617 82.5556 62.4165 83.1471C62.1711 83.7389 62.1965 84.4182 62.5429 84.9571L63.3449 86.2048C63.588 86.5833 63.5345 87.0801 63.2167 87.3979L59.3861 91.2295C59.0683 91.5474 58.5716 91.6008 58.1933 91.3577L56.9459 90.5555C56.407 90.2091 55.7279 90.1836 55.1362 90.4291C54.5449 90.6743 54.084 91.1721 53.948 91.7978L53.6331 93.2471C53.5376 93.6865 53.1486 94 52.699 94H47.2818C46.8322 94 46.4431 93.6865 46.3477 93.2471L46.0327 91.7978C45.8967 91.1721 45.4359 90.6743 44.8445 90.4291C44.2528 90.1836 43.5737 90.2091 43.0349 90.5555L41.7875 91.3577C41.4091 91.6008 40.9124 91.5474 40.5946 91.2295L36.764 87.3979C36.4462 87.0801 36.3927 86.5833 36.6359 86.2048L37.4378 84.9571C37.7842 84.4182 37.8096 83.7389 37.5642 83.1471C37.319 82.5556 36.8214 82.0946 36.1958 81.9586L34.7469 81.6436C34.3075 81.5479 33.9941 81.1589 33.9941 80.7092L33.9941 75.2908C33.9941 74.8411 34.3075 74.4521 34.7469 74.3564L36.1958 74.0414C36.8214 73.9054 37.319 73.4444 37.5642 72.8529C37.8096 72.2611 37.7842 71.5818 37.4378 71.0429L36.6359 69.7952C36.3927 69.4167 36.4462 68.9199 36.764 68.6021L40.5946 64.7705C40.9124 64.4526 41.4091 64.3992 41.7875 64.6423L43.0349 65.4445C43.5737 65.7909 44.2528 65.8164 44.8445 65.5709C45.4359 65.3257 45.8967 64.8279 46.0327 64.2022L46.3477 62.7529C46.4431 62.3135 46.8322 62 47.2818 62H52.699C53.1486 62 53.5376 62.3135 53.6331 62.7529ZM34.9939 80.6739L34.9939 75.3261L36.4082 75.0186C37.3936 74.8043 38.1336 74.0904 38.4877 73.236C38.842 72.3815 38.8247 71.3516 38.2788 70.5021L37.4959 69.2841L41.2766 65.5026L42.4942 66.2856C43.3435 66.8317 44.3732 66.849 45.2275 66.4947C46.0816 66.1404 46.7954 65.4003 47.0096 64.4146L47.3171 63H52.6636L52.9711 64.4146C53.1853 65.4003 53.8991 66.1404 54.7533 66.4947C55.6075 66.849 56.6372 66.8317 57.4865 66.2856L58.7042 65.5026L62.4848 69.2841L61.702 70.5021C61.156 71.3516 61.1387 72.3815 61.493 73.236C61.8472 74.0904 62.5871 74.8043 63.5725 75.0186L64.9868 75.3261L64.9868 80.6739L63.5725 80.9814C62.5871 81.1957 61.8472 81.9096 61.493 82.764C61.1387 83.6185 61.156 84.6484 61.702 85.4979L62.4848 86.7159L58.7042 90.4974L57.4865 89.7144C56.6372 89.1683 55.6075 89.151 54.7533 89.5053C53.8991 89.8596 53.1853 90.5997 52.9711 91.5854L52.6636 93H47.3171L47.0096 91.5854C46.7954 90.5997 46.0816 89.8596 45.2275 89.5053C44.3732 89.151 43.3435 89.1683 42.4942 89.7144L41.2766 90.4974L37.4959 86.7159L38.2788 85.4979C38.8247 84.6484 38.842 83.6185 38.4877 82.764C38.1335 81.9096 37.3936 81.1957 36.4082 80.9814L34.9939 80.6739ZM52.6561 93.0348L52.6561 93.0346ZM56.7258 78C56.7258 74.2844 53.7051 71.2629 49.9904 71.2629C46.2756 71.2629 43.2549 74.2844 43.2549 78C43.2549 81.7156 46.2756 84.7371 49.9904 84.7371C53.7051 84.7371 56.7258 81.7156 56.7258 78ZM49.9904 72.2629C53.153 72.2629 55.7261 74.8367 55.7261 78C55.7261 81.1633 53.1529 83.7371 49.9904 83.7371C46.8278 83.7371 44.2547 81.1633 44.2547 78C44.2547 74.8367 46.8278 72.2629 49.9904 72.2629Z" fill="#333333"/>
<defs>
<linearGradient id="paint0_linear" x1="16.9775" y1="14.9796" x2="53.4577" y2="54.2567" gradientUnits="userSpaceOnUse">
<stop stop-color="#FFC671"/>
<stop offset="0.59375" stop-color="#FF7541"/>
<stop offset="1" stop-color="#FF6F3D"/>
</linearGradient>
<linearGradient id="paint1_linear" x1="70.8013" y1="43.1837" x2="87.564" y2="66.3914" gradientUnits="userSpaceOnUse">
<stop stop-color="#FFC671"/>
<stop offset="0.59375" stop-color="#FF7541"/>
<stop offset="1" stop-color="#FF6F3D"/>
</linearGradient>
</defs>
</svg>
