<svg width="100" height="100" viewBox="0 0 100 100" fill="none" xmlns="http://www.w3.org/2000/svg">
<path d="M100 44.9763C100 26.8702 79.2556 6.57896 51.0574 6.57896C22.8592 6.57896 0 6.47758 0 35.6146C0 49.2888 6.34441 53.0963 17.8248 60.2763C24.5928 64.5091 21.0727 70.5655 23.8671 79.0067C25.4373 83.75 32.8293 92.2557 51.0574 93.3667C71.6012 94.6189 100 74.1133 100 44.9763Z" fill="#F1F9FF"/>
<path d="M62.2671 36.3035C61.1932 35.9097 60.4037 35.0019 60.0114 33.9276C59.8392 33.4561 59.6476 32.989 59.4401 32.5298C59.0044 31.5657 58.9361 30.4628 59.3529 29.4904V29.4904C59.9146 28.1799 59.6121 26.6589 58.5919 25.6629L56.3875 23.5111C55.3737 22.5214 53.8635 22.24 52.5613 22.7981V22.7981C51.5741 23.2212 50.4558 23.1498 49.4809 22.6992C49.0188 22.4856 48.5479 22.2891 48.0604 22.1137C47.0185 21.7389 46.1351 20.9749 45.7741 19.9282V19.9282C45.3274 18.6326 44.1079 17.7632 42.7374 17.7632H39.5415C38.132 17.7632 36.8693 18.6347 36.3693 19.9526V19.9526C35.9754 20.9913 35.0905 21.7526 34.0459 22.1307C33.5608 22.3063 33.0801 22.5026 32.6079 22.7157C31.6362 23.1541 30.5249 23.223 29.5451 22.8031V22.8031C28.2386 22.2432 26.7229 22.5351 25.7179 23.5401L23.6065 25.6515C22.6014 26.6566 22.3095 28.1723 22.8694 29.4788V29.4788C23.2893 30.4585 23.2187 31.5685 22.7708 32.5358C22.5573 32.9969 22.3609 33.4667 22.1854 33.953C21.8045 35.0084 21.0472 35.9129 19.9982 36.3108V36.3108C18.6927 36.806 17.8295 38.0567 17.8295 39.4529V42.6194C17.8295 44.029 18.701 45.2917 20.0189 45.7916V45.7916C21.0576 46.1856 21.8189 47.0705 22.197 48.1151C22.374 48.6042 22.5721 49.0887 22.7872 49.5647C23.2229 50.5288 23.2911 51.6318 22.8744 52.6042V52.6042C22.3127 53.9147 22.6152 55.4357 23.6354 56.4316L25.8397 58.5835C26.8536 59.5732 28.3638 59.8546 29.666 59.2965V59.2965C30.6532 58.8734 31.7715 58.9448 32.7464 59.3954C33.2038 59.6068 33.6698 59.8014 34.152 59.9755C35.2074 60.3563 36.1119 61.1137 36.5098 62.1627V62.1627C37.0049 63.4681 38.2557 64.3314 39.6519 64.3314H42.6857C44.0953 64.3314 45.358 63.4599 45.8579 62.1419V62.1419C46.2519 61.1032 47.1368 60.3419 48.1814 59.9638C48.6625 59.7897 49.1392 59.5952 49.6078 59.3841C50.5871 58.943 51.7067 58.8734 52.6939 59.2965V59.2965C53.9961 59.8546 55.5062 59.5732 56.52 58.5836L58.7243 56.4317C59.7447 55.4357 60.0471 53.9146 59.4854 52.6041V52.6041C59.0687 51.6317 59.1386 50.53 59.5837 49.5703C59.7992 49.1055 59.9975 48.6319 60.1745 48.1415C60.5553 47.0862 61.3126 46.1817 62.3617 45.7838V45.7838C63.6671 45.2886 64.5304 44.0378 64.5304 42.6417V39.5441C64.5304 38.0961 63.6266 36.802 62.2671 36.3035V36.3035ZM41.0474 50.5334C35.7404 50.5334 31.4949 46.2879 31.4949 40.9809C31.4949 35.674 35.7404 31.4284 41.0474 31.4284C46.3543 31.4284 50.5999 35.674 50.5999 40.9809C50.5999 46.2879 46.3543 50.5334 41.0474 50.5334Z" fill="#FFD064"/>
<path d="M63.3873 72.7407C63.0223 72.3757 62.8709 71.8577 62.8972 71.3422C62.9079 71.134 62.9079 70.9289 62.8972 70.7207C62.8709 70.2052 63.0223 69.6871 63.3873 69.3222V69.3222C63.8393 68.8701 63.9785 68.1921 63.7411 67.5986L63.2025 66.2522C62.9629 65.6531 62.3826 65.2602 61.7373 65.2602V65.2602C61.2406 65.2602 60.7749 65.0227 60.4209 64.6743C60.2444 64.5008 60.0553 64.3272 59.8673 64.1536C59.5357 63.8473 59.3561 63.4145 59.3561 62.9631V62.9631C59.3561 62.267 58.9324 61.6411 58.2861 61.3826L57.0178 60.8753C56.4242 60.6379 55.7463 60.777 55.2942 61.2291V61.2291C54.9292 61.594 54.4112 61.7455 53.8957 61.7191C53.6875 61.7085 53.4823 61.7085 53.2742 61.7191C52.7587 61.7455 52.2406 61.594 51.8757 61.2291V61.2291C51.4236 60.777 50.7456 60.6379 50.152 60.8753L48.8057 61.4138C48.2066 61.6535 47.8137 62.2338 47.8137 62.8791V62.8791C47.8137 63.3758 47.5762 63.8414 47.2278 64.1955C47.0542 64.3719 46.8807 64.5611 46.7071 64.749C46.4008 65.0807 45.968 65.2602 45.5165 65.2602V65.2602C44.8205 65.2602 44.1946 65.684 43.9361 66.3302L43.4288 67.5986C43.1913 68.1921 43.3305 68.8701 43.7826 69.3222V69.3222C44.1475 69.6871 44.299 70.2052 44.2726 70.7207C44.262 70.9289 44.262 71.134 44.2726 71.3422C44.299 71.8577 44.1475 72.3757 43.7826 72.7407V72.7407C43.3305 73.1928 43.1913 73.8707 43.4288 74.4643L43.9673 75.8106C44.207 76.4098 44.7873 76.8026 45.4326 76.8026V76.8026C45.9293 76.8026 46.3949 77.0402 46.749 77.3885C46.9254 77.5621 47.1146 77.7357 47.3025 77.9093C47.6341 78.2156 47.8137 78.6484 47.8137 79.0998V79.0998C47.8137 79.7958 48.2375 80.4217 48.8837 80.6802L50.152 81.1876C50.7456 81.425 51.4236 81.2859 51.8757 80.8338V80.8338C52.2406 80.4688 52.7587 80.3174 53.2742 80.3438C53.4823 80.3544 53.6875 80.3544 53.8957 80.3438C54.4112 80.3174 54.9292 80.4688 55.2942 80.8338V80.8338C55.7463 81.2859 56.4242 81.425 57.0178 81.1876L58.3641 80.649C58.9633 80.4094 59.3561 79.8291 59.3561 79.1838V79.1838C59.3561 78.6871 59.5937 78.2215 59.942 77.8674C60.1156 77.6909 60.2892 77.5018 60.4628 77.3139C60.769 76.9822 61.2019 76.8026 61.6533 76.8026V76.8026C62.3493 76.8026 62.9752 76.3789 63.2337 75.7327L63.7411 74.4643C63.9785 73.8707 63.8393 73.1928 63.3873 72.7407V72.7407ZM52.1918 74.9453C49.9364 74.0166 48.8751 71.4958 49.8038 69.373C50.7324 67.1176 53.2532 66.0562 55.3761 66.9849C57.6315 67.9136 58.6928 70.4344 57.7642 72.5572C56.8354 74.8126 54.3146 75.874 52.1918 74.9453Z" fill="#83A7C5"/>
<path d="M80.7674 55.3605C80.4024 54.9956 80.251 54.4775 80.2773 53.962C80.288 53.7538 80.288 53.5487 80.2773 53.3405C80.251 52.825 80.4024 52.307 80.7674 51.942V51.942C81.2194 51.4899 81.3586 50.812 81.1212 50.2184L80.5826 48.8721C80.343 48.2729 79.7627 47.88 79.1174 47.88V47.88C78.6207 47.88 78.155 47.6425 77.8009 47.2942C77.6245 47.1206 77.4354 46.947 77.2474 46.7734C76.9158 46.4671 76.7362 46.0343 76.7362 45.5829V45.5829C76.7362 44.8869 76.3125 44.261 75.6662 44.0025L74.3979 43.4951C73.8043 43.2577 73.1263 43.3968 72.6743 43.8489V43.8489C72.3093 44.2139 71.7912 44.3653 71.2758 44.3389C71.0676 44.3283 70.8624 44.3283 70.6542 44.3389C70.1388 44.3653 69.6207 44.2139 69.2557 43.8489V43.8489C68.8037 43.3968 68.1257 43.2577 67.5321 43.4951L66.1858 44.0337C65.5867 44.2733 65.1938 44.8536 65.1938 45.4989V45.4989C65.1938 45.9956 64.9563 46.4612 64.6079 46.8153C64.4343 46.9918 64.2608 47.1809 64.0872 47.3688C63.7809 47.7005 63.3481 47.88 62.8966 47.88V47.88C62.2006 47.88 61.5747 48.3038 61.3162 48.95L60.8089 50.2184C60.5714 50.812 60.7106 51.4899 61.1626 51.942V51.942C61.5276 52.307 61.679 52.825 61.6527 53.3405C61.642 53.5487 61.642 53.7538 61.6527 53.962C61.679 54.4775 61.5276 54.9956 61.1626 55.3605V55.3605C60.7106 55.8126 60.5714 56.4906 60.8089 57.0841L61.3474 58.4305C61.5871 59.0296 62.1673 59.4225 62.8126 59.4225V59.4225C63.3094 59.4225 63.775 59.66 64.1291 60.0084C64.3055 60.1819 64.4946 60.3555 64.6826 60.5291C65.0142 60.8354 65.1938 61.2682 65.1938 61.7196V61.7196C65.1938 62.4157 65.6176 63.0416 66.2638 63.3001L67.5321 63.8074C68.1257 64.0448 68.8037 63.9057 69.2557 63.4536V63.4536C69.6207 63.0887 70.1388 62.9372 70.6542 62.9636C70.8624 62.9742 71.0676 62.9742 71.2758 62.9636C71.7912 62.9372 72.3093 63.0887 72.6743 63.4536V63.4536C73.1263 63.9057 73.8043 64.0448 74.3979 63.8074L75.7442 63.2689C76.3434 63.0292 76.7362 62.4489 76.7362 61.8036V61.8036C76.7362 61.3069 76.9738 60.8413 77.3221 60.4872C77.4957 60.3108 77.6693 60.1216 77.8428 59.9337C78.1491 59.602 78.5819 59.4225 79.0334 59.4225V59.4225C79.7294 59.4225 80.3553 58.9987 80.6138 58.3525L81.1212 57.0841C81.3586 56.4906 81.2194 55.8126 80.7674 55.3605V55.3605ZM69.4394 57.6977C67.184 56.769 66.1226 54.2482 67.0513 52.1254C67.98 49.87 70.5007 48.8086 72.6236 49.7373C74.879 50.666 75.9404 53.1867 75.0117 55.3096C74.2156 57.565 71.6948 58.6265 69.4394 57.6977Z" fill="#4EC4F9"/>
</svg>
