<svg width="32" height="32" viewBox="0 0 32 32" fill="none" xmlns="http://www.w3.org/2000/svg">
<g clip-path="url(#clip0_125_5662)">
<path d="M16 31.5C24.5337 31.5 31.5 24.5337 31.5 16C31.5 7.46628 24.5337 0.5 16 0.5C7.46628 0.5 0.5 7.46628 0.5 16C0.5 24.5337 7.46628 31.5 16 31.5Z" fill="url(#paint0_linear_125_5662)" stroke="#333333"/>
<path fill-rule="evenodd" clip-rule="evenodd" d="M10.5365 19.3948C10.5365 19.4938 10.5144 19.5708 10.4924 19.6479C10.4594 19.7249 10.4154 19.7799 10.3604 19.8349C10.3054 19.879 10.2393 19.923 10.1623 19.945C10.0853 19.967 10.0083 19.978 9.93123 19.978H9.24897C9.10592 19.978 8.98487 19.967 8.87483 19.934C8.76479 19.901 8.67675 19.8459 8.58872 19.7689C8.50069 19.6919 8.41266 19.5928 8.33563 19.4608C8.2586 19.3287 8.15956 19.1637 8.06052 18.9656L6.09078 15.2572C5.98074 15.0371 5.8597 14.795 5.73865 14.542C5.61761 14.2889 5.51857 14.0358 5.41953 13.7937H5.40853C5.43054 14.0908 5.44154 14.3769 5.44154 14.674C5.45254 14.9711 5.46355 15.2792 5.46355 15.5873V19.7359C5.46355 19.7799 5.45254 19.8129 5.43054 19.8459C5.40853 19.879 5.36451 19.901 5.30949 19.923C5.25447 19.945 5.17744 19.967 5.08941 19.978C4.99037 19.989 4.86933 20 4.72627 20C4.58322 20 4.46217 19.989 4.37414 19.978C4.2751 19.967 4.20908 19.945 4.15406 19.923C4.09904 19.901 4.05502 19.868 4.03301 19.8459C4.011 19.8129 4 19.7799 4 19.7359V12.6162C4 12.4292 4.05502 12.2751 4.16506 12.1871C4.2751 12.088 4.41816 12.044 4.58322 12.044H5.44154C5.5956 12.044 5.72765 12.055 5.83769 12.088C5.94773 12.11 6.03576 12.1541 6.1238 12.2201C6.21183 12.2751 6.28886 12.3631 6.35488 12.4732C6.43191 12.5832 6.49794 12.7153 6.57497 12.8693L8.11554 15.7634C8.20358 15.9395 8.29161 16.1155 8.37964 16.2806C8.46768 16.4457 8.55571 16.6217 8.63274 16.7868C8.70977 16.9519 8.7978 17.1279 8.87483 17.282C8.95186 17.447 9.02889 17.6121 9.10592 17.7772H9.11692C9.10592 17.4911 9.09491 17.1939 9.08391 16.8858C9.0729 16.5777 9.0729 16.2806 9.0729 15.9945V12.2751C9.0729 12.2311 9.08391 12.1981 9.10592 12.1651C9.12792 12.1321 9.17194 12.11 9.22696 12.077C9.28198 12.055 9.35901 12.033 9.45805 12.022C9.55708 12.011 9.67813 12.011 9.82118 12.011C9.96424 12.011 10.0743 12.011 10.1733 12.022C10.2724 12.033 10.3384 12.044 10.3934 12.077C10.4484 12.099 10.4814 12.1321 10.5034 12.1651C10.5254 12.1981 10.5365 12.2311 10.5365 12.2751V19.3948V19.3948ZM16.9519 19.3177C16.9519 19.4388 16.9519 19.5378 16.9409 19.6149C16.9299 19.6919 16.9188 19.7579 16.8968 19.8019C16.8748 19.8569 16.8528 19.89 16.8198 19.912C16.7868 19.934 16.7538 19.945 16.7208 19.945H12.7483C12.6162 19.945 12.5062 19.901 12.4072 19.8239C12.3191 19.7469 12.2641 19.6149 12.2641 19.4388V12.5282C12.2641 12.3521 12.3081 12.2201 12.4072 12.1431C12.4952 12.066 12.6162 12.022 12.7483 12.022H16.6988C16.7318 12.022 16.7648 12.033 16.7978 12.055C16.8198 12.077 16.8528 12.11 16.8748 12.1651C16.8968 12.2201 16.9078 12.2861 16.9188 12.3631C16.9299 12.4402 16.9299 12.5502 16.9299 12.6713C16.9299 12.7813 16.9299 12.8803 16.9188 12.9684C16.9078 13.0454 16.8968 13.1114 16.8748 13.1554C16.8528 13.2105 16.8308 13.2435 16.7978 13.2655C16.7648 13.2875 16.7318 13.2985 16.6988 13.2985H13.8707V15.2242H16.2476C16.2806 15.2242 16.3136 15.2352 16.3466 15.2572C16.3796 15.2792 16.4017 15.3122 16.4237 15.3563C16.4457 15.4003 16.4567 15.4663 16.4677 15.5433C16.4787 15.6204 16.4787 15.7194 16.4787 15.8294C16.4787 15.9505 16.4787 16.0495 16.4677 16.1265C16.4567 16.2036 16.4457 16.2696 16.4237 16.3136C16.4017 16.3576 16.3796 16.3906 16.3466 16.4127C16.3136 16.4347 16.2806 16.4457 16.2476 16.4457H13.8707V18.6795H16.7208C16.7538 18.6795 16.7868 18.6905 16.8198 18.7125C16.8528 18.7345 16.8748 18.7675 16.8968 18.8226C16.9188 18.8666 16.9299 18.9326 16.9409 19.0096C16.9409 19.1087 16.9519 19.2077 16.9519 19.3177ZM26.7125 19.5488C26.6905 19.6479 26.6575 19.7249 26.6135 19.7799C26.5695 19.8349 26.5034 19.89 26.4264 19.912C26.3384 19.945 26.2283 19.967 26.0963 19.978C25.9642 19.989 25.7882 19.989 25.5791 19.989C25.348 19.989 25.1609 19.989 25.0179 19.978C24.8748 19.967 24.7648 19.945 24.6878 19.912C24.6107 19.879 24.5447 19.8349 24.5117 19.7799C24.4787 19.7249 24.4457 19.6369 24.4237 19.5488L23.1582 14.5309H23.1472L21.9477 19.5488C21.9257 19.6479 21.9037 19.7249 21.8597 19.7799C21.8267 19.8349 21.7607 19.879 21.6836 19.923C21.6066 19.956 21.4966 19.978 21.3645 19.989C21.2215 20 21.0454 20 20.8253 20C20.5832 20 20.3962 20 20.2641 19.989C20.121 19.978 20.011 19.956 19.934 19.923C19.8239 19.89 19.7689 19.8459 19.7359 19.7799C19.7029 19.7249 19.6699 19.6369 19.6479 19.5488L17.8542 12.6382C17.8212 12.4952 17.7992 12.3741 17.7882 12.2861C17.7882 12.1981 17.8102 12.1431 17.8542 12.099C17.9092 12.055 17.9862 12.022 18.1073 12.011C18.2283 12 18.3824 12 18.5915 12C18.7785 12 18.9326 12 19.0426 12.011C19.1527 12.022 19.2407 12.033 19.2957 12.055C19.3508 12.077 19.3948 12.11 19.4168 12.1541C19.4388 12.1981 19.4498 12.2531 19.4608 12.3301L20.8473 18.3934H20.8583L22.2999 12.3631C22.3219 12.2861 22.3329 12.2201 22.3659 12.1761C22.3879 12.121 22.4319 12.088 22.4979 12.066C22.564 12.044 22.652 12.022 22.762 12.011C22.8721 12 23.0151 12 23.2022 12C23.4003 12 23.5543 12 23.6754 12.011C23.7964 12.022 23.8845 12.033 23.9395 12.066C24.0055 12.088 24.0495 12.132 24.0825 12.1761C24.1155 12.2201 24.1376 12.2861 24.1486 12.3741L25.6451 18.4044H25.6561L27.0316 12.3521C27.0426 12.2861 27.0647 12.2311 27.0757 12.1871C27.0977 12.1431 27.1417 12.099 27.1967 12.077C27.2517 12.055 27.3398 12.033 27.4388 12.022C27.5488 12.011 27.6919 12.011 27.89 12.011C28.077 12.011 28.2091 12.011 28.3081 12.022C28.4072 12.033 28.4842 12.055 28.5282 12.11C28.5722 12.1541 28.5942 12.2201 28.5832 12.3081C28.5722 12.3961 28.5612 12.5172 28.5172 12.6713L26.7125 19.5488Z" fill="#FEFEFE"/>
</g>
<defs>
<linearGradient id="paint0_linear_125_5662" x1="1.00006" y1="-0.171875" x2="31.0001" y2="31" gradientUnits="userSpaceOnUse">
<stop stop-color="#FFC671"/>
<stop offset="0.59375" stop-color="#FF7541"/>
<stop offset="1" stop-color="#FF6F3D"/>
</linearGradient>
<clipPath id="clip0_125_5662">
<rect width="32" height="32" fill="white"/>
</clipPath>
</defs>
</svg>
