<svg width="32" height="32" viewBox="0 0 32 32" fill="none" xmlns="http://www.w3.org/2000/svg">
<path fill-rule="evenodd" clip-rule="evenodd" d="M3 12.5C3 11.7439 3.625 11 4.39423 11H26.6058C27.375 11 28 11.6143 28 12.3609V25.6391C28 27 28 27 26.6058 27H4.39423C3 27 3 27 3 25.5V12.5Z" fill="white"/>
<path fill-rule="evenodd" clip-rule="evenodd" d="M18.212 18.0352C14.8795 20.4499 15.1314 20.017 12.5158 18.1314L2.92529 26.5206C3.04154 26.7803 3.63247 26.9535 3.98122 26.9439L26.9888 27C27.9091 27.0096 27.8897 26.9718 28.2481 26.6254L18.212 18.0352Z" fill="#EFEFEF"/>
<path fill-rule="evenodd" clip-rule="evenodd" d="M23 7V16L29 11.8715L23 7Z" fill="#BDECFF"/>
<path fill-rule="evenodd" clip-rule="evenodd" d="M14.1732 2.53348C13.8719 2.66307 13.9878 3 14.3354 3H16.6646C17.0122 3 17.1281 2.66307 16.8268 2.53348L15.6564 2.0324C15.5521 1.9892 15.4247 1.9892 15.3204 2.0324L14.1732 2.53348Z" fill="#BDECFF"/>
<path fill-rule="evenodd" clip-rule="evenodd" d="M8 7V16L2 11.6122L8 7Z" fill="#BDECFF"/>
<path d="M28.4888 14.9931V11.8546C28.4888 11.4131 28.2785 10.9908 27.9248 10.7316L16.2917 2.26634C15.8042 1.91122 15.1542 1.91122 14.6667 2.26634L3.05274 10.7316C2.69906 10.9908 2.48877 11.4131 2.48877 11.8546V26.0681C2.48877 26.8359 3.11009 27.4598 3.8748 27.4598L16.7697 27.4694M25.5391 27.4975H27.0932C27.8579 27.4975 28.4792 26.8359 28.4792 26.0681V24.4823" stroke="#333333" stroke-linecap="round" stroke-linejoin="round"/>
<path d="M16.6277 19.8388L16.6277 19.8389L16.6325 19.8358L23.152 15.5939C23.1522 15.5937 23.1524 15.5936 23.1527 15.5934C23.1527 15.5934 23.1527 15.5934 23.1527 15.5934C23.3769 15.4478 23.5 15.199 23.5 14.9447V4.2775C23.5 3.86554 23.1732 3.5 22.7324 3.5H11.1188C10.9107 3.5 10.7157 3.58285 10.5743 3.72948L7.72313 6.68624C7.60661 6.80707 7.5 7.00265 7.5 7.22469V14.7306C7.5 14.9868 7.62942 15.2014 7.77855 15.334L7.80646 15.3588L7.83775 15.3792L14.5689 19.7656C14.8229 19.9389 15.1273 20.1065 15.4906 20.1458C15.8714 20.187 16.2465 20.0807 16.6277 19.8388Z" fill="white" stroke="#333333"/>
<path fill-rule="evenodd" clip-rule="evenodd" d="M19.0005 11.1186C19.0005 11.5241 18.9401 11.9007 18.8091 12.2386C18.6782 12.5766 18.4969 12.8372 18.2552 13.0207C18.0235 13.2041 17.7516 13.3007 17.4393 13.3007C17.2077 13.3007 17.0163 13.2428 16.8451 13.1172C16.6739 13.0014 16.5631 12.8372 16.5026 12.6345H16.4523C16.3113 12.8566 16.1401 13.0207 15.9285 13.1366C15.717 13.2428 15.4854 13.3007 15.2235 13.3007C14.7501 13.3007 14.3775 13.1559 14.1156 12.8566C13.8437 12.5572 13.7127 12.1517 13.7127 11.6497C13.7127 11.0607 13.894 10.5876 14.2465 10.2303C14.6091 9.86345 15.0825 9.68 15.6868 9.68C15.9084 9.68 16.1501 9.69931 16.412 9.73793C16.6839 9.77655 16.9156 9.82483 17.1271 9.89241L17.0365 11.8717V11.9779C17.0365 12.4317 17.1875 12.6634 17.4897 12.6634C17.7214 12.6634 17.9026 12.5186 18.0336 12.229C18.1645 11.9393 18.235 11.5724 18.235 11.1186C18.235 10.6359 18.1343 10.211 17.9329 9.84414C17.7314 9.47724 17.4393 9.18759 17.0667 8.99448C16.694 8.79172 16.271 8.69517 15.7875 8.69517C15.1732 8.69517 14.6393 8.82069 14.176 9.07172C13.7228 9.32276 13.3803 9.68 13.1386 10.1434C12.8969 10.6069 12.776 11.1476 12.776 11.7559C12.776 12.5766 12.9976 13.2138 13.4508 13.6579C13.894 14.1021 14.5386 14.3241 15.3746 14.3241C16.0091 14.3241 16.6739 14.1986 17.3688 13.9379V14.6331C16.7645 14.8745 16.0998 15 15.3947 15C14.3271 15 13.4911 14.72 12.8969 14.1503C12.3026 13.5807 12.0005 12.789 12.0005 11.7752C12.0005 11.0317 12.1616 10.3752 12.4839 9.79586C12.8062 9.21655 13.2595 8.77241 13.8235 8.46345C14.3976 8.15448 15.0422 8 15.7674 8C16.3919 8 16.9458 8.12552 17.4393 8.38621C17.9329 8.63724 18.3055 9.00414 18.5775 9.47724C18.8595 9.96 19.0005 10.5007 19.0005 11.1186ZM14.5487 11.6593C14.5487 12.3159 14.8106 12.6538 15.3444 12.6538C15.8983 12.6538 16.2106 12.2386 16.2609 11.4083L16.3113 10.3945C16.13 10.3462 15.9386 10.3269 15.7271 10.3269C15.3544 10.3269 15.0724 10.4428 14.8609 10.6841C14.6494 10.9255 14.5487 11.2441 14.5487 11.6593Z" fill="#333333"/>
<path fill-rule="evenodd" clip-rule="evenodd" d="M11 4V7H8L11 4Z" fill="url(#paint0_linear_125_5668)"/>
<path d="M11.5 3.99609V6.34225C11.5 6.98108 10.9792 7.48903 10.3404 7.48903H8" stroke="#333333"/>
<path d="M2.63965 12.0001L12.857 18.6103L3.02168 27M28.5479 12L18.5447 18.6103L27.9929 26.9074" stroke="#333333"/>
<path fill-rule="evenodd" clip-rule="evenodd" d="M29.6421 19.9386C29.8389 19.7408 29.8358 19.4203 29.6352 19.2264L27.6859 17.3424C27.4894 17.1525 27.1768 17.1555 26.984 17.3493L19.8136 24.5544C19.7457 24.6226 19.6989 24.709 19.6789 24.8032L19.1638 27.2287C19.0876 27.5874 19.4106 27.9033 19.7675 27.8193L22.2823 27.2271C22.3732 27.2057 22.4562 27.1593 22.5221 27.0931L29.6421 19.9386Z" fill="url(#paint1_linear_125_5668)" stroke="#333333"/>
<defs>
<linearGradient id="paint0_linear_125_5668" x1="9.03721" y1="4.99104" x2="10.3565" y2="6.43508" gradientUnits="userSpaceOnUse">
<stop stop-color="#FFC671"/>
<stop offset="1" stop-color="#FF6F3D"/>
</linearGradient>
<linearGradient id="paint1_linear_125_5668" x1="19" y1="16.5703" x2="30" y2="28" gradientUnits="userSpaceOnUse">
<stop stop-color="#FFC671"/>
<stop offset="0.59375" stop-color="#FF7541"/>
<stop offset="1" stop-color="#FF6F3D"/>
</linearGradient>
</defs>
</svg>
