<svg width="32" height="32" viewBox="0 0 32 32" fill="none" xmlns="http://www.w3.org/2000/svg">
<g clip-path="url(#clip0_125_5802)">
<path fill-rule="evenodd" clip-rule="evenodd" d="M27.2195 0.843773L31.1565 4.78074C31.428 5.05226 31.428 5.48862 31.1565 5.75044L20.7129 16.2038L16.6014 20.3153L5.75044 31.1565C5.47892 31.428 5.04256 31.428 4.78074 31.1565L0.843773 27.2195C0.572258 26.948 0.572258 26.5117 0.843773 26.2498L11.6462 15.4474L15.7577 11.3359L26.2498 0.843773C26.5117 0.572258 26.948 0.572258 27.2195 0.843773Z" fill="#BDECFF"/>
<path d="M14.5309 12.5516L14.3115 12.771L16.4165 14.876L16.636 14.6566L14.5309 12.5516Z" fill="#333333"/>
<path d="M12.985 14.1048L12.7656 14.3242L14.8709 16.4292L15.0904 16.2098L12.985 14.1048Z" fill="#333333"/>
<path fill-rule="evenodd" clip-rule="evenodd" d="M8.9233 18.0669C9.11856 17.8716 9.43515 17.8716 9.63041 18.0669L11.628 20.0644C11.8232 20.2597 11.8232 20.5763 11.628 20.7715C11.4327 20.9668 11.1161 20.9668 10.9209 20.7715L8.9233 18.774C8.72804 18.5787 8.72804 18.2621 8.9233 18.0669Z" fill="#333333"/>
<path fill-rule="evenodd" clip-rule="evenodd" d="M24.2251 2.7402C24.4203 2.54493 24.7369 2.54493 24.9322 2.7402L26.9297 4.73777C27.125 4.93303 27.125 5.24961 26.9297 5.44488C26.7345 5.64014 26.4179 5.64014 26.2226 5.44488L24.2251 3.4473C24.0298 3.25204 24.0298 2.93546 24.2251 2.7402Z" fill="#333333"/>
<path fill-rule="evenodd" clip-rule="evenodd" d="M4.92721 22.062C5.12247 21.8667 5.43905 21.8667 5.63431 22.062L7.63189 24.0595C7.82715 24.2548 7.82715 24.5714 7.63189 24.7667C7.43663 24.9619 7.12005 24.9619 6.92479 24.7667L4.92721 22.7691C4.73195 22.5738 4.73195 22.2572 4.92721 22.062Z" fill="#333333"/>
<path fill-rule="evenodd" clip-rule="evenodd" d="M20.229 6.64645C20.4242 6.45118 20.7408 6.45118 20.9361 6.64645L22.9337 8.64402C23.1289 8.83928 23.1289 9.15586 22.9337 9.35113C22.7384 9.54639 22.4218 9.54639 22.2265 9.35113L20.229 7.35355C20.0337 7.15829 20.0337 6.84171 20.229 6.64645Z" fill="#333333"/>
<path fill-rule="evenodd" clip-rule="evenodd" d="M6.92525 20.0644C7.12052 19.8692 7.4371 19.8692 7.63236 20.0644L9.62994 22.062C9.8252 22.2573 9.8252 22.5738 9.62994 22.7691C9.43468 22.9644 9.1181 22.9644 8.92283 22.7691L6.92526 20.7715C6.72999 20.5763 6.72999 20.2597 6.92525 20.0644Z" fill="#333333"/>
<path fill-rule="evenodd" clip-rule="evenodd" d="M22.227 4.73776C22.4223 4.54249 22.7389 4.54249 22.9341 4.73775L24.9317 6.73533C25.127 6.93059 25.127 7.24717 24.9317 7.44244C24.7364 7.6377 24.4199 7.6377 24.2246 7.44244L22.227 5.44486C22.0318 5.2496 22.0318 4.93302 22.227 4.73776Z" fill="#333333"/>
<path fill-rule="evenodd" clip-rule="evenodd" d="M2.92916 24.0595C3.12442 23.8643 3.44101 23.8643 3.63627 24.0595L5.63385 26.0571C5.82911 26.2524 5.82911 26.569 5.63385 26.7642C5.43858 26.9595 5.122 26.9595 4.92674 26.7642L2.92916 24.7666C2.7339 24.5714 2.7339 24.2548 2.92916 24.0595Z" fill="#333333"/>
<path fill-rule="evenodd" clip-rule="evenodd" d="M18.2309 8.64645C18.4262 8.45118 18.7428 8.45118 18.938 8.64645L20.9356 10.644C21.1309 10.8393 21.1309 11.1559 20.9356 11.3511C20.7403 11.5464 20.4238 11.5464 20.2285 11.3511L18.2309 9.35355C18.0357 9.15829 18.0357 8.84171 18.2309 8.64645Z" fill="#333333"/>
<path d="M1.05409 3.87969L3.82486 1.06775C4.01954 0.870175 4.33785 0.868834 4.53419 1.06476L30.3731 26.8491C30.4431 26.9189 30.4908 27.0079 30.5102 27.1049L31.2147 30.6226C31.2849 30.973 30.9753 31.2818 30.625 31.2108L27.1508 30.506C27.0547 30.4865 26.9664 30.4391 26.897 30.3699L1.05707 4.58455C0.862469 4.39037 0.861142 4.0755 1.05409 3.87969Z" fill="url(#paint0_linear_125_5802)" stroke="#333333"/>
<path fill-rule="evenodd" clip-rule="evenodd" d="M27.2378 30.0169L30.7226 30.7263L30.0332 27.2085L27.2378 30.0169Z" fill="#FEFEFE"/>
<path fill-rule="evenodd" clip-rule="evenodd" d="M5.67725 8.94092L8.87944 5.73872L9.58656 6.44585L6.38437 9.64804L5.67725 8.94092Z" fill="#333333"/>
<path fill-rule="evenodd" clip-rule="evenodd" d="M26.3355 29.5118L29.566 26.2538L30.2624 26.9442L27.0319 30.2021L26.3355 29.5118Z" fill="#333333"/>
<path fill-rule="evenodd" clip-rule="evenodd" d="M3.79192 6.60833L6.61389 3.77674L8.73205 5.8916L5.91008 8.72319L3.79192 6.60833Z" fill="white"/>
<path fill-rule="evenodd" clip-rule="evenodd" d="M26.7309 0.999356C26.6397 0.999356 26.5569 1.03139 26.493 1.09527L16.822 10.7633C16.6268 10.9584 16.3104 10.9584 16.1152 10.7633C15.92 10.5682 15.92 10.2518 16.1152 10.0567L25.7861 0.388621C26.0518 0.12302 26.3955 0 26.7309 0C27.0662 0 27.41 0.123018 27.6756 0.388621L31.6113 4.32306C31.8769 4.58866 32 4.93227 32 5.26752C32 5.59082 31.8843 5.95164 31.6066 6.21661L21.9099 15.9104C21.7147 16.1055 21.3983 16.1055 21.2031 15.9104C21.0079 15.7152 21.0079 15.3989 21.2031 15.2037L30.9044 5.50533L30.9153 5.49479C30.9627 5.45018 31.0003 5.3682 31.0003 5.26752C31.0003 5.17637 30.9683 5.09359 30.9044 5.02971L26.9688 1.09527C26.9049 1.03139 26.8221 0.999356 26.7309 0.999356ZM11.1467 15.74C11.3419 15.9351 11.3419 16.2515 11.1467 16.4467L1.0956 26.4947C1.0317 26.5586 0.999659 26.6413 0.999659 26.7325C0.999659 26.8332 1.03733 26.9151 1.08474 26.9598L1.0956 26.9703L5.03123 30.9047C5.09513 30.9686 5.17794 31.0006 5.26911 31.0006C5.36982 31.0006 5.45183 30.963 5.49645 30.9156L5.50699 30.9047L15.6492 20.7656C15.8444 20.5705 16.1608 20.5705 16.356 20.7656C16.5512 20.9608 16.5512 21.2771 16.356 21.4723L6.2185 31.6067C5.95344 31.8843 5.59251 32 5.26911 32C4.93376 32 4.59005 31.877 4.32437 31.6114L0.393367 27.6816C0.115695 27.4166 0 27.0558 0 26.7325C0 26.3972 0.123056 26.0536 0.388738 25.788L10.4398 15.74C10.635 15.5449 10.9515 15.5449 11.1467 15.74Z" fill="#333333"/>
<path fill-rule="evenodd" clip-rule="evenodd" d="M3.64648 6.64648L6.84868 3.44429L7.5558 4.15141L4.35361 7.35361L3.64648 6.64648Z" fill="#333333"/>
</g>
<defs>
<linearGradient id="paint0_linear_125_5802" x1="-0.522847" y1="-1.26786" x2="17.5457" y2="18.4908" gradientUnits="userSpaceOnUse">
<stop stop-color="#FFC671"/>
<stop offset="1" stop-color="#FF6F3D"/>
</linearGradient>
<clipPath id="clip0_125_5802">
<rect width="32" height="32" fill="white"/>
</clipPath>
</defs>
</svg>
