<svg width="32" height="32" viewBox="0 0 32 32" fill="none" xmlns="http://www.w3.org/2000/svg">
<g clip-path="url(#clip0_125_5827)">
<mask id="path-1-inside-1_125_5827" fill="white">
<path d="M18.7071 18.2928L18 19L20.8286 21.8282L21.5357 21.1211L18.7071 18.2928Z"/>
</mask>
<path d="M18.7071 18.2928L18 19L20.8286 21.8282L21.5357 21.1211L18.7071 18.2928Z" fill="#FEFEFE"/>
<path d="M18 19L17.2928 18.2929L16.5857 19.0001L17.2929 19.7072L18 19ZM18.7071 18.2928L19.4142 17.5856L18.707 16.8785L17.9999 17.5857L18.7071 18.2928ZM21.5357 21.1211L22.2429 21.8282L22.95 21.121L22.2428 20.4139L21.5357 21.1211ZM20.8286 21.8282L20.1215 22.5354L20.8287 23.2425L21.5358 22.5353L20.8286 21.8282ZM18.7072 19.7071L19.4143 18.9999L17.9999 17.5857L17.2928 18.2929L18.7072 19.7071ZM18 19L20.8286 21.8283L22.2428 20.4139L19.4142 17.5856L18 19ZM20.8285 20.414L20.1214 21.1211L21.5358 22.5353L22.2429 21.8282L20.8285 20.414ZM21.5357 21.121L18.7071 18.2928L17.2929 19.7072L20.1215 22.5354L21.5357 21.121Z" fill="#333333" mask="url(#path-1-inside-1_125_5827)"/>
<path d="M28.274 31.1078L28.274 31.1078C28.7965 31.6307 29.6655 31.6307 30.188 31.1078L31.1083 30.1869C31.6306 29.6642 31.6306 28.7953 31.1083 28.2726L23.7337 20.8922L23.7336 20.8922C23.2111 20.3693 22.3422 20.3693 21.8197 20.8922C21.8197 20.8922 21.8197 20.8922 21.8197 20.8922L20.9018 21.8107C20.362 22.3377 20.3709 23.1985 20.8994 23.7274C20.8994 23.7274 20.8994 23.7274 20.8994 23.7274L28.274 31.1078Z" fill="url(#paint0_linear_125_5827)" stroke="#333333"/>
<path d="M21.5 11C21.5 16.7956 16.7956 21.5 11 21.5C5.20528 21.5 0.509883 16.7964 0.5 10.9996C0.500228 5.20416 5.20453 0.5 11 0.5C16.7956 0.5 21.5 5.20439 21.5 11Z" fill="#BDECFF" stroke="#333333"/>
<path d="M18.5 11C18.5 15.1421 15.1421 18.5 11 18.5C6.85787 18.5 3.5 15.1421 3.5 11C3.5 6.85786 6.85787 3.5 11 3.5C15.1421 3.5 18.5 6.85786 18.5 11Z" fill="#FEFEFE" stroke="#333333"/>
</g>
<defs>
<linearGradient id="paint0_linear_125_5827" x1="18.4986" y1="17.7735" x2="26.5657" y2="26.6529" gradientUnits="userSpaceOnUse">
<stop stop-color="#FFC671"/>
<stop offset="1" stop-color="#FF6F3D"/>
</linearGradient>
<clipPath id="clip0_125_5827">
<rect width="32" height="32" fill="white"/>
</clipPath>
</defs>
</svg>
