<svg width="41" height="40" viewBox="0 0 41 40" fill="none" xmlns="http://www.w3.org/2000/svg">
<path fill-rule="evenodd" clip-rule="evenodd" d="M35.5217 30.1202L20.6029 30.1207L20.6029 33.9197C20.6029 35.305 19.0822 36.6122 18.1168 35.6928C13.2661 31.0508 8.18024 27.0089 3.38897 22.3003C2.20378 21.0022 2.20359 18.9758 3.3889 17.7779C8.02276 12.9901 14.1382 7.83064 18.1165 4.28446C19.0819 3.35251 20.6029 4.89138 20.6029 6.2893L20.6029 9.85633L35.5217 9.85633C37.8409 9.85633 39.5 12.0497 39.5 13.9096L39.5 26.0679C39.5 28.1608 37.8409 30.1202 35.5217 30.1202Z" fill="url(#paint0_linear_125_4969)"/>
<path fill-rule="evenodd" clip-rule="evenodd" d="M19.6029 29.1208L35.5217 29.1203C37.229 29.1203 38.5 27.6702 38.5 26.068L38.5 13.9096C38.5 13.2583 38.1991 12.4771 37.6382 11.8555C37.0875 11.2453 36.3492 10.8564 35.5217 10.8564L19.6029 10.8564L19.6029 6.28931C19.6029 5.91491 19.3758 5.44219 19.0593 5.16231C18.9392 5.05609 18.8509 5.01784 18.8096 5.00536L18.7968 5.01772L18.7819 5.03095C17.8967 5.82004 16.9115 6.6841 15.8641 7.60269C12.1657 10.8463 7.69204 14.7698 4.10747 18.4734L4.09977 18.4814C3.31999 19.2694 3.27668 20.675 4.11083 21.6077C6.47796 23.9326 8.92105 26.0973 11.3912 28.2708C11.5619 28.421 11.7327 28.5713 11.9036 28.7216C14.2077 30.748 16.5324 32.7926 18.807 34.9692C18.8074 34.9696 18.8078 34.97 18.8082 34.9704L18.1169 35.6928L18.807 34.9692C18.8071 34.9694 18.8068 34.9691 18.807 34.9692C18.8444 35.0048 18.8543 35.0015 18.858 35.0002C18.8584 35.0001 18.8588 35 18.8591 35C18.8884 34.9984 18.9803 34.9794 19.1124 34.8778C19.3936 34.6616 19.6029 34.2698 19.6029 33.9198L19.6029 29.1208ZM3.38897 22.3004C5.94886 24.8161 8.59283 27.1415 11.2401 29.4698C13.5477 31.4993 15.8578 33.5309 18.1169 35.6928C19.0823 36.6122 20.6029 35.3051 20.6029 33.9198L20.6029 30.1208L35.5217 30.1203C37.8409 30.1203 39.5 28.1609 39.5 26.068L39.5 13.9096C39.5 12.0498 37.8409 9.85635 35.5217 9.85635L20.6029 9.85635L20.6029 6.28931C20.6029 4.89138 19.0819 3.35251 18.1165 4.28446C17.243 5.0631 16.2664 5.91953 15.2252 6.83272C11.5241 10.0785 7.0053 14.0414 3.3889 17.778C2.20359 18.9758 2.20378 21.0022 3.38897 22.3004Z" fill="#333333"/>
<defs>
<linearGradient id="paint0_linear_125_4969" x1="1.05469" y1="35.9999" x2="34.14" y2="-0.816806" gradientUnits="userSpaceOnUse">
<stop stop-color="#FF8E3D"/>
<stop offset="1" stop-color="#FF6F3D"/>
</linearGradient>
</defs>
</svg>
