<svg width="41" height="40" viewBox="0 0 41 40" fill="none" xmlns="http://www.w3.org/2000/svg">
<path fill-rule="evenodd" clip-rule="evenodd" d="M5.47826 30.1202L20.3971 30.1207L20.3971 33.9197C20.3971 35.305 21.9178 36.6122 22.8832 35.6928C27.7339 31.0508 32.8198 27.0089 37.611 22.3003C38.7962 21.0022 38.7964 18.9758 37.6111 17.7779C32.9772 12.9901 26.8618 7.83064 22.8835 4.28446C21.9181 3.35251 20.3971 4.89138 20.3971 6.2893L20.3971 9.85633L5.47826 9.85633C3.15908 9.85633 1.5 12.0497 1.5 13.9096L1.5 26.0679C1.5 28.1608 3.15908 30.1202 5.47826 30.1202Z" fill="url(#paint0_linear_125_4972)"/>
<path fill-rule="evenodd" clip-rule="evenodd" d="M21.3971 29.1208L5.47826 29.1203C3.77096 29.1203 2.5 27.6701 2.5 26.068L2.5 13.9096C2.5 13.2583 2.80088 12.4771 3.36183 11.8555C3.91252 11.2453 4.65084 10.8564 5.47826 10.8564L21.3971 10.8564L21.3971 6.28931C21.3971 5.91491 21.6242 5.44219 21.9407 5.16231C22.0608 5.05609 22.1491 5.01784 22.1904 5.00536L22.2032 5.01772L22.2181 5.03094C23.1033 5.82005 24.0886 6.68411 25.136 7.60271C28.8344 10.8463 33.308 14.7698 36.8925 18.4734L36.9002 18.4814C37.68 19.2694 37.7233 20.675 36.8892 21.6077C34.522 23.9326 32.0789 26.0973 29.6088 28.2708C29.4381 28.421 29.2673 28.5712 29.0964 28.7216C26.7923 30.748 24.4676 32.7926 22.193 34.9692C22.1926 34.9696 22.1922 34.97 22.1918 34.9704L22.8831 35.6928L22.193 34.9692C22.1929 34.9694 22.1932 34.9691 22.193 34.9692C22.1556 35.0048 22.1457 35.0015 22.142 35.0002C22.1416 35.0001 22.1412 35 22.1409 34.9999C22.1116 34.9984 22.0197 34.9794 21.8876 34.8778C21.6064 34.6616 21.3971 34.2698 21.3971 33.9198L21.3971 29.1208ZM37.611 22.3004C35.0511 24.8161 32.4072 27.1415 29.7599 29.4698C27.4523 31.4993 25.1422 33.5309 22.8831 35.6928C21.9177 36.6122 20.3971 35.3051 20.3971 33.9198L20.3971 30.1208L5.47826 30.1203C3.15908 30.1203 1.5 28.1609 1.5 26.068L1.5 13.9096C1.5 12.0498 3.15908 9.85635 5.47826 9.85635L20.3971 9.85635L20.3971 6.28931C20.3971 4.89138 21.9181 3.35251 22.8835 4.28446C23.757 5.0631 24.7336 5.91953 25.7748 6.83272C29.4759 10.0785 33.9947 14.0414 37.6111 17.778C38.7964 18.9758 38.7962 21.0022 37.611 22.3004Z" fill="#333333"/>
<defs>
<linearGradient id="paint0_linear_125_4972" x1="39.9453" y1="35.9999" x2="6.85999" y2="-0.816806" gradientUnits="userSpaceOnUse">
<stop stop-color="#FF8E3D"/>
<stop offset="1" stop-color="#FF6F3D"/>
</linearGradient>
</defs>
</svg>
