<svg width="32" height="32" viewBox="0 0 32 32" fill="none" xmlns="http://www.w3.org/2000/svg">
<path fill-rule="evenodd" clip-rule="evenodd" d="M5.03475 18.3515L4.95633 3.96303C4.97632 3.47615 5.05178 2.99609 5.05178 2.99609L3.54783 2.9965C2.25751 2.9965 0.657599 4.16698 1.06454 6.01378L3.63525 17.636C3.87346 18.69 4.20101 20.034 6.94045 19.9953C6.9603 19.9953 6.98015 19.9953 7 19.9953C6.98015 19.9856 6.95037 19.9856 6.93052 19.9759C6.87097 19.9663 6.58313 19.9083 6.52358 19.8986C5.76924 19.7245 5.03475 19.1444 5.03475 18.3515Z" fill="#BDECFF"/>
<path d="M4.71702 2.94846L4.71704 2.95107L4.73501 6.39214V6.39344V12.3788L4.64045 17.5841L4.6394 17.6416L4.65144 17.6979C4.68519 17.8556 4.66474 18.0526 4.61222 18.3342C4.60591 18.368 4.59882 18.4042 4.59135 18.4424C4.54626 18.6728 4.48736 18.9736 4.50261 19.2444C4.51235 19.4174 4.55162 19.6083 4.65594 19.7911C4.76238 19.9776 4.91938 20.1254 5.11769 20.2345C5.49116 20.4401 6.01965 20.5131 6.7097 20.4981L6.78122 19.9516C6.86548 19.9417 6.99508 19.933 7.1648 19.9255C7.16723 19.948 7.16822 19.9717 7.16743 19.9965C7.16049 20.217 7.01937 20.3387 6.97425 20.3731C6.92045 20.414 6.87208 20.4326 6.85753 20.4381C6.83741 20.4456 6.82264 20.4494 6.81776 20.4506C6.81324 20.4517 6.81067 20.4522 6.81068 20.4522C6.81068 20.4522 6.8141 20.4515 6.8219 20.4505C6.8841 20.4418 7.01894 20.4318 7.23616 20.4229C7.65908 20.4054 8.31859 20.3942 9.14444 20.3881C10.7934 20.3759 13.0815 20.384 15.4091 20.4003C19.077 20.4261 22.851 20.4722 24.3472 20.4905C24.7463 20.4954 24.9833 20.4983 25.013 20.4983H25.3874L25.4928 20.139L25.013 19.9983C25.4928 20.139 25.4928 20.1389 25.4928 20.1389L25.4929 20.1386L25.4932 20.1377L25.4942 20.1342L25.4981 20.1207L25.5134 20.068C25.5268 20.0214 25.5467 19.9521 25.5728 19.8604C25.6249 19.677 25.7017 19.4041 25.8004 19.0446C25.998 18.3256 26.2838 17.2606 26.6375 15.8734C27.3448 13.0992 28.3238 9.03653 29.4117 3.8781C29.5834 3.06391 29.5111 2.23634 29.1362 1.59027C28.7474 0.919968 28.0618 0.5 27.157 0.5H7.19497C6.02977 0.5 4.71703 1.31905 4.71702 2.94846Z" fill="#EFEFEF" stroke="#333333"/>
<path fill-rule="evenodd" clip-rule="evenodd" d="M2.43218 2.86486C2.55472 3.10773 2.45346 3.40212 2.206 3.52239C1.44303 3.89321 1.13623 4.6604 1.13623 5.22357C1.13623 5.38165 1.15237 5.55322 1.19112 5.72151L2.47047 10.9871C2.53452 11.2508 2.3687 11.5154 2.10009 11.5783C1.83147 11.6412 1.5618 11.4784 1.49775 11.2148L0.216515 5.94143C0.158694 5.69174 0.13623 5.44543 0.13623 5.22357C0.13623 4.37821 0.582799 3.21611 1.76222 2.64287C2.00968 2.5226 2.30963 2.62199 2.43218 2.86486Z" fill="#333333"/>
<path fill-rule="evenodd" clip-rule="evenodd" d="M28.7245 17.8424L30.9379 6.46344C31.267 4.93571 30.2513 3.98321 28.7502 4.00022H27.3617C27.1897 4.49233 26.7617 5.02085 25.9736 5.02085L14.4167 5C13.5883 5 13.5119 4.2515 13.5883 4.00488H9.98275C8.72492 4.00488 7.6219 4.6448 7.38001 5.9151L5.0385 17.8327C4.80541 19.0452 5.65721 20 6.87687 20H25.9736C27.2052 20 28.474 19.0416 28.7245 17.8424Z" fill="url(#paint0_linear_125_5467)"/>
<path fill-rule="evenodd" clip-rule="evenodd" d="M25.9736 5.02085L14.4167 5C13.8739 5 13.654 4.67859 13.5883 4.3876C13.5538 4.23454 13.562 4.08989 13.5883 4.00488H9.98275C8.72492 4.00488 7.6219 4.6448 7.38001 5.9151L5.0385 17.8327C4.80541 19.0452 5.65721 20 6.87687 20H25.9736C27.2052 20 28.474 19.0416 28.7245 17.8424L30.9379 6.46344C31.267 4.93571 30.2513 3.98321 28.7502 4.00022H27.3617C27.1897 4.49233 26.7617 5.02085 25.9736 5.02085ZM27.9578 5.00022H28.7502L28.7615 5.00016C29.3108 4.99393 29.6418 5.16516 29.8033 5.33742C29.9428 5.48616 30.0699 5.75435 29.9626 6.25246L29.9605 6.26226L27.7466 17.6432C27.6777 17.9651 27.4573 18.308 27.1065 18.5799C26.754 18.8532 26.3389 19 25.9736 19H6.87687C6.53113 19 6.29852 18.8688 6.16809 18.7175C6.04255 18.5718 5.9566 18.3452 6.01795 18.0236C6.01806 18.023 6.01817 18.0224 6.01828 18.0219L8.35901 6.1083L8.36012 6.10256C8.48489 5.44731 9.04137 5.00488 9.98275 5.00488H12.7523C12.7606 5.0221 12.7691 5.03924 12.778 5.05628C13.0647 5.60893 13.6342 5.99967 14.4157 6M27.9578 5.00022C27.573 5.54466 26.9315 6.02085 25.9736 6.02085H25.9718L14.4157 6" fill="#333333"/>
<path fill-rule="evenodd" clip-rule="evenodd" d="M13.366 10L9.54202 10C8.83078 10 8.8079 11 9.54221 11H13.4328C14.1668 11 14.2336 10 13.366 10Z" fill="#FEFEFE"/>
<path fill-rule="evenodd" clip-rule="evenodd" d="M16.3644 8L10.5434 8.00003C9.83035 8.00003 9.80741 9.00003 10.5436 9.00003H16.4313C17.1673 9.00003 17.2342 8 16.3644 8Z" fill="#FEFEFE"/>
<path d="M2.74033 13.5H29.2606C29.9231 13.5 30.5005 14.0658 30.5005 14.8031V29.1969C30.5005 29.9278 29.9293 30.5 29.2606 30.5H2.74033C2.07786 30.5 1.50049 29.9342 1.50049 29.1969V14.8057C1.50898 14.0611 2.08286 13.5 2.74033 13.5Z" fill="#FEFEFE" stroke="#333333"/>
<path d="M20.716 19.5H11.2856C10.8412 19.5 10.4829 19.867 10.5011 20.3181V22.7057C10.5011 23.1112 10.8171 23.5 11.2856 23.5H20.716C21.1489 23.5 21.5005 23.1481 21.5005 22.7057V20.3057C21.5005 19.9015 21.1963 19.5 20.716 19.5Z" fill="url(#paint1_linear_125_5467)" stroke="#333333"/>
<defs>
<linearGradient id="paint0_linear_125_5467" x1="5.58029" y1="-1.8969" x2="19.9502" y2="13.8964" gradientUnits="userSpaceOnUse">
<stop stop-color="#FFC671"/>
<stop offset="1" stop-color="#FF6F3D"/>
</linearGradient>
<linearGradient id="paint1_linear_125_5467" x1="11.5521" y1="16.4309" x2="16.8641" y2="22.0853" gradientUnits="userSpaceOnUse">
<stop stop-color="#FFC671"/>
<stop offset="1" stop-color="#FF6F3D"/>
</linearGradient>
</defs>
</svg>
