<svg width="150" height="150" viewBox="0 0 150 150" fill="none" xmlns="http://www.w3.org/2000/svg">
<path fill-rule="evenodd" clip-rule="evenodd" d="M25.0001 22.5125C24.9875 20.2813 25.8823 18.0784 27.4439 16.4962C29.0054 14.914 31.187 14 33.4017 14H115.593C117.808 14 119.99 14.914 121.551 16.4962C123.113 18.0784 124.008 20.2813 123.995 22.5125V141.391C124.072 143.6 123.242 145.807 121.731 147.41C120.22 149.013 118.075 149.963 115.881 150H33.4017C31.5 149.5 29.0616 148.582 27.5 147C25.9384 145.418 25.5 143.5 25.0001 141.487V22.5125Z" fill="#EFEFEF"/>
<path fill-rule="evenodd" clip-rule="evenodd" d="M33.9866 14C29.8209 13.9999 25.9745 18.498 26.0001 22.947L26.0001 22.9499L26.0001 141.05L26.0001 141.053C25.9941 142.094 26.196 143.126 26.5942 144.089C26.9925 145.053 27.5794 145.929 28.3213 146.668C29.0633 147.407 29.9458 147.993 30.9181 148.394C31.8904 148.794 32.9332 149 33.9866 149H116.296C117.336 148.982 118.363 148.759 119.316 148.345C120.27 147.93 121.13 147.331 121.847 146.583C122.564 145.835 123.123 144.954 123.492 143.991C123.861 143.027 124.032 142.001 123.995 140.972C123.995 140.966 123.995 140.96 123.995 140.954V22.9499L123.995 22.947C124.021 18.498 120.174 13.9999 116.008 14C115.732 14 115.508 13.7762 115.508 13.5C115.508 13.2239 115.732 13 116.008 13C120.69 12.9999 125.023 17.9113 124.995 22.9515L124.995 22.9528L124.995 140.945C125.035 142.106 124.841 143.263 124.426 144.348C124.009 145.437 123.378 146.432 122.569 147.275C121.76 148.119 120.789 148.794 119.714 149.262C118.64 149.729 117.481 149.98 116.308 150L116.299 150H33.9866C32.8028 150 31.6306 149.768 30.5374 149.318C29.4441 148.868 28.4511 148.208 27.6158 147.376C26.7804 146.545 26.1191 145.557 25.6701 144.471C25.2213 143.385 24.9936 142.222 25.0001 141.049V22.9514C24.9719 17.9112 29.3048 12.9999 33.9866 13C34.2627 13 34.4866 13.2239 34.4866 13.5C34.4866 13.7762 34.2627 14 33.9866 14Z" fill="#333333"/>
<path fill-rule="evenodd" clip-rule="evenodd" d="M39 32.6171C39 31.6578 39.3492 30.7378 39.9708 30.0594C40.5924 29.3811 41.4355 29 42.3145 29H107.685C108.564 29 109.407 29.3811 110.029 30.0594C110.65 30.7378 110.999 31.6578 110.999 32.6171V119.361C111.008 119.838 110.927 120.312 110.761 120.753C110.594 121.193 110.347 121.592 110.033 121.924L95.9918 135.995C95.3558 136.645 94.5156 137.005 93.644 137H42.3145C41.4484 137.013 40.5903 136.637 39.9735 135.973C39.3567 135.309 38.9999 134.378 39 133.433V32.6171Z" fill="white"/>
<path fill-rule="evenodd" clip-rule="evenodd" d="M110.75 122.621L96.7067 136.694C96.7055 136.695 96.7042 136.697 96.703 136.698C95.8877 137.53 94.7937 138.006 93.6408 138H42.3219C41.1609 138.015 40.0388 137.512 39.241 136.654C38.4442 135.796 37.9999 134.619 38 133.433V32.6171C38 31.4194 38.4352 30.2551 39.2335 29.3838C40.0346 28.5097 41.1407 28 42.3145 28H107.685C108.859 28 109.965 28.5097 110.766 29.3838C111.564 30.2551 111.999 31.4194 111.999 32.6171V119.353C112.009 119.951 111.907 120.548 111.696 121.106C111.485 121.667 111.167 122.18 110.759 122.611L110.75 122.621ZM110.999 119.361V32.6171C110.999 31.6578 110.65 30.7378 110.029 30.0594C109.407 29.3811 108.564 29 107.685 29H42.3145C41.4355 29 40.5924 29.3811 39.9708 30.0594C39.3492 30.7378 39 31.6578 39 32.6171V133.433C38.9999 134.378 39.3567 135.309 39.9735 135.973C40.5903 136.637 41.4484 137.013 42.3145 137H93.644C94.5156 137.005 95.3558 136.645 95.9918 135.995L110.033 121.924C110.347 121.592 110.594 121.193 110.761 120.753C110.927 120.312 111.008 119.838 110.999 119.361Z" fill="#333333"/>
<path d="M94.0001 137L94.0001 123.012C93.9995 122.234 94.3014 121.485 94.8425 120.923C95.3836 120.362 96.1219 120.031 96.9026 120L110.999 120" stroke="#333333"/>
<path fill-rule="evenodd" clip-rule="evenodd" d="M58 40C58 39.4477 58.4412 39 58.9855 39H91.0145C91.5588 39 92 39.4477 92 40C92 40.5523 91.5588 41 91.0145 41H58.9855C58.4412 41 58 40.5523 58 40Z" fill="#333333"/>
<path fill-rule="evenodd" clip-rule="evenodd" d="M72 57.5C72 57.2239 72.2198 57 72.4909 57H98.5091C98.7802 57 99 57.2239 99 57.5C99 57.7761 98.7802 58 98.5091 58H72.4909C72.2198 58 72 57.7761 72 57.5Z" fill="#333333"/>
<path fill-rule="evenodd" clip-rule="evenodd" d="M72 63.5C72 63.2239 72.2161 63 72.4828 63H85.5172C85.7839 63 86 63.2239 86 63.5C86 63.7761 85.7839 64 85.5172 64H72.4828C72.2161 64 72 63.7761 72 63.5Z" fill="#333333"/>
<path fill-rule="evenodd" clip-rule="evenodd" d="M51 53C51 52.4477 51.4477 52 52 52H65C65.5523 52 66 52.4477 66 53V66C66 66.5523 65.5523 67 65 67H52C51.4477 67 51 66.5523 51 66V53Z" fill="#BDECFF"/>
<path fill-rule="evenodd" clip-rule="evenodd" d="M66.8119 52.1018C67.0207 52.2692 67.0619 52.5845 66.9041 52.8059L59.2359 63.5612C59.0609 63.8105 58.7991 63.9946 58.4736 63.9999C58.16 64.005 57.8844 63.8422 57.6688 63.6212C57.6583 63.6104 57.6483 63.5991 57.6387 63.5874L55.1145 60.4727C54.9439 60.2621 54.9665 59.9447 55.165 59.7638C55.3636 59.5828 55.6628 59.6068 55.8335 59.8173L58.3417 62.9123C58.396 62.9652 58.4328 62.9843 58.4505 62.9911C58.4565 62.9852 58.4651 62.9756 58.4757 62.9605L58.4785 62.9565L66.1479 52.1995C66.3058 51.9781 66.6031 51.9343 66.8119 52.1018Z" fill="#333333"/>
<path fill-rule="evenodd" clip-rule="evenodd" d="M52.3613 51H60.0672C60.3433 51 60.5672 51.2239 60.5672 51.5C60.5672 51.7761 60.3433 52 60.0672 52H52.3682C51.9856 52.0115 51.6106 52.1862 51.3565 52.4708C51.1011 52.757 50.971 53.1506 51.0055 53.5316C51.0068 53.5466 51.0075 53.5617 51.0075 53.5767V65.4587C51.0046 65.6617 51.0425 65.8632 51.1191 66.0514C51.1957 66.2396 51.3094 66.4107 51.4535 66.5544C51.5976 66.6982 51.7692 66.8117 51.9582 66.8882C52.1472 66.9648 52.3498 67.0027 52.5538 66.9998L52.5609 66.9997L64.5196 66.9998C64.9422 66.9933 65.3451 66.8215 65.6416 66.5217C65.897 66.2633 65.9998 65.8906 65.9998 65.3947V59.4222C65.9998 59.146 66.2236 58.9222 66.4998 58.9222C66.7759 58.9222 66.9998 59.146 66.9998 59.4222L66.9998 65.3946C66.9998 65.3946 66.9998 65.3946 66.9998 65.3946C66.9998 66.0056 66.8763 66.6952 66.3526 67.2248C65.8705 67.7123 65.2157 67.9905 64.5299 67.9998L64.5232 67.9998L52.5641 67.9998C52.228 68.004 51.8944 67.9413 51.5829 67.8151C51.2702 67.6885 50.986 67.5006 50.7473 67.2624C50.5085 67.0242 50.3199 66.7406 50.1929 66.4284C50.0662 66.1172 50.0032 65.784 50.0075 65.4482V53.5979C49.9555 52.9485 50.1763 52.2914 50.6105 51.8049C51.05 51.3126 51.6883 51.0172 52.3484 51.0002L52.3613 51Z" fill="#333333"/>
<path fill-rule="evenodd" clip-rule="evenodd" d="M72 80.5C72 80.2239 72.2198 80 72.4909 80H98.5091C98.7802 80 99 80.2239 99 80.5C99 80.7761 98.7802 81 98.5091 81H72.4909C72.2198 81 72 80.7761 72 80.5Z" fill="#333333"/>
<path fill-rule="evenodd" clip-rule="evenodd" d="M72 86.5C72 86.2239 72.2161 86 72.4828 86H85.5172C85.7839 86 86 86.2239 86 86.5C86 86.7761 85.7839 87 85.5172 87H72.4828C72.2161 87 72 86.7761 72 86.5Z" fill="#333333"/>
<path fill-rule="evenodd" clip-rule="evenodd" d="M51 76C51 75.4477 51.4477 75 52 75H65C65.5523 75 66 75.4477 66 76V89C66 89.5523 65.5523 90 65 90H52C51.4477 90 51 89.5523 51 89V76Z" fill="#BDECFF"/>
<path fill-rule="evenodd" clip-rule="evenodd" d="M66.8119 75.1018C67.0207 75.2692 67.0619 75.5845 66.9041 75.8059L59.2359 86.5612C59.0609 86.8105 58.7991 86.9946 58.4736 86.9999C58.16 87.005 57.8844 86.8422 57.6688 86.6212C57.6583 86.6104 57.6483 86.5991 57.6387 86.5874L55.1145 83.4727C54.9439 83.2621 54.9665 82.9447 55.165 82.7638C55.3636 82.5828 55.6628 82.6068 55.8335 82.8173L58.3417 85.9123C58.396 85.9652 58.4328 85.9843 58.4505 85.9911C58.4565 85.9852 58.4651 85.9756 58.4757 85.9605L58.4785 85.9565L58.4785 85.9565L66.1479 75.1995C66.3058 74.9781 66.6031 74.9343 66.8119 75.1018Z" fill="#333333"/>
<path fill-rule="evenodd" clip-rule="evenodd" d="M52.3613 74H60.0672C60.3433 74 60.5672 74.2239 60.5672 74.5C60.5672 74.7761 60.3433 75 60.0672 75H52.3682C51.9856 75.0115 51.6106 75.1862 51.3565 75.4708C51.1011 75.757 50.971 76.1506 51.0055 76.5316C51.0068 76.5466 51.0075 76.5617 51.0075 76.5767V88.4587C51.0017 88.8633 51.1662 89.2679 51.4535 89.5544C51.7408 89.841 52.147 90.0056 52.5538 89.9998L52.5609 89.9997L64.5196 89.9998C64.9422 89.9933 65.3451 89.8215 65.6416 89.5217C65.897 89.2633 65.9998 88.8906 65.9998 88.3947V82.4222C65.9998 82.146 66.2236 81.9222 66.4998 81.9222C66.7759 81.9222 66.9998 82.146 66.9998 82.4222L66.9998 88.3946C66.9998 88.3946 66.9998 88.3946 66.9998 88.3946C66.9998 89.0056 66.8763 89.6952 66.3526 90.2248C65.8705 90.7123 65.2157 90.9905 64.5299 90.9998L64.5232 90.9998L52.5641 90.9998C51.8894 91.0083 51.2248 90.7388 50.7473 90.2624C50.2696 89.786 49.9989 89.1225 50.0075 88.4482V76.5979C49.9555 75.9485 50.1763 75.2914 50.6105 74.8049C51.05 74.3126 51.6883 74.0172 52.3484 74.0002L52.3613 74Z" fill="#333333"/>
<path fill-rule="evenodd" clip-rule="evenodd" d="M72 105.5C72 105.224 72.2198 105 72.4909 105H98.5091C98.7802 105 99 105.224 99 105.5C99 105.776 98.7802 106 98.5091 106H72.4909C72.2198 106 72 105.776 72 105.5Z" fill="#333333"/>
<path fill-rule="evenodd" clip-rule="evenodd" d="M72 111.5C72 111.224 72.2161 111 72.4828 111H85.5172C85.7839 111 86 111.224 86 111.5C86 111.776 85.7839 112 85.5172 112H72.4828C72.2161 112 72 111.776 72 111.5Z" fill="#333333"/>
<path fill-rule="evenodd" clip-rule="evenodd" d="M51 101C51 100.448 51.4477 100 52 100H65C65.5523 100 66 100.448 66 101V114C66 114.552 65.5523 115 65 115H52C51.4477 115 51 114.552 51 114V101Z" fill="#BDECFF"/>
<path fill-rule="evenodd" clip-rule="evenodd" d="M66.8119 100.102C67.0207 100.269 67.0619 100.584 66.9041 100.806L59.2359 111.561C59.0609 111.811 58.7991 111.995 58.4736 112C58.16 112.005 57.8844 111.842 57.6688 111.621C57.6583 111.61 57.6483 111.599 57.6387 111.587L55.1145 108.473C54.9439 108.262 54.9665 107.945 55.165 107.764C55.3636 107.583 55.6628 107.607 55.8335 107.817L58.3417 110.912C58.396 110.965 58.4328 110.984 58.4505 110.991C58.4565 110.985 58.4651 110.976 58.4757 110.96L58.4785 110.956L58.4785 110.957L66.1479 100.2C66.3058 99.9781 66.6031 99.9343 66.8119 100.102Z" fill="#333333"/>
<path fill-rule="evenodd" clip-rule="evenodd" d="M52.3613 99H60.0672C60.3433 99 60.5672 99.2239 60.5672 99.5C60.5672 99.7761 60.3433 100 60.0672 100H52.3682C51.9856 100.012 51.6106 100.186 51.3565 100.471C51.1011 100.757 50.971 101.151 51.0055 101.532C51.0068 101.547 51.0075 101.562 51.0075 101.577V113.459C51.0017 113.863 51.1662 114.268 51.4535 114.554C51.7408 114.841 52.147 115.006 52.5538 115L52.5609 115L64.5196 115C64.9422 114.993 65.3451 114.821 65.6416 114.522C65.897 114.263 65.9998 113.891 65.9998 113.395V107.422C65.9998 107.146 66.2236 106.922 66.4998 106.922C66.7759 106.922 66.9998 107.146 66.9998 107.422L66.9998 113.395C66.9998 113.395 66.9998 113.395 66.9998 113.395C66.9998 114.006 66.8763 114.695 66.3526 115.225C65.8705 115.712 65.2157 115.991 64.5299 116L64.5232 116L52.5641 116C51.8894 116.008 51.2248 115.739 50.7473 115.262C50.2696 114.786 49.9989 114.122 50.0075 113.448V101.598C49.9555 100.949 50.1763 100.291 50.6105 99.8049C51.05 99.3126 51.6883 99.0172 52.3484 99.0002L52.3613 99Z" fill="#333333"/>
<path fill-rule="evenodd" clip-rule="evenodd" d="M82.967 8.04056C82.967 4.15611 79.7947 1 75.8783 1C71.962 1 68.7897 4.14556 68.7897 8.04056H47.5443C45.5913 8.04056 44 9.61333 44 11.5556V16.485C44 18.4272 45.5913 20 47.5443 20H102.456C104.409 20 106 18.4272 106 16.485V11.5556C106 9.61333 104.409 8.04056 102.456 8.04056H82.967Z" fill="url(#paint0_linear_125_10263)"/>
<path fill-rule="evenodd" clip-rule="evenodd" d="M81.967 9.04056V8.04056C81.967 4.71432 79.2483 2 75.8783 2C72.5074 2 69.7897 4.70473 69.7897 8.04056V9.04056H47.5443C46.1348 9.04056 45 10.1744 45 11.5556V16.485C45 17.8661 46.1348 19 47.5443 19H102.456C103.865 19 105 17.8661 105 16.485V11.5556C105 10.1744 103.865 9.04056 102.456 9.04056H81.967ZM82.967 8.04056C82.967 4.15611 79.7947 1 75.8783 1C71.962 1 68.7897 4.14556 68.7897 8.04056H47.5443C45.5913 8.04056 44 9.61333 44 11.5556V16.485C44 18.4272 45.5913 20 47.5443 20H102.456C104.409 20 106 18.4272 106 16.485V11.5556C106 9.61333 104.409 8.04056 102.456 8.04056H82.967Z" fill="#333333"/>
<defs>
<linearGradient id="paint0_linear_125_10263" x1="49.7679" y1="-13.3163" x2="79.4831" y2="18.7252" gradientUnits="userSpaceOnUse">
<stop stop-color="#FFC671"/>
<stop offset="1" stop-color="#FF6F3D"/>
</linearGradient>
</defs>
</svg>
