<svg width="150" height="150" viewBox="0 0 150 150" fill="none" xmlns="http://www.w3.org/2000/svg">
<path fill-rule="evenodd" clip-rule="evenodd" d="M102 2H24.8943L6 20.6683V118H102V2Z" fill="white"/>
<path fill-rule="evenodd" clip-rule="evenodd" d="M103 1H24L5 20V119H103V1ZM102 2V118H6V20.6683L24.8943 2H102Z" fill="#333333"/>
<path fill-rule="evenodd" clip-rule="evenodd" d="M24 2L6 20H24V2Z" fill="#BDECFF"/>
<path fill-rule="evenodd" clip-rule="evenodd" d="M24.3827 1.07615C24.009 0.921369 23.5789 1.00692 23.2929 1.29292L5.29289 19.2929C5.0069 19.5789 4.92134 20.009 5.07612 20.3827C5.2309 20.7564 5.59554 21 6 21H24C24.5523 21 25 20.5523 25 20V2.00003C25 1.59557 24.7564 1.23093 24.3827 1.07615ZM24 2.00003V20H6L24 2.00003Z" fill="#333333"/>
<path fill-rule="evenodd" clip-rule="evenodd" d="M116 11H38.8943L20 29.6683V127H116V11Z" fill="white"/>
<path fill-rule="evenodd" clip-rule="evenodd" d="M117 10H38L19 29V128H117V10ZM116 11V127H20V29.6683L38.8943 11H116Z" fill="#333333"/>
<path fill-rule="evenodd" clip-rule="evenodd" d="M38 11L20 29H38V11Z" fill="#BDECFF"/>
<path fill-rule="evenodd" clip-rule="evenodd" d="M38.3827 10.0761C38.009 9.92137 37.5789 10.0069 37.2929 10.2929L19.2929 28.2929C19.0069 28.5789 18.9213 29.009 19.0761 29.3827C19.2309 29.7564 19.5955 30 20 30H38C38.5523 30 39 29.5523 39 29V11C39 10.5956 38.7564 10.2309 38.3827 10.0761ZM38 11V29H20L38 11Z" fill="#333333"/>
<path fill-rule="evenodd" clip-rule="evenodd" d="M130 21H52.8947L34.0004 39.6683V138H130V21Z" fill="white"/>
<path fill-rule="evenodd" clip-rule="evenodd" d="M131 20.5C131 20.2239 130.777 20 130.5 20H52.0004C51.8678 20 51.7406 20.0527 51.6468 20.1464L33.1468 38.6464C33.053 38.7402 33.0004 38.8674 33.0004 39V138.5C33.0004 138.776 33.2242 139 33.5004 139H77.0004C77.2765 139 77.5004 138.776 77.5004 138.5C77.5004 138.224 77.2765 138 77.0004 138H34.0004V39.2071L52.2075 21H130V74.5C130 74.7761 130.224 75 130.5 75C130.777 75 131 74.7761 131 74.5V20.5Z" fill="#333333"/>
<path fill-rule="evenodd" clip-rule="evenodd" d="M52.0004 21L34.0004 39H52.0004V21Z" fill="url(#paint0_linear_125_7841)"/>
<path fill-rule="evenodd" clip-rule="evenodd" d="M52.383 20.0761C52.0094 19.9214 51.5793 20.0069 51.2933 20.2929L33.2933 38.2929C33.0073 38.5789 32.9217 39.009 33.0765 39.3827C33.2313 39.7564 33.5959 40 34.0004 40H52.0004C52.5527 40 53.0004 39.5523 53.0004 39V21C53.0004 20.5956 52.7567 20.2309 52.383 20.0761ZM52.0004 21V39H34.0004L52.0004 21Z" fill="#333333"/>
<path fill-rule="evenodd" clip-rule="evenodd" d="M83 72.5C83 72.2239 82.7734 72 82.4939 72H50.5061C50.2266 72 50 72.2239 50 72.5C50 72.7761 50.2266 73 50.5061 73H82.4939C82.7734 73 83 72.7761 83 72.5Z" fill="#333333"/>
<path fill-rule="evenodd" clip-rule="evenodd" d="M67 106.5C67 106.224 66.7738 106 66.4948 106H50.5052C50.2262 106 50 106.224 50 106.5C50 106.776 50.2262 107 50.5052 107H66.4948C66.7738 107 67 106.776 67 106.5Z" fill="#333333"/>
<path fill-rule="evenodd" clip-rule="evenodd" d="M115 50.5C115 50.2239 114.776 50 114.5 50H64.4996C64.2237 50 64 50.2239 64 50.5C64 50.7761 64.2237 51 64.4996 51H114.5C114.776 51 115 50.7761 115 50.5Z" fill="#333333"/>
<path fill-rule="evenodd" clip-rule="evenodd" d="M111 84.5C111 84.2239 110.776 84 110.5 84H50.5049C50.2288 84 50.0049 84.2239 50.0049 84.5C50.0049 84.7761 50.2288 85 50.5049 85H110.5C110.776 85 111 84.7761 111 84.5Z" fill="#333333"/>
<path fill-rule="evenodd" clip-rule="evenodd" d="M115 61.5C115 61.2239 114.776 61 114.501 61H50.4993C50.2236 61 50 61.2239 50 61.5C50 61.7761 50.2236 62 50.4993 62H114.501C114.776 62 115 61.7761 115 61.5Z" fill="#333333"/>
<path fill-rule="evenodd" clip-rule="evenodd" d="M94 95.5C94 95.2239 93.7727 95 93.4924 95H50.5076C50.2273 95 50 95.2239 50 95.5C50 95.7761 50.2273 96 50.5076 96H93.4924C93.7727 96 94 95.7761 94 95.5Z" fill="#333333"/>
<path fill-rule="evenodd" clip-rule="evenodd" d="M75 117.5C75 117.224 74.7722 117 74.4911 117H50.5089C50.2278 117 50 117.224 50 117.5C50 117.776 50.2278 118 50.5089 118H74.4911C74.7722 118 75 117.776 75 117.5Z" fill="#333333"/>
<path fill-rule="evenodd" clip-rule="evenodd" d="M115 72.5C115 72.2239 114.772 72 114.49 72H88.5102C88.2284 72 88 72.2239 88 72.5C88 72.7761 88.2284 73 88.5102 73H114.49C114.772 73 115 72.7761 115 72.5Z" fill="#333333"/>
<path fill-rule="evenodd" clip-rule="evenodd" d="M87 106.5C87 106.224 86.7672 106 86.4799 106H73.5201C73.2328 106 73 106.224 73 106.5C73 106.776 73.2328 107 73.5201 107H86.4799C86.7672 107 87 106.776 87 106.5Z" fill="#333333"/>
<path fill-rule="evenodd" clip-rule="evenodd" d="M110 37C110 36.4477 109.552 36 109 36H76C75.4477 36 75 36.4477 75 37C75 37.5523 75.4477 38 76 38H109C109.552 38 110 37.5523 110 37Z" fill="url(#paint1_linear_125_7841)"/>
<path fill-rule="evenodd" clip-rule="evenodd" d="M136.752 99.6346C143.77 98.9514 143.839 89.3965 136.416 90.0302C110.527 92.199 89.1702 113.671 87.025 139.657C86.451 146.667 95.9332 146.895 96.6558 139.657C98.7328 118.76 115.929 101.66 136.752 99.6346Z" fill="#CCE9FF"/>
<path fill-rule="evenodd" clip-rule="evenodd" d="M136.501 91.0265L136.499 91.0267C111.101 93.1544 90.1272 114.237 88.0217 139.738C87.8973 141.257 88.3196 142.298 88.9232 142.956C89.5366 143.625 90.4173 143.988 91.3661 144C93.2276 144.022 95.3498 142.67 95.6607 139.558C97.785 118.186 115.358 100.711 136.656 98.6393C139.645 98.3482 141.026 96.2286 141 94.3525C140.986 93.4055 140.619 92.5284 139.926 91.9178C139.24 91.3136 138.139 90.8867 136.501 91.0265ZM136.752 99.6346C143.77 98.9514 143.839 89.3965 136.416 90.0302C110.527 92.199 89.1702 113.671 87.025 139.657C86.451 146.667 95.9332 146.895 96.6558 139.657C98.7328 118.76 115.929 101.66 136.752 99.6346Z" fill="#333333"/>
<path fill-rule="evenodd" clip-rule="evenodd" d="M115.066 118.109C109.211 123.955 105.246 131.708 104.188 140.354C103.623 145 104.127 145 108.554 145C117.408 145 126.263 145 135.118 145C141.414 145 142 145.062 142 138.785C142 129.585 142 120.396 142 111.197C142 106.53 141.312 106.715 136.905 107.299C128.69 108.423 120.946 112.253 115.066 118.109Z" fill="#CCE9FF"/>
<path fill-rule="evenodd" clip-rule="evenodd" d="M105.181 140.476C105.039 141.641 104.977 142.43 105.008 142.984C105.039 143.535 105.155 143.663 105.189 143.696C105.247 143.75 105.427 143.867 106.034 143.933C106.627 143.999 107.424 144 108.554 144L135.256 144C136.782 144 137.898 144 138.752 143.916C139.639 143.829 140.054 143.664 140.284 143.474C140.488 143.307 140.691 142.999 140.825 142.232C140.961 141.452 141 140.361 141 138.785V111.197C141 110.032 140.955 109.261 140.845 108.744C140.739 108.241 140.607 108.147 140.565 108.12C140.475 108.063 140.241 107.98 139.599 108.005C139.018 108.027 138.276 108.126 137.269 108.26C137.193 108.27 137.117 108.28 137.039 108.29C129.04 109.385 121.496 113.116 115.772 118.818C110.07 124.511 106.211 132.06 105.181 140.476ZM115.066 118.109C109.211 123.955 105.246 131.708 104.188 140.354C103.623 145 104.127 145 108.554 145L135.299 145C141.426 145.001 142 145.001 142 138.785V111.197C142 106.621 141.338 106.709 137.159 107.266C137.076 107.277 136.991 107.288 136.905 107.299C128.69 108.423 120.946 112.253 115.066 118.109Z" fill="#333333"/>
<defs>
<linearGradient id="paint0_linear_125_7841" x1="52.0003" y1="20.2969" x2="34.0003" y2="39" gradientUnits="userSpaceOnUse">
<stop stop-color="#FF8E3D"/>
<stop offset="1" stop-color="#FF6F3D"/>
</linearGradient>
<linearGradient id="paint1_linear_125_7841" x1="110" y1="35.9219" x2="109.78" y2="39.9127" gradientUnits="userSpaceOnUse">
<stop stop-color="#FF8E3D"/>
<stop offset="1" stop-color="#FF6F3D"/>
</linearGradient>
</defs>
</svg>
