<svg width="150" height="150" viewBox="0 0 150 150" fill="none" xmlns="http://www.w3.org/2000/svg">
<g clip-path="url(#clip0_125_9618)">
<path fill-rule="evenodd" clip-rule="evenodd" d="M29.9583 139.025C30.0979 141.06 31.6038 143.85 33.4588 145.21C35.3436 146.61 38.9139 147.801 41.8658 147.801L112.164 148C115.106 148 118.646 146.809 120.531 145.409C122.376 144.049 124.052 141.08 124.191 139.045C126.724 102.202 129.327 64.2365 132 28.0387C95.334 28.0387 58.6678 27.9517 22 28.0387L29.9583 139.025Z" fill="#FEFEFE"/>
<path fill-rule="evenodd" clip-rule="evenodd" d="M132.07 36.0027C132.622 36.0431 133.037 36.5235 132.997 37.0758C130.65 69.1969 128.357 102.5 126.118 135.019L125.837 139.099V139.099C125.753 140.323 125.225 141.725 124.513 142.968C123.798 144.217 122.831 145.422 121.762 146.209C119.685 147.748 115.923 149 112.775 149L42.2769 148.801C39.1223 148.801 35.3298 147.551 33.2512 146.011C32.1766 145.224 31.2474 144.062 30.5701 142.849C29.8946 141.64 29.4184 140.289 29.3351 139.081L29.335 139.079L22.0024 37.0746C21.9627 36.5223 22.3783 36.0423 22.9308 36.0026C23.4832 35.9629 23.9632 36.3785 24.0029 36.9308L31.336 138.942C31.3929 139.771 31.7418 140.834 32.3211 141.872C32.8985 142.905 33.6537 143.82 34.4384 144.395L34.4433 144.398C36.1457 145.661 39.5122 146.796 42.2769 146.796H42.2797L112.775 146.995C115.528 146.995 118.865 145.861 120.569 144.597L120.572 144.595C121.352 144.021 122.15 143.059 122.773 141.972C123.399 140.878 123.78 139.775 123.836 138.961L124.117 134.882C126.356 102.363 128.649 69.0557 130.997 36.9297C131.037 36.3774 131.518 35.9624 132.07 36.0027Z" fill="#333333"/>
<path fill-rule="evenodd" clip-rule="evenodd" d="M15 29H139V24C139 21.2465 136.708 19 133.908 19H20.0923C17.2924 19 15 21.2465 15 24V29Z" fill="url(#paint0_linear_125_9618)"/>
<path fill-rule="evenodd" clip-rule="evenodd" d="M14 24C14 20.6765 16.758 18 20.0923 18H133.908C137.242 18 140 20.6765 140 24V29C140 29.5523 139.552 30 139 30H15C14.4477 30 14 29.5523 14 29V24ZM20.0923 20C17.8268 20 16 21.8165 16 24V28H138V24C138 21.8165 136.173 20 133.908 20H20.0923Z" fill="#333333"/>
<path fill-rule="evenodd" clip-rule="evenodd" d="M64 2C61.2386 2 59 4.23858 59 7V14C59 14.5523 58.5523 15 58 15C57.4477 15 57 14.5523 57 14V7C57 3.13401 60.134 0 64 0H90C93.866 0 97 3.13401 97 7V14C97 14.5523 96.5523 15 96 15C95.4477 15 95 14.5523 95 14V7C95 4.23858 92.7614 2 90 2H64Z" fill="#333333"/>
<path fill-rule="evenodd" clip-rule="evenodd" d="M78 48C78.5523 48 79 48.4477 79 49V132C79 132.552 78.5523 133 78 133C77.4477 133 77 132.552 77 132V49C77 48.4477 77.4477 48 78 48Z" fill="#333333"/>
<path fill-rule="evenodd" clip-rule="evenodd" d="M105.999 48.0523C106.55 48.0812 106.974 48.5518 106.945 49.1033L102.601 131.99C102.572 132.541 102.102 132.965 101.55 132.936C100.999 132.907 100.575 132.436 100.604 131.885L104.948 48.9986C104.977 48.4471 105.447 48.0234 105.999 48.0523Z" fill="#333333"/>
<path fill-rule="evenodd" clip-rule="evenodd" d="M49.0014 48.0523C48.4498 48.0812 48.0262 48.5518 48.0551 49.1033L52.399 131.99C52.4279 132.541 52.8984 132.965 53.4499 132.936C54.0015 132.907 54.4251 132.436 54.3962 131.885L50.0523 48.9986C50.0234 48.4471 49.5529 48.0234 49.0014 48.0523Z" fill="#333333"/>
</g>
<defs>
<linearGradient id="paint0_linear_125_9618" x1="31.5566" y1="-29.2922" x2="89.1093" y2="28.4925" gradientUnits="userSpaceOnUse">
<stop stop-color="#FFC671"/>
<stop offset="1" stop-color="#FF6F3D"/>
</linearGradient>
<clipPath id="clip0_125_9618">
<rect width="150" height="150" fill="white"/>
</clipPath>
</defs>
</svg>
