<svg width="150" height="150" viewBox="0 0 150 150" fill="none" xmlns="http://www.w3.org/2000/svg">
<path fill-rule="evenodd" clip-rule="evenodd" d="M24.9999 82V46H15.9999C10.5979 46 6.99994 50.848 6.99994 54.5728V82H24.9999Z" fill="#BDECFF"/>
<path fill-rule="evenodd" clip-rule="evenodd" d="M25.9999 83H5.99994V54.5728C5.99994 52.4146 7.02697 50.0355 8.74508 48.2052C10.4794 46.3576 12.9824 45 15.9999 45H25.9999V83ZM15.9999 46C10.5979 46 6.99994 50.848 6.99994 54.5728V82H24.9999V46H15.9999Z" fill="#333333"/>
<path fill-rule="evenodd" clip-rule="evenodd" d="M122 46V70H140V53.8144C140 49 136 46 132 46H122Z" fill="#BDECFF"/>
<path fill-rule="evenodd" clip-rule="evenodd" d="M121 45H132C136.452 45 141 48.3524 141 53.8144V71H121V45ZM122 70V46H132C136 46 140 49 140 53.8144V70H122Z" fill="#333333"/>
<path fill-rule="evenodd" clip-rule="evenodd" d="M112 4H34.8943L15.9999 22.6683V84H112V4Z" fill="white"/>
<path fill-rule="evenodd" clip-rule="evenodd" d="M113 3H34.4836L14.9999 22.2506V85H113V3ZM112 4V84H15.9999V22.6683L34.8943 4H112Z" fill="#333333"/>
<path fill-rule="evenodd" clip-rule="evenodd" d="M33.9999 4L15.9999 22H33.9999V4Z" fill="url(#paint0_linear_125_8497)"/>
<path fill-rule="evenodd" clip-rule="evenodd" d="M34.3826 3.07615C34.0089 2.92137 33.5788 3.00692 33.2928 3.29292L15.2928 21.2929C15.0068 21.5789 14.9213 22.009 15.0761 22.3827C15.2308 22.7564 15.5955 23 15.9999 23H33.9999C34.5522 23 34.9999 22.5523 34.9999 22V4.00003C34.9999 3.59557 34.7563 3.23093 34.3826 3.07615ZM33.9999 4.00003V22H15.9999L33.9999 4.00003Z" fill="#333333"/>
<path fill-rule="evenodd" clip-rule="evenodd" d="M131 20H53.8943L34.9999 38.6683V100H131V20Z" fill="white"/>
<path fill-rule="evenodd" clip-rule="evenodd" d="M132 19H53.4836L33.9999 38.2506V101H132V19ZM131 20V100H34.9999V38.6683L53.8943 20H131Z" fill="#333333"/>
<path fill-rule="evenodd" clip-rule="evenodd" d="M52.9999 20L34.9999 38H52.9999V20Z" fill="#BDECFF"/>
<path fill-rule="evenodd" clip-rule="evenodd" d="M53.3826 19.0761C53.0089 18.9214 52.5788 19.0069 52.2928 19.2929L34.2928 37.2929C34.0068 37.5789 33.9213 38.009 34.0761 38.3827C34.2308 38.7564 34.5955 39 34.9999 39H52.9999C53.5522 39 53.9999 38.5523 53.9999 38V20C53.9999 19.5956 53.7563 19.2309 53.3826 19.0761ZM52.9999 20V38H34.9999L52.9999 20Z" fill="#333333"/>
<path fill-rule="evenodd" clip-rule="evenodd" d="M117 72.5C117 72.2239 116.776 72 116.5 72H45.5C45.2239 72 45 72.2239 45 72.5C45 72.7761 45.2239 73 45.5 73H116.5C116.776 73 117 72.7761 117 72.5Z" fill="#333333"/>
<path fill-rule="evenodd" clip-rule="evenodd" d="M119 50.5C119 50.2239 118.776 50 118.5 50H61.5C61.2239 50 61 50.2239 61 50.5C61 50.7761 61.2239 51 61.5 51H118.5C118.776 51 119 50.7761 119 50.5Z" fill="#333333"/>
<path fill-rule="evenodd" clip-rule="evenodd" d="M119 61.5C119 61.2239 118.776 61 118.5 61H45.5C45.2239 61 45 61.2239 45 61.5C45 61.7761 45.2239 62 45.5 62H118.5C118.776 62 119 61.7761 119 61.5Z" fill="#333333"/>
<path d="M118.5 72.5H89.4999" stroke="#333333" stroke-linecap="round"/>
<path fill-rule="evenodd" clip-rule="evenodd" d="M103 37C103 36.4477 102.552 36 102 36H69C68.4477 36 68 36.4477 68 37C68 37.5523 68.4477 38 69 38H102C102.552 38 103 37.5523 103 37Z" fill="url(#paint1_linear_125_8497)"/>
<path fill-rule="evenodd" clip-rule="evenodd" d="M69.9922 71.5L61.2365 81.7843H8.69242C2.22958 81.7843 0.55431 84 1.09463 88.8668L9.55532 140.485C10.0398 143.661 13.4264 147 17.7672 147H133.977C138.318 147 140.426 141 140.426 141L147.922 73.5C148.318 71.4987 147.251 69 143.701 69H76.5033C72.9896 69 72.1588 69.3914 69.9922 71.5Z" fill="url(#paint2_linear_125_8497)"/>
<path fill-rule="evenodd" clip-rule="evenodd" d="M69.5088 70.9911C71.2934 69.1852 73.5159 68 76.0173 68H143.275C147.055 68 149.4 70.9873 148.946 73.3662L141.014 140.535C140.88 142.236 140.175 143.855 138.91 145.051C137.638 146.253 135.829 147 133.543 147H17.2286C12.6434 147 9.04011 143.488 8.5156 140.063L8.51517 140.061L0.0466379 88.4408C-0.223057 86.6376 0.702184 84.7154 2.18814 83.2754C3.68481 81.825 5.82523 80.7843 8.14577 80.7843H60.8075L69.5 71L69.5088 70.9911ZM70.2288 71.6852L61.255 81.7843H8.14577C6.12166 81.7843 4.22227 82.6967 2.88405 83.9935C1.53622 85.2997 0.831496 86.9172 1.03518 88.2895L1.03569 88.2928L9.50375 139.91C9.9506 142.837 13.1259 146 17.2286 146H133.543C135.602 146 137.156 145.333 138.223 144.325C139.294 143.313 139.903 141.929 140.018 140.448L140.019 140.438L147.957 73.2112L147.961 73.1921C148.281 71.5716 146.591 69 143.275 69H76.0173C73.792 69 71.8275 70.0718 70.2288 71.6852Z" fill="#333333"/>
<path fill-rule="evenodd" clip-rule="evenodd" d="M96.9863 89.0802C97.438 89.5246 97.7202 90.1297 97.7202 90.7821L94.9914 132.991C94.9443 133.766 94.6244 134.466 94.1257 134.967C93.6552 135.44 93.0153 135.733 92.3001 135.733H57.6622C56.9471 135.733 56.3166 135.44 55.8555 134.977C55.3568 134.475 55.0369 133.766 54.971 132.981L52.3514 100H60.0961C61.1743 100 62.1503 99.5631 62.8567 98.8567C63.5631 98.1503 64 97.1743 64 96.096V88.2765H95.2078C95.8853 88.3238 96.5252 88.6263 96.9863 89.0802ZM62.7452 88.9562V96.096C62.7452 96.8211 62.4477 97.481 61.9644 97.9644C61.4903 98.4477 60.8211 98.7452 60.0961 98.7452H53.0115L62.7452 88.9562ZM96.2617 133.067L99 90.7821C99 89.761 98.5577 88.8533 97.8802 88.1725C97.2027 87.5106 96.2805 87.0756 95.2925 87.0095L62.9035 87L51 98.9705L53.7101 133.085C53.7947 134.163 54.2558 135.166 54.9616 135.875C55.6579 136.565 56.5895 137 57.6622 137H92.3095C93.3823 137 94.3327 136.565 95.029 135.865C95.7348 135.147 96.1864 134.154 96.2617 133.067Z" fill="white"/>
<defs>
<linearGradient id="paint0_linear_125_8497" x1="37.878" y1="3.0367" x2="27.7153" y2="19.4717" gradientUnits="userSpaceOnUse">
<stop stop-color="#FFC671"/>
<stop offset="1" stop-color="#FF6F3D"/>
</linearGradient>
<linearGradient id="paint1_linear_125_8497" x1="103" y1="35.9219" x2="102.78" y2="39.9127" gradientUnits="userSpaceOnUse">
<stop stop-color="#FF8E3D"/>
<stop offset="1" stop-color="#FF6F3D"/>
</linearGradient>
<linearGradient id="paint2_linear_125_8497" x1="38.1337" y1="43.2413" x2="92.0358" y2="125.845" gradientUnits="userSpaceOnUse">
<stop stop-color="#FFC671"/>
<stop offset="1" stop-color="#FF6F3D"/>
</linearGradient>
</defs>
</svg>
