<svg width="150" height="150" viewBox="0 0 150 150" fill="none" xmlns="http://www.w3.org/2000/svg">
<path fill-rule="evenodd" clip-rule="evenodd" d="M102 2H24.375L6 20.6683V118H102V2Z" fill="white"/>
<path fill-rule="evenodd" clip-rule="evenodd" d="M103 1H23.9561L5 20.2587V119H103V1ZM102 2V118H6V20.6683L24.375 2H102Z" fill="#333333"/>
<path fill-rule="evenodd" clip-rule="evenodd" d="M24 2L6 20H24V2Z" fill="#BDECFF"/>
<path fill-rule="evenodd" clip-rule="evenodd" d="M24.3827 1.07615C24.009 0.921369 23.5789 1.00692 23.2929 1.29292L5.29289 19.2929C5.0069 19.5789 4.92134 20.009 5.07612 20.3827C5.2309 20.7564 5.59554 21 6 21H24C24.5523 21 25 20.5523 25 20V2.00003C25 1.59557 24.7564 1.23093 24.3827 1.07615ZM24 2.00003V20H6L24 2.00003Z" fill="#333333"/>
<path fill-rule="evenodd" clip-rule="evenodd" d="M116 11H38.3438L20 29.5V127H116V11Z" fill="white"/>
<path fill-rule="evenodd" clip-rule="evenodd" d="M117 10H37.927L19 29.0883V128H117V10ZM116 11V127H20V29.5L38.3438 11H116Z" fill="#333333"/>
<path fill-rule="evenodd" clip-rule="evenodd" d="M38 11L20 29H38V11Z" fill="#BDECFF"/>
<path fill-rule="evenodd" clip-rule="evenodd" d="M38.3827 10.0761C38.009 9.92137 37.5789 10.0069 37.2929 10.2929L19.2929 28.2929C19.0069 28.5789 18.9213 29.009 19.0761 29.3827C19.2309 29.7564 19.5955 30 20 30H38C38.5523 30 39 29.5523 39 29V11C39 10.5956 38.7564 10.2309 38.3827 10.0761ZM38 11V29H20L38 11Z" fill="#333333"/>
<path fill-rule="evenodd" clip-rule="evenodd" d="M130 20H52.8943L34 38.6683V137H130V20Z" fill="white"/>
<path fill-rule="evenodd" clip-rule="evenodd" d="M131 19.5C131 19.2239 130.776 19 130.5 19H52C51.8674 19 51.7402 19.0527 51.6464 19.1464L33.1464 37.6464C33.0527 37.7402 33 37.8674 33 38V137.5C33 137.776 33.2239 138 33.5 138H77C77.2761 138 77.5 137.776 77.5 137.5C77.5 137.224 77.2761 137 77 137H34V38.2071L52.2071 20H130V73.5C130 73.7761 130.224 74 130.5 74C130.776 74 131 73.7761 131 73.5V19.5Z" fill="#333333"/>
<path fill-rule="evenodd" clip-rule="evenodd" d="M52 20L34 38H52V20Z" fill="url(#paint0_linear_125_8826)"/>
<path fill-rule="evenodd" clip-rule="evenodd" d="M52.3827 19.0761C52.009 18.9214 51.5789 19.0069 51.2929 19.2929L33.2929 37.2929C33.0069 37.5789 32.9213 38.009 33.0761 38.3827C33.2309 38.7564 33.5955 39 34 39H52C52.5523 39 53 38.5523 53 38V20C53 19.5956 52.7564 19.2309 52.3827 19.0761ZM52 20V38H34L52 20Z" fill="#333333"/>
<path fill-rule="evenodd" clip-rule="evenodd" d="M83 71.5C83 71.2239 82.7734 71 82.4939 71H50.5061C50.2266 71 50 71.2239 50 71.5C50 71.7761 50.2266 72 50.5061 72H82.4939C82.7734 72 83 71.7761 83 71.5Z" fill="#333333"/>
<path fill-rule="evenodd" clip-rule="evenodd" d="M68 105.5C68 105.224 67.774 105 67.4951 105H50.5049C50.226 105 50 105.224 50 105.5C50 105.776 50.226 106 50.5049 106H67.4951C67.774 106 68 105.776 68 105.5Z" fill="#333333"/>
<path fill-rule="evenodd" clip-rule="evenodd" d="M115 49.5C115 49.2239 114.776 49 114.5 49H64.4996C64.2237 49 64 49.2239 64 49.5C64 49.7761 64.2237 50 64.4996 50H114.5C114.776 50 115 49.7761 115 49.5Z" fill="#333333"/>
<path fill-rule="evenodd" clip-rule="evenodd" d="M77 83.5C77 83.2239 76.7761 83 76.5 83H50.5049C50.2288 83 50.0049 83.2239 50.0049 83.5C50.0049 83.7761 50.2288 84 50.5049 84H76.5C76.7761 84 77 83.7761 77 83.5Z" fill="#333333"/>
<path fill-rule="evenodd" clip-rule="evenodd" d="M115 60.5C115 60.2239 114.776 60 114.501 60H50.4993C50.2236 60 50 60.2239 50 60.5C50 60.7761 50.2236 61 50.4993 61H114.501C114.776 61 115 60.7761 115 60.5Z" fill="#333333"/>
<path fill-rule="evenodd" clip-rule="evenodd" d="M71 94.5C71 94.2239 70.7689 94 70.4837 94H50.5163C50.2311 94 50 94.2239 50 94.5C50 94.7761 50.2311 95 50.5163 95H70.4837C70.7689 95 71 94.7761 71 94.5Z" fill="#333333"/>
<path fill-rule="evenodd" clip-rule="evenodd" d="M68 116.5C68 116.224 67.7755 116 67.4986 116H50.5014C50.2245 116 50 116.224 50 116.5C50 116.776 50.2245 117 50.5014 117H67.4986C67.7755 117 68 116.776 68 116.5Z" fill="#333333"/>
<path fill-rule="evenodd" clip-rule="evenodd" d="M115 71.5C115 71.2239 114.772 71 114.49 71H88.5102C88.2284 71 88 71.2239 88 71.5C88 71.7761 88.2284 72 88.5102 72H114.49C114.772 72 115 71.7761 115 71.5Z" fill="#333333"/>
<path d="M114.087 105.5H88.627" stroke="#333333" stroke-linecap="round"/>
<path fill-rule="evenodd" clip-rule="evenodd" d="M110 36C110 35.4477 109.552 35 109 35H76C75.4477 35 75 35.4477 75 36C75 36.5523 75.4477 37 76 37H109C109.552 37 110 36.5523 110 36Z" fill="url(#paint1_linear_125_8826)"/>
<path fill-rule="evenodd" clip-rule="evenodd" d="M115 150C95.6716 150 80 134.328 80 115C80 95.6716 95.6716 80 115 80C134.328 80 150 95.6716 150 115C149.99 134.328 134.318 150 115 150Z" fill="#FEFEFE"/>
<path fill-rule="evenodd" clip-rule="evenodd" d="M81 115C81 133.776 96.2239 149 115 149C133.766 149 148.99 133.776 149 114.999C149 96.2236 133.776 81 115 81C96.2239 81 81 96.2239 81 115ZM150 115C150 95.6716 134.328 80 115 80C95.6716 80 80 95.6716 80 115C80 134.328 95.6716 150 115 150C134.318 150 149.99 134.328 150 115Z" fill="#333333"/>
<path fill-rule="evenodd" clip-rule="evenodd" d="M115 144C98.9849 144 86 131.015 86 115C86 98.9849 98.9849 86 115 86C131.015 86 144 98.9849 144 115C144 131.015 131.015 144 115 144Z" fill="url(#paint2_linear_125_8826)"/>
<path fill-rule="evenodd" clip-rule="evenodd" d="M115 145C98.4326 145 85 131.567 85 115C85 98.4326 98.4326 85 115 85C131.567 85 145 98.4326 145 115C145 131.567 131.567 145 115 145ZM86 115C86 131.015 98.9849 144 115 144C131.015 144 144 131.015 144 115C144 98.9849 131.015 86 115 86C98.9849 86 86 98.9849 86 115Z" fill="#333333"/>
<path fill-rule="evenodd" clip-rule="evenodd" d="M115 117C113.893 117 113 116.107 113 115C113 113.893 113.893 113 115 113C116.107 113 117 113.893 117 115C116.99 116.107 116.096 117 115 117Z" fill="white"/>
<path fill-rule="evenodd" clip-rule="evenodd" d="M115.963 103.117V115.523L128.724 128.923C129.387 129.593 128.724 130.411 128.126 129.764L114 115.151V103.117C114 101.628 115.963 101.628 115.963 103.117Z" fill="white"/>
<path fill-rule="evenodd" clip-rule="evenodd" d="M115 89C115.552 89 116 89.4477 116 90V92.5C116 93.0523 115.552 93.5 115 93.5C114.448 93.5 114 93.0523 114 92.5V90C114 89.4477 114.448 89 115 89ZM115 136.5C115.552 136.5 116 136.948 116 137.5V140C116 140.552 115.552 141 115 141C114.448 141 114 140.552 114 140V137.5C114 136.948 114.448 136.5 115 136.5ZM141 115C141 115.552 140.552 116 140 116H137.5C136.948 116 136.5 115.552 136.5 115C136.5 114.448 136.948 114 137.5 114H140C140.552 114 141 114.448 141 115ZM93.5 115C93.5 115.552 93.0523 116 92.5 116H90C89.4477 116 89 115.552 89 115C89 114.448 89.4477 114 90 114H92.5C93.0523 114 93.5 114.448 93.5 115ZM128.366 93.8494C128.642 93.3711 128.479 92.7595 128 92.4834C127.522 92.2073 126.91 92.3711 126.634 92.8494L125.384 95.0145C125.108 95.4928 125.272 96.1044 125.75 96.3805C126.229 96.6567 126.84 96.4928 127.116 96.0145L128.366 93.8494ZM104.616 134.986C104.892 134.507 104.729 133.896 104.25 133.62C103.772 133.343 103.16 133.507 102.884 133.986L101.634 136.151C101.358 136.629 101.522 137.241 102 137.517C102.479 137.793 103.09 137.629 103.366 137.151L104.616 134.986ZM137.517 128.001C137.24 128.479 136.629 128.643 136.151 128.367L133.986 127.117C133.507 126.841 133.343 126.229 133.619 125.751C133.896 125.272 134.507 125.109 134.986 125.385L137.151 126.635C137.629 126.911 137.793 127.522 137.517 128.001ZM96.3804 104.251C96.1043 104.729 95.4927 104.893 95.0144 104.617L92.8493 103.367C92.371 103.091 92.2071 102.479 92.4833 102.001C92.7594 101.522 93.371 101.359 93.8493 101.635L96.0144 102.885C96.4927 103.161 96.6565 103.772 96.3804 104.251ZM137.151 103.367C137.629 103.091 137.793 102.479 137.517 102.001C137.241 101.522 136.629 101.359 136.151 101.635L133.986 102.885C133.508 103.161 133.344 103.772 133.62 104.251C133.896 104.729 134.508 104.893 134.986 104.617L137.151 103.367ZM96.0149 127.117C96.4932 126.841 96.657 126.229 96.3809 125.751C96.1047 125.272 95.4932 125.109 95.0149 125.385L92.8498 126.635C92.3715 126.911 92.2076 127.522 92.4838 128.001C92.7599 128.479 93.3715 128.643 93.8498 128.367L96.0149 127.117ZM128 137.518C127.521 137.794 126.91 137.63 126.634 137.152L125.384 134.986C125.108 134.508 125.271 133.897 125.75 133.62C126.228 133.344 126.84 133.508 127.116 133.986L128.366 136.152C128.642 136.63 128.478 137.241 128 137.518ZM104.25 96.3817C103.771 96.6578 103.16 96.4939 102.884 96.0156L101.634 93.8506C101.358 93.3723 101.521 92.7607 102 92.4845C102.478 92.2084 103.09 92.3723 103.366 92.8506L104.616 95.0156C104.892 95.4939 104.728 96.1055 104.25 96.3817Z" fill="white"/>
<defs>
<linearGradient id="paint0_linear_125_8826" x1="52" y1="19.2969" x2="34" y2="38" gradientUnits="userSpaceOnUse">
<stop stop-color="#FF8E3D"/>
<stop offset="1" stop-color="#FF6F3D"/>
</linearGradient>
<linearGradient id="paint1_linear_125_8826" x1="110" y1="34.9219" x2="109.78" y2="38.9127" gradientUnits="userSpaceOnUse">
<stop stop-color="#FF8E3D"/>
<stop offset="1" stop-color="#FF6F3D"/>
</linearGradient>
<linearGradient id="paint2_linear_125_8826" x1="85.1182" y1="82.0842" x2="119.5" y2="119.954" gradientUnits="userSpaceOnUse">
<stop stop-color="#FFC671"/>
<stop offset="1" stop-color="#FF6F3D"/>
</linearGradient>
</defs>
</svg>
