<svg width="150" height="150" viewBox="0 0 150 150" fill="none" xmlns="http://www.w3.org/2000/svg">
<g clip-path="url(#clip0_125_7798)">
<path fill-rule="evenodd" clip-rule="evenodd" d="M21 69V38H13.5C8.99832 38 6 42.1747 6 45.3821V69H21Z" fill="#BDECFF"/>
<path fill-rule="evenodd" clip-rule="evenodd" d="M22 70H5V45.3821C5 43.4932 5.86854 41.4155 7.32168 39.8159C8.78969 38.1998 10.9206 37 13.5 37H22V70ZM13.5 38C8.99832 38 6 42.1747 6 45.3821V69H21V38H13.5Z" fill="#333333"/>
<path fill-rule="evenodd" clip-rule="evenodd" d="M104 37V58H119V43.8376C119 39.625 115.667 37 112.333 37H104Z" fill="#BDECFF"/>
<path fill-rule="evenodd" clip-rule="evenodd" d="M103 36H112.333C116.166 36 120 39.0214 120 43.8376V59H103V36ZM104 58V37H112.333C115.667 37 119 39.625 119 43.8376V58H104Z" fill="#333333"/>
<path fill-rule="evenodd" clip-rule="evenodd" d="M96.0001 2H30.139L14.0001 18.1014V71H96.0001V2Z" fill="white"/>
<path fill-rule="evenodd" clip-rule="evenodd" d="M97.0001 1H30L13.0001 18V72H97.0001V1ZM96.0001 2V71H14.0001V18.1014L30.139 2H96.0001Z" fill="#333333"/>
<path fill-rule="evenodd" clip-rule="evenodd" d="M30.0001 2L14.0001 18H28.0001C29.1047 18 30.0001 17.1046 30.0001 16V2Z" fill="#BDECFF"/>
<path fill-rule="evenodd" clip-rule="evenodd" d="M30.3828 1.07615C30.0091 0.921369 29.579 1.00692 29.293 1.29292L13.293 17.2929C13.007 17.5789 12.9215 18.009 13.0762 18.3827C13.231 18.7564 13.5957 19 14.0001 19H28.0001C29.657 19 31.0001 17.6569 31.0001 16V2.00003C31.0001 1.59557 30.7565 1.23093 30.3828 1.07615ZM30.0001 2.00003V16C30.0001 17.1046 29.1047 18 28.0001 18H14.0001L30.0001 2.00003Z" fill="#333333"/>
<path fill-rule="evenodd" clip-rule="evenodd" d="M112 16.0002H45.0002L30.0002 31.0002V85.0002H112V16.0002Z" fill="white"/>
<path fill-rule="evenodd" clip-rule="evenodd" d="M113 15.0002H45.0002L29.0002 31.0002V86.0002H113V15.0002ZM112 16.0002V85.0002H30.0002V31.0002L45.0002 16.0002H112Z" fill="#333333"/>
<path fill-rule="evenodd" clip-rule="evenodd" d="M45.0002 16.0002L30.0002 31.0002H43.0002C44.1048 31.0002 45.0002 30.1048 45.0002 29.0002V16.0002Z" fill="#BDECFF"/>
<path fill-rule="evenodd" clip-rule="evenodd" d="M45.3829 15.0764C45.0093 14.9216 44.5791 15.0072 44.2931 15.2932L29.2931 30.2932C29.0071 30.5792 28.9216 31.0093 29.0764 31.383C29.2311 31.7566 29.5958 32.0003 30.0002 32.0003H43.0002C44.6571 32.0003 46.0002 30.6571 46.0002 29.0003V16.0003C46.0002 15.5958 45.7566 15.2312 45.3829 15.0764ZM45.0002 16.0003V29.0003C45.0002 30.1048 44.1048 31.0003 43.0002 31.0003H30.0002L45.0002 16.0003Z" fill="#333333"/>
<path fill-rule="evenodd" clip-rule="evenodd" d="M102 59.5002C102 59.2241 101.774 59.0002 101.495 59.0002H40.5052C40.2262 59.0002 40 59.2241 40 59.5002C40 59.7764 40.2262 60.0002 40.5052 60.0002H101.495C101.774 60.0002 102 59.7764 102 59.5002Z" fill="#333333"/>
<path fill-rule="evenodd" clip-rule="evenodd" d="M103 41.5002C103 41.2241 102.774 41.0002 102.495 41.0002H53.5054C53.2263 41.0002 53 41.2241 53 41.5002C53 41.7764 53.2263 42.0002 53.5054 42.0002H102.495C102.774 42.0002 103 41.7764 103 41.5002Z" fill="#333333"/>
<path fill-rule="evenodd" clip-rule="evenodd" d="M103 50.5002C103 50.2241 102.776 50.0002 102.501 50.0002H40.4995C40.2236 50.0002 40 50.2241 40 50.5002C40 50.7764 40.2236 51.0002 40.4995 51.0002H102.501C102.776 51.0002 103 50.7764 103 50.5002Z" fill="#333333"/>
<path d="M102.379 59.1663H77.7217" stroke="#333333" stroke-linecap="round"/>
<path fill-rule="evenodd" clip-rule="evenodd" d="M89 30.0002C89 29.448 88.5421 29.0002 87.9773 29.0002H59.0227C58.4579 29.0002 58 29.448 58 30.0002C58 30.5525 58.4579 31.0002 59.0227 31.0002H87.9773C88.5421 31.0002 89 30.5525 89 30.0002Z" fill="url(#paint0_linear_125_7798)"/>
<path fill-rule="evenodd" clip-rule="evenodd" d="M59.2902 60.2407L51.5777 68.9814H6.98142C3.29723 68.9814 0.00020364 75 0.00020364 75L7.47051 119.5C7.88173 122.228 8.46656 125 14.6836 125H113.316C117 125 119.02 122.571 119.23 119.834L127 62C127 62 124.582 58 121.569 58H64.5353C62.5296 58 60.7253 58.7697 59.2902 60.2407Z" fill="url(#paint1_linear_125_7798)"/>
<path fill-rule="evenodd" clip-rule="evenodd" d="M59.1685 60.3909C60.7012 58.8261 62.6405 58 64.7917 58H122.052C125.309 58 127.347 60.599 126.953 62.69L120.201 120.383C120.085 121.858 119.479 123.265 118.388 124.305C117.29 125.352 115.73 126 113.766 126H14.742C10.799 126 7.70223 122.955 7.25059 119.981C7.25044 119.981 7.2503 119.98 7.25016 119.979L0.040427 75.6384C-0.193363 74.0613 0.608585 72.3896 1.88388 71.1426C3.16948 69.8856 5.01012 68.9814 7.00924 68.9814H51.5576L59.1598 60.3998L59.1685 60.3909ZM59.8916 61.0818L52.0077 69.9814H7.00924C5.30954 69.9814 3.71088 70.7548 2.58299 71.8576C1.4459 72.9694 0.860152 74.338 1.02918 75.4885C1.02934 75.4896 1.0295 75.4907 1.02967 75.4918L8.23893 119.829C8.61449 122.311 11.2885 125 14.742 125H113.766C115.501 125 116.805 124.433 117.698 123.582C118.595 122.726 119.108 121.554 119.205 120.296L119.206 120.286L125.964 62.5365L125.968 62.5175C126.231 61.1739 124.833 59 122.052 59H64.7917C62.9195 59 61.239 59.7104 59.8916 61.0818Z" fill="#333333"/>
<path fill-rule="evenodd" clip-rule="evenodd" d="M80.0999 83.2673L67.5942 98.962V115.896C67.5942 116.567 66.8285 117.339 66.1687 116.841L61.1835 112.953C60.8133 112.679 60.4408 112.551 60.4408 112.009V98.962L47.9437 83.2758C47.5938 82.8288 47.2608 82.2047 47.0987 81.5806C46.9877 81.1421 46.9621 80.6867 47.0645 80.2819C47.184 79.8265 47.4657 79.4385 47.9523 79.2108C48.2425 79.0759 48.5925 79 49.0278 79H79.1438C79.5194 79 79.8352 79.0675 80.0913 79.194C80.5694 79.4217 80.834 79.8096 80.9449 80.2734C81.0388 80.6698 81.0047 81.1168 80.9023 81.5553C80.7571 82.2047 80.4328 82.8541 80.0999 83.2673ZM79.2462 82.6011C79.4938 82.289 79.7413 81.7999 79.8608 81.3023C79.9291 81.0156 79.9547 80.7373 79.9035 80.5096C79.8694 80.3578 79.784 80.2313 79.6474 80.1638C79.5365 80.1132 79.3743 80.0795 79.1694 80.0795H49.0449C48.7803 80.0795 48.584 80.1132 48.4388 80.1807C48.2767 80.2566 48.1828 80.3915 48.1401 80.5433C48.0889 80.7542 48.1059 81.024 48.1828 81.3108C48.3023 81.783 48.5584 82.2637 48.823 82.6011L61.5506 98.5825V112.017C61.5882 111.943 66.0957 115.397 66.5101 115.719V98.5909L79.2462 82.6011Z" fill="white"/>
<path fill-rule="evenodd" clip-rule="evenodd" d="M148 83H107.04L97.003 92.9377V148H148V83Z" fill="white"/>
<path fill-rule="evenodd" clip-rule="evenodd" d="M149 82H107.04L96.003 92.9377V149H149V82ZM148 83V148H97.003V92.9377L107.04 83H148Z" fill="#333333"/>
<path fill-rule="evenodd" clip-rule="evenodd" d="M107 83L97 93H105C106.105 93 107 92.1046 107 91V83Z" fill="url(#paint2_linear_125_7798)"/>
<path fill-rule="evenodd" clip-rule="evenodd" d="M107.383 82.0761C107.009 81.9214 106.579 82.0069 106.293 82.2929L96.2929 92.2929C96.0069 92.5789 95.9213 93.009 96.0761 93.3827C96.2309 93.7564 96.5955 94 97 94H105C106.657 94 108 92.6569 108 91V83C108 82.5956 107.756 82.2309 107.383 82.0761ZM107 83V91C107 92.1046 106.105 93 105 93H97L107 83Z" fill="#333333"/>
<path fill-rule="evenodd" clip-rule="evenodd" d="M107 108.5C107 108.224 107.225 108 107.502 108H132.498C132.775 108 133 108.224 133 108.5C133 108.776 132.775 109 132.498 109H107.502C107.225 109 107 108.776 107 108.5Z" fill="#333333"/>
<path fill-rule="evenodd" clip-rule="evenodd" d="M107 122.5C107 122.776 107.229 123 107.512 123H132.488C132.771 123 133 122.776 133 122.5C133 122.224 132.771 122 132.488 122H107.512C107.229 122 107 122.224 107 122.5Z" fill="#333333"/>
<path fill-rule="evenodd" clip-rule="evenodd" d="M140 115.5C140 115.224 139.771 115 139.488 115L107.512 115C107.229 115 107 115.224 107 115.5C107 115.776 107.229 116 107.512 116L139.488 116C139.771 116 140 115.776 140 115.5Z" fill="#333333"/>
<path fill-rule="evenodd" clip-rule="evenodd" d="M140 101.5C140 101.224 139.771 101 139.488 101L107.512 101C107.229 101 107 101.224 107 101.5C107 101.776 107.229 102 107.512 102L139.488 102C139.771 102 140 101.776 140 101.5Z" fill="#333333"/>
<path fill-rule="evenodd" clip-rule="evenodd" d="M107 129.5C107 129.224 107.231 129 107.515 129H135.485C135.769 129 136 129.224 136 129.5C136 129.776 135.769 130 135.485 130H107.515C107.231 130 107 129.776 107 129.5Z" fill="#333333"/>
<path fill-rule="evenodd" clip-rule="evenodd" d="M127 136.5C127 136.224 126.773 136 126.493 136H107.507C107.227 136 107 136.224 107 136.5C107 136.776 107.227 137 107.507 137H126.493C126.773 137 127 136.776 127 136.5Z" fill="#333333"/>
<path fill-rule="evenodd" clip-rule="evenodd" d="M134 92.5C134 92.2239 133.776 92 133.5 92H115.5C115.224 92 115 92.2239 115 92.5C115 92.7761 115.224 93 115.5 93H133.5C133.776 93 134 92.7761 134 92.5Z" fill="url(#paint3_linear_125_7798)"/>
</g>
<defs>
<linearGradient id="paint0_linear_125_7798" x1="88.9999" y1="28.9221" x2="88.7523" y2="32.9097" gradientUnits="userSpaceOnUse">
<stop stop-color="#FF8E3D"/>
<stop offset="1" stop-color="#FF6F3D"/>
</linearGradient>
<linearGradient id="paint1_linear_125_7798" x1="31.9694" y1="35.874" x2="78.4911" y2="106.318" gradientUnits="userSpaceOnUse">
<stop stop-color="#FFC671"/>
<stop offset="1" stop-color="#FF6F3D"/>
</linearGradient>
<linearGradient id="paint2_linear_125_7798" x1="107" y1="82.6094" x2="97" y2="93" gradientUnits="userSpaceOnUse">
<stop stop-color="#FF8E3D"/>
<stop offset="1" stop-color="#FF6F3D"/>
</linearGradient>
<linearGradient id="paint3_linear_125_7798" x1="134" y1="91.9609" x2="133.899" y2="93.9573" gradientUnits="userSpaceOnUse">
<stop stop-color="#FF8E3D"/>
<stop offset="1" stop-color="#FF6F3D"/>
</linearGradient>
<clipPath id="clip0_125_7798">
<rect width="150" height="150" fill="white"/>
</clipPath>
</defs>
</svg>
