<svg width="150" height="150" viewBox="0 0 150 150" fill="none" xmlns="http://www.w3.org/2000/svg">
<path fill-rule="evenodd" clip-rule="evenodd" d="M102 2H24.8943L6 20.6683V118H102V2Z" fill="white"/>
<path fill-rule="evenodd" clip-rule="evenodd" d="M103 1H24L5 20V119H103V1ZM102 2V118H6V20.6683L24.8943 2H102Z" fill="#333333"/>
<path fill-rule="evenodd" clip-rule="evenodd" d="M24 2L6 20H24V2Z" fill="#BDECFF"/>
<path fill-rule="evenodd" clip-rule="evenodd" d="M24.3827 1.07615C24.009 0.921369 23.5789 1.00692 23.2929 1.29292L5.29289 19.2929C5.0069 19.5789 4.92134 20.009 5.07612 20.3827C5.2309 20.7564 5.59554 21 6 21H24C24.5523 21 25 20.5523 25 20V2.00003C25 1.59557 24.7564 1.23093 24.3827 1.07615ZM24 2.00003V20H6L24 2.00003Z" fill="#333333"/>
<path fill-rule="evenodd" clip-rule="evenodd" d="M116 11H38.8943L20 29.6683V127H116V11Z" fill="white"/>
<path fill-rule="evenodd" clip-rule="evenodd" d="M117 10H38.4836L19 29.2506V128H117V10ZM116 11V127H20V29.6683L38.8943 11H116Z" fill="#333333"/>
<path fill-rule="evenodd" clip-rule="evenodd" d="M38 11L20 29H38V11Z" fill="#BDECFF"/>
<path fill-rule="evenodd" clip-rule="evenodd" d="M38.3827 10.0761C38.009 9.92137 37.5789 10.0069 37.2929 10.2929L19.2929 28.2929C19.0069 28.5789 18.9213 29.009 19.0761 29.3827C19.2309 29.7564 19.5955 30 20 30H38C38.5523 30 39 29.5523 39 29V11C39 10.5956 38.7564 10.2309 38.3827 10.0761ZM38 11V29H20L38 11Z" fill="#333333"/>
<path fill-rule="evenodd" clip-rule="evenodd" d="M130 20H52.8943L34 38.6683V137H130V20Z" fill="white"/>
<path fill-rule="evenodd" clip-rule="evenodd" d="M131 19H52.4836L33 38.2506V138H131V19ZM130 20V137H34V38.6683L52.8943 20H130Z" fill="#333333"/>
<path fill-rule="evenodd" clip-rule="evenodd" d="M52 20L34 38H52V20Z" fill="url(#paint0_linear_125_7119)"/>
<path fill-rule="evenodd" clip-rule="evenodd" d="M52.3827 19.0761C52.009 18.9214 51.5789 19.0069 51.2929 19.2929L33.2929 37.2929C33.0069 37.5789 32.9213 38.009 33.0761 38.3827C33.2309 38.7564 33.5955 39 34 39H52C52.5523 39 53 38.5523 53 38V20C53 19.5956 52.7564 19.2309 52.3827 19.0761ZM52 20V38H34L52 20Z" fill="#333333"/>
<path fill-rule="evenodd" clip-rule="evenodd" d="M82 72.5C82 72.2239 81.7803 72 81.5093 72H50.4907C50.2197 72 50 72.2239 50 72.5C50 72.7761 50.2197 73 50.4907 73H81.5093C81.7803 73 82 72.7761 82 72.5Z" fill="#333333"/>
<path fill-rule="evenodd" clip-rule="evenodd" d="M74 106.5C74 106.224 73.7745 106 73.4964 106H50.5036C50.2255 106 50 106.224 50 106.5C50 106.776 50.2255 107 50.5036 107H73.4964C73.7745 107 74 106.776 74 106.5Z" fill="#333333"/>
<path fill-rule="evenodd" clip-rule="evenodd" d="M115 50.5C115 50.2239 114.776 50 114.5 50H64.4996C64.2237 50 64 50.2239 64 50.5C64 50.7761 64.2237 51 64.4996 51H114.5C114.776 51 115 50.7761 115 50.5Z" fill="#333333"/>
<path fill-rule="evenodd" clip-rule="evenodd" d="M87 84.5C87 84.2239 86.7761 84 86.5 84H50.5049C50.2288 84 50.0049 84.2239 50.0049 84.5C50.0049 84.7761 50.2288 85 50.5049 85H86.5C86.7761 85 87 84.7761 87 84.5Z" fill="#333333"/>
<path fill-rule="evenodd" clip-rule="evenodd" d="M115 61.5C115 61.2239 114.776 61 114.501 61H50.4993C50.2236 61 50 61.2239 50 61.5C50 61.7761 50.2236 62 50.4993 62H114.501C114.776 62 115 61.7761 115 61.5Z" fill="#333333"/>
<path fill-rule="evenodd" clip-rule="evenodd" d="M77 95.5C77 95.2239 76.7789 95 76.5062 95H50.4938C50.2211 95 50 95.2239 50 95.5C50 95.7761 50.2211 96 50.4938 96H76.5062C76.7789 96 77 95.7761 77 95.5Z" fill="#333333"/>
<path fill-rule="evenodd" clip-rule="evenodd" d="M73 117.5C73 117.224 72.7756 117 72.4989 117H50.5011C50.2244 117 50 117.224 50 117.5C50 117.776 50.2244 118 50.5011 118H72.4989C72.7756 118 73 117.776 73 117.5Z" fill="#333333"/>
<path fill-rule="evenodd" clip-rule="evenodd" d="M115 72.5C115 72.2239 114.772 72 114.49 72H88.5102C88.2284 72 88 72.2239 88 72.5C88 72.7761 88.2284 73 88.5102 73H114.49C114.772 73 115 72.7761 115 72.5Z" fill="#333333"/>
<path d="M114.087 106.5H88.6267" stroke="#333333" stroke-linecap="round"/>
<path fill-rule="evenodd" clip-rule="evenodd" d="M110 36C110 35.4477 109.552 35 109 35H76C75.4477 35 75 35.4477 75 36C75 36.5523 75.4477 37 76 37H109C109.552 37 110 36.5523 110 36Z" fill="url(#paint1_linear_125_7119)"/>
<path fill-rule="evenodd" clip-rule="evenodd" d="M112.5 148C130.946 148 146 132.956 146 114.5C146 96.0445 130.956 81 112.5 81C94.0445 81 79 96.0445 79 114.5C79 132.956 94.0445 148 112.5 148Z" fill="#BDECFF"/>
<path fill-rule="evenodd" clip-rule="evenodd" d="M147 114.5C147 133.508 131.498 149 112.5 149C93.4922 149 78 133.508 78 114.5C78 95.4922 93.4922 80 112.5 80C131.508 80 147 95.4922 147 114.5ZM146 114.5C146 132.956 130.946 148 112.5 148C94.0445 148 79 132.956 79 114.5C79 96.0445 94.0445 81 112.5 81C130.956 81 146 96.0445 146 114.5Z" fill="#333333"/>
<path d="M104.141 116.507L104.143 116.505C104.148 116.499 104.153 116.493 104.158 116.487C104.223 116.41 104.315 116.3 104.381 116.172C104.464 116.011 104.5 115.843 104.5 115.651V111V110.191L103.776 110.553C102.896 110.993 102.093 111 101 111C99.9302 111 99.0052 110.918 98.2117 110.547L97.5 110.214V111V115.651C97.5 115.834 97.5297 116.001 97.6099 116.163C97.6766 116.299 97.7706 116.411 97.8385 116.492C97.842 116.497 97.8455 116.501 97.8488 116.505L97.8488 116.505L97.8508 116.507C98.2061 116.927 98.5828 117.318 98.9526 117.701C98.9716 117.721 98.9907 117.741 99.0097 117.761C99.4013 118.167 99.7865 118.569 100.158 119.016L100.159 119.017C100.255 119.131 100.369 119.258 100.502 119.35C100.63 119.439 100.8 119.511 101 119.498C101.2 119.511 101.37 119.439 101.498 119.35C101.631 119.258 101.745 119.131 101.841 119.017L101.457 118.696L101.84 119.018C102.213 118.573 102.598 118.169 102.988 117.762C103.001 117.748 103.015 117.733 103.029 117.719C103.402 117.329 103.782 116.932 104.141 116.507Z" fill="white" stroke="#333333"/>
<circle cx="101" cy="104" r="8" fill="white" stroke="#333333"/>
<path fill-rule="evenodd" clip-rule="evenodd" d="M101.308 99.592C102.836 102.211 106.439 105.241 108.95 104.88C109.479 100.25 105.638 96 100.99 96C96.1926 96 92.5777 100.329 93.0398 105C95.4517 104.97 99.4021 103.334 101.308 99.592Z" fill="#AAAAAA" stroke="#333333"/>
<path d="M101.235 119.65L101.208 119.677L101.185 119.707C101.133 119.778 101.09 119.831 101.054 119.871C101.043 119.884 101.032 119.894 101.023 119.903L101.015 119.902L101.01 119.903C101 119.893 100.988 119.88 100.974 119.865C100.937 119.824 100.893 119.771 100.84 119.701L100.84 119.701C100.332 119.042 99.6952 118.422 99.0958 117.843L99.0503 117.799C98.5001 117.267 97.9864 116.77 97.5799 116.275L97.499 114.969L97.4646 114.413L96.9158 114.507C93.5369 115.085 90.8777 116.425 88.6937 118.118L88.2798 118.438L88.6194 118.837C91.571 122.301 96.0318 124.5 101.025 124.5C105.988 124.5 110.427 122.321 113.379 118.897L113.721 118.501L113.308 118.177C111.142 116.481 108.642 115.107 105.255 114.508L104.668 114.404V115V116.255L101.235 119.65Z" fill="#BDECFF" stroke="#333333"/>
<path d="M128.141 116.507L128.143 116.505L128.303 116.314C128.366 116.239 128.439 116.136 128.474 115.981C128.5 115.869 128.5 115.747 128.5 115.654V115.651V115V111V110.191L127.776 110.553C126.896 110.993 126.093 111 125 111C123.93 111 123.005 110.918 122.212 110.547L121.5 110.214V111V115.024V115.651C121.5 115.658 121.5 115.665 121.5 115.673C121.5 115.755 121.5 115.865 121.518 115.962C121.547 116.119 121.617 116.227 121.689 116.314L121.849 116.505L121.849 116.505L121.851 116.507C122.206 116.927 122.583 117.318 122.953 117.701C122.972 117.721 122.991 117.741 123.01 117.761C123.401 118.167 123.787 118.569 124.158 119.016L124.159 119.017C124.255 119.131 124.369 119.258 124.502 119.35C124.63 119.439 124.8 119.511 125 119.498C125.2 119.511 125.37 119.439 125.498 119.35C125.631 119.258 125.745 119.131 125.841 119.017L125.457 118.696L125.84 119.018C126.213 118.573 126.598 118.169 126.988 117.762C127.001 117.748 127.015 117.733 127.029 117.719C127.402 117.329 127.782 116.932 128.141 116.507Z" fill="white" stroke="#333333"/>
<circle cx="125" cy="104" r="8" fill="white" stroke="#333333"/>
<path fill-rule="evenodd" clip-rule="evenodd" d="M125.318 99.592C126.846 102.211 130.449 105.241 132.96 104.88C132.99 104.619 133 104.358 133 104.087C133 99.6221 129.417 96 125 96C120.583 96 117 99.6221 117 104.087C117 104.398 117.02 104.699 117.05 105C119.462 104.97 123.412 103.334 125.318 99.592Z" fill="#AAAAAA" stroke="#333333"/>
<path d="M125.235 119.65L125.208 119.677L125.185 119.707C125.133 119.778 125.09 119.831 125.054 119.871C125.043 119.884 125.032 119.894 125.023 119.903L125.015 119.902L125.01 119.903C125 119.893 124.988 119.88 124.974 119.865C124.937 119.824 124.893 119.771 124.84 119.701L124.84 119.701C124.332 119.042 123.695 118.422 123.096 117.843L123.05 117.799C122.5 117.267 121.986 116.77 121.58 116.275L121.499 114.969L121.465 114.413L120.916 114.507C117.537 115.085 114.878 116.425 112.694 118.118L112.28 118.438L112.619 118.837C115.571 122.301 120.032 124.5 125.025 124.5C129.988 124.5 134.427 122.321 137.379 118.897L137.721 118.501L137.308 118.177C135.142 116.481 132.642 115.107 129.255 114.508L128.668 114.404V115V116.255L125.235 119.65Z" fill="#BDECFF" stroke="#333333"/>
<path d="M116.141 128.507L116.143 128.505C116.148 128.499 116.153 128.493 116.158 128.487C116.223 128.41 116.315 128.3 116.381 128.172C116.464 128.011 116.5 127.843 116.5 127.651V127V123V122.191L115.776 122.553C114.896 122.993 114.093 123 113 123C111.93 123 111.005 122.918 110.212 122.547L109.5 122.214V123V127.024V127.651C109.5 127.834 109.53 128.001 109.61 128.163C109.677 128.299 109.771 128.411 109.839 128.492C109.842 128.497 109.845 128.501 109.849 128.505L109.849 128.505L109.851 128.507C110.206 128.927 110.583 129.318 110.953 129.701C110.972 129.721 110.991 129.741 111.01 129.761C111.401 130.167 111.787 130.569 112.158 131.016L112.159 131.017C112.255 131.131 112.369 131.258 112.502 131.35C112.63 131.439 112.8 131.511 113 131.498C113.2 131.511 113.37 131.439 113.498 131.35C113.631 131.258 113.745 131.131 113.841 131.017L113.457 130.696L113.84 131.018C114.213 130.573 114.598 130.169 114.988 129.762C115.001 129.748 115.015 129.733 115.029 129.719C115.402 129.329 115.782 128.932 116.141 128.507Z" fill="white" stroke="#333333"/>
<circle cx="113" cy="116" r="8" fill="white" stroke="#333333"/>
<path fill-rule="evenodd" clip-rule="evenodd" d="M113.308 111.592C114.836 114.211 118.439 117.241 120.95 116.88C121.479 112.25 117.638 108 112.99 108C108.193 108 104.578 112.329 105.04 117C107.452 116.97 111.402 115.334 113.308 111.592Z" fill="#AAAAAA" stroke="#333333"/>
<path d="M113.235 131.65L113.208 131.677L113.185 131.707C113.133 131.778 113.09 131.831 113.054 131.871C113.043 131.884 113.032 131.894 113.023 131.903L113.015 131.902L113.01 131.903C113 131.893 112.988 131.88 112.974 131.865C112.937 131.824 112.893 131.771 112.84 131.701L112.84 131.701C112.332 131.042 111.695 130.422 111.096 129.843L111.05 129.799C110.5 129.267 109.986 128.77 109.58 128.275L109.499 126.969L109.465 126.413L108.916 126.507C105.537 127.085 102.878 128.425 100.694 130.118L100.28 130.438L100.619 130.837C103.571 134.301 108.032 136.5 113.025 136.5C117.988 136.5 122.427 134.321 125.379 130.897L125.721 130.501L125.308 130.177C123.142 128.481 120.642 127.107 117.255 126.508L116.668 126.404V127V128.255L113.235 131.65Z" fill="url(#paint2_linear_125_7119)" stroke="#333333"/>
<defs>
<linearGradient id="paint0_linear_125_7119" x1="52" y1="19.2969" x2="34" y2="38" gradientUnits="userSpaceOnUse">
<stop stop-color="#FF8E3D"/>
<stop offset="1" stop-color="#FF6F3D"/>
</linearGradient>
<linearGradient id="paint1_linear_125_7119" x1="110" y1="34.9219" x2="109.78" y2="38.9127" gradientUnits="userSpaceOnUse">
<stop stop-color="#FF8E3D"/>
<stop offset="1" stop-color="#FF6F3D"/>
</linearGradient>
<linearGradient id="paint2_linear_125_7119" x1="101" y1="126.648" x2="106.752" y2="142.586" gradientUnits="userSpaceOnUse">
<stop stop-color="#FF8E3D"/>
<stop offset="1" stop-color="#FF6F3D"/>
</linearGradient>
</defs>
</svg>
