<svg width="150" height="150" viewBox="0 0 150 150" fill="none" xmlns="http://www.w3.org/2000/svg">
<g clip-path="url(#clip0_125_9568)">
<path fill-rule="evenodd" clip-rule="evenodd" d="M4.52514 44H75.4749C77.4112 44 79 45.5992 79 47.5482V137.452C79 139.401 77.4211 141 75.4749 141H4.52514C2.5888 141 1 139.401 1 137.452V47.5482C1 45.5992 2.5888 44 4.52514 44Z" fill="#EFEFEF"/>
<path fill-rule="evenodd" clip-rule="evenodd" d="M4.52514 43H75.4749C77.9696 43 80 45.053 80 47.5482V137.452C80 139.945 77.9814 142 75.4749 142H4.52514C2.03039 142 0 139.947 0 137.452V47.5482C0 45.053 2.03038 43 4.52514 43ZM75.4749 44H4.52514C2.5888 44 1 45.5992 1 47.5482V137.452C1 139.401 2.5888 141 4.52514 141H75.4749C77.4211 141 79 139.401 79 137.452V47.5482C79 45.5992 77.4112 44 75.4749 44Z" fill="#333333"/>
<path fill-rule="evenodd" clip-rule="evenodd" d="M45.8716 9H144.118C146.796 9 149 11.1708 149 13.8196V136.18C149 138.829 146.806 141 144.118 141H45.8716C43.1943 141 41 138.829 41 136.18V13.8295C40.99 11.1708 43.1842 9 45.8716 9Z" fill="#FEFEFE"/>
<path fill-rule="evenodd" clip-rule="evenodd" d="M99 103C100.657 103 102 104.347 102 106.008V121.992C102 123.653 100.657 125 99 125C97.3431 125 96 123.653 96 121.992V106.008C96 104.347 97.3431 103 99 103Z" fill="url(#paint0_linear_125_9568)"/>
<path fill-rule="evenodd" clip-rule="evenodd" d="M131 99C129.343 99 128 100.328 128 101.967V122.033C128 123.672 129.343 125 131 125C132.657 125 134 123.672 134 122.033V101.967C134 100.328 132.657 99 131 99Z" fill="url(#paint1_linear_125_9568)"/>
<path fill-rule="evenodd" clip-rule="evenodd" d="M115 90C113.343 90 112 91.3299 112 92.9705V122.03C112 123.67 113.343 125 115 125C116.657 125 118 123.67 118 122.03V92.9705C118 91.3299 116.657 90 115 90Z" fill="url(#paint2_linear_125_9568)"/>
<path fill-rule="evenodd" clip-rule="evenodd" d="M137 61.5039C137 61.2278 136.775 61.0039 136.497 61.0039H53.503C53.2252 61.0039 53 61.2278 53 61.5039C53 61.78 53.2252 62.0039 53.503 62.0039H136.497C136.775 62.0039 137 61.78 137 61.5039Z" fill="#333333"/>
<path fill-rule="evenodd" clip-rule="evenodd" d="M137 70.5039C137 70.2278 136.775 70.0039 136.497 70.0039H53.503C53.2252 70.0039 53 70.2278 53 70.5039C53 70.78 53.2252 71.0039 53.503 71.0039H136.497C136.775 71.0039 137 70.78 137 70.5039Z" fill="#333333"/>
<path fill-rule="evenodd" clip-rule="evenodd" d="M85 88.5039C85 88.2278 84.7774 88.0039 84.5029 88.0039H53.4971C53.2226 88.0039 53 88.2278 53 88.5039C53 88.78 53.2226 89.0039 53.4971 89.0039H84.5029C84.7774 89.0039 85 88.78 85 88.5039Z" fill="#333333"/>
<path fill-rule="evenodd" clip-rule="evenodd" d="M85 106.504C85 106.228 84.7774 106.004 84.5029 106.004H53.4971C53.2226 106.004 53 106.228 53 106.504C53 106.78 53.2226 107.004 53.4971 107.004H84.5029C84.7774 107.004 85 106.78 85 106.504Z" fill="#333333"/>
<path fill-rule="evenodd" clip-rule="evenodd" d="M85 124.504C85 124.228 84.7774 124.004 84.5029 124.004H53.4971C53.2226 124.004 53 124.228 53 124.504C53 124.78 53.2226 125.004 53.4971 125.004H84.5029C84.7774 125.004 85 124.78 85 124.504Z" fill="#333333"/>
<path fill-rule="evenodd" clip-rule="evenodd" d="M85 97.5039C85 97.2278 84.7774 97.0039 84.5029 97.0039H53.4971C53.2226 97.0039 53 97.2278 53 97.5039C53 97.78 53.2226 98.0039 53.4971 98.0039H84.5029C84.7774 98.0039 85 97.78 85 97.5039Z" fill="#333333"/>
<path fill-rule="evenodd" clip-rule="evenodd" d="M85 115.504C85 115.228 84.7774 115.004 84.5029 115.004H53.4971C53.2226 115.004 53 115.228 53 115.504C53 115.78 53.2226 116.004 53.4971 116.004H84.5029C84.7774 116.004 85 115.78 85 115.504Z" fill="#333333"/>
<path fill-rule="evenodd" clip-rule="evenodd" d="M137 79.5039C137 79.2278 136.776 79.0039 136.5 79.0039H53.5C53.2239 79.0039 53 79.2278 53 79.5039C53 79.78 53.2239 80.0039 53.5 80.0039H136.5C136.776 80.0039 137 79.78 137 79.5039Z" fill="#333333"/>
<path fill-rule="evenodd" clip-rule="evenodd" d="M32 82.5C32 82.2239 31.7761 82 31.5 82H7.5C7.22386 82 7 82.2239 7 82.5C7 82.7761 7.22386 83 7.5 83H31.5C31.7761 83 32 82.7761 32 82.5Z" fill="#333333"/>
<path fill-rule="evenodd" clip-rule="evenodd" d="M32 87.5C32 87.2239 31.7761 87 31.5 87H7.5C7.22386 87 7 87.2239 7 87.5C7 87.7761 7.22386 88 7.5 88H31.5C31.7761 88 32 87.7761 32 87.5Z" fill="#333333"/>
<path fill-rule="evenodd" clip-rule="evenodd" d="M112.818 27C113.37 27 113.818 27.4477 113.818 28C113.818 28.5523 113.37 29 112.818 29H108C107.448 29 107 29.4477 107 30V34.2494C107 34.8017 106.552 35.2494 106 35.2494C105.448 35.2494 105 34.8017 105 34.2494V30C105 28.3431 106.343 27 108 27H112.818ZM129.181 27C128.628 27 128.181 27.4477 128.181 28C128.181 28.5523 128.628 29 129.181 29H133.999C134.551 29 134.999 29.4477 134.999 30V34.2494C134.999 34.8017 135.446 35.2494 135.999 35.2494C136.551 35.2494 136.999 34.8017 136.999 34.2494V30C136.999 28.3431 135.655 27 133.999 27H129.181ZM128.181 47.9982C128.181 48.5505 128.628 48.9982 129.181 48.9982H133.999C135.655 48.9982 136.999 47.655 136.999 45.9982V41.7488C136.999 41.1965 136.551 40.7488 135.999 40.7488C135.446 40.7488 134.999 41.1965 134.999 41.7488V45.9982C134.999 46.5505 134.551 46.9982 133.999 46.9982H129.181C128.628 46.9982 128.181 47.4459 128.181 47.9982ZM112.818 48.9982C113.37 48.9982 113.818 48.5505 113.818 47.9982C113.818 47.4459 113.37 46.9982 112.818 46.9982H108C107.448 46.9982 107 46.5505 107 45.9982V41.7488C107 41.1965 106.552 40.7488 106 40.7488C105.448 40.7488 105 41.1965 105 41.7488V45.9982C105 47.655 106.343 48.9982 108 48.9982H112.818Z" fill="url(#paint3_linear_125_9568)"/>
<path fill-rule="evenodd" clip-rule="evenodd" d="M12.954 57.001C13.2302 57.001 13.454 57.2248 13.454 57.501C13.454 57.7771 13.2302 58.001 12.954 58.001H9.5C8.67157 58.001 8 58.6726 8 59.501V62.5003C8 62.7764 7.77614 63.0003 7.5 63.0003C7.22386 63.0003 7 62.7764 7 62.5003V59.501C7 58.1203 8.11929 57.001 9.5 57.001H12.954ZM26.0434 57.001C25.7672 57.001 25.5434 57.2248 25.5434 57.501C25.5434 57.7771 25.7672 58.001 26.0434 58.001H29.4974C30.3258 58.001 30.9974 58.6726 30.9974 59.501V62.5003C30.9974 62.7764 31.2212 63.0003 31.4974 63.0003C31.7735 63.0003 31.9974 62.7764 31.9974 62.5003V59.501C31.9974 58.1203 30.8781 57.001 29.4974 57.001H26.0434ZM25.5435 73.498C25.5435 73.7742 25.7673 73.998 26.0435 73.998H29.4975C30.8782 73.998 31.9975 72.8788 31.9975 71.498V68.4987C31.9975 68.2226 31.7736 67.9987 31.4975 67.9987C31.2213 67.9987 30.9975 68.2226 30.9975 68.4987V71.498C30.9975 72.3265 30.3259 72.998 29.4975 72.998H26.0435C25.7673 72.998 25.5435 73.2219 25.5435 73.498ZM12.9541 73.998C13.2302 73.998 13.4541 73.7742 13.4541 73.498C13.4541 73.2219 13.2302 72.998 12.9541 72.998H9.50009C8.67166 72.998 8.00009 72.3265 8.00009 71.498V68.4987C8.00009 68.2226 7.77623 67.9987 7.50009 67.9987C7.22394 67.9987 7.00009 68.2226 7.00009 68.4987V71.498C7.00009 72.8788 8.11937 73.998 9.50009 73.998H12.9541Z" fill="#333333"/>
<path fill-rule="evenodd" clip-rule="evenodd" d="M10.157 97H38V131H10.157C8.96635 131 8 129.888 8 128.518V99.4818C8 98.1118 8.96635 97 10.157 97Z" fill="#FEFEFE"/>
<path fill-rule="evenodd" clip-rule="evenodd" d="M41 17H149V14.1082C149 11.3008 146.806 9 144.118 9H45.8816C43.2043 9 41.0101 11.3008 41.0101 14.1082V17H41Z" fill="#BDECFF"/>
<path fill-rule="evenodd" clip-rule="evenodd" d="M41 44H4.4466C2.5534 44 1 45.7638 1 47.9134V51H41V44Z" fill="#BDECFF"/>
<path fill-rule="evenodd" clip-rule="evenodd" d="M0 51.5C0 51.2239 0.223858 51 0.5 51H41.5C41.7761 51 42 51.2239 42 51.5C42 51.7761 41.7761 52 41.5 52H0.5C0.223858 52 0 51.7761 0 51.5Z" fill="#333333"/>
<path d="M149 16H42V17H149V16Z" fill="#333333"/>
<path d="M25 105H8V114H25V105Z" fill="url(#paint4_linear_125_9568)"/>
<path fill-rule="evenodd" clip-rule="evenodd" d="M25 131V123H8V128.664C8 129.953 9.09551 131 10.4453 131H25Z" fill="url(#paint5_linear_125_9568)"/>
<path fill-rule="evenodd" clip-rule="evenodd" d="M37.2328 105H8V104H37.1837C38.2835 104 38.2443 105 37.2328 105Z" fill="#333333"/>
<path d="M25 97H24V131H25V97Z" fill="#333333"/>
<path fill-rule="evenodd" clip-rule="evenodd" d="M37.1793 131H10.0488C9.21188 131 8.45466 130.664 7.89671 130.109C7.34872 129.565 7 128.803 7 127.972V99.028C7 98.1968 7.33876 97.4447 7.89671 96.8906C8.45466 96.3463 9.21188 96 10.0488 96H37.249C38.2354 96 38.2553 97.0984 37.2291 97.0984H10.0488C9.52075 97.0984 9.03254 97.3161 8.68382 97.6624C8.3351 98.0088 8.11591 98.4936 8.11591 99.0181V127.972C8.11591 128.506 8.3351 128.981 8.68382 129.328C9.03254 129.674 9.52075 129.892 10.0488 129.892H37.1992C38.2653 129.902 38.2752 131 37.1793 131Z" fill="#333333"/>
<path fill-rule="evenodd" clip-rule="evenodd" d="M37.2328 114H8V113H37.1837C38.2835 113 38.2443 114 37.2328 114Z" fill="#333333"/>
<path fill-rule="evenodd" clip-rule="evenodd" d="M37.2328 123H8V122H37.1837C38.2835 121.991 38.2443 123 37.2328 123Z" fill="#333333"/>
<path fill-rule="evenodd" clip-rule="evenodd" d="M46.8265 8H144.164C147.364 8 150 10.6145 150 13.8196V136.18C150 139.384 147.376 142 144.164 142H46.8265C43.623 142 41 139.383 41 136.18V13.8313C40.989 10.6162 43.6144 8 46.8265 8ZM42 13.8295V136.18C42 138.829 44.1739 141 46.8265 141H144.164C146.826 141 149 138.829 149 136.18V13.8196C149 11.1708 146.816 9 144.164 9H46.8265C44.164 9 41.9901 11.1708 42 13.8295Z" fill="#333333"/>
</g>
<defs>
<linearGradient id="paint0_linear_125_9568" x1="99" y1="106.008" x2="99" y2="122.88" gradientUnits="userSpaceOnUse">
<stop stop-color="#FFC671"/>
<stop offset="0.59375" stop-color="#FF7541"/>
<stop offset="1" stop-color="#FF6F3D"/>
</linearGradient>
<linearGradient id="paint1_linear_125_9568" x1="131" y1="100.222" x2="131" y2="122.906" gradientUnits="userSpaceOnUse">
<stop stop-color="#FFC671"/>
<stop offset="0.59375" stop-color="#FF7541"/>
<stop offset="1" stop-color="#FF6F3D"/>
</linearGradient>
<linearGradient id="paint2_linear_125_9568" x1="115" y1="85.7954" x2="115" y2="122.917" gradientUnits="userSpaceOnUse">
<stop stop-color="#FFC671"/>
<stop offset="0.59375" stop-color="#FF7541"/>
<stop offset="1" stop-color="#FF6F3D"/>
</linearGradient>
<linearGradient id="paint3_linear_125_9568" x1="105" y1="26.1407" x2="125.261" y2="56.7639" gradientUnits="userSpaceOnUse">
<stop stop-color="#FF8E3D"/>
<stop offset="1" stop-color="#FF6F3D"/>
</linearGradient>
<linearGradient id="paint4_linear_125_9568" x1="7.41772" y1="98.7539" x2="18.6992" y2="110.314" gradientUnits="userSpaceOnUse">
<stop stop-color="#FFC671"/>
<stop offset="1" stop-color="#FF6F3D"/>
</linearGradient>
<linearGradient id="paint5_linear_125_9568" x1="7.79254" y1="117.122" x2="17.7224" y2="128.569" gradientUnits="userSpaceOnUse">
<stop stop-color="#FFC671"/>
<stop offset="1" stop-color="#FF6F3D"/>
</linearGradient>
<clipPath id="clip0_125_9568">
<rect width="150" height="150" fill="white"/>
</clipPath>
</defs>
</svg>
