<svg width="150" height="150" viewBox="0 0 150 150" fill="none" xmlns="http://www.w3.org/2000/svg">
<g clip-path="url(#clip0_125_8652)">
<path fill-rule="evenodd" clip-rule="evenodd" d="M24.991 27.8478V9.45768C24.991 4.80889 21.3954 1 16.9956 1C12.5959 1 9.00024 4.79912 9.00024 9.45768V52H25.0002V27.8478H24.991Z" fill="#E0E0E0"/>
<path fill-rule="evenodd" clip-rule="evenodd" d="M127 9C127 4.66887 123.318 1 118.971 1H51.6264H15C19.7457 1 23.6241 4.86424 23.6241 9.60265V28.3079V129.921C23.6241 134.252 27.3064 138 31.6533 138H118.971C123.318 138 127 134.331 127 130V9Z" fill="#FEFEFE"/>
<path fill-rule="evenodd" clip-rule="evenodd" d="M15 1.5C15 1.22386 15.2246 1 15.5017 1H119.442C124.079 1 128 4.89102 128 9.5V74C128 74.2761 127.775 74.5 127.498 74.5C127.221 74.5 126.997 74.2761 126.997 74V9.5C126.997 5.44673 123.528 2 119.442 2H19.6651C22.6225 3.51119 24.6562 6.57745 24.6562 10.1026V130.5C24.6562 134.585 27.7782 138 31.8334 138H85.7079C85.9849 138 86.2095 138.224 86.2095 138.5C86.2095 138.776 85.9849 139 85.7079 139H31.8334C27.1658 139 23.6529 135.077 23.6529 130.5V10.1026C23.6529 5.64172 19.9875 2 15.5017 2C15.2246 2 15 1.77614 15 1.5Z" fill="#333333"/>
<path fill-rule="evenodd" clip-rule="evenodd" d="M41 116.5C41 116.224 41.2239 116 41.5 116H74.5C74.7761 116 75 116.224 75 116.5C75 116.776 74.7761 117 74.5 117H41.5C41.2239 117 41 116.776 41 116.5Z" fill="#333333"/>
<path fill-rule="evenodd" clip-rule="evenodd" d="M41 76.5C41 76.2239 41.2239 76 41.5 76H98.5C98.7761 76 99 76.2239 99 76.5C99 76.7761 98.7761 77 98.5 77H41.5C41.2239 77 41 76.7761 41 76.5Z" fill="#333333"/>
<path fill-rule="evenodd" clip-rule="evenodd" d="M41 86.5C41 86.2239 41.2239 86 41.5 86H72.5C72.7761 86 73 86.2239 73 86.5C73 86.7761 72.7761 87 72.5 87H41.5C41.2239 87 41 86.7761 41 86.5Z" fill="#333333"/>
<path fill-rule="evenodd" clip-rule="evenodd" d="M41 106.5C41 106.224 41.2239 106 41.5 106H72.5C72.7761 106 73 106.224 73 106.5C73 106.776 72.7761 107 72.5 107H41.5C41.2239 107 41 106.776 41 106.5Z" fill="#333333"/>
<path fill-rule="evenodd" clip-rule="evenodd" d="M41 96.5C41 96.2239 41.2239 96 41.5 96H70.5C70.7761 96 71 96.2239 71 96.5C71 96.7761 70.7761 97 70.5 97H41.5C41.2239 97 41 96.7761 41 96.5Z" fill="#333333"/>
<path fill-rule="evenodd" clip-rule="evenodd" d="M113.553 94.8478H102.417C101.066 94.8478 101.176 93.3379 102.298 93.3379H113.583C114.844 93.3379 114.864 94.8478 113.553 94.8478Z" fill="#333333"/>
<path fill-rule="evenodd" clip-rule="evenodd" d="M10.4422 3.4783C12.0175 1.91131 14.2648 1 16.9476 1C17.2383 1 17.4739 1.22386 17.4739 1.5C17.4739 1.77614 17.2383 2 16.9476 2C14.5258 2 12.5625 2.81706 11.2035 4.16896C9.84183 5.5234 9.05288 7.44881 9.05288 9.71875V52H17.4739C17.7646 52 18.0002 52.2239 18.0002 52.5C18.0002 52.7761 17.7646 53 17.4739 53H8.00024V9.71875C8.00024 7.2267 8.86948 5.04273 10.4422 3.4783Z" fill="#333333"/>
<path fill-rule="evenodd" clip-rule="evenodd" d="M114.5 148C108.628 136.506 84 141.065 84 86.1021C86.5094 86.4342 105.553 86.9978 114.5 78C123.447 86.9978 142.491 86.4342 145 86.1021C145 141.065 120.372 136.506 114.5 148Z" fill="url(#paint0_linear_125_8652)"/>
<path fill-rule="evenodd" clip-rule="evenodd" d="M114.5 150L113.612 148.277C112.284 145.698 109.874 143.972 106.716 141.927C106.439 141.747 106.157 141.566 105.87 141.382C102.943 139.498 99.5571 137.32 96.3324 133.995C89.1935 126.633 83.0002 113.843 83.0002 86.4486V85.3031L84.1296 85.4513C85.2815 85.6025 90.5757 85.8285 96.688 84.9065C102.824 83.9808 109.556 81.9301 113.796 77.702L114.5 77L115.204 77.702C119.445 81.9301 126.176 83.9808 132.313 84.9065C138.425 85.8285 143.719 85.6025 144.871 85.4513L146 85.3031V86.4486C146 113.843 139.807 126.633 132.668 133.995C129.443 137.32 126.057 139.498 123.13 141.382C122.844 141.566 122.562 141.747 122.284 141.927C119.127 143.972 116.717 145.698 115.388 148.277L114.5 150ZM113.91 146.811C114.123 147.132 114.321 147.466 114.5 147.814C114.68 147.466 114.877 147.132 115.091 146.811C116.776 144.277 119.478 142.538 122.586 140.538C131.872 134.561 144.777 126.255 144.997 87.462C144.999 87.1265 145 86.7887 145 86.4486C144.784 86.477 144.445 86.5071 144 86.5327C139.284 86.8038 122.676 86.568 114.5 78.4162C106.325 86.568 89.7168 86.8038 85.0003 86.5327C84.5555 86.5071 84.2165 86.477 84.0002 86.4486C84.0002 86.7887 84.0012 87.1265 84.0031 87.462C84.2237 126.255 97.1288 134.561 106.414 140.538C109.522 142.538 112.224 144.277 113.91 146.811Z" fill="#333333"/>
<path fill-rule="evenodd" clip-rule="evenodd" d="M110.842 109.729L110.822 115.897L110.771 135L115.092 132.437L117.166 128.675L115.439 127.369L117.166 125.994V123.411L114.959 121.78L117.166 119.983V109.739C121.14 108.472 124 104.868 124 100.615C124 95.3116 119.526 91 113.999 91C108.748 91 104.437 94.8991 104.029 99.8491C103.681 104.194 106.534 108.345 110.842 109.729ZM117.677 96.9321C117.677 98.8866 116.032 100.468 113.999 100.468C111.966 100.468 110.321 98.8866 110.321 96.9321C110.321 94.9777 111.966 93.3964 113.999 93.3964C116.032 93.3964 117.677 94.9777 117.677 96.9321Z" fill="white"/>
<path fill-rule="evenodd" clip-rule="evenodd" d="M40.5005 20C41.8844 20 43.0005 21.1161 43.0005 22.5C43.0005 23.8839 41.8844 25 40.5005 25C39.1166 25 38.0005 23.8839 38.0005 22.5C38.0005 21.125 39.1166 20 40.5005 20ZM49.5005 20C50.8844 20 52.0005 21.1161 52.0005 22.5C52.0005 23.8839 50.8844 25 49.5005 25C48.1166 25 47.0005 23.8839 47.0005 22.5C47.0005 21.125 48.1166 20 49.5005 20ZM61.0005 22.5C61.0005 21.1161 59.8844 20 58.5005 20C57.1255 20 56.0005 21.125 56.0005 22.5C56.0005 23.8839 57.1166 25 58.5005 25C59.8844 25 61.0005 23.8839 61.0005 22.5ZM67.5005 20C68.8844 20 70.0005 21.1161 70.0005 22.5C70.0005 23.8839 68.8844 25 67.5005 25C66.1166 25 65.0005 23.8839 65.0005 22.5C65.0094 21.125 66.1255 20 67.5005 20ZM79.0005 22.5C79.0005 21.1161 77.8844 20 76.5005 20C75.1166 20 74.0005 21.125 74.0005 22.5C74.0005 23.8839 75.1166 25 76.5005 25C77.8844 25 79.0005 23.8839 79.0005 22.5ZM85.5005 20C86.8844 20 88.0005 21.1161 88.0005 22.5C88.0005 23.8839 86.8844 25 85.5005 25C84.1166 25 83.0005 23.8839 83.0005 22.5C83.0005 21.125 84.1255 20 85.5005 20ZM97.0005 22.5C97.0005 21.1161 95.8844 20 94.5005 20C93.1255 20 92.0094 21.125 92.0005 22.5C92.0005 23.8839 93.1166 25 94.5005 25C95.8844 25 97.0005 23.8839 97.0005 22.5ZM103.5 20C104.884 20 106 21.1161 106 22.5C106 23.8839 104.884 25 103.5 25C102.117 25 101 23.8839 101 22.5C101 21.125 102.117 20 103.5 20ZM115 22.5C115 21.1161 113.884 20 112.5 20C111.117 20 110 21.125 110 22.5C110 23.8839 111.117 25 112.5 25C113.884 25 115 23.8839 115 22.5Z" fill="url(#paint1_linear_125_8652)"/>
<path fill-rule="evenodd" clip-rule="evenodd" d="M43.0002 38C44.1014 38 45.0002 38.8989 45.0002 40C45.0002 41.1011 44.1014 42 43.0002 42C41.8991 42 41.0002 41.1011 41.0002 40C41.0002 38.8876 41.8879 38 43.0002 38ZM50.0002 38C51.1014 38 52.0002 38.8989 52.0002 40C52.0002 41.1011 51.1014 42 50.0002 42C48.8991 42 48.0002 41.1011 48.0002 40C48.0002 38.8876 48.8991 38 50.0002 38ZM59.0002 40C59.0002 38.8989 58.1014 38 57.0002 38C55.8991 38 55.0002 38.8876 55.0002 40C55.0002 41.1011 55.8991 42 57.0002 42C58.1014 42 59.0002 41.1011 59.0002 40ZM64.0002 38C65.1014 38 66.0002 38.8989 66.0002 40C66.0002 41.1011 65.1014 42 64.0002 42C62.8991 42 62.0002 41.1011 62.0002 40C62.0002 38.8876 62.8991 38 64.0002 38ZM73.0002 40C73.0002 38.8989 72.1014 38 71.0002 38C69.8879 38 69.0002 38.8876 69.0002 40C69.0002 41.1011 69.8991 42 71.0002 42C72.1014 42 73.0002 41.1011 73.0002 40ZM78.0003 38C79.1014 38 80.0002 38.8989 80.0002 40C80.0002 41.1011 79.1014 42 78.0003 42C76.8992 42 76.0003 41.1011 76.0003 40C75.9891 38.8876 76.888 38 78.0003 38ZM87.0002 40C87.0002 38.8989 86.1014 38 85.0002 38C83.8991 38 83.0002 38.8876 83.0002 40C83.0002 41.1011 83.8991 42 85.0002 42C86.1014 42 87.0002 41.1011 87.0002 40ZM92.0002 38C93.1014 38 94.0002 38.8989 94.0002 40C94.0002 41.1011 93.1014 42 92.0002 42C90.8991 42 90.0002 41.1011 90.0002 40C90.0002 38.8876 90.8991 38 92.0002 38ZM101 40C101 38.8989 100.101 38 99.0002 38C97.8991 38 97.0002 38.8876 97.0002 40C97.0002 41.1011 97.8991 42 99.0002 42C100.101 42 101 41.1011 101 40ZM106 38C107.101 38 108 38.8989 108 40C108 41.1011 107.101 42 106 42C104.899 42 104 41.1011 104 40C104 38.8876 104.899 38 106 38ZM115 40C115 38.8989 114.101 38 113 38C111.899 38 111 38.8876 111 40C111 41.1011 111.899 42 113 42C114.101 42 115 41.1011 115 40Z" fill="#333333"/>
<path fill-rule="evenodd" clip-rule="evenodd" d="M49.0002 50C49.0002 48.8989 48.1014 48 47.0002 48C45.8879 48 45.0002 48.8876 45.0002 50C45.0002 51.1011 45.8991 52 47.0002 52C48.1014 52 49.0002 51.1011 49.0002 50ZM56.0002 50C56.0002 48.8989 55.1014 48 54.0002 48C52.8991 48 52.0002 48.8876 52.0002 50C52.0002 51.1011 52.8991 52 54.0002 52C55.1014 52 56.0002 51.1011 56.0002 50ZM61.0002 48C62.1014 48 63.0002 48.8989 63.0002 50C63.0002 51.1011 62.1014 52 61.0002 52C59.8991 52 59.0002 51.1011 59.0002 50C59.0002 48.8876 59.8991 48 61.0002 48ZM70.0002 50C70.0002 48.8989 69.1014 48 68.0002 48C66.8991 48 66.0002 48.8876 66.0002 50C66.0002 51.1011 66.8991 52 68.0002 52C69.1014 52 70.0002 51.1011 70.0002 50ZM75.0002 48C76.1014 48 77.0002 48.8989 77.0002 50C77.0002 51.1011 76.1014 52 75.0002 52C73.8991 52 73.0002 51.1011 73.0002 50C73.0002 48.8876 73.8879 48 75.0002 48ZM84.0002 50C84.0002 48.8989 83.1014 48 82.0003 48C80.888 48 79.9891 48.8876 80.0003 50C80.0003 51.1011 80.8992 52 82.0003 52C83.1014 52 84.0002 51.1011 84.0002 50ZM89.0002 48C90.1014 48 91.0002 48.8989 91.0002 50C91.0002 51.1011 90.1014 52 89.0002 52C87.8991 52 87.0002 51.1011 87.0002 50C87.0002 48.8876 87.8991 48 89.0002 48ZM98.0002 50C98.0002 48.8989 97.1014 48 96.0002 48C94.8991 48 94.0002 48.8876 94.0002 50C94.0002 51.1011 94.8991 52 96.0002 52C97.1014 52 98.0002 51.1011 98.0002 50ZM103 48C104.101 48 105 48.8989 105 50C105 51.1011 104.101 52 103 52C101.899 52 101 51.1011 101 50C101 48.8876 101.899 48 103 48ZM112 50C112 48.8989 111.101 48 110 48C108.899 48 108 48.8876 108 50C108 51.1011 108.899 52 110 52C111.101 52 112 51.1011 112 50Z" fill="#333333"/>
<path fill-rule="evenodd" clip-rule="evenodd" d="M43.0002 58C44.1014 58 45.0002 58.8989 45.0002 60C45.0002 61.1011 44.1014 62 43.0002 62C41.8991 62 41.0002 61.1011 41.0002 60C41.0002 58.8876 41.8879 58 43.0002 58ZM50.0002 58C51.1014 58 52.0002 58.8989 52.0002 60C52.0002 61.1011 51.1014 62 50.0002 62C48.8991 62 48.0002 61.1011 48.0002 60C48.0002 58.8876 48.8991 58 50.0002 58ZM59.0002 60C59.0002 58.8989 58.1014 58 57.0002 58C55.8991 58 55.0002 58.8876 55.0002 60C55.0002 61.1011 55.8991 62 57.0002 62C58.1014 62 59.0002 61.1011 59.0002 60ZM64.0002 58C65.1014 58 66.0002 58.8989 66.0002 60C66.0002 61.1011 65.1014 62 64.0002 62C62.8991 62 62.0002 61.1011 62.0002 60C62.0002 58.8876 62.8991 58 64.0002 58ZM73.0002 60C73.0002 58.8989 72.1014 58 71.0002 58C69.8879 58 69.0002 58.8876 69.0002 60C69.0002 61.1011 69.8991 62 71.0002 62C72.1014 62 73.0002 61.1011 73.0002 60ZM78.0003 58C79.1014 58 80.0002 58.8989 80.0002 60C80.0002 61.1011 79.1014 62 78.0003 62C76.8992 62 76.0003 61.1011 76.0003 60C75.9891 58.8876 76.888 58 78.0003 58ZM87.0002 60C87.0002 58.8989 86.1014 58 85.0002 58C83.8991 58 83.0002 58.8876 83.0002 60C83.0002 61.1011 83.8991 62 85.0002 62C86.1014 62 87.0002 61.1011 87.0002 60ZM92.0002 58C93.1014 58 94.0002 58.8989 94.0002 60C94.0002 61.1011 93.1014 62 92.0002 62C90.8991 62 90.0002 61.1011 90.0002 60C90.0002 58.8876 90.8991 58 92.0002 58ZM101 60C101 58.8989 100.101 58 99.0002 58C97.8991 58 97.0002 58.8876 97.0002 60C97.0002 61.1011 97.8991 62 99.0002 62C100.101 62 101 61.1011 101 60ZM106 58C107.101 58 108 58.8989 108 60C108 61.1011 107.101 62 106 62C104.899 62 104 61.1011 104 60C104 58.8876 104.899 58 106 58ZM115 60C115 58.8989 114.101 58 113 58C111.899 58 111 58.8876 111 60C111 61.1011 111.899 62 113 62C114.101 62 115 61.1011 115 60Z" fill="#333333"/>
</g>
<defs>
<linearGradient id="paint0_linear_125_8652" x1="80.7537" y1="64.7308" x2="120.965" y2="108.38" gradientUnits="userSpaceOnUse">
<stop stop-color="#FFC671"/>
<stop offset="1" stop-color="#FF6F3D"/>
</linearGradient>
<linearGradient id="paint1_linear_125_8652" x1="38.0006" y1="19.8047" x2="38.6236" y2="29.7731" gradientUnits="userSpaceOnUse">
<stop stop-color="#FF8E3D"/>
<stop offset="1" stop-color="#FF6F3D"/>
</linearGradient>
<clipPath id="clip0_125_8652">
<rect width="150" height="150" fill="white"/>
</clipPath>
</defs>
</svg>
