<svg width="150" height="150" viewBox="0 0 150 150" fill="none" xmlns="http://www.w3.org/2000/svg">
<g clip-path="url(#clip0_125_7766)">
<path fill-rule="evenodd" clip-rule="evenodd" d="M69.258 16.5418C63.9163 28.4832 58.5646 40.4247 53.2229 52.3562C39.3503 53.8031 25.4777 55.2499 11.6052 56.6968C-2.9949 58.2229 -1.40036 56.7265 9.58209 66.5572C19.6377 75.5653 29.7033 84.5635 39.7589 93.5716C36.8389 107.208 33.9189 120.844 31.0088 134.49C28.2283 147.511 26.4644 146.927 38.0248 140.287C50.3527 133.201 62.6905 126.126 75.0183 119.04C87.3462 126.116 99.684 133.201 112.012 140.277C122.915 146.54 121.918 147.977 119.307 135.788C116.297 121.716 113.287 107.644 110.278 93.5716C120.014 84.8509 129.751 76.14 139.488 67.4193C150.67 57.4103 153.779 58.2923 138.97 56.7463C124.918 55.2797 110.866 53.813 96.8138 52.3463C91.4322 40.3553 86.0606 28.3445 80.6889 16.3436C73.8623 1.09224 76.0946 1.28052 69.258 16.5418Z" fill="url(#paint0_linear_125_7766)"/>
<path fill-rule="evenodd" clip-rule="evenodd" d="M68.3454 16.133C69.1957 14.2349 69.9054 12.5704 70.5109 11.137C70.6237 10.8698 70.7332 10.6102 70.8394 10.3582C71.301 9.26329 71.7017 8.31273 72.0551 7.52045C72.485 6.5565 72.8722 5.76305 73.2453 5.19928C73.4323 4.91675 73.6457 4.64494 73.8964 4.43326C74.1517 4.21766 74.5004 4.01964 74.9353 4.00136C75.3774 3.98279 75.7451 4.15652 76.0202 4.36682C76.2851 4.56935 76.5066 4.83632 76.6966 5.11029C77.0756 5.65689 77.4653 6.43488 77.8948 7.38087C78.2807 8.23068 78.7221 9.26975 79.2373 10.4826C79.3031 10.6376 79.3702 10.7955 79.4385 10.9561C80.0435 12.3793 80.7523 14.0375 81.6017 15.9351C82.627 18.2256 83.6522 20.5165 84.6775 22.8076C88.9458 32.3449 93.215 41.8843 97.4904 51.4115L139.074 55.7518C139.774 55.8249 140.437 55.8927 141.062 55.9569C143.714 56.2284 145.701 56.432 147.048 56.6745C147.861 56.8209 148.582 57.003 149.092 57.2986C149.359 57.4537 149.649 57.6856 149.831 58.0387C150.027 58.4178 150.035 58.8148 149.942 59.165C149.784 59.7611 149.31 60.3023 148.847 60.7613C148.343 61.2616 147.658 61.8443 146.844 62.5174C146.516 62.7882 146.164 63.0764 145.788 63.3841C144.275 64.6221 142.379 66.174 140.155 68.1642C135.287 72.5247 130.418 76.8827 125.55 81.2406C120.825 85.4696 116.101 89.6984 111.377 93.9296L120.285 135.578C120.285 135.579 120.285 135.578 120.285 135.578C120.597 137.034 120.892 138.324 121.147 139.434C121.413 140.597 121.635 141.564 121.783 142.32C121.929 143.063 122.028 143.716 122.021 144.231C122.015 144.666 121.926 145.482 121.163 145.852C120.82 146.018 120.473 146.017 120.207 145.979C119.939 145.94 119.671 145.851 119.42 145.748C118.919 145.542 118.31 145.206 117.611 144.793C117.091 144.487 116.514 144.134 115.862 143.736C114.689 143.02 113.274 142.155 111.514 141.144C105.35 137.606 99.1836 134.066 93.0172 130.526L92.9946 130.513C87.0018 127.072 81.0091 123.632 75.0187 120.193C69.0265 123.637 63.0322 127.079 57.038 130.52L57.0195 130.531C50.8531 134.071 44.6869 137.611 38.5232 141.154C37.1093 141.966 35.8672 142.704 34.8028 143.337C33.7374 143.97 32.8497 144.498 32.1452 144.888C31.4346 145.282 30.8089 145.595 30.2914 145.758C29.8549 145.895 29.0399 146.072 28.4345 145.471C28.1558 145.194 28.04 144.855 27.9899 144.578C27.9396 144.301 27.9404 144.007 27.9614 143.723C28.0033 143.157 28.1427 142.44 28.3307 141.604C28.4723 140.973 28.6426 140.269 28.8354 139.471C29.1752 138.065 29.5849 136.369 30.0309 134.281C32.9007 120.824 35.7801 107.376 38.6596 93.9294C33.779 89.5575 28.896 85.1877 24.0129 80.8178L23.9857 80.7935C18.9615 76.2974 13.9371 71.8011 8.91515 67.3023C7.05365 65.636 5.48109 64.312 4.19386 63.2282C3.58492 62.7155 3.03983 62.2566 2.55821 61.8406C1.82538 61.2077 1.22057 60.6577 0.799314 60.1844C0.588073 59.947 0.394197 59.6974 0.251971 59.4387C0.112447 59.1848 -0.0183028 58.8483 0.00150941 58.4616C0.0481533 57.5513 0.816018 57.141 1.30264 56.9588C1.84575 56.7554 2.58579 56.6218 3.4548 56.5074C4.43384 56.3786 5.71634 56.2591 7.28959 56.1125C8.51817 55.9981 9.92406 55.8671 11.5012 55.7022L52.5458 51.4215C54.3717 47.3431 56.1987 43.2637 58.026 39.1836C61.4664 31.5019 64.908 23.8173 68.3454 16.133ZM53.2229 52.3563L11.6052 56.6968C4.57606 57.4315 1.30066 57.4657 1.01942 58.4006C0.716496 59.4076 3.8871 61.4594 9.5821 66.5572C14.6104 71.0617 19.6412 75.5637 24.672 80.0658C29.7018 84.5669 34.7316 89.068 39.7589 93.5716C36.8389 107.208 33.9189 120.844 31.0088 134.49C29.5893 141.138 28.4348 144.239 29.1829 144.799C29.9001 145.336 32.3663 143.537 38.0249 140.287C44.1883 136.744 50.3543 133.204 56.5203 129.664C62.6872 126.124 68.854 122.583 75.0183 119.04C81.1743 122.573 87.3327 126.109 93.4911 129.645C99.6655 133.19 105.84 136.735 112.012 140.277C117.601 143.488 120.063 145.43 120.784 144.919C121.469 144.433 120.579 141.728 119.307 135.788L110.278 93.5716C115.146 89.2112 120.014 84.8534 124.883 80.4955C129.751 76.1376 134.62 71.7797 139.488 67.4193C145.591 61.9567 149.289 59.7381 148.982 58.5984C148.726 57.6498 145.697 57.4486 138.97 56.7464L96.8138 52.3464C92.4591 42.6434 88.1109 32.9274 83.764 23.2143C82.7389 20.9238 81.7139 18.6335 80.689 16.3436C77.2956 8.76261 76.1406 4.99642 74.9975 5.00003C73.8408 5.00367 72.6964 8.86649 69.258 16.5418C65.8211 24.2252 62.3799 31.9086 58.94 39.5894C57.0336 43.846 55.1276 48.1017 53.2229 52.3563Z" fill="#333333"/>
<path fill-rule="evenodd" clip-rule="evenodd" d="M71.9697 41.0899C68.6863 48.4261 65.3929 55.7525 62.1095 63.0887C53.5766 63.9809 45.0537 64.8732 36.5208 65.7555C27.5388 66.6874 28.5268 65.7753 35.2833 71.8129C41.4609 77.3448 47.6485 82.8767 53.8361 88.4086C52.0397 96.7858 50.2433 105.163 48.4568 113.54C46.7403 121.531 45.6625 121.184 52.7682 117.099C60.353 112.747 67.9278 108.405 75.5126 104.053C83.0973 108.405 90.6722 112.747 98.2569 117.099C104.963 120.946 104.345 121.828 102.748 114.343C100.902 105.698 99.0453 97.0535 97.199 88.4086C103.187 83.0552 109.175 77.7017 115.153 72.3482C122.029 66.2016 123.935 66.737 114.834 65.7952C106.191 64.893 97.5583 63.9909 88.9157 63.0887C85.6023 55.7128 82.2989 48.3369 78.9956 40.9709C74.804 31.6024 76.1712 31.7114 71.9697 41.0899Z" fill="#FEFEFE"/>
</g>
<defs>
<linearGradient id="paint0_linear_125_7766" x1="1.64284" y1="5.89924" x2="87.054" y2="100.509" gradientUnits="userSpaceOnUse">
<stop stop-color="#FFC671"/>
<stop offset="1" stop-color="#FF6F3D"/>
</linearGradient>
<clipPath id="clip0_125_7766">
<rect width="150" height="150" fill="white"/>
</clipPath>
</defs>
</svg>
