<svg width="340" height="150" viewBox="0 0 340 150" fill="none" xmlns="http://www.w3.org/2000/svg">
<path fill-rule="evenodd" clip-rule="evenodd" d="M20.5251 17H91.4749C93.4112 17 95 18.9454 95 21.3163V130.684C95 133.055 93.4211 135 91.4749 135H20.5251C18.5888 135 17 133.055 17 130.684V21.3163C17 18.9454 18.5888 17 20.5251 17Z" fill="#EFEFEF"/>
<path fill-rule="evenodd" clip-rule="evenodd" d="M20.5251 16H91.4749C94.1432 16 96 18.5919 96 21.3163V130.684C96 133.406 94.1548 136 91.4749 136H20.5251C17.8567 136 16 133.408 16 130.684V21.3163C16 18.5919 17.8567 16 20.5251 16ZM91.4749 17H20.5251C18.5888 17 17 18.9454 17 21.3163V130.684C17 133.055 18.5888 135 20.5251 135H91.4749C93.4211 135 95 133.055 95 130.684V21.3163C95 18.9454 93.4112 17 91.4749 17Z" fill="#333333"/>
<path fill-rule="evenodd" clip-rule="evenodd" d="M34.8265 9H132.164C134.816 9 137 11.1708 137 13.8196V136.18C137 138.829 134.826 141 132.164 141H34.8265C32.1739 141 30 138.829 30 136.18V13.8295C29.9901 11.1708 32.164 9 34.8265 9Z" fill="#FEFEFE"/>
<path fill-rule="evenodd" clip-rule="evenodd" d="M34.8265 8H132.164C135.364 8 138 10.6145 138 13.8196V136.18C138 139.384 135.376 142 132.164 142H34.8265C31.623 142 29 139.383 29 136.18V13.8313C28.989 10.6162 31.6144 8 34.8265 8ZM30 13.8295V136.18C30 138.829 32.1739 141 34.8265 141H132.164C134.826 141 137 138.829 137 136.18V13.8196C137 11.1708 134.816 9 132.164 9H34.8265C32.164 9 29.9901 11.1708 30 13.8295Z" fill="#333333"/>
<path fill-rule="evenodd" clip-rule="evenodd" d="M90 43C91.6569 43 93 44.3453 93 46.0049V58.9951C93 60.6547 91.6569 62 90 62C88.3431 62 87 60.6547 87 58.9951V46.0049C87 44.3453 88.3431 43 90 43Z" fill="url(#paint0_linear_125_10349)"/>
<path fill-rule="evenodd" clip-rule="evenodd" d="M122 40C120.343 40 119 41.3129 119 42.9325V59.0675C119 60.6871 120.343 62 122 62C123.657 62 125 60.6871 125 59.0675V42.9325C125 41.3129 123.657 40 122 40Z" fill="url(#paint1_linear_125_10349)"/>
<path fill-rule="evenodd" clip-rule="evenodd" d="M106 32C104.343 32 103 33.3488 103 35.0125V58.9875C103 60.6512 104.343 62 106 62C107.657 62 109 60.6512 109 58.9875V35.0125C109 33.3488 107.657 32 106 32Z" fill="url(#paint2_linear_125_10349)"/>
<path fill-rule="evenodd" clip-rule="evenodd" d="M128 70.5039C128 70.2278 127.775 70.0039 127.497 70.0039H44.503C44.2252 70.0039 44 70.2278 44 70.5039C44 70.78 44.2252 71.0039 44.503 71.0039H127.497C127.775 71.0039 128 70.78 128 70.5039Z" fill="#333333"/>
<path fill-rule="evenodd" clip-rule="evenodd" d="M128 79.5039C128 79.2278 127.775 79.0039 127.497 79.0039H44.503C44.2252 79.0039 44 79.2278 44 79.5039C44 79.78 44.2252 80.0039 44.503 80.0039H127.497C127.775 80.0039 128 79.78 128 79.5039Z" fill="#333333"/>
<path fill-rule="evenodd" clip-rule="evenodd" d="M76 43.5039C76 43.2278 75.7774 43.0039 75.5029 43.0039H44.4971C44.2226 43.0039 44 43.2278 44 43.5039C44 43.78 44.2226 44.0039 44.4971 44.0039H75.5029C75.7774 44.0039 76 43.78 76 43.5039Z" fill="#333333"/>
<path fill-rule="evenodd" clip-rule="evenodd" d="M76 61.5039C76 61.2278 75.7774 61.0039 75.5029 61.0039H44.4971C44.2226 61.0039 44 61.2278 44 61.5039C44 61.78 44.2226 62.0039 44.4971 62.0039H75.5029C75.7774 62.0039 76 61.78 76 61.5039Z" fill="#333333"/>
<path fill-rule="evenodd" clip-rule="evenodd" d="M76 34.5039C76 34.2278 75.7774 34.0039 75.5029 34.0039H44.4971C44.2226 34.0039 44 34.2278 44 34.5039C44 34.78 44.2226 35.0039 44.4971 35.0039H75.5029C75.7774 35.0039 76 34.78 76 34.5039Z" fill="#333333"/>
<path fill-rule="evenodd" clip-rule="evenodd" d="M76 52.5039C76 52.2278 75.7774 52.0039 75.5029 52.0039H44.4971C44.2226 52.0039 44 52.2278 44 52.5039C44 52.78 44.2226 53.0039 44.4971 53.0039H75.5029C75.7774 53.0039 76 52.78 76 52.5039Z" fill="#333333"/>
<path d="M62 92H46V127H62V92Z" fill="#EFEFEF"/>
<path fill-rule="evenodd" clip-rule="evenodd" d="M125 92H48C46.8954 92 46 92.8954 46 94V125C46 126.105 46.8954 127 48 127H125C126.105 127 127 126.105 127 125V94C127 92.8954 126.105 92 125 92ZM48 91C46.3431 91 45 92.3431 45 94V125C45 126.657 46.3431 128 48 128H125C126.657 128 128 126.657 128 125V94C128 92.3431 126.657 91 125 91H48Z" fill="#333333"/>
<path d="M127 100H62V109H127V100Z" fill="url(#paint3_linear_125_10349)"/>
<path d="M127 118H62V127H127V118Z" fill="url(#paint4_linear_125_10349)"/>
<path fill-rule="evenodd" clip-rule="evenodd" d="M128 100.5C128 100.224 127.773 100 127.494 100H45.5061C45.2266 100 45 100.224 45 100.5C45 100.776 45.2266 101 45.5061 101H127.494C127.773 101 128 100.776 128 100.5Z" fill="#333333"/>
<path fill-rule="evenodd" clip-rule="evenodd" d="M128 118.5C128 118.224 127.776 118 127.5 118H46.5C46.2239 118 46 118.224 46 118.5C46 118.776 46.2239 119 46.5 119H127.5C127.776 119 128 118.776 128 118.5Z" fill="#333333"/>
<path fill-rule="evenodd" clip-rule="evenodd" d="M128 109.5C128 109.224 127.776 109 127.5 109H46.5C46.2239 109 46 109.224 46 109.5C46 109.776 46.2239 110 46.5 110H127.5C127.776 110 128 109.776 128 109.5Z" fill="#333333"/>
<path fill-rule="evenodd" clip-rule="evenodd" d="M113 127.5C113 127.776 112.776 128 112.5 128C112.224 128 112 127.776 112 127.5L112 91.5002C112 91.2241 112.224 91.0002 112.5 91.0002C112.776 91.0002 113 91.2241 113 91.5002L113 127.5ZM96 127.5C96 127.776 95.7761 128 95.5 128C95.2239 128 95 127.776 95 127.5L95 91.5002C95 91.2241 95.2239 91.0002 95.5 91.0002C95.7761 91.0002 96 91.2241 96 91.5002L96 127.5ZM62 127.5C62 127.776 61.7761 128 61.5 128C61.2239 128 61 127.776 61 127.5L61 91.5002C61 91.2241 61.2239 91.0002 61.5 91.0002C61.7761 91.0002 62 91.2241 62 91.5002L62 127.5ZM78.5 128C78.7761 128 79 127.776 79 127.5L79 91.5002C79 91.2241 78.7761 91.0002 78.5 91.0002C78.2239 91.0002 78 91.2241 78 91.5002L78 127.5C78 127.776 78.2239 128 78.5 128Z" fill="#333333"/>
<path fill-rule="evenodd" clip-rule="evenodd" d="M205.525 17H276.475C278.411 17 280 18.9454 280 21.3163V130.684C280 133.055 278.421 135 276.475 135H205.525C203.589 135 202 133.055 202 130.684V21.3163C202 18.9454 203.589 17 205.525 17Z" fill="#EFEFEF"/>
<path fill-rule="evenodd" clip-rule="evenodd" d="M205.525 16H276.475C279.143 16 281 18.5919 281 21.3163V130.684C281 133.406 279.155 136 276.475 136H205.525C202.857 136 201 133.408 201 130.684V21.3163C201 18.5919 202.857 16 205.525 16ZM276.475 17H205.525C203.589 17 202 18.9454 202 21.3163V130.684C202 133.055 203.589 135 205.525 135H276.475C278.421 135 280 133.055 280 130.684V21.3163C280 18.9454 278.411 17 276.475 17Z" fill="#333333"/>
<path fill-rule="evenodd" clip-rule="evenodd" d="M219.827 9H317.164C319.816 9 322 11.1708 322 13.8196V136.18C322 138.829 319.826 141 317.164 141H219.827C217.174 141 215 138.829 215 136.18V13.8295C214.99 11.1708 217.164 9 219.827 9Z" fill="#FEFEFE"/>
<path fill-rule="evenodd" clip-rule="evenodd" d="M219.827 8H317.164C320.364 8 323 10.6145 323 13.8196V136.18C323 139.384 320.376 142 317.164 142H219.827C216.623 142 214 139.383 214 136.18V13.8313C213.989 10.6162 216.614 8 219.827 8ZM215 13.8295V136.18C215 138.829 217.174 141 219.827 141H317.164C319.826 141 322 138.829 322 136.18V13.8196C322 11.1708 319.816 9 317.164 9H219.827C217.164 9 214.99 11.1708 215 13.8295Z" fill="#333333"/>
<path fill-rule="evenodd" clip-rule="evenodd" d="M276 43C277.657 43 279 44.3453 279 46.0049V58.9951C279 60.6547 277.657 62 276 62C274.343 62 273 60.6547 273 58.9951V46.0049C273 44.3453 274.343 43 276 43Z" fill="url(#paint5_linear_125_10349)"/>
<path fill-rule="evenodd" clip-rule="evenodd" d="M308 39C306.343 39 305 40.3726 305 42.0658V58.9342C305 60.6274 306.343 62 308 62C309.657 62 311 60.6274 311 58.9342V42.0658C311 40.3726 309.657 39 308 39Z" fill="url(#paint6_linear_125_10349)"/>
<path fill-rule="evenodd" clip-rule="evenodd" d="M292 32C290.343 32 289 33.3488 289 35.0125V58.9875C289 60.6512 290.343 62 292 62C293.657 62 295 60.6512 295 58.9875V35.0125C295 33.3488 293.657 32 292 32Z" fill="url(#paint7_linear_125_10349)"/>
<path fill-rule="evenodd" clip-rule="evenodd" d="M312 70.5039C312 70.2278 311.777 70.0039 311.503 70.0039H229.497C229.223 70.0039 229 70.2278 229 70.5039C229 70.78 229.223 71.0039 229.497 71.0039H311.503C311.777 71.0039 312 70.78 312 70.5039Z" fill="#333333"/>
<path fill-rule="evenodd" clip-rule="evenodd" d="M312 79.5039C312 79.2278 311.777 79.0039 311.503 79.0039H229.497C229.223 79.0039 229 79.2278 229 79.5039C229 79.78 229.223 80.0039 229.497 80.0039H311.503C311.777 80.0039 312 79.78 312 79.5039Z" fill="#333333"/>
<path fill-rule="evenodd" clip-rule="evenodd" d="M261 43.5039C261 43.2278 260.777 43.0039 260.503 43.0039H229.497C229.223 43.0039 229 43.2278 229 43.5039C229 43.78 229.223 44.0039 229.497 44.0039H260.503C260.777 44.0039 261 43.78 261 43.5039Z" fill="#333333"/>
<path fill-rule="evenodd" clip-rule="evenodd" d="M261 61.5039C261 61.2278 260.777 61.0039 260.503 61.0039H229.497C229.223 61.0039 229 61.2278 229 61.5039C229 61.78 229.223 62.0039 229.497 62.0039H260.503C260.777 62.0039 261 61.78 261 61.5039Z" fill="#333333"/>
<path fill-rule="evenodd" clip-rule="evenodd" d="M261 34.5039C261 34.2278 260.777 34.0039 260.503 34.0039H229.497C229.223 34.0039 229 34.2278 229 34.5039C229 34.78 229.223 35.0039 229.497 35.0039H260.503C260.777 35.0039 261 34.78 261 34.5039Z" fill="#333333"/>
<path fill-rule="evenodd" clip-rule="evenodd" d="M261 52.5039C261 52.2278 260.777 52.0039 260.503 52.0039H229.497C229.223 52.0039 229 52.2278 229 52.5039C229 52.78 229.223 53.0039 229.497 53.0039H260.503C260.777 53.0039 261 52.78 261 52.5039Z" fill="#333333"/>
<path d="M247 92H231V127H247V92Z" fill="#EFEFEF"/>
<path fill-rule="evenodd" clip-rule="evenodd" d="M310 92H233C231.895 92 231 92.8954 231 94V125C231 126.105 231.895 127 233 127H310C311.105 127 312 126.105 312 125V94C312 92.8954 311.105 92 310 92ZM233 91C231.343 91 230 92.3431 230 94V125C230 126.657 231.343 128 233 128H310C311.657 128 313 126.657 313 125V94C313 92.3431 311.657 91 310 91H233Z" fill="#333333"/>
<path d="M312 100H247V109H312V100Z" fill="url(#paint8_linear_125_10349)"/>
<path d="M312 118H247V127H312V118Z" fill="url(#paint9_linear_125_10349)"/>
<path fill-rule="evenodd" clip-rule="evenodd" d="M313 100.5C313 100.224 312.773 100 312.494 100H230.506C230.227 100 230 100.224 230 100.5C230 100.776 230.227 101 230.506 101H312.494C312.773 101 313 100.776 313 100.5Z" fill="#333333"/>
<path fill-rule="evenodd" clip-rule="evenodd" d="M313 118.5C313 118.224 312.773 118 312.494 118H230.506C230.227 118 230 118.224 230 118.5C230 118.776 230.227 119 230.506 119H312.494C312.773 119 313 118.776 313 118.5Z" fill="#333333"/>
<path fill-rule="evenodd" clip-rule="evenodd" d="M313 109.5C313 109.224 312.773 109 312.494 109H230.506C230.227 109 230 109.224 230 109.5C230 109.776 230.227 110 230.506 110H312.494C312.773 110 313 109.776 313 109.5Z" fill="#333333"/>
<path fill-rule="evenodd" clip-rule="evenodd" d="M298 127.5C298 127.776 297.776 128 297.5 128C297.224 128 297 127.776 297 127.5L297 91.5002C297 91.2241 297.224 91.0002 297.5 91.0002C297.776 91.0002 298 91.2241 298 91.5002L298 127.5ZM281 127.5C281 127.776 280.776 128 280.5 128C280.224 128 280 127.776 280 127.5L280 91.5002C280 91.2241 280.224 91.0002 280.5 91.0002C280.776 91.0002 281 91.2241 281 91.5002L281 127.5ZM247 127.5C247 127.776 246.776 128 246.5 128C246.224 128 246 127.776 246 127.5L246 91.5002C246 91.2241 246.224 91.0002 246.5 91.0002C246.776 91.0002 247 91.2241 247 91.5002L247 127.5ZM263.5 128C263.776 128 264 127.776 264 127.5L264 91.5002C264 91.2241 263.776 91.0002 263.5 91.0002C263.224 91.0002 263 91.2241 263 91.5002L263 127.5C263 127.776 263.224 128 263.5 128Z" fill="#333333"/>
<path fill-rule="evenodd" clip-rule="evenodd" d="M180.669 65.152C179.924 64.3761 179.179 63.6002 178.433 62.8253C178.286 62.6725 178.178 62.4912 178.099 62.2717C178.031 62.0808 177.992 61.8708 178.001 61.6608C178.011 61.4413 178.05 61.2313 178.139 61.0308C178.227 60.8399 178.344 60.6586 178.501 60.4963L178.57 60.4295C178.717 60.2959 178.883 60.1814 179.06 60.1145C179.246 60.0477 179.432 60 179.628 60C179.814 60 180 60.0286 180.177 60.0955C180.343 60.1623 180.51 60.2577 180.647 60.3913L191.571 71.7305C191.65 71.8164 191.718 71.9024 191.777 71.9978C191.836 72.0932 191.885 72.1982 191.914 72.2937C191.953 72.4082 191.983 72.5228 191.993 72.6373C192.002 72.7518 192.002 72.8664 191.993 72.9905V73.0191C192.002 73.1336 192.002 73.2482 191.993 73.3627C191.973 73.4772 191.953 73.5918 191.914 73.7063C191.885 73.8113 191.836 73.9163 191.777 74.0117C191.718 74.0977 191.65 74.1931 191.571 74.2695L180.647 85.6087C180.51 85.7423 180.343 85.8377 180.177 85.9046C180 85.9714 179.814 86 179.628 86C179.432 85.9905 179.236 85.9523 179.06 85.8759C178.893 85.8091 178.727 85.7041 178.58 85.5705L178.501 85.5037C178.344 85.3414 178.217 85.1601 178.139 84.9596C178.05 84.7687 178.011 84.5492 178.001 84.3392C178.001 84.1388 178.031 83.9288 178.099 83.7379C178.168 83.547 178.286 83.3656 178.433 83.2129C179.14 82.4786 179.846 81.7444 180.551 81.0107C183.127 78.33 185.695 75.6569 188.319 73.0191C185.73 70.4234 183.199 67.7878 180.669 65.152ZM178.621 75H164.401C163.721 75 163.278 74.6087 163.071 74.1087C162.992 73.913 162.953 73.7065 162.953 73.5C162.953 73.2935 162.992 73.087 163.071 72.8913C163.278 72.3913 163.712 72 164.372 72H178.621C179.271 72 179.695 72.4022 179.892 72.9022C179.961 73.087 180 73.2935 180 73.5C180 73.7065 179.961 73.913 179.892 74.0978C179.704 74.6087 179.281 75 178.621 75ZM152.055 75H148.439C147.759 75 147.325 74.6087 147.118 74.1196C147.039 73.9239 147 73.7174 147 73.5109C147 73.3043 147.039 73.0978 147.118 72.9022C147.325 72.4022 147.759 72.0109 148.419 72.0109H152.055C152.144 72.0109 152.232 72.0217 152.311 72.0326C152.38 72.0217 152.459 72.0109 152.538 72.0109H158.43C159.051 72.0109 159.435 72.4239 159.603 72.9456C159.662 73.1304 159.691 73.3261 159.691 73.5109C159.691 73.6957 159.662 73.8913 159.603 74.0652C159.435 74.587 159.051 75 158.45 75H152.548C152.469 75 152.39 74.9891 152.311 74.9783L152.311 74.9783C152.232 74.9891 152.144 75 152.055 75Z" fill="#333333"/>
<path fill-rule="evenodd" clip-rule="evenodd" d="M4.36645 87H79.6336C81.4861 87 83 88.8039 83 91.0113V143.989C83 146.196 81.4861 148 79.6336 148H4.36645C2.51391 148 1 146.196 1 143.989V91.0113C1 88.8039 2.51391 87 4.36645 87Z" fill="#FEFEFE"/>
<path fill-rule="evenodd" clip-rule="evenodd" d="M79.6336 88H4.36645C3.22321 88 2 89.1848 2 91.0113V143.989C2 145.815 3.22321 147 4.36645 147H79.6336C80.7768 147 82 145.815 82 143.989V91.0113C82 89.1848 80.7768 88 79.6336 88ZM79.6336 87H4.36645C2.51391 87 1 88.8039 1 91.0113V143.989C1 146.196 2.51391 148 4.36645 148H79.6336C81.4861 148 83 146.196 83 143.989V91.0113C83 88.8039 81.4861 87 79.6336 87Z" fill="#333333"/>
<path d="M37.4553 98.0054L37.4781 98.0049L37.4801 98.03L37.4512 98.0311L37.4553 98.0054Z" fill="#0BA25E"/>
<path d="M37.3687 98.1759C37.3885 98.1468 37.4272 98.0886 37.447 98.0594L37.4826 98.0537C37.5091 98.3834 37.6037 98.7012 37.6749 99.022C37.9811 100.416 38.2904 101.809 38.6124 103.199C38.8235 104.153 39.059 105.101 39.2523 106.058C39.4202 106.65 39.5102 107.262 39.6725 107.855C39.7773 108.408 39.9416 108.948 40.0296 109.504C39.994 109.565 39.9584 109.627 39.9222 109.687C39.9136 109.702 39.8953 109.731 39.8866 109.745L39.8734 109.769C39.8714 109.773 39.8668 109.782 39.8642 109.786C39.8444 109.823 39.8047 109.898 39.7849 109.935C39.7813 109.941 39.7737 109.955 39.7696 109.962L39.7335 110.027C39.7289 110.035 39.7203 110.05 39.7162 110.058L39.674 110.133C39.672 110.137 39.6674 110.146 39.6648 110.15L39.6125 110.243C39.6079 110.251 39.5987 110.268 39.5941 110.276C39.5891 110.285 39.5789 110.302 39.5738 110.311L39.5224 110.402C39.5183 110.408 39.5102 110.423 39.5061 110.43L39.4746 110.484C39.4695 110.494 39.4583 110.513 39.4532 110.522C39.4329 110.558 39.3927 110.63 39.3724 110.666C39.3688 110.672 39.3612 110.685 39.3576 110.692L39.3256 110.747C39.3205 110.757 39.3093 110.775 39.3037 110.785C39.2849 110.819 39.2462 110.886 39.2274 110.92C39.2228 110.928 39.2142 110.944 39.2096 110.952L39.1714 111.022C39.1679 111.028 39.1608 111.041 39.1572 111.047L39.118 111.118C39.114 111.125 39.1058 111.139 39.1017 111.147C39.0814 111.181 39.0417 111.25 39.0219 111.285C39.0173 111.293 39.0081 111.309 39.0036 111.317L38.9675 111.384C38.9639 111.39 38.9573 111.402 38.9542 111.408L38.9125 111.482C38.909 111.489 38.9013 111.502 38.8978 111.508C38.8764 111.546 38.8342 111.62 38.8128 111.657C38.8093 111.664 38.8011 111.678 38.7971 111.684L38.7665 111.736C38.7614 111.745 38.7508 111.763 38.7457 111.773C38.7263 111.807 38.6882 111.875 38.6689 111.91C38.6658 111.915 38.6587 111.928 38.6556 111.934L38.6139 112.009C38.6109 112.015 38.6048 112.026 38.6017 112.032L38.559 112.108C38.5554 112.114 38.5483 112.126 38.5447 112.132C38.5249 112.167 38.4847 112.234 38.4649 112.268C38.4593 112.277 38.4491 112.296 38.4435 112.305L38.4135 112.363C38.4094 112.37 38.4018 112.384 38.3983 112.391L38.3459 112.484C38.3418 112.492 38.3326 112.507 38.3286 112.515C38.324 112.522 38.3158 112.537 38.3118 112.545C38.2258 112.693 38.148 112.846 38.0529 112.988C37.5111 113.891 37.0126 114.823 36.4882 115.737C35.6367 117.244 34.7862 118.75 33.9346 120.257C33.807 120.491 33.6615 120.716 33.5516 120.961C33.546 120.969 33.5348 120.986 33.5292 120.994C33.3253 120.694 33.1676 120.362 32.9809 120.05C32.1294 118.542 31.2773 117.035 30.4263 115.527C29.9533 114.679 29.4603 113.841 29 112.985C30.8231 109.769 32.638 106.546 34.4576 103.328C34.4591 103.325 34.4626 103.319 34.4642 103.316L34.514 103.229C34.5161 103.225 34.5201 103.218 34.5227 103.214L34.573 103.126C34.5776 103.118 34.5868 103.102 34.5918 103.094C34.5969 103.085 34.6071 103.066 34.6122 103.057L34.6626 102.965C34.6661 102.959 34.6732 102.947 34.6768 102.941L34.7144 102.879C34.7211 102.869 34.7343 102.849 34.7409 102.839C34.7592 102.811 34.7963 102.754 34.8152 102.726C34.8172 102.716 34.8208 102.698 34.8228 102.689L34.867 102.602C34.8691 102.599 34.8731 102.592 34.8752 102.588L34.926 102.501C34.9311 102.492 34.9413 102.475 34.9464 102.466C34.952 102.456 34.9632 102.436 34.9693 102.425L35.012 102.349C35.0166 102.34 35.0257 102.324 35.0303 102.316L35.0659 102.252C35.07 102.246 35.0781 102.231 35.0822 102.224C35.102 102.189 35.1417 102.119 35.1621 102.085C35.1661 102.077 35.1743 102.063 35.1783 102.055L35.2155 101.986C35.2185 101.981 35.2246 101.97 35.2277 101.964L35.2765 101.877C35.2826 101.867 35.2953 101.845 35.302 101.835L35.335 101.784C35.3421 101.774 35.3559 101.753 35.363 101.743C35.3691 101.733 35.3818 101.712 35.3884 101.702L35.4159 101.648C35.4251 101.627 35.4439 101.587 35.453 101.567L35.481 101.527C35.4861 101.519 35.4958 101.505 35.5008 101.498C35.5197 101.482 35.5578 101.449 35.5766 101.432L35.5731 101.371C35.5761 101.364 35.5833 101.349 35.5868 101.342L35.63 101.254C35.6336 101.248 35.6407 101.235 35.6443 101.229L35.6824 101.165C35.6896 101.155 35.7033 101.134 35.7104 101.123C35.7277 101.094 35.7628 101.037 35.7801 101.009C35.7852 100.998 35.7944 100.978 35.7994 100.967L35.8264 100.908C35.8345 100.892 35.8518 100.86 35.8605 100.844L35.8941 100.795C35.9012 100.785 35.9154 100.766 35.9225 100.756C35.9286 100.745 35.9414 100.725 35.9475 100.714L35.9724 100.661C35.978 100.649 35.9897 100.624 35.9953 100.612L36.039 100.526C36.0456 100.516 36.0584 100.494 36.0645 100.483L36.098 100.432C36.1052 100.421 36.1194 100.402 36.1265 100.391C36.1331 100.381 36.1458 100.36 36.1519 100.349L36.1779 100.295C36.1855 100.28 36.2003 100.25 36.2074 100.235L36.242 100.177C36.2481 100.167 36.2603 100.147 36.2669 100.138C36.2852 100.108 36.3224 100.05 36.3412 100.022C36.3432 100.013 36.3478 99.995 36.3498 99.9862L36.3941 99.8998C36.3956 99.8962 36.3997 99.8894 36.4017 99.8858L36.4526 99.7969C36.4577 99.788 36.4673 99.7709 36.4724 99.762C36.4775 99.7537 36.4872 99.736 36.4923 99.7277L36.5431 99.6367C36.5452 99.6331 36.5492 99.6258 36.5513 99.6216L36.5991 99.5369C36.6016 99.5332 36.6062 99.5254 36.6082 99.5213L36.6596 99.4329C36.6642 99.4245 36.6733 99.4089 36.6779 99.4006C36.683 99.3918 36.6932 99.3736 36.6983 99.3642L36.7471 99.2763C36.7501 99.2706 36.7563 99.2597 36.7593 99.2545L36.8005 99.1864C36.8071 99.1765 36.8203 99.1562 36.8265 99.1463C36.8453 99.1177 36.8819 99.0605 36.9007 99.0319C36.9022 99.0231 36.9063 99.0054 36.9083 98.9965L36.9516 98.9118C36.9551 98.9055 36.9628 98.8925 36.9663 98.8858L37.005 98.8239C37.0121 98.814 37.0253 98.7937 37.0325 98.7833C37.0503 98.7542 37.0859 98.6965 37.1037 98.6674C37.1062 98.659 37.1108 98.6424 37.1133 98.6341L37.1581 98.5483C37.1601 98.5441 37.1642 98.5368 37.1662 98.5327L37.2181 98.4432C37.2222 98.4354 37.2314 98.4198 37.2359 98.412C37.2405 98.4032 37.2497 98.3865 37.2542 98.3782L37.3051 98.2856C37.3077 98.282 37.3117 98.2742 37.3138 98.2706L37.3621 98.1868C37.3636 98.1842 37.3672 98.1785 37.3687 98.1759Z" fill="#0BA25E"/>
<path d="M37.4519 98.0313L37.4809 98.0303L37.4835 98.0534L37.4473 98.059L37.4519 98.0313Z" fill="#089156"/>
<path d="M37.4831 98.0527C37.5915 98.1963 37.6718 98.3585 37.7603 98.5145C39.1739 101.015 40.5865 103.516 41.9971 106.019C41.3439 107.181 40.6857 108.342 40.03 109.503C39.942 108.947 39.7777 108.407 39.673 107.854C39.5107 107.261 39.4207 106.649 39.2528 106.057C39.0595 105.1 38.824 104.152 38.6129 103.199C38.2909 101.808 37.9816 100.415 37.6754 99.021C37.6042 98.7002 37.5096 98.3824 37.4831 98.0527Z" fill="#089156"/>
<path d="M35.5013 101.498C35.5191 101.467 35.5553 101.403 35.5736 101.371L35.5771 101.432C35.5583 101.449 35.5201 101.482 35.5013 101.498Z" fill="#089156"/>
<path d="M37.4785 98.0052C39.1307 97.9974 40.7834 98.0041 42.436 98.0015C43.8034 98.0067 45.1717 97.9906 46.5385 98.0093C46.5655 98.0624 46.5929 98.1149 46.6219 98.1674C46.626 98.1742 46.6336 98.1888 46.6377 98.196C46.7699 98.4316 46.9042 98.6661 47.035 98.9022C47.0375 98.9064 47.0416 98.9142 47.0441 98.9178C47.2974 99.3625 47.5497 99.8076 47.7985 100.255C47.8005 100.259 47.8051 100.266 47.8071 100.27C47.8524 100.35 47.8992 100.429 47.9455 100.509C47.9496 100.516 47.9572 100.53 47.9613 100.537C48.0248 100.652 48.0889 100.766 48.1535 100.879C48.1561 100.883 48.1602 100.89 48.1622 100.895C48.2268 101.008 48.2904 101.122 48.3545 101.237C48.3585 101.243 48.3662 101.257 48.3702 101.264C48.4348 101.375 48.4974 101.487 48.5595 101.6C48.5635 101.606 48.5712 101.62 48.5752 101.627C49.1826 102.7 49.7884 103.772 50.3937 104.846C50.3246 105.158 50.4919 105.468 50.3988 105.781C50.3424 106.636 50.0265 107.469 49.5056 108.141C49.3362 108.328 49.5005 108.589 49.4822 108.812C49.2996 109.038 49.0646 109.207 48.8428 109.389C48.8433 109.56 48.8438 109.73 48.8362 109.902C48.6383 110.035 48.4114 110.113 48.2105 110.242C48.1891 110.311 48.1673 110.381 48.1464 110.451C47.9852 110.529 47.8127 110.579 47.6515 110.658C47.0131 110.471 46.3813 110.262 45.7445 110.07C45.1519 109.869 44.545 109.712 43.9585 109.492L43.9249 109.43C43.9219 109.426 43.9168 109.416 43.9143 109.412L43.8659 109.328C43.8608 109.319 43.8507 109.301 43.8456 109.293C43.841 109.285 43.8329 109.27 43.8283 109.262C43.7922 109.196 43.7591 109.129 43.7296 109.061L43.7266 109.054L43.723 109.049C43.7006 109.012 43.6553 108.939 43.6324 108.903C43.6299 108.898 43.6248 108.89 43.6223 108.885L43.6075 108.861C43.5989 108.846 43.5811 108.817 43.5724 108.802C43.5506 108.764 43.5063 108.688 43.4844 108.65C43.4788 108.64 43.4681 108.621 43.4626 108.612L43.4315 108.558C43.4275 108.551 43.4193 108.536 43.4152 108.529L43.3659 108.442C43.3639 108.439 43.3593 108.431 43.3573 108.427L43.3054 108.336C43.3008 108.328 43.2916 108.311 43.2871 108.303C43.282 108.294 43.2713 108.275 43.2662 108.266L43.224 108.19C43.2189 108.181 43.2087 108.162 43.2036 108.153L43.1711 108.094C43.1665 108.087 43.1579 108.071 43.1533 108.063C43.1334 108.026 43.0933 107.951 43.0729 107.914C43.0709 107.91 43.0658 107.901 43.0638 107.897L43.05 107.872C43.0404 107.858 43.0215 107.829 43.0119 107.814C42.9615 107.728 42.9142 107.639 42.8689 107.55C42.8664 107.546 42.8618 107.537 42.8598 107.533L42.8465 107.509C42.8369 107.495 42.8176 107.467 42.8079 107.454C42.7855 107.413 42.7407 107.331 42.7184 107.289C42.7158 107.285 42.7107 107.276 42.7087 107.272L42.695 107.247C42.6848 107.23 42.665 107.196 42.6548 107.179L42.611 107.103C42.607 107.096 42.5983 107.081 42.5937 107.074C42.5744 107.039 42.5352 106.97 42.5154 106.936C42.5108 106.928 42.5022 106.912 42.4976 106.904C42.463 106.845 42.4299 106.786 42.3974 106.726C42.3948 106.722 42.3893 106.712 42.3867 106.707L42.3384 106.623C42.3333 106.614 42.3236 106.598 42.3191 106.589C42.3145 106.581 42.3058 106.566 42.3012 106.558L42.2499 106.466C42.2473 106.462 42.2428 106.453 42.2402 106.449L42.1985 106.373C42.1949 106.366 42.1883 106.354 42.1848 106.348C42.1654 106.313 42.1263 106.244 42.1069 106.209C42.1029 106.202 42.0947 106.188 42.0907 106.181C42.0591 106.128 42.0276 106.074 41.9971 106.02C40.5865 103.518 39.1739 101.017 37.7603 98.5159C37.6718 98.3598 37.5914 98.1976 37.4831 98.0541L37.4805 98.0307L37.4785 98.0052Z" fill="#F9C941"/>
<path d="M50.3937 104.846C51.2783 106.413 52.1685 107.977 53.0459 109.549C53.05 109.556 53.0582 109.57 53.0622 109.577C53.0826 109.611 53.1233 109.679 53.1431 109.713C53.1472 109.72 53.1553 109.734 53.1594 109.741L53.2001 109.812C53.2026 109.817 53.2077 109.827 53.2108 109.831L53.2616 109.922C53.2667 109.931 53.2764 109.949 53.2815 109.958C53.286 109.966 53.2952 109.982 53.2998 109.99L53.3496 110.078C53.3517 110.082 53.3557 110.089 53.3578 110.093L53.4076 110.18C53.4097 110.184 53.4137 110.191 53.4158 110.194L53.4656 110.283C53.4707 110.292 53.4804 110.309 53.4854 110.318C53.49 110.326 53.4997 110.344 53.5043 110.352L53.5556 110.444C53.5628 110.463 53.577 110.498 53.5841 110.516L53.5984 110.544L53.605 110.559L53.6162 110.574L53.6462 110.621C53.6569 110.638 53.6777 110.672 53.6884 110.689C53.6945 110.7 53.7077 110.721 53.7138 110.731L53.7474 110.786C53.7576 110.809 53.7779 110.856 53.7881 110.88L53.8034 110.908L53.809 110.919L53.8135 110.926C53.8359 110.959 53.8802 111.027 53.9026 111.061C53.9081 111.071 53.9193 111.089 53.9254 111.099L53.956 111.151C53.9605 111.159 53.9697 111.175 53.9743 111.183L54.0257 111.275C54.0302 111.283 54.0394 111.3 54.044 111.308C54.0485 111.317 54.0577 111.333 54.0623 111.341L54.1131 111.43C54.1152 111.434 54.1198 111.442 54.1223 111.446L54.1686 111.529C54.1716 111.534 54.1777 111.545 54.1808 111.55L54.2276 111.634C54.2332 111.643 54.2439 111.662 54.2495 111.672C54.254 111.68 54.2637 111.697 54.2683 111.705C54.3059 111.769 54.342 111.834 54.3756 111.901C54.3807 111.911 54.3909 111.933 54.3955 111.944L54.4189 111.998C54.425 112.009 54.4372 112.03 54.4428 112.04C54.4504 112.051 54.4651 112.071 54.4728 112.081L54.5079 112.131C54.514 112.141 54.5262 112.161 54.5328 112.172L54.5842 112.263C54.5888 112.271 54.5979 112.287 54.6025 112.296C54.6071 112.304 54.6162 112.32 54.6213 112.329L54.6722 112.418C54.6742 112.422 54.6783 112.429 54.6803 112.433L54.7286 112.519C54.7307 112.523 54.7347 112.53 54.7368 112.533L54.7861 112.621C54.7912 112.63 54.8014 112.648 54.8065 112.657C54.8116 112.666 54.8217 112.684 54.8263 112.693L54.8772 112.782C54.8792 112.786 54.8828 112.793 54.8848 112.797L54.9387 112.9L54.9382 112.946C53.6655 112.572 52.4132 112.129 51.1369 111.768C49.9786 111.386 48.8097 111.038 47.6515 110.658C47.8127 110.579 47.9852 110.529 48.1464 110.451C48.1673 110.381 48.1891 110.311 48.2105 110.242C48.4114 110.113 48.6383 110.035 48.8362 109.902C48.8438 109.73 48.8433 109.56 48.8428 109.389C49.0646 109.207 49.2996 109.038 49.4822 108.812C49.5005 108.589 49.3362 108.328 49.5056 108.141C50.0265 107.469 50.3424 106.636 50.3988 105.781C50.4919 105.468 50.3246 105.158 50.3937 104.846Z" fill="#F9C941"/>
<path d="M54.938 112.946L54.9649 112.947L54.9799 112.986L54.9494 112.988L54.938 112.946Z" fill="#F9C941"/>
<path d="M53.5981 110.544C53.6026 110.551 53.6113 110.567 53.6159 110.574L53.6047 110.559L53.5981 110.544Z" fill="#E8B835"/>
<path d="M53.8031 110.907C53.8057 110.912 53.8109 110.921 53.8136 110.925L53.8089 110.918L53.8031 110.907Z" fill="#E8B835"/>
<path d="M43.7226 109.048L43.7263 109.053L43.7294 109.06C43.7278 109.057 43.7242 109.051 43.7226 109.048Z" fill="#E8B835"/>
<path d="M43.9582 109.491C44.5447 109.712 45.1515 109.869 45.7441 110.069C46.381 110.262 47.0128 110.47 47.6511 110.658C48.8094 111.038 49.9783 111.386 51.1366 111.768C51.1193 112.021 51.1681 112.281 51.1066 112.529C51.0593 112.771 50.7764 112.809 50.6599 113.002C49.0948 113.003 47.5301 113.007 45.9654 113L45.9318 112.998C45.2853 111.823 44.6128 110.662 43.9582 109.491Z" fill="#E8B835"/>
<path d="M51.1366 111.768C52.4128 112.128 53.6652 112.572 54.9379 112.946L54.9491 112.988C53.5202 113.022 52.0893 112.994 50.6599 113.002C50.7764 112.809 51.0593 112.771 51.1066 112.529C51.1681 112.281 51.1193 112.021 51.1366 111.768Z" fill="#E8B835"/>
<path d="M54.9385 112.899C54.9452 112.911 54.9582 112.935 54.9649 112.946L54.938 112.945L54.9385 112.899Z" fill="#E8B835"/>
<path d="M36.4888 115.737C37.0133 114.823 37.5118 113.891 38.0535 112.988C40.6798 112.998 43.3066 112.973 45.9323 112.998L45.9659 113C44.6378 113.044 43.3061 112.989 41.9779 113.023C41.7246 113.19 41.5557 113.461 41.3131 113.643C41.0877 113.811 40.9219 114.045 40.7067 114.224C40.4051 114.451 40.1808 114.766 39.8745 114.989C39.5205 115.372 39.112 115.695 38.755 116.076C38.4874 116.287 38.2636 116.546 38.0143 116.777C37.7402 116.981 37.5301 117.256 37.2737 117.481C37.2671 117.487 37.2544 117.498 37.2478 117.504C37.234 117.515 37.2071 117.538 37.1933 117.549C37.1867 117.555 37.1745 117.565 37.1679 117.571C36.966 117.731 36.8113 117.941 36.6129 118.105C36.6063 118.111 36.5936 118.122 36.5875 118.127C36.5809 118.133 36.5682 118.144 36.5616 118.149C36.2721 118.392 36.0402 118.699 35.7365 118.925C35.4308 119.235 35.0859 119.501 34.7954 119.828C34.3661 120.189 33.9948 120.615 33.5522 120.961C33.6621 120.716 33.8076 120.491 33.9353 120.257C34.7868 118.75 35.6373 117.243 36.4888 115.737Z" fill="#296AD9"/>
<path d="M33.5298 120.993C33.5353 120.985 33.5462 120.969 33.5517 120.961L33.5502 120.994L33.5298 120.993Z" fill="#296AD9"/>
<path d="M45.966 113C47.5307 113.007 49.0953 113.002 50.6605 113.002C52.0899 112.994 53.5208 113.022 54.9497 112.988L54.9797 112.986L55 112.992V112.996C53.4913 115.662 51.9871 118.332 50.4784 120.999C44.8357 120.997 39.193 121.004 33.5508 120.994L33.5523 120.961C33.9949 120.615 34.3662 120.189 34.7955 119.828C35.086 119.501 35.4308 119.235 35.7366 118.925C36.0402 118.699 36.2722 118.392 36.5616 118.149C36.5682 118.144 36.5809 118.133 36.5876 118.127C36.5937 118.122 36.6064 118.111 36.613 118.105C36.8114 117.941 36.966 117.731 37.168 117.571C37.1746 117.565 37.1868 117.555 37.1934 117.549C37.2071 117.538 37.2341 117.515 37.2478 117.504C37.2544 117.498 37.2671 117.487 37.2738 117.481C37.5301 117.256 37.7402 116.981 38.0144 116.777C38.2636 116.546 38.4875 116.286 38.755 116.076C39.1121 115.695 39.5206 115.372 39.8746 114.989C40.1808 114.766 40.4052 114.451 40.7068 114.224C40.922 114.045 41.0878 113.811 41.3131 113.643C41.5558 113.461 41.7247 113.19 41.978 113.023C43.3061 112.989 44.6378 113.044 45.966 113Z" fill="#2A71E9"/>
<path d="M26.4112 133.934C26.4112 135.556 25.1635 136.752 23.6324 136.752C22.1012 136.752 20.8535 135.556 20.8535 133.934C20.8535 132.3 22.1012 131.116 23.6324 131.116C25.1635 131.116 26.4112 132.3 26.4112 133.934ZM25.1948 133.934C25.1948 132.92 24.4716 132.227 23.6324 132.227C22.7931 132.227 22.07 132.92 22.07 133.934C22.07 134.938 22.7931 135.641 23.6324 135.641C24.4716 135.641 25.1948 134.936 25.1948 133.934Z" fill="#676667"/>
<path d="M32.4063 133.934C32.4063 135.556 31.1587 136.752 29.6275 136.752C28.0963 136.752 26.8486 135.556 26.8486 133.934C26.8486 132.301 28.0963 131.116 29.6275 131.116C31.1587 131.116 32.4063 132.3 32.4063 133.934ZM31.1899 133.934C31.1899 132.92 30.4667 132.227 29.6275 132.227C28.7882 132.227 28.0651 132.92 28.0651 133.934C28.0651 134.938 28.7882 135.641 29.6275 135.641C30.4667 135.641 31.1899 134.936 31.1899 133.934Z" fill="#676667"/>
<path d="M38.1512 131.286V136.345C38.1512 138.426 36.9448 139.276 35.5185 139.276C34.1759 139.276 33.3679 138.363 33.0631 137.616L34.1222 137.167C34.3108 137.626 34.7729 138.167 35.5173 138.167C36.4302 138.167 36.996 137.594 36.996 136.515V136.11H36.9535C36.6812 136.452 36.1567 136.75 35.4948 136.75C34.1097 136.75 32.8408 135.523 32.8408 133.944C32.8408 132.354 34.1097 131.116 35.4948 131.116C36.1554 131.116 36.68 131.415 36.9535 131.746H36.996V131.288H38.1512V131.286ZM37.0821 133.944C37.0821 132.952 36.4315 132.227 35.6034 132.227C34.7642 132.227 34.061 132.952 34.061 133.944C34.061 134.926 34.7642 135.641 35.6034 135.641C36.4315 135.641 37.0821 134.926 37.0821 133.944Z" fill="#676667"/>
<path d="M40.0556 128.322V136.579H38.8691V128.322H40.0556Z" fill="#676667"/>
<path d="M44.6791 134.862L45.6233 135.502C45.3185 135.961 44.5842 136.751 43.3153 136.751C41.7416 136.751 40.5664 135.513 40.5664 133.933C40.5664 132.257 41.7516 131.115 43.1791 131.115C44.6166 131.115 45.3198 132.279 45.5496 132.908L45.6757 133.228L41.9727 134.788C42.2562 135.353 42.6971 135.642 43.3153 135.642C43.9347 135.642 44.3644 135.332 44.6791 134.862ZM41.7729 133.848L44.2482 132.802C44.1121 132.45 43.7024 132.205 43.2204 132.205C42.6021 132.205 41.7416 132.76 41.7729 133.848V133.848Z" fill="#676667"/>
<path d="M16.3625 133.201V132.006H20.3228C20.3615 132.214 20.3815 132.46 20.3815 132.727C20.3815 133.624 20.1404 134.733 19.3636 135.523C18.608 136.324 17.6426 136.75 16.3637 136.75C13.9933 136.75 12 134.786 12 132.375C12 129.964 13.9933 128 16.3637 128C17.6751 128 18.6093 128.523 19.3112 129.206L18.4819 130.049C17.9786 129.569 17.2967 129.195 16.3625 129.195C14.6315 129.195 13.2776 130.614 13.2776 132.375C13.2776 134.136 14.6315 135.555 16.3625 135.555C17.4852 135.555 18.1247 135.096 18.5343 134.68C18.8666 134.342 19.0851 133.859 19.1713 133.2L16.3625 133.201V133.201Z" fill="#676667"/>
<path d="M47.2793 129.377C47.9825 129.264 48.6942 129.207 49.407 129.208C50.8442 129.208 51.8695 129.546 52.5478 130.141C53.2261 130.736 53.652 131.615 53.652 132.826C53.652 134.036 53.2489 135.044 52.5355 135.732C51.8222 136.42 50.6041 136.816 49.0968 136.816C48.4897 136.819 47.8829 136.789 47.2793 136.726V129.377ZM48.2801 135.989C48.6165 136.024 48.9548 136.038 49.2931 136.033C51.4436 136.033 52.5934 134.88 52.5934 132.86C52.6057 131.096 51.5698 129.975 49.4526 129.975C49.0592 129.969 48.6663 130.003 48.2801 130.075V135.989Z" fill="#676667"/>
<path d="M54.9069 133.052C54.9069 132.42 54.8946 131.869 54.8596 131.377H55.7447L55.792 132.442H55.8253C56.0794 131.722 56.7016 131.259 57.3782 131.259C57.4709 131.26 57.5635 131.268 57.6551 131.282V132.202C57.5394 132.182 57.4219 132.175 57.3045 132.18C56.5912 132.18 56.0777 132.687 55.948 133.423C55.9241 133.573 55.9124 133.725 55.9129 133.877V136.746H54.9016L54.9069 133.052Z" fill="#676667"/>
<path d="M59.8407 129.867C59.8433 129.949 59.8282 130.03 59.7964 130.105C59.7647 130.18 59.7169 130.249 59.6561 130.305C59.5953 130.362 59.523 130.405 59.4437 130.433C59.3644 130.461 59.2799 130.473 59.1957 130.467C59.1141 130.469 59.0329 130.455 58.9573 130.425C58.8816 130.396 58.8132 130.351 58.7561 130.295C58.699 130.239 58.6546 130.172 58.6256 130.098C58.5966 130.024 58.5836 129.946 58.5875 129.867C58.5853 129.786 58.6002 129.706 58.6313 129.631C58.6623 129.556 58.7089 129.488 58.7681 129.431C58.8273 129.375 58.8979 129.33 58.9757 129.3C59.0534 129.27 59.1366 129.256 59.2202 129.258C59.3031 129.257 59.3856 129.271 59.4624 129.301C59.5393 129.331 59.609 129.376 59.6671 129.433C59.7253 129.49 59.7707 129.558 59.8005 129.633C59.8304 129.707 59.844 129.787 59.8407 129.867ZM58.7137 136.746V131.377H59.725V136.746H58.7137Z" fill="#676667"/>
<path d="M61.7966 131.377L62.8885 134.385C63.062 134.839 63.2118 135.302 63.3372 135.771H63.3723C63.4985 135.326 63.6597 134.883 63.8437 134.385L64.9251 131.377H65.9767L63.7982 136.746H62.8307L60.7152 131.377H61.7966Z" fill="#676667"/>
<path d="M67.3876 134.239C67.4104 135.56 68.2727 136.099 69.2963 136.099C69.8247 136.116 70.3505 136.022 70.8369 135.822L71.0209 136.52C70.4315 136.758 69.7966 136.873 69.1578 136.858C67.4437 136.858 66.4202 135.761 66.4202 134.141C66.4202 132.521 67.4104 131.255 69.0316 131.255C70.8597 131.255 71.3329 132.787 71.3329 133.774C71.3363 133.927 71.3246 134.079 71.2978 134.229L67.3876 134.239ZM70.3549 133.541C70.3654 132.931 70.0902 131.965 68.9528 131.965C67.9169 131.965 67.4805 132.863 67.3999 133.541H70.3549Z" fill="#676667"/>
<defs>
<linearGradient id="paint0_linear_125_10349" x1="90" y1="46.0049" x2="90" y2="59.7168" gradientUnits="userSpaceOnUse">
<stop stop-color="#FFC671"/>
<stop offset="0.59375" stop-color="#FF7541"/>
<stop offset="1" stop-color="#FF6F3D"/>
</linearGradient>
<linearGradient id="paint1_linear_125_10349" x1="122" y1="41.5295" x2="122" y2="59.769" gradientUnits="userSpaceOnUse">
<stop stop-color="#FFC671"/>
<stop offset="0.59375" stop-color="#FF7541"/>
<stop offset="1" stop-color="#FF6F3D"/>
</linearGradient>
<linearGradient id="paint2_linear_125_10349" x1="106" y1="29.0928" x2="106" y2="59.7197" gradientUnits="userSpaceOnUse">
<stop stop-color="#FFC671"/>
<stop offset="0.59375" stop-color="#FF7541"/>
<stop offset="1" stop-color="#FF6F3D"/>
</linearGradient>
<linearGradient id="paint3_linear_125_10349" x1="59.7736" y1="93.7539" x2="65.1818" y2="114.943" gradientUnits="userSpaceOnUse">
<stop stop-color="#FFC671"/>
<stop offset="1" stop-color="#FF6F3D"/>
</linearGradient>
<linearGradient id="paint4_linear_125_10349" x1="59.7736" y1="111.754" x2="65.1818" y2="132.943" gradientUnits="userSpaceOnUse">
<stop stop-color="#FFC671"/>
<stop offset="1" stop-color="#FF6F3D"/>
</linearGradient>
<linearGradient id="paint5_linear_125_10349" x1="276" y1="46.0049" x2="276" y2="59.7168" gradientUnits="userSpaceOnUse">
<stop stop-color="#FFC671"/>
<stop offset="0.59375" stop-color="#FF7541"/>
<stop offset="1" stop-color="#FF6F3D"/>
</linearGradient>
<linearGradient id="paint6_linear_125_10349" x1="308" y1="40.599" x2="308" y2="59.6676" gradientUnits="userSpaceOnUse">
<stop stop-color="#FFC671"/>
<stop offset="0.59375" stop-color="#FF7541"/>
<stop offset="1" stop-color="#FF6F3D"/>
</linearGradient>
<linearGradient id="paint7_linear_125_10349" x1="292" y1="29.0928" x2="292" y2="59.7197" gradientUnits="userSpaceOnUse">
<stop stop-color="#FFC671"/>
<stop offset="0.59375" stop-color="#FF7541"/>
<stop offset="1" stop-color="#FF6F3D"/>
</linearGradient>
<linearGradient id="paint8_linear_125_10349" x1="244.774" y1="93.7539" x2="250.182" y2="114.943" gradientUnits="userSpaceOnUse">
<stop stop-color="#FFC671"/>
<stop offset="1" stop-color="#FF6F3D"/>
</linearGradient>
<linearGradient id="paint9_linear_125_10349" x1="244.774" y1="111.754" x2="250.182" y2="132.943" gradientUnits="userSpaceOnUse">
<stop stop-color="#FFC671"/>
<stop offset="1" stop-color="#FF6F3D"/>
</linearGradient>
</defs>
</svg>
