<svg width="100" height="100" viewBox="0 0 100 100" fill="none" xmlns="http://www.w3.org/2000/svg">
<path d="M100 55.0237C100 73.1298 79.2556 93.421 51.0574 93.421C22.8592 93.421 0 93.5224 0 64.3854C0 50.7112 6.34441 46.9037 17.8248 39.7237C24.5928 35.4909 21.0727 29.4345 23.8671 20.9933C25.4373 16.25 32.8293 7.74434 51.0574 6.63331C71.6012 5.38114 100 25.8867 100 55.0237Z" fill="#F1F9FF"/>
<rect x="24.3488" y="41.9887" width="51.113" height="28.9597" rx="2.0614" fill="#0F4071"/>
<g filter="url(#filter0_d)">
<path d="M29.6302 19.4912C29.6302 18.3527 30.5532 17.4298 31.6917 17.4298H57.7669L70.6629 31.8836V67.8739C70.6629 69.0124 69.74 69.9353 68.6015 69.9353H31.6917C30.5532 69.9353 29.6302 69.0123 29.6302 67.8739V19.4912Z" fill="white"/>
<path d="M56.9424 18.2544V29.8222C56.9424 31.416 58.2345 32.7081 59.8283 32.7081H69.8384V67.8739C69.8384 68.557 69.2846 69.1107 68.6015 69.1107H31.6917C31.0086 69.1107 30.4548 68.557 30.4548 67.8739V19.4912C30.4548 18.8081 31.0086 18.2544 31.6917 18.2544H56.9424ZM58.5915 29.8222V19.5925L68.8222 31.059H59.8283C59.1453 31.059 58.5915 30.5053 58.5915 29.8222Z" stroke="white" stroke-width="1.64912"/>
</g>
<path d="M70.6482 31.4936L57.91 17.8463V29.8444C57.91 30.7552 58.6483 31.4936 59.5591 31.4936H70.6482Z" fill="#8BB3EA"/>
<line x1="37.4891" y1="25.868" x2="52.253" y2="25.868" stroke="#586C8F" stroke-width="1.64912" stroke-linecap="round"/>
<line x1="37.4891" y1="38.8469" x2="45.805" y2="38.8469" stroke="#586C8F" stroke-width="1.64912" stroke-linecap="round"/>
<line x1="50.9711" y1="38.8469" x2="63.3903" y2="38.8469" stroke="#586C8F" stroke-width="1.64912" stroke-linecap="round"/>
<line x1="37.4891" y1="45.3364" x2="49.9083" y2="45.3364" stroke="#586C8F" stroke-width="1.64912" stroke-linecap="round"/>
<line x1="37.4891" y1="30.5877" x2="42.8741" y2="30.5877" stroke="#586C8F" stroke-width="1.64912" stroke-linecap="round"/>
<path d="M71.0492 82.5702H28.2756C26.3307 82.5702 24.6503 81.2109 24.2439 79.3089L20.144 60.1219C19.5957 57.556 21.552 55.1376 24.1758 55.1376H44.9887C45.8643 55.1376 46.7172 54.8588 47.4238 54.3416L54.9209 48.8541C55.6274 48.337 56.4803 48.0582 57.356 48.0582H75.9566C78.537 48.0582 80.4832 50.4017 80.0093 52.9382L75.1018 79.2045C74.7373 81.1557 73.0341 82.5702 71.0492 82.5702Z" fill="#FFD064"/>
<path d="M71.0183 82.5702H28.251C26.3172 82.5702 24.6433 81.2262 24.2255 79.3381L23.681 76.8774C23.1115 74.3036 25.0704 71.8638 27.7065 71.8638H41.7014C42.5771 71.8638 43.43 71.5851 44.1365 71.0679L51.6336 65.5804C52.3402 65.0632 53.1931 64.7845 54.0687 64.7845H72.7137C75.2793 64.7845 77.2218 67.1026 76.7729 69.6286L75.0775 79.1687C74.7278 81.1366 73.017 82.5702 71.0183 82.5702Z" fill="#FFD064"/>
<defs>
<filter id="filter0_d" x="20.1478" y="7.53509" width="60.8221" height="72.2949" filterUnits="userSpaceOnUse" color-interpolation-filters="sRGB">
<feFlood flood-opacity="0" result="BackgroundImageFix"/>
<feColorMatrix in="SourceAlpha" type="matrix" values="0 0 0 0 0 0 0 0 0 0 0 0 0 0 0 0 0 0 127 0"/>
<feOffset dx="0.412281"/>
<feGaussianBlur stdDeviation="4.94737"/>
<feColorMatrix type="matrix" values="0 0 0 0 0.305882 0 0 0 0 0.768627 0 0 0 0 0.976471 0 0 0 0.16 0"/>
<feBlend mode="normal" in2="BackgroundImageFix" result="effect1_dropShadow"/>
<feBlend mode="normal" in="SourceGraphic" in2="effect1_dropShadow" result="shape"/>
</filter>
</defs>
</svg>
