<svg width="100" height="100" viewBox="0 0 100 100" fill="none" xmlns="http://www.w3.org/2000/svg">
<path fill-rule="evenodd" clip-rule="evenodd" d="M13.7098 35.3949C14.783 34.4517 16.389 34 18 34H23.0006V56H12V39.5455C12 37.752 12.6275 36.3462 13.7098 35.3949ZM14.3701 36.146C13.532 36.8826 13.0001 37.9996 13.0001 39.5455V55H22.0005V35H18C16.5673 35 15.2173 35.4013 14.3701 36.146Z" fill="#333333"/>
<path fill-rule="evenodd" clip-rule="evenodd" d="M75 34H81C83.7221 34 86 36.2016 86 39V49H75V34ZM76 35V48H85V39C85 36.9162 83.2021 35 81 35H76Z" fill="#333333"/>
<path fill-rule="evenodd" clip-rule="evenodd" d="M22 55V34H17C14 34 12 36.827 12 39V55H22Z" fill="white" fill-opacity="0.6"/>
<path d="M22 9H66.5L76 19.5V54H22V9Z" fill="#333333"/>
<path d="M22 9H66.5L76 19.5V54H22V9Z" fill="white" fill-opacity="0.88"/>
<path d="M65.5 8.5L76 19.5H65.5V8.5Z" fill="#E07751"/>
<path fill-rule="evenodd" clip-rule="evenodd" d="M22 8H66L76 18.9999V48.7857H75.0182L75 18.9999L66 9H23L22.9818 55H40.885V56H22V8Z" fill="#333333"/>
<path fill-rule="evenodd" clip-rule="evenodd" d="M65.3197 8.03366C65.5124 7.95917 65.731 8.01084 65.87 8.16368L75.87 19.1637C76.0031 19.3101 76.0373 19.5213 75.9573 19.7023C75.8772 19.8833 75.6979 20 75.5 20H65.5C65.2239 20 65 19.7761 65 19.5V8.50002C65 8.29345 65.127 8.10815 65.3197 8.03366ZM66 9.42188L66 19H74.6875L66 9.42188Z" fill="#333333"/>
<path fill-rule="evenodd" clip-rule="evenodd" d="M76 34V48H86V38.5604C86 35.2337 84.0124 34 81.1139 34H76Z" fill="white" fill-opacity="0.6"/>
<path fill-rule="evenodd" clip-rule="evenodd" d="M47.487 48.4669L42.3431 54.1905H12.583C10.125 54.1905 7.74837 55.9137 8.02148 57.7024L13.2106 87.6978C13.4837 89.4865 15.2589 91 17.7169 91H83.5368C85.9949 91 87.9066 89.4865 88.0432 87.6978L91.9724 49.6964C92 48.5 91.0526 47 89.0463 47H50.9859C49.6483 47 48.4429 47.5038 47.487 48.4669Z" fill="#E07751"/>
<path d="M48 14.9524H29V33.0476H48V14.9524Z" fill="#333333"/>
<path d="M48 14.9524H29V33.0476H48V14.9524Z" fill="white" fill-opacity="0.88"/>
<path fill-rule="evenodd" clip-rule="evenodd" d="M29 33.0472L35.5 26.8568L39 30.1901L44.2927 23.5234L48 29.0372V33.0472" fill="#E0E0E0"/>
<path fill-rule="evenodd" clip-rule="evenodd" d="M28 15C28 14.474 28.4477 14 29 14H48C48.5523 14 49 14.474 49 15V33C49 33.526 48.5523 34 48 34H29C28.4477 34 28 33.526 28 33V15ZM48 15.0312V33H29V15L48 15.0312Z" fill="#333333"/>
<path fill-rule="evenodd" clip-rule="evenodd" d="M29.0096 32.9951H48V29.0377L44.3252 23.5239L39.1951 30.7801L35.3456 27.2283L29.0096 32.9951ZM39.0329 29.3044L36.0415 26.5443C35.6545 26.1873 35.0401 26.1864 34.652 26.5423L28.3064 32.3617C27.9085 32.7265 27.8966 33.3294 28.2797 33.7083C28.6627 34.0872 29.2958 34.0986 29.6936 33.7337L29.9224 33.5239H47.1338C47.3067 33.8086 47.6299 34.0001 48 34.0001C48.5523 34.0001 49 33.5737 49 33.0477V29.0377C49 28.8569 48.946 28.6799 48.8443 28.5273L45.1695 23.0135C44.9886 22.7421 44.6762 22.576 44.3387 22.5716C44.0012 22.5673 43.6842 22.7254 43.4957 22.992L39.0329 29.3044Z" fill="#333333"/>
<path fill-rule="evenodd" clip-rule="evenodd" d="M28 39.5064C28 39.2445 28.2239 39.0322 28.5 39.0322H70.5C70.7761 39.0322 71 39.2445 71 39.5064C71 39.7682 70.7761 39.9805 70.5 39.9805H28.5C28.2239 39.9805 28 39.7682 28 39.5064Z" fill="#333333"/>
<path fill-rule="evenodd" clip-rule="evenodd" d="M53.5 18.5C53.5 18.2239 53.7239 18 54 18H60C60.2761 18 60.5 18.2239 60.5 18.5C60.5 18.7761 60.2761 19 60 19H54C53.7239 19 53.5 18.7761 53.5 18.5Z" fill="#333333"/>
<path fill-rule="evenodd" clip-rule="evenodd" d="M53.5 23.5C53.5 23.2239 53.7239 23 54 23H70C70.2761 23 70.5 23.2239 70.5 23.5C70.5 23.7761 70.2761 24 70 24H62H54C53.7239 24 53.5 23.7761 53.5 23.5Z" fill="#333333"/>
<path fill-rule="evenodd" clip-rule="evenodd" d="M53.5 28.5C53.5 28.2239 53.7239 28 54 28H70C70.2761 28 70.5 28.2239 70.5 28.5C70.5 28.7761 70.2761 29 70 29H54C53.7239 29 53.5 28.7761 53.5 28.5Z" fill="#333333"/>
<path fill-rule="evenodd" clip-rule="evenodd" d="M28.2188 44.5039C28.2188 44.2278 28.4426 44.0039 28.7187 44.0039H40.7187C40.9949 44.0039 41.2187 44.2278 41.2187 44.5039C41.2187 44.78 40.9949 45.0039 40.7187 45.0039H28.7187C28.4426 45.0039 28.2188 44.78 28.2188 44.5039Z" fill="#333333"/>
<path d="M36 19.5566C36 20.6612 35.1046 21.5566 34 21.5566C32.8954 21.5566 32 20.6612 32 19.5566C32 18.4521 32.8954 17.5566 34 17.5566C35.1046 17.5566 36 18.4521 36 19.5566Z" fill="url(#paint0_linear_18489_136479)"/>
<path fill-rule="evenodd" clip-rule="evenodd" d="M42.8762 55.0178H12.6036C10.4475 55.0178 8.66779 56.3477 9.08741 58.962L14.0985 88.4654L14.0999 88.475C14.2885 89.7359 15.5736 91 17.6246 91H83.5758C85.6936 91 87.0065 89.6944 87.0922 88.5482L87.0932 88.5355L91.0167 49.5672C91.0167 49.5672 91.0167 48 89.0232 48H50.9599C49.9045 48 48.96 48.3953 48.1892 49.1799L42.8762 55.0178ZM47.4541 48.5002L42.4231 54.0178H12.6036C10.1407 54.0178 7.39939 55.4389 8.11581 59.0233L13.1092 88.6227C13.3829 90.4521 15.1617 92 17.6246 92H83.5758C86.0387 92 87.9543 90.4521 88.0911 88.6227L92 49.7577C92 49.7577 92 47 89.0232 47H50.9599C49.6197 47 48.4119 47.5152 47.4541 48.5002Z" fill="#333333"/>
<defs>
<linearGradient id="paint0_linear_18489_136479" x1="34" y1="17.5566" x2="34" y2="21.5566" gradientUnits="userSpaceOnUse">
<stop stop-color="#FF8E3D"/>
<stop offset="1" stop-color="#FF6F3D"/>
</linearGradient>
</defs>
</svg>
