<svg width="100" height="100" viewBox="0 0 100 100" fill="none" xmlns="http://www.w3.org/2000/svg">
<path fill-rule="evenodd" clip-rule="evenodd" d="M22 55V34H17C14 34 12 36.827 12 39V55H22Z" fill="#CCE9FF"/>
<path d="M22 9.00012H66.5L76 19.5001V54.0001H22V9.00012Z" fill="white"/>
<path d="M65.5 8.5L76 19.5H65.5V8.5Z" fill="url(#paint0_linear)"/>
<path fill-rule="evenodd" clip-rule="evenodd" d="M22 8.00012H66L76 19V48.7858H75.0182L75 19L66 9.00012H23L22.9818 55.0001H40.885V56.0001H22V8.00012Z" fill="#333333"/>
<path fill-rule="evenodd" clip-rule="evenodd" d="M65.3197 8.03366C65.5124 7.95917 65.731 8.01084 65.87 8.16368L75.87 19.1637C76.0031 19.3101 76.0373 19.5213 75.9573 19.7023C75.8772 19.8833 75.6979 20 75.5 20H65.5C65.2239 20 65 19.7761 65 19.5V8.50002C65 8.29345 65.127 8.10815 65.3197 8.03366ZM66 9.79332V19H74.3697L66 9.79332Z" fill="#333333"/>
<path fill-rule="evenodd" clip-rule="evenodd" d="M13.7098 35.3949C14.783 34.4517 16.389 34 18 34H23.0006V56H12V39.5455C12 37.752 12.6275 36.3462 13.7098 35.3949ZM14.3701 36.146C13.532 36.8826 13.0001 37.9996 13.0001 39.5455V55H22.0005V35H18C16.5673 35 15.2173 35.4013 14.3701 36.146Z" fill="#333333"/>
<path fill-rule="evenodd" clip-rule="evenodd" d="M76 34V48H86V38.5604C86 35.2337 84.0124 34 81.1139 34H76Z" fill="#CCE9FF"/>
<path fill-rule="evenodd" clip-rule="evenodd" d="M75 34H81C83.7221 34 86 36.2016 86 39V49H75V34ZM76 35V48H85V39C85 36.9162 83.2021 35 81 35H76Z" fill="#333333"/>
<path fill-rule="evenodd" clip-rule="evenodd" d="M47.487 48.467L42.3431 54.1906H12.583C10.125 54.1906 7.74837 55.9138 8.02148 57.7026L13.2106 87.6979C13.4837 89.4866 15.2589 91.0001 17.7169 91.0001H83.5369C85.9949 91.0001 87.9066 89.4866 88.0432 87.6979L91.9724 49.6966C92.1954 48.573 91.0526 47.0001 89.0463 47.0001H50.9859C49.6483 47.0001 48.4429 47.5039 47.487 48.467Z" fill="url(#paint1_linear)"/>
<path fill-rule="evenodd" clip-rule="evenodd" d="M42.8762 55.0178H12.6036C10.4475 55.0178 8.66779 56.3477 9.08741 58.962L14.0985 88.4654L14.0999 88.475C14.2885 89.7359 15.5736 91 17.6246 91H83.5758C85.6936 91 87.0065 89.6944 87.0922 88.5482L87.0932 88.5355L91.0167 49.5672C91.0167 49.5672 91.0167 48 89.0232 48H50.9599C49.9045 48 48.96 48.3953 48.1892 49.1799L42.8762 55.0178ZM47.4541 48.5002L42.4231 54.0178H12.6036C10.1407 54.0178 7.39939 55.4389 8.11581 59.0233L13.1092 88.6227C13.3829 90.4521 15.1617 92 17.6246 92H83.5758C86.0387 92 87.9543 90.4521 88.0911 88.6227L92 49.7577C92 49.7577 92 47 89.0232 47H50.9599C49.6197 47 48.4119 47.5152 47.4541 48.5002Z" fill="#333333"/>
<path d="M48 14.9523H29V33.0475H48V14.9523Z" fill="white"/>
<path fill-rule="evenodd" clip-rule="evenodd" d="M29 33.0477L35.5 26.8573L39 30.1906L44.2927 23.5239L48 29.0377V33.0477" fill="#E0E0E0"/>
<path fill-rule="evenodd" clip-rule="evenodd" d="M28 15C28 14.474 28.4477 14 29 14H48C48.5523 14 49 14.474 49 15V33C49 33.526 48.5523 34 48 34H29C28.4477 34 28 33.526 28 33V15ZM48 15.0312V33H29V15L48 15.0312Z" fill="#333333"/>
<path fill-rule="evenodd" clip-rule="evenodd" d="M29.0096 32.995H48V29.0375L44.3252 23.5238L39.1951 30.78L35.3456 27.2282L29.0096 32.995ZM39.0329 29.3043L36.0415 26.5442C35.6545 26.1872 35.0401 26.1863 34.652 26.5422L28.3064 32.3616C27.9085 32.7264 27.8966 33.3293 28.2797 33.7082C28.6627 34.0871 29.2958 34.0985 29.6936 33.7336L29.9224 33.5238H47.1338C47.3067 33.8084 47.6299 34 48 34C48.5523 34 49 33.5736 49 33.0476V29.0375C49 28.8568 48.946 28.6798 48.8443 28.5272L45.1695 23.0134C44.9886 22.742 44.6762 22.5758 44.3387 22.5715C44.0012 22.5672 43.6842 22.7252 43.4957 22.9919L39.0329 29.3043Z" fill="#333333"/>
<path fill-rule="evenodd" clip-rule="evenodd" d="M28 39.5067C28 39.2449 28.2239 39.0326 28.5 39.0326H70.5C70.7761 39.0326 71 39.2449 71 39.5067C71 39.7686 70.7761 39.9809 70.5 39.9809H28.5C28.2239 39.9809 28 39.7686 28 39.5067Z" fill="#333333"/>
<path fill-rule="evenodd" clip-rule="evenodd" d="M53.5 18.5C53.5 18.2239 53.7239 18 54 18H60C60.2761 18 60.5 18.2239 60.5 18.5C60.5 18.7761 60.2761 19 60 19H54C53.7239 19 53.5 18.7761 53.5 18.5Z" fill="#333333"/>
<path fill-rule="evenodd" clip-rule="evenodd" d="M53.5 23.5C53.5 23.2239 53.7239 23 54 23H70C70.2761 23 70.5 23.2239 70.5 23.5C70.5 23.7761 70.2761 24 70 24H62H54C53.7239 24 53.5 23.7761 53.5 23.5Z" fill="#333333"/>
<path fill-rule="evenodd" clip-rule="evenodd" d="M53.5 28.5C53.5 28.2239 53.7239 28 54 28H70C70.2761 28 70.5 28.2239 70.5 28.5C70.5 28.7761 70.2761 29 70 29H54C53.7239 29 53.5 28.7761 53.5 28.5Z" fill="#333333"/>
<path fill-rule="evenodd" clip-rule="evenodd" d="M28.2183 44.5037C28.2183 44.2275 28.4421 44.0037 28.7183 44.0037H40.7183C40.9944 44.0037 41.2183 44.2275 41.2183 44.5037C41.2183 44.7798 40.9944 45.0037 40.7183 45.0037H28.7183C28.4421 45.0037 28.2183 44.7798 28.2183 44.5037Z" fill="#333333"/>
<path d="M36 19.557C36 20.6616 35.1046 21.557 34 21.557C32.8954 21.557 32 20.6616 32 19.557C32 18.4524 32.8954 17.557 34 17.557C35.1046 17.557 36 18.4524 36 19.557Z" fill="url(#paint2_linear)"/>
<defs>
<linearGradient id="paint0_linear" x1="65.5" y1="8.07031" x2="76.5077" y2="18.9881" gradientUnits="userSpaceOnUse">
<stop stop-color="#FFC671"/>
<stop offset="0.59375" stop-color="#FF7541"/>
<stop offset="1" stop-color="#FF6F3D"/>
</linearGradient>
<linearGradient id="paint1_linear" x1="8.12453" y1="55.5389" x2="48.0634" y2="118.763" gradientUnits="userSpaceOnUse">
<stop stop-color="#FFC671"/>
<stop offset="0.652615" stop-color="#FF8657"/>
</linearGradient>
<linearGradient id="paint2_linear" x1="34" y1="17.557" x2="34" y2="21.557" gradientUnits="userSpaceOnUse">
<stop stop-color="#FF8E3D"/>
<stop offset="1" stop-color="#FF6F3D"/>
</linearGradient>
</defs>
</svg>
