<svg width="170" height="56" viewBox="0 0 170 56" fill="none" xmlns="http://www.w3.org/2000/svg">
<path d="M40.1157 27.6606C40.1296 26.5824 40.416 25.5252 40.9483 24.5874C41.4806 23.6496 42.2414 22.8616 43.16 22.2969C42.5764 21.4634 41.8066 20.7775 40.9115 20.2937C40.0165 19.8098 39.021 19.5413 38.0041 19.5095C35.8348 19.2818 33.7317 20.8076 32.6263 20.8076C31.4995 20.8076 29.7975 19.5321 27.9647 19.5698C26.7792 19.6081 25.6239 19.9528 24.6112 20.5704C23.5986 21.188 22.7632 22.0573 22.1864 23.0938C19.688 27.4194 21.5516 33.7766 23.9449 37.2731C25.1423 38.9852 26.5417 40.8977 28.3728 40.8299C30.1647 40.7556 30.8339 39.6873 32.9968 39.6873C35.1396 39.6873 35.7675 40.8299 37.6358 40.7868C39.5585 40.7556 40.77 39.067 41.9253 37.3387C42.7857 36.1187 43.4477 34.7704 43.8869 33.3437C42.7698 32.8712 41.8166 32.0804 41.1459 31.0698C40.4753 30.0592 40.117 28.8735 40.1157 27.6606V27.6606Z" fill="white"/>
<path d="M36.5868 17.21C37.6352 15.9515 38.1517 14.3339 38.0266 12.7007C36.425 12.8689 34.9455 13.6344 33.883 14.8446C33.3635 15.4359 32.9656 16.1237 32.7121 16.8688C32.4585 17.6139 32.3544 18.4016 32.4055 19.187C33.2066 19.1952 33.9991 19.0216 34.7234 18.6792C35.4477 18.3367 36.0848 17.8344 36.5868 17.21Z" fill="white"/>
<path d="M62.766 36.4956H56.6512L55.1828 40.8316H52.5928L58.3846 24.7896H61.0755L66.8673 40.8316H64.2332L62.766 36.4956ZM57.2845 34.4948H62.1315L59.7421 27.4578H59.6752L57.2845 34.4948Z" fill="white"/>
<path d="M79.3756 34.9844C79.3756 38.6189 77.4303 40.9541 74.4947 40.9541C73.751 40.993 73.0114 40.8217 72.3606 40.4598C71.7098 40.0979 71.174 39.56 70.8147 38.9078H70.7591V44.7009H68.3584V29.1358H70.6822V31.0811H70.7264C71.1023 30.432 71.6471 29.8969 72.3028 29.5328C72.9586 29.1687 73.7008 28.9892 74.4505 29.0134C77.4189 29.0134 79.3756 31.3599 79.3756 34.9844ZM76.908 34.9844C76.908 32.6164 75.6843 31.0596 73.8172 31.0596C71.9829 31.0596 70.7491 32.6492 70.7491 34.9844C70.7491 37.341 71.9829 38.9192 73.8172 38.9192C75.6843 38.9192 76.908 37.3738 76.908 34.9844Z" fill="white"/>
<path d="M92.2486 34.9843C92.2486 38.6189 90.3032 40.954 87.3676 40.954C86.6239 40.9929 85.8844 40.8216 85.2335 40.4597C84.5827 40.0979 84.047 39.56 83.6876 38.9078H83.6321V44.7009H81.2313V29.1358H83.5551V31.0811H83.5993C83.9751 30.432 84.5199 29.8969 85.1757 29.5328C85.8315 29.1687 86.5737 28.9892 87.3234 29.0134C90.2919 29.0134 92.2486 31.3599 92.2486 34.9843ZM89.7809 34.9843C89.7809 32.6164 88.5572 31.0596 86.6901 31.0596C84.8558 31.0596 83.622 32.6492 83.622 34.9843C83.622 37.3409 84.8558 38.9192 86.6901 38.9192C88.5572 38.9192 89.781 37.3737 89.781 34.9843H89.7809Z" fill="white"/>
<path d="M100.757 36.362C100.935 37.9529 102.48 38.9974 104.592 38.9974C106.615 38.9974 108.071 37.9528 108.071 36.5184C108.071 35.2732 107.193 34.5277 105.114 34.0167L103.035 33.5159C100.089 32.8044 98.7217 31.4267 98.7217 29.1913C98.7217 26.4234 101.134 24.5222 104.559 24.5222C107.949 24.5222 110.273 26.4234 110.351 29.1913H107.927C107.782 27.5903 106.459 26.624 104.525 26.624C102.591 26.624 101.268 27.6017 101.268 29.0247C101.268 30.1589 102.113 30.8262 104.18 31.3371L105.948 31.7711C109.239 32.5495 110.607 33.8716 110.607 36.2181C110.607 39.2193 108.216 41.0991 104.414 41.0991C100.856 41.0991 98.4542 39.2635 98.2991 36.3619L100.757 36.362Z" fill="white"/>
<path d="M115.788 26.3679V29.1358H118.012V31.037H115.788V37.4848C115.788 38.4865 116.233 38.9532 117.211 38.9532C117.475 38.9486 117.739 38.9301 118.001 38.8977V40.7875C117.561 40.8696 117.115 40.9068 116.667 40.8985C114.299 40.8985 113.376 40.0091 113.376 37.7408V31.037H111.675V29.1358H113.376V26.3679H115.788Z" fill="white"/>
<path d="M119.3 34.9843C119.3 31.3044 121.468 28.9919 124.847 28.9919C128.238 28.9919 130.396 31.3043 130.396 34.9843C130.396 38.6744 128.25 40.9768 124.847 40.9768C121.446 40.9768 119.3 38.6744 119.3 34.9843ZM127.95 34.9843C127.95 32.46 126.793 30.9701 124.847 30.9701C122.902 30.9701 121.746 32.4713 121.746 34.9843C121.746 37.5188 122.902 38.9974 124.847 38.9974C126.793 38.9974 127.949 37.5188 127.949 34.9843H127.95Z" fill="white"/>
<path d="M132.375 29.1359H134.665V31.1266H134.72C134.875 30.5049 135.239 29.9554 135.752 29.5706C136.264 29.1858 136.893 28.9891 137.534 29.0135C137.81 29.0125 138.086 29.0426 138.356 29.1031V31.3487C138.007 31.2419 137.642 31.1929 137.277 31.2036C136.929 31.1894 136.581 31.2509 136.258 31.3838C135.935 31.5168 135.645 31.7179 135.408 31.9736C135.17 32.2292 134.99 32.5333 134.881 32.8648C134.772 33.1964 134.736 33.5477 134.776 33.8945V40.8318H132.375L132.375 29.1359Z" fill="white"/>
<path d="M149.425 37.3965C149.102 39.5197 147.034 40.9768 144.389 40.9768C140.986 40.9768 138.875 38.6971 138.875 35.0399C138.875 31.3712 140.998 28.9919 144.288 28.9919C147.524 28.9919 149.559 31.2148 149.559 34.7611V35.5836H141.298V35.7287C141.26 36.1591 141.314 36.5927 141.456 37.0007C141.599 37.4088 141.826 37.7818 142.124 38.0952C142.421 38.4085 142.782 38.6549 143.182 38.8181C143.582 38.9812 144.013 39.0574 144.444 39.0415C145.012 39.0947 145.581 38.9633 146.068 38.6669C146.554 38.3705 146.932 37.9249 147.145 37.3964L149.425 37.3965ZM141.309 33.9057H147.157C147.178 33.5187 147.12 33.1314 146.984 32.7681C146.849 32.4048 146.64 32.0734 146.371 31.7947C146.102 31.516 145.778 31.2959 145.419 31.1484C145.061 31.0008 144.676 30.9289 144.288 30.9373C143.897 30.9349 143.509 31.01 143.148 31.1583C142.786 31.3065 142.457 31.5249 142.18 31.8009C141.903 32.0769 141.684 32.405 141.534 32.7662C141.385 33.1275 141.308 33.5148 141.309 33.9057V33.9057Z" fill="white"/>
<path d="M45.5172 15.6968C45.5172 13.7617 46.5465 12.5664 48.2047 12.5664C48.8024 12.5368 49.3893 12.733 49.849 13.1161C50.3087 13.4992 50.6075 14.0411 50.6862 14.6343H49.7633C49.6859 14.2827 49.4874 13.9696 49.2025 13.7496C48.9176 13.5296 48.5644 13.4167 48.2047 13.4307C47.1334 13.4307 46.4635 14.3032 46.4635 15.6968C46.4635 17.0864 47.1334 17.9585 48.2086 17.9585C48.5552 17.9844 48.8999 17.8888 49.1836 17.6882C49.4674 17.4875 49.6723 17.1943 49.7633 16.8589H50.6862C50.5961 17.4379 50.2911 17.9618 49.8318 18.3258C49.3726 18.6898 48.7929 18.8673 48.2086 18.8227C46.5505 18.8227 45.5172 17.6279 45.5172 15.6968Z" fill="white"/>
<path d="M51.6999 16.4248C51.6716 16.1288 51.7054 15.8303 51.7992 15.5482C51.8931 15.2661 52.0448 15.0068 52.2448 14.7868C52.4447 14.5668 52.6884 14.3911 52.9603 14.2708C53.2321 14.1505 53.5261 14.0884 53.8234 14.0884C54.1207 14.0884 54.4147 14.1505 54.6865 14.2708C54.9584 14.3911 55.2021 14.5668 55.402 14.7868C55.602 15.0068 55.7537 15.2661 55.8476 15.5482C55.9414 15.8303 55.9752 16.1288 55.9469 16.4248C55.9758 16.721 55.9423 17.02 55.8487 17.3025C55.7551 17.585 55.6035 17.8448 55.4035 18.0652C55.2035 18.2857 54.9596 18.4618 54.6875 18.5823C54.4154 18.7029 54.121 18.7651 53.8234 18.7651C53.5258 18.7651 53.2314 18.7029 52.9593 18.5823C52.6872 18.4618 52.4433 18.2857 52.2433 18.0652C52.0433 17.8448 51.8917 17.585 51.7981 17.3025C51.7045 17.02 51.671 16.721 51.6999 16.4248V16.4248ZM55.0329 16.4248C55.0329 15.4487 54.5944 14.8779 53.8249 14.8779C53.0524 14.8779 52.6179 15.4487 52.6179 16.4248C52.6179 17.4087 53.0524 17.9751 53.8249 17.9751C54.5944 17.975 55.0329 17.4047 55.0329 16.4248H55.0329Z" fill="white"/>
<path d="M57.1393 14.1753H57.9948V14.8907H58.0612C58.1738 14.6337 58.3638 14.4184 58.6047 14.2746C58.8456 14.1308 59.1253 14.0657 59.4049 14.0884C59.624 14.0719 59.844 14.105 60.0486 14.1851C60.2532 14.2652 60.4372 14.3903 60.5868 14.5511C60.7365 14.712 60.8481 14.9044 60.9133 15.1142C60.9785 15.3241 60.9957 15.5459 60.9635 15.7632V18.6782H60.0748V15.9864C60.0748 15.2627 59.7604 14.9029 59.1032 14.9029C58.9544 14.8959 58.8059 14.9213 58.6678 14.9771C58.5298 15.0329 58.4054 15.1179 58.3033 15.2263C58.2012 15.3347 58.1237 15.4639 58.0762 15.605C58.0286 15.7462 58.0122 15.8959 58.028 16.044V18.6783H57.1393V14.1753Z" fill="white"/>
<path d="M63.984 14.0884C64.9967 14.0884 65.6588 14.5596 65.7457 15.3535H64.8932C64.8112 15.0229 64.4879 14.812 63.984 14.812C63.4879 14.812 63.111 15.0474 63.111 15.3989C63.111 15.6679 63.3385 15.8374 63.8268 15.9492L64.5748 16.1226C65.4313 16.3213 65.8326 16.6894 65.8326 17.3511C65.8326 18.1987 65.0426 18.7651 63.9674 18.7651C62.8961 18.7651 62.1979 18.2812 62.1188 17.4834H63.0085C63.0851 17.6733 63.2234 17.8319 63.401 17.9338C63.5786 18.0358 63.7853 18.075 63.9879 18.0454C64.5417 18.0454 64.9352 17.7974 64.9352 17.4375C64.9352 17.1689 64.7243 16.9951 64.2731 16.8877L63.4879 16.7056C62.6315 16.5029 62.235 16.1186 62.235 15.4487C62.235 14.6504 62.9665 14.0884 63.984 14.0884Z" fill="white"/>
<path d="M66.9547 13.4224L67.9928 12H69.0348L67.8727 13.4224H66.9547ZM67.0465 14.1753H67.9313V18.6782H67.0465V14.1753Z" fill="white"/>
<path d="M69.3151 19.1289H70.2242C70.2994 19.4555 70.6754 19.6665 71.275 19.6665C72.0153 19.6665 72.4537 19.3149 72.4537 18.7197V17.8554H72.3873C72.2479 18.0974 72.0444 18.296 71.7991 18.4295C71.5539 18.563 71.2765 18.6261 70.9977 18.6118C69.8483 18.6118 69.1373 17.7231 69.1373 16.375C69.1373 15.002 69.8561 14.1006 71.0065 14.1006C71.2923 14.0906 71.5754 14.1594 71.8247 14.2994C72.0741 14.4394 72.2802 14.6453 72.4205 14.8945H72.4908V14.1753H73.3424V18.7153C73.3424 19.7451 72.5358 20.3984 71.2623 20.3984C70.1373 20.3984 69.4098 19.894 69.3151 19.1289ZM72.4703 16.3706C72.4703 15.4736 72.0065 14.8989 71.2496 14.8989C70.485 14.8989 70.0553 15.4736 70.0553 16.3706C70.0553 17.268 70.485 17.8427 71.2496 17.8427C72.0114 17.8427 72.4703 17.2724 72.4703 16.3706V16.3706Z" fill="white"/>
<path d="M78.5549 18.6782H77.6984V17.9629H77.6281C77.5143 18.2225 77.3216 18.4397 77.0774 18.5836C76.8333 18.7276 76.55 18.7911 76.2677 18.7651C76.0499 18.7806 75.8314 18.7471 75.6283 18.6671C75.4251 18.5871 75.2425 18.4626 75.0937 18.3028C74.9449 18.1429 74.8338 17.9518 74.7685 17.7435C74.7033 17.5351 74.6855 17.3148 74.7165 17.0986V14.1753H75.6066V16.8672C75.6066 17.5947 75.8996 17.9424 76.5529 17.9424C76.7044 17.9568 76.8572 17.9371 77.0001 17.885C77.143 17.8328 77.2725 17.7493 77.3791 17.6407C77.4857 17.5322 77.5666 17.4011 77.6161 17.2573C77.6656 17.1134 77.6824 16.9603 77.6652 16.8091V14.1753H78.5549V18.6782Z" fill="white"/>
<path d="M83.7785 17.4625C83.6577 17.874 83.3961 18.23 83.0395 18.4682C82.6828 18.7063 82.2537 18.8115 81.8273 18.7652C81.5306 18.773 81.2358 18.7162 80.9633 18.5987C80.6908 18.4812 80.4472 18.3057 80.2493 18.0846C80.0513 17.8635 79.9039 17.6019 79.8172 17.3181C79.7305 17.0343 79.7067 16.735 79.7472 16.441C79.7077 16.1461 79.732 15.8462 79.8185 15.5615C79.905 15.2768 80.0517 15.0141 80.2485 14.791C80.4454 14.5679 80.6879 14.3897 80.9596 14.2685C81.2313 14.1473 81.5259 14.0859 81.8234 14.0885C83.0763 14.0885 83.8322 14.9445 83.8322 16.3585V16.6686H80.6525V16.7184C80.6386 16.8836 80.6593 17.0499 80.7135 17.2067C80.7676 17.3634 80.8539 17.5071 80.9668 17.6286C81.0797 17.7501 81.2167 17.8466 81.3691 17.912C81.5215 17.9774 81.6859 18.0102 81.8517 18.0084C82.0643 18.0339 82.2796 17.9956 82.4704 17.8984C82.6612 17.8012 82.8187 17.6494 82.923 17.4625L83.7785 17.4625ZM80.6525 16.0113H82.9269C82.9381 15.8602 82.9176 15.7084 82.8666 15.5657C82.8156 15.423 82.7354 15.2925 82.631 15.1826C82.5266 15.0728 82.4004 14.986 82.2605 14.9278C82.1205 14.8696 81.97 14.8413 81.8185 14.8448C81.6648 14.8429 81.5123 14.8717 81.3699 14.9297C81.2275 14.9876 81.0982 15.0735 80.9895 15.1822C80.8808 15.2909 80.795 15.4203 80.7372 15.5627C80.6793 15.7051 80.6505 15.8576 80.6525 16.0113V16.0113Z" fill="white"/>
<path d="M85.0665 12.4175H85.9552V18.6782H85.0665V12.4175Z" fill="white"/>
<path d="M87.1906 16.4248C87.1623 16.1288 87.1961 15.8303 87.29 15.5482C87.3838 15.2661 87.5356 15.0068 87.7355 14.7868C87.9355 14.5668 88.1792 14.3911 88.451 14.2708C88.7229 14.1505 89.0169 14.0884 89.3141 14.0884C89.6114 14.0884 89.9054 14.1505 90.1772 14.2708C90.4491 14.3911 90.6928 14.5668 90.8927 14.7868C91.0927 15.0068 91.2444 15.2661 91.3383 15.5482C91.4321 15.8303 91.466 16.1288 91.4377 16.4248C91.4665 16.721 91.4331 17.02 91.3395 17.3025C91.2459 17.585 91.0942 17.8448 90.8942 18.0652C90.6942 18.2857 90.4503 18.4618 90.1782 18.5823C89.9061 18.7029 89.6117 18.7651 89.3141 18.7651C89.0165 18.7651 88.7222 18.7029 88.45 18.5823C88.1779 18.4618 87.934 18.2857 87.734 18.0652C87.534 17.8448 87.3824 17.585 87.2888 17.3025C87.1952 17.02 87.1617 16.721 87.1906 16.4248V16.4248ZM90.5236 16.4248C90.5236 15.4487 90.0851 14.8779 89.3156 14.8779C88.5431 14.8779 88.1086 15.4487 88.1086 16.4248C88.1086 17.4087 88.5432 17.9751 89.3156 17.9751C90.0851 17.975 90.5236 17.4047 90.5236 16.4248H90.5236Z" fill="white"/>
<path d="M98.881 17.4625C98.7603 17.874 98.4987 18.23 98.142 18.4682C97.7853 18.7063 97.3562 18.8115 96.9298 18.7652C96.6332 18.773 96.3384 18.7162 96.0659 18.5987C95.7934 18.4812 95.5497 18.3057 95.3518 18.0846C95.1539 17.8635 95.0065 17.6019 94.9198 17.3181C94.8331 17.0343 94.8092 16.735 94.8498 16.441C94.8103 16.1461 94.8346 15.8462 94.9211 15.5615C95.0076 15.2768 95.1542 15.0141 95.3511 14.791C95.5479 14.5679 95.7904 14.3897 96.0621 14.2685C96.3338 14.1473 96.6284 14.0859 96.9259 14.0885C98.1789 14.0885 98.9347 14.9445 98.9347 16.3585V16.6686H95.7551V16.7184C95.7411 16.8836 95.7619 17.0499 95.816 17.2067C95.8701 17.3634 95.9564 17.5071 96.0693 17.6286C96.1823 17.7501 96.3193 17.8466 96.4717 17.912C96.6241 17.9774 96.7885 18.0102 96.9543 18.0084C97.1668 18.0339 97.3822 17.9956 97.573 17.8984C97.7637 17.8012 97.9213 17.6494 98.0256 17.4625L98.881 17.4625ZM95.755 16.0113H98.0295C98.0407 15.8602 98.0202 15.7084 97.9692 15.5657C97.9183 15.423 97.838 15.2925 97.7336 15.1826C97.6292 15.0728 97.503 14.986 97.3631 14.9278C97.2232 14.8696 97.0726 14.8413 96.9211 14.8448C96.7674 14.8429 96.6149 14.8717 96.4725 14.9297C96.3301 14.9876 96.2008 15.0735 96.0921 15.1822C95.9834 15.2909 95.8976 15.4203 95.8397 15.5627C95.7818 15.7051 95.7531 15.8576 95.7551 16.0113H95.755Z" fill="white"/>
<path d="M100.128 14.1753H100.984V14.8907H101.05C101.163 14.6337 101.353 14.4184 101.593 14.2746C101.834 14.1308 102.114 14.0657 102.394 14.0884C102.613 14.0719 102.833 14.105 103.037 14.1851C103.242 14.2652 103.426 14.3903 103.576 14.5511C103.725 14.712 103.837 14.9044 103.902 15.1142C103.967 15.3241 103.984 15.5459 103.952 15.7632V18.6782H103.064V15.9864C103.064 15.2627 102.749 14.9029 102.092 14.9029C101.943 14.8959 101.795 14.9213 101.657 14.9771C101.519 15.0329 101.394 15.1179 101.292 15.2263C101.19 15.3347 101.112 15.4639 101.065 15.605C101.017 15.7462 101.001 15.8959 101.017 16.044V18.6783H100.128V14.1753Z" fill="white"/>
<path d="M111.577 17.4625C111.457 17.874 111.195 18.23 110.838 18.4682C110.482 18.7063 110.053 18.8115 109.626 18.7652C109.329 18.773 109.035 18.7162 108.762 18.5987C108.49 18.4812 108.246 18.3057 108.048 18.0846C107.85 17.8635 107.703 17.6019 107.616 17.3181C107.529 17.0343 107.505 16.735 107.546 16.441C107.507 16.1461 107.531 15.8462 107.617 15.5615C107.704 15.2768 107.85 15.0141 108.047 14.791C108.244 14.5679 108.487 14.3897 108.758 14.2685C109.03 14.1473 109.325 14.0859 109.622 14.0885C110.875 14.0885 111.631 14.9445 111.631 16.3585V16.6686H108.451V16.7184C108.437 16.8836 108.458 17.0499 108.512 17.2067C108.566 17.3634 108.653 17.5071 108.766 17.6286C108.879 17.7501 109.016 17.8466 109.168 17.912C109.32 17.9774 109.485 18.0102 109.651 18.0084C109.863 18.0339 110.078 17.9956 110.269 17.8984C110.46 17.8012 110.618 17.6494 110.722 17.4625L111.577 17.4625ZM108.451 16.0113H110.726C110.737 15.8602 110.716 15.7084 110.665 15.5657C110.614 15.423 110.534 15.2925 110.43 15.1826C110.325 15.0728 110.199 14.986 110.059 14.9278C109.919 14.8696 109.769 14.8413 109.617 14.8448C109.464 14.8429 109.311 14.8717 109.169 14.9297C109.026 14.9876 108.897 15.0735 108.788 15.1822C108.68 15.2909 108.594 15.4203 108.536 15.5627C108.478 15.7051 108.449 15.8576 108.451 16.0113H108.451Z" fill="white"/>
<path d="M112.865 12.4175H113.754V18.6782H112.865V12.4175Z" fill="white"/>
<rect x="0.5" y="0.5" width="169" height="55" rx="2.5" stroke="white"/>
</svg>
