<svg width="170" height="56" viewBox="0 0 170 56" fill="none" xmlns="http://www.w3.org/2000/svg">
<path d="M127.509 38.1913H129.534V24.9772H127.509V38.1913ZM145.748 29.7372L143.427 35.4662H143.357L140.948 29.7372H138.767L142.38 37.7445L140.32 42.1985H142.433L148 29.7372H145.748ZM134.264 36.6905C133.6 36.6905 132.676 36.3676 132.676 35.5682C132.676 34.5483 133.828 34.1573 134.822 34.1573C135.713 34.1573 136.131 34.3443 136.673 34.5996C136.515 35.8234 135.433 36.6905 134.264 36.6905V36.6905ZM134.509 29.4482C133.043 29.4482 131.524 30.0774 130.896 31.4714L132.693 32.2022C133.077 31.4714 133.792 31.2332 134.543 31.2332C135.591 31.2332 136.655 31.8455 136.673 32.9335V33.0693C136.306 32.8653 135.521 32.5594 134.561 32.5594C132.624 32.5594 130.651 33.5961 130.651 35.5343C130.651 37.3024 132.239 38.4415 134.019 38.4415C135.381 38.4415 136.131 37.8465 136.603 37.1496H136.673V38.1695H138.627V33.1031C138.627 30.7575 136.83 29.4482 134.509 29.4482V29.4482ZM121.994 31.3458H119.114V26.8164H121.994C123.508 26.8164 124.367 28.0372 124.367 29.081C124.367 30.1051 123.508 31.3458 121.994 31.3458ZM121.942 24.9772H117.09V38.1913H119.114V33.185H121.942C124.186 33.185 126.392 31.6023 126.392 29.081C126.392 26.5599 124.186 24.9772 121.942 24.9772ZM95.4834 36.6929C94.0845 36.6929 92.9132 35.5521 92.9132 33.9851C92.9132 32.4017 94.0845 31.2435 95.4834 31.2435C96.8646 31.2435 97.9485 32.4017 97.9485 33.9851C97.9485 35.5521 96.8646 36.6929 95.4834 36.6929V36.6929ZM97.8086 30.4772H97.7386C97.2842 29.9494 96.4096 29.4726 95.3084 29.4726C93.0006 29.4726 90.8853 31.4478 90.8853 33.9851C90.8853 36.5055 93.0006 38.4639 95.3084 38.4639C96.4096 38.4639 97.2842 37.9869 97.7386 37.4423H97.8086V38.0893C97.8086 39.8096 96.8646 40.7291 95.3435 40.7291C94.1023 40.7291 93.333 39.8603 93.0179 39.1282L91.2524 39.8434C91.7594 41.0354 93.1057 42.5 95.3435 42.5C97.7212 42.5 99.7318 41.1374 99.7318 37.8168V29.7451H97.8086V30.4772ZM101.13 38.1913H103.158V24.9768H101.13V38.1913ZM106.148 33.832C106.096 32.0948 107.529 31.2096 108.561 31.2096C109.365 31.2096 110.047 31.601 110.274 32.1634L106.148 33.832ZM112.442 32.3335C112.058 31.3285 110.886 29.4726 108.491 29.4726C106.113 29.4726 104.138 31.2947 104.138 33.9682C104.138 36.4886 106.096 38.4639 108.718 38.4639C110.834 38.4639 112.058 37.2037 112.565 36.4716L110.991 35.4496C110.467 36.1991 109.75 36.6929 108.718 36.6929C107.686 36.6929 106.952 36.233 106.48 35.3307L112.651 32.8443L112.442 32.3335ZM63.2731 30.852V32.7592H67.9585C67.8186 33.832 67.4515 34.6152 66.8919 35.1602C66.2103 35.8246 65.1438 36.5567 63.2731 36.5567C60.3883 36.5567 58.1331 34.2919 58.1331 31.4821C58.1331 28.6723 60.3883 26.4072 63.2731 26.4072C64.8292 26.4072 65.9653 27.0034 66.8046 27.7697L68.1857 26.4245C67.0144 25.3344 65.4583 24.5 63.2731 24.5C59.3217 24.5 56 27.6335 56 31.4821C56 35.3307 59.3217 38.4639 63.2731 38.4639C65.4062 38.4639 67.0145 37.783 68.2731 36.5055C69.5669 35.2453 69.9691 33.4744 69.9691 32.0441C69.9691 31.601 69.9343 31.1927 69.864 30.852H63.2731ZM75.296 36.6929C73.8971 36.6929 72.6906 35.569 72.6906 33.9682C72.6906 32.3504 73.8971 31.2435 75.296 31.2435C76.6944 31.2435 77.9008 32.3504 77.9008 33.9682C77.9008 35.569 76.6944 36.6929 75.296 36.6929V36.6929ZM75.296 29.4726C72.7432 29.4726 70.6626 31.3627 70.6626 33.9682C70.6626 36.5567 72.7432 38.4639 75.296 38.4639C77.8483 38.4639 79.9289 36.5567 79.9289 33.9682C79.9289 31.3627 77.8483 29.4726 75.296 29.4726ZM85.4028 36.6929C84.0044 36.6929 82.7979 35.569 82.7979 33.9682C82.7979 32.3504 84.0044 31.2435 85.4028 31.2435C86.8013 31.2435 88.0077 32.3504 88.0077 33.9682C88.0077 35.569 86.8013 36.6929 85.4028 36.6929ZM85.4028 29.4726C82.8501 29.4726 80.7699 31.3627 80.7699 33.9682C80.7699 36.5567 82.8501 38.4639 85.4028 38.4639C87.9552 38.4639 90.0358 36.5567 90.0358 33.9682C90.0358 31.3627 87.9552 29.4726 85.4028 29.4726Z" fill="white"/>
<path d="M56.9371 19.4489H58.0823C58.827 19.4489 59.4175 19.2342 59.8537 18.8047C60.29 18.3756 60.5072 17.7736 60.5072 17C60.5072 16.2323 60.29 15.6325 59.8537 15.1996C59.4175 14.768 58.827 14.5512 58.0823 14.5512H56.9371V19.4489ZM56.1084 20.2466V13.7535H58.0823C59.0741 13.7535 59.8671 14.054 60.4631 14.656C61.0578 15.2572 61.3549 16.0383 61.3549 17C61.3549 17.9613 61.0578 18.7429 60.4631 19.344C59.8671 19.9461 59.0741 20.2466 58.0823 20.2466H56.1084Z" fill="white"/>
<path d="M56.9363 19.4491V19.5573H58.0815C58.846 19.5582 59.4701 19.3345 59.9281 18.8822C60.3888 18.4294 60.6148 17.7932 60.614 17.0002C60.6148 16.2131 60.3888 15.5785 59.9285 15.1228C59.4701 14.668 58.8464 14.4423 58.0815 14.4431H56.9363H56.8287V19.5573H56.9363V19.4491H57.0439V14.6596H58.0815C58.8065 14.6609 59.3637 14.8684 59.7777 15.2772L59.7773 15.2767C60.1891 15.6868 60.398 16.252 60.3988 17.0002C60.398 17.7544 60.1891 18.3217 59.7777 18.7275C59.3637 19.1342 58.8069 19.3396 58.0815 19.3409H56.9363V19.4491H57.0439H56.9363ZM56.1076 20.2468H56.2152V13.8619H58.0815C59.0523 13.8627 59.8112 14.1531 60.3862 14.7327C60.9594 15.3135 61.2457 16.0604 61.2465 17.0002C61.2457 17.9395 60.9594 18.6869 60.3858 19.2677C59.8113 19.8473 59.0523 20.1377 58.0815 20.1385H56.1076V20.2468H56.2152H56.1076V20.355H58.0815C59.0943 20.3558 59.9218 20.0451 60.5383 19.4207C61.1545 18.7989 61.4629 17.983 61.4616 17.0002C61.4629 16.0165 61.1545 15.2015 60.5383 14.5801C59.9218 13.9553 59.0943 13.6446 58.0815 13.6454H56V20.355H56.1076V20.2468Z" fill="white"/>
<path d="M62.5187 20.2466V13.7535H63.3474V20.2466H62.5187Z" fill="white"/>
<path d="M62.5186 20.2468H62.6262V13.8619H63.2398V20.1385H62.5186V20.2468H62.6262H62.5186V20.355H63.3473H63.4549V13.6454H62.5186H62.411V20.355H62.5186V20.2468Z" fill="white"/>
<path d="M66.6464 20.3918C66.1778 20.3918 65.7197 20.238 65.2721 19.9298C64.8232 19.6212 64.5304 19.1892 64.3926 18.6324L65.1502 18.3242C65.2406 18.681 65.4242 18.982 65.7042 19.2263C65.9844 19.4711 66.2976 19.5937 66.6464 19.5937C67.0065 19.5937 67.3154 19.4986 67.5709 19.3084C67.8264 19.1181 67.9534 18.8595 67.9534 18.5327C67.9534 18.1703 67.8264 17.8906 67.5709 17.694C67.3154 17.4974 66.9112 17.3148 66.3585 17.1453C65.7869 16.9644 65.3541 16.7297 65.0599 16.4423C64.7657 16.1552 64.6173 15.7883 64.6173 15.3406C64.6173 14.8748 64.8014 14.4702 65.168 14.1257C65.5348 13.7812 66.0126 13.6083 66.6014 13.6083C67.1486 13.6083 67.5933 13.7466 67.9353 14.0214C68.2783 14.2966 68.5006 14.5971 68.6027 14.9238L67.8462 15.2404C67.7916 15.0359 67.6584 14.8448 67.4449 14.6694C67.2314 14.4948 66.9566 14.4068 66.6191 14.4068C66.301 14.4068 66.0286 14.4956 65.8038 14.6745C65.5776 14.8528 65.4654 15.0748 65.4654 15.3406C65.4654 15.5824 65.5697 15.7866 65.7765 15.9527C65.9844 16.1188 66.2891 16.2689 66.6918 16.4017C67.0099 16.5049 67.2755 16.6042 67.4902 16.701C67.7033 16.7974 67.9198 16.9263 68.1383 17.0865C68.3581 17.2463 68.5228 17.4462 68.6342 17.6851C68.7455 17.9239 68.8015 18.2004 68.8015 18.5145C68.8015 18.829 68.7371 19.1101 68.6077 19.3578C68.4787 19.6064 68.3064 19.8026 68.0933 19.9475C67.8799 20.0925 67.6508 20.2029 67.4041 20.2785C67.157 20.3542 66.9048 20.3918 66.6464 20.3918" fill="white"/>
<path d="M66.6464 20.3918V20.2836C66.2018 20.2831 65.7664 20.1386 65.3331 19.8405C64.9052 19.5455 64.63 19.1405 64.4971 18.6066L64.3926 18.6324L64.4329 18.733L65.1905 18.4248L65.1502 18.3242L65.0461 18.3512C65.1411 18.7279 65.3382 19.0504 65.6332 19.3079L65.6336 19.3083C65.9299 19.5675 66.2719 19.7028 66.6464 19.7019C67.025 19.7023 67.36 19.6004 67.6348 19.3954C67.9156 19.1887 68.0631 18.8872 68.061 18.5326C68.0631 18.1454 67.9189 17.8237 67.6365 17.6081C67.3629 17.3985 66.9494 17.2137 66.39 17.0417H66.3909C65.8294 16.8645 65.4116 16.6358 65.1347 16.3644C64.862 16.0968 64.7262 15.7641 64.7249 15.3406C64.7262 14.9044 64.8931 14.534 65.2414 14.2047C65.5873 13.8809 66.0333 13.7173 66.6014 13.7164C67.1314 13.7169 67.5483 13.8492 67.8685 14.1058C68.1992 14.3717 68.406 14.6549 68.5001 14.9559L68.6027 14.9237L68.5616 14.8236L67.8046 15.1406L67.8462 15.2404L67.95 15.2125C67.8883 14.9804 67.7386 14.7707 67.5129 14.5855C67.2776 14.3924 66.9742 14.2981 66.6191 14.2985C66.2812 14.2981 65.9815 14.3945 65.737 14.5894L65.7374 14.589C65.4903 14.7822 65.3562 15.043 65.3578 15.3406C65.3562 15.6145 65.4819 15.8568 65.7092 16.0373L65.7097 16.0376C65.9332 16.2156 66.248 16.3691 66.6581 16.5044L66.6586 16.5048C66.9742 16.6066 67.2368 16.7051 67.4457 16.7998H67.4461C67.6513 16.8924 67.8614 17.0175 68.0748 17.1739H68.0753C68.2808 17.324 68.4329 17.5083 68.5367 17.7311C68.6405 17.9531 68.6939 18.213 68.6939 18.5144C68.6935 18.8146 68.633 19.0766 68.5127 19.3079C68.3905 19.5416 68.2307 19.723 68.0328 19.8578C67.8281 19.9969 67.6092 20.1026 67.3726 20.1749C67.1356 20.2476 66.8943 20.2836 66.6464 20.2836V20.3918V20.5C66.9154 20.5 67.1784 20.4607 67.4352 20.382C67.6924 20.3034 67.9315 20.188 68.1535 20.0375V20.037C68.3817 19.882 68.5665 19.671 68.7031 19.4081C68.8414 19.1435 68.9091 18.8437 68.9091 18.5144C68.9091 18.1877 68.8506 17.8948 68.7318 17.6389C68.6128 17.3841 68.435 17.1685 68.2014 16.9985L68.2018 16.9989C67.9782 16.835 67.7554 16.7022 67.534 16.6024L67.5331 16.602L67.5344 16.6024C67.3146 16.5026 67.0457 16.4025 66.7245 16.2985H66.7249C66.3299 16.1687 66.0357 16.022 65.8433 15.8681H65.8437C65.657 15.716 65.5747 15.5503 65.573 15.3406C65.5747 15.1064 65.6655 14.9234 65.8702 14.7593L65.8706 14.7589C66.0757 14.5966 66.3202 14.5154 66.6191 14.515C66.9385 14.5154 67.1855 14.5966 67.3768 14.7534L67.3781 14.7543L67.3768 14.753C67.5777 14.9187 67.6949 15.0907 67.7424 15.2687L67.7739 15.388L68.6439 15.0235L68.7347 14.9855L68.7052 14.8913C68.5956 14.5391 68.3568 14.2212 68.0025 13.9362C67.6378 13.6433 67.1658 13.4996 66.6014 13.5C65.9925 13.4991 65.4826 13.6814 65.0948 14.0466C64.7099 14.4063 64.509 14.8456 64.5097 15.3406C64.509 15.812 64.6699 16.2139 64.9851 16.5199C65.2965 16.8235 65.7445 17.0641 66.3261 17.2484H66.327C66.8729 17.4158 67.2684 17.5967 67.5058 17.7797C67.7336 17.9577 67.8437 18.1948 67.8458 18.5326C67.8437 18.8311 67.7369 19.0475 67.5071 19.2212C67.2713 19.3967 66.9881 19.485 66.6464 19.4855C66.3232 19.4846 66.0391 19.3746 65.7743 19.1447C65.5104 18.9131 65.3402 18.6345 65.2545 18.2975L65.2242 18.1775L64.3526 18.5322L64.2656 18.5672L64.2883 18.6586C64.4308 19.2373 64.7414 19.6968 65.2116 20.019C65.6731 20.3372 66.1539 20.5 66.6464 20.5V20.3918" fill="white"/>
<path d="M70.821 16.8182H72.2099C72.5587 16.8182 72.8382 16.7007 73.0483 16.4653C73.2585 16.229 73.363 15.9698 73.363 15.6854C73.363 15.4013 73.2585 15.1408 73.0483 14.9055C72.8382 14.6691 72.5587 14.5512 72.2099 14.5512H70.821V16.8182ZM70.821 20.2466H69.9917V13.7535H72.1918C72.7382 13.7535 73.2118 13.936 73.611 14.3017C74.0116 14.6674 74.2111 15.129 74.2111 15.6854C74.2111 16.2412 74.0116 16.702 73.611 17.0677C73.2118 17.4338 72.7382 17.6168 72.1918 17.6168H70.821V20.2466Z" fill="white"/>
<path d="M70.8209 16.8184V16.9266H72.2098C72.5818 16.9279 72.8986 16.7969 73.1281 16.5378C73.3529 16.2862 73.4714 15.997 73.4705 15.6856C73.4714 15.374 73.3529 15.0844 73.1281 14.8334C72.8986 14.5733 72.5822 14.4418 72.2098 14.4431H70.8209H70.7129V16.9266H70.8209V16.8184H70.9285V14.6596H72.2098C72.5346 14.6613 72.7771 14.7653 72.968 14.9778C73.1634 15.1982 73.255 15.4286 73.2554 15.6856C73.255 15.9426 73.1634 16.1721 72.968 16.3932C72.7771 16.6054 72.5351 16.709 72.2098 16.7102H70.8209V16.8184H70.9285H70.8209ZM70.8209 20.2468V20.1385H70.0992V13.8619H72.1918C72.7141 13.8627 73.157 14.0339 73.5386 14.3823C73.9178 14.7301 74.1023 15.155 74.1035 15.6856C74.1023 16.2152 73.9178 16.6396 73.5386 16.988C73.157 17.3367 72.7141 17.5079 72.1918 17.5087H70.8209H70.7129V20.2468H70.8209V20.1385V20.2468H70.9285V17.7252H72.1918C72.762 17.726 73.2668 17.5311 73.6837 17.1477C74.1052 16.7647 74.3199 16.2676 74.3186 15.6856C74.3199 15.103 74.1052 14.6054 73.6837 14.222C73.2668 13.839 72.762 13.6446 72.1918 13.6454H69.884V20.355H70.8209H70.9285V20.2468H70.8209Z" fill="white"/>
<path d="M76.4146 18.8641C76.8924 19.3507 77.4766 19.5937 78.1679 19.5937C78.8592 19.5937 79.4447 19.3507 79.9212 18.8641C80.3995 18.3776 80.639 17.7556 80.639 17.0003C80.639 16.2449 80.3995 15.623 79.9212 15.1364C79.4447 14.6499 78.8592 14.4068 78.1679 14.4068C77.4766 14.4068 76.8924 14.6499 76.4146 15.1364C75.9371 15.623 75.6981 16.2449 75.6981 17.0003C75.6981 17.7556 75.9371 18.3776 76.4146 18.8641ZM80.5352 19.4077C79.9002 20.0642 79.1114 20.3918 78.1679 20.3918C77.2244 20.3918 76.4351 20.0642 75.8018 19.4077C75.1672 18.752 74.8508 17.9494 74.8508 17.0003C74.8508 16.0512 75.1672 15.2484 75.8018 14.5929C76.4351 13.9363 77.2244 13.6083 78.1679 13.6083C79.1059 13.6083 79.8931 13.938 80.5306 14.5971C81.1672 15.2561 81.4858 16.0572 81.4858 17.0003C81.4858 17.9494 81.1685 18.752 80.5352 19.4077Z" fill="white"/>
<path d="M76.4145 18.8641L76.3376 18.9401C76.8335 19.4462 77.4512 19.7032 78.1679 19.7019C78.8844 19.7032 79.5034 19.4462 79.998 18.9401C80.4965 18.4337 80.7474 17.7784 80.7465 17.0002C80.7474 16.222 80.4965 15.5668 79.998 15.0603L79.9964 15.059L79.998 15.0603C79.5034 14.5543 78.8844 14.2972 78.1679 14.2985C77.4512 14.2972 76.8335 14.5543 76.3376 15.0603L76.3343 15.0641L76.3376 15.0603C75.84 15.5668 75.5891 16.222 75.5904 17.0002C75.5891 17.7784 75.84 18.4337 76.3376 18.9401L76.4145 18.8641L76.491 18.788C76.0345 18.3208 75.8063 17.7332 75.8056 17.0002C75.8063 16.2673 76.0345 15.6796 76.491 15.2125C76.9512 14.7454 77.5017 14.5163 78.1679 14.515C78.8339 14.5163 79.3853 14.7454 79.8447 15.2125C80.3023 15.6796 80.5306 16.2673 80.5313 17.0002C80.5306 17.7332 80.3023 18.3208 79.8447 18.788C79.3853 19.2551 78.8339 19.4842 78.1679 19.4855C77.5017 19.4842 76.9512 19.2551 76.491 18.788L76.4145 18.8641ZM80.5351 19.4076L80.4578 19.3324C79.8413 19.9682 79.0865 20.2823 78.1679 20.2836C77.2492 20.2823 76.4944 19.9682 75.8791 19.3324H75.8786C75.2633 18.6945 74.9595 17.9252 74.9583 17.0002C74.9595 16.0753 75.2633 15.306 75.8786 14.668H75.8791C76.4944 14.0322 77.2492 13.7177 78.1679 13.7164C79.0811 13.7177 79.8337 14.0335 80.4536 14.6727C81.0714 15.3135 81.3774 16.0817 81.3781 17.0002C81.3774 17.9252 81.0723 18.6945 80.4578 19.3324L80.5351 19.4076L80.612 19.4829C81.2647 18.8091 81.5942 17.9733 81.5933 17.0002C81.5942 16.0326 81.2634 15.1986 80.6078 14.5218C79.9523 13.8424 79.1311 13.4988 78.1679 13.5C77.1996 13.4988 76.3762 13.8408 75.7245 14.5176L75.7249 14.5171C75.0709 15.1913 74.7423 16.0271 74.7432 17.0002C74.7423 17.9733 75.0709 18.8091 75.7249 19.4833L75.7274 19.4863L75.7245 19.4829C76.3762 20.1597 77.1996 20.5009 78.1679 20.5C79.1361 20.5009 79.9594 20.1597 80.612 19.4829L80.5351 19.4076" fill="white"/>
<path d="M82.6499 20.2466V13.7535H83.6594L86.797 18.8047H86.8328L86.797 17.5534V13.7535H87.6267V20.2466H86.7613L83.4791 14.9506H83.4434L83.4791 16.2024V20.2466H82.6499Z" fill="white"/>
<path d="M82.6499 20.2468H82.7575V13.8619H83.6001L86.7374 18.9131H86.8328H86.9433L86.9042 17.5519L86.9047 13.8619H87.5191V20.1385H86.8205L83.5387 14.8426H83.4434H83.3324L83.3715 16.2038V20.1385H82.6499V20.2468H82.7575H82.6499V20.355H83.4791H83.5867V16.2008L83.5505 14.9479L83.4434 14.9508V15.059H83.4791V14.9508L83.3874 15.0083L86.7017 20.355H87.6267H87.7343V13.6454H86.7971H86.6895V17.5548L86.7252 18.8078L86.8328 18.8049V18.6966H86.7971V18.8049L86.8882 18.7474L83.719 13.6454H82.6499H82.5424V20.355H82.6499V20.2468Z" fill="white"/>
<path d="M89.1051 20.2466V13.7535H89.9343V20.2466H89.1051Z" fill="white"/>
<path d="M89.1051 20.2468H89.2127V13.8619H89.8267V20.1385H89.1051V20.2468H89.2127H89.1051V20.355H89.9343H90.0419V13.6454H89.1051H88.9976V20.355H89.1051V20.2468Z" fill="white"/>
<path d="M92.2411 19.4489H93.91C94.2281 19.4489 94.4865 19.3369 94.6854 19.1125C94.8838 18.8896 94.9825 18.6444 94.9825 18.3781C94.9825 18.1122 94.8803 17.8691 94.6757 17.6485C94.4719 17.4278 94.2037 17.3171 93.873 17.3171H92.2411V19.4489ZM92.2411 16.5372H93.7469C94.06 16.5372 94.3109 16.4336 94.5 16.2243C94.6896 16.0159 94.7841 15.7881 94.7841 15.5399C94.7841 15.2922 94.6925 15.0648 94.5084 14.8602C94.3256 14.6543 94.0844 14.5512 93.7835 14.5512H92.2411V16.5372ZM91.4124 20.2466V13.7535H93.7469C94.2524 13.7535 94.6896 13.9218 95.0593 14.2565C95.4292 14.5926 95.6142 15.014 95.6142 15.5218C95.6142 15.8299 95.5343 16.1021 95.3741 16.3381C95.2158 16.5739 95.0035 16.7523 94.7387 16.8732V16.9091C95.0573 17.0178 95.3187 17.2054 95.5238 17.4713C95.7272 17.7376 95.8302 18.0463 95.8302 18.3967C95.8302 18.9285 95.636 19.3698 95.248 19.7203C94.8606 20.0712 94.4025 20.2466 93.873 20.2466H91.4124Z" fill="white"/>
<path d="M92.2411 19.4491V19.5573H93.91C94.2529 19.5586 94.5483 19.4318 94.7657 19.1848H94.7652C94.9784 18.9468 95.0909 18.6721 95.0901 18.3783C95.0909 18.0841 94.9742 17.8105 94.7544 17.5747C94.5311 17.3316 94.2273 17.2078 93.873 17.2091H92.1336V19.5573H92.2411V19.4491H92.3487V17.4255H93.873C94.1807 17.4267 94.4127 17.5249 94.5972 17.7222C94.7871 17.9285 94.8741 18.1412 94.875 18.3783C94.8741 18.6171 94.7892 18.8328 94.6051 19.0407H94.6047C94.4248 19.242 94.2033 19.3391 93.91 19.3409H92.2411V19.4491H92.3487H92.2411ZM92.2411 16.5374V16.6456H93.7469C94.0831 16.6468 94.371 16.5301 94.5799 16.2972L94.5795 16.2977C94.7833 16.0744 94.8922 15.8165 94.8918 15.5401C94.8922 15.2654 94.7875 15.0083 94.5887 14.7877V14.7881C94.387 14.5589 94.1084 14.4418 93.7835 14.4431H92.1336V16.6456H92.2411V16.5374H92.3487V14.6596H93.7835C94.06 14.6613 94.2647 14.75 94.4286 14.9323V14.9327C94.5976 15.1221 94.6757 15.3199 94.6766 15.5401C94.6757 15.7595 94.5955 15.9582 94.4211 16.1513L94.4206 16.1518C94.2513 16.3374 94.037 16.4278 93.7469 16.4291H92.2411V16.5374H92.3487H92.2411ZM91.4124 20.2468H91.52V13.8619H93.7469C94.2286 13.8627 94.6349 14.0191 94.9872 14.3371C95.336 14.6558 95.5049 15.0409 95.5066 15.5219C95.5062 15.8115 95.4326 16.0597 95.2855 16.2773H95.2851C95.1372 16.4972 94.9426 16.6612 94.6942 16.7749L94.6312 16.8037V16.9093V16.9867L94.7043 17.0116C95.004 17.1148 95.2456 17.2881 95.4385 17.5379V17.5375C95.6281 17.7861 95.7222 18.0676 95.7226 18.3969C95.7214 18.9025 95.5432 19.307 95.1762 19.6402C94.8064 19.9737 94.379 20.1377 93.873 20.1385H91.4124V20.2468H91.52H91.4124V20.355H93.873C94.4261 20.3558 94.9149 20.1689 95.3204 19.8008C95.7289 19.4334 95.9394 18.9553 95.9378 18.3969C95.9386 18.0254 95.8268 17.6897 95.6087 17.4056V17.4052C95.3918 17.1237 95.1103 16.9215 94.7732 16.807L94.7388 16.9093H94.8464V16.8734H94.7388L94.7833 16.9719C95.0644 16.8438 95.2943 16.6514 95.4637 16.3986L95.4633 16.3991C95.6356 16.1451 95.7218 15.8487 95.7218 15.5219C95.723 14.988 95.5221 14.5298 95.1312 14.1764L95.1288 14.1743L95.1312 14.1764C94.7438 13.8242 94.276 13.6446 93.7469 13.6454H91.3048V20.355H91.4124V20.2468" fill="white"/>
<path d="M96.948 20.2466V13.7535H97.7772V19.4489H100.572V20.2466H96.948Z" fill="white"/>
<path d="M96.948 20.2468H97.0556V13.8619H97.6696V19.5573H100.464V20.1385H96.948V20.2468H97.0556H96.948V20.355H100.68V19.4491V19.3409H97.8848V13.6454H96.948H96.8405V20.355H96.948V20.2468Z" fill="white"/>
<path d="M105.387 14.5512H102.447V16.6099H105.098V17.3902H102.447V19.4489H105.387V20.2466H101.618V13.7535H105.387V14.5512" fill="white"/>
<path d="M105.387 14.5513V14.4431H102.339V16.7183H104.991V17.2818L102.339 17.2821V19.5573H105.28V20.1385H101.726V13.8619H105.28V14.5513H105.387V14.4431V14.5513H105.495V13.7537V13.6454H101.511V20.355H105.495V19.4491V19.3409H102.555V17.4986H105.206V16.6101V16.5019H102.555V14.6596H105.495V14.5513H105.387" fill="white"/>
<path d="M112.618 14.5512H109.678V16.6099H112.329V17.3902H109.678V19.4489H112.618V20.2466H108.849V13.7535H112.618V14.5512Z" fill="white"/>
<path d="M112.618 14.5513V14.4431H109.57V16.7183H112.221V17.2818L109.57 17.2821V19.5573H112.51V20.1385H108.957V13.8619H112.51V14.5513H112.618V14.4431V14.5513H112.726V13.7537V13.6454H108.742V20.355H112.726V19.4491V19.3409H109.785V17.4986H112.436V16.6101V16.5019H109.785V14.6596H112.726V14.5513H112.618" fill="white"/>
<path d="M113.916 20.2466V13.7535H114.925L118.062 18.8047H118.097L118.062 17.5534V13.7535H118.892V20.2466H118.026L114.744 14.9506H114.708L114.744 16.2024V20.2466H113.916" fill="white"/>
<path d="M113.915 20.2468H114.023V13.8619H114.865L118.003 18.9131H118.097H118.208L118.169 17.5519V13.8619H118.785V20.1385H118.086L114.804 14.8426H114.708H114.598L114.636 16.2038V20.1385H113.915V20.2468H114.023H113.915V20.355H114.744H114.851V16.2008L114.816 14.9479L114.708 14.9508V15.059H114.744V14.9508L114.652 15.0083L117.967 20.355H118.892H119V13.6454H118.062H117.954V17.5548L117.99 18.8078L118.097 18.8049V18.6966H118.062V18.8049L118.153 18.7474L114.985 13.6454H113.915H113.808V20.355H113.915V20.2468" fill="white"/>
<path d="M20 14V42L34 28L20 14Z" fill="url(#paint0_linear)"/>
<path d="M20 14V42L34 28L20 14Z" fill="url(#paint1_linear)"/>
<path d="M44.4845 27.0452L39.2 24L35 28L39.2 32L44.4845 28.7484C44.7938 28.5935 45 28.2323 45 27.871C45 27.5097 44.7938 27.2 44.4845 27.0452Z" fill="url(#paint2_linear)"/>
<path d="M44.4845 27.0452L39.2 24L35 28L39.2 32L44.4845 28.7484C44.7938 28.5935 45 28.2323 45 27.871C45 27.5097 44.7938 27.2 44.4845 27.0452Z" fill="url(#paint3_linear)"/>
<path d="M21 42L38.6 32.45L34.5 28.5L21 42Z" fill="url(#paint4_linear)"/>
<path d="M21 42L38.6 32.45L34.5 28.5L21 42Z" fill="url(#paint5_linear)"/>
<path d="M38.6 23.55L33.05 20.3L21 14L34.5 27.5L38.6 23.55Z" fill="url(#paint6_linear)"/>
<path d="M38.6 23.55L33.05 20.3L21 14L34.5 27.5L38.6 23.55Z" fill="url(#paint7_linear)"/>
<rect x="0.5" y="0.5" width="169" height="55" rx="2.5" stroke="white"/>
<defs>
<linearGradient id="paint0_linear" x1="27" y1="23.5" x2="20" y2="32" gradientUnits="userSpaceOnUse">
<stop stop-color="#00E2FF"/>
<stop offset="1" stop-color="#03C6F5"/>
</linearGradient>
<linearGradient id="paint1_linear" x1="32.8101" y1="40.7588" x2="13.8625" y2="22.5978" gradientUnits="userSpaceOnUse">
<stop stop-color="#00A0FF"/>
<stop offset="0.00657445" stop-color="#00A1FF"/>
<stop offset="0.2601" stop-color="#00BEFF"/>
<stop offset="0.5122" stop-color="#00D2FF"/>
<stop offset="0.7604" stop-color="#00DFFF"/>
<stop offset="1" stop-color="#00E3FF"/>
</linearGradient>
<linearGradient id="paint2_linear" x1="40" y1="24" x2="29.5" y2="24" gradientUnits="userSpaceOnUse">
<stop stop-color="#FFEA0D"/>
<stop offset="1" stop-color="#FFCF00"/>
</linearGradient>
<linearGradient id="paint3_linear" x1="45.759" y1="28.0695" x2="21.9536" y2="28.0695" gradientUnits="userSpaceOnUse">
<stop stop-color="#FFE000"/>
<stop offset="0.4087" stop-color="#FFBD00"/>
<stop offset="0.7754" stop-color="#FFA500"/>
<stop offset="1" stop-color="#FF9C00"/>
</linearGradient>
<linearGradient id="paint4_linear" x1="30" y1="28" x2="18.5" y2="39.5" gradientUnits="userSpaceOnUse">
<stop stop-color="#F73547"/>
<stop offset="1" stop-color="#E22652"/>
</linearGradient>
<linearGradient id="paint5_linear" x1="36.2636" y1="39.5906" x2="12.375" y2="15.4439" gradientUnits="userSpaceOnUse">
<stop stop-color="#FF3A44"/>
<stop offset="1" stop-color="#C31162"/>
</linearGradient>
<linearGradient id="paint6_linear" x1="36" y1="23.5" x2="21" y2="14" gradientUnits="userSpaceOnUse">
<stop stop-color="#2EF38F"/>
<stop offset="1" stop-color="#0EDE76"/>
</linearGradient>
<linearGradient id="paint7_linear" x1="17.598" y1="34.8109" x2="28.2656" y2="24.0452" gradientUnits="userSpaceOnUse">
<stop stop-color="#32A071"/>
<stop offset="0.0685" stop-color="#2DA771"/>
<stop offset="0.4762" stop-color="#15CF74"/>
<stop offset="0.8009" stop-color="#06E775"/>
<stop offset="1" stop-color="#00F076"/>
</linearGradient>
</defs>
</svg>
