<svg width="254" height="28" viewBox="0 0 254 28" fill="none" xmlns="http://www.w3.org/2000/svg">
<path fill-rule="evenodd" clip-rule="evenodd" d="M10.9721 23.7059L0.6589 18.7649C-0.219633 18.3335 -0.219633 17.6669 0.6589 17.2748L4.24943 15.5493L10.9339 18.7649C11.8125 19.1963 13.2257 19.1963 14.0661 18.7649L20.7506 15.5493L24.3411 17.2748C25.2196 17.7061 25.2196 18.3728 24.3411 18.7649L14.0279 23.7059C13.2257 24.0981 11.8125 24.0981 10.9721 23.7059Z" fill="#FF6F3D"/>
<path fill-rule="evenodd" clip-rule="evenodd" d="M10.9387 17.5916L0.656893 12.6448C-0.218964 12.213 -0.218964 11.5456 0.656893 11.153L4.16032 9.46478L10.9387 12.7234C11.8145 13.1552 13.2235 13.1552 14.0613 12.7234L20.8397 9.46478L24.3431 11.153C25.219 11.5848 25.219 12.2522 24.3431 12.6448L14.0613 17.5916C13.1855 18.0235 11.7765 18.0235 10.9387 17.5916Z" fill="#95C038"/>
<path fill-rule="evenodd" clip-rule="evenodd" d="M10.9387 11.5408L0.656893 6.66521C-0.218964 6.23956 -0.218964 5.58175 0.656893 5.1948L10.9387 0.319234C11.8145 -0.106411 13.2235 -0.106411 14.0613 0.319234L24.3431 5.1948C25.219 5.62044 25.219 6.27826 24.3431 6.66521L14.0613 11.5408C13.1855 11.9277 11.7765 11.9277 10.9387 11.5408Z" fill="#5DC0E8"/>
<path d="M31 12.9781C31 10.652 31.6789 8.89655 33.082 7.75549C34.4398 6.57053 36.0691 6 37.9248 6C39.7804 6 41.3645 6.57053 42.7223 7.75549C44.0801 8.94044 44.759 10.652 44.759 13.0219C44.759 15.348 44.0801 17.1034 42.7223 18.2445C41.3645 19.4295 39.7352 20 37.9248 20C36.0691 20 34.485 19.4295 33.082 18.2445C31.6789 17.0596 31 15.3041 31 12.9781ZM33.9872 12.9781C33.9872 14.6019 34.304 15.7429 34.8924 16.489C35.526 17.2351 36.2049 17.7179 36.9291 17.8934C37.1101 17.9373 37.2459 17.9812 37.4269 17.9812C37.5627 17.9812 37.7437 18.0251 37.8795 18.0251C38.0606 18.0251 38.1963 18.0251 38.3774 17.9812C38.5584 17.9812 38.6942 17.9373 38.8752 17.8934C39.5994 17.7179 40.2783 17.2351 40.8667 16.489C41.4551 15.7429 41.7719 14.558 41.7719 13.0219C41.7719 11.442 41.4551 10.3009 40.8667 9.55486C40.2783 8.80878 39.5994 8.32602 38.8752 8.15047C38.6942 8.10658 38.5132 8.0627 38.3774 8.0627C38.1963 8.0627 38.0606 8.01881 37.8795 8.01881C37.6985 8.01881 37.5627 8.01881 37.4269 8.0627C37.2911 8.0627 37.1101 8.10658 36.9291 8.15047C36.2049 8.32602 35.526 8.80878 34.8924 9.55486C34.304 10.2132 33.9872 11.3981 33.9872 12.9781Z" fill="#333333"/>
<path d="M46.8081 6H50.5561L55.4925 14.7949L56.2238 16.7244H56.2696L56.2238 14.2115V6H59.1034V20H55.3554L50.419 10.8462L49.6877 9.27564H49.642L49.6877 11.7436V20H46.8081V6Z" fill="#333333"/>
<path d="M61.7383 6H64.5985V17.6218H70.228V20H61.7383V6Z" fill="#333333"/>
<path d="M69.0575 6H72.3622L75.2595 10.891L75.7122 11.8782H75.8027L76.2554 10.891L79.1979 6H82.231L77.1155 14.3013V20H74.2635V14.2564L69.0575 6Z" fill="#333333"/>
<path d="M81.9376 12.9781C81.9376 10.652 82.6165 8.89655 84.0196 7.75549C85.3774 6.57053 87.0068 6 88.8624 6C90.7181 6 92.3022 6.57053 93.66 7.75549C95.0178 8.94044 95.6967 10.652 95.6967 13.0219C95.6967 15.348 95.0178 17.1034 93.66 18.2445C92.3022 19.4295 90.6728 20 88.8624 20C87.0068 20 85.4227 19.4295 84.0196 18.2445C82.6618 17.0596 81.9376 15.3041 81.9376 12.9781ZM84.9248 12.9781C84.9248 14.6019 85.2416 15.7429 85.83 16.489C86.4636 17.2351 87.0973 17.7179 87.8667 17.8934C88.0477 17.9373 88.1835 17.9812 88.3646 17.9812C88.5004 17.9812 88.6814 18.0251 88.8172 18.0251C88.9982 18.0251 89.134 18.0251 89.315 17.9812C89.4961 17.9812 89.6319 17.9373 89.8129 17.8934C90.5371 17.7179 91.216 17.2351 91.8043 16.489C92.3927 15.7429 92.7095 14.558 92.7095 13.0219C92.7095 11.442 92.3927 10.3009 91.8043 9.55486C91.216 8.80878 90.5371 8.32602 89.8129 8.15047C89.6319 8.10658 89.4508 8.0627 89.315 8.0627C89.134 8.0627 88.9982 8.01881 88.8172 8.01881C88.6361 8.01881 88.5004 8.01881 88.3646 8.0627C88.2288 8.0627 88.0477 8.10658 87.8667 8.15047C87.1425 8.32602 86.4636 8.80878 85.83 9.55486C85.2416 10.2132 84.9248 11.3981 84.9248 12.9781Z" fill="#333333"/>
<path d="M97.7455 6H105.65V8.28472H100.607V11.6239H105.423V13.9526H100.607V19.7083H97.7455V6Z" fill="#333333"/>
<path d="M107.699 6H115.603V8.28472H110.561V11.6239H115.376V13.9526H110.561V19.7083H107.699V6Z" fill="#333333"/>
<path d="M117.653 19.7083V6H120.581V19.7083H117.653Z" fill="#333333"/>
<path d="M133.753 6.35331V8.73817C133.25 8.56151 132.746 8.42902 132.197 8.34069C131.648 8.25237 131.007 8.2082 130.366 8.2082C128.855 8.2082 127.711 8.64984 126.886 9.57729C126.062 10.4606 125.65 11.6088 125.65 12.9779C125.65 14.3028 126.017 15.4069 126.795 16.2902C127.573 17.1735 128.672 17.6593 130.091 17.6593C130.595 17.6593 131.098 17.6151 131.693 17.571C132.288 17.4826 132.884 17.3502 133.524 17.0852L133.708 19.4259C133.616 19.47 133.479 19.5142 133.341 19.5584C133.158 19.6025 132.975 19.6467 132.746 19.6909C132.38 19.7792 131.922 19.8233 131.373 19.9117C130.823 19.9558 130.274 20 129.679 20C129.587 20 129.496 20 129.45 20C129.359 20 129.267 20 129.221 20C127.573 19.9117 126.062 19.2934 124.689 18.2334C123.316 17.1293 122.629 15.4069 122.629 13.1104C122.629 10.858 123.316 9.09148 124.643 7.85489C125.971 6.6183 127.802 6 130.045 6C130.64 6 131.19 6 131.648 6.04416C132.151 6.08833 132.609 6.17666 133.112 6.26498C133.204 6.30915 133.341 6.30915 133.433 6.35331C133.524 6.30915 133.616 6.35331 133.753 6.35331Z" fill="#333333"/>
<path d="M135.803 6H144V8.15291H138.609V11.58H143.474V13.689H138.609V17.5554H144V19.7083H135.803V6Z" fill="#333333"/>
<path d="M151.147 23V12.1644H152.327V13.1823C152.605 12.784 152.919 12.4865 153.27 12.2898C153.62 12.0882 154.044 11.9874 154.543 11.9874C155.195 11.9874 155.771 12.1595 156.27 12.5037C156.769 12.848 157.145 13.3348 157.4 13.9642C157.654 14.5887 157.781 15.2747 157.781 16.0222C157.781 16.8237 157.639 17.5466 157.356 18.1908C157.078 18.83 156.671 19.3218 156.133 19.666C155.601 20.0053 155.04 20.175 154.45 20.175C154.018 20.175 153.629 20.0815 153.284 19.8947C152.943 19.7078 152.663 19.4718 152.442 19.1866V23H151.147ZM152.32 16.1254C152.32 17.1335 152.519 17.8785 152.917 18.3604C153.315 18.8423 153.797 19.0833 154.363 19.0833C154.939 19.0833 155.431 18.835 155.838 18.3383C156.251 17.8367 156.457 17.0622 156.457 16.0148C156.457 15.0166 156.256 14.2691 155.853 13.7724C155.455 13.2758 154.977 13.0274 154.421 13.0274C153.869 13.0274 153.38 13.293 152.953 13.8241C152.531 14.3502 152.32 15.1174 152.32 16.1254Z" fill="#333333"/>
<path d="M164.58 17.4753L165.919 17.6449C165.708 18.4465 165.317 19.0685 164.746 19.5111C164.175 19.9537 163.446 20.175 162.559 20.175C161.441 20.175 160.554 19.8234 159.896 19.1202C159.244 18.4121 158.918 17.4212 158.918 16.1476C158.918 14.8297 159.249 13.8069 159.911 13.0791C160.573 12.3513 161.431 11.9874 162.487 11.9874C163.508 11.9874 164.343 12.3439 164.991 13.0569C165.638 13.77 165.962 14.7731 165.962 16.0664C165.962 16.1451 165.96 16.2631 165.955 16.4205H160.256C160.304 17.281 160.542 17.94 160.968 18.3973C161.395 18.8546 161.928 19.0833 162.566 19.0833C163.041 19.0833 163.446 18.9554 163.782 18.6997C164.118 18.444 164.384 18.0359 164.58 17.4753ZM160.328 15.3288H164.595C164.537 14.6699 164.374 14.1757 164.106 13.8462C163.693 13.3348 163.158 13.0791 162.501 13.0791C161.906 13.0791 161.405 13.2831 160.997 13.6913C160.594 14.0994 160.371 14.6453 160.328 15.3288Z" fill="#333333"/>
<path d="M167.538 19.9979V12.1644H168.703V13.352C169.001 12.7963 169.274 12.43 169.524 12.2529C169.778 12.0759 170.056 11.9874 170.358 11.9874C170.795 11.9874 171.238 12.13 171.689 12.4152L171.243 13.647C170.927 13.4553 170.61 13.3594 170.293 13.3594C170.01 13.3594 169.756 13.4479 169.531 13.6249C169.305 13.797 169.145 14.038 169.049 14.3478C168.905 14.8199 168.833 15.3362 168.833 15.8968V19.9979H167.538Z" fill="#333333"/>
<path d="M171.941 17.6597L173.222 17.4532C173.294 17.9793 173.493 18.3826 173.819 18.6628C174.15 18.9431 174.611 19.0833 175.201 19.0833C175.795 19.0833 176.237 18.9604 176.525 18.7145C176.812 18.4637 176.956 18.1711 176.956 17.8367C176.956 17.5367 176.829 17.3007 176.575 17.1286C176.397 17.0106 175.956 16.8606 175.251 16.6787C174.301 16.4328 173.642 16.2213 173.272 16.0443C172.908 15.8624 172.63 15.614 172.438 15.2993C172.251 14.9797 172.157 14.6281 172.157 14.2445C172.157 13.8954 172.234 13.5733 172.387 13.2782C172.546 12.9783 172.759 12.7299 173.028 12.5332C173.229 12.3808 173.503 12.2529 173.848 12.1497C174.198 12.0415 174.572 11.9874 174.97 11.9874C175.57 11.9874 176.095 12.0759 176.546 12.2529C177.002 12.43 177.338 12.6709 177.553 12.9758C177.769 13.2758 177.918 13.679 178 14.1855L176.733 14.3625C176.676 13.9593 176.508 13.6446 176.23 13.4184C175.956 13.1922 175.568 13.0791 175.064 13.0791C174.469 13.0791 174.045 13.1799 173.79 13.3815C173.536 13.5831 173.409 13.8192 173.409 14.0896C173.409 14.2617 173.462 14.4166 173.567 14.5543C173.673 14.6969 173.838 14.8149 174.064 14.9084C174.193 14.9575 174.575 15.0706 175.208 15.2477C176.124 15.4985 176.762 15.705 177.122 15.8673C177.486 16.0246 177.772 16.2558 177.978 16.5606C178.184 16.8655 178.287 17.2442 178.287 17.6966C178.287 18.1391 178.16 18.5571 177.906 18.9505C177.657 19.339 177.294 19.6414 176.82 19.8578C176.345 20.0692 175.807 20.175 175.208 20.175C174.215 20.175 173.457 19.9635 172.934 19.5406C172.416 19.1177 172.085 18.4907 171.941 17.6597Z" fill="#333333"/>
<path d="M179.345 16.0812C179.345 14.6305 179.738 13.5561 180.525 12.8578C181.182 12.2775 181.983 11.9874 182.928 11.9874C183.979 11.9874 184.837 12.3415 185.504 13.0496C186.171 13.7528 186.504 14.7264 186.504 15.9705C186.504 16.9786 186.356 17.7728 186.058 18.353C185.766 18.9284 185.336 19.3759 184.77 19.6955C184.209 20.0151 183.595 20.175 182.928 20.175C181.859 20.175 180.993 19.8234 180.331 19.1202C179.674 18.417 179.345 17.404 179.345 16.0812ZM180.676 16.0812C180.676 17.0843 180.89 17.8367 181.317 18.3383C181.743 18.835 182.281 19.0833 182.928 19.0833C183.571 19.0833 184.106 18.8325 184.533 18.3309C184.96 17.8293 185.173 17.0647 185.173 16.0369C185.173 15.0682 184.957 14.3355 184.526 13.8388C184.099 13.3372 183.566 13.0865 182.928 13.0865C182.281 13.0865 181.743 13.3348 181.317 13.8314C180.89 14.3281 180.676 15.078 180.676 16.0812Z" fill="#333333"/>
<path d="M188.03 19.9979V12.1644H189.195V13.2782C189.757 12.4177 190.567 11.9874 191.627 11.9874C192.088 11.9874 192.51 12.0735 192.894 12.2456C193.282 12.4128 193.572 12.634 193.764 12.9094C193.956 13.1848 194.091 13.5118 194.167 13.8905C194.215 14.1363 194.239 14.5666 194.239 15.1813V19.9979H192.944V15.2329C192.944 14.692 192.894 14.2888 192.793 14.0232C192.692 13.7528 192.512 13.5389 192.253 13.3815C191.999 13.2192 191.699 13.1381 191.354 13.1381C190.802 13.1381 190.325 13.3176 189.922 13.6765C189.524 14.0355 189.325 14.7166 189.325 15.7197V19.9979H188.03Z" fill="#333333"/>
<path d="M201.219 19.0317C200.739 19.4496 200.276 19.7447 199.83 19.9168C199.389 20.0889 198.914 20.175 198.405 20.175C197.566 20.175 196.921 19.966 196.47 19.548C196.019 19.1251 195.793 18.5866 195.793 17.9326C195.793 17.549 195.877 17.1999 196.045 16.8852C196.218 16.5656 196.441 16.3098 196.714 16.1181C196.993 15.9263 197.304 15.7812 197.65 15.6829C197.904 15.614 198.288 15.5476 198.801 15.4837C199.847 15.3559 200.617 15.2034 201.111 15.0264C201.115 14.8444 201.118 14.7289 201.118 14.6797C201.118 14.1388 200.996 13.7577 200.751 13.5364C200.42 13.2364 199.928 13.0865 199.276 13.0865C198.667 13.0865 198.216 13.1971 197.923 13.4184C197.635 13.6347 197.422 14.0208 197.283 14.5764L196.016 14.3994C196.132 13.8437 196.321 13.3963 196.585 13.0569C196.849 12.7127 197.23 12.4496 197.729 12.2677C198.228 12.0808 198.806 11.9874 199.463 11.9874C200.115 11.9874 200.645 12.0661 201.053 12.2234C201.461 12.3808 201.761 12.58 201.952 12.8209C202.144 13.0569 202.279 13.3569 202.355 13.7208C202.399 13.947 202.42 14.3552 202.42 14.9452V16.7155C202.42 17.9498 202.447 18.7317 202.499 19.0612C202.557 19.3857 202.667 19.698 202.83 19.9979H201.478C201.343 19.7226 201.257 19.4005 201.219 19.0317ZM201.111 16.0664C200.641 16.2631 199.935 16.4303 198.995 16.568C198.463 16.6467 198.086 16.7352 197.866 16.8336C197.645 16.9319 197.475 17.077 197.355 17.2687C197.235 17.4556 197.175 17.6646 197.175 17.8957C197.175 18.2498 197.304 18.5448 197.563 18.7809C197.827 19.0169 198.211 19.1349 198.715 19.1349C199.214 19.1349 199.657 19.0243 200.046 18.803C200.434 18.5768 200.72 18.2695 200.902 17.881C201.041 17.581 201.111 17.1384 201.111 16.5533V16.0664Z" fill="#333333"/>
<path d="M204.406 19.9979V9.18445H205.701V19.9979H204.406Z" fill="#333333"/>
</svg>
