<svg width="334" height="48" viewBox="0 0 334 48" fill="none" xmlns="http://www.w3.org/2000/svg">
<path fill-rule="evenodd" clip-rule="evenodd" d="M90.7466 40.8474L75.365 33.8445C74.0548 33.2332 74.0548 32.2883 75.365 31.7325L80.7201 29.2871L90.6896 33.8445C91.9999 34.4559 94.1078 34.4559 95.3611 33.8445L105.331 29.2871L110.686 31.7325C111.996 32.3439 111.996 33.2887 110.686 33.8445L95.3041 40.8474C94.1078 41.4031 91.9999 41.4031 90.7466 40.8474Z" fill="#FF6F3D"/>
<path fill-rule="evenodd" clip-rule="evenodd" d="M90.7466 32.2327L75.365 25.2299C74.0548 24.6185 74.0548 23.6737 75.365 23.1179L80.6062 20.728L90.7466 25.341C92.0569 25.9524 94.1647 25.9524 95.418 25.341L105.558 20.728L110.8 23.1179C112.11 23.7292 112.11 24.6741 110.8 25.2299L95.418 32.2327C94.1078 32.8441 91.9999 32.8441 90.7466 32.2327Z" fill="#95C038"/>
<path fill-rule="evenodd" clip-rule="evenodd" d="M90.7466 23.8403L75.365 16.8375C74.0548 16.2261 74.0548 15.2813 75.365 14.7255L90.7466 7.72268C92.0569 7.11132 94.1647 7.11132 95.418 7.72268L110.8 14.7255C112.11 15.3369 112.11 16.2817 110.8 16.8375L95.418 23.8403C94.1078 24.3961 91.9999 24.3961 90.7466 23.8403Z" fill="#5DC0E8"/>
<path fill-rule="evenodd" clip-rule="evenodd" d="M121.132 17.2245C121.132 14.3294 121.977 12.1445 123.724 10.7243C125.413 9.24942 127.441 8.53931 129.751 8.53931C132.06 8.53931 134.032 9.24942 135.722 10.7243C137.412 12.1991 138.257 14.3294 138.257 17.2791C138.257 20.1742 137.412 22.3591 135.722 23.7794C134.032 25.2542 132.004 25.9643 129.751 25.9643C127.441 25.9643 125.47 25.2542 123.724 23.7794C121.977 22.3045 121.132 20.1196 121.132 17.2245ZM124.85 17.2245C124.85 19.2456 125.244 20.6658 125.977 21.5944C126.765 22.523 127.61 23.1239 128.512 23.3424C128.55 23.3517 128.587 23.3611 128.623 23.3702C128.797 23.4141 128.945 23.4516 129.131 23.4516C129.216 23.4516 129.314 23.4653 129.413 23.4789C129.511 23.4926 129.61 23.5062 129.695 23.5062C129.92 23.5062 130.089 23.5062 130.314 23.4516C130.501 23.4516 130.649 23.4141 130.822 23.3702L130.823 23.3701C130.858 23.3611 130.895 23.3517 130.934 23.3424C131.835 23.1239 132.68 22.523 133.412 21.5944C134.145 20.6658 134.539 19.1909 134.539 17.2791C134.539 15.3127 134.145 13.8924 133.412 12.9638C132.68 12.0352 131.835 11.4344 130.934 11.2159C130.709 11.1612 130.483 11.1066 130.314 11.1066C130.202 11.1066 130.103 11.093 130.004 11.0793C129.906 11.0657 129.807 11.052 129.695 11.052C129.469 11.052 129.3 11.052 129.131 11.1066C128.962 11.1066 128.737 11.1613 128.512 11.2159C127.61 11.4344 126.765 12.0352 125.977 12.9638C125.244 13.7832 124.85 15.258 124.85 17.2245ZM140.116 8.70318H144.735L150.818 19.4094L151.72 21.7583H151.776L151.72 18.6993V8.70318H155.269V25.7458H150.649L144.566 14.6026L143.664 12.6907H143.608L143.664 15.695V25.7458H140.116V8.70318ZM158.93 8.70318H162.479V22.8507H169.464V25.7458H158.93V8.70318ZM167.267 8.70318H171.379L174.984 14.6572L175.548 15.8589H175.66L176.224 14.6572L179.885 8.70318H183.659L177.294 18.8086V25.7458H173.745V18.754L167.267 8.70318ZM185.8 10.7243C184.053 12.1445 183.208 14.3294 183.208 17.2245C183.208 20.1196 184.11 22.3045 185.8 23.7793C187.546 25.2542 189.517 25.9643 191.827 25.9643C194.08 25.9643 196.108 25.2542 197.798 23.7793C199.488 22.3591 200.333 20.1742 200.333 17.2791C200.333 14.3294 199.488 12.1991 197.798 10.7243C196.108 9.24942 194.137 8.53931 191.827 8.53931C189.517 8.53931 187.49 9.24942 185.8 10.7243ZM188.053 21.5944C187.321 20.6658 186.926 19.2456 186.926 17.2245C186.926 15.258 187.321 13.7832 188.053 12.9638C188.842 12.0352 189.686 11.4344 190.588 11.2159C190.813 11.1612 191.038 11.1066 191.207 11.1066C191.376 11.052 191.545 11.052 191.771 11.052C191.883 11.052 191.982 11.0657 192.081 11.0793C192.179 11.093 192.278 11.1066 192.39 11.1066C192.559 11.1066 192.785 11.1612 193.01 11.2159C193.911 11.4344 194.756 12.0352 195.489 12.9638C196.221 13.8924 196.615 15.3127 196.615 17.2791C196.615 19.1909 196.221 20.6658 195.489 21.5944C194.756 22.523 193.911 23.1239 193.01 23.3424C192.971 23.3517 192.934 23.3611 192.898 23.3702C192.725 23.4141 192.577 23.4516 192.39 23.4516C192.165 23.5062 191.996 23.5062 191.771 23.5062C191.686 23.5062 191.588 23.4926 191.489 23.4789C191.39 23.4653 191.292 23.4516 191.207 23.4516C191.021 23.4516 190.873 23.4141 190.699 23.3702L190.645 23.3564L190.588 23.3424C189.63 23.1239 188.842 22.523 188.053 21.5944ZM212.613 8.70318H202.811V25.7458H206.36V18.5901H212.331V15.695H206.36V11.5436H212.613V8.70318ZM215.261 8.70318H225.062V11.5436H218.809V15.695H224.78V18.5901H218.809V25.7458H215.261V8.70318ZM227.146 8.70318V25.7458H230.695V8.70318H227.146ZM246.332 9.08541V12.0351C245.712 11.8166 245.093 11.6527 244.417 11.5435C243.741 11.4342 242.952 11.3796 242.164 11.3796C240.305 11.3796 238.896 11.9258 237.882 13.0729C236.868 14.1654 236.361 15.5856 236.361 17.279C236.361 18.9177 236.812 20.2833 237.77 21.3758C238.727 22.4682 240.079 23.0691 241.826 23.0691C242.361 23.0691 242.897 23.0283 243.505 22.982C243.6 22.9747 243.698 22.9673 243.797 22.9599C244.529 22.8506 245.262 22.6867 246.05 22.359L246.276 25.2541C246.163 25.3087 245.994 25.3633 245.825 25.4179C245.6 25.4726 245.374 25.5272 245.093 25.5818C244.802 25.6523 244.464 25.7001 244.079 25.7545C243.868 25.7844 243.642 25.8162 243.403 25.8549L243.403 25.8549C242.727 25.9095 242.051 25.9642 241.319 25.9642H241.037H240.755C238.727 25.8549 236.868 25.0902 235.179 23.7792C233.489 22.4136 232.644 20.2833 232.644 17.4429C232.644 14.657 233.489 12.4721 235.122 10.9426C236.756 9.41315 239.009 8.64842 241.769 8.64842C242.502 8.64842 243.177 8.64842 243.741 8.70304C244.277 8.75032 244.771 8.83851 245.296 8.9322C245.378 8.94677 245.46 8.96146 245.543 8.97616C245.6 9.00347 245.67 9.01713 245.741 9.03079C245.811 9.04444 245.881 9.0581 245.938 9.08541C246.009 9.05059 246.081 9.06016 246.168 9.07168C246.217 9.07823 246.271 9.08541 246.332 9.08541ZM259.682 8.70318H249.149V25.7458H259.682V23.0692H252.754V18.2623H259.006V15.6404H252.754V11.3797H259.682V8.70318Z" fill="#333333"/>
<path d="M127.051 35.2837C127.051 36.0291 126.807 36.6004 126.319 36.9976C125.831 37.3947 125.136 37.5933 124.234 37.5933H123.492V40.2642H122.325V33.1255H124.38C125.272 33.1255 125.94 33.3078 126.382 33.6724C126.828 34.0369 127.051 34.5741 127.051 35.2837ZM123.492 36.6118H124.112C124.711 36.6118 125.15 36.5076 125.43 36.2993C125.71 36.091 125.85 35.7655 125.85 35.3228C125.85 34.9126 125.725 34.6066 125.474 34.4048C125.223 34.203 124.833 34.1021 124.302 34.1021H123.492V36.6118ZM134.215 40.2642H130.177V33.1255H134.215V34.1118H131.344V36.0552H134.034V37.0317H131.344V39.2729H134.215V40.2642ZM138.63 36.4458H139.441C139.984 36.4458 140.378 36.3449 140.622 36.1431C140.866 35.9412 140.988 35.6418 140.988 35.2446C140.988 34.841 140.857 34.5513 140.593 34.3755C140.329 34.1997 139.932 34.1118 139.401 34.1118H138.63V36.4458ZM138.63 37.4126V40.2642H137.463V33.1255H139.48C140.401 33.1255 141.083 33.298 141.525 33.6431C141.968 33.9881 142.19 34.509 142.19 35.2056C142.19 36.0942 141.727 36.7274 140.803 37.105L142.819 40.2642H141.491L139.782 37.4126H138.63ZM149.676 38.3257C149.676 38.9604 149.446 39.4585 148.987 39.8198C148.528 40.1812 147.895 40.3618 147.088 40.3618C146.281 40.3618 145.62 40.2365 145.105 39.9858V38.8823C145.431 39.0353 145.776 39.1558 146.141 39.2437C146.508 39.3315 146.85 39.3755 147.166 39.3755C147.628 39.3755 147.968 39.2876 148.186 39.1118C148.408 38.936 148.518 38.7 148.518 38.4038C148.518 38.1369 148.418 37.9106 148.216 37.7251C148.014 37.5396 147.597 37.3198 146.966 37.0659C146.315 36.8022 145.856 36.5011 145.589 36.1626C145.322 35.8241 145.188 35.4172 145.188 34.9419C145.188 34.3462 145.4 33.8774 145.823 33.5356C146.246 33.1938 146.814 33.0229 147.527 33.0229C148.211 33.0229 148.891 33.1727 149.568 33.4722L149.197 34.4243C148.562 34.1574 147.996 34.0239 147.498 34.0239C147.12 34.0239 146.834 34.1069 146.639 34.2729C146.443 34.4357 146.346 34.6522 146.346 34.9224C146.346 35.1079 146.385 35.2674 146.463 35.4009C146.541 35.5311 146.669 35.6548 146.849 35.772C147.028 35.8892 147.35 36.0438 147.815 36.2358C148.339 36.4539 148.724 36.6574 148.968 36.8462C149.212 37.035 149.391 37.2482 149.505 37.4858C149.619 37.7235 149.676 38.0034 149.676 38.3257ZM159.095 36.6851C159.095 37.8472 158.804 38.7505 158.221 39.395C157.642 40.0396 156.82 40.3618 155.756 40.3618C154.678 40.3618 153.85 40.0428 153.27 39.4048C152.694 38.7635 152.406 37.8537 152.406 36.6753C152.406 35.4969 152.696 34.592 153.275 33.9604C153.858 33.3289 154.688 33.0132 155.765 33.0132C156.827 33.0132 157.647 33.3338 158.226 33.9751C158.806 34.6164 159.095 35.5197 159.095 36.6851ZM153.646 36.6851C153.646 37.564 153.824 38.2313 154.178 38.687C154.533 39.1395 155.059 39.3657 155.756 39.3657C156.449 39.3657 156.971 39.1411 157.323 38.6919C157.678 38.2427 157.855 37.5737 157.855 36.6851C157.855 35.8094 157.679 35.1453 157.328 34.6929C156.98 34.2404 156.459 34.0142 155.765 34.0142C155.065 34.0142 154.536 34.2404 154.178 34.6929C153.824 35.1453 153.646 35.8094 153.646 36.6851ZM168.276 40.2642H166.845L163.334 34.5757H163.295L163.32 34.8931C163.365 35.4985 163.388 36.0519 163.388 36.5532V40.2642H162.329V33.1255H163.745L167.246 38.7847H167.275C167.268 38.7098 167.255 38.438 167.236 37.9692C167.216 37.4972 167.207 37.1294 167.207 36.8657V33.1255H168.276V40.2642ZM176.289 40.2642L175.576 38.2817H172.847L172.149 40.2642H170.918L173.589 33.0962H174.859L177.53 40.2642H176.289ZM175.269 37.2759L174.6 35.3325C174.551 35.2023 174.483 34.9972 174.395 34.7173C174.31 34.4373 174.252 34.2323 174.219 34.1021C174.131 34.5024 174.003 34.9403 173.833 35.4155L173.189 37.2759H175.269ZM180.172 40.2642V33.1255H181.339V39.2632H184.361V40.2642H180.172Z" fill="#333333"/>
</svg>
