<svg width="130" height="130" viewBox="0 0 130 130" fill="none" xmlns="http://www.w3.org/2000/svg">
<path fill-rule="evenodd" clip-rule="evenodd" d="M101 7C101 4.79086 99.2091 3 97 3H59.9153H20.7212C20.4592 3 20.2078 3.10278 20.0208 3.28623L0.299616 22.6377C0.107972 22.8258 0 23.083 0 23.3515V122C0 124.209 1.79086 126 4 126H98C99.6569 126 101 124.657 101 123V80.0916V48.4754V16.8592V7Z" fill="white"/>
<path fill-rule="evenodd" clip-rule="evenodd" d="M102 7.50202C102 5.01674 99.9853 3.00203 97.5 3.00203L20.6019 3.00203C20.2057 3.00203 19.8255 3.15882 19.5445 3.43817L0.445015 22.4225C0.161743 22.7041 0.00246429 23.087 0.00246429 23.4864L0.00246429 122.5C0.00246429 124.985 2.01718 127 4.50246 127L66.3251 127C66.6013 127 66.8251 126.776 66.8251 126.5C66.8251 126.224 66.6013 126 66.3251 126L4.50246 126C2.56947 126 1.00246 124.433 1.00246 122.5L1.00246 23.4864C1.00246 23.3532 1.05556 23.2256 1.14998 23.1317L0.797501 22.7771L1.14999 23.1317L20.2495 4.1474C20.3431 4.05429 20.4698 4.00203 20.6019 4.00203L97.5 4.00203C99.433 4.00203 101 5.56903 101 7.50202V42.0324C101 42.3085 101.224 42.5324 101.5 42.5324C101.776 42.5324 102 42.3085 102 42.0324V7.50202Z" fill="#333333"/>
<path fill-rule="evenodd" clip-rule="evenodd" d="M20 4.00391L1 23.0039H18C19.1046 23.0039 20 22.1085 20 21.0039V4.00391Z" fill="url(#paint0_linear_125_10941)"/>
<path fill-rule="evenodd" clip-rule="evenodd" d="M20.0244 4.00391V20.5039C20.0244 21.8846 18.9324 23.0039 17.5854 23.0039H1V24.0039H17.5854C19.4712 24.0039 21 22.4369 21 20.5039V4.00391H20.0244Z" fill="#333333"/>
<path fill-rule="evenodd" clip-rule="evenodd" d="M67 57.5C67 57.2239 66.7737 57 66.4946 57H45.338C45.0588 57 44.8325 57.2239 44.8325 57.5C44.8325 57.7761 45.0588 58 45.338 58H66.4946C66.7737 58 67 57.7761 67 57.5ZM37.1457 57.5C37.1457 57.2239 36.9194 57 36.6403 57H17.5054C17.2263 57 17 57.2239 17 57.5C17 57.7761 17.2263 58 17.5054 58H36.6403C36.9194 58 37.1457 57.7761 37.1457 57.5Z" fill="#333333"/>
<path fill-rule="evenodd" clip-rule="evenodd" d="M65 31.498C65 31.2219 64.7743 30.998 64.4958 30.998H27.5042C27.2257 30.998 27 31.2219 27 31.498C27 31.7742 27.2257 31.998 27.5042 31.998H64.4958C64.7743 31.998 65 31.7742 65 31.498Z" fill="#333333"/>
<path fill-rule="evenodd" clip-rule="evenodd" d="M68 70.498C68 70.2219 67.7739 69.998 67.4949 69.998H17.5051C17.2261 69.998 17 70.2219 17 70.498C17 70.7742 17.2261 70.998 17.5051 70.998H67.4949C67.7739 70.998 68 70.7742 68 70.498Z" fill="#333333"/>
<path fill-rule="evenodd" clip-rule="evenodd" d="M65 44.502C65 44.2258 64.7761 44.002 64.5 44.002H17.5048C17.2287 44.002 17.0048 44.2258 17.0048 44.502C17.0048 44.7781 17.2287 45.002 17.5048 45.002H64.5C64.7761 45.002 65 44.7781 65 44.502Z" fill="#333333"/>
<path fill-rule="evenodd" clip-rule="evenodd" d="M43 83.5C43 83.2239 42.7723 83 42.4914 83H17.5086C17.2277 83 17 83.2239 17 83.5C17 83.7761 17.2277 84 17.5086 84H42.4914C42.7723 84 43 83.7761 43 83.5Z" fill="#333333"/>
<path fill-rule="evenodd" clip-rule="evenodd" d="M66 109.498C66 109.222 65.7771 108.998 65.5021 108.998H17.4979C17.2229 108.998 17 109.222 17 109.498C17 109.774 17.2229 109.998 17.4979 109.998H65.5021C65.7771 109.998 66 109.774 66 109.498Z" fill="#333333"/>
<path fill-rule="evenodd" clip-rule="evenodd" d="M73.002 96.502C73.002 96.2258 72.7759 96.002 72.497 96.002H17.5069C17.228 96.002 17.002 96.2258 17.002 96.502C17.002 96.7781 17.228 97.002 17.5069 97.002H72.497C72.7759 97.002 73.002 96.7781 73.002 96.502Z" fill="#333333"/>
<path fill-rule="evenodd" clip-rule="evenodd" d="M72 83.5C72 83.2239 71.7783 83 71.5049 83H52.4951C52.2217 83 52 83.2239 52 83.5C52 83.7761 52.2217 84 52.4951 84H71.5049C71.7783 84 72 83.7761 72 83.5Z" fill="#333333"/>
<path fill-rule="evenodd" clip-rule="evenodd" d="M77 18C77 17.4477 76.5544 17 76.0046 17H40.9954C40.4456 17 40 17.4477 40 18C40 18.5523 40.4456 19 40.9954 19H76.0046C76.5544 19 77 18.5523 77 18Z" fill="url(#paint1_linear_125_10941)"/>
<path fill-rule="evenodd" clip-rule="evenodd" d="M104.926 89.338C114.521 88.1029 122 79.6191 122 69.4344V56H83V69.4344C83 79.5786 90.4201 88.032 99.9463 89.3279C90.3906 90.5934 83 99.4012 83 109.566V123H122V109.566C122 99.4316 114.432 90.6642 104.926 89.338Z" fill="#EFEFEF"/>
<path fill-rule="evenodd" clip-rule="evenodd" d="M123 56V69.4478C123 80.2178 116.165 87.2351 107.508 89.3364C116.12 91.7497 123 100.06 123 109.553V113.992H122V109.553C122 99.6659 114.123 91.0954 104.857 89.8014C104.609 89.7667 104.424 89.5537 104.426 89.303C104.427 89.0523 104.614 88.8413 104.862 88.8093C114.241 87.6007 122 80.6749 122 69.4478V56H123ZM82 69.448V63.0072H83V69.448C83 80.1826 90.7088 87.5326 100.014 88.7996C100.262 88.8334 100.447 89.0458 100.446 89.2964C100.446 89.5471 100.26 89.7588 100.012 89.7917C95.3324 90.4121 91.0827 92.4117 88.0053 95.7119C84.9321 99.0075 83 103.63 83 109.553V122H82V109.553C82 103.399 84.0132 98.526 87.2743 95.0288C89.9489 92.1606 93.444 90.238 97.3088 89.2843C88.743 87.0543 82 79.7265 82 69.448Z" fill="#333333"/>
<path fill-rule="evenodd" clip-rule="evenodd" d="M79 52H126V54C126 55.1009 125.026 56 123.832 56H81.1675C79.9744 56 79 55.1009 79 54V52Z" fill="url(#paint2_linear_125_10941)"/>
<path fill-rule="evenodd" clip-rule="evenodd" d="M78 52C78 51.4477 78.4477 51 79 51H126C126.552 51 127 51.4477 127 52V54C127 55.7274 125.501 57 123.832 57H81.1675C79.4994 57 78 55.7274 78 54V52ZM79 52V54C79 55.1009 79.9744 56 81.1675 56H123.832C125.026 56 126 55.1009 126 54V52H79Z" fill="#333333"/>
<path fill-rule="evenodd" clip-rule="evenodd" d="M79 126H126V124C126 122.899 125.026 122 123.832 122H81.1675C79.9744 122 79 122.899 79 124V126Z" fill="url(#paint3_linear_125_10941)"/>
<path fill-rule="evenodd" clip-rule="evenodd" d="M79 127C78.4477 127 78 126.552 78 126V124C78 122.273 79.4994 121 81.1675 121H123.832C125.501 121 127 122.273 127 124V126C127 126.552 126.552 127 126 127H79ZM126 124C126 122.899 125.026 122 123.832 122H81.1675C79.9744 122 79 122.899 79 124V126H126V124Z" fill="#333333"/>
<path fill-rule="evenodd" clip-rule="evenodd" d="M117 71C112.84 71.4756 103.902 80.2442 97.4094 78.4112C94.9847 77.7275 92.1339 76.0828 90.3077 73.8535C89.2932 72.615 88.6135 71.6737 89.2425 74.4678C89.4454 75.3694 89.7295 76.2512 90.1251 77.0736C92.3875 81.7502 97.2674 85 102.888 85C110.649 85 116.99 78.7976 116.99 71.2279V71H117Z" fill="#BDECFF"/>
<path fill-rule="evenodd" clip-rule="evenodd" d="M116.967 72.0144C116.982 71.754 116.99 71.4918 116.99 71.2279V71.0012C116.993 71.0008 116.997 71.0004 117 71H116.99V71.0012C116.69 71.0363 116.366 71.1142 116.02 71.2279C116.01 71.2312 116 71.2345 115.99 71.2379C114.55 71.7174 112.735 72.8073 110.734 74.0083C106.519 76.5382 101.483 79.5612 97.4096 78.4112C94.9849 77.7275 92.134 76.0828 90.3079 73.8535C90.2566 73.7909 90.2062 73.7291 90.1568 73.6685C90.1304 73.6361 90.1043 73.6041 90.0785 73.5725C89.9989 73.4751 89.9223 73.3816 89.849 73.294C89.2106 72.5308 88.8296 72.2127 89.0756 73.6439C89.0947 73.7554 89.1177 73.8776 89.1446 74.0109C89.1729 74.1507 89.2054 74.3027 89.2426 74.4678C89.4455 75.3694 89.7296 76.2512 90.1253 77.0736C92.3877 81.7502 97.2675 85 102.888 85C110.379 85 116.546 79.2225 116.967 72.0144ZM88.267 74.6874C88.4828 75.6463 88.789 76.6027 89.2241 77.5072L89.2251 77.5091C91.6513 82.5244 96.8769 86 102.888 86C111.18 86 117.99 79.3716 117.99 71.2279V71.1432C117.999 71.0781 118.002 71.0112 117.999 70.9431C117.968 70.4138 117.53 70 117 70H116.99C116.93 70 116.872 70.0052 116.815 70.0152C115.561 70.1794 114.085 70.911 112.606 71.7455C111.846 72.1741 111.044 72.6557 110.225 73.1473L110.171 73.1799C109.329 73.6854 108.466 74.2028 107.587 74.7015C105.822 75.7021 104.039 76.5998 102.325 77.1395C100.607 77.6801 99.0453 77.8339 97.6813 77.4488L97.681 77.4487C95.4222 76.8119 92.7587 75.2674 91.0815 73.2198C91.0349 73.163 90.9877 73.1051 90.9403 73.0469C90.7437 72.8058 90.5434 72.56 90.3688 72.3657C90.2595 72.2441 90.1354 72.1142 90.0065 72.0047C89.9128 71.9251 89.6739 71.7275 89.3431 71.6655C89.1422 71.6279 88.8696 71.634 88.6002 71.784C88.3396 71.9293 88.1979 72.1451 88.1248 72.3065C87.9976 72.5873 87.9963 72.8821 88.0015 73.05C88.0136 73.4394 88.1092 73.9863 88.267 74.6874" fill="#333333"/>
<path fill-rule="evenodd" clip-rule="evenodd" d="M103 90.5205V93.5059C103 94.1735 102 94.1471 102 93.5322V90.5205C102 89.8265 103 89.8265 103 90.5205Z" fill="#333333"/>
<path fill-rule="evenodd" clip-rule="evenodd" d="M103 96.5205V97.5059C103 98.1735 102 98.1471 102 97.5322V96.5205C102 95.8265 103 95.8265 103 96.5205Z" fill="#333333"/>
<path fill-rule="evenodd" clip-rule="evenodd" d="M103 100.52V101.506C103 102.173 102 102.147 102 101.532V100.52C102 99.8265 103 99.8265 103 100.52Z" fill="#333333"/>
<path fill-rule="evenodd" clip-rule="evenodd" d="M102.5 110C98.1992 110.155 91.9893 113.174 88 118H102.5H117C113.011 113.174 106.801 110.155 102.5 110Z" fill="#BDECFF"/>
<path fill-rule="evenodd" clip-rule="evenodd" d="M102.464 109.001C102.488 109 102.512 109 102.536 109.001C107.166 109.168 113.629 112.353 117.771 117.363C118.018 117.661 118.07 118.076 117.905 118.426C117.74 118.776 117.387 119 117 119H88C87.6127 119 87.2602 118.776 87.0953 118.426C86.9303 118.076 86.9825 117.661 87.2293 117.363C91.3707 112.353 97.8342 109.168 102.464 109.001ZM88.8817 117C88.5776 117.324 88.2832 117.657 88 118H117C116.717 117.657 116.422 117.324 116.118 117C112.139 112.76 106.495 110.144 102.5 110C98.5046 110.144 92.8613 112.76 88.8817 117Z" fill="#333333"/>
<defs>
<linearGradient id="paint0_linear_125_10941" x1="20" y1="3.26172" x2="0.999966" y2="23.0039" gradientUnits="userSpaceOnUse">
<stop stop-color="#FF8E3D"/>
<stop offset="1" stop-color="#FF6F3D"/>
</linearGradient>
<linearGradient id="paint1_linear_125_10941" x1="76.9999" y1="16.9219" x2="76.7923" y2="20.914" gradientUnits="userSpaceOnUse">
<stop stop-color="#FF8E3D"/>
<stop offset="1" stop-color="#FF6F3D"/>
</linearGradient>
<linearGradient id="paint2_linear_125_10941" x1="85.066" y1="35.6666" x2="103.407" y2="57.5607" gradientUnits="userSpaceOnUse">
<stop stop-color="#FFC671"/>
<stop offset="1" stop-color="#FF6F3D"/>
</linearGradient>
<linearGradient id="paint3_linear_125_10941" x1="85.0047" y1="106.834" x2="103.345" y2="128.728" gradientUnits="userSpaceOnUse">
<stop stop-color="#FFC671"/>
<stop offset="1" stop-color="#FF6F3D"/>
</linearGradient>
</defs>
</svg>
