<svg width="130" height="130" viewBox="0 0 130 130" fill="none" xmlns="http://www.w3.org/2000/svg">
<g clip-path="url(#clip0_125_10910)">
<path fill-rule="evenodd" clip-rule="evenodd" d="M104 7C104 4.79086 102.209 3 100 3H23.7212C23.4592 3 23.2078 3.10278 23.0208 3.28623L3.29962 22.6377C3.10797 22.8258 3 23.083 3 23.3515V122C3 124.209 4.79086 126 7 126H101C102.657 126 104 124.657 104 123V7Z" fill="white"/>
<path fill-rule="evenodd" clip-rule="evenodd" d="M105 7.5C105 5.01472 102.985 3 100.5 3L23.5032 3C23.1067 3 22.7264 3.15697 22.4453 3.4366L3.44209 22.3418C3.15911 22.6233 3 23.006 3 23.4052L3 122.5C3 124.985 5.01472 127 7.5 127L100.5 127C102.985 127 105 124.985 105 122.5V72.7958C105 72.5196 104.776 72.2958 104.5 72.2958C104.224 72.2958 104 72.5196 104 72.7958V122.5C104 124.433 102.433 126 100.5 126L7.5 126C5.56701 126 4 124.433 4 122.5L4 23.4052C4 23.2721 4.05303 23.1445 4.14737 23.0507L23.1506 4.14553C23.2443 4.05232 23.3711 4 23.5032 4L100.5 4C102.433 4 104 5.567 104 7.5V18.875C104 19.1511 104.224 19.375 104.5 19.375C104.776 19.375 105 19.1511 105 18.875V7.5Z" fill="#333333"/>
<path fill-rule="evenodd" clip-rule="evenodd" d="M23 4L4 23H21C22.1046 23 23 22.1046 23 21V4Z" fill="url(#paint0_linear_125_10910)"/>
<path d="M23.5 4V20.5003C23.5 22.1571 22.1569 23.5003 20.5 23.5003H4" stroke="#333333" stroke-linejoin="round"/>
<path fill-rule="evenodd" clip-rule="evenodd" d="M68 57.498C68 57.2219 67.7736 56.998 67.4943 56.998H48.3508C48.0715 56.998 47.8451 57.2219 47.8451 57.498C47.8451 57.7742 48.0715 57.998 48.3508 57.998H67.4943C67.7736 57.998 68 57.7742 68 57.498ZM40.1549 57.498C40.1549 57.2219 39.9285 56.998 39.6492 56.998H20.5057C20.2264 56.998 20 57.2219 20 57.498C20 57.7742 20.2264 57.998 20.5057 57.998H39.6492C39.9285 57.998 40.1549 57.7742 40.1549 57.498Z" fill="#333333"/>
<path fill-rule="evenodd" clip-rule="evenodd" d="M38 31.5C38 31.2239 37.767 31 37.4796 31H30.5204C30.233 31 30 31.2239 30 31.5C30 31.7761 30.233 32 30.5204 32H37.4796C37.767 32 38 31.7761 38 31.5Z" fill="#333333"/>
<path fill-rule="evenodd" clip-rule="evenodd" d="M74 70.5C74 70.2239 73.774 70 73.4952 70H20.5048C20.226 70 20 70.2239 20 70.5C20 70.7761 20.226 71 20.5048 71H73.4952C73.774 71 74 70.7761 74 70.5Z" fill="#333333"/>
<path fill-rule="evenodd" clip-rule="evenodd" d="M58 44.5039C58 44.2278 57.7761 44.0039 57.4999 44.0039H20.5001C20.2239 44.0039 20 44.2278 20 44.5039C20 44.78 20.2239 45.0039 20.5001 45.0039H57.4999C57.7761 45.0039 58 44.78 58 44.5039Z" fill="#333333"/>
<path fill-rule="evenodd" clip-rule="evenodd" d="M46 83.5039C46 83.2278 45.7723 83.0039 45.4914 83.0039H20.5086C20.2277 83.0039 20 83.2278 20 83.5039C20 83.78 20.2277 84.0039 20.5086 84.0039H45.4914C45.7723 84.0039 46 83.78 46 83.5039Z" fill="#333333"/>
<path fill-rule="evenodd" clip-rule="evenodd" d="M56 109.5C56 109.224 55.7713 109 55.4891 109H19.5109C19.2287 109 19 109.224 19 109.5C19 109.776 19.2287 110 19.5109 110H55.4891C55.7713 110 56 109.776 56 109.5Z" fill="#333333"/>
<path fill-rule="evenodd" clip-rule="evenodd" d="M75.0039 96.5C75.0039 96.2239 74.7778 96 74.499 96H19.5089C19.23 96 19.0039 96.2239 19.0039 96.5C19.0039 96.7761 19.23 97 19.5089 97H74.499C74.7778 97 75.0039 96.7761 75.0039 96.5Z" fill="#333333"/>
<path fill-rule="evenodd" clip-rule="evenodd" d="M74 83.5C74 83.2239 73.7773 83 73.5026 83H54.4974C54.2227 83 54 83.2239 54 83.5C54 83.7761 54.2227 84 54.4974 84H73.5026C73.7773 84 74 83.7761 74 83.5Z" fill="#333333"/>
<path fill-rule="evenodd" clip-rule="evenodd" d="M80 18C80 17.4477 79.5523 17 79 17H44C43.4477 17 43 17.4477 43 18C43 18.5523 43.4477 19 44 19H79C79.5523 19 80 18.5523 80 18Z" fill="url(#paint1_linear_125_10910)"/>
<path fill-rule="evenodd" clip-rule="evenodd" d="M122.413 31.7926L97 63V95.0453C97 96.685 95.1354 97.628 93.8147 96.6563L86.8147 91.5057C86.3025 91.1288 86 90.5307 86 89.8948V63L60.6346 31.8079C58.9428 29.6512 57.5342 25 61.936 25H121.41C125.452 25 123.929 29.8508 122.413 31.7926Z" fill="#BDECFF"/>
<path d="M96.6123 62.6843L96.5 62.8222V63V95.0453C96.5 96.2751 95.1015 96.9824 94.111 96.2535L87.111 91.103C86.7268 90.8203 86.5 90.3717 86.5 89.8948V63V62.8224L86.3879 62.6845L61.0253 31.496C60.2255 30.4748 59.5122 28.8788 59.5002 27.5905C59.4942 26.9574 59.6567 26.4553 59.9948 26.1105C60.3312 25.7673 60.9198 25.5 61.936 25.5H121.41C122.319 25.5 122.819 25.7687 123.1 26.1073C123.393 26.4604 123.526 26.985 123.496 27.6458C123.437 28.9763 122.728 30.5747 122.022 31.481L96.6123 62.6843Z" stroke="#333333"/>
</g>
<defs>
<linearGradient id="paint0_linear_125_10910" x1="23" y1="3.25781" x2="3.99997" y2="23" gradientUnits="userSpaceOnUse">
<stop stop-color="#FF8E3D"/>
<stop offset="1" stop-color="#FF6F3D"/>
</linearGradient>
<linearGradient id="paint1_linear_125_10910" x1="79.9999" y1="16.9219" x2="79.7923" y2="20.914" gradientUnits="userSpaceOnUse">
<stop stop-color="#FF8E3D"/>
<stop offset="1" stop-color="#FF6F3D"/>
</linearGradient>
<clipPath id="clip0_125_10910">
<rect width="130" height="130" fill="white"/>
</clipPath>
</defs>
</svg>
