<svg width="41" height="41" viewBox="0 0 41 41" fill="none" xmlns="http://www.w3.org/2000/svg">
<path fill-rule="evenodd" clip-rule="evenodd" d="M20.5 41C31.8218 41 41 31.8218 41 20.5C41 9.17816 31.8218 0 20.5 0C9.17816 0 0 9.17816 0 20.5C0 31.8218 9.17816 41 20.5 41ZM13.7739 15.7262C13.7739 12.0173 16.7913 9 20.5001 9C24.2088 9 27.2261 12.0173 27.2263 15.7261V19.5676C27.2263 19.6112 27.2801 19.6848 27.3223 19.6989C27.6858 19.8202 27.9812 19.9253 28.2517 20.0295C28.5743 20.154 28.8175 20.5113 28.8175 20.8609V29.6876C28.8175 30.0349 28.576 30.3925 28.2556 30.5194C25.7763 31.5018 23.167 32 20.5 32C17.8331 32 15.2238 31.502 12.7445 30.5195C12.4241 30.3925 12.1824 30.0349 12.1824 29.6876V20.8609C12.1824 20.5113 12.4257 20.154 12.7481 20.0296C13.0186 19.9254 13.314 19.8203 13.6777 19.699C13.72 19.6849 13.7739 19.6114 13.7739 19.5677V15.7262ZM20.5 21.7174C19.4882 21.7174 18.668 22.5367 18.668 23.5493C18.668 24.2202 19.0464 24.7819 19.584 25.1003V28.129C19.584 28.6353 19.9936 29.045 20.4999 29.045C21.0062 29.045 21.4159 28.6353 21.4159 28.129V25.1003C21.9535 24.7819 22.3318 24.2202 22.3318 23.5493C22.3318 22.5366 21.5116 21.7174 20.5 21.7174ZM24.9134 19.0406V15.7261C24.9134 13.2925 22.9334 11.3127 20.5 11.3128C18.0664 11.3128 16.0866 13.2925 16.0866 15.7261V19.0402C17.5362 18.7291 19.0207 18.5713 20.5007 18.5713C21.9813 18.5714 23.4661 18.7292 24.9134 19.0406Z" fill="#8BBA25"/>
</svg>
