<svg width="32" height="32" viewBox="0 0 32 32" fill="none" xmlns="http://www.w3.org/2000/svg">
<path fill-rule="evenodd" clip-rule="evenodd" d="M28 3.96497C28 2.95837 26.9484 2 26.0096 2L10.8597 2L4 9.21633V28.8809C4 29.799 5.10397 31.0001 6.04274 31.0001H25.8454C26.7842 31.0001 28 29.6954 28 28.7773V3.96497Z" fill="#FEFEFE"/>
<path fill-rule="evenodd" clip-rule="evenodd" d="M10.6372 2.14649C10.731 2.05261 10.8583 1.9999 10.9911 2L26.0098 2.01171C27.1579 2.01191 28 2.92796 28 4.00086V24.9762C28 25.0218 27.9939 25.066 27.9824 25.1079V28.4403C27.9824 29.0142 27.8192 29.6445 27.4179 30.1421C27.0038 30.6556 26.3686 30.9858 25.5265 30.9859M25.5265 30.9859L6.20337 31C5.02296 31 4 30.1185 4 28.8928V8.9942C4 8.86182 4.05258 8.73486 4.14618 8.64121L10.6372 2.14649M27.0005 24.8445V4.00086C27.0005 3.45663 26.5834 3.01067 26.0098 3.01067L11.1977 2.99913L4.99951 9.20092V28.8928C4.99951 29.5013 5.50663 30.0009 6.20269 30.001C6.20258 30.001 6.2028 30.001 6.20269 30.001L25.5258 29.9869C26.082 29.9869 26.4253 29.7811 26.6397 29.5152C26.8671 29.2333 26.9829 28.8405 26.9829 28.4403V24.9762C26.9829 24.9306 26.989 24.8865 27.0005 24.8445Z" fill="#333333"/>
<path fill-rule="evenodd" clip-rule="evenodd" d="M9.96111 9C10.965 9 11 8.0013 11 8.0013L11 3L5 9H9.96111Z" fill="url(#paint0_linear_315_9317)"/>
<path fill-rule="evenodd" clip-rule="evenodd" d="M12 2.99609V7.3638C12 8.83642 10.802 9.99868 9.3472 9.99868H5V8.99868H9.3472C10.2655 8.99868 11.0022 8.26969 11.0022 7.3638V2.99609H12Z" fill="#333333"/>
<path fill-rule="evenodd" clip-rule="evenodd" d="M16.5057 13L24.5591 13C25.1798 13 25.1051 14 24.5591 14L16.5054 14C15.8117 14 15.8437 13 16.5057 13Z" fill="#333333"/>
<path fill-rule="evenodd" clip-rule="evenodd" d="M16.5057 23.9961L24.5591 23.9961C25.1798 23.9961 25.1051 24.9961 24.5591 24.9961L16.5054 24.9961C15.8117 24.9961 15.8437 23.9961 16.5057 23.9961Z" fill="#333333"/>
<path fill-rule="evenodd" clip-rule="evenodd" d="M16.5057 22L24.5591 22C25.1798 22 25.1051 23 24.5591 23L16.5054 23C15.8117 23 15.8437 22 16.5057 22Z" fill="#333333"/>
<path fill-rule="evenodd" clip-rule="evenodd" d="M16.5057 15L24.5591 15C25.1798 15 25.1051 16 24.5591 16L16.5054 16C15.8117 16 15.8437 15 16.5057 15Z" fill="#333333"/>
<path fill-rule="evenodd" clip-rule="evenodd" d="M16.5057 17L19.0324 17L21.5591 17C22.1798 17 22.1051 18 21.5591 18L16.5054 18C15.8117 18 15.8437 17 16.5057 17Z" fill="#333333"/>
<path fill-rule="evenodd" clip-rule="evenodd" d="M16.5057 25.9961L21.5591 25.9961C22.1798 25.9961 22.1051 26.9961 21.5591 26.9961L16.5054 26.9961C15.8117 26.9961 15.8437 25.9961 16.5057 25.9961Z" fill="#333333"/>
<path fill-rule="evenodd" clip-rule="evenodd" d="M14.651 6H24.3553C25.2169 6 25.2169 7 24.3432 7H14.651C13.8105 7 13.7559 6 14.651 6Z" fill="url(#paint1_linear_315_9317)"/>
<path fill-rule="evenodd" clip-rule="evenodd" d="M14.651 8H21.3553C22.2169 8 22.2169 9 21.3432 9H14.651C13.8105 9 13.7559 8 14.651 8Z" fill="url(#paint2_linear_315_9317)"/>
<path fill-rule="evenodd" clip-rule="evenodd" d="M8.01724 13.5386C8.01724 13.4002 8 13 8 13C8 13 8.39976 13.0169 8.53783 13.0169H12.4794C12.6175 13.0169 12.7499 13.0719 12.8475 13.1697C12.9452 13.2675 13 13.4002 13 13.5386V17.0034C13 17.1417 13 18 13 18C13 18 12.6175 17.9999 12.4794 17.9999H8.53783C8.39976 17.9999 8.01716 18 8.01716 18C8.01716 18 8.01724 17.6166 8.01724 17.4782V13.5386Z" fill="#BDECFF"/>
<path fill-rule="evenodd" clip-rule="evenodd" d="M13.8213 12.1066C14.0237 12.2776 14.0595 12.5935 13.9013 12.8122L11.0799 16.7139C10.9735 16.8657 10.8005 16.9962 10.5741 16.9999C10.3614 17.0034 10.1922 16.8932 10.0782 16.7767L9.15353 15.875C8.96283 15.6891 8.94771 15.3712 9.11977 15.1651C9.29182 14.959 9.58589 14.9427 9.7766 15.1286L10.5209 15.8544L13.1685 12.1931C13.3267 11.9744 13.6189 11.9357 13.8213 12.1066Z" fill="#333333"/>
<path fill-rule="evenodd" clip-rule="evenodd" d="M8.19806 12.0039H11.0878C11.3639 12.0039 11.5878 12.2276 11.5878 12.5034C11.5878 12.7793 11.3639 13.003 11.0878 13.003H8.20637C8.17824 13.0043 8.15065 13.0111 8.12513 13.0229C8.09823 13.0353 8.07423 13.0531 8.05458 13.0751C8.03494 13.0972 8.02007 13.1229 8.01084 13.1508C8.00162 13.1787 7.99823 13.2081 8.00087 13.2374C8.00222 13.2523 8.0029 13.2673 8.0029 13.2823V17.7432C8.00241 17.7776 8.00879 17.8117 8.02177 17.8436C8.03476 17.8755 8.05404 17.9046 8.07853 17.929C8.10301 17.9534 8.1322 17.9728 8.16438 17.9858C8.19656 17.9988 8.23107 18.0053 8.26584 18.0048L8.27292 18.0047L12.7546 18.0048C12.8305 18.0031 12.9026 17.972 12.9558 17.9182C12.9679 17.906 13 17.865 13 17.7148V15.4747C13 15.1988 13.2239 14.9752 13.5 14.9752C13.7761 14.9752 14 15.1988 14 15.4747V17.7147C14 17.7147 14 17.7147 14 17.7147C14 17.9796 13.9473 18.3371 13.6672 18.6204C13.4287 18.8615 13.1048 18.9992 12.7655 19.0038L12.7588 19.0039L8.27603 19.0038C8.10911 19.0057 7.94346 18.9744 7.78872 18.9117C7.63276 18.8485 7.49102 18.7548 7.37192 18.636C7.25283 18.5171 7.15878 18.3757 7.09539 18.2199C7.0325 18.0653 7.00106 17.8998 7.0029 17.733V13.3019C6.99201 13.1448 7.01184 12.987 7.06134 12.8373C7.11352 12.6796 7.19756 12.5342 7.30821 12.4102C7.41887 12.2862 7.55379 12.1863 7.70462 12.1164C7.85545 12.0466 8.019 12.0084 8.18518 12.0041L8.19806 12.0039Z" fill="#333333"/>
<path fill-rule="evenodd" clip-rule="evenodd" d="M8.01724 22.5386C8.01724 22.4002 8 22 8 22C8 22 8.39976 22.0169 8.53783 22.0169H12.4794C12.6175 22.0169 12.7499 22.0719 12.8475 22.1697C12.9452 22.2675 13 22.4002 13 22.5386V26.0034C13 26.1417 13 27 13 27C13 27 12.6175 26.9999 12.4794 26.9999H8.53783C8.39976 26.9999 8.01716 27 8.01716 27C8.01716 27 8.01724 26.6166 8.01724 26.4782V22.5386Z" fill="#BDECFF"/>
<path fill-rule="evenodd" clip-rule="evenodd" d="M13.8213 21.1066C14.0237 21.2776 14.0595 21.5935 13.9013 21.8122L11.0799 25.7139C10.9735 25.8657 10.8005 25.9962 10.5741 25.9999C10.3614 26.0034 10.1922 25.8932 10.0782 25.7767L9.15353 24.875C8.96283 24.6891 8.94771 24.3712 9.11977 24.1651C9.29182 23.959 9.58589 23.9427 9.7766 24.1286L10.5209 24.8544L13.1685 21.1931C13.3267 20.9744 13.6189 20.9357 13.8213 21.1066Z" fill="#333333"/>
<path fill-rule="evenodd" clip-rule="evenodd" d="M8.19806 21H11.0878C11.3639 21 11.5878 21.2237 11.5878 21.4995C11.5878 21.7754 11.3639 21.9991 11.0878 21.9991H8.20637C8.17824 22.0004 8.15065 22.0071 8.12513 22.019C8.09823 22.0314 8.07423 22.0492 8.05458 22.0712C8.03494 22.0932 8.02007 22.119 8.01084 22.1469C8.00162 22.1748 7.99823 22.2042 8.00087 22.2335C8.00222 22.2484 8.0029 22.2634 8.0029 22.2784V26.7393C8.00241 26.7737 8.00879 26.8078 8.02177 26.8397C8.03476 26.8716 8.05404 26.9007 8.07853 26.9251C8.10301 26.9495 8.1322 26.9689 8.16438 26.9819C8.19656 26.9949 8.23107 27.0014 8.26584 27.0009L8.27292 27.0008L12.7546 27.0008C12.8305 26.9992 12.9026 26.9681 12.9558 26.9143C12.9679 26.9021 13 26.8611 13 26.7109V24.4708C13 24.1949 13.2239 23.9713 13.5 23.9713C13.7761 23.9713 14 24.1949 14 24.4708V26.7108C14 26.7108 14 26.7108 14 26.7108C14 26.9757 13.9473 27.3332 13.6672 27.6165C13.4287 27.8576 13.1048 27.9953 12.7655 27.9999L12.7588 28L8.27603 27.9999C8.10911 28.0018 7.94346 27.9705 7.78872 27.9078C7.63276 27.8446 7.49102 27.7509 7.37192 27.6321C7.25283 27.5132 7.15878 27.3718 7.09539 27.216C7.0325 27.0614 7.00106 26.8959 7.0029 26.7291V22.298C6.99201 22.1409 7.01184 21.9831 7.06134 21.8334C7.11352 21.6757 7.19756 21.5303 7.30821 21.4063C7.41887 21.2823 7.55379 21.1824 7.70462 21.1125C7.85545 21.0427 8.019 21.0044 8.18518 21.0002L8.19806 21Z" fill="#333333"/>
<defs>
<linearGradient id="paint0_linear_315_9317" x1="5.00001" y1="2.76562" x2="11" y2="9" gradientUnits="userSpaceOnUse">
<stop stop-color="#FF8E3D"/>
<stop offset="1" stop-color="#FF6F3D"/>
</linearGradient>
<linearGradient id="paint1_linear_315_9317" x1="15.6253" y1="2.58289" x2="19.6717" y2="7.43663" gradientUnits="userSpaceOnUse">
<stop stop-color="#FFC671"/>
<stop offset="1" stop-color="#FF6F3D"/>
</linearGradient>
<linearGradient id="paint2_linear_315_9317" x1="15.6253" y1="4.58289" x2="19.6717" y2="9.43663" gradientUnits="userSpaceOnUse">
<stop stop-color="#FFC671"/>
<stop offset="1" stop-color="#FF6F3D"/>
</linearGradient>
</defs>
</svg>
