<svg width="150" height="150" viewBox="0 0 150 150" fill="none" xmlns="http://www.w3.org/2000/svg">
<g clip-path="url(#clip0_125_9834)">
<path d="M110.934 148.961V149H111.934C112.706 149 113.558 148.902 114.16 148.304C114.763 147.703 114.863 146.853 114.863 146.083V146.073L114.862 146.063C114.821 143.971 114.677 141.202 114.519 138.178C114.392 135.742 114.257 133.14 114.16 130.594C113.938 124.797 113.917 119.289 114.565 116.181C115.122 113.515 116.108 112.031 117.213 111.235C118.317 110.441 119.705 110.215 121.317 110.412C123.225 110.648 125.058 111.44 126.928 112.382C127.353 112.596 127.784 112.821 128.219 113.047C129.642 113.788 131.107 114.551 132.544 115.05C134.468 115.718 136.506 115.981 138.615 115.129C140.695 114.289 142.674 112.431 144.651 109.238L144.651 109.238C146.729 105.881 147.738 102.136 147.954 98.4367C148.267 93.1045 146.945 87.8331 144.784 83.8714C142.665 79.9874 139.538 77.0358 136.086 77.0358C132.468 77.0358 130.484 77.7141 128.671 78.3744C128.613 78.3954 128.556 78.4164 128.499 78.4373C126.838 79.0436 125.335 79.5921 122.586 79.5921C120.141 79.5921 118.567 79.3756 117.508 78.9379C116.525 78.5312 115.946 77.9182 115.525 76.9267L115.524 76.9249C115.486 76.8368 115.425 76.6244 115.359 76.2392C115.297 75.8715 115.24 75.4023 115.189 74.8376C115.088 73.709 115.015 72.2475 114.965 70.5473C114.866 67.1494 114.862 62.8508 114.901 58.4643C114.945 53.5295 115.044 48.4587 115.121 44.474C115.181 41.41 115.228 38.9882 115.228 37.7641V36.7641H114.228H79.5128C77.2697 36.7641 74.9655 35.9266 73.3238 34.5397C71.6958 33.1644 70.7803 31.3144 71.0773 29.2231L71.0775 29.2217C71.4297 26.7165 72.1802 25.1688 72.9975 23.4835C73.1528 23.1633 73.3104 22.8382 73.4682 22.5007C74.4775 20.3416 75.3698 17.8793 75.3698 13.4792C75.3698 9.57508 72.5246 6.51939 68.718 4.46098C64.8786 2.38483 59.8177 1.17114 54.7926 1.01681C49.7734 0.862654 44.6668 1.76205 40.7762 4.0398C36.8368 6.34617 34.154 10.0727 34.154 15.3964C34.154 19.0895 35.358 22.0169 36.4826 24.6852C36.5045 24.7373 36.5265 24.7893 36.5484 24.8412C37.6611 27.4802 38.6542 29.8356 38.6542 32.6515C38.6542 33.5818 38.4349 34.1445 38.1372 34.5397C37.824 34.9553 37.3479 35.2881 36.6503 35.6236C36.4072 35.7399 35.7985 35.8848 34.7552 36.0103C33.7579 36.1301 32.4844 36.2201 31.0109 36.285C28.0663 36.4146 24.3836 36.4415 20.6371 36.4188C16.8933 36.3961 13.0988 36.324 9.93357 36.2569C9.2378 36.2422 8.5715 36.2276 7.94235 36.2139C5.71822 36.1654 3.95832 36.127 3.00202 36.125L2 36.123V37.125V62.6881C2 64.4957 2.62461 66.8869 3.61169 68.8311C4.10814 69.8089 4.72367 70.7289 5.44876 71.4182C6.17041 72.1043 7.08214 72.6352 8.14305 72.6352C10.95 72.6352 12.7871 71.1906 14.3641 69.9505C14.4004 69.922 14.4366 69.8935 14.4726 69.8652C16.1081 68.5804 17.5137 67.5226 19.7149 67.5226C22.5486 67.5226 25.2915 68.6201 27.6813 70.2271C30.0696 71.8329 32.044 73.9076 33.3228 75.7535C38.1106 82.6904 38.8673 91.7017 36.6037 98.9795C34.3347 106.275 29.157 111.536 22.2865 111.536C17.7412 111.536 15.3858 110.497 13.3584 109.603C12.9983 109.444 12.6484 109.29 12.2986 109.146C11.094 108.654 9.85292 108.282 8.26429 108.408C6.70522 108.531 4.90459 109.126 2.53428 110.373L1.97847 110.666L2.00062 111.293L3.28639 147.721L3.32044 148.685H4.28576C7.75154 148.685 11.3637 148.762 15.0187 148.839C22.1992 148.99 29.5454 149.145 36.2734 148.733C38.7332 148.583 41.0516 148.39 42.7522 147.693C43.6288 147.333 44.4082 146.815 44.9622 146.043C45.5214 145.264 45.7873 144.316 45.7873 143.212C45.7873 140.258 44.592 138.651 43.5087 137.195C43.4525 137.12 43.3965 137.045 43.3411 136.97C42.7852 136.219 42.2863 135.506 41.9143 134.607C41.5466 133.718 41.2872 132.606 41.2872 131.069C41.2872 127.122 44.0091 122.635 48.2872 119.195C52.5403 115.775 58.1261 113.562 63.5309 113.985C71.1146 114.578 75.1136 115.051 79.0056 118.81C82.1257 121.827 84.9417 126.537 84.9417 132.338C84.9417 134.746 83.8219 136.616 82.5448 138.482C82.4328 138.646 82.3184 138.811 82.2032 138.978C81.6825 139.73 81.1445 140.508 80.7235 141.283C80.2005 142.246 79.7986 143.304 79.7986 144.48C79.7986 145.611 80.0616 146.757 80.8342 147.629C81.6265 148.522 82.8055 148.961 84.2801 148.961H110.934Z" fill="url(#paint0_linear_125_9834)" stroke="#333333" stroke-width="2"/>
<path fill-rule="evenodd" clip-rule="evenodd" d="M135.498 92.8098H145.219H145.951H146C145.844 91.7988 145.629 90.8172 145.375 89.8553H135.498V78.1945C134.366 78.1945 133.4 78.273 132.56 78.3908V89.8553H105.71C105.769 85.7524 106.052 81.7575 106.549 77.9197C107.047 74.0131 107.769 70.2636 108.677 66.7103C109.351 66.8968 110.034 67.0833 110.717 67.26C111.644 67.4956 112.571 67.7213 113.508 67.9373L113.674 67.9765C113.665 67.0048 113.655 65.9938 113.645 64.9534C112.845 64.7669 112.054 64.5804 111.264 64.3743C110.649 64.2172 110.044 64.0503 109.448 63.8835C109.565 63.4712 109.692 63.0688 109.819 62.6664C110.014 62.048 110.219 61.4198 110.434 60.7916C111.01 59.1033 111.634 57.4838 112.298 55.9329C112.757 54.8532 113.245 53.803 113.743 52.8018C113.772 50.6227 113.811 48.5222 113.85 46.5984L113.196 47.6879C112.132 49.4547 111.137 51.3589 110.209 53.4103C109.282 55.452 108.433 57.5917 107.672 59.8297C107.457 60.4481 107.252 61.0959 107.037 61.7732C106.91 62.1952 106.784 62.6075 106.657 63.0295C103.914 62.1461 101.25 61.1351 98.6827 59.9965C96.145 58.8776 93.6952 57.631 91.3625 56.2863L91.587 56.0016C94.5931 52.3503 98.058 49.0915 101.884 46.3235C105.603 43.6341 109.663 41.3962 113.977 39.6981C113.987 39.0012 113.996 38.4221 113.996 38H110.444C106.608 39.7177 102.997 41.8379 99.6587 44.3114C95.8229 47.1481 92.3483 50.4559 89.3226 54.1269C85.0867 59.2702 81.7097 65.1497 79.4161 71.569C77.2005 77.7528 76 84.4077 76 91.3375C76 99.2389 77.5616 106.777 80.3921 113.658C83.3397 120.804 87.6439 127.233 92.9925 132.612C95.8717 135.497 99.0438 138.099 102.479 140.336C105.876 142.555 109.507 144.42 113.333 145.892L113.616 146C113.596 145.048 113.557 143.968 113.499 142.79C110.083 141.406 106.842 139.698 103.807 137.696C100.654 135.615 97.7262 133.21 95.0616 130.531C94.3003 129.765 93.5683 128.99 92.8656 128.195C92.3385 127.596 91.831 126.997 91.343 126.398C93.6757 125.044 96.1255 123.807 98.6631 122.688C101.23 121.559 103.895 120.539 106.647 119.655C107.291 121.834 108.013 123.935 108.794 125.937C109.673 128.175 110.629 130.285 111.664 132.258C112.132 133.142 112.62 134.015 113.108 134.889C113.001 132.602 112.893 130.256 112.835 127.989C112.269 126.732 111.722 125.417 111.205 124.062C110.571 122.384 109.985 120.627 109.448 118.801L109.682 118.733L110.629 118.477L111.976 118.124L113.069 117.859C113.147 117.201 113.235 116.603 113.342 116.073C113.44 115.582 113.557 115.12 113.694 114.689L113.313 114.777C112.708 114.914 112.132 115.052 111.576 115.189C111 115.327 110.424 115.484 109.868 115.631C109.468 115.739 109.067 115.857 108.667 115.965C107.76 112.411 107.037 108.662 106.54 104.755C106.042 100.917 105.759 96.9225 105.7 92.8196H132.55V112.5L131.75 112.51L130.228 112.559L128.91 112.608C132.736 114.61 136.308 116.21 140.134 112.676L139.344 112.637C138.602 112.598 137.84 112.559 137.05 112.539C136.533 112.519 136.015 112.509 135.479 112.5V92.8098H135.498ZM103.651 105.138C104.178 109.221 104.929 113.118 105.876 116.789C102.967 117.722 100.147 118.791 97.4431 119.999C94.7005 121.216 92.0653 122.561 89.5569 124.033C86.297 119.557 83.6813 114.561 81.8659 109.192C80.1188 104.029 79.1037 98.5224 78.9573 92.8H102.792C102.84 97.0501 103.133 101.173 103.651 105.138ZM103.651 77.527C103.143 81.4925 102.84 85.6248 102.792 89.8651H78.9476C79.094 84.1427 80.109 78.646 81.8561 73.4732C83.6715 68.114 86.2775 63.1179 89.5471 58.6322C92.0555 60.1045 94.6907 61.4492 97.4333 62.6664C100.137 63.8639 102.958 64.9337 105.876 65.876C104.919 69.5372 104.168 73.4438 103.651 77.527Z" fill="#FEFEFE"/>
</g>
<defs>
<linearGradient id="paint0_linear_125_9834" x1="-21.9937" y1="3.76864" x2="70.1597" y2="105.877" gradientUnits="userSpaceOnUse">
<stop stop-color="#FFC671"/>
<stop offset="1" stop-color="#FF6F3D"/>
</linearGradient>
<clipPath id="clip0_125_9834">
<rect width="150" height="150" fill="white"/>
</clipPath>
</defs>
</svg>
