<svg width="16" height="16" viewBox="0 0 16 16" fill="none" xmlns="http://www.w3.org/2000/svg">
<g clip-path="url(#clip0_125_6251)">
<path fill-rule="evenodd" clip-rule="evenodd" d="M11.5914 14.9925C11.7357 14.9925 11.7808 14.9483 11.7808 14.807C11.7672 14.0824 11.6229 12.5451 11.7537 11.9222C11.8664 11.3832 12.173 11.2507 12.5157 11.2949C13.3274 11.392 13.9451 12.417 14.6892 11.2286C14.883 10.9238 14.9777 10.5792 14.9958 10.239C15.0544 9.25387 14.4998 8.2908 13.9406 8.2908C13.2688 8.2908 13.1498 8.53915 12.6228 8.47544C12.0957 8.41173 11.8662 8.10532 11.7951 7.77176C11.7239 7.4382 11.7333 4.8487 11.7333 4.26492L8.48421 4.26946C7.91336 4.26946 7.53589 3.95609 7.60804 3.47898C7.69371 2.87375 7.93896 2.91442 7.93896 2.10156C7.93896 0.811585 4.12422 0.396318 4.12422 2.28711C4.12422 2.95418 4.53523 3.15829 4.53523 3.75027C4.53523 3.96232 4.48175 4.24435 4.19863 4.42971C3.56248 4.84619 0.930344 4.27115 0.99938 4.36786V6.8197C0.99938 7.38557 1.22033 7.67674 1.4999 7.67674C1.98237 7.67674 2.38748 7.39358 2.87519 7.33243C5.07204 7.05699 5.24882 11.5953 2.87519 11.5953C1.78848 11.5953 0.99938 10.5276 0.99938 11.4716V14.9943C2.00943 14.9943 3.29709 15.0006 4.26624 15.0006C4.75421 15.0006 5.07204 15.0146 5.07204 14.6568C5.07204 14.131 4.73293 14.008 4.73293 13.3762C4.73293 12.5369 5.74171 12.2005 6.8742 12.2005C8.00669 12.2005 8.93313 12.6909 8.93313 13.4326C8.93313 14.1743 8.57024 14.2989 8.57024 14.6568C8.57024 14.8467 8.66042 14.9925 8.90843 14.9925H11.5914Z" fill="url(#paint0_linear_125_6251)"/>
<path fill-rule="evenodd" clip-rule="evenodd" d="M12.7807 14.7976V14.8069C12.7807 14.9218 12.7774 15.3364 12.4399 15.667C12.1088 15.9915 11.7008 15.9925 11.5913 15.9925H8.90833C8.5846 15.9925 8.19279 15.8906 7.89909 15.5605C7.62465 15.252 7.57015 14.8926 7.57015 14.6567C7.57015 14.3819 7.64399 14.1618 7.71914 13.9992C7.75349 13.9249 7.78939 13.8601 7.81332 13.8176C7.82366 13.7992 7.83177 13.7849 7.83868 13.7727C7.8514 13.7503 7.86004 13.7351 7.87098 13.7148L7.87331 13.7104C7.89996 13.661 7.92725 13.6104 7.93223 13.4776C7.91522 13.4613 7.88374 13.4364 7.82852 13.4046C7.64317 13.2976 7.31157 13.2005 6.87411 13.2005C6.3824 13.2005 6.01573 13.2771 5.81153 13.3751C5.7754 13.3925 5.75045 13.4076 5.73392 13.419C5.73778 13.4825 5.75339 13.519 5.80278 13.6212C5.80775 13.6314 5.81313 13.6424 5.81885 13.6541C5.90594 13.8319 6.07195 14.1709 6.07195 14.6567C6.07195 14.8922 6.01851 15.1945 5.80946 15.4683C5.60159 15.7405 5.33144 15.8643 5.1337 15.9224C4.94613 15.9774 4.76445 15.9909 4.64135 15.9962C4.53294 16.0009 4.41331 16.0008 4.31378 16.0006C4.2973 16.0006 4.28138 16.0006 4.26614 16.0006C3.78507 16.0006 3.2262 15.999 2.66341 15.9975L2.6453 15.9974C2.07565 15.9959 1.50267 15.9943 0.999289 15.9943H-0.000711166V11.4716C-0.000711166 11.3042 0.0138672 11.0742 0.102898 10.8445C0.205838 10.5789 0.423236 10.2873 0.801683 10.1514C1.12243 10.0363 1.41009 10.0907 1.55065 10.1262C1.70414 10.1649 1.84431 10.2247 1.93781 10.2665C2.02113 10.3037 2.09626 10.3383 2.16507 10.3701C2.47254 10.5117 2.65379 10.5953 2.87509 10.5953C3.09722 10.5953 3.2358 10.5107 3.35529 10.3329C3.49802 10.1204 3.59718 9.77653 3.58923 9.38063C3.58123 8.98214 3.46758 8.65914 3.33407 8.48012C3.23038 8.34109 3.14371 8.30657 2.9995 8.32465C2.89435 8.33783 2.79627 8.37243 2.56281 8.4548C2.54836 8.45989 2.5334 8.46517 2.51788 8.47064C2.29321 8.54983 1.92823 8.67673 1.4998 8.67673C0.961596 8.67673 0.540154 8.37785 0.297983 7.99244C0.0739739 7.63592 -0.000711166 7.21552 -0.000711166 6.81968V4.42478C-0.00521614 4.34905 -0.0012494 4.2672 0.0150361 4.18007C0.0885094 3.78697 0.35597 3.5802 0.491214 3.50015C0.706333 3.37282 0.917772 3.36134 0.938686 3.36021C0.939448 3.36017 0.939957 3.36014 0.940205 3.36012C1.04341 3.35219 1.13928 3.36033 1.17436 3.36331L1.17544 3.3634C1.27213 3.37161 1.39769 3.3883 1.51618 3.40451C1.56199 3.41078 1.60988 3.41743 1.65963 3.42433C1.88908 3.45616 2.15795 3.49346 2.44304 3.5246C2.79272 3.56279 3.13013 3.58731 3.40217 3.5823C3.42856 3.58182 3.45346 3.58106 3.4769 3.58008C3.46483 3.55466 3.45028 3.52465 3.43272 3.48905C3.31597 3.25225 3.12413 2.86139 3.12413 2.28709C3.12413 1.40537 3.60071 0.771212 4.21959 0.41334C4.79001 0.0834852 5.46943 -0.0158422 6.06159 0.00198775C6.65981 0.02 7.29391 0.160947 7.81351 0.438142C8.29706 0.69611 8.93887 1.2281 8.93887 2.10155C8.93887 2.63949 8.85156 2.96767 8.72386 3.26394C8.72311 3.26568 8.72237 3.2674 8.72163 3.26912L12.7332 3.2635V4.2649C12.7332 4.31538 12.7331 4.38015 12.733 4.45662C12.7326 4.82825 12.732 5.47625 12.7374 6.10355C12.7406 6.48208 12.746 6.84676 12.7548 7.13464C12.7592 7.27885 12.7643 7.39736 12.7699 7.48575C12.803 7.48859 12.8255 7.48366 12.9388 7.44953L12.9529 7.44527C13.1561 7.38394 13.4648 7.29079 13.9405 7.29079C14.7868 7.29079 15.3246 7.95883 15.5749 8.41157C15.8656 8.93723 16.0342 9.61102 15.9941 10.2953C15.9679 10.7803 15.8316 11.2942 15.5349 11.7621C15.291 12.1507 14.9691 12.5047 14.5185 12.6835C14.0416 12.8727 13.6058 12.7936 13.3029 12.6896C13.0931 12.6175 12.8628 12.4986 12.7252 12.4276C12.718 12.4239 12.7111 12.4203 12.7044 12.4169C12.6957 12.6293 12.6982 12.9254 12.7123 13.2877C12.7203 13.4952 12.7325 13.7304 12.7445 13.9603C12.7608 14.2744 12.7766 14.5784 12.7805 14.7883L12.7807 14.7976ZM14.6891 11.2286C14.883 10.9238 14.9776 10.5792 14.9957 10.239C15.0543 9.25385 14.4997 8.29079 13.9405 8.29079C13.6125 8.29079 13.4163 8.34999 13.24 8.40316C13.0553 8.45891 12.8924 8.50803 12.6227 8.47543C12.0956 8.41172 11.8661 8.10531 11.795 7.77174C11.746 7.54204 11.7352 6.24252 11.7332 5.2649C11.7325 4.94322 11.7328 4.65639 11.733 4.45399C11.7331 4.37828 11.7332 4.31439 11.7332 4.2649L8.48412 4.26945C7.91327 4.26945 7.5358 3.95608 7.60795 3.47896C7.64368 3.22652 7.70718 3.08645 7.76906 2.94994C7.85554 2.75917 7.93887 2.57536 7.93887 2.10155C7.93887 0.811572 4.12413 0.396305 4.12413 2.28709C4.12413 2.63059 4.23311 2.85133 4.33883 3.06548C4.43843 3.26721 4.53514 3.4631 4.53514 3.75026C4.53514 3.96231 4.48166 4.24434 4.19854 4.42969C3.83043 4.6707 2.79397 4.57969 1.99929 4.47895C1.99671 4.47863 1.99414 4.4783 1.99156 4.47797C1.81894 4.45603 1.65791 4.43368 1.51785 4.41425C1.37715 4.39472 1.25762 4.37813 1.16878 4.36785C1.09251 4.35902 1.03886 4.35484 1.01385 4.35745C1.00043 4.35885 0.995261 4.3622 0.999289 4.36785V5.35569V6.81968C0.999289 7.38555 1.22024 7.67672 1.4998 7.67672C1.76649 7.67672 2.00953 7.59021 2.25595 7.5025C2.45535 7.43153 2.65696 7.35977 2.87509 7.33242C5.07195 7.05697 5.24873 11.5953 2.87509 11.5953C2.41408 11.5953 2.00662 11.4031 1.69025 11.2539C1.26088 11.0514 0.999289 10.928 0.999289 11.4716V14.9943C1.50953 14.9943 2.09062 14.9959 2.6657 14.9975C3.22902 14.999 3.78658 15.0006 4.26614 15.0006C4.28408 15.0006 4.30179 15.0006 4.31925 15.0006C4.77705 15.0011 5.07195 15.0014 5.07195 14.6567C5.07195 14.4059 4.99478 14.2468 4.91406 14.0803C4.82557 13.8979 4.73283 13.7066 4.73283 13.3762C4.73283 12.5369 5.74162 12.2005 6.87411 12.2005C8.0066 12.2005 8.93303 12.6909 8.93303 13.4326C8.93303 13.8703 8.80666 14.0931 8.70307 14.2757C8.63112 14.4026 8.57015 14.5101 8.57015 14.6567C8.57015 14.8467 8.66033 14.9925 8.90833 14.9925H11.5913C11.7356 14.9925 11.7807 14.9483 11.7807 14.8069C11.7769 14.6045 11.7629 14.3386 11.7475 14.0469C11.708 13.2947 11.6594 12.371 11.7536 11.9222C11.8663 11.3832 12.173 11.2507 12.5157 11.2948C12.7679 11.3251 13.0014 11.4449 13.2258 11.56C13.7235 11.8153 14.1763 12.0476 14.6891 11.2286ZM3.53454 3.76464C3.53453 3.76463 3.53457 3.76413 3.53471 3.76319ZM7.9499 13.4996C7.9492 13.4998 7.94614 13.4962 7.94282 13.4886C7.94894 13.4957 7.9506 13.4995 7.9499 13.4996Z" fill="#333333"/>
<mask id="mask0_125_6251" style="mask-type:alpha" maskUnits="userSpaceOnUse" x="1" y="1" width="14" height="14">
<path fill-rule="evenodd" clip-rule="evenodd" d="M11.5918 14.9918C11.7361 14.9918 11.7812 14.9477 11.7812 14.8063C11.7676 14.0818 11.6234 12.5445 11.7541 11.9217C11.8668 11.3827 12.1734 11.2502 12.5161 11.2944C13.3276 11.3916 13.9452 12.4164 14.6892 11.2281C14.883 10.9233 14.9777 10.5787 14.9957 10.2386C15.0543 9.25347 14.4998 8.29045 13.9407 8.29045C13.269 8.29045 13.15 8.53879 12.6231 8.47508C12.0961 8.41138 11.8666 8.10498 11.7955 7.77143C11.7243 7.43789 11.7337 4.84852 11.7337 4.26476L8.48509 4.26931C7.91433 4.26931 7.53691 3.95595 7.60905 3.47886C7.69471 2.87366 7.93992 2.91433 7.93992 2.10151C7.93992 0.811594 4.12573 0.396347 4.12573 2.28705C4.12573 2.95409 4.53668 3.15819 4.53668 3.75014C4.53668 3.96218 4.48321 4.24419 4.20013 4.42954C3.56407 4.84601 0.932306 4.27099 1.00133 4.3677V6.81942C1.00133 7.38526 1.22225 7.67642 1.50178 7.67642C1.98419 7.67642 2.38923 7.39327 2.87687 7.33213C5.07341 7.0567 5.25017 11.5948 2.87687 11.5948C1.79032 11.5948 1.00133 10.5271 1.00133 11.4711V14.9937C2.01124 14.9937 3.29871 14.9999 4.26772 14.9999C4.75562 14.9999 5.07341 15.0139 5.07341 14.6561C5.07341 14.1304 4.73434 14.0074 4.73434 13.3757C4.73434 12.5363 5.74298 12.2 6.87531 12.2C8.00764 12.2 8.93394 12.6903 8.93394 13.432C8.93394 14.1737 8.57111 14.2983 8.57111 14.6561C8.57111 14.8461 8.66128 14.9918 8.90925 14.9918H11.5918Z" fill="url(#paint1_linear_125_6251)"/>
</mask>
<g mask="url(#mask0_125_6251)">
<path fill-rule="evenodd" clip-rule="evenodd" d="M13.5704 12.5204V14.2866C13.2813 14.0839 12.9736 13.7438 12.6803 13.2158C12.5865 13.0469 12.498 12.8646 12.4159 12.6702C12.7845 12.5989 13.1706 12.548 13.5704 12.5204ZM14.4991 14.5084V12.4991C15.0667 12.5118 15.6109 12.5714 16.1216 12.6702C16.0394 12.8646 15.951 13.0469 15.8572 13.2158C15.3974 14.0434 14.9023 14.4093 14.4991 14.5084ZM20.5332 9.50091C20.4139 12.779 17.7774 15.4149 14.4991 15.5333V16.0018H13.5704V15.499C10.4369 15.1517 8 12.4948 8 9.26873C8 5.80661 10.8066 3 14.2687 3C17.4954 3 20.1527 5.43787 20.4992 8.57221H21V9.50091H20.5332ZM19.4918 8.57221C19.3792 7.71945 19.0626 6.93102 18.5927 6.25751C18.2406 6.43777 17.859 6.59568 17.4536 6.72853C17.5952 7.30283 17.6902 7.92256 17.7301 8.57221H19.4918ZM17.749 9.50091H19.5324C19.4853 10.5877 19.109 11.589 18.5007 12.4078C18.1624 12.2407 17.798 12.0939 17.4124 11.9697C17.6122 11.2175 17.7312 10.3824 17.749 9.50091ZM16.7281 8.57221C16.69 8.00805 16.6066 7.47589 16.4874 6.98744C15.8591 7.12082 15.1908 7.19856 14.4991 7.21272V8.57221H16.7281ZM14.4991 9.50091H16.7488C16.731 10.3046 16.6214 11.0531 16.4453 11.7153C15.8293 11.5873 15.1754 11.5127 14.4991 11.4989V9.50091ZM13.5704 8.57221V7.1933C13.0448 7.16034 12.5355 7.0905 12.05 6.98744C11.9308 7.47589 11.8475 8.00805 11.8094 8.57221H13.5704ZM11.7887 9.50091H13.5704V11.5183C13.06 11.5503 12.5649 11.6171 12.0922 11.7153C11.916 11.0531 11.8065 10.3046 11.7887 9.50091ZM10.8074 8.57221C10.8473 7.92256 10.9423 7.30283 11.0839 6.72853C10.6784 6.59568 10.2968 6.43777 9.94473 6.25751C9.47483 6.93102 9.15826 7.71945 9.04563 8.57221H10.8074ZM9.00502 9.50091H10.7884C10.8063 10.3824 10.9252 11.2175 11.125 11.9697C10.7395 12.0939 10.3751 12.2407 10.0368 12.4078C9.42848 11.589 9.05215 10.5877 9.00502 9.50091ZM13.5704 4.25083V6.19117C13.1469 6.16197 12.7387 6.10661 12.3504 6.02845C12.4503 5.77289 12.561 5.53644 12.6803 5.32171C12.9736 4.7937 13.2813 4.45361 13.5704 4.25083ZM16.1871 6.02845C15.6576 6.13504 15.091 6.19922 14.4991 6.2125V4.02902C14.9023 4.12815 15.3974 4.49408 15.8572 5.32171C15.9765 5.53644 16.0871 5.77289 16.1871 6.02845ZM17.1001 12.9197C16.9374 13.3276 16.7483 13.699 16.5371 14.0255C16.9977 13.8055 17.4213 13.5205 17.7961 13.1825C17.5764 13.0861 17.3439 12.9981 17.1001 12.9197ZM10.7414 13.1825C10.961 13.0861 11.1936 12.9981 11.4374 12.9197C11.6 13.3276 11.7892 13.699 12.0004 14.0255C11.5398 13.8055 11.1162 13.5205 10.7414 13.1825ZM17.1598 5.77241C17.4287 5.68357 17.6834 5.583 17.922 5.47222C17.5171 5.08253 17.05 4.75698 16.5371 4.51195C16.7747 4.87933 16.9844 5.30336 17.1598 5.77241ZM12.0004 4.51195C11.7628 4.87933 11.5531 5.30336 11.3777 5.77241C11.1088 5.68358 10.854 5.583 10.6155 5.47222C11.0204 5.08253 11.4875 4.75698 12.0004 4.51195Z" fill="white"/>
</g>
</g>
<defs>
<linearGradient id="paint0_linear_125_6251" x1="-1.43629" y1="1.16964" x2="7.38309" y2="11.085" gradientUnits="userSpaceOnUse">
<stop stop-color="#FFC671"/>
<stop offset="1" stop-color="#FF6F3D"/>
</linearGradient>
<linearGradient id="paint1_linear_125_6251" x1="-1.43399" y1="1.16963" x2="7.38507" y2="11.0837" gradientUnits="userSpaceOnUse">
<stop stop-color="#FFC671"/>
<stop offset="1" stop-color="#FF6F3D"/>
</linearGradient>
<clipPath id="clip0_125_6251">
<rect width="16" height="16" fill="white"/>
</clipPath>
</defs>
</svg>
