<svg width="32" height="32" viewBox="0 0 32 32" fill="none" xmlns="http://www.w3.org/2000/svg">
<g clip-path="url(#clip0_125_5932)">
<path fill-rule="evenodd" clip-rule="evenodd" d="M23.696 30.9825C24.0051 30.9825 24.1018 30.8878 24.1018 30.5849C24.0728 29.0325 23.7636 25.7383 24.0438 24.4035C24.2853 23.2487 24.9424 22.9647 25.6767 23.0594C27.4158 23.2676 28.7395 25.4638 30.3338 22.9174C30.7492 22.2642 30.9521 21.5258 30.9908 20.797C31.1164 18.686 29.928 16.6224 28.7299 16.6224C27.2902 16.6224 27.0354 17.1545 25.906 17.018C24.7767 16.8815 24.2849 16.225 24.1324 15.5102C23.98 14.7955 24 9.24683 24 7.99592L17.0381 8.00565C15.8149 8.00565 15.0061 7.33418 15.1607 6.31184C15.3442 5.01498 15.8697 5.10214 15.8697 3.36038C15.8697 0.596272 7.69569 -0.293543 7.69569 3.75795C7.69569 5.18734 8.57639 5.62469 8.57639 6.89315C8.57639 7.34752 8.4618 7.95184 7.85515 8.34902C6.49203 9.24145 0.851999 8.00926 0.999927 8.21649V13.4702C0.999927 14.6827 1.47337 15.3066 2.07241 15.3066C3.10624 15.3066 3.97428 14.6999 5.01932 14.5688C9.72665 13.9786 10.1054 23.7031 5.01932 23.7031C2.69078 23.7031 0.999927 21.4152 0.999927 23.438V30.9864C3.16422 30.9864 5.92335 30.9998 8 30.9998C9.0456 30.9998 9.72665 31.0298 9.72665 30.2631C9.72665 29.1366 9 28.8729 9 27.5193C9 25.7207 11.1616 25 13.5882 25C16.0149 25 18 26.0507 18 27.64C18 29.2293 17.2224 29.4963 17.2224 30.2631C17.2224 30.6701 17.4157 30.9825 17.9471 30.9825H23.696Z" fill="url(#paint0_linear_125_5932)"/>
<path fill-rule="evenodd" clip-rule="evenodd" d="M25.1017 30.5756V30.5849C25.1017 30.7806 25.0855 31.2482 24.7146 31.6116C24.3499 31.9689 23.8878 31.9825 23.6959 31.9825H17.947C17.4815 31.9825 16.9931 31.839 16.6382 31.4401C16.3026 31.0628 16.2223 30.6074 16.2223 30.2631C16.2223 29.6503 16.5217 29.1426 16.6723 28.8872C16.6959 28.8471 16.7159 28.8132 16.7305 28.7861C16.8644 28.5374 16.9999 28.2353 16.9999 27.64C16.9999 27.3226 16.8145 26.9423 16.2043 26.5902C15.5925 26.2372 14.6727 26 13.5881 26C12.4493 26 11.4709 26.1727 10.8168 26.4867C10.1954 26.7849 9.99991 27.1255 9.99991 27.5193C9.99991 27.9744 10.1073 28.2179 10.2636 28.5413C10.2738 28.5622 10.2842 28.5838 10.295 28.6059C10.4728 28.9708 10.7266 29.4916 10.7266 30.2631C10.7266 30.6007 10.6504 30.9787 10.3986 31.3085C10.148 31.6368 9.81499 31.7969 9.537 31.8785C9.26917 31.9571 8.98982 31.9813 8.75425 31.9916C8.55004 32.0005 8.32388 32.0002 8.10841 31.9999C8.07188 31.9999 8.03566 31.9998 7.99991 31.9998C6.9708 31.9998 5.77478 31.9965 4.56826 31.9932L4.52998 31.9931C3.30975 31.9897 2.08034 31.9864 0.999836 31.9864H-0.0001641V23.438C-0.0001641 23.1358 0.0285041 22.8068 0.144618 22.5072C0.27464 22.1718 0.532114 21.8394 0.962532 21.6849C1.33525 21.5511 1.68678 21.609 1.902 21.6633C2.13016 21.7208 2.35579 21.8147 2.54447 21.8991C2.68203 21.9606 2.81716 22.0236 2.95092 22.086C3.63033 22.4028 4.27417 22.703 5.01923 22.703C5.91948 22.703 6.55402 22.2944 6.99679 21.6352C7.4628 20.9415 7.71255 19.9592 7.69197 18.9347C7.67134 17.9076 7.38185 16.9659 6.91875 16.3449C6.48548 15.7639 5.91546 15.4643 5.14363 15.5611C4.79046 15.6053 4.46314 15.7213 4.01839 15.8789C3.9716 15.8955 3.92352 15.9125 3.87397 15.93C3.39497 16.0988 2.77642 16.3066 2.07232 16.3066C1.37437 16.3066 0.809937 15.9245 0.46471 15.3751C0.137643 14.8546 -0.0001641 14.1893 -0.0001641 13.4702V8.29127C-0.00685073 8.20926 -0.00377095 8.11983 0.0141255 8.02408C0.0878529 7.62962 0.3563 7.42167 0.493244 7.34061C0.71011 7.21225 0.925964 7.19875 0.957726 7.19677C0.959115 7.19668 0.960153 7.19662 0.960822 7.19656C1.08298 7.18717 1.20839 7.19673 1.28061 7.20287C1.45342 7.21754 1.69284 7.24897 1.95246 7.2845C2.04737 7.29749 2.14769 7.31141 2.25274 7.32598C2.74466 7.39424 3.34031 7.4769 3.96938 7.54561C4.73555 7.62929 5.51463 7.68788 6.16966 7.67582C6.49705 7.6698 6.77025 7.64637 6.98279 7.60742C7.08783 7.58817 7.16775 7.56696 7.22584 7.54693C7.28288 7.52726 7.30607 7.51312 7.30727 7.51239C7.30729 7.51237 7.30726 7.51239 7.30727 7.51239C7.42699 7.434 7.48231 7.35093 7.51653 7.26657C7.5565 7.16806 7.5763 7.04247 7.5763 6.89314C7.5763 6.5197 7.46492 6.28624 7.23904 5.8281C7.00487 5.35313 6.6956 4.71339 6.6956 3.75794C6.6956 2.33604 7.44464 1.32641 8.47221 0.732209C9.45131 0.166027 10.6756 -0.0304821 11.8127 0.00375508C12.9559 0.0381746 14.1349 0.309118 15.0631 0.804339C15.9554 1.28034 16.8697 2.11838 16.8697 3.36036C16.8697 4.36276 16.7123 4.91155 16.5023 5.39876C16.469 5.476 16.4382 5.54431 16.4097 5.60756C16.2867 5.8805 16.2063 6.05888 16.1507 6.45198L16.1494 6.46135C16.1209 6.64998 16.1732 6.72968 16.2435 6.79159C16.3468 6.88261 16.5938 7.00552 17.0373 7.00564C17.0376 7.00564 17.0371 7.00564 17.0373 7.00564L24.9999 6.9945V7.9959C24.9999 8.10292 24.9998 8.2407 24.9996 8.40368C24.9988 9.19914 24.9973 10.595 25.0089 11.9455C25.0159 12.7595 25.0276 13.5506 25.0469 14.1799C25.0565 14.4952 25.0678 14.7633 25.0809 14.9705C25.0874 15.0741 25.0941 15.157 25.1005 15.2197C25.1066 15.2795 25.1109 15.3034 25.1107 15.3035C25.1107 15.3035 25.1106 15.3028 25.1103 15.3016C25.154 15.5063 25.2349 15.6541 25.3436 15.7579C25.447 15.8567 25.6408 15.9787 26.0259 16.0252C26.3818 16.0683 26.5672 16.0181 26.913 15.9139L26.9416 15.9053C27.3463 15.7832 27.8792 15.6224 28.7298 15.6224C29.8955 15.6224 30.7515 16.5656 31.2317 17.4342C31.7523 18.3756 32.0626 19.6058 31.9891 20.8529C31.9423 21.7267 31.6979 22.6346 31.1793 23.4511C30.7232 24.1788 30.1978 24.7143 29.5467 24.9726C28.8696 25.2412 28.2369 25.1396 27.7346 24.9671C27.376 24.8439 26.9967 24.6489 26.6951 24.4938C26.6134 24.4518 26.5375 24.4127 26.4691 24.3788C26.0931 24.1921 25.813 24.0828 25.5577 24.0523L25.5487 24.0512C25.3377 24.024 25.2703 24.0669 25.2548 24.0779C25.2392 24.089 25.111 24.1854 25.0225 24.6083C24.9125 25.1325 24.909 26.1612 24.956 27.3739C24.9748 27.8596 25.0019 28.3771 25.0277 28.8709C25.0615 29.5184 25.0933 30.1252 25.1015 30.5662L25.1017 30.5756ZM30.3337 22.9174C30.7491 22.2642 30.952 21.5258 30.9907 20.7969C31.1163 18.686 29.9279 16.6224 28.7298 16.6224C28.0269 16.6224 27.6064 16.7492 27.2287 16.8632C26.8328 16.9826 26.4839 17.0879 25.9059 17.018C24.7766 16.8815 24.2848 16.2249 24.1323 15.5102C24.0065 14.9203 23.9982 11.0375 23.9991 8.9959C23.9992 8.77358 23.9994 8.5731 23.9996 8.40108C23.9998 8.23885 23.9999 8.10194 23.9999 7.9959L17.038 8.00564C15.8148 8.00564 15.006 7.33417 15.1606 6.31183C15.2371 5.7709 15.3732 5.47076 15.5058 5.17825C15.6911 4.76948 15.8697 4.37562 15.8697 3.36036C15.8697 0.59626 7.6956 -0.293556 7.6956 3.75794C7.6956 4.49397 7.92912 4.96696 8.15566 5.42583C8.36907 5.8581 8.5763 6.27784 8.5763 6.89314C8.5763 7.34751 8.46171 7.95183 7.85505 8.34901C6.89203 8.97949 3.79432 8.54955 2.111 8.31591C2.07322 8.31066 2.03615 8.30552 1.99984 8.30049C1.99756 8.30017 1.99528 8.29986 1.99301 8.29954C1.74245 8.26483 1.52803 8.23558 1.36301 8.21648C1.19958 8.19757 1.08462 8.18862 1.03105 8.1942C1.00228 8.1972 0.991206 8.20439 0.999836 8.21648V13.4702C0.999836 14.6827 1.47327 15.3066 2.07232 15.3066C2.64376 15.3066 3.16454 15.1212 3.69256 14.9333C4.11982 14.7812 4.55182 14.6274 5.01923 14.5688C9.72656 13.9786 10.1054 23.703 5.01923 23.703C4.03138 23.703 3.15831 23.2913 2.48041 22.9716C1.56036 22.5377 0.999836 22.2734 0.999836 23.438V30.9864C2.09316 30.9864 3.33829 30.9898 4.57055 30.9932C5.7776 30.9965 6.97231 30.9998 7.99991 30.9998C8.03834 30.9998 8.07628 30.9999 8.11371 30.9999C9.09465 31.001 9.72656 31.0016 9.72656 30.2631C9.72656 29.7257 9.56119 29.3846 9.38823 29.028C9.19863 28.637 8.99991 28.2271 8.99991 27.5193C8.99991 25.7207 11.1615 25 13.5881 25C16.0148 25 17.9999 26.0507 17.9999 27.64C17.9999 28.5778 17.7291 29.0552 17.5072 29.4466C17.353 29.7184 17.2223 29.9488 17.2223 30.2631C17.2223 30.6701 17.4156 30.9825 17.947 30.9825H23.6959C24.0051 30.9825 24.1017 30.8878 24.1017 30.5849C24.0936 30.1511 24.0636 29.5814 24.0307 28.9564C23.9459 27.3446 23.8418 25.3653 24.0437 24.4035C24.2853 23.2487 24.9423 22.9647 25.6766 23.0593C26.2171 23.1241 26.7174 23.3808 27.1983 23.6275C28.2646 24.1746 29.2349 24.6724 30.3337 22.9174Z" fill="#333333"/>
<mask id="mask0_125_5932" style="mask-type:alpha" maskUnits="userSpaceOnUse" x="0" y="1" width="31" height="30">
<path fill-rule="evenodd" clip-rule="evenodd" d="M23.696 30.9825C24.0051 30.9825 24.1018 30.8878 24.1018 30.5849C24.0728 29.0325 23.7636 25.7383 24.0438 24.4035C24.2853 23.2487 24.9424 22.9647 25.6767 23.0594C27.4158 23.2676 28.7395 25.4638 30.3338 22.9174C30.7492 22.2642 30.9521 21.5258 30.9908 20.797C31.1164 18.686 29.928 16.6224 28.7299 16.6224C27.2902 16.6224 27.0354 17.1545 25.906 17.018C24.7767 16.8815 24.2849 16.225 24.1324 15.5102C23.98 14.7955 24 9.24683 24 7.99592L17.0381 8.00565C15.8149 8.00565 15.0061 7.33418 15.1607 6.31184C15.3442 5.01498 15.8697 5.10214 15.8697 3.36038C15.8697 0.596272 7.69569 -0.293543 7.69569 3.75795C7.69569 5.18734 8.57639 5.62469 8.57639 6.89315C8.57639 7.34752 8.4618 7.95184 7.85515 8.34902C6.49203 9.24145 0.851999 8.00926 0.999927 8.21649V13.4702C0.999927 14.6827 1.47337 15.3066 2.07241 15.3066C3.10624 15.3066 3.97428 14.6999 5.01932 14.5688C9.72665 13.9786 10.1054 23.7031 5.01932 23.7031C2.69078 23.7031 0.999927 21.4152 0.999927 23.438V30.9864C3.16422 30.9864 5.92335 30.9998 8 30.9998C9.0456 30.9998 9.72665 31.0298 9.72665 30.2631C9.72665 29.1366 9 28.8729 9 27.5193C9 25.7207 11.1616 25 13.5882 25C16.0149 25 18 26.0507 18 27.64C18 29.2293 17.2224 29.4963 17.2224 30.2631C17.2224 30.6701 17.4157 30.9825 17.9471 30.9825H23.696Z" fill="url(#paint1_linear_125_5932)"/>
</mask>
<g mask="url(#mask0_125_5932)">
<path fill-rule="evenodd" clip-rule="evenodd" d="M32.9291 27.5603C31.7878 29.6146 30.3852 30.7416 29 30.9604V24.8799C30.7238 24.9179 32.3573 25.1515 33.8403 25.5412C33.5736 26.2745 33.2676 26.9511 32.9291 27.5603ZM28 19V23.8797C26.175 23.9183 24.4342 24.1671 22.8458 24.5899C22.3508 22.9303 22.0481 21.033 22.0053 19H28ZM29 18V13.4948C30.8634 13.4555 32.6389 13.1968 34.2541 12.7577C34.6898 14.3328 34.9549 16.1076 34.9947 18H29ZM29 19H34.9947C34.9519 21.033 34.6492 22.9303 34.1542 24.5899C32.5658 24.1671 30.825 23.9183 29 23.8797V19ZM35.995 19C35.9521 21.1183 35.6381 23.1121 35.1136 24.8722C36.2784 25.2491 37.3459 25.7232 38.2856 26.2784C39.888 24.2653 40.8821 21.7465 40.9902 19H35.995ZM41.9909 18C41.7279 10.7758 35.7884 5 28.5 5C21.2116 5 15.2721 10.7758 15.0091 18H15V18.5V19H15.0091C15.2721 26.2242 21.2116 32 28.5 32C35.7884 32 41.7279 26.2242 41.9909 19H42V18.5V18H41.9909ZM16.0098 19C16.1179 21.7465 17.112 24.2653 18.7144 26.2784C19.6541 25.7232 20.7216 25.2491 21.8864 24.8722C21.3619 23.1121 21.0479 21.1183 21.005 19H16.0098ZM16.0098 18H21.005C21.0451 16.0179 21.3226 14.1448 21.7879 12.4701C20.5792 12.0715 19.4772 11.5676 18.5165 10.9768C17.0304 12.9459 16.1133 15.3684 16.0098 18ZM22.0053 18C22.0451 16.1076 22.3102 14.3328 22.7459 12.7577C24.3611 13.1968 26.1366 13.4555 28 13.4948V18H22.0053ZM40.9902 18H35.995C35.9549 16.0179 35.6774 14.1448 35.2121 12.4701C36.4208 12.0715 37.5228 11.5676 38.4835 10.9768C39.9696 12.9459 40.8867 15.3684 40.9902 18ZM29 6.03957V12.4946C30.7705 12.4556 32.4458 12.2102 33.9605 11.8012C33.667 10.9352 33.3197 10.1427 32.9291 9.4397C31.7878 7.38536 30.3852 6.25838 29 6.03957ZM28 6.03957V12.4946C26.2295 12.4556 24.5542 12.2102 23.0395 11.8012C23.333 10.9352 23.6803 10.1427 24.0709 9.4397C25.2122 7.38536 26.6148 6.25838 28 6.03957ZM28 24.8799V30.9604C26.6148 30.7416 25.2122 29.6146 24.0709 27.5603C23.7324 26.9511 23.4264 26.2745 23.1597 25.5412C24.6427 25.1515 26.2762 24.9179 28 24.8799ZM34.8019 25.8225C34.0861 27.8143 33.0868 29.4452 31.9068 30.5301C34.1225 29.9039 36.0883 28.682 37.6202 27.0483C36.7844 26.5709 35.8371 26.1571 34.8019 25.8225ZM19.3798 27.0483C20.2156 26.5709 21.1629 26.1571 22.1981 25.8225C22.9139 27.8143 23.9132 29.4452 25.0932 30.5301C22.8775 29.9039 20.9117 28.682 19.3798 27.0483ZM34.9189 11.5138C36.0011 11.1554 36.9851 10.71 37.8431 10.1958C36.2811 8.43968 34.2315 7.12691 31.9068 6.46987C33.1525 7.6152 34.1969 9.36908 34.9189 11.5138ZM25.0932 6.46987C23.8474 7.6152 22.8031 9.36908 22.0811 11.5138C20.9989 11.1553 20.0149 10.71 19.1569 10.1958C20.7189 8.43969 22.7685 7.12691 25.0932 6.46987Z" fill="white"/>
</g>
</g>
<defs>
<linearGradient id="paint0_linear_125_5932" x1="-4.21912" y1="1.3635" x2="14.6787" y2="22.6096" gradientUnits="userSpaceOnUse">
<stop stop-color="#FFC671"/>
<stop offset="1" stop-color="#FF6F3D"/>
</linearGradient>
<linearGradient id="paint1_linear_125_5932" x1="-4.21912" y1="1.3635" x2="14.6787" y2="22.6096" gradientUnits="userSpaceOnUse">
<stop stop-color="#FFC671"/>
<stop offset="1" stop-color="#FF6F3D"/>
</linearGradient>
<clipPath id="clip0_125_5932">
<rect width="32" height="32" fill="white"/>
</clipPath>
</defs>
</svg>
