<svg width="170" height="56" viewBox="0 0 170 56" fill="none" xmlns="http://www.w3.org/2000/svg">
<path d="M40.762 27.2752C40.7756 26.217 41.0567 25.1793 41.5791 24.2588C42.1015 23.3384 42.8483 22.565 43.7499 22.0107C43.1772 21.1927 42.4215 20.5195 41.5431 20.0446C40.6646 19.5697 39.6875 19.3062 38.6894 19.2749C36.5602 19.0515 34.4961 20.549 33.4111 20.549C32.3052 20.549 30.6347 19.2971 28.8358 19.3341C27.6723 19.3717 26.5383 19.7101 25.5444 20.3162C24.5505 20.9224 23.7305 21.7756 23.1645 22.7929C20.7123 27.0384 22.5414 33.278 24.8904 36.7098C26.0656 38.3902 27.4391 40.2674 29.2364 40.2008C30.9951 40.1278 31.6519 39.0793 33.7748 39.0793C35.878 39.0793 36.4942 40.2008 38.3279 40.1585C40.2151 40.1278 41.4041 38.4705 42.5381 36.7742C43.3825 35.5768 44.0323 34.2534 44.4634 32.8531C43.367 32.3894 42.4313 31.6132 41.7731 30.6213C41.1149 29.6294 40.7633 28.4657 40.762 27.2752V27.2752Z" fill="white"/>
<path d="M37.2984 17.0179C38.3274 15.7827 38.8343 14.195 38.7116 12.592C37.1395 12.7572 35.6874 13.5085 34.6446 14.6963C34.1347 15.2766 33.7442 15.9517 33.4953 16.683C33.2465 17.4143 33.1443 18.1875 33.1944 18.9583C33.9807 18.9664 34.7586 18.796 35.4695 18.4599C36.1804 18.1238 36.8057 17.6307 37.2984 17.0179Z" fill="white"/>
<path d="M62.9931 35.9467H56.9915L55.5502 40.2024H53.0082L58.6928 24.4573H61.3339L67.0186 40.2024H64.4332L62.9931 35.9467ZM57.6131 33.9829H62.3704L60.0252 27.0761H59.9596L57.6131 33.9829Z" fill="white"/>
<path d="M79.2954 34.4632C79.2954 38.0305 77.3861 40.3224 74.5048 40.3224C73.7749 40.3606 73.049 40.1924 72.4102 39.8373C71.7714 39.4821 71.2456 38.9542 70.8929 38.314H70.8384V43.9999H68.4821V28.7228H70.7629V30.6321H70.8062C71.1751 29.995 71.7099 29.4699 72.3535 29.1125C72.9971 28.7552 73.7256 28.579 74.4614 28.6027C77.3749 28.6027 79.2954 30.9058 79.2954 34.4632ZM76.8735 34.4632C76.8735 32.1391 75.6724 30.6111 73.8398 30.6111C72.0395 30.6111 70.8285 32.1712 70.8285 34.4632C70.8285 36.7762 72.0395 38.3252 73.8398 38.3252C75.6724 38.3252 76.8735 36.8084 76.8735 34.4632Z" fill="white"/>
<path d="M91.9302 34.4632C91.9302 38.0305 90.0209 40.3224 87.1395 40.3224C86.4096 40.3606 85.6838 40.1924 85.045 39.8372C84.4062 39.482 83.8804 38.9541 83.5277 38.314H83.4731V43.9999H81.1168V28.7228H83.3976V30.6321H83.4409C83.8099 29.995 84.3446 29.4699 84.9882 29.1125C85.6319 28.7552 86.3603 28.579 87.0962 28.6027C90.0097 28.6027 91.9302 30.9058 91.9302 34.4632ZM89.5082 34.4632C89.5082 32.1391 88.3072 30.6111 86.4746 30.6111C84.6742 30.6111 83.4633 32.1712 83.4633 34.4632C83.4633 36.7762 84.6742 38.3252 86.4746 38.3252C88.3072 38.3252 89.5082 36.8083 89.5082 34.4632H89.5082Z" fill="white"/>
<path d="M100.281 35.8155C100.455 37.3769 101.972 38.4021 104.045 38.4021C106.031 38.4021 107.46 37.3769 107.46 35.969C107.46 34.7469 106.598 34.0151 104.558 33.5136L102.517 33.0221C99.6257 32.3237 98.2835 30.9716 98.2835 28.7775C98.2835 26.0608 100.651 24.1948 104.013 24.1948C107.34 24.1948 109.621 26.0608 109.697 28.7775H107.319C107.176 27.2062 105.877 26.2577 103.979 26.2577C102.081 26.2577 100.782 27.2173 100.782 28.614C100.782 29.7272 101.612 30.3822 103.641 30.8836L105.376 31.3096C108.606 32.0735 109.949 33.3712 109.949 35.6743C109.949 38.62 107.602 40.4649 103.87 40.4649C100.379 40.4649 98.021 38.6633 97.8687 35.8154L100.281 35.8155Z" fill="white"/>
<path d="M115.034 26.0063V28.723H117.217V30.589H115.034V36.9175C115.034 37.9006 115.471 38.3588 116.431 38.3588C116.69 38.3543 116.949 38.336 117.206 38.3042V40.1591C116.774 40.2397 116.336 40.2762 115.897 40.2681C113.573 40.2681 112.667 39.3951 112.667 37.1688V30.589H110.997V28.723H112.667V26.0063H115.034Z" fill="white"/>
<path d="M118.481 34.4633C118.481 30.8514 120.608 28.5818 123.926 28.5818C127.254 28.5818 129.371 30.8514 129.371 34.4633C129.371 38.0851 127.265 40.3448 123.926 40.3448C120.587 40.3448 118.481 38.0851 118.481 34.4633ZM126.97 34.4633C126.97 31.9856 125.835 30.5233 123.926 30.5233C122.016 30.5233 120.882 31.9968 120.882 34.4633C120.882 36.9509 122.016 38.4021 123.926 38.4021C125.835 38.4021 126.97 36.9509 126.97 34.4633H126.97Z" fill="white"/>
<path d="M131.314 28.7232H133.561V30.6771H133.616C133.768 30.0668 134.126 29.5275 134.628 29.1498C135.131 28.7722 135.749 28.5791 136.377 28.6031C136.649 28.6021 136.92 28.6316 137.185 28.691V30.895C136.842 30.7903 136.484 30.7422 136.126 30.7526C135.783 30.7387 135.442 30.7991 135.125 30.9295C134.809 31.06 134.524 31.2575 134.291 31.5084C134.057 31.7593 133.881 32.0577 133.774 32.3831C133.667 32.7086 133.632 33.0533 133.67 33.3937V40.2027H131.314L131.314 28.7232Z" fill="white"/>
<path d="M148.049 36.8308C147.732 38.9147 145.702 40.3448 143.106 40.3448C139.766 40.3448 137.693 38.1074 137.693 34.5178C137.693 30.9171 139.777 28.5818 143.007 28.5818C146.183 28.5818 148.18 30.7635 148.18 34.2441V35.0515H140.072V35.1938C140.035 35.6163 140.087 36.0419 140.227 36.4424C140.367 36.8428 140.59 37.209 140.882 37.5165C141.174 37.8241 141.528 38.0659 141.921 38.2261C142.314 38.3862 142.736 38.461 143.16 38.4454C143.717 38.4976 144.276 38.3686 144.753 38.0777C145.231 37.7868 145.602 37.3494 145.811 36.8308L148.049 36.8308ZM140.083 33.4046H145.822C145.843 33.0248 145.786 32.6446 145.653 32.2881C145.52 31.9315 145.315 31.6062 145.051 31.3327C144.787 31.0591 144.468 30.8431 144.117 30.6983C143.765 30.5535 143.387 30.4829 143.007 30.4911C142.623 30.4888 142.242 30.5625 141.887 30.708C141.532 30.8535 141.21 31.0679 140.938 31.3388C140.666 31.6096 140.451 31.9316 140.304 32.2862C140.157 32.6408 140.082 33.0209 140.083 33.4046V33.4046Z" fill="white"/>
<path d="M59.3038 20.1709H54.585V12.6055H55.76V19.0906H59.3038V20.1709Z" fill="white"/>
<path d="M60.4912 18.5563C60.4912 17.5286 61.2564 16.9361 62.6147 16.8519L64.1613 16.7627V16.2699C64.1613 15.6669 63.7626 15.3264 62.9924 15.3264C62.3634 15.3264 61.9275 15.5573 61.8025 15.961H60.7116C60.8268 14.9803 61.7492 14.3513 63.0444 14.3513C64.4758 14.3513 65.2831 15.0639 65.2831 16.2699V20.1709H64.1984V19.3686H64.1093C63.9283 19.6564 63.6742 19.891 63.3729 20.0485C63.0716 20.206 62.734 20.2807 62.3944 20.265C62.1547 20.2899 61.9124 20.2643 61.6832 20.1899C61.454 20.1155 61.243 19.9939 61.0637 19.8329C60.8844 19.6719 60.7408 19.4751 60.6422 19.2552C60.5436 19.0354 60.4922 18.7973 60.4912 18.5563V18.5563ZM64.1613 18.0684V17.5911L62.767 17.6802C61.9807 17.7329 61.6241 18.0003 61.6241 18.5037C61.6241 19.0175 62.0699 19.3165 62.6828 19.3165C62.8624 19.3347 63.0439 19.3166 63.2163 19.2632C63.3888 19.2099 63.5487 19.1224 63.6867 19.0059C63.8246 18.8895 63.9377 18.7465 64.0192 18.5854C64.1008 18.4243 64.1491 18.2485 64.1613 18.0684V18.0684Z" fill="white"/>
<path d="M66.764 17.3137C66.764 15.5096 67.6915 14.3667 69.134 14.3667C69.4908 14.3503 69.8449 14.4358 70.155 14.6131C70.465 14.7905 70.7181 15.0525 70.8848 15.3684H70.969V12.2327H72.0958V20.1708H71.0161V19.2688H70.9269C70.7474 19.5826 70.4854 19.8413 70.1694 20.0169C69.8533 20.1925 69.4953 20.2783 69.134 20.2649C67.6815 20.265 66.764 19.1221 66.764 17.3137ZM67.928 17.3137C67.928 18.5247 68.4988 19.2534 69.4535 19.2534C70.4032 19.2534 70.9901 18.5142 70.9901 17.3187C70.9901 16.1287 70.397 15.379 69.4535 15.379C68.505 15.379 67.928 16.1126 67.928 17.3137H67.928Z" fill="white"/>
<path d="M78.7723 18.6294C78.6192 19.1512 78.2875 19.6026 77.8353 19.9046C77.383 20.2065 76.839 20.3398 76.2983 20.2812C75.9222 20.2911 75.5484 20.2191 75.2029 20.0701C74.8574 19.9211 74.5484 19.6986 74.2975 19.4182C74.0465 19.1379 73.8596 18.8062 73.7497 18.4464C73.6398 18.0865 73.6095 17.707 73.6609 17.3343C73.6109 16.9604 73.6417 16.5801 73.7514 16.2191C73.861 15.8582 74.0469 15.525 74.2966 15.2422C74.5462 14.9593 74.8536 14.7334 75.1981 14.5798C75.5426 14.4261 75.9162 14.3482 76.2934 14.3514C77.882 14.3514 78.8404 15.4368 78.8404 17.2296V17.6228H74.8088V17.6859C74.7911 17.8955 74.8175 18.1063 74.8861 18.3051C74.9547 18.5038 75.0641 18.6861 75.2073 18.8401C75.3504 18.9941 75.5242 19.1164 75.7174 19.1994C75.9106 19.2823 76.119 19.3239 76.3293 19.3216C76.5988 19.3539 76.8719 19.3054 77.1138 19.1821C77.3556 19.0589 77.5554 18.8665 77.6876 18.6294L78.7723 18.6294ZM74.8087 16.7895H77.6925C77.7067 16.5978 77.6807 16.4054 77.6161 16.2244C77.5515 16.0435 77.4497 15.878 77.3174 15.7387C77.185 15.5994 77.025 15.4894 76.8476 15.4156C76.6701 15.3418 76.4793 15.306 76.2872 15.3104C76.0923 15.308 75.8989 15.3446 75.7184 15.418C75.5379 15.4915 75.3739 15.6004 75.2361 15.7382C75.0983 15.876 74.9895 16.0401 74.9161 16.2206C74.8427 16.4012 74.8062 16.5946 74.8088 16.7895H74.8087Z" fill="white"/>
<path d="M80.3534 14.4615H81.4381V15.3685H81.5223C81.6651 15.0428 81.906 14.7697 82.2114 14.5874C82.5168 14.405 82.8715 14.3225 83.2261 14.3513C83.5039 14.3304 83.7828 14.3723 84.0422 14.4739C84.3016 14.5754 84.5349 14.7341 84.7247 14.938C84.9144 15.1419 85.0559 15.386 85.1386 15.652C85.2213 15.918 85.243 16.1993 85.2022 16.4749V20.1709H84.0755V16.7578C84.0755 15.8403 83.6768 15.384 82.8434 15.384C82.6548 15.3752 82.4665 15.4073 82.2915 15.4781C82.1165 15.5489 81.9588 15.6567 81.8293 15.7941C81.6998 15.9315 81.6016 16.0953 81.5413 16.2743C81.481 16.4532 81.4602 16.6431 81.4802 16.8309V20.1709H80.3534L80.3534 14.4615Z" fill="white"/>
<path d="M89.8951 12.7734C89.8864 12.6274 89.9217 12.4822 89.9965 12.3566C90.0713 12.231 90.1821 12.1307 90.3145 12.0688C90.4469 12.0068 90.5949 11.9861 90.7392 12.0092C90.8836 12.0323 91.0177 12.0983 91.1241 12.1985C91.2306 12.2987 91.3045 12.4285 91.3363 12.5712C91.3681 12.7139 91.3563 12.8629 91.3024 12.9988C91.2486 13.1347 91.1552 13.2514 91.0343 13.3336C90.9134 13.4158 90.7706 13.4598 90.6244 13.4599C90.531 13.4647 90.4375 13.4505 90.3497 13.4183C90.2619 13.386 90.1815 13.3363 90.1134 13.2722C90.0452 13.208 89.9908 13.1308 89.9533 13.0451C89.9158 12.9593 89.896 12.8669 89.8951 12.7734V12.7734ZM90.0635 14.4617H91.1853V20.1711H90.0635V14.4617Z" fill="white"/>
<path d="M93.0037 14.4616H94.0883V15.3791H94.1725C94.3083 15.0732 94.5299 14.8133 94.8105 14.6309C95.091 14.4484 95.4185 14.3513 95.7531 14.3513C96.0878 14.3513 96.4152 14.4484 96.6958 14.6309C96.9763 14.8133 97.1979 15.0732 97.3337 15.3791H97.4228C97.5822 15.0586 97.8309 14.791 98.1389 14.6087C98.447 14.4263 98.8012 14.3369 99.1588 14.3514C99.409 14.3309 99.6607 14.3662 99.8956 14.4547C100.131 14.5432 100.343 14.6827 100.517 14.8633C100.692 15.0438 100.824 15.2607 100.905 15.4985C100.985 15.7363 101.012 15.989 100.983 16.2384V20.171H99.8559V16.5325C99.8559 15.7617 99.4882 15.3841 98.749 15.3841C98.5898 15.3772 98.4309 15.4034 98.2822 15.4609C98.1336 15.5185 97.9984 15.6061 97.8853 15.7184C97.7721 15.8307 97.6834 15.9651 97.6247 16.1133C97.5661 16.2615 97.5386 16.4203 97.5442 16.5796V20.171H96.4374V16.4223C96.4445 16.2786 96.4203 16.1352 96.3666 16.0017C96.3129 15.8683 96.2309 15.7481 96.1263 15.6494C96.0217 15.5507 95.8969 15.4759 95.7606 15.4301C95.6242 15.3843 95.4796 15.3686 95.3366 15.384C95.1714 15.3868 95.0084 15.4228 94.8574 15.49C94.7065 15.5572 94.5706 15.6541 94.458 15.775C94.3454 15.896 94.2584 16.0384 94.2021 16.1937C94.1459 16.3491 94.1215 16.5142 94.1306 16.6792V20.171H93.0038L93.0037 14.4616Z" fill="white"/>
<rect x="0.5" y="0.5" width="169" height="55" rx="2.5" stroke="white"/>
</svg>
