<svg width="188" height="56" viewBox="0 0 188 56" fill="none" xmlns="http://www.w3.org/2000/svg">
<path fill-rule="evenodd" clip-rule="evenodd" d="M56 11H12V47H56V11ZM41.1127 15.645H30.3609C29.7906 15.645 29.2436 15.8285 28.8403 16.1552C28.4371 16.4819 28.2105 16.925 28.2105 17.387C28.2105 17.8489 28.4371 18.292 28.8403 18.6187C29.2436 18.9454 29.7906 19.1289 30.3609 19.1289H41.1127C41.6831 19.1289 42.2301 18.9454 42.6333 18.6187C43.0366 18.292 43.2632 17.8489 43.2632 17.387C43.2632 16.925 43.0366 16.4819 42.6333 16.1552C42.2301 15.8285 41.6831 15.645 41.1127 15.645Z" fill="#EFEFEF"/>
<g clip-path="url(#clip0)">
<path d="M52.201 36.6402H34.0007C29.933 36.6364 26.6322 39.8138 26.6282 43.7371C26.6269 44.9558 26.9507 46.1542 27.5684 47.2172L18.4683 32.1569C25.0964 23.8827 37.424 22.3577 46.0026 28.7507C48.7576 30.8038 50.8968 33.5267 52.201 36.6402Z" fill="#F44336"/>
<path d="M53.6414 43.7443C53.6324 54.2031 44.8442 62.6794 34.0007 62.6881C33.1795 62.6911 32.3591 62.6383 31.5457 62.5303L40.384 47.2963C42.4096 43.895 41.2021 39.5541 37.6834 37.5876C36.5693 36.9655 35.3044 36.6386 34.0171 36.6404H52.2011C53.1569 38.8951 53.6462 41.3084 53.6414 43.7443Z" fill="#FFC107"/>
<path d="M40.3839 47.2962L31.5456 62.5302H31.5293C20.7739 61.2195 13.1566 51.7474 14.5154 41.3736C14.9553 38.0159 16.3202 34.8332 18.4683 32.157L27.5684 47.2173L27.6175 47.2962C29.6469 50.6965 34.1498 51.8662 37.6751 49.9089C38.8012 49.2837 39.7358 48.3823 40.3839 47.2962Z" fill="#4CAF50"/>
<path d="M40.3839 47.2961C38.3545 50.6963 33.8516 51.866 30.3263 49.9088C29.2002 49.2835 28.2657 48.3822 27.6175 47.2961L27.5684 47.2171C25.5797 43.7946 26.8442 39.4651 30.3926 37.547C31.4948 36.9512 32.7373 36.639 34.0007 36.6401H34.017C35.3043 36.6384 36.5692 36.9652 37.6833 37.5873C41.2021 39.5539 42.4096 43.8948 40.3839 47.2961Z" fill="#F44336"/>
<path d="M40.3839 47.2961C38.3545 50.6963 33.8516 51.866 30.3263 49.9088C29.2002 49.2835 28.2657 48.3822 27.6175 47.2961L27.5684 47.2171C25.5797 43.7946 26.8442 39.4651 30.3926 37.547C31.4948 36.9512 32.7373 36.639 34.0007 36.6401H34.017C35.3043 36.6384 36.5692 36.9652 37.6833 37.5873C41.2021 39.5539 42.4096 43.8948 40.3839 47.2961Z" fill="#2196F3"/>
<path d="M33.9729 51.6373C32.546 51.6371 31.1443 51.2745 29.9089 50.5859C28.6632 49.891 27.6286 48.8926 26.9088 47.6907C24.649 43.9154 25.99 39.088 29.9042 36.9084C31.1496 36.2148 32.5626 35.8501 34.0007 35.8508C38.5204 35.8474 42.1872 39.3787 42.1907 43.738C42.1918 45.1256 41.8136 46.4889 41.0942 47.6907C39.6193 50.1364 36.9062 51.6399 33.9729 51.6373ZM34.0154 37.4295C31.6667 37.4174 29.4923 38.6231 28.3212 40.5868C26.5134 43.6104 27.5891 47.4751 30.7239 49.2188C33.8587 50.9626 37.8656 49.925 39.6735 46.9014C41.4814 43.8812 40.4085 40.0193 37.2772 38.2755C36.2858 37.7235 35.1617 37.4317 34.017 37.4295H34.0154V37.4295Z" fill="#FAFAFA"/>
</g>
<path d="M70.9647 40.9616C69.5616 40.9616 68.3744 40.4801 67.439 39.48C66.5037 38.517 66 37.2947 66 35.8131C66 34.3685 66.4677 33.1462 67.439 32.1461C68.3744 31.1831 69.5616 30.6646 70.9647 30.6646C72.4037 30.6646 73.555 31.1831 74.4544 32.2573L73.5909 33.1092C72.9434 32.2943 72.044 31.8498 70.9287 31.8498C69.8854 31.8498 69.022 32.2202 68.3025 32.924C67.5829 33.6277 67.2232 34.5908 67.2232 35.7761C67.2232 36.9613 67.5829 37.8873 68.3025 38.6281C69.022 39.3319 69.8854 39.7023 70.9287 39.7023C72.0799 39.7023 73.0513 39.2208 73.8428 38.2948L74.7062 39.1837C74.2745 39.7393 73.7348 40.1468 73.0513 40.4801C72.4757 40.8135 71.7562 40.9616 70.9647 40.9616Z" fill="#5F6368"/>
<path d="M77.0807 30.9255V34.0369L77.0448 34.9629H77.0807C77.2606 34.6295 77.5484 34.3703 77.9082 34.148C78.3039 33.9258 78.6996 33.8147 79.1314 33.8147C79.9228 33.8147 80.5704 34.0739 80.9661 34.5925C81.3978 35.1111 81.6137 35.7778 81.6137 36.6667V40.7782H80.3905V36.8149C80.3905 35.5555 79.8509 34.9629 78.7716 34.9629C78.2679 34.9629 77.8362 35.1851 77.5484 35.5926C77.2246 36 77.0807 36.4815 77.0807 37.0371V40.7411H75.8575V30.9255H77.0807Z" fill="#5F6368"/>
<path d="M84.2757 40.7413H83.0525V34.0371H84.2397V35.1483H84.2757C84.3836 34.7779 84.6714 34.4816 85.0312 34.2593C85.4269 34.0371 85.7867 33.8889 86.1464 33.8889C86.5062 33.8889 86.83 33.926 87.0818 34.0371L86.6141 35.2224C86.4702 35.1483 86.2543 35.1112 85.9665 35.1112C85.5348 35.1112 85.1391 35.2964 84.7793 35.6668C84.4556 36.0372 84.2757 36.5188 84.2757 37.0744V40.7413Z" fill="#5F6368"/>
<path d="M88.0894 34.8513C88.737 34.1846 89.5285 33.8142 90.4998 33.8142C91.4712 33.8142 92.2627 34.1476 92.9102 34.8513C93.5578 35.518 93.8456 36.37 93.8456 37.4071C93.8456 38.4442 93.5218 39.2961 92.9102 39.9628C92.2627 40.6296 91.4712 41 90.4998 41C89.5285 41 88.737 40.6666 88.0894 39.9628C87.4419 39.2961 87.1541 38.4442 87.1541 37.4071C87.1181 36.37 87.4419 35.518 88.0894 34.8513ZM88.9888 39.148C89.4206 39.5924 89.9242 39.8147 90.4998 39.8147C91.0755 39.8147 91.5791 39.5924 92.0108 39.148C92.4425 38.7035 92.6584 38.1108 92.6584 37.37C92.6584 36.6292 92.4425 36.0366 92.0108 35.5921C91.5791 35.1476 91.0755 34.9254 90.4998 34.9254C89.9242 34.9254 89.4206 35.1476 88.9888 35.5921C88.5571 36.0366 88.3413 36.6292 88.3413 37.37C88.3413 38.1108 88.5571 38.7035 88.9888 39.148Z" fill="#5F6368"/>
<path d="M94.8169 40.7407V34.0364H96.0041V34.9624H96.0401C96.22 34.6291 96.5078 34.3698 96.9035 34.1476C97.2992 33.9253 97.659 33.8142 98.0547 33.8142C99.0621 33.8142 99.7456 34.2587 100.105 35.1106C100.645 34.2587 101.401 33.8142 102.372 33.8142C103.127 33.8142 103.739 34.0735 104.099 34.592C104.494 35.1106 104.674 35.7773 104.674 36.6663V40.7777H103.451V36.8144C103.451 36.1477 103.343 35.6662 103.091 35.3699C102.84 35.0736 102.48 34.9624 102.012 34.9624C101.544 34.9624 101.149 35.1847 100.825 35.5921C100.501 35.9996 100.357 36.4811 100.357 37.0367V40.7407H99.134V36.8144C99.134 36.1477 99.0261 35.6662 98.7743 35.3699C98.5224 35.0736 98.1627 34.9624 97.695 34.9624C97.2273 34.9624 96.8316 35.1847 96.5078 35.5921C96.184 35.9996 96.0401 36.4811 96.0401 37.0367V40.7407H94.8169Z" fill="#5F6368"/>
<path d="M109.135 40.9644C108.164 40.9644 107.337 40.6311 106.725 39.9644C106.113 39.2976 105.79 38.4457 105.79 37.4086C105.79 36.4456 106.077 35.5937 106.689 34.8899C107.301 34.1861 108.056 33.8528 108.992 33.8528C109.963 33.8528 110.718 34.1861 111.33 34.8158C111.942 35.4455 112.193 36.3345 112.193 37.4086V37.6309H107.049C107.085 38.2976 107.301 38.8532 107.696 39.2236C108.092 39.631 108.56 39.8162 109.099 39.8162C109.963 39.8162 110.574 39.4458 110.898 38.668L111.978 39.1495C111.762 39.668 111.402 40.1125 110.934 40.4459C110.431 40.7792 109.819 40.9644 109.135 40.9644ZM110.862 36.5937C110.826 36.2233 110.682 35.8529 110.359 35.4825C110.035 35.1492 109.567 34.964 108.956 34.964C108.488 34.964 108.128 35.1121 107.768 35.4085C107.409 35.7048 107.193 36.0752 107.085 36.5937H110.862Z" fill="#5F6368"/>
<path d="M127.015 30.9255L124.461 40.7411H123.202L121.151 34.2591H121.115L119.065 40.7411H117.805L115.143 30.9255H116.438L118.453 38.6298H118.489L120.54 32.2219H121.691L123.741 38.6298H123.777L125.684 30.9255H127.015Z" fill="#5F6368"/>
<path d="M130.181 40.9644C129.21 40.9644 128.382 40.6311 127.771 39.9644C127.159 39.2976 126.835 38.4457 126.835 37.4086C126.835 36.4456 127.123 35.5937 127.735 34.8899C128.346 34.1861 129.102 33.8528 130.037 33.8528C131.009 33.8528 131.764 34.1861 132.376 34.8158C132.987 35.4455 133.239 36.3345 133.239 37.4086V37.6309H128.095C128.131 38.2976 128.346 38.8532 128.742 39.2236C129.138 39.631 129.606 39.8162 130.145 39.8162C131.009 39.8162 131.62 39.4458 131.944 38.668L133.023 39.1495C132.807 39.668 132.448 40.1125 131.98 40.4459C131.512 40.7792 130.901 40.9644 130.181 40.9644ZM131.944 36.5937C131.908 36.2233 131.764 35.8529 131.44 35.4825C131.117 35.1492 130.649 34.964 130.037 34.964C129.57 34.964 129.21 35.1121 128.85 35.4085C128.49 35.7048 128.274 36.0752 128.167 36.5937H131.944Z" fill="#5F6368"/>
<path d="M137.808 40.9634C137.305 40.9634 136.873 40.8522 136.477 40.63C136.081 40.4078 135.794 40.1485 135.578 39.8151H135.542V40.7411H134.355V30.9255H135.578V34.0369L135.542 34.9629H135.578C135.758 34.6295 136.081 34.3703 136.477 34.148C136.873 33.9258 137.305 33.8147 137.808 33.8147C138.636 33.8147 139.391 34.148 140.003 34.8518C140.614 35.5555 140.938 36.3704 140.938 37.4075C140.938 38.4076 140.614 39.2595 140.003 39.9633C139.391 40.63 138.672 40.9634 137.808 40.9634ZM137.628 39.8151C138.204 39.8151 138.672 39.5929 139.103 39.1484C139.535 38.7039 139.715 38.1113 139.715 37.3705C139.715 36.6297 139.499 36.0371 139.103 35.5926C138.708 35.1481 138.204 34.9259 137.628 34.9259C137.053 34.9259 136.549 35.1481 136.153 35.5926C135.758 36.0371 135.542 36.6297 135.542 37.3705C135.542 38.1113 135.758 38.7039 136.153 39.1484C136.549 39.5929 137.053 39.8151 137.628 39.8151Z" fill="#5F6368"/>
<path d="M147.45 40.9614C146.766 40.9614 146.083 40.7392 145.435 40.2577C144.788 39.7761 144.356 39.1465 144.14 38.2945L145.255 37.813C145.399 38.3686 145.651 38.8131 146.083 39.1835C146.514 39.5539 146.946 39.7391 147.486 39.7391C148.025 39.7391 148.457 39.5909 148.853 39.2946C149.213 38.9983 149.428 38.6279 149.428 38.1093C149.428 37.5537 149.249 37.1463 148.853 36.85C148.493 36.5537 147.881 36.2944 147.054 36.0351C146.227 35.7758 145.579 35.4054 145.147 34.9609C144.716 34.5165 144.5 33.9609 144.5 33.2941C144.5 32.5904 144.788 31.9607 145.327 31.4421C145.867 30.9236 146.586 30.6643 147.45 30.6643C148.241 30.6643 148.925 30.8865 149.428 31.294C149.932 31.7014 150.256 32.1459 150.4 32.6645L149.285 33.146C149.213 32.8497 148.997 32.5533 148.709 32.2941C148.385 32.0348 147.989 31.8866 147.486 31.8866C147.018 31.8866 146.622 32.0348 146.299 32.2941C145.975 32.5533 145.795 32.8867 145.795 33.2941C145.795 33.6645 145.939 33.9609 146.263 34.2201C146.586 34.4794 147.018 34.7017 147.63 34.8869C148.097 35.035 148.493 35.1832 148.817 35.3313C149.141 35.4795 149.464 35.6647 149.788 35.924C150.112 36.1833 150.364 36.4796 150.508 36.8129C150.688 37.1833 150.76 37.5908 150.76 38.0723C150.76 38.5538 150.652 38.9613 150.472 39.3317C150.292 39.7021 150.04 39.9984 149.716 40.2206C149.392 40.4429 149.069 40.591 148.709 40.7392C148.205 40.9244 147.845 40.9614 147.45 40.9614Z" fill="#5F6368"/>
<path d="M154.429 40.8533C153.746 40.8533 153.242 40.6681 152.882 40.2977C152.522 39.9273 152.342 39.4087 152.342 38.705V35.1862H151.191V34.0379H152.342V32.0007H153.566V34.0379H155.149V35.1862H153.566V38.5938C153.566 39.3346 153.853 39.705 154.429 39.705C154.645 39.705 154.825 39.668 155.005 39.5939L155.436 40.6681C155.149 40.8163 154.789 40.8533 154.429 40.8533Z" fill="#5F6368"/>
<path d="M156.804 34.8513C157.451 34.1846 158.243 33.8142 159.214 33.8142C160.185 33.8142 160.977 34.1476 161.624 34.8513C162.272 35.518 162.56 36.37 162.56 37.4071C162.56 38.4442 162.236 39.2961 161.624 39.9628C160.977 40.6296 160.185 41 159.214 41C158.243 41 157.451 40.6666 156.804 39.9628C156.156 39.2961 155.868 38.4442 155.868 37.4071C155.868 36.37 156.192 35.518 156.804 34.8513ZM157.739 39.148C158.171 39.5924 158.674 39.8147 159.25 39.8147C159.826 39.8147 160.329 39.5924 160.761 39.148C161.193 38.7035 161.409 38.1108 161.409 37.37C161.409 36.6292 161.193 36.0366 160.761 35.5921C160.329 35.1476 159.826 34.9254 159.25 34.9254C158.674 34.9254 158.171 35.1476 157.739 35.5921C157.307 36.0366 157.091 36.6292 157.091 37.37C157.091 38.1108 157.307 38.7035 157.739 39.148Z" fill="#5F6368"/>
<path d="M164.79 40.7413H163.567V34.0371H164.754V35.1483H164.79C164.898 34.7779 165.186 34.4816 165.545 34.2593C165.941 34.0371 166.301 33.8889 166.661 33.8889C167.021 33.8889 167.344 33.926 167.596 34.0371L167.128 35.2224C166.985 35.1483 166.769 35.1112 166.481 35.1112C166.049 35.1112 165.653 35.2964 165.294 35.6668C164.934 36.0372 164.79 36.5188 164.79 37.0744V40.7413Z" fill="#5F6368"/>
<path d="M170.942 40.9644C169.971 40.9644 169.143 40.6311 168.532 39.9644C167.92 39.2976 167.596 38.4457 167.596 37.4086C167.596 36.4456 167.884 35.5937 168.496 34.8899C169.107 34.1861 169.863 33.8528 170.798 33.8528C171.769 33.8528 172.525 34.1861 173.137 34.8158C173.748 35.4455 174 36.3345 174 37.4086V37.6309H168.855C168.891 38.2976 169.107 38.8532 169.503 39.2236C169.899 39.631 170.366 39.8162 170.906 39.8162C171.769 39.8162 172.381 39.4458 172.705 38.668L173.784 39.1495C173.568 39.668 173.209 40.1125 172.741 40.4459C172.273 40.7792 171.662 40.9644 170.942 40.9644ZM172.705 36.5937C172.669 36.2233 172.525 35.8529 172.201 35.4825C171.877 35.1492 171.41 34.964 170.798 34.964C170.33 34.964 169.971 35.1121 169.611 35.4085C169.251 35.7048 169.035 36.0752 168.927 36.5937H172.705Z" fill="#5F6368"/>
<path d="M65.9318 17.84H70.0718V18.65H66.7718V21.02H69.7518V21.82H66.7718V24.19H70.0718V25H65.9318V17.84ZM71.172 19.9H71.982V20.72H72.022C72.122 20.44 72.3153 20.21 72.602 20.03C72.8887 19.8433 73.1887 19.75 73.502 19.75C73.7353 19.75 73.9353 19.7833 74.102 19.85V20.77C73.8887 20.6633 73.6487 20.61 73.382 20.61C73.1353 20.61 72.9087 20.68 72.702 20.82C72.4953 20.96 72.3287 21.15 72.202 21.39C72.082 21.6233 72.022 21.8767 72.022 22.15V25H71.172V19.9ZM74.9708 17.84H75.8208V19.95L75.7808 20.65H75.8208C75.9608 20.39 76.1808 20.1733 76.4808 20C76.7875 19.8267 77.1208 19.74 77.4808 19.74C78.1008 19.74 78.5742 19.9233 78.9008 20.29C79.2275 20.65 79.3908 21.13 79.3908 21.73V25H78.5408V21.86C78.5408 21.4 78.4242 21.06 78.1908 20.84C77.9575 20.62 77.6542 20.51 77.2808 20.51C77.0142 20.51 76.7675 20.59 76.5408 20.75C76.3208 20.91 76.1442 21.1167 76.0108 21.37C75.8842 21.6233 75.8208 21.8867 75.8208 22.16V25H74.9708V17.84ZM82.1965 25.16C81.8232 25.16 81.4899 25.0867 81.1965 24.94C80.9032 24.7933 80.6765 24.5933 80.5165 24.34C80.3565 24.08 80.2765 23.7867 80.2765 23.46C80.2765 22.92 80.4799 22.5 80.8865 22.2C81.2932 21.8933 81.8065 21.74 82.4265 21.74C82.7332 21.74 83.0165 21.7733 83.2765 21.84C83.5432 21.9067 83.7465 21.9833 83.8865 22.07V21.76C83.8865 21.38 83.7532 21.0767 83.4865 20.85C83.2199 20.6167 82.8832 20.5 82.4765 20.5C82.1899 20.5 81.9265 20.5633 81.6865 20.69C81.4465 20.81 81.2565 20.98 81.1165 21.2L80.4765 20.72C80.6765 20.4133 80.9499 20.1733 81.2965 20C81.6499 19.8267 82.0399 19.74 82.4665 19.74C83.1599 19.74 83.7032 19.9233 84.0965 20.29C84.4965 20.65 84.6965 21.1433 84.6965 21.77V25H83.8865V24.27H83.8465C83.6999 24.5167 83.4799 24.7267 83.1865 24.9C82.8932 25.0733 82.5632 25.16 82.1965 25.16ZM82.2765 24.41C82.5632 24.41 82.8299 24.3367 83.0765 24.19C83.3232 24.0433 83.5199 23.8467 83.6665 23.6C83.8132 23.3533 83.8865 23.0833 83.8865 22.79C83.7265 22.6833 83.5299 22.5967 83.2965 22.53C83.0632 22.4633 82.8165 22.43 82.5565 22.43C82.0899 22.43 81.7365 22.5267 81.4965 22.72C81.2632 22.9133 81.1465 23.1633 81.1465 23.47C81.1465 23.75 81.2532 23.9767 81.4665 24.15C81.6799 24.3233 81.9499 24.41 82.2765 24.41ZM81.7065 18.75C81.5599 18.75 81.4332 18.6967 81.3265 18.59C81.2199 18.4833 81.1665 18.3567 81.1665 18.21C81.1665 18.0567 81.2199 17.93 81.3265 17.83C81.4332 17.73 81.5599 17.68 81.7065 17.68C81.8599 17.68 81.9865 17.73 82.0865 17.83C82.1865 17.93 82.2365 18.0567 82.2365 18.21C82.2365 18.3567 82.1865 18.4833 82.0865 18.59C81.9865 18.6967 81.8599 18.75 81.7065 18.75ZM83.3465 18.75C83.2065 18.75 83.0799 18.6967 82.9665 18.59C82.8599 18.4833 82.8065 18.3567 82.8065 18.21C82.8065 18.0567 82.8599 17.93 82.9665 17.83C83.0732 17.73 83.1999 17.68 83.3465 17.68C83.4999 17.68 83.6265 17.73 83.7265 17.83C83.8332 17.93 83.8865 18.0567 83.8865 18.21C83.8865 18.3567 83.8332 18.4833 83.7265 18.59C83.6265 18.6967 83.4999 18.75 83.3465 18.75ZM85.879 17.84H86.729V25H85.879V17.84ZM89.9972 25.08C89.7906 25.08 89.5972 25.0467 89.4172 24.98C89.2439 24.9133 89.0972 24.8233 88.9772 24.71C88.8439 24.5833 88.7439 24.4367 88.6772 24.27C88.6106 24.1033 88.5772 23.9 88.5772 23.66V20.67H87.6872V19.9H88.5772V18.46H89.4272V19.9H90.6672V20.67H89.4272V23.45C89.4272 23.73 89.4806 23.9367 89.5872 24.07C89.7139 24.2167 89.8972 24.29 90.1372 24.29C90.3306 24.29 90.5172 24.2333 90.6972 24.12V24.95C90.5972 24.9967 90.4939 25.03 90.3872 25.05C90.2872 25.07 90.1572 25.08 89.9972 25.08ZM91.7482 17.84H92.5982V25H91.7482V17.84ZM94.3575 18.96C94.1909 18.96 94.0475 18.9 93.9275 18.78C93.8075 18.66 93.7475 18.5167 93.7475 18.35C93.7475 18.1833 93.8075 18.0433 93.9275 17.93C94.0475 17.81 94.1909 17.75 94.3575 17.75C94.5242 17.75 94.6675 17.81 94.7875 17.93C94.9075 18.0433 94.9675 18.1833 94.9675 18.35C94.9675 18.5167 94.9075 18.66 94.7875 18.78C94.6742 18.9 94.5309 18.96 94.3575 18.96ZM93.9375 19.9H94.7775V25H93.9375V19.9ZM98.3746 25.16C97.8812 25.16 97.4379 25.0433 97.0446 24.81C96.6512 24.57 96.3446 24.2467 96.1246 23.84C95.9046 23.4267 95.7946 22.9633 95.7946 22.45C95.7946 21.9367 95.9046 21.4733 96.1246 21.06C96.3446 20.6467 96.6512 20.3233 97.0446 20.09C97.4379 19.8567 97.8812 19.74 98.3746 19.74C98.9279 19.74 99.3912 19.87 99.7646 20.13C100.145 20.3833 100.415 20.7233 100.575 21.15L99.8046 21.47C99.6779 21.1567 99.4879 20.92 99.2346 20.76C98.9879 20.5933 98.6879 20.51 98.3346 20.51C98.0346 20.51 97.7546 20.5933 97.4946 20.76C97.2346 20.92 97.0246 21.1467 96.8646 21.44C96.7112 21.7333 96.6346 22.07 96.6346 22.45C96.6346 22.83 96.7112 23.1667 96.8646 23.46C97.0246 23.7533 97.2346 23.9833 97.4946 24.15C97.7546 24.31 98.0346 24.39 98.3346 24.39C98.6946 24.39 99.0046 24.3067 99.2646 24.14C99.5246 23.9733 99.7179 23.7367 99.8446 23.43L100.605 23.75C100.431 24.17 100.151 24.51 99.7646 24.77C99.3846 25.03 98.9212 25.16 98.3746 25.16ZM101.524 17.84H102.374V19.95L102.334 20.65H102.374C102.514 20.39 102.734 20.1733 103.034 20C103.34 19.8267 103.674 19.74 104.034 19.74C104.654 19.74 105.127 19.9233 105.454 20.29C105.78 20.65 105.944 21.13 105.944 21.73V25H105.094V21.86C105.094 21.4 104.977 21.06 104.744 20.84C104.51 20.62 104.207 20.51 103.834 20.51C103.567 20.51 103.32 20.59 103.094 20.75C102.874 20.91 102.697 21.1167 102.564 21.37C102.437 21.6233 102.374 21.8867 102.374 22.16V25H101.524V17.84ZM109.992 18.96C109.826 18.96 109.682 18.9 109.562 18.78C109.442 18.66 109.382 18.5167 109.382 18.35C109.382 18.1833 109.442 18.0433 109.562 17.93C109.682 17.81 109.826 17.75 109.992 17.75C110.159 17.75 110.302 17.81 110.422 17.93C110.542 18.0433 110.602 18.1833 110.602 18.35C110.602 18.5167 110.542 18.66 110.422 18.78C110.309 18.9 110.166 18.96 109.992 18.96ZM109.572 19.9H110.412V25H109.572V19.9ZM111.748 19.9H112.558V20.65H112.598C112.745 20.39 112.965 20.1733 113.258 20C113.551 19.8267 113.861 19.74 114.188 19.74C114.561 19.74 114.885 19.83 115.158 20.01C115.438 20.19 115.638 20.43 115.758 20.73C115.938 20.43 116.175 20.19 116.468 20.01C116.768 19.83 117.115 19.74 117.508 19.74C118.095 19.74 118.535 19.92 118.828 20.28C119.128 20.6333 119.278 21.1167 119.278 21.73V25H118.438V21.86C118.438 21.3867 118.341 21.0433 118.148 20.83C117.955 20.6167 117.668 20.51 117.288 20.51C117.035 20.51 116.805 20.5833 116.598 20.73C116.391 20.8767 116.228 21.0733 116.108 21.32C115.995 21.5667 115.938 21.8333 115.938 22.12V25H115.088V21.87C115.088 21.39 114.991 21.0433 114.798 20.83C114.605 20.6167 114.321 20.51 113.948 20.51C113.695 20.51 113.465 20.5867 113.258 20.74C113.051 20.8867 112.888 21.0867 112.768 21.34C112.655 21.5867 112.598 21.8533 112.598 22.14V25H111.748V19.9Z" fill="#5F6368"/>
<rect x="0.5" y="0.5" width="187" height="55" rx="2.5" stroke="#444444"/>
<defs>
<clipPath id="clip0">
<rect width="40" height="31" fill="white" transform="translate(14 16)"/>
</clipPath>
</defs>
</svg>
