<svg width="170" height="56" viewBox="0 0 170 56" fill="none" xmlns="http://www.w3.org/2000/svg">
<path d="M127.509 38.6913H129.534V25.4772H127.509V38.6913ZM145.748 30.2372L143.427 35.9662H143.357L140.948 30.2372H138.767L142.38 38.2445L140.32 42.6985H142.433L148 30.2372H145.748ZM134.264 37.1905C133.6 37.1905 132.676 36.8676 132.676 36.0682C132.676 35.0483 133.828 34.6573 134.822 34.6573C135.713 34.6573 136.131 34.8443 136.673 35.0996C136.515 36.3234 135.433 37.1905 134.264 37.1905V37.1905ZM134.509 29.9482C133.043 29.9482 131.524 30.5774 130.896 31.9714L132.693 32.7022C133.077 31.9714 133.792 31.7332 134.543 31.7332C135.591 31.7332 136.655 32.3455 136.673 33.4335V33.5693C136.306 33.3653 135.521 33.0594 134.561 33.0594C132.624 33.0594 130.651 34.0961 130.651 36.0343C130.651 37.8024 132.239 38.9415 134.019 38.9415C135.381 38.9415 136.131 38.3465 136.603 37.6496H136.673V38.6695H138.627V33.6031C138.627 31.2575 136.83 29.9482 134.509 29.9482V29.9482ZM121.994 31.8458H119.114V27.3164H121.994C123.508 27.3164 124.367 28.5372 124.367 29.581C124.367 30.6051 123.508 31.8458 121.994 31.8458ZM121.942 25.4772H117.09V38.6913H119.114V33.685H121.942C124.186 33.685 126.392 32.1023 126.392 29.581C126.392 27.0599 124.186 25.4772 121.942 25.4772ZM95.4834 37.1929C94.0845 37.1929 92.9132 36.0521 92.9132 34.4851C92.9132 32.9017 94.0845 31.7435 95.4834 31.7435C96.8646 31.7435 97.9485 32.9017 97.9485 34.4851C97.9485 36.0521 96.8646 37.1929 95.4834 37.1929V37.1929ZM97.8086 30.9772H97.7386C97.2842 30.4494 96.4096 29.9726 95.3084 29.9726C93.0006 29.9726 90.8853 31.9478 90.8853 34.4851C90.8853 37.0055 93.0006 38.9639 95.3084 38.9639C96.4096 38.9639 97.2842 38.4869 97.7386 37.9423H97.8086V38.5893C97.8086 40.3096 96.8646 41.2291 95.3435 41.2291C94.1023 41.2291 93.333 40.3603 93.0179 39.6282L91.2524 40.3434C91.7594 41.5354 93.1057 43 95.3435 43C97.7212 43 99.7318 41.6374 99.7318 38.3168V30.2451H97.8086V30.9772ZM101.13 38.6913H103.158V25.4768H101.13V38.6913ZM106.148 34.332C106.096 32.5948 107.529 31.7096 108.561 31.7096C109.365 31.7096 110.047 32.101 110.274 32.6634L106.148 34.332ZM112.442 32.8335C112.058 31.8285 110.886 29.9726 108.491 29.9726C106.113 29.9726 104.138 31.7947 104.138 34.4682C104.138 36.9886 106.096 38.9639 108.718 38.9639C110.834 38.9639 112.058 37.7037 112.565 36.9716L110.991 35.9496C110.467 36.6991 109.75 37.1929 108.718 37.1929C107.686 37.1929 106.952 36.733 106.48 35.8307L112.651 33.3443L112.442 32.8335ZM63.2731 31.352V33.2592H67.9585C67.8186 34.332 67.4515 35.1152 66.8919 35.6602C66.2103 36.3246 65.1438 37.0567 63.2731 37.0567C60.3883 37.0567 58.1331 34.7919 58.1331 31.9821C58.1331 29.1723 60.3883 26.9072 63.2731 26.9072C64.8292 26.9072 65.9653 27.5034 66.8046 28.2697L68.1857 26.9245C67.0144 25.8344 65.4583 25 63.2731 25C59.3217 25 56 28.1335 56 31.9821C56 35.8307 59.3217 38.9639 63.2731 38.9639C65.4062 38.9639 67.0145 38.283 68.2731 37.0055C69.5669 35.7453 69.9691 33.9744 69.9691 32.5441C69.9691 32.101 69.9343 31.6927 69.864 31.352H63.2731ZM75.296 37.1929C73.8971 37.1929 72.6906 36.069 72.6906 34.4682C72.6906 32.8504 73.8971 31.7435 75.296 31.7435C76.6944 31.7435 77.9008 32.8504 77.9008 34.4682C77.9008 36.069 76.6944 37.1929 75.296 37.1929V37.1929ZM75.296 29.9726C72.7432 29.9726 70.6626 31.8627 70.6626 34.4682C70.6626 37.0567 72.7432 38.9639 75.296 38.9639C77.8483 38.9639 79.9289 37.0567 79.9289 34.4682C79.9289 31.8627 77.8483 29.9726 75.296 29.9726ZM85.4028 37.1929C84.0044 37.1929 82.7979 36.069 82.7979 34.4682C82.7979 32.8504 84.0044 31.7435 85.4028 31.7435C86.8013 31.7435 88.0077 32.8504 88.0077 34.4682C88.0077 36.069 86.8013 37.1929 85.4028 37.1929ZM85.4028 29.9726C82.8501 29.9726 80.7699 31.8627 80.7699 34.4682C80.7699 37.0567 82.8501 38.9639 85.4028 38.9639C87.9552 38.9639 90.0358 37.0567 90.0358 34.4682C90.0358 31.8627 87.9552 29.9726 85.4028 29.9726Z" fill="white"/>
<path fill-rule="evenodd" clip-rule="evenodd" d="M59.627 19.3805C59.2157 19.7937 58.6828 20.0009 58.0533 20C57.5591 20.0004 57.1279 19.8584 56.7739 19.5734C56.4207 19.2889 56.1706 18.8883 56.0267 18.3833L56 18.2883L56.0896 18.2503L56.9674 17.8782L57.001 17.9982C57.1954 18.6673 57.5355 18.9574 58.0894 18.9639C58.4554 18.9622 58.7147 18.8478 58.9024 18.6194C59.0912 18.3885 59.1914 18.0699 59.1914 17.6485V13H59.3001H60.2472V17.63C60.2481 18.3716 60.0439 18.9635 59.627 19.3805ZM65.438 13.1107V13.9253V14.0358H62.4686V15.9172H65.146V16.0277V16.935H62.4686V18.8164H65.438V18.9269V19.8521H61.4137V13.0001H65.438V13.1107ZM68.9708 14.0358V19.7415V19.8521H68.8621H67.915V14.0358H66.0939V13.9253V13.0001H70.7919V13.1107V14.0358H68.9708ZM75.9657 19.8521H71.3765H71.2678V19.7415V18.8169L74.6342 14.0358H71.413V13.9253V13.0001H75.9285V13.1107V14.0353L72.5621 18.8164H75.9657V18.9269V19.8521ZM79.3894 14.0358V19.7415V19.8521H79.2807H78.3336V14.0358H76.5126V13.9253V13.0001H81.2106V13.1107V14.0358H79.3894ZM85.2909 16.8604V18.8164H86.8671C87.1634 18.8146 87.3871 18.7154 87.5693 18.5098C87.7552 18.2976 87.8414 18.0773 87.8423 17.8334C87.8414 17.5913 87.753 17.3741 87.5612 17.1634C87.3749 16.9619 87.1406 16.8616 86.8298 16.8604H85.2909ZM85.2909 14.0358V15.8429H86.7024C86.9958 15.8416 87.2123 15.7492 87.3833 15.5597V15.5592C87.5595 15.3619 87.6406 15.159 87.6414 14.935C87.6406 14.7101 87.562 14.5081 87.3914 14.3147L87.3909 14.3143C87.2259 14.1282 87.0191 14.0375 86.7398 14.0358H85.2909ZM88.4365 15.8117C88.3021 16.0146 88.1302 16.1793 87.925 16.304C88.1842 16.426 88.405 16.6061 88.583 16.8396L88.5834 16.8401C88.8037 17.1302 88.9162 17.473 88.9157 17.8524C88.917 18.4227 88.7048 18.9109 88.2917 19.2861C87.8826 19.6621 87.3889 19.8529 86.8298 19.852H84.3452H84.2365V13.0001H86.7024C87.2368 12.9993 87.7098 13.1827 88.1007 13.5423L88.0986 13.5402L88.1011 13.5423C88.4959 13.9033 88.6984 14.3712 88.6972 14.9165C88.6976 15.2501 88.6106 15.5528 88.4361 15.8122L88.4365 15.8117ZM93.8508 13.9253V13.1107V13.0001H89.8264V19.8521H93.8508V18.9269V18.8164H90.8812V16.935H93.5587V16.0277V15.9172H90.8812V14.0358H93.8508V13.9253ZM95.8913 19.8521H95.0538H94.9451V13.0001H95.0538H96V19.8521H95.8913Z" fill="white"/>
<path d="M20 14V42L34 28L20 14Z" fill="url(#paint0_linear)"/>
<path d="M20 14V42L34 28L20 14Z" fill="url(#paint1_linear)"/>
<path d="M44.4845 27.0452L39.2 24L35 28L39.2 32L44.4845 28.7484C44.7938 28.5935 45 28.2323 45 27.871C45 27.5097 44.7938 27.2 44.4845 27.0452Z" fill="url(#paint2_linear)"/>
<path d="M44.4845 27.0452L39.2 24L35 28L39.2 32L44.4845 28.7484C44.7938 28.5935 45 28.2323 45 27.871C45 27.5097 44.7938 27.2 44.4845 27.0452Z" fill="url(#paint3_linear)"/>
<path d="M21 42L38.6 32.45L34.5 28.5L21 42Z" fill="url(#paint4_linear)"/>
<path d="M21 42L38.6 32.45L34.5 28.5L21 42Z" fill="url(#paint5_linear)"/>
<path d="M38.6 23.55L33.05 20.3L21 14L34.5 27.5L38.6 23.55Z" fill="url(#paint6_linear)"/>
<path d="M38.6 23.55L33.05 20.3L21 14L34.5 27.5L38.6 23.55Z" fill="url(#paint7_linear)"/>
<rect x="0.5" y="0.5" width="169" height="55" rx="2.5" stroke="white"/>
<defs>
<linearGradient id="paint0_linear" x1="27" y1="23.5" x2="20" y2="32" gradientUnits="userSpaceOnUse">
<stop stop-color="#00E2FF"/>
<stop offset="1" stop-color="#03C6F5"/>
</linearGradient>
<linearGradient id="paint1_linear" x1="32.8101" y1="40.7588" x2="13.8625" y2="22.5978" gradientUnits="userSpaceOnUse">
<stop stop-color="#00A0FF"/>
<stop offset="0.00657445" stop-color="#00A1FF"/>
<stop offset="0.2601" stop-color="#00BEFF"/>
<stop offset="0.5122" stop-color="#00D2FF"/>
<stop offset="0.7604" stop-color="#00DFFF"/>
<stop offset="1" stop-color="#00E3FF"/>
</linearGradient>
<linearGradient id="paint2_linear" x1="40" y1="24" x2="29.5" y2="24" gradientUnits="userSpaceOnUse">
<stop stop-color="#FFEA0D"/>
<stop offset="1" stop-color="#FFCF00"/>
</linearGradient>
<linearGradient id="paint3_linear" x1="45.759" y1="28.0695" x2="21.9536" y2="28.0695" gradientUnits="userSpaceOnUse">
<stop stop-color="#FFE000"/>
<stop offset="0.4087" stop-color="#FFBD00"/>
<stop offset="0.7754" stop-color="#FFA500"/>
<stop offset="1" stop-color="#FF9C00"/>
</linearGradient>
<linearGradient id="paint4_linear" x1="30" y1="28" x2="18.5" y2="39.5" gradientUnits="userSpaceOnUse">
<stop stop-color="#F73547"/>
<stop offset="1" stop-color="#E22652"/>
</linearGradient>
<linearGradient id="paint5_linear" x1="36.2636" y1="39.5906" x2="12.375" y2="15.4439" gradientUnits="userSpaceOnUse">
<stop stop-color="#FF3A44"/>
<stop offset="1" stop-color="#C31162"/>
</linearGradient>
<linearGradient id="paint6_linear" x1="36" y1="23.5" x2="21" y2="14" gradientUnits="userSpaceOnUse">
<stop stop-color="#2EF38F"/>
<stop offset="1" stop-color="#0EDE76"/>
</linearGradient>
<linearGradient id="paint7_linear" x1="17.598" y1="34.8109" x2="28.2656" y2="24.0452" gradientUnits="userSpaceOnUse">
<stop stop-color="#32A071"/>
<stop offset="0.0685" stop-color="#2DA771"/>
<stop offset="0.4762" stop-color="#15CF74"/>
<stop offset="0.8009" stop-color="#06E775"/>
<stop offset="1" stop-color="#00F076"/>
</linearGradient>
</defs>
</svg>
