<svg width="12" height="12" viewBox="0 0 12 12" fill="none" xmlns="http://www.w3.org/2000/svg">
<path fill-rule="evenodd" clip-rule="evenodd" d="M7 0H5V2.12602C4.633 2.22048 4.28638 2.36571 3.96808 2.55379L2.46447 1.05018L1.05025 2.4644L2.55385 3.96799C2.36574 4.28631 2.22049 4.63296 2.12602 5H0V7H2.12602C2.22048 7.367 2.36571 7.71362 2.55379 8.03192L1.05025 9.53546L2.46447 10.9497L3.96799 9.44615C4.28631 9.63426 4.63296 9.77951 5 9.87398V12H7V9.87398C7.36704 9.77951 7.71369 9.63426 8.03201 9.44615L9.53553 10.9497L10.9497 9.53546L9.44621 8.03192C9.63428 7.71362 9.77952 7.367 9.87398 7H12V5H9.87398C9.77951 4.63296 9.63426 4.28631 9.44615 3.96799L10.9497 2.4644L9.53553 1.05018L8.03192 2.55379C7.71362 2.36571 7.367 2.22048 7 2.12602V0ZM7.42417 7.40419C7.78024 7.04308 8 6.5472 8 6C8 4.89543 7.10457 4 6 4C4.89543 4 4 4.89543 4 6C4 6.5472 4.21975 7.04307 4.57582 7.40417L4.59583 7.42418C4.95693 7.78025 5.4528 8 6 8C6.5472 8 7.04308 7.78024 7.40419 7.42417L7.42417 7.40419Z" fill="#767676"/>
</svg>
