<svg width="16" height="16" viewBox="0 0 16 16" fill="none" xmlns="http://www.w3.org/2000/svg">
<path d="M3.07812 14H12.9218C13.5166 14 14 13.5166 14 12.9219V12.2188L13.9634 12.0576C13.0654 10.1665 11.6738 9.76438 11.6152 9.74753L10.8125 9.73434C10.2441 9.73434 9.78124 9.27144 9.78124 8.70308V8.38374C10.0552 8.03107 10.2683 7.62089 10.4221 7.13383L10.4836 7.07706C10.8755 6.68521 10.9502 6.03554 10.6668 5.58364C10.6587 5.56934 10.6507 5.55506 10.6397 5.53931L10.6404 5.24194C10.6404 5.18433 10.6404 5.12673 10.6404 5.06908C10.6406 4.83648 10.6407 4.60323 10.6389 4.36668C10.6243 3.71007 10.4097 3.13034 10.0347 2.7341C9.71754 2.39901 9.27809 2.1705 8.7654 2.07271C8.19263 1.96359 7.60597 1.97751 7.07277 2.113C6.52785 2.2507 6.05031 2.57627 5.76466 3.00364C5.52297 3.3574 5.3838 3.81003 5.36257 4.32311C5.35891 4.59299 5.35891 4.8629 5.35964 5.13354L5.36184 5.53674C5.33913 5.57044 5.31937 5.60267 5.31203 5.61914C5.04103 6.11059 5.14797 6.74233 5.57643 7.1316L5.6028 7.21584C5.73388 7.62417 5.94044 8.01127 6.21876 8.36869V8.70305C6.21876 9.27142 5.75587 9.73431 5.18751 9.73431H4.48439L4.38478 9.74751C4.32619 9.76436 2.93459 10.1665 2.03663 12.0576L2 12.9219C2 13.5166 2.4834 14 3.07812 14Z" fill="#767676"/>
</svg>
