<svg width="170" height="56" viewBox="0 0 170 56" fill="none" xmlns="http://www.w3.org/2000/svg">
<path d="M40.7619 27.275C40.7755 26.2167 41.0566 25.179 41.579 24.2586C42.1015 23.3381 42.8482 22.5648 43.7498 22.0105C43.1771 21.1925 42.4214 20.5193 41.543 20.0444C40.6645 19.5695 39.6875 19.3059 38.6893 19.2747C36.5602 19.0512 34.4961 20.5487 33.4111 20.5487C32.3051 20.5487 30.6346 19.2969 28.8358 19.3339C27.6722 19.3715 26.5383 19.7098 25.5444 20.316C24.5505 20.9221 23.7305 21.7754 23.1645 22.7926C20.7123 27.0382 22.5414 33.2777 24.8904 36.7095C26.0656 38.3899 27.4391 40.267 29.2363 40.2005C30.995 40.1275 31.6519 39.079 33.7747 39.079C35.8779 39.079 36.4942 40.2005 38.3279 40.1581C40.215 40.1275 41.404 38.4702 42.538 36.7739C43.3824 35.5765 44.0322 34.2531 44.4633 32.8528C43.3669 32.3891 42.4313 31.6129 41.773 30.621C41.1148 29.6291 40.7632 28.4654 40.7619 27.275V27.275Z" fill="white"/>
<path d="M37.2984 17.0179C38.3274 15.7827 38.8343 14.195 38.7115 12.592C37.1395 12.7572 35.6874 13.5085 34.6446 14.6963C34.1347 15.2766 33.7442 15.9517 33.4953 16.683C33.2465 17.4143 33.1443 18.1875 33.1944 18.9583C33.9807 18.9664 34.7586 18.796 35.4695 18.4599C36.1803 18.1237 36.8057 17.6307 37.2984 17.0179Z" fill="white"/>
<path d="M62.993 35.9466H56.9914L55.5501 40.2024H53.0081L58.6927 24.4573H61.3338L67.0184 40.2024H64.433L62.993 35.9466ZM57.6129 33.9828H62.3702L60.025 27.0761H59.9594L57.6129 33.9828Z" fill="white"/>
<path d="M79.2952 34.4632C79.2952 38.0304 77.3859 40.3224 74.5046 40.3224C73.7747 40.3605 73.0488 40.1924 72.4101 39.8372C71.7713 39.482 71.2455 38.9541 70.8928 38.314H70.8382V43.9998H68.4819V28.7228H70.7628V30.6321H70.8061C71.175 29.995 71.7097 29.4699 72.3534 29.1125C72.997 28.7552 73.7255 28.579 74.4613 28.6027C77.3747 28.6027 79.2952 30.9058 79.2952 34.4632ZM76.8733 34.4632C76.8733 32.139 75.6722 30.6111 73.8397 30.6111C72.0393 30.6111 70.8284 32.1712 70.8284 34.4632C70.8284 36.7761 72.0393 38.3251 73.8397 38.3251C75.6722 38.3251 76.8733 36.8083 76.8733 34.4632Z" fill="white"/>
<path d="M91.9299 34.4631C91.9299 38.0304 90.0206 40.3223 87.1393 40.3223C86.4094 40.3605 85.6835 40.1924 85.0447 39.8372C84.4059 39.482 83.8801 38.9541 83.5274 38.3139H83.4729V43.9998H81.1166V28.7228H83.3973V30.6321H83.4407C83.8096 29.995 84.3443 29.4699 84.988 29.1125C85.6316 28.7552 86.3601 28.579 87.0959 28.6027C90.0094 28.6027 91.9299 30.9058 91.9299 34.4631ZM89.5079 34.4631C89.5079 32.139 88.3069 30.6111 86.4743 30.6111C84.674 30.6111 83.463 32.1712 83.463 34.4631C83.463 36.7761 84.674 38.3251 86.4743 38.3251C88.3069 38.3251 89.508 36.8083 89.508 34.4631H89.5079Z" fill="white"/>
<path d="M100.28 35.8155C100.455 37.3769 101.972 38.402 104.045 38.402C106.031 38.402 107.459 37.3768 107.459 35.969C107.459 34.7468 106.598 34.0151 104.557 33.5136L102.517 33.022C99.6254 32.3237 98.2831 30.9715 98.2831 28.7774C98.2831 26.0608 100.651 24.1948 104.012 24.1948C107.339 24.1948 109.62 26.0608 109.697 28.7774H107.318C107.176 27.2061 105.877 26.2577 103.979 26.2577C102.081 26.2577 100.782 27.2173 100.782 28.614C100.782 29.7271 101.611 30.3822 103.641 30.8836L105.376 31.3095C108.606 32.0735 109.948 33.3712 109.948 35.6742C109.948 38.6199 107.602 40.4648 103.87 40.4648C100.378 40.4648 98.0206 38.6632 97.8683 35.8154L100.28 35.8155Z" fill="white"/>
<path d="M115.034 26.0063V28.723H117.217V30.589H115.034V36.9174C115.034 37.9006 115.471 38.3587 116.43 38.3587C116.689 38.3542 116.948 38.336 117.205 38.3042V40.159C116.774 40.2396 116.335 40.2762 115.897 40.268C113.573 40.268 112.666 39.3951 112.666 37.1688V30.589H110.997V28.723H112.666V26.0063H115.034Z" fill="white"/>
<path d="M118.481 34.4633C118.481 30.8514 120.608 28.5818 123.925 28.5818C127.254 28.5818 129.371 30.8514 129.371 34.4633C129.371 38.085 127.265 40.3448 123.925 40.3448C120.587 40.3448 118.481 38.085 118.481 34.4633ZM126.97 34.4633C126.97 31.9856 125.835 30.5233 123.925 30.5233C122.016 30.5233 120.882 31.9968 120.882 34.4633C120.882 36.9508 122.016 38.402 123.925 38.402C125.835 38.402 126.97 36.9508 126.97 34.4633H126.97Z" fill="white"/>
<path d="M131.314 28.7232H133.561V30.6771H133.615C133.768 30.0668 134.125 29.5275 134.628 29.1498C135.131 28.7722 135.748 28.5791 136.377 28.6031C136.648 28.6021 136.919 28.6316 137.184 28.691V30.895C136.841 30.7902 136.484 30.7421 136.125 30.7526C135.783 30.7387 135.442 30.7991 135.125 30.9295C134.808 31.06 134.523 31.2574 134.29 31.5084C134.057 31.7593 133.881 32.0577 133.774 32.3831C133.667 32.7086 133.631 33.0533 133.67 33.3937V40.2026H131.314L131.314 28.7232Z" fill="white"/>
<path d="M148.048 36.8307C147.731 38.9146 145.702 40.3448 143.105 40.3448C139.766 40.3448 137.693 38.1073 137.693 34.5178C137.693 30.9171 139.777 28.5818 143.006 28.5818C146.182 28.5818 148.179 30.7635 148.179 34.2441V35.0514H140.071V35.1938C140.034 35.6163 140.087 36.0419 140.227 36.4423C140.366 36.8428 140.59 37.209 140.882 37.5165C141.174 37.824 141.528 38.0659 141.921 38.226C142.313 38.3862 142.736 38.4609 143.16 38.4453C143.716 38.4975 144.275 38.3686 144.753 38.0776C145.23 37.7867 145.601 37.3494 145.811 36.8307L148.048 36.8307ZM140.083 33.4046H145.822C145.843 33.0247 145.785 32.6446 145.653 32.2881C145.52 31.9315 145.315 31.6062 145.05 31.3327C144.786 31.0591 144.468 30.8431 144.116 30.6983C143.764 30.5535 143.386 30.4829 143.006 30.4911C142.622 30.4888 142.242 30.5625 141.887 30.708C141.532 30.8535 141.209 31.0679 140.937 31.3387C140.665 31.6096 140.45 31.9316 140.303 32.2862C140.157 32.6408 140.082 33.0209 140.083 33.4046V33.4046Z" fill="white"/>
<path d="M55.3934 18.1366C55.4925 18.8548 56.1945 19.311 57.2074 19.311C58.1509 19.311 58.843 18.8238 58.843 18.1527C58.843 17.5757 58.4022 17.2296 57.4005 16.9937L56.426 16.7579C55.0578 16.4378 54.4337 15.7772 54.4337 14.6659C54.4337 13.3181 55.5345 12.4217 57.1863 12.4217C57.8354 12.3493 58.4868 12.5371 58.9978 12.9439C59.5088 13.3507 59.8378 13.9434 59.9128 14.5923H58.7687C58.6934 14.2372 58.4871 13.9234 58.1909 13.7136C57.8947 13.5037 57.5303 13.4131 57.1702 13.4599C56.2416 13.4599 55.6237 13.9056 55.6237 14.5873C55.6237 15.1271 56.0224 15.4367 57.008 15.667L57.8414 15.8719C59.3928 16.2335 60.033 16.8625 60.033 18.0004C60.033 19.4472 58.9112 20.3542 57.1183 20.3542C55.4405 20.3542 54.3125 19.4893 54.2283 18.1366L55.3934 18.1366Z" fill="white"/>
<path d="M65.3411 16.3277C65.2693 16.0316 65.0938 15.7711 64.8464 15.5932C64.5991 15.4154 64.2962 15.332 63.9927 15.3582C63.0492 15.3582 62.4722 16.0813 62.4722 17.2978C62.4722 18.5354 63.0541 19.2746 63.9927 19.2746C64.2932 19.3094 64.5961 19.2333 64.8445 19.0604C65.0928 18.8876 65.2694 18.63 65.3411 18.3361H66.4369C66.3645 18.9142 66.069 19.4411 65.6135 19.8045C65.1581 20.1679 64.5787 20.339 63.9989 20.2813C63.6171 20.2933 63.2374 20.2218 62.8861 20.0718C62.5349 19.9218 62.2207 19.6968 61.9654 19.4126C61.7102 19.1284 61.5202 18.792 61.4086 18.4267C61.297 18.0614 61.2666 17.6761 61.3194 17.2979C61.2692 16.9224 61.3016 16.5405 61.4143 16.1788C61.5269 15.8171 61.7172 15.4844 61.9717 15.2038C62.2263 14.9233 62.539 14.7016 62.8881 14.5544C63.2371 14.4072 63.6141 14.338 63.9927 14.3515C64.5773 14.2977 65.1597 14.4741 65.6162 14.8432C66.0727 15.2122 66.3672 15.7449 66.4369 16.3277L65.3411 16.3277Z" fill="white"/>
<path d="M67.5551 18.5563C67.5551 17.5285 68.3203 16.9361 69.6786 16.8519L71.2251 16.7627V16.2699C71.2251 15.6669 70.8264 15.3264 70.0562 15.3264C69.4272 15.3264 68.9914 15.5573 68.8663 15.961H67.7755C67.8906 14.9803 68.8131 14.3513 70.1082 14.3513C71.5396 14.3513 72.3469 15.0639 72.3469 16.2699V20.1709H71.2623V19.3685H71.1731C70.9922 19.6563 70.7381 19.891 70.4368 20.0485C70.1355 20.206 69.7978 20.2807 69.4582 20.265C69.2185 20.2899 68.9763 20.2643 68.7471 20.1899C68.5179 20.1155 68.3068 19.9938 68.1275 19.8329C67.9482 19.6719 67.8046 19.4751 67.706 19.2552C67.6074 19.0353 67.556 18.7972 67.5551 18.5563V18.5563ZM71.2251 18.0684V17.5911L69.8309 17.6802C69.0446 17.7329 68.688 18.0003 68.688 18.5036C68.688 19.0175 69.1338 19.3165 69.7467 19.3165C69.9263 19.3347 70.1077 19.3166 70.2802 19.2632C70.4526 19.2098 70.6126 19.1223 70.7505 19.0059C70.8884 18.8894 71.0015 18.7464 71.0831 18.5854C71.1646 18.4243 71.2129 18.2485 71.2251 18.0684V18.0684Z" fill="white"/>
<path d="M74.1113 14.4618H75.196V15.3372H75.2802C75.4016 15.0333 75.6162 14.7757 75.8932 14.6014C76.1702 14.4271 76.4953 14.345 76.8218 14.367C76.9905 14.3648 77.1591 14.3805 77.3245 14.4141V15.5261C77.1177 15.4819 76.9069 15.459 76.6955 15.4579C76.5096 15.4413 76.3224 15.4636 76.1457 15.5236C75.969 15.5836 75.8068 15.6799 75.6696 15.8063C75.5323 15.9327 75.4231 16.0864 75.3487 16.2576C75.2744 16.4287 75.2368 16.6135 75.2381 16.8001V20.1711H74.1114L74.1113 14.4618Z" fill="white"/>
<path d="M78.507 12.7734C78.4983 12.6274 78.5337 12.4822 78.6084 12.3566C78.6832 12.231 78.794 12.1307 78.9264 12.0688C79.0588 12.0068 79.2068 11.9861 79.3512 12.0092C79.4955 12.0323 79.6296 12.0983 79.7361 12.1985C79.8425 12.2987 79.9164 12.4285 79.9482 12.5712C79.98 12.7139 79.9682 12.8629 79.9144 12.9988C79.8605 13.1347 79.7671 13.2514 79.6462 13.3336C79.5253 13.4158 79.3825 13.4598 79.2363 13.4599C79.1429 13.4647 79.0495 13.4505 78.9616 13.4183C78.8738 13.386 78.7934 13.3363 78.7253 13.2722C78.6572 13.208 78.6027 13.1308 78.5652 13.0451C78.5277 12.9593 78.5079 12.8669 78.507 12.7734V12.7734ZM78.6742 14.4617H79.7972V20.171H78.6742V14.4617Z" fill="white"/>
<path d="M85.3531 16.3277C85.2812 16.0316 85.1057 15.7711 84.8584 15.5932C84.611 15.4154 84.3082 15.332 84.0046 15.3582C83.0611 15.3582 82.4841 16.0813 82.4841 17.2978C82.4841 18.5354 83.0661 19.2746 84.0046 19.2746C84.3052 19.3094 84.6081 19.2333 84.8564 19.0604C85.1047 18.8876 85.2813 18.63 85.3531 18.3361H86.4489C86.3764 18.9142 86.0809 19.4411 85.6255 19.8045C85.17 20.1679 84.5906 20.339 84.0109 20.2813C83.6291 20.2933 83.2493 20.2218 82.8981 20.0718C82.5468 19.9218 82.2326 19.6968 81.9774 19.4126C81.7222 19.1284 81.5321 18.792 81.4205 18.4267C81.309 18.0614 81.2785 17.6761 81.3314 17.2979C81.2812 16.9224 81.3136 16.5405 81.4262 16.1788C81.5389 15.8171 81.7291 15.4844 81.9837 15.2038C82.2383 14.9233 82.551 14.7016 82.9 14.5544C83.2491 14.4072 83.6261 14.338 84.0047 14.3515C84.5892 14.2977 85.1717 14.4741 85.6282 14.8432C86.0847 15.2122 86.3791 15.7449 86.4489 16.3277L85.3531 16.3277Z" fill="white"/>
<path d="M87.567 18.5563C87.567 17.5285 88.3322 16.9361 89.6905 16.8519L91.2371 16.7627V16.2699C91.2371 15.6669 90.8384 15.3264 90.0682 15.3264C89.4392 15.3264 89.0033 15.5573 88.8783 15.961H87.7874C87.9026 14.9803 88.825 14.3513 90.1202 14.3513C91.5516 14.3513 92.3595 15.0639 92.3595 16.2699V20.1709H91.2742V19.3685H91.185C91.0041 19.6563 90.75 19.891 90.4487 20.0485C90.1474 20.206 89.8097 20.2807 89.4701 20.265C89.2304 20.2899 88.9882 20.2643 88.759 20.1899C88.5298 20.1154 88.3188 19.9938 88.1395 19.8328C87.9602 19.6718 87.8166 19.4751 87.718 19.2552C87.6194 19.0353 87.568 18.7972 87.567 18.5563V18.5563ZM91.2371 18.0684V17.5911L89.8428 17.6802C89.0566 17.7329 88.7 18.0003 88.7 18.5036C88.7 19.0175 89.1457 19.3165 89.7587 19.3165C89.9383 19.3347 90.1197 19.3166 90.2921 19.2632C90.4646 19.2098 90.6245 19.1223 90.7625 19.0059C90.9004 18.8894 91.0135 18.7464 91.095 18.5854C91.1766 18.4243 91.2249 18.2485 91.2371 18.0684H91.2371Z" fill="white"/>
<path d="M99.3071 14.3513C100.591 14.3513 101.431 14.9488 101.541 15.9554H100.46C100.356 15.5363 99.946 15.2688 99.3071 15.2688C98.6781 15.2688 98.2002 15.5672 98.2002 16.013C98.2002 16.3541 98.4887 16.569 99.1078 16.7107L100.056 16.9305C101.142 17.1825 101.651 17.6493 101.651 18.4882C101.651 19.5629 100.649 20.2811 99.2861 20.2811C97.9278 20.2811 97.0424 19.6676 96.9421 18.6559H98.0701C98.1673 18.8967 98.3426 19.0979 98.5678 19.2271C98.7931 19.3563 99.0552 19.4061 99.3121 19.3685C100.014 19.3685 100.513 19.0541 100.513 18.5977C100.513 18.2572 100.246 18.0368 99.6736 17.9006L98.6781 17.6697C97.5922 17.4128 97.0895 16.9255 97.0895 16.0761C97.0895 15.0639 98.0169 14.3513 99.3071 14.3513Z" fill="white"/>
<path d="M107.982 20.171H106.896V19.2641H106.807C106.663 19.5932 106.418 19.8686 106.109 20.0511C105.799 20.2337 105.44 20.3142 105.082 20.2813C104.806 20.3008 104.529 20.2583 104.271 20.1569C104.014 20.0554 103.782 19.8976 103.594 19.6949C103.405 19.4923 103.264 19.25 103.182 18.9858C103.099 18.7216 103.076 18.4423 103.116 18.1683V14.4617H104.244V17.8748C104.244 18.7973 104.615 19.2381 105.444 19.2381C105.636 19.2563 105.829 19.2314 106.011 19.1652C106.192 19.0991 106.356 18.9933 106.491 18.8556C106.626 18.7179 106.729 18.5518 106.792 18.3694C106.854 18.1869 106.876 17.9928 106.854 17.8011V14.4617H107.982V20.171Z" fill="white"/>
<rect x="0.5" y="0.5" width="169" height="55" rx="2.5" stroke="white"/>
</svg>
