<svg width="170" height="56" viewBox="0 0 170 56" fill="none" xmlns="http://www.w3.org/2000/svg">
<path d="M127.509 38.6913H129.534V25.4772H127.509V38.6913ZM145.748 30.2372L143.427 35.9662H143.357L140.948 30.2372H138.767L142.38 38.2445L140.32 42.6985H142.433L148 30.2372H145.748ZM134.264 37.1905C133.6 37.1905 132.676 36.8676 132.676 36.0682C132.676 35.0483 133.828 34.6573 134.822 34.6573C135.713 34.6573 136.131 34.8443 136.673 35.0996C136.515 36.3234 135.433 37.1905 134.264 37.1905V37.1905ZM134.509 29.9482C133.043 29.9482 131.524 30.5774 130.896 31.9714L132.693 32.7022C133.077 31.9714 133.792 31.7332 134.543 31.7332C135.591 31.7332 136.655 32.3455 136.673 33.4335V33.5693C136.306 33.3653 135.521 33.0594 134.561 33.0594C132.624 33.0594 130.651 34.0961 130.651 36.0343C130.651 37.8024 132.239 38.9415 134.019 38.9415C135.381 38.9415 136.131 38.3465 136.603 37.6496H136.673V38.6695H138.627V33.6031C138.627 31.2575 136.83 29.9482 134.509 29.9482V29.9482ZM121.994 31.8458H119.114V27.3164H121.994C123.508 27.3164 124.367 28.5372 124.367 29.581C124.367 30.6051 123.508 31.8458 121.994 31.8458ZM121.942 25.4772H117.09V38.6913H119.114V33.685H121.942C124.186 33.685 126.392 32.1023 126.392 29.581C126.392 27.0599 124.186 25.4772 121.942 25.4772ZM95.4834 37.1929C94.0845 37.1929 92.9132 36.0521 92.9132 34.4851C92.9132 32.9017 94.0845 31.7435 95.4834 31.7435C96.8646 31.7435 97.9485 32.9017 97.9485 34.4851C97.9485 36.0521 96.8646 37.1929 95.4834 37.1929V37.1929ZM97.8086 30.9772H97.7386C97.2842 30.4494 96.4096 29.9726 95.3084 29.9726C93.0006 29.9726 90.8853 31.9478 90.8853 34.4851C90.8853 37.0055 93.0006 38.9639 95.3084 38.9639C96.4096 38.9639 97.2842 38.4869 97.7386 37.9423H97.8086V38.5893C97.8086 40.3096 96.8646 41.2291 95.3435 41.2291C94.1023 41.2291 93.333 40.3603 93.0179 39.6282L91.2524 40.3434C91.7594 41.5354 93.1057 43 95.3435 43C97.7212 43 99.7318 41.6374 99.7318 38.3168V30.2451H97.8086V30.9772ZM101.13 38.6913H103.158V25.4768H101.13V38.6913ZM106.148 34.332C106.096 32.5948 107.529 31.7096 108.561 31.7096C109.365 31.7096 110.047 32.101 110.274 32.6634L106.148 34.332ZM112.442 32.8335C112.058 31.8285 110.886 29.9726 108.491 29.9726C106.113 29.9726 104.138 31.7947 104.138 34.4682C104.138 36.9886 106.096 38.9639 108.718 38.9639C110.834 38.9639 112.058 37.7037 112.565 36.9716L110.991 35.9496C110.467 36.6991 109.75 37.1929 108.718 37.1929C107.686 37.1929 106.952 36.733 106.48 35.8307L112.651 33.3443L112.442 32.8335ZM63.2731 31.352V33.2592H67.9585C67.8186 34.332 67.4515 35.1152 66.8919 35.6602C66.2103 36.3246 65.1438 37.0567 63.2731 37.0567C60.3883 37.0567 58.1331 34.7919 58.1331 31.9821C58.1331 29.1723 60.3883 26.9072 63.2731 26.9072C64.8292 26.9072 65.9653 27.5034 66.8046 28.2697L68.1857 26.9245C67.0144 25.8344 65.4583 25 63.2731 25C59.3217 25 56 28.1335 56 31.9821C56 35.8307 59.3217 38.9639 63.2731 38.9639C65.4062 38.9639 67.0145 38.283 68.2731 37.0055C69.5669 35.7453 69.9691 33.9744 69.9691 32.5441C69.9691 32.101 69.9343 31.6927 69.864 31.352H63.2731ZM75.296 37.1929C73.8971 37.1929 72.6906 36.069 72.6906 34.4682C72.6906 32.8504 73.8971 31.7435 75.296 31.7435C76.6944 31.7435 77.9008 32.8504 77.9008 34.4682C77.9008 36.069 76.6944 37.1929 75.296 37.1929V37.1929ZM75.296 29.9726C72.7432 29.9726 70.6626 31.8627 70.6626 34.4682C70.6626 37.0567 72.7432 38.9639 75.296 38.9639C77.8483 38.9639 79.9289 37.0567 79.9289 34.4682C79.9289 31.8627 77.8483 29.9726 75.296 29.9726ZM85.4028 37.1929C84.0044 37.1929 82.7979 36.069 82.7979 34.4682C82.7979 32.8504 84.0044 31.7435 85.4028 31.7435C86.8013 31.7435 88.0077 32.8504 88.0077 34.4682C88.0077 36.069 86.8013 37.1929 85.4028 37.1929ZM85.4028 29.9726C82.8501 29.9726 80.7699 31.8627 80.7699 34.4682C80.7699 37.0567 82.8501 38.9639 85.4028 38.9639C87.9552 38.9639 90.0358 37.0567 90.0358 34.4682C90.0358 31.8627 87.9552 29.9726 85.4028 29.9726Z" fill="white"/>
<path fill-rule="evenodd" clip-rule="evenodd" d="M67.4719 19.882C67.2143 19.9607 66.9504 20 66.6806 20C66.1865 20 65.7042 19.8372 65.2409 19.519C64.7695 19.1968 64.458 18.7373 64.3151 18.1586L64.2923 18.0672L64.3796 18.0322L65.2539 17.6775L65.2844 17.7975C65.3703 18.1345 65.5414 18.4131 65.8062 18.6447H65.8059C66.0714 18.8746 66.356 18.9846 66.6806 18.9855C67.0238 18.985 67.3076 18.8967 67.544 18.7212C67.7747 18.5475 67.8817 18.3311 67.8838 18.0326C67.8817 17.6948 67.7712 17.4577 67.5423 17.2797C67.3045 17.0967 66.9078 16.9158 66.3602 16.7484H66.3593C65.7759 16.5641 65.3264 16.3235 65.0141 16.0199C64.6979 15.7139 64.5364 15.312 64.5377 14.8406C64.5364 14.3456 64.7379 13.9063 65.1241 13.5466C65.5133 13.1814 66.0246 12.9991 66.6351 13C67.2017 12.9996 67.6752 13.1433 68.041 13.4362C68.3964 13.7212 68.6359 14.0391 68.746 14.3913L68.7755 14.4855L68.6844 14.5235L67.8117 14.888L67.7802 14.7687C67.7325 14.5907 67.6148 14.4187 67.4133 14.253V14.2534C67.2215 14.0966 66.9736 14.0154 66.6532 14.015C66.3535 14.0154 66.1081 14.0966 65.9023 14.2589L65.9019 14.2593C65.6966 14.4234 65.6055 14.6064 65.6038 14.8406C65.6055 15.0503 65.6882 15.216 65.8754 15.3681H65.8749C66.068 15.522 66.3636 15.6687 66.7594 15.7985H66.7591C67.0811 15.9025 67.3509 16.0026 67.5714 16.1024H67.571C67.7932 16.2022 68.0166 16.335 68.2409 16.4989L68.2405 16.4985C68.4745 16.6685 68.6532 16.8841 68.7726 17.1389C68.8918 17.3948 68.9504 17.6877 68.95 18.0144C68.9504 18.3437 68.8825 18.6435 68.7439 18.9081C68.6073 19.171 68.4218 19.382 68.1925 19.537V19.5375C67.9698 19.688 67.73 19.8034 67.4719 19.882ZM57.0476 18.8409V14.1596H58.0886C58.8158 14.1609 59.3749 14.3684 59.7897 14.7772V14.7767C60.2028 15.1868 60.4124 15.752 60.4133 16.5002C60.4124 17.2544 60.2028 17.8217 59.7901 18.2275C59.3749 18.6342 58.8163 18.8396 58.0886 18.8409H57.0476ZM58.0886 19.855H56.1084H56V13.1454H58.0886C59.1046 13.1446 59.9343 13.4553 60.5532 14.0801C61.1712 14.7015 61.4807 15.5165 61.4799 16.5002C61.4807 17.483 61.1712 18.2989 60.5532 18.9207C59.9343 19.5452 59.1046 19.8558 58.0886 19.855ZM63.3711 19.855H62.5398H62.4318V13.1454H62.5398H63.4791V19.855H63.3711ZM70.9762 16.2102V14.1596H72.2617C72.5875 14.1613 72.8308 14.2653 73.0222 14.4778C73.2182 14.6982 73.3102 14.9286 73.311 15.1856C73.3102 15.4426 73.2182 15.6721 73.0222 15.8932C72.8308 16.1054 72.5879 16.209 72.2617 16.2102H70.9762ZM70.9762 17.2252V19.7468V19.855H70.8683H69.9286V13.1454H72.2435C72.8157 13.1446 73.3219 13.339 73.7402 13.722C74.163 14.1054 74.3784 14.603 74.3772 15.1856C74.3784 15.7676 74.163 16.2647 73.7402 16.6477C73.3219 17.0311 72.8157 17.226 72.2435 17.2252H70.9762ZM75.8688 16.5002C75.8697 17.2332 76.0986 17.8208 76.5564 18.288C77.018 18.7551 77.5703 18.9842 78.2386 18.9855C78.9068 18.9842 79.4599 18.7551 79.9207 18.288C80.3799 17.8208 80.6088 17.2332 80.6096 16.5002C80.6088 15.7673 80.3799 15.1796 79.9207 14.7125C79.4599 14.2454 78.9068 14.0163 78.2386 14.015C77.5703 14.0163 77.018 14.2454 76.5564 14.7125C76.0986 15.1796 75.8697 15.7673 75.8688 16.5002ZM81.675 16.5002C81.6759 17.4733 81.3453 18.3091 80.6906 18.9829C80.0358 19.6597 79.2099 20.0009 78.2386 20C77.2675 20.0009 76.4418 19.6598 75.7879 18.9834L75.7904 18.9863L75.7874 18.9829L75.7879 18.9833C75.1319 18.3091 74.8022 17.4733 74.8035 16.5002C74.8022 15.5271 75.1319 14.6913 75.7879 14.0171L75.7874 14.0176C76.4414 13.3408 77.2672 12.9988 78.2386 13C79.2049 12.9988 80.0287 13.3424 80.6864 14.0218C81.344 14.6986 81.6759 15.5326 81.675 16.5002ZM86.8133 17.9693L83.8074 13.1454H82.7348H82.6269V19.855H82.7348H83.5662H83.6741V15.7008L83.6483 14.7876L86.799 19.855H87.7278H87.8357V13.1454H86.8951H86.7872V17.0548L86.8133 17.9693ZM90.0418 19.855H89.2105H89.1026V13.1454H89.2105H90.1498V19.855H90.0418ZM92.4643 18.8409V16.9255H93.9934C94.3021 16.9267 94.5348 17.0249 94.7199 17.2222C94.9105 17.4285 94.9977 17.6412 94.9985 17.8783C94.9977 18.1171 94.9121 18.3328 94.7279 18.5407H94.7274C94.547 18.742 94.3249 18.8391 94.0301 18.8409H92.4643ZM92.4643 15.9291V14.1596H93.9036C94.1811 14.1613 94.3864 14.25 94.5507 14.4323L94.5516 14.433L94.5507 14.4327C94.7203 14.6221 94.7987 14.8199 94.7991 15.0401C94.7987 15.2595 94.7181 15.4582 94.5428 15.6513V15.6518C94.3729 15.8374 94.1579 15.9278 93.867 15.9291H92.4643ZM95.0809 16.3806C95.2848 16.2585 95.4557 16.0972 95.5892 15.8986L95.5888 15.8991C95.7616 15.6451 95.848 15.3487 95.848 15.0219C95.8493 14.488 95.6478 14.0298 95.2557 13.6764C94.867 13.3242 94.3978 13.1446 93.867 13.1454H91.4171V19.855H91.525H93.9934C94.5483 19.8558 95.0386 19.6689 95.4455 19.3008C95.8552 18.9334 96.0664 18.4553 96.0652 17.8969C96.0656 17.5254 95.9535 17.1897 95.7346 16.9056V16.9052C95.5579 16.6765 95.3385 16.5001 95.0809 16.3806ZM97.91 19.855H97.0782H96.9702V13.1454H97.0782H98.0179V19.855H97.91ZM103.137 19.855H99.394H99.2861V13.1454H99.394H100.334L100.333 18.8409H103.137V18.9491V19.855ZM107.966 13.2537V14.0513V14.1596H105.018V16.0019H107.677V16.1101V16.9986H105.018V18.8409H107.966V18.9491V19.855H103.97V13.1454H107.966V13.2537ZM113.678 19.882C113.42 19.9607 113.157 20 112.887 20C112.393 20 111.91 19.8372 111.447 19.519C110.976 19.1968 110.665 18.7373 110.521 18.1586L110.499 18.0672L110.586 18.0322L111.46 17.6775L111.491 17.7975C111.577 18.1345 111.747 18.4131 112.013 18.6447C112.278 18.8746 112.562 18.9846 112.887 18.9855C113.23 18.985 113.514 18.8967 113.751 18.7212C113.981 18.5475 114.088 18.3311 114.09 18.0326C114.088 17.6948 113.977 17.4577 113.749 17.2797C113.511 17.0967 113.115 16.9158 112.567 16.7484H112.565C111.983 16.5641 111.533 16.3235 111.221 16.0199C110.904 15.7139 110.743 15.312 110.744 14.8406C110.743 14.3456 110.944 13.9063 111.331 13.5466C111.719 13.1814 112.231 12.9991 112.842 13C113.408 12.9996 113.882 13.1433 114.248 13.4362C114.603 13.7212 114.843 14.0391 114.953 14.3913L114.982 14.4855L114.891 14.5235L114.018 14.888L113.987 14.7687C113.939 14.5907 113.822 14.4187 113.62 14.253V14.2534C113.428 14.0966 113.18 14.0154 112.86 14.015C112.56 14.0154 112.315 14.0966 112.109 14.2589V14.2593C111.903 14.4234 111.812 14.6064 111.81 14.8406C111.812 15.0503 111.894 15.216 112.082 15.3681C112.275 15.522 112.57 15.6687 112.966 15.7985C113.288 15.9025 113.557 16.0026 113.778 16.1024C114 16.2022 114.223 16.335 114.448 16.4989L114.447 16.4985C114.681 16.6685 114.86 16.8841 114.979 17.1389C115.099 17.3948 115.157 17.6877 115.157 18.0144C115.157 18.3437 115.089 18.6435 114.951 18.9081C114.814 19.171 114.628 19.382 114.399 19.537V19.5375C114.176 19.688 113.936 19.8034 113.678 19.882ZM120.324 19.2619C119.872 19.7552 119.252 20.0009 118.495 20C117.76 20.0009 117.147 19.7523 116.684 19.2585C116.22 18.766 115.99 18.1163 115.991 17.3347V13.1454H116.099H117.038V17.371C117.039 17.8665 117.165 18.2524 117.415 18.5484C117.661 18.8375 118.009 18.9842 118.495 18.9855C118.98 18.9842 119.329 18.8375 119.574 18.5484C119.824 18.2524 119.951 17.8665 119.952 17.371V13.1454H120.06H121V17.3347C121.001 18.1218 120.777 18.7719 120.324 19.2619Z" fill="white"/>
<path d="M20 14V42L34 28L20 14Z" fill="url(#paint0_linear)"/>
<path d="M20 14V42L34 28L20 14Z" fill="url(#paint1_linear)"/>
<path d="M44.4845 27.0452L39.2 24L35 28L39.2 32L44.4845 28.7484C44.7938 28.5935 45 28.2323 45 27.871C45 27.5097 44.7938 27.2 44.4845 27.0452Z" fill="url(#paint2_linear)"/>
<path d="M44.4845 27.0452L39.2 24L35 28L39.2 32L44.4845 28.7484C44.7938 28.5935 45 28.2323 45 27.871C45 27.5097 44.7938 27.2 44.4845 27.0452Z" fill="url(#paint3_linear)"/>
<path d="M21 42L38.6 32.45L34.5 28.5L21 42Z" fill="url(#paint4_linear)"/>
<path d="M21 42L38.6 32.45L34.5 28.5L21 42Z" fill="url(#paint5_linear)"/>
<path d="M38.6 23.55L33.05 20.3L21 14L34.5 27.5L38.6 23.55Z" fill="url(#paint6_linear)"/>
<path d="M38.6 23.55L33.05 20.3L21 14L34.5 27.5L38.6 23.55Z" fill="url(#paint7_linear)"/>
<rect x="0.5" y="0.5" width="169" height="55" rx="2.5" stroke="white"/>
<defs>
<linearGradient id="paint0_linear" x1="27" y1="23.5" x2="20" y2="32" gradientUnits="userSpaceOnUse">
<stop stop-color="#00E2FF"/>
<stop offset="1" stop-color="#03C6F5"/>
</linearGradient>
<linearGradient id="paint1_linear" x1="32.8101" y1="40.7588" x2="13.8625" y2="22.5978" gradientUnits="userSpaceOnUse">
<stop stop-color="#00A0FF"/>
<stop offset="0.00657445" stop-color="#00A1FF"/>
<stop offset="0.2601" stop-color="#00BEFF"/>
<stop offset="0.5122" stop-color="#00D2FF"/>
<stop offset="0.7604" stop-color="#00DFFF"/>
<stop offset="1" stop-color="#00E3FF"/>
</linearGradient>
<linearGradient id="paint2_linear" x1="40" y1="24" x2="29.5" y2="24" gradientUnits="userSpaceOnUse">
<stop stop-color="#FFEA0D"/>
<stop offset="1" stop-color="#FFCF00"/>
</linearGradient>
<linearGradient id="paint3_linear" x1="45.759" y1="28.0695" x2="21.9536" y2="28.0695" gradientUnits="userSpaceOnUse">
<stop stop-color="#FFE000"/>
<stop offset="0.4087" stop-color="#FFBD00"/>
<stop offset="0.7754" stop-color="#FFA500"/>
<stop offset="1" stop-color="#FF9C00"/>
</linearGradient>
<linearGradient id="paint4_linear" x1="30" y1="28" x2="18.5" y2="39.5" gradientUnits="userSpaceOnUse">
<stop stop-color="#F73547"/>
<stop offset="1" stop-color="#E22652"/>
</linearGradient>
<linearGradient id="paint5_linear" x1="36.2636" y1="39.5906" x2="12.375" y2="15.4439" gradientUnits="userSpaceOnUse">
<stop stop-color="#FF3A44"/>
<stop offset="1" stop-color="#C31162"/>
</linearGradient>
<linearGradient id="paint6_linear" x1="36" y1="23.5" x2="21" y2="14" gradientUnits="userSpaceOnUse">
<stop stop-color="#2EF38F"/>
<stop offset="1" stop-color="#0EDE76"/>
</linearGradient>
<linearGradient id="paint7_linear" x1="17.598" y1="34.8109" x2="28.2656" y2="24.0452" gradientUnits="userSpaceOnUse">
<stop stop-color="#32A071"/>
<stop offset="0.0685" stop-color="#2DA771"/>
<stop offset="0.4762" stop-color="#15CF74"/>
<stop offset="0.8009" stop-color="#06E775"/>
<stop offset="1" stop-color="#00F076"/>
</linearGradient>
</defs>
</svg>
