<svg width="170" height="56" viewBox="0 0 170 56" fill="none" xmlns="http://www.w3.org/2000/svg">
<path d="M36.6005 27.4325C36.614 26.3833 36.8927 25.3546 37.4106 24.4421C37.9286 23.5295 38.6689 22.7628 39.5628 22.2133C38.9949 21.4023 38.2458 20.7349 37.3749 20.2641C36.504 19.7933 35.5353 19.532 34.5458 19.5011C32.435 19.2795 30.3886 20.7642 29.3129 20.7642C28.2165 20.7642 26.5604 19.5231 24.777 19.5597C23.6235 19.597 22.4992 19.9325 21.5139 20.5334C20.5285 21.1343 19.7157 21.9802 19.1544 22.9887C16.7234 27.1978 18.5367 33.3836 20.8655 36.7859C22.0306 38.4519 23.3923 40.3128 25.1741 40.2468C26.9177 40.1745 27.5688 39.135 29.6735 39.135C31.7586 39.135 32.3695 40.2468 34.1874 40.2049C36.0584 40.1745 37.2371 38.5315 38.3614 36.8497C39.1985 35.6626 39.8427 34.3507 40.27 32.9624C39.1831 32.5026 38.2555 31.7331 37.603 30.7498C36.9504 29.7664 36.6018 28.6127 36.6005 27.4325V27.4325Z" fill="white"/>
<path d="M33.1668 17.2635C34.1869 16.0389 34.6895 14.4649 34.5678 12.8757C33.0093 13.0394 31.5697 13.7843 30.5358 14.9619C30.0303 15.5372 29.6431 16.2065 29.3964 16.9315C29.1498 17.6565 29.0484 18.423 29.0981 19.1872C29.8776 19.1953 30.6488 19.0263 31.3536 18.6931C32.0584 18.3599 32.6783 17.8711 33.1668 17.2635Z" fill="white"/>
<path d="M50.2813 20.3947V13.9543H47.9219V12.8943H53.8007V13.9543H51.4462V20.3947H50.2813Z" fill="white"/>
<path d="M59.218 18.8663C59.0662 19.3837 58.7374 19.8311 58.289 20.1305C57.8406 20.4299 57.3013 20.562 56.7653 20.5039C56.3924 20.5137 56.0218 20.4423 55.6793 20.2946C55.3367 20.1468 55.0304 19.9263 54.7817 19.6484C54.5329 19.3704 54.3476 19.0416 54.2386 18.6848C54.1296 18.3281 54.0996 17.9519 54.1506 17.5823C54.1009 17.2116 54.1315 16.8346 54.2402 16.4768C54.3489 16.1189 54.5333 15.7886 54.7807 15.5082C55.0282 15.2278 55.333 15.0039 55.6746 14.8515C56.0161 14.6991 56.3864 14.6219 56.7604 14.6251C58.3354 14.6251 59.2855 15.7011 59.2855 17.4786V17.8683H55.2885V17.9309C55.2711 18.1386 55.2972 18.3477 55.3652 18.5447C55.4332 18.7418 55.5417 18.9224 55.6836 19.0751C55.8255 19.2278 55.9978 19.3491 56.1894 19.4313C56.3809 19.5135 56.5875 19.5548 56.796 19.5525C57.0632 19.5845 57.3339 19.5364 57.5737 19.4142C57.8135 19.292 58.0115 19.1013 58.1426 18.8663L59.218 18.8663ZM55.2885 17.0422H58.1475C58.1616 16.8522 58.1358 16.6614 58.0718 16.482C58.0077 16.3026 57.9068 16.1386 57.7756 16.0005C57.6444 15.8624 57.4857 15.7533 57.3098 15.6802C57.134 15.607 56.9447 15.5715 56.7543 15.5759C56.5611 15.5734 56.3693 15.6097 56.1904 15.6826C56.0114 15.7554 55.8488 15.8633 55.7122 16C55.5756 16.1366 55.4678 16.2992 55.395 16.4782C55.3222 16.6572 55.286 16.849 55.2885 17.0422H55.2885ZM56.0889 13.7879L57.3938 12H58.7036L57.2428 13.7879H56.0889Z" fill="white"/>
<path d="M60.837 12.5249H61.9541V20.3948H60.837V12.5249Z" fill="white"/>
<path d="M68.5744 18.8663C68.4226 19.3837 68.0938 19.8311 67.6454 20.1305C67.1971 20.4299 66.6577 20.562 66.1218 20.5039C65.7488 20.5137 65.3783 20.4423 65.0357 20.2946C64.6932 20.1468 64.3869 19.9263 64.1381 19.6484C63.8893 19.3704 63.704 19.0416 63.5951 18.6848C63.4861 18.3281 63.4561 17.9519 63.5071 17.5823C63.4574 17.2116 63.488 16.8346 63.5967 16.4768C63.7054 16.1189 63.8897 15.7886 64.1372 15.5082C64.3846 15.2278 64.6895 15.0039 65.031 14.8515C65.3726 14.6991 65.7429 14.6219 66.1168 14.6251C67.6918 14.6251 68.6419 15.7011 68.6419 17.4786V17.8683H64.645V17.9309C64.6275 18.1386 64.6536 18.3477 64.7216 18.5447C64.7897 18.7418 64.8981 18.9224 65.04 19.0751C65.182 19.2278 65.3542 19.3491 65.5458 19.4313C65.7373 19.5135 65.944 19.5548 66.1524 19.5525C66.4196 19.5845 66.6903 19.5364 66.9301 19.4142C67.1699 19.292 67.3679 19.1013 67.499 18.8663L68.5744 18.8663ZM64.645 17.0422H67.5039C67.518 16.8522 67.4922 16.6614 67.4282 16.482C67.3641 16.3026 67.2632 16.1386 67.132 16.0005C67.0008 15.8624 66.8421 15.7533 66.6663 15.6802C66.4904 15.607 66.3011 15.5715 66.1107 15.5759C65.9175 15.5735 65.7257 15.6097 65.5468 15.6826C65.3678 15.7554 65.2052 15.8633 65.0686 16C64.932 16.1366 64.8242 16.2993 64.7514 16.4782C64.6786 16.6572 64.6425 16.849 64.645 17.0422ZM65.4453 13.7879L66.7502 12H68.0601L66.5993 13.7879H65.4453Z" fill="white"/>
<path d="M73.8479 16.5843C73.7767 16.2908 73.6027 16.0325 73.3575 15.8562C73.1123 15.6798 72.812 15.5972 72.5111 15.6231C71.5757 15.6231 71.0037 16.34 71.0037 17.5461C71.0037 18.773 71.5806 19.5059 72.5111 19.5059C72.8091 19.5404 73.1094 19.4649 73.3555 19.2935C73.6017 19.1222 73.7768 18.8668 73.8479 18.5754H74.9343C74.8625 19.1486 74.5695 19.671 74.118 20.0312C73.6665 20.3915 73.0921 20.5611 72.5173 20.5039C72.1388 20.5158 71.7623 20.445 71.414 20.2962C71.0658 20.1474 70.7543 19.9244 70.5013 19.6427C70.2483 19.361 70.0599 19.0274 69.9492 18.6652C69.8386 18.3031 69.8084 17.9211 69.8608 17.5461C69.8111 17.1739 69.8432 16.7952 69.9549 16.4367C70.0666 16.0781 70.2552 15.7482 70.5075 15.4701C70.7599 15.1919 71.0699 14.9722 71.416 14.8263C71.7621 14.6804 72.1358 14.6117 72.5111 14.6251C73.0906 14.5718 73.6681 14.7466 74.1207 15.1125C74.5732 15.4784 74.8651 16.0065 74.9343 16.5843L73.8479 16.5843Z" fill="white"/>
<path d="M76.4173 12.5249H77.5246V15.6441H77.6129C77.7614 15.3182 78.0068 15.0459 78.3157 14.8645C78.6245 14.683 78.9818 14.6012 79.3388 14.6302C79.6128 14.6153 79.8867 14.661 80.141 14.7641C80.3952 14.8673 80.6236 15.0252 80.8098 15.2268C80.996 15.4283 81.1354 15.6685 81.2181 15.9301C81.3008 16.1917 81.3247 16.4684 81.2882 16.7403V20.3948H80.1699V17.0159C80.1699 16.1118 79.7488 15.6539 78.9595 15.6539C78.7675 15.6382 78.5744 15.6646 78.3937 15.7313C78.2129 15.798 78.049 15.9033 77.9132 16.04C77.7775 16.1767 77.6732 16.3414 77.6078 16.5226C77.5423 16.7038 77.5172 16.8971 77.5343 17.089V20.3948H76.4172L76.4173 12.5249Z" fill="white"/>
<path d="M82.6925 18.794C82.6925 17.7751 83.4511 17.1878 84.7978 17.1043L86.331 17.0159V16.5273C86.331 15.9295 85.9357 15.5919 85.1722 15.5919C84.5486 15.5919 84.1165 15.8209 83.9925 16.2211H82.911C83.0252 15.2488 83.9397 14.6252 85.2237 14.6252C86.6428 14.6252 87.4425 15.3317 87.4425 16.5273V20.3948H86.3678V19.5993H86.2795C86.1001 19.8846 85.8482 20.1173 85.5495 20.2734C85.2508 20.4295 84.916 20.5036 84.5793 20.488C84.3417 20.5127 84.1015 20.4874 83.8743 20.4136C83.6471 20.3398 83.4378 20.2192 83.26 20.0596C83.0823 19.9 82.9399 19.705 82.8422 19.487C82.7444 19.269 82.6934 19.0329 82.6925 18.794V18.794ZM86.331 18.3104V17.8372L84.9488 17.9255C84.1692 17.9777 83.8157 18.2429 83.8157 18.7419C83.8157 19.2513 84.2576 19.5477 84.8653 19.5477C85.0434 19.5658 85.2232 19.5478 85.3942 19.4949C85.5652 19.442 85.7237 19.3552 85.8605 19.2398C85.9972 19.1243 86.1094 18.9826 86.1902 18.8229C86.271 18.6632 86.3189 18.4889 86.331 18.3104L86.331 18.3104Z" fill="white"/>
<path d="M89.1919 14.7346H90.2672V15.6025H90.3507C90.4711 15.3012 90.6839 15.0458 90.9584 14.873C91.233 14.7002 91.5553 14.6189 91.879 14.6407C92.0463 14.6384 92.2134 14.6541 92.3774 14.6873V15.7897C92.1724 15.7459 91.9634 15.7233 91.7538 15.7222C91.5696 15.7057 91.3839 15.7279 91.2087 15.7873C91.0336 15.8468 90.8728 15.9423 90.7367 16.0676C90.6007 16.1929 90.4923 16.3453 90.4186 16.515C90.345 16.6847 90.3076 16.8679 90.309 17.0529V20.3949H89.1919L89.1919 14.7346Z" fill="white"/>
<path d="M93.4048 20.961H94.5477C94.6422 21.3717 95.1148 21.6368 95.8685 21.6368C96.799 21.6368 97.3502 21.1949 97.3502 20.4467V19.3603H97.2667C97.0915 19.6644 96.8356 19.9142 96.5273 20.0819C96.2191 20.2497 95.8704 20.329 95.5199 20.3111C94.0751 20.3111 93.1814 19.194 93.1814 17.4993C93.1814 15.7734 94.0849 14.6403 95.5309 14.6403C95.8902 14.6278 96.246 14.7143 96.5595 14.8903C96.873 15.0663 97.1321 15.3251 97.3084 15.6384H97.3968V14.7343H98.4673V20.4411C98.4673 21.7356 97.4533 22.5568 95.8526 22.5568C94.4384 22.5569 93.5239 21.9228 93.4048 20.961ZM97.3711 17.4938C97.3711 16.3663 96.788 15.6439 95.8366 15.6439C94.8754 15.6439 94.3353 16.3663 94.3353 17.4938C94.3353 18.6219 94.8754 19.3444 95.8366 19.3444C96.7941 19.3444 97.3711 18.6275 97.3711 17.4938V17.4938Z" fill="white"/>
<path d="M105.034 18.8666C104.882 19.3839 104.553 19.8314 104.105 20.1307C103.656 20.4301 103.117 20.5623 102.581 20.5041C102.208 20.514 101.837 20.4425 101.495 20.2948C101.152 20.1471 100.846 19.9266 100.597 19.6486C100.348 19.3706 100.163 19.0418 100.054 18.6851C99.9452 18.3283 99.9152 17.9521 99.9662 17.5825C99.9165 17.2119 99.9471 16.8348 100.056 16.477C100.164 16.1192 100.349 15.7889 100.596 15.5084C100.844 15.228 101.149 15.0041 101.49 14.8517C101.832 14.6993 102.202 14.6222 102.576 14.6253C104.151 14.6253 105.101 15.7013 105.101 17.4788V17.8685H101.104V17.9311C101.087 18.1388 101.113 18.3479 101.181 18.545C101.249 18.742 101.357 18.9226 101.499 19.0753C101.641 19.228 101.813 19.3493 102.005 19.4315C102.196 19.5137 102.403 19.555 102.612 19.5527C102.879 19.5848 103.149 19.5366 103.389 19.4145C103.629 19.2923 103.827 19.1015 103.958 18.8665L105.034 18.8666ZM101.104 17.0424H103.963C103.977 16.8524 103.951 16.6616 103.887 16.4822C103.823 16.3028 103.722 16.1388 103.591 16.0007C103.46 15.8626 103.301 15.7535 103.125 15.6804C102.949 15.6073 102.76 15.5717 102.57 15.5761C102.377 15.5737 102.185 15.6099 102.006 15.6828C101.827 15.7556 101.664 15.8636 101.528 16.0002C101.391 16.1369 101.283 16.2995 101.211 16.4785C101.138 16.6575 101.102 16.8492 101.104 17.0424H101.104Z" fill="white"/>
<path d="M106.601 14.7346H107.676V15.6025H107.76C107.88 15.3012 108.093 15.0458 108.368 14.873C108.642 14.7002 108.965 14.6189 109.288 14.6407C109.456 14.6384 109.623 14.6541 109.787 14.6873V15.7897C109.582 15.7459 109.373 15.7233 109.163 15.7222C108.979 15.7057 108.793 15.7278 108.618 15.7873C108.443 15.8468 108.282 15.9422 108.146 16.0676C108.01 16.1929 107.901 16.3453 107.828 16.515C107.754 16.6847 107.717 16.8679 107.718 17.0529V20.3949H106.601V14.7346Z" fill="white"/>
<path d="M113.812 17.5622C113.812 15.7736 114.731 14.6406 116.161 14.6406C116.515 14.6243 116.866 14.709 117.174 14.8849C117.481 15.0607 117.732 15.3204 117.897 15.6336H117.981V12.5249H119.098V20.3948H118.027V19.5005H117.939C117.761 19.8116 117.501 20.0681 117.188 20.2421C116.874 20.4162 116.519 20.5013 116.161 20.4881C114.721 20.4881 113.812 19.355 113.812 17.5622ZM114.966 17.5622C114.966 18.7627 115.532 19.4852 116.478 19.4852C117.42 19.4852 118.001 18.7523 118.001 17.5671C118.001 16.3874 117.413 15.6441 116.478 15.6441C115.538 15.6441 114.966 16.3715 114.966 17.5622H114.966Z" fill="white"/>
<path d="M120.608 18.794C120.608 17.7751 121.366 17.1878 122.713 17.1043L124.246 17.0159V16.5273C124.246 15.9295 123.851 15.5919 123.087 15.5919C122.464 15.5919 122.032 15.8209 121.908 16.2211H120.826C120.94 15.2488 121.855 14.6252 123.139 14.6252C124.558 14.6252 125.358 15.3317 125.358 16.5273V20.3948H124.283V19.5993H124.194C124.015 19.8846 123.763 20.1173 123.464 20.2734C123.166 20.4295 122.831 20.5036 122.494 20.488C122.257 20.5127 122.017 20.4874 121.789 20.4136C121.562 20.3398 121.353 20.2192 121.175 20.0596C120.997 19.9 120.855 19.7049 120.757 19.487C120.659 19.269 120.608 19.0329 120.608 18.794ZM124.246 18.3104V17.8372L122.864 17.9255C122.084 17.9777 121.731 18.2428 121.731 18.7418C121.731 19.2513 122.173 19.5477 122.78 19.5477C122.958 19.5658 123.138 19.5478 123.309 19.4949C123.48 19.442 123.639 19.3552 123.776 19.2398C123.912 19.1243 124.024 18.9825 124.105 18.8229C124.186 18.6632 124.234 18.4889 124.246 18.3104V18.3104Z" fill="white"/>
<path d="M127.108 14.7345H128.183V15.6336H128.266C128.408 15.3107 128.647 15.04 128.95 14.8592C129.252 14.6784 129.604 14.5966 129.955 14.6252C130.231 14.6045 130.507 14.646 130.765 14.7467C131.022 14.8474 131.253 15.0046 131.441 15.2068C131.629 15.409 131.77 15.6509 131.852 15.9147C131.934 16.1784 131.955 16.4572 131.915 16.7305V20.3947H130.798V17.011C130.798 16.1014 130.402 15.649 129.576 15.649C129.389 15.6403 129.203 15.6721 129.029 15.7423C128.855 15.8125 128.699 15.9193 128.571 16.0556C128.442 16.1918 128.345 16.3542 128.285 16.5316C128.225 16.709 128.205 16.8972 128.225 17.0834V20.3947H127.108V14.7345Z" fill="white"/>
<path d="M135.711 14.6252C136.984 14.6252 137.817 15.2175 137.926 16.2155H136.854C136.751 15.8 136.345 15.5349 135.711 15.5349C135.088 15.5349 134.614 15.8307 134.614 16.2726C134.614 16.6108 134.9 16.8238 135.514 16.9644L136.454 17.1822C137.531 17.4321 138.035 17.8948 138.035 18.7265C138.035 19.792 137.042 20.504 135.691 20.504C134.344 20.504 133.466 19.8958 133.367 18.8929H134.485C134.582 19.1316 134.755 19.331 134.979 19.4591C135.202 19.5872 135.462 19.6366 135.716 19.5993C136.412 19.5993 136.907 19.2876 136.907 18.8351C136.907 18.4976 136.642 18.2791 136.075 18.144L135.088 17.9151C134.011 17.6604 133.513 17.1773 133.513 16.3352C133.513 15.3317 134.432 14.6252 135.711 14.6252Z" fill="white"/>
<path d="M49.7068 24.625H52.0441V40.2353H49.7068V24.625Z" fill="white"/>
<path d="M54.8601 30.3368L56.1368 24.625H58.4078L56.861 30.3368H54.8601Z" fill="white"/>
<path d="M67.24 36.0161H61.29L59.8611 40.2353H57.3409L62.9767 24.625H65.595L71.2308 40.2353H68.6676L67.24 36.0161ZM61.9062 34.0692H66.6226L64.2976 27.2213H64.2325L61.9062 34.0692Z" fill="white"/>
<path d="M83.4008 34.5455C83.4008 38.0821 81.508 40.3543 78.6514 40.3543C77.9278 40.3921 77.2082 40.2254 76.5749 39.8733C75.9416 39.5211 75.4203 38.9978 75.0706 38.3631H75.0166V44.0001H72.6805V28.8539H74.9417V30.7467H74.9847C75.3504 30.1151 75.8805 29.5945 76.5186 29.2402C77.1567 28.8859 77.8789 28.7112 78.6084 28.7348C81.4969 28.7348 83.4008 31.018 83.4008 34.5455ZM80.9997 34.5455C80.9997 32.2407 79.809 30.7259 77.9922 30.7259C76.2073 30.7259 75.0068 32.2726 75.0068 34.5455C75.0068 36.8385 76.2073 38.3742 77.9922 38.3742C79.809 38.3742 80.9997 36.8704 80.9997 34.5455V34.5455Z" fill="white"/>
<path d="M95.9262 34.5455C95.9262 38.0821 94.0333 40.3543 91.1768 40.3543C90.4532 40.3921 89.7335 40.2254 89.1003 39.8733C88.467 39.5211 87.9457 38.9978 87.596 38.3631H87.5419V44.0001H85.2065V28.8539H87.4671V30.7467H87.5101C87.8758 30.1151 88.4059 29.5945 89.044 29.2402C89.6821 28.8859 90.4044 28.7112 91.1338 28.7348C94.0223 28.7348 95.9262 31.018 95.9262 34.5455ZM93.5251 34.5455C93.5251 32.2407 92.3344 30.7259 90.5176 30.7259C88.7327 30.7259 87.5322 32.2726 87.5322 34.5455C87.5322 36.8385 88.7327 38.3742 90.5176 38.3742C92.3344 38.3742 93.5251 36.8704 93.5251 34.5455V34.5455Z" fill="white"/>
<path d="M104.205 35.886C104.378 37.434 105.882 38.4503 107.937 38.4503C109.906 38.4503 111.322 37.4339 111.322 36.0382C111.322 34.8266 110.468 34.1011 108.445 33.6039L106.422 33.116C103.556 32.4237 102.225 31.0832 102.225 28.9079C102.225 26.2147 104.572 24.3647 107.905 24.3647C111.203 24.3647 113.464 26.2147 113.54 28.9079H111.182C111.041 27.3502 109.753 26.4099 107.872 26.4099C105.99 26.4099 104.702 27.3612 104.702 28.7459C104.702 29.8495 105.525 30.4989 107.536 30.996L109.256 31.4183C112.459 32.1757 113.79 33.4628 113.79 35.746C113.79 38.6664 111.463 40.4954 107.764 40.4954C104.302 40.4954 101.965 38.7093 101.814 35.886L104.205 35.886Z" fill="white"/>
<path d="M118.832 26.1606V28.8539H120.997V30.7038H118.832V36.9785C118.832 37.9532 119.266 38.4074 120.217 38.4074C120.474 38.4029 120.731 38.3849 120.986 38.3533V40.1922C120.558 40.2721 120.123 40.3083 119.688 40.3002C117.384 40.3002 116.485 39.4348 116.485 37.2277V30.7038H114.831V28.8539H116.485V26.1606H118.832Z" fill="white"/>
<path d="M122.249 34.5454C122.249 30.964 124.358 28.7139 127.646 28.7139C130.946 28.7139 133.045 30.9639 133.045 34.5454C133.045 38.136 130.957 40.3763 127.646 40.3763C124.337 40.3763 122.249 38.136 122.249 34.5454ZM130.665 34.5454C130.665 32.0884 129.539 30.6387 127.646 30.6387C125.753 30.6387 124.629 32.0995 124.629 34.5454C124.629 37.0115 125.753 38.4503 127.646 38.4503C129.539 38.4503 130.665 37.0115 130.665 34.5454H130.665Z" fill="white"/>
<path d="M134.971 28.854H137.199V30.791H137.253C137.404 30.1861 137.758 29.6514 138.257 29.277C138.755 28.9025 139.368 28.7111 139.991 28.7349C140.26 28.7339 140.528 28.7632 140.791 28.822V31.0071C140.451 30.9032 140.097 30.8555 139.741 30.8659C139.402 30.8522 139.064 30.912 138.75 31.0414C138.436 31.1708 138.153 31.3666 137.922 31.6154C137.691 31.8642 137.516 32.1602 137.41 32.4829C137.304 32.8056 137.269 33.1474 137.307 33.4849V40.2352H134.971L134.971 28.854Z" fill="white"/>
<path d="M151.56 36.8925C151.246 38.9585 149.234 40.3763 146.66 40.3763C143.349 40.3763 141.294 38.1581 141.294 34.5994C141.294 31.029 143.36 28.7139 146.562 28.7139C149.71 28.7139 151.691 30.8768 151.691 34.3281V35.1285H143.652V35.2696C143.615 35.6885 143.668 36.1104 143.806 36.5074C143.945 36.9045 144.166 37.2675 144.456 37.5723C144.745 37.8772 145.096 38.117 145.486 38.2758C145.875 38.4346 146.294 38.5087 146.714 38.4932C147.266 38.5449 147.82 38.4171 148.294 38.1287C148.767 37.8403 149.135 37.4067 149.342 36.8925L151.56 36.8925ZM143.664 33.4958H149.353C149.374 33.1192 149.317 32.7422 149.186 32.3887C149.054 32.0351 148.851 31.7126 148.589 31.4413C148.327 31.17 148.011 30.9559 147.662 30.8122C147.314 30.6686 146.939 30.5987 146.562 30.6067C146.181 30.6045 145.804 30.6776 145.452 30.8219C145.1 30.9662 144.78 31.1787 144.511 31.4474C144.241 31.716 144.028 32.0353 143.882 32.3868C143.737 32.7384 143.662 33.1153 143.664 33.4958V33.4958Z" fill="white"/>
<rect x="0.5" y="0.5" width="169" height="55" rx="2.5" stroke="white"/>
</svg>
