<svg width="170" height="56" viewBox="0 0 170 56" fill="none" xmlns="http://www.w3.org/2000/svg">
<path d="M127.509 38.6913H129.534V25.4772H127.509V38.6913ZM145.748 30.2372L143.427 35.9662H143.357L140.948 30.2372H138.767L142.38 38.2445L140.32 42.6985H142.433L148 30.2372H145.748ZM134.264 37.1905C133.6 37.1905 132.676 36.8676 132.676 36.0682C132.676 35.0483 133.828 34.6573 134.822 34.6573C135.713 34.6573 136.131 34.8443 136.673 35.0996C136.515 36.3234 135.433 37.1905 134.264 37.1905V37.1905ZM134.509 29.9482C133.043 29.9482 131.524 30.5774 130.896 31.9714L132.693 32.7022C133.077 31.9714 133.792 31.7332 134.543 31.7332C135.591 31.7332 136.655 32.3455 136.673 33.4335V33.5693C136.306 33.3653 135.521 33.0594 134.561 33.0594C132.624 33.0594 130.651 34.0961 130.651 36.0343C130.651 37.8024 132.239 38.9415 134.019 38.9415C135.381 38.9415 136.131 38.3465 136.603 37.6496H136.673V38.6695H138.627V33.6031C138.627 31.2575 136.83 29.9482 134.509 29.9482V29.9482ZM121.994 31.8458H119.114V27.3164H121.994C123.508 27.3164 124.367 28.5372 124.367 29.581C124.367 30.6051 123.508 31.8458 121.994 31.8458ZM121.942 25.4772H117.09V38.6913H119.114V33.685H121.942C124.186 33.685 126.392 32.1023 126.392 29.581C126.392 27.0599 124.186 25.4772 121.942 25.4772ZM95.4834 37.1929C94.0845 37.1929 92.9132 36.0521 92.9132 34.4851C92.9132 32.9017 94.0845 31.7435 95.4834 31.7435C96.8646 31.7435 97.9485 32.9017 97.9485 34.4851C97.9485 36.0521 96.8646 37.1929 95.4834 37.1929V37.1929ZM97.8086 30.9772H97.7386C97.2842 30.4494 96.4096 29.9726 95.3084 29.9726C93.0006 29.9726 90.8853 31.9478 90.8853 34.4851C90.8853 37.0055 93.0006 38.9639 95.3084 38.9639C96.4096 38.9639 97.2842 38.4869 97.7386 37.9423H97.8086V38.5893C97.8086 40.3096 96.8646 41.2291 95.3435 41.2291C94.1023 41.2291 93.333 40.3603 93.0179 39.6282L91.2524 40.3434C91.7594 41.5354 93.1057 43 95.3435 43C97.7212 43 99.7318 41.6374 99.7318 38.3168V30.2451H97.8086V30.9772ZM101.13 38.6913H103.158V25.4768H101.13V38.6913ZM106.148 34.332C106.096 32.5948 107.529 31.7096 108.561 31.7096C109.365 31.7096 110.047 32.101 110.274 32.6634L106.148 34.332ZM112.442 32.8335C112.058 31.8285 110.886 29.9726 108.491 29.9726C106.113 29.9726 104.138 31.7947 104.138 34.4682C104.138 36.9886 106.096 38.9639 108.718 38.9639C110.834 38.9639 112.058 37.7037 112.565 36.9716L110.991 35.9496C110.467 36.6991 109.75 37.1929 108.718 37.1929C107.686 37.1929 106.952 36.733 106.48 35.8307L112.651 33.3443L112.442 32.8335ZM63.2731 31.352V33.2592H67.9585C67.8186 34.332 67.4515 35.1152 66.8919 35.6602C66.2103 36.3246 65.1438 37.0567 63.2731 37.0567C60.3883 37.0567 58.1331 34.7919 58.1331 31.9821C58.1331 29.1723 60.3883 26.9072 63.2731 26.9072C64.8292 26.9072 65.9653 27.5034 66.8046 28.2697L68.1857 26.9245C67.0144 25.8344 65.4583 25 63.2731 25C59.3217 25 56 28.1335 56 31.9821C56 35.8307 59.3217 38.9639 63.2731 38.9639C65.4062 38.9639 67.0145 38.283 68.2731 37.0055C69.5669 35.7453 69.9691 33.9744 69.9691 32.5441C69.9691 32.101 69.9343 31.6927 69.864 31.352H63.2731ZM75.296 37.1929C73.8971 37.1929 72.6906 36.069 72.6906 34.4682C72.6906 32.8504 73.8971 31.7435 75.296 31.7435C76.6944 31.7435 77.9008 32.8504 77.9008 34.4682C77.9008 36.069 76.6944 37.1929 75.296 37.1929V37.1929ZM75.296 29.9726C72.7432 29.9726 70.6626 31.8627 70.6626 34.4682C70.6626 37.0567 72.7432 38.9639 75.296 38.9639C77.8483 38.9639 79.9289 37.0567 79.9289 34.4682C79.9289 31.8627 77.8483 29.9726 75.296 29.9726ZM85.4028 37.1929C84.0044 37.1929 82.7979 36.069 82.7979 34.4682C82.7979 32.8504 84.0044 31.7435 85.4028 31.7435C86.8013 31.7435 88.0077 32.8504 88.0077 34.4682C88.0077 36.069 86.8013 37.1929 85.4028 37.1929ZM85.4028 29.9726C82.8501 29.9726 80.7699 31.8627 80.7699 34.4682C80.7699 37.0567 82.8501 38.9639 85.4028 38.9639C87.9552 38.9639 90.0358 37.0567 90.0358 34.4682C90.0358 31.8627 87.9552 29.9726 85.4028 29.9726Z" fill="white"/>
<path fill-rule="evenodd" clip-rule="evenodd" d="M67.5541 19.882C67.2948 19.9607 67.0289 20 66.7571 20C66.2599 20 65.7737 19.8372 65.3071 19.519C64.8324 19.1968 64.5186 18.7373 64.3746 18.1586L64.3517 18.0672L64.4396 18.0322L65.3202 17.6775L65.3509 17.7975C65.4375 18.1345 65.6099 18.4131 65.8766 18.6447H65.8761C66.1436 18.8746 66.4302 18.9846 66.7571 18.9855C67.1028 18.985 67.3886 18.8967 67.6268 18.7212C67.8591 18.5475 67.9669 18.3311 67.9691 18.0326C67.9669 17.6948 67.8557 17.4577 67.6251 17.2797C67.3855 17.0967 66.9861 16.9158 66.4344 16.7484H66.4337C65.8459 16.5641 65.3933 16.3235 65.0787 16.0199C64.7598 15.7139 64.5976 15.312 64.5989 14.8406C64.5976 14.3456 64.8005 13.9063 65.1895 13.5466C65.5814 13.1814 66.0965 12.9991 66.7113 13C67.282 12.9996 67.7588 13.1433 68.1274 13.4362C68.4854 13.7212 68.7265 14.0391 68.8374 14.3913L68.867 14.4855L68.7754 14.5235L67.8964 14.888L67.8646 14.7687C67.8165 14.5907 67.6981 14.4187 67.4951 14.253L67.4964 14.2543L67.4951 14.2534C67.302 14.0966 67.0523 14.0154 66.7295 14.015C66.4277 14.0154 66.1806 14.0966 65.9733 14.2589L65.9729 14.2593C65.7661 14.4234 65.6744 14.6064 65.6727 14.8406C65.6744 15.0503 65.7576 15.216 65.9461 15.3681H65.9457C66.1402 15.522 66.4379 15.6687 66.8366 15.7985H66.8362C67.1601 15.9025 67.4323 16.0026 67.6544 16.1024H67.6539C67.8777 16.2022 68.1023 16.335 68.3286 16.4989L68.3282 16.4985C68.5639 16.6685 68.744 16.8841 68.8641 17.1389C68.9842 17.3948 69.0432 17.6877 69.0429 18.0144C69.0432 18.3437 68.975 18.6435 68.8352 18.9081C68.6977 19.171 68.5108 19.382 68.2798 19.537V19.5375C68.0557 19.688 67.814 19.8034 67.5541 19.882ZM57.0552 18.8409V14.1596H58.1036C58.836 14.1609 59.3991 14.3684 59.8169 14.7772V14.7767C60.2335 15.1868 60.444 15.752 60.4449 16.5002C60.444 17.2544 60.233 17.8217 59.8172 18.2275C59.3991 18.6342 58.8364 18.8396 58.1036 18.8409H57.0552ZM58.1036 19.855H56.1087H56V13.1454H58.1036C59.1269 13.1446 59.9625 13.4553 60.5863 14.0801C61.2083 14.7015 61.52 15.5165 61.5192 16.5002C61.52 17.483 61.2083 18.2989 60.5859 18.9207C59.9625 19.5452 59.1269 19.8558 58.1036 19.855ZM63.4239 19.855H62.5862H62.4775V13.1454H62.5862H63.5326V19.855H63.4239ZM71.0835 16.2102V14.1596H72.3777C72.7064 14.1613 72.9515 14.2653 73.1442 14.4778C73.3416 14.6982 73.4342 14.9286 73.4351 15.1856C73.4342 15.4426 73.3416 15.6721 73.1442 15.8932C72.9515 16.1054 72.7069 16.209 72.3777 16.2102H71.0835ZM71.0835 17.2252V19.7468V19.855H70.9748H70.0284V13.1454H72.3599C72.9361 13.1446 73.446 13.339 73.8673 13.722C74.2931 14.1054 74.5101 14.603 74.5089 15.1856C74.5101 15.7676 74.2931 16.2647 73.8673 16.6477C73.446 17.0311 72.9361 17.226 72.3599 17.2252H71.0835ZM76.7037 18.288L76.7035 18.2882C77.1688 18.7551 77.7251 18.9842 78.3979 18.9855C79.0709 18.9842 79.628 18.7551 80.0922 18.288C80.5546 17.8208 80.7851 17.2332 80.786 16.5002C80.7851 15.7673 80.5546 15.1796 80.0922 14.7125C79.628 14.2454 79.0709 14.0163 78.3979 14.015C77.725 14.0163 77.1686 14.2454 76.7033 14.7125H76.7037C76.2426 15.1796 76.0121 15.7673 76.0112 16.5002C76.0121 17.2332 76.2426 17.8208 76.7037 18.288ZM80.8675 18.9829C81.5269 18.3091 81.8598 17.4733 81.859 16.5002C81.8598 15.5326 81.5256 14.6986 80.8633 14.0218C80.2009 13.3424 79.3711 12.9988 78.3979 13C77.4196 12.9988 76.5878 13.3408 75.9292 14.0176V14.0171C75.269 14.6913 74.9369 15.5271 74.9382 16.5002C74.9369 17.4733 75.269 18.3091 75.9292 18.9833V18.9829C76.5878 19.6597 77.4196 20.0009 78.3979 20C79.3762 20.0009 80.208 19.6597 80.8675 18.9829ZM84.0067 13.1454L87.034 17.9691L87.0074 17.0548V13.1454H87.1161H88.0638V19.855H87.9551H87.0197L83.8461 14.7869L83.8724 15.7008V19.855H83.7637H82.9264H82.8177V13.1454H82.9264H84.0067ZM90.2858 19.855H89.4485H89.3398V13.1454H89.4485H90.3945V19.855H90.2858ZM92.7261 18.8409V16.9255H94.2658C94.5766 16.9267 94.8109 17.0249 94.9969 17.2222H94.9973C95.1893 17.4285 95.2771 17.6412 95.278 17.8783C95.2771 18.1171 95.1909 18.3328 95.0054 18.5407H95.0049C94.8233 18.742 94.5995 18.8391 94.3026 18.8409H92.7261ZM92.7261 15.9291V14.1596H94.1757C94.4547 14.1613 94.6614 14.25 94.8271 14.4323L94.8279 14.433L94.8271 14.4327C94.9978 14.6221 95.0768 14.8199 95.0771 15.0401C95.0768 15.2595 94.9956 15.4582 94.819 15.6513V15.6518C94.6479 15.8374 94.4313 15.9278 94.1384 15.9291H92.7261ZM95.361 16.3806C95.5664 16.2585 95.7385 16.0972 95.8729 15.8986L95.8725 15.8991C96.0465 15.6451 96.1336 15.3487 96.1331 15.0219C96.1349 14.488 95.9319 14.0298 95.537 13.6764C95.1455 13.3242 94.673 13.1446 94.1384 13.1454H91.671V19.855H91.7797H94.2658C94.8245 19.8558 95.3183 19.6689 95.7281 19.3008C96.1409 18.9334 96.3536 18.4553 96.3523 17.8969C96.3527 17.5254 96.2398 17.1897 96.0193 16.9056V16.9052C95.8414 16.6765 95.6205 16.5001 95.361 16.3806ZM101.143 19.855H97.3731H97.2644V13.1454H97.3731H98.3191V18.8409H101.143V18.9491V19.855ZM106.008 13.2537V14.0513V14.1596H103.038V16.0019H105.716V16.1101V16.9986H103.038V18.8409H106.008V18.9491V19.855H101.983V13.1454H106.008V13.2537ZM111.76 19.882C111.502 19.9607 111.235 20 110.963 20C110.467 20 109.98 19.8372 109.513 19.519C109.039 19.1968 108.725 18.7373 108.581 18.1586L108.558 18.0672L108.646 18.0322L109.526 17.6775L109.557 17.7975C109.644 18.1345 109.817 18.4131 110.083 18.6447C110.35 18.8746 110.637 18.9846 110.963 18.9855C111.309 18.985 111.595 18.8967 111.833 18.7212C112.066 18.5475 112.173 18.3311 112.175 18.0326C112.173 17.6948 112.062 17.4577 111.832 17.2797C111.592 17.0967 111.193 16.9158 110.641 16.7484C110.053 16.5641 109.599 16.3235 109.285 16.0199C108.967 15.7139 108.804 15.312 108.805 14.8406C108.804 14.3456 109.007 13.9063 109.396 13.5466C109.787 13.1814 110.303 12.9991 110.918 13C111.488 12.9996 111.966 13.1433 112.334 13.4362C112.692 13.7212 112.933 14.0391 113.044 14.3913L113.073 14.4855L112.982 14.5235L112.103 14.888L112.071 14.7687C112.023 14.5907 111.905 14.4187 111.702 14.253V14.2534C111.508 14.0966 111.259 14.0154 110.936 14.015C110.634 14.0154 110.387 14.0966 110.18 14.2589V14.2593C109.973 14.4234 109.881 14.6064 109.88 14.8406C109.881 15.0503 109.964 15.216 110.153 15.3681C110.347 15.522 110.644 15.6687 111.043 15.7985C111.367 15.9025 111.638 16.0026 111.86 16.1024C112.084 16.2022 112.309 16.335 112.535 16.4989L112.533 16.4973L112.535 16.4985C112.771 16.6685 112.951 16.8841 113.07 17.1389C113.191 17.3948 113.249 17.6877 113.249 18.0144C113.249 18.3437 113.181 18.6435 113.042 18.9081C112.904 19.171 112.717 19.382 112.486 19.537V19.5375C112.262 19.688 112.02 19.8034 111.76 19.882ZM118.453 19.2619C117.997 19.7552 117.374 20.0009 116.612 20C115.87 20.0009 115.253 19.7523 114.786 19.2585C114.32 18.766 114.088 18.1163 114.089 17.3347V13.1454H114.197H115.143V17.371C115.144 17.8665 115.272 18.2524 115.523 18.5484C115.77 18.8375 116.121 18.9842 116.612 18.9855C117.1 18.9842 117.451 18.8375 117.697 18.5484C117.949 18.2524 118.077 17.8665 118.078 17.371V13.1454H118.187H119.133V17.3347C119.134 18.1218 118.908 18.7719 118.453 19.2619ZM121.319 16.2288V14.1596H122.614C122.942 14.1613 123.187 14.2653 123.38 14.4778C123.577 14.6982 123.671 14.9286 123.671 15.1856C123.669 15.492 123.565 15.7309 123.347 15.9303C123.125 16.1303 122.869 16.2279 122.559 16.2288H121.319ZM123.226 17.1209C123.637 17.0118 123.989 16.7886 124.272 16.4571V16.4575C124.586 16.0922 124.746 15.6624 124.745 15.1856C124.747 14.603 124.529 14.1054 124.103 13.722C123.681 13.339 123.172 13.1446 122.596 13.1454H120.264V19.855H120.373H121.211H121.319V17.2252H122.082L123.84 19.855H124.891H125V19.7108V19.677L123.226 17.1209Z" fill="white"/>
<path d="M20 14V42L34 28L20 14Z" fill="url(#paint0_linear)"/>
<path d="M20 14V42L34 28L20 14Z" fill="url(#paint1_linear)"/>
<path d="M44.4845 27.0452L39.2 24L35 28L39.2 32L44.4845 28.7484C44.7938 28.5935 45 28.2323 45 27.871C45 27.5097 44.7938 27.2 44.4845 27.0452Z" fill="url(#paint2_linear)"/>
<path d="M44.4845 27.0452L39.2 24L35 28L39.2 32L44.4845 28.7484C44.7938 28.5935 45 28.2323 45 27.871C45 27.5097 44.7938 27.2 44.4845 27.0452Z" fill="url(#paint3_linear)"/>
<path d="M21 42L38.6 32.45L34.5 28.5L21 42Z" fill="url(#paint4_linear)"/>
<path d="M21 42L38.6 32.45L34.5 28.5L21 42Z" fill="url(#paint5_linear)"/>
<path d="M38.6 23.55L33.05 20.3L21 14L34.5 27.5L38.6 23.55Z" fill="url(#paint6_linear)"/>
<path d="M38.6 23.55L33.05 20.3L21 14L34.5 27.5L38.6 23.55Z" fill="url(#paint7_linear)"/>
<rect x="0.5" y="0.5" width="169" height="55" rx="2.5" stroke="white"/>
<defs>
<linearGradient id="paint0_linear" x1="27" y1="23.5" x2="20" y2="32" gradientUnits="userSpaceOnUse">
<stop stop-color="#00E2FF"/>
<stop offset="1" stop-color="#03C6F5"/>
</linearGradient>
<linearGradient id="paint1_linear" x1="32.8101" y1="40.7588" x2="13.8625" y2="22.5978" gradientUnits="userSpaceOnUse">
<stop stop-color="#00A0FF"/>
<stop offset="0.00657445" stop-color="#00A1FF"/>
<stop offset="0.2601" stop-color="#00BEFF"/>
<stop offset="0.5122" stop-color="#00D2FF"/>
<stop offset="0.7604" stop-color="#00DFFF"/>
<stop offset="1" stop-color="#00E3FF"/>
</linearGradient>
<linearGradient id="paint2_linear" x1="40" y1="24" x2="29.5" y2="24" gradientUnits="userSpaceOnUse">
<stop stop-color="#FFEA0D"/>
<stop offset="1" stop-color="#FFCF00"/>
</linearGradient>
<linearGradient id="paint3_linear" x1="45.759" y1="28.0695" x2="21.9536" y2="28.0695" gradientUnits="userSpaceOnUse">
<stop stop-color="#FFE000"/>
<stop offset="0.4087" stop-color="#FFBD00"/>
<stop offset="0.7754" stop-color="#FFA500"/>
<stop offset="1" stop-color="#FF9C00"/>
</linearGradient>
<linearGradient id="paint4_linear" x1="30" y1="28" x2="18.5" y2="39.5" gradientUnits="userSpaceOnUse">
<stop stop-color="#F73547"/>
<stop offset="1" stop-color="#E22652"/>
</linearGradient>
<linearGradient id="paint5_linear" x1="36.2636" y1="39.5906" x2="12.375" y2="15.4439" gradientUnits="userSpaceOnUse">
<stop stop-color="#FF3A44"/>
<stop offset="1" stop-color="#C31162"/>
</linearGradient>
<linearGradient id="paint6_linear" x1="36" y1="23.5" x2="21" y2="14" gradientUnits="userSpaceOnUse">
<stop stop-color="#2EF38F"/>
<stop offset="1" stop-color="#0EDE76"/>
</linearGradient>
<linearGradient id="paint7_linear" x1="17.598" y1="34.8109" x2="28.2656" y2="24.0452" gradientUnits="userSpaceOnUse">
<stop stop-color="#32A071"/>
<stop offset="0.0685" stop-color="#2DA771"/>
<stop offset="0.4762" stop-color="#15CF74"/>
<stop offset="0.8009" stop-color="#06E775"/>
<stop offset="1" stop-color="#00F076"/>
</linearGradient>
</defs>
</svg>
