<svg aria-hidden="true" style="position: absolute; width: 0; height: 0; overflow: hidden;" version="1.1" xmlns="http://www.w3.org/2000/svg" xmlns:xlink="http://www.w3.org/1999/xlink">
<defs>
<symbol id="communityIconsblogs" viewBox="0 0 16 16">
<path d="M12 12h-8v-8h4.52l2-2h-7.52c-0.552 0-1 0.448-1 1v0 10c0 0.552 0.448 1 1 1v0h10c0.552 0 1-0.448 1-1v0-7.53l-2 2z"></path>
<path d="M6 8.5v1.5h1.5l3.5-3.5v-1.5h-1.5l-3.5 3.5z"></path>
<path d="M12.5 2l-1.5 1.5v1.5h1.5l1.5-1.5v-1.5h-1.5z"></path>
</symbol>
<symbol id="communityIconsgroup" viewBox="0 0 16 16">
<path d="M13 10.51v-1.51c0.44-0.213 0.787-0.56 0.995-0.987l0.005-0.013v-3c-0.261-1.038-1.104-1.824-2.154-1.998l-0.016-0.002h-0.67c-0.249 0.014-0.477 0.087-0.677 0.204l0.007-0.004v4.3c-0.042 0.57-0.417 1.043-0.93 1.227l-0.010 0.003c0.12 0.125 0.272 0.219 0.443 0.268l0.007 0.002v1c1.12 0.51 3.5 2 3.5 2.57v1.43h2.5v-1c0-0.84-3-2.49-3-2.49z"></path>
<path d="M9 10v-1.5c0.459-0.185 0.815-0.541 0.996-0.988l0.004-0.012v-3c0-1-1-2.5-2-2.5h-2c-1 0-2 1.5-2 2.5v3c0.185 0.459 0.541 0.815 0.988 0.996l0.012 0.004v1.5s-4 2-4 3v1h12v-1c0-1-4-3-4-3z"></path>
</symbol>
<symbol id="communityIconspin" viewBox="0 0 16 16">
<path d="M13.22 6.18l-0.7-0.71-1.4 1.41-3.55-3.55 0.7-0.71-0.65-0.65-1.77 1.77-3.16 3.17-0.7 0.71 0.65 0.65 0.71-0.71 3.54 3.56-1.41 1.41 0.71 0.7 1.4-1.41 1.49-1.49 2.67 2.67h1.25v-1.25l-2.67-2.67 2.89-2.9z"></path>
</symbol>
<symbol id="communityIconswiki" viewBox="0 0 16 16">
<path d="M12.17 3v0.25c0.028-0.002 0.060-0.004 0.093-0.004 0.232 0 0.448 0.065 0.633 0.177l-0.005-0.003c0.117 0.1 0.19 0.247 0.19 0.411 0 0.007-0 0.013-0 0.019l0-0.001c-0.001 0.146-0.019 0.287-0.053 0.422l0.003-0.012c-0.099 0.34-0.197 0.616-0.31 0.884l0.020-0.054-1.5 3.91-1.66-4.31c-0.127-0.287-0.231-0.622-0.296-0.971l-0.004-0.029c-0-0.001-0-0.002-0-0.003 0-0.093 0.030-0.178 0.081-0.248l-0.001 0.001c0.054-0.075 0.129-0.131 0.217-0.159l0.003-0.001c0.176-0.045 0.377-0.071 0.585-0.071 0.030 0 0.060 0.001 0.089 0.002l-0.004-0v-0.21h-4.43v0.25c0.025-0.002 0.055-0.002 0.084-0.002 0.201 0 0.392 0.041 0.565 0.116l-0.009-0.004c0.164 0.090 0.296 0.219 0.387 0.375l0.003 0.005c0.168 0.297 0.33 0.646 0.464 1.010l0.016 0.050 0.38 1-1.44 3.45-1.79-4.44c-0.151-0.313-0.266-0.676-0.327-1.057l-0.003-0.023c-0-0.001-0-0.003-0-0.005 0-0.132 0.062-0.249 0.159-0.324l0.001-0.001c0.158-0.090 0.347-0.144 0.549-0.144 0.032 0 0.064 0.001 0.095 0.004l-0.004-0v-0.26h-3.95v0.25c0.243 0.004 0.46 0.111 0.609 0.279l0.001 0.001c0.233 0.387 0.449 0.835 0.622 1.305l0.018 0.055 3 7.46h0.25l2.5-5.89 2.26 5.89h0.26l2.86-7.54q0.38-1 0.42-1c0.074-0.15 0.179-0.274 0.307-0.368l0.003-0.002c0.122-0.081 0.269-0.132 0.428-0.14l0.002-0v-0.3z"></path>
</symbol>
<symbol id="communityIconsbookmark" viewBox="0 0 16 16">
<path d="M 4.03 1.99 h 7.98 v 2 h -7.98 v -2 Z" />
<path d="M 4 14 l 4 -3 l 4 3 l 0.01 -9 h -7.98 l -0.03 9 Z" />
</symbol>
<symbol id="communityIconsforum" viewBox="0 0 16 16">
<path d="M14 2h-12c-0.552 0-1 0.448-1 1v0 8c0 0.552 0.448 1 1 1v0h2v3l4-3h6c0.552 0 1-0.448 1-1v0-8c0-0.552-0.448-1-1-1v0zM4 7h2v2h-2zM9 9h-2v-2h2zM12 9h-2v-2h2z"></path>
</symbol>
</defs>
</svg>
