<svg aria-hidden="true" style="position: absolute; width: 0; height: 0; overflow: hidden;" version="1.1" xmlns="http://www.w3.org/2000/svg" xmlns:xlink="http://www.w3.org/1999/xlink">
<defs>
<symbol id="crmIconscalendar" viewBox="0 0 16 16">
<path d="M14 2h-2v-1h-1v1h-6v-1h-1v1h-2c-0.020-0.002-0.044-0.003-0.068-0.003-0.116 0-0.227 0.023-0.328 0.065l0.006-0.002c-0.131 0.051-0.244 0.122-0.341 0.211l0.001-0.001c-0.088 0.096-0.159 0.209-0.207 0.333l-0.003 0.007c-0.040 0.095-0.063 0.206-0.063 0.322 0 0.024 0.001 0.047 0.003 0.071l-0-0.003v11c-0.002 0.020-0.003 0.044-0.003 0.068 0 0.116 0.023 0.227 0.065 0.328l-0.002-0.006c0.051 0.131 0.122 0.244 0.211 0.341l-0.001-0.001c0.096 0.088 0.209 0.159 0.333 0.207l0.007 0.003c0.095 0.040 0.206 0.063 0.322 0.063 0.024 0 0.047-0.001 0.071-0.003l-0.003 0h12c0.020 0.002 0.044 0.003 0.068 0.003 0.116 0 0.227-0.023 0.328-0.065l-0.006 0.002c0.26-0.089 0.461-0.29 0.548-0.544l0.002-0.006c0.040-0.095 0.063-0.206 0.063-0.322 0-0.024-0.001-0.047-0.003-0.071l0 0.003v-11c0.002-0.020 0.003-0.044 0.003-0.068 0-0.116-0.023-0.227-0.065-0.328l0.002 0.006c-0.051-0.131-0.122-0.244-0.211-0.341l0.001 0.001c-0.096-0.088-0.209-0.159-0.333-0.207l-0.007-0.003c-0.095-0.040-0.206-0.063-0.322-0.063-0.024 0-0.047 0.001-0.071 0.003l0.003-0zM14 14h-12v-9h12z"></path>
<path d="M6 7h-2v2h2z"></path>
<path d="M9 7h-2v2h2z"></path>
<path d="M12 7h-2v2h2z"></path>
<path d="M6 10h-2v2h2z"></path>
<path d="M9 10h-2v2h2z"></path>
<path d="M12 10h-2v2h2z"></path>
</symbol>
<symbol id="crmIconscase" viewBox="0 0 16 16">
<path d="M9 9h-2v-1h-5v4c0 0.552 0.448 1 1 1v0h10c0.552 0 1-0.448 1-1v0-4h-5z"></path>
<path d="M13 4h-1v-1c0-0.552-0.448-1-1-1v0h-6c-0.552 0-1 0.448-1 1v0 1h-1c-0.552 0-1 0.448-1 1v0 2h12v-2c0-0.552-0.448-1-1-1v0zM11 4h-6v-1h6z"></path>
</symbol>
<symbol id="crmIconsdocuments" viewBox="0 0 16 16">
<path d="M10 2h-7c-0.552 0-1 0.448-1 1v0 10c0 0.552 0.448 1 1 1v0h10c0.552 0 1-0.448 1-1v0-7zM4 4h5v1h-5zM4 6h5v1h-5zM12 11h-8v-1h8zM12 9h-8v-1h8z"></path>
</symbol>
<symbol id="crmIconsgroup" viewBox="0 0 16 16">
<path d="M13 10.51v-1.51c0.44-0.213 0.787-0.56 0.995-0.987l0.005-0.013v-3c-0.261-1.038-1.104-1.824-2.154-1.998l-0.016-0.002h-0.67c-0.249 0.014-0.477 0.087-0.677 0.204l0.007-0.004v4.3c-0.042 0.57-0.417 1.043-0.93 1.227l-0.010 0.003c0.12 0.125 0.272 0.219 0.443 0.268l0.007 0.002v1c1.12 0.51 3.5 2 3.5 2.57v1.43h2.5v-1c0-0.84-3-2.49-3-2.49z"></path>
<path d="M9 10v-1.5c0.459-0.185 0.815-0.541 0.996-0.988l0.004-0.012v-3c0-1-1-2.5-2-2.5h-2c-1 0-2 1.5-2 2.5v3c0.185 0.459 0.541 0.815 0.988 0.996l0.012 0.004v1.5s-4 2-4 3v1h12v-1c0-1-4-3-4-3z"></path>
</symbol>
<symbol id="crmIconsstatistic" viewBox="0 0 16 16">
<path d="M2 9.010h3v4h-3v-4z"></path>
<path d="M10 3.010h3v10h-3v-10z"></path>
<path d="M6 7.010h3v6h-3v-6z"></path>
</symbol>
<symbol id="crmIconstasks" viewBox="0 0 16 16">
<path d="M6.22 7l-1.42 1.42 2.59 2.59 0.020-0.010 0.010 0.010 6.59-6.59-1.42-1.42-5.18 5.19-1.19-1.19z"></path>
<path d="M12 12h-8v-8h5.52l2-2h-8.52c-0.552 0-1 0.448-1 1v0 10c0 0.552 0.448 1 1 1v0h10c0.552 0 1-0.448 1-1v0-6.53l-2 2z"></path>
</symbol>
<symbol id="crmIconscalls" viewBox="0 0 16 16">
<path d="M11.93 10.18l-2 1s-0.57-0.060-2.3-1.79-1.83-2.28-1.83-2.28l1-2-2.020-3.11h-1s-5.1 2.060 2 9.2 9.2 2 9.2 2v-1z"></path>
</symbol>
</defs>
</svg>
