<svg aria-hidden="true" style="position: absolute; width: 0; height: 0; overflow: hidden;" version="1.1" xmlns="http://www.w3.org/2000/svg" xmlns:xlink="http://www.w3.org/1999/xlink">
<defs>
<symbol id="documentsIconscase" viewBox="0 0 16 16">
<path d="M9 9h-2v-1h-5v4c0 0.552 0.448 1 1 1v0h10c0.552 0 1-0.448 1-1v0-4h-5z"></path>
<path d="M13 4h-1v-1c0-0.552-0.448-1-1-1v0h-6c-0.552 0-1 0.448-1 1v0 1h-1c-0.552 0-1 0.448-1 1v0 2h12v-2c0-0.552-0.448-1-1-1v0zM11 4h-6v-1h6z"></path>
</symbol>
<symbol id="documentsIconsfeed" viewBox="0 0 16 16">
<path d="M13 5v-3c-6.075 0-11 4.925-11 11v0h3c0-4.418 3.582-8 8-8v0z"></path>
<path d="M13 7c-3.314 0-6 2.686-6 6v0h6z"></path>
</symbol>
<symbol id="documentsIconshelp" viewBox="0 0 16 16">
<path d="M6.010 11.010h2.98v2.99h-2.98v-2.99z"></path>
<path d="M11 1.91c-0.802-0.573-1.803-0.916-2.884-0.916-0.083 0-0.166 0.002-0.248 0.006l0.012-0c-1.714 0.005-3.313 0.496-4.667 1.342l0.037-0.022 1.31 2.54c0.894-0.566 1.968-0.929 3.121-0.999l0.019-0.001c0.018-0.001 0.040-0.001 0.062-0.001 0.306 0 0.592 0.086 0.835 0.235l-0.007-0.004c0.234 0.116 0.396 0.348 0.41 0.618l0 0.002c0 0.012 0.001 0.025 0.001 0.039 0 0.317-0.114 0.608-0.302 0.833l0.002-0.002c-0.289 0.33-0.618 0.614-0.982 0.849l-0.018 0.011c-0.536 0.3-0.977 0.712-1.301 1.206l-0.009 0.014c-0.205 0.395-0.325 0.863-0.325 1.359 0 0.064 0.002 0.127 0.006 0.19l-0-0.009v0.8h2.77v-0.47c-0.001-0.018-0.002-0.040-0.002-0.062 0-0.239 0.084-0.458 0.223-0.63l-0.001 0.002c0.34-0.349 0.721-0.656 1.134-0.915l0.026-0.015c0.64-0.404 1.169-0.926 1.568-1.54l0.012-0.020c0.294-0.508 0.467-1.118 0.467-1.769 0-0.081-0.003-0.162-0.008-0.242l0.001 0.011c-0.017-0.999-0.505-1.881-1.252-2.434l-0.008-0.006z"></path>
</symbol>
<symbol id="documentsIconspeople" viewBox="0 0 16 16">
<path d="M10 10v-1.5c0.459-0.185 0.815-0.541 0.996-0.988l0.004-0.012v-3c0-1-1-2.5-2-2.5h-2c-1 0-2 1.5-2 2.5v3c0.185 0.459 0.541 0.815 0.988 0.996l0.012 0.004v1.5s-4 2-4 3v1h12v-1c0-1-4-3-4-3z"></path>
</symbol>
<symbol id="documentsIconsprojects" viewBox="0 0 16 16">
<path d="M10.88 4.93c-0.224-1.002-1.029-1.767-2.036-1.928l-0.014-0.002h0.17v-2h-1v2h0.13c-1.233 0.156-2.176 1.199-2.176 2.461 0 0.766 0.347 1.45 0.893 1.905l0.004 0.003 5.15 6.63 2 1v-2zM8.5 6.5c-0.015 0.001-0.032 0.001-0.050 0.001-0.58 0-1.050-0.47-1.050-1.050s0.47-1.050 1.050-1.050c0.579 0 1.049 0.469 1.050 1.049v0c0.001 0.015 0.001 0.032 0.001 0.050 0 0.552-0.448 1-1 1-0 0-0.001 0-0.001 0h0z"></path>
<path d="M3 13.050l0.020 1.94 1.96-1.010 2.99-3.57-2.46-3.69-2.51 6.33z"></path>
</symbol>
<symbol id="documentsIconssettings" viewBox="0 0 16 16">
<path d="M15 9v-2h-2.1c-0.136-0.664-0.39-1.251-0.741-1.767l0.011 0.017 1.49-1.49-1.42-1.42-1.49 1.49c-0.499-0.34-1.086-0.594-1.719-0.725l-0.031-0.005v-2.1h-2v2.1c-0.664 0.136-1.251 0.39-1.767 0.741l0.017-0.011-1.49-1.49-1.42 1.42 1.49 1.49c-0.34 0.499-0.594 1.086-0.725 1.719l-0.005 0.031h-2.1v2h2.1c0.136 0.664 0.39 1.251 0.741 1.767l-0.011-0.017-1.49 1.49 1.42 1.42 1.49-1.49c0.499 0.34 1.086 0.594 1.719 0.725l0.031 0.005v2.1h2v-2.1c0.664-0.136 1.251-0.39 1.767-0.741l-0.017 0.011 1.49 1.49 1.42-1.42-1.49-1.49c0.34-0.499 0.594-1.086 0.725-1.719l0.005-0.031zM8 11c-1.657 0-3-1.343-3-3s1.343-3 3-3c1.657 0 3 1.343 3 3v0c0 1.657-1.343 3-3 3v0z"></path>
</symbol>
<symbol id="documentsIconstalk" viewBox="0 0 16 16">
<path d="M14 2h-12c-0.552 0-1 0.448-1 1v0 8c0 0.552 0.448 1 1 1v0h2v3l4-3h6c0.552 0 1-0.448 1-1v0-8c0-0.552-0.448-1-1-1v0z"></path>
</symbol>
<symbol id="documentsIconstrash" viewBox="0 0 16 16">
<path d="M9 3v-1h-3v1h-4v1h11v-1h-4z"></path>
<path d="M3 13c0 0.552 0.448 1 1 1v0h7c0.552 0 1-0.448 1-1v0-8h-9zM10.25 6h0.5v7h-0.5zM8.25 6h0.5v7h-0.5zM6.25 6h0.5v7h-0.5zM4.25 6h0.5v7h-0.5z"></path>
</symbol>
<symbol id="documentsIconsupload" viewBox="0 0 16 16">
<rect x="2" y="12" width="12" height="2"/>
<path d="M6 6V11H10V6H14L8 0L2 6H6Z" />
</symbol>
</defs>
</svg>
