<svg aria-hidden="true" style="position: absolute; width: 0; height: 0; overflow: hidden;" version="1.1" xmlns="http://www.w3.org/2000/svg" xmlns:xlink="http://www.w3.org/1999/xlink">
<defs>
<symbol id="feedIconscommunity" viewBox="0 0 16 16">
<path d="M14 2h-12c-0.552 0-1 0.448-1 1v0 8c0 0.552 0.448 1 1 1v0h2v3l4-3h6c0.552 0 1-0.448 1-1v0-8c0-0.552-0.448-1-1-1v0zM13 10h-10v-6h10z"></path>
</symbol>
<symbol id="feedIconscrm" viewBox="0 0 16 16">
<path d="M12 7l-3 3v-6h-2v-2h-4v2h-1v10h13v-4l-3-3z"></path>
</symbol>
<symbol id="feedIconsdocuments" viewBox="0 0 16 16">
<path d="M10 2h-7c-0.552 0-1 0.448-1 1v0 10c0 0.552 0.448 1 1 1v0h10c0.552 0 1-0.448 1-1v0-7zM4 4h5v1h-5zM4 6h5v1h-5zM12 11h-8v-1h8zM12 9h-8v-1h8z"></path>
</symbol>
<symbol id="feedIconshome" viewBox="0 0 16 16">
<path d="M7.5 1.5l-6.5 6.5h2v6h9v-6h2zM9 11h-3v-3h3z"></path>
</symbol>
<symbol id="feedIconspeople" viewBox="0 0 16 16">
<path d="M10 10v-1.5c0.459-0.185 0.815-0.541 0.996-0.988l0.004-0.012v-3c0-1-1-2.5-2-2.5h-2c-1 0-2 1.5-2 2.5v3c0.185 0.459 0.541 0.815 0.988 0.996l0.012 0.004v1.5s-4 2-4 3v1h12v-1c0-1-4-3-4-3z"></path>
</symbol>
<symbol id="feedIconsprojects" viewBox="0 0 16 16">
<path d="M10.88 4.93c-0.224-1.002-1.029-1.767-2.036-1.928l-0.014-0.002h0.17v-2h-1v2h0.13c-1.233 0.156-2.176 1.199-2.176 2.461 0 0.766 0.347 1.45 0.893 1.905l0.004 0.003 5.15 6.63 2 1v-2zM8.5 6.5c-0.015 0.001-0.032 0.001-0.050 0.001-0.58 0-1.050-0.47-1.050-1.050s0.47-1.050 1.050-1.050c0.579 0 1.049 0.469 1.050 1.049v0c0.001 0.015 0.001 0.032 0.001 0.050 0 0.552-0.448 1-1 1-0 0-0.001 0-0.001 0h0z"></path>
<path d="M3 13.050l0.020 1.94 1.96-1.010 2.99-3.57-2.46-3.69-2.51 6.33z"></path>
</symbol>
<symbol id="feedIconsblogs" viewBox="0 0 16 16">
<path d="M12 12h-8v-8h4.52l2-2h-7.52c-0.552 0-1 0.448-1 1v0 10c0 0.552 0.448 1 1 1v0h10c0.552 0 1-0.448 1-1v0-7.53l-2 2z"></path>
<path d="M6 8.5v1.5h1.5l3.5-3.5v-1.5h-1.5l-3.5 3.5z"></path>
<path d="M12.5 2l-1.5 1.5v1.5h1.5l1.5-1.5v-1.5h-1.5z"></path>
</symbol>
<symbol id="feedIconsevents" viewBox="0 0 16 16">
<path d="M13.22 6.18l-0.7-0.71-1.4 1.41-3.55-3.55 0.7-0.71-0.65-0.65-1.77 1.77-3.16 3.17-0.7 0.71 0.65 0.65 0.71-0.71 3.54 3.56-1.41 1.41 0.71 0.7 1.4-1.41 1.49-1.49 2.67 2.67h1.25v-1.25l-2.67-2.67 2.89-2.9z"></path>
</symbol>
<symbol id="feedIconsforum" viewBox="0 0 16 16">
<path d="M14 2h-12c-0.552 0-1 0.448-1 1v0 8c0 0.552 0.448 1 1 1v0h2v3l4-3h6c0.552 0 1-0.448 1-1v0-8c0-0.552-0.448-1-1-1v0zM4 7h2v2h-2zM9 9h-2v-2h2zM12 9h-2v-2h2z"></path>
</symbol>
<symbol id="feedIconsbookmarks" viewBox="0 0 16 16">
<path d="M 4.03 1.99 h 7.98 v 2 h -7.98 v -2 Z" />
<path d="M 4 14 l 4 -3 l 4 3 l 0.01 -9 h -7.98 l -0.03 9 Z" />
</symbol>
<symbol id="feedIconsgroup" viewBox="0 0 16 16">
<path d="M13 10.51v-1.51c0.44-0.213 0.787-0.56 0.995-0.987l0.005-0.013v-3c-0.261-1.038-1.104-1.824-2.154-1.998l-0.016-0.002h-0.67c-0.249 0.014-0.477 0.087-0.677 0.204l0.007-0.004v4.3c-0.042 0.57-0.417 1.043-0.93 1.227l-0.010 0.003c0.12 0.125 0.272 0.219 0.443 0.268l0.007 0.002v1c1.12 0.51 3.5 2 3.5 2.57v1.43h2.5v-1c0-0.84-3-2.49-3-2.49z"></path>
<path d="M9 10v-1.5c0.459-0.185 0.815-0.541 0.996-0.988l0.004-0.012v-3c0-1-1-2.5-2-2.5h-2c-1 0-2 1.5-2 2.5v3c0.185 0.459 0.541 0.815 0.988 0.996l0.012 0.004v1.5s-4 2-4 3v1h12v-1c0-1-4-3-4-3z"></path>
</symbol>
<symbol id="feedIconstasks" viewBox="0 0 16 16">
<path d="M6.22 7l-1.42 1.42 2.59 2.59 0.020-0.010 0.010 0.010 6.59-6.59-1.42-1.42-5.18 5.19-1.19-1.19z"></path>
<path d="M12 12h-8v-8h5.52l2-2h-8.52c-0.552 0-1 0.448-1 1v0 10c0 0.552 0.448 1 1 1v0h10c0.552 0 1-0.448 1-1v0-6.53l-2 2z"></path>
</symbol>
<symbol id="feedIconsopportunities" viewBox="0 0 16 16">
<path d="M9 9h-2v-1h-5v4c0 0.552 0.448 1 1 1v0h10c0.552 0 1-0.448 1-1v0-4h-5z"></path>
<path d="M13 4h-1v-1c0-0.552-0.448-1-1-1v0h-6c-0.552 0-1 0.448-1 1v0 1h-1c-0.552 0-1 0.448-1 1v0 2h12v-2c0-0.552-0.448-1-1-1v0zM11 4h-6v-1h6z"></path>
</symbol>
<symbol id="feedIconscases" viewBox="0 0 16 16">
<path d="M14 2h-2v-1h-1v1h-6v-1h-1v1h-2c-0.020-0.002-0.044-0.003-0.068-0.003-0.116 0-0.227 0.023-0.328 0.065l0.006-0.002c-0.131 0.051-0.244 0.122-0.341 0.211l0.001-0.001c-0.088 0.096-0.159 0.209-0.207 0.333l-0.003 0.007c-0.040 0.095-0.063 0.206-0.063 0.322 0 0.024 0.001 0.047 0.003 0.071l-0-0.003v11c-0.002 0.020-0.003 0.044-0.003 0.068 0 0.116 0.023 0.227 0.065 0.328l-0.002-0.006c0.051 0.131 0.122 0.244 0.211 0.341l-0.001-0.001c0.096 0.088 0.209 0.159 0.333 0.207l0.007 0.003c0.095 0.040 0.206 0.063 0.322 0.063 0.024 0 0.047-0.001 0.071-0.003l-0.003 0h12c0.020 0.002 0.044 0.003 0.068 0.003 0.116 0 0.227-0.023 0.328-0.065l-0.006 0.002c0.26-0.089 0.461-0.29 0.548-0.544l0.002-0.006c0.040-0.095 0.063-0.206 0.063-0.322 0-0.024-0.001-0.047-0.003-0.071l0 0.003v-11c0.002-0.020 0.003-0.044 0.003-0.068 0-0.116-0.023-0.227-0.065-0.328l0.002 0.006c-0.051-0.131-0.122-0.244-0.211-0.341l0.001 0.001c-0.096-0.088-0.209-0.159-0.333-0.207l-0.007-0.003c-0.095-0.040-0.206-0.063-0.322-0.063-0.024 0-0.047 0.001-0.071 0.003l0.003-0zM14 14h-12v-9h12z"></path>
<path d="M6 7h-2v2h2z"></path>
<path d="M9 7h-2v2h2z"></path>
<path d="M12 7h-2v2h2z"></path>
<path d="M6 10h-2v2h2z"></path>
<path d="M9 10h-2v2h2z"></path>
<path d="M12 10h-2v2h2z"></path>
</symbol>
<symbol id="feedIconsmilestones" viewBox="0 0 16 16">
<path d="M6 12h-0.99v-1.97l9-4.040-9-3.99h-1.010v10h-1v1h-1v1h5v-1h-1v-1z"></path>
</symbol>
</defs>
</svg>
