<svg aria-hidden="true" style="position: absolute; width: 0; height: 0; overflow: hidden;" version="1.1" xmlns="http://www.w3.org/2000/svg" xmlns:xlink="http://www.w3.org/1999/xlink">
<defs>
<symbol id="feedIconscommunity" viewBox="0 0 16 16">
<path d="M14 2h-12c-0.552 0-1 0.448-1 1v0 8c0 0.552 0.448 1 1 1v0h2v3l4-3h6c0.552 0 1-0.448 1-1v0-8c0-0.552-0.448-1-1-1v0zM13 10h-10v-6h10z"></path>
</symbol>
<symbol id="feedIconscrm" viewBox="0 0 16 16">
<path d="M12 7l-3 3v-6h-2v-2h-4v2h-1v10h13v-4l-3-3z"></path>
</symbol>
<symbol id="feedIconsdocuments" viewBox="0 0 16 16">
<path d="M10 2h-7c-0.552 0-1 0.448-1 1v0 10c0 0.552 0.448 1 1 1v0h10c0.552 0 1-0.448 1-1v0-7zM4 4h5v1h-5zM4 6h5v1h-5zM12 11h-8v-1h8zM12 9h-8v-1h8z"></path>
</symbol>
<symbol id="feedIconshome" viewBox="0 0 16 16">
<path d="M7.5 1.5l-6.5 6.5h2v6h9v-6h2zM9 11h-3v-3h3z"></path>
</symbol>
<symbol id="feedIconspeople" viewBox="0 0 16 16">
<path d="M10 10v-1.5c0.459-0.185 0.815-0.541 0.996-0.988l0.004-0.012v-3c0-1-1-2.5-2-2.5h-2c-1 0-2 1.5-2 2.5v3c0.185 0.459 0.541 0.815 0.988 0.996l0.012 0.004v1.5s-4 2-4 3v1h12v-1c0-1-4-3-4-3z"></path>
</symbol>
<symbol id="feedIconsprojects" viewBox="0 0 16 16">
<path d="M10.88 4.93c-0.224-1.002-1.029-1.767-2.036-1.928l-0.014-0.002h0.17v-2h-1v2h0.13c-1.233 0.156-2.176 1.199-2.176 2.461 0 0.766 0.347 1.45 0.893 1.905l0.004 0.003 5.15 6.63 2 1v-2zM8.5 6.5c-0.015 0.001-0.032 0.001-0.050 0.001-0.58 0-1.050-0.47-1.050-1.050s0.47-1.050 1.050-1.050c0.579 0 1.049 0.469 1.050 1.049v0c0.001 0.015 0.001 0.032 0.001 0.050 0 0.552-0.448 1-1 1-0 0-0.001 0-0.001 0h0z"></path>
<path d="M3 13.050l0.020 1.94 1.96-1.010 2.99-3.57-2.46-3.69-2.51 6.33z"></path>
</symbol>
<symbol id="feedIconsblogs" viewBox="0 0 16 16">
<path d="M12 12h-8v-8h4.52l2-2h-7.52c-0.552 0-1 0.448-1 1v0 10c0 0.552 0.448 1 1 1v0h10c0.552 0 1-0.448 1-1v0-7.53l-2 2z"></path>
<path d="M6 8.5v1.5h1.5l3.5-3.5v-1.5h-1.5l-3.5 3.5z"></path>
<path d="M12.5 2l-1.5 1.5v1.5h1.5l1.5-1.5v-1.5h-1.5z"></path>
</symbol>
<symbol id="feedIconsevents" viewBox="0 0 16 16">
<path d="M13.22 6.18l-0.7-0.71-1.4 1.41-3.55-3.55 0.7-0.71-0.65-0.65-1.77 1.77-3.16 3.17-0.7 0.71 0.65 0.65 0.71-0.71 3.54 3.56-1.41 1.41 0.71 0.7 1.4-1.41 1.49-1.49 2.67 2.67h1.25v-1.25l-2.67-2.67 2.89-2.9z"></path>
</symbol>
<symbol id="feedIconsforum" viewBox="0 0 16 16">
<path d="M14 2h-12c-0.552 0-1 0.448-1 1v0 8c0 0.552 0.448 1 1 1v0h2v3l4-3h6c0.552 0 1-0.448 1-1v0-8c0-0.552-0.448-1-1-1v0zM4 7h2v2h-2zM9 9h-2v-2h2zM12 9h-2v-2h2z"></path>
</symbol>
<symbol id="feedIconsbookmarks" viewBox="0 0 16 16">
<path d="M 4.03 1.99 h 7.98 v 2 h -7.98 v -2 Z" />
<path d="M 4 14 l 4 -3 l 4 3 l 0.01 -9 h -7.98 l -0.03 9 Z" />
</symbol>
<symbol id="feedIconsgroup" viewBox="0 0 16 16">
<path d="M13 10.51v-1.51c0.44-0.213 0.787-0.56 0.995-0.987l0.005-0.013v-3c-0.261-1.038-1.104-1.824-2.154-1.998l-0.016-0.002h-0.67c-0.249 0.014-0.477 0.087-0.677 0.204l0.007-0.004v4.3c-0.042 0.57-0.417 1.043-0.93 1.227l-0.010 0.003c0.12 0.125 0.272 0.219 0.443 0.268l0.007 0.002v1c1.12 0.51 3.5 2 3.5 2.57v1.43h2.5v-1c0-0.84-3-2.49-3-2.49z"></path>
<path d="M9 10v-1.5c0.459-0.185 0.815-0.541 0.996-0.988l0.004-0.012v-3c0-1-1-2.5-2-2.5h-2c-1 0-2 1.5-2 2.5v3c0.185 0.459 0.541 0.815 0.988 0.996l0.012 0.004v1.5s-4 2-4 3v1h12v-1c0-1-4-3-4-3z"></path>
</symbol>
<symbol id="feedIconstasks" viewBox="0 0 16 16">
<path d="M6.22 7l-1.42 1.42 2.59 2.59 0.020-0.010 0.010 0.010 6.59-6.59-1.42-1.42-5.18 5.19-1.19-1.19z"></path>
<path d="M12 12h-8v-8h5.52l2-2h-8.52c-0.552 0-1 0.448-1 1v0 10c0 0.552 0.448 1 1 1v0h10c0.552 0 1-0.448 1-1v0-6.53l-2 2z"></path>
</symbol>
<symbol id="feedIconsopportunities" viewBox="0 0 16 16">
<path d="M9 9h-2v-1h-5v4c0 0.552 0.448 1 1 1v0h10c0.552 0 1-0.448 1-1v0-4h-5z"></path>
<path d="M13 4h-1v-1c0-0.552-0.448-1-1-1v0h-6c-0.552 0-1 0.448-1 1v0 1h-1c-0.552 0-1 0.448-1 1v0 2h12v-2c0-0.552-0.448-1-1-1v0zM11 4h-6v-1h6z"></path>
</symbol>
<symbol id="feedIconscases" viewBox="0 0 16 16">
<path d="M14 2h-2v-1h-1v1h-6v-1h-1v1h-2c-0.020-0.002-0.044-0.003-0.068-0.003-0.116 0-0.227 0.023-0.328 0.065l0.006-0.002c-0.131 0.051-0.244 0.122-0.341 0.211l0.001-0.001c-0.088 0.096-0.159 0.209-0.207 0.333l-0.003 0.007c-0.040 0.095-0.063 0.206-0.063 0.322 0 0.024 0.001 0.047 0.003 0.071l-0-0.003v11c-0.002 0.020-0.003 0.044-0.003 0.068 0 0.116 0.023 0.227 0.065 0.328l-0.002-0.006c0.051 0.131 0.122 0.244 0.211 0.341l-0.001-0.001c0.096 0.088 0.209 0.159 0.333 0.207l0.007 0.003c0.095 0.040 0.206 0.063 0.322 0.063 0.024 0 0.047-0.001 0.071-0.003l-0.003 0h12c0.020 0.002 0.044 0.003 0.068 0.003 0.116 0 0.227-0.023 0.328-0.065l-0.006 0.002c0.26-0.089 0.461-0.29 0.548-0.544l0.002-0.006c0.040-0.095 0.063-0.206 0.063-0.322 0-0.024-0.001-0.047-0.003-0.071l0 0.003v-11c0.002-0.020 0.003-0.044 0.003-0.068 0-0.116-0.023-0.227-0.065-0.328l0.002 0.006c-0.051-0.131-0.122-0.244-0.211-0.341l0.001 0.001c-0.096-0.088-0.209-0.159-0.333-0.207l-0.007-0.003c-0.095-0.040-0.206-0.063-0.322-0.063-0.024 0-0.047 0.001-0.071 0.003l0.003-0zM14 14h-12v-9h12z"></path>
<path d="M6 7h-2v2h2z"></path>
<path d="M9 7h-2v2h2z"></path>
<path d="M12 7h-2v2h2z"></path>
<path d="M6 10h-2v2h2z"></path>
<path d="M9 10h-2v2h2z"></path>
<path d="M12 10h-2v2h2z"></path>
</symbol>
<symbol id="feedIconsmilestones" viewBox="0 0 16 16">
<path d="M6 12h-0.99v-1.97l9-4.040-9-3.99h-1.010v10h-1v1h-1v1h5v-1h-1v-1z"></path>
</symbol>
<symbol id="feedIconsmessages" viewBox="0 0 16 16">
<path d="M14 2h-12c-0.552 0-1 0.448-1 1v0 8c0 0.552 0.448 1 1 1v0h2v3l4-3h6c0.552 0 1-0.448 1-1v0-8c0-0.552-0.448-1-1-1v0zM9 11h-2v-2h2zM9 8h-2v-5h2z"></path>
</symbol>
<symbol id="feedIconsdiscussions" viewBox="0 0 16 16">
<path d="M14 2h-12c-0.552 0-1 0.448-1 1v0 8c0 0.552 0.448 1 1 1v0h2v3l4-3h6c0.552 0 1-0.448 1-1v0-8c0-0.552-0.448-1-1-1v0zM9 11h-2v-2h2zM9 8h-2v-5h2z"></path>
</symbol>
<symbol id="feedIconsbirthdays" viewBox="-2 -1.5 16 16" preserveAspectRatio="xMidyMid slice">
  <path d="M0.947174 1.5C1.04808 2.00458 1.34961 2.00298 1.83701 2.00039C1.87273 2.0002 1.90945 2 1.94717 2C1.98488 2 2.02161 2.00019 2.05731 2.00038C2.54475 2.00294 2.84619 2.00452 2.9471 1.5C3.08517 0.809662 1.94717 0 1.94717 0C1.94717 0 0.809097 0.809647 0.947174 1.5Z" fill="#83888D"/>
  <path d="M1 3H3V5H5V3H7V5H9V3H11V5.26756C11.3804 5.48759 11.6815 5.82929 11.8503 6.23945L10.4472 6.94098L8.67085 6.05279C8.53009 5.9824 8.3644 5.9824 8.22363 6.05279L6.44724 6.94098L4.67085 6.05279C4.53009 5.9824 4.3644 5.9824 4.22363 6.05279L2.44724 6.94098L0.670853 6.05279C0.536514 5.98562 0.379471 5.98255 0.243073 6.04359C0.419281 5.72059 0.681961 5.45154 1 5.26756V3Z" fill="#83888D"/>
  <path d="M5.8371 2.00039C5.3497 2.00298 5.04808 2.00458 4.94717 1.5C4.8091 0.809647 5.94717 0 5.94717 0C5.94717 0 7.08517 0.809662 6.9471 1.5C6.84619 2.00452 6.54485 2.00294 6.05754 2.00038C6.02174 2.00019 5.985 2 5.94727 2C5.92973 2 5.9124 2.00005 5.89529 2.00011C5.87561 2.00018 5.85622 2.00029 5.8371 2.00039Z" fill="#83888D"/>
  <path d="M8.95889 1.5C9.0598 2.00452 9.35118 2.00298 9.83711 2.00039C9.87279 2.0002 9.9095 2 9.94727 2C9.98497 2 10.0217 2.00019 10.0576 2.00038C10.5463 2.00294 10.8579 2.00457 10.9588 1.5C11.0969 0.809662 9.95889 0 9.95889 0C9.95889 0 8.82082 0.809647 8.95889 1.5Z" fill="#83888D"/>
  <path d="M10.6709 7.94721L12 7.28263V9.1646L10.4472 9.94098L8.67085 9.05279C8.53009 8.9824 8.3644 8.9824 8.22363 9.05279L6.44724 9.94098L4.67085 9.05279C4.53009 8.9824 4.3644 8.9824 4.22363 9.05279L2.44724 9.94098L0.670853 9.05279C0.530075 8.9824 0.364395 8.9824 0.223633 9.05279L0 9.1646V7.28263L0.447235 7.05901L2.22363 7.94721C2.3644 8.01759 2.53008 8.01759 2.67085 7.94721L4.44724 7.05901L6.22363 7.94721C6.3644 8.01759 6.53009 8.01759 6.67085 7.94721L8.44724 7.05901L10.2236 7.94721C10.3644 8.01759 10.5301 8.01759 10.6709 7.94721Z" fill="#83888D"/>
  <path d="M10.6709 10.9472L12 10.2826V11C12 12.1046 11.1046 13 10 13H2C0.895432 13 0 12.1046 0 11V10.2826L0.447235 10.059L2.22363 10.9472C2.3644 11.0176 2.53008 11.0176 2.67085 10.9472L4.44724 10.059L6.22363 10.9472C6.3644 11.0176 6.53009 11.0176 6.67085 10.9472L8.44724 10.059L10.2236 10.9472C10.3644 11.0176 10.5301 11.0176 10.6709 10.9472Z" fill="#83888D"/>
</symbol>
<symbol id="feedIconsbirthdaysToday" viewBox="-2 -1.5 16 16" preserveAspectRatio="xMidyMid slice">
  <path d="M0.947174 1.5C1.04808 2.00458 1.34961 2.00298 1.83701 2.00039C1.87273 2.0002 1.90945 2 1.94717 2C1.98488 2 2.02161 2.00019 2.05731 2.00038C2.54475 2.00294 2.84619 2.00452 2.9471 1.5C3.08517 0.809662 1.94717 0 1.94717 0C1.94717 0 0.809097 0.809647 0.947174 1.5Z" fill="#EE831A"/>
  <path d="M1 3H3V5H5V3H7V5H9V3H11V5.26756C11.3804 5.48759 11.6815 5.82929 11.8503 6.23945L10.4472 6.94098L8.67085 6.05279C8.53009 5.9824 8.3644 5.9824 8.22363 6.05279L6.44724 6.94098L4.67085 6.05279C4.53009 5.9824 4.3644 5.9824 4.22363 6.05279L2.44724 6.94098L0.670853 6.05279C0.536514 5.98562 0.379471 5.98255 0.243073 6.04359C0.419281 5.72059 0.681961 5.45154 1 5.26756V3Z" fill="#EE831A"/>
  <path d="M5.8371 2.00039C5.3497 2.00298 5.04808 2.00458 4.94717 1.5C4.8091 0.809647 5.94717 0 5.94717 0C5.94717 0 7.08517 0.809662 6.9471 1.5C6.84619 2.00452 6.54485 2.00294 6.05754 2.00038C6.02174 2.00019 5.985 2 5.94727 2C5.92973 2 5.9124 2.00005 5.89529 2.00011C5.87561 2.00018 5.85622 2.00029 5.8371 2.00039Z" fill="#EE831A"/>
  <path d="M8.95889 1.5C9.0598 2.00452 9.35118 2.00298 9.83711 2.00039C9.87279 2.0002 9.9095 2 9.94727 2C9.98497 2 10.0217 2.00019 10.0576 2.00038C10.5463 2.00294 10.8579 2.00457 10.9588 1.5C11.0969 0.809662 9.95889 0 9.95889 0C9.95889 0 8.82082 0.809647 8.95889 1.5Z" fill="#EE831A"/>
  <path d="M10.6709 7.94721L12 7.28263V9.1646L10.4472 9.94098L8.67085 9.05279C8.53009 8.9824 8.3644 8.9824 8.22363 9.05279L6.44724 9.94098L4.67085 9.05279C4.53009 8.9824 4.3644 8.9824 4.22363 9.05279L2.44724 9.94098L0.670853 9.05279C0.530075 8.9824 0.364395 8.9824 0.223633 9.05279L0 9.1646V7.28263L0.447235 7.05901L2.22363 7.94721C2.3644 8.01759 2.53008 8.01759 2.67085 7.94721L4.44724 7.05901L6.22363 7.94721C6.3644 8.01759 6.53009 8.01759 6.67085 7.94721L8.44724 7.05901L10.2236 7.94721C10.3644 8.01759 10.5301 8.01759 10.6709 7.94721Z" fill="#EE831A"/>
  <path d="M10.6709 10.9472L12 10.2826V11C12 12.1046 11.1046 13 10 13H2C0.895432 13 0 12.1046 0 11V10.2826L0.447235 10.059L2.22363 10.9472C2.3644 11.0176 2.53008 11.0176 2.67085 10.9472L4.44724 10.059L6.22363 10.9472C6.3644 11.0176 6.53009 11.0176 6.67085 10.9472L8.44724 10.059L10.2236 10.9472C10.3644 11.0176 10.5301 11.0176 10.6709 10.9472Z" fill="#EE831A"/>
</symbol>
</defs>
</svg>
