<svg aria-hidden="true" style="position: absolute; width: 0; height: 0; overflow: hidden;" version="1.1" xmlns="http://www.w3.org/2000/svg" xmlns:xlink="http://www.w3.org/1999/xlink">
<defs>
<symbol id="managementIconsbackup" viewBox="0 0 16 16">
<path d="M8 2c-2.958 0.003-5.414 2.146-5.905 4.964l-0.005 0.036h-1.59l2.5 4 2.5-4h-1.36c0.473-1.72 2.023-2.963 3.863-2.963 2.209 0 4 1.791 4 4s-1.791 4-4 4c-1.122 0-2.136-0.462-2.862-1.206l-0.001-0.001-1.38 1.41c1.086 1.087 2.587 1.76 4.245 1.76 3.314 0 6-2.686 6-6s-2.686-6-6-6c-0.002 0-0.004 0-0.006 0h0z"></path>
</symbol>
<symbol id="managementIconsgeneral" viewBox="0 0 16 16">
<path d="M10 8c0 1.105-0.895 2-2 2s-2-0.895-2-2c0-1.105 0.895-2 2-2s2 0.895 2 2z"></path>
<path d="M15 9v-2h-2.11c-0.137-0.663-0.387-1.25-0.732-1.768l0.012 0.018 1.49-1.49-1.42-1.42-1.49 1.49c-0.5-0.333-1.087-0.583-1.718-0.714l-0.032-0.006v-2.11h-2v2.11c-0.663 0.137-1.25 0.387-1.768 0.732l0.018-0.012-1.49-1.49-1.42 1.42 1.49 1.49c-0.333 0.5-0.583 1.087-0.714 1.718l-0.006 0.032h-2.11v2h2.11c0.137 0.663 0.387 1.25 0.732 1.768l-0.012-0.018-1.49 1.49 1.41 1.41 1.49-1.49c0.503 0.337 1.093 0.591 1.727 0.724l0.033 0.006v2.11h2v-2.11c0.663-0.137 1.25-0.387 1.768-0.732l-0.018 0.012 1.49 1.49 1.41-1.41-1.49-1.49c0.337-0.503 0.591-1.093 0.724-1.727l0.006-0.033zM10.12 10.12v0c-0.543 0.542-1.292 0.877-2.12 0.877s-1.577-0.335-2.12-0.877l0 0c-0.544-0.543-0.88-1.294-0.88-2.123 0-1.657 1.343-3 3-3s3 1.343 3 3c0 0.829-0.336 1.58-0.88 2.123l-0 0z"></path>
</symbol>
<symbol id="managementIconssecurity" viewBox="0 0 16 16">
<path d="M13 6c0-2.761-2.239-5-5-5s-5 2.239-5 5v0c-0.552 0-1 0.448-1 1v0 6c0 0.552 0.448 1 1 1v0h10c0.552 0 1-0.448 1-1v0-6c0-0.552-0.448-1-1-1v0zM9 12h-2v-3c0-0.552 0.448-1 1-1s1 0.448 1 1v0zM5 6c0-1.657 1.343-3 3-3s3 1.343 3 3v0z"></path>
</symbol>
<symbol id="managementIconsproductsandinstruments" viewBox="0 0 16 16">
<path d="M2 5h3v-3h-3zM3 3h1v1h-1z"></path>
<path d="M2 6h3v3h-3v-3z"></path>
<path d="M10 2h3v3h-3v-3z"></path>
<path d="M2 10h3v3h-3v-3z"></path>
<path d="M10 10h3v3h-3v-3z"></path>
<path d="M6 2h3v3h-3v-3z"></path>
<path d="M10 9h3v-3h-3zM11 7h1v1h-1z"></path>
<path d="M6 13h3v-3h-3zM7 11h1v1h-1z"></path>
<path d="M6 6h3v3h-3v-3z"></path>
</symbol>
<symbol id="managementIconsstatistic" viewBox="0 0 16 16">
<path d="M2 9.010h3v4h-3v-4z"></path>
<path d="M10 3.010h3v10h-3v-10z"></path>
<path d="M6 7.010h3v6h-3v-6z"></path>
</symbol>
</defs>
</svg>
