<svg aria-hidden="true" style="position: absolute; width: 0; height: 0; overflow: hidden;" version="1.1" xmlns="http://www.w3.org/2000/svg" xmlns:xlink="http://www.w3.org/1999/xlink">
<defs>
<symbol id="svgTopStudioMenuCalendar" viewBox="0 0 16 16">
<path d="M14 2h-2v-1h-1v1h-6v-1h-1v1h-2c-0.020-0.002-0.044-0.003-0.068-0.003-0.116 0-0.227 0.023-0.328 0.065l0.006-0.002c-0.131 0.051-0.244 0.122-0.341 0.211l0.001-0.001c-0.088 0.096-0.159 0.209-0.207 0.333l-0.003 0.007c-0.040 0.095-0.063 0.206-0.063 0.322 0 0.024 0.001 0.047 0.003 0.071l-0-0.003v11c-0.002 0.020-0.003 0.044-0.003 0.068 0 0.116 0.023 0.227 0.065 0.328l-0.002-0.006c0.051 0.131 0.122 0.244 0.211 0.341l-0.001-0.001c0.096 0.088 0.209 0.159 0.333 0.207l0.007 0.003c0.095 0.040 0.206 0.063 0.322 0.063 0.024 0 0.047-0.001 0.071-0.003l-0.003 0h12c0.020 0.002 0.044 0.003 0.068 0.003 0.116 0 0.227-0.023 0.328-0.065l-0.006 0.002c0.26-0.089 0.461-0.29 0.548-0.544l0.002-0.006c0.040-0.095 0.063-0.206 0.063-0.322 0-0.024-0.001-0.047-0.003-0.071l0 0.003v-11c0.002-0.020 0.003-0.044 0.003-0.068 0-0.116-0.023-0.227-0.065-0.328l0.002 0.006c-0.051-0.131-0.122-0.244-0.211-0.341l0.001 0.001c-0.096-0.088-0.209-0.159-0.333-0.207l-0.007-0.003c-0.095-0.040-0.206-0.063-0.322-0.063-0.024 0-0.047 0.001-0.071 0.003l0.003-0zM14 14h-12v-9h12z"></path>
<path d="M6 7h-2v2h2z"></path>
<path d="M9 7h-2v2h2z"></path>
<path d="M12 7h-2v2h2z"></path>
<path d="M6 10h-2v2h2z"></path>
<path d="M9 10h-2v2h2z"></path>
<path d="M12 10h-2v2h2z"></path>
</symbol>
  <symbol id="svgTopStudioMenucalendar" viewBox="0 0 16 16">
<path d="M14 2h-2v-1h-1v1h-6v-1h-1v1h-2c-0.020-0.002-0.044-0.003-0.068-0.003-0.116 0-0.227 0.023-0.328 0.065l0.006-0.002c-0.131 0.051-0.244 0.122-0.341 0.211l0.001-0.001c-0.088 0.096-0.159 0.209-0.207 0.333l-0.003 0.007c-0.040 0.095-0.063 0.206-0.063 0.322 0 0.024 0.001 0.047 0.003 0.071l-0-0.003v11c-0.002 0.020-0.003 0.044-0.003 0.068 0 0.116 0.023 0.227 0.065 0.328l-0.002-0.006c0.051 0.131 0.122 0.244 0.211 0.341l-0.001-0.001c0.096 0.088 0.209 0.159 0.333 0.207l0.007 0.003c0.095 0.040 0.206 0.063 0.322 0.063 0.024 0 0.047-0.001 0.071-0.003l-0.003 0h12c0.020 0.002 0.044 0.003 0.068 0.003 0.116 0 0.227-0.023 0.328-0.065l-0.006 0.002c0.26-0.089 0.461-0.29 0.548-0.544l0.002-0.006c0.040-0.095 0.063-0.206 0.063-0.322 0-0.024-0.001-0.047-0.003-0.071l0 0.003v-11c0.002-0.020 0.003-0.044 0.003-0.068 0-0.116-0.023-0.227-0.065-0.328l0.002 0.006c-0.051-0.131-0.122-0.244-0.211-0.341l0.001 0.001c-0.096-0.088-0.209-0.159-0.333-0.207l-0.007-0.003c-0.095-0.040-0.206-0.063-0.322-0.063-0.024 0-0.047 0.001-0.071 0.003l0.003-0zM14 14h-12v-9h12z"></path>
<path d="M6 7h-2v2h2z"></path>
<path d="M9 7h-2v2h2z"></path>
<path d="M12 7h-2v2h2z"></path>
<path d="M6 10h-2v2h2z"></path>
<path d="M9 10h-2v2h2z"></path>
<path d="M12 10h-2v2h2z"></path>
</symbol>
<symbol id="svgTopStudioMenucommunity" viewBox="0 0 16 16">
<path d="M14 2h-12c-0.552 0-1 0.448-1 1v0 8c0 0.552 0.448 1 1 1v0h2v3l4-3h6c0.552 0 1-0.448 1-1v0-8c0-0.552-0.448-1-1-1v0zM13 10h-10v-6h10z"></path>
</symbol>
<symbol id="svgTopStudioMenucrm" viewBox="0 0 16 16">
<path d="M12 7l-3 3v-6h-2v-2h-4v2h-1v10h13v-4l-3-3z"></path>
</symbol>
<symbol id="svgTopStudioMenudocuments" viewBox="0 0 16 16">
<path d="M10 2h-7c-0.552 0-1 0.448-1 1v0 10c0 0.552 0.448 1 1 1v0h10c0.552 0 1-0.448 1-1v0-7zM4 4h5v1h-5zM4 6h5v1h-5zM12 11h-8v-1h8zM12 9h-8v-1h8z"></path>
</symbol>
<symbol id="svgTopStudioMenuinstall-apps" viewBox="0 0 16 16">
<path d="M3 12h9v2h-9v-2z"></path>
<path d="M4 7.11l0.8 0.89 0.2 0.22 0.7 0.78 0.3 0.33 0.6 0.67 0.4 0.44 0.5 0.56 0.5-0.56 0.4-0.44 0.6-0.67 0.3-0.33 0.7-0.78 0.2-0.22 0.8-0.89 0.1-0.11 0.9-1h-3v-4h-3v4h-3l0.9 1 0.1 0.11z"></path>
</symbol>
<symbol id="svgTopStudioMenufeed" viewBox="0 0 16 16">
<path d="M13 5v-3c-6.075 0-11 4.925-11 11v0h3c0-4.418 3.582-8 8-8v0z"></path>
<path d="M13 7c-3.314 0-6 2.686-6 6v0h6z"></path>
</symbol>
<symbol id="svgTopStudioMenumail" viewBox="0 0 16 16">
<path d="M2 3c-0.552 0-1 0.448-1 1v0 0.3l7 4.23 7-4.23v-0.3c0-0.552-0.448-1-1-1v0zM15 5.57l-7 4.23-7-4.23v6.43c0 0.552 0.448 1 1 1v0h12c0.552 0 1-0.448 1-1v0z"></path>
</symbol>
<symbol id="svgTopStudioMenuproductsandinstruments" viewBox="0 0 16 16">
<path d="M2 5h3v-3h-3zM3 3h1v1h-1z"></path>
<path d="M2 6h3v3h-3v-3z"></path>
<path d="M10 2h3v3h-3v-3z"></path>
<path d="M2 10h3v3h-3v-3z"></path>
<path d="M10 10h3v3h-3v-3z"></path>
<path d="M6 2h3v3h-3v-3z"></path>
<path d="M10 9h3v-3h-3zM11 7h1v1h-1z"></path>
<path d="M6 13h3v-3h-3zM7 11h1v1h-1z"></path>
<path d="M6 6h3v3h-3v-3z"></path>
</symbol>
<symbol id="svgTopStudioMenuapps" viewBox="0 0 16 16">
<path d="M2 5h3v-3h-3zM3 3h1v1h-1z"></path>
<path d="M2 6h3v3h-3v-3z"></path>
<path d="M10 2h3v3h-3v-3z"></path>
<path d="M2 10h3v3h-3v-3z"></path>
<path d="M10 10h3v3h-3v-3z"></path>
<path d="M6 2h3v3h-3v-3z"></path>
<path d="M10 9h3v-3h-3zM11 7h1v1h-1z"></path>
<path d="M6 13h3v-3h-3zM7 11h1v1h-1z"></path>
<path d="M6 6h3v3h-3v-3z"></path>
</symbol>
<symbol id="svgTopStudioMenupayments" viewBox="0 0 16 16">
<path d="M8 1c-3.866 0-7 3.134-7 7s3.134 7 7 7c3.866 0 7-3.134 7-7v0c0-3.866-3.134-7-7-7v0zM10.73 10.61c-0.182 0.315-0.428 0.573-0.721 0.765l-0.009 0.005c-0.287 0.19-0.62 0.341-0.976 0.435l-0.024 0.005v1.18h-2v-1c-0.043 0.002-0.094 0.004-0.145 0.004s-0.102-0.001-0.152-0.004l0.007 0c-0.282-0.068-0.519-0.143-0.748-0.233l0.038 0.013c-0.21-0.067-0.383-0.135-0.55-0.212l0.030 0.012c-0.115-0.054-0.213-0.114-0.304-0.183l0.004 0.003c-0.083-0.051-0.145-0.127-0.179-0.217l-0.001-0.003c-0.009-0.063-0.014-0.136-0.014-0.21s0.005-0.147 0.015-0.218l-0.001 0.008c-0.003-0.046-0.004-0.1-0.004-0.155s0.002-0.109 0.005-0.162l-0 0.007c-0.004-0.032-0.006-0.068-0.006-0.105s0.002-0.073 0.006-0.109l-0 0.004c0.019-0.046 0.050-0.083 0.089-0.109l0.001-0.001c0.018-0.006 0.039-0.009 0.060-0.009s0.042 0.003 0.061 0.009l-0.001-0c0.106 0.010 0.201 0.046 0.282 0.101l-0.002-0.001c0.127 0.071 0.282 0.145 0.441 0.21l0.029 0.010c0.184 0.079 0.407 0.154 0.637 0.213l0.033 0.007c0.261 0.057 0.561 0.090 0.868 0.090 0.018 0 0.036-0 0.054-0l-0.003 0c0.008 0 0.017 0 0.026 0 0.207 0 0.409-0.022 0.603-0.063l-0.019 0.003c0.171-0.041 0.322-0.11 0.454-0.203l-0.004 0.003c0.167-0.068 0.302-0.186 0.388-0.336l0.002-0.004c0.063-0.112 0.1-0.245 0.1-0.388 0-0.008-0-0.016-0-0.023l0 0.001c0-0.005 0-0.010 0-0.015 0-0.168-0.065-0.321-0.171-0.435l0 0c-0.136-0.124-0.295-0.226-0.47-0.296l-0.010-0.004c-0.18-0.090-0.39-0.18-0.62-0.27l-0.72-0.27c-0.296-0.118-0.533-0.229-0.763-0.351l0.043 0.021c-0.237-0.121-0.441-0.264-0.622-0.432l0.002 0.002c-0.179-0.168-0.327-0.366-0.435-0.588l-0.005-0.012c-0.108-0.223-0.171-0.485-0.171-0.762 0-0.024 0-0.048 0.001-0.072l-0 0.003c-0-0.015-0.001-0.032-0.001-0.049 0-0.348 0.089-0.676 0.246-0.961l-0.005 0.010c0.167-0.284 0.388-0.519 0.652-0.695l0.008-0.005c0.269-0.184 0.583-0.328 0.919-0.415l0.021-0.005v-1.15h2v1.060l0.5 0.1c0.197 0.044 0.367 0.099 0.53 0.168l-0.020-0.008c0.111 0.043 0.207 0.093 0.295 0.153l-0.005-0.003s0.080 0.070 0.090 0.1c0.002 0.016 0.003 0.036 0.003 0.055s-0.001 0.039-0.003 0.057l0-0.002c0.003 0.026 0.005 0.055 0.005 0.085s-0.002 0.059-0.005 0.088l0-0.003c0.003 0.039 0.004 0.084 0.004 0.13s-0.002 0.091-0.005 0.136l0-0.006c0 0.12 0 0.21 0 0.29 0.004 0.030 0.006 0.065 0.006 0.1s-0.002 0.070-0.006 0.104l0-0.004c-0.013 0.044-0.037 0.081-0.070 0.11l-0 0c-0.018 0.007-0.038 0.012-0.060 0.012s-0.042-0.004-0.061-0.012l0.001 0c-0.073-0.004-0.141-0.018-0.205-0.042l0.005 0.002-0.42-0.19-0.58-0.18c-0.21-0.051-0.45-0.080-0.698-0.080-0.004 0-0.009 0-0.013 0h0.001c-0.013-0-0.029-0.001-0.045-0.001-0.176 0-0.347 0.026-0.507 0.074l0.013-0.003c-0.144 0.040-0.271 0.098-0.385 0.173l0.005-0.003c-0.096 0.068-0.171 0.159-0.218 0.266l-0.002 0.004c-0.049 0.093-0.078 0.203-0.080 0.319v0.001c0 0 0 0 0 0 0 0.173 0.064 0.331 0.171 0.45l-0.001-0.001c0.125 0.135 0.274 0.246 0.441 0.326l0.009 0.004c0.171 0.092 0.379 0.187 0.593 0.268l0.037 0.012 0.68 0.27c0.295 0.113 0.532 0.221 0.762 0.34l-0.042-0.020c0.24 0.126 0.447 0.272 0.632 0.442l-0.002-0.002c0.185 0.166 0.337 0.365 0.445 0.589l0.005 0.011c0.108 0.228 0.17 0.495 0.17 0.777 0 0.011-0 0.023-0 0.034l0-0.002c0.002 0.031 0.003 0.068 0.003 0.105 0 0.35-0.090 0.679-0.248 0.965l0.005-0.010z"></path>
</symbol>
<symbol id="svgTopStudioMenupaymentsRub" viewBox="0 0 16 16">
<path d="M10.5 6.5C10.5 7.32843 9.82843 8 9 8H7V5H9C9.82843 5 10.5 5.67157 10.5 6.5Z" />
<path fill-rule="evenodd" clip-rule="evenodd" d="M8 15C11.866 15 15 11.866 15 8C15 4.13401 11.866 1 8 1C4.13401 1 1 4.13401 1 8C1 11.866 4.13401 15 8 15ZM5.5 4V10H4.5V11H5.5V13H7V11H10.5V10H7V9H9.5C10.8807 9 12 7.88071 12 6.5C12 5.11929 10.8807 4 9.5 4H5.5Z" />
</symbol>
<symbol id="svgTopStudioMenupeople" viewBox="0 0 16 16">
<path d="M10 10v-1.5c0.459-0.185 0.815-0.541 0.996-0.988l0.004-0.012v-3c0-1-1-2.5-2-2.5h-2c-1 0-2 1.5-2 2.5v3c0.185 0.459 0.541 0.815 0.988 0.996l0.012 0.004v1.5s-4 2-4 3v1h12v-1c0-1-4-3-4-3z"></path>
</symbol>
<symbol id="svgTopStudioMenuprojects" viewBox="0 0 16 16">
<path d="M10.88 4.93c-0.224-1.002-1.029-1.767-2.036-1.928l-0.014-0.002h0.17v-2h-1v2h0.13c-1.233 0.156-2.176 1.199-2.176 2.461 0 0.766 0.347 1.45 0.893 1.905l0.004 0.003 5.15 6.63 2 1v-2zM8.5 6.5c-0.015 0.001-0.032 0.001-0.050 0.001-0.58 0-1.050-0.47-1.050-1.050s0.47-1.050 1.050-1.050c0.579 0 1.049 0.469 1.050 1.049v0c0.001 0.015 0.001 0.032 0.001 0.050 0 0.552-0.448 1-1 1-0 0-0.001 0-0.001 0h0z"></path>
<path d="M3 13.050l0.020 1.94 1.96-1.010 2.99-3.57-2.46-3.69-2.51 6.33z"></path>
</symbol>
<symbol id="svgTopStudioMenusearch" viewBox="0 0 16 16">
<path d="M15.51 14.060l-3.61-3.61c0.68-0.96 1.087-2.154 1.087-3.444 0-3.314-2.686-6-6-6s-6 2.686-6 6c0 3.314 2.686 6 6 6 1.32 0 2.54-0.426 3.53-1.148l-0.017 0.012 3.6 3.6c0.174 0.149 0.401 0.24 0.65 0.24 0.552 0 1-0.448 1-1 0-0.249-0.091-0.477-0.242-0.652l0.001 0.001zM7 11c-2.209 0-4-1.791-4-4s1.791-4 4-4c2.209 0 4 1.791 4 4v0c0 2.209-1.791 4-4 4v0z"></path>
</symbol>
<symbol id="svgTopStudioMenusettings" viewBox="0 0 16 16">
<path d="M15 9v-2h-2.1c-0.136-0.664-0.39-1.251-0.741-1.767l0.011 0.017 1.49-1.49-1.42-1.42-1.49 1.49c-0.499-0.34-1.086-0.594-1.719-0.725l-0.031-0.005v-2.1h-2v2.1c-0.664 0.136-1.251 0.39-1.767 0.741l0.017-0.011-1.49-1.49-1.42 1.42 1.49 1.49c-0.34 0.499-0.594 1.086-0.725 1.719l-0.005 0.031h-2.1v2h2.1c0.136 0.664 0.39 1.251 0.741 1.767l-0.011-0.017-1.49 1.49 1.42 1.42 1.49-1.49c0.499 0.34 1.086 0.594 1.719 0.725l0.031 0.005v2.1h2v-2.1c0.664-0.136 1.251-0.39 1.767-0.741l-0.017 0.011 1.49 1.49 1.42-1.42-1.49-1.49c0.34-0.499 0.594-1.086 0.725-1.719l0.005-0.031zM8 11c-1.657 0-3-1.343-3-3s1.343-3 3-3c1.657 0 3 1.343 3 3v0c0 1.657-1.343 3-3 3v0z"></path>
</symbol>
<symbol id="svgTopStudioMenuTalk" viewBox="0 0 16 16">
<path d="M14 2h-12c-0.552 0-1 0.448-1 1v0 8c0 0.552 0.448 1 1 1v0h2v3l4-3h6c0.552 0 1-0.448 1-1v0-8c0-0.552-0.448-1-1-1v0z"></path>
</symbol>
<symbol id="svgTopStudioMenutalk" viewBox="0 0 16 16">
<path d="M14 2h-12c-0.552 0-1 0.448-1 1v0 8c0 0.552 0.448 1 1 1v0h2v3l4-3h6c0.552 0 1-0.448 1-1v0-8c0-0.552-0.448-1-1-1v0z"></path>
</symbol>
<symbol id="svgTopStudioMenusupport" viewBox="0 0 16 16">
<path d="M12 4.5h1v6h-1v-6z"></path>
<path d="M1 5v5h2v4h2v-4h1l5 2v-9l-5 2h-5z"></path>
<path d="M13 12h1v1h-1v-1z"></path>
<path d="M14 3h1v9h-1v-9z"></path>
<path d="M13 2h1v1h-1v-1z"></path>
</symbol>
<symbol id="svgTopStudioMenuvideo-guides" viewBox="0 0 16 16">
<path d="M13 3h-10c-1.105 0-2 0.895-2 2v0 7c0 1.105 0.895 2 2 2v0h10c1.105 0 2-0.895 2-2v0-7c0-1.105-0.895-2-2-2v0zM6 11v-5l5 2.5z"></path>
</symbol>
<symbol id="svgTopStudioMenuhelp" viewBox="0 0 16 16">
<path d="M6.010 11.010h2.98v2.99h-2.98v-2.99z"></path>
<path d="M11 1.91c-0.802-0.573-1.803-0.916-2.884-0.916-0.083 0-0.166 0.002-0.248 0.006l0.012-0c-1.714 0.005-3.313 0.496-4.667 1.342l0.037-0.022 1.31 2.54c0.894-0.566 1.968-0.929 3.121-0.999l0.019-0.001c0.018-0.001 0.040-0.001 0.062-0.001 0.306 0 0.592 0.086 0.835 0.235l-0.007-0.004c0.234 0.116 0.396 0.348 0.41 0.618l0 0.002c0 0.012 0.001 0.025 0.001 0.039 0 0.317-0.114 0.608-0.302 0.833l0.002-0.002c-0.289 0.33-0.618 0.614-0.982 0.849l-0.018 0.011c-0.536 0.3-0.977 0.712-1.301 1.206l-0.009 0.014c-0.205 0.395-0.325 0.863-0.325 1.359 0 0.064 0.002 0.127 0.006 0.19l-0-0.009v0.8h2.77v-0.47c-0.001-0.018-0.002-0.040-0.002-0.062 0-0.239 0.084-0.458 0.223-0.63l-0.001 0.002c0.34-0.349 0.721-0.656 1.134-0.915l0.026-0.015c0.64-0.404 1.169-0.926 1.568-1.54l0.012-0.020c0.294-0.508 0.467-1.118 0.467-1.769 0-0.081-0.003-0.162-0.008-0.242l0.001 0.011c-0.017-0.999-0.505-1.881-1.252-2.434l-0.008-0.006z"></path>
</symbol>
<symbol id="svgTopStudioMenuphone" viewBox="0 0 32 32">
<path d="M23.86 20.36l-4 2s-1.14-0.12-4.6-3.58-3.66-4.56-3.66-4.56l2-4-4.040-6.22h-2s-10.2 4.12 4 18.4 18.4 4 18.4 4v-2z"></path>
</symbol>
<symbol id="svgTopStudioMenucontrolpanel" viewBox="0 0 16 16">
<circle cx="8" cy="8" r="2"/>
<path d="M10.12,10.12h0A3,3,0,1,1,10,5.78V3.43a5.18,5.18,0,0,0-1-.32V1H7V3.11a5,5,0,0,0-1.75.72L3.76,2.34,2.34,3.76,3.83,5.25A5,5,0,0,0,3.11,7H1V9H3.11a5,5,0,0,0,.72,1.75L2.34,12.24l1.41,1.41,1.49-1.49A5,5,0,0,0,7,12.89V15H9V12.89a5,5,0,0,0,1.75-.72l.25.25V10h-.78Z"/>
<polygon points="14 6.5 14 2.5 13.5 2 11.5 2 11 2.5 11 6.5 11.5 7 11.5 8 11 8.5 11 9 12 9 12 13 11.75 13.5 12 15 13 15 13.25 13.5 13 13 13 9 14 9 14 8.5 13.5 8 13.5 7 14 6.5"/>
</symbol>
<symbol id="svgTopStudioMenusample" viewBox="0 0 16 16">
<path fill-rule="evenodd" clip-rule="evenodd" d="M9.5 4H8.25L6.5 12H7.75L9.5 4ZM16 7.5L11 5V6.25L14.5 8L11 9.75V11L16 8.5V7.5ZM0 7.5V8.5L5 11V9.75L1.5 8L5 6.25V5L0 7.5Z"/>
</symbol>
</defs>
</svg>
