<svg width="15" height="15" viewBox="0 0 15 15" fill="none" xmlns="http://www.w3.org/2000/svg">
<g clip-path="url(#clip0)">
<mask id="path-2-outside-1" maskUnits="userSpaceOnUse" x="-1.44182" y="-1.56138" width="18.2919" height="18.2919" fill="black">
<rect fill="white" x="-1.44182" y="-1.56138" width="18.2919" height="18.2919"/>
<path fill-rule="evenodd" clip-rule="evenodd" d="M5.75448 1.89778L4.77286 2.30438L5.45562 3.95272C4.81473 4.321 4.30425 4.84515 3.95293 5.45575L2.30435 4.77288L1.89775 5.7545L3.54633 6.43737C3.363 7.11754 3.35333 7.84914 3.5461 8.56273L1.89775 9.24549L2.30435 10.2271L3.9527 9.54435C4.32098 10.1852 4.84512 10.6957 5.45572 11.047L4.77286 12.6956L5.75448 13.1022L6.43734 11.4536C7.11752 11.637 7.84911 11.6466 8.5627 11.4539L9.24547 13.1022L10.2271 12.6956L9.54432 11.0473C10.1852 10.679 10.6957 10.1548 11.047 9.54425L12.6956 10.2271L13.1022 9.24549L11.4536 8.56263C11.637 7.88245 11.6466 7.15086 11.4539 6.43727L13.1022 5.7545L12.6956 4.77288L11.0472 5.45565C10.679 4.81476 10.1548 4.30428 9.54423 3.95296L10.2271 2.30438L9.24547 1.89778L8.5626 3.54636C7.88243 3.36302 7.15084 3.35336 6.43725 3.54612L5.75448 1.89778ZM9.80967 6.54329C10.338 7.8189 9.73229 9.28132 8.45668 9.8097C7.18107 10.3381 5.71865 9.73232 5.19027 8.45671C4.6619 7.1811 5.26765 5.71868 6.54327 5.1903C7.81888 4.66193 9.2813 5.26768 9.80967 6.54329Z"/>
</mask>
<path d="M4.77286 2.30438L4.39017 1.3805L3.46629 1.76318L3.84898 2.68706L4.77286 2.30438ZM5.75448 1.89778L6.67836 1.51509L6.29567 0.591215L5.37179 0.973899L5.75448 1.89778ZM5.45562 3.95272L5.95386 4.81977L6.7158 4.38193L6.3795 3.57004L5.45562 3.95272ZM3.95293 5.45575L3.57025 6.37963L4.38169 6.71573L4.8197 5.95446L3.95293 5.45575ZM2.30435 4.77288L2.68704 3.849L1.76316 3.46632L1.38047 4.3902L2.30435 4.77288ZM1.89775 5.7545L0.973872 5.37182L0.591189 6.2957L1.51507 6.67838L1.89775 5.7545ZM3.54633 6.43737L4.51187 6.69762L4.74045 5.8496L3.92902 5.51349L3.54633 6.43737ZM3.5461 8.56273L3.92878 9.48661L4.74067 9.15031L4.51149 8.30194L3.5461 8.56273ZM1.89775 9.24549L1.51507 8.32162L0.591189 8.7043L0.973872 9.62818L1.89775 9.24549ZM2.30435 10.2271L1.38047 10.6098L1.76316 11.5337L2.68704 11.151L2.30435 10.2271ZM3.9527 9.54435L4.81974 9.04611L4.3819 8.28418L3.57001 8.62047L3.9527 9.54435ZM5.45572 11.047L6.3796 11.4297L6.71571 10.6183L5.95443 10.1803L5.45572 11.047ZM4.77286 12.6956L3.84898 12.3129L3.46629 13.2368L4.39017 13.6195L4.77286 12.6956ZM5.75448 13.1022L5.37179 14.0261L6.29567 14.4088L6.67836 13.4849L5.75448 13.1022ZM6.43734 11.4536L6.6976 10.4881L5.84957 10.2595L5.51346 11.071L6.43734 11.4536ZM8.5627 11.4539L9.48658 11.0712L9.15029 10.2593L8.30192 10.4885L8.5627 11.4539ZM9.24547 13.1022L8.32159 13.4849L8.70427 14.4088L9.62815 14.0261L9.24547 13.1022ZM10.2271 12.6956L10.6098 13.6195L11.5337 13.2368L11.151 12.3129L10.2271 12.6956ZM9.54432 11.0473L9.04609 10.1802L8.28415 10.6181L8.62044 11.43L9.54432 11.0473ZM11.047 9.54425L11.4297 8.62037L10.6183 8.28426L10.1802 9.04554L11.047 9.54425ZM12.6956 10.2271L12.3129 11.151L13.2368 11.5337L13.6195 10.6098L12.6956 10.2271ZM13.1022 9.24549L14.0261 9.62818L14.4088 8.7043L13.4849 8.32161L13.1022 9.24549ZM11.4536 8.56263L10.4881 8.30237L10.2595 9.1504L11.0709 9.48651L11.4536 8.56263ZM11.4539 6.43727L11.0712 5.51339L10.2593 5.84969L10.4885 6.69806L11.4539 6.43727ZM13.1022 5.7545L13.4849 6.67838L14.4088 6.2957L14.0261 5.37182L13.1022 5.7545ZM12.6956 4.77288L13.6195 4.3902L13.2368 3.46632L12.3129 3.849L12.6956 4.77288ZM11.0472 5.45565L10.1802 5.95389L10.618 6.71582L11.4299 6.37953L11.0472 5.45565ZM9.54423 3.95296L8.62035 3.57028L8.28424 4.38171L9.04552 4.81973L9.54423 3.95296ZM10.2271 2.30438L11.151 2.68706L11.5337 1.76318L10.6098 1.3805L10.2271 2.30438ZM9.24547 1.89778L9.62815 0.973898L8.70427 0.591214L8.32159 1.51509L9.24547 1.89778ZM8.5626 3.54636L8.30235 4.5119L9.15038 4.74048L9.48648 3.92904L8.5626 3.54636ZM6.43725 3.54612L5.51337 3.92881L5.84966 4.74069L6.69803 4.51152L6.43725 3.54612ZM5.15554 3.22826L6.13716 2.82166L5.37179 0.973899L4.39017 1.3805L5.15554 3.22826ZM6.3795 3.57004L5.69674 1.9217L3.84898 2.68706L4.53174 4.33541L6.3795 3.57004ZM4.95739 3.08568C4.15882 3.54457 3.52303 4.19776 3.08617 4.95703L4.8197 5.95446C5.08548 5.49254 5.47065 5.09744 5.95386 4.81977L4.95739 3.08568ZM4.33562 4.53187L2.68704 3.849L1.92167 5.69676L3.57025 6.37963L4.33562 4.53187ZM1.38047 4.3902L0.973872 5.37182L2.82163 6.13719L3.22823 5.15556L1.38047 4.3902ZM1.51507 6.67838L3.16365 7.36125L3.92902 5.51349L2.28044 4.83062L1.51507 6.67838ZM2.58079 6.17711C2.35281 7.02291 2.34051 7.93435 2.5807 8.82351L4.51149 8.30194C4.36616 7.76392 4.37318 7.21218 4.51187 6.69762L2.58079 6.17711ZM3.16341 7.63885L1.51507 8.32162L2.28044 10.1694L3.92878 9.48661L3.16341 7.63885ZM0.973872 9.62818L1.38047 10.6098L3.22823 9.84443L2.82163 8.86281L0.973872 9.62818ZM2.68704 11.151L4.33538 10.4682L3.57001 8.62047L1.92167 9.30324L2.68704 11.151ZM3.08566 10.0426C3.54455 10.8412 4.19773 11.4769 4.95701 11.9138L5.95443 10.1803C5.49251 9.9145 5.09741 9.52933 4.81974 9.04611L3.08566 10.0426ZM4.53184 10.6644L3.84898 12.3129L5.69674 13.0783L6.3796 11.4297L4.53184 10.6644ZM4.39017 13.6195L5.37179 14.0261L6.13716 12.1783L5.15554 11.7717L4.39017 13.6195ZM6.67836 13.4849L7.36122 11.8363L5.51346 11.071L4.8306 12.7195L6.67836 13.4849ZM6.17709 12.4192C7.02288 12.6472 7.93433 12.6595 8.82349 12.4193L8.30192 10.4885C7.76389 10.6338 7.21215 10.6268 6.6976 10.4881L6.17709 12.4192ZM7.63882 11.8366L8.32159 13.4849L10.1693 12.7195L9.48658 11.0712L7.63882 11.8366ZM9.62815 14.0261L10.6098 13.6195L9.84441 11.7717L8.86279 12.1783L9.62815 14.0261ZM11.151 12.3129L10.4682 10.6646L8.62044 11.43L9.30321 13.0783L11.151 12.3129ZM10.0426 11.9143C10.8411 11.4554 11.4769 10.8022 11.9138 10.043L10.1802 9.04554C9.91447 9.50746 9.5293 9.90256 9.04609 10.1802L10.0426 11.9143ZM10.6643 10.4681L12.3129 11.151L13.0783 9.30324L11.4297 8.62037L10.6643 10.4681ZM13.6195 10.6098L14.0261 9.62818L12.1783 8.86281L11.7717 9.84443L13.6195 10.6098ZM13.4849 8.32161L11.8363 7.63875L11.0709 9.48651L12.7195 10.1694L13.4849 8.32161ZM12.4192 8.82289C12.6471 7.97709 12.6594 7.06565 12.4192 6.17649L10.4885 6.69806C10.6338 7.23608 10.6268 7.78782 10.4881 8.30237L12.4192 8.82289ZM11.8365 7.36115L13.4849 6.67838L12.7195 4.83062L11.0712 5.51339L11.8365 7.36115ZM14.0261 5.37182L13.6195 4.3902L11.7717 5.15557L12.1783 6.13719L14.0261 5.37182ZM12.3129 3.849L10.6646 4.53177L11.4299 6.37953L13.0783 5.69676L12.3129 3.849ZM11.9143 4.95741C11.4554 4.15884 10.8022 3.52305 10.0429 3.08619L9.04552 4.81973C9.50743 5.0855 9.90254 5.47067 10.1802 5.95389L11.9143 4.95741ZM10.4681 4.33564L11.151 2.68706L9.30321 1.9217L8.62035 3.57028L10.4681 4.33564ZM10.6098 1.3805L9.62815 0.973898L8.86279 2.82166L9.84441 3.22826L10.6098 1.3805ZM8.32159 1.51509L7.63872 3.16368L9.48648 3.92904L10.1693 2.28046L8.32159 1.51509ZM8.82286 2.58082C7.97706 2.35284 7.06562 2.34054 6.17646 2.58073L6.69803 4.51152C7.23606 4.36618 7.78779 4.3732 8.30235 4.5119L8.82286 2.58082ZM4.8306 2.28046L5.51337 3.92881L7.36112 3.16344L6.67836 1.51509L4.8306 2.28046ZM8.83937 10.7336C10.6252 9.99385 11.4733 7.94646 10.7336 6.16061L8.88579 6.92597C9.20282 7.69134 8.83937 8.56879 8.074 8.88582L8.83937 10.7336ZM4.2664 8.83939C5.00612 10.6252 7.05351 11.4733 8.83937 10.7336L8.074 8.88582C7.30863 9.20284 6.43118 8.83939 6.11415 8.07403L4.2664 8.83939ZM6.16058 4.26642C4.37473 5.00615 3.52667 7.05354 4.2664 8.83939L6.11415 8.07403C5.79713 7.30866 6.16058 6.43121 6.92595 6.11418L6.16058 4.26642ZM10.7336 6.16061C9.99383 4.37475 7.94644 3.5267 6.16058 4.26642L6.92595 6.11418C7.69132 5.79716 8.56877 6.16061 8.88579 6.92597L10.7336 6.16061Z" fill="#767676" mask="url(#path-2-outside-1)"/>
</g>
<defs>
<clipPath id="clip0">
<path d="M0 0H15V15H0V0Z" fill="white"/>
</clipPath>
</defs>
</svg>
