<svg width="15" height="15" viewBox="0 0 15 15" fill="none" xmlns="http://www.w3.org/2000/svg">
<path fill-rule="evenodd" clip-rule="evenodd" d="M8.02381 12.2169L6 3L6.97619 2.78307L9 12L8.02381 12.2169Z" fill="#767676"/>
<path fill-rule="evenodd" clip-rule="evenodd" d="M5.64279 6.05726L3.85217 7.84788C2.87586 8.82419 2.87586 10.4071 3.85217 11.3834C4.68149 12.2127 5.9485 12.3376 6.90962 11.758L6.67129 10.6855C6.0848 11.2621 5.14197 11.259 4.55927 10.6763C3.97349 10.0905 3.97349 9.14077 4.55927 8.55498L5.89992 7.21434L5.64279 6.05726ZM9.18573 8.17117L10.7403 6.61659C11.3261 6.03081 11.3261 5.08106 10.7403 4.49527C10.1545 3.90948 9.20477 3.90948 8.61898 4.49527L8.41434 4.69992L8.16286 3.56827C9.14298 2.81838 10.5509 2.89168 11.4474 3.78816C12.4237 4.76448 12.4237 6.34739 11.4474 7.3237L9.44286 9.32825L9.18573 8.17117Z" fill="#767676"/>
</svg>
