<svg width="15" height="15" viewBox="0 0 15 15" fill="none" xmlns="http://www.w3.org/2000/svg">
<path d="M13 13.5H2C1.72386 13.5 1.5 13.2761 1.5 13V3C1.5 2.72386 1.72386 2.5 2 2.5H13C13.2761 2.5 13.5 2.72386 13.5 3V13C13.5 13.2761 13.2761 13.5 13 13.5Z" stroke="#767676"/>
<rect x="3" y="1" width="1" height="3" fill="#767676"/>
<rect x="5" y="1" width="1" height="3" fill="#767676"/>
<rect x="7" y="1" width="1" height="3" fill="#767676"/>
<rect x="9" y="1" width="1" height="3" fill="#767676"/>
<rect x="11" y="1" width="1" height="3" fill="#767676"/>
<rect x="3" y="7" width="1" height="1" fill="#767676"/>
<rect x="5" y="7" width="1" height="1" fill="#767676"/>
<rect x="7" y="7" width="1" height="1" fill="#767676"/>
<rect x="9" y="7" width="1" height="1" fill="#767676"/>
<rect x="11" y="7" width="1" height="1" fill="#767676"/>
<rect x="3" y="5" width="1" height="1" fill="#767676"/>
<rect x="5" y="5" width="1" height="1" fill="#767676"/>
<rect x="7" y="5" width="1" height="1" fill="#767676"/>
<rect x="9" y="5" width="1" height="1" fill="#767676"/>
<rect x="11" y="5" width="1" height="1" fill="#767676"/>
<rect x="3" y="9" width="1" height="1" fill="#767676"/>
<rect x="5" y="9" width="1" height="1" fill="#767676"/>
<rect x="7" y="9" width="1" height="1" fill="#767676"/>
<rect x="9" y="9" width="1" height="1" fill="#767676"/>
<rect x="11" y="9" width="1" height="1" fill="#767676"/>
<rect x="3" y="11" width="1" height="1" fill="#767676"/>
<rect x="5" y="11" width="1" height="1" fill="#767676"/>
<rect x="7" y="11" width="1" height="1" fill="#767676"/>
<rect x="9" y="11" width="1" height="1" fill="#767676"/>
</svg>
