<svg width="15" height="15" viewBox="0 0 15 15" fill="none" xmlns="http://www.w3.org/2000/svg">
<path fill-rule="evenodd" clip-rule="evenodd" d="M1 11H2V12H1V11ZM3 11H4V12H3V11ZM6 11H5V12H6V11ZM7 11H8V12H7V11ZM10 11H9V12H10V11ZM11 11H12V12H11V11ZM14 11H13V12H14V11Z" fill="#767676"/>
<path d="M1.4375 9.3125C1.53844 8.48483 1.85151 7.72532 2.18403 6.96528C2.55962 6.10678 2.94682 5.17124 3.55556 4.44618C3.64375 4.34114 3.73778 4.24073 3.83681 4.14583C3.91866 4.06739 4.00799 3.99701 4.09722 3.92708C4.1632 3.87538 4.21947 3.79541 4.30208 3.78125C4.34687 3.77357 4.39357 3.83018 4.40104 3.875C4.44855 4.16003 4.30353 5.15266 4.28993 5.25868C4.17578 6.14874 4.02838 7.0317 3.88194 7.91667C3.85185 8.09855 3.80273 8.3102 3.81424 8.5C3.82365 8.65535 4.00199 8.61307 4.07292 8.53819C4.37786 8.21631 4.54958 7.7999 4.82292 7.45486C5.01201 7.21616 5.42221 6.74836 5.77431 6.77083C5.94657 6.78183 6.12595 6.9873 6.18924 7.13021C6.31933 7.42396 6.25 7.84017 6.25 8.15104C6.25 8.33333 6.1757 8.70009 6.3559 8.82812C6.63828 9.02876 6.98838 8.92919 7.25694 8.75868C7.69194 8.48249 8.03509 8.08649 8.42361 7.75347C8.65004 7.55939 8.7614 7.50822 8.88194 7.79861C9.07374 8.26065 9.30851 8.44361 9.81597 8.54167C10.9334 8.75759 12.119 8.67859 13.25 8.6875" stroke="#767676" stroke-linecap="round" stroke-linejoin="round"/>
</svg>
