<svg width="15" height="15" viewBox="0 0 15 15" fill="none" xmlns="http://www.w3.org/2000/svg">
<mask id="path-2-inside-1" fill="white">
<path fill-rule="evenodd" clip-rule="evenodd" d="M3 2C2.44772 2 2 2.44772 2 3V10C2 10.5523 2.44771 11 3 11H4V14L7 11H12C12.5523 11 13 10.5523 13 10V3C13 2.44772 12.5523 2 12 2H3Z"/>
</mask>
<path d="M4 11H5V10H4V11ZM4 14H3V16.4142L4.70711 14.7071L4 14ZM7 11V10H6.58579L6.29289 10.2929L7 11ZM3 3V3V1C1.89543 1 1 1.89543 1 3H3ZM3 10V3H1V10H3ZM3 10H3H1C1 11.1046 1.89543 12 3 12V10ZM4 10H3V12H4V10ZM5 14V11H3V14H5ZM6.29289 10.2929L3.29289 13.2929L4.70711 14.7071L7.70711 11.7071L6.29289 10.2929ZM12 10H7V12H12V10ZM12 10V12C13.1046 12 14 11.1046 14 10H12ZM12 3V10H14V3H12ZM12 3H14C14 1.89543 13.1046 1 12 1V3ZM3 3H12V1H3V3Z" fill="#767676" mask="url(#path-2-inside-1)"/>
<rect x="4" y="4" width="7" height="1" fill="#767676"/>
<rect x="4" y="6" width="7" height="1" fill="#767676"/>
<rect x="4" y="8" width="5" height="1" fill="#767676"/>
</svg>
