<svg width="15" height="15" viewBox="0 0 15 15" fill="none" xmlns="http://www.w3.org/2000/svg">
<path fill-rule="evenodd" clip-rule="evenodd" d="M13 14V11.8701C13 11.8701 9.3521 4.30699 9.2635 4.15937C8.97457 3.6788 8.62083 3.35524 8.10707 3.20863V1.6083C8.10707 1.27242 7.84628 1 7.49636 1C7.14645 1 6.88566 1.27242 6.88566 1.6083V3.21629C6.72605 3.21629 6.43941 3.31886 6.29894 3.39681C5.2606 3.97201 4.93117 5.4046 5.53041 6.40019C5.6269 6.53669 6.19646 7.21121 6.19646 7.21121L11.056 12.6411L13 14ZM8.35135 5.25373C8.35135 4.76409 7.94115 4.36724 7.43529 4.36724C6.92944 4.36724 6.51923 4.76384 6.51923 5.25348C6.51923 5.74312 6.92944 6.13997 7.43529 6.13997C7.94115 6.13997 8.35135 5.74337 8.35135 5.25373Z" fill="#767676"/>
<path d="M4.70414 6.01236L2 11.8339V14L3.66857 12.6318L6.90638 9.16248C6.90638 9.16248 5.02941 6.88769 4.97527 6.79825C4.87924 6.63825 4.70414 6.01236 4.70414 6.01236Z" fill="#767676"/>
</svg>
