<svg width="15" height="15" viewBox="0 0 15 15" fill="none" xmlns="http://www.w3.org/2000/svg">
<path fill-rule="evenodd" clip-rule="evenodd" d="M8 13.1568L8 1.84313H7L7 13.1568H8Z" fill="#767676"/>
<path fill-rule="evenodd" clip-rule="evenodd" d="M9.41448 2.15476C10.3752 1.57734 11.6403 1.70284 12.4688 2.53125C13.4451 3.50756 13.4451 5.09047 12.4688 6.06678L8.85717 9.67837L8.97031 8.15101L11.7616 5.35967C12.3474 4.77389 12.3474 3.82414 11.7616 3.23835C11.1759 2.65257 10.2261 2.65257 9.64033 3.23835L9.30972 3.56896L9.41448 2.15476ZM5.69031 11.431L5.35967 11.7617C4.77388 12.3474 3.82414 12.3474 3.23835 11.7617C2.65256 11.1759 2.65256 10.2261 3.23835 9.64033L6.02972 6.84896L6.14286 5.32161L2.53124 8.93323C1.55493 9.90954 1.55493 11.4925 2.53124 12.4688C3.35966 13.2972 4.62482 13.4227 5.58555 12.8452L5.69031 11.431Z" fill="#767676"/>
</svg>
