<svg width="15" height="15" viewBox="0 0 15 15" fill="none" xmlns="http://www.w3.org/2000/svg">
<path d="M9 11L8 12L10.5 14.5L14.5 10.5L13.5 9.5L10.5 12.5L9 11Z" fill="#767676"/>
<path fill-rule="evenodd" clip-rule="evenodd" d="M6 3H9V4H6V3ZM4 2H5V1H6H9H10V2H11H12V3V9.58578L11 10.5858V3H10V4V5H9H6H5V4V3H4V12H6.58578L7.58578 13H4H3V12V3V2H4ZM12 13H11H9L8 12H10L10.5 12.5L11 12L12 11V12V13ZM10 10.5858V10H9.41421L10 10.5858ZM8.58579 10H5V11H7.58578L8.58579 10ZM10 6H5V7H10V6ZM5 8H10V9H5V8Z" fill="#767676"/>
</svg>
