<svg width="15" height="15" viewBox="0 0 15 15" fill="none" xmlns="http://www.w3.org/2000/svg">
<path d="M13 6.88518C13 7.51782 12.8991 8.097 12.6973 8.62272C12.4955 9.14844 12.2112 9.5561 11.8443 9.84569C11.4774 10.1353 11.0555 10.2801 10.5785 10.2801C10.1841 10.2801 9.85157 10.1642 9.58099 9.93256C9.3104 9.70089 9.14989 9.40462 9.09944 9.04374H9.0444C8.86095 9.43135 8.59725 9.73431 8.25328 9.95261C7.9139 10.1709 7.51032 10.2801 7.04253 10.2801C6.3546 10.2801 5.81572 10.0529 5.42589 9.59842C5.04065 9.13953 4.84803 8.51802 4.84803 7.7339C4.84803 6.82503 5.11862 6.08769 5.65979 5.52187C6.20096 4.9516 6.91182 4.66646 7.79237 4.66646C8.10423 4.66646 8.45737 4.69542 8.85178 4.75334C9.2462 4.8068 9.60163 4.88254 9.91807 4.98056L9.74609 8.12151V8.26853C9.74609 9.06156 10.0511 9.45808 10.661 9.45808C11.0784 9.45808 11.4178 9.21972 11.6792 8.74301C11.9406 8.26185 12.0713 7.63811 12.0713 6.87181C12.0713 6.06541 11.9016 5.35925 11.5622 4.75334C11.2228 4.14743 10.739 3.68185 10.1107 3.35662C9.48697 3.02693 8.76923 2.86209 7.95747 2.86209C6.93475 2.86209 6.04503 3.06926 5.28831 3.4836C4.53158 3.89348 3.95372 4.48157 3.55472 5.24787C3.15572 6.00972 2.95622 6.89186 2.95622 7.89429C2.95622 9.25314 3.32541 10.2979 4.06379 11.0286C4.80217 11.7592 5.86617 12.1245 7.25578 12.1245C8.21889 12.1245 9.21868 11.933 10.2552 11.5498V12.4386C9.37461 12.8129 8.37482 13 7.25578 13C5.59099 13 4.29769 12.5567 3.37586 11.6701C2.45862 10.7791 2 9.53605 2 7.94107C2 6.78271 2.24536 5.75132 2.73609 4.8469C3.22681 3.94249 3.9262 3.24301 4.83427 2.74848C5.74234 2.24949 6.78341 2 7.95747 2C8.94351 2 9.81947 2.20271 10.5854 2.60814C11.3558 3.00911 11.9498 3.58161 12.3671 4.32564C12.789 5.06521 13 5.91839 13 6.88518ZM5.8868 7.76063C5.8868 8.89226 6.33396 9.45808 7.22827 9.45808C8.17761 9.45808 8.69356 8.76083 8.77611 7.36634L8.87242 5.62211C8.54221 5.53301 8.1822 5.48846 7.79237 5.48846C7.19616 5.48846 6.72837 5.68894 6.38899 6.08991C6.0542 6.49089 5.8868 7.04779 5.8868 7.76063Z" fill="#767676"/>
</svg>
