<svg width="15" height="15" viewBox="0 0 15 15" fill="none" xmlns="http://www.w3.org/2000/svg">
<path fill-rule="evenodd" clip-rule="evenodd" d="M6.08535 13C6.03008 13.1564 6 13.3247 6 13.5C6 14.3284 6.67157 15 7.5 15C8.32843 15 9 14.3284 9 13.5C9 13.3247 8.96992 13.1564 8.91465 13H6.08535Z" fill="#767676"/>
<path d="M13 2L12 1L2 11L3 12L13 2Z" fill="#767676"/>
<path fill-rule="evenodd" clip-rule="evenodd" d="M9.75914 1.82665C9.14949 1.31093 8.36106 1 7.5 1C5.56701 1 4 2.567 4 4.5V6.70331C4 7.07603 3.93056 7.44415 3.79657 7.78921L5 6.58578V4.5C5 3.11929 6.11929 2 7.5 2C8.08482 2 8.62273 2.2008 9.04856 2.53723L9.75914 1.82665ZM4.64146 8.35854L2.3009 10.6991C2.27217 11.043 2.3924 11.3924 2.64838 11.6484C2.77087 11.7709 2.91709 11.8641 3.07625 11.9238L4 11H3.49727C3.44409 11 3.39309 10.9789 3.35549 10.9413C3.29155 10.8773 3.27832 10.7785 3.32318 10.7L4.47297 8.68786C4.53434 8.58048 4.59053 8.47058 4.64146 8.35854ZM10 5V4.5C10 4.06679 9.88981 3.65931 9.69593 3.30407L10.4241 2.57588C10.7067 3.00447 10.8976 3.49887 10.9689 4.03113L10 5ZM5.41421 11H11.5027C11.5559 11 11.6069 10.9789 11.6445 10.9413C11.7085 10.8773 11.7217 10.7785 11.6768 10.7L10.527 8.68786C10.1817 8.08347 10 7.39941 10 6.70331V6.41421L11 5.41421V6.70331C11 7.22539 11.1362 7.73843 11.3953 8.19172L12.5451 10.2039C12.8137 10.6739 12.7344 11.2656 12.3516 11.6484C12.1265 11.8735 11.8211 12 11.5027 12H4.41421L5.41421 11Z" fill="#767676"/>
</svg>
