<svg width="15" height="15" viewBox="0 0 15 15" fill="none" xmlns="http://www.w3.org/2000/svg">
<path fill-rule="evenodd" clip-rule="evenodd" d="M11.3891 11.3891C13.537 9.2412 13.537 5.7588 11.3891 3.61091C9.2412 1.46303 5.7588 1.46303 3.61091 3.61091C1.46303 5.7588 1.46303 9.2412 3.61091 11.3891C5.7588 13.537 9.2412 13.537 11.3891 11.3891ZM10.3284 10.3284C11.8905 8.76633 11.8905 6.23367 10.3284 4.67157C8.76633 3.10948 6.23367 3.10948 4.67157 4.67157C3.10948 6.23367 3.10948 8.76633 4.67157 10.3284C6.23367 11.8905 8.76633 11.8905 10.3284 10.3284Z" fill="#767676"/>
<path d="M11 5L10 4L4 10L5 11L11 5Z" fill="#767676"/>
</svg>
