<svg width="15" height="15" viewBox="0 0 15 15" fill="none" xmlns="http://www.w3.org/2000/svg">
<path d="M2.98828 13.0429H12.0117C12.5569 13.0429 13 12.5981 13 12.0508V11.4038L12.9665 11.2555C12.1433 9.51517 10.8677 9.14514 10.814 9.12963L10.0781 9.11749C9.55715 9.11749 9.13284 8.69151 9.13284 8.16848V7.87461C9.38395 7.55007 9.5793 7.1726 9.7203 6.72438L9.7767 6.67214C10.1359 6.31154 10.2044 5.71369 9.94456 5.29782C9.93719 5.28467 9.9298 5.27153 9.91972 5.25704L9.92039 4.98338C9.92039 4.93037 9.92041 4.87736 9.92044 4.82431C9.92055 4.61026 9.92065 4.39561 9.91903 4.17793C9.90561 3.57369 9.7089 3.04019 9.36515 2.67555C9.07444 2.36719 8.67161 2.1569 8.20164 2.06691C7.6766 1.96649 7.13883 1.9793 6.65006 2.10399C6.15055 2.23071 5.7128 2.53031 5.45095 2.92359C5.2294 3.24915 5.10183 3.66568 5.08236 4.13783C5.07901 4.38619 5.07901 4.63457 5.07968 4.88362L5.0817 5.25467C5.06088 5.28568 5.04277 5.31534 5.03604 5.3305C4.78762 5.78275 4.88565 6.3641 5.27841 6.72233L5.30258 6.79985C5.42274 7.17562 5.61208 7.53184 5.86721 7.86076V8.16845C5.86721 8.69149 5.44289 9.11747 4.9219 9.11747H4.27737L4.18606 9.12961C4.13235 9.14512 2.85671 9.51515 2.03358 11.2555L2 12.0508C2 12.5981 2.44312 13.0429 2.98828 13.0429Z" fill="#767676"/>
</svg>
