<svg width="15" height="15" viewBox="0 0 15 15" fill="none" xmlns="http://www.w3.org/2000/svg">
<path fill-rule="evenodd" clip-rule="evenodd" d="M7.62882 13.043H2.988C2.72621 13.0422 2.47537 12.9379 2.29025 12.7527C2.10514 12.5676 2.00079 12.3168 2 12.055L2.034 11.255C2.22736 10.7719 2.51826 10.3338 2.88853 9.96822C3.25881 9.6026 3.70049 9.31725 4.186 9.13L4.277 9.118H4.92C5.171 9.11694 5.41135 9.01649 5.58846 8.83863C5.76557 8.66078 5.865 8.42 5.865 8.169V7.861C5.6158 7.54327 5.42455 7.18411 5.3 6.8L5.277 6.719C5.08723 6.54718 4.96034 6.31685 4.91649 6.06464C4.87265 5.81242 4.91436 5.55279 5.035 5.327C5.04858 5.30065 5.06395 5.27525 5.081 5.251V4.88V4.134C5.08848 3.70286 5.21629 3.28238 5.45 2.92C5.7365 2.50935 6.16332 2.21769 6.65 2.1C7.15814 1.97656 7.68707 1.9653 8.2 2.067C8.64348 2.14231 9.05168 2.35622 9.366 2.678C9.72859 3.09301 9.92579 3.62694 9.92 4.178V4.824V4.983V5.259C9.92903 5.27223 9.93737 5.28592 9.945 5.3C10.0704 5.51597 10.1218 5.76703 10.0913 6.01491C10.0608 6.26279 9.95006 6.49389 9.776 6.673L9.72 6.725C9.59467 7.14035 9.39585 7.52985 9.133 7.875V8.169C9.133 8.42 9.23243 8.66078 9.40954 8.83863C9.58665 9.01649 9.827 9.11694 10.078 9.118L10.814 9.13C11.1907 9.27495 11.541 9.47893 11.8522 9.73365L11.1403 10.4455C10.9749 10.3198 10.7958 10.2128 10.6063 10.1267L10.0667 10.1179C9.55376 10.1139 9.063 9.90784 8.70094 9.54425C8.33721 9.17897 8.133 8.68448 8.133 8.16899V7.875V7.53758L8.33743 7.26913C8.52784 7.01912 8.67185 6.73697 8.76264 6.43611L8.84094 6.17663L9.03955 5.9922L9.06779 5.96598C9.08469 5.94501 9.09547 5.91965 9.09878 5.89274C9.10255 5.86208 9.09644 5.83104 9.08135 5.80414L8.92 5.56767V5.259V4.983V4.98269V4.98237V4.98206V4.98175V4.98144V4.98112V4.98081V4.9805V4.98019V4.97988V4.97956V4.97925V4.97894V4.97863V4.97831V4.978V4.97769V4.97738V4.97706V4.97675V4.97644V4.97613V4.97581V4.9755V4.97519V4.97488V4.97456V4.97425V4.97394V4.97363V4.97332V4.973V4.97269V4.97238V4.97207V4.97175V4.97144V4.97113V4.97082V4.97051V4.97019V4.96988V4.96957V4.96926V4.96894V4.96863V4.96832V4.96801V4.9677V4.96738V4.96707V4.96676V4.96645V4.96614V4.96582V4.96551V4.9652V4.96489V4.96458V4.96426V4.96395V4.96364V4.96333V4.96302V4.9627V4.96239V4.96208V4.96177V4.96146V4.96114V4.96083V4.96052V4.96021V4.9599V4.95958V4.95927V4.95896V4.95865V4.95834V4.95802V4.95771V4.9574V4.95709V4.95678V4.95646V4.95615V4.95584V4.95553V4.95522V4.95491V4.95459V4.95428V4.95397V4.95366V4.95335V4.95303V4.95272V4.95241V4.9521V4.95179V4.95148V4.95116V4.95085V4.95054V4.95023V4.94992V4.94961V4.94929V4.94898V4.94867V4.94836V4.94805V4.94774V4.94742V4.94711V4.9468V4.94649V4.94618V4.94587V4.94555V4.94524V4.94493V4.94462V4.94431V4.944V4.94369V4.94337V4.94306V4.94275V4.94244V4.94213V4.94182V4.9415V4.94119V4.94088V4.94057V4.94026V4.93995V4.93964V4.93932V4.93901V4.9387V4.93839V4.93808V4.93777V4.93746V4.93714V4.93683V4.93652V4.93621V4.9359V4.93559V4.93528V4.93497V4.93465V4.93434V4.93403V4.93372V4.93341V4.9331V4.93279V4.93247V4.93216V4.93185V4.93154V4.93123V4.93092V4.93061V4.9303V4.92999V4.92967V4.92936V4.92905V4.92874V4.92843V4.92812V4.92781V4.9275V4.92718V4.92687V4.92656V4.92625V4.92594V4.92563V4.92532V4.92501V4.9247V4.92438V4.92407V4.92376V4.92345V4.92314V4.92283V4.92252V4.92221V4.9219V4.92159V4.92127V4.92096V4.92065V4.92034V4.92003V4.91972V4.91941V4.9191V4.91879V4.91848V4.91816V4.91785V4.91754V4.91723V4.91692V4.91661V4.9163V4.91599V4.91568V4.91537V4.91506V4.91475V4.91443V4.91412V4.91381V4.9135V4.91319V4.91288V4.91257V4.91226V4.91195V4.91164V4.91133V4.91102V4.91071V4.91039V4.91008V4.90977V4.90946V4.90915V4.90884V4.90853V4.90822V4.90791V4.9076V4.90729V4.90698V4.90667V4.90636V4.90604V4.90573V4.90542V4.90511V4.9048V4.90449V4.90418V4.90387V4.90356V4.90325V4.90294V4.90263V4.90232V4.90201V4.9017V4.90139V4.90108V4.90077V4.90045V4.90014V4.89983V4.89952V4.89921V4.8989V4.89859V4.89828V4.89797V4.89766V4.89735V4.89704V4.89673V4.89642V4.89611V4.8958V4.89549V4.89518V4.89487V4.89456V4.89425V4.89394V4.89363V4.89332V4.89301V4.8927V4.89239V4.89208V4.89176V4.89145V4.89114V4.89083V4.89052V4.89021V4.8899V4.88959V4.88928V4.88897V4.88866V4.88835V4.88804V4.88773V4.88742V4.88711V4.8868V4.88649V4.88618V4.88587V4.88556V4.88525V4.88494V4.88463V4.88432V4.88401V4.8837V4.88339V4.88308V4.88277V4.88246V4.88215V4.88184V4.88153V4.88122V4.88091V4.8806V4.88029V4.87998V4.87967V4.87936V4.87905V4.87874V4.87843V4.87812V4.87781V4.8775V4.87719V4.87688V4.87657V4.87626V4.87595V4.87564V4.87533V4.87502V4.87471V4.8744V4.87409V4.87378V4.87347V4.87316V4.87285V4.87254V4.87223V4.87192V4.87161V4.8713V4.87099V4.87068V4.87037V4.87006V4.86975V4.86945V4.86914V4.86883V4.86852V4.86821V4.8679V4.86759V4.86728V4.86697V4.86666V4.86635V4.86604V4.86573V4.86542V4.86511V4.8648V4.86449V4.86418V4.86387V4.86356V4.86325V4.86294V4.86263V4.86232V4.86201V4.8617V4.8614V4.86109V4.86078V4.86047V4.86016V4.85985V4.85954V4.85923V4.85892V4.85861V4.8583V4.85799V4.85768V4.85737V4.85706V4.85675V4.85644V4.85613V4.85583V4.85552V4.85521V4.8549V4.85459V4.85428V4.85397V4.85366V4.85335V4.85304V4.85273V4.85242V4.85211V4.8518V4.85149V4.85119V4.85088V4.85057V4.85026V4.84995V4.84964V4.84933V4.84902V4.84871V4.8484V4.84809V4.84778V4.84747V4.84717V4.84686V4.84655V4.84624V4.84593V4.84562V4.84531V4.845V4.84469V4.84438V4.84407V4.84377V4.84346V4.84315V4.84284V4.84253V4.84222V4.84191V4.8416V4.84129V4.84098V4.84067V4.84037V4.84006V4.83975V4.83944V4.83913V4.83882V4.83851V4.8382V4.83789V4.83759V4.83728V4.83697V4.83666V4.83635V4.83604V4.83573V4.83542V4.83511V4.8348V4.8345V4.83419V4.83388V4.83357V4.83326V4.83295V4.83264V4.83233V4.83203V4.83172V4.83141V4.8311V4.83079V4.83048V4.83017V4.82986V4.82956V4.82925V4.82894V4.82863V4.82832V4.82801V4.8277V4.82739V4.82709V4.82678V4.82647V4.82616V4.82585V4.82554V4.82523V4.82493V4.82462V4.82431V4.824V4.82275V4.82149V4.82024V4.81898V4.81773V4.81648V4.81522V4.81397V4.81271V4.81146V4.81021V4.80895V4.8077V4.80644V4.80519V4.80393V4.80268V4.80143V4.80017V4.79892V4.79766V4.79641V4.79515V4.7939V4.79264V4.79139V4.79014V4.78888V4.78763V4.78637V4.78512V4.78386V4.78261V4.78135V4.7801V4.77884V4.77759V4.77633V4.77508V4.77382V4.77257V4.77131V4.77006V4.7688V4.76755V4.76629V4.76504V4.76378V4.76253V4.76127V4.76002V4.75876V4.75751V4.75625V4.755V4.75374V4.75249V4.75123V4.74998V4.74872V4.74747V4.74621V4.74496V4.7437V4.74245V4.74119V4.73993V4.73868V4.73742V4.73617V4.73491V4.73366V4.7324V4.73114V4.72989V4.72863V4.72738V4.72612V4.72487V4.72361V4.72235V4.7211V4.71984V4.71859V4.71733V4.71607V4.71482V4.71356V4.71231V4.71105V4.70979V4.70854V4.70728V4.70603V4.70477V4.70351V4.70226V4.701V4.69974V4.69849V4.69723V4.69597V4.69472V4.69346V4.6922V4.69095V4.68969V4.68843V4.68718V4.68592V4.68466V4.68341V4.68215V4.68089V4.67964V4.67838V4.67712V4.67587V4.67461V4.67335V4.6721V4.67084V4.66958V4.66833V4.66707V4.66581V4.66455V4.6633V4.66204V4.66078V4.65952V4.65827V4.65701V4.65575V4.6545V4.65324V4.65198V4.65072V4.64947V4.64821V4.64695V4.64569V4.64444V4.64318V4.64192V4.64066V4.6394V4.63815V4.63689V4.63563V4.63437V4.63312V4.63186V4.6306V4.62934V4.62808V4.62683V4.62557V4.62431V4.62305V4.62179V4.62053V4.61928V4.61802V4.61676V4.6155V4.61424V4.61299V4.61173V4.61047V4.60921V4.60795V4.60669V4.60543V4.60418V4.60292V4.60166V4.6004V4.59914V4.59788V4.59662V4.59536V4.59411V4.59285V4.59159V4.59033V4.58907V4.58781V4.58655V4.58529V4.58403V4.58278V4.58152V4.58026V4.579V4.57774V4.57648V4.57522V4.57396V4.5727V4.57144V4.57018V4.56892V4.56766V4.5664V4.56514V4.56388V4.56262V4.56137V4.56011V4.55885V4.55759V4.55633V4.55507V4.55381V4.55255V4.55129V4.55003V4.54877V4.54751V4.54625V4.54499V4.54373V4.54247V4.54121V4.53995V4.53869V4.53743V4.53617V4.53491V4.53364V4.53238V4.53112V4.52986V4.5286V4.52734V4.52608V4.52482V4.52356V4.5223V4.52104V4.51978V4.51852V4.51726V4.516V4.51474V4.51347V4.51221V4.51095V4.50969V4.50843V4.50717V4.50591V4.50465V4.50339V4.50212V4.50086V4.4996V4.49834V4.49708V4.49582V4.49456V4.4933V4.49203V4.49077V4.48951V4.48825V4.48699V4.48573V4.48446V4.4832V4.48194V4.48068V4.47942V4.47816V4.47689V4.47563V4.47437V4.47311V4.47185V4.47058V4.46932V4.46806V4.4668V4.46553V4.46427V4.46301V4.46175V4.46049V4.45922V4.45796V4.4567V4.45544V4.45417V4.45291V4.45165V4.45038V4.44912V4.44786V4.4466V4.44533V4.44407V4.44281V4.44155V4.44028V4.43902V4.43776V4.43649V4.43523V4.43397V4.4327V4.43144V4.43018V4.42891V4.42765V4.42639V4.42512V4.42386V4.4226V4.42133V4.42007V4.41881V4.41754V4.41628V4.41502V4.41375V4.41249V4.41122V4.40996V4.4087V4.40743V4.40617V4.4049V4.40364V4.40238V4.40111V4.39985V4.39858V4.39732V4.39606V4.39479V4.39353V4.39226V4.391V4.38973V4.38847V4.3872V4.38594V4.38468V4.38341V4.38215V4.38088V4.37962V4.37835V4.37709V4.37582V4.37456V4.37329V4.37203V4.37076V4.3695V4.36823V4.36697V4.3657V4.36444V4.36317V4.36191V4.36064V4.35938V4.35811V4.35684V4.35558V4.35431V4.35305V4.35178V4.35052V4.34925V4.34799V4.34672V4.34545V4.34419V4.34292V4.34166V4.34039V4.33912V4.33786V4.33659V4.33533V4.33406V4.33279V4.33153V4.33026V4.32899V4.32773V4.32646V4.3252V4.32393V4.32266V4.3214V4.32013V4.31886V4.3176V4.31633V4.31506V4.3138V4.31253V4.31126V4.30999V4.30873V4.30746V4.30619V4.30493V4.30366V4.30239V4.30113V4.29986V4.29859V4.29732V4.29606V4.29479V4.29352V4.29225V4.29099V4.28972V4.28845V4.28718V4.28592V4.28465V4.28338V4.28211V4.28084V4.27958V4.27831V4.27704V4.27577V4.2745V4.27324V4.27197V4.2707V4.26943V4.26816V4.26689V4.26563V4.26436V4.26309V4.26182V4.26055V4.25928V4.25801V4.25675V4.25548V4.25421V4.25294V4.25167V4.2504V4.24913V4.24786V4.24659V4.24533V4.24406V4.24279V4.24152V4.24025V4.23898V4.23771V4.23644V4.23517V4.2339V4.23263V4.23136V4.23009V4.22882V4.22755V4.22628V4.22501V4.22374V4.22247V4.2212V4.21993V4.21866V4.21739V4.21612V4.21485V4.21358V4.21231V4.21104V4.20977V4.2085V4.20723V4.20596V4.20469V4.20342V4.20215V4.20088V4.19961V4.19834V4.19707V4.1958V4.19453V4.19325V4.19198V4.19071V4.18944V4.18817V4.1869V4.18563V4.18436V4.18309V4.18181V4.18054V4.17927V4.178V4.1675L8.92006 4.1675C8.92316 3.87139 8.82055 3.5842 8.6312 3.35733C8.46736 3.19758 8.25861 3.09127 8.03258 3.05288L8.01901 3.05058L8.00551 3.0479C7.63506 2.97445 7.25305 2.98258 6.88606 3.07174L6.88505 3.07198C6.6414 3.1309 6.42703 3.27491 6.28039 3.47773C6.15535 3.67779 6.08644 3.9079 6.081 4.1439V4.14417V4.14563V4.14708V4.14854V4.14999V4.15144V4.1529V4.15435V4.15581V4.15726V4.15872V4.16017V4.16163V4.16308V4.16454V4.16599V4.16744V4.1689V4.17036V4.17181V4.17327V4.17472V4.17618V4.17763V4.17909V4.18054V4.182V4.18346V4.18491V4.18637V4.18782V4.18928V4.19074V4.19219V4.19365V4.19511V4.19656V4.19802V4.19948V4.20093V4.20239V4.20385V4.2053V4.20676V4.20822V4.20968V4.21113V4.21259V4.21405V4.21551V4.21696V4.21842V4.21988V4.22134V4.22279V4.22425V4.22571V4.22717V4.22863V4.23008V4.23154V4.233V4.23446V4.23592V4.23738V4.23883V4.24029V4.24175V4.24321V4.24467V4.24613V4.24759V4.24905V4.2505V4.25196V4.25342V4.25488V4.25634V4.2578V4.25926V4.26072V4.26218V4.26364V4.2651V4.26656V4.26802V4.26948V4.27094V4.2724V4.27386V4.27532V4.27678V4.27824V4.2797V4.28116V4.28262V4.28408V4.28554V4.287V4.28846V4.28992V4.29138V4.29284V4.2943V4.29576V4.29722V4.29868V4.30014V4.3016V4.30306V4.30452V4.30598V4.30744V4.30891V4.31037V4.31183V4.31329V4.31475V4.31621V4.31767V4.31913V4.32059V4.32205V4.32352V4.32498V4.32644V4.3279V4.32936V4.33082V4.33228V4.33375V4.33521V4.33667V4.33813V4.33959V4.34105V4.34251V4.34398V4.34544V4.3469V4.34836V4.34982V4.35129V4.35275V4.35421V4.35567V4.35713V4.35859V4.36006V4.36152V4.36298V4.36444V4.3659V4.36737V4.36883V4.37029V4.37175V4.37321V4.37468V4.37614V4.3776V4.37906V4.38053V4.38199V4.38345V4.38491V4.38637V4.38784V4.3893V4.39076V4.39222V4.39369V4.39515V4.39661V4.39807V4.39954V4.401V4.40246V4.40392V4.40539V4.40685V4.40831V4.40977V4.41124V4.4127V4.41416V4.41562V4.41708V4.41855V4.42001V4.42147V4.42293V4.4244V4.42586V4.42732V4.42878V4.43025V4.43171V4.43317V4.43463V4.4361V4.43756V4.43902V4.44048V4.44195V4.44341V4.44487V4.44633V4.4478V4.44926V4.45072V4.45218V4.45365V4.45511V4.45657V4.45803V4.4595V4.46096V4.46242V4.46388V4.46535V4.46681V4.46827V4.46973V4.4712V4.47266V4.47412V4.47558V4.47705V4.47851V4.47997V4.48143V4.48289V4.48436V4.48582V4.48728V4.48874V4.49021V4.49167V4.49313V4.49459V4.49605V4.49752V4.49898V4.50044V4.5019V4.50336V4.50483V4.50629V4.50775V4.50921V4.51067V4.51214V4.5136V4.51506V4.51652V4.51798V4.51944V4.52091V4.52237V4.52383V4.52529V4.52675V4.52821V4.52968V4.53114V4.5326V4.53406V4.53552V4.53698V4.53844V4.53991V4.54137V4.54283V4.54429V4.54575V4.54721V4.54867V4.55013V4.55159V4.55306V4.55452V4.55598V4.55744V4.5589V4.56036V4.56182V4.56328V4.56474V4.5662V4.56766V4.56912V4.57058V4.57205V4.57351V4.57497V4.57643V4.57789V4.57935V4.58081V4.58227V4.58373V4.58519V4.58665V4.58811V4.58957V4.59103V4.59249V4.59395V4.59541V4.59687V4.59833V4.59979V4.60125V4.60271V4.60416V4.60562V4.60708V4.60854V4.61V4.61146V4.61292V4.61438V4.61584V4.6173V4.61876V4.62022V4.62167V4.62313V4.62459V4.62605V4.62751V4.62897V4.63043V4.63188V4.63334V4.6348V4.63626V4.63772V4.63918V4.64063V4.64209V4.64355V4.64501V4.64646V4.64792V4.64938V4.65084V4.65229V4.65375V4.65521V4.65667V4.65812V4.65958V4.66104V4.6625V4.66395V4.66541V4.66687V4.66832V4.66978V4.67124V4.67269V4.67415V4.67561V4.67706V4.67852V4.67997V4.68143V4.68289V4.68434V4.6858V4.68725V4.68871V4.69016V4.69162V4.69308V4.69453V4.69599V4.69744V4.6989V4.70035V4.70181V4.70326V4.70472V4.70617V4.70763V4.70908V4.71053V4.71199V4.71344V4.7149V4.71635V4.71781V4.71926V4.72071V4.72217V4.72362V4.72507V4.72653V4.72798V4.72943V4.73089V4.73234V4.73379V4.73525V4.7367V4.73815V4.73961V4.74106V4.74251V4.74396V4.74542V4.74687V4.74832V4.74977V4.75122V4.75268V4.75413V4.75558V4.75703V4.75848V4.75993V4.76138V4.76283V4.76429V4.76574V4.76719V4.76864V4.77009V4.77154V4.77299V4.77444V4.77589V4.77734V4.77879V4.78024V4.78169V4.78314V4.78459V4.78604V4.78749V4.78894V4.79039V4.79184V4.79328V4.79473V4.79618V4.79763V4.79908V4.80053V4.80198V4.80342V4.80487V4.80632V4.80777V4.80921V4.81066V4.81211V4.81356V4.815V4.81645V4.8179V4.81935V4.82079V4.82224V4.82368V4.82513V4.82658V4.82802V4.82947V4.83092V4.83236V4.83381V4.83525V4.8367V4.83814V4.83959V4.84103V4.84248V4.84392V4.84537V4.84681V4.84826V4.8497V4.85114V4.85259V4.85403V4.85548V4.85692V4.85836V4.85981V4.86125V4.86269V4.86414V4.86558V4.86702V4.86846V4.86991V4.87135V4.87279V4.87423V4.87567V4.87712V4.87856V4.88V5.251V5.56729L5.91302 5.80627C5.90056 5.83343 5.89658 5.86379 5.90172 5.89336C5.90737 5.92587 5.92373 5.95556 5.94819 5.97772L6.16067 6.17011L6.23897 6.44585L6.2565 6.50759C6.3449 6.77391 6.47863 7.023 6.65186 7.24387L6.865 7.51563V7.861V8.16899V8.169C6.865 8.68448 6.66079 9.17897 6.29706 9.54425C5.93333 9.90952 5.4397 10.1158 4.92422 10.118L4.92 10.118L4.41351 10.118C4.10823 10.2542 3.82958 10.4444 3.59116 10.6798C3.35626 10.9117 3.16478 11.1833 3.02527 11.4816L3.00141 12.043H6.62882L7.62882 13.043ZM11.957 13.043H9.04303L8.04303 12.043H10.043L10.5 12.5L10.957 12.043H12V11.5323C11.9466 11.412 11.8848 11.2959 11.8153 11.1848L12.5358 10.4642C12.7099 10.7081 12.8548 10.9725 12.967 11.252L13 11.4V12L11.957 13.043Z" fill="#767676"/>
<path d="M9 11L8 12L10.5 14.5L14.5 10.5L13.5 9.5L10.5 12.5L9 11Z" fill="#767676"/>
</svg>
