<svg width="15" height="15" viewBox="0 0 15 15" fill="none" xmlns="http://www.w3.org/2000/svg">
<path d="M6.77365 2.58847C7.187 2.48303 7.65028 2.47053 8.10761 2.55799L8.10771 2.55801C8.48876 2.63099 8.7922 2.79671 9.00133 3.01853C9.24294 3.27483 9.40712 3.67977 9.41908 4.18549C9.42065 4.39956 9.42055 4.61098 9.42044 4.82406L9.42039 4.98216L9.42039 4.98338L9.41972 5.25582L9.41934 5.41321L9.5088 5.54189L9.50918 5.54244L9.50832 5.54216L9.51418 5.55261L9.52052 5.56276C9.65281 5.7745 9.62234 6.11243 9.42837 6.31325L9.38053 6.35757L9.28317 6.44775L9.24335 6.57434C9.1184 6.97153 8.94904 7.29509 8.73739 7.56863L8.63284 7.70376V7.87461V8.16848C8.63284 8.9643 9.27672 9.61502 10.0736 9.61748L10.7292 9.6283C10.7583 9.63909 10.799 9.65532 10.8492 9.67827C10.9623 9.73003 11.1231 9.81576 11.3074 9.94997C11.6661 10.2112 12.1222 10.6616 12.4913 11.4208L12.5 11.4597V12.0508C12.5 12.0508 12.5 12.0508 12.5 12.0508C12.5 12.3238 12.2789 12.5429 12.0117 12.5429H2.98828C2.72396 12.5429 2.50474 12.3285 2.50008 12.0595L2.52876 11.3802C2.89418 10.6455 3.34034 10.2064 3.69265 9.94995C3.87698 9.81574 4.03775 9.73001 4.15087 9.67825C4.2074 9.65238 4.25194 9.63504 4.28142 9.62442C4.28655 9.62257 4.29123 9.62092 4.29544 9.61946L4.31047 9.61747H4.9219C5.72088 9.61747 6.36721 8.96579 6.36721 8.16845V7.86076V7.68958L6.26229 7.55431C6.0416 7.26978 5.88084 6.96589 5.77936 6.64923L5.75574 6.5735L5.71543 6.44419L5.61535 6.35292C5.38921 6.14666 5.33959 5.81642 5.47428 5.57123L5.4845 5.55262L5.485 5.5515C5.48801 5.54672 5.49202 5.54052 5.49685 5.53333L5.58253 5.40568L5.58169 5.25194L5.57968 4.88229C5.57968 4.88207 5.57968 4.88185 5.57968 4.88163C5.57902 4.63584 5.57903 4.39335 5.58222 4.15178C5.59946 3.75858 5.70514 3.43879 5.86431 3.20489L5.86433 3.20491L5.86714 3.2007C6.05406 2.91995 6.38214 2.68779 6.773 2.58864L6.77365 2.58847Z" stroke="#767676"/>
</svg>
