<svg width="15" height="15" viewBox="0 0 15 15" fill="none" xmlns="http://www.w3.org/2000/svg">
<path d="M3.00133 2.43425C2.81523 2.2068 2.83176 1.87534 3.03957 1.66754C3.14684 1.56027 3.29234 1.5 3.44405 1.5H11.556C11.7077 1.5 11.8532 1.56027 11.9604 1.66754C12.1682 1.87534 12.1848 2.2068 11.9987 2.43425L8.63112 6.55014C8.17904 7.10269 8.17904 7.89731 8.63112 8.44986L11.9987 12.5658C12.1848 12.7932 12.1682 13.1247 11.9604 13.3325C11.8532 13.4397 11.7077 13.5 11.556 13.5H3.44405C3.29234 13.5 3.14684 13.4397 3.03956 13.3325C2.83176 13.1247 2.81523 12.7932 3.00133 12.5658L6.36888 8.44986C6.82096 7.89731 6.82096 7.10269 6.36888 6.55014L3.00133 2.43425Z" stroke="#767676"/>
<path d="M7.5 5L6 3H9L7.5 5Z" fill="#767676"/>
<rect x="7" y="10" width="1" height="1" fill="#767676"/>
<rect x="7" y="12" width="1" height="1" fill="#767676"/>
</svg>
