<svg width="15" height="15" viewBox="0 0 15 15" fill="none" xmlns="http://www.w3.org/2000/svg">
<g clip-path="url(#clip0)">
<path d="M5 8H10L7.5 11L5 8Z" fill="#767676"/>
<rect x="7" y="4" width="1" height="4" fill="#767676"/>
<path fill-rule="evenodd" clip-rule="evenodd" d="M11.3972 3.61759C13.2133 5.43664 13.5548 8.34222 12.0704 10.5596C10.5861 12.7769 7.76961 13.5684 5.39577 12.5827L5.01318 13.5068C7.81863 14.6718 11.1472 13.7364 12.9014 11.1159C14.6557 8.49535 14.252 5.06148 12.1058 2.9117L11.3972 3.61759ZM9.60422 2.4173C7.23038 1.43155 4.4139 2.22307 2.92955 4.44042C1.4452 6.65777 1.78674 9.56336 3.60275 11.3824L2.89416 12.0883C0.747967 9.93852 0.344323 6.50464 2.09856 3.88414C3.85279 1.26363 7.18136 0.328197 9.98681 1.49317L9.60422 2.4173Z" fill="#767676"/>
<path d="M0.767609 11.5698L3.83022 9L4.22728 12.583L0.767609 11.5698Z" fill="#767676"/>
<path d="M11.194 5.99713L14.2582 3.42598L10.7977 2.41342L11.194 5.99713Z" fill="#767676"/>
</g>
<defs>
<clipPath id="clip0">
<path d="M0 0H15V15H0V0Z" fill="white"/>
</clipPath>
</defs>
</svg>
