<svg width="15" height="15" viewBox="0 0 15 15" fill="none" xmlns="http://www.w3.org/2000/svg">
<path fill-rule="evenodd" clip-rule="evenodd" d="M3.5 3L1 1.5V14H14V8.41417L13 9.41417V13L9.41416 13H5.99995L2 13V3.26619L3.56208 4.20344L5.5 2.75L7.5 4.25L9.5 2.75L11.4061 4.1796L13 2.58579L14 3.58583V1.5L11.5 3L9.5 1.5L7.5 3L5.5 1.5L3.5 3ZM10.5857 5H3V6H9.58574L10.5857 5ZM8.58574 7H3V8H7.58574L8.58574 7ZM6.58574 9H3V10H5.99995V9.58579L6.58574 9ZM5.99995 11H3V12H5.99995V11ZM10.4142 12H12V11H11.4142L10.4142 12Z" fill="#767676"/>
<path fill-rule="evenodd" clip-rule="evenodd" d="M8 10.4142V11H8.58578L11.0858 8.5L12.3358 7.25L12.9608 6.625L12.375 6.03921L11.75 6.66421L10.5 7.91421L8 10.4142ZM9 12L7 12L7 10L13 4L15 6L9 12Z" fill="#767676"/>
</svg>
