<svg width="15" height="15" viewBox="0 0 15 15" fill="none" xmlns="http://www.w3.org/2000/svg">
<path d="M3.89654 8.04356C2.5295 6.36617 2.78109 3.89818 4.45847 2.53114V2.53114C4.66815 2.36026 4.97664 2.3917 5.14753 2.60138L6.30962 4.02729C6.63054 4.42107 6.51558 5.00947 6.07003 5.25349L5.88632 5.3541C5.62867 5.49522 5.51787 5.80717 5.6288 6.07919V6.07919C6.13216 7.31356 6.98063 8.3767 8.07261 9.14131L8.20959 9.23723C8.4905 9.43393 8.87743 9.36764 9.07685 9.08866L9.14502 8.99329C9.43018 8.59438 10.0166 8.57584 10.3264 8.95595L11.4903 10.3841C11.6612 10.5938 11.6298 10.9023 11.4201 11.0732V11.0732C9.74272 12.4402 7.27472 12.1887 5.90768 10.5113L3.89654 8.04356Z" stroke="#767676"/>
<path d="M8 6L10 4L11 5L9 7L8 6Z" fill="#767676"/>
<path d="M8 3H12L12 7L8 3Z" fill="#767676"/>
</svg>
