<svg width="15" height="15" viewBox="0 0 15 15" fill="none" xmlns="http://www.w3.org/2000/svg">
<path d="M4.5 4.5C4.5 2.84315 5.84315 1.5 7.5 1.5C9.15685 1.5 10.5 2.84315 10.5 4.5V6.70331C10.5 7.3124 10.659 7.91095 10.9611 8.43979L12.1109 10.4519C12.2677 10.7262 12.2214 11.0715 11.9981 11.2948C11.8667 11.4262 11.6885 11.5 11.5027 11.5H3.49727C3.31148 11.5 3.1333 11.4262 3.00193 11.2948C2.77856 11.0715 2.73233 10.7262 2.88905 10.4519L4.03885 8.43979C4.34105 7.91095 4.5 7.3124 4.5 6.70331V4.5Z" stroke="#767676"/>
<path fill-rule="evenodd" clip-rule="evenodd" d="M6.08535 13C6.03008 13.1564 6 13.3247 6 13.5C6 14.3284 6.67157 15 7.5 15C8.32843 15 9 14.3284 9 13.5C9 13.3247 8.96992 13.1564 8.91465 13H6.08535Z" fill="#767676"/>
</svg>
