<svg width="15" height="15" viewBox="0 0 15 15" fill="none" xmlns="http://www.w3.org/2000/svg">
<path d="M4.89654 8.04356C3.5295 6.36617 3.78109 3.89818 5.45847 2.53114V2.53114C5.66815 2.36026 5.97664 2.3917 6.14753 2.60138L7.30962 4.02729C7.63054 4.42107 7.51558 5.00947 7.07003 5.25349L6.88632 5.3541C6.62867 5.49522 6.51787 5.80717 6.6288 6.07919V6.07919C7.13216 7.31356 7.98063 8.3767 9.07261 9.14131L9.20959 9.23723C9.4905 9.43392 9.87743 9.36764 10.0769 9.08866L10.145 8.99329C10.4302 8.59438 11.0166 8.57584 11.3264 8.95595L12.4903 10.3841C12.6612 10.5938 12.6298 10.9023 12.4201 11.0732V11.0732C10.7427 12.4402 8.27472 12.1887 6.90768 10.5113L4.89654 8.04356Z" stroke="#767676"/>
</svg>
