<svg width="15" height="15" viewBox="0 0 15 15" fill="none" xmlns="http://www.w3.org/2000/svg">
<path d="M8.5 1C8.22386 1 8 1.22386 8 1.5C8 1.77614 8.22386 2 8.5 2V1ZM4.5 4.5V5C4.77614 5 5 4.77614 5 4.5H4.5ZM11.7 9.1L11.4 8.7L11.7 9.1ZM14.267 9.7913L14.6574 10.1036L14.267 9.7913ZM11.4007 13.3741L11.0103 13.0617L11.4007 13.3741ZM12.7984 8.27617L13.0984 8.67617L12.7984 8.27617ZM2 9V11.5H3V9H2ZM5.5 15H9.05813V14H5.5V15ZM11 8.5V8H10V8.5H11ZM12.4984 7.87617L11.4 8.7L12 9.5L13.0984 8.67617L12.4984 7.87617ZM11.7912 13.6864L14.6574 10.1036L13.8765 9.47895L11.0103 13.0617L11.7912 13.6864ZM11 8V2.5H10V8H11ZM9.5 1H8.5V2H9.5V1ZM4 2.5V4.5H5V2.5H4ZM4.5 4H3.5V5H4.5V4ZM2 5.5V9H3V5.5H2ZM6.5 1H5.5V2H6.5V1ZM3.5 4C2.67157 4 2 4.67157 2 5.5H3C3 5.22386 3.22386 5 3.5 5V4ZM7.5 0C6.67157 0 6 0.671573 6 1.5H7C7 1.22386 7.22386 1 7.5 1V0ZM9 1.5C9 0.671573 8.32843 0 7.5 0V1C7.77614 1 8 1.22386 8 1.5H9ZM11 2.5C11 1.67157 10.3284 1 9.5 1V2C9.77614 2 10 2.22386 10 2.5H11ZM10 8.5C10 9.53006 11.176 10.118 12 9.5L11.4 8.7C11.2352 8.82361 11 8.70601 11 8.5H10ZM14.6574 10.1036C14.8792 9.82642 15 9.48197 15 9.12695H14C14 9.2549 13.9565 9.37904 13.8765 9.47895L14.6574 10.1036ZM9.05813 15C10.1214 15 11.127 14.5167 11.7912 13.6864L11.0103 13.0617C10.5359 13.6548 9.81758 14 9.05813 14V15ZM13.0984 8.67617C13.4699 8.39757 14 8.66262 14 9.12695H15C15 7.83858 13.5291 7.10315 12.4984 7.87617L13.0984 8.67617ZM5 2.5C5 2.22386 5.22386 2 5.5 2V1C4.67157 1 4 1.67157 4 2.5H5ZM2 11.5C2 13.433 3.567 15 5.5 15V14C4.11929 14 3 12.8807 3 11.5H2Z" fill="#767676"/>
<rect x="6" y="1" width="1" height="6" fill="#767676"/>
<rect x="8" y="1" width="1" height="6" fill="#767676"/>
<rect x="4" y="4" width="1" height="4" fill="#767676"/>
</svg>
