<svg width="15" height="15" viewBox="0 0 15 15" fill="none" xmlns="http://www.w3.org/2000/svg">
<path fill-rule="evenodd" clip-rule="evenodd" d="M3.5 3L1 1.5V14H6.58582L6.08582 13.5L6.58582 13H2V3.26619L3.56208 4.20344L5.5 2.75L7.5 4.25L9.5 2.75L11.4379 4.20344L13 3.26619V6.58582L13.5 6.08579L14 6.58576V1.5L11.5 3L9.5 1.5L7.5 3L5.5 1.5L3.5 3ZM14 7.99997L13.5 7.5L13 8.00003V10L14 9.00003V7.99997ZM14 13L13 12V13H12L13 14H14V13ZM9.00003 14L10 13H8.00003L7.50003 13.5L8.00003 14H9.00003ZM9.00003 12H11H12V11H10L9.00003 12ZM9.00003 10H11H12V9.00003L11 10L10 9H8.00003L9.00003 10ZM6.58581 9L7.58582 10H3V9H6.58581ZM8.00003 8H9.00003L8.50003 7.5L8.00003 8ZM11.5858 8H10.4142L9.41424 7H12V7.58582L11.5858 8ZM7.58582 7L6.58582 8H3V7H7.58582ZM8.58582 11L7.58582 12H3V11H8.58582ZM3 5V6H12V5H3Z" fill="#767676"/>
<path d="M8.5 7.5L7.5 8.5L10 11L7.5 13.5L8.5 14.5L11 12L13.5 14.5L14.5 13.5L12 11L14.5 8.5L13.5 7.5L11 10L8.5 7.5Z" fill="#767676"/>
</svg>
