<svg width="15" height="15" viewBox="0 0 15 15" fill="none" xmlns="http://www.w3.org/2000/svg">
<path fill-rule="evenodd" clip-rule="evenodd" d="M11 9H12V11H14V12H12V14H11V12H9V11H11V9Z" fill="#767676"/>
<path fill-rule="evenodd" clip-rule="evenodd" d="M4.277 9.051H4.92C5.171 9.04994 5.41135 8.94949 5.58846 8.77163C5.76557 8.59378 5.865 8.353 5.865 8.102V7.794C5.6158 7.47627 5.42455 7.11711 5.3 6.733L5.277 6.652C5.08723 6.48018 4.96034 6.24985 4.91649 5.99764C4.87265 5.74542 4.91436 5.48579 5.035 5.26C5.04858 5.23365 5.06395 5.20825 5.081 5.184V4.813V4.067C5.08848 3.63586 5.21629 3.21538 5.45 2.853C5.7365 2.44235 6.16332 2.15069 6.65 2.033C7.15814 1.90956 7.68707 1.8983 8.2 2C8.64348 2.07531 9.05168 2.28922 9.366 2.611C9.72859 3.02601 9.92579 3.55994 9.92 4.111V4.757V4.916V5.192C9.92903 5.20523 9.93737 5.21892 9.945 5.233C10.0704 5.44897 10.1218 5.70003 10.0913 5.94791C10.0608 6.19579 9.95006 6.42689 9.776 6.606L9.72 6.658C9.59467 7.07335 9.39585 7.46285 9.133 7.808V8.102C9.133 8.353 9.23243 8.59378 9.40954 8.77163C9.56282 8.92556 9.76347 9.02151 9.97739 9.04523L9.51643 9.96715C9.21103 9.87453 8.93019 9.70746 8.70094 9.47725C8.33721 9.11197 8.133 8.61748 8.133 8.10199V7.808V7.47058L8.33743 7.20213C8.52784 6.95212 8.67185 6.66998 8.76264 6.36911L8.84094 6.10963L9.03955 5.92521L9.06779 5.89898C9.08469 5.87801 9.09547 5.85265 9.09878 5.82574C9.10255 5.79508 9.09644 5.76405 9.08135 5.73714L8.92 5.50067V5.192V4.916V4.91569V4.91538V4.91506V4.91475V4.91444V4.91413V4.91381V4.9135V4.91319V4.91288V4.91256V4.91225V4.91194V4.91163V4.91131V4.911V4.91069V4.91038V4.91006V4.90975V4.90944V4.90913V4.90881V4.9085V4.90819V4.90788V4.90757V4.90725V4.90694V4.90663V4.90632V4.906V4.90569V4.90538V4.90507V4.90476V4.90444V4.90413V4.90382V4.90351V4.90319V4.90288V4.90257V4.90226V4.90195V4.90163V4.90132V4.90101V4.9007V4.90038V4.90007V4.89976V4.89945V4.89914V4.89882V4.89851V4.8982V4.89789V4.89758V4.89726V4.89695V4.89664V4.89633V4.89602V4.8957V4.89539V4.89508V4.89477V4.89446V4.89414V4.89383V4.89352V4.89321V4.8929V4.89258V4.89227V4.89196V4.89165V4.89134V4.89102V4.89071V4.8904V4.89009V4.88978V4.88947V4.88915V4.88884V4.88853V4.88822V4.88791V4.88759V4.88728V4.88697V4.88666V4.88635V4.88604V4.88572V4.88541V4.8851V4.88479V4.88448V4.88417V4.88385V4.88354V4.88323V4.88292V4.88261V4.88229V4.88198V4.88167V4.88136V4.88105V4.88074V4.88043V4.88011V4.8798V4.87949V4.87918V4.87887V4.87856V4.87824V4.87793V4.87762V4.87731V4.877V4.87669V4.87637V4.87606V4.87575V4.87544V4.87513V4.87482V4.87451V4.87419V4.87388V4.87357V4.87326V4.87295V4.87264V4.87233V4.87201V4.8717V4.87139V4.87108V4.87077V4.87046V4.87015V4.86983V4.86952V4.86921V4.8689V4.86859V4.86828V4.86797V4.86765V4.86734V4.86703V4.86672V4.86641V4.8661V4.86579V4.86548V4.86516V4.86485V4.86454V4.86423V4.86392V4.86361V4.8633V4.86299V4.86267V4.86236V4.86205V4.86174V4.86143V4.86112V4.86081V4.8605V4.86019V4.85987V4.85956V4.85925V4.85894V4.85863V4.85832V4.85801V4.8577V4.85739V4.85707V4.85676V4.85645V4.85614V4.85583V4.85552V4.85521V4.8549V4.85459V4.85427V4.85396V4.85365V4.85334V4.85303V4.85272V4.85241V4.8521V4.85179V4.85148V4.85117V4.85085V4.85054V4.85023V4.84992V4.84961V4.8493V4.84899V4.84868V4.84837V4.84806V4.84775V4.84744V4.84712V4.84681V4.8465V4.84619V4.84588V4.84557V4.84526V4.84495V4.84464V4.84433V4.84402V4.84371V4.8434V4.84308V4.84277V4.84246V4.84215V4.84184V4.84153V4.84122V4.84091V4.8406V4.84029V4.83998V4.83967V4.83936V4.83905V4.83873V4.83842V4.83811V4.8378V4.83749V4.83718V4.83687V4.83656V4.83625V4.83594V4.83563V4.83532V4.83501V4.8347V4.83439V4.83408V4.83377V4.83346V4.83315V4.83283V4.83252V4.83221V4.8319V4.83159V4.83128V4.83097V4.83066V4.83035V4.83004V4.82973V4.82942V4.82911V4.8288V4.82849V4.82818V4.82787V4.82756V4.82725V4.82694V4.82663V4.82632V4.82601V4.8257V4.82539V4.82508V4.82477V4.82446V4.82414V4.82383V4.82352V4.82321V4.8229V4.82259V4.82228V4.82197V4.82166V4.82135V4.82104V4.82073V4.82042V4.82011V4.8198V4.81949V4.81918V4.81887V4.81856V4.81825V4.81794V4.81763V4.81732V4.81701V4.8167V4.81639V4.81608V4.81577V4.81546V4.81515V4.81484V4.81453V4.81422V4.81391V4.8136V4.81329V4.81298V4.81267V4.81236V4.81205V4.81174V4.81143V4.81112V4.81081V4.8105V4.81019V4.80988V4.80957V4.80926V4.80895V4.80864V4.80833V4.80802V4.80771V4.8074V4.80709V4.80678V4.80647V4.80616V4.80585V4.80554V4.80523V4.80492V4.80461V4.8043V4.80399V4.80368V4.80338V4.80307V4.80276V4.80245V4.80214V4.80183V4.80152V4.80121V4.8009V4.80059V4.80028V4.79997V4.79966V4.79935V4.79904V4.79873V4.79842V4.79811V4.7978V4.79749V4.79718V4.79687V4.79656V4.79625V4.79594V4.79563V4.79532V4.79501V4.79471V4.7944V4.79409V4.79378V4.79347V4.79316V4.79285V4.79254V4.79223V4.79192V4.79161V4.7913V4.79099V4.79068V4.79037V4.79006V4.78975V4.78944V4.78914V4.78883V4.78852V4.78821V4.7879V4.78759V4.78728V4.78697V4.78666V4.78635V4.78604V4.78573V4.78542V4.78511V4.7848V4.7845V4.78419V4.78388V4.78357V4.78326V4.78295V4.78264V4.78233V4.78202V4.78171V4.7814V4.78109V4.78078V4.78048V4.78017V4.77986V4.77955V4.77924V4.77893V4.77862V4.77831V4.778V4.77769V4.77738V4.77707V4.77677V4.77646V4.77615V4.77584V4.77553V4.77522V4.77491V4.7746V4.77429V4.77398V4.77368V4.77337V4.77306V4.77275V4.77244V4.77213V4.77182V4.77151V4.7712V4.77089V4.77059V4.77028V4.76997V4.76966V4.76935V4.76904V4.76873V4.76842V4.76811V4.76781V4.7675V4.76719V4.76688V4.76657V4.76626V4.76595V4.76564V4.76534V4.76503V4.76472V4.76441V4.7641V4.76379V4.76348V4.76317V4.76286V4.76256V4.76225V4.76194V4.76163V4.76132V4.76101V4.7607V4.7604V4.76009V4.75978V4.75947V4.75916V4.75885V4.75854V4.75823V4.75793V4.75762V4.75731V4.757V4.75575V4.75449V4.75324V4.75198V4.75073V4.74948V4.74822V4.74697V4.74571V4.74446V4.74321V4.74195V4.7407V4.73944V4.73819V4.73693V4.73568V4.73443V4.73317V4.73192V4.73066V4.72941V4.72815V4.7269V4.72565V4.72439V4.72314V4.72188V4.72063V4.71937V4.71812V4.71686V4.71561V4.71435V4.7131V4.71184V4.71059V4.70933V4.70808V4.70683V4.70557V4.70432V4.70306V4.70181V4.70055V4.6993V4.69804V4.69679V4.69553V4.69428V4.69302V4.69177V4.69051V4.68925V4.688V4.68674V4.68549V4.68423V4.68298V4.68172V4.68047V4.67921V4.67796V4.6767V4.67545V4.67419V4.67293V4.67168V4.67042V4.66917V4.66791V4.66666V4.6654V4.66415V4.66289V4.66163V4.66038V4.65912V4.65787V4.65661V4.65535V4.6541V4.65284V4.65159V4.65033V4.64907V4.64782V4.64656V4.64531V4.64405V4.64279V4.64154V4.64028V4.63903V4.63777V4.63651V4.63526V4.634V4.63274V4.63149V4.63023V4.62897V4.62772V4.62646V4.62521V4.62395V4.62269V4.62144V4.62018V4.61892V4.61767V4.61641V4.61515V4.6139V4.61264V4.61138V4.61012V4.60887V4.60761V4.60635V4.6051V4.60384V4.60258V4.60133V4.60007V4.59881V4.59755V4.5963V4.59504V4.59378V4.59253V4.59127V4.59001V4.58875V4.5875V4.58624V4.58498V4.58372V4.58247V4.58121V4.57995V4.57869V4.57744V4.57618V4.57492V4.57366V4.57241V4.57115V4.56989V4.56863V4.56737V4.56612V4.56486V4.5636V4.56234V4.56108V4.55983V4.55857V4.55731V4.55605V4.55479V4.55354V4.55228V4.55102V4.54976V4.5485V4.54724V4.54599V4.54473V4.54347V4.54221V4.54095V4.53969V4.53843V4.53718V4.53592V4.53466V4.5334V4.53214V4.53088V4.52962V4.52837V4.52711V4.52585V4.52459V4.52333V4.52207V4.52081V4.51955V4.51829V4.51703V4.51578V4.51452V4.51326V4.512V4.51074V4.50948V4.50822V4.50696V4.5057V4.50444V4.50318V4.50192V4.50066V4.4994V4.49814V4.49689V4.49563V4.49437V4.49311V4.49185V4.49059V4.48933V4.48807V4.48681V4.48555V4.48429V4.48303V4.48177V4.48051V4.47925V4.47799V4.47673V4.47547V4.47421V4.47295V4.47169V4.47043V4.46917V4.46791V4.46665V4.46538V4.46412V4.46286V4.4616V4.46034V4.45908V4.45782V4.45656V4.4553V4.45404V4.45278V4.45152V4.45026V4.449V4.44774V4.44648V4.44521V4.44395V4.44269V4.44143V4.44017V4.43891V4.43765V4.43639V4.43513V4.43386V4.4326V4.43134V4.43008V4.42882V4.42756V4.4263V4.42503V4.42377V4.42251V4.42125V4.41999V4.41873V4.41746V4.4162V4.41494V4.41368V4.41242V4.41116V4.40989V4.40863V4.40737V4.40611V4.40485V4.40358V4.40232V4.40106V4.3998V4.39854V4.39727V4.39601V4.39475V4.39349V4.39222V4.39096V4.3897V4.38844V4.38717V4.38591V4.38465V4.38339V4.38212V4.38086V4.3796V4.37833V4.37707V4.37581V4.37455V4.37328V4.37202V4.37076V4.36949V4.36823V4.36697V4.3657V4.36444V4.36318V4.36191V4.36065V4.35939V4.35812V4.35686V4.3556V4.35433V4.35307V4.35181V4.35054V4.34928V4.34802V4.34675V4.34549V4.34422V4.34296V4.3417V4.34043V4.33917V4.33791V4.33664V4.33538V4.33411V4.33285V4.33158V4.33032V4.32906V4.32779V4.32653V4.32526V4.324V4.32273V4.32147V4.32021V4.31894V4.31768V4.31641V4.31515V4.31388V4.31262V4.31135V4.31009V4.30882V4.30756V4.30629V4.30503V4.30376V4.3025V4.30123V4.29997V4.2987V4.29744V4.29617V4.29491V4.29364V4.29238V4.29111V4.28985V4.28858V4.28731V4.28605V4.28478V4.28352V4.28225V4.28099V4.27972V4.27845V4.27719V4.27592V4.27466V4.27339V4.27213V4.27086V4.26959V4.26833V4.26706V4.26579V4.26453V4.26326V4.262V4.26073V4.25946V4.2582V4.25693V4.25566V4.2544V4.25313V4.25186V4.2506V4.24933V4.24806V4.2468V4.24553V4.24426V4.243V4.24173V4.24046V4.23919V4.23793V4.23666V4.23539V4.23413V4.23286V4.23159V4.23032V4.22906V4.22779V4.22652V4.22525V4.22399V4.22272V4.22145V4.22018V4.21892V4.21765V4.21638V4.21511V4.21384V4.21258V4.21131V4.21004V4.20877V4.2075V4.20624V4.20497V4.2037V4.20243V4.20116V4.19989V4.19863V4.19736V4.19609V4.19482V4.19355V4.19228V4.19101V4.18975V4.18848V4.18721V4.18594V4.18467V4.1834V4.18213V4.18086V4.1796V4.17833V4.17706V4.17579V4.17452V4.17325V4.17198V4.17071V4.16944V4.16817V4.1669V4.16563V4.16436V4.16309V4.16182V4.16055V4.15928V4.15801V4.15674V4.15547V4.1542V4.15293V4.15166V4.15039V4.14912V4.14785V4.14658V4.14531V4.14404V4.14277V4.1415V4.14023V4.13896V4.13769V4.13642V4.13515V4.13388V4.13261V4.13134V4.13007V4.1288V4.12753V4.12625V4.12498V4.12371V4.12244V4.12117V4.1199V4.11863V4.11736V4.11609V4.11481V4.11354V4.11227V4.111V4.1005L8.92006 4.1005C8.92316 3.80439 8.82055 3.51721 8.6312 3.29033C8.46736 3.13058 8.25861 3.02427 8.03258 2.98589L8.01901 2.98358L8.00551 2.9809C7.63506 2.90745 7.25305 2.91559 6.88606 3.00474L6.88505 3.00498C6.6414 3.0639 6.42703 3.20791 6.28039 3.41073C6.15535 3.61079 6.08644 3.8409 6.081 4.0769V4.07717V4.07863V4.08008V4.08154V4.08299V4.08444V4.0859V4.08735V4.08881V4.09026V4.09172V4.09317V4.09463V4.09608V4.09754V4.09899V4.10045V4.1019V4.10336V4.10481V4.10627V4.10772V4.10918V4.11063V4.11209V4.11354V4.115V4.11646V4.11791V4.11937V4.12082V4.12228V4.12374V4.12519V4.12665V4.12811V4.12956V4.13102V4.13248V4.13393V4.13539V4.13685V4.1383V4.13976V4.14122V4.14268V4.14413V4.14559V4.14705V4.14851V4.14996V4.15142V4.15288V4.15434V4.15579V4.15725V4.15871V4.16017V4.16163V4.16308V4.16454V4.166V4.16746V4.16892V4.17038V4.17183V4.17329V4.17475V4.17621V4.17767V4.17913V4.18059V4.18205V4.18351V4.18496V4.18642V4.18788V4.18934V4.1908V4.19226V4.19372V4.19518V4.19664V4.1981V4.19956V4.20102V4.20248V4.20394V4.2054V4.20686V4.20832V4.20978V4.21124V4.2127V4.21416V4.21562V4.21708V4.21854V4.22V4.22146V4.22292V4.22438V4.22584V4.2273V4.22876V4.23022V4.23168V4.23314V4.2346V4.23606V4.23752V4.23898V4.24044V4.24191V4.24337V4.24483V4.24629V4.24775V4.24921V4.25067V4.25213V4.25359V4.25506V4.25652V4.25798V4.25944V4.2609V4.26236V4.26382V4.26528V4.26675V4.26821V4.26967V4.27113V4.27259V4.27405V4.27552V4.27698V4.27844V4.2799V4.28136V4.28282V4.28429V4.28575V4.28721V4.28867V4.29013V4.2916V4.29306V4.29452V4.29598V4.29744V4.29891V4.30037V4.30183V4.30329V4.30475V4.30622V4.30768V4.30914V4.3106V4.31206V4.31353V4.31499V4.31645V4.31791V4.31938V4.32084V4.3223V4.32376V4.32522V4.32669V4.32815V4.32961V4.33107V4.33254V4.334V4.33546V4.33692V4.33839V4.33985V4.34131V4.34277V4.34424V4.3457V4.34716V4.34862V4.35009V4.35155V4.35301V4.35447V4.35594V4.3574V4.35886V4.36032V4.36179V4.36325V4.36471V4.36617V4.36764V4.3691V4.37056V4.37202V4.37349V4.37495V4.37641V4.37787V4.37934V4.3808V4.38226V4.38372V4.38519V4.38665V4.38811V4.38957V4.39104V4.3925V4.39396V4.39542V4.39688V4.39835V4.39981V4.40127V4.40273V4.4042V4.40566V4.40712V4.40858V4.41005V4.41151V4.41297V4.41443V4.4159V4.41736V4.41882V4.42028V4.42174V4.42321V4.42467V4.42613V4.42759V4.42905V4.43052V4.43198V4.43344V4.4349V4.43636V4.43783V4.43929V4.44075V4.44221V4.44367V4.44514V4.4466V4.44806V4.44952V4.45098V4.45245V4.45391V4.45537V4.45683V4.45829V4.45975V4.46121V4.46268V4.46414V4.4656V4.46706V4.46852V4.46998V4.47144V4.47291V4.47437V4.47583V4.47729V4.47875V4.48021V4.48167V4.48313V4.4846V4.48606V4.48752V4.48898V4.49044V4.4919V4.49336V4.49482V4.49628V4.49774V4.4992V4.50066V4.50213V4.50359V4.50505V4.50651V4.50797V4.50943V4.51089V4.51235V4.51381V4.51527V4.51673V4.51819V4.51965V4.52111V4.52257V4.52403V4.52549V4.52695V4.52841V4.52987V4.53133V4.53279V4.53425V4.53571V4.53717V4.53862V4.54008V4.54154V4.543V4.54446V4.54592V4.54738V4.54884V4.5503V4.55176V4.55322V4.55467V4.55613V4.55759V4.55905V4.56051V4.56197V4.56343V4.56488V4.56634V4.5678V4.56926V4.57072V4.57218V4.57363V4.57509V4.57655V4.57801V4.57947V4.58092V4.58238V4.58384V4.5853V4.58675V4.58821V4.58967V4.59112V4.59258V4.59404V4.5955V4.59695V4.59841V4.59987V4.60132V4.60278V4.60424V4.60569V4.60715V4.60861V4.61006V4.61152V4.61297V4.61443V4.61589V4.61734V4.6188V4.62025V4.62171V4.62317V4.62462V4.62608V4.62753V4.62899V4.63044V4.6319V4.63335V4.63481V4.63626V4.63772V4.63917V4.64063V4.64208V4.64354V4.64499V4.64644V4.6479V4.64935V4.65081V4.65226V4.65371V4.65517V4.65662V4.65808V4.65953V4.66098V4.66244V4.66389V4.66534V4.66679V4.66825V4.6697V4.67115V4.67261V4.67406V4.67551V4.67696V4.67842V4.67987V4.68132V4.68277V4.68422V4.68568V4.68713V4.68858V4.69003V4.69148V4.69293V4.69438V4.69584V4.69729V4.69874V4.70019V4.70164V4.70309V4.70454V4.70599V4.70744V4.70889V4.71034V4.71179V4.71324V4.71469V4.71614V4.71759V4.71904V4.72049V4.72194V4.72339V4.72484V4.72629V4.72773V4.72918V4.73063V4.73208V4.73353V4.73498V4.73642V4.73787V4.73932V4.74077V4.74222V4.74366V4.74511V4.74656V4.748V4.74945V4.7509V4.75235V4.75379V4.75524V4.75669V4.75813V4.75958V4.76102V4.76247V4.76392V4.76536V4.76681V4.76825V4.7697V4.77114V4.77259V4.77403V4.77548V4.77692V4.77837V4.77981V4.78126V4.7827V4.78415V4.78559V4.78703V4.78848V4.78992V4.79136V4.79281V4.79425V4.79569V4.79714V4.79858V4.80002V4.80146V4.80291V4.80435V4.80579V4.80723V4.80868V4.81012V4.81156V4.813V5.184V5.50029L5.91302 5.73928C5.90056 5.76643 5.89658 5.79679 5.90172 5.82636C5.90737 5.85887 5.92373 5.88857 5.94819 5.91072L6.16067 6.10311L6.23897 6.37885L6.2565 6.44059C6.3449 6.70691 6.47863 6.956 6.65186 7.17687L6.865 7.44863V7.794V8.10199V8.102C6.865 8.61748 6.66079 9.11198 6.29706 9.47725C5.93333 9.84252 5.4397 10.0488 4.92422 10.051L4.92 10.051L4.41351 10.051C4.10823 10.1872 3.82958 10.3774 3.59116 10.6128C3.35627 10.8447 3.16478 11.1163 3.02527 11.4146L3.00141 11.976H8V12.976H2.988C2.72621 12.9752 2.47537 12.8709 2.29025 12.6857C2.10514 12.5006 2.00079 12.2498 2 11.988L2.034 11.188C2.22736 10.7049 2.51826 10.2668 2.88853 9.90122C3.25881 9.5356 3.70049 9.25025 4.186 9.063L4.277 9.051Z" fill="#767676"/>
</svg>
