<svg width="16" height="16" viewBox="0 0 16 16" fill="#ffffff" xmlns="http://www.w3.org/2000/svg">
<path fill-rule="evenodd" clip-rue="evenodd" d="M8 15C11.866 15 15 11.866 15 8C15 4.13401 11.866 1 8 1C4.13401 1 1 4.13401 1 8C1 11.866 4.13401 15 8 15ZM7.96899 12.9723C10.7133 12.9913 12.9533 10.782 12.9723 8.03775C12.9913 5.29348 10.7821 3.0534 8.03779 3.0344C5.29352 3.0154 3.05345 5.22467 3.03445 7.96894C3.01545 10.7132 5.22472 12.9533 7.96899 12.9723Z"/>
<path d="M5.5 5.5L10.5 10.5" stroke-width="2"/>
<path d="M5.5 10.5L10.5 5.5" stroke-width="2"/>
</svg>
