<svg width="15" height="15" viewBox="0 0 15 15" fill="none" xmlns="http://www.w3.org/2000/svg">
<path fill-rule="evenodd" clip-rule="evenodd" d="M2 2.1L3.5 3L5.5 1.5L7.5 3L9.5 1.5L11.5 3L13 2.1L14 1.5V2.66619V8.58576L13.5 8.08579L13 8.58581V3.26619L12.0145 3.85749L11.4379 4.20344L10.9 3.8L9.5 2.75L8.1 3.8L7.5 4.25L6.9 3.8L5.5 2.75L4.1 3.8L3.56208 4.20344L2.9855 3.85749L2 3.26619V13H7.58582L8.58582 14H2H1V13V2.66619V1.5L2 2.1ZM11 14H10L9.00003 13H12L11 14ZM14 9.99997V11L13 12V10L13.5 9.5L14 9.99997Z" fill="#767676"/>
<path fill-rule="evenodd" clip-rule="evenodd" d="M3 5H12V6H3V5ZM3 7H12V8H3V7ZM12 9H3V10H8.58582L9.00003 9.58579L9.41424 10H11.5858L12 9.58581V9ZM7.58582 11L6.58582 12H3V11H7.58582ZM9.00003 11L10 12H8.00003L9.00003 11ZM11 12L12 11V12H11Z" fill="#767676"/>
<path d="M9 11L8 12L10.5 14.5L14.5 10.5L13.5 9.5L10.5 12.5L9 11Z" fill="#767676"/>
</svg>
