<svg width="15" height="15" viewBox="0 0 15 15" fill="none" xmlns="http://www.w3.org/2000/svg">
<path fill-rule="evenodd" clip-rule="evenodd" d="M8.31641 3H10C11.6569 3 13 4.34315 13 6V11C13 12.6569 11.6569 14 10 14H5C3.34315 14 2 12.6569 2 11V7.15021L3 7.89047V11C3 12.1046 3.89543 13 5 13H10C11.1046 13 12 12.1046 12 11V6C12 4.89543 11.1046 4 10 4H8.7179L8.31641 3Z" fill="#767676"/>
<path d="M4 6L4 1L1 3.5L4 6Z" fill="#767676"/>
<path d="M4 3.5C5.96875 3.5 7.5 4.5 7.5 9" stroke="#767676"/>
</svg>
