<svg width="15" height="15" viewBox="0 0 15 15" fill="none" xmlns="http://www.w3.org/2000/svg">
<circle cx="4.5" cy="10.5" r="1.5" fill="#767676"/>
<path fill-rule="evenodd" clip-rule="evenodd" d="M11.813 12.1719C11.9354 11.6343 12 11.0747 12 10.5C12 6.35786 8.64214 3 4.50001 3C3.9253 3 3.3657 3.06464 2.82806 3.18705L2.97692 4.17943C3.46547 4.06213 3.97548 4 4.50001 4C8.08986 4 11 6.91015 11 10.5C11 11.0245 10.9379 11.5345 10.8206 12.0231L11.813 12.1719ZM9.82698 11.874C9.93993 11.4349 10 10.9744 10 10.5C10 7.46243 7.53757 5 4.50001 5C4.02556 5 3.56515 5.06007 3.12596 5.17303L3.27531 6.16866C3.66468 6.05879 4.07548 6 4.50001 6C6.98529 6 9.00001 8.01472 9.00001 10.5C9.00001 10.9245 8.94122 11.3353 8.83134 11.7247L9.82698 11.874ZM7.83189 11.5748C7.94105 11.2361 8.00001 10.875 8.00001 10.5C8.00001 8.567 6.433 7 4.50001 7C4.12505 7 3.76387 7.05896 3.42522 7.16812L3.57643 8.17614C3.86215 8.06248 4.17378 8 4.50001 8C5.88072 8 7.00001 9.11929 7.00001 10.5C7.00001 10.8262 6.93752 11.1379 6.82387 11.4236L7.83189 11.5748Z" fill="#767676"/>
</svg>
