<svg width="15" height="15" viewBox="0 0 15 15" fill="none" xmlns="http://www.w3.org/2000/svg">
<path d="M10 5L8 7" stroke="#767676"/>
<path d="M8 9L7 10C6.44772 10.5523 5.55228 10.5523 5 10C4.44772 9.44771 4.44772 8.55228 5 8L6 7C6.55228 6.44772 7.44772 6.44772 8 7C8.55228 7.55228 8.55228 8.44772 8 9Z" stroke="#767676"/>
<path d="M13 4L12 5C11.4477 5.55228 10.5523 5.55228 10 5C9.44772 4.44772 9.44772 3.55228 10 3L11 2C11.5523 1.44772 12.4477 1.44772 13 2C13.5523 2.55228 13.5523 3.44772 13 4Z" stroke="#767676"/>
<path fill-rule="evenodd" clip-rule="evenodd" d="M6 4H4C2.89543 4 2 4.89543 2 6V11C2 12.1046 2.89543 13 4 13H9C10.1046 13 11 12.1046 11 11V9H12V11C12 12.6569 10.6569 14 9 14H4C2.34315 14 1 12.6569 1 11V6C1 4.34315 2.34315 3 4 3H6V4Z" fill="#767676"/>
</svg>
