<svg width="15" height="15" viewBox="0 0 15 15" fill="none" xmlns="http://www.w3.org/2000/svg">
<path fill-rule="evenodd" clip-rule="evenodd" d="M12 7.5C12 9.98528 9.98529 12 7.50001 12C6.21017 12 5.04707 11.4573 4.22658 10.5878L3.50188 11.2769C4.50454 12.3379 5.92496 13 7.50001 13C10.5376 13 13 10.5376 13 7.5C13 4.46243 10.5376 2 7.50001 2C4.63099 2 2.27504 4.19675 2.02243 7H3.02747C3.2762 4.75002 5.18373 3 7.50001 3C9.98529 3 12 5.01472 12 7.5Z" fill="#767676"/>
<path d="M0.5 7H4.5L2.5 9.5L0.5 7Z" fill="#767676"/>
<rect x="7" y="4" width="1" height="4" fill="#767676"/>
<rect x="7" y="8" width="0.998923" height="3.0052" transform="rotate(-45 7 8)" fill="#767676"/>
</svg>
