<svg width="15" height="15" viewBox="0 0 15 15" fill="none" xmlns="http://www.w3.org/2000/svg">
<path d="M8 7L6 9" stroke="#767676"/>
<path d="M6 11L5 12C4.44772 12.5523 3.55228 12.5523 3 12C2.44772 11.4477 2.44772 10.5523 3 10L4 9C4.55228 8.44772 5.44772 8.44772 6 9C6.55228 9.55228 6.55228 10.4477 6 11Z" stroke="#767676"/>
<path d="M11 6L10 7C9.44772 7.55228 8.55228 7.55228 8 7C7.44772 6.44772 7.44772 5.55228 8 5L9 4C9.55228 3.44772 10.4477 3.44772 11 4C11.5523 4.55228 11.5523 5.44772 11 6Z" stroke="#767676"/>
</svg>
