<svg width="32" height="32" viewBox="0 0 32 32" fill="none" xmlns="http://www.w3.org/2000/svg">
<path d="M29.5 25.1868V23.3736V18.6392V14.5696V11.4469V10.8123V8.80769V6.61172C29.5 5.48508 28.6406 4.5 27.5019 4.5H12.3143H9.1408H2.49806C1.35942 4.5 0.5 5.48508 0.5 6.61172V23.3736V25.1868C0.5 26.4252 1.44903 27.5 2.68532 27.5H27.3147C28.551 27.5 29.5 26.4252 29.5 25.1868Z" fill="#FEFEFE" stroke="#333333"/>
<path fill-rule="evenodd" clip-rule="evenodd" d="M1 10H29V6.49835C29 5.75369 28.3368 5 27.5175 5H2.48247C1.66321 5 1 5.75369 1 6.49835V10Z" fill="#BDECFF"/>
<path d="M29 9H1V10H29V9Z" fill="#333333"/>
<path fill-rule="evenodd" clip-rule="evenodd" d="M3.88965 18.2654C3.88965 18.1782 3.95753 18.1006 4.0448 18.1006H6.43025C6.51753 18.1006 6.58541 18.1782 6.58541 18.2654C6.58541 18.3527 6.51753 18.4303 6.43025 18.4303H4.0545C3.96722 18.4303 3.88965 18.3624 3.88965 18.2654Z" fill="#333333"/>
<path d="M3.5 12.5H12.4998V18.5H3.5V12.5Z" fill="#BDECFF" stroke="#333333"/>
<path fill-rule="evenodd" clip-rule="evenodd" d="M3 8C2.44444 8 2 7.55319 2 7C2 6.44681 2.44444 6 3 6C3.55556 6 4 6.44681 4 7C3.98889 7.55319 3.54444 8 3 8Z" fill="#333333"/>
<path fill-rule="evenodd" clip-rule="evenodd" d="M6 8C5.44444 8 5 7.55319 5 7C5 6.44681 5.44444 6 6 6C6.55556 6 7 6.44681 7 7C6.98889 7.55319 6.54444 8 6 8Z" fill="#333333"/>
<path fill-rule="evenodd" clip-rule="evenodd" d="M9 8C8.44444 8 8 7.55319 8 7C8 6.44681 8.44444 6 9 6C9.55556 6 10 6.44681 10 7C9.98889 7.55319 9.54444 8 9 8Z" fill="#333333"/>
<path fill-rule="evenodd" clip-rule="evenodd" d="M15 13.5C15 13.2239 15.2239 13 15.5 13H24.5C24.7761 13 25 13.2239 25 13.5V13.5C25 13.7761 24.7761 14 24.5 14H15.5C15.2239 14 15 13.7761 15 13.5V13.5Z" fill="#333333"/>
<path fill-rule="evenodd" clip-rule="evenodd" d="M3 21.5C3 21.2239 3.22386 21 3.5 21H10.5C10.7761 21 11 21.2239 11 21.5V21.5C11 21.7761 10.7761 22 10.5 22H3.5C3.22386 22 3 21.7761 3 21.5V21.5Z" fill="#333333"/>
<path fill-rule="evenodd" clip-rule="evenodd" d="M3 23.5C3 23.2239 3.22386 23 3.5 23H14.5C14.7761 23 15 23.2239 15 23.5V23.5C15 23.7761 14.7761 24 14.5 24H3.5C3.22386 24 3 23.7761 3 23.5V23.5Z" fill="#333333"/>
<path fill-rule="evenodd" clip-rule="evenodd" d="M13 21.5C13 21.2239 13.2239 21 13.5 21H15.5C15.7761 21 16 21.2239 16 21.5V21.5C16 21.7761 15.7761 22 15.5 22H13.5C13.2239 22 13 21.7761 13 21.5V21.5Z" fill="#333333"/>
<path fill-rule="evenodd" clip-rule="evenodd" d="M15 15.5C15 15.2239 15.2239 15 15.5 15H21.5C21.7761 15 22 15.2239 22 15.5V15.5C22 15.7761 21.7761 16 21.5 16H15.5C15.2239 16 15 15.7761 15 15.5V15.5Z" fill="#333333"/>
<path fill-rule="evenodd" clip-rule="evenodd" d="M15 17.5C15 17.2239 15.2239 17 15.5 17H18.5C18.7761 17 19 17.2239 19 17.5V17.5C19 17.7761 18.7761 18 18.5 18H15.5C15.2239 18 15 17.7761 15 17.5V17.5Z" fill="#333333"/>
<path fill-rule="evenodd" clip-rule="evenodd" d="M27.5 21.0001V21.0001C27.7761 21.0001 28 21.2239 28 21.5V25.5001C28 25.7762 27.7761 26.0001 27.5 26.0001V26.0001V26.0001C27.2239 26.0001 27 25.7762 27 25.5001V21.5001C27 21.2239 27.2239 21.0001 27.5 21.0001V21.0001Z" fill="#CCCCCC"/>
<path fill-rule="evenodd" clip-rule="evenodd" d="M27.6421 17.7041C27.8389 17.5064 27.8358 17.1858 27.6352 16.9919L25.9285 15.3424C25.732 15.1525 25.4194 15.1555 25.2266 15.3493L18.7491 21.8581C18.6812 21.9264 18.6344 22.0128 18.6144 22.107L18.1638 24.2287C18.0876 24.5874 18.4106 24.9033 18.7675 24.8193L20.9713 24.3004C21.0621 24.279 21.1452 24.2326 21.2111 24.1664L27.6421 17.7041Z" fill="url(#paint0_linear_125_5375)" stroke="#333333"/>
<defs>
<linearGradient id="paint0_linear_125_5375" x1="18" y1="14.6094" x2="28" y2="25" gradientUnits="userSpaceOnUse">
<stop stop-color="#FFC671"/>
<stop offset="0.59375" stop-color="#FF7541"/>
<stop offset="1" stop-color="#FF6F3D"/>
</linearGradient>
</defs>
</svg>
