<svg width="32" height="32" viewBox="0 0 32 32" fill="none" xmlns="http://www.w3.org/2000/svg">
<path d="M29 0.500216L3.00029 0.500015C1.61959 0.500005 0.500294 1.61928 0.500276 2.99998L0.500026 22C0.500008 23.3807 1.6193 24.5 3.00003 24.5H29C30.3807 24.5 31.5 23.3807 31.5 22V3.00022C31.5 1.61951 30.3807 0.500227 29 0.500216Z" fill="#FEFEFE" stroke="#333333"/>
<path d="M12 24.5H11.5V25V28V28.5H12H20H20.5V28V25V24.5H20H12Z" fill="#EFEFEF" stroke="#333333"/>
<path d="M9.59745 29.5H22.3409C22.6569 29.5 22.9468 29.4109 23.1656 29.2233C23.3859 29.0343 23.5047 28.7679 23.4999 28.4913C23.4896 27.9033 22.974 27.5 22.3409 27.5H9.59745C8.96396 27.5 8.51905 27.947 8.50064 28.4828C8.49174 28.7419 8.58716 29.0078 8.79514 29.2058C9.00424 29.405 9.28814 29.5 9.59745 29.5Z" fill="white" stroke="#333333"/>
<path fill-rule="evenodd" clip-rule="evenodd" d="M30.9905 19H1V22.3399C1 23.2534 1.72083 24 2.60291 24H12.0212H19.9693H29.3971C30.2792 24 31 23.2534 31 22.3399V19H30.9905Z" fill="#BDECFF"/>
<path fill-rule="evenodd" clip-rule="evenodd" d="M22 4.98901V3H3.86407C3.38931 3 3 3.45055 3 4C3 4.54945 3.38931 5 3.86407 5H22V4.98901Z" fill="#FEFEFE"/>
<path fill-rule="evenodd" clip-rule="evenodd" d="M3 4.5C3 3.74547 3.54709 3 4.36407 3H23V6H4.36407C3.54709 6 3 5.25453 3 4.5ZM4.36407 4C4.23152 4 4 4.15563 4 4.5C4 4.84437 4.23152 5 4.36407 5H22V4H4.36407Z" fill="#333333"/>
<path d="M27.6382 5.5H20.5V3.5H27.6382C28.0967 3.5 28.5 3.89535 28.5 4.5C28.5 5.10855 28.1084 5.5 27.6382 5.5Z" fill="url(#paint0_linear_125_5410)" stroke="#333333"/>
<path fill-rule="evenodd" clip-rule="evenodd" d="M16 21C16.5495 21 17 21.4505 17 22C17 22.5494 16.5495 23 16 23C15.4505 23 15 22.5494 15 22C15 21.4396 15.4505 21 16 21Z" fill="#333333"/>
<path fill-rule="evenodd" clip-rule="evenodd" d="M28.6421 10.7041C28.8389 10.5064 28.8358 10.1858 28.6352 9.99191L26.9285 8.34243C26.732 8.15251 26.4194 8.15555 26.2266 8.34926L19.7491 14.8581C19.6812 14.9264 19.6344 15.0128 19.6144 15.107L19.1638 17.2287C19.0876 17.5874 19.4106 17.9033 19.7675 17.8193L21.9713 17.3004C22.0621 17.279 22.1452 17.2326 22.2111 17.1664L28.6421 10.7041Z" fill="url(#paint1_linear_125_5410)" stroke="#333333"/>
<path fill-rule="evenodd" clip-rule="evenodd" d="M29.5 13.0001V13.0001C29.7761 13.0001 30 13.2239 30 13.5V17.5001C30 17.7762 29.7761 18.0001 29.5 18.0001V18.0001V18.0001C29.2239 18.0001 29 17.7762 29 17.5001V13.5001C29 13.2239 29.2239 13.0001 29.5 13.0001V13.0001Z" fill="#CCCCCC"/>
<path d="M11.5669 8.5H4.44065C3.87894 8.5 3.5 8.98972 3.5 9.49161V13.5084C3.5 14.0043 3.86584 14.5 4.44065 14.5H11.5591C12.1208 14.5 12.4998 14.0103 12.4998 13.5084V9.49742C12.5099 8.98574 12.1244 8.5 11.5669 8.5Z" fill="#BDECFF" stroke="#333333"/>
<path fill-rule="evenodd" clip-rule="evenodd" d="M15 9.5C15 9.22386 15.2239 9 15.5 9H21.5C21.7761 9 22 9.22386 22 9.5V9.5C22 9.77614 21.7761 10 21.5 10H15.5C15.2239 10 15 9.77614 15 9.5V9.5Z" fill="#333333"/>
<path fill-rule="evenodd" clip-rule="evenodd" d="M0 19.5C0 19.2239 0.223858 19 0.5 19H31.5C31.7761 19 32 19.2239 32 19.5V19.5C32 19.7761 31.7761 20 31.5 20H0.5C0.223858 20 0 19.7761 0 19.5V19.5Z" fill="#333333"/>
<path fill-rule="evenodd" clip-rule="evenodd" d="M15 11.5C15 11.2239 15.2239 11 15.5 11H19.5C19.7761 11 20 11.2239 20 11.5V11.5C20 11.7761 19.7761 12 19.5 12H15.5C15.2239 12 15 11.7761 15 11.5V11.5Z" fill="#333333"/>
<path fill-rule="evenodd" clip-rule="evenodd" d="M15 13.5C15 13.2239 15.2239 13 15.5 13H17.5C17.7761 13 18 13.2239 18 13.5V13.5C18 13.7761 17.7761 14 17.5 14H15.5C15.2239 14 15 13.7761 15 13.5V13.5Z" fill="#333333"/>
<defs>
<linearGradient id="paint0_linear_125_5410" x1="20" y1="2.88281" x2="21.7465" y2="8.32694" gradientUnits="userSpaceOnUse">
<stop stop-color="#FF8E3D"/>
<stop offset="1" stop-color="#FF6F3D"/>
</linearGradient>
<linearGradient id="paint1_linear_125_5410" x1="19" y1="7.60937" x2="29" y2="18" gradientUnits="userSpaceOnUse">
<stop stop-color="#FFC671"/>
<stop offset="0.59375" stop-color="#FF7541"/>
<stop offset="1" stop-color="#FF6F3D"/>
</linearGradient>
</defs>
</svg>
