<svg width="150" height="150" viewBox="0 0 150 150" fill="none" xmlns="http://www.w3.org/2000/svg">
<g clip-path="url(#clip0_125_6574)">
<path d="M147 97.5H147.5V97L147.5 15.8205L147.5 15.8168C147.484 13.6173 146.609 11.5118 145.063 9.95536C143.518 8.39883 141.426 7.51647 139.238 7.50001V7.5H139.235H9.76541V7.49999L9.76165 7.50001C7.57444 7.51647 5.48216 8.39883 3.9366 9.95536C2.39116 11.5118 1.51633 13.6173 1.50001 15.8168H1.5V15.8205V97V97.5H2H147Z" fill="#FEFEFE" stroke="#333333"/>
<path d="M94 120H55V131H94V120Z" fill="#EFEFEF"/>
<path fill-rule="evenodd" clip-rule="evenodd" d="M45.0314 131C42.3042 131 40 133.263 40 136C40 138.737 42.3042 141 45.0314 141H101.969C104.696 141 107 138.737 107 136C107 133.263 104.696 131 101.969 131H45.0314Z" fill="#EFEFEF"/>
<path fill-rule="evenodd" clip-rule="evenodd" d="M101.969 142H45.0314C41.7613 142 39 139.298 39 136C39 132.702 41.7613 130 45.0314 130H101.969C105.239 130 108 132.702 108 136C108 139.298 105.239 142 101.969 142ZM40 136C40 133.263 42.3042 131 45.0314 131H101.969C104.696 131 107 133.263 107 136C107 138.737 104.696 141 101.969 141H45.0314C42.3042 141 40 138.737 40 136Z" fill="#333333"/>
<path d="M74.4342 112.787C76.7634 112.787 78.6516 110.897 78.6516 108.566C78.6516 106.234 76.7634 104.344 74.4342 104.344C72.105 104.344 70.2168 106.234 70.2168 108.566C70.2168 110.897 72.105 112.787 74.4342 112.787Z" fill="#333333"/>
<path d="M13 34C13 31.2386 15.2386 29 18 29H132C134.761 29 137 31.2386 137 34V96H13V34Z" fill="white"/>
<path d="M13 34.4951C13 34.1658 13.0249 33.835 13.1218 33.5203C13.7503 31.48 15.6734 29.8376 17.4132 29.1843C17.7959 29.0406 18.2067 29 18.6155 29H132C134.761 29 137 31.2386 137 34V45H13V34.4951Z" fill="#BDECFF"/>
<path fill-rule="evenodd" clip-rule="evenodd" d="M20 36.5C20 36.2239 20.2239 36 20.5 36H43.5C43.7761 36 44 36.2239 44 36.5C44 36.7761 43.7761 37 43.5 37H20.5C20.2239 37 20 36.7761 20 36.5Z" fill="#333333"/>
<path fill-rule="evenodd" clip-rule="evenodd" d="M13 34.5C13 31.4624 15.4624 29 18.5 29H132.5C135.538 29 138 31.4624 138 34.5V35.75C138 36.0261 137.776 36.25 137.5 36.25C137.224 36.25 137 36.0261 137 35.75V34.5C137 32.0147 134.985 30 132.5 30H18.5C16.0147 30 14 32.0147 14 34.5V96H137V72C137 71.7239 137.224 71.5 137.5 71.5C137.776 71.5 138 71.7239 138 72V97H13V34.5Z" fill="#333333"/>
<path fill-rule="evenodd" clip-rule="evenodd" d="M13 45.5C13 45.2239 13.2239 45 13.5 45H121.5C121.776 45 122 45.2239 122 45.5C122 45.7761 121.776 46 121.5 46H13.5C13.2239 46 13 45.7761 13 45.5Z" fill="#333333"/>
<path d="M61.9986 54.5H24.0014C22.6057 54.5 21.5 55.6751 21.5 57.0785V78.9215C21.5 80.3297 22.6007 81.5 24.0014 81.5H61.9986C63.3943 81.5 64.5 80.3249 64.5 78.9215V57.0785C64.5 55.6751 63.3943 54.5 61.9986 54.5Z" fill="#BDECFF" stroke="#333333"/>
<path fill-rule="evenodd" clip-rule="evenodd" d="M23.0172 81C22.0837 81 21.6451 79.8635 22.3428 79.2526L33.5 69.5L41.5 76.5L54 64L64 73V79C64 80.1046 63.091 81 61.9696 81H23.0172Z" fill="white"/>
<path fill-rule="evenodd" clip-rule="evenodd" d="M33.2613 68.5553L41.3083 75.6973L54.0723 63L65 73.1667V78.8954C65 80.61 63.6684 82 62.0259 82H23.9867C22.1636 82 21.3068 79.6477 22.6695 78.3833L33.2613 68.5553ZM41.3461 77.0892L33.2758 69.9265L23.3281 79.1568C22.6468 79.789 23.0752 80.9651 23.9867 80.9651H62.0259C63.1209 80.9651 64.0086 80.0385 64.0086 78.8954V73.6306L54.0948 64.4072L41.3461 77.0892Z" fill="#333333"/>
<path fill-rule="evenodd" clip-rule="evenodd" d="M28.5 65C30.4365 65 32 63.4351 32 61.4974C32 59.5596 30.431 58 28.5 58C26.5635 58 25 59.5649 25 61.4974C25 63.4299 26.5635 65 28.5 65Z" fill="url(#paint0_linear_125_6574)"/>
<path fill-rule="evenodd" clip-rule="evenodd" d="M33 61.4974C33 63.9866 30.9896 66 28.5 66C26.0095 66 24 63.9804 24 61.4974C24 59.0124 26.0114 57 28.5 57C30.9811 57 33 59.0051 33 61.4974ZM32 61.4974C32 63.4351 30.4365 65 28.5 65C26.5635 65 25 63.4299 25 61.4974C25 59.5649 26.5635 58 28.5 58C30.431 58 32 59.5596 32 61.4974Z" fill="#333333"/>
<path fill-rule="evenodd" clip-rule="evenodd" d="M74 66.5C74 66.2239 74.2239 66 74.5 66H98.5C98.7761 66 99 66.2239 99 66.5C99 66.7761 98.7761 67 98.5 67H86.5H74.5C74.2239 67 74 66.7761 74 66.5Z" fill="#333333"/>
<path fill-rule="evenodd" clip-rule="evenodd" d="M74 73.5C74 73.2239 74.2293 73 74.5122 73H94.4878C94.7707 73 95 73.2239 95 73.5C95 73.7761 94.7707 74 94.4878 74H74.5122C74.2293 74 74 73.7761 74 73.5Z" fill="#333333"/>
<path fill-rule="evenodd" clip-rule="evenodd" d="M74 80.5C74 80.2239 74.2239 80 74.5 80H90.5C90.7761 80 91 80.2239 91 80.5C91 80.7761 90.7761 81 90.5 81H74.5C74.2239 81 74 80.7761 74 80.5Z" fill="#333333"/>
<path fill-rule="evenodd" clip-rule="evenodd" d="M74 56.5C74 56.2239 74.2274 56 74.5079 56H105.492C105.773 56 106 56.2239 106 56.5C106 56.7761 105.773 57 105.492 57H74.5079C74.2274 57 74 56.7761 74 56.5Z" fill="url(#paint1_linear_125_6574)"/>
<path fill-rule="evenodd" clip-rule="evenodd" d="M147 97H2V112.346C2.01535 114.371 2.83842 116.309 4.2914 117.742C5.74439 119.174 7.71064 119.985 9.76541 120H139.235C141.289 119.985 143.256 119.174 144.709 117.742C146.162 116.309 146.985 114.371 147 112.346V97Z" fill="#BDECFF"/>
<path fill-rule="evenodd" clip-rule="evenodd" d="M148 96V112.354C147.983 114.646 147.051 116.837 145.411 118.454C143.771 120.07 141.555 120.983 139.242 121L139.235 121L9.75808 121C7.44526 120.983 5.22922 120.07 3.58946 118.454C1.94923 116.837 1.01744 114.646 1.00006 112.354L1 112.346L1.00003 96H148ZM2.00003 97H147V112.346C146.985 114.371 146.162 116.309 144.709 117.742C143.256 119.174 141.289 119.985 139.235 120H9.76544C7.71067 119.985 5.74442 119.174 4.29143 117.742C2.83845 116.309 2.01538 114.371 2.00003 112.346V97Z" fill="#333333"/>
<path d="M55 120H54V131H55V120Z" fill="#333333"/>
<path d="M94 120H93V131H94V120Z" fill="#333333"/>
<path fill-rule="evenodd" clip-rule="evenodd" d="M11 16C12.2421 16 13.2009 17.1868 12.9616 18.3902C12.8072 19.1661 12.1661 19.8072 11.3902 19.9616C11.0022 20.0387 10.6001 19.9991 10.2346 19.8478C9.50373 19.545 9 18.7911 9 18C9 16.9107 9.91067 16 11 16ZM18.0027 16C18.7949 16 19.5498 16.5037 19.853 17.2346C20.329 18.3822 19.5984 19.7222 18.3934 19.9616C17.1735 20.2039 16 19.2269 16 18C16 16.9107 16.9119 16 18.0027 16ZM26.9625 18.3855C27.1992 17.1806 26.2357 15.9953 24.9924 16C23.906 16.0041 23 16.9136 23 18C23 19.228 24.174 20.2053 25.393 19.961C26.1693 19.8054 26.8099 19.1624 26.9625 18.3855Z" fill="url(#paint2_linear_125_6574)"/>
<rect x="35" y="17" width="77" height="1" rx="0.5" fill="#333333"/>
<rect x="118" y="17" width="20" height="1" rx="0.5" fill="#FF6F3D"/>
<path d="M145.294 52.7057C145.684 52.316 145.683 51.6834 145.293 51.2929L138.222 44.2218C137.831 43.8313 137.199 43.8307 136.809 44.2205L102.228 78.8015L100.218 86.8716C99.8533 88.3346 101.18 89.6614 102.643 89.297L110.713 87.2868L145.294 52.7057Z" fill="white"/>
<path fill-rule="evenodd" clip-rule="evenodd" d="M131.222 50.2218L139 58L110.716 86.2843L102.938 78.5061L131.222 50.2218Z" fill="url(#paint3_linear_125_6574)"/>
<path fill-rule="evenodd" clip-rule="evenodd" d="M101.375 88.4509C101.118 88.5173 100.845 88.4428 100.657 88.2551V88.2551C100.47 88.0673 100.395 87.7942 100.462 87.5371L102.678 78.9616L109.951 86.2347L101.375 88.4509Z" fill="white"/>
<path fill-rule="evenodd" clip-rule="evenodd" d="M137.516 44.9276L144.587 51.9986L110.202 86.3842L102.4 88.3275C101.668 88.5097 101.005 87.8463 101.187 87.1148L103.131 79.3131L137.516 44.9276ZM102.228 78.8015L136.809 44.2205C137.199 43.8307 137.831 43.8313 138.222 44.2218L145.293 51.2929C145.683 51.6834 145.684 52.316 145.294 52.7057L110.713 87.2868L102.643 89.297C101.18 89.6614 99.8533 88.3346 100.218 86.8716L102.228 78.8015Z" fill="#333333"/>
<path fill-rule="evenodd" clip-rule="evenodd" d="M134.293 54.2929L106.716 81.8701L107.423 82.5772L135 55L134.293 54.2929Z" fill="white"/>
<path fill-rule="evenodd" clip-rule="evenodd" d="M111 85.9998L103.222 78.2218L102.518 78.9261L110.296 86.7043L111 85.9998Z" fill="#333333"/>
<path fill-rule="evenodd" clip-rule="evenodd" d="M139 57.9998L131.222 50.2218L130.515 50.9289L138.293 58.7071L139 57.9998Z" fill="#333333"/>
<path fill-rule="evenodd" clip-rule="evenodd" d="M141 55.9998L133.222 48.2218L132.515 48.9289L140.293 56.7071L141 55.9998Z" fill="#333333"/>
<path fill-rule="evenodd" clip-rule="evenodd" d="M105 88L101.464 84.4645L100.816 88.0589L101.406 88.6482L105 88Z" fill="#333333"/>
<circle cx="75" cy="109" r="3" fill="#333333"/>
</g>
<defs>
<linearGradient id="paint0_linear_125_6574" x1="25" y1="57.7266" x2="32" y2="65" gradientUnits="userSpaceOnUse">
<stop stop-color="#FF8E3D"/>
<stop offset="1" stop-color="#FF6F3D"/>
</linearGradient>
<linearGradient id="paint1_linear_125_6574" x1="73.4921" y1="54.5" x2="105.492" y2="54.5" gradientUnits="userSpaceOnUse">
<stop stop-color="#FF8E3D"/>
<stop offset="1" stop-color="#FF6F3D"/>
</linearGradient>
<linearGradient id="paint2_linear_125_6574" x1="9.00003" y1="15.8437" x2="10.6375" y2="23.4994" gradientUnits="userSpaceOnUse">
<stop stop-color="#FF8E3D"/>
<stop offset="1" stop-color="#FF6F3D"/>
</linearGradient>
<linearGradient id="paint3_linear_125_6574" x1="115.226" y1="61.6974" x2="124.305" y2="71.3332" gradientUnits="userSpaceOnUse">
<stop stop-color="#FFC671"/>
<stop offset="1" stop-color="#FF6F3D"/>
</linearGradient>
<clipPath id="clip0_125_6574">
<rect width="150" height="150" fill="white"/>
</clipPath>
</defs>
</svg>
