<svg width="16" height="16" viewBox="0 0 16 16" fill="none" xmlns="http://www.w3.org/2000/svg">
<path d="M15.5 13.0934V12.1868V9.8196V7.7848V6.22344V5.90614V4.90385V3.80586C15.5 3.12244 14.9757 2.5 14.251 2.5H6.65716H5.0704H1.74903C1.02432 2.5 0.5 3.12244 0.5 3.80586V12.1868V13.0934C0.5 13.8332 1.06959 14.5 1.84266 14.5H14.1573C14.9304 14.5 15.5 13.8332 15.5 13.0934Z" fill="#FEFEFE" stroke="#333333"/>
<path fill-rule="evenodd" clip-rule="evenodd" d="M1 5.5H15V3.74917C15 3.37685 14.6684 3 14.2588 3H1.74123C1.3316 3 1 3.37685 1 3.74917V5.5Z" fill="#BDECFF"/>
<path d="M15 5H1V6H15V5Z" fill="#333333"/>
<path fill-rule="evenodd" clip-rule="evenodd" d="M2.44531 9.63272C2.44531 9.58908 2.47925 9.55029 2.52289 9.55029H3.71562C3.75925 9.55029 3.79319 9.58908 3.79319 9.63272C3.79319 9.67635 3.75925 9.71514 3.71562 9.71514H2.52774C2.4841 9.71514 2.44531 9.6812 2.44531 9.63272Z" fill="#333333"/>
<path d="M2.5 7.5H6.49989V10.5H2.5V7.5Z" fill="#BDECFF" stroke="#333333"/>
<path fill-rule="evenodd" clip-rule="evenodd" d="M2 4.5C1.72222 4.5 1.5 4.2766 1.5 4C1.5 3.7234 1.72222 3.5 2 3.5C2.27778 3.5 2.5 3.7234 2.5 4C2.49444 4.2766 2.27222 4.5 2 4.5Z" fill="#333333"/>
<path fill-rule="evenodd" clip-rule="evenodd" d="M3.5 4.5C3.22222 4.5 3 4.2766 3 4C3 3.7234 3.22222 3.5 3.5 3.5C3.77778 3.5 4 3.7234 4 4C3.99444 4.2766 3.77222 4.5 3.5 4.5Z" fill="#333333"/>
<path fill-rule="evenodd" clip-rule="evenodd" d="M5 4.5C4.72222 4.5 4.5 4.2766 4.5 4C4.5 3.7234 4.72222 3.5 5 3.5C5.27778 3.5 5.5 3.7234 5.5 4C5.49444 4.2766 5.27222 4.5 5 4.5Z" fill="#333333"/>
<path fill-rule="evenodd" clip-rule="evenodd" d="M8 7.5C8 7.22386 8.22386 7 8.5 7H11.5C11.7761 7 12 7.22386 12 7.5V7.5C12 7.77614 11.7761 8 11.5 8H8.5C8.22386 8 8 7.77614 8 7.5V7.5Z" fill="#333333"/>
<path fill-rule="evenodd" clip-rule="evenodd" d="M2 12.5C2 12.2239 2.22386 12 2.5 12H7.5C7.77614 12 8 12.2239 8 12.5V12.5C8 12.7761 7.77614 13 7.5 13H2.5C2.22386 13 2 12.7761 2 12.5V12.5Z" fill="#333333"/>
<path fill-rule="evenodd" clip-rule="evenodd" d="M8 9.5C8 9.22386 8.22386 9 8.5 9H9.5C9.77614 9 10 9.22386 10 9.5V9.5C10 9.77614 9.77614 10 9.5 10H8.5C8.22386 10 8 9.77614 8 9.5V9.5Z" fill="#333333"/>
<path fill-rule="evenodd" clip-rule="evenodd" d="M14.0982 10.0098C14.2955 9.81195 14.2923 9.49083 14.0912 9.29686L13.619 8.84138C13.4226 8.65193 13.1105 8.65496 12.9178 8.8482L9.96421 11.8101C9.89615 11.8784 9.84927 11.9648 9.82921 12.0591L9.70707 12.6331C9.63076 12.9917 9.95358 13.3078 10.3105 13.2239L10.9325 13.0777C11.0233 13.0564 11.1063 13.0101 11.1722 12.944L14.0982 10.0098Z" fill="url(#paint0_linear_125_6266)"/>
<defs>
<linearGradient id="paint0_linear_125_6266" x1="9.54298" y1="8.30843" x2="14.4468" y2="13.4142" gradientUnits="userSpaceOnUse">
<stop stop-color="#FFC671"/>
<stop offset="0.59375" stop-color="#FF7541"/>
<stop offset="1" stop-color="#FF6F3D"/>
</linearGradient>
</defs>
</svg>
