<svg width="184" height="34" viewBox="0 0 184 34" fill="none" xmlns="http://www.w3.org/2000/svg">
<path fill-rule="evenodd" clip-rule="evenodd" d="M16.1094 32.8686L0.967408 26.0148C-0.322469 25.4164 -0.322469 24.4917 0.967408 23.9477L6.23908 21.5543L16.0534 26.0148C17.3432 26.6131 19.4183 26.6131 20.6521 26.0148L30.4663 21.5543L35.738 23.9477C37.0279 24.5461 37.0279 25.4708 35.738 26.0148L20.596 32.8686C19.4183 33.4126 17.3432 33.4126 16.1094 32.8686Z" fill="#FF6F3D"/>
<path fill-rule="evenodd" clip-rule="evenodd" d="M16.1094 24.4373L0.967408 17.5834C-0.322469 16.9851 -0.322469 16.0603 0.967408 15.5164L6.12692 13.1774L16.1094 17.6922C17.3993 18.2906 19.4743 18.2906 20.7081 17.6922L30.6907 13.1774L35.8502 15.5164C37.14 16.1147 37.14 17.0395 35.8502 17.5834L20.7081 24.4373C19.4183 25.0356 17.3432 25.0356 16.1094 24.4373Z" fill="#95C038"/>
<path fill-rule="evenodd" clip-rule="evenodd" d="M16.1094 16.2235L0.967408 9.36965C-0.322469 8.7713 -0.322469 7.84657 0.967408 7.30262L16.1094 0.448764C17.3993 -0.149588 19.4743 -0.149588 20.7081 0.448764L35.8502 7.30262C37.14 7.90097 37.14 8.82569 35.8502 9.36965L20.7081 16.2235C19.4183 16.7675 17.3432 16.7675 16.1094 16.2235Z" fill="#5DC0E8"/>
<path d="M46.0725 16.5708C46.0725 13.7362 46.9074 11.5969 48.6329 10.2063C50.3027 8.7623 52.3065 8.06702 54.5886 8.06702C56.8707 8.06702 58.8188 8.7623 60.4887 10.2063C62.1585 11.6504 62.9934 13.7362 62.9934 16.6243C62.9934 19.4589 62.1585 21.5983 60.4887 22.9888C58.8188 24.4329 56.815 25.1281 54.5886 25.1281C52.3065 25.1281 50.3584 24.4329 48.6329 22.9888C46.9074 21.5448 46.0725 19.4054 46.0725 16.5708ZM49.7461 16.5708C49.7461 18.5497 50.1358 19.9403 50.8593 20.8495C51.6386 21.7587 52.4735 22.347 53.3641 22.561C53.5867 22.6144 53.7537 22.6679 53.9763 22.6679C54.1433 22.6679 54.366 22.7214 54.533 22.7214C54.7556 22.7214 54.9226 22.7214 55.1452 22.6679C55.3679 22.6679 55.5349 22.6144 55.7575 22.561C56.6481 22.347 57.483 21.7587 58.2066 20.8495C58.9302 19.9403 59.3198 18.4962 59.3198 16.6243C59.3198 14.6989 58.9302 13.3084 58.2066 12.3992C57.483 11.4899 56.6481 10.9016 55.7575 10.6877C55.5349 10.6342 55.3122 10.5807 55.1452 10.5807C54.9226 10.5807 54.7556 10.5272 54.533 10.5272C54.3103 10.5272 54.1433 10.5272 53.9763 10.5807C53.8094 10.5807 53.5867 10.6342 53.3641 10.6877C52.4735 10.9016 51.6386 11.4899 50.8593 12.3992C50.1358 13.2014 49.7461 14.6454 49.7461 16.5708Z" fill="#333333"/>
<path d="M64.8302 8.22748H69.3944L75.4058 18.7102L76.2963 21.01H76.352L76.2963 18.0149V8.22748H79.803V24.9142H75.2388L69.2274 14.0037L68.3368 12.1317H68.2812L68.3368 15.0733V24.9142H64.8302V8.22748Z" fill="#333333"/>
<path d="M83.4208 8.22748H86.9275V22.0796H93.8294V24.9142H83.4208V8.22748Z" fill="#333333"/>
<path d="M91.6587 8.22748H95.7219L99.2842 14.0571L99.8408 15.2338H99.9521L100.509 14.0571L104.127 8.22748H107.856L101.566 18.1219V24.9142H98.0597V18.0684L91.6587 8.22748Z" fill="#333333"/>
<path d="M107.411 16.5708C107.411 13.7362 108.246 11.5969 109.971 10.2063C111.641 8.7623 113.645 8.06702 115.927 8.06702C118.209 8.06702 120.157 8.7623 121.827 10.2063C123.497 11.6504 124.332 13.7362 124.332 16.6243C124.332 19.4589 123.497 21.5983 121.827 22.9888C120.157 24.4329 118.153 25.1281 115.927 25.1281C113.645 25.1281 111.697 24.4329 109.971 22.9888C108.301 21.5448 107.411 19.4054 107.411 16.5708ZM111.084 16.5708C111.084 18.5497 111.474 19.9403 112.198 20.8495C112.977 21.7587 113.756 22.347 114.702 22.561C114.925 22.6144 115.092 22.6679 115.315 22.6679C115.482 22.6679 115.704 22.7214 115.871 22.7214C116.094 22.7214 116.261 22.7214 116.483 22.6679C116.706 22.6679 116.873 22.6144 117.096 22.561C117.986 22.347 118.821 21.7587 119.545 20.8495C120.268 19.9403 120.658 18.4962 120.658 16.6243C120.658 14.6989 120.268 13.3084 119.545 12.3992C118.821 11.4899 117.986 10.9016 117.096 10.6877C116.873 10.6342 116.65 10.5807 116.483 10.5807C116.261 10.5807 116.094 10.5272 115.871 10.5272C115.649 10.5272 115.482 10.5272 115.315 10.5807C115.148 10.5807 114.925 10.6342 114.702 10.6877C113.812 10.9016 112.977 11.4899 112.198 12.3992C111.474 13.2014 111.084 14.6454 111.084 16.5708Z" fill="#333333"/>
<path d="M126.781 8.22748H136.466V11.0086H130.287V15.0733H136.187V17.9079H130.287V24.9142H126.781V8.22748Z" fill="#333333"/>
<path d="M139.082 8.22748H148.767V11.0086H142.588V15.0733H148.488V17.9079H142.588V24.9142H139.082V8.22748Z" fill="#333333"/>
<path d="M150.826 24.9142V8.22748H154.333V24.9142H150.826Z" fill="#333333"/>
<path d="M169.784 8.60175V11.4898C169.171 11.2759 168.559 11.1155 167.891 11.0085C167.223 10.9015 166.444 10.848 165.665 10.848C163.828 10.848 162.436 11.3829 161.435 12.506C160.433 13.5757 159.932 14.9662 159.932 16.6242C159.932 18.2287 160.377 19.5658 161.323 20.6355C162.269 21.7051 163.605 22.2934 165.331 22.2934C165.943 22.2934 166.555 22.24 167.279 22.1865C168.003 22.0795 168.726 21.9191 169.505 21.5982L169.728 24.4328C169.617 24.4863 169.45 24.5397 169.283 24.5932C169.06 24.6467 168.837 24.7002 168.559 24.7537C168.114 24.8606 167.557 24.9141 166.889 25.0211C166.221 25.0746 165.553 25.128 164.83 25.128C164.719 25.128 164.607 25.128 164.552 25.128C164.44 25.128 164.329 25.128 164.273 25.128C162.269 25.0211 160.433 24.2723 158.763 22.9887C157.093 21.6516 156.258 19.5658 156.258 16.7847C156.258 14.057 157.093 11.9177 158.707 10.4202C160.321 8.92265 162.548 8.17389 165.275 8.17389C165.999 8.17389 166.667 8.17389 167.223 8.22737C167.836 8.28086 168.392 8.38782 169.004 8.49479C169.116 8.54827 169.283 8.54827 169.394 8.60175C169.505 8.54827 169.617 8.60175 169.784 8.60175Z" fill="#333333"/>
<path d="M172.567 8.22754H182.975V10.8482H176.129V15.0199H182.307V17.5871H176.129V22.2936H182.975V24.9143H172.567V8.22754Z" fill="#333333"/>
</svg>
