<svg width="170" height="56" viewBox="0 0 170 56" fill="none" xmlns="http://www.w3.org/2000/svg">
<path d="M40.2437 27.5748C40.2577 26.5445 40.546 25.5343 41.0819 24.6382C41.6177 23.742 42.3836 22.9891 43.3084 22.4495C42.7209 21.6531 41.9459 20.9977 41.0449 20.5354C40.1439 20.073 39.1417 19.8165 38.1179 19.7861C35.9341 19.5685 33.817 21.0264 32.7041 21.0264C31.5698 21.0264 29.8564 19.8077 28.0113 19.8437C26.8179 19.8803 25.6548 20.2097 24.6354 20.7998C23.616 21.3899 22.775 22.2206 22.1944 23.211C19.6792 27.3442 21.5553 33.4188 23.9646 36.7598C25.17 38.3958 26.5788 40.2233 28.4222 40.1585C30.226 40.0874 30.8997 39.0667 33.0771 39.0667C35.2343 39.0667 35.8664 40.1585 37.7472 40.1172C39.6828 40.0874 40.9023 38.474 42.0655 36.8225C42.9316 35.6568 43.598 34.3684 44.0401 33.0051C42.9156 32.5536 41.9559 31.798 41.2808 30.8323C40.6057 29.8666 40.245 28.7337 40.2437 27.5748V27.5748Z" fill="white"/>
<path d="M36.6912 17.5888C37.7466 16.3863 38.2665 14.8406 38.1406 13.28C36.5283 13.4408 35.0389 14.1722 33.9692 15.3286C33.4462 15.8936 33.0457 16.5508 32.7905 17.2628C32.5353 17.9747 32.4304 18.7275 32.4818 19.4779C33.2883 19.4858 34.0862 19.3199 34.8153 18.9927C35.5444 18.6655 36.1859 18.1855 36.6912 17.5888Z" fill="white"/>
<path d="M62.5848 36.0205H56.4965L55.0344 40.2372H52.4557L58.2224 24.6365H60.9016L66.6683 40.2372H64.0456L62.5848 36.0205ZM57.1271 34.0747H61.953L59.574 27.2313H59.5074L57.1271 34.0747Z" fill="white"/>
<path d="M79.1224 34.5505C79.1224 38.0851 77.1855 40.356 74.2626 40.356C73.5222 40.3938 72.7858 40.2273 72.1378 39.8753C71.4898 39.5234 70.9564 39.0003 70.5986 38.366H70.5433V43.9998H68.153V28.8628H70.4667V30.7546H70.5107C70.8849 30.1234 71.4273 29.603 72.0803 29.2489C72.7332 28.8949 73.4722 28.7203 74.2186 28.7438C77.1741 28.7438 79.1224 31.0258 79.1224 34.5505ZM76.6655 34.5505C76.6655 32.2477 75.4471 30.7338 73.5881 30.7338C71.7617 30.7338 70.5333 32.2796 70.5333 34.5505C70.5333 36.8423 71.7617 38.3771 73.5881 38.3771C75.4471 38.3771 76.6655 36.8742 76.6655 34.5505Z" fill="white"/>
<path d="M91.9394 34.5505C91.9394 38.0851 90.0025 40.356 87.0796 40.356C86.3392 40.3938 85.6028 40.2272 84.9548 39.8753C84.3068 39.5234 83.7734 39.0003 83.4156 38.366H83.3603V43.9998H80.97V28.8628H83.2837V30.7546H83.3276C83.7019 30.1234 84.2443 29.603 84.8972 29.2489C85.5502 28.8949 86.2892 28.7203 87.0356 28.7438C89.9912 28.7438 91.9394 31.0257 91.9394 34.5505ZM89.4825 34.5505C89.4825 32.2477 88.2641 30.7338 86.4051 30.7338C84.5787 30.7338 83.3503 32.2796 83.3503 34.5505C83.3503 36.8423 84.5787 38.3771 86.4051 38.3771C88.2641 38.3771 89.4825 36.8742 89.4825 34.5505H89.4825Z" fill="white"/>
<path d="M100.411 35.8906C100.588 37.4377 102.126 38.4535 104.229 38.4535C106.244 38.4535 107.693 37.4376 107.693 36.0427C107.693 34.8318 106.819 34.1067 104.749 33.6098L102.679 33.1227C99.7461 32.4308 98.3845 31.0911 98.3845 28.9171C98.3845 26.2253 100.786 24.3765 104.196 24.3765C107.571 24.3765 109.885 26.2253 109.963 28.9171H107.55C107.406 27.3602 106.088 26.4204 104.162 26.4204C102.237 26.4204 100.919 27.3712 100.919 28.7551C100.919 29.8581 101.761 30.5071 103.819 31.0039L105.579 31.426C108.856 32.1829 110.218 33.4687 110.218 35.7506C110.218 38.6693 107.838 40.4973 104.052 40.4973C100.51 40.4973 98.1181 38.7123 97.9636 35.8905L100.411 35.8906Z" fill="white"/>
<path d="M115.377 26.1711V28.8629H117.591V30.7117H115.377V36.9822C115.377 37.9563 115.82 38.4103 116.794 38.4103C117.056 38.4058 117.319 38.3878 117.58 38.3563V40.1941C117.142 40.274 116.697 40.3101 116.252 40.3021C113.895 40.3021 112.975 39.4371 112.975 37.2312V30.7117H111.282V28.8629H112.975V26.1711H115.377Z" fill="white"/>
<path d="M118.874 34.5507C118.874 30.972 121.032 28.7231 124.397 28.7231C127.773 28.7231 129.921 30.9719 129.921 34.5507C129.921 38.1393 127.784 40.3783 124.397 40.3783C121.01 40.3783 118.874 38.1393 118.874 34.5507ZM127.485 34.5507C127.485 32.0958 126.334 30.6469 124.397 30.6469C122.46 30.6469 121.309 32.1068 121.309 34.5507C121.309 37.0155 122.46 38.4534 124.397 38.4534C126.334 38.4534 127.485 37.0155 127.485 34.5507H127.485Z" fill="white"/>
<path d="M131.892 28.8632H134.172V30.7991H134.227C134.381 30.1945 134.744 29.6602 135.254 29.2859C135.764 28.9117 136.39 28.7204 137.028 28.7442C137.303 28.7432 137.578 28.7724 137.847 28.8313V31.0151C137.499 30.9113 137.136 30.8636 136.773 30.874C136.426 30.8602 136.079 30.92 135.758 31.0493C135.437 31.1786 135.148 31.3742 134.911 31.6228C134.675 31.8714 134.496 32.1671 134.387 32.4896C134.279 32.812 134.243 33.1536 134.282 33.4909V40.2374H131.892L131.892 28.8632Z" fill="white"/>
<path d="M148.868 36.8965C148.546 38.9613 146.487 40.3783 143.853 40.3783C140.466 40.3783 138.363 38.1614 138.363 34.6047C138.363 31.037 140.477 28.7231 143.753 28.7231C146.975 28.7231 149.001 30.8849 149.001 34.3336V35.1335H140.776V35.2746C140.738 35.6932 140.792 36.1149 140.933 36.5117C141.075 36.9084 141.302 37.2712 141.598 37.576C141.894 37.8807 142.253 38.1203 142.652 38.279C143.05 38.4377 143.479 38.5117 143.909 38.4963C144.474 38.548 145.04 38.4202 145.525 38.132C146.009 37.8437 146.386 37.4104 146.598 36.8965L148.868 36.8965ZM140.787 33.5018H146.609C146.631 33.1254 146.572 32.7487 146.438 32.3954C146.303 32.0422 146.095 31.7199 145.827 31.4488C145.559 31.1777 145.236 30.9637 144.879 30.8202C144.522 30.6768 144.139 30.6069 143.753 30.615C143.364 30.6127 142.978 30.6857 142.618 30.8299C142.257 30.974 141.93 31.1864 141.654 31.4548C141.379 31.7232 141.16 32.0423 141.011 32.3936C140.862 32.7449 140.786 33.1216 140.787 33.5018V33.5018Z" fill="white"/>
<path d="M54.8755 18.3741C54.976 19.0857 55.6882 19.5378 56.7157 19.5378C57.6728 19.5378 58.3749 19.055 58.3749 18.3901C58.3749 17.8183 57.9278 17.4755 56.9116 17.2417L55.9231 17.0081C54.5351 16.6909 53.902 16.0364 53.902 14.9353C53.902 13.5998 55.0187 12.7116 56.6943 12.7116C57.3528 12.6399 58.0136 12.8259 58.532 13.229C59.0504 13.6321 59.3842 14.2194 59.4602 14.8623H58.2996C58.2232 14.5104 58.0139 14.1995 57.7134 13.9916C57.4129 13.7837 57.0433 13.6939 56.6781 13.7403C55.736 13.7403 55.1092 14.1819 55.1092 14.8573C55.1092 15.3922 55.5137 15.6989 56.5135 15.9271L57.3589 16.1302C58.9327 16.4884 59.5821 17.1117 59.5821 18.2392C59.5821 19.6727 58.4441 20.5714 56.6253 20.5714C54.9233 20.5714 53.779 19.7145 53.6936 18.3741L54.8755 18.3741Z" fill="white"/>
<path d="M62.7223 13.3245V14.7587H63.9771V15.6991H62.7223V18.6079C62.7223 19.2005 62.9723 19.46 63.5413 19.46C63.687 19.4595 63.8325 19.4509 63.9771 19.4342V20.3642C63.7719 20.4 63.5639 20.4191 63.3554 20.4212C62.0842 20.4212 61.578 19.9845 61.578 18.8938V15.699H60.6586V14.7586H61.578V13.3245H62.7223Z" fill="white"/>
<path d="M65.1553 18.7901C65.1553 17.7718 65.9315 17.1847 67.3095 17.1013L68.8783 17.013V16.5247C68.8783 15.9272 68.4739 15.5898 67.6926 15.5898C67.0545 15.5898 66.6123 15.8186 66.4855 16.2186H65.3789C65.4957 15.2469 66.4315 14.6237 67.7453 14.6237C69.1974 14.6237 70.0163 15.3297 70.0163 16.5247V20.3899H68.916V19.5949H68.8256C68.642 19.8801 68.3842 20.1125 68.0786 20.2686C67.7729 20.4246 67.4304 20.4986 67.0859 20.4831C66.8427 20.5078 66.597 20.4825 66.3645 20.4087C66.132 20.335 65.9179 20.2145 65.736 20.0549C65.5541 19.8954 65.4085 19.7005 65.3084 19.4826C65.2084 19.2647 65.1562 19.0288 65.1553 18.7901V18.7901ZM68.8783 18.3067V17.8337L67.464 17.922C66.6663 17.9742 66.3046 18.2392 66.3046 18.7379C66.3046 19.247 66.7568 19.5433 67.3786 19.5433C67.5608 19.5613 67.7448 19.5434 67.9197 19.4905C68.0947 19.4376 68.2569 19.3509 68.3969 19.2355C68.5368 19.1202 68.6515 18.9785 68.7342 18.8189C68.8169 18.6593 68.8659 18.4851 68.8783 18.3067V18.3067ZM67.0595 13.7869L68.3947 12H69.735L68.2402 13.7869H67.0595Z" fill="white"/>
<path d="M71.8591 12.5244H72.9921V15.6419H73.0825C73.2344 15.3161 73.4855 15.044 73.8016 14.8626C74.1176 14.6813 74.4832 14.5995 74.8485 14.6285C75.1288 14.6136 75.4091 14.6593 75.6693 14.7624C75.9295 14.8654 76.1631 15.0233 76.3537 15.2248C76.5442 15.4262 76.6868 15.6662 76.7714 15.9277C76.856 16.1892 76.8805 16.4657 76.8432 16.7375V20.3898H75.6989V17.0129C75.6989 16.1093 75.268 15.6517 74.4604 15.6517C74.2639 15.6359 74.0663 15.6623 73.8814 15.729C73.6964 15.7956 73.5286 15.9009 73.3897 16.0375C73.2508 16.1741 73.1442 16.3387 73.0772 16.5198C73.0102 16.7009 72.9846 16.8941 73.002 17.0859V20.3898H71.859L71.8591 12.5244Z" fill="white"/>
<path d="M78.6106 14.7329H79.7109V15.6316H79.7963C79.9412 15.3088 80.1856 15.0383 80.4954 14.8576C80.8053 14.6769 81.1651 14.5952 81.5247 14.6237C81.8065 14.603 82.0895 14.6445 82.3527 14.7452C82.6158 14.8458 82.8524 15.003 83.045 15.205C83.2375 15.4071 83.381 15.6489 83.4649 15.9125C83.5487 16.1761 83.5708 16.4547 83.5294 16.7278V20.3899H82.3864V17.0081C82.3864 16.099 81.9819 15.6469 81.1366 15.6469C80.9452 15.6382 80.7542 15.67 80.5767 15.7402C80.3991 15.8103 80.2392 15.9171 80.1078 16.0533C79.9764 16.1895 79.8768 16.3518 79.8157 16.5291C79.7545 16.7064 79.7334 16.8945 79.7536 17.0805V20.39H78.6106V14.7329Z" fill="white"/>
<path d="M85.0102 17.559C84.9738 17.1872 85.0174 16.8121 85.1381 16.4578C85.2588 16.1034 85.454 15.7776 85.7111 15.5012C85.9683 15.2249 86.2818 15.004 86.6314 14.8529C86.9811 14.7018 87.3592 14.6238 87.7416 14.6238C88.1239 14.6238 88.5021 14.7018 88.8517 14.8529C89.2014 15.004 89.5149 15.2249 89.772 15.5012C90.0292 15.7776 90.2244 16.1034 90.3451 16.4578C90.4658 16.8121 90.5094 17.1872 90.4729 17.559C90.51 17.9311 90.467 18.3067 90.3466 18.6617C90.2263 19.0166 90.0312 19.343 89.7739 19.6199C89.5167 19.8968 89.203 20.1181 88.853 20.2695C88.503 20.421 88.1244 20.4992 87.7416 20.4992C87.3588 20.4992 86.9802 20.421 86.6302 20.2695C86.2802 20.1181 85.9665 19.8968 85.7092 19.6199C85.452 19.343 85.2569 19.0166 85.1365 18.6617C85.0162 18.3067 84.9731 17.9311 85.0102 17.559V17.559ZM89.2972 17.559C89.2972 16.3327 88.7333 15.6156 87.7435 15.6156C86.7499 15.6156 86.191 16.3327 86.191 17.559C86.191 18.7951 86.75 19.5066 87.7435 19.5066C88.7333 19.5066 89.2973 18.7901 89.2973 17.559H89.2972Z" fill="white"/>
<path d="M96.8896 20.39H95.788V19.4913H95.6976C95.5512 19.8174 95.3034 20.0902 94.9893 20.2711C94.6753 20.452 94.3109 20.5318 93.9479 20.4992C93.6678 20.5186 93.3867 20.4764 93.1255 20.3759C92.8642 20.2754 92.6293 20.119 92.438 19.9182C92.2467 19.7174 92.1039 19.4773 92.02 19.2156C91.9361 18.9538 91.9133 18.677 91.9532 18.4055V14.7329H93.0975V18.1147C93.0975 19.0288 93.4744 19.4655 94.3146 19.4655C94.5095 19.4836 94.706 19.4589 94.8898 19.3934C95.0737 19.3278 95.2402 19.223 95.3773 19.0866C95.5144 18.9501 95.6186 18.7855 95.6822 18.6048C95.7459 18.424 95.7674 18.2317 95.7453 18.0417V14.7329H96.8896V20.39Z" fill="white"/>
<path d="M100.259 13.3245V14.7587H101.513V15.6991H100.259V18.6079C100.259 19.2005 100.509 19.46 101.078 19.46C101.223 19.4595 101.369 19.4509 101.513 19.4342V20.3642C101.308 20.4001 101.1 20.4192 100.892 20.4212C99.6205 20.4212 99.1143 19.9845 99.1143 18.8938V15.699H98.1948V14.7586H99.1143V13.3245H100.259Z" fill="white"/>
<path d="M108.982 20.39H107.754L105.663 14.7329H106.886L108.328 19.195H108.418L109.854 14.7329H111.067L108.982 20.39Z" fill="white"/>
<rect x="0.5" y="0.5" width="169" height="55" rx="2.5" stroke="white"/>
</svg>
