<svg width="170" height="56" viewBox="0 0 170 56" fill="none" xmlns="http://www.w3.org/2000/svg">
<path d="M127.509 39.6913H129.534V26.4772H127.509V39.6913ZM145.748 31.2372L143.427 36.9662H143.357L140.948 31.2372H138.767L142.38 39.2445L140.32 43.6985H142.433L148 31.2372H145.748ZM134.264 38.1905C133.6 38.1905 132.676 37.8676 132.676 37.0682C132.676 36.0483 133.828 35.6573 134.822 35.6573C135.713 35.6573 136.131 35.8443 136.673 36.0996C136.515 37.3234 135.433 38.1905 134.264 38.1905V38.1905ZM134.509 30.9482C133.043 30.9482 131.524 31.5774 130.896 32.9714L132.693 33.7022C133.077 32.9714 133.792 32.7332 134.543 32.7332C135.591 32.7332 136.655 33.3455 136.673 34.4335V34.5693C136.306 34.3653 135.521 34.0594 134.561 34.0594C132.624 34.0594 130.651 35.0961 130.651 37.0343C130.651 38.8024 132.239 39.9415 134.019 39.9415C135.381 39.9415 136.131 39.3465 136.603 38.6496H136.673V39.6695H138.627V34.6031C138.627 32.2575 136.83 30.9482 134.509 30.9482V30.9482ZM121.994 32.8458H119.114V28.3164H121.994C123.508 28.3164 124.367 29.5372 124.367 30.581C124.367 31.6051 123.508 32.8458 121.994 32.8458ZM121.942 26.4772H117.09V39.6913H119.114V34.685H121.942C124.186 34.685 126.392 33.1023 126.392 30.581C126.392 28.0599 124.186 26.4772 121.942 26.4772ZM95.4834 38.1929C94.0845 38.1929 92.9132 37.0521 92.9132 35.4851C92.9132 33.9017 94.0845 32.7435 95.4834 32.7435C96.8646 32.7435 97.9485 33.9017 97.9485 35.4851C97.9485 37.0521 96.8646 38.1929 95.4834 38.1929V38.1929ZM97.8086 31.9772H97.7386C97.2842 31.4494 96.4096 30.9726 95.3084 30.9726C93.0006 30.9726 90.8853 32.9478 90.8853 35.4851C90.8853 38.0055 93.0006 39.9639 95.3084 39.9639C96.4096 39.9639 97.2842 39.4869 97.7386 38.9423H97.8086V39.5893C97.8086 41.3096 96.8646 42.2291 95.3435 42.2291C94.1023 42.2291 93.333 41.3603 93.0179 40.6282L91.2524 41.3434C91.7594 42.5354 93.1057 44 95.3435 44C97.7212 44 99.7318 42.6374 99.7318 39.3168V31.2451H97.8086V31.9772ZM101.13 39.6913H103.158V26.4768H101.13V39.6913ZM106.148 35.332C106.096 33.5948 107.529 32.7096 108.561 32.7096C109.365 32.7096 110.047 33.101 110.274 33.6634L106.148 35.332ZM112.442 33.8335C112.058 32.8285 110.886 30.9726 108.491 30.9726C106.113 30.9726 104.138 32.7947 104.138 35.4682C104.138 37.9886 106.096 39.9639 108.718 39.9639C110.834 39.9639 112.058 38.7037 112.565 37.9716L110.991 36.9496C110.467 37.6991 109.75 38.1929 108.718 38.1929C107.686 38.1929 106.952 37.733 106.48 36.8307L112.651 34.3443L112.442 33.8335ZM63.2731 32.352V34.2592H67.9585C67.8186 35.332 67.4515 36.1152 66.8919 36.6602C66.2103 37.3246 65.1438 38.0567 63.2731 38.0567C60.3883 38.0567 58.1331 35.7919 58.1331 32.9821C58.1331 30.1723 60.3883 27.9072 63.2731 27.9072C64.8292 27.9072 65.9653 28.5034 66.8046 29.2697L68.1857 27.9245C67.0144 26.8344 65.4583 26 63.2731 26C59.3217 26 56 29.1335 56 32.9821C56 36.8307 59.3217 39.9639 63.2731 39.9639C65.4062 39.9639 67.0145 39.283 68.2731 38.0055C69.5669 36.7453 69.9691 34.9744 69.9691 33.5441C69.9691 33.101 69.9343 32.6927 69.864 32.352H63.2731ZM75.296 38.1929C73.8971 38.1929 72.6906 37.069 72.6906 35.4682C72.6906 33.8504 73.8971 32.7435 75.296 32.7435C76.6944 32.7435 77.9008 33.8504 77.9008 35.4682C77.9008 37.069 76.6944 38.1929 75.296 38.1929V38.1929ZM75.296 30.9726C72.7432 30.9726 70.6626 32.8627 70.6626 35.4682C70.6626 38.0567 72.7432 39.9639 75.296 39.9639C77.8483 39.9639 79.9289 38.0567 79.9289 35.4682C79.9289 32.8627 77.8483 30.9726 75.296 30.9726ZM85.4028 38.1929C84.0044 38.1929 82.7979 37.069 82.7979 35.4682C82.7979 33.8504 84.0044 32.7435 85.4028 32.7435C86.8013 32.7435 88.0077 33.8504 88.0077 35.4682C88.0077 37.069 86.8013 38.1929 85.4028 38.1929ZM85.4028 30.9726C82.8501 30.9726 80.7699 32.8627 80.7699 35.4682C80.7699 38.0567 82.8501 39.9639 85.4028 39.9639C87.9552 39.9639 90.0358 38.0567 90.0358 35.4682C90.0358 32.8627 87.9552 30.9726 85.4028 30.9726Z" fill="white"/>
<path fill-rule="evenodd" clip-rule="evenodd" d="M61.1852 19.1994L58.1806 14.5936H57.1079H57V21H57.1079H57.9394H58.0473V17.0335L58.0212 16.1609L61.1713 21H62.0993H62.2072V14.5936H61.2669H61.159V18.3263L61.1852 19.1994ZM65.6336 17.0444L64.0764 14.5936H63.0392H62.8437L65.1102 18.043V21H66.0492H66.1571V20.8967V18.0426L68.3863 14.5936H67.2159H67.1544L65.6336 17.0444ZM73.2096 19.1996L70.2049 14.5936H69.1328H69.0249V21H69.1328H69.9639H70.0718V17.0335L70.0456 16.1611L73.1956 21H74.1236H74.2315V14.5936H73.2913H73.1834V18.3263L73.2096 19.1996ZM77.2193 13L76.478 14.2626L76.4468 14.3155H76.384H75.4993L76.0582 13H76.1311H77.2193ZM76.4375 21H75.6064H75.4985V14.5936H75.6064H76.5454V21H76.4375ZM84.1675 19.1994L81.163 14.5936H80.0903H79.9824V21H80.0903H80.9218H81.0297V17.0335L81.0036 16.1609L84.1536 21H85.0817H85.1896V14.5936H84.2493H84.1414V18.3263L84.1675 19.1994ZM88.9328 15.9316L89.8547 18.3683H88.0111L88.9328 15.9316ZM86.9437 21H86.0216H85.8657L88.388 14.5936H88.4631H89.4771L92 21H91.8441H90.8461L90.2222 19.3197H87.6526L87.0192 21H86.9437Z" fill="white"/>
<path d="M20 15V43L34 29L20 15Z" fill="url(#paint0_linear)"/>
<path d="M20 15V43L34 29L20 15Z" fill="url(#paint1_linear)"/>
<path d="M44.4845 28.0452L39.2 25L35 29L39.2 33L44.4845 29.7484C44.7938 29.5935 45 29.2323 45 28.871C45 28.5097 44.7938 28.2 44.4845 28.0452Z" fill="url(#paint2_linear)"/>
<path d="M44.4845 28.0452L39.2 25L35 29L39.2 33L44.4845 29.7484C44.7938 29.5935 45 29.2323 45 28.871C45 28.5097 44.7938 28.2 44.4845 28.0452Z" fill="url(#paint3_linear)"/>
<path d="M21.0005 43L38.6005 33.45L34.5005 29.5L21.0005 43Z" fill="url(#paint4_linear)"/>
<path d="M21.0005 43L38.6005 33.45L34.5005 29.5L21.0005 43Z" fill="url(#paint5_linear)"/>
<path d="M38.6005 24.55L33.0505 21.3L21.0005 15L34.5005 28.5L38.6005 24.55Z" fill="url(#paint6_linear)"/>
<path d="M38.6005 24.55L33.0505 21.3L21.0005 15L34.5005 28.5L38.6005 24.55Z" fill="url(#paint7_linear)"/>
<rect x="0.5" y="0.5" width="169" height="55" rx="2.5" stroke="white"/>
<defs>
<linearGradient id="paint0_linear" x1="27" y1="24.5" x2="20" y2="33" gradientUnits="userSpaceOnUse">
<stop stop-color="#00E2FF"/>
<stop offset="1" stop-color="#03C6F5"/>
</linearGradient>
<linearGradient id="paint1_linear" x1="32.8101" y1="41.7588" x2="13.8625" y2="23.5977" gradientUnits="userSpaceOnUse">
<stop stop-color="#00A0FF"/>
<stop offset="0.00657445" stop-color="#00A1FF"/>
<stop offset="0.2601" stop-color="#00BEFF"/>
<stop offset="0.5122" stop-color="#00D2FF"/>
<stop offset="0.7604" stop-color="#00DFFF"/>
<stop offset="1" stop-color="#00E3FF"/>
</linearGradient>
<linearGradient id="paint2_linear" x1="40" y1="25" x2="29.5" y2="25" gradientUnits="userSpaceOnUse">
<stop stop-color="#FFEA0D"/>
<stop offset="1" stop-color="#FFCF00"/>
</linearGradient>
<linearGradient id="paint3_linear" x1="45.759" y1="29.0695" x2="21.9536" y2="29.0695" gradientUnits="userSpaceOnUse">
<stop stop-color="#FFE000"/>
<stop offset="0.4087" stop-color="#FFBD00"/>
<stop offset="0.7754" stop-color="#FFA500"/>
<stop offset="1" stop-color="#FF9C00"/>
</linearGradient>
<linearGradient id="paint4_linear" x1="30.0005" y1="29" x2="18.5005" y2="40.5" gradientUnits="userSpaceOnUse">
<stop stop-color="#F73547"/>
<stop offset="1" stop-color="#E22652"/>
</linearGradient>
<linearGradient id="paint5_linear" x1="36.2641" y1="40.5906" x2="12.3755" y2="16.4439" gradientUnits="userSpaceOnUse">
<stop stop-color="#FF3A44"/>
<stop offset="1" stop-color="#C31162"/>
</linearGradient>
<linearGradient id="paint6_linear" x1="36.0005" y1="24.5" x2="21.0005" y2="15" gradientUnits="userSpaceOnUse">
<stop stop-color="#2EF38F"/>
<stop offset="1" stop-color="#0EDE76"/>
</linearGradient>
<linearGradient id="paint7_linear" x1="17.5985" y1="35.8109" x2="28.2661" y2="25.0452" gradientUnits="userSpaceOnUse">
<stop stop-color="#32A071"/>
<stop offset="0.0685" stop-color="#2DA771"/>
<stop offset="0.4762" stop-color="#15CF74"/>
<stop offset="0.8009" stop-color="#06E775"/>
<stop offset="1" stop-color="#00F076"/>
</linearGradient>
</defs>
</svg>
