<svg width="32" height="32" viewBox="0 0 32 32" fill="none" xmlns="http://www.w3.org/2000/svg">
<path fill-rule="evenodd" clip-rule="evenodd" d="M4 9.12307V7.47036V5.15077V4.04371C4 2.80173 5.26854 2 6.23304 2L27.2542 2C28.2091 2 29 2.76353 29 3.69137V29.3086C29 30.2461 28.2188 31 27.2542 31H5.74576C4.7909 31 4 30.2365 4 29.3086V9.12307Z" fill="#BDECFF"/>
<path fill-rule="evenodd" clip-rule="evenodd" d="M4.51914 3.31044C4.30158 3.48866 4 3.78169 4 4.25552V9.12329C4 9.39943 3.88344 9.62329 3.56912 9.62329C3.2548 9.62329 3 9.39943 3 9.12329V4.25552C3 3.56945 3.24532 2.98667 3.7429 2.57906C4.23411 2.17666 4.89931 2.00391 5.61229 2.00391L6.42704 2.00402C6.74136 2.00407 6.99612 2.22796 6.99607 2.5041C6.99602 2.78025 6.74117 3.00407 6.42685 3.00402L5.61229 3.00391C5.09949 3.00392 4.74304 3.12702 4.51914 3.31044ZM3.56942 13.5002C3.88374 13.5002 4 13.7241 4 14.0002V19.0002C4 19.2764 3.88374 19.5002 3.56942 19.5002C3.2551 19.5002 3.0003 19.2764 3.0003 19.0002V14.0002C3.0003 13.7241 3.2551 13.5002 3.56942 13.5002ZM3.56942 23.5002C3.88374 23.5002 4 23.7241 4 24.0002V26.431V28.8357C4 29.3957 4.28131 29.656 4.42441 29.7834C4.56487 29.9085 4.81441 30.0021 5.29264 30.0021H6.43088C6.7452 30.0021 7 30.2259 7 30.5021C7 30.7782 6.7452 31.0021 6.43088 31.0021H5.29264C4.67303 31.0021 4.06096 30.8835 3.61427 30.4859C3.17022 30.0906 3.0003 29.5177 3.0003 28.8357V24.0002C3.0003 23.7241 3.2551 23.5002 3.56942 23.5002Z" fill="#333333"/>
<path fill-rule="evenodd" clip-rule="evenodd" d="M2.70931 10H6.34081C7.24292 10 7.19623 11 6.34081 11H2.72231C1.76151 11 1.7613 10 2.70931 10Z" fill="#333333"/>
<path fill-rule="evenodd" clip-rule="evenodd" d="M2.70931 20H6.34081C7.24292 20 7.19623 21 6.34081 21H2.72231C1.76151 21 1.7613 20 2.70931 20Z" fill="#333333"/>
<path fill-rule="evenodd" clip-rule="evenodd" d="M2.70931 12H6.34081C7.24292 12 7.19623 13 6.34081 13H2.72231C1.76151 13 1.7613 12 2.70931 12Z" fill="#333333"/>
<path fill-rule="evenodd" clip-rule="evenodd" d="M2.70931 22H6.34081C7.24292 22 7.19623 23 6.34081 23H2.72231C1.76151 23 1.7613 22 2.70931 22Z" fill="#333333"/>
<path fill-rule="evenodd" clip-rule="evenodd" d="M25.1346 27.6944L23.7091 26.3174L23.2437 26.7731L24.6691 28.1501L25.1346 27.6944Z" fill="#FEFEFE"/>
<path fill-rule="evenodd" clip-rule="evenodd" d="M9 2V31H27.2403C28.2028 31 29 30.2367 29 29.3092V3.69082C29 2.75362 28.2125 2 27.2403 2H9Z" fill="#FEFEFE"/>
<path fill-rule="evenodd" clip-rule="evenodd" d="M9 31V2H27.2403C28.2125 2 29 2.75362 29 3.69082V29.3092C29 30.2367 28.2028 31 27.2403 31H9ZM10 3V30H27.2403C27.6896 30 28 29.6461 28 29.3092V3.69082C28 3.34433 27.6994 3 27.2403 3H10Z" fill="#333333"/>
<mask id="path-10-inside-1_125_5962" fill="white">
<path fill-rule="evenodd" clip-rule="evenodd" d="M12.7143 1C13.0906 1.10499 12.9937 1.65574 12.9751 2H11V1.5082C11 1.22951 11.2609 1.01639 11.559 1.01639L12.7143 1Z"/>
</mask>
<path d="M12.7143 1L12.983 0.0367767C12.8909 0.0110955 12.7956 -0.00125543 12.7001 0.000100667L12.7143 1ZM12.9751 2V3C13.5064 3 13.9449 2.58455 13.9737 2.05405L12.9751 2ZM11 2H10C10 2.55228 10.4477 3 11 3V2ZM11.559 1.01639V2.01639C11.5637 2.01639 11.5685 2.01636 11.5732 2.01629L11.559 1.01639ZM12.4455 1.96322C12.3753 1.94362 12.297 1.90763 12.2225 1.85002C12.1487 1.79296 12.0964 1.72847 12.0615 1.67089C11.9983 1.56679 11.996 1.4929 11.9984 1.51545C12.0001 1.53171 12.0016 1.57267 11.9968 1.65614C11.9945 1.6958 11.9914 1.7365 11.9876 1.78605C11.9841 1.83156 11.9796 1.88958 11.9766 1.94595L13.9737 2.05405C13.9768 1.99662 14.019 1.60479 13.9873 1.3051C13.9531 0.982476 13.7803 0.259212 12.983 0.0367767L12.4455 1.96322ZM12.9751 1H11V3H12.9751V1ZM12 2V1.5082H10V2H12ZM12 1.5082C12 1.69861 11.9073 1.84071 11.8197 1.91605C11.7368 1.98732 11.6439 2.01639 11.559 2.01639V0.0163934C10.8557 0.0163934 10 0.540819 10 1.5082H12ZM11.5732 2.01629L12.7284 1.9999L12.7001 0.000100667L11.5448 0.0164941L11.5732 2.01629Z" fill="#333333" mask="url(#path-10-inside-1_125_5962)"/>
<path d="M16.1309 9.71576L15.809 9.42311L15.4747 9.70143L12.8081 11.9212V1.74032C12.8081 1.7323 12.8081 1.72398 12.8081 1.71538C12.8082 1.65494 12.8083 1.58071 12.804 1.5H12.8046H12.8073H12.8101H12.8128H12.8155H12.8182H12.8209H12.8237H12.8264H12.8291H12.8318H12.8345H12.8372H12.8399H12.8426H12.8452H12.8479H12.8506H12.8533H12.856H12.8586H12.8613H12.864H12.8666H12.8693H12.8719H12.8746H12.8772H12.8799H12.8825H12.8851H12.8877H12.8904H12.893H12.8956H12.8982H12.9008H12.9034H12.906H12.9086H12.9112H12.9138H12.9164H12.919H12.9215H12.9241H12.9267H12.9292H12.9318H12.9343H12.9369H12.9394H12.9419H12.9445H12.947H12.9495H12.952H12.9545H12.957H12.9595H12.962H12.9645H12.967H12.9695H12.9719H12.9744H12.9769H12.9793H12.9818H12.9842H12.9867H12.9891H12.9915H12.9939H12.9964H12.9988H13.0012H13.0036H13.006H13.0083H13.0107H13.0131H13.0155H13.0178H13.0202H13.0225H13.0249H13.0272H13.0295H13.0318H13.0342H13.0365H13.0388H13.0411H13.0433H13.0456H13.0479H13.0502H13.0524H13.0547H13.0569H13.0592H13.0614H13.0636H13.0658H13.068H13.0702H13.0724H13.0746H13.0768H13.079H13.0811H13.0833H13.0855H13.0876H13.0897H13.0919H13.094H13.0961H13.0982H13.1003H13.1024H13.1045H13.1065H13.1086H13.1106H13.1127H13.1147H13.1168H13.1188H13.1208H13.1228H13.1248H13.1268H13.1288H13.1307H13.1327H13.1347H13.1366H13.1385H13.1405H13.1424H13.1443H13.1462H13.1481H13.15H13.1519H13.1537H13.1556H13.1574H13.1593H13.1611H13.1629H13.1647H13.1665H13.1683H13.1701H13.1719H13.1736H13.1754H13.1771H13.1788H18.2391C18.3849 1.5 18.5 1.62247 18.5 1.75238V11.8697L16.1309 9.71576Z" fill="url(#paint0_linear_125_5962)" stroke="#333333"/>
<path fill-rule="evenodd" clip-rule="evenodd" d="M18.0735 16.9059C17.6787 17.8461 17.2764 18.7784 16.8815 19.7186C15.8534 19.8361 14.8179 19.9458 13.7897 20.0633C12.702 20.1809 12.8212 20.0633 13.6407 20.839C14.3858 21.5441 15.1308 22.2571 15.8832 22.9622C15.6672 24.0356 15.4511 25.1011 15.2351 26.1745C15.0265 27.193 14.8998 27.1538 15.7566 26.6289C16.6729 26.0726 17.5893 25.5163 18.5056 24.9601C19.422 25.5163 20.3383 26.0726 21.2547 26.6289C22.0668 27.1225 21.9923 27.2322 21.7986 26.2763C21.5751 25.1716 21.3516 24.0669 21.128 22.9622C21.8507 22.2806 22.5734 21.5911 23.296 20.9095C24.123 20.126 24.3539 20.1887 23.2588 20.0712C22.2158 19.9536 21.1728 19.844 20.1297 19.7264C19.7274 18.7863 19.3326 17.8383 18.9303 16.8981C18.4162 15.6915 18.5801 15.7072 18.0735 16.9059Z" fill="url(#paint1_linear_125_5962)"/>
<path fill-rule="evenodd" clip-rule="evenodd" d="M17.1515 16.5187L17.1524 16.5167C17.2118 16.376 17.2618 16.252 17.3059 16.1413C17.3128 16.1241 17.3197 16.1069 17.3266 16.0896C17.3617 16.0013 17.3967 15.9134 17.4278 15.84C17.4602 15.7633 17.5141 15.6386 17.5864 15.5243C17.6226 15.467 17.6936 15.3628 17.8072 15.2633C17.9249 15.16 18.148 15.0114 18.4652 15.0006C18.7885 14.9896 19.0274 15.1277 19.1605 15.2353C19.2851 15.3359 19.3625 15.4445 19.4012 15.5029C19.4784 15.6199 19.5351 15.7475 19.5682 15.8238C19.6027 15.9033 19.6412 15.9984 19.6799 16.0938C19.6844 16.1049 19.6889 16.116 19.6934 16.1271C19.7385 16.2384 19.7894 16.3632 19.85 16.5054C20.052 16.9775 20.2519 17.4512 20.4508 17.9222L20.4513 17.9233C20.5747 18.2156 20.6977 18.5069 20.8209 18.7973C21.1476 18.8334 21.4746 18.869 21.8025 18.9047L21.8037 18.9048C22.3236 18.9615 22.8457 19.0183 23.3681 19.0772C23.4051 19.0811 23.4426 19.0851 23.4802 19.089C23.6819 19.1102 23.8861 19.1316 24.0312 19.1595L24.0334 19.1599C24.1026 19.1731 24.3047 19.2119 24.4989 19.3329C24.6124 19.4036 24.7853 19.5404 24.8984 19.7774C25.0202 20.0327 25.0172 20.2874 24.9684 20.4829C24.8957 20.7741 24.7119 20.9667 24.6674 21.0134C24.6657 21.0151 24.663 21.0181 24.663 21.0181C24.5928 21.0923 24.5123 21.1637 24.453 21.2158C24.4226 21.2426 24.3917 21.2694 24.3599 21.2971C24.2501 21.3925 24.1301 21.4968 23.9838 21.6354L23.9822 21.637C23.6221 21.9766 23.2618 22.3184 22.9003 22.6614L22.8993 22.6623C22.6727 22.8773 22.4456 23.0927 22.2183 23.3079L22.7786 26.0777V26.0777C22.7946 26.1567 22.8149 26.251 22.8343 26.341C22.8584 26.4534 22.8812 26.5594 22.8928 26.6222C22.9041 26.6832 22.9276 26.8129 22.9256 26.9524L22.9256 26.9557C22.925 27.0222 22.9195 27.5965 22.3634 27.8843C22.104 28.0185 21.8607 28.0079 21.7288 27.9884C21.5967 27.9687 21.4937 27.9282 21.4393 27.9048C21.3316 27.8584 21.2341 27.7984 21.1816 27.7658C21.1117 27.7223 21.0612 27.6896 21.0103 27.6565C20.9385 27.6099 20.8656 27.5627 20.7358 27.4837L18.5056 26.1299L16.279 27.4816L16.2772 27.4827C16.2086 27.5247 16.1297 27.5744 16.0533 27.6224C15.9495 27.6876 15.8505 27.7499 15.7889 27.7859C15.7337 27.8182 15.6121 27.8888 15.47 27.9351C15.4001 27.9579 14.8243 28.1456 14.3716 27.6696C14.1801 27.4681 14.1201 27.2455 14.099 27.1252C14.0772 27.0015 14.0808 26.8965 14.0847 26.8378C14.0924 26.7218 14.1156 26.6089 14.1298 26.5418C14.1501 26.446 14.1649 26.3825 14.18 26.3177C14.2 26.232 14.2205 26.1439 14.2551 25.9755C14.363 25.4391 14.471 24.9047 14.5789 24.3708C14.6503 24.0173 14.7217 23.6636 14.7931 23.3098C14.4335 22.9707 14.0749 22.6299 13.7184 22.2912C13.4621 22.0477 13.207 21.8053 12.9534 21.5653C12.8229 21.4418 12.7271 21.3566 12.637 21.2765C12.5882 21.2331 12.5411 21.1913 12.4911 21.1456C12.4362 21.0955 12.3508 21.0164 12.2766 20.9285C12.2387 20.8835 12.1775 20.806 12.1234 20.7025C12.0716 20.6033 11.9897 20.4112 12.0011 20.1591C12.0303 19.5134 12.563 19.2723 12.6823 19.2254C12.8358 19.165 12.9889 19.1436 13.0569 19.1343C13.1427 19.1225 13.2754 19.1096 13.4147 19.0961C13.5037 19.0874 13.5954 19.0785 13.6794 19.0695C14.1944 19.0106 14.711 18.9537 15.2252 18.8971C15.5466 18.8617 15.8681 18.8263 16.1877 18.7906C16.3107 18.5001 16.434 18.2105 16.5569 17.9218L16.5574 17.9206C16.7569 17.4521 16.9552 16.9862 17.1515 16.5187ZM16.8815 19.7186C16.3675 19.7774 15.8516 19.8342 15.3356 19.891C14.9645 19.9318 14.5933 19.9727 14.2229 20.0143C14.1438 20.0232 14.0647 20.0321 13.9856 20.0411C13.9203 20.0485 13.855 20.0559 13.7898 20.0634C13.2688 20.1196 13.0247 20.122 13.0018 20.1944C12.9769 20.2732 13.2137 20.4348 13.6408 20.839C13.662 20.8591 13.6832 20.8792 13.7044 20.8993C13.761 20.9528 13.8175 21.0064 13.8741 21.06C14.0529 21.2297 14.2318 21.3996 14.4108 21.5697C14.8998 22.0343 15.3899 22.4999 15.8832 22.9622C15.7752 23.4989 15.6672 24.0336 15.5591 24.5683C15.4816 24.952 15.4041 25.3357 15.3266 25.7201C15.3165 25.7702 15.3064 25.8204 15.2963 25.8706L15.2952 25.8759C15.2867 25.9181 15.2782 25.9603 15.2697 26.0025C15.2582 26.0598 15.2466 26.1171 15.2351 26.1745C15.1278 26.6984 15.0421 26.9425 15.1009 26.9845C15.1564 27.0241 15.3406 26.8838 15.7566 26.6289L18.5056 24.9601L20.955 26.447L21.2547 26.6289C21.6679 26.8801 21.8516 27.0318 21.9068 26.9944C21.9601 26.9582 21.8937 26.7458 21.7986 26.2763L21.1281 22.9622C21.4894 22.6214 21.8507 22.2786 22.212 21.9359C22.519 21.6446 22.8261 21.3534 23.1331 21.0633C23.1383 21.0584 23.1434 21.0535 23.1486 21.0486C23.1506 21.0468 23.1525 21.045 23.1545 21.0431C23.2002 20.9999 23.2459 20.9568 23.2916 20.9137C23.2931 20.9123 23.2946 20.9109 23.296 20.9095C23.7496 20.4797 24.0239 20.3046 23.9984 20.2146C23.9773 20.1406 23.7532 20.1242 23.2588 20.0712C23.1784 20.0621 23.0981 20.0531 23.0178 20.0442C22.9407 20.0356 22.8636 20.027 22.7866 20.0185C22.4225 19.9781 22.0584 19.9385 21.6943 19.8988C21.1728 19.842 20.6513 19.7852 20.1298 19.7265C19.9286 19.2564 19.7293 18.7843 19.53 18.3123C19.3692 17.9314 19.2085 17.5506 19.0467 17.1708C19.008 17.0799 18.9692 16.9891 18.9304 16.8983V16.8983C18.6744 16.2975 18.5865 15.9996 18.5002 16C18.4135 16.0005 18.3284 16.3024 18.0757 16.9008L18.0735 16.9059C18.0361 16.9951 17.9986 17.0842 17.961 17.1733C17.8005 17.5536 17.639 17.933 17.4775 18.3123C17.2782 18.7804 17.079 19.2485 16.8815 19.7186Z" fill="#333333"/>
<defs>
<linearGradient id="paint0_linear_125_5962" x1="8.68013" y1="-0.519441" x2="16.6184" y2="8.21326" gradientUnits="userSpaceOnUse">
<stop stop-color="#FFC671"/>
<stop offset="1" stop-color="#FF6F3D"/>
</linearGradient>
<linearGradient id="paint1_linear_125_5962" x1="13" y1="15.5703" x2="24" y2="27" gradientUnits="userSpaceOnUse">
<stop stop-color="#FF8E3D"/>
<stop offset="1" stop-color="#FF6F3D"/>
</linearGradient>
</defs>
</svg>
