<svg width="32" height="32" viewBox="0 0 32 32" fill="none" xmlns="http://www.w3.org/2000/svg">
<path d="M2.93019 17.3533H5.80049H26.5629H29.2005C29.7017 17.3533 30.1274 17.2324 30.5005 17.0293V25.9418C30.5005 26.8006 29.7907 27.4976 29.0005 27.4976H2.94958C2.18236 27.4976 1.50049 26.8241 1.50049 25.9418V17.0002C1.92873 17.2245 2.41309 17.3533 2.93019 17.3533Z" fill="#BDECFF" stroke="#333333"/>
<path d="M2.14 17.8253L2.14001 17.8253L2.13677 17.8219C1.74461 17.4156 1.50049 16.8418 1.50049 16.2053V9.79465C1.50049 8.50935 2.50126 7.5 3.66147 7.5H10.6406H11.9948H20.0062H21.3603H28.3395C29.5081 7.5 30.5005 8.50816 30.5005 9.79465V16.2053C30.5005 16.8344 30.252 17.4034 29.8593 17.8271C29.4616 18.2461 28.9269 18.5 28.3395 18.5H25.7637H25.7402H25.7165H25.6925H25.6682H25.6436H25.6188H25.5937H25.5683H25.5427H25.5169H25.4907H25.4644H25.4377H25.4108H25.3837H25.3563H25.3287H25.3008H25.2726H25.2443H25.2156H25.1868H25.1576H25.1283H25.0987H25.0689H25.0388H25.0085H24.9779H24.9472H24.9162H24.8849H24.8535H24.8218H24.7898H24.7577H24.7253H24.6927H24.6599H24.6268H24.5936H24.5601H24.5264H24.4925H24.4583H24.424H24.3894H24.3546H24.3196H24.2845H24.2491H24.2134H24.1776H24.1416H24.1054H24.069H24.0324H23.9955H23.9585H23.9213H23.8839H23.8463H23.8085H23.7705H23.7323H23.6939H23.6554H23.6166H23.5777H23.5386H23.4993H23.4598H23.4201H23.3803H23.3403H23.3001H23.2597H23.2191H23.1784H23.1375H23.0965H23.0552H23.0138H22.9722H22.9305H22.8886H22.8465H22.8043H22.7619H22.7194H22.6767H22.6338H22.5908H22.5476H22.5043H22.4608H22.4171H22.3734H22.3294H22.2853H22.2411H22.1967H22.1522H22.1076H22.0628H22.0178H21.9727H21.9275H21.8822H21.8367H21.791H21.7453H21.6994H21.6534H21.6072H21.561H21.5146H21.468H21.4214H21.3746H21.3277H21.2807H21.2335H21.1863H21.1389H21.0914H21.0438H20.9961H20.9483H20.9004H20.8523H20.8041H20.7559H20.7075H20.659H20.6105H20.5618H20.513H20.4641H20.4152H20.3661H20.3169H20.2676H20.2183H20.1688H20.1193H20.0697H20.0199H19.9701H19.9202H19.8703H19.8202H19.7701H19.7198H19.6695H19.6191H19.5687H19.5181H19.4675H19.4168H19.3661H19.3153H19.2644H19.2134H19.1624H19.1112H19.0601H19.0089H18.9576H18.9062H18.8548H18.8033H18.7518H18.7002H18.6485H18.5968H18.5451H18.4933H18.4414H18.3895H18.3376H18.2856H18.2335H18.1814H18.1293H18.0771H18.0249H17.9727H17.9204H17.8681H17.8157H17.7633H17.7109H17.6584H17.6059H17.5534H17.5008H17.4483H17.3957H17.343H17.2904H17.2377H17.185H17.1323H17.0796H17.0268H16.9741H16.9213H16.8685H16.8157H16.7629H16.71H16.6572H16.6044H16.5515H16.4987H16.4458H16.3929H16.3401H16.2872H16.2344H16.1815H16.1287H16.0758H16.023H15.9701H15.9173H15.8645H15.8117H15.7589H15.7061H15.6534H15.6006H15.5479H15.4952H15.4425H15.3898H15.3372H15.2845H15.2319H15.1794H15.1268H15.0743H15.0218H14.9694H14.9169H14.8645H14.8122H14.7599H14.7076H14.6553H14.6031H14.551H14.4988H14.4468H14.3947H14.3427H14.2908H14.2389H14.187H14.1352H14.0835H14.0318H13.9802H13.9286H13.8771H13.8256H13.7742H13.7228H13.6716H13.6203H13.5692H13.5181H13.467H13.4161H13.3652H13.3144H13.2636H13.213H13.1624H13.1118H13.0614H13.011H12.9607H12.9105H12.8604H12.8103H12.7603H12.7105H12.6607H12.611H12.5613H12.5118H12.4624H12.413H12.3638H12.3146H12.2656H12.2166H12.1677H12.119H12.0703H12.0217H11.9733H11.9249H11.8767H11.8285H11.7805H11.7326H11.6848H11.6371H11.5895H11.542H11.4947H11.4474H11.4003H11.3533H11.3064H11.2597H11.213H11.1665H11.1201H11.0739H11.0277H10.9817H10.9359H10.8901H10.8445H10.7991H10.7537H10.7085H10.6635H10.6185H10.5738H10.5291H10.4846H10.4403H10.3961H10.352H10.3081H10.2643H10.2207H10.1772H10.1339H10.0908H10.0478H10.0049H9.96224H9.91971H9.87735H9.83514H9.7931H9.75122H9.7095H9.66795H9.62657H9.58536H9.54432H9.50345H9.46275H9.42222H9.38187H9.3417H9.3017H9.26188H9.22224H9.18278H9.14351H9.10442H9.06551H9.02679H8.98825H8.94991H8.91175H8.87379H8.83601H8.79843H8.76105H8.72386H8.68687H8.65007H8.61348H8.57709H8.54089H8.5049H8.46912H8.43354H8.39817H8.36301H8.32805H8.29331H8.25878H8.22446H8.19035H8.15646H8.12279H8.08934H8.0561H8.02309H7.99029H7.95772H7.92538H7.89325H7.86136H7.82969H7.79826H7.76705H7.73607H7.70533H7.67482H7.64455H7.61451H7.58471H7.55515H7.52583H7.49675H7.46791H7.43932H7.41097H7.38287H7.35501H7.32741H7.30005H7.27295H7.24609H7.2195H7.19315H7.16706H7.14123H7.11566H7.09035H7.0653H7.04051H7.01599H6.99173H6.96773H6.944H6.92055H6.89736H6.87444H6.85179H6.82942H6.80732H6.7855H6.76395H6.74269H6.7217H6.70099H6.68057H6.66042H6.64057H6.621H6.60171H6.58271H6.56401H6.54559H6.52747H6.50963H6.4921H6.47485H6.45791H6.44126H6.42491H6.40886H6.39312H6.37768H6.36254H6.3477H6.33317H6.31895H6.30504H6.29144H6.27816H6.26518H6.25252H6.24017H6.22814H6.21643H6.20503H6.19396H6.18321H6.17278H6.16267H6.15289H6.14344H6.13431H6.12551H6.11704H6.1089H6.1011H6.09363H6.08649H6.07969H6.07323H6.0671H6.06132H6.05588H6.05078H6.04602H6.04161H6.03754H6.03382H6.03045H6.02743H6.02475H6.02244H6.02047H6.01886H6.0176H6.01671H6.01617C6.01605 18.5 6.01599 18.5 6.01599 19V18.5H3.66147C3.07323 18.5 2.53792 18.2454 2.14 17.8253Z" fill="#FEFEFE" stroke="#333333"/>
<path d="M19.5053 6.99219V7.49219H20.0053H21.0005H21.5005V6.99219V5.55085C21.5005 4.44996 20.5628 3.5 19.4563 3.5H11.5334C10.9498 3.5 10.4568 3.8194 10.1275 4.1928C9.80336 4.56048 9.57003 5.05581 9.56609 5.53842L9.501 6.97741L9.47736 7.5H10.0005H11.0005H11.5005V7V5.7311C11.5005 5.5902 11.5345 5.54625 11.538 5.54234C11.538 5.5423 11.5381 5.54225 11.5381 5.5422C11.5393 5.54081 11.5438 5.53565 11.5605 5.52913C11.5802 5.52142 11.6222 5.51009 11.6972 5.51009H19.2568C19.3811 5.51009 19.4344 5.54751 19.4544 5.56727C19.4744 5.58686 19.5053 5.63169 19.5053 5.7311V6.99219Z" fill="url(#paint0_linear_125_5454)" stroke="#333333"/>
<path d="M11.5005 17.3017C11.5005 17.0286 11.3522 16.8186 11.19 16.6935C11.0266 16.5674 10.8198 16.5 10.6086 16.5H6.39241C6.18117 16.5 5.97442 16.5674 5.81093 16.6935C5.64878 16.8186 5.50049 17.0286 5.50049 17.3017V18.5V19.6983C5.50049 19.9714 5.64878 20.1814 5.81093 20.3065C5.97442 20.4326 6.18117 20.5 6.39241 20.5H10.6086C10.8198 20.5 11.0266 20.4326 11.19 20.3065C11.3522 20.1814 11.5005 19.9714 11.5005 19.6983V17.3017Z" fill="url(#paint1_linear_125_5454)" stroke="#333333"/>
<path d="M26.5005 17.3017C26.5005 17.0286 26.3522 16.8186 26.19 16.6935C26.0266 16.5674 25.8198 16.5 25.6086 16.5H21.3924C21.1812 16.5 20.9744 16.5674 20.8109 16.6935C20.6488 16.8186 20.5005 17.0286 20.5005 17.3017V18.5V19.6983C20.5005 19.9714 20.6488 20.1814 20.8109 20.3065C20.9744 20.4326 21.1812 20.5 21.3924 20.5H25.6086C25.8198 20.5 26.0266 20.4326 26.19 20.3065C26.3522 20.1814 26.5005 19.9714 26.5005 19.6983V17.3017Z" fill="url(#paint2_linear_125_5454)" stroke="#333333"/>
<defs>
<linearGradient id="paint0_linear_125_5454" x1="10.6414" y1="1.32555" x2="15.2367" y2="7.29427" gradientUnits="userSpaceOnUse">
<stop stop-color="#FFC671"/>
<stop offset="1" stop-color="#FF6F3D"/>
</linearGradient>
<linearGradient id="paint1_linear_125_5454" x1="6.0005" y1="16.8828" x2="8.60069" y2="21.3858" gradientUnits="userSpaceOnUse">
<stop stop-color="#FF8E3D"/>
<stop offset="1" stop-color="#FF6F3D"/>
</linearGradient>
<linearGradient id="paint2_linear_125_5454" x1="21.0005" y1="16.8828" x2="23.6007" y2="21.3858" gradientUnits="userSpaceOnUse">
<stop stop-color="#FF8E3D"/>
<stop offset="1" stop-color="#FF6F3D"/>
</linearGradient>
</defs>
</svg>
