<svg width="32" height="32" viewBox="0 0 32 32" fill="none" xmlns="http://www.w3.org/2000/svg">
<g clip-path="url(#clip0_125_5478)">
<path fill-rule="evenodd" clip-rule="evenodd" d="M14.0005 3H21.0005V1.42798C21.0005 1.1893 20.7286 1 20.4115 1H14.5895C14.261 1 14.0005 1.1893 14.0005 1.42798V3V3Z" fill="url(#paint0_linear_125_5478)"/>
<path fill-rule="evenodd" clip-rule="evenodd" d="M22.0005 4H14.0005V3H21.0005V1.42798C21.0005 1.1893 20.7286 1 20.4115 1H14.5895C14.261 1 14.0005 1.1893 14.0005 1.42798V3H13.0005V1.42798C13.0005 0.915579 13.2842 0.533363 13.584 0.315503C13.8819 0.0990335 14.2414 0 14.5895 0H20.4115C20.7595 0 21.1149 0.101901 21.4077 0.311823C21.6984 0.520301 22.0005 0.900276 22.0005 1.42798V4Z" fill="#333333"/>
<path fill-rule="evenodd" clip-rule="evenodd" d="M24.0005 7V30H29.0041V9.32648C29.0041 9.02385 28.7229 8.88199 28.432 8.7685L25.1738 7.44449L24.0005 7Z" fill="#BDECFF"/>
<path fill-rule="evenodd" clip-rule="evenodd" d="M25.3771 6.9677C25.4854 6.71366 25.7791 6.59547 26.0331 6.70372L28.9365 7.94085C29.9219 8.3859 30.0005 9.40464 30.0005 9.73754V29.9999C30.0005 30.276 29.7766 30.4999 29.5005 30.4999H24.0005C23.7243 30.4999 23.5005 30.276 23.5005 29.9999C23.5005 29.7238 23.7243 29.4999 24.0005 29.4999H29.0005V9.73754C29.0005 9.46614 28.9255 9.03612 28.5291 8.85427L25.6411 7.62369C25.3871 7.51544 25.2689 7.22174 25.3771 6.9677Z" fill="#333333"/>
<path d="M4.00049 11H11.0005V31H4.00049V11Z" fill="white"/>
<path fill-rule="evenodd" clip-rule="evenodd" d="M4.15811 11.175C4.27638 11.0654 4.4073 11.0095 4.54241 11.0095H8.49843C8.77544 11.0095 9 10.7835 9 10.5047C9 10.226 8.77544 10 8.49843 10H4.54241C4.09752 10 3.72602 10.1955 3.45767 10.452C3.45145 10.458 3.44539 10.4641 3.43948 10.4703C3.17579 10.7497 3 11.1254 3 11.5619V29.4953C3 29.774 3.22456 30 3.50157 30C3.77858 30 4.00314 29.774 4.00314 29.4953V11.5619C4.00314 11.4153 4.05767 11.2852 4.15811 11.175Z" fill="#333333"/>
<path fill-rule="evenodd" clip-rule="evenodd" d="M11.8568 3H23.1441C23.608 3 24.0005 3.31614 24.0005 3.71131V30H11.0005V3.71131C11.0005 3.31614 11.3811 3 11.8568 3Z" fill="#FEFEFE"/>
<path fill-rule="evenodd" clip-rule="evenodd" d="M12.0005 4V29H23.0005V4H12.0005ZM23.1473 4.00029C23.1473 4.00034 23.1467 4.00032 23.1455 4.00003ZM11.8482 4.00068C11.8482 4.00066 11.8486 4.00054 11.8496 4.00041ZM23.1441 3H11.8568C11.3811 3 11.0005 3.31614 11.0005 3.71131V30H24.0005V3.71131C24.0005 3.31614 23.608 3 23.1441 3Z" fill="#333333"/>
<path fill-rule="evenodd" clip-rule="evenodd" d="M1.40971 31H30.5913C30.8154 31 31.0005 30.819 31.0005 30.6V30.4C31.0005 30.181 30.8154 30 30.5913 30H1.40971C1.18561 30 1.00049 30.181 1.00049 30.4V30.6C1.01023 30.819 1.18561 31 1.40971 31Z" fill="#BDECFF"/>
<path fill-rule="evenodd" clip-rule="evenodd" d="M0.000488281 30.6222V30.4C0.000488281 29.6073 0.654947 29 1.40971 29H30.5913C31.346 29 32.0005 29.6073 32.0005 30.4V30.6C32.0005 31.3927 31.346 32 30.5913 32H1.40971C0.615736 32 0.0334125 31.3624 0.00147611 30.6444L0.000488281 30.6222ZM1.40971 30H30.5913C30.8154 30 31.0005 30.181 31.0005 30.4V30.6C31.0005 30.819 30.8154 31 30.5913 31H1.40971C1.18561 31 1.01023 30.819 1.00049 30.6V30.4C1.00049 30.181 1.18561 30 1.40971 30Z" fill="#333333"/>
<path fill-rule="evenodd" clip-rule="evenodd" d="M5.00094 12.4996C5.00119 12.2236 5.225 12 5.50098 12L6.50094 12C6.77708 12.0001 7.00093 12.2239 7.00093 12.5001V12.5001C7.00093 12.7762 6.77707 13.0001 6.50092 13.0001H5.50097C5.22463 13.0001 5.00069 12.7759 5.00094 12.4996V12.4996Z" fill="#333333"/>
<path fill-rule="evenodd" clip-rule="evenodd" d="M5.00094 20.4996C5.00119 20.2236 5.225 20 5.50098 20L6.50094 20C6.77708 20.0001 7.00093 20.2239 7.00093 20.5001V20.5001C7.00093 20.7762 6.77707 21.0001 6.50092 21.0001H5.50097C5.22463 21.0001 5.00069 20.7759 5.00094 20.4996V20.4996Z" fill="#333333"/>
<path fill-rule="evenodd" clip-rule="evenodd" d="M5.00094 16.4996C5.00119 16.2236 5.225 16 5.50098 16L6.50094 16C6.77708 16.0001 7.00093 16.2239 7.00093 16.5001V16.5001C7.00093 16.7762 6.77707 17.0001 6.50092 17.0001H5.50097C5.22463 17.0001 5.00069 16.7759 5.00094 16.4996V16.4996Z" fill="#333333"/>
<path fill-rule="evenodd" clip-rule="evenodd" d="M5.00094 24.4996C5.00119 24.2236 5.225 24 5.50098 24L6.50094 24C6.77708 24.0001 7.00093 24.2239 7.00093 24.5001V24.5001C7.00093 24.7762 6.77707 25.0001 6.50092 25.0001H5.50097C5.22463 25.0001 5.00069 24.7759 5.00094 24.4996V24.4996Z" fill="#333333"/>
<path fill-rule="evenodd" clip-rule="evenodd" d="M5.00094 14.4996C5.00119 14.2236 5.225 14 5.50098 14L6.50094 14C6.77708 14.0001 7.00093 14.2239 7.00093 14.5001V14.5001C7.00093 14.7762 6.77707 15.0001 6.50092 15.0001H5.50097C5.22463 15.0001 5.00069 14.7759 5.00094 14.4996V14.4996Z" fill="#333333"/>
<path fill-rule="evenodd" clip-rule="evenodd" d="M5.00094 22.4996C5.00119 22.2236 5.225 22 5.50098 22L6.50094 22C6.77708 22.0001 7.00093 22.2239 7.00093 22.5001V22.5001C7.00093 22.7762 6.77707 23.0001 6.50092 23.0001H5.50097C5.22463 23.0001 5.00069 22.7759 5.00094 22.4996V22.4996Z" fill="#333333"/>
<path fill-rule="evenodd" clip-rule="evenodd" d="M5.00094 18.4996C5.00119 18.2236 5.225 18 5.50098 18L6.50094 18C6.77708 18.0001 7.00093 18.2239 7.00093 18.5001V18.5001C7.00093 18.7762 6.77707 19.0001 6.50092 19.0001H5.50097C5.22463 19.0001 5.00069 18.7759 5.00094 18.4996V18.4996Z" fill="#333333"/>
<path fill-rule="evenodd" clip-rule="evenodd" d="M5.00094 26.4996C5.00119 26.2236 5.225 26 5.50098 26L6.50094 26C6.77708 26.0001 7.00093 26.2239 7.00093 26.5001V26.5001C7.00093 26.7762 6.77707 27.0001 6.50092 27.0001H5.50097C5.22463 27.0001 5.00069 26.7759 5.00094 26.4996V26.4996Z" fill="#333333"/>
<path fill-rule="evenodd" clip-rule="evenodd" d="M25.502 10.9995C25.226 10.9993 25.0024 10.7755 25.0025 10.4995L25.0025 9.49955C25.0025 9.22341 25.2264 8.99956 25.5025 8.99956V8.99956C25.7786 8.99956 26.0025 9.22342 26.0025 9.49956V10.4995C26.0025 10.7759 25.7784 10.9998 25.502 10.9995V10.9995Z" fill="#333333"/>
<path fill-rule="evenodd" clip-rule="evenodd" d="M25.502 17C25.226 16.9998 25.0024 16.776 25.0025 16.5L25.0025 15.5C25.0025 15.2239 25.2264 15 25.5025 15V15C25.7786 15 26.0025 15.2239 26.0025 15.5001V16.5C26.0025 16.7763 25.7784 17.0003 25.502 17V17Z" fill="#333333"/>
<path fill-rule="evenodd" clip-rule="evenodd" d="M25.502 23.0005C25.226 23.0003 25.0024 22.7765 25.0025 22.5005L25.0025 21.5005C25.0025 21.2244 25.2264 21.0005 25.5025 21.0005V21.0005C25.7786 21.0005 26.0025 21.2244 26.0025 21.5005V22.5005C26.0025 22.7768 25.7784 23.0008 25.502 23.0005V23.0005Z" fill="#333333"/>
<path fill-rule="evenodd" clip-rule="evenodd" d="M25.502 13.9995C25.226 13.9993 25.0024 13.7755 25.0025 13.4995L25.0025 12.4995C25.0025 12.2234 25.2264 11.9996 25.5025 11.9996V11.9996C25.7786 11.9996 26.0025 12.2234 26.0025 12.4996V13.4995C26.0025 13.7759 25.7784 13.9998 25.502 13.9995V13.9995Z" fill="#333333"/>
<path fill-rule="evenodd" clip-rule="evenodd" d="M25.502 20C25.226 19.9998 25.0024 19.776 25.0025 19.5L25.0025 18.5C25.0025 18.2239 25.2264 18 25.5025 18V18C25.7786 18 26.0025 18.2239 26.0025 18.5001V19.5C26.0025 19.7763 25.7784 20.0003 25.502 20V20Z" fill="#333333"/>
<path fill-rule="evenodd" clip-rule="evenodd" d="M25.502 26.0005C25.226 26.0003 25.0024 25.7765 25.0025 25.5005L25.0025 24.5005C25.0025 24.2244 25.2264 24.0005 25.5025 24.0005V24.0005C25.7786 24.0005 26.0025 24.2244 26.0025 24.5005V25.5005C26.0025 25.7768 25.7784 26.0008 25.502 26.0005V26.0005Z" fill="#333333"/>
<path fill-rule="evenodd" clip-rule="evenodd" d="M27.5001 11.9995C27.2241 11.9993 27.0005 11.7755 27.0005 11.4995L27.0005 10.4995C27.0005 10.2234 27.2244 9.99956 27.5005 9.99956V9.99956C27.7767 9.99956 28.0006 10.2234 28.0006 10.4996V11.4995C28.0006 11.7759 27.7764 11.9998 27.5001 11.9995V11.9995Z" fill="#333333"/>
<path fill-rule="evenodd" clip-rule="evenodd" d="M27.5001 18C27.2241 17.9998 27.0005 17.776 27.0005 17.5L27.0005 16.5C27.0005 16.2239 27.2244 16 27.5005 16V16C27.7767 16 28.0006 16.2239 28.0006 16.5001V17.5C28.0006 17.7763 27.7764 18.0003 27.5001 18V18Z" fill="#333333"/>
<path fill-rule="evenodd" clip-rule="evenodd" d="M27.5001 24.0005C27.2241 24.0003 27.0005 23.7765 27.0005 23.5005L27.0005 22.5005C27.0005 22.2244 27.2244 22.0005 27.5005 22.0005V22.0005C27.7767 22.0005 28.0006 22.2244 28.0006 22.5005V23.5005C28.0006 23.7768 27.7764 24.0008 27.5001 24.0005V24.0005Z" fill="#333333"/>
<path fill-rule="evenodd" clip-rule="evenodd" d="M27.5001 14.9995C27.2241 14.9993 27.0005 14.7755 27.0005 14.4995L27.0005 13.4995C27.0005 13.2234 27.2244 12.9996 27.5005 12.9996V12.9996C27.7767 12.9996 28.0006 13.2234 28.0006 13.4996V14.4995C28.0006 14.7759 27.7764 14.9998 27.5001 14.9995V14.9995Z" fill="#333333"/>
<path fill-rule="evenodd" clip-rule="evenodd" d="M27.5001 21C27.2241 20.9998 27.0005 20.776 27.0005 20.5L27.0005 19.5C27.0005 19.2239 27.2244 19 27.5005 19V19C27.7767 19 28.0006 19.2239 28.0006 19.5001V20.5C28.0006 20.7763 27.7764 21.0003 27.5001 21V21Z" fill="#333333"/>
<path fill-rule="evenodd" clip-rule="evenodd" d="M27.5001 27.0005C27.2241 27.0003 27.0005 26.7765 27.0005 26.5005L27.0005 25.5005C27.0005 25.2244 27.2244 25.0005 27.5005 25.0005V25.0005C27.7767 25.0005 28.0006 25.2244 28.0006 25.5005V26.5005C28.0006 26.7768 27.7764 27.0008 27.5001 27.0005V27.0005Z" fill="#333333"/>
<path fill-rule="evenodd" clip-rule="evenodd" d="M8.50248 12C8.2265 12 8.00269 12.2236 8.00244 12.4996C8.00219 12.7759 8.22613 13 8.50247 13H9.50242C9.77857 13 10.0024 12.7762 10.0024 12.5C10.0024 12.2239 9.77858 12 9.50244 12L8.50248 12ZM8.50248 20C8.2265 20 8.00269 20.2236 8.00244 20.4996C8.00219 20.7759 8.22613 21 8.50247 21H9.50242C9.77857 21 10.0024 20.7762 10.0024 20.5C10.0024 20.2239 9.77858 20 9.50244 20L8.50248 20ZM8.00244 16.4996C8.00269 16.2236 8.2265 16 8.50248 16L9.50244 16C9.77858 16 10.0024 16.2239 10.0024 16.5C10.0024 16.7762 9.77857 17 9.50242 17H8.50247C8.22613 17 8.00219 16.7759 8.00244 16.4996ZM8.50248 24C8.2265 24 8.00269 24.2236 8.00244 24.4996C8.00219 24.7759 8.22613 25 8.50247 25H9.50242C9.77857 25 10.0024 24.7762 10.0024 24.5C10.0024 24.2239 9.77858 24 9.50244 24L8.50248 24ZM8.00244 14.4996C8.00269 14.2236 8.2265 14 8.50248 14L9.50244 14C9.77858 14 10.0024 14.2239 10.0024 14.5C10.0024 14.7762 9.77857 15 9.50242 15H8.50247C8.22613 15 8.00219 14.7759 8.00244 14.4996ZM8.50248 22C8.2265 22 8.00269 22.2236 8.00244 22.4996C8.00219 22.7759 8.22613 23 8.50247 23H9.50242C9.77857 23 10.0024 22.7762 10.0024 22.5C10.0024 22.2239 9.77858 22 9.50244 22L8.50248 22ZM8.00244 18.4996C8.00269 18.2236 8.2265 18 8.50248 18L9.50244 18C9.77858 18 10.0024 18.2239 10.0024 18.5C10.0024 18.7762 9.77857 19 9.50242 19H8.50247C8.22613 19 8.00219 18.7759 8.00244 18.4996ZM8.50248 26C8.2265 26 8.00269 26.2236 8.00244 26.4996C8.00219 26.7759 8.22613 27 8.50247 27H9.50242C9.77857 27 10.0024 26.7762 10.0024 26.5C10.0024 26.2239 9.77858 26 9.50244 26L8.50248 26Z" fill="#333333"/>
<path fill-rule="evenodd" clip-rule="evenodd" d="M18.5002 6.00049C18.2243 6.00048 18.0006 6.22394 18.0002 6.49984C17.9998 6.77626 18.2238 7.00054 18.5002 7.00054H20.4995C20.7757 7.00054 20.9995 6.77668 20.9995 6.50054C20.9995 6.2244 20.7757 6.00054 20.4995 6.00053L18.5002 6.00049ZM14.5005 6.00049C14.2246 6.00048 14.0009 6.22394 14.0005 6.49984C14.0001 6.77626 14.2241 7.00054 14.5005 7.00054H16.4998C16.7759 7.00054 16.9998 6.77668 16.9998 6.50054C16.9998 6.2244 16.776 6.00054 16.4998 6.00053L14.5005 6.00049ZM18.0012 14.4998C18.0015 14.2239 18.2253 14.0005 18.5012 14.0005L20.5005 14.0005C20.7766 14.0005 21.0005 14.2244 21.0005 14.5005C21.0005 14.7767 20.7766 15.0005 20.5005 15.0005H18.5012C18.2248 15.0005 18.0008 14.7763 18.0012 14.4998ZM14.5015 14.0005C14.2256 14.0005 14.0018 14.2239 14.0015 14.4998C14.0011 14.7763 14.2251 15.0005 14.5015 15.0005H16.5008C16.7769 15.0005 17.0008 14.7767 17.0008 14.5005C17.0008 14.2244 16.7769 14.0005 16.5008 14.0005L14.5015 14.0005ZM18.0012 10.4998C18.0015 10.2239 18.2253 10.0005 18.5012 10.0005L20.5005 10.0005C20.7766 10.0005 21.0005 10.2244 21.0005 10.5005C21.0005 10.7767 20.7766 11.0005 20.5005 11.0005H18.5012C18.2248 11.0005 18.0008 10.7763 18.0012 10.4998ZM14.5015 10.0005C14.2256 10.0005 14.0018 10.2239 14.0015 10.4998C14.0011 10.7763 14.2251 11.0005 14.5015 11.0005H16.5008C16.7769 11.0005 17.0008 10.7767 17.0008 10.5005C17.0008 10.2244 16.7769 10.0005 16.5008 10.0005L14.5015 10.0005ZM18.0012 18.4998C18.0015 18.2239 18.2253 18.0005 18.5012 18.0005L20.5005 18.0005C20.7766 18.0005 21.0005 18.2244 21.0005 18.5005C21.0005 18.7767 20.7766 19.0005 20.5005 19.0005H18.5012C18.2248 19.0005 18.0008 18.7763 18.0012 18.4998ZM14.5015 18.0005C14.2256 18.0005 14.0018 18.2239 14.0015 18.4998C14.0011 18.7763 14.2251 19.0005 14.5015 19.0005H16.5008C16.7769 19.0005 17.0008 18.7767 17.0008 18.5005C17.0008 18.2244 16.7769 18.0005 16.5008 18.0005L14.5015 18.0005ZM18.0012 8.49984C18.0015 8.22394 18.2253 8.00048 18.5012 8.00049L20.5005 8.00053C20.7766 8.00054 21.0005 8.2244 21.0005 8.50054C21.0005 8.77668 20.7766 9.00054 20.5005 9.00054H18.5012C18.2248 9.00054 18.0008 8.77626 18.0012 8.49984ZM14.5015 8.00049C14.2256 8.00048 14.0018 8.22394 14.0015 8.49984C14.0011 8.77626 14.2251 9.00054 14.5015 9.00054H16.5008C16.7769 9.00054 17.0008 8.77668 17.0008 8.50054C17.0008 8.2244 16.7769 8.00054 16.5008 8.00053L14.5015 8.00049ZM18.0012 16.4998C18.0015 16.2239 18.2253 16.0005 18.5012 16.0005L20.5005 16.0005C20.7766 16.0005 21.0005 16.2244 21.0005 16.5005C21.0005 16.7767 20.7766 17.0005 20.5005 17.0005H18.5012C18.2248 17.0005 18.0008 16.7763 18.0012 16.4998ZM14.5015 16.0005C14.2256 16.0005 14.0018 16.2239 14.0015 16.4998C14.0011 16.7763 14.2251 17.0005 14.5015 17.0005H16.5008C16.7769 17.0005 17.0008 16.7767 17.0008 16.5005C17.0008 16.2244 16.7769 16.0005 16.5008 16.0005L14.5015 16.0005ZM18.0012 12.4998C18.0015 12.2239 18.2253 12.0005 18.5012 12.0005L20.5005 12.0005C20.7766 12.0005 21.0005 12.2244 21.0005 12.5005C21.0005 12.7767 20.7766 13.0005 20.5005 13.0005H18.5012C18.2248 13.0005 18.0008 12.7763 18.0012 12.4998ZM14.5015 12.0005C14.2256 12.0005 14.0018 12.2239 14.0015 12.4998C14.0011 12.7763 14.2251 13.0005 14.5015 13.0005H16.5008C16.7769 13.0005 17.0008 12.7767 17.0008 12.5005C17.0008 12.2244 16.7769 12.0005 16.5008 12.0005L14.5015 12.0005ZM18.0012 20.5003C18.0015 20.2244 18.2253 20.001 18.5012 20.001L20.5005 20.001C20.7766 20.001 21.0005 20.2249 21.0005 20.501C21.0005 20.7772 20.7766 21.001 20.5005 21.001H18.5012C18.2248 21.001 18.0008 20.7767 18.0012 20.5003ZM14.5025 20.001C14.2266 20.001 14.0028 20.2244 14.0024 20.5003C14.0021 20.7767 14.226 21.001 14.5025 21.001H16.5018C16.7779 21.001 17.0018 20.7772 17.0018 20.501C17.0018 20.2249 16.7779 20.001 16.5018 20.001L14.5025 20.001Z" fill="#333333"/>
<path fill-rule="evenodd" clip-rule="evenodd" d="M17.3312 24H18.6613C18.8487 24 19.0005 24.1824 19.0005 24.4077V29H17.0009V24.4077C16.9919 24.1824 17.1437 24 17.3312 24Z" fill="url(#paint1_linear_125_5478)"/>
<path fill-rule="evenodd" clip-rule="evenodd" d="M20.0003 30H16.0007V24.42C15.9895 23.7923 16.4397 23 17.331 23H18.6611C19.5652 23 20.0003 23.8102 20.0003 24.4077V30ZM17.0007 24.4077V29H19.0003V24.4077C19.0003 24.1824 18.8486 24 18.6611 24H17.331C17.1435 24 16.9918 24.1824 17.0007 24.4077Z" fill="#333333"/>
</g>
<defs>
<linearGradient id="paint0_linear_125_5478" x1="14.1463" y1="-0.554074" x2="16.7315" y2="3.36481" gradientUnits="userSpaceOnUse">
<stop stop-color="#FFC671"/>
<stop offset="1" stop-color="#FF6F3D"/>
</linearGradient>
<linearGradient id="paint1_linear_125_5478" x1="15.7818" y1="23.6914" x2="18.8361" y2="26.4904" gradientUnits="userSpaceOnUse">
<stop stop-color="#FFC671"/>
<stop offset="1" stop-color="#FF6F3D"/>
</linearGradient>
<clipPath id="clip0_125_5478">
<rect width="32" height="32" fill="white"/>
</clipPath>
</defs>
</svg>
