<svg width="135" height="135" viewBox="0 0 135 135" fill="none" xmlns="http://www.w3.org/2000/svg">
<path fill-rule="evenodd" clip-rule="evenodd" d="M19.2029 26.1534L33.22 12.1334C34.3881 10.9651 36.1999 10.7743 37.5825 11.6565L42.1357 14.5893C44.1143 15.853 46.5935 15.9484 48.7628 15.0423C50.9321 14.1363 52.6009 12.3242 53.1015 10.0352L54.2696 4.74194C54.6271 3.14443 56.0336 1.99994 57.6785 1.99994H77.4884C79.1332 1.99994 80.5636 3.14443 80.8973 4.74194L82.0416 10.0352C82.5422 12.3242 84.2109 14.1363 86.3802 15.0423C88.5495 15.9484 91.0287 15.853 93.0073 14.5893L97.5605 11.6565C98.9431 10.7743 100.755 10.9651 101.923 12.1334L115.916 26.1534C117.084 27.3217 117.275 29.1338 116.369 30.5168L113.437 35.0708C112.174 37.0499 112.078 39.5296 112.96 41.6994C113.866 43.8691 115.678 45.5382 117.966 46.0389L123.259 47.1833C124.856 47.541 126 48.9478 126 50.593L125.976 70.4069C125.976 72.0521 124.832 73.4827 123.211 73.8165L117.919 74.961C115.63 75.4617 113.818 77.1546 112.913 79.3005C112.007 81.4703 112.102 83.95 113.366 85.929L116.298 90.4831C117.18 91.866 116.989 93.6782 115.821 94.8465L101.804 108.866C100.636 110.035 98.8239 110.226 97.4413 109.343L92.8882 106.411C90.9095 105.147 88.4303 105.051 86.261 105.958C84.0917 106.864 82.423 108.676 81.9224 110.965L80.7543 116.258C80.3967 117.855 78.9902 119 77.3454 119H57.5354C55.8906 119 54.4841 117.855 54.1265 116.258L52.9823 110.965C52.4817 108.676 50.813 106.864 48.6436 105.958C46.4743 105.051 43.9951 105.147 42.0165 106.411L37.4633 109.343C36.0807 110.226 34.2689 110.035 33.1008 108.866L19.1076 94.8465C17.9395 93.6782 17.7488 91.866 18.6308 90.4831L21.563 85.929C22.8264 83.95 22.9217 81.4703 22.0397 79.3005C21.1577 77.1308 19.3221 75.4617 17.0336 74.961L11.7414 73.8165C10.1442 73.4589 9 72.0521 9 70.4069L9.02383 50.593C9.02383 48.9478 10.1681 47.5172 11.7891 47.1833L17.0813 46.0389C19.3698 45.5382 21.1815 43.8453 22.0874 41.6994C22.9933 39.5296 22.8979 37.0499 21.6345 35.0708L18.7023 30.5168C17.8441 29.1338 18.0348 27.2979 19.2029 26.1534Z" fill="url(#paint0_linear_125_1404)"/>
<path d="M113.366 96.8096C115.916 94.8465 117.18 91.866 116.298 90.4831L113.366 85.929C112.102 83.95 112.007 81.4703 112.913 79.3005C113.818 77.1546 115.63 75.4617 117.919 74.961L123.211 73.8165C124.832 73.4827 125.976 72.0521 125.976 70.4069L126 50.593C126 48.9478 124.856 47.541 123.259 47.1833L117.966 46.0389C115.678 45.5382 113.866 43.8691 112.96 41.6994C112.078 39.5296 112.174 37.0499 113.437 35.0708L116.369 30.5168C117.275 29.1338 117.084 27.3217 115.916 26.1534L101.923 12.1334C100.755 10.9651 98.9431 10.7743 97.5605 11.6565L93.0073 14.5893C91.0287 15.853 88.5495 15.9484 86.3802 15.0423C84.2109 14.1363 82.5422 12.3242 82.0416 10.0352L80.8973 4.74194C80.5636 3.14443 79.1332 1.99994 77.4884 1.99994H57.6785C56.0336 1.99994 54.6271 3.14443 54.2696 4.74194L53.1015 10.0352C52.6009 12.3242 50.9321 14.1363 48.7628 15.0423C46.5935 15.9484 44.1143 15.853 42.1357 14.5893L37.5825 11.6565C36.1999 10.7743 34.3881 10.9651 33.22 12.1334L19.2029 26.1534C18.0348 27.2979 17.8441 29.1338 18.7023 30.5168L21.6345 35.0708C22.8979 37.0499 22.9933 39.5296 22.0874 41.6994C21.1815 43.8453 19.3698 45.5382 17.0813 46.0389L11.7891 47.1833C10.1681 47.5172 9.02383 48.9478 9.02383 50.593L9 70.4069C9 72.0521 10.1442 73.4589 11.7414 73.8165L17.0336 74.961C19.3221 75.4617 21.1577 77.1308 22.0397 79.3005C22.9217 81.4703 22.8264 83.95 21.563 85.929L18.6308 90.4831C17.7488 91.866 17.9395 93.6782 19.1076 94.8465L33.1008 108.866C34.2689 110.035 36.0807 110.226 37.4633 109.343L42.0165 106.411C43.9951 105.147 46.4743 105.051 48.6436 105.958C50.813 106.864 52.4817 108.676 52.9823 110.965L54.1265 116.258C54.4841 117.855 55.8906 119 57.5354 119H71.3936" stroke="#333333" stroke-linecap="round"/>
<path fill-rule="evenodd" clip-rule="evenodd" d="M68.5039 34.9999C77.6259 35.2615 86.3463 40.2064 91.0963 48.8125C96.7445 59.0353 95.0666 71.3739 87.7642 79.671C94.8775 92.6039 101.755 105.656 109.081 118.446C112.436 124.271 111.326 128.835 106.268 131.664C103.598 133.21 97.7134 134.803 93.8849 127.837C86.6535 114.69 79.422 101.543 72.1905 88.3722C61.3433 90.2266 50.0234 85.1627 44.3753 74.9162C39.6252 66.3101 40.0506 56.23 44.6352 48.3133C46.644 51.9745 48.6764 55.6119 50.6851 59.273C53.4974 64.3606 59.9253 66.215 64.9826 63.3859C66.8023 62.3636 68.622 61.3413 70.4417 60.3428C75.499 57.5138 77.3424 51.0473 74.5301 45.9597C72.545 42.3223 70.5126 38.6611 68.5039 34.9999Z" fill="#BDECFF"/>
<path fill-rule="evenodd" clip-rule="evenodd" d="M67.6507 34.4783C67.8377 34.1724 68.1742 33.9901 68.5325 34.0004C77.9961 34.2717 87.0447 39.4027 91.9717 48.3289C97.7091 58.7134 96.1569 71.2016 88.9741 79.7962C91.2662 83.9689 93.5321 88.1481 95.7958 92.3236C100.452 100.911 105.099 109.483 109.948 117.948C111.698 120.986 112.369 123.842 111.806 126.394C111.238 128.967 109.463 131.022 106.763 132.533C105.31 133.373 102.954 134.249 100.389 133.935C97.7521 133.612 95.06 132.051 93.0086 128.318C85.8899 115.377 78.771 102.434 71.6521 89.4693C60.6144 91.0599 49.236 85.8057 43.4995 75.3989C38.574 66.4746 39.0159 56.0211 43.7699 47.8121C43.9508 47.4998 44.2859 47.3092 44.6468 47.3134C45.0077 47.3175 45.3383 47.5158 45.512 47.8323C46.5152 49.6609 47.5246 51.4838 48.535 53.3088L48.5357 53.3099C49.5453 55.1335 50.5561 56.959 51.5611 58.7907C54.1077 63.3958 59.9245 65.0689 64.4934 62.5138C64.4937 62.5136 64.4941 62.5134 64.4944 62.5132L64.4945 62.5131C66.3117 61.4923 68.1339 60.4685 69.957 59.4682C74.5302 56.9074 76.201 51.0494 73.6549 46.4434L73.6523 46.4387C72.4796 44.2898 71.2924 42.1364 70.1022 39.9775C69.2774 38.4814 68.4511 36.9827 67.6272 35.481C67.4547 35.1667 67.4637 34.7841 67.6507 34.4783ZM70.4417 60.3428C68.622 61.3413 66.8023 62.3636 64.9827 63.3859C59.9253 66.215 53.4974 64.3606 50.6851 59.273C49.6808 57.4425 48.6705 55.6178 47.6602 53.7932C46.8397 52.3114 46.0192 50.8295 45.2019 49.3445C45.0129 49.0009 44.8239 48.6572 44.6352 48.3133C44.4372 48.6553 44.2468 49.0014 44.0644 49.3512C40.0235 57.0983 39.8304 66.6819 44.3753 74.9162C50.0234 85.1627 61.3433 90.2266 72.1905 88.3722C79.422 101.543 86.6535 114.69 93.885 127.837C97.7134 134.803 103.598 133.21 106.268 131.664C111.326 128.835 112.436 124.271 109.081 118.446C104.226 109.971 99.5685 101.38 94.9088 92.7857C92.5367 88.4103 90.1639 84.0339 87.7642 79.671C95.0666 71.3739 96.7445 59.0353 91.0964 48.8125C86.5504 40.5762 78.3681 35.6932 69.6773 35.0595C69.2871 35.0311 68.8959 35.0112 68.5039 34.9999C68.691 35.3411 68.8784 35.6822 69.0659 36.0233C69.7016 37.1797 70.339 38.3359 70.9759 39.4911C72.1674 41.6523 73.357 43.8101 74.5301 45.9597C77.3424 51.0473 75.499 57.5138 70.4417 60.3428Z" fill="#333333"/>
<defs>
<linearGradient id="paint0_linear_125_1404" x1="6.87693" y1="-6.31929" x2="76.7044" y2="70.5782" gradientUnits="userSpaceOnUse">
<stop stop-color="#FFC671"/>
<stop offset="1" stop-color="#FF6F3D"/>
</linearGradient>
</defs>
</svg>
