<svg width="32" height="32" viewBox="0 0 32 32" fill="none" xmlns="http://www.w3.org/2000/svg">
<path d="M23.0154 20.0791C23.0053 19.922 22.9445 19.7741 22.8936 19.668C22.8368 19.5497 22.7623 19.4233 22.6798 19.2959C22.5144 19.0403 22.294 18.7457 22.0575 18.4471C21.5893 17.8557 21.0294 17.2129 20.6388 16.7644L20.6244 16.7478L20.6131 16.7348L20.6009 16.7227C20.3293 16.4511 19.6762 15.8012 18.9894 15.2115C18.6468 14.9174 18.2858 14.6296 17.9529 14.4095C17.7864 14.2995 17.6183 14.2007 17.4566 14.126C17.3013 14.0544 17.1187 13.9893 16.9312 13.9783L16.9166 13.9774H16.9019C16.2059 13.9774 14.5294 13.8711 14.2086 13.819L13.824 13.7567L13.6695 14.1144C13.3236 14.9154 12.491 16.198 11.8956 16.8575L11.8941 16.8592C11.488 17.313 10.8075 17.3865 10.2976 16.8975C10.3374 16.7834 10.3936 16.6362 10.4629 16.4636C10.6124 16.0911 10.8145 15.6209 11.0216 15.1561C11.2286 14.6916 11.4386 14.2369 11.6031 13.8959C11.6857 13.7247 11.7549 13.5862 11.8057 13.4906C11.813 13.4768 11.8196 13.4644 11.8257 13.4534L11.8994 13.4103L11.93 13.2995C11.9454 13.2834 11.9658 13.2631 11.992 13.2382C12.0832 13.1514 12.2168 13.0346 12.3848 12.8954C12.719 12.6182 13.1663 12.2706 13.6275 11.9288C14.0888 11.5868 14.5574 11.2556 14.9342 11.0099C15.1234 10.8865 15.2828 10.7891 15.4031 10.7234C15.4562 10.6945 15.4961 10.6748 15.5239 10.6625C16.422 10.6678 17.4277 10.7781 18.5045 10.9198L18.749 10.952L18.8373 10.8636L18.9352 10.7747C19.0193 10.6982 19.1051 10.5974 19.1707 10.5123C19.2271 10.4391 19.3033 10.3329 19.3497 10.2343C19.5581 9.81769 19.5695 9.32103 19.4684 8.89427C19.3667 8.46497 19.1304 8.02002 18.7411 7.7461L18.6423 7.67656L18.5226 7.65982C16.9769 7.44362 15.1582 7.19141 13.4497 7.19141H13.4343L13.4189 7.19236C13.063 7.21434 12.5739 7.35432 12.0653 7.5328C11.5411 7.71679 10.944 7.96096 10.3506 8.22328C9.16855 8.74589 7.96554 9.35658 7.34676 9.73603L7.12674 9.87095L7.10928 10.1285C6.8824 13.4756 4.93281 15.9142 4.11127 16.8658L3.74122 17.2945L4.2124 17.6086L4.22949 17.62L4.24037 17.6309L4.2833 17.6591C4.59278 17.8622 5.75539 18.6276 7.0924 19.5189L7.47391 19.7733L7.76026 19.4151C7.93325 19.1988 8.10245 19.0749 8.24612 19.0289C8.3623 18.9916 8.50363 18.9898 8.7002 19.1189C8.79029 19.1859 8.81254 19.3384 8.71316 19.4378L9.41366 20.1514C9.42796 20.1376 9.44213 20.124 9.45617 20.1104C9.70862 19.8668 9.92102 19.6619 10.1421 19.5471C10.2481 19.4921 10.3316 19.4722 10.4003 19.4726C10.4629 19.473 10.5452 19.4901 10.655 19.5635C10.7705 19.645 10.8264 19.7213 10.8446 19.7667C10.852 19.7852 10.8521 19.7952 10.8516 19.8011C10.8511 19.8068 10.8484 19.8276 10.8245 19.8658L11.6066 20.4797C11.8058 20.2753 12.1755 20.2498 12.3852 20.4058L12.3852 20.4058L12.3896 20.4091C12.5581 20.5316 12.5975 20.6177 12.6077 20.6515C12.6168 20.6816 12.6212 20.7296 12.5838 20.8205C12.4929 21.0423 12.2646 21.2822 11.9712 21.5905L11.9627 21.5994L12.619 22.3485C12.7801 22.2313 13.0319 22.2333 13.1638 22.3252L13.1638 22.3253L13.1724 22.331C13.2893 22.409 13.3059 22.4774 13.3082 22.5068C13.3109 22.5413 13.3005 22.6178 13.2029 22.7154L12.7123 23.2059L13.3328 23.5162C13.4616 23.5806 13.5989 23.6579 13.755 23.7459L13.7731 23.7561C13.9323 23.8457 14.1083 23.9445 14.2897 24.0345C14.6353 24.206 15.055 24.3747 15.4999 24.3832C15.8219 24.4199 16.1503 24.3193 16.4001 24.0935C16.4866 24.0153 16.5605 23.9252 16.6209 23.825C16.663 23.8434 16.7059 23.8611 16.7493 23.8781C17.0066 23.9786 17.3751 24.089 17.7178 24.0262C18.402 23.9008 18.7731 23.4477 18.9157 22.9699C19.0708 23.0345 19.2349 23.0816 19.3991 23.0927C19.9237 23.1281 20.3696 22.9962 20.6994 22.7107C21.0014 22.4494 21.1601 22.0991 21.2174 21.7523C21.2459 21.7545 21.2749 21.7556 21.3043 21.7556C21.8372 21.7556 22.2872 21.5723 22.598 21.2472C22.9051 20.926 23.0432 20.5001 23.0154 20.0791ZM23.0154 20.0791C23.0154 20.0795 23.0154 20.0798 23.0154 20.0802L22.5164 20.1114L23.0153 20.0781C23.0153 20.0785 23.0154 20.0788 23.0154 20.0791ZM10.242 17.0765C10.2417 17.0783 10.2415 17.0792 10.2415 17.0793C10.2414 17.0793 10.2416 17.0784 10.242 17.0765ZM15.5552 10.65C15.5551 10.6501 15.5537 10.6506 15.551 10.6514C15.5538 10.6503 15.5552 10.6499 15.5552 10.65ZM18.9233 10.7776C18.928 10.7729 18.9271 10.7741 18.9224 10.7785L18.9233 10.7776Z" fill="#FEFEFE" stroke="#333333"/>
<path fill-rule="evenodd" clip-rule="evenodd" d="M27.2256 16.8318C26.0911 15.4936 25.0244 13.5445 24.5396 11.7409C24.4717 11.4887 24.3456 11.0524 24.3262 10.7712C22.3868 10.7615 20.3214 10.4124 18.4014 10.1603C17.2959 10.0148 16.239 9.89844 15.2887 9.89844C14.8523 9.92753 11.3711 12.536 11.3032 12.8172C11.1868 12.8948 9.57715 16.4245 9.57715 16.7639C10.285 17.6948 11.439 17.6657 12.0984 16.9287C12.7287 16.2306 13.582 14.9021 13.9602 14.0487C14.319 14.1069 16.0256 14.2136 16.7335 14.2136C16.8984 14.2233 19.2815 16.0239 19.9723 16.7154C20.4597 17.2033 21.3697 18.1626 21.5917 18.616C21.6984 18.6645 21.7953 19.3045 22.2123 19.3433C23.2984 19.4597 25.4414 18.9554 26.9153 18.0924C26.925 18.0924 27.5941 17.8112 27.759 17.4912C27.8075 17.4524 27.2256 16.8318 27.2256 16.8318Z" fill="#EFEFEF"/>
<path fill-rule="evenodd" clip-rule="evenodd" d="M24.5396 11.7409C25.0105 13.4928 26.0304 15.3819 27.1282 16.7152C27.1282 16.7152 27.1282 16.7152 27.1282 16.7152C27.1606 16.7545 27.1931 16.7934 27.2256 16.8318C27.2256 16.8318 27.2414 16.8486 27.2675 16.8768C27.4001 17.0203 27.7995 17.4588 27.759 17.4912C27.5941 17.8112 26.925 18.0924 26.9153 18.0924C25.4414 18.9554 23.2984 19.4597 22.2123 19.3433C21.9271 19.3168 21.7916 19.0089 21.7003 18.8015C21.6581 18.7057 21.6254 18.6313 21.5917 18.616C21.3697 18.1626 20.4597 17.2033 19.9723 16.7154C19.2815 16.0239 16.8984 14.2233 16.7335 14.2136C16.0256 14.2136 14.319 14.1069 13.9602 14.0487C13.582 14.9021 12.7287 16.2306 12.0984 16.9287C11.439 17.6657 10.285 17.6948 9.57715 16.7639C9.57715 16.4245 11.1868 12.8948 11.3032 12.8172C11.3711 12.536 14.8523 9.92753 15.2887 9.89844C16.239 9.89844 17.2959 10.0148 18.4014 10.1603C18.7711 10.2088 19.1461 10.2609 19.5247 10.3136C21.1121 10.5342 22.7603 10.7633 24.3262 10.7712C24.3435 11.0215 24.4453 11.3948 24.5153 11.6516C24.524 11.6833 24.5321 11.7132 24.5396 11.7409ZM18.5316 9.16877C17.4225 9.02283 16.3096 8.89844 15.2887 8.89844H15.2554L15.2221 8.90065C15.0195 8.91416 14.8513 8.98331 14.7857 9.01086C14.6932 9.04969 14.6008 9.09663 14.5166 9.14247C14.3466 9.23505 14.1499 9.35632 13.9459 9.4891C13.5346 9.75679 13.039 10.107 12.5628 10.4595C12.0862 10.8123 11.6156 11.1774 11.2544 11.4772C11.0757 11.6256 10.9116 11.7681 10.784 11.8904C10.7217 11.9501 10.653 12.0194 10.5919 12.0913C10.5617 12.127 10.5212 12.1774 10.4816 12.2382C10.4747 12.2487 10.4653 12.2634 10.4543 12.282C10.4351 12.3103 10.4193 12.3359 10.408 12.3548C10.3754 12.4089 10.3419 12.4702 10.3111 12.5288C10.2476 12.649 10.1692 12.8071 10.0836 12.9848C9.91107 13.3427 9.69477 13.811 9.48332 14.2849C9.27221 14.7581 9.06185 15.246 8.90267 15.6419C8.82362 15.8385 8.75295 16.0229 8.70051 16.176C8.67457 16.2517 8.64899 16.3316 8.62874 16.4079L8.62834 16.4094C8.61519 16.4589 8.57715 16.6021 8.57715 16.7639V17.1009L8.78115 17.3692C9.87257 18.8045 11.7675 18.7962 12.842 17.5973C13.3962 16.983 14.078 15.9734 14.5475 15.11C15.1456 15.1554 15.9325 15.1977 16.4636 15.21C16.5121 15.2426 16.57 15.2824 16.6368 15.3294C16.8797 15.5002 17.2033 15.7392 17.5479 16.003C18.2553 16.5443 18.9729 17.1299 19.2648 17.4221C19.4995 17.6571 19.8339 18.0035 20.1324 18.3411C20.2819 18.5102 20.4157 18.6693 20.521 18.8062C20.5735 18.8744 20.6152 18.9322 20.6465 18.9791C20.6619 19.0023 20.6735 19.0208 20.6818 19.0348C20.69 19.0487 20.6934 19.0554 20.6936 19.0558L20.6936 19.0558L20.8513 19.3779L20.8687 19.3858C20.879 19.4069 20.8896 19.4279 20.9002 19.448C21.0072 19.6519 21.3542 20.2635 22.1114 20.3382C22.8258 20.4135 23.7642 20.2851 24.6667 20.0538C25.5667 19.823 26.5352 19.4631 27.3572 18.9921C27.3854 18.9798 27.418 18.9651 27.4538 18.9483C27.5406 18.9074 27.6573 18.8488 27.7828 18.7756C27.9056 18.7039 28.0549 18.6079 28.1973 18.4899C28.3071 18.3989 28.4579 18.2581 28.5806 18.066C28.8429 17.6994 28.7448 17.2917 28.7338 17.246L28.7335 17.2446C28.7009 17.1085 28.6469 17.0079 28.6281 16.9732C28.5811 16.887 28.5268 16.8127 28.4961 16.7718C28.4256 16.6778 28.3377 16.5741 28.2645 16.49C28.1875 16.4017 28.1104 16.3164 28.0536 16.2543C28.0249 16.223 28.0008 16.1968 27.9836 16.1784L27.9736 16.1676C26.9337 14.935 25.9474 13.1258 25.5053 11.4813L25.5052 11.4809C25.4963 11.4477 25.4871 11.4141 25.4778 11.38C25.4477 11.2694 25.4161 11.1537 25.3868 11.0323C25.3464 10.865 25.3274 10.7542 25.3239 10.7024L25.26 9.77582L24.3312 9.77118C22.8387 9.76371 21.2746 9.54662 19.6925 9.32701C19.3064 9.27342 18.9193 9.21968 18.5318 9.1688" fill="#333333"/>
<path fill-rule="evenodd" clip-rule="evenodd" d="M24.3417 11.5759C24.9041 13.651 26.2229 15.891 27.5223 17.2098C27.5514 17.2389 27.5805 17.268 27.6096 17.2874C28.1041 17.7431 28.3756 17.6946 28.9284 17.4134L30.5574 16.5795C31.0423 16.3371 31.1684 16.1528 30.6156 15.5225C29.578 14.2134 28.1138 11.7989 27.309 9.67525C26.9308 8.67646 26.7756 8.8898 26.2617 9.13222L24.7102 9.86919C24.2932 10.0534 24.1187 10.1698 24.1187 10.4995C24.1187 10.5286 24.1187 10.5577 24.1283 10.5965C24.1477 10.8874 24.2738 11.3237 24.3417 11.5759Z" fill="url(#paint0_linear_125_5090)"/>
<path fill-rule="evenodd" clip-rule="evenodd" d="M27.4774 8.86217C27.5831 9.025 27.6788 9.23965 27.7766 9.49772C28.5595 11.5636 29.9916 13.927 31 15.2021C31.1446 15.3677 31.2662 15.5278 31.3494 15.6843C31.4338 15.843 31.5036 16.0446 31.4702 16.2694C31.4353 16.5047 31.3022 16.6701 31.1743 16.7797C31.0546 16.8825 30.9104 16.9615 30.7832 17.0252L29.1562 17.858L29.1551 17.8586C28.8833 17.9969 28.5688 18.1426 28.2228 18.1257C27.8595 18.108 27.5653 17.9217 27.2921 17.6741C27.2373 17.6321 27.1931 17.5874 27.1738 17.5679C27.1718 17.566 27.1702 17.5643 27.1687 17.5629L27.1661 17.5603C25.8053 16.1791 24.4436 13.8629 23.8591 11.7062C23.8526 11.6821 23.8449 11.654 23.8367 11.624C23.7716 11.3864 23.6597 10.9783 23.6324 10.6668C23.6186 10.5915 23.6186 10.5322 23.6187 10.5028C23.6187 10.5015 23.6187 10.5002 23.6187 10.499C23.6187 10.2262 23.6991 9.97595 23.9091 9.77126C24.0769 9.60764 24.3045 9.50145 24.5018 9.41416L26.0484 8.67952C26.0751 8.66694 26.1116 8.64874 26.1522 8.62852C26.2332 8.58819 26.3304 8.53984 26.3973 8.51206C26.5169 8.46244 26.7273 8.38948 26.9685 8.4556C27.215 8.52319 27.3727 8.70095 27.4774 8.86217ZM26.475 9.58396C26.4748 9.58406 26.4752 9.58386 26.475 9.58396L24.9123 10.3262C24.8115 10.3708 24.7398 10.4048 24.686 10.4349C24.6517 10.4541 24.6311 10.4682 24.6193 10.4771C24.619 10.4821 24.6187 10.4882 24.6187 10.4957L24.6243 10.5181L24.6272 10.5627C24.641 10.7684 24.7286 11.0915 24.8014 11.36C24.8093 11.3892 24.817 11.4177 24.8245 11.4454C25.3646 13.4381 26.6394 15.6 27.8768 16.8567L27.8939 16.8737L27.9002 16.8797L27.9196 16.8926L27.9484 16.9192C28.1638 17.1177 28.2468 17.1257 28.2715 17.1269C28.323 17.1294 28.4205 17.1103 28.7009 16.9677C28.7012 16.9675 28.7007 16.9678 28.7009 16.9677L30.3338 16.1318C30.3697 16.1139 30.3995 16.0982 30.4241 16.0845C30.3854 16.0271 30.3267 15.9509 30.2397 15.8517L30.2315 15.8424L30.2238 15.8326C29.1575 14.4873 27.6662 12.0283 26.8414 9.85197C26.7757 9.67835 26.7233 9.56053 26.682 9.48191C26.6757 9.48503 26.6692 9.48829 26.6623 9.49172C26.6536 9.49608 26.6444 9.5007 26.6348 9.50552C26.5892 9.52843 26.5334 9.55639 26.475 9.58396Z" fill="#333333"/>
<path fill-rule="evenodd" clip-rule="evenodd" d="M4.30545 10.0944C3.5006 12.218 2.04605 14.6228 0.998782 15.9416C0.446055 16.5719 0.572115 16.7465 1.05696 16.9986L2.68605 17.8325C3.26787 18.1331 3.53939 18.1719 4.09211 17.6289C5.39151 16.3101 6.7103 14.0701 7.27272 11.995C7.3503 11.7138 7.49575 11.1998 7.49575 10.9186C7.49575 10.5889 7.32121 10.4725 6.90424 10.2883L5.35272 9.55133C4.83878 9.29921 4.68363 9.09558 4.30545 10.0944Z" fill="#BDECFF" stroke="#333333"/>
<path fill-rule="evenodd" clip-rule="evenodd" d="M16.2184 23.6631L15.0951 22.7167C14.6468 22.3102 15.0949 21.8058 15.6154 22.1287L17.2246 23.5603L16.2184 23.6631Z" fill="#333333"/>
<path fill-rule="evenodd" clip-rule="evenodd" d="M18.6518 22.8825L15.7348 20.3246C15.2864 19.9181 15.7345 19.4137 16.2551 19.7367L19.5292 22.6257L18.6518 22.8825Z" fill="#333333"/>
<path fill-rule="evenodd" clip-rule="evenodd" d="M20.8342 21.897L17.4086 18.8705C16.9603 18.464 17.4084 17.9596 17.9289 18.2826L21.2622 21.3203L20.8342 21.897Z" fill="#333333"/>
<path fill-rule="evenodd" clip-rule="evenodd" d="M12.5956 20.2316L12.4889 20.1541C12.0623 19.8438 11.4126 19.9019 11.0441 20.2898L10.4235 20.9298C10.055 21.3177 10.1035 21.8801 10.5301 22.1904L10.6368 22.268C11.0635 22.5783 11.7132 22.5201 12.0816 22.1322L12.7023 21.4922C13.0707 21.1044 13.0223 20.5322 12.5956 20.2316Z" fill="#FEFEFE" stroke="#333333"/>
<path fill-rule="evenodd" clip-rule="evenodd" d="M10.8299 19.359L10.7329 19.2911C10.3451 19.0293 9.74386 19.0875 9.39477 19.4172L8.87113 19.9408C8.52204 20.2705 8.56083 20.7553 8.94871 21.0172L9.04568 21.085C9.43356 21.3469 10.0348 21.2887 10.3839 20.9493L10.9172 20.4353C11.2566 20.1056 11.2178 19.6208 10.8299 19.359Z" fill="#FEFEFE" stroke="#333333"/>
<path fill-rule="evenodd" clip-rule="evenodd" d="M8.78423 18.9128L8.69695 18.8547C8.33817 18.6025 7.79514 18.651 7.48483 18.971L7.33938 19.1165C7.02908 19.4268 7.06786 19.8922 7.42665 20.1443L7.51392 20.2025C7.87271 20.4547 8.41574 20.4062 8.72605 20.0862L8.8715 19.9407C9.1818 19.6207 9.14302 19.1553 8.78423 18.9128Z" fill="#FEFEFE" stroke="#333333"/>
<path fill-rule="evenodd" clip-rule="evenodd" d="M13.3421 22.1129L13.2548 22.0548C12.896 21.8026 12.3433 21.8608 12.0233 22.1711L11.8778 22.3166C11.5675 22.6366 11.5966 23.0923 11.9651 23.3444L12.0524 23.4026C12.4112 23.6547 12.9639 23.5966 13.2839 23.2863L13.4293 23.1408C13.7396 22.8305 13.7008 22.3651 13.3421 22.1129Z" fill="#FEFEFE" stroke="#333333"/>
<path fill-rule="evenodd" clip-rule="evenodd" d="M27.4331 18.3079C26.6767 18.8121 25.9203 19.1418 25.1834 19.3551C24.4658 19.5588 23.7773 19.6654 23.1373 19.7042C22.8367 19.7236 22.8367 19.4133 23.0985 19.3939C23.7288 19.3454 24.4076 19.2485 25.0961 19.0545C25.804 18.8509 26.5215 18.5406 27.2488 18.0557C27.5009 17.8812 27.6755 18.143 27.4331 18.3079Z" fill="#333333"/>
<path fill-rule="evenodd" clip-rule="evenodd" d="M3.24853 16.1162C3.55883 16.1162 3.80126 16.3683 3.80126 16.6689C3.80126 16.9792 3.54913 17.2217 3.24853 17.2217C2.93822 17.2217 2.6958 16.9695 2.6958 16.6689C2.6958 16.3683 2.93822 16.1162 3.24853 16.1162Z" fill="#333333"/>
<path fill-rule="evenodd" clip-rule="evenodd" d="M28.602 14.9141C28.9123 14.9141 29.1548 15.1662 29.1548 15.4668C29.1548 15.7771 28.9027 16.0195 28.602 16.0195C28.2917 16.0195 28.0493 15.7674 28.0493 15.4668C28.0493 15.1662 28.2917 14.9141 28.602 14.9141Z" fill="#333333"/>
<defs>
<linearGradient id="paint0_linear_125_5090" x1="24.1187" y1="8.58993" x2="32.6533" y2="15.5841" gradientUnits="userSpaceOnUse">
<stop stop-color="#FF8E3D"/>
<stop offset="1" stop-color="#FF6F3D"/>
</linearGradient>
</defs>
</svg>
