<svg width="150" height="150" viewBox="0 0 150 150" fill="none" xmlns="http://www.w3.org/2000/svg">
<path fill-rule="evenodd" clip-rule="evenodd" d="M70.725 49.5964L95.3293 77.3101C96.5563 78.6972 96.429 80.8359 95.0516 82.0602L52.0739 120.215C50.6868 121.442 48.5481 121.315 47.3238 119.937L22.7195 92.2234C21.4925 90.8363 21.6197 88.6977 22.9972 87.4734L65.9652 49.3214C67.362 48.0917 69.498 48.2093 70.725 49.5964ZM115.623 46.2125C115.468 47.3642 115.151 48.489 114.662 49.558C114.011 50.9728 113.069 52.2723 111.834 53.374C107.044 57.6243 99.721 57.1853 95.4734 52.4054C91.2231 47.6159 91.6622 40.2928 96.4421 36.0452C101.222 31.7976 108.555 32.2339 112.802 37.0138C114.284 38.682 115.198 40.6539 115.552 42.6994C115.754 43.8655 115.775 45.0511 115.623 46.2125ZM132.714 19.3358C130.434 16.6924 125.682 17.7896 113.157 17.7172C103.572 17.6724 94.0525 17.5676 84.488 17.4859L81.5921 17.4667C80.2312 17.4535 79.876 17.7393 78.0756 19.3409L7.28512 82.1898C3.95576 85.1409 3.65247 90.2814 6.60355 93.6108L44.0379 135.754C46.989 139.083 52.1296 139.386 55.4589 136.435L126.24 73.5891C128.05 71.9849 128.375 71.666 128.527 70.3183L128.851 67.4406C129.409 62.4673 129.947 57.4994 130.497 52.5384C130.73 50.4428 130.965 48.3568 131.188 46.2638C131.459 43.8258 131.731 41.3878 132.012 38.947C133.423 26.5036 134.782 21.7344 132.714 19.3358Z" fill="#BDECFF"/>
<mask id="path-2-outside-1_2_6323" maskUnits="userSpaceOnUse" x="3.57471" y="16.4663" width="132" height="123" fill="black">
<rect fill="white" x="3.57471" y="16.4663" width="132" height="123"/>
<path fill-rule="evenodd" clip-rule="evenodd" d="M70.725 49.5964L95.3293 77.3101C96.5563 78.6972 96.429 80.8359 95.0516 82.0602L52.0739 120.215C50.6868 121.442 48.5481 121.315 47.3238 119.937L22.7195 92.2234C21.4925 90.8363 21.6197 88.6977 22.9972 87.4734L65.9652 49.3214C67.362 48.0917 69.498 48.2093 70.725 49.5964ZM132.714 19.3358C130.434 16.6923 125.682 17.7896 113.157 17.7172C103.572 17.6723 94.0525 17.5676 84.488 17.4859L81.5921 17.4667C80.2312 17.4535 79.876 17.7393 78.0756 19.3409L7.28512 82.1898C3.95576 85.1409 3.65248 90.2814 6.60355 93.6108L44.0379 135.754C46.989 139.083 52.1296 139.386 55.4589 136.435L126.24 73.5891C128.05 71.9849 128.375 71.666 128.527 70.3183L128.851 67.4406C129.409 62.4673 129.947 57.4994 130.497 52.5384C130.73 50.4428 130.965 48.3568 131.188 46.2638C131.459 43.8258 131.731 41.3878 132.012 38.947C133.423 26.5036 134.782 21.7344 132.714 19.3358Z"/>
</mask>
<path d="M111.834 53.374L112.166 53.748L112.166 53.7472L111.834 53.374ZM95.4734 52.4054L95.0994 52.7372L95.0997 52.7375L95.4734 52.4054ZM114.208 49.3491C113.585 50.7024 112.684 51.9456 111.501 53.0008L112.166 53.7472C113.454 52.5989 114.437 51.2433 115.116 49.767L114.208 49.3491ZM111.502 53C106.919 57.067 99.9115 56.6469 95.8472 52.0732L95.0997 52.7375C99.5305 57.7236 107.169 58.1816 112.165 53.748L111.502 53ZM95.8474 52.0735C91.7804 47.4905 92.2005 40.4833 96.7742 36.4189L96.1099 35.6714C91.1238 40.1023 90.6659 47.7412 95.0994 52.7372L95.8474 52.0735ZM96.7742 36.4189C101.347 32.355 108.364 32.7722 112.429 37.3459L113.176 36.6817C108.745 31.6956 101.096 31.2402 96.1099 35.6714L96.7742 36.4189ZM70.725 49.5964L69.9759 50.259L69.9771 50.2604L70.725 49.5964ZM95.3293 77.3101L96.0783 76.6476L96.0771 76.6462L95.3293 77.3101ZM95.0516 82.0602L95.7155 82.8081L95.7159 82.8077L95.0516 82.0602ZM52.0739 120.215L52.7365 120.964L52.7378 120.963L52.0739 120.215ZM47.3238 119.937L46.576 120.601L46.5764 120.601L47.3238 119.937ZM22.7195 92.2234L21.9704 92.886L21.9716 92.8874L22.7195 92.2234ZM22.9972 87.4734L22.3333 86.7256L22.3329 86.7259L22.9972 87.4734ZM65.9652 49.3214L65.3044 48.5708L65.3013 48.5736L65.9652 49.3214ZM132.714 19.3358L131.957 19.9888L132.714 19.3358ZM113.157 17.7172L113.163 16.7172L113.162 16.7172L113.157 17.7172ZM84.488 17.4859L84.4965 16.4859L84.4946 16.4859L84.488 17.4859ZM81.5921 17.4667L81.5824 18.4667L81.5855 18.4667L81.5921 17.4667ZM78.0756 19.3409L78.7395 20.0887L78.7403 20.088L78.0756 19.3409ZM7.28512 82.1898L7.94844 82.9381L7.94904 82.9376L7.28512 82.1898ZM6.60355 93.6108L5.85521 94.2741L5.85591 94.2749L6.60355 93.6108ZM44.0379 135.754L44.7863 135.09L44.7856 135.09L44.0379 135.754ZM55.4589 136.435L56.1223 137.184L56.1229 137.183L55.4589 136.435ZM126.24 73.5891L125.577 72.8408L125.576 72.8413L126.24 73.5891ZM128.527 70.3183L127.533 70.2061L127.533 70.2065L128.527 70.3183ZM128.851 67.4406L129.845 67.5527L129.845 67.5519L128.851 67.4406ZM130.497 52.5384L129.503 52.4281L129.503 52.4281L130.497 52.5384ZM131.188 46.2638L130.194 46.1532L130.193 46.1579L131.188 46.2638ZM132.012 38.947L133.005 39.0615L133.005 39.0597L132.012 38.947ZM69.9771 50.2604L94.5815 77.974L96.0771 76.6462L71.4728 48.9325L69.9771 50.2604ZM94.5803 77.9727C95.4436 78.9486 95.3508 80.4564 94.3872 81.3128L95.7159 82.8077C97.5073 81.2155 97.6691 78.4459 96.0783 76.6476L94.5803 77.9727ZM94.3877 81.3124L51.41 119.467L52.7378 120.963L95.7155 82.8081L94.3877 81.3124ZM51.4114 119.466C50.4355 120.329 48.9277 120.236 48.0713 119.273L46.5764 120.601C48.1685 122.393 50.9382 122.555 52.7365 120.964L51.4114 119.466ZM48.0716 119.273L23.4673 91.5595L21.9716 92.8874L46.576 120.601L48.0716 119.273ZM23.4685 91.5609C22.6052 90.585 22.698 89.0772 23.6616 88.2208L22.3329 86.7259C20.5415 88.3181 20.3797 91.0877 21.9704 92.886L23.4685 91.5609ZM23.6612 88.2211L66.6292 50.0691L65.3013 48.5736L22.3333 86.7256L23.6612 88.2211ZM66.626 50.0719C67.6166 49.1998 69.121 49.2926 69.9759 50.259L71.474 48.9339C69.8749 47.1261 67.1073 46.9836 65.3044 48.5708L66.626 50.0719ZM133.471 18.6827C132.018 16.9974 129.834 16.6277 126.799 16.5626C125.252 16.5294 123.385 16.578 121.153 16.6292C118.913 16.6805 116.279 16.7352 113.163 16.7172L113.151 18.7171C116.298 18.7353 118.955 18.6801 121.199 18.6286C123.453 18.577 125.265 18.5301 126.756 18.5621C129.799 18.6274 131.13 19.0307 131.957 19.9888L133.471 18.6827ZM113.162 16.7172C103.579 16.6724 94.0644 16.5677 84.4965 16.4859L84.4794 18.4859C94.0407 18.5675 103.565 18.6723 113.152 18.7172L113.162 16.7172ZM84.4946 16.4859L81.5987 16.4668L81.5855 18.4667L84.4813 18.4859L84.4946 16.4859ZM81.6018 16.4668C80.8304 16.4593 80.2061 16.5375 79.5115 16.925C78.9092 17.261 78.2766 17.8237 77.411 18.5937L78.7403 20.088C79.675 19.2565 80.1203 18.8755 80.4859 18.6716C80.7592 18.5191 80.993 18.461 81.5824 18.4667L81.6018 16.4668ZM77.4117 18.5931L6.62121 81.442L7.94904 82.9376L78.7395 20.0887L77.4117 18.5931ZM6.62181 81.4415C2.87807 84.7598 2.53875 90.5325 5.85521 94.2741L7.35189 92.9475C4.7662 90.0303 5.03345 85.5219 7.94844 82.9381L6.62181 81.4415ZM43.2896 136.417C46.608 140.161 52.3807 140.5 56.1223 137.184L54.7956 135.687C51.8785 138.273 47.3701 138.005 44.7863 135.09L43.2896 136.417ZM56.1229 137.183L126.904 74.3369L125.576 72.8413L54.795 135.688L56.1229 137.183ZM126.903 74.3375C127.774 73.5658 128.408 73.0034 128.814 72.4459C129.282 71.803 129.434 71.1947 129.52 70.43L127.533 70.2065C127.467 70.7896 127.382 71.0146 127.197 71.2691C126.949 71.6091 126.516 72.0082 125.577 72.8408L126.903 74.3375ZM129.52 70.4304L129.845 67.5527L127.858 67.3285L127.533 70.2061L129.52 70.4304ZM129.845 67.5519C130.402 62.5792 130.941 57.6049 131.491 52.6486L129.503 52.4281C128.952 57.3938 128.415 62.3554 127.858 67.3292L129.845 67.5519ZM131.491 52.6487C131.723 50.5554 131.959 48.4656 132.182 46.3698L130.193 46.1579C129.971 48.2479 129.736 50.3301 129.503 52.4281L131.491 52.6487ZM132.182 46.3745C132.453 43.9362 132.724 41.5 133.005 39.0615L131.018 38.8326C130.737 41.2755 130.465 43.7154 130.194 46.1532L132.182 46.3745ZM133.005 39.0597C133.702 32.9184 134.406 28.5108 134.664 25.4588C134.92 22.437 134.808 20.2335 133.471 18.6827L131.957 19.9888C132.688 20.8366 132.931 22.2171 132.671 25.2904C132.414 28.3335 131.733 32.5323 131.018 38.8344L133.005 39.0597ZM5.85591 94.2749L43.2903 136.418L44.7856 135.09L7.35119 92.9467L5.85591 94.2749Z" fill="#333333" mask="url(#path-2-outside-1_2_6323)"/>
<path d="M98.0583 54.5735L97.7958 54.999L97.7961 54.9992L98.0583 54.5735ZM114.43 51.0508C114.575 50.8158 114.502 50.5077 114.267 50.3627C114.032 50.2177 113.724 50.2907 113.579 50.5257L114.43 51.0508ZM114.034 39.7239C114.158 39.9709 114.458 40.071 114.705 39.9474C114.952 39.8239 115.052 39.5236 114.929 39.2766L114.034 39.7239ZM110.21 34.8479L109.948 35.2734L109.948 35.2735L110.21 34.8479ZM94.2647 38.6331L93.8391 38.3706L93.8388 38.3712L94.2647 38.6331ZM97.7961 54.9992C103.475 58.4976 110.923 56.7356 114.43 51.0508L113.579 50.5257C110.361 55.7405 103.53 57.3568 98.3206 54.1478L97.7961 54.9992ZM114.929 39.2766C113.959 37.3383 112.453 35.6426 110.473 34.4222L109.948 35.2735C111.767 36.3944 113.147 37.9488 114.034 39.7239L114.929 39.2766ZM110.473 34.4223C104.788 30.9149 97.3459 32.6862 93.8391 38.3706L94.6902 38.8956C97.9076 33.6803 104.734 32.0566 109.948 35.2734L110.473 34.4223ZM93.8388 38.3712C90.349 44.0452 92.1112 51.492 97.7958 54.999L98.3209 54.148C93.1059 50.9307 91.4898 44.0993 94.6906 38.895L93.8388 38.3712Z" fill="#333333"/>
<path d="M107.008 44C106.456 44 106.008 44.4477 106.008 45C106.008 45.5523 106.456 46 107.008 46L107.008 44ZM145.008 46C145.561 46 146.008 45.5523 146.008 45C146.008 44.4477 145.561 44 145.008 44L145.008 46ZM107.008 46L145.008 46L145.008 44L107.008 44L107.008 46Z" fill="#333333"/>
<mask id="path-6-inside-2_2_6323" fill="white">
<path fill-rule="evenodd" clip-rule="evenodd" d="M70.7257 49.5965L95.3301 77.3101C96.5571 78.6972 96.4298 80.8359 95.0523 82.0602L52.0747 120.215C50.6876 121.442 48.5489 121.315 47.3246 119.937L22.7202 92.2234C21.4932 90.8363 21.6232 88.7073 22.998 87.4733L65.9756 49.3187C67.3627 48.0917 69.4987 48.2093 70.7257 49.5965Z"/>
</mask>
<path fill-rule="evenodd" clip-rule="evenodd" d="M70.7257 49.5965L95.3301 77.3101C96.5571 78.6972 96.4298 80.8359 95.0523 82.0602L52.0747 120.215C50.6876 121.442 48.5489 121.315 47.3246 119.937L22.7202 92.2234C21.4932 90.8363 21.6232 88.7073 22.998 87.4733L65.9756 49.3187C67.3627 48.0917 69.4987 48.2093 70.7257 49.5965Z" fill="url(#paint0_linear_2_6323)"/>
<path d="M70.7257 49.5965L69.9767 50.259L69.9779 50.2604L70.7257 49.5965ZM95.3301 77.3101L96.0791 76.6476L96.0779 76.6462L95.3301 77.3101ZM95.0523 82.0602L95.7162 82.8081L95.7166 82.8077L95.0523 82.0602ZM52.0747 120.215L52.7372 120.964L52.7386 120.963L52.0747 120.215ZM47.3246 119.937L46.5768 120.601L46.5771 120.601L47.3246 119.937ZM22.7202 92.2234L21.9712 92.886L21.9724 92.8874L22.7202 92.2234ZM22.998 87.4733L22.3341 86.7255L22.33 86.7291L22.998 87.4733ZM65.9756 49.3187L65.313 48.5697L65.3117 48.5709L65.9756 49.3187ZM69.9779 50.2604L94.5823 77.974L96.0779 76.6462L71.4735 48.9325L69.9779 50.2604ZM94.581 77.9727C95.4443 78.9486 95.3516 80.4563 94.388 81.3128L95.7166 82.8077C97.508 81.2155 97.6698 78.4459 96.0791 76.6476L94.581 77.9727ZM94.3884 81.3124L51.4108 119.467L52.7386 120.963L95.7162 82.8081L94.3884 81.3124ZM51.4121 119.466C50.4362 120.329 48.9285 120.236 48.072 119.273L46.5771 120.601C48.1693 122.393 50.9389 122.555 52.7372 120.964L51.4121 119.466ZM48.0724 119.273L23.468 91.5595L21.9724 92.8874L46.5768 120.601L48.0724 119.273ZM23.4692 91.5609C22.6083 90.5876 22.6978 89.0865 23.6659 88.2176L22.33 86.7291C20.5486 88.328 20.3781 91.085 21.9712 92.886L23.4692 91.5609ZM23.6619 88.2212L66.6395 50.0665L65.3117 48.5709L22.3341 86.7255L23.6619 88.2212ZM66.6381 50.0677C67.617 49.2019 69.1204 49.2909 69.9767 50.259L71.4747 48.9339C69.8771 47.1277 67.1084 46.9815 65.313 48.5697L66.6381 50.0677Z" fill="#333333" mask="url(#path-6-inside-2_2_6323)"/>
<path fill-rule="evenodd" clip-rule="evenodd" d="M68.3417 62.3736C68.525 62.5801 68.5063 62.8961 68.2998 63.0795L36.2291 91.5542C36.0226 91.7375 35.7065 91.7188 35.5232 91.5123C35.3399 91.3058 35.3586 90.9897 35.5651 90.8064L67.6358 62.3317C67.8423 62.1483 68.1583 62.1671 68.3417 62.3736ZM69.3389 89.3344C69.5258 89.5377 69.5125 89.854 69.3092 90.0409L50.2266 107.584C50.0233 107.771 49.707 107.757 49.5201 107.554C49.3332 107.351 49.3465 107.034 49.5498 106.847L68.6324 89.3047C68.8357 89.1178 69.152 89.1311 69.3389 89.3344ZM75.8318 70.4894C76.0366 70.3042 76.0525 69.988 75.8672 69.7832C75.682 69.5784 75.3658 69.5626 75.161 69.7478L66.9411 77.1837L62.8311 80.9017C62.6263 81.0869 62.6105 81.4031 62.7957 81.6079C62.981 81.8127 63.2972 81.8285 63.502 81.6433L67.6119 77.9253L75.8318 70.4894ZM55.282 89.0792C55.4868 88.8939 55.5026 88.5777 55.3174 88.373C55.1321 88.1682 54.816 88.1523 54.6112 88.3376L50.5012 92.0555L42.2813 99.4915C42.0765 99.6767 42.0607 99.9929 42.2459 100.198C42.4312 100.402 42.7474 100.418 42.9521 100.233L51.1721 92.7971L55.282 89.0792Z" fill="white"/>
<defs>
<linearGradient id="paint0_linear_2_6323" x1="29.0843" y1="47.8931" x2="67.7811" y2="86.0202" gradientUnits="userSpaceOnUse">
<stop stop-color="#FFC671"/>
<stop offset="1" stop-color="#FF6F3D"/>
</linearGradient>
</defs>
</svg>
