<svg width="150" height="150" viewBox="0 0 150 150" fill="none" xmlns="http://www.w3.org/2000/svg">
<path d="M87.9999 107C87.9999 129.091 70.0913 147 47.9999 147C25.9085 147 7.99988 129.091 7.99988 107C7.99988 84.9086 25.9085 67 47.9999 67C70.0913 67 87.9999 84.9086 87.9999 107Z" fill="#0084B1"/>
<path fill-rule="evenodd" clip-rule="evenodd" d="M88.9999 107C88.9999 129.644 70.6436 148 47.9999 148C25.3562 148 6.99988 129.644 6.99988 107C6.99988 84.3563 25.3562 66 47.9999 66C70.6436 66 88.9999 84.3563 88.9999 107ZM47.9999 147C70.0913 147 87.9999 129.091 87.9999 107C87.9999 84.9086 70.0913 67 47.9999 67C25.9085 67 7.99988 84.9086 7.99988 107C7.99988 129.091 25.9085 147 47.9999 147Z" fill="#333333"/>
<path d="M28.396 100.244V127H37.637V100.244H28.396ZM61.3993 99.8428C61.2673 99.8428 61.2673 99.8428 61.1353 99.709C61.0033 99.709 60.8713 99.709 60.7393 99.5752C60.2112 99.4415 59.6832 99.4415 59.1551 99.4415C53.8746 99.4415 50.5743 103.187 49.5182 104.659V100.11H40.2772V126.866H49.5182V112.15C49.5182 112.15 55.8548 102.518 58.7591 109.475C58.7591 115.629 58.7591 126.866 58.7591 126.866H68V109.475C68 105.462 65.2277 100.913 61.3993 99.8428ZM32.3564 95.8294C34.7327 95.8294 36.7129 93.8227 36.7129 91.4147C36.7129 89.0067 34.7327 87 32.3564 87C29.9802 87 28 89.0067 28 91.4147C28 93.8227 29.9802 95.8294 32.3564 95.8294Z" fill="white"/>
<path d="M146 78C146 100.091 128.091 118 106 118C83.9086 118 66 100.091 66 78C66 55.9086 83.9086 38 106 38C128.091 38 146 55.9086 146 78Z" fill="#2D9CEC"/>
<path fill-rule="evenodd" clip-rule="evenodd" d="M147 78C147 100.644 128.644 119 106 119C83.3563 119 65 100.644 65 78C65 55.3563 83.3563 37 106 37C128.644 37 147 55.3563 147 78ZM106 118C128.091 118 146 100.091 146 78C146 55.9086 128.091 38 106 38C83.9086 38 66 55.9086 66 78C66 100.091 83.9086 118 106 118Z" fill="#333333"/>
<path fill-rule="evenodd" clip-rule="evenodd" d="M119.784 64.4349C119.71 64.3629 119.637 64.2909 119.57 64.2249C114.588 59.5437 104.117 62.3104 105.633 71.9488C100.291 71.6667 94.8753 70.0343 88.5244 63.6547C87.3692 64.9331 86.3606 70.4604 90.7616 74.1453C90.2543 74.3554 88.0905 73.8633 87.5159 73.4372C87.0819 74.3614 87.4425 79.1806 93.5795 81.3771C94.0134 81.8033 90.621 81.5872 90.4743 81.5872C91.0489 83.8558 92.8582 86.4784 97.6932 87.2586C96.9719 87.9668 95.89 89.8813 86 90.8715C101.452 98.4574 119.643 92.0058 122.027 74.1453C122.174 72.867 122.241 71.4507 122.1 70.1063C123.042 69.6082 125.493 67.5557 126 66.0673C124.918 66.4214 123.256 66.8475 122.174 66.8475C122.608 66.4214 125.059 64.2249 124.991 62.8085C124.264 63.2286 121.88 64.3629 119.784 64.4349Z" fill="#FEFEFE"/>
<path d="M83 44C83 66.0914 65.0914 84 43 84C20.9086 84 3 66.0914 3 44C3 21.9086 20.9086 4 43 4C65.0914 4 83 21.9086 83 44Z" fill="#41479B"/>
<path fill-rule="evenodd" clip-rule="evenodd" d="M84 44C84 66.6437 65.6437 85 43 85C20.3563 85 2 66.6437 2 44C2 21.3563 20.3563 3 43 3C65.6437 3 84 21.3563 84 44ZM43 84C65.0914 84 83 66.0914 83 44C83 21.9086 65.0914 4 43 4C20.9086 4 3 21.9086 3 44C3 66.0914 20.9086 84 43 84Z" fill="#333333"/>
<path d="M52.7222 24H48C42.0278 24 38.8334 27.8667 38.8334 33.8667V38.6667H33.2778C32.8611 38.6667 31.8889 38.9333 31.8889 40V45.3333C31.8889 46.2667 32.5834 46.6667 33.2778 46.6667H38.8334V63.2C38.8334 63.6 39.25 64 39.6667 64H45.9167C46.3334 64 47.1667 63.7333 47.1667 63.3333V46.6667H52.7222C53.8334 46.6667 54.1111 46.1333 54.1111 45.3333V40C54.1111 39.7333 54.1111 38.6667 52.7222 38.6667H47.1667V34.6667C47.1667 32.8 47.7222 32 49.8056 32H52.7222C53.5556 32 54.1111 31.0667 54.1111 30.6667V25.3333C54.1111 24.4 53.5556 24 52.7222 24Z" fill="white"/>
</svg>
