<svg width="150" height="150" viewBox="0 0 150 150" fill="none" xmlns="http://www.w3.org/2000/svg">
<g clip-path="url(#clip0_125_7030)">
<path fill-rule="evenodd" clip-rule="evenodd" d="M83.3012 76.0181C84.6916 75.2884 86.1434 74.6088 87.5338 73.999C89.4764 73.1495 91.286 72.4498 92.564 72C93.5148 73.7192 94.4963 75.1885 95.5902 76.8277C96.2854 77.8672 96.8886 78.7768 97.4816 79.6164C98.0337 80.406 98.5347 81.0357 98.9845 81.5155C99.373 81.9253 99.7411 82.2251 100.109 82.415C100.447 82.585 100.794 82.6749 101.162 82.6549C101.367 82.6449 101.561 82.6149 101.745 82.555C101.939 82.495 102.133 82.405 102.317 82.2851C102.542 82.1452 102.767 81.9752 103.002 81.7653C103.238 81.5554 103.493 81.3056 103.759 81.0057C104.219 80.5059 104.669 80.0162 105.119 79.5164C105.231 79.3565 105.344 79.2166 105.466 79.0666C105.354 79.2266 105.242 79.3865 105.129 79.5464L105.487 80.366C105.518 80.426 105.538 80.486 105.569 80.5459L107 83.8444C106.387 85.1337 105.875 86.633 105.446 88.2822L104.771 91.3808C104.403 93.4198 104.127 95.6088 103.923 97.7577C103.677 100.307 103.514 102.855 103.401 105.104C103.289 107.373 103.238 109.312 103.197 110.692L103.156 112.311V114C97.4612 113.46 92.339 112.571 87.4521 111.131C85.6629 110.572 84.845 110.302 82.6571 109.502C78.8538 108.033 75.1324 106.164 71.3291 103.775L70 102.985L70.7872 97.4779C71.2575 94.7991 72.3413 90.2513 73.8953 86.2732C74.5598 84.674 75.3471 83.0847 76.2672 81.5055C76.7886 80.7258 77.3305 80.0562 77.903 79.5564C79.3139 78.357 81.1746 77.1475 83.3012 76.0181Z" fill="#EFEFEF"/>
<path fill-rule="evenodd" clip-rule="evenodd" d="M115.04 96.4738C114.612 91.6063 114.037 86.8038 112 82.3288L113.957 78.1846C114.737 79.1396 115.536 80.2127 116.579 80.89C116.926 81.1063 117.305 81.2441 117.712 81.2649C119.799 81.324 120.998 78.1327 122 76.5663C123.331 74.4891 124.258 73.1278 125.5 71C130.874 72.9049 137.202 75.2259 140.311 78.0731C146.188 83.4583 147.953 94.3572 149 102C145.02 104.467 140.051 106.692 135.702 108.44C133.576 109.251 132.781 109.525 131.043 110.092C126.305 111.551 121.328 112.453 115.785 113C115.785 107.493 115.556 101.957 115.04 96.4738Z" fill="#EFEFEF"/>
<path fill-rule="evenodd" clip-rule="evenodd" d="M102 113.723V112.051L102.042 110.448C102.084 109.083 102.137 107.164 102.252 104.918C102.368 102.682 102.526 100.169 102.788 97.6467C103.009 95.5197 103.293 93.3531 103.661 91.3349C104.236 88.7924 105.327 85.8741 106.5 83.5L104.039 79.6215C109.83 71.7762 108.38 72.4688 114.066 79.6709L111.985 83.7469L112.258 84.3009C113.026 85.8244 113.625 87.8723 114.108 90.1675C114.465 91.8889 114.76 93.729 114.98 95.5988C115.054 96.2517 115.128 96.9047 115.201 97.5576C115.453 100.031 115.622 102.544 115.737 104.879C115.832 106.808 115.895 108.618 115.947 110.211C115.947 110.29 115.947 110.369 115.958 110.448L115.979 111.279C115.989 111.527 115.989 111.774 116 112.002V113.654C115.989 113.654 115.979 113.654 115.968 113.654C115.622 113.683 115.285 113.713 114.938 113.743C110.923 114.089 106.52 114.089 102 113.723Z" fill="#BDECFF"/>
<path fill-rule="evenodd" clip-rule="evenodd" d="M126 71C128.915 71.9869 133.09 73.2502 135.751 74.6121C138.178 75.8458 140.331 77.188 141.875 78.5401C143.47 79.9316 144.841 82.4482 145.968 85.261C147.573 89.2678 148.68 93.8965 149.157 96.6006C149.401 98.5449 149.726 100.529 150 102.473L148.334 103.46C146.435 104.644 144.546 105.71 142.657 106.657C140.758 107.605 138.869 108.444 136.97 109.174H136.959C135.873 109.569 135.121 109.835 134.41 110.072C133.72 110.309 133.059 110.516 132.166 110.793L132.155 110.802C129.718 111.523 127.199 112.105 124.579 112.569C122.152 113.003 119.633 113.339 116.992 113.605L115.398 113.753C113.458 113.921 111.406 114 109.273 114C107.151 113.99 104.987 113.901 102.804 113.724L102.205 113.674C102.205 111.552 102.255 109.49 102.316 107.378C102.347 106.43 102.387 105.384 102.438 104.289C102.489 103.144 102.56 101.95 102.641 100.756C102.723 99.5614 102.824 98.2981 102.956 97.0053C103.068 95.8901 103.19 94.7748 103.342 93.6695C103.484 92.6234 103.637 91.6167 103.809 90.6594L104.49 87.5506C104.703 86.7315 104.947 85.9321 105.211 85.182C105.445 84.5208 105.688 83.899 105.952 83.3167L104.073 79.0138L105.485 77.0202C107.486 74.1877 108.43 72.8357 109.629 72.8455C110.726 72.8554 111.528 73.9608 113.041 76.0728C113.58 76.8228 114.22 77.711 115.022 78.7572L115.255 79.0631L113.204 83.1983L113.346 83.4845C113.712 84.2543 114.047 85.1327 114.341 86.0998C114.656 87.146 114.941 88.2809 115.184 89.4751C115.357 90.314 115.509 91.1825 115.641 92.0707C115.784 92.9984 115.916 93.9656 116.037 94.9426L116.251 96.9165C116.373 98.1896 116.474 99.443 116.566 100.637C116.647 101.841 116.718 103.055 116.779 104.249C116.82 105.197 116.86 106.134 116.901 107.042C116.962 108.809 117.033 110.575 117.033 112.332C119.572 112.076 121.999 111.75 124.345 111.325C126.905 110.871 129.373 110.299 131.78 109.588C132.653 109.322 133.293 109.115 133.984 108.888C134.674 108.651 135.405 108.394 136.482 108C138.361 107.279 140.209 106.46 142.048 105.532C143.896 104.605 145.745 103.568 147.613 102.394L148.578 101.821L147.857 96.8178C147.39 94.163 146.303 89.633 144.739 85.7248C143.683 83.0799 142.413 80.731 140.991 79.4875C139.519 78.2045 137.467 76.9215 135.141 75.7372C132.541 74.4147 128.927 73.1712 126.063 72.204L126 71ZM115.286 112.49L115.723 112.451V111.375C115.692 109.944 115.641 108.503 115.591 107.072C115.56 106.203 115.52 105.276 115.469 104.289C115.408 103.154 115.347 101.95 115.255 100.696C115.174 99.443 115.073 98.1994 114.951 97.0053L114.748 95.0709C114.636 94.1333 114.504 93.1859 114.362 92.2483C114.23 91.3798 114.077 90.5311 113.915 89.712C113.681 88.5375 113.407 87.442 113.102 86.4453C112.828 85.5274 112.513 84.7083 112.178 84.0076L111.782 83.1786L113.752 79.1914C113.072 78.2933 112.483 77.484 111.985 76.7833C110.726 75.0266 110.055 74.0989 109.639 74.0989C109.141 74.0989 108.319 75.2635 106.582 77.7209L105.577 79.1519L107.405 83.3266L107.283 83.5832C106.988 84.1951 106.714 84.8662 106.47 85.5768C106.227 86.2874 105.993 87.0473 105.79 87.8467L105.13 90.8568C104.957 91.8437 104.805 92.8306 104.662 93.8175C104.52 94.913 104.388 96.0184 104.287 97.104C104.165 98.3179 104.063 99.5811 103.982 100.825C103.901 102.068 103.83 103.243 103.779 104.328C103.728 105.463 103.687 106.49 103.657 107.407L103.545 111.414V112.49C105.516 112.638 107.445 112.717 109.304 112.717C111.335 112.737 113.346 112.648 115.286 112.49ZM72 88.725C72.4773 87.2545 73.0359 85.8235 73.6758 84.4023C74.3156 82.9812 75.0672 81.5699 75.9203 80.1487C76.8039 78.6881 78.957 77.1386 81.4961 75.7273C85.1523 73.6745 89.6312 71.8586 92.1094 71L92.5461 72.204C90.1086 73.0528 85.7109 74.8292 82.1461 76.8228C79.7898 78.1453 77.8094 79.5467 77.0476 80.7902C76.225 82.1522 75.5039 83.524 74.8742 84.9155C74.2445 86.317 73.7062 87.7085 73.2492 89.1099L72 88.725Z" fill="#333333"/>
<path fill-rule="evenodd" clip-rule="evenodd" d="M114 79.5063L113.309 80.8134C111.325 84.6243 109.531 85.5079 107.858 84.7531C106.365 84.072 105.142 81.9272 104 79.4603L105.182 79C106.224 81.246 107.287 83.1791 108.429 83.6946C109.391 84.1272 110.573 83.3264 112.146 80.3071L112.838 79L114 79.5063Z" fill="#333333"/>
<path fill-rule="evenodd" clip-rule="evenodd" d="M92.762 72.1947C89.959 73.1704 87.0765 74.395 84.5319 75.7291C82.2557 76.9238 80.238 78.2181 78.8066 79.5124C77.4151 80.7668 76.1726 83.1364 75.1389 85.8046C73.6081 89.7472 72.5446 94.3269 72.0873 97.0051L71.3816 102.053L72.3259 102.63C74.1548 103.805 75.9738 104.86 77.7729 105.796C79.572 106.732 81.381 107.549 83.2199 108.275C84.2735 108.674 84.9991 108.932 85.6651 109.171C86.3509 109.41 86.9771 109.609 87.822 109.888C90.1877 110.605 92.603 111.172 95.1078 111.64C97.6325 112.108 100.247 112.457 103 112.726L102.881 114C100.088 113.731 97.4238 113.373 94.8792 112.905C92.3148 112.427 89.8497 111.85 87.4642 111.123L87.4542 111.113C86.5795 110.834 85.9334 110.625 85.2575 110.386C84.5717 110.147 83.8361 109.878 82.7626 109.48H82.7527C80.894 108.743 79.0452 107.907 77.1864 106.941C75.3376 105.985 73.4889 104.91 71.6301 103.715L70 102.72C70.2783 100.759 70.5964 98.7574 70.8349 96.796C71.3021 94.0681 72.3955 89.3987 73.956 85.3566C75.0593 82.5191 76.4012 79.9803 77.9617 78.5765C79.4726 77.2126 81.5798 75.8585 83.9554 74.614C86.5596 73.2401 89.5018 71.9956 92.3545 71L92.762 72.1947Z" fill="#333333"/>
<path fill-rule="evenodd" clip-rule="evenodd" d="M126 71.9001C124.753 73.8952 123.426 75.8048 122.089 77.743C121.62 78.427 121.181 79.0445 120.772 79.5861C120.373 80.1181 120.004 80.5646 119.665 80.9161C119.286 81.3057 118.927 81.5907 118.567 81.7712C118.238 81.9327 117.899 82.0087 117.54 81.9992C117.35 81.9897 117.151 81.9612 116.971 81.9042C116.782 81.8472 116.592 81.7617 116.403 81.6477C116.183 81.5147 115.954 81.3532 115.734 81.1537C115.495 80.9446 115.245 80.7071 114.986 80.4221C114.627 80.0421 114.268 79.6621 113.918 79.2726C113.869 79.2155 113.819 79.168 113.769 79.111L113.779 79.092C111.624 76.3274 110.556 74.5603 109.688 73.9237C109.599 73.8002 109.499 73.6672 109.399 73.5437H108.431C108.212 73.8097 108.012 74.0662 107.833 74.3228C107.094 75.0828 106.127 76.4889 104.6 78.5885C104.481 78.7215 104.371 78.864 104.261 79.016C103.822 79.4911 103.373 79.9566 102.934 80.4316C102.665 80.7166 102.415 80.9636 102.196 81.1537C101.967 81.3532 101.747 81.5147 101.518 81.6477C101.328 81.7617 101.148 81.8472 100.959 81.9042C100.779 81.9612 100.59 81.9897 100.39 81.9992C100.021 82.0087 99.6819 81.9327 99.3627 81.7712C99.0035 81.5907 98.6444 81.3057 98.2653 80.9161C97.8263 80.4601 97.3474 79.8521 96.7987 79.111C96.2201 78.313 95.6315 77.4484 94.9531 76.4604C93.8856 74.9023 92.9378 73.5057 92 71.8716C92.1696 71.8146 92.3392 71.7576 92.5088 71.7006C92.858 71.5866 93.1972 71.4726 93.5364 71.3681C93.6062 71.3491 93.6761 71.3301 93.7459 71.3016C94.7934 70.9786 95.7911 70.6935 96.6989 70.475C97.5769 70.266 98.395 70.095 99.1133 70C103.014 73.9332 114.766 74.0757 118.877 70C119.595 70.1045 120.413 70.266 121.291 70.475C122.199 70.6935 123.197 70.9786 124.244 71.3016C124.813 71.5011 125.401 71.7006 126 71.9001Z" fill="#FEFEFE"/>
<path fill-rule="evenodd" clip-rule="evenodd" d="M120 69.5609C115.848 74.2276 103.939 74.0644 100 69.5609C100.838 66.8958 100.889 64.1328 100.919 61.359C100.919 61.3372 100.919 61.1523 100.919 61C103.646 63.1756 106.859 64.4266 110.303 64.4266C113.545 64.4266 116.576 63.317 119.202 61.3807C119.202 61.4786 119.202 61.5657 119.202 61.5765C119.323 64.3395 119.434 67.1025 120 69.5609Z" fill="#FEFEFE"/>
<path fill-rule="evenodd" clip-rule="evenodd" d="M118.958 69.0401C121.718 69.4248 124.379 70.4203 127 71.328C125.783 73.4029 124.487 75.4274 123.169 77.4388L122.669 78.2115C121.739 79.617 120.866 81.1697 119.538 82.2352C118.529 83.0549 117.233 83.2187 116.067 82.5362C114.787 81.7105 113.888 80.4147 112.886 79.2952C112.246 78.5827 111.636 77.9004 111.056 77.1478C110.279 76.1335 109.76 75.0447 109.065 74.0773H108.735C107.38 75.8698 106.049 77.7339 104.764 79.5761C104.248 80.2974 103.579 80.9161 102.983 81.573C102.271 82.2873 101.409 82.9178 100.373 82.9978C99.8796 83.0184 99.4122 82.8919 99.0222 82.6767C98.5362 82.4108 98.1322 82.0421 97.7519 81.6432C97.1862 81.0284 96.6989 80.3507 96.2215 79.6664C94.3448 76.977 92.5996 74.3622 91 71.5C92.8059 70.8593 94.6139 70.0386 96.4715 69.5619C97.401 69.3288 98.3355 69.1439 99.2823 69L99.6924 69.4315C101.583 71.2577 105.204 72.2009 108.865 72.221C112.526 72.2411 116.197 71.328 118.188 69.4415L118.618 69.01L118.958 69.0401ZM119.078 70.3747C117.087 72.2611 113.696 73.2746 110.195 73.4653C110.495 73.8967 110.755 74.3282 111.016 74.7697C111.82 76.1142 112.784 77.2765 113.826 78.4423L116.147 81.001C116.555 81.3692 116.999 81.6587 117.547 81.7235C118.472 81.7235 119.176 80.8663 119.698 80.1882C120.118 79.6561 120.502 79.0991 120.888 78.5426L122.069 76.7565C123.089 75.1911 124.109 73.6358 125.069 72.0504C123.11 71.3635 121.118 70.7683 119.078 70.3747ZM106.394 75.2112C106.764 74.6393 107.134 74.0673 107.585 73.4653C104.084 73.2445 100.733 72.211 98.8322 70.3847C96.7993 70.711 94.8004 71.3335 92.8605 72.0203C94.2014 74.3941 95.7051 76.6957 97.2617 78.9339C97.6852 79.5711 98.1446 80.2145 98.6721 80.7702C99.2543 81.3907 99.8254 81.8011 100.703 81.6432C101.395 81.3506 101.897 80.8234 102.403 80.2886C103.871 78.6465 105.196 77.0623 106.394 75.2112Z" fill="#333333"/>
<path fill-rule="evenodd" clip-rule="evenodd" d="M119.212 61.2299L119.231 61.8869C119.351 64.5584 119.471 67.2409 120 69.5949L118.752 69.9343C118.193 67.4489 118.064 64.7007 117.944 61.9526C117.934 61.7117 117.934 61.4818 117.924 61.2518L119.212 61.2299ZM99 69.5511C99.3992 68.2701 99.6088 66.9562 99.7286 65.6204C99.8484 64.2737 99.8584 62.8942 99.8783 61.5146V61H101.166V61.5255C101.156 62.938 101.136 64.3504 101.016 65.7518C100.896 67.1861 100.667 68.6095 100.228 70L99 69.5511Z" fill="#333333"/>
<path fill-rule="evenodd" clip-rule="evenodd" d="M94.7034 80.8283C92.7832 79.7742 90.7743 78.7808 88.8737 77.899C86.1854 76.6623 83.694 75.6386 81.9411 75C79.8155 79.0329 74.949 90.5727 70.0749 90.4781C68.5527 90.4221 67.4276 89.182 66.4707 88.096C65.9284 87.4767 65.3544 86.2754 64.58 85.9877C63.7178 88.0646 62.8597 90.1434 62 92.2215C62.8469 94.0967 63.5559 96.276 64.1369 98.658C66.667 110.959 67.1335 123.453 67.2881 136C75.1464 135.22 82.2168 133.932 88.9427 131.834C97.536 129.003 105.323 124.816 113 120.015L111.907 112.018C111.257 108.125 109.76 101.516 107.613 95.7489C106.688 93.4176 105.614 91.1166 104.344 88.8157C103.635 87.6805 102.877 86.7175 102.089 85.9776C100.208 84.2139 97.6281 82.4603 94.7034 80.8283Z" fill="#FEFEFE"/>
<path fill-rule="evenodd" clip-rule="evenodd" d="M51.0944 101.458C51.7268 98.193 52.6051 95.0263 54 92.0122L51.1746 86.0706C50.5949 86.7422 50.0139 87.4013 49.4212 88.0714C48.4733 89.1621 47.2963 90.4129 45.7642 90.4684C42.758 90.527 40.6476 86.2075 39.2116 83.9479C37.2879 80.972 35.3742 78.0571 33.5807 75C25.8158 77.7423 17.61 81.7947 13.1214 85.8776C7.88131 90.641 4.24432 105.287 3.11214 111.96L2 119.973C16.4275 128.858 31.635 134.328 48.5094 136C48.5094 124.501 48.9436 112.768 51.0944 101.458Z" fill="#FEFEFE"/>
<path fill-rule="evenodd" clip-rule="evenodd" d="M44 73.4149C49.8152 79.6394 66.4711 79.4163 72 73.4149C70.8152 69.8668 70.7461 66.1665 70.7165 62.4765C70.7165 62.4461 70.7165 62.1926 70.7165 62C66.9055 64.8993 62.4034 66.572 57.5853 66.572C53.0437 66.572 48.7983 65.092 45.1354 62.4967C45.1354 62.6285 45.1354 62.74 45.1354 62.7603C44.9478 66.4403 44.7898 70.1303 44 73.4149Z" fill="#FEFEFE"/>
<path fill-rule="evenodd" clip-rule="evenodd" d="M67 135.583C67 131.328 66.8568 127.072 66.6609 122.821C66.2851 114.693 65.4883 106.639 63.8084 98.6694C63.21 96.3154 62.5018 94.1516 61.6441 92.3084L64.2473 86.1478C56.378 74.7781 58.3428 75.7798 50.6331 86.2179L53.4656 92.1181C52.0766 95.0919 51.2104 98.215 50.5732 101.434C48.3859 112.598 48 124.173 48 135.513C48.0199 135.513 48.0299 135.513 48.0499 135.513C54.3339 136.185 60.7095 136.117 67 135.583Z" fill="url(#paint0_linear_125_7030)"/>
<path fill-rule="evenodd" clip-rule="evenodd" d="M45.4519 62.339C45.4417 62.6473 45.4417 62.9555 45.4316 63.274C45.2594 66.9521 45.077 70.6301 44.2665 73.9486L43 73.6301C43.7801 70.4349 43.9524 66.8185 44.1246 63.2123L44.1348 62.9658L44.1449 62.3185L45.4519 62.339ZM71.7538 74C71.1358 72.1507 70.8014 70.2603 70.6292 68.3596C70.4569 66.4795 70.4265 64.589 70.4063 62.7089V62.0103L71.7133 62V62.6986C71.7335 64.5582 71.7538 66.4178 71.926 68.2363C72.0983 70.0445 72.4124 71.8219 73 73.5788L71.7538 74Z" fill="#333333"/>
<path fill-rule="evenodd" clip-rule="evenodd" d="M51.1469 86.9995L52.1075 89.0431C54.3914 93.956 56.1852 95.2446 57.6849 94.4895C59.3513 93.6439 61.8632 90.57 63.3433 86.9961L64.5 87.4995C62.9218 91.315 60.2629 94.6305 58.2437 95.6473C56.048 96.7547 53.666 95.3855 50.9704 89.6069L50 87.5632L51.1469 86.9995Z" fill="#333333"/>
<path fill-rule="evenodd" clip-rule="evenodd" d="M43.0877 73.0099C39.6136 73.5217 36.3072 74.7029 33 75.8441C34.7599 78.8374 36.6379 81.6914 38.5256 84.6052C39.8624 86.6532 41.2549 89.4389 43.5006 90.6414C43.9627 90.89 44.4445 90.9994 44.9558 90.9895C48.1151 90.8753 51.5588 85.4414 53.372 83.0538C54.5223 81.5323 55.2794 79.8517 56.4297 78.3402L57.7964 78.3501C60.437 81.7618 62.6954 85.4441 65.5637 88.6625C66.3192 89.5272 67.2318 90.5204 68.3658 90.8602C68.6215 90.9397 68.8869 90.9895 69.1622 90.9994C73.992 91.0934 79.8922 79.4296 82 75.5C78.7768 74.2775 74.3897 73.5035 70.9713 73C65.4654 78.897 48.8787 79.1158 43.0877 73.0099Z" fill="#FEFEFE"/>
<path fill-rule="evenodd" clip-rule="evenodd" d="M43.0751 73.3507C42.6627 73.4192 42.2402 73.4878 41.8077 73.5856C41.2544 73.6933 40.6408 73.8401 39.9769 73.9967C39.313 74.1631 38.6391 74.3393 37.9651 74.535C37.2609 74.7406 36.5166 74.9657 35.7521 75.2006L33.9414 75.8173C35.3799 78.137 36.8988 80.3882 38.4379 82.6687L39.1722 83.7552C39.474 84.2054 39.7959 84.6752 40.1479 85.1842C40.4698 85.6442 40.7716 86.0749 41.0533 86.4468C41.345 86.8383 41.6166 87.1907 41.868 87.5039C42.1195 87.8171 42.371 88.101 42.6024 88.3457C42.8538 88.6099 43.1053 88.8351 43.3467 89.0308C43.5781 89.2168 43.7994 89.3636 44.0107 89.4713C44.1917 89.5691 44.3828 89.6377 44.584 89.6866C44.7852 89.7355 44.9763 89.7551 45.1775 89.7453C45.2781 89.7453 45.3787 89.7355 45.4893 89.716C45.6 89.6964 45.7107 89.6768 45.8112 89.6474C45.9219 89.6083 46.0426 89.5691 46.1432 89.5104C46.2538 89.4615 46.3645 89.4028 46.4852 89.3244C46.626 89.2364 46.7769 89.1385 46.9077 89.0406C47.0485 88.9329 47.1994 88.8155 47.3503 88.6784C47.5112 88.5316 47.6822 88.375 47.8432 88.2086C48.0142 88.0422 48.1852 87.8563 48.3763 87.6507L49.9254 85.9574L50.7604 85.0863C51.6456 84.1369 52.4905 83.2168 53.3053 82.1891C53.8686 81.4746 54.3515 80.7014 54.8343 79.9281C55.297 79.1843 55.7598 78.4404 56.313 77.7259C51.1325 77.5399 46.0929 76.1305 43.1757 73.4584L43.0751 73.3507ZM41.5361 72.3426C42.1296 72.2251 42.6929 72.1272 43.2059 72.0489L43.5379 72L43.7692 72.2349L44.0609 72.5188C46.9781 75.2006 52.3396 76.4926 57.6811 76.473C63.0225 76.4437 68.3035 75.1027 71.0799 72.509L71.5828 72L71.9148 72.0489C72.4278 72.1272 72.9811 72.2251 73.5746 72.3426C74.1882 72.4698 74.8219 72.6069 75.4556 72.7635C76.0893 72.9201 76.7834 73.106 77.5178 73.3214C78.242 73.5269 78.9965 73.752 79.7509 73.9967C80.8373 74.3295 81.9237 74.7112 83 75.0832L82.6379 75.7292C81.9639 76.9526 81.2698 78.0782 80.5657 79.1941C79.8414 80.3197 79.1172 81.4061 78.3527 82.5415L76.9645 84.6067C76.5118 85.2723 76.0893 85.8889 75.6769 86.4664C75.2746 87.0243 74.9024 87.5333 74.5402 87.9835C74.1781 88.4435 73.826 88.8546 73.5041 89.1972C73.2124 89.5006 72.9207 89.7747 72.6391 89.9998C72.3473 90.2347 72.0456 90.4305 71.7538 90.5871C71.4722 90.7339 71.1805 90.8416 70.8787 90.9101C70.587 90.9786 70.2752 91.008 69.9432 90.9982C69.7722 90.9982 69.6012 90.9786 69.4402 90.9492C69.2692 90.9199 69.1083 90.8807 68.9473 90.8318C68.7763 90.773 68.6154 90.7143 68.4645 90.6458C68.3036 90.5675 68.1426 90.4892 67.9917 90.3913C67.8207 90.2837 67.6396 90.1662 67.4586 90.0292C67.2876 89.9019 67.1065 89.7551 66.9254 89.5985C66.7444 89.4321 66.5633 89.2657 66.3823 89.0798C66.2112 88.9036 66.0201 88.7078 65.8089 88.4827C65.2757 87.9052 64.2497 86.9264 63.8373 86.3392C63.5254 85.8987 63.1834 85.5072 62.8314 85.1255C62.4592 84.7046 62.097 84.2935 61.755 83.8237C61.0609 82.9134 60.4876 82.0521 59.9142 81.2103C59.3308 80.3294 58.7473 79.4681 58.0231 78.5481H57.2686C56.7858 79.1941 56.3633 79.8792 55.9308 80.5643C55.4379 81.3669 54.9349 82.1598 54.3213 82.9428C53.4965 83.9901 52.6213 84.9395 51.7059 85.9183L49.3621 88.4729C49.171 88.6784 48.9799 88.8742 48.7888 89.07C48.5976 89.2559 48.4166 89.4321 48.2355 89.5887C48.0645 89.7453 47.8834 89.8824 47.7024 90.0194C47.5213 90.1564 47.3402 90.2739 47.1692 90.3815C47.0183 90.4696 46.8574 90.5577 46.6965 90.6262C46.5355 90.7045 46.3746 90.7633 46.2136 90.8122H46.2036C46.0426 90.8611 45.8716 90.9003 45.7107 90.9296C45.5497 90.959 45.3888 90.9688 45.2178 90.9786C44.8959 90.9884 44.584 90.959 44.2823 90.8905C43.9905 90.822 43.6988 90.7143 43.4071 90.5675H43.397C43.1053 90.4109 42.8136 90.2151 42.5118 89.9802C42.2302 89.7551 41.9485 89.4811 41.6467 89.1776C41.3852 88.9036 41.1136 88.5904 40.842 88.2576C40.5604 87.915 40.2787 87.5529 39.987 87.1613C39.6751 86.7405 39.3633 86.3098 39.0615 85.8693L37.3314 83.3343C35.6515 80.8384 33.9817 78.3719 32.4024 75.7683L32 75.5C33.1065 75.1281 34.4136 74.4111 35.5 74C36.2645 73.7553 36.9765 73.5563 37.7008 73.3507C38.4351 73.1452 39.0112 72.9005 39.6349 72.7439C40.2888 72.6166 40.9225 72.4698 41.5361 72.3426ZM58.9988 77.6965C59.7935 78.6949 60.4071 79.6051 61.0207 80.5252C61.5639 81.3376 62.1172 82.1598 62.8112 83.07L62.8213 83.0896C63.1331 83.5301 63.4751 83.9216 63.8272 84.3033C64.1994 84.7144 64.5615 85.1353 64.9036 85.6051L66.7846 87.6507C66.9556 87.8367 67.1367 88.0325 67.3178 88.2086C67.4988 88.3848 67.6598 88.5414 67.8006 88.6687C67.9515 88.7959 68.1024 88.9134 68.2533 89.0308C68.3941 89.1385 68.545 89.2364 68.6858 89.3244C68.8065 89.393 68.9172 89.4615 69.0278 89.5104C69.1385 89.5594 69.2491 89.6083 69.3396 89.6377C69.4503 89.667 69.5609 89.6964 69.6716 89.716C69.7822 89.7355 69.8929 89.7453 69.9935 89.7453C70.1947 89.7551 70.3959 89.7355 70.587 89.6866C70.7781 89.6474 70.9692 89.5691 71.1604 89.4713C71.3817 89.3538 71.603 89.207 71.8343 89.021C72.0757 88.8253 72.3172 88.6001 72.5686 88.3359C72.8704 88.0129 73.1923 87.6312 73.5343 87.2103C73.8763 86.7698 74.2485 86.2804 74.6308 85.7421C75.0533 85.145 75.4757 84.5382 75.9083 83.902L77.2864 81.8466C78.0609 80.6916 78.7953 79.5954 79.4894 78.5187C80.0627 77.628 80.616 76.7177 81.1592 75.7683C80.6663 75.6019 80.1734 75.4355 79.6805 75.2789L79.3686 75.181C78.6041 74.9363 77.8698 74.721 77.1657 74.5155C76.4917 74.3197 75.8077 74.1435 75.1438 73.9771C74.4899 73.8205 73.8763 73.6737 73.313 73.5661C72.8805 73.478 72.458 73.3997 72.0456 73.3409L71.9751 73.4094C69.1988 76.0228 64.1893 77.4714 58.9988 77.6965Z" fill="#333333"/>
<path fill-rule="evenodd" clip-rule="evenodd" d="M33.2815 76.4929C29.2463 77.9007 25.1016 79.658 21.435 81.585C18.1471 83.3123 15.2378 85.1894 13.1554 87.0566C11.1229 88.8937 9.31947 92.3284 7.81499 96.2024C5.61307 101.894 4.0787 108.473 3.42112 112.338L2.37495 119.776L3.87943 120.695C6.51974 122.392 9.1202 123.9 11.7306 125.248C14.3311 126.595 16.9315 127.784 19.5818 128.822C21.0963 129.391 22.1424 129.771 23.1089 130.11C24.0853 130.45 24.992 130.749 26.2175 131.138C29.615 132.167 33.0922 132.996 36.699 133.655C40.0965 134.284 43.6136 134.763 47.3001 135.142C47.3001 132.486 47.4097 129.84 47.4894 127.175C47.5392 125.867 47.589 124.509 47.6588 123.131C47.7385 121.413 47.8381 119.656 47.9577 117.899C48.0772 116.152 48.2167 114.344 48.3961 112.517L48.5356 111.079L48.685 109.672C48.8444 108.264 49.0337 106.876 49.233 105.528C49.4223 104.25 49.6415 102.992 49.8806 101.784C50.2194 100.056 50.608 98.409 51.0563 96.9113C51.4648 95.5135 51.9331 94.2554 52.4412 93.1571L52.6903 92.6279L51.5246 90.1817L49.8308 86.6771L50.06 86.3676C51.1858 84.85 52.0825 83.552 52.8398 82.4636C54.9122 79.4882 56.0081 77.9107 57.413 77.9107C58.9474 77.9007 60.2526 79.8077 63.0025 83.8315L64.9055 86.5973L62.2751 92.8077C62.6637 93.6763 63.0224 94.6049 63.3612 95.5934C63.7298 96.6717 64.0586 97.8199 64.3575 99.0081C64.6664 100.486 64.9653 102.013 65.304 103.491C65.5431 104.879 65.7623 106.337 65.9616 107.844C66.1708 109.442 66.3502 111.059 66.4996 112.667C66.679 114.534 66.8185 116.361 66.938 118.099C67.0576 119.846 67.1473 121.573 67.227 123.211C67.2967 124.818 67.3565 126.326 67.4063 127.684C67.4462 129.022 67.486 130.21 67.5059 131.208C67.5458 133.006 67.5878 134.153 67.5878 135.95C66 136.5 60.8803 136.989 57.9112 136.999C54.9321 137.009 52.0626 136.89 49.3326 136.65L47.34 136.46C43.5439 136.081 39.9371 135.582 36.4599 134.943C32.7834 134.264 29.2663 133.425 25.8389 132.387H25.8289C24.5735 131.987 23.6569 131.688 22.6804 131.348C21.6941 131.009 20.6379 130.619 19.1135 130.05H19.1036C16.4334 128.992 13.7931 127.794 11.1428 126.416C8.4925 125.048 5.85219 123.51 3.19196 121.803L1 120.465C1.38857 117.709 1.83693 114.904 2.16572 112.148C2.84324 108.234 4.38757 101.554 6.62934 95.7731C8.1936 91.7393 10.1066 88.1249 12.2985 86.138C14.4506 84.191 17.4496 82.2639 20.8472 80.4867C24.5735 78.5297 29.2065 76.4278 33.2815 75V76.4929ZM48.5754 135.272L49.4422 135.352C52.1622 135.592 55.0018 135.711 57.9112 135.701C60.6112 135.691 63.411 135.359 66.2804 135.129V133.535L66.2306 131.238C66.2107 130.26 66.1708 129.082 66.131 127.724C66.0911 126.396 66.0314 124.898 65.9516 123.261C65.8819 121.683 65.7823 119.976 65.6627 118.178C65.5431 116.381 65.3937 114.564 65.2243 112.777C65.0749 111.189 64.8955 109.582 64.6863 107.994C64.497 106.556 64.2878 105.119 64.0387 103.701L63.1121 99.3076C62.8132 98.1494 62.4943 97.0411 62.1456 95.9927C61.7969 94.9543 61.4083 93.9858 60.9899 93.0773L60.8703 92.8176L63.4508 86.737L61.9463 84.5504C59.4555 80.906 58.2698 79.1787 57.4229 79.1887C56.6857 79.1887 55.7192 80.5766 53.8959 83.1925C53.1785 84.2309 52.3217 85.449 51.3253 86.8069L52.6803 89.6126L54.1151 92.618L53.6069 93.6963C53.1287 94.7247 52.6903 95.9328 52.2918 97.2708C51.8633 98.7185 51.4847 100.316 51.146 102.023C50.9168 103.222 50.6976 104.46 50.5083 105.718C50.2991 107.076 50.1197 108.454 49.9603 109.821L49.8109 111.219L49.6714 112.647C49.502 114.394 49.3625 116.192 49.243 117.999C49.1234 119.796 49.0238 121.543 48.9441 123.201C48.8743 124.619 48.8245 125.956 48.7747 127.235C48.7249 128.542 48.685 129.761 48.6551 130.899L48.5854 133.475L48.5754 135.272ZM108.784 101.125C108.137 99.078 107.38 97.0511 106.483 95.0242C105.596 93.0074 104.58 91.0005 103.414 89.0235C102.318 87.1664 99.4985 85.1096 96.1508 83.1726C91.1193 80.267 84.932 77.681 81.4946 76.4529L81.923 75.2348C85.3903 76.4729 91.6673 79.0988 96.7885 82.0543C100.306 84.0911 103.295 86.2977 104.52 88.3645C105.726 90.4114 106.762 92.4582 107.659 94.505C108.555 96.5519 109.332 98.6287 110 100.735L108.784 101.125Z" fill="#333333"/>
<path fill-rule="evenodd" clip-rule="evenodd" d="M82.159 75C86.2399 76.4225 90.4403 78.1932 94.1728 80.153C97.557 81.9237 100.553 83.8536 102.703 85.7834C104.903 87.763 106.804 91.3642 108.366 95.3831C110.606 101.153 112.159 107.808 112.835 111.707C113.164 114.453 113.612 117.248 114 119.994L111.81 121.327C109.143 123.038 106.505 124.56 103.867 125.923C101.22 127.286 98.5722 128.489 95.9147 129.544H95.9047C94.3719 130.111 93.3268 130.499 92.3414 130.837C91.3659 131.175 90.4502 131.474 89.1961 131.872L89.1862 131.882C85.7622 132.916 82.2486 133.752 78.5758 134.428C74.9229 135.105 71.1307 135.612 67.1194 136L67 134.727C70.9615 134.349 74.7238 133.841 78.3369 133.175C81.9401 132.508 85.4138 131.683 88.8079 130.658C90.0322 130.27 90.9379 129.972 91.9134 129.633C92.8789 129.295 93.924 128.917 95.4369 128.35C98.0745 127.306 100.682 126.122 103.28 124.789C105.878 123.446 108.486 121.944 111.114 120.253L112.616 119.337L111.571 111.926C110.904 108.076 109.382 101.521 107.182 95.8506C105.689 92.0008 103.887 88.5688 101.847 86.7484C99.7666 84.8782 96.8702 83.0179 93.5756 81.297C89.9128 79.377 85.7622 77.6262 81.741 76.2236L82.159 75Z" fill="#333333"/>
<path d="M117.5 149C134.897 149 149 134.897 149 117.5C149 100.103 134.897 86 117.5 86C100.104 86 86.0005 100.103 86.0005 117.5C86.0005 134.897 100.104 149 117.5 149Z" fill="url(#paint1_linear_125_7030)" stroke="#333333" stroke-width="2"/>
<path fill-rule="evenodd" clip-rule="evenodd" d="M56.9526 66C68.4744 66 77.3721 56.7051 80.5298 46.2227C81.8712 41.7589 82.2783 37.0529 81.8181 32.4211C76.1196 31.9166 56.6751 30.7887 50.3819 13C47.7655 19.4308 45.0203 22.7353 33.1573 26.6828C28.6208 42.9974 37.5999 66 56.9526 66Z" fill="#FEFEFE"/>
<path fill-rule="evenodd" clip-rule="evenodd" d="M82.7794 31.9289C82.8496 32.5922 82.9098 33.2654 82.9399 33.9387C82.98 34.6221 83 35.2953 83 35.9586C83 40.1189 82.3083 44.0983 81.0652 47.736C79.7719 51.5145 77.8672 54.9211 75.5013 57.775C73.1053 60.6691 70.2281 63.0105 67.0301 64.6083C63.9424 66.1458 60.5539 67 56.995 67C53.4361 67 50.0476 66.1458 46.9599 64.6083C43.7619 63.0105 40.8947 60.6792 38.4987 57.775C36.1429 54.9211 34.2381 51.5145 32.9348 47.736C31.6917 44.1083 31 40.1289 31 35.9586C31 34.2502 31.1203 32.562 31.3409 30.9039C31.5714 29.2157 31.9223 27.5777 32.3634 26L33.6065 26.3517C33.1754 27.8792 32.8446 29.4569 32.614 31.0848C32.3935 32.6625 32.2832 34.2904 32.2832 35.9686C32.2832 39.9882 32.9449 43.827 34.1479 47.324C35.391 50.9517 37.2155 54.2176 39.4812 56.951C41.7669 59.7145 44.4937 61.9353 47.5313 63.4527C50.4386 64.9098 53.6366 65.7037 56.985 65.7037C60.3333 65.7037 63.5313 64.8997 66.4386 63.4527C69.4762 61.9353 72.203 59.7145 74.4887 56.951C76.7544 54.2176 78.579 50.9517 79.8221 47.324C81.0251 43.827 81.6867 39.9882 81.6867 35.9686C81.6867 35.2953 81.6667 34.6422 81.6366 34.0191C81.5965 33.3659 81.5464 32.7127 81.4762 32.0797L82.7794 31.9289Z" fill="#333333"/>
<path fill-rule="evenodd" clip-rule="evenodd" d="M50.8208 12.7424C57.0823 30.5498 76.4388 31.6788 82.0989 32.1839C82.5531 36.8223 82.1523 41.5293 80.817 46C98.0238 1.13495 57.0232 -4.2132 50.2193 4.5023C33.7618 4.28442 25.1239 24.6371 32.8744 41.5531C32.0702 36.5455 32.342 31.337 33.6928 26.4495C45.4862 22.4879 48.2176 19.18 50.8208 12.7424Z" fill="#EFEFEF"/>
<path fill-rule="evenodd" clip-rule="evenodd" d="M83.143 31.8368C83.203 32.4527 83.253 33.0785 83.283 33.7044C83.313 34.3501 83.3331 34.9759 83.3331 35.5918C83.3331 36.1183 83.3231 36.6448 83.303 37.1613C85.974 26.5521 84.8436 18.7044 81.7525 13.1017C79.6917 9.37656 76.7506 6.63483 73.4794 4.73748C70.1981 2.8302 66.5768 1.77722 63.1655 1.40967C57.5834 0.823576 52.6116 2.07523 50.6608 4.52887L50.4608 4.77722H50.1406C47.3296 4.73748 44.7486 5.31364 42.4478 6.35669C38.7264 8.05536 35.7152 11.0355 33.6345 14.7607C31.5337 18.5057 30.3532 23.0057 30.2832 27.7242C30.2432 30.615 30.6233 33.5951 31.4636 36.5256L31.4536 35.5819C31.4536 33.9328 31.5637 32.3037 31.7838 30.7044C32.0038 29.0752 32.334 27.4958 32.7541 25.966L32.8442 25.6381L33.1743 25.5289C39.0765 23.5719 42.6978 21.7938 45.1488 19.7176C47.5697 17.6713 48.8802 15.2971 50.1606 12.158L50.8009 10.5984L51.3711 12.1878C57.3933 29.115 75.7302 30.6845 81.9926 31.211L83.083 31.3004L83.143 31.8368ZM81.9926 33.7739C81.9725 33.3468 81.9425 32.9196 81.9025 32.5024H81.8825C75.6002 31.966 57.5334 30.4262 50.7309 14.115C49.5504 16.7276 48.2099 18.8236 45.9891 20.7011C43.4581 22.8468 39.7968 24.6746 33.9146 26.6415C33.5444 28.0123 33.2643 29.4328 33.0642 30.8832C32.8542 32.413 32.7541 33.9825 32.7541 35.5918C32.7541 36.5454 32.7941 37.4891 32.8642 38.413C32.9442 39.3666 33.0542 40.2905 33.1943 41.1944L33.5 45.5L31.9738 41.562C29.873 37.0421 28.9427 32.2838 29.0027 27.7143C29.0727 22.7772 30.3032 18.0686 32.514 14.1448C34.7349 10.1911 37.9361 7.02225 41.9176 5.20437C44.2984 4.11166 46.9594 3.5057 49.8605 3.5057C52.1814 0.873245 57.4734 -0.467815 63.3056 0.14808C66.8869 0.525563 70.6883 1.63815 74.1396 3.63483C77.6009 5.64146 80.7121 8.54212 82.8929 12.4858C86.9244 19.7772 87.5685 30.6225 81.5963 46H80.5945L80.592 45.5852C81.0722 44.0057 81.4424 42.3666 81.6824 40.6779C81.9225 39.0289 82.0426 37.3302 82.0426 35.5918C82.0426 34.956 82.0226 34.3501 81.9926 33.7739Z" fill="#333333"/>
<path fill-rule="evenodd" clip-rule="evenodd" d="M114.229 28.3479C109.794 41.0162 96.0702 41.8231 92.056 42.1761C91.7107 45.4626 92.0236 48.8364 92.967 52C80.7644 20.0974 109.834 16.295 114.659 22.4879C126.331 22.3265 132.458 36.8102 126.962 48.8329C127.533 45.2701 127.35 41.57 126.392 38.0912C118.003 35.2771 116.071 32.9271 114.229 28.3479Z" fill="#AAAAAA"/>
<path fill-rule="evenodd" clip-rule="evenodd" d="M109.544 65C97.7044 65 91.0026 52.0707 92.121 41.5597C96.1064 41.2037 109.733 40.4223 114.135 28C115.964 32.4902 117.882 34.7947 126.191 37.5541C129.363 48.9273 123.08 65 109.544 65Z" fill="#FEFEFE"/>
<path fill-rule="evenodd" clip-rule="evenodd" d="M92.4751 41.1893C92.4246 41.618 92.3943 42.0564 92.364 42.4948C92.3438 42.9137 92.3236 43.3424 92.3236 43.8003C92.3236 46.499 92.7884 49.0807 93.627 51.4287C94.4959 53.8643 95.769 56.0564 97.3452 57.888C98.9315 59.739 100.831 61.2296 102.943 62.2429C104.963 63.2171 107.186 63.753 109.51 63.753C111.834 63.753 114.057 63.2171 116.078 62.2429C118.189 61.2296 120.089 59.739 121.675 57.888C123.251 56.0564 124.524 53.8643 125.393 51.4287C126.232 49.0807 126.697 46.5087 126.697 43.8003C126.697 42.6799 126.616 41.579 126.464 40.517C126.313 39.4259 126.08 38.364 125.777 37.341L127.03 37C127.343 38.0717 127.596 39.1921 127.758 40.3514C127.919 41.4816 128 42.6312 128 43.8003C128 46.6451 127.515 49.3535 126.626 51.8281C125.706 54.4099 124.353 56.7286 122.675 58.6868C120.968 60.6646 118.927 62.2721 116.653 63.3633C114.451 64.4154 112.036 65 109.5 65C106.964 65 104.549 64.4154 102.347 63.3633C100.073 62.2721 98.0322 60.6743 96.3247 58.6868C94.6475 56.7383 93.2936 54.4099 92.3741 51.8281C91.485 49.3535 91 46.6354 91 43.8003C91 43.3619 91.0101 42.8942 91.0404 42.4266C91.0606 41.9687 91.101 41.501 91.1516 41.0529L92.4751 41.1893Z" fill="#333333"/>
<path fill-rule="evenodd" clip-rule="evenodd" d="M93.277 42.3829C91.9536 45.4348 93.0967 50.449 94 53.5L92.9887 51.8416C88.8235 40.8921 89.4299 33.1458 92.2531 27.9481C93.7839 25.1175 95.9709 23.0424 98.3965 21.602C100.812 20.1716 103.476 19.3758 105.991 19.1038C110.047 18.6707 113.745 19.6176 115.425 21.4811C117.433 21.5012 119.272 21.9344 120.932 22.6999C123.736 24.0095 125.982 26.2759 127.543 29.1165C129.094 31.927 129.959 35.2914 129.998 38.817C130.038 42.0807 129.382 45.4754 127.921 48.7088L125.972 53L126.708 48.3361C126.807 47.7116 126.887 47.0568 126.937 46.3819C126.986 45.7373 127.016 45.0724 127.016 44.3975C127.016 43.2593 126.946 42.1512 126.797 41.0835C126.668 40.0963 126.479 39.1393 126.241 38.2025C122.195 36.8124 119.66 35.513 117.89 33.992C116.439 32.7328 115.524 31.3528 114.729 29.6605C109.898 40.8115 97.7404 41.99 93.277 42.3829ZM91.9449 43.0477C91.9648 42.6045 92.0045 42.1613 92.0443 41.7181L92.094 41.1842L93.0086 41.1036C97.3229 40.7309 109.958 39.6329 114.093 27.7567L114.66 26.145L115.296 27.7265C116.181 29.9224 117.075 31.5845 118.725 33.0048C120.405 34.4553 122.901 35.7145 126.966 37.0844L127.294 37.1952L127.384 37.5276C127.682 38.6155 127.911 39.7538 128.07 40.9122C128.179 41.7584 128.249 42.6146 128.279 43.4708C128.597 41.9195 128.736 40.3582 128.716 38.8271C128.676 35.513 127.861 32.3601 126.42 29.7411C124.988 27.1422 122.93 25.0671 120.386 23.8785C118.815 23.1432 117.045 22.7503 115.127 22.7805H114.809L114.62 22.5287C113.308 20.8364 109.928 19.9802 106.12 20.3932C103.784 20.645 101.299 21.3904 99.0426 22.7201C96.796 24.0497 94.788 25.9636 93.3764 28.5625C91.418 32.1788 90.6128 37.1247 91.925 43.6924L91.9449 43.0477Z" fill="#333333"/>
<path fill-rule="evenodd" clip-rule="evenodd" d="M115 97H124V95.4306C124 95.1933 123.658 95 123.239 95H115.761C115.342 95 115 95.1933 115 95.4306V97Z" fill="url(#paint2_linear_125_7030)"/>
<path fill-rule="evenodd" clip-rule="evenodd" d="M114 98V95.4306C114 94.7919 114.449 94.4155 114.731 94.256C115.044 94.0787 115.41 94 115.761 94H123.239C123.59 94 123.956 94.0787 124.269 94.256C124.551 94.4155 125 94.7919 125 95.4306V98H114ZM124 95.4306C124 95.1933 123.658 95 123.239 95H115.761C115.342 95 115 95.1933 115 95.4306V97H124V95.4306Z" fill="#333333"/>
<path fill-rule="evenodd" clip-rule="evenodd" d="M127 101V133H134V104.242C134 103.815 133.606 103.63 133.201 103.467L128.645 101.631L127 101Z" fill="#BDECFF"/>
<path fill-rule="evenodd" clip-rule="evenodd" d="M112 106H110.477H101C98.9655 106 99 106 99 107.5L99.0408 133H112V106Z" fill="#EFEFEF"/>
<path fill-rule="evenodd" clip-rule="evenodd" d="M113 108H111.472H102C101 108 100 108.812 100 109.5V135H113V108Z" fill="#EFEFEF"/>
<path fill-rule="evenodd" clip-rule="evenodd" d="M98.4671 105.548C98.7391 105.234 99.1315 105 99.5645 105H106.504C106.778 105 107 105.232 107 105.519C107 105.805 106.774 106 106.5 106H99.5645C99.2247 106 98.9916 106.529 98.9914 106.803L99.0688 132.48C99.0697 132.766 98.8485 132.999 98.5747 133C98.3009 133.001 98.0783 132.769 98.0775 132.483L98 106.806L98 106.804C98 106.31 98.1902 105.867 98.4671 105.548Z" fill="#333333"/>
<path fill-rule="evenodd" clip-rule="evenodd" d="M129.044 101.302C129.159 101.047 129.466 100.931 129.73 101.042L133.806 102.761V102.761C134.011 102.847 134.283 102.967 134.513 103.161C134.794 103.396 135 103.73 135 104.179V132.496C135 132.775 134.767 133 134.479 133C134.191 133 133.957 132.775 133.957 132.496V104.179C133.957 104.065 133.919 103.996 133.83 103.922L133.828 103.92C133.731 103.838 133.594 103.77 133.391 103.685L129.313 101.965C129.049 101.854 128.928 101.557 129.044 101.302Z" fill="#333333"/>
<path fill-rule="evenodd" clip-rule="evenodd" d="M112.987 97H126.016C126.558 97 127 97.4244 127 97.9444V133H112V97.9444C112 97.4244 112.445 97 112.987 97Z" fill="#FEFEFE"/>
<path fill-rule="evenodd" clip-rule="evenodd" d="M113 98V132H126V98H113ZM126.016 97H112.987C112.445 97 112 97.4244 112 97.9444V133H127V97.9444C127 97.4244 126.558 97 126.016 97Z" fill="#333333"/>
<path fill-rule="evenodd" clip-rule="evenodd" d="M97.5432 134H136.457C136.756 134 137 133.821 137 133.601V133.399C137 133.179 136.756 133 136.457 133H97.5432C97.2439 133 97 133.179 97 133.399V133.601C97 133.821 97.2439 134 97.5432 134Z" fill="#BDECFF"/>
<path fill-rule="evenodd" clip-rule="evenodd" d="M136.457 135H97.5432C97.2018 135 96.8537 134.899 96.5672 134.689C96.2819 134.479 96 134.106 96 133.601V133.399C96 132.894 96.2819 132.521 96.5672 132.311C96.8537 132.101 97.2018 132 97.5432 132H136.457C136.798 132 137.146 132.101 137.433 132.311C137.718 132.521 138 132.894 138 133.399V133.601C138 134.106 137.718 134.479 137.433 134.689C137.146 134.899 136.798 135 136.457 135ZM97.5432 133H136.457C136.756 133 137 133.179 137 133.399V133.601C137 133.821 136.756 134 136.457 134H97.5432C97.2439 134 97 133.821 97 133.601V133.399C97 133.179 97.2439 133 97.5432 133Z" fill="#333333"/>
<mask id="path-41-inside-1_125_7030" fill="white">
<path fill-rule="evenodd" clip-rule="evenodd" d="M102.292 109H104.708C104.868 109 105 109.111 105 109.251V109.749C105 109.887 104.868 110 104.708 110H102.292C102.132 110 102 109.889 102 109.749V109.251C102 109.111 102.132 109 102.292 109Z"/>
</mask>
<path fill-rule="evenodd" clip-rule="evenodd" d="M102.292 109H104.708C104.868 109 105 109.111 105 109.251V109.749C105 109.887 104.868 110 104.708 110H102.292C102.132 110 102 109.889 102 109.749V109.251C102 109.111 102.132 109 102.292 109Z" fill="#BDECFF"/>
<path d="M102 109.251L103 109.251L102 109.251ZM102.292 110H104.708V108H102.292V110ZM104.708 110C104.559 110 104.4 109.949 104.265 109.834C104.128 109.717 104 109.514 104 109.251H106C106 108.414 105.263 108 104.708 108V110ZM104 109.251V109.749H106V109.251H104ZM104 109.749C104 109.482 104.13 109.281 104.263 109.167C104.395 109.054 104.554 109 104.708 109V111C105.27 111 106 110.578 106 109.749H104ZM104.708 109H102.292V111H104.708V109ZM102.292 109C102.441 109 102.6 109.051 102.735 109.166C102.872 109.283 103 109.486 103 109.749H101C101 110.586 101.736 111 102.292 111V109ZM103 109.749V109.251H101V109.749H103ZM103 109.251C103 109.514 102.872 109.717 102.735 109.834C102.6 109.949 102.441 110 102.292 110V108C101.737 108 101 108.414 101 109.251L103 109.251Z" fill="#333333" mask="url(#path-41-inside-1_125_7030)"/>
<mask id="path-43-inside-2_125_7030" fill="white">
<path fill-rule="evenodd" clip-rule="evenodd" d="M102.292 111H104.708C104.868 111 105 111.111 105 111.251V111.749C105 111.887 104.868 112 104.708 112H102.292C102.132 112 102 111.889 102 111.749V111.251C102 111.111 102.132 111 102.292 111Z"/>
</mask>
<path fill-rule="evenodd" clip-rule="evenodd" d="M102.292 111H104.708C104.868 111 105 111.111 105 111.251V111.749C105 111.887 104.868 112 104.708 112H102.292C102.132 112 102 111.889 102 111.749V111.251C102 111.111 102.132 111 102.292 111Z" fill="#BDECFF"/>
<path d="M102 111.251L103 111.251L102 111.251ZM102.292 112H104.708V110H102.292V112ZM104.708 112C104.559 112 104.4 111.949 104.265 111.834C104.128 111.717 104 111.514 104 111.251H106C106 110.414 105.263 110 104.708 110V112ZM104 111.251V111.749H106V111.251H104ZM104 111.749C104 111.482 104.13 111.281 104.263 111.167C104.395 111.054 104.554 111 104.708 111V113C105.27 113 106 112.578 106 111.749H104ZM104.708 111H102.292V113H104.708V111ZM102.292 111C102.441 111 102.6 111.051 102.735 111.166C102.872 111.283 103 111.486 103 111.749H101C101 112.586 101.736 113 102.292 113V111ZM103 111.749V111.251H101V111.749H103ZM103 111.251C103 111.514 102.872 111.717 102.735 111.834C102.6 111.949 102.441 112 102.292 112V110C101.737 110 101 110.414 101 111.251L103 111.251Z" fill="#333333" mask="url(#path-43-inside-2_125_7030)"/>
<mask id="path-45-inside-3_125_7030" fill="white">
<path fill-rule="evenodd" clip-rule="evenodd" d="M102.292 113H104.708C104.868 113 105 113.111 105 113.251V113.749C105 113.887 104.868 114 104.708 114H102.292C102.132 114 102 113.889 102 113.749V113.251C102 113.111 102.132 113 102.292 113Z"/>
</mask>
<path fill-rule="evenodd" clip-rule="evenodd" d="M102.292 113H104.708C104.868 113 105 113.111 105 113.251V113.749C105 113.887 104.868 114 104.708 114H102.292C102.132 114 102 113.889 102 113.749V113.251C102 113.111 102.132 113 102.292 113Z" fill="#BDECFF"/>
<path d="M102 113.251L103 113.251L102 113.251ZM102.292 114H104.708V112H102.292V114ZM104.708 114C104.559 114 104.4 113.949 104.265 113.834C104.128 113.717 104 113.514 104 113.251H106C106 112.414 105.263 112 104.708 112V114ZM104 113.251V113.749H106V113.251H104ZM104 113.749C104 113.482 104.13 113.281 104.263 113.167C104.395 113.054 104.554 113 104.708 113V115C105.27 115 106 114.578 106 113.749H104ZM104.708 113H102.292V115H104.708V113ZM102.292 113C102.441 113 102.6 113.051 102.735 113.166C102.872 113.283 103 113.486 103 113.749H101C101 114.586 101.736 115 102.292 115V113ZM103 113.749V113.251H101V113.749H103ZM103 113.251C103 113.514 102.872 113.717 102.735 113.834C102.6 113.949 102.441 114 102.292 114V112C101.737 112 101 112.414 101 113.251L103 113.251Z" fill="#333333" mask="url(#path-45-inside-3_125_7030)"/>
<mask id="path-47-inside-4_125_7030" fill="white">
<path fill-rule="evenodd" clip-rule="evenodd" d="M102.292 119H104.708C104.868 119 105 119.111 105 119.251V119.749C105 119.887 104.868 120 104.708 120H102.292C102.132 120 102 119.889 102 119.749V119.251C102 119.111 102.132 119 102.292 119Z"/>
</mask>
<path fill-rule="evenodd" clip-rule="evenodd" d="M102.292 119H104.708C104.868 119 105 119.111 105 119.251V119.749C105 119.887 104.868 120 104.708 120H102.292C102.132 120 102 119.889 102 119.749V119.251C102 119.111 102.132 119 102.292 119Z" fill="#BDECFF"/>
<path d="M102 119.251L103 119.251L102 119.251ZM102.292 120H104.708V118H102.292V120ZM104.708 120C104.559 120 104.4 119.949 104.265 119.834C104.128 119.717 104 119.514 104 119.251H106C106 118.414 105.263 118 104.708 118V120ZM104 119.251V119.749H106V119.251H104ZM104 119.749C104 119.482 104.13 119.281 104.263 119.167C104.395 119.054 104.554 119 104.708 119V121C105.27 121 106 120.578 106 119.749H104ZM104.708 119H102.292V121H104.708V119ZM102.292 119C102.441 119 102.6 119.051 102.735 119.166C102.872 119.283 103 119.486 103 119.749H101C101 120.586 101.736 121 102.292 121V119ZM103 119.749V119.251H101V119.749H103ZM103 119.251C103 119.514 102.872 119.717 102.735 119.834C102.6 119.949 102.441 120 102.292 120V118C101.737 118 101 118.414 101 119.251L103 119.251Z" fill="#333333" mask="url(#path-47-inside-4_125_7030)"/>
<mask id="path-49-inside-5_125_7030" fill="white">
<path fill-rule="evenodd" clip-rule="evenodd" d="M102.292 123H104.708C104.868 123 105 123.111 105 123.251V123.749C105 123.887 104.868 124 104.708 124H102.292C102.132 124 102 123.889 102 123.749V123.251C102 123.111 102.132 123 102.292 123Z"/>
</mask>
<path fill-rule="evenodd" clip-rule="evenodd" d="M102.292 123H104.708C104.868 123 105 123.111 105 123.251V123.749C105 123.887 104.868 124 104.708 124H102.292C102.132 124 102 123.889 102 123.749V123.251C102 123.111 102.132 123 102.292 123Z" fill="#BDECFF"/>
<path d="M102 123.251L103 123.251L102 123.251ZM102.292 124H104.708V122H102.292V124ZM104.708 124C104.559 124 104.4 123.949 104.265 123.834C104.128 123.717 104 123.514 104 123.251H106C106 122.414 105.263 122 104.708 122V124ZM104 123.251V123.749H106V123.251H104ZM104 123.749C104 123.482 104.13 123.281 104.263 123.167C104.395 123.054 104.554 123 104.708 123V125C105.27 125 106 124.578 106 123.749H104ZM104.708 123H102.292V125H104.708V123ZM102.292 123C102.441 123 102.6 123.051 102.735 123.166C102.872 123.283 103 123.486 103 123.749H101C101 124.586 101.736 125 102.292 125V123ZM103 123.749V123.251H101V123.749H103ZM103 123.251C103 123.514 102.872 123.717 102.735 123.834C102.6 123.949 102.441 124 102.292 124V122C101.737 122 101 122.414 101 123.251L103 123.251Z" fill="#333333" mask="url(#path-49-inside-5_125_7030)"/>
<mask id="path-51-inside-6_125_7030" fill="white">
<path fill-rule="evenodd" clip-rule="evenodd" d="M102.292 115H104.708C104.868 115 105 115.111 105 115.251V115.749C105 115.887 104.868 116 104.708 116H102.292C102.132 116 102 115.889 102 115.749V115.251C102 115.111 102.132 115 102.292 115Z"/>
</mask>
<path fill-rule="evenodd" clip-rule="evenodd" d="M102.292 115H104.708C104.868 115 105 115.111 105 115.251V115.749C105 115.887 104.868 116 104.708 116H102.292C102.132 116 102 115.889 102 115.749V115.251C102 115.111 102.132 115 102.292 115Z" fill="#BDECFF"/>
<path d="M102 115.251L103 115.251L102 115.251ZM102.292 116H104.708V114H102.292V116ZM104.708 116C104.559 116 104.4 115.949 104.265 115.834C104.128 115.717 104 115.514 104 115.251H106C106 114.414 105.263 114 104.708 114V116ZM104 115.251V115.749H106V115.251H104ZM104 115.749C104 115.482 104.13 115.281 104.263 115.167C104.395 115.054 104.554 115 104.708 115V117C105.27 117 106 116.578 106 115.749H104ZM104.708 115H102.292V117H104.708V115ZM102.292 115C102.441 115 102.6 115.051 102.735 115.166C102.872 115.283 103 115.486 103 115.749H101C101 116.586 101.736 117 102.292 117V115ZM103 115.749V115.251H101V115.749H103ZM103 115.251C103 115.514 102.872 115.717 102.735 115.834C102.6 115.949 102.441 116 102.292 116V114C101.737 114 101 114.414 101 115.251L103 115.251Z" fill="#333333" mask="url(#path-51-inside-6_125_7030)"/>
<mask id="path-53-inside-7_125_7030" fill="white">
<path fill-rule="evenodd" clip-rule="evenodd" d="M102.292 117H104.708C104.868 117 105 117.111 105 117.251V117.749C105 117.887 104.868 118 104.708 118H102.292C102.132 118 102 117.889 102 117.749V117.251C102 117.111 102.132 117 102.292 117Z"/>
</mask>
<path fill-rule="evenodd" clip-rule="evenodd" d="M102.292 117H104.708C104.868 117 105 117.111 105 117.251V117.749C105 117.887 104.868 118 104.708 118H102.292C102.132 118 102 117.889 102 117.749V117.251C102 117.111 102.132 117 102.292 117Z" fill="#BDECFF"/>
<path d="M102 117.251L103 117.251L102 117.251ZM102.292 118H104.708V116H102.292V118ZM104.708 118C104.559 118 104.4 117.949 104.265 117.834C104.128 117.717 104 117.514 104 117.251H106C106 116.414 105.263 116 104.708 116V118ZM104 117.251V117.749H106V117.251H104ZM104 117.749C104 117.482 104.13 117.281 104.263 117.167C104.395 117.054 104.554 117 104.708 117V119C105.27 119 106 118.578 106 117.749H104ZM104.708 117H102.292V119H104.708V117ZM102.292 117C102.441 117 102.6 117.051 102.735 117.166C102.872 117.283 103 117.486 103 117.749H101C101 118.586 101.736 119 102.292 119V117ZM103 117.749V117.251H101V117.749H103ZM103 117.251C103 117.514 102.872 117.717 102.735 117.834C102.6 117.949 102.441 118 102.292 118V116C101.737 116 101 116.414 101 117.251L103 117.251Z" fill="#333333" mask="url(#path-53-inside-7_125_7030)"/>
<mask id="path-55-inside-8_125_7030" fill="white">
<path fill-rule="evenodd" clip-rule="evenodd" d="M102.292 121H104.708C104.868 121 105 121.111 105 121.251V121.749C105 121.887 104.868 122 104.708 122H102.292C102.132 122 102 121.889 102 121.749V121.251C102 121.111 102.132 121 102.292 121Z"/>
</mask>
<path fill-rule="evenodd" clip-rule="evenodd" d="M102.292 121H104.708C104.868 121 105 121.111 105 121.251V121.749C105 121.887 104.868 122 104.708 122H102.292C102.132 122 102 121.889 102 121.749V121.251C102 121.111 102.132 121 102.292 121Z" fill="#BDECFF"/>
<path d="M102 121.251L103 121.251L102 121.251ZM102.292 122H104.708V120H102.292V122ZM104.708 122C104.559 122 104.4 121.949 104.265 121.834C104.128 121.717 104 121.514 104 121.251H106C106 120.414 105.263 120 104.708 120V122ZM104 121.251V121.749H106V121.251H104ZM104 121.749C104 121.482 104.13 121.281 104.263 121.167C104.395 121.054 104.554 121 104.708 121V123C105.27 123 106 122.578 106 121.749H104ZM104.708 121H102.292V123H104.708V121ZM102.292 121C102.441 121 102.6 121.051 102.735 121.166C102.872 121.283 103 121.486 103 121.749H101C101 122.586 101.736 123 102.292 123V121ZM103 121.749V121.251H101V121.749H103ZM103 121.251C103 121.514 102.872 121.717 102.735 121.834C102.6 121.949 102.441 122 102.292 122V120C101.737 120 101 120.414 101 121.251L103 121.251Z" fill="#333333" mask="url(#path-55-inside-8_125_7030)"/>
<mask id="path-57-inside-9_125_7030" fill="white">
<path fill-rule="evenodd" clip-rule="evenodd" d="M102.292 125H104.708C104.868 125 105 125.111 105 125.251V125.749C105 125.887 104.868 126 104.708 126H102.292C102.132 126 102 125.889 102 125.749V125.251C102 125.111 102.132 125 102.292 125Z"/>
</mask>
<path fill-rule="evenodd" clip-rule="evenodd" d="M102.292 125H104.708C104.868 125 105 125.111 105 125.251V125.749C105 125.887 104.868 126 104.708 126H102.292C102.132 126 102 125.889 102 125.749V125.251C102 125.111 102.132 125 102.292 125Z" fill="#BDECFF"/>
<path d="M102 125.251L103 125.251L102 125.251ZM102.292 126H104.708V124H102.292V126ZM104.708 126C104.559 126 104.4 125.949 104.265 125.834C104.128 125.717 104 125.514 104 125.251H106C106 124.414 105.263 124 104.708 124V126ZM104 125.251V125.749H106V125.251H104ZM104 125.749C104 125.482 104.13 125.281 104.263 125.167C104.395 125.054 104.554 125 104.708 125V127C105.27 127 106 126.578 106 125.749H104ZM104.708 125H102.292V127H104.708V125ZM102.292 125C102.441 125 102.6 125.051 102.735 125.166C102.872 125.283 103 125.486 103 125.749H101C101 126.586 101.736 127 102.292 127V125ZM103 125.749V125.251H101V125.749H103ZM103 125.251C103 125.514 102.872 125.717 102.735 125.834C102.6 125.949 102.441 126 102.292 126V124C101.737 124 101 124.414 101 125.251L103 125.251Z" fill="#333333" mask="url(#path-57-inside-9_125_7030)"/>
<mask id="path-59-inside-10_125_7030" fill="white">
<path fill-rule="evenodd" clip-rule="evenodd" d="M102.292 127H104.708C104.868 127 105 127.111 105 127.251V127.749C105 127.887 104.868 128 104.708 128H102.292C102.132 128 102 127.889 102 127.749V127.251C102 127.111 102.132 127 102.292 127Z"/>
</mask>
<path fill-rule="evenodd" clip-rule="evenodd" d="M102.292 127H104.708C104.868 127 105 127.111 105 127.251V127.749C105 127.887 104.868 128 104.708 128H102.292C102.132 128 102 127.889 102 127.749V127.251C102 127.111 102.132 127 102.292 127Z" fill="#BDECFF"/>
<path d="M102 127.251L103 127.251L102 127.251ZM102.292 128H104.708V126H102.292V128ZM104.708 128C104.559 128 104.4 127.949 104.265 127.834C104.128 127.717 104 127.514 104 127.251H106C106 126.414 105.263 126 104.708 126V128ZM104 127.251V127.749H106V127.251H104ZM104 127.749C104 127.482 104.13 127.281 104.263 127.167C104.395 127.054 104.554 127 104.708 127V129C105.27 129 106 128.578 106 127.749H104ZM104.708 127H102.292V129H104.708V127ZM102.292 127C102.441 127 102.6 127.051 102.735 127.166C102.872 127.283 103 127.486 103 127.749H101C101 128.586 101.736 129 102.292 129V127ZM103 127.749V127.251H101V127.749H103ZM103 127.251C103 127.514 102.872 127.717 102.735 127.834C102.6 127.949 102.441 128 102.292 128V126C101.737 126 101 126.414 101 127.251L103 127.251Z" fill="#333333" mask="url(#path-59-inside-10_125_7030)"/>
<mask id="path-61-inside-11_125_7030" fill="white">
<path fill-rule="evenodd" clip-rule="evenodd" d="M106.292 109H108.708C108.868 109 109 109.111 109 109.251V109.749C109 109.887 108.868 110 108.708 110H106.292C106.132 110 106 109.889 106 109.749V109.251C106 109.111 106.132 109 106.292 109Z"/>
</mask>
<path fill-rule="evenodd" clip-rule="evenodd" d="M106.292 109H108.708C108.868 109 109 109.111 109 109.251V109.749C109 109.887 108.868 110 108.708 110H106.292C106.132 110 106 109.889 106 109.749V109.251C106 109.111 106.132 109 106.292 109Z" fill="#BDECFF"/>
<path d="M106 109.251L107 109.251L106 109.251ZM106.292 110H108.708V108H106.292V110ZM108.708 110C108.559 110 108.4 109.949 108.265 109.834C108.128 109.717 108 109.514 108 109.251H110C110 108.414 109.263 108 108.708 108V110ZM108 109.251V109.749H110V109.251H108ZM108 109.749C108 109.482 108.13 109.281 108.263 109.167C108.395 109.054 108.554 109 108.708 109V111C109.27 111 110 110.578 110 109.749H108ZM108.708 109H106.292V111H108.708V109ZM106.292 109C106.441 109 106.6 109.051 106.735 109.166C106.872 109.283 107 109.486 107 109.749H105C105 110.586 105.736 111 106.292 111V109ZM107 109.749V109.251H105V109.749H107ZM107 109.251C107 109.514 106.872 109.717 106.735 109.834C106.6 109.949 106.441 110 106.292 110V108C105.737 108 105 108.414 105 109.251L107 109.251Z" fill="#333333" mask="url(#path-61-inside-11_125_7030)"/>
<mask id="path-63-inside-12_125_7030" fill="white">
<path fill-rule="evenodd" clip-rule="evenodd" d="M106.292 111H108.708C108.868 111 109 111.111 109 111.251V111.749C109 111.887 108.868 112 108.708 112H106.292C106.132 112 106 111.889 106 111.749V111.251C106 111.111 106.132 111 106.292 111Z"/>
</mask>
<path fill-rule="evenodd" clip-rule="evenodd" d="M106.292 111H108.708C108.868 111 109 111.111 109 111.251V111.749C109 111.887 108.868 112 108.708 112H106.292C106.132 112 106 111.889 106 111.749V111.251C106 111.111 106.132 111 106.292 111Z" fill="#BDECFF"/>
<path d="M106 111.251L107 111.251L106 111.251ZM106.292 112H108.708V110H106.292V112ZM108.708 112C108.559 112 108.4 111.949 108.265 111.834C108.128 111.717 108 111.514 108 111.251H110C110 110.414 109.263 110 108.708 110V112ZM108 111.251V111.749H110V111.251H108ZM108 111.749C108 111.482 108.13 111.281 108.263 111.167C108.395 111.054 108.554 111 108.708 111V113C109.27 113 110 112.578 110 111.749H108ZM108.708 111H106.292V113H108.708V111ZM106.292 111C106.441 111 106.6 111.051 106.735 111.166C106.872 111.283 107 111.486 107 111.749H105C105 112.586 105.736 113 106.292 113V111ZM107 111.749V111.251H105V111.749H107ZM107 111.251C107 111.514 106.872 111.717 106.735 111.834C106.6 111.949 106.441 112 106.292 112V110C105.737 110 105 110.414 105 111.251L107 111.251Z" fill="#333333" mask="url(#path-63-inside-12_125_7030)"/>
<mask id="path-65-inside-13_125_7030" fill="white">
<path fill-rule="evenodd" clip-rule="evenodd" d="M106.292 113H108.708C108.868 113 109 113.111 109 113.251V113.749C109 113.887 108.868 114 108.708 114H106.292C106.132 114 106 113.889 106 113.749V113.251C106 113.111 106.132 113 106.292 113Z"/>
</mask>
<path fill-rule="evenodd" clip-rule="evenodd" d="M106.292 113H108.708C108.868 113 109 113.111 109 113.251V113.749C109 113.887 108.868 114 108.708 114H106.292C106.132 114 106 113.889 106 113.749V113.251C106 113.111 106.132 113 106.292 113Z" fill="#BDECFF"/>
<path d="M106 113.251L107 113.251L106 113.251ZM106.292 114H108.708V112H106.292V114ZM108.708 114C108.559 114 108.4 113.949 108.265 113.834C108.128 113.717 108 113.514 108 113.251H110C110 112.414 109.263 112 108.708 112V114ZM108 113.251V113.749H110V113.251H108ZM108 113.749C108 113.482 108.13 113.281 108.263 113.167C108.395 113.054 108.554 113 108.708 113V115C109.27 115 110 114.578 110 113.749H108ZM108.708 113H106.292V115H108.708V113ZM106.292 113C106.441 113 106.6 113.051 106.735 113.166C106.872 113.283 107 113.486 107 113.749H105C105 114.586 105.736 115 106.292 115V113ZM107 113.749V113.251H105V113.749H107ZM107 113.251C107 113.514 106.872 113.717 106.735 113.834C106.6 113.949 106.441 114 106.292 114V112C105.737 112 105 112.414 105 113.251L107 113.251Z" fill="#333333" mask="url(#path-65-inside-13_125_7030)"/>
<mask id="path-67-inside-14_125_7030" fill="white">
<path fill-rule="evenodd" clip-rule="evenodd" d="M106.292 119H108.708C108.868 119 109 119.111 109 119.251V119.749C109 119.887 108.868 120 108.708 120H106.292C106.132 120 106 119.889 106 119.749V119.251C106 119.111 106.132 119 106.292 119Z"/>
</mask>
<path fill-rule="evenodd" clip-rule="evenodd" d="M106.292 119H108.708C108.868 119 109 119.111 109 119.251V119.749C109 119.887 108.868 120 108.708 120H106.292C106.132 120 106 119.889 106 119.749V119.251C106 119.111 106.132 119 106.292 119Z" fill="#BDECFF"/>
<path d="M106 119.251L107 119.251L106 119.251ZM106.292 120H108.708V118H106.292V120ZM108.708 120C108.559 120 108.4 119.949 108.265 119.834C108.128 119.717 108 119.514 108 119.251H110C110 118.414 109.263 118 108.708 118V120ZM108 119.251V119.749H110V119.251H108ZM108 119.749C108 119.482 108.13 119.281 108.263 119.167C108.395 119.054 108.554 119 108.708 119V121C109.27 121 110 120.578 110 119.749H108ZM108.708 119H106.292V121H108.708V119ZM106.292 119C106.441 119 106.6 119.051 106.735 119.166C106.872 119.283 107 119.486 107 119.749H105C105 120.586 105.736 121 106.292 121V119ZM107 119.749V119.251H105V119.749H107ZM107 119.251C107 119.514 106.872 119.717 106.735 119.834C106.6 119.949 106.441 120 106.292 120V118C105.737 118 105 118.414 105 119.251L107 119.251Z" fill="#333333" mask="url(#path-67-inside-14_125_7030)"/>
<mask id="path-69-inside-15_125_7030" fill="white">
<path fill-rule="evenodd" clip-rule="evenodd" d="M106.292 123H108.708C108.868 123 109 123.111 109 123.251V123.749C109 123.887 108.868 124 108.708 124H106.292C106.132 124 106 123.889 106 123.749V123.251C106 123.111 106.132 123 106.292 123Z"/>
</mask>
<path fill-rule="evenodd" clip-rule="evenodd" d="M106.292 123H108.708C108.868 123 109 123.111 109 123.251V123.749C109 123.887 108.868 124 108.708 124H106.292C106.132 124 106 123.889 106 123.749V123.251C106 123.111 106.132 123 106.292 123Z" fill="#BDECFF"/>
<path d="M106 123.251L107 123.251L106 123.251ZM106.292 124H108.708V122H106.292V124ZM108.708 124C108.559 124 108.4 123.949 108.265 123.834C108.128 123.717 108 123.514 108 123.251H110C110 122.414 109.263 122 108.708 122V124ZM108 123.251V123.749H110V123.251H108ZM108 123.749C108 123.482 108.13 123.281 108.263 123.167C108.395 123.054 108.554 123 108.708 123V125C109.27 125 110 124.578 110 123.749H108ZM108.708 123H106.292V125H108.708V123ZM106.292 123C106.441 123 106.6 123.051 106.735 123.166C106.872 123.283 107 123.486 107 123.749H105C105 124.586 105.736 125 106.292 125V123ZM107 123.749V123.251H105V123.749H107ZM107 123.251C107 123.514 106.872 123.717 106.735 123.834C106.6 123.949 106.441 124 106.292 124V122C105.737 122 105 122.414 105 123.251L107 123.251Z" fill="#333333" mask="url(#path-69-inside-15_125_7030)"/>
<mask id="path-71-inside-16_125_7030" fill="white">
<path fill-rule="evenodd" clip-rule="evenodd" d="M106.292 115H108.708C108.868 115 109 115.111 109 115.251V115.749C109 115.887 108.868 116 108.708 116H106.292C106.132 116 106 115.889 106 115.749V115.251C106 115.111 106.132 115 106.292 115Z"/>
</mask>
<path fill-rule="evenodd" clip-rule="evenodd" d="M106.292 115H108.708C108.868 115 109 115.111 109 115.251V115.749C109 115.887 108.868 116 108.708 116H106.292C106.132 116 106 115.889 106 115.749V115.251C106 115.111 106.132 115 106.292 115Z" fill="#BDECFF"/>
<path d="M106 115.251L107 115.251L106 115.251ZM106.292 116H108.708V114H106.292V116ZM108.708 116C108.559 116 108.4 115.949 108.265 115.834C108.128 115.717 108 115.514 108 115.251H110C110 114.414 109.263 114 108.708 114V116ZM108 115.251V115.749H110V115.251H108ZM108 115.749C108 115.482 108.13 115.281 108.263 115.167C108.395 115.054 108.554 115 108.708 115V117C109.27 117 110 116.578 110 115.749H108ZM108.708 115H106.292V117H108.708V115ZM106.292 115C106.441 115 106.6 115.051 106.735 115.166C106.872 115.283 107 115.486 107 115.749H105C105 116.586 105.736 117 106.292 117V115ZM107 115.749V115.251H105V115.749H107ZM107 115.251C107 115.514 106.872 115.717 106.735 115.834C106.6 115.949 106.441 116 106.292 116V114C105.737 114 105 114.414 105 115.251L107 115.251Z" fill="#333333" mask="url(#path-71-inside-16_125_7030)"/>
<mask id="path-73-inside-17_125_7030" fill="white">
<path fill-rule="evenodd" clip-rule="evenodd" d="M106.292 117H108.708C108.868 117 109 117.111 109 117.251V117.749C109 117.887 108.868 118 108.708 118H106.292C106.132 118 106 117.889 106 117.749V117.251C106 117.111 106.132 117 106.292 117Z"/>
</mask>
<path fill-rule="evenodd" clip-rule="evenodd" d="M106.292 117H108.708C108.868 117 109 117.111 109 117.251V117.749C109 117.887 108.868 118 108.708 118H106.292C106.132 118 106 117.889 106 117.749V117.251C106 117.111 106.132 117 106.292 117Z" fill="#BDECFF"/>
<path d="M106 117.251L107 117.251L106 117.251ZM106.292 118H108.708V116H106.292V118ZM108.708 118C108.559 118 108.4 117.949 108.265 117.834C108.128 117.717 108 117.514 108 117.251H110C110 116.414 109.263 116 108.708 116V118ZM108 117.251V117.749H110V117.251H108ZM108 117.749C108 117.482 108.13 117.281 108.263 117.167C108.395 117.054 108.554 117 108.708 117V119C109.27 119 110 118.578 110 117.749H108ZM108.708 117H106.292V119H108.708V117ZM106.292 117C106.441 117 106.6 117.051 106.735 117.166C106.872 117.283 107 117.486 107 117.749H105C105 118.586 105.736 119 106.292 119V117ZM107 117.749V117.251H105V117.749H107ZM107 117.251C107 117.514 106.872 117.717 106.735 117.834C106.6 117.949 106.441 118 106.292 118V116C105.737 116 105 116.414 105 117.251L107 117.251Z" fill="#333333" mask="url(#path-73-inside-17_125_7030)"/>
<mask id="path-75-inside-18_125_7030" fill="white">
<path fill-rule="evenodd" clip-rule="evenodd" d="M106.292 121H108.708C108.868 121 109 121.111 109 121.251V121.749C109 121.887 108.868 122 108.708 122H106.292C106.132 122 106 121.889 106 121.749V121.251C106 121.111 106.132 121 106.292 121Z"/>
</mask>
<path fill-rule="evenodd" clip-rule="evenodd" d="M106.292 121H108.708C108.868 121 109 121.111 109 121.251V121.749C109 121.887 108.868 122 108.708 122H106.292C106.132 122 106 121.889 106 121.749V121.251C106 121.111 106.132 121 106.292 121Z" fill="#BDECFF"/>
<path d="M106 121.251L107 121.251L106 121.251ZM106.292 122H108.708V120H106.292V122ZM108.708 122C108.559 122 108.4 121.949 108.265 121.834C108.128 121.717 108 121.514 108 121.251H110C110 120.414 109.263 120 108.708 120V122ZM108 121.251V121.749H110V121.251H108ZM108 121.749C108 121.482 108.13 121.281 108.263 121.167C108.395 121.054 108.554 121 108.708 121V123C109.27 123 110 122.578 110 121.749H108ZM108.708 121H106.292V123H108.708V121ZM106.292 121C106.441 121 106.6 121.051 106.735 121.166C106.872 121.283 107 121.486 107 121.749H105C105 122.586 105.736 123 106.292 123V121ZM107 121.749V121.251H105V121.749H107ZM107 121.251C107 121.514 106.872 121.717 106.735 121.834C106.6 121.949 106.441 122 106.292 122V120C105.737 120 105 120.414 105 121.251L107 121.251Z" fill="#333333" mask="url(#path-75-inside-18_125_7030)"/>
<mask id="path-77-inside-19_125_7030" fill="white">
<path fill-rule="evenodd" clip-rule="evenodd" d="M106.292 125H108.708C108.868 125 109 125.111 109 125.251V125.749C109 125.887 108.868 126 108.708 126H106.292C106.132 126 106 125.889 106 125.749V125.251C106 125.111 106.132 125 106.292 125Z"/>
</mask>
<path fill-rule="evenodd" clip-rule="evenodd" d="M106.292 125H108.708C108.868 125 109 125.111 109 125.251V125.749C109 125.887 108.868 126 108.708 126H106.292C106.132 126 106 125.889 106 125.749V125.251C106 125.111 106.132 125 106.292 125Z" fill="#BDECFF"/>
<path d="M106 125.251L107 125.251L106 125.251ZM106.292 126H108.708V124H106.292V126ZM108.708 126C108.559 126 108.4 125.949 108.265 125.834C108.128 125.717 108 125.514 108 125.251H110C110 124.414 109.263 124 108.708 124V126ZM108 125.251V125.749H110V125.251H108ZM108 125.749C108 125.482 108.13 125.281 108.263 125.167C108.395 125.054 108.554 125 108.708 125V127C109.27 127 110 126.578 110 125.749H108ZM108.708 125H106.292V127H108.708V125ZM106.292 125C106.441 125 106.6 125.051 106.735 125.166C106.872 125.283 107 125.486 107 125.749H105C105 126.586 105.736 127 106.292 127V125ZM107 125.749V125.251H105V125.749H107ZM107 125.251C107 125.514 106.872 125.717 106.735 125.834C106.6 125.949 106.441 126 106.292 126V124C105.737 124 105 124.414 105 125.251L107 125.251Z" fill="#333333" mask="url(#path-77-inside-19_125_7030)"/>
<mask id="path-79-inside-20_125_7030" fill="white">
<path fill-rule="evenodd" clip-rule="evenodd" d="M106.292 127H108.708C108.868 127 109 127.111 109 127.251V127.749C109 127.887 108.868 128 108.708 128H106.292C106.132 128 106 127.889 106 127.749V127.251C106 127.111 106.132 127 106.292 127Z"/>
</mask>
<path fill-rule="evenodd" clip-rule="evenodd" d="M106.292 127H108.708C108.868 127 109 127.111 109 127.251V127.749C109 127.887 108.868 128 108.708 128H106.292C106.132 128 106 127.889 106 127.749V127.251C106 127.111 106.132 127 106.292 127Z" fill="#BDECFF"/>
<path d="M106 127.251L107 127.251L106 127.251ZM106.292 128H108.708V126H106.292V128ZM108.708 128C108.559 128 108.4 127.949 108.265 127.834C108.128 127.717 108 127.514 108 127.251H110C110 126.414 109.263 126 108.708 126V128ZM108 127.251V127.749H110V127.251H108ZM108 127.749C108 127.482 108.13 127.281 108.263 127.167C108.395 127.054 108.554 127 108.708 127V129C109.27 129 110 128.578 110 127.749H108ZM108.708 127H106.292V129H108.708V127ZM106.292 127C106.441 127 106.6 127.051 106.735 127.166C106.872 127.283 107 127.486 107 127.749H105C105 128.586 105.736 129 106.292 129V127ZM107 127.749V127.251H105V127.749H107ZM107 127.251C107 127.514 106.872 127.717 106.735 127.834C106.6 127.949 106.441 128 106.292 128V126C105.737 126 105 126.414 105 127.251L107 127.251Z" fill="#333333" mask="url(#path-79-inside-20_125_7030)"/>
<path fill-rule="evenodd" clip-rule="evenodd" d="M129.5 106H130.5C130.777 106 131 106.238 131 106.525V107.475C131 107.766 130.773 108 130.5 108H129.5C129.223 108 129 107.762 129 107.475V106.525C129 106.238 129.223 106 129.5 106Z" fill="#333333"/>
<path fill-rule="evenodd" clip-rule="evenodd" d="M129.5 118H130.5C130.777 118 131 118.238 131 118.525V119.475C131 119.766 130.773 120 130.5 120H129.5C129.223 120 129 119.762 129 119.475V118.525C129 118.238 129.223 118 129.5 118Z" fill="#333333"/>
<path fill-rule="evenodd" clip-rule="evenodd" d="M129.5 112H130.5C130.777 112 131 112.238 131 112.525V113.475C131 113.766 130.773 114 130.5 114H129.5C129.223 114 129 113.762 129 113.475V112.525C129 112.238 129.223 112 129.5 112Z" fill="#333333"/>
<path fill-rule="evenodd" clip-rule="evenodd" d="M129.5 124H130.5C130.777 124 131 124.238 131 124.525V125.475C131 125.766 130.773 126 130.5 126H129.5C129.223 126 129 125.762 129 125.475V124.525C129 124.238 129.223 124 129.5 124Z" fill="#333333"/>
<path fill-rule="evenodd" clip-rule="evenodd" d="M129.5 109H130.5C130.777 109 131 109.238 131 109.525V110.475C131 110.766 130.773 111 130.5 111H129.5C129.223 111 129 110.762 129 110.475V109.525C129 109.238 129.223 109 129.5 109Z" fill="#333333"/>
<path fill-rule="evenodd" clip-rule="evenodd" d="M129.5 121H130.5C130.777 121 131 121.238 131 121.525V122.475C131 122.766 130.773 123 130.5 123H129.5C129.223 123 129 122.762 129 122.475V121.525C129 121.238 129.223 121 129.5 121Z" fill="#333333"/>
<path fill-rule="evenodd" clip-rule="evenodd" d="M129.5 115H130.5C130.777 115 131 115.238 131 115.525V116.475C131 116.766 130.773 117 130.5 117H129.5C129.223 117 129 116.762 129 116.475V115.525C129 115.238 129.223 115 129.5 115Z" fill="#333333"/>
<path fill-rule="evenodd" clip-rule="evenodd" d="M129.5 127H130.5C130.777 127 131 127.238 131 127.525V128.475C131 128.766 130.773 129 130.5 129H129.5C129.223 129 129 128.762 129 128.475V127.525C129 127.238 129.223 127 129.5 127Z" fill="#333333"/>
<mask id="path-89-inside-21_125_7030" fill="white">
<path fill-rule="evenodd" clip-rule="evenodd" d="M115 100.5C115 100.224 115.224 100 115.5 100V100C115.776 100 116 100.224 116 100.5V126.5C116 126.776 115.776 127 115.5 127V127C115.224 127 115 126.776 115 126.5L115 100.5Z"/>
</mask>
<path fill-rule="evenodd" clip-rule="evenodd" d="M115 100.5C115 100.224 115.224 100 115.5 100V100C115.776 100 116 100.224 116 100.5V126.5C116 126.776 115.776 127 115.5 127V127C115.224 127 115 126.776 115 126.5L115 100.5Z" fill="#BDECFF"/>
<path d="M115 100.5V126.5H117V100.5H115ZM116 126.5L116 100.5L114 100.5L114 126.5L116 126.5ZM115.5 126C115.776 126 116 126.224 116 126.5L114 126.5C114 127.328 114.672 128 115.5 128V126ZM115 126.5C115 126.224 115.224 126 115.5 126V128C116.328 128 117 127.328 117 126.5H115ZM115.5 101C115.224 101 115 100.776 115 100.5H117C117 99.6719 116.329 99.0004 115.5 99.0002L115.5 101ZM115.5 99.0002C114.672 98.9999 114 99.6715 114 100.5L116 100.5C116 100.776 115.776 101 115.5 101L115.5 99.0002Z" fill="#333333" mask="url(#path-89-inside-21_125_7030)"/>
<mask id="path-91-inside-22_125_7030" fill="white">
<path fill-rule="evenodd" clip-rule="evenodd" d="M117 100.5C117 100.224 117.224 100 117.5 100V100C117.776 100 118 100.224 118 100.5V126.5C118 126.776 117.776 127 117.5 127V127C117.224 127 117 126.776 117 126.5L117 100.5Z"/>
</mask>
<path fill-rule="evenodd" clip-rule="evenodd" d="M117 100.5C117 100.224 117.224 100 117.5 100V100C117.776 100 118 100.224 118 100.5V126.5C118 126.776 117.776 127 117.5 127V127C117.224 127 117 126.776 117 126.5L117 100.5Z" fill="#BDECFF"/>
<path d="M117 100.5V126.5H119V100.5H117ZM118 126.5L118 100.5L116 100.5L116 126.5L118 126.5ZM117.5 126C117.776 126 118 126.224 118 126.5L116 126.5C116 127.328 116.672 128 117.5 128V126ZM117 126.5C117 126.224 117.224 126 117.5 126V128C118.328 128 119 127.328 119 126.5H117ZM117.5 101C117.224 101 117 100.776 117 100.5H119C119 99.6719 118.329 99.0004 117.5 99.0002L117.5 101ZM117.5 99.0002C116.672 98.9999 116 99.6715 116 100.5L118 100.5C118 100.776 117.776 101 117.5 101L117.5 99.0002Z" fill="#333333" mask="url(#path-91-inside-22_125_7030)"/>
<mask id="path-93-inside-23_125_7030" fill="white">
<path fill-rule="evenodd" clip-rule="evenodd" d="M121 100.5C121 100.224 121.224 100 121.5 100V100C121.776 100 122 100.224 122 100.5V126.5C122 126.776 121.776 127 121.5 127V127C121.224 127 121 126.776 121 126.5L121 100.5Z"/>
</mask>
<path fill-rule="evenodd" clip-rule="evenodd" d="M121 100.5C121 100.224 121.224 100 121.5 100V100C121.776 100 122 100.224 122 100.5V126.5C122 126.776 121.776 127 121.5 127V127C121.224 127 121 126.776 121 126.5L121 100.5Z" fill="#BDECFF"/>
<path d="M121 100.5V126.5H123V100.5H121ZM122 126.5L122 100.5L120 100.5L120 126.5L122 126.5ZM121.5 126C121.776 126 122 126.224 122 126.5L120 126.5C120 127.328 120.672 128 121.5 128V126ZM121 126.5C121 126.224 121.224 126 121.5 126V128C122.328 128 123 127.328 123 126.5H121ZM121.5 101C121.224 101 121 100.776 121 100.5H123C123 99.6719 122.329 99.0004 121.5 99.0002L121.5 101ZM121.5 99.0002C120.672 98.9999 120 99.6715 120 100.5L122 100.5C122 100.776 121.776 101 121.5 101L121.5 99.0002Z" fill="#333333" mask="url(#path-93-inside-23_125_7030)"/>
<mask id="path-95-inside-24_125_7030" fill="white">
<path fill-rule="evenodd" clip-rule="evenodd" d="M123 100.5C123 100.224 123.224 100 123.5 100V100C123.776 100 124 100.224 124 100.5V126.5C124 126.776 123.776 127 123.5 127V127C123.224 127 123 126.776 123 126.5L123 100.5Z"/>
</mask>
<path fill-rule="evenodd" clip-rule="evenodd" d="M123 100.5C123 100.224 123.224 100 123.5 100V100C123.776 100 124 100.224 124 100.5V126.5C124 126.776 123.776 127 123.5 127V127C123.224 127 123 126.776 123 126.5L123 100.5Z" fill="#BDECFF"/>
<path d="M123 100.5V126.5H125V100.5H123ZM124 126.5L124 100.5L122 100.5L122 126.5L124 126.5ZM123.5 126C123.776 126 124 126.224 124 126.5L122 126.5C122 127.328 122.672 128 123.5 128V126ZM123 126.5C123 126.224 123.224 126 123.5 126V128C124.328 128 125 127.328 125 126.5H123ZM123.5 101C123.224 101 123 100.776 123 100.5H125C125 99.6719 124.329 99.0004 123.5 99.0002L123.5 101ZM123.5 99.0002C122.672 98.9999 122 99.6715 122 100.5L124 100.5C124 100.776 123.776 101 123.5 101L123.5 99.0002Z" fill="#333333" mask="url(#path-95-inside-24_125_7030)"/>
<path d="M121.5 129V128.5L121 128.5H121H121H121L121 128.5L120.998 128.5L120.993 128.5L120.973 128.5L120.901 128.5L120.662 128.5H119.338L119.099 128.5L119.027 128.5L119.007 128.5L119.002 128.5L119 128.5L119 128.5L119 128.5H119H119L119 129L119 128.5L118.5 128.5V129V132V132.5H119H121H121.5V132V129Z" fill="url(#paint3_linear_125_7030)" stroke="#333333"/>
</g>
<defs>
<linearGradient id="paint0_linear_125_7030" x1="31.7796" y1="83.137" x2="61.0988" y2="115.291" gradientUnits="userSpaceOnUse">
<stop stop-color="#FFC671"/>
<stop offset="1" stop-color="#FF6F3D"/>
</linearGradient>
<linearGradient id="paint1_linear_125_7030" x1="87.0006" y1="84.6172" x2="148.001" y2="148" gradientUnits="userSpaceOnUse">
<stop stop-color="#FF8E3D"/>
<stop offset="1" stop-color="#FF6F3D"/>
</linearGradient>
<linearGradient id="paint2_linear_125_7030" x1="115.187" y1="93.4445" x2="117.476" y2="97.8984" gradientUnits="userSpaceOnUse">
<stop stop-color="#FFC671"/>
<stop offset="1" stop-color="#FF6F3D"/>
</linearGradient>
<linearGradient id="paint3_linear_125_7030" x1="117.793" y1="128.818" x2="119.481" y2="131.391" gradientUnits="userSpaceOnUse">
<stop stop-color="#FFC671"/>
<stop offset="1" stop-color="#FF6F3D"/>
</linearGradient>
<clipPath id="clip0_125_7030">
<rect width="150" height="150" fill="white"/>
</clipPath>
</defs>
</svg>
