<svg width="135" height="135" viewBox="0 0 135 135" fill="none" xmlns="http://www.w3.org/2000/svg">
<path fill-rule="evenodd" clip-rule="evenodd" d="M16.1054 13H119.895C123.8 13 127 16.5927 127 20.9773V113.023C127 117.407 123.8 121 119.895 121H16.1054C12.1999 121 9 117.407 9 113.023V20.9773C9.00994 16.5927 12.1999 13 16.1054 13Z" fill="#FEFEFE"/>
<path d="M16.1054 13C12.1999 13 9.00994 16.5927 9 20.9773V113.023C9 117.407 12.1999 121 16.1054 121M56.4726 13H68H119.895C123.8 13 127 16.5927 127 20.9773V113.023C127 117.407 123.8 121 119.895 121H68H56.4726" stroke="#333333" stroke-linecap="round" stroke-linejoin="round"/>
<path fill-rule="evenodd" clip-rule="evenodd" d="M31 1H42C48.0555 1 53 5.91636 53 11.9153V123.085C53 129.094 48.0455 134 42 134H31C24.9445 134 20 129.084 20 123.085V11.9252C20 5.91636 24.9545 1 31 1Z" fill="#EFEFEF"/>
<path fill-rule="evenodd" clip-rule="evenodd" d="M42 2H31C25.5001 2 21 6.47533 21 11.9252V123.085C21 128.525 25.4901 133 31 133H42C47.5011 133 52 128.533 52 123.085V11.9153C52 6.47533 47.5099 2 42 2ZM42 1H31C24.9545 1 20 5.91636 20 11.9252V123.085C20 129.084 24.9445 134 31 134H42C48.0455 134 53 129.094 53 123.085V11.9153C53 5.91636 48.0555 1 42 1Z" fill="#333333"/>
<path fill-rule="evenodd" clip-rule="evenodd" d="M67.1253 24H110.875C113.145 24 115 25.8594 115 28.1343V38.8657C115 41.1406 113.145 43 110.875 43H67.1253C64.8554 43 63 41.1406 63 38.8657V28.1343C63 25.8594 64.8554 24 67.1253 24Z" fill="#BDECFF"/>
<path fill-rule="evenodd" clip-rule="evenodd" d="M67.1253 23H110.875C113.699 23 116 25.3092 116 28.1343V38.8657C116 41.6908 113.699 44 110.875 44H67.1253C64.301 44 62 41.6908 62 38.8657V28.1343C62 25.3092 64.301 23 67.1253 23ZM110.875 24H67.1253C64.8554 24 63 25.8594 63 28.1343V38.8657C63 41.1406 64.8554 43 67.1253 43H110.875C113.145 43 115 41.1406 115 38.8657V28.1343C115 25.8594 113.145 24 110.875 24Z" fill="#333333"/>
<path fill-rule="evenodd" clip-rule="evenodd" d="M68.5 58C71.543 58 74 60.4682 74 63.5C74 66.543 71.5318 69 68.5 69C65.457 69 63 66.5318 63 63.5C63 60.4682 65.457 58 68.5 58Z" fill="#BDECFF"/>
<path fill-rule="evenodd" clip-rule="evenodd" d="M68.5101 58C70.0295 58 71.3969 58.6179 72.3895 59.6105C73.3821 60.6031 74 61.9807 74 63.5C74 65.0193 73.3821 66.3969 72.3895 67.3895C71.3969 68.3821 70.0193 69 68.5 69C66.9807 69 65.6133 68.3821 64.6105 67.3895C63.6179 66.3969 63 65.0193 63 63.5C63 61.9807 63.6179 60.6133 64.6105 59.6105C65.6234 58.6179 66.9908 58 68.5101 58ZM71.6197 60.3904C70.8296 59.6004 69.7256 59.1041 68.5101 59.1041C67.2947 59.1041 66.2007 59.5902 65.4006 60.3904C64.6105 61.1805 64.1142 62.2845 64.1142 63.5C64.1142 64.7155 64.6105 65.8195 65.4006 66.6096C66.2007 67.3996 67.2947 67.8959 68.5101 67.8959C69.7256 67.8959 70.8195 67.4098 71.6197 66.6096C72.4199 65.8094 72.9061 64.7155 72.9061 63.5C72.9061 62.2744 72.4098 61.1805 71.6197 60.3904Z" fill="#333333"/>
<path fill-rule="evenodd" clip-rule="evenodd" d="M57.905 52H118.094C119.302 52 119.302 53 118.094 53H57.8851C56.7066 53 56.6967 52 57.905 52Z" fill="#333333"/>
<path fill-rule="evenodd" clip-rule="evenodd" d="M90.5 58C93.543 58 96 60.4682 96 63.5C96 66.543 93.5318 69 90.5 69C87.457 69 85 66.5318 85 63.5C85 60.4682 87.457 58 90.5 58Z" fill="#BDECFF"/>
<path fill-rule="evenodd" clip-rule="evenodd" d="M90.5 58C92.0193 58 93.3867 58.6184 94.3895 59.612C95.3821 60.6055 96 61.9843 96 63.5051C96 65.0258 95.3821 66.3945 94.3895 67.388C93.3969 68.3816 92.0193 69 90.5 69C88.9807 69 87.6031 68.3816 86.6105 67.388C85.6179 66.3945 85 65.0157 85 63.4949C85 61.9742 85.6179 60.6055 86.6105 59.6018C87.6031 58.6184 88.9807 58 90.5 58ZM93.6096 60.3926C92.8094 59.6018 91.7155 59.1051 90.5 59.1051C89.2845 59.1051 88.1906 59.5917 87.3904 60.3926C86.5902 61.1834 86.1041 62.2885 86.1041 63.5051C86.1041 64.7217 86.6004 65.8166 87.3904 66.6175C88.1805 67.4083 89.2845 67.9051 90.5 67.9051C91.7155 67.9051 92.8094 67.4083 93.6096 66.6175C94.3996 65.8267 94.896 64.7217 94.896 63.5051C94.896 62.2885 94.3996 61.1834 93.6096 60.3926Z" fill="#333333"/>
<path fill-rule="evenodd" clip-rule="evenodd" d="M113.5 58C116.543 58 119 60.4682 119 63.5C119 66.543 116.532 69 113.5 69C110.457 69 108 66.5318 108 63.5C108 60.4682 110.457 58 113.5 58Z" fill="url(#paint0_linear_125_1993)"/>
<path fill-rule="evenodd" clip-rule="evenodd" d="M68.5051 77C70.0258 77 71.3945 77.6179 72.388 78.6105C73.3816 79.6031 74 80.9807 74 82.5C74 84.0193 73.3816 85.3969 72.388 86.3895C71.3945 87.3821 70.0157 88 68.4949 88C66.9742 88 65.6055 87.3821 64.612 86.3895C63.6184 85.3969 63 84.0193 63 82.5C63 80.9807 63.6184 79.6133 64.612 78.6105C65.6157 77.6077 66.9843 77 68.5051 77ZM71.6175 79.3803C70.8267 78.5902 69.7217 78.0939 68.5051 78.0939C67.2885 78.0939 66.1936 78.5801 65.3926 79.3803C64.5917 80.1703 64.1051 81.2744 64.1051 82.4899C64.1051 83.7053 64.6018 84.8094 65.3926 85.5995C66.1936 86.3996 67.2885 86.8858 68.5051 86.8858C69.7217 86.8858 70.8166 86.3895 71.6175 85.5995C72.4083 84.8094 72.9051 83.7053 72.9051 82.4899C72.9051 81.2744 72.4083 80.1805 71.6175 79.3803Z" fill="#333333"/>
<path fill-rule="evenodd" clip-rule="evenodd" d="M90.5051 77C92.0258 77 93.3945 77.6179 94.388 78.6105C95.3816 79.6031 96 80.9807 96 82.5C96 84.0193 95.3816 85.3969 94.388 86.3895C93.3945 87.3821 92.0157 88 90.4949 88C88.9742 88 87.6055 87.3821 86.612 86.3895C85.6184 85.3969 85 84.0193 85 82.5C85 80.9807 85.6184 79.6133 86.612 78.6105C87.6055 77.6077 88.9843 77 90.5051 77ZM93.6175 79.3803C92.8166 78.5902 91.7217 78.0939 90.5051 78.0939C89.2885 78.0939 88.1935 78.5801 87.3926 79.3803C86.6018 80.1703 86.1051 81.2744 86.1051 82.4899C86.1051 83.7053 86.5917 84.8094 87.3926 85.5995C88.1935 86.3996 89.2885 86.8858 90.5051 86.8858C91.7217 86.8858 92.8166 86.3895 93.6175 85.5995C94.4184 84.8094 94.9051 83.7053 94.9051 82.4899C94.9051 81.2744 94.4083 80.1805 93.6175 79.3803Z" fill="#333333"/>
<path fill-rule="evenodd" clip-rule="evenodd" d="M113.5 77C115.019 77 116.387 77.6179 117.389 78.6105C118.382 79.6031 119 80.9807 119 82.5C119 84.0193 118.382 85.3969 117.389 86.3895C116.397 87.3821 115.019 88 113.5 88C111.981 88 110.603 87.3821 109.611 86.3895C108.618 85.3969 108 84.0193 108 82.5C108 80.9807 108.618 79.6133 109.611 78.6105C110.603 77.6077 111.981 77 113.5 77ZM116.61 79.3803C115.82 78.5801 114.715 78.0939 113.5 78.0939C112.285 78.0939 111.18 78.5801 110.39 79.3803C109.6 80.1805 109.104 81.2744 109.104 82.4899C109.104 83.7053 109.6 84.7993 110.39 85.5995C111.191 86.3895 112.285 86.8858 113.5 86.8858C114.715 86.8858 115.82 86.3996 116.61 85.5995C117.41 84.7993 117.896 83.7053 117.896 82.4899C117.896 81.2744 117.4 80.1805 116.61 79.3803Z" fill="#333333"/>
<path fill-rule="evenodd" clip-rule="evenodd" d="M68.5 95C70.0193 95 71.3867 95.6179 72.3895 96.6105C73.3821 97.6031 74 98.9807 74 100.5C74 102.019 73.3821 103.387 72.3895 104.389C71.3969 105.382 70.0193 106 68.5 106C66.9807 106 65.6133 105.382 64.6105 104.389C63.6179 103.397 63 102.019 63 100.5C63 98.9807 63.6179 97.6031 64.6105 96.6105C65.6133 95.6077 66.9807 95 68.5 95ZM71.6096 97.3803C70.8094 96.5902 69.7155 96.0939 68.5 96.0939C67.2845 96.0939 66.1906 96.5902 65.3904 97.3803C64.5902 98.1805 64.1041 99.2744 64.1041 100.49C64.1041 101.705 64.6004 102.799 65.3904 103.599C66.1805 104.4 67.2845 104.886 68.5 104.886C69.7155 104.886 70.8195 104.39 71.6096 103.599C72.4098 102.799 72.8959 101.705 72.8959 100.49C72.8959 99.2744 72.3996 98.1703 71.6096 97.3803Z" fill="#333333"/>
<path fill-rule="evenodd" clip-rule="evenodd" d="M90.5 95C92.0193 95 93.3867 95.6179 94.3895 96.6105C95.3821 97.6031 96 98.9807 96 100.5C96 102.019 95.3821 103.387 94.3895 104.389C93.3969 105.382 92.0193 106 90.5 106C88.9807 106 87.6031 105.382 86.6105 104.389C85.6179 103.397 85 102.019 85 100.5C85 98.9807 85.6179 97.6031 86.6105 96.6105C87.6031 95.6077 88.9807 95 90.5 95ZM93.6096 97.3803C92.8094 96.5902 91.7155 96.0939 90.5 96.0939C89.2845 96.0939 88.1906 96.5902 87.3904 97.3803C86.6004 98.1805 86.1041 99.2744 86.1041 100.49C86.1041 101.705 86.6004 102.799 87.3904 103.599C88.1906 104.4 89.2845 104.886 90.5 104.886C91.7155 104.886 92.8094 104.39 93.6096 103.599C94.3996 102.799 94.896 101.705 94.896 100.49C94.896 99.2744 94.3996 98.1703 93.6096 97.3803Z" fill="#333333"/>
<path fill-rule="evenodd" clip-rule="evenodd" d="M113.5 95C115.019 95 116.387 95.6179 117.389 96.6105C118.382 97.6031 119 98.9807 119 100.5C119 102.019 118.382 103.387 117.389 104.389C116.397 105.382 115.019 106 113.5 106C111.981 106 110.613 105.382 109.61 104.389C108.618 103.397 108 102.019 108 100.5C108 98.9807 108.618 97.6133 109.61 96.6206C110.603 95.6077 111.981 95 113.5 95ZM116.61 97.3803C115.82 96.5902 114.715 96.0939 113.5 96.0939C112.285 96.0939 111.191 96.5902 110.39 97.3803C109.6 98.1703 109.104 99.2744 109.104 100.49C109.104 101.705 109.6 102.799 110.39 103.599C111.18 104.4 112.285 104.886 113.5 104.886C114.715 104.886 115.809 104.39 116.61 103.599C117.41 102.809 117.896 101.705 117.896 100.49C117.896 99.2744 117.4 98.1805 116.61 97.3803Z" fill="#333333"/>
<path fill-rule="evenodd" clip-rule="evenodd" d="M68.3633 39.4082V28.5288H69.8026V39.4082H68.3633ZM72.3438 39.4082V28.5288H76.4534C77.178 28.5288 77.7239 28.5685 78.1111 28.6281C78.6471 28.7174 79.0938 28.8862 79.4611 29.1343C79.8184 29.3825 80.1162 29.7299 80.3346 30.1865C80.553 30.6332 80.6622 31.1295 80.6622 31.6656C80.6622 32.5887 80.3644 33.3729 79.7787 34.0082C79.1931 34.6534 78.121 34.9711 76.5824 34.9711H73.7931V39.4082H72.3438V39.4082ZM73.7931 33.6906H76.6022C77.5353 33.6906 78.1905 33.5218 78.5875 33.1744C78.9747 32.827 79.1732 32.3406 79.1732 31.7152C79.1732 31.2586 79.064 30.8715 78.8258 30.5439C78.5975 30.2163 78.2897 30.0079 77.9125 29.8987C77.6743 29.8391 77.2177 29.7994 76.5725 29.7994H73.7931V33.6906V33.6906Z" fill="#333333"/>
<defs>
<linearGradient id="paint0_linear_125_1993" x1="107.829" y1="57.2617" x2="114.352" y2="64.4466" gradientUnits="userSpaceOnUse">
<stop stop-color="#FFC671"/>
<stop offset="1" stop-color="#FF6F3D"/>
</linearGradient>
</defs>
</svg>
