<svg width="150" height="150" viewBox="0 0 150 150" fill="none" xmlns="http://www.w3.org/2000/svg">
<g clip-path="url(#clip0_125_9518)">
<path fill-rule="evenodd" clip-rule="evenodd" d="M119 5C119 2.79086 117.209 1 115 1H25.8587C25.5912 1 25.3349 1.10716 25.147 1.29753L4.28829 22.4306C4.10357 22.6178 4 22.8702 4 23.1331V139C4 141.209 5.79086 143 8 143H115C117.209 143 119 141.209 119 139V5Z" fill="white"/>
<path fill-rule="evenodd" clip-rule="evenodd" d="M24 96C25.6569 96 27 97.3572 27 99.0314V117.969C27 119.643 25.6569 121 24 121C22.3431 121 21 119.643 21 117.969V99.0314C21 97.3572 22.3431 96 24 96Z" fill="url(#paint0_linear_125_9518)"/>
<path fill-rule="evenodd" clip-rule="evenodd" d="M69 91C67.3431 91 66 92.3498 66 94.0149V117.985C66 119.65 67.3431 121 69 121C70.6569 121 72 119.65 72 117.985V94.0149C72 92.3498 70.6569 91 69 91Z" fill="url(#paint1_linear_125_9518)"/>
<path fill-rule="evenodd" clip-rule="evenodd" d="M54 80C52.3431 80 51 81.3597 51 83.037V117.963C51 119.64 52.3431 121 54 121C55.6569 121 57 119.64 57 117.963V83.037C57 81.3597 55.6569 80 54 80Z" fill="url(#paint2_linear_125_9518)"/>
<path fill-rule="evenodd" clip-rule="evenodd" d="M39 92C40.6569 92 42 93.3431 42 95V118C42 119.657 40.6569 121 39 121C37.3431 121 36 119.657 36 118V95C36 93.3431 37.3431 92 39 92Z" fill="url(#paint3_linear_125_9518)"/>
<path fill-rule="evenodd" clip-rule="evenodd" d="M120 4.5C120 2.01472 117.985 0 115.5 0L26.4142 0C26.0164 0 25.6349 0.158035 25.3536 0.43934L3.43934 22.3536C3.15803 22.6349 3 23.0164 3 23.4142L3 138.5C3 140.985 5.01472 144 7.5 144H54.5C54.7761 144 55 143.776 55 143.5C55 143.224 54.7761 143 54.5 143H7.5C5.56701 143 4 140.433 4 138.5L4 23.4142C4 23.2816 4.05268 23.1544 4.14645 23.0607L26.0607 1.14645C26.1544 1.05268 26.2816 1 26.4142 1L115.5 1C117.433 1 119 2.567 119 4.5V51.25C119 51.5261 119.224 51.75 119.5 51.75C119.776 51.75 120 51.5261 120 51.25V4.5Z" fill="#333333"/>
<path fill-rule="evenodd" clip-rule="evenodd" d="M26 1L4 23H23C24.6569 23 26 21.6569 26 20V1Z" fill="url(#paint4_linear_125_9518)"/>
<path fill-rule="evenodd" clip-rule="evenodd" d="M26.3827 0.0761497C26.009 -0.0786313 25.5789 0.00692445 25.2929 0.292922L3.29289 22.2929C3.0069 22.5789 2.92134 23.009 3.07612 23.3827C3.2309 23.7564 3.59554 24 4 24H23C25.2091 24 27 22.2092 27 20V1.00003C27 0.595567 26.7564 0.230931 26.3827 0.0761497ZM26 1.00003V20C26 21.6569 24.6569 23 23 23H4L26 1.00003Z" fill="#333333"/>
<path fill-rule="evenodd" clip-rule="evenodd" d="M92 35.5039C92 35.2278 91.7753 35.0039 91.498 35.0039H33.502C33.2247 35.0039 33 35.2278 33 35.5039C33 35.78 33.2247 36.0039 33.502 36.0039H91.498C91.7753 36.0039 92 35.78 92 35.5039Z" fill="#333333"/>
<path fill-rule="evenodd" clip-rule="evenodd" d="M92 42.5039C92 42.2278 91.7761 42.0039 91.5 42.0039H21.5039C21.2278 42.0039 21.0039 42.2278 21.0039 42.5039C21.0039 42.78 21.2278 43.0039 21.5039 43.0039H91.5C91.7761 43.0039 92 42.78 92 42.5039Z" fill="#333333"/>
<path fill-rule="evenodd" clip-rule="evenodd" d="M63 62.5C63 62.2239 62.7757 62 62.4991 62H21.5009C21.2243 62 21 62.2239 21 62.5C21 62.7761 21.2243 63 21.5009 63H62.4991C62.7757 63 63 62.7761 63 62.5Z" fill="#333333"/>
<path fill-rule="evenodd" clip-rule="evenodd" d="M79 55.5C79 55.2239 78.7733 55 78.4938 55H21.5063C21.2267 55 21 55.2239 21 55.5C21 55.7761 21.2267 56 21.5063 56H78.4938C78.7733 56 79 55.7761 79 55.5Z" fill="#333333"/>
<path fill-rule="evenodd" clip-rule="evenodd" d="M93 21C93 20.4477 92.5523 20 92 20H52C51.4477 20 51 20.4477 51 21C51 21.5523 51.4477 22 52 22H92C92.5523 22 93 21.5523 93 21Z" fill="url(#paint5_linear_125_9518)"/>
<path d="M88 81C88 78.7909 89.7909 77 92 77H135C137.209 77 139 78.7909 139 81V145C139 147.209 137.209 149 135 149H92C89.7909 149 88 147.209 88 145V81Z" fill="white"/>
<path fill-rule="evenodd" clip-rule="evenodd" d="M92 76H135C137.761 76 140 78.2386 140 81V145C140 147.761 137.761 150 135 150H92C89.2386 150 87 147.761 87 145V81C87 78.2386 89.2386 76 92 76ZM92 77C89.7909 77 88 78.7909 88 81V145C88 147.209 89.7909 149 92 149H135C137.209 149 139 147.209 139 145V81C139 78.7909 137.209 77 135 77H92Z" fill="#333333"/>
<path d="M88 81C88 78.7909 89.7909 77 92 77H135C137.209 77 139 78.7909 139 81V102H88V81Z" fill="#EFEFEF"/>
<path fill-rule="evenodd" clip-rule="evenodd" d="M140 103H87V81C87 78.2386 89.2386 76 92 76H135C137.761 76 140 78.2386 140 81V103ZM92 77C89.7909 77 88 78.7909 88 81V102H139V81C139 78.7909 137.209 77 135 77H92Z" fill="#333333"/>
<path d="M94 85C94 83.8954 94.8954 83 96 83H131C132.105 83 133 83.8954 133 85V94C133 95.1046 132.105 96 131 96H96C94.8954 96 94 95.1046 94 94V85Z" fill="#BDECFF"/>
<path fill-rule="evenodd" clip-rule="evenodd" d="M96 82H131C132.657 82 134 83.3431 134 85V94C134 95.6569 132.657 97 131 97H96C94.3431 97 93 95.6569 93 94V85C93 83.3431 94.3431 82 96 82ZM96 83C94.8954 83 94 83.8954 94 85V94C94 95.1046 94.8954 96 96 96H131C132.105 96 133 95.1046 133 94V85C133 83.8954 132.105 83 131 83H96Z" fill="#333333"/>
<path d="M93 110C93 109.448 93.4477 109 94 109H102C102.552 109 103 109.448 103 110V116C103 116.552 102.552 117 102 117H94C93.4477 117 93 116.552 93 116V110Z" fill="#EFEFEF"/>
<path fill-rule="evenodd" clip-rule="evenodd" d="M94 108H102C103.105 108 104 108.895 104 110V116C104 117.105 103.105 118 102 118H94C92.8954 118 92 117.105 92 116V110C92 108.895 92.8954 108 94 108ZM94 109C93.4477 109 93 109.448 93 110V116C93 116.552 93.4477 117 94 117H102C102.552 117 103 116.552 103 116V110C103 109.448 102.552 109 102 109H94Z" fill="#333333"/>
<path d="M93 123C93 122.448 93.4477 122 94 122H102C102.552 122 103 122.448 103 123V129C103 129.552 102.552 130 102 130H94C93.4477 130 93 129.552 93 129V123Z" fill="#EFEFEF"/>
<path fill-rule="evenodd" clip-rule="evenodd" d="M94 121H102C103.105 121 104 121.895 104 123V129C104 130.105 103.105 131 102 131H94C92.8954 131 92 130.105 92 129V123C92 121.895 92.8954 121 94 121ZM94 122C93.4477 122 93 122.448 93 123V129C93 129.552 93.4477 130 94 130H102C102.552 130 103 129.552 103 129V123C103 122.448 102.552 122 102 122H94Z" fill="#333333"/>
<path d="M93 136C93 135.448 93.4477 135 94 135H102C102.552 135 103 135.448 103 136V142C103 142.552 102.552 143 102 143H94C93.4477 143 93 142.552 93 142V136Z" fill="#EFEFEF"/>
<path fill-rule="evenodd" clip-rule="evenodd" d="M94 134H102C103.105 134 104 134.895 104 136V142C104 143.105 103.105 144 102 144H94C92.8954 144 92 143.105 92 142V136C92 134.895 92.8954 134 94 134ZM94 135C93.4477 135 93 135.448 93 136V142C93 142.552 93.4477 143 94 143H102C102.552 143 103 142.552 103 142V136C103 135.448 102.552 135 102 135H94Z" fill="#333333"/>
<path d="M108 110C108 109.448 108.448 109 109 109H117C117.552 109 118 109.448 118 110V116C118 116.552 117.552 117 117 117H109C108.448 117 108 116.552 108 116V110Z" fill="#EFEFEF"/>
<path fill-rule="evenodd" clip-rule="evenodd" d="M109 108H117C118.105 108 119 108.895 119 110V116C119 117.105 118.105 118 117 118H109C107.895 118 107 117.105 107 116V110C107 108.895 107.895 108 109 108ZM109 109C108.448 109 108 109.448 108 110V116C108 116.552 108.448 117 109 117H117C117.552 117 118 116.552 118 116V110C118 109.448 117.552 109 117 109H109Z" fill="#333333"/>
<path d="M108 123C108 122.448 108.448 122 109 122H117C117.552 122 118 122.448 118 123V129C118 129.552 117.552 130 117 130H109C108.448 130 108 129.552 108 129V123Z" fill="#EFEFEF"/>
<path fill-rule="evenodd" clip-rule="evenodd" d="M109 121H117C118.105 121 119 121.895 119 123V129C119 130.105 118.105 131 117 131H109C107.895 131 107 130.105 107 129V123C107 121.895 107.895 121 109 121ZM109 122C108.448 122 108 122.448 108 123V129C108 129.552 108.448 130 109 130H117C117.552 130 118 129.552 118 129V123C118 122.448 117.552 122 117 122H109Z" fill="#333333"/>
<path d="M108 136C108 135.448 108.448 135 109 135H117C117.552 135 118 135.448 118 136V142C118 142.552 117.552 143 117 143H109C108.448 143 108 142.552 108 142V136Z" fill="#EFEFEF"/>
<path fill-rule="evenodd" clip-rule="evenodd" d="M109 134H117C118.105 134 119 134.895 119 136V142C119 143.105 118.105 144 117 144H109C107.895 144 107 143.105 107 142V136C107 134.895 107.895 134 109 134ZM109 135C108.448 135 108 135.448 108 136V142C108 142.552 108.448 143 109 143H117C117.552 143 118 142.552 118 142V136C118 135.448 117.552 135 117 135H109Z" fill="#333333"/>
<path d="M123 110C123 109.448 123.448 109 124 109H132C132.552 109 133 109.448 133 110V116C133 116.552 132.552 117 132 117H124C123.448 117 123 116.552 123 116V110Z" fill="url(#paint6_linear_125_9518)"/>
<path fill-rule="evenodd" clip-rule="evenodd" d="M124 108H132C133.105 108 134 108.895 134 110V116C134 117.105 133.105 118 132 118H124C122.895 118 122 117.105 122 116V110C122 108.895 122.895 108 124 108ZM124 109C123.448 109 123 109.448 123 110V116C123 116.552 123.448 117 124 117H132C132.552 117 133 116.552 133 116V110C133 109.448 132.552 109 132 109H124Z" fill="#333333"/>
<path d="M123 123C123 122.448 123.448 122 124 122H132C132.552 122 133 122.448 133 123V129C133 129.552 132.552 130 132 130H124C123.448 130 123 129.552 123 129V123Z" fill="#EFEFEF"/>
<path fill-rule="evenodd" clip-rule="evenodd" d="M124 121H132C133.105 121 134 121.895 134 123V129C134 130.105 133.105 131 132 131H124C122.895 131 122 130.105 122 129V123C122 121.895 122.895 121 124 121ZM124 122C123.448 122 123 122.448 123 123V129C123 129.552 123.448 130 124 130H132C132.552 130 133 129.552 133 129V123C133 122.448 132.552 122 132 122H124Z" fill="#333333"/>
<path d="M123 136C123 135.448 123.448 135 124 135H132C132.552 135 133 135.448 133 136V142C133 142.552 132.552 143 132 143H124C123.448 143 123 142.552 123 142V136Z" fill="#EFEFEF"/>
<path fill-rule="evenodd" clip-rule="evenodd" d="M124 134H132C133.105 134 134 134.895 134 136V142C134 143.105 133.105 144 132 144H124C122.895 144 122 143.105 122 142V136C122 134.895 122.895 134 124 134ZM124 135C123.448 135 123 135.448 123 136V142C123 142.552 123.448 143 124 143H132C132.552 143 133 142.552 133 142V136C133 135.448 132.552 135 132 135H124Z" fill="#333333"/>
<path d="M107.266 89.9078C107.514 90.0419 107.704 90.2067 107.837 90.4022C107.976 90.5978 108.045 90.8017 108.045 91.014V91.3492C108.045 91.6732 107.958 91.9609 107.783 92.2123C107.607 92.4637 107.36 92.6592 107.04 92.7989C106.726 92.933 106.361 93 105.944 93H105.065C104.419 93 103.912 92.8296 103.543 92.4888C103.181 92.148 103 91.6732 103 91.0642H104.232C104.232 91.3547 104.304 91.581 104.449 91.743C104.594 91.8994 104.8 91.9777 105.065 91.9777H105.944C106.197 91.9777 106.403 91.9218 106.56 91.8101C106.717 91.6927 106.795 91.5391 106.795 91.3492V91.014C106.795 90.8408 106.714 90.7011 106.551 90.595C106.388 90.4888 106.176 90.4358 105.917 90.4358H104.757V89.4302H105.917C106.146 89.4302 106.33 89.3799 106.469 89.2793C106.608 89.1732 106.678 89.0363 106.678 88.8687V88.5335C106.678 88.3771 106.611 88.2542 106.478 88.1648C106.345 88.0698 106.173 88.0223 105.962 88.0223H105.083C104.836 88.0223 104.643 88.1034 104.504 88.2654C104.371 88.4218 104.304 88.6453 104.304 88.9358H103.045C103.045 88.3268 103.223 87.852 103.58 87.5112C103.942 87.1704 104.443 87 105.083 87H105.962C106.348 87 106.69 87.0642 106.986 87.1927C107.287 87.3212 107.52 87.5028 107.683 87.7374C107.846 87.9665 107.928 88.2318 107.928 88.5335V88.8687C107.928 89.0754 107.87 89.2682 107.755 89.4469C107.641 89.6257 107.478 89.7793 107.266 89.9078Z" fill="#333333"/>
<path d="M111.109 93C110.686 93 110.311 92.9162 109.985 92.7486C109.659 92.5754 109.406 92.3324 109.225 92.0196C109.043 91.7067 108.953 91.3464 108.953 90.9385V89.0615C108.953 88.6536 109.04 88.2933 109.215 87.9804C109.397 87.6676 109.65 87.4274 109.976 87.2598C110.302 87.0866 110.68 87 111.109 87H112.069C112.485 87 112.854 87.0866 113.174 87.2598C113.494 87.4274 113.741 87.6676 113.917 87.9804C114.098 88.2933 114.188 88.6536 114.188 89.0615V90.9385C114.188 91.3464 114.101 91.7067 113.926 92.0196C113.751 92.3324 113.503 92.5754 113.183 92.7486C112.863 92.9162 112.491 93 112.069 93H111.109ZM112.051 91.9777C112.316 91.9777 112.528 91.8855 112.685 91.7011C112.848 91.5112 112.929 91.2626 112.929 90.9553V89.0447C112.929 88.7374 112.848 88.4916 112.685 88.3073C112.528 88.1173 112.316 88.0223 112.051 88.0223H111.127C110.849 88.0223 110.626 88.1173 110.456 88.3073C110.287 88.4916 110.203 88.7374 110.203 89.0447V90.9553C110.203 91.2626 110.287 91.5112 110.456 91.7011C110.626 91.8855 110.849 91.9777 111.127 91.9777H112.051Z" fill="#333333"/>
<path d="M116.795 90.7123H115.147V89.7235H116.795V88.1983H118.027V89.7235H119.676V90.7123H118.027V92.2374H116.795V90.7123Z" fill="#333333"/>
<path d="M120.502 92.095C120.502 91.7598 120.568 91.4693 120.701 91.2235C120.834 90.9777 121.06 90.7654 121.38 90.5866L123.627 89.3464C123.735 89.2905 123.82 89.2123 123.88 89.1117C123.947 89.0112 123.98 88.9106 123.98 88.8101V88.5419C123.98 88.3855 123.917 88.2598 123.79 88.1648C123.669 88.0698 123.509 88.0223 123.31 88.0223H122.476C122.241 88.0223 122.057 88.1034 121.924 88.2654C121.791 88.4218 121.725 88.6453 121.725 88.9358H120.475C120.475 88.3268 120.65 87.852 121 87.5112C121.35 87.1704 121.836 87 122.458 87H123.31C123.69 87 124.025 87.0642 124.315 87.1927C124.605 87.3212 124.828 87.5028 124.985 87.7374C125.148 87.9721 125.23 88.2402 125.23 88.5419V88.8101C125.23 89.1117 125.161 89.3715 125.022 89.5894C124.889 89.8017 124.677 89.986 124.388 90.1425L122.205 91.3156C122.06 91.3939 121.948 91.4804 121.869 91.5754C121.797 91.6704 121.761 91.7877 121.761 91.9274H125.266V92.933H120.502V92.095Z" fill="#333333"/>
<path d="M128.002 93C127.374 93 126.885 92.8352 126.534 92.5056C126.184 92.176 126.009 91.7179 126.009 91.1313H127.241C127.241 91.3939 127.307 91.6006 127.44 91.7514C127.573 91.9022 127.76 91.9777 128.002 91.9777H128.871C129.137 91.9777 129.348 91.9106 129.505 91.7765C129.668 91.6425 129.75 91.4637 129.75 91.2402V90.7877C129.75 90.5922 129.665 90.433 129.496 90.3101C129.333 90.1872 129.116 90.1257 128.844 90.1257H126.226V87.067H130.764V88.0894H127.476V89.1034H128.844C129.273 89.1034 129.65 89.1732 129.976 89.3128C130.303 89.4525 130.553 89.6508 130.728 89.9078C130.909 90.1592 131 90.4525 131 90.7877V91.2402C131 91.5866 130.909 91.8939 130.728 92.162C130.553 92.4302 130.306 92.6369 129.986 92.7821C129.665 92.9274 129.294 93 128.871 93H128.002Z" fill="#333333"/>
<path fill-rule="evenodd" clip-rule="evenodd" d="M64.9684 135H80.0317C80.5708 135 81 135.367 81 135.81V138.19C81 138.641 80.5608 139 80.0317 139H64.9684C64.4294 139 64.0002 138.633 64.0002 138.19V135.81C63.9902 135.367 64.4294 135 64.9684 135Z" fill="url(#paint7_linear_125_9518)"/>
<path fill-rule="evenodd" clip-rule="evenodd" d="M64.9685 134H80.0318C80.9557 134 82.0001 134.661 82.0001 135.81V138.19C82.0001 139.359 80.9314 140 80.0318 140H64.9685C64.0446 140 63.0002 139.339 63.0002 138.19V135.819C62.982 134.643 64.0715 134 64.9685 134ZM64.0002 135.81V138.19C64.0002 138.633 64.4295 139 64.9685 139H80.0318C80.5608 139 81.0001 138.641 81.0001 138.19V135.81C81.0001 135.367 80.5708 135 80.0318 135H64.9685C64.4295 135 63.9902 135.367 64.0002 135.81Z" fill="#333333"/>
<path fill-rule="evenodd" clip-rule="evenodd" d="M61.9677 140H77.0323C77.561 140 78 140.367 78 140.81V143.19C78 143.641 77.561 144 77.0323 144H61.9677C61.439 144 61 143.633 61 143.19V140.81C61 140.367 61.439 140 61.9677 140Z" fill="url(#paint8_linear_125_9518)"/>
<path fill-rule="evenodd" clip-rule="evenodd" d="M61.9677 139H77.0323C77.9393 139 79 139.656 79 140.81V143.19C79 144.358 77.9322 145 77.0323 145H61.9677C61.0607 145 60 144.344 60 143.19V140.81C60 139.656 61.0607 139 61.9677 139ZM77.0323 140H61.9677C61.439 140 61 140.367 61 140.81V143.19C61 143.633 61.439 144 61.9677 144H77.0323C77.561 144 78 143.641 78 143.19V140.81C78 140.367 77.561 140 77.0323 140Z" fill="#333333"/>
<path fill-rule="evenodd" clip-rule="evenodd" d="M61.9677 130H77.0323C77.561 130 78 130.367 78 130.81V133.19C78 133.641 77.561 134 77.0323 134H61.9677C61.439 134 61 133.633 61 133.19V130.81C61 130.367 61.439 130 61.9677 130Z" fill="url(#paint9_linear_125_9518)"/>
<path fill-rule="evenodd" clip-rule="evenodd" d="M61.9677 129H77.0323C77.9393 129 79 129.656 79 130.81V133.19C79 134.358 77.9322 135 77.0323 135H61.9677C61.0607 135 60 134.344 60 133.19V130.81C60 129.656 61.0607 129 61.9677 129ZM77.0323 130H61.9677C61.439 130 61 130.367 61 130.81V133.19C61 133.633 61.439 134 61.9677 134H77.0323C77.561 134 78 133.641 78 133.19V130.81C78 130.367 77.561 130 77.0323 130Z" fill="#333333"/>
<path fill-rule="evenodd" clip-rule="evenodd" d="M65.9683 145H81.0317C81.5608 145 82 145.367 82 145.81V148.19C82 148.633 81.5608 149 81.0317 149H65.9683C65.4292 149 65 148.633 65 148.19V145.81C65 145.367 65.4392 145 65.9683 145Z" fill="url(#paint10_linear_125_9518)"/>
<path fill-rule="evenodd" clip-rule="evenodd" d="M65.9683 144H81.0317C81.9385 144 83 144.655 83 145.81V148.19C83 149.345 81.9385 150 81.0317 150H65.9683C65.0444 150 64 149.339 64 148.19V145.81C64 144.655 65.0615 144 65.9683 144ZM81.0317 145H65.9683C65.4392 145 65 145.367 65 145.81V148.19C65 148.633 65.4292 149 65.9683 149H81.0317C81.5608 149 82 148.633 82 148.19V145.81C82 145.367 81.5608 145 81.0317 145Z" fill="#333333"/>
</g>
<defs>
<linearGradient id="paint0_linear_125_9518" x1="24" y1="99.0314" x2="24" y2="119.021" gradientUnits="userSpaceOnUse">
<stop stop-color="#FFC671"/>
<stop offset="0.59375" stop-color="#FF7541"/>
<stop offset="1" stop-color="#FF6F3D"/>
</linearGradient>
<linearGradient id="paint1_linear_125_9518" x1="69" y1="91.9305" x2="69" y2="119.027" gradientUnits="userSpaceOnUse">
<stop stop-color="#FFC671"/>
<stop offset="0.59375" stop-color="#FF7541"/>
<stop offset="1" stop-color="#FF6F3D"/>
</linearGradient>
<linearGradient id="paint2_linear_125_9518" x1="54" y1="74.4133" x2="54" y2="119.03" gradientUnits="userSpaceOnUse">
<stop stop-color="#FFC671"/>
<stop offset="0.59375" stop-color="#FF7541"/>
<stop offset="1" stop-color="#FF6F3D"/>
</linearGradient>
<linearGradient id="paint3_linear_125_9518" x1="39" y1="90.7407" x2="39" y2="119.045" gradientUnits="userSpaceOnUse">
<stop stop-color="#FFC671"/>
<stop offset="0.59375" stop-color="#FF7541"/>
<stop offset="1" stop-color="#FF6F3D"/>
</linearGradient>
<linearGradient id="paint4_linear_125_9518" x1="26" y1="0.140625" x2="3.99996" y2="23" gradientUnits="userSpaceOnUse">
<stop stop-color="#FF8E3D"/>
<stop offset="1" stop-color="#FF6F3D"/>
</linearGradient>
<linearGradient id="paint5_linear_125_9518" x1="92.9999" y1="19.9219" x2="92.8169" y2="23.9164" gradientUnits="userSpaceOnUse">
<stop stop-color="#FF8E3D"/>
<stop offset="1" stop-color="#FF6F3D"/>
</linearGradient>
<linearGradient id="paint6_linear_125_9518" x1="123" y1="108.687" x2="130.74" y2="118.74" gradientUnits="userSpaceOnUse">
<stop stop-color="#FFC671"/>
<stop offset="0.59375" stop-color="#FF7541"/>
<stop offset="1" stop-color="#FF6F3D"/>
</linearGradient>
<linearGradient id="paint7_linear_125_9518" x1="64" y1="134.844" x2="65.7245" y2="142.459" gradientUnits="userSpaceOnUse">
<stop stop-color="#FFC671"/>
<stop offset="0.59375" stop-color="#FF7541"/>
<stop offset="1" stop-color="#FF6F3D"/>
</linearGradient>
<linearGradient id="paint8_linear_125_9518" x1="61" y1="139.844" x2="62.7245" y2="147.459" gradientUnits="userSpaceOnUse">
<stop stop-color="#FFC671"/>
<stop offset="0.59375" stop-color="#FF7541"/>
<stop offset="1" stop-color="#FF6F3D"/>
</linearGradient>
<linearGradient id="paint9_linear_125_9518" x1="61" y1="129.844" x2="62.7245" y2="137.459" gradientUnits="userSpaceOnUse">
<stop stop-color="#FFC671"/>
<stop offset="0.59375" stop-color="#FF7541"/>
<stop offset="1" stop-color="#FF6F3D"/>
</linearGradient>
<linearGradient id="paint10_linear_125_9518" x1="65" y1="144.844" x2="66.7245" y2="152.459" gradientUnits="userSpaceOnUse">
<stop stop-color="#FFC671"/>
<stop offset="0.59375" stop-color="#FF7541"/>
<stop offset="1" stop-color="#FF6F3D"/>
</linearGradient>
<clipPath id="clip0_125_9518">
<rect width="150" height="150" fill="white"/>
</clipPath>
</defs>
</svg>
