<svg width="150" height="150" viewBox="0 0 150 150" fill="none" xmlns="http://www.w3.org/2000/svg">
<path fill-rule="evenodd" clip-rule="evenodd" d="M35.3067 1.00024H114.694C133.561 1.00024 149 16.4391 149 35.3067V114.694C149 133.561 133.561 149 114.694 149H35.3067C16.4391 149 1.00024 133.561 1.00024 114.694V35.3067C1.00024 16.4292 16.4292 1.00024 35.3067 1.00024Z" fill="#BDECFF"/>
<path fill-rule="evenodd" clip-rule="evenodd" d="M114.694 3.00024H35.3067C17.5337 3.00024 3.00024 17.5337 3.00024 35.3067V114.694C3.00024 132.457 17.5437 147 35.3067 147H114.694C132.457 147 147 132.457 147 114.694V35.3067C147 17.5437 132.457 3.00024 114.694 3.00024ZM114.694 1.00024H35.3067C16.4292 1.00024 1.00024 16.4292 1.00024 35.3067V114.694C1.00024 133.561 16.4391 149 35.3067 149H114.694C133.561 149 149 133.561 149 114.694V35.3067C149 16.4391 133.561 1.00024 114.694 1.00024Z" fill="#333333"/>
<path fill-rule="evenodd" clip-rule="evenodd" d="M108.802 41.1542C108.619 40.9633 108.437 40.7724 108.247 40.5898C96.0547 28.871 70.4034 35.7015 73.998 59.9275C61.044 59.1225 47.7918 55.0475 32.1377 39.1955C29.3878 42.341 26.8368 56.2011 37.5959 65.3056C36.337 65.8699 31.1355 64.6167 29.7274 63.5046C28.6838 65.8118 29.5535 77.929 44.5202 83.4897C45.6052 84.4192 37.3226 84.0457 36.9747 83.9793C38.3082 89.6976 42.8223 96.2293 54.6913 98.1382C52.7863 99.9807 50.2435 104.711 26.0002 107.16C63.7773 126.19 108.396 109.932 114.218 65.4052C114.641 62.1435 114.815 58.6328 114.492 55.1886C116.629 54.0432 122.642 48.9557 124 45.1047C121.226 45.9679 117.316 47.0385 114.525 47.1464C115.593 46.0426 121.698 40.5649 121.507 36.9464C119.668 38.1332 113.879 40.9716 108.802 41.1542Z" fill="#FEFEFE"/>
<path fill-rule="evenodd" clip-rule="evenodd" d="M107.975 43.1852L107.355 42.5352C107.168 42.3389 107.016 42.1804 106.863 42.0337L106.861 42.0317C101.4 36.7834 92.8192 35.6343 86.003 38.6121C82.6302 40.0856 79.7362 42.5525 77.8776 45.9891C76.0218 49.4205 75.1319 53.9424 75.9764 59.634L76.3389 62.0769L73.874 61.9237C60.9813 61.1224 47.8267 57.1497 32.6377 42.5019C32.5054 42.8836 32.3774 43.3145 32.2609 43.7941C31.8516 45.4788 31.6292 47.5825 31.7957 49.8708C32.1272 54.4287 33.9881 59.6326 38.8879 63.7788L41.313 65.831L38.414 67.1306C37.9407 67.3428 37.4481 67.4075 37.0862 67.4315C36.6929 67.4575 36.2775 67.4449 35.8722 67.4122C35.0601 67.3465 34.1463 67.1878 33.2625 66.9813C32.6604 66.8406 32.0498 66.6725 31.4699 66.4851C31.4737 66.5237 31.4778 66.5626 31.4821 66.602C31.6265 67.9275 32.043 69.608 32.9174 71.4001C34.646 74.943 38.2062 79.0102 45.2167 81.6149L45.5508 81.739L45.8214 81.9708C46.0239 82.1443 46.6406 82.7245 46.6175 83.6965C46.5927 84.744 45.8647 85.296 45.5969 85.4667C45.286 85.6649 44.9718 85.7636 44.7841 85.8149C44.5691 85.8737 44.3486 85.9148 44.1454 85.9454C43.3639 86.063 42.296 86.1006 41.2995 86.1079C40.7864 86.1117 40.2639 86.1074 39.7662 86.0984C40.5037 87.8115 41.6179 89.5091 43.2448 91.0233C45.6863 93.2957 49.3966 95.261 55.0088 96.1636L58.9537 96.798L56.0817 99.5758C56.0228 99.6327 55.9289 99.732 55.807 99.8608C55.4325 100.257 54.7941 100.931 54.0975 101.514C53.0573 102.385 51.6399 103.323 49.5285 104.252C46.2517 105.695 41.284 107.127 33.4098 108.272C49.9253 114.69 67.1562 114.457 81.2918 108.284C97.2444 101.317 109.413 86.7236 112.235 65.1472C112.644 61.9906 112.806 58.6343 112.501 55.3753L112.377 54.0531L113.547 53.4258C114.377 52.9808 116.259 51.5691 118.14 49.731C118.58 49.3004 119.002 48.8648 119.396 48.4314C117.733 48.8053 116.052 49.0889 114.602 49.1449L109.621 49.3375L113.088 45.7554C113.248 45.5904 113.466 45.3768 113.729 45.1204C114.538 44.3301 115.762 43.1338 116.953 41.7078C117.099 41.532 117.243 41.3557 117.383 41.1794C117.283 41.2184 117.182 41.2573 117.081 41.2958C114.668 42.2152 111.72 43.0505 108.874 43.1529L107.975 43.1852ZM119.258 38.1782C120.233 37.704 121.013 37.2655 121.507 36.9464C121.551 37.7756 121.264 38.7024 120.783 39.6518C119.852 41.4897 118.193 43.4124 116.795 44.8758C116.117 45.5851 115.501 46.1865 115.059 46.6181C114.828 46.8434 114.645 47.0225 114.525 47.1464C115.507 47.1084 116.627 46.9514 117.787 46.7262C118.982 46.4943 120.219 46.1901 121.393 45.8692C122.319 45.6157 123.206 45.3517 124 45.1047C123.72 45.8981 123.243 46.7439 122.643 47.5969C120.329 50.8845 116.188 54.2792 114.492 55.1886C114.815 58.6328 114.641 62.1435 114.218 65.4052C108.572 108.582 66.4464 125.179 29.4529 108.793C28.2966 108.281 27.1453 107.736 26.0002 107.16C27.3177 107.027 28.571 106.887 29.7637 106.741C45.3364 104.839 50.5597 101.929 52.9581 99.8581C53.4844 99.4038 53.8747 98.9899 54.2084 98.6359C54.3808 98.4531 54.5381 98.2863 54.6913 98.1382C53.8784 98.0074 53.1 97.855 52.3548 97.6827C43.5012 95.635 39.3276 90.7733 37.5855 86.0259C37.3332 85.3384 37.1319 84.6532 36.9747 83.9793C37.0823 83.9999 37.9491 84.0498 39.0629 84.0814C39.6241 84.0974 40.248 84.1087 40.8691 84.1093C41.4927 84.1098 42.1135 84.0996 42.6652 84.0724C43.2796 84.0421 43.8084 83.9907 44.1602 83.9098C44.2478 83.8897 44.3244 83.8677 44.3886 83.8438C44.6269 83.755 44.6947 83.6392 44.5202 83.4897C43.9299 83.2704 43.3616 83.0409 42.8144 82.8022C42.3016 82.5784 41.8073 82.3466 41.331 82.1075C31.7932 77.32 29.4711 69.6245 29.4214 65.6612C29.4091 64.68 29.5361 63.9275 29.7274 63.5046C30.1052 63.803 30.7562 64.1116 31.5308 64.3925C32.4493 64.7255 33.5416 65.0197 34.5587 65.2118C35.8806 65.4615 37.0753 65.5389 37.5959 65.3056C36.8506 64.6749 36.1692 64.0214 35.5473 63.3503C28.381 55.6164 29.1163 45.5353 31.0854 40.9746C31.4123 40.2174 31.7733 39.6124 32.1377 39.1955C32.6146 39.6784 33.0892 40.1504 33.5617 40.6117C47.7851 54.4981 60.0424 58.6981 71.9561 59.7726C72.6377 59.834 73.3183 59.8853 73.998 59.9275C73.8961 59.2404 73.8177 58.5673 73.7618 57.9081C71.8477 35.3289 96.4005 29.2034 108.247 40.5898C108.437 40.7724 108.619 40.9633 108.802 41.1542C112.514 41.0207 116.607 39.4675 119.258 38.1782ZM36.9255 63.429C36.9255 63.429 36.9243 63.4293 36.9215 63.4298C36.9241 63.4292 36.9255 63.429 36.9255 63.429ZM43.7291 81.9565C43.7278 81.9569 43.7261 81.9573 43.724 81.9579C43.7376 81.9535 43.7402 81.9535 43.7291 81.9565Z" fill="#333333"/>
</svg>
