<svg width="150" height="150" viewBox="0 0 150 150" fill="none" xmlns="http://www.w3.org/2000/svg">
<path d="M18 8C18 3.58172 21.5817 0 26 0H123C127.418 0 131 3.58172 131 8V142C131 146.418 127.418 150 123 150H26C21.5817 150 18 146.418 18 142V8Z" fill="white"/>
<path fill-rule="evenodd" clip-rule="evenodd" d="M123 1H26C22.134 1 19 4.13401 19 8V142C19 145.866 22.134 149 26 149H123C126.866 149 130 145.866 130 142V8C130 4.13401 126.866 1 123 1ZM26 0C21.5817 0 18 3.58172 18 8V142C18 146.418 21.5817 150 26 150H123C127.418 150 131 146.418 131 142V8C131 3.58172 127.418 0 123 0H26Z" fill="#333333"/>
<path fill-rule="evenodd" clip-rule="evenodd" d="M75 27C87.1448 27 97 36.8552 97 49C97 60.9931 86.9914 71 75 71C62.8552 71 53 61.1448 53 49C53 36.8552 62.8552 27 75 27Z" fill="#EFEFEF" stroke="#333333"/>
<path fill-rule="evenodd" clip-rule="evenodd" d="M75.4366 36.7825C77.5436 40.2695 82.5029 44.3214 85.9615 43.8344C86.4915 37.6002 81.4886 32 75.0093 32C68.5712 32 63.2958 37.7222 64.0769 44C67.3765 43.9513 72.8228 41.7695 75.4366 36.7825Z" fill="#AAAAAA"/>
<path fill-rule="evenodd" clip-rule="evenodd" d="M86 44.5635C82.5247 45.0859 77.5415 40.7504 75.4244 37C72.798 42.3488 67.3255 44.6994 64 44.7307C64.6192 50.5078 69.3028 55 74.985 55C80.7372 55.0104 85.4507 50.4242 86 44.5635Z" fill="white"/>
<path fill-rule="evenodd" clip-rule="evenodd" d="M79 60.5C79 58.0486 79 54.5161 79 52.0647C77.4828 52.8442 76.8966 53.2124 75.064 53.2124C73.2315 53.2124 71.5172 52.7698 70 52L70.1281 52.064C70.1281 65.8594 70.1464 59.5991 70.1281 59.4093L70.4039 59.7653C71.6256 61.3434 72.9951 62.7194 74.2956 64.4322C74.6108 64.846 74.8276 65.0384 75.064 64.9903C75.3104 65.048 75.5172 64.846 75.8325 64.4322C77.1445 62.7009 77.6692 62.2176 79 60.5Z" fill="white"/>
<path d="M79.2227 59.8114L79.2225 59.8115C78.6555 60.5375 78.0548 61.2202 77.4328 61.9272C77.4048 61.9589 77.3768 61.9907 77.3488 62.0226C76.6998 62.7603 76.0307 63.525 75.3774 64.3731L75.3771 64.3735C75.2276 64.5679 75.1316 64.6715 75.0669 64.7227L75.017 64.7106L74.9601 64.7238C74.8968 64.673 74.8036 64.5705 74.6523 64.3737C73.9987 63.5205 73.3292 62.7554 72.6804 62.0179C72.6538 61.9877 72.6273 61.9575 72.6008 61.9274C71.9772 61.2187 71.3754 60.5348 70.8076 59.8033L70.8065 59.802C70.6685 59.6254 70.6065 59.5392 70.5681 59.4561C70.5378 59.3906 70.5137 59.307 70.5137 59.1397V58V57.4068L69.9291 57.5072C65.4803 58.2712 61.6036 59.8395 58.6929 62.1055L58.2804 62.4266L58.6195 62.8244C62.5196 67.3995 68.3947 70.5 75.0146 70.5C81.5976 70.5 87.4909 67.3508 91.3792 62.8259L91.7187 62.4308L91.3101 62.1078C88.4143 59.8184 84.5343 58.3083 80.0925 57.5264L79.5058 57.4231V58.0188V59.1397H79.5056L79.5059 59.152C79.5102 59.3238 79.4873 59.4052 79.4597 59.4667C79.4236 59.5472 79.3634 59.6313 79.2227 59.8114Z" fill="#BDECFF" stroke="#333333"/>
<path fill-rule="evenodd" clip-rule="evenodd" d="M70.5 54C70.7761 54 71 54.2239 71 54.5V59.5C71 59.7761 70.7761 60 70.5 60C70.2239 60 70 59.7761 70 59.5V54.5C70 54.2239 70.2239 54 70.5 54ZM79.5 54C79.7761 54 80 54.2239 80 54.5V59.5C80 59.7761 79.7761 60 79.5 60C79.2239 60 79 59.7761 79 59.5V54.5C79 54.2239 79.2239 54 79.5 54Z" fill="#333333"/>
<path d="M86.2364 43.5146C86.2364 49.7366 81.1765 54.791 74.9698 54.791C68.7549 54.791 63.6934 49.7483 63.6934 43.5146C63.6934 37.371 68.8271 32.248 74.9698 32.248C81.1842 32.248 86.2364 37.3002 86.2364 43.5146Z" stroke="#333333"/>
<path d="M85.9995 43.8125C84.1902 44.0833 82.0827 43.2292 80.1342 41.8333C78.3249 40.5417 76.615 38.7604 75.4121 37C74.239 38.9479 72.6882 40.4479 71.0578 41.5521C68.6222 43.1979 65.9679 43.9792 63.9995 44" stroke="#333333" stroke-linejoin="round"/>
<path fill-rule="evenodd" clip-rule="evenodd" d="M33 86C33 84.3432 34.3431 83 36 83H114C115.657 83 117 84.3431 117 86V93C117 94.6569 115.657 96 114 96H36.0001C34.3433 96 33.0001 94.6569 33.0001 93L33 86Z" fill="#BDECFF"/>
<path fill-rule="evenodd" clip-rule="evenodd" d="M114 84H36C34.8954 84 34 84.8954 34 86L34.0001 93C34.0001 94.1046 34.8955 95 36.0001 95H114C115.105 95 116 94.1046 116 93V86C116 84.8954 115.105 84 114 84ZM36 83C34.3431 83 33 84.3432 33 86L33.0001 93C33.0001 94.6569 34.3433 96 36.0001 96H114C115.657 96 117 94.6569 117 93V86C117 84.3431 115.657 83 114 83H36Z" fill="#333333"/>
<path fill-rule="evenodd" clip-rule="evenodd" d="M48 89.5C48 89.2239 48.2259 89 48.5047 89H101.495C101.774 89 102 89.2239 102 89.5C102 89.7761 101.774 90 101.495 90H48.5047C48.2259 90 48 89.7761 48 89.5Z" fill="#333333"/>
<path fill-rule="evenodd" clip-rule="evenodd" d="M33 123C33 121.343 34.3431 120 36 120H114C115.657 120 117 121.343 117 123V130C117 131.657 115.657 133 114 133H36.0001C34.3433 133 33.0001 131.657 33.0001 130L33 123Z" fill="url(#paint0_linear_125_9640)"/>
<path fill-rule="evenodd" clip-rule="evenodd" d="M114 121H36C34.8954 121 34 121.895 34 123L34.0001 130C34.0001 131.105 34.8955 132 36.0001 132H114C115.105 132 116 131.105 116 130V123C116 121.895 115.105 121 114 121ZM36 120C34.3431 120 33 121.343 33 123L33.0001 130C33.0001 131.657 34.3433 133 36.0001 133H114C115.657 133 117 131.657 117 130V123C117 121.343 115.657 120 114 120H36Z" fill="#333333"/>
<path fill-rule="evenodd" clip-rule="evenodd" d="M48 126.5C48 126.224 48.2259 126 48.5047 126H101.495C101.774 126 102 126.224 102 126.5C102 126.776 101.774 127 101.495 127H48.5047C48.2259 127 48 126.776 48 126.5Z" fill="white"/>
<path fill-rule="evenodd" clip-rule="evenodd" d="M33 104C33 102.343 34.3431 101 36 101H114C115.657 101 117 102.343 117 104V111C117 112.657 115.657 114 114 114H36.0001C34.3433 114 33.0001 112.657 33.0001 111L33 104Z" fill="#BDECFF"/>
<path fill-rule="evenodd" clip-rule="evenodd" d="M114 102H36C34.8954 102 34 102.895 34 104L34.0001 111C34.0001 112.105 34.8955 113 36.0001 113H114C115.105 113 116 112.105 116 111V104C116 102.895 115.105 102 114 102ZM36 101C34.3431 101 33 102.343 33 104L33.0001 111C33.0001 112.657 34.3433 114 36.0001 114H114C115.657 114 117 112.657 117 111V104C117 102.343 115.657 101 114 101H36Z" fill="#333333"/>
<path fill-rule="evenodd" clip-rule="evenodd" d="M49.5 109C50.3285 109 51 108.322 51 107.5C51 106.672 50.3222 106 49.5 106C48.6716 106 48 106.672 48 107.5C47.9938 108.322 48.6716 109 49.5 109Z" fill="#333333"/>
<path fill-rule="evenodd" clip-rule="evenodd" d="M55.5 109C56.3285 109 57 108.322 57 107.5C57 106.672 56.3285 106 55.5 106C54.6716 106 54 106.672 54 107.5C53.9938 108.322 54.6716 109 55.5 109Z" fill="#333333"/>
<path fill-rule="evenodd" clip-rule="evenodd" d="M61.5 109C62.3285 109 63 108.322 63 107.5C63 106.672 62.3222 106 61.5 106C60.6716 106 60 106.672 60 107.5C59.9938 108.322 60.6716 109 61.5 109Z" fill="#333333"/>
<path fill-rule="evenodd" clip-rule="evenodd" d="M67.5 109C68.3285 109 69 108.322 69 107.5C69 106.672 68.3222 106 67.5 106C66.6716 106 66 106.672 66 107.5C65.9938 108.322 66.6716 109 67.5 109Z" fill="#333333"/>
<path fill-rule="evenodd" clip-rule="evenodd" d="M85.5 109C86.3285 109 87 108.322 87 107.5C87 106.672 86.3222 106 85.5 106C84.6716 106 84 106.672 84 107.5C83.9938 108.322 84.6716 109 85.5 109Z" fill="#333333"/>
<path fill-rule="evenodd" clip-rule="evenodd" d="M73.5 109C74.3285 109 75 108.322 75 107.5C75 106.672 74.3222 106 73.5 106C72.6716 106 72 106.672 72 107.5C71.9938 108.322 72.6716 109 73.5 109Z" fill="#333333"/>
<path fill-rule="evenodd" clip-rule="evenodd" d="M91.5 109C92.3285 109 93 108.322 93 107.5C93 106.672 92.3222 106 91.5 106C90.6716 106 90 106.672 90 107.5C89.9938 108.322 90.6716 109 91.5 109Z" fill="#333333"/>
<path fill-rule="evenodd" clip-rule="evenodd" d="M79.5 109C80.3285 109 81 108.322 81 107.5C81 106.672 80.3222 106 79.5 106C78.6716 106 78 106.672 78 107.5C77.9938 108.322 78.6716 109 79.5 109Z" fill="#333333"/>
<path fill-rule="evenodd" clip-rule="evenodd" d="M97.5 109C98.3285 109 99 108.322 99 107.5C99 106.672 98.3222 106 97.5 106C96.6716 106 96 106.672 96 107.5C95.9938 108.322 96.6716 109 97.5 109Z" fill="#333333"/>
<path d="M100.5 9C100.5 10.3807 99.3805 11.5 97.9998 11.5C96.619 11.5 95.4998 10.3807 95.4998 9C95.4998 7.61929 96.619 6.5 97.9998 6.5C99.3805 6.5 100.5 7.61929 100.5 9Z" stroke="#333333"/>
<path d="M110.5 9C110.5 10.3807 109.38 11.5 108 11.5C106.619 11.5 105.5 10.3807 105.5 9C105.5 7.61929 106.619 6.5 108 6.5C109.38 6.5 110.5 7.61929 110.5 9Z" stroke="#333333"/>
<path d="M120.5 9C120.5 10.3783 119.378 11.5 118 11.5C116.622 11.5 115.5 10.3695 115.5 9C115.5 7.62166 116.621 6.5 118 6.5C119.378 6.5 120.5 7.62166 120.5 9Z" stroke="#333333"/>
<path d="M131 16H18V17H131V16Z" fill="#333333"/>
<defs>
<linearGradient id="paint0_linear_125_9640" x1="33.0002" y1="119.492" x2="36.7914" y2="144.947" gradientUnits="userSpaceOnUse">
<stop stop-color="#FF8E3D"/>
<stop offset="1" stop-color="#FF6F3D"/>
</linearGradient>
</defs>
</svg>
