<svg width="150" height="150" viewBox="0 0 150 150" fill="none" xmlns="http://www.w3.org/2000/svg">
<g clip-path="url(#clip0_125_6845)">
<mask id="path-1-outside-1_125_6845" maskUnits="userSpaceOnUse" x="81.0005" y="68" width="70" height="40" fill="black">
<rect fill="white" x="81.0005" y="68" width="70" height="40"/>
<path fill-rule="evenodd" clip-rule="evenodd" d="M113.129 81.2888L112.125 73.9648C111.712 73.631 111.335 73.3188 110.981 73.0249C109.469 71.7734 108.358 70.8529 106.601 70C101.078 71.4868 92.1073 75.1024 89.4859 77.39C85.0491 81.2627 84.0678 88.5679 83.2762 94.4598C83.1835 95.1504 83.0933 95.8215 83.0005 96.4655C88.0614 101.471 101.798 105.332 110.113 105.684C110.113 104.871 110.108 104.041 110.103 103.198C110.059 95.9317 110.009 87.7062 113.129 81.2888ZM124.198 70C127.114 70.72 134.495 72.9454 139.145 75.4C146.583 79.4062 147.816 88.184 148.88 95.7607C148.92 96.0485 148.96 96.3346 149 96.6185C145.62 98.6526 142.244 100.611 138.549 102.054C136.738 102.719 136.064 102.948 134.586 103.413C130.552 104.622 126.02 105.64 121.646 106C121.632 104.944 121.628 103.866 121.623 102.775C121.595 95.3423 121.564 87.2494 118.434 80.626C119.78 77.4869 120.024 77.0972 120.807 75.8451C121.397 74.9016 122.293 73.4684 124.198 70Z"/>
</mask>
<path fill-rule="evenodd" clip-rule="evenodd" d="M113.129 81.2888L112.125 73.9648C111.712 73.631 111.335 73.3188 110.981 73.0249C109.469 71.7734 108.358 70.8529 106.601 70C101.078 71.4868 92.1073 75.1024 89.4859 77.39C85.0491 81.2627 84.0678 88.5679 83.2762 94.4598C83.1835 95.1504 83.0933 95.8215 83.0005 96.4655C88.0614 101.471 101.798 105.332 110.113 105.684C110.113 104.871 110.108 104.041 110.103 103.198C110.059 95.9317 110.009 87.7062 113.129 81.2888ZM124.198 70C127.114 70.72 134.495 72.9454 139.145 75.4C146.583 79.4062 147.816 88.184 148.88 95.7607C148.92 96.0485 148.96 96.3346 149 96.6185C145.62 98.6526 142.244 100.611 138.549 102.054C136.738 102.719 136.064 102.948 134.586 103.413C130.552 104.622 126.02 105.64 121.646 106C121.632 104.944 121.628 103.866 121.623 102.775C121.595 95.3423 121.564 87.2494 118.434 80.626C119.78 77.4869 120.024 77.0972 120.807 75.8451C121.397 74.9016 122.293 73.4684 124.198 70Z" fill="#FEFEFE"/>
<path d="M112.125 73.9648L113.116 73.829L113.062 73.4366L112.754 73.1875L112.125 73.9648ZM113.129 81.2888L114.029 81.7261L114.161 81.4534L114.12 81.153L113.129 81.2888ZM110.981 73.0249L110.343 73.7951L110.343 73.7951L110.981 73.0249ZM106.601 70L107.038 69.1004L106.702 68.9373L106.341 69.0344L106.601 70ZM89.4859 77.39L88.8284 76.6366L88.8283 76.6367L89.4859 77.39ZM83.2762 94.4598L82.2851 94.3267L82.2851 94.3267L83.2762 94.4598ZM83.0005 96.4655L82.0107 96.3228L81.9388 96.8219L82.2973 97.1765L83.0005 96.4655ZM110.113 105.684L110.071 106.683L111.113 106.727V105.684H110.113ZM110.103 103.198L111.103 103.192L111.103 103.192L110.103 103.198ZM139.145 75.4L139.619 74.5196L139.612 74.5157L139.145 75.4ZM124.198 70L124.437 69.0291L123.691 68.8449L123.321 69.5186L124.198 70ZM148.88 95.7607L147.889 95.8998L147.889 95.8998L148.88 95.7607ZM149 96.6185L149.516 97.4754L150.084 97.134L149.991 96.4782L149 96.6185ZM138.549 102.054L138.893 102.993L138.903 102.989L138.912 102.986L138.549 102.054ZM134.586 103.413L134.874 104.371L134.887 104.367L134.586 103.413ZM121.646 106L120.646 106.013L120.66 107.085L121.728 106.997L121.646 106ZM121.623 102.775L120.623 102.778L120.623 102.778L121.623 102.775ZM118.434 80.626L117.515 80.2319L117.338 80.6459L117.53 81.0532L118.434 80.626ZM120.807 75.8451L121.655 76.3753L121.655 76.3753L120.807 75.8451ZM111.134 74.1007L112.139 81.4247L114.12 81.153L113.116 73.829L111.134 74.1007ZM110.343 73.7951C110.697 74.0887 111.078 74.4043 111.496 74.7422L112.754 73.1875C112.347 72.8577 111.974 72.549 111.618 72.2547L110.343 73.7951ZM106.165 70.8996C107.8 71.6938 108.829 72.5414 110.343 73.7951L111.618 72.2547C110.11 71.0054 108.915 70.0119 107.038 69.1004L106.165 70.8996ZM90.1434 78.1435C91.3168 77.1195 94.0702 75.6973 97.344 74.3161C100.572 72.954 104.152 71.6948 106.861 70.9656L106.341 69.0344C103.527 69.792 99.8597 71.084 96.5666 72.4733C93.3189 73.8435 90.2764 75.3729 88.8284 76.6366L90.1434 78.1435ZM84.2673 94.593C84.6649 91.6335 85.0998 88.4114 85.9732 85.4507C86.8474 82.4877 88.1297 79.9011 90.1435 78.1434L88.8283 76.6367C86.4053 78.7516 84.9786 81.7539 84.055 84.8847C83.1307 88.0178 82.6791 91.3942 82.2851 94.3267L84.2673 94.593ZM83.9903 96.6081C84.0839 95.9586 84.1747 95.2826 84.2673 94.593L82.2851 94.3267C82.1922 95.0182 82.1027 95.6845 82.0107 96.3228L83.9903 96.6081ZM110.155 104.684C106.106 104.513 100.682 103.482 95.6415 101.868C90.5657 100.242 86.0582 98.0832 83.7037 95.7545L82.2973 97.1765C85.0037 99.8532 89.8952 102.128 95.0316 103.772C100.203 105.428 105.805 106.503 110.071 106.683L110.155 104.684ZM109.103 103.204C109.108 104.047 109.113 104.874 109.113 105.684H111.113C111.113 104.867 111.108 104.034 111.103 103.192L109.103 103.204ZM112.23 80.8515C108.988 87.5193 109.059 96.0002 109.103 103.204L111.103 103.192C111.058 95.8631 111.03 87.8932 114.029 81.7261L112.23 80.8515ZM139.612 74.5157C134.855 72.0044 127.381 69.7559 124.437 69.0291L123.958 70.9709C126.847 71.6841 134.136 73.8864 138.678 76.2843L139.612 74.5157ZM149.87 95.6217C149.341 91.855 148.755 87.6532 147.339 83.8892C145.912 80.098 143.614 76.6711 139.619 74.5196L138.671 76.2804C142.114 78.1351 144.152 81.1002 145.467 84.5937C146.792 88.1142 147.354 92.0897 147.889 95.8998L149.87 95.6217ZM149.991 96.4782C149.95 96.195 149.91 95.9096 149.87 95.6217L147.889 95.8998C147.93 96.1875 147.97 96.4741 148.01 96.7589L149.991 96.4782ZM138.912 102.986C142.694 101.509 146.134 99.5103 149.516 97.4754L148.485 95.7617C145.105 97.7949 141.794 99.7137 138.185 101.123L138.912 102.986ZM134.887 104.367C136.381 103.897 137.07 103.663 138.893 102.993L138.204 101.116C136.406 101.776 135.747 102 134.286 102.459L134.887 104.367ZM121.728 106.997C126.193 106.629 130.796 105.593 134.873 104.371L134.299 102.455C130.308 103.651 125.848 104.651 121.564 105.003L121.728 106.997ZM120.623 102.778C120.628 103.869 120.632 104.951 120.646 106.013L122.645 105.987C122.632 104.936 122.628 103.863 122.623 102.771L120.623 102.778ZM117.53 81.0532C120.548 87.4383 120.595 95.292 120.623 102.778L122.623 102.771C122.595 95.3926 122.581 87.0605 119.338 80.1987L117.53 81.0532ZM119.959 75.3149C119.14 76.6244 118.873 77.0637 117.515 80.2319L119.353 81.02C120.687 77.91 120.908 77.5699 121.655 76.3753L119.959 75.3149ZM123.321 69.5186C121.426 72.9685 120.54 74.3853 119.959 75.3149L121.655 76.3753C122.253 75.4179 123.159 73.9684 125.074 70.4814L123.321 69.5186Z" fill="#333333" mask="url(#path-1-outside-1_125_6845)"/>
<path d="M106.516 69.294L106.444 69.5722L106.648 69.7745C107.612 70.7297 108.994 71.4106 110.538 71.8522C112.088 72.2953 113.837 72.5074 115.571 72.4998C117.306 72.4922 119.042 72.2648 120.568 71.8178C122.088 71.3728 123.437 70.6988 124.355 69.7711L124.577 69.5477L124.471 69.2514C123.789 67.3399 123.742 65.3497 123.72 63.2634V63.2633V63.2632V63.263V63.2629V63.2627V63.2626V63.2624V63.2622V63.262V63.2619V63.2617V63.2615V63.2613V63.2611V63.261V63.2608V63.2606V63.2604V63.2602V63.26V63.2598V63.2596V63.2594V63.2591V63.2589V63.2587V63.2585V63.2583V63.258V63.2578V63.2576V63.2574V63.2571V63.2569V63.2566V63.2564V63.2561V63.2559V63.2556V63.2554V63.2551V63.2549V63.2546V63.2543V63.2541V63.2538V63.2535V63.2533V63.253V63.2527V63.2524V63.2521V63.2518V63.2516V63.2513V63.251V63.2507V63.2504V63.2501V63.2498V63.2495V63.2492V63.2488V63.2485V63.2482V63.2479V63.2476V63.2473V63.2469V63.2466V63.2463V63.2459V63.2456V63.2453V63.2449V63.2446V63.2442V63.2439V63.2435V63.2432V63.2428V63.2425V63.2421V63.2418V63.2414V63.241V63.2407V63.2403V63.2399V63.2396V63.2392V63.2388V63.2384V63.2381V63.2377V63.2373V63.2369V63.2365V63.2361V63.2357V63.2353V63.2349V63.2345V63.2341V63.2337V63.2333V63.2329V63.2325V63.2321V63.2317V63.2312V63.2308V63.2304V63.23V63.2296V63.2291V63.2287V63.2283V63.2278V63.2274V63.227V63.2265V63.2261V63.2256V63.2252V63.2248V63.2243V63.2239V63.2234V63.223V63.2225V63.222V63.2216V63.2211V63.2207V63.2202V63.2197V63.2193V63.2188V63.2183V63.2178V63.2174V63.2169V63.2164V63.2159V63.2155V63.215V63.2145V63.214V63.2135V63.213V63.2125V63.212V63.2115V63.211V63.2105V63.21V63.2095V63.209V63.2085V63.208V63.2075V63.207V63.2065V63.206V63.2055V63.2049V63.2044V63.2039V63.2034V63.2029V63.2023V63.2018V63.2013V63.2007V63.2002V63.1997V63.1992V63.1986V63.1981V63.1975V63.197V63.1965V63.1959V63.1954V63.1948V63.1943V63.1937V63.1932V63.1926V63.1921V63.1915V63.191V63.1904V63.1899V63.1893V63.1887V63.1882V63.1876V63.1871V63.1865V63.1859V63.1853V63.1848V63.1842V63.1836V63.1831V63.1825V63.1819V63.1813V63.1808V63.1802V63.1796V63.179V63.1784V63.1778V63.1773V63.1767V63.1761V63.1755V63.1749V63.1743V63.1737V63.1731V63.1725V63.1719V63.1713V63.1707V63.1701V63.1695V63.1689V63.1683V63.1677V63.1671V63.1665V63.1659V63.1653V63.1647V63.1641V63.1635V63.1629V63.1623V63.1616V63.161V63.1604V63.1598V63.1592V63.1586V63.1579V63.1573V63.1567V63.1561V63.1555V63.1548V63.1542V63.1536V63.153V63.1523V63.1517V63.1511V63.1504V63.1498V63.1492V63.1485V63.1479V63.1473V63.1466V63.146V63.1454V63.1447V63.1441V63.1435V63.1428V63.1422V63.1415V63.1409V63.1403V63.1396V63.139V63.1383V63.1377V63.137V63.1364V63.1357V63.1351V63.1344V63.1338V63.1331V63.1325V63.1318V63.1312V63.1305V63.1299V63.1292V63.1286V63.1279V63.1273V63.1266V63.126V63.1253V63.1247V63.124V63.1233V63.1227V63.122V63.1214V63.1207V63.12V63.1194V63.1187V63.1181V63.1174V63.1167V63.1161V63.1154V63.1147V63.1141V63.1134V63.1127V63.1121V63.1114V63.1107V63.1101V63.1094V63.1087V63.1081V63.1074V63.1067V63.1061V63.1054V63.1047V63.1041V63.1034V63.1027V63.1021V63.1014V63.1007V63.1V63.0994V63.0987V63.098V63.0974V63.0967V63.096V63.0953V63.0947V63.094V63.0933V63.0927V63.092V63.0913V63.0906V63.09V63.0893V63.0886V63.0879V63.0873V63.0866V63.0859V63.0852V63.0846V63.0839V63.0832V63.0825V63.0819V63.0812V63.0805V63.0798V63.0792V63.0785V63.0778V63.0772V63.0765V63.0758V63.0751V63.0745V63.0738V63.0731V63.0724V63.0718V63.0711V63.0704V63.0697V63.0691V63.0684V63.0677V63.067V63.0664V63.0657V63.065V63.0644V63.0637V63.063V63.0623V63.0617V63.061V63.0603V63.0597V63.059V63.0583V63.0576V63.057V63.0563V63.0556V63.055V63.0543V63.0536V63.053V63.0523V63.0516V63.051V63.0503V63.0496V63.049V63.0483V63.0476V63.047V63.0463V63.0456V63.045V63.0443V63.0437V63.043V63.0423V63.0417V63.041V63.0403V63.0397V63.039V63.0384V63.0377V63.037V63.0364V63.0357V63.0351V63.0344V63.0338V63.0331V63.0325V63.0318V63.0311V63.0305V63.0298V63.0292V63.0285V63.0279V63.0272V63.0266V63.0259V63.0253V63.0246V63.024V63.0234V63.0227V63.0221V63.0214V63.0208V63.0201V63.0195V63.0189V63.0182V63.0176V63.0169V63.0163V63.0157V63.015V63.0144V63.0138V63.0131V63.0125V63.0119V63.0112V63.0106V63.01V63.0093V63.0087V63.0081V63.0075V63.0068V63.0062V63.0056V63.005V63.0043V63.0037V63.0031V63.0025V63.0019V63.0012V63.0006V63V62.0368L122.932 62.5911C120.692 64.1674 118.061 65.0761 115.242 65.0761C112.593 65.0761 110.105 64.2749 107.958 62.8688L107.184 62.3617V63.287V63.2874V63.2878V63.2882V63.2887V63.2891V63.2895V63.2899V63.2903V63.2907V63.2911V63.2915V63.2919V63.2923V63.2928V63.2932V63.2936V63.294V63.2944V63.2948V63.2952V63.2956V63.296V63.2964V63.2969V63.2973V63.2977V63.2981V63.2985V63.2989V63.2993V63.2997V63.3001V63.3005V63.3009V63.3013V63.3018V63.3022V63.3026V63.303V63.3034V63.3038V63.3042V63.3046V63.305V63.3054V63.3058V63.3062V63.3067V63.3071V63.3075V63.3079V63.3083V63.3087V63.3091V63.3095V63.3099V63.3103V63.3107V63.3111V63.3115V63.3119V63.3123V63.3127V63.3131V63.3135V63.314V63.3144V63.3148V63.3152V63.3156V63.316V63.3164V63.3168V63.3172V63.3176V63.318V63.3184V63.3188V63.3192V63.3196V63.32V63.3204V63.3208V63.3212V63.3216V63.322V63.3224V63.3228V63.3232V63.3236V63.324V63.3244V63.3248V63.3252V63.3256V63.326V63.3264V63.3268V63.3272V63.3276V63.328V63.3284V63.3287V63.3291V63.3295V63.3299V63.3303V63.3307V63.3311V63.3315V63.3319V63.3323V63.3327V63.3331V63.3335V63.3339V63.3343V63.3346V63.335V63.3354V63.3358V63.3362V63.3366V63.337V63.3374V63.3378V63.3381V63.3385V63.3389V63.3393V63.3397V63.3401V63.3405V63.3408V63.3412V63.3416V63.342V63.3424V63.3428V63.3432V63.3435V63.3439V63.3443V63.3447V63.3451V63.3454V63.3458V63.3462V63.3466V63.347V63.3473V63.3477V63.3481V63.3485V63.3488V63.3492V63.3496V63.35V63.3503V63.3507V63.3511V63.3515V63.3518V63.3522V63.3526V63.353V63.3533V63.3537V63.3541V63.3544V63.3548V63.3552V63.3555V63.3559V63.3563V63.3566V63.357V63.3574V63.3577V63.3581V63.3585V63.3588V63.3592V63.3596V63.3599V63.3603V63.3606V63.361V63.3614V63.3617V63.3621V63.3624V63.3628V63.3632V63.3635V63.3639V63.3642V63.3646V63.3649V63.3653V63.3656V63.366V63.3664V63.3667V63.3671V63.3674V63.3678V63.3681V63.3685V63.3688V63.3692V63.3695V63.3698V63.3702V63.3705V63.3709V63.3712V63.3716V63.3719V63.3723V63.3726V63.3729V63.3733V63.3736V63.374V63.3743V63.3746V63.375V63.3753V63.3756V63.376V63.3763V63.3766V63.377V63.3773V63.3776V63.378V63.3783V63.3786V63.379V63.3793V63.3796V63.38V63.3803V63.3806V63.3809V63.3813V63.3816V63.3819V63.3822V63.3825V63.3829V63.3832V63.3835V63.3838V63.3841V63.3845V63.3848V63.3851V63.3854V63.3857V63.386V63.3864V63.3867V63.387V63.3873V63.3876V63.3879V63.3882V63.3885V63.3888V63.3891V63.3894V63.3897V63.3901V63.3904V63.3907V63.391V63.3913V63.3916V63.3919V63.3922V63.3925V63.3928V63.393V63.3933V63.3936V63.3939V63.3942V63.3945V63.3948V63.3951V63.3954V63.3957V63.396V63.3963V63.3965V63.3968V63.3971V63.3974V63.3977V63.398V63.3982V63.3985V63.3988V63.3991V63.3994V63.3996V63.3999V63.4002V63.4005V63.4007V63.401V63.4013V63.4015V63.4018V63.4021V63.4024V63.4026V63.4029V63.4032V63.4034V63.4037V63.4039V63.4042V63.4045V63.4047V63.405V63.4052V63.4055V63.4058V63.406V63.4063V63.4065V63.4068V63.407V63.4073V63.4075V63.4078V63.408V63.4083V63.4085V63.4088V63.409V63.4093V63.4095V63.4097V63.41V63.4102V63.4105V63.4107V63.4109V63.4112V63.4114V63.4116V63.4119V63.4121V63.4123V63.4125V63.4128V63.413V63.4132V63.4135V63.4137V63.4139V63.4141V63.4143V63.4146V63.4148V63.415V63.4152V63.4154V63.4157V63.4159V63.4161V63.4163V63.4165V63.4167V63.4169V63.4171V63.4173V63.4175V63.4177V63.4179V63.4181V63.4183V63.4185V63.4187V63.4189V63.4191V63.4193V63.4195V63.4197V63.4199V63.4201V63.4203V63.4205V63.4207C107.181 63.4851 107.178 63.5494 107.174 63.6137C107.067 65.6212 106.964 67.5638 106.516 69.294Z" fill="#FEFEFE" stroke="#333333"/>
<path fill-rule="evenodd" clip-rule="evenodd" d="M114.999 67C117.897 67 120.599 65.9794 122.892 64.2179C125.743 62.0302 127.96 58.666 129.118 54.6845C129.916 51.9116 130.17 48.9745 129.89 46.0962C126.482 45.7787 114.839 45.0756 111.067 34C109.501 38.0069 107.863 40.0632 100.756 42.5203C99.9498 45.5687 99.7904 48.7894 100.268 51.91C101.107 57.304 104.297 61.3568 108 64C110.199 65.5801 112.276 67 114.999 67Z" fill="#FEFEFE"/>
<mask id="path-5-inside-2_125_6845" fill="white">
<path fill-rule="evenodd" clip-rule="evenodd" d="M101 70.746C102.389 73.1406 103.857 75.5308 105.462 77.7895C106.184 78.811 106.774 79.4766 107.343 79.7892C107.62 79.9384 107.912 80.013 108.225 79.9981C109.129 79.9579 109.843 79.2188 110.39 78.5655C110.733 78.1726 111.128 77.7414 111.418 77.3419C112.659 75.6333 113.856 73.9164 115.151 72.2606H115.982C116.164 72.5069 116.339 72.7382 116.492 72.9695C118.071 74.6975 119.127 76.805 120.669 78.5655C121.128 79.0961 121.671 79.684 122.36 79.9086C122.514 79.9608 122.674 79.9907 122.842 79.9907C123.155 79.9981 123.439 79.931 123.724 79.7817C124.39 79.4082 125.048 78.6116 125.911 77.3419C127.363 75.2 128.789 73.0027 130 70.7161C128.68 70.2429 127.357 69.7944 125.998 69.4402C125.247 69.2462 124.555 69.097 123.942 69C120.618 72.6039 110.602 72.7307 107.102 69C105 69.3074 102.993 70.0366 101 70.746Z"/>
</mask>
<path fill-rule="evenodd" clip-rule="evenodd" d="M101 70.746C102.389 73.1406 103.857 75.5308 105.462 77.7895C106.184 78.811 106.774 79.4766 107.343 79.7892C107.62 79.9384 107.912 80.013 108.225 79.9981C109.129 79.9579 109.843 79.2188 110.39 78.5655C110.733 78.1726 111.128 77.7414 111.418 77.3419C112.659 75.6333 113.856 73.9164 115.151 72.2606H115.982C116.164 72.5069 116.339 72.7382 116.492 72.9695C118.071 74.6975 119.127 76.805 120.669 78.5655C121.128 79.0961 121.671 79.684 122.36 79.9086C122.514 79.9608 122.674 79.9907 122.842 79.9907C123.155 79.9981 123.439 79.931 123.724 79.7817C124.39 79.4082 125.048 78.6116 125.911 77.3419C127.363 75.2 128.789 73.0027 130 70.7161C128.68 70.2429 127.357 69.7944 125.998 69.4402C125.247 69.2462 124.555 69.097 123.942 69C120.618 72.6039 110.602 72.7307 107.102 69C105 69.3074 102.993 70.0366 101 70.746Z" fill="#E2E2E2"/>
<path d="M101 70.746L100.665 69.8039L99.5321 70.2072L100.135 71.2476L101 70.746ZM105.462 77.7895L106.279 77.2125L106.277 77.2103L105.462 77.7895ZM107.343 79.7892L106.861 80.6657L106.869 80.6696L107.343 79.7892ZM108.225 79.9981L108.181 78.9991L108.177 78.9993L108.225 79.9981ZM110.39 78.5655L109.637 77.9078L109.63 77.9156L109.623 77.9235L110.39 78.5655ZM111.418 77.3419L112.227 77.9295L112.227 77.9295L111.418 77.3419ZM115.151 72.2606V71.2606H114.663L114.363 71.6448L115.151 72.2606ZM115.982 72.2606L116.785 71.6657L116.486 71.2606H115.982V72.2606ZM116.492 72.9695L115.658 73.5214L115.701 73.5865L115.754 73.6441L116.492 72.9695ZM120.669 78.5655L121.425 77.9112L121.421 77.9066L120.669 78.5655ZM122.36 79.9086L122.683 78.9621L122.67 78.9577L122.36 79.9086ZM122.842 79.9907L122.865 78.9909L122.854 78.9907H122.842V79.9907ZM123.724 79.7817L124.188 80.6672L124.201 80.6608L124.213 80.6541L123.724 79.7817ZM125.911 77.3419L126.738 77.904L126.738 77.903L125.911 77.3419ZM130 70.7161L130.884 71.1843L131.425 70.1641L130.338 69.7747L130 70.7161ZM125.998 69.4402L126.25 68.4726L126.248 68.472L125.998 69.4402ZM123.942 69L124.099 68.0123L123.57 67.9286L123.207 68.322L123.942 69ZM107.102 69L107.832 68.3159L107.474 67.935L106.958 68.0105L107.102 69ZM106.869 80.6696C107.288 80.8957 107.759 81.0214 108.273 80.997L108.177 78.9993C108.064 79.0047 107.951 78.9811 107.817 78.9088L106.869 80.6696ZM115.151 73.2606H115.982V71.2606H115.151V73.2606ZM115.178 72.8556C115.37 73.1153 115.524 73.3182 115.658 73.5214L117.326 72.4176C117.154 72.1582 116.958 71.8984 116.785 71.6657L115.178 72.8556ZM122.038 80.855C122.284 80.939 122.553 80.9907 122.842 80.9907V78.9907C122.795 78.9907 122.743 78.9826 122.683 78.9622L122.038 80.855ZM122.818 80.9904C123.305 81.002 123.757 80.8937 124.188 80.6672L123.259 78.8963C123.122 78.9682 123.005 78.9943 122.865 78.9909L122.818 80.9904ZM126.248 68.472C125.475 68.2723 124.751 68.1155 124.099 68.0123L123.786 69.9877C124.359 70.0785 125.019 70.2202 125.748 70.4084L126.248 68.472ZM123.207 68.322C122.535 69.0506 121.464 69.6617 120.1 70.0912C118.748 70.5173 117.176 70.743 115.583 70.7505C112.328 70.7658 109.297 69.8785 107.832 68.3159L106.373 69.6841C108.407 71.8522 112.133 72.7668 115.593 72.7505C117.357 72.7421 119.131 72.4935 120.701 71.9988C122.26 71.5075 123.687 70.7513 124.677 69.678L123.207 68.322ZM106.958 68.0105C104.739 68.3349 102.635 69.1024 100.665 69.8039L101.336 71.6881C103.351 70.9707 105.261 70.2799 107.247 69.9895L106.958 68.0105ZM104.645 78.3666C105.365 79.3853 106.069 80.2308 106.861 80.6657L107.824 78.9127C107.478 78.7225 107.002 78.2366 106.279 77.2125L104.645 78.3666ZM100.135 71.2476C101.532 73.6554 103.017 76.0749 104.647 78.3688L106.277 77.2103C104.697 74.9868 103.247 72.6259 101.866 70.2443L100.135 71.2476ZM108.269 80.9971C108.99 80.9651 109.586 80.6554 110.043 80.3101C110.497 79.9678 110.872 79.5479 111.157 79.2076L109.623 77.9235C109.361 78.2365 109.105 78.5127 108.839 78.7133C108.577 78.911 108.363 78.991 108.181 78.9991L108.269 80.9971ZM111.143 79.2232C111.46 78.8605 111.902 78.3767 112.227 77.9295L110.609 76.7542C110.353 77.1061 110.006 77.4847 109.637 77.9078L111.143 79.2232ZM112.227 77.9295C113.483 76.2004 114.659 74.5137 115.938 72.8765L114.363 71.6448C113.054 73.319 111.835 75.0663 110.609 76.7542L112.227 77.9295ZM115.754 73.6441C116.488 74.4475 117.109 75.3488 117.767 76.3172C118.413 77.2674 119.098 78.2891 119.917 79.2245L121.421 77.9066C120.699 77.0815 120.085 76.1691 119.422 75.1934C118.771 74.236 118.075 73.2194 117.23 72.2948L115.754 73.6441ZM119.913 79.2199C120.351 79.7258 121.06 80.5367 122.051 80.8594L122.67 78.9577C122.282 78.8313 121.906 78.4664 121.425 77.9112L119.913 79.2199ZM124.213 80.6541C125.113 80.1493 125.889 79.1528 126.738 77.904L125.084 76.7797C124.206 78.0704 123.667 78.6671 123.235 78.9094L124.213 80.6541ZM126.738 77.903C128.196 75.7533 129.647 73.52 130.884 71.1843L129.117 70.2479C127.931 72.4855 126.53 74.6468 125.083 76.7807L126.738 77.903ZM130.338 69.7747C129.009 69.2986 127.653 68.8381 126.25 68.4726L125.746 70.4079C127.061 70.7507 128.35 71.1873 129.663 71.6575L130.338 69.7747Z" fill="#333333" mask="url(#path-5-inside-2_125_6845)"/>
<path d="M121.5 107.296L121.041 107.334C117.848 107.597 114.755 107.49 112.175 107.401C111.408 107.374 110.686 107.349 110.02 107.336C110.02 107.336 110.019 107.336 110.018 107.336L110.028 106.836C110.009 106.836 110.006 106.66 110.004 106.542C110.003 106.483 110.002 106.439 110 106.439L121.5 107.296ZM121.5 107.296V106.836V105.456H121.5L121.5 105.443L121.464 104.064C121.436 102.888 121.393 101.226 121.301 99.2927C121.216 97.3665 121.081 95.1906 120.881 93.0061L120.881 93.0054C120.71 91.1637 120.482 89.2897 120.189 87.5302L120.187 87.5207L120.186 87.5112L119.64 84.8683L119.638 84.8587L119.635 84.8492C119.299 83.4895 118.775 82.2394 118.301 81.1771L119.861 77.7362L119.97 77.4961L119.833 77.2706C118.931 75.7825 118.205 74.6338 117.572 73.8506C116.959 73.0933 116.328 72.5391 115.589 72.502C114.831 72.4641 114.193 72.9757 113.597 73.6774C112.982 74.4007 112.287 75.4776 111.431 76.8639L111.296 77.082L111.394 77.3187L112.787 80.6651L112.485 81.3556L121.5 107.296ZM109.5 106.939H109.534L112.941 81.5599C112.339 82.874 111.864 84.6409 111.488 86.6048C111.205 88.0869 110.978 89.6712 110.801 91.2774L110.304 91.2211C110.304 91.2213 110.304 91.2216 110.304 91.2218C110.24 91.7875 110.183 92.3531 110.133 92.9188C109.933 95.0609 109.805 97.2298 109.706 99.2474L109.706 99.2485C109.696 99.4639 109.686 99.6796 109.675 99.8957C109.588 101.722 109.5 103.571 109.5 105.412V106.439V106.939Z" fill="#BDECFF" stroke="#333333"/>
<path fill-rule="evenodd" clip-rule="evenodd" d="M111.442 34.2035C115.157 45.0716 126.648 45.7616 130.018 46.0731C130.295 48.8997 130.179 51.2767 129.39 53.9999C139.906 27.8745 115.538 23.5282 111.09 29.1812C101.273 28.3827 96.0052 41.825 100.792 51.7854C100.32 48.7212 100.477 45.5575 101.273 42.5642C108.28 40.1532 109.897 38.1353 111.442 34.2035Z" fill="#EFEFEF" stroke="#333333" stroke-linejoin="round"/>
<path fill-rule="evenodd" clip-rule="evenodd" d="M109.673 65.5195C101.769 61.2465 98.5036 52.0417 100.639 42.9725C100.775 42.3949 101.3 42 101.893 42V42C99.3882 50.9875 102.437 60.4413 110.133 64.6011C113.488 66.4221 117.5 66.4157 120.857 64.6011C127.405 61.0616 129.594 53.4677 128.875 45.571V45.571C129.421 45.5172 129.908 45.9186 129.941 46.466C130.417 54.2935 128.048 61.8806 121.316 65.5199C117.672 67.4892 113.318 67.4977 109.673 65.5195Z" fill="#333333"/>
<path fill-rule="evenodd" clip-rule="evenodd" d="M111.314 77.0317C111.564 76.9353 111.842 77.0669 111.935 77.3257C112.493 78.8773 113.093 80.0399 113.699 80.8204C114.309 81.6065 114.879 81.9491 115.373 81.9948C115.85 82.0389 116.393 81.817 116.987 81.1406C117.584 80.4608 118.499 78.8814 119.066 77.3232C119.16 77.0647 119.438 76.9342 119.687 77.0315C119.937 77.1288 120.063 77.4172 119.969 77.6756C119.381 79.2921 118.413 81.0023 117.701 81.8136C116.985 82.6283 116.168 83.0723 115.287 82.9908C114.423 82.9108 113.637 82.3362 112.947 81.447C112.252 80.5521 111.608 79.2812 111.03 77.6748C110.937 77.416 111.064 77.1281 111.314 77.0317Z" fill="#333333"/>
<path fill-rule="evenodd" clip-rule="evenodd" d="M36.8712 81.2888L37.8755 73.9648C38.288 73.631 38.665 73.3188 39.0199 73.0249C40.5311 71.7734 41.6427 70.8529 43.3991 70C48.9227 71.4868 57.8931 75.1024 60.5146 77.39C64.9513 81.2627 65.9327 88.5679 66.7243 94.4598C66.817 95.1504 66.9072 95.8215 67 96.4655C61.939 101.471 48.2021 105.332 39.8877 105.684C39.8877 104.871 39.8927 104.041 39.8979 103.198C39.9419 95.9317 39.9919 87.7062 36.8712 81.2888ZM25.8029 70C22.8863 70.72 15.5053 72.9454 10.8554 75.4C3.41736 79.4062 2.18477 88.184 1.12084 95.7608C1.08044 96.0485 1.04027 96.3346 1.00002 96.6185C5.60216 99.3873 10.3609 101.383 15.4999 103C19.5344 104.209 24.125 104.64 28.4999 105C28.5161 103.77 28.5158 102.533 28.5154 101.295C28.5136 94.2282 28.5118 87.0894 31.5663 80.626C30.2204 77.4869 29.9768 77.0972 29.1939 75.8451C28.6039 74.9016 27.7077 73.4684 25.8029 70Z" fill="#FEFEFE"/>
<path fill-rule="evenodd" clip-rule="evenodd" d="M43.2427 69.0529C43.1135 69.0179 42.9792 69 42.845 69H25.0819C24.9595 69 24.8373 69.0139 24.7128 69.0457C21.7235 69.8109 14.6814 72.2411 10.0962 74.6926L10.0925 74.6946C6.22795 76.8028 3.97704 80.2267 2.56026 84.0512C1.14715 87.8657 0.5473 92.1258 0.0137688 95.9494C-0.063217 96.5011 0.180731 97.0529 0.6547 97.3675C7.08629 101.636 13.9855 104.025 20.881 104.995C21.1547 105.033 21.4083 104.846 21.4474 104.577C21.4865 104.307 21.2963 104.057 21.0226 104.019C14.2647 103.068 7.51065 100.728 1.21414 96.5495C1.06199 96.4485 0.979881 96.2687 1.0057 96.0837C1.54183 92.2415 2.1307 88.0878 3.50085 84.3893C4.86707 80.7013 6.99344 77.5134 10.5756 75.5585C15.074 73.1538 22.0353 70.7502 24.9647 70.0003C25.001 69.991 25.0382 69.9863 25.0819 69.9863H42.845C42.8893 69.9863 42.9343 69.9923 42.9773 70.0039C47.95 71.3509 51.4725 72.6877 58.3013 75.5791C58.5553 75.6866 58.8498 75.571 58.9589 75.3208C59.0681 75.0705 58.9507 74.7805 58.6967 74.673C51.8526 71.7751 48.2811 70.4177 43.2427 69.0529Z" fill="#333333"/>
<path d="M43.484 69.294L43.5561 69.5722L43.3519 69.7745C42.3879 70.7297 41.0061 71.4106 39.4618 71.8522C37.9119 72.2953 36.1633 72.5074 34.4288 72.4998C32.6943 72.4922 30.9578 72.2648 29.4316 71.8178C27.9122 71.3728 26.5635 70.6988 25.6447 69.7711L25.4234 69.5477L25.529 69.2514C26.2106 67.3399 26.2579 65.3497 26.2801 63.2634V63.2633V63.2632V63.263V63.2629V63.2627V63.2626V63.2624V63.2622V63.262V63.2619V63.2617V63.2615V63.2613V63.2611V63.261V63.2608V63.2606V63.2604V63.2602V63.26V63.2598V63.2596V63.2594V63.2591V63.2589V63.2587V63.2585V63.2583V63.258V63.2578V63.2576V63.2574V63.2571V63.2569V63.2566V63.2564V63.2561V63.2559V63.2556V63.2554V63.2551V63.2549V63.2546V63.2543V63.2541V63.2538V63.2535V63.2533V63.253V63.2527V63.2524V63.2521V63.2518V63.2516V63.2513V63.251V63.2507V63.2504V63.2501V63.2498V63.2495V63.2492V63.2488V63.2485V63.2482V63.2479V63.2476V63.2473V63.2469V63.2466V63.2463V63.2459V63.2456V63.2453V63.2449V63.2446V63.2442V63.2439V63.2435V63.2432V63.2428V63.2425V63.2421V63.2418V63.2414V63.241V63.2407V63.2403V63.2399V63.2396V63.2392V63.2388V63.2384V63.2381V63.2377V63.2373V63.2369V63.2365V63.2361V63.2357V63.2353V63.2349V63.2345V63.2341V63.2337V63.2333V63.2329V63.2325V63.2321V63.2317V63.2312V63.2308V63.2304V63.23V63.2296V63.2291V63.2287V63.2283V63.2278V63.2274V63.227V63.2265V63.2261V63.2256V63.2252V63.2248V63.2243V63.2239V63.2234V63.223V63.2225V63.222V63.2216V63.2211V63.2207V63.2202V63.2197V63.2193V63.2188V63.2183V63.2178V63.2174V63.2169V63.2164V63.2159V63.2155V63.215V63.2145V63.214V63.2135V63.213V63.2125V63.212V63.2115V63.211V63.2105V63.21V63.2095V63.209V63.2085V63.208V63.2075V63.207V63.2065V63.206V63.2055V63.2049V63.2044V63.2039V63.2034V63.2029V63.2023V63.2018V63.2013V63.2007V63.2002V63.1997V63.1992V63.1986V63.1981V63.1975V63.197V63.1965V63.1959V63.1954V63.1948V63.1943V63.1937V63.1932V63.1926V63.1921V63.1915V63.191V63.1904V63.1899V63.1893V63.1887V63.1882V63.1876V63.1871V63.1865V63.1859V63.1853V63.1848V63.1842V63.1836V63.1831V63.1825V63.1819V63.1813V63.1808V63.1802V63.1796V63.179V63.1784V63.1778V63.1773V63.1767V63.1761V63.1755V63.1749V63.1743V63.1737V63.1731V63.1725V63.1719V63.1713V63.1707V63.1701V63.1695V63.1689V63.1683V63.1677V63.1671V63.1665V63.1659V63.1653V63.1647V63.1641V63.1635V63.1629V63.1623V63.1616V63.161V63.1604V63.1598V63.1592V63.1586V63.1579V63.1573V63.1567V63.1561V63.1555V63.1548V63.1542V63.1536V63.153V63.1523V63.1517V63.1511V63.1504V63.1498V63.1492V63.1485V63.1479V63.1473V63.1466V63.146V63.1454V63.1447V63.1441V63.1435V63.1428V63.1422V63.1415V63.1409V63.1403V63.1396V63.139V63.1383V63.1377V63.137V63.1364V63.1357V63.1351V63.1344V63.1338V63.1331V63.1325V63.1318V63.1312V63.1305V63.1299V63.1292V63.1286V63.1279V63.1273V63.1266V63.126V63.1253V63.1247V63.124V63.1233V63.1227V63.122V63.1214V63.1207V63.12V63.1194V63.1187V63.1181V63.1174V63.1167V63.1161V63.1154V63.1147V63.1141V63.1134V63.1127V63.1121V63.1114V63.1107V63.1101V63.1094V63.1087V63.1081V63.1074V63.1067V63.1061V63.1054V63.1047V63.1041V63.1034V63.1027V63.1021V63.1014V63.1007V63.1V63.0994V63.0987V63.098V63.0974V63.0967V63.096V63.0953V63.0947V63.094V63.0933V63.0927V63.092V63.0913V63.0906V63.09V63.0893V63.0886V63.0879V63.0873V63.0866V63.0859V63.0852V63.0846V63.0839V63.0832V63.0825V63.0819V63.0812V63.0805V63.0798V63.0792V63.0785V63.0778V63.0772V63.0765V63.0758V63.0751V63.0745V63.0738V63.0731V63.0724V63.0718V63.0711V63.0704V63.0697V63.0691V63.0684V63.0677V63.067V63.0664V63.0657V63.065V63.0644V63.0637V63.063V63.0623V63.0617V63.061V63.0603V63.0597V63.059V63.0583V63.0576V63.057V63.0563V63.0556V63.055V63.0543V63.0536V63.053V63.0523V63.0516V63.051V63.0503V63.0496V63.049V63.0483V63.0476V63.047V63.0463V63.0456V63.045V63.0443V63.0437V63.043V63.0423V63.0417V63.041V63.0403V63.0397V63.039V63.0384V63.0377V63.037V63.0364V63.0357V63.0351V63.0344V63.0338V63.0331V63.0325V63.0318V63.0311V63.0305V63.0298V63.0292V63.0285V63.0279V63.0272V63.0266V63.0259V63.0253V63.0246V63.024V63.0234V63.0227V63.0221V63.0214V63.0208V63.0201V63.0195V63.0189V63.0182V63.0176V63.0169V63.0163V63.0157V63.015V63.0144V63.0138V63.0131V63.0125V63.0119V63.0112V63.0106V63.01V63.0093V63.0087V63.0081V63.0075V63.0068V63.0062V63.0056V63.005V63.0043V63.0037V63.0031V63.0025V63.0019V63.0012V63.0006V63V62.0368L27.0678 62.5911C29.3082 64.1674 31.9392 65.0761 34.7576 65.0761C37.4067 65.0761 39.8954 64.2749 42.0416 62.8688L42.8156 62.3617V63.287V63.2874V63.2878V63.2882V63.2887V63.2891V63.2895V63.2899V63.2903V63.2907V63.2911V63.2915V63.2919V63.2923V63.2928V63.2932V63.2936V63.294V63.2944V63.2948V63.2952V63.2956V63.296V63.2964V63.2969V63.2973V63.2977V63.2981V63.2985V63.2989V63.2993V63.2997V63.3001V63.3005V63.3009V63.3013V63.3018V63.3022V63.3026V63.303V63.3034V63.3038V63.3042V63.3046V63.305V63.3054V63.3058V63.3062V63.3067V63.3071V63.3075V63.3079V63.3083V63.3087V63.3091V63.3095V63.3099V63.3103V63.3107V63.3111V63.3115V63.3119V63.3123V63.3127V63.3131V63.3135V63.314V63.3144V63.3148V63.3152V63.3156V63.316V63.3164V63.3168V63.3172V63.3176V63.318V63.3184V63.3188V63.3192V63.3196V63.32V63.3204V63.3208V63.3212V63.3216V63.322V63.3224V63.3228V63.3232V63.3236V63.324V63.3244V63.3248V63.3252V63.3256V63.326V63.3264V63.3268V63.3272V63.3276V63.328V63.3284V63.3287V63.3291V63.3295V63.3299V63.3303V63.3307V63.3311V63.3315V63.3319V63.3323V63.3327V63.3331V63.3335V63.3339V63.3343V63.3346V63.335V63.3354V63.3358V63.3362V63.3366V63.337V63.3374V63.3378V63.3381V63.3385V63.3389V63.3393V63.3397V63.3401V63.3405V63.3408V63.3412V63.3416V63.342V63.3424V63.3428V63.3432V63.3435V63.3439V63.3443V63.3447V63.3451V63.3454V63.3458V63.3462V63.3466V63.347V63.3473V63.3477V63.3481V63.3485V63.3488V63.3492V63.3496V63.35V63.3503V63.3507V63.3511V63.3515V63.3518V63.3522V63.3526V63.353V63.3533V63.3537V63.3541V63.3544V63.3548V63.3552V63.3555V63.3559V63.3563V63.3566V63.357V63.3574V63.3577V63.3581V63.3585V63.3588V63.3592V63.3596V63.3599V63.3603V63.3606V63.361V63.3614V63.3617V63.3621V63.3624V63.3628V63.3632V63.3635V63.3639V63.3642V63.3646V63.3649V63.3653V63.3656V63.366V63.3664V63.3667V63.3671V63.3674V63.3678V63.3681V63.3685V63.3688V63.3692V63.3695V63.3698V63.3702V63.3705V63.3709V63.3712V63.3716V63.3719V63.3723V63.3726V63.3729V63.3733V63.3736V63.374V63.3743V63.3746V63.375V63.3753V63.3756V63.376V63.3763V63.3766V63.377V63.3773V63.3776V63.378V63.3783V63.3786V63.379V63.3793V63.3796V63.38V63.3803V63.3806V63.3809V63.3813V63.3816V63.3819V63.3822V63.3825V63.3829V63.3832V63.3835V63.3838V63.3841V63.3845V63.3848V63.3851V63.3854V63.3857V63.386V63.3864V63.3867V63.387V63.3873V63.3876V63.3879V63.3882V63.3885V63.3888V63.3891V63.3894V63.3897V63.3901V63.3904V63.3907V63.391V63.3913V63.3916V63.3919V63.3922V63.3925V63.3928V63.393V63.3933V63.3936V63.3939V63.3942V63.3945V63.3948V63.3951V63.3954V63.3957V63.396V63.3963V63.3965V63.3968V63.3971V63.3974V63.3977V63.398V63.3982V63.3985V63.3988V63.3991V63.3994V63.3996V63.3999V63.4002V63.4005V63.4007V63.401V63.4013V63.4015V63.4018V63.4021V63.4024V63.4026V63.4029V63.4032V63.4034V63.4037V63.4039V63.4042V63.4045V63.4047V63.405V63.4052V63.4055V63.4058V63.406V63.4063V63.4065V63.4068V63.407V63.4073V63.4075V63.4078V63.408V63.4083V63.4085V63.4088V63.409V63.4093V63.4095V63.4097V63.41V63.4102V63.4105V63.4107V63.4109V63.4112V63.4114V63.4116V63.4119V63.4121V63.4123V63.4125V63.4128V63.413V63.4132V63.4135V63.4137V63.4139V63.4141V63.4143V63.4146V63.4148V63.415V63.4152V63.4154V63.4157V63.4159V63.4161V63.4163V63.4165V63.4167V63.4169V63.4171V63.4173V63.4175V63.4177V63.4179V63.4181V63.4183V63.4185V63.4187V63.4189V63.4191V63.4193V63.4195V63.4197V63.4199V63.4201V63.4203V63.4205V63.4207C42.819 63.4851 42.8225 63.5494 42.8259 63.6137C42.9328 65.6212 43.0362 67.5638 43.484 69.294Z" fill="#FEFEFE" stroke="#333333"/>
<path fill-rule="evenodd" clip-rule="evenodd" d="M34.001 66C27.502 66 21.9724 60.8703 19.8819 53.6845C19.0837 50.9116 18.83 47.9745 19.11 45.0962C22.5178 44.7787 34.1612 44.0756 37.9331 33C39.4987 37.0069 41.1371 39.0632 48.244 41.5203C49.0502 44.5687 49.2096 47.7894 48.7318 50.91C47.5492 58.5104 41.9263 66 34.001 66Z" fill="#FEFEFE"/>
<path d="M44.1307 77.5088C45.617 75.4151 46.978 73.4353 48.266 71.2631C47.9502 71.144 47.6348 71.0208 47.3211 70.8977C47.2776 70.8807 47.2342 70.8636 47.1907 70.8466C46.7316 70.6663 46.2759 70.4875 45.8177 70.319C44.8976 69.9808 43.9875 69.6925 43.0742 69.5344C41.345 71.2201 38.4143 72.0783 35.4542 72.2291C36.0071 72.9568 36.5304 73.7197 37.0453 74.4705C37.3057 74.8503 37.564 75.2269 37.823 75.5943C38.6687 76.7942 39.5396 77.9245 40.5813 78.8775C41.2041 79.4417 41.8488 79.6668 42.4186 79.3607C42.8759 79.1085 43.4084 78.5323 44.13 77.5099L44.1307 77.5088ZM31.8238 74.4231C32.3494 73.6814 32.8756 72.9388 33.4203 72.2225C32.0348 72.1431 30.6741 71.9102 29.4493 71.5239C28.0414 71.0799 26.7831 70.4235 25.8814 69.5361C24.1292 69.8391 22.426 70.389 20.716 70.9935C21.8533 73.076 23.1632 75.0904 24.5034 77.0692C25.3703 78.346 25.9675 79.0429 26.5153 79.3529C27.1095 79.6614 27.7268 79.4417 28.3458 78.8833C29.3605 77.7952 30.2379 76.6373 31.0828 75.4634C31.3309 75.1187 31.5773 74.771 31.8238 74.4231Z" fill="#E2E2E2" stroke="#333333"/>
<path fill-rule="evenodd" clip-rule="evenodd" d="M28.9307 105.898C28.4063 105.87 27.9997 105.434 28.0013 104.909C28.024 97.2245 28.3839 88.5601 31.9254 81.4977C32.0814 81.1867 32.0738 80.8174 31.8965 80.518L30.4479 78.0712C30.2429 77.7249 30.2665 77.288 30.5058 76.9645C32.7755 73.8969 33.4236 72.9999 34.2716 73C35.2431 73.0001 36.2147 74.2958 38.0254 76.4856C38.2831 76.7972 38.3309 77.2336 38.1436 77.5921L36.603 80.5409C36.4527 80.8288 36.4452 81.161 36.5549 81.4666C37.9405 85.3269 42.4827 105.841 40.5118 105.841C37.3834 105.894 33.2753 106.134 28.9307 105.898Z" fill="#BDECFF"/>
<path d="M31.4663 80.7727L30.0176 78.3259C29.7095 77.8056 29.7458 77.1512 30.1039 76.6672C30.1506 76.604 30.1966 76.5418 30.242 76.4804C31.2914 75.0618 32.0022 74.101 32.5517 73.4958C33.1235 72.866 33.6246 72.4999 34.2717 72.5C34.9799 72.5001 35.5949 72.9686 36.1894 73.5702C36.693 74.0797 37.2686 74.7795 37.9553 75.6143C38.1019 75.7925 38.2536 75.9769 38.4107 76.1669C38.7954 76.6321 38.8681 77.2851 38.5868 77.8236L37.0462 80.7725C36.9685 80.9213 36.9569 81.1064 37.0255 81.2977C37.7328 83.2683 39.2207 89.3959 40.2833 95.0082C40.8155 97.8186 41.2455 100.523 41.418 102.532C41.5038 103.531 41.5287 104.387 41.4616 105.006C41.4286 105.309 41.3693 105.601 41.2557 105.831C41.1404 106.064 40.9082 106.338 40.5169 106.341C39.7548 106.354 38.9297 106.378 38.0538 106.404C35.365 106.483 32.1973 106.576 28.9036 106.398C28.1099 106.355 27.499 105.695 27.5013 104.907C27.524 97.2297 27.8779 88.4536 31.4785 81.2736C31.5609 81.1093 31.5539 80.9206 31.4663 80.7727Z" stroke="#333333"/>
<path fill-rule="evenodd" clip-rule="evenodd" d="M40.1603 64.6076C48.3898 60.4444 51.7507 50.8224 49.1231 42L48.1515 42.2775C50.6671 50.7235 47.4249 59.8173 39.6954 63.7273C36.3255 65.439 32.2952 65.4329 28.9227 63.7272C22.3464 60.4006 19.3961 52.8452 20.1179 45.4236L19.1104 45.3296C18.3627 53.018 21.4046 61.0396 28.4583 64.6078C32.1207 66.4601 36.497 66.4681 40.1603 64.6076Z" fill="#333333"/>
<path fill-rule="evenodd" clip-rule="evenodd" d="M38.6791 77.0329C38.4214 76.9348 38.1321 77.062 38.0329 77.317C37.4188 78.8969 36.756 80.0768 36.0802 80.8605C35.403 81.6458 34.7564 81.9857 34.1671 82.009C33.5822 82.0322 32.9156 81.7485 32.1835 80.9811C31.4508 80.2131 30.6974 79.004 29.9592 77.2997C29.8504 77.0486 29.5565 76.9323 29.3027 77.0399C29.0488 77.1475 28.9313 77.4383 29.04 77.6894C29.8018 79.448 30.611 80.7742 31.4563 81.6603C32.3024 82.5471 33.2296 83.0363 34.2071 82.9976C35.1803 82.9591 36.065 82.4024 36.8409 81.5027C37.6183 80.6013 38.3305 79.3077 38.9663 77.6722C39.0654 77.4172 38.9368 77.1309 38.6791 77.0329Z" fill="#333333"/>
<path fill-rule="evenodd" clip-rule="evenodd" d="M37.7453 33.5767C33.9882 44.3878 21.9467 44.6901 18.5384 45C18.2587 47.8117 18.7383 50.2911 19.5355 53C9.43056 27.5166 32.3961 24.1273 38.3077 28.7483C48.2347 27.954 52.6669 40.6987 48.3498 50C48.8269 46.9518 48.331 44.7164 47.8441 41.5C40.5702 39.232 39.5 37.5 37.7453 33.5767Z" fill="#EFEFEF"/>
<path fill-rule="evenodd" clip-rule="evenodd" d="M17.4147 37.7268C16.5208 41.7824 17.007 46.9465 19.6726 53.3616C19.7747 53.6073 20.0513 53.73 20.302 53.6407C20.5527 53.5515 20.6895 53.2815 20.6133 53.0265C19.8808 50.5754 19.6225 47.9838 19.8298 45.4312C21.6691 45.2722 25.1882 44.9527 28.7493 43.5117C32.3347 42.061 35.9894 39.4626 38.036 34.7408C38.7018 36.1679 39.4839 37.3605 40.7361 38.4287C42.2509 39.7209 44.4173 40.8003 47.8052 41.9465C48.5252 44.7107 48.6569 47.6216 48.2082 50.4443C48.1694 50.6883 48.3146 50.924 48.5499 50.9991C48.7852 51.0743 49.0402 50.9663 49.1499 50.745C51.6214 45.7629 51.4972 39.9185 49.4869 35.409C47.5072 30.9679 43.6512 27.7459 38.581 28.0315C37.2673 26.614 34.8145 25.9394 32.1384 26.0043C29.3064 26.0729 26.0812 26.9677 23.335 28.8612C20.5808 30.7603 18.3102 33.664 17.4147 37.7268ZM32.1627 27.004C34.8496 26.9389 37.0091 27.6686 37.9788 28.8623C38.0824 28.9899 38.2422 29.0584 38.4061 29.0455C43.0629 28.6786 46.6806 31.5697 48.5736 35.8161C50.0406 39.1071 50.4424 43.1651 49.4674 47.0113C49.4552 45.1275 49.2006 43.2453 48.7009 41.4256C48.6568 41.2647 48.5352 41.1364 48.3769 41.0836C44.88 39.918 42.7897 38.8661 41.3851 37.6679C39.9953 36.4823 39.2394 35.1219 38.4768 33.2418C38.3987 33.0493 38.2096 32.9251 38.0019 32.9299C37.7942 32.9347 37.6111 33.0674 37.5419 33.2634C35.7379 38.3754 32.0531 41.0961 28.3742 42.5847C24.9075 43.9875 21.4735 44.285 19.6588 44.4422C19.5406 44.4524 19.4292 44.4621 19.3252 44.4714C19.0864 44.4928 18.8964 44.6806 18.8723 44.9191C18.7861 45.7728 18.7497 46.632 18.7635 47.4905C18 44 17.8143 40.5596 18.3913 37.942C19.2275 34.1482 21.3376 31.4532 23.9027 29.6845C26.4758 27.9103 29.5086 27.0683 32.1627 27.004Z" fill="#333333"/>
<path fill-rule="evenodd" clip-rule="evenodd" d="M86.8015 73C90.8229 74 101 77.0908 107.411 80.5C117.666 86.0641 119.366 98.2556 120.833 108.779C120.889 109.178 120.944 109.576 121 109.97C116.338 112.795 111.684 115.516 106.588 117.52C104.092 118.444 103.163 118.762 101.126 119.407C95.563 121.086 89.3148 122.5 83.2828 123C83.2637 121.533 83.258 120.036 83.2523 118.52C83.2133 108.198 83.1708 96.9575 78.8549 87.7583C80.7107 83.3984 81.0466 82.8572 82.1261 81.1182C82.9395 79.8078 84.1752 77.8173 86.8015 73ZM71.8944 88.2549L67.1973 79.5C65.3074 77.9335 62.8255 77.1522 60.4934 76.4182C59.1038 75.9808 57.7673 75.5601 56.6411 75C55.7447 75.3109 54.8204 75.6233 53.8839 75.9398C48.2369 77.8482 42.1443 79.9072 39.0177 82.702C32.8482 88.2177 31.4836 98.6224 30.3829 107.014C30.2539 107.998 30.1286 108.954 29.9995 109.871C37.0369 117 56.1244 122.5 67.6858 123C67.6858 121.842 67.6929 120.66 67.6858 119.46C67.6245 109.111 67.5551 97.3952 71.8944 88.2549Z" fill="#FEFEFE"/>
<path fill-rule="evenodd" clip-rule="evenodd" d="M107.82 79.7379L107.828 79.7418C113.223 82.6599 116.336 87.3091 118.278 92.4912C120.204 97.6293 121.007 103.371 121.735 108.573L121.742 108.627L121.743 108.631C121.798 109.028 121.853 109.421 121.908 109.812L122 110.462L121.437 110.802C116.781 113.614 112.07 116.363 106.896 118.391L106.886 118.395L106.877 118.399C104.371 119.323 103.429 119.645 101.377 120.293L101.364 120.297C95.7665 121.981 89.4561 123.407 83.3425 123.912L82.2755 124L82.2616 122.933C82.2425 121.467 82.2368 119.974 82.2311 118.466V118.465C82.1919 108.136 82.1332 97.1847 77.9349 88.2642L77.7453 87.8612L77.9202 87.4516C79.7854 83.0831 80.1434 82.4951 81.2567 80.7071L81.2599 80.7021C82.0635 79.4115 83.2879 77.4453 85.8967 72.675L86.2659 72L87.0143 72.1855C91.057 73.1877 101.311 76.2875 107.82 79.7379ZM67.9864 78.9793L73.0073 88.3083L72.7909 88.7627C68.5749 97.6154 68.6236 109.027 68.6852 119.39C68.6923 120.585 68.6993 121.764 68.6993 122.92V123.959L67.6577 123.914C61.7753 123.661 54.0298 122.145 46.8741 119.806C39.7524 117.478 33.0352 114.275 29.347 110.551L29 110.2L29.0688 109.713C29.1969 108.805 29.3215 107.859 29.4504 106.879L29.4549 106.844C30.0016 102.689 30.625 97.9508 31.8938 93.5593C33.1651 89.1594 35.1151 84.991 38.3965 82.0665C40.0848 80.5621 42.5118 79.3029 45.1529 78.1948C47.8021 77.0832 50.7608 76.0865 53.5666 75.1412L53.586 75.1347C54.5218 74.8194 55.4409 74.5097 56.3316 74.2018L56.7279 74.0648L57.1034 74.251C58.1441 74.7669 59.3981 75.1629 60.805 75.6044L60.8916 75.6316C63.1611 76.3435 65.7977 77.1707 67.8361 78.855L67.9864 78.9793ZM83.2489 121.922C83.2384 120.783 83.234 119.628 83.2296 118.461C83.1906 108.186 83.1482 96.998 78.8389 87.8414C80.6918 83.5017 81.0273 82.963 82.1051 81.2321C82.9173 79.9278 84.151 77.9464 86.7734 73.1515C90.7886 74.1469 100.95 77.2233 107.352 80.6167C117.592 86.1551 119.288 98.2901 120.753 108.765L120.753 108.766C120.809 109.163 120.864 109.558 120.92 109.95C116.265 112.762 111.618 115.47 106.53 117.465C104.037 118.385 103.11 118.701 101.076 119.344C95.8276 120.923 89.9683 122.266 84.2574 122.829C83.9244 122.862 83.5919 122.892 83.26 122.92C83.2557 122.589 83.252 122.256 83.2489 121.922ZM39.062 82.8085C42.1839 80.0267 48.2673 77.9772 53.9057 76.0776C54.8408 75.7626 55.7637 75.4517 56.6588 75.1422C57.7833 75.6997 59.1177 76.1184 60.5052 76.5538C62.8337 77.2845 65.3119 78.0621 67.1989 79.6214L71.8889 88.3358C67.5562 97.4337 67.6255 109.095 67.6867 119.396L67.6867 119.397C67.6918 120.249 67.6968 121.092 67.6992 121.923C67.7002 122.258 67.7008 122.59 67.7008 122.92C67.3739 122.906 67.0409 122.888 66.7023 122.866C55.0862 122.111 36.8853 116.747 30.0576 109.852C30.1864 108.939 30.3116 107.987 30.4404 107.008C31.5394 98.6552 32.902 88.2987 39.062 82.8085Z" fill="#333333"/>
<path d="M63.5141 72.1545L63.4501 72.4185L63.6366 72.6158C66.1684 75.2941 70.9593 76.5214 75.5957 76.4997C77.9312 76.4888 80.2669 76.1618 82.3163 75.5209C84.3601 74.8818 86.1542 73.9194 87.3666 72.6124L87.5681 72.3951L87.4743 72.1139C86.5105 69.2281 86.4446 66.1135 86.4446 63V61.999L85.6443 62.6002C82.5856 64.8979 78.9953 66.2211 75.1515 66.2211C71.5387 66.2211 68.1427 65.0544 65.2126 63.0049L64.426 62.4547V63.4146C64.426 66.3134 64.1904 69.3648 63.5141 72.1545Z" fill="#FEFEFE" stroke="#333333"/>
<path fill-rule="evenodd" clip-rule="evenodd" d="M74.9998 66C80.834 66 86.0982 63.2496 89.9137 58.8186C94.655 53.2942 96.5865 45.8392 95.8467 38.7617C91.0759 38.348 74.7755 37.4318 69.495 23C67.3033 28.2211 65.0096 30.9006 55.0602 34.1022C54.3772 36.5058 54 39.0671 54 41.7368C54 53.1337 62.0358 66 74.9998 66Z" fill="#FEFEFE"/>
<path fill-rule="evenodd" clip-rule="evenodd" d="M84 123.83C83.9523 120.301 83.8834 116.775 83.7059 113.25C83.5799 110.549 83.3803 107.498 83.0862 104.437C82.8341 101.859 82.498 99.2398 82.0673 96.785L81.2586 93.0667C80.7439 91.0946 80.1347 89.2971 79.3994 87.7462L81.6367 82.6002C75.2672 73.6398 76.574 73.9414 69.9567 82.6618L71.2696 85.3118L72.383 87.5921L72.0574 88.27C71.1646 90.1188 70.4608 92.6045 69.9042 95.3675C69.484 97.4526 69.1479 99.6815 68.8853 101.941C68.7908 102.732 68.7067 103.523 68.6332 104.314C68.3391 107.313 68.1501 110.353 68.003 113.188C67.9701 113.852 68.2184 123.29 68.2186 123.56C72.5733 123.642 77.9106 124.306 84 123.83Z" fill="url(#paint0_linear_125_6845)"/>
<path fill-rule="evenodd" clip-rule="evenodd" d="M84 123.857L83.0908 123.931C78.7106 124.286 74.4629 124.141 70.9351 124.021C69.8909 123.985 68.9098 123.952 68.007 123.934C67.511 123.927 67.257 123.573 67.1975 123.481C67.1179 123.358 67.0947 123.09 67.0819 123.047C67.0519 122.946 67.0393 122.851 67.0334 122.802C67.0195 122.686 67.0122 122.548 67.0078 122.41C66.9985 122.124 66.9981 121.731 67.0034 121.275C67.014 120.358 67.0483 119.134 67.0899 117.899C67.173 115.426 67.2863 112.874 67.3017 112.552L67.3018 112.549C67.4376 109.83 67.6127 106.903 67.8858 104.01C67.9543 103.245 68.0325 102.481 68.1204 101.717C68.3648 99.5328 68.6784 97.3718 69.0718 95.3439C69.5907 92.6694 70.258 90.1966 71.1317 88.3172L71.2352 88.0935L70.4088 86.3357L68.9418 83.2609L69.2939 82.7791C69.9132 81.9314 70.4679 81.1514 70.9654 80.4517C71.6642 79.469 72.2503 78.6447 72.7449 78.0138C73.1748 77.4656 73.5873 76.9939 74.0008 76.6514C74.416 76.3075 74.9167 76.023 75.5122 76.0013C76.1193 75.9792 76.6358 76.2362 77.0648 76.5748C77.4846 76.9061 77.8933 77.3723 78.3116 77.9152C78.8833 78.6572 79.565 79.6681 80.4044 80.9128C80.7846 81.4766 81.1972 82.0884 81.6466 82.745L81.954 83.1941L79.8475 88.226C80.477 89.6845 80.9995 91.3259 81.4421 93.0874L81.447 93.1067L82.2008 96.7058L82.2041 96.7252C82.6061 99.1054 82.9189 101.639 83.1531 104.126L83.1532 104.127C83.4261 107.076 83.611 110.012 83.7278 112.611C83.8923 116.005 83.956 119.395 84 122.776V123.857ZM78.7833 88.2376L80.8461 83.3101C77.9431 79.0689 76.7695 76.9948 75.5879 76.9901C74.3792 76.9853 73.1622 79.1465 70.0768 83.3691L71.2874 85.9066L72.3139 88.09L72.0137 88.7392C71.1905 90.5095 70.5416 92.8897 70.0284 95.5353C69.641 97.5319 69.3311 99.6662 69.0889 101.83C69.0018 102.587 68.9243 103.345 68.8565 104.102C68.5853 106.974 68.411 109.885 68.2754 112.6C68.2451 113.235 68 123 68 123C68.9267 123.018 70 123 71 123C74.5 123 78.7064 123.14 83.0252 122.789C82.9812 119.41 82.9177 116.034 82.754 112.659C82.6378 110.072 82.4538 107.151 82.1826 104.22C81.9502 101.751 81.6403 99.2433 81.2432 96.8926L80.4975 93.3322C80.0229 91.4439 79.4612 89.7227 78.7833 88.2376Z" fill="#333333"/>
<path fill-rule="evenodd" clip-rule="evenodd" d="M67.271 65.0925C56.0839 59.3745 50.4962 47.1479 54.0772 35L55.0441 35.279C51.5747 47.0485 57.0442 58.7439 67.7336 64.2073C72.4082 66.6063 77.9977 66.5975 82.6751 64.2073C91.7796 59.5539 95.841 50.001 94.8467 39.6713L95.8494 39.5768C96.8695 50.1748 92.7169 60.1965 83.1373 65.0927C78.1714 67.6304 72.2375 67.6412 67.271 65.0925Z" fill="#333333"/>
<path fill-rule="evenodd" clip-rule="evenodd" d="M81.6773 83.029C81.9377 83.1142 82.0667 83.3606 81.9655 83.5795C81.067 85.5213 79.2796 87.9717 78.2447 88.8344C77.1998 89.7053 76.0774 90.0808 74.9443 89.9856C73.8316 89.8921 72.8099 89.3526 71.9248 88.5737C71.0364 87.7918 69.6937 85.2617 69.0455 84.0631C68.9298 83.8493 69.0423 83.5972 69.2967 83.5C69.5511 83.4028 69.8511 83.4974 69.9668 83.7112C70.5835 84.8516 71.8689 87.293 72.6566 87.9862C73.4477 88.6824 74.2602 89.0733 75.045 89.1393C75.8094 89.2035 76.6477 88.9676 77.532 88.2305C78.4262 87.4851 80.1498 85.1569 81.0223 83.2712C81.1236 83.0523 81.4168 82.9439 81.6773 83.029Z" fill="#333333"/>
<path fill-rule="evenodd" clip-rule="evenodd" d="M69.6703 23.614C74.8209 38.2726 90.7509 39.2031 95.4234 39.6233C95.8068 43.4358 95.4602 47.3271 94.3673 51C108.945 15.763 75.3487 9.21557 69.1822 16.84C55.5735 15.763 47.7687 33.5658 54.404 47C53.7499 42.867 54.4696 38.9279 55.5734 34.8906C65.2869 31.6387 67.5284 28.9171 69.6703 23.614Z" fill="#EFEFEF" stroke="#333333" stroke-linejoin="round"/>
<path d="M57.6649 78.0749C57.0058 77.1726 56.3644 76.2739 55.7403 75.261C56.499 74.9722 57.2624 74.6438 58.0177 74.3188C58.4635 74.127 58.9064 73.9364 59.344 73.7559C60.6489 73.2176 61.9373 72.7539 63.2398 72.5338C64.5191 73.7927 66.3217 74.7093 68.3492 75.3163C70.113 75.8443 72.0707 76.1454 74.0529 76.2277C72.7529 77.877 71.5191 79.5739 70.2869 81.2688C69.8474 81.8733 69.4081 82.4775 68.9661 83.0792L68.966 83.0792L68.9606 83.0869C68.9351 83.123 68.9068 83.1672 68.8872 83.1979C68.8816 83.2066 68.8768 83.2142 68.8729 83.2202C68.8495 83.2563 68.8361 83.2747 68.8275 83.285C68.4182 83.7598 67.9985 84.2351 67.5765 84.7129L67.5764 84.7129L67.5697 84.7207C67.2796 85.0632 67.0037 85.3514 66.7422 85.5878C66.489 85.8144 66.2528 86.0056 66.0278 86.1457L66.0267 86.1464C65.6865 86.3595 65.3238 86.4812 64.9428 86.4979L64.9413 86.498C64.6084 86.5137 64.2954 86.4372 63.985 86.2722C63.6399 86.0845 63.2614 85.772 62.8304 85.3072C61.8036 84.1637 60.9538 82.8502 60.0908 81.5162C60.0689 81.4823 60.047 81.4485 60.0251 81.4146L60.0247 81.414C59.3417 80.362 58.6616 79.4346 58 78.5324C57.8877 78.3793 57.776 78.227 57.6649 78.0749ZM76.1725 76.2915C76.1582 76.2724 76.1439 76.2533 76.1295 76.2342C78.2508 76.1598 80.3456 75.8368 82.2059 75.2667C84.1963 74.6568 85.9525 73.7535 87.1757 72.537C87.6277 72.6202 88.0161 72.7258 88.5044 72.8586C88.7545 72.9266 89.0308 73.0017 89.3554 73.0846C90.4064 73.3555 91.5683 73.697 92.7812 74.0992C92.8515 74.1259 92.9473 74.1622 93.0487 74.1892C93.3386 74.2847 93.6274 74.3851 93.9246 74.4885C94.0283 74.5245 94.1331 74.5609 94.2393 74.5976C94.2405 74.5982 94.2527 74.6037 94.2792 74.6213C94.2978 74.6337 94.3174 74.6478 94.3406 74.6653C93.5814 76.0372 92.8107 77.2078 91.9735 78.4791C91.6941 78.9034 91.4073 79.3389 91.1111 79.797L91.1108 79.7974L91.0015 79.9668C90.2516 81.1292 89.5943 82.148 88.9466 83.0925C88.3103 84.018 87.7518 84.7503 87.2601 85.297C86.8422 85.7484 86.4636 86.0624 86.106 86.2617C85.7893 86.4249 85.482 86.4955 85.1375 86.4874L85.1375 86.4873H85.1257C84.511 86.4873 83.9153 86.0966 83.3384 85.5777C83.087 85.3516 82.8098 85.0623 82.5054 84.7146L82.5035 84.7123L81.7191 83.8271L80.9579 82.968C80.8353 82.7845 80.7052 82.6126 80.5693 82.445C80.1793 81.876 79.819 81.3446 79.4845 80.8513C78.3155 79.1272 77.4624 77.8691 76.7613 77.1024C76.5786 76.8321 76.3754 76.5616 76.1725 76.2915Z" fill="#BDECFF" stroke="#333333"/>
<path fill-rule="evenodd" clip-rule="evenodd" d="M119 147C133.869 147 146 134.869 146 120C146 105.131 133.869 93 119 93C104.13 93 91.9995 105.131 91.9995 120C91.9995 134.869 104.12 147 119 147Z" fill="url(#paint1_linear_125_6845)"/>
<path fill-rule="evenodd" clip-rule="evenodd" d="M147 120C147 135.422 134.421 148 119 148C103.568 148 90.9995 135.421 90.9995 120C90.9995 104.578 103.578 92 119 92C134.421 92 147 104.578 147 120ZM146 120C146 134.869 133.869 147 119 147C104.12 147 91.9995 134.869 91.9995 120C91.9995 105.131 104.13 93 119 93C133.869 93 146 105.131 146 120Z" fill="#333333"/>
<path fill-rule="evenodd" clip-rule="evenodd" d="M108.118 121.935C107.374 121.935 106.494 121.578 106.006 121L106.005 129.5C105.91 132 107.08 132 108.14 132H133.063C134.124 132 135.097 131.5 134.992 129.737V121C134.504 121.575 133.829 121.935 133.085 121.935H108.118Z" fill="white"/>
<path fill-rule="evenodd" clip-rule="evenodd" d="M124 107C125 107 125 108 125 108C125 108 125 108 125 108V109.5C125 109.776 125.223 110 125.5 110V110C125.776 110 126 109.776 126 109.5V108C126 107 125.5 106 124 106H116C114.5 106 114 107 114 108V109.5C114 109.776 114.223 110 114.5 110V110C114.776 110 115 109.776 115 109.5V108C115 107.324 115.433 107 116 107H124Z" fill="white"/>
<path fill-rule="evenodd" clip-rule="evenodd" d="M107.747 111C105 111 105 112.257 105 113.796V120.204C105 120.969 105.307 121.666 105.802 122.172C106.301 122.682 106.989 123 107.749 123H133.253C134.102 123 134.501 122.01 135 121.5C135.495 120.994 135.5 120.765 135.5 120L136 113.796C136 112.259 134.764 111 133.253 111H107.747Z" fill="#FEFEFE"/>
<path fill-rule="evenodd" clip-rule="evenodd" d="M104 113.296C104 111.489 105.451 110 107.247 110H112C112.276 110 112.5 110.224 112.5 110.5C112.5 110.776 112.276 111 112 111H107.247C106.02 111 105 112.025 105 113.296V119.704C105 120.334 105.252 120.907 105.658 121.322C106.327 122.005 107.16 122.003 108.285 122C108.355 122 108.427 122 108.5 122C108.776 122 109 122.224 109 122.5C109 122.776 108.776 123 108.5 123C108.41 123 108.319 123.001 108.226 123.001C107.183 123.01 105.921 123.02 104.944 122.022C104.361 121.426 104 120.605 104 119.704V113.296ZM117.5 110.5C117.5 110.224 117.723 110 118 110H122C122.276 110 122.5 110.224 122.5 110.5C122.5 110.776 122.276 111 122 111H118C117.723 111 117.5 110.776 117.5 110.5ZM117 122.5C117 122.224 117.223 122 117.5 122H122.5C122.776 122 123 122.224 123 122.5C123 122.776 122.776 123 122.5 123H120H117.5C117.223 123 117 122.776 117 122.5Z" fill="#333333"/>
<path fill-rule="evenodd" clip-rule="evenodd" d="M136 113.296C136 111.459 134.435 110 132.57 110H127.5C127.224 110 127 110.224 127 110.5C127 110.776 127.224 111 127.5 111H132.57C133.928 111 135 112.055 135 113.296V119.704C135 120.323 134.736 120.892 134.299 121.311C133.574 122.005 132.662 122.003 131.464 122C131.388 122 131.311 122 131.233 122C130.957 122 130.733 122.224 130.733 122.5C130.733 122.776 130.957 123 131.233 123C131.329 123 131.426 123.001 131.526 123.001C132.638 123.01 133.961 123.019 134.991 122.033L134.991 122.033C135.609 121.44 136 120.616 136 119.704V113.296Z" fill="#333333"/>
<path fill-rule="evenodd" clip-rule="evenodd" d="M105.5 124C105.776 124 106 124.224 106 124.5V130.421C106 131.32 107.182 132 107.944 132H133.056C133.818 132 135 131.32 135 130.421V124.5C135 124.224 135.224 124 135.5 124C135.776 124 136 124.224 136 124.5V130.421C136 131.808 134.432 133 133.056 133H107.944C106.568 133 105 131.808 105 130.421V124.5C105 124.224 105.224 124 105.5 124Z" fill="#333333"/>
<path fill-rule="evenodd" clip-rule="evenodd" d="M115 121.302C115 121.136 114.858 121 114.686 121H111.315C111.141 121 111 121.136 111 121.302V123.698C111 123.864 111.141 124 111.315 124H114.684C114.856 124 114.997 123.864 114.997 123.698V121.302H115Z" fill="url(#paint2_linear_125_6845)"/>
<path fill-rule="evenodd" clip-rule="evenodd" d="M116 122.302H115.997V123.698C115.997 124.452 115.372 125 114.684 125H111.315C110.63 125 110 124.456 110 123.698V121.302C110 120.544 110.63 120 111.315 120H114.686C115.374 120 116 120.548 116 121.302V122.302ZM115 121.302C115 121.291 114.999 121.279 114.997 121.268C114.98 121.118 114.846 121 114.686 121H111.315C111.141 121 111 121.136 111 121.302V123.698C111 123.864 111.141 124 111.315 124H114.684C114.856 124 114.997 123.864 114.997 123.698V121.302H115Z" fill="#333333"/>
<path fill-rule="evenodd" clip-rule="evenodd" d="M125 121.302V123.698C125 123.864 125.141 124 125.314 124H128.683C128.858 124 129 123.864 129 123.698V121.302C129 121.136 128.858 121 128.683 121H125.314C125.139 121.002 125 121.136 125 121.302Z" fill="url(#paint3_linear_125_6845)"/>
<path fill-rule="evenodd" clip-rule="evenodd" d="M125.314 120V120H128.683C129.369 120 130 120.544 130 121.302V123.698C130 124.456 129.369 125 128.683 125H125.314C124.625 125 124 124.452 124 123.698V121.302C124 120.543 124.627 120.007 125.303 120L125.314 120ZM125.314 121H128.683C128.858 121 129 121.137 129 121.302V123.698C129 123.864 128.858 124 128.683 124H125.314C125.141 124 125 123.864 125 123.698V121.302C125 121.137 125.139 121.002 125.314 121Z" fill="#333333"/>
</g>
<defs>
<linearGradient id="paint0_linear_125_6845" x1="59.2347" y1="79.9299" x2="78.1038" y2="109.705" gradientUnits="userSpaceOnUse">
<stop stop-color="#FFC671"/>
<stop offset="1" stop-color="#FF6F3D"/>
</linearGradient>
<linearGradient id="paint1_linear_125_6845" x1="91.9996" y1="90.8906" x2="146" y2="147" gradientUnits="userSpaceOnUse">
<stop stop-color="#FF8E3D"/>
<stop offset="1" stop-color="#FF6F3D"/>
</linearGradient>
<linearGradient id="paint2_linear_125_6845" x1="110.496" y1="119.991" x2="113.083" y2="123.122" gradientUnits="userSpaceOnUse">
<stop stop-color="#FFC671"/>
<stop offset="1" stop-color="#FF6F3D"/>
</linearGradient>
<linearGradient id="paint3_linear_125_6845" x1="124.494" y1="119.991" x2="127.082" y2="123.123" gradientUnits="userSpaceOnUse">
<stop stop-color="#FFC671"/>
<stop offset="1" stop-color="#FF6F3D"/>
</linearGradient>
<clipPath id="clip0_125_6845">
<rect width="150" height="150" fill="white"/>
</clipPath>
</defs>
</svg>
