<svg width="150" height="150" viewBox="0 0 150 150" fill="none" xmlns="http://www.w3.org/2000/svg">
<path fill-rule="evenodd" clip-rule="evenodd" d="M69 16H98V8.1529C98 6.96661 96.8992 6 95.5483 6H71.4517C70.1008 6 69 6.96661 69 8.1529V16Z" fill="url(#paint0_linear_125_6953)"/>
<path fill-rule="evenodd" clip-rule="evenodd" d="M68 17V8.1529C68 6.29618 69.6745 5 71.4517 5H95.5483C97.3255 5 99 6.29618 99 8.1529V17H68ZM98 8.1529C98 6.96661 96.8992 6 95.5483 6H71.4517C70.1008 6 69 6.96661 69 8.1529V16H98V8.1529Z" fill="#333333"/>
<path fill-rule="evenodd" clip-rule="evenodd" d="M109 31V144H134V42.4467C134 40.9403 132.593 40.2862 131.145 39.7114L114.875 33.2299L109 31Z" fill="#BDECFF"/>
<path fill-rule="evenodd" clip-rule="evenodd" d="M59 53H21.2426C18.9131 53 17 54.8944 17 57.2131V144H59V53Z" fill="#EFEFEF"/>
<path fill-rule="evenodd" clip-rule="evenodd" d="M17 56.8056C17 54.1547 19.1906 52 21.8498 52H55.5C55.7761 52 56 52.2239 56 52.5C56 52.7761 55.7761 53 55.5 53H21.8498C19.7324 53 18 54.7174 18 56.8056V144.5C18 144.776 17.7761 145 17.5 145C17.2239 145 17 144.776 17 144.5V56.8056Z" fill="#333333"/>
<path fill-rule="evenodd" clip-rule="evenodd" d="M117.042 33.5005C117.152 33.2447 117.446 33.1278 117.698 33.2395L131.688 39.2088C132.388 39.5165 133.152 39.8795 133.775 40.4312C134.5 41.067 135 41.9234 135 43.103V144.692C135 144.971 134.777 145.197 134.501 145.197C134.226 145.197 134.002 144.971 134.002 144.692V43.103C134.002 42.2605 133.663 41.6696 133.121 41.195L133.119 41.193C132.624 40.754 131.989 40.4428 131.291 40.136L131.29 40.1356L117.299 34.1659C117.047 34.0542 116.931 33.7564 117.042 33.5005Z" fill="#333333"/>
<path fill-rule="evenodd" clip-rule="evenodd" d="M62.291 16H105.719C107.525 16 109 17.5208 109 19.3841V145H59V19.3841C59 17.5208 60.4844 16 62.291 16Z" fill="#FEFEFE"/>
<path fill-rule="evenodd" clip-rule="evenodd" d="M105.719 17H62.291C61.0617 17 60 18.0477 60 19.3841V144H108V19.3841C108 18.0438 106.944 17 105.719 17ZM105.719 16H62.291C60.4844 16 59 17.5208 59 19.3841V145H109V19.3841C109 17.5208 107.525 16 105.719 16Z" fill="#333333"/>
<path fill-rule="evenodd" clip-rule="evenodd" d="M4.95565 149H145.044C146.122 149 147 148.283 147 147.403V146.597C147 145.717 146.122 145 145.044 145H4.95565C3.87805 145 3 145.717 3 146.597V147.403C3 148.283 3.87805 149 4.95565 149Z" fill="#BDECFF"/>
<path fill-rule="evenodd" clip-rule="evenodd" d="M145.044 150H4.95565C3.52486 150 2 149.015 2 147.403V146.597C2 144.985 3.52486 144 4.95565 144H145.044C146.475 144 148 144.985 148 146.597V147.403C148 149.015 146.475 150 145.044 150ZM145.044 149H4.95565C3.87805 149 3 148.283 3 147.403V146.597C3 145.717 3.87805 145 4.95565 145H145.044C146.122 145 147 145.717 147 146.597V147.403C147 148.283 146.122 149 145.044 149Z" fill="#333333"/>
<path fill-rule="evenodd" clip-rule="evenodd" d="M27.0717 61H35.9283C36.5147 61 37 61.5556 37 62.253V64.747C37 65.4326 36.5147 66 35.9283 66H27.0717C26.4853 66 26 65.4444 26 64.747V62.253C26 61.5556 26.4853 61 27.0717 61Z" fill="#BDECFF"/>
<path fill-rule="evenodd" clip-rule="evenodd" d="M27.091 62C27.0869 62.0034 27.0811 62.0089 27.0738 62.0174C27.0412 62.0553 27 62.1347 27 62.253V64.747C27 64.8653 27.0412 64.9447 27.0738 64.9826C27.0811 64.9911 27.0869 64.9966 27.091 65H35.9051C35.9097 64.9961 35.9161 64.99 35.9241 64.9806C35.9606 64.938 36 64.8565 36 64.747V62.253C36 62.1347 35.9588 62.0553 35.9262 62.0174C35.9189 62.0089 35.9131 62.0034 35.909 62H27.091ZM35.9015 61.9949C35.9016 61.9948 35.9024 61.9952 35.904 61.9962C35.9023 61.9955 35.9015 61.995 35.9015 61.9949ZM35.8964 65.006C35.8963 65.0059 35.8972 65.0053 35.8991 65.0046C35.8973 65.0057 35.8964 65.0061 35.8964 65.006ZM27.0985 65.0051C27.0984 65.0052 27.0976 65.0048 27.096 65.0038C27.0977 65.0045 27.0985 65.005 27.0985 65.0051ZM27.096 61.9962C27.0976 61.9952 27.0984 61.9948 27.0985 61.9949C27.0985 61.995 27.0977 61.9955 27.096 61.9962ZM35.9283 61H27.0717C26.4853 61 26 61.5556 26 62.253V64.747C26 65.4444 26.4853 66 27.0717 66H35.9283C36.5147 66 37 65.4326 37 64.747V62.253C37 61.5556 36.5147 61 35.9283 61Z" fill="#333333"/>
<path fill-rule="evenodd" clip-rule="evenodd" d="M27.0717 93H35.9283C36.5147 93 37 93.5556 37 94.253V96.747C37 97.4326 36.5147 98 35.9283 98H27.0717C26.4853 98 26 97.4444 26 96.747V94.253C26 93.5556 26.4853 93 27.0717 93Z" fill="#BDECFF"/>
<path fill-rule="evenodd" clip-rule="evenodd" d="M27.091 94C27.0869 94.0034 27.0811 94.0089 27.0738 94.0174C27.0412 94.0553 27 94.1347 27 94.253V96.747C27 96.8653 27.0412 96.9447 27.0738 96.9826C27.0811 96.9911 27.0869 96.9966 27.091 97H35.9051C35.9097 96.9961 35.9161 96.99 35.9241 96.9806C35.9606 96.938 36 96.8565 36 96.747V94.253C36 94.1347 35.9588 94.0553 35.9262 94.0174C35.9189 94.0089 35.9131 94.0034 35.909 94H27.091ZM35.9015 93.9949C35.9016 93.9948 35.9024 93.9952 35.904 93.9962C35.9023 93.9955 35.9015 93.995 35.9015 93.9949ZM35.8964 97.006C35.8963 97.0059 35.8972 97.0053 35.8991 97.0046C35.8973 97.0057 35.8964 97.0061 35.8964 97.006ZM27.0985 97.0051C27.0984 97.0052 27.0976 97.0048 27.096 97.0038C27.0977 97.0045 27.0985 97.005 27.0985 97.0051ZM27.096 93.9962C27.0976 93.9952 27.0984 93.9948 27.0985 93.9949C27.0985 93.995 27.0977 93.9955 27.096 93.9962ZM35.9283 93H27.0717C26.4853 93 26 93.5556 26 94.253V96.747C26 97.4444 26.4853 98 27.0717 98H35.9283C36.5147 98 37 97.4326 37 96.747V94.253C37 93.5556 36.5147 93 35.9283 93Z" fill="#333333"/>
<path fill-rule="evenodd" clip-rule="evenodd" d="M27.0717 77H35.9283C36.5147 77 37 77.5556 37 78.253V80.747C37 81.4326 36.5147 82 35.9283 82H27.0717C26.4853 82 26 81.4444 26 80.747V78.253C26 77.5556 26.4853 77 27.0717 77Z" fill="#BDECFF"/>
<path fill-rule="evenodd" clip-rule="evenodd" d="M27.091 78C27.0869 78.0034 27.0811 78.0089 27.0738 78.0174C27.0412 78.0553 27 78.1347 27 78.253V80.747C27 80.8653 27.0412 80.9447 27.0738 80.9826C27.0811 80.9911 27.0869 80.9966 27.091 81H35.9051C35.9097 80.9961 35.9161 80.99 35.9241 80.9806C35.9606 80.938 36 80.8565 36 80.747V78.253C36 78.1347 35.9588 78.0553 35.9262 78.0174C35.9189 78.0089 35.9131 78.0034 35.909 78H27.091ZM35.9015 77.9949C35.9016 77.9948 35.9024 77.9952 35.904 77.9962C35.9023 77.9955 35.9015 77.995 35.9015 77.9949ZM35.8964 81.006C35.8963 81.0059 35.8972 81.0053 35.8991 81.0046C35.8973 81.0057 35.8964 81.0061 35.8964 81.006ZM27.0985 81.0051C27.0984 81.0052 27.0976 81.0048 27.096 81.0038C27.0977 81.0045 27.0985 81.005 27.0985 81.0051ZM27.096 77.9962C27.0976 77.9952 27.0984 77.9948 27.0985 77.9949C27.0985 77.995 27.0977 77.9955 27.096 77.9962ZM35.9283 77H27.0717C26.4853 77 26 77.5556 26 78.253V80.747C26 81.4444 26.4853 82 27.0717 82H35.9283C36.5147 82 37 81.4326 37 80.747V78.253C37 77.5556 36.5147 77 35.9283 77Z" fill="#333333"/>
<path fill-rule="evenodd" clip-rule="evenodd" d="M27.0717 109H35.9283C36.5147 109 37 109.556 37 110.253V112.747C37 113.433 36.5147 114 35.9283 114H27.0717C26.4853 114 26 113.444 26 112.747V110.253C26 109.556 26.4853 109 27.0717 109Z" fill="#BDECFF"/>
<path fill-rule="evenodd" clip-rule="evenodd" d="M27.091 110C27.0869 110.003 27.0811 110.009 27.0738 110.017C27.0412 110.055 27 110.135 27 110.253V112.747C27 112.865 27.0412 112.945 27.0738 112.983C27.0811 112.991 27.0869 112.997 27.091 113H35.9051C35.9097 112.996 35.9161 112.99 35.9241 112.981C35.9606 112.938 36 112.856 36 112.747V110.253C36 110.135 35.9588 110.055 35.9262 110.017C35.9189 110.009 35.9131 110.003 35.909 110H27.091ZM35.9015 109.995C35.9016 109.995 35.9024 109.995 35.904 109.996C35.9023 109.996 35.9015 109.995 35.9015 109.995ZM35.8964 113.006C35.8963 113.006 35.8972 113.005 35.8991 113.005C35.8973 113.006 35.8964 113.006 35.8964 113.006ZM27.0985 113.005C27.0984 113.005 27.0976 113.005 27.096 113.004C27.0977 113.004 27.0985 113.005 27.0985 113.005ZM27.096 109.996C27.0976 109.995 27.0984 109.995 27.0985 109.995C27.0985 109.995 27.0977 109.996 27.096 109.996ZM35.9283 109H27.0717C26.4853 109 26 109.556 26 110.253V112.747C26 113.444 26.4853 114 27.0717 114H35.9283C36.5147 114 37 113.433 37 112.747V110.253C37 109.556 36.5147 109 35.9283 109Z" fill="#333333"/>
<path fill-rule="evenodd" clip-rule="evenodd" d="M27.0717 125H35.9283C36.5147 125 37 125.556 37 126.253V128.747C37 129.433 36.5147 130 35.9283 130H27.0717C26.4853 130 26 129.444 26 128.747V126.253C26 125.556 26.4853 125 27.0717 125Z" fill="#BDECFF"/>
<path fill-rule="evenodd" clip-rule="evenodd" d="M27.091 126C27.0869 126.003 27.0811 126.009 27.0738 126.017C27.0412 126.055 27 126.135 27 126.253V128.747C27 128.865 27.0412 128.945 27.0738 128.983C27.0811 128.991 27.0869 128.997 27.091 129H35.9051C35.9097 128.996 35.9161 128.99 35.9241 128.981C35.9606 128.938 36 128.856 36 128.747V126.253C36 126.135 35.9588 126.055 35.9262 126.017C35.9189 126.009 35.9131 126.003 35.909 126H27.091ZM35.9015 125.995C35.9016 125.995 35.9024 125.995 35.904 125.996C35.9023 125.996 35.9015 125.995 35.9015 125.995ZM35.8964 129.006C35.8963 129.006 35.8972 129.005 35.8991 129.005C35.8973 129.006 35.8964 129.006 35.8964 129.006ZM27.0985 129.005C27.0984 129.005 27.0976 129.005 27.096 129.004C27.0977 129.004 27.0985 129.005 27.0985 129.005ZM27.096 125.996C27.0976 125.995 27.0984 125.995 27.0985 125.995C27.0985 125.995 27.0977 125.996 27.096 125.996ZM35.9283 125H27.0717C26.4853 125 26 125.556 26 126.253V128.747C26 129.444 26.4853 130 27.0717 130H35.9283C36.5147 130 37 129.433 37 128.747V126.253C37 125.556 36.5147 125 35.9283 125Z" fill="#333333"/>
<path fill-rule="evenodd" clip-rule="evenodd" d="M27.0717 69H35.9283C36.5147 69 37 69.5556 37 70.253V72.747C37 73.4326 36.5147 74 35.9283 74H27.0717C26.4853 74 26 73.4444 26 72.747V70.253C26 69.5556 26.4853 69 27.0717 69Z" fill="#BDECFF"/>
<path fill-rule="evenodd" clip-rule="evenodd" d="M27.091 70C27.0869 70.0034 27.0811 70.0089 27.0738 70.0174C27.0412 70.0553 27 70.1347 27 70.253V72.747C27 72.8653 27.0412 72.9447 27.0738 72.9826C27.0811 72.9911 27.0869 72.9966 27.091 73H35.9051C35.9097 72.9961 35.9161 72.99 35.9241 72.9806C35.9606 72.938 36 72.8565 36 72.747V70.253C36 70.1347 35.9588 70.0553 35.9262 70.0174C35.9189 70.0089 35.9131 70.0034 35.909 70H27.091ZM35.9015 69.9949C35.9016 69.9948 35.9024 69.9952 35.904 69.9962C35.9023 69.9955 35.9015 69.995 35.9015 69.9949ZM35.8964 73.006C35.8963 73.0059 35.8972 73.0053 35.8991 73.0046C35.8973 73.0057 35.8964 73.0061 35.8964 73.006ZM27.0985 73.0051C27.0984 73.0052 27.0976 73.0048 27.096 73.0038C27.0977 73.0045 27.0985 73.005 27.0985 73.0051ZM27.096 69.9962C27.0976 69.9952 27.0984 69.9948 27.0985 69.9949C27.0985 69.995 27.0977 69.9955 27.096 69.9962ZM35.9283 69H27.0717C26.4853 69 26 69.5556 26 70.253V72.747C26 73.4444 26.4853 74 27.0717 74H35.9283C36.5147 74 37 73.4326 37 72.747V70.253C37 69.5556 36.5147 69 35.9283 69Z" fill="#333333"/>
<path fill-rule="evenodd" clip-rule="evenodd" d="M27.0717 101H35.9283C36.5147 101 37 101.556 37 102.253V104.747C37 105.433 36.5147 106 35.9283 106H27.0717C26.4853 106 26 105.444 26 104.747V102.253C26 101.556 26.4853 101 27.0717 101Z" fill="#BDECFF"/>
<path fill-rule="evenodd" clip-rule="evenodd" d="M27.091 102C27.0869 102.003 27.0811 102.009 27.0738 102.017C27.0412 102.055 27 102.135 27 102.253V104.747C27 104.865 27.0412 104.945 27.0738 104.983C27.0811 104.991 27.0869 104.997 27.091 105H35.9051C35.9097 104.996 35.9161 104.99 35.9241 104.981C35.9606 104.938 36 104.856 36 104.747V102.253C36 102.135 35.9588 102.055 35.9262 102.017C35.9189 102.009 35.9131 102.003 35.909 102H27.091ZM35.9015 101.995C35.9016 101.995 35.9024 101.995 35.904 101.996C35.9023 101.996 35.9015 101.995 35.9015 101.995ZM35.8964 105.006C35.8963 105.006 35.8972 105.005 35.8991 105.005C35.8973 105.006 35.8964 105.006 35.8964 105.006ZM27.0985 105.005C27.0984 105.005 27.0976 105.005 27.096 105.004C27.0977 105.004 27.0985 105.005 27.0985 105.005ZM27.096 101.996C27.0976 101.995 27.0984 101.995 27.0985 101.995C27.0985 101.995 27.0977 101.996 27.096 101.996ZM35.9283 101H27.0717C26.4853 101 26 101.556 26 102.253V104.747C26 105.444 26.4853 106 27.0717 106H35.9283C36.5147 106 37 105.433 37 104.747V102.253C37 101.556 36.5147 101 35.9283 101Z" fill="#333333"/>
<path fill-rule="evenodd" clip-rule="evenodd" d="M27.0717 85H35.9283C36.5147 85 37 85.5556 37 86.253V88.747C37 89.4326 36.5147 90 35.9283 90H27.0717C26.4853 90 26 89.4444 26 88.747V86.253C26 85.5556 26.4853 85 27.0717 85Z" fill="#BDECFF"/>
<path fill-rule="evenodd" clip-rule="evenodd" d="M27.091 86C27.0869 86.0034 27.0811 86.0089 27.0738 86.0174C27.0412 86.0553 27 86.1347 27 86.253V88.747C27 88.8653 27.0412 88.9447 27.0738 88.9826C27.0811 88.9911 27.0869 88.9966 27.091 89H35.9051C35.9097 88.9961 35.9161 88.99 35.9241 88.9806C35.9606 88.938 36 88.8565 36 88.747V86.253C36 86.1347 35.9588 86.0553 35.9262 86.0174C35.9189 86.0089 35.9131 86.0034 35.909 86H27.091ZM35.9015 85.9949C35.9016 85.9948 35.9024 85.9952 35.904 85.9962C35.9023 85.9955 35.9015 85.995 35.9015 85.9949ZM35.8964 89.006C35.8963 89.0059 35.8972 89.0053 35.8991 89.0046C35.8973 89.0057 35.8964 89.0061 35.8964 89.006ZM27.0985 89.0051C27.0984 89.0052 27.0976 89.0048 27.096 89.0038C27.0977 89.0045 27.0985 89.005 27.0985 89.0051ZM27.096 85.9962C27.0976 85.9952 27.0984 85.9948 27.0985 85.9949C27.0985 85.995 27.0977 85.9955 27.096 85.9962ZM35.9283 85H27.0717C26.4853 85 26 85.5556 26 86.253V88.747C26 89.4444 26.4853 90 27.0717 90H35.9283C36.5147 90 37 89.4326 37 88.747V86.253C37 85.5556 36.5147 85 35.9283 85Z" fill="#333333"/>
<path fill-rule="evenodd" clip-rule="evenodd" d="M27.0717 117H35.9283C36.5147 117 37 117.556 37 118.253V120.747C37 121.433 36.5147 122 35.9283 122H27.0717C26.4853 122 26 121.444 26 120.747V118.253C26 117.556 26.4853 117 27.0717 117Z" fill="#BDECFF"/>
<path fill-rule="evenodd" clip-rule="evenodd" d="M27.091 118C27.0869 118.003 27.0811 118.009 27.0738 118.017C27.0412 118.055 27 118.135 27 118.253V120.747C27 120.865 27.0412 120.945 27.0738 120.983C27.0811 120.991 27.0869 120.997 27.091 121H35.9051C35.9097 120.996 35.9161 120.99 35.9241 120.981C35.9606 120.938 36 120.856 36 120.747V118.253C36 118.135 35.9588 118.055 35.9262 118.017C35.9189 118.009 35.9131 118.003 35.909 118H27.091ZM35.9015 117.995C35.9016 117.995 35.9024 117.995 35.904 117.996C35.9023 117.996 35.9015 117.995 35.9015 117.995ZM35.8964 121.006C35.8963 121.006 35.8972 121.005 35.8991 121.005C35.8973 121.006 35.8964 121.006 35.8964 121.006ZM27.0985 121.005C27.0984 121.005 27.0976 121.005 27.096 121.004C27.0977 121.004 27.0985 121.005 27.0985 121.005ZM27.096 117.996C27.0976 117.995 27.0984 117.995 27.0985 117.995C27.0985 117.995 27.0977 117.996 27.096 117.996ZM35.9283 117H27.0717C26.4853 117 26 117.556 26 118.253V120.747C26 121.444 26.4853 122 27.0717 122H35.9283C36.5147 122 37 121.433 37 120.747V118.253C37 117.556 36.5147 117 35.9283 117Z" fill="#333333"/>
<path fill-rule="evenodd" clip-rule="evenodd" d="M27.0717 133H35.9283C36.5147 133 37 133.556 37 134.253V136.747C37 137.433 36.5147 138 35.9283 138H27.0717C26.4853 138 26 137.444 26 136.747V134.253C26 133.556 26.4853 133 27.0717 133Z" fill="#BDECFF"/>
<path fill-rule="evenodd" clip-rule="evenodd" d="M27.091 134C27.0869 134.003 27.0811 134.009 27.0738 134.017C27.0412 134.055 27 134.135 27 134.253V136.747C27 136.865 27.0412 136.945 27.0738 136.983C27.0811 136.991 27.0869 136.997 27.091 137H35.9051C35.9097 136.996 35.9161 136.99 35.9241 136.981C35.9606 136.938 36 136.856 36 136.747V134.253C36 134.135 35.9588 134.055 35.9262 134.017C35.9189 134.009 35.9131 134.003 35.909 134H27.091ZM35.9015 133.995C35.9016 133.995 35.9024 133.995 35.904 133.996C35.9023 133.996 35.9015 133.995 35.9015 133.995ZM35.8964 137.006C35.8963 137.006 35.8972 137.005 35.8991 137.005C35.8973 137.006 35.8964 137.006 35.8964 137.006ZM27.0985 137.005C27.0984 137.005 27.0976 137.005 27.096 137.004C27.0977 137.004 27.0985 137.005 27.0985 137.005ZM27.096 133.996C27.0976 133.995 27.0984 133.995 27.0985 133.995C27.0985 133.995 27.0977 133.996 27.096 133.996ZM35.9283 133H27.0717C26.4853 133 26 133.556 26 134.253V136.747C26 137.444 26.4853 138 27.0717 138H35.9283C36.5147 138 37 137.433 37 136.747V134.253C37 133.556 36.5147 133 35.9283 133Z" fill="#333333"/>
<path fill-rule="evenodd" clip-rule="evenodd" d="M42.0717 61H50.9283C51.5147 61 52 61.5556 52 62.253V64.747C52 65.4326 51.5147 66 50.9283 66H42.0717C41.4853 66 41 65.4444 41 64.747V62.253C41 61.5556 41.4853 61 42.0717 61Z" fill="#BDECFF"/>
<path fill-rule="evenodd" clip-rule="evenodd" d="M42.091 62C42.0869 62.0034 42.0811 62.0089 42.0738 62.0174C42.0412 62.0553 42 62.1347 42 62.253V64.747C42 64.8653 42.0412 64.9447 42.0738 64.9826C42.0811 64.9911 42.0869 64.9966 42.091 65H50.9051C50.9097 64.9961 50.9161 64.99 50.9241 64.9806C50.9606 64.938 51 64.8565 51 64.747V62.253C51 62.1347 50.9588 62.0553 50.9262 62.0174C50.9189 62.0089 50.9131 62.0034 50.909 62H42.091ZM50.9015 61.9949C50.9016 61.9948 50.9024 61.9952 50.904 61.9962C50.9023 61.9955 50.9015 61.995 50.9015 61.9949ZM50.8964 65.006C50.8963 65.0059 50.8972 65.0053 50.8991 65.0046C50.8973 65.0057 50.8964 65.0061 50.8964 65.006ZM42.0985 65.0051C42.0984 65.0052 42.0976 65.0048 42.096 65.0038C42.0977 65.0045 42.0985 65.005 42.0985 65.0051ZM42.096 61.9962C42.0976 61.9952 42.0984 61.9948 42.0985 61.9949C42.0985 61.995 42.0977 61.9955 42.096 61.9962ZM50.9283 61H42.0717C41.4853 61 41 61.5556 41 62.253V64.747C41 65.4444 41.4853 66 42.0717 66H50.9283C51.5147 66 52 65.4326 52 64.747V62.253C52 61.5556 51.5147 61 50.9283 61Z" fill="#333333"/>
<path fill-rule="evenodd" clip-rule="evenodd" d="M42.0717 93H50.9283C51.5147 93 52 93.5556 52 94.253V96.747C52 97.4326 51.5147 98 50.9283 98H42.0717C41.4853 98 41 97.4444 41 96.747V94.253C41 93.5556 41.4853 93 42.0717 93Z" fill="#BDECFF"/>
<path fill-rule="evenodd" clip-rule="evenodd" d="M42.091 94C42.0869 94.0034 42.0811 94.0089 42.0738 94.0174C42.0412 94.0553 42 94.1347 42 94.253V96.747C42 96.8653 42.0412 96.9447 42.0738 96.9826C42.0811 96.9911 42.0869 96.9966 42.091 97H50.9051C50.9097 96.9961 50.9161 96.99 50.9241 96.9806C50.9606 96.938 51 96.8565 51 96.747V94.253C51 94.1347 50.9588 94.0553 50.9262 94.0174C50.9189 94.0089 50.9131 94.0034 50.909 94H42.091ZM50.9015 93.9949C50.9016 93.9948 50.9024 93.9952 50.904 93.9962C50.9023 93.9955 50.9015 93.995 50.9015 93.9949ZM50.8964 97.006C50.8963 97.0059 50.8972 97.0053 50.8991 97.0046C50.8973 97.0057 50.8964 97.0061 50.8964 97.006ZM42.0985 97.0051C42.0984 97.0052 42.0976 97.0048 42.096 97.0038C42.0977 97.0045 42.0985 97.005 42.0985 97.0051ZM42.096 93.9962C42.0976 93.9952 42.0984 93.9948 42.0985 93.9949C42.0985 93.995 42.0977 93.9955 42.096 93.9962ZM50.9283 93H42.0717C41.4853 93 41 93.5556 41 94.253V96.747C41 97.4444 41.4853 98 42.0717 98H50.9283C51.5147 98 52 97.4326 52 96.747V94.253C52 93.5556 51.5147 93 50.9283 93Z" fill="#333333"/>
<path fill-rule="evenodd" clip-rule="evenodd" d="M42.0717 77H50.9283C51.5147 77 52 77.5556 52 78.253V80.747C52 81.4326 51.5147 82 50.9283 82H42.0717C41.4853 82 41 81.4444 41 80.747V78.253C41 77.5556 41.4853 77 42.0717 77Z" fill="#BDECFF"/>
<path fill-rule="evenodd" clip-rule="evenodd" d="M42.091 78C42.0869 78.0034 42.0811 78.0089 42.0738 78.0174C42.0412 78.0553 42 78.1347 42 78.253V80.747C42 80.8653 42.0412 80.9447 42.0738 80.9826C42.0811 80.9911 42.0869 80.9966 42.091 81H50.9051C50.9097 80.9961 50.9161 80.99 50.9241 80.9806C50.9606 80.938 51 80.8565 51 80.747V78.253C51 78.1347 50.9588 78.0553 50.9262 78.0174C50.9189 78.0089 50.9131 78.0034 50.909 78H42.091ZM50.9015 77.9949C50.9016 77.9948 50.9024 77.9952 50.904 77.9962C50.9023 77.9955 50.9015 77.995 50.9015 77.9949ZM50.8964 81.006C50.8963 81.0059 50.8972 81.0053 50.8991 81.0046C50.8973 81.0057 50.8964 81.0061 50.8964 81.006ZM42.0985 81.0051C42.0984 81.0052 42.0976 81.0048 42.096 81.0038C42.0977 81.0045 42.0985 81.005 42.0985 81.0051ZM42.096 77.9962C42.0976 77.9952 42.0984 77.9948 42.0985 77.9949C42.0985 77.995 42.0977 77.9955 42.096 77.9962ZM50.9283 77H42.0717C41.4853 77 41 77.5556 41 78.253V80.747C41 81.4444 41.4853 82 42.0717 82H50.9283C51.5147 82 52 81.4326 52 80.747V78.253C52 77.5556 51.5147 77 50.9283 77Z" fill="#333333"/>
<path fill-rule="evenodd" clip-rule="evenodd" d="M42.0717 109H50.9283C51.5147 109 52 109.556 52 110.253V112.747C52 113.433 51.5147 114 50.9283 114H42.0717C41.4853 114 41 113.444 41 112.747V110.253C41 109.556 41.4853 109 42.0717 109Z" fill="#BDECFF"/>
<path fill-rule="evenodd" clip-rule="evenodd" d="M42.091 110C42.0869 110.003 42.0811 110.009 42.0738 110.017C42.0412 110.055 42 110.135 42 110.253V112.747C42 112.865 42.0412 112.945 42.0738 112.983C42.0811 112.991 42.0869 112.997 42.091 113H50.9051C50.9097 112.996 50.9161 112.99 50.9241 112.981C50.9606 112.938 51 112.856 51 112.747V110.253C51 110.135 50.9588 110.055 50.9262 110.017C50.9189 110.009 50.9131 110.003 50.909 110H42.091ZM50.9015 109.995C50.9016 109.995 50.9024 109.995 50.904 109.996C50.9023 109.996 50.9015 109.995 50.9015 109.995ZM50.8964 113.006C50.8963 113.006 50.8972 113.005 50.8991 113.005C50.8973 113.006 50.8964 113.006 50.8964 113.006ZM42.0985 113.005C42.0984 113.005 42.0976 113.005 42.096 113.004C42.0977 113.004 42.0985 113.005 42.0985 113.005ZM42.096 109.996C42.0976 109.995 42.0984 109.995 42.0985 109.995C42.0985 109.995 42.0977 109.996 42.096 109.996ZM50.9283 109H42.0717C41.4853 109 41 109.556 41 110.253V112.747C41 113.444 41.4853 114 42.0717 114H50.9283C51.5147 114 52 113.433 52 112.747V110.253C52 109.556 51.5147 109 50.9283 109Z" fill="#333333"/>
<path fill-rule="evenodd" clip-rule="evenodd" d="M42.0717 125H50.9283C51.5147 125 52 125.556 52 126.253V128.747C52 129.433 51.5147 130 50.9283 130H42.0717C41.4853 130 41 129.444 41 128.747V126.253C41 125.556 41.4853 125 42.0717 125Z" fill="#BDECFF"/>
<path fill-rule="evenodd" clip-rule="evenodd" d="M42.091 126C42.0869 126.003 42.0811 126.009 42.0738 126.017C42.0412 126.055 42 126.135 42 126.253V128.747C42 128.865 42.0412 128.945 42.0738 128.983C42.0811 128.991 42.0869 128.997 42.091 129H50.9051C50.9097 128.996 50.9161 128.99 50.9241 128.981C50.9606 128.938 51 128.856 51 128.747V126.253C51 126.135 50.9588 126.055 50.9262 126.017C50.9189 126.009 50.9131 126.003 50.909 126H42.091ZM50.9015 125.995C50.9016 125.995 50.9024 125.995 50.904 125.996C50.9023 125.996 50.9015 125.995 50.9015 125.995ZM50.8964 129.006C50.8963 129.006 50.8972 129.005 50.8991 129.005C50.8973 129.006 50.8964 129.006 50.8964 129.006ZM42.0985 129.005C42.0984 129.005 42.0976 129.005 42.096 129.004C42.0977 129.004 42.0985 129.005 42.0985 129.005ZM42.096 125.996C42.0976 125.995 42.0984 125.995 42.0985 125.995C42.0985 125.995 42.0977 125.996 42.096 125.996ZM50.9283 125H42.0717C41.4853 125 41 125.556 41 126.253V128.747C41 129.444 41.4853 130 42.0717 130H50.9283C51.5147 130 52 129.433 52 128.747V126.253C52 125.556 51.5147 125 50.9283 125Z" fill="#333333"/>
<path fill-rule="evenodd" clip-rule="evenodd" d="M42.0717 69H50.9283C51.5147 69 52 69.5556 52 70.253V72.747C52 73.4326 51.5147 74 50.9283 74H42.0717C41.4853 74 41 73.4444 41 72.747V70.253C41 69.5556 41.4853 69 42.0717 69Z" fill="#BDECFF"/>
<path fill-rule="evenodd" clip-rule="evenodd" d="M42.091 70C42.0869 70.0034 42.0811 70.0089 42.0738 70.0174C42.0412 70.0553 42 70.1347 42 70.253V72.747C42 72.8653 42.0412 72.9447 42.0738 72.9826C42.0811 72.9911 42.0869 72.9966 42.091 73H50.9051C50.9097 72.9961 50.9161 72.99 50.9241 72.9806C50.9606 72.938 51 72.8565 51 72.747V70.253C51 70.1347 50.9588 70.0553 50.9262 70.0174C50.9189 70.0089 50.9131 70.0034 50.909 70H42.091ZM50.9015 69.9949C50.9016 69.9948 50.9024 69.9952 50.904 69.9962C50.9023 69.9955 50.9015 69.995 50.9015 69.9949ZM50.8964 73.006C50.8963 73.0059 50.8972 73.0053 50.8991 73.0046C50.8973 73.0057 50.8964 73.0061 50.8964 73.006ZM42.0985 73.0051C42.0984 73.0052 42.0976 73.0048 42.096 73.0038C42.0977 73.0045 42.0985 73.005 42.0985 73.0051ZM42.096 69.9962C42.0976 69.9952 42.0984 69.9948 42.0985 69.9949C42.0985 69.995 42.0977 69.9955 42.096 69.9962ZM50.9283 69H42.0717C41.4853 69 41 69.5556 41 70.253V72.747C41 73.4444 41.4853 74 42.0717 74H50.9283C51.5147 74 52 73.4326 52 72.747V70.253C52 69.5556 51.5147 69 50.9283 69Z" fill="#333333"/>
<path fill-rule="evenodd" clip-rule="evenodd" d="M42.0717 101H50.9283C51.5147 101 52 101.556 52 102.253V104.747C52 105.433 51.5147 106 50.9283 106H42.0717C41.4853 106 41 105.444 41 104.747V102.253C41 101.556 41.4853 101 42.0717 101Z" fill="#BDECFF"/>
<path fill-rule="evenodd" clip-rule="evenodd" d="M42.091 102C42.0869 102.003 42.0811 102.009 42.0738 102.017C42.0412 102.055 42 102.135 42 102.253V104.747C42 104.865 42.0412 104.945 42.0738 104.983C42.0811 104.991 42.0869 104.997 42.091 105H50.9051C50.9097 104.996 50.9161 104.99 50.9241 104.981C50.9606 104.938 51 104.856 51 104.747V102.253C51 102.135 50.9588 102.055 50.9262 102.017C50.9189 102.009 50.9131 102.003 50.909 102H42.091ZM50.9015 101.995C50.9016 101.995 50.9024 101.995 50.904 101.996C50.9023 101.996 50.9015 101.995 50.9015 101.995ZM50.8964 105.006C50.8963 105.006 50.8972 105.005 50.8991 105.005C50.8973 105.006 50.8964 105.006 50.8964 105.006ZM42.0985 105.005C42.0984 105.005 42.0976 105.005 42.096 105.004C42.0977 105.004 42.0985 105.005 42.0985 105.005ZM42.096 101.996C42.0976 101.995 42.0984 101.995 42.0985 101.995C42.0985 101.995 42.0977 101.996 42.096 101.996ZM50.9283 101H42.0717C41.4853 101 41 101.556 41 102.253V104.747C41 105.444 41.4853 106 42.0717 106H50.9283C51.5147 106 52 105.433 52 104.747V102.253C52 101.556 51.5147 101 50.9283 101Z" fill="#333333"/>
<path fill-rule="evenodd" clip-rule="evenodd" d="M42.0717 85H50.9283C51.5147 85 52 85.5556 52 86.253V88.747C52 89.4326 51.5147 90 50.9283 90H42.0717C41.4853 90 41 89.4444 41 88.747V86.253C41 85.5556 41.4853 85 42.0717 85Z" fill="#BDECFF"/>
<path fill-rule="evenodd" clip-rule="evenodd" d="M42.091 86C42.0869 86.0034 42.0811 86.0089 42.0738 86.0174C42.0412 86.0553 42 86.1347 42 86.253V88.747C42 88.8653 42.0412 88.9447 42.0738 88.9826C42.0811 88.9911 42.0869 88.9966 42.091 89H50.9051C50.9097 88.9961 50.9161 88.99 50.9241 88.9806C50.9606 88.938 51 88.8565 51 88.747V86.253C51 86.1347 50.9588 86.0553 50.9262 86.0174C50.9189 86.0089 50.9131 86.0034 50.909 86H42.091ZM50.9015 85.9949C50.9016 85.9948 50.9024 85.9952 50.904 85.9962C50.9023 85.9955 50.9015 85.995 50.9015 85.9949ZM50.8964 89.006C50.8963 89.0059 50.8972 89.0053 50.8991 89.0046C50.8973 89.0057 50.8964 89.0061 50.8964 89.006ZM42.0985 89.0051C42.0984 89.0052 42.0976 89.0048 42.096 89.0038C42.0977 89.0045 42.0985 89.005 42.0985 89.0051ZM42.096 85.9962C42.0976 85.9952 42.0984 85.9948 42.0985 85.9949C42.0985 85.995 42.0977 85.9955 42.096 85.9962ZM50.9283 85H42.0717C41.4853 85 41 85.5556 41 86.253V88.747C41 89.4444 41.4853 90 42.0717 90H50.9283C51.5147 90 52 89.4326 52 88.747V86.253C52 85.5556 51.5147 85 50.9283 85Z" fill="#333333"/>
<path fill-rule="evenodd" clip-rule="evenodd" d="M42.0717 117H50.9283C51.5147 117 52 117.556 52 118.253V120.747C52 121.433 51.5147 122 50.9283 122H42.0717C41.4853 122 41 121.444 41 120.747V118.253C41 117.556 41.4853 117 42.0717 117Z" fill="#BDECFF"/>
<path fill-rule="evenodd" clip-rule="evenodd" d="M42.091 118C42.0869 118.003 42.0811 118.009 42.0738 118.017C42.0412 118.055 42 118.135 42 118.253V120.747C42 120.865 42.0412 120.945 42.0738 120.983C42.0811 120.991 42.0869 120.997 42.091 121H50.9051C50.9097 120.996 50.9161 120.99 50.9241 120.981C50.9606 120.938 51 120.856 51 120.747V118.253C51 118.135 50.9588 118.055 50.9262 118.017C50.9189 118.009 50.9131 118.003 50.909 118H42.091ZM50.9015 117.995C50.9016 117.995 50.9024 117.995 50.904 117.996C50.9023 117.996 50.9015 117.995 50.9015 117.995ZM50.8964 121.006C50.8963 121.006 50.8972 121.005 50.8991 121.005C50.8973 121.006 50.8964 121.006 50.8964 121.006ZM42.0985 121.005C42.0984 121.005 42.0976 121.005 42.096 121.004C42.0977 121.004 42.0985 121.005 42.0985 121.005ZM42.096 117.996C42.0976 117.995 42.0984 117.995 42.0985 117.995C42.0985 117.995 42.0977 117.996 42.096 117.996ZM50.9283 117H42.0717C41.4853 117 41 117.556 41 118.253V120.747C41 121.444 41.4853 122 42.0717 122H50.9283C51.5147 122 52 121.433 52 120.747V118.253C52 117.556 51.5147 117 50.9283 117Z" fill="#333333"/>
<path fill-rule="evenodd" clip-rule="evenodd" d="M42.0717 133H50.9283C51.5147 133 52 133.556 52 134.253V136.747C52 137.433 51.5147 138 50.9283 138H42.0717C41.4853 138 41 137.444 41 136.747V134.253C41 133.556 41.4853 133 42.0717 133Z" fill="#BDECFF"/>
<path fill-rule="evenodd" clip-rule="evenodd" d="M42.091 134C42.0869 134.003 42.0811 134.009 42.0738 134.017C42.0412 134.055 42 134.135 42 134.253V136.747C42 136.865 42.0412 136.945 42.0738 136.983C42.0811 136.991 42.0869 136.997 42.091 137H50.9051C50.9097 136.996 50.9161 136.99 50.9241 136.981C50.9606 136.938 51 136.856 51 136.747V134.253C51 134.135 50.9588 134.055 50.9262 134.017C50.9189 134.009 50.9131 134.003 50.909 134H42.091ZM50.9015 133.995C50.9016 133.995 50.9024 133.995 50.904 133.996C50.9023 133.996 50.9015 133.995 50.9015 133.995ZM50.8964 137.006C50.8963 137.006 50.8972 137.005 50.8991 137.005C50.8973 137.006 50.8964 137.006 50.8964 137.006ZM42.0985 137.005C42.0984 137.005 42.0976 137.005 42.096 137.004C42.0977 137.004 42.0985 137.005 42.0985 137.005ZM42.096 133.996C42.0976 133.995 42.0984 133.995 42.0985 133.995C42.0985 133.995 42.0977 133.996 42.096 133.996ZM50.9283 133H42.0717C41.4853 133 41 133.556 41 134.253V136.747C41 137.444 41.4853 138 42.0717 138H50.9283C51.5147 138 52 137.433 52 136.747V134.253C52 133.556 51.5147 133 50.9283 133Z" fill="#333333"/>
<path fill-rule="evenodd" clip-rule="evenodd" d="M115.25 55H117.75C118.442 55 119 55.596 119 56.3131V63.6869C119 64.4141 118.433 65 117.75 65H115.25C114.558 65 114 64.404 114 63.6869V56.3131C114 55.596 114.558 55 115.25 55ZM126.75 55H124.25C123.558 55 123 55.596 123 56.3131V63.6869C123 64.404 123.558 65 124.25 65H126.75C127.433 65 128 64.4141 128 63.6869V56.3131C128 55.596 127.442 55 126.75 55ZM126.75 83H124.25C123.558 83 123 83.596 123 84.3131V91.6869C123 92.404 123.558 93 124.25 93H126.75C127.433 93 128 92.4141 128 91.6869V84.3131C128 83.596 127.442 83 126.75 83ZM124.25 111H126.75C127.442 111 128 111.596 128 112.313V119.687C128 120.414 127.433 121 126.75 121H124.25C123.558 121 123 120.404 123 119.687V112.313C123 111.596 123.558 111 124.25 111ZM126.75 69H124.25C123.558 69 123 69.596 123 70.3131V77.6869C123 78.404 123.558 79 124.25 79H126.75C127.433 79 128 78.4141 128 77.6869V70.3131C128 69.596 127.442 69 126.75 69ZM124.25 97H126.75C127.442 97 128 97.596 128 98.3131V105.687C128 106.414 127.433 107 126.75 107H124.25C123.558 107 123 106.404 123 105.687V98.3131C123 97.596 123.558 97 124.25 97ZM126.75 125H124.25C123.558 125 123 125.596 123 126.313V133.687C123 134.404 123.558 135 124.25 135H126.75C127.433 135 128 134.414 128 133.687V126.313C128 125.596 127.442 125 126.75 125ZM117.75 83H115.25C114.558 83 114 83.596 114 84.3131V91.6869C114 92.404 114.558 93 115.25 93H117.75C118.433 93 119 92.4141 119 91.6869V84.3131C119 83.596 118.442 83 117.75 83ZM115.25 111H117.75C118.442 111 119 111.596 119 112.313V119.687C119 120.414 118.433 121 117.75 121H115.25C114.558 121 114 120.404 114 119.687V112.313C114 111.596 114.558 111 115.25 111ZM117.75 69H115.25C114.558 69 114 69.596 114 70.3131V77.6869C114 78.404 114.558 79 115.25 79H117.75C118.433 79 119 78.4141 119 77.6869V70.3131C119 69.596 118.442 69 117.75 69ZM115.25 97H117.75C118.442 97 119 97.596 119 98.3131V105.687C119 106.414 118.433 107 117.75 107H115.25C114.558 107 114 106.404 114 105.687V98.3131C114 97.596 114.558 97 115.25 97ZM117.75 125H115.25C114.558 125 114 125.596 114 126.313V133.687C114 134.404 114.558 135 115.25 135H117.75C118.433 135 119 134.414 119 133.687V126.313C119 125.596 118.442 125 117.75 125Z" fill="#FEFEFE"/>
<path d="M117.75 54.5H115.25V55.5H117.75V54.5ZM119.5 56.3131C119.5 55.3459 118.744 54.5 117.75 54.5V55.5C118.141 55.5 118.5 55.846 118.5 56.3131H119.5ZM119.5 63.6869V56.3131H118.5V63.6869H119.5ZM117.75 65.5C118.729 65.5 119.5 64.6693 119.5 63.6869H118.5C118.5 64.1589 118.136 64.5 117.75 64.5V65.5ZM115.25 65.5H117.75V64.5H115.25V65.5ZM113.5 63.6869C113.5 64.6541 114.256 65.5 115.25 65.5V64.5C114.859 64.5 114.5 64.154 114.5 63.6869H113.5ZM113.5 56.3131V63.6869H114.5V56.3131H113.5ZM115.25 54.5C114.256 54.5 113.5 55.3459 113.5 56.3131H114.5C114.5 55.846 114.859 55.5 115.25 55.5V54.5ZM124.25 55.5H126.75V54.5H124.25V55.5ZM123.5 56.3131C123.5 55.846 123.859 55.5 124.25 55.5V54.5C123.256 54.5 122.5 55.3459 122.5 56.3131H123.5ZM123.5 63.6869V56.3131H122.5V63.6869H123.5ZM124.25 64.5C123.859 64.5 123.5 64.154 123.5 63.6869H122.5C122.5 64.6541 123.256 65.5 124.25 65.5V64.5ZM126.75 64.5H124.25V65.5H126.75V64.5ZM127.5 63.6869C127.5 64.1589 127.136 64.5 126.75 64.5V65.5C127.729 65.5 128.5 64.6693 128.5 63.6869H127.5ZM127.5 56.3131V63.6869H128.5V56.3131H127.5ZM126.75 55.5C127.141 55.5 127.5 55.846 127.5 56.3131H128.5C128.5 55.3459 127.744 54.5 126.75 54.5V55.5ZM124.25 83.5H126.75V82.5H124.25V83.5ZM123.5 84.3131C123.5 83.846 123.859 83.5 124.25 83.5V82.5C123.256 82.5 122.5 83.3459 122.5 84.3131H123.5ZM123.5 91.6869V84.3131H122.5V91.6869H123.5ZM124.25 92.5C123.859 92.5 123.5 92.154 123.5 91.6869H122.5C122.5 92.6541 123.256 93.5 124.25 93.5V92.5ZM126.75 92.5H124.25V93.5H126.75V92.5ZM127.5 91.6869C127.5 92.1589 127.136 92.5 126.75 92.5V93.5C127.729 93.5 128.5 92.6693 128.5 91.6869H127.5ZM127.5 84.3131V91.6869H128.5V84.3131H127.5ZM126.75 83.5C127.141 83.5 127.5 83.846 127.5 84.3131H128.5C128.5 83.3459 127.744 82.5 126.75 82.5V83.5ZM126.75 110.5H124.25V111.5H126.75V110.5ZM128.5 112.313C128.5 111.346 127.744 110.5 126.75 110.5V111.5C127.141 111.5 127.5 111.846 127.5 112.313H128.5ZM128.5 119.687V112.313H127.5V119.687H128.5ZM126.75 121.5C127.729 121.5 128.5 120.669 128.5 119.687H127.5C127.5 120.159 127.136 120.5 126.75 120.5V121.5ZM124.25 121.5H126.75V120.5H124.25V121.5ZM122.5 119.687C122.5 120.654 123.256 121.5 124.25 121.5V120.5C123.859 120.5 123.5 120.154 123.5 119.687H122.5ZM122.5 112.313V119.687H123.5V112.313H122.5ZM124.25 110.5C123.256 110.5 122.5 111.346 122.5 112.313H123.5C123.5 111.846 123.859 111.5 124.25 111.5V110.5ZM124.25 69.5H126.75V68.5H124.25V69.5ZM123.5 70.3131C123.5 69.846 123.859 69.5 124.25 69.5V68.5C123.256 68.5 122.5 69.3459 122.5 70.3131H123.5ZM123.5 77.6869V70.3131H122.5V77.6869H123.5ZM124.25 78.5C123.859 78.5 123.5 78.154 123.5 77.6869H122.5C122.5 78.6541 123.256 79.5 124.25 79.5V78.5ZM126.75 78.5H124.25V79.5H126.75V78.5ZM127.5 77.6869C127.5 78.1589 127.136 78.5 126.75 78.5V79.5C127.729 79.5 128.5 78.6693 128.5 77.6869H127.5ZM127.5 70.3131V77.6869H128.5V70.3131H127.5ZM126.75 69.5C127.141 69.5 127.5 69.846 127.5 70.3131H128.5C128.5 69.3459 127.744 68.5 126.75 68.5V69.5ZM126.75 96.5H124.25V97.5H126.75V96.5ZM128.5 98.3131C128.5 97.3459 127.744 96.5 126.75 96.5V97.5C127.141 97.5 127.5 97.846 127.5 98.3131H128.5ZM128.5 105.687V98.3131H127.5V105.687H128.5ZM126.75 107.5C127.729 107.5 128.5 106.669 128.5 105.687H127.5C127.5 106.159 127.136 106.5 126.75 106.5V107.5ZM124.25 107.5H126.75V106.5H124.25V107.5ZM122.5 105.687C122.5 106.654 123.256 107.5 124.25 107.5V106.5C123.859 106.5 123.5 106.154 123.5 105.687H122.5ZM122.5 98.3131V105.687H123.5V98.3131H122.5ZM124.25 96.5C123.256 96.5 122.5 97.3459 122.5 98.3131H123.5C123.5 97.846 123.859 97.5 124.25 97.5V96.5ZM124.25 125.5H126.75V124.5H124.25V125.5ZM123.5 126.313C123.5 125.846 123.859 125.5 124.25 125.5V124.5C123.256 124.5 122.5 125.346 122.5 126.313H123.5ZM123.5 133.687V126.313H122.5V133.687H123.5ZM124.25 134.5C123.859 134.5 123.5 134.154 123.5 133.687H122.5C122.5 134.654 123.256 135.5 124.25 135.5V134.5ZM126.75 134.5H124.25V135.5H126.75V134.5ZM127.5 133.687C127.5 134.159 127.136 134.5 126.75 134.5V135.5C127.729 135.5 128.5 134.669 128.5 133.687H127.5ZM127.5 126.313V133.687H128.5V126.313H127.5ZM126.75 125.5C127.141 125.5 127.5 125.846 127.5 126.313H128.5C128.5 125.346 127.744 124.5 126.75 124.5V125.5ZM115.25 83.5H117.75V82.5H115.25V83.5ZM114.5 84.3131C114.5 83.846 114.859 83.5 115.25 83.5V82.5C114.256 82.5 113.5 83.3459 113.5 84.3131H114.5ZM114.5 91.6869V84.3131H113.5V91.6869H114.5ZM115.25 92.5C114.859 92.5 114.5 92.154 114.5 91.6869H113.5C113.5 92.6541 114.256 93.5 115.25 93.5V92.5ZM117.75 92.5H115.25V93.5H117.75V92.5ZM118.5 91.6869C118.5 92.1589 118.136 92.5 117.75 92.5V93.5C118.729 93.5 119.5 92.6693 119.5 91.6869H118.5ZM118.5 84.3131V91.6869H119.5V84.3131H118.5ZM117.75 83.5C118.141 83.5 118.5 83.846 118.5 84.3131H119.5C119.5 83.3459 118.744 82.5 117.75 82.5V83.5ZM117.75 110.5H115.25V111.5H117.75V110.5ZM119.5 112.313C119.5 111.346 118.744 110.5 117.75 110.5V111.5C118.141 111.5 118.5 111.846 118.5 112.313H119.5ZM119.5 119.687V112.313H118.5V119.687H119.5ZM117.75 121.5C118.729 121.5 119.5 120.669 119.5 119.687H118.5C118.5 120.159 118.136 120.5 117.75 120.5V121.5ZM115.25 121.5H117.75V120.5H115.25V121.5ZM113.5 119.687C113.5 120.654 114.256 121.5 115.25 121.5V120.5C114.859 120.5 114.5 120.154 114.5 119.687H113.5ZM113.5 112.313V119.687H114.5V112.313H113.5ZM115.25 110.5C114.256 110.5 113.5 111.346 113.5 112.313H114.5C114.5 111.846 114.859 111.5 115.25 111.5V110.5ZM115.25 69.5H117.75V68.5H115.25V69.5ZM114.5 70.3131C114.5 69.846 114.859 69.5 115.25 69.5V68.5C114.256 68.5 113.5 69.3459 113.5 70.3131H114.5ZM114.5 77.6869V70.3131H113.5V77.6869H114.5ZM115.25 78.5C114.859 78.5 114.5 78.154 114.5 77.6869H113.5C113.5 78.6541 114.256 79.5 115.25 79.5V78.5ZM117.75 78.5H115.25V79.5H117.75V78.5ZM118.5 77.6869C118.5 78.1589 118.136 78.5 117.75 78.5V79.5C118.729 79.5 119.5 78.6693 119.5 77.6869H118.5ZM118.5 70.3131V77.6869H119.5V70.3131H118.5ZM117.75 69.5C118.141 69.5 118.5 69.846 118.5 70.3131H119.5C119.5 69.3459 118.744 68.5 117.75 68.5V69.5ZM117.75 96.5H115.25V97.5H117.75V96.5ZM119.5 98.3131C119.5 97.3459 118.744 96.5 117.75 96.5V97.5C118.141 97.5 118.5 97.846 118.5 98.3131H119.5ZM119.5 105.687V98.3131H118.5V105.687H119.5ZM117.75 107.5C118.729 107.5 119.5 106.669 119.5 105.687H118.5C118.5 106.159 118.136 106.5 117.75 106.5V107.5ZM115.25 107.5H117.75V106.5H115.25V107.5ZM113.5 105.687C113.5 106.654 114.256 107.5 115.25 107.5V106.5C114.859 106.5 114.5 106.154 114.5 105.687H113.5ZM113.5 98.3131V105.687H114.5V98.3131H113.5ZM115.25 96.5C114.256 96.5 113.5 97.3459 113.5 98.3131H114.5C114.5 97.846 114.859 97.5 115.25 97.5V96.5ZM115.25 125.5H117.75V124.5H115.25V125.5ZM114.5 126.313C114.5 125.846 114.859 125.5 115.25 125.5V124.5C114.256 124.5 113.5 125.346 113.5 126.313H114.5ZM114.5 133.687V126.313H113.5V133.687H114.5ZM115.25 134.5C114.859 134.5 114.5 134.154 114.5 133.687H113.5C113.5 134.654 114.256 135.5 115.25 135.5V134.5ZM117.75 134.5H115.25V135.5H117.75V134.5ZM118.5 133.687C118.5 134.159 118.136 134.5 117.75 134.5V135.5C118.729 135.5 119.5 134.669 119.5 133.687H118.5ZM118.5 126.313V133.687H119.5V126.313H118.5ZM117.75 125.5C118.141 125.5 118.5 125.846 118.5 126.313H119.5C119.5 125.346 118.744 124.5 117.75 124.5V125.5Z" fill="#333333"/>
<path fill-rule="evenodd" clip-rule="evenodd" d="M68 26C68 25.4476 68.4479 24.9999 69.0003 25L72.0002 25.0007C72.5524 25.0008 73 25.4485 73 26.0007V121C73 121.552 72.5523 122 72 122H69C68.4477 122 68 121.552 68 121L68 26Z" fill="#BDECFF"/>
<path fill-rule="evenodd" clip-rule="evenodd" d="M72 26.0007L69 26L69 121H72L72 26.0007ZM69.0003 25C68.4479 24.9999 68 25.4476 68 26L68 121C68 121.552 68.4477 122 69 122H72C72.5523 122 73 121.552 73 121V26.0007C73 25.4485 72.5524 25.0008 72.0002 25.0007L69.0003 25Z" fill="#333333"/>
<path fill-rule="evenodd" clip-rule="evenodd" d="M77 26C77 25.4476 77.4479 24.9999 78.0003 25L81.0002 25.0007C81.5524 25.0008 82 25.4485 82 26.0007V121C82 121.552 81.5523 122 81 122H78C77.4477 122 77 121.552 77 121L77 26Z" fill="#BDECFF"/>
<path fill-rule="evenodd" clip-rule="evenodd" d="M81 26.0007L78 26L78 121H81L81 26.0007ZM78.0003 25C77.4479 24.9999 77 25.4476 77 26L77 121C77 121.552 77.4477 122 78 122H81C81.5523 122 82 121.552 82 121V26.0007C82 25.4485 81.5524 25.0008 81.0002 25.0007L78.0003 25Z" fill="#333333"/>
<path fill-rule="evenodd" clip-rule="evenodd" d="M86 26C86 25.4476 86.4479 24.9999 87.0003 25L90.0002 25.0007C90.5524 25.0008 91 25.4485 91 26.0007V121C91 121.552 90.5523 122 90 122H87C86.4477 122 86 121.552 86 121L86 26Z" fill="#BDECFF"/>
<path fill-rule="evenodd" clip-rule="evenodd" d="M90 26.0007L87 26L87 121H90L90 26.0007ZM87.0003 25C86.4479 24.9999 86 25.4476 86 26L86 121C86 121.552 86.4477 122 87 122H90C90.5523 122 91 121.552 91 121V26.0007C91 25.4485 90.5524 25.0008 90.0002 25.0007L87.0003 25Z" fill="#333333"/>
<path fill-rule="evenodd" clip-rule="evenodd" d="M96 26C96 25.4476 96.4479 24.9999 97.0003 25L100 25.0007C100.552 25.0008 101 25.4485 101 26.0007V121C101 121.552 100.552 122 100 122H97C96.4477 122 96 121.552 96 121L96 26Z" fill="#BDECFF"/>
<path fill-rule="evenodd" clip-rule="evenodd" d="M100 26.0007L97 26L97 121H100L100 26.0007ZM97.0003 25C96.4479 24.9999 96 25.4476 96 26L96 121C96 121.552 96.4477 122 97 122H100C100.552 122 101 121.552 101 121V26.0007C101 25.4485 100.552 25.0008 100 25.0007L97.0003 25Z" fill="#333333"/>
<path fill-rule="evenodd" clip-rule="evenodd" d="M81.5228 130H87.4772C87.6607 130 87.8369 130 88.0001 130C88.5523 130 89 130.448 89 131V143C89 143.552 88.5523 144 88 144H81C80.4477 144 80 143.552 80 143V131C80 130.448 80.4476 130 80.9998 130C81.163 130 81.3392 130 81.5228 130Z" fill="url(#paint1_linear_125_6953)"/>
<path fill-rule="evenodd" clip-rule="evenodd" d="M88.0001 129C89.1047 129 90 129.895 90 131V143C90 144.105 89.1046 145 88 145H81C79.8954 145 79 144.105 79 143V131C79 129.896 79.8952 129 80.9997 129L88.0001 129ZM80.9998 130C80.4476 130 80 130.448 80 131V143C80 143.552 80.4477 144 81 144H88C88.5523 144 89 143.552 89 143V131C89 130.448 88.5523 130 88.0001 130L80.9998 130Z" fill="#333333"/>
<defs>
<linearGradient id="paint0_linear_125_6953" x1="69.6033" y1="-1.7775" x2="83.3234" y2="15.4323" gradientUnits="userSpaceOnUse">
<stop stop-color="#FFC671"/>
<stop offset="1" stop-color="#FF6F3D"/>
</linearGradient>
<linearGradient id="paint1_linear_125_6953" x1="74.5669" y1="129.149" x2="82.558" y2="140.891" gradientUnits="userSpaceOnUse">
<stop stop-color="#FFC671"/>
<stop offset="1" stop-color="#FF6F3D"/>
</linearGradient>
</defs>
</svg>
