<svg width="150" height="150" viewBox="0 0 150 150" fill="none" xmlns="http://www.w3.org/2000/svg">
<path fill-rule="evenodd" clip-rule="evenodd" d="M20.6108 82.2583C20.7467 82.3493 20.8825 82.4403 20.9278 82.4857C22.3767 83.4408 27.8099 87.0338 34.0582 91.2179C35.9854 88.7968 39.338 86.9903 42.3017 88.975C43.9769 90.1575 43.8618 92.5224 42.4129 93.9778C44.7431 91.7223 47.8055 88.6294 51.2666 90.9761C52.8027 92.0562 53.4063 93.6407 52.2627 95.4786C53.9832 93.7049 57.2885 93.523 59.2354 94.9783C63.4761 98.0763 60.5227 101.198 58.0129 103.847C59.507 102.755 61.7709 102.665 63.265 103.711C64.6108 105.479 63.9586 107.833 63.1108 109.477C65.8599 110.858 69.8329 112.943 72.9997 112.943C74.7606 113.206 76.6108 112.614 76.6108 109.977C77.9692 110.841 80.9339 111.644 82.7727 111.306C85.4893 110.805 86.6281 108.759 86.764 106.803C86.8545 105.848 86.2206 104.538 85.1345 103.483C87.1267 104.984 89.2284 106.76 91.2011 106.894C95.1261 107.161 96.9514 104.893 97.2683 102.301C97.474 100.618 96.603 101.002 94.6108 98C95.6522 98.9551 98.1368 100.618 99.9397 100.618C103.821 100.618 105.78 97.9801 105.599 95.2513C105.599 91.5 100.611 85 95.0044 81.016C92.4756 78.4758 82.7962 67.6784 79.1579 67.4635C75.8527 67.4635 67.8839 66.7358 66.2086 66.4629C64.4881 70.4651 60.1867 77.514 57.2437 80.7886C54.0285 83.4854 49.6108 83.4854 45.9691 80.7886C45.9691 79.1968 53.4851 62.5966 54.0285 62.2782C54.3907 60.9593 70.6 48.7251 72.6374 48.5887C77.0746 48.5887 82.0098 49.1345 87.1715 49.8167C90.0286 46.9468 90.1734 41.6803 86.6281 39.1743C79.3838 38.1565 71.0527 37 63.265 37C58.0352 37.3245 41.0874 44.4928 35.1108 49.9959C36.605 58.5007 24.5186 77.7115 20.6108 82.2583Z" fill="#FEFEFE"/>
<path fill-rule="evenodd" clip-rule="evenodd" d="M19.6108 81.7796L20.3509 80.9215C22.2477 78.7223 26.0696 73.1402 29.2302 67.0407C30.8074 63.997 32.2034 60.8555 33.1114 57.9691C34.0276 55.0564 34.409 52.5191 34.0763 50.6321L33.9809 50.0914L34.3853 49.7203C37.5026 46.8601 43.3169 43.5246 48.9382 40.8811C51.7646 39.5519 54.575 38.3823 57.0192 37.5222C59.4349 36.6721 61.5809 36.0922 63.042 36.0019L63.0728 36H63.1036C71.0022 36 79.4339 37.1681 86.6944 38.1846L86.9337 38.2181L87.1313 38.3573C91.2982 41.2924 91.0237 47.3104 87.8083 50.529L87.4596 50.8779L86.9708 50.8135C81.8218 50.1354 76.9493 49.5997 72.5844 49.5938C72.5599 49.6009 72.4884 49.6218 72.3564 49.6774C72.1679 49.7567 71.9207 49.8784 71.6157 50.045C71.0073 50.3772 70.2272 50.8557 69.3275 51.4429C67.5313 52.6153 65.3116 54.1864 63.1366 55.8002C60.962 57.4136 58.8452 59.0598 57.2545 60.3799C56.4575 61.0414 55.8041 61.6114 55.3446 62.0496C55.1134 62.2699 54.9454 62.4436 54.8363 62.5702C54.806 62.6055 54.7836 62.6331 54.7678 62.6536L54.6874 62.9455L54.5031 63.0531C54.4336 63.167 54.336 63.3411 54.2108 63.5773C53.9612 64.0482 53.6281 64.716 53.2382 65.5249C52.4596 67.1399 51.4697 69.2856 50.4955 71.474C49.5211 73.663 48.5664 75.8853 47.857 77.6549C47.5018 78.541 48.2123 77.3031 48.0131 77.8863C47.9239 78.1472 47.8561 78.3629 47.8092 78.5324C49.2257 80.198 50.8647 80.8035 52.4326 80.72C54.1427 80.6289 55.9077 79.7082 57.3141 78.1348L57.3171 78.1315C60.2294 74.9025 63.4718 70.9436 65.1404 67.0759L65.4493 66.3598L66.2184 65.4847C67.8494 65.7494 75.7951 66.4726 79.0571 66.4726H79.0865L79.1158 66.4744C79.7585 66.5122 80.4448 67.7497 81.1125 68.0657C81.7942 68.3884 82.529 68.8282 83.2855 69.3391C84.7989 70.3611 86.4705 71.716 88.0852 73.1249C91.1884 75.8324 94.1573 71.8058 95.5104 73.1609C95.5668 73.2175 95.6204 73.2712 95.6711 73.322L95.6955 73.3463L95.7783 73.4415C97.6131 75.55 100.22 78.5463 102.395 81.2958C103.493 82.6842 104.496 84.028 105.237 85.174C105.607 85.7463 105.924 93.2869 106.156 93.7709C106.376 94.2301 106.567 94.7331 106.597 95.2041C106.705 96.8294 106.173 98.4516 105.011 99.6684C103.841 100.893 102.101 101.638 99.9182 101.638C99.3501 101.638 98.7723 101.49 98.2185 101.266C98.2861 101.644 98.2798 102.029 98.229 102.443C98.0466 103.929 97.4204 105.393 96.2039 106.447C94.9765 107.51 93.2575 108.061 91.0789 107.914C89.8846 107.833 88.7347 107.288 87.7007 106.647C87.7005 106.734 87.6966 106.82 87.6888 106.906C87.5244 109.205 86.1365 111.712 82.866 112.313C81.6515 112.536 80.2261 112.145 79.0578 111.688C78.4373 111.445 77.8364 111.162 77.3007 110.882C77.0558 111.723 76.6155 112.425 76.0309 112.954C75.1353 113.764 73.9553 114.116 72.8039 113.966C71.0017 113.949 69.2291 113.26 67.6377 112.47C66.8233 112.065 66.0271 111.618 65.2787 111.196L65.1807 111.141C64.4606 110.735 63.7907 110.357 63.1564 110.04L61.9156 109.419L62.8965 108.437C63.5786 107.754 63.8282 107.025 63.7796 106.402C63.7318 105.79 63.3836 105.121 62.549 104.564L62.5404 104.558L62.5319 104.552C61.4082 103.768 59.6016 103.816 58.4195 104.677L57.1071 103.177C57.7427 102.509 58.3684 101.849 58.9013 101.177C59.4362 100.502 59.8332 99.8678 60.0423 99.2695C60.2444 98.6912 60.2642 98.1704 60.0779 97.6607C59.8856 97.1343 59.4313 96.5049 58.4705 95.8055L58.4616 95.799C57.7098 95.2391 56.6392 94.961 55.5396 95.0337C54.4406 95.1064 53.4313 95.5212 52.7754 96.195L51.2114 94.9661C51.6693 94.2327 51.7182 93.6591 51.6013 93.2158C51.4787 92.7511 51.1302 92.2657 50.493 91.8175C49.7772 91.3356 49.1263 91.1586 48.528 91.1551C47.9164 91.1515 47.2918 91.3292 46.6437 91.6595C45.3494 92.3192 44.1445 93.482 42.9741 94.6114C42.9379 94.6463 42.9018 94.6811 42.8658 94.7159L41.4649 93.2875C42.6086 92.1427 42.5176 90.5452 41.4947 89.8164C40.2093 88.9621 39.1252 88.8332 38.1998 89.0791C37.2312 89.3365 36.2787 90.047 35.3874 91.1628L34.8147 91.8797L34.0518 91.3705C27.782 87.1867 22.3301 83.5941 20.8773 82.6398L20.7915 82.5834L20.7512 82.5431C20.745 82.5387 20.7372 82.5331 20.7275 82.5263C20.6819 82.4943 20.624 82.4556 20.5531 82.4083L19.6108 81.7796ZM42.0603 88.991C42.9612 89.6247 43.3463 90.5978 43.286 91.5887C43.2338 92.4474 42.8472 93.3194 42.172 93.9952C42.2221 93.9468 42.2727 93.898 42.3235 93.8489C42.9147 93.278 43.5512 92.6633 44.2278 92.1023C46.2057 90.4623 48.5262 89.2811 51.0594 90.9927C52.1071 91.7268 52.7227 92.6939 52.6495 93.8152C52.615 94.3441 52.4272 94.9073 52.0593 95.4965C52.4795 95.0649 52.9938 94.7275 53.5598 94.4849C55.3201 93.7307 57.5797 93.8945 59.0586 94.9961C62.4083 97.4345 61.2864 99.8875 59.4286 102.114C58.9254 102.716 58.3683 103.303 57.8314 103.867C58.445 103.421 59.1879 103.141 59.9543 103.039C61.0613 102.891 62.2173 103.113 63.1036 103.731C65.0256 105.013 64.6108 107.5 63.6036 109.145C63.9036 109.295 64.2105 109.457 64.5231 109.628C64.8953 109.831 65.2758 110.046 65.663 110.264C67.9421 111.55 70.4536 112.966 72.8754 112.966C74.3772 113.19 75.9575 112.277 76.3989 110.38C76.4771 110.044 76.3989 109.897 76.3989 109.5C76.6684 109.671 77.2378 109.797 77.6108 110C79.1254 110.823 81.2046 111.6 82.6857 111.328C85.4127 110.828 86.5558 108.781 86.6922 106.824C86.719 106.543 86.6825 106.23 86.5898 105.902C86.3682 105.118 85.8252 104.247 85.0565 103.503C85.2775 103.669 85.4999 103.839 85.7233 104.009C86.2894 104.44 86.8621 104.876 87.436 105.274C88.6847 106.142 89.9395 106.834 91.1463 106.915C95.0862 107.182 96.9184 104.914 97.2366 102.321C97.3328 101.537 97.2112 101.1 96.8519 100.554C96.6901 100.308 96.4801 100.04 96.22 99.7079C95.8175 99.194 94.76 98.9746 94.1108 98C94.7334 98.5689 96.3774 99.1067 97.555 99.8107C98.3547 100.289 99.1861 100.637 99.9182 100.637C103.815 100.637 105.781 97.9987 105.599 95.2691C105.464 93.0961 98.7125 78.3375 95.0187 74.0924L94.9641 74.0297C94.914 73.9795 94.8611 73.9266 94.8056 73.8709C92.0445 71.1057 82.6372 67.6843 79.0571 67.4735C75.7393 67.4735 67.74 66.7456 66.0584 66.4726C64.3313 70.476 61.0135 75.5267 58.0593 78.8022C54.9687 82.2597 50.0595 83.1241 46.7417 78.8022C46.7417 77.2099 53.2864 62.6049 53.8318 62.2864C54.1954 60.9671 70.4665 48.7294 72.5118 48.5929C76.9659 48.5929 81.9199 49.1388 87.1012 49.8212C89.9692 46.9505 90.1146 41.6825 86.5558 39.1758C79.2838 38.1577 70.921 37.0009 63.1036 37.0009C57.8538 37.3254 41.0604 44.9534 35.061 50.4581C36.4862 58.5422 26.1453 75.2543 21.747 80.7994C21.5168 81.0897 21.3029 81.3494 21.1077 81.5756C21.2441 81.6666 21.3804 81.7576 21.4259 81.8031C21.5628 81.893 21.7352 82.0063 21.9403 82.1413C23.9144 83.4403 28.9247 86.7464 34.6064 90.5378C36.541 88.116 39.0853 87.0057 42.0603 88.991Z" fill="#333333"/>
<path fill-rule="evenodd" clip-rule="evenodd" d="M128.104 79.2766C121.809 71.8817 115.246 61.0807 114.552 51.0628C105.487 51.0177 97.074 49.2662 88.0994 48.0925C82.9322 47.4154 76.7499 47 72.308 47C68.6545 47 54.694 58.5204 53.6789 60.5878C53.1982 61.4998 46.218 77.3898 45.6108 78.9607C47.6108 83.5 54.1108 83.3518 57.3956 79.7281C60.3418 76.4778 64.3306 70.2934 66.0983 66.3208C67.7753 66.5917 75.7528 67.0883 79.0616 67.0883C79.8321 67.1334 90.8064 75.6891 94.2005 78.7349C96.5749 80.8657 100.564 84.8383 102.059 86.8245C102.706 87.6827 105.051 90.3004 105.55 90.797C109.16 94.3925 119.764 89.1628 126.654 85.1451C126.699 85.1451 130.597 82.3463 130.597 82.3463C130.824 82.1657 128.104 79.2766 128.104 79.2766Z" fill="#EFEFEF"/>
<path fill-rule="evenodd" clip-rule="evenodd" d="M115.568 55.5729C117.832 63.9718 122.813 73.0481 128.112 79.2795C128.112 79.2795 130.829 82.1695 130.602 82.3501C130.602 82.3501 126.708 85.1497 126.662 85.1497C119.779 89.1686 109.185 94.3999 105.578 90.8033C105.08 90.3066 102.736 87.6881 102.091 86.8296C100.596 84.8428 96.6113 80.8691 94.2391 78.7377C90.8482 75.6909 79.8841 67.1327 79.1142 67.0876C75.8085 67.0876 67.8385 66.5909 66.163 66.3199C64.3969 70.2936 60.4119 76.4799 57.4685 79.7311C54.3891 83.1629 47.7956 83.3526 45.6946 78.9634C46.3012 77.3921 53.275 61.4974 53.7552 60.5852C54.7693 58.5172 68.7168 46.9934 72.3669 46.9934C76.8047 46.9934 82.9813 47.4089 88.1437 48.0863C90.551 48.4015 92.9179 48.7584 95.2678 49.1127C101.67 50.078 107.947 51.0244 114.572 51.0574C114.652 52.2231 115.128 53.9614 115.455 55.1573C115.495 55.3048 115.533 55.444 115.568 55.5729ZM88.2734 47.1013C83.0725 46.4189 76.8525 46 72.3669 46C71.6961 46 70.922 46.2512 70.162 46.5823C69.3734 46.9258 68.4834 47.4084 67.5443 47.9773C65.664 49.1164 63.5143 50.6457 61.463 52.228C59.4095 53.812 57.436 55.4636 55.9064 56.8551C55.1424 57.5502 54.4805 58.1882 53.9718 58.7256C53.4998 59.2243 53.071 59.7264 52.8663 60.1365C52.5801 60.691 50.7098 64.9111 48.8595 69.129C46.9872 73.3974 45.0786 77.7938 44.7649 78.6066L44.6108 79.0055L44.7955 79.3914C46.0453 82.0024 48.6145 83.1922 51.1832 83.2731C53.7357 83.3534 56.45 82.3548 58.2094 80.3951C61.0636 77.242 64.8347 71.4552 66.7631 67.3974C69.3568 67.6781 75.8646 68.0647 78.9262 68.0805C79.0147 68.129 79.1405 68.2046 79.3064 68.3112C79.6645 68.5414 80.1527 68.8794 80.7422 69.3039C81.918 70.1506 83.4564 71.3119 85.0826 72.5715C88.3415 75.0958 91.9057 77.9783 93.5722 79.4757C95.9361 81.5996 99.8604 85.52 101.294 87.4257C101.974 88.3301 104.35 90.9841 104.874 91.5057C106.05 92.6784 107.712 93.0468 109.456 92.9954C111.207 92.9437 113.192 92.4669 115.216 91.7715C119.26 90.3822 123.683 88.039 127.137 86.0236C127.165 86.0089 127.187 85.9956 127.197 85.9895C127.222 85.9744 127.246 85.9585 127.265 85.9462C127.304 85.92 127.355 85.8853 127.412 85.8461C127.527 85.7664 127.687 85.6546 127.873 85.5229C128.247 85.2588 128.74 84.9075 129.23 84.5573C129.72 84.2069 130.209 83.8566 130.575 83.5939L131.184 83.1565L131.205 83.1414L131.225 83.1258C131.739 82.7154 131.597 82.1243 131.58 82.0547C131.542 81.8951 131.474 81.7633 131.435 81.691C131.347 81.5295 131.224 81.3553 131.106 81.1981C130.86 80.8716 130.522 80.4711 130.193 80.0945C129.86 79.7137 129.522 79.3404 129.268 79.0633C129.14 78.9245 129.033 78.8092 128.958 78.7284L128.87 78.6344L128.856 78.6188C123.652 72.4924 118.751 63.5554 116.53 55.3151C116.494 55.182 116.456 55.0409 116.416 54.8941C116.083 53.677 115.639 52.047 115.566 50.9891L115.502 50.0686L114.577 50.064C108.03 50.0314 101.858 49.1008 95.4795 48.1392C93.1158 47.7828 90.7234 47.4221 88.2734 47.1013Z" fill="#333333"/>
<path fill-rule="evenodd" clip-rule="evenodd" d="M114.032 54.7329C116.095 61.0131 124.49 80.5415 132 82.8346C133.266 83.2212 134.507 82.901 135.688 82.1771L144.282 78.0944C146.642 76.9197 146.615 76.5594 143.926 73.5052C138.877 67.1619 132.549 56.0648 128.633 45.7746C126.793 40.9349 126.652 41.4775 123.257 43.3807L115.564 47.4613C113.535 48.3541 113.513 48.4817 113 49.5059C113 51.2593 113.579 53.0577 114.032 54.7329Z" fill="url(#paint0_linear_125_10438)"/>
<path fill-rule="evenodd" clip-rule="evenodd" d="M127.628 43.1964C128.012 43.7927 128.403 44.6534 128.847 45.8387C132.58 55.7895 139.379 67.1182 144.191 73.254C144.841 74.0041 145.314 74.6462 145.612 75.2109C145.91 75.7773 146.056 76.3125 145.98 76.8262C145.903 77.3505 145.61 77.7594 145.22 78.0966C144.839 78.427 144.333 78.7177 143.762 79.0063C143.761 79.0066 143.76 79.007 143.76 79.0073L136.164 82.9357L136.162 82.9363C134.878 83.5966 133.808 84.0487 132.734 83.9958C131.642 83.942 130.647 83.3758 129.473 82.288C129.309 82.1708 129.157 82.0168 129.041 81.8996L129.025 81.8839L129.022 81.8812C122.899 75.6029 116.704 64.9687 114.058 55.1061C114.025 54.9822 113.988 54.8465 113.949 54.7025C113.628 53.5146 113.142 51.7131 113.049 50.4346C113 50.2136 113 50.0404 113 49.9085L113 49.9015C113 49.016 113.24 48.3509 113.801 47.7991C114.32 47.2878 115.09 46.9025 116.05 46.4737L123.282 43.0032L123.283 43.0026C123.835 42.74 124.391 42.4335 124.832 42.2489C125.291 42.0563 125.792 41.9155 126.308 42.0584C126.829 42.2028 127.246 42.6017 127.628 43.1964ZM123.709 43.9118C124.356 43.6032 124.789 43.3556 125.213 43.1776C125.619 43.0074 125.859 42.9767 126.045 43.0281C126.225 43.078 126.469 43.2389 126.794 43.744C127.117 44.2474 127.478 45.0263 127.916 46.1948C131.691 56.2568 138.549 67.6818 143.419 73.8883L143.426 73.898L143.434 73.9074C144.069 74.6386 144.487 75.2161 144.733 75.683C144.979 76.1507 145.028 76.461 144.996 76.6786C144.965 76.8855 144.849 77.0936 144.572 77.3334C144.288 77.5796 143.874 77.8256 143.315 78.108L135.711 82.0401C135.711 82.04 135.711 82.0402 135.711 82.0401C134.418 82.705 133.564 83.03 132.783 82.9915C131.586 82.9325 130.542 81.9947 129.73 81.1742C123.73 75.0211 117.62 64.5412 115.019 54.8435C114.984 54.7156 114.948 54.5792 114.909 54.4359C114.58 53.2142 114.117 51.4956 114.039 50.3251L114.036 50.2803L114.026 50.2366C113.996 50.1181 113.995 50.0341 113.995 49.9015C113.995 49.2331 114.162 48.847 114.495 48.5191C114.869 48.1516 115.476 47.8292 116.458 47.3906L123.709 43.9118C123.708 43.9118 123.709 43.9117 123.709 43.9118Z" fill="#333333"/>
<path fill-rule="evenodd" clip-rule="evenodd" d="M20.729 48.5306C16.9746 58.5323 10.1895 69.8584 5.30432 76.0695C2.726 79.0381 3.31404 79.8601 5.57572 81.0475L13.175 84.9751C15.889 86.3909 17.1555 86.5736 19.7338 84.0161C24.6191 78.9099 34.5705 62.3317 35.6108 52.4125C35.6108 50.8597 34.7966 50.3117 32.8516 49.444L25.6142 45.9731C23.2168 44.7856 22.4931 43.8266 20.729 48.5306Z" fill="#BDECFF"/>
<path fill-rule="evenodd" clip-rule="evenodd" d="M25.7206 45.0229L32.9501 48.4892C33.9102 48.9175 34.6802 49.3026 35.1994 49.8133C35.7598 50.3647 36 51.0293 36 51.914V51.9406L35.9972 51.9669C35.4662 57.0289 32.6772 63.725 29.4424 69.7578C26.2042 75.7969 22.4694 81.2628 19.981 83.8631L19.9719 83.8725C18.6636 85.17 17.5978 85.8687 16.4427 85.9833C15.3023 86.0964 14.1869 85.6244 12.8358 84.9198C12.8355 84.9197 12.8351 84.9195 12.8348 84.9193L5.2361 80.993L5.23328 80.9915C4.66328 80.6923 4.15802 80.396 3.77817 80.0647C3.39139 79.7274 3.09702 79.3209 3.01972 78.7993C2.94387 78.2876 3.09102 77.7563 3.38915 77.1943C3.68642 76.6339 4.15919 75.9955 4.80921 75.2465C9.6655 69.071 16.4197 57.7974 20.153 47.8545C20.5972 46.6704 20.988 45.8082 21.3708 45.2094C21.752 44.6129 22.1682 44.2097 22.6886 44.0614C23.206 43.914 23.7085 44.0537 24.1701 44.2494C24.456 44.3706 24.7828 44.5404 25.1272 44.7194C25.3208 44.82 25.52 44.9235 25.7206 45.0229ZM22.2071 45.754C21.883 46.2612 21.5217 47.0428 21.0837 48.2104C17.3091 58.2635 10.4962 69.6334 5.58113 75.8808L5.57358 75.8904L5.56558 75.8996C4.93041 76.6307 4.51236 77.2051 4.26656 77.6685C4.0204 78.1325 3.97245 78.4374 4.00405 78.6507C4.03419 78.854 4.14981 79.0611 4.42891 79.3046C4.71465 79.5538 5.13059 79.8052 5.69072 80.0993C5.6913 80.0996 5.69188 80.0999 5.69245 80.1002L13.29 84.0259L13.2916 84.0268C14.6545 84.7375 15.5294 85.0644 16.3454 84.9835C17.1459 84.9041 18.0018 84.4167 19.2696 83.1604C21.6673 80.653 25.3492 75.2809 28.5671 69.2796C31.7844 63.2795 34.488 56.7415 35.0046 51.8881C35.0003 51.2362 34.8334 50.8562 34.5047 50.5328C34.1315 50.1656 33.5239 49.8434 32.5416 49.4053L32.5291 49.3997L25.2851 45.9263C25.0353 45.8026 24.8157 45.6881 24.6159 45.584C24.3035 45.4212 24.0396 45.2837 23.7847 45.1757C23.3812 45.0046 23.1428 44.9759 22.959 45.0283C22.7782 45.0798 22.5327 45.2446 22.2071 45.754Z" fill="#333333"/>
<path fill-rule="evenodd" clip-rule="evenodd" d="M76.6966 111L66.7073 103.647C66.2998 103.161 67.2857 102.77 67.7589 103.157L77.6108 110.387L76.6966 111Z" fill="#333333"/>
<path fill-rule="evenodd" clip-rule="evenodd" d="M87.3685 106.449L76.7035 97.8505C76.3398 97.3224 76.9325 96.7392 77.3625 97.1646L88.2581 105.839L87.3685 106.449Z" fill="#333333"/>
<path fill-rule="evenodd" clip-rule="evenodd" d="M97.6496 101.378L85.6576 91.7878C85.3109 91.2753 85.9597 90.7851 86.3811 91.2083L98.6079 100.886L97.6496 101.378Z" fill="#333333"/>
<path fill-rule="evenodd" clip-rule="evenodd" d="M59.9802 95.2744L59.4894 94.9169C57.526 93.487 54.5363 93.7551 52.8406 95.5425L49.9848 98.4918C48.2891 100.279 48.0214 103.663 49.9848 105.093C52.1442 106.666 55.6377 106.117 57.6152 104.033L60.4711 101.084C62.1667 99.2961 61.9436 96.6597 59.9802 95.2744Z" fill="#FEFEFE"/>
<path fill-rule="evenodd" clip-rule="evenodd" d="M51.8202 95.7532C53.7198 93.7204 57.0446 93.416 59.2477 95.0465L58.9536 95.458L59.2477 95.0465L59.7447 95.4144C62.0029 97.0362 62.2426 100.128 60.3161 102.192L60.3126 102.196L60.3125 102.196L57.4052 105.247C55.5055 107.28 52.1808 107.584 49.9777 105.953L49.4777 105.583C47.2283 103.919 46.9783 100.877 48.9093 98.8081L48.9128 98.8043L48.9128 98.8043L51.8202 95.7532ZM58.6595 95.8695C56.8633 94.5401 54.0986 94.7901 52.5434 96.4561L52.5398 96.4598L52.5398 96.4598L49.6325 99.5108C48.1109 101.143 48.3159 103.465 50.0659 104.76L50.5659 105.13L50.3239 105.469L50.5659 105.13C52.3621 106.46 55.1268 106.21 56.682 104.544L56.6855 104.54L56.6855 104.54L59.5928 101.489C61.1181 99.8533 60.9038 97.4903 59.1656 96.244L59.1595 96.2396L59.1595 96.2396L58.6595 95.8695Z" fill="#333333"/>
<path fill-rule="evenodd" clip-rule="evenodd" d="M52.1483 91.0866L51.703 90.7687C49.9214 89.5426 47.1599 89.8151 45.5565 91.3591L43.1514 93.8115C40.8416 95.7548 41.37 98.3717 43.1515 99.5978C45.5565 100.352 48.2084 100.071 50.0995 98.5346L52.5492 96.1276C54.1081 94.5836 53.9299 92.3128 52.1483 91.0866Z" fill="#FEFEFE"/>
<path fill-rule="evenodd" clip-rule="evenodd" d="M44.4033 91.5045C46.2302 89.7976 49.3553 89.4881 51.4089 90.8594L51.4161 90.8642L51.8744 91.1817C52.9141 91.8774 53.5112 92.8894 53.5994 93.9708C53.6877 95.0526 53.2631 96.1554 52.3561 97.0271L52.3546 97.0285L49.8164 99.4482L49.8156 99.4489C47.9875 101.207 44.8595 101.516 42.8054 100.144L42.7983 100.139L42.34 99.8217C41.3006 99.1262 40.7021 98.1134 40.6205 97.0295C40.5389 95.9469 40.9766 94.8459 41.9042 93.9765L44.398 91.5094L44.4033 91.5045ZM45.106 92.2304L42.6125 94.6972L42.6072 94.7021C41.8761 95.3852 41.5768 96.2007 41.6336 96.9548C41.6904 97.7084 42.1065 98.4533 42.912 98.9912L42.9192 98.9959L43.3773 99.3133C45.0174 100.406 47.6124 100.166 49.1082 98.7276L49.1098 98.726L51.6482 96.3062V96.3062C52.3569 95.6248 52.6486 94.8085 52.5868 94.0517C52.5251 93.2956 52.1075 92.55 51.3023 92.0123L51.2952 92.0075L50.8371 91.6902C49.1981 90.5985 46.6036 90.8361 45.106 92.2304Z" fill="#333333"/>
<path fill-rule="evenodd" clip-rule="evenodd" d="M41.446 88.0005C39.7704 86.5938 37.2762 86.5296 36.1172 88.7196C34.1509 90.9467 34.2355 92.6604 35.6439 93.9068C36.71 95.3237 39.9553 95.4404 41.2176 93.801L41.7885 93.0819C43.0065 91.5 42.8543 89.199 41.446 88.0005Z" fill="#FEFEFE"/>
<path fill-rule="evenodd" clip-rule="evenodd" d="M41.6222 87.8577L42.0231 88.1342C43.9509 89.4818 44.1376 92.0821 42.5042 93.8249L42.4989 93.8305L41.8294 94.5231C40.2278 96.2288 37.4544 96.4865 35.5998 95.1424L35.1914 94.8607C33.2814 93.4721 33.0746 90.875 34.7231 89.1695L35.3926 88.4769C36.9942 86.7712 39.7676 86.5135 41.6222 87.8577ZM41.0606 88.6957C39.6008 87.6345 37.3621 87.8404 36.0974 89.1897L36.0922 89.1953L35.4201 89.8906C34.2026 91.1502 34.3524 93.0003 35.7534 94.0227L36.1615 94.3042C37.6212 95.3654 39.8599 95.1596 41.1245 93.8103L41.1298 93.8047L41.7991 93.1123C43.0299 91.7964 42.8579 89.9495 41.4725 88.98L41.0606 88.6957Z" fill="#333333"/>
<path fill-rule="evenodd" clip-rule="evenodd" d="M60.7314 110.387C63.5589 109.697 64.1573 107.401 63.9262 104.968C63.5871 104.045 61.6744 102.268 59.5454 102.816C57.2212 103.445 55.1083 104.907 55.3118 107.466C55.5552 110.027 57.6734 111.798 60.7314 110.387Z" fill="#FEFEFE"/>
<path fill-rule="evenodd" clip-rule="evenodd" d="M62.6426 102.846L63.0467 103.129C64.9368 104.522 65.1415 107.127 63.5101 108.838L62.8398 109.541C61.2216 111.187 58.439 111.509 56.5941 110.154L56.195 109.875C55.2394 109.189 54.6997 108.204 54.6209 107.15C54.5424 106.1 54.9248 105.029 55.7213 104.168L55.7265 104.162L56.3969 103.459C58.0151 101.813 60.7977 101.491 62.6426 102.846ZM57.0786 104.191L56.419 104.883C55.7986 105.555 55.5389 106.343 55.5933 107.07C55.6475 107.794 56.016 108.506 56.7435 109.029L57.15 109.313C58.5851 110.371 60.8512 110.136 62.1581 108.809L62.8204 108.115C64.0252 106.851 63.877 104.995 62.4906 103.969L62.0867 103.687C60.6516 102.629 58.3855 102.864 57.0786 104.191Z" fill="#333333"/>
<path fill-rule="evenodd" clip-rule="evenodd" d="M15.6108 76C17.295 76 18.6108 77.3684 18.6108 79C18.6108 80.6842 17.2424 82 15.6108 82C13.9266 82 12.6108 80.6316 12.6108 79C12.6108 77.3684 13.9266 76 15.6108 76Z" fill="#333333"/>
<path fill-rule="evenodd" clip-rule="evenodd" d="M134.111 71C135.514 71 136.611 72.1404 136.611 73.5C136.611 74.9035 135.47 76 134.111 76C132.707 76 131.611 74.8596 131.611 73.5C131.611 72.1404 132.707 71 134.111 71Z" fill="#333333"/>
<defs>
<linearGradient id="paint0_linear_125_10438" x1="113" y1="40.3984" x2="153.383" y2="74.1717" gradientUnits="userSpaceOnUse">
<stop stop-color="#FF8E3D"/>
<stop offset="1" stop-color="#FF6F3D"/>
</linearGradient>
</defs>
</svg>
