<svg width="135" height="135" viewBox="0 0 135 135" fill="none" xmlns="http://www.w3.org/2000/svg">
<path d="M67.5 1.5C101.189 1.5 128.5 28.8112 128.5 62.5C128.5 96.1888 101.189 123.5 67.5 123.5C33.8113 123.5 6.5 96.1789 6.5 62.4901C6.5 28.8014 33.8111 1.5 67.5 1.5Z" fill="url(#paint0_linear_125_1879)" stroke="#333333"/>
<path d="M121.5 62.5C121.5 92.3234 97.3234 116.5 67.5 116.5C37.6766 116.5 13.5 92.3234 13.5 62.5C13.5 32.6766 37.6766 8.5 67.5 8.5C97.3234 8.5 121.5 32.6766 121.5 62.5Z" fill="#FEFEFE" stroke="#333333"/>
<path d="M48 27.5005L38.0004 27.5006C34.9629 27.5006 32.5005 29.9629 32.5004 33.0004L32.5002 39.0003C32.5001 42.0379 34.9625 44.5005 38.0002 44.5005H48C51.0376 44.5005 53.5 42.0381 53.5 39.0005V33.0005C53.5 29.9629 51.0375 27.5005 48 27.5005Z" fill="#E0E0E0" stroke="#333333"/>
<path d="M48 48.5005L38.0004 48.5006C34.9629 48.5006 32.5005 50.9629 32.5004 54.0004L32.5002 60.0003C32.5001 63.0379 34.9625 65.5005 38.0002 65.5005H48C51.0376 65.5005 53.5 63.0381 53.5 60.0005V54.0005C53.5 50.9629 51.0375 48.5005 48 48.5005Z" fill="#E0E0E0" stroke="#333333"/>
<path d="M48 69.5005L38.0004 69.5006C34.9629 69.5006 32.5005 71.9629 32.5004 75.0004L32.5002 81.0003C32.5001 84.0379 34.9625 86.5005 38.0002 86.5005H48C51.0376 86.5005 53.5 84.0381 53.5 81.0005V75.0005C53.5 71.9629 51.0375 69.5005 48 69.5005Z" fill="#E0E0E0" stroke="#333333"/>
<path d="M73 27.5005L63.0004 27.5006C59.9629 27.5006 57.5005 29.9629 57.5004 33.0004L57.5002 39.0003C57.5001 42.0379 59.9625 44.5005 63.0002 44.5005H73C76.0376 44.5005 78.5 42.0381 78.5 39.0005V33.0005C78.5 29.9629 76.0375 27.5005 73 27.5005Z" fill="#E0E0E0" stroke="#333333"/>
<path d="M73 48.5005L63.0004 48.5006C59.9629 48.5006 57.5005 50.9629 57.5004 54.0004L57.5002 60.0003C57.5001 63.0379 59.9625 65.5005 63.0002 65.5005H73C76.0376 65.5005 78.5 63.0381 78.5 60.0005V54.0005C78.5 50.9629 76.0375 48.5005 73 48.5005Z" fill="#E0E0E0" stroke="#333333"/>
<path d="M73 69.5005L63.0004 69.5006C59.9629 69.5006 57.5005 71.9629 57.5004 75.0004L57.5002 81.0003C57.5001 84.0379 59.9625 86.5005 63.0002 86.5005H73C76.0376 86.5005 78.5 84.0381 78.5 81.0005V75.0005C78.5 71.9629 76.0375 69.5005 73 69.5005Z" fill="#E0E0E0" stroke="#333333"/>
<path d="M73 90.5005L63.0004 90.5006C59.9629 90.5006 57.5005 92.9629 57.5004 96.0004L57.5002 102C57.5001 105.038 59.9625 107.5 63.0002 107.5H73C76.0376 107.5 78.5 105.038 78.5 102V96.0005C78.5 92.9629 76.0375 90.5005 73 90.5005Z" fill="#E0E0E0" stroke="#333333"/>
<path fill-rule="evenodd" clip-rule="evenodd" d="M88.2487 27.0005H96.7513C99.6371 27.0005 102 29.5208 102 32.5989V39.0005C102 41.0005 100.5 43.0005 99 43.0005H86C84.5 43.0005 83 41.0005 83 38.5005V32.5989C83 29.5208 85.3629 27.0005 88.2487 27.0005Z" fill="#BDECFF"/>
<path fill-rule="evenodd" clip-rule="evenodd" d="M88.2487 49.0005H96.7513C99.6371 49.0005 102 51.0005 102 54.249V58.7519C102 61.6377 99.6371 64.0005 96.7513 64.0005H88.2487C85.3629 64.0005 83 61.6377 83 58.7519V54.249C83 51.0005 85.3629 49.0005 88.2487 49.0005Z" fill="#E0E0E0"/>
<path fill-rule="evenodd" clip-rule="evenodd" d="M46 39.536C46 39.6186 45.9901 39.7012 45.9803 39.7528C45.9704 39.8147 45.9507 39.8663 45.931 39.8973C45.9112 39.9386 45.8817 39.9592 45.8521 39.9798C45.8225 40.0005 45.7929 40.0005 45.7633 40.0005H41.2959C41.2663 40.0005 41.2367 39.9902 41.2071 39.9798C41.1775 39.9592 41.1578 39.9386 41.1282 39.8973C41.0986 39.8663 41.0888 39.8147 41.069 39.7528C41.0592 39.6909 41.0493 39.6186 41.0493 39.536C41.0493 39.4535 41.0592 39.3812 41.069 39.3193C41.0789 39.2574 41.0986 39.2058 41.1183 39.1748C41.1381 39.1335 41.1578 39.1025 41.1874 39.0819C41.217 39.0613 41.2465 39.0509 41.286 39.0509H43.0611V32.239L41.4043 33.2711C41.3156 33.3124 41.2564 33.3434 41.1972 33.3537C41.1479 33.364 41.1085 33.3537 41.0789 33.3227C41.0493 33.2918 41.0296 33.2402 41.0197 33.1782C41.0099 33.106 41 33.0234 41 32.9202C41 32.8376 41 32.7757 41.0099 32.7241C41.0197 32.6622 41.0296 32.6209 41.0394 32.5796C41.0493 32.5487 41.069 32.5074 41.0986 32.4867C41.1183 32.4558 41.1479 32.4351 41.1972 32.4042L43.1696 31.0831C43.1894 31.0727 43.2091 31.0521 43.2387 31.0521C43.2682 31.0418 43.2978 31.0315 43.3373 31.0211C43.3767 31.0108 43.426 31.0005 43.4753 31.0005C43.5247 31.0005 43.5937 31.0005 43.6726 31.0005C43.7811 31.0005 43.8698 31.0108 43.9389 31.0108C44.0079 31.0211 44.0671 31.0315 44.1065 31.0521C44.146 31.0727 44.1755 31.0934 44.1854 31.114C44.1953 31.1347 44.2051 31.1656 44.2051 31.1966V39.0613H45.7535C45.7929 39.0613 45.8225 39.0716 45.8521 39.0922C45.8817 39.1129 45.9112 39.1438 45.931 39.1851C45.9507 39.2264 45.9704 39.278 45.9803 39.3296C46 39.3812 46 39.4535 46 39.536Z" fill="#333333"/>
<path fill-rule="evenodd" clip-rule="evenodd" d="M70.4 40.2494C70.4 40.3288 70.4 40.3983 70.3801 40.4578C70.3702 40.5174 70.3504 40.577 70.3305 40.6167C70.3107 40.6564 70.2809 40.6861 70.2511 40.706C70.2213 40.7259 70.1816 40.7358 70.1419 40.7358H65.3772C65.3176 40.7358 65.2581 40.7259 65.2184 40.7159C65.1688 40.6961 65.129 40.6762 65.0993 40.6365C65.0695 40.6067 65.0397 40.5472 65.0198 40.4876C65 40.4181 65 40.3387 65 40.2395C65 40.1501 65 40.0707 65.0099 40.0111C65.0199 39.9417 65.0298 39.8821 65.0496 39.8325C65.0695 39.7828 65.0993 39.7332 65.139 39.6836C65.1687 39.6339 65.2184 39.5744 65.2779 39.5248L66.9952 37.7578C67.3923 37.3509 67.7099 36.9836 67.9581 36.656C68.1963 36.3384 68.3849 36.0406 68.514 35.7725C68.643 35.5045 68.7324 35.2663 68.7721 35.0479C68.8118 34.8295 68.8316 34.6211 68.8316 34.4325C68.8316 34.2439 68.8018 34.0553 68.7324 33.8865C68.6629 33.7178 68.5735 33.5689 68.4544 33.4398C68.3353 33.3108 68.1864 33.2115 67.9978 33.1321C67.8191 33.0527 67.6007 33.0229 67.3625 33.0229C67.0846 33.0229 66.8364 33.0626 66.6081 33.1321C66.3897 33.2115 66.1912 33.2909 66.0224 33.3803C65.8537 33.4696 65.7147 33.549 65.6055 33.6284C65.4963 33.7078 65.407 33.7376 65.3574 33.7376C65.3276 33.7376 65.2978 33.7277 65.268 33.7078C65.2382 33.688 65.2184 33.6582 65.2085 33.6185C65.1886 33.5788 65.1787 33.5292 65.1687 33.4597C65.1588 33.3902 65.1588 33.3108 65.1588 33.2214C65.1588 33.152 65.1588 33.1023 65.1687 33.0527C65.1687 33.0031 65.1787 32.9634 65.1886 32.9237C65.1985 32.8939 65.2184 32.8542 65.2283 32.8244C65.2482 32.7946 65.2879 32.7549 65.3375 32.7053C65.3971 32.6556 65.4864 32.5961 65.6154 32.5167C65.7445 32.4373 65.9132 32.3578 66.1118 32.2784C66.3103 32.199 66.5287 32.1395 66.7669 32.0799C67.0051 32.0303 67.2533 32.0005 67.5114 32.0005C67.9283 32.0005 68.2956 32.06 68.6033 32.1792C68.921 32.2983 69.179 32.4571 69.3776 32.6556C69.586 32.8641 69.7349 33.0924 69.8441 33.3703C69.9434 33.6384 69.993 33.9262 69.993 34.2339C69.993 34.5119 69.9632 34.7799 69.9235 35.0578C69.8739 35.3259 69.7746 35.6237 69.6158 35.9413C69.457 36.2589 69.2287 36.6064 68.9309 37.0034C68.6331 37.3906 68.236 37.8373 67.7496 38.3435L66.3897 39.763H70.132C70.1618 39.763 70.2015 39.7729 70.2312 39.7928C70.261 39.8126 70.2908 39.8424 70.3206 39.8821C70.3504 39.9218 70.3603 39.9714 70.3801 40.031C70.4 40.1005 70.4 40.17 70.4 40.2494Z" fill="#333333"/>
<path fill-rule="evenodd" clip-rule="evenodd" d="M95.3901 37.2641C95.3901 37.6611 95.3206 38.0086 95.1816 38.3262C95.0426 38.6439 94.8441 38.9119 94.586 39.1402C94.3279 39.3685 94.0103 39.5373 93.6331 39.6564C93.2559 39.7755 92.829 39.835 92.3526 39.835C92.0647 39.835 91.7967 39.8152 91.5485 39.7656C91.3004 39.7159 91.0721 39.6663 90.8835 39.5968C90.6849 39.5273 90.5261 39.4678 90.3971 39.3983C90.268 39.3288 90.1886 39.2792 90.1588 39.2494C90.129 39.2196 90.0993 39.1898 90.0794 39.16C90.0596 39.1303 90.0496 39.0906 90.0397 39.0509C90.0298 39.0112 90.0099 38.9516 90.0099 38.892C90 38.8325 90 38.7531 90 38.6538C90 38.495 90.0198 38.3858 90.0496 38.3262C90.0794 38.2667 90.129 38.2369 90.1886 38.2369C90.2283 38.2369 90.3077 38.2766 90.4268 38.3461C90.546 38.4156 90.7048 38.495 90.8934 38.5744C91.082 38.6538 91.3004 38.7332 91.5585 38.8027C91.8066 38.8722 92.0945 38.9119 92.4022 38.9119C92.7 38.9119 92.968 38.8722 93.1963 38.8027C93.4246 38.7233 93.6132 38.624 93.772 38.485C93.9309 38.3461 94.0401 38.1873 94.1195 37.9986C94.1989 37.81 94.2386 37.6016 94.2386 37.3832C94.2386 37.135 94.189 36.9167 94.0897 36.7181C93.9904 36.5196 93.8515 36.3509 93.6529 36.2119C93.4643 36.0729 93.2261 35.9637 92.9581 35.8843C92.6801 35.8049 92.3625 35.7652 92.0151 35.7652H91.1515C91.1118 35.7652 91.082 35.7553 91.0423 35.7453C91.0026 35.7255 90.9827 35.7056 90.9529 35.6659C90.9232 35.6362 90.9033 35.5865 90.8934 35.527C90.8735 35.4674 90.8636 35.3979 90.8636 35.2986C90.8636 35.2093 90.8735 35.1498 90.8835 35.0902C90.8934 35.0306 90.9132 34.9909 90.943 34.9611C90.9728 34.9314 90.9926 34.9016 91.0224 34.8917C91.0522 34.8718 91.0919 34.8718 91.1316 34.8718H91.886C92.1739 34.8718 92.4419 34.8321 92.6702 34.7626C92.8985 34.6832 93.0971 34.5839 93.2658 34.435C93.4246 34.2961 93.5537 34.1273 93.643 33.9288C93.7323 33.7303 93.772 33.5119 93.772 33.2637C93.772 33.085 93.7423 32.9163 93.6827 32.7575C93.6232 32.5987 93.5437 32.4597 93.4246 32.3306C93.3055 32.2115 93.1566 32.1222 92.9779 32.0527C92.7993 31.9832 92.5908 31.9534 92.3625 31.9534C92.1044 31.9534 91.8662 31.9931 91.6577 32.0725C91.4393 32.152 91.2507 32.2314 91.082 32.3207C90.9132 32.41 90.7743 32.4895 90.6651 32.5689C90.5559 32.6483 90.4765 32.688 90.4368 32.688C90.407 32.688 90.3772 32.688 90.3474 32.6681C90.3276 32.6582 90.3077 32.6384 90.2879 32.5987C90.268 32.5689 90.2581 32.5192 90.2581 32.4597C90.2482 32.4001 90.2482 32.3207 90.2482 32.2214C90.2482 32.152 90.2482 32.0924 90.2581 32.0428C90.2581 31.9931 90.268 31.9435 90.2879 31.9137C90.2978 31.874 90.3176 31.8442 90.3375 31.8045C90.3573 31.7748 90.3871 31.735 90.4268 31.6953C90.4665 31.6556 90.5559 31.5961 90.6849 31.5167C90.814 31.4373 90.9728 31.3578 91.1614 31.2784C91.35 31.199 91.5684 31.1395 91.8165 31.0799C92.0647 31.0303 92.3228 31.0005 92.6107 31.0005C93.0077 31.0005 93.3551 31.0501 93.6629 31.1494C93.9607 31.2486 94.2187 31.3975 94.4173 31.5862C94.6158 31.7648 94.7647 31.9931 94.8739 32.2512C94.9731 32.5093 95.0228 32.7972 95.0228 33.1148C95.0228 33.3828 94.9831 33.631 94.9136 33.8692C94.8441 34.0975 94.7349 34.306 94.5959 34.4847C94.457 34.6634 94.2882 34.8123 94.0897 34.9413C93.8912 35.0703 93.6629 35.1597 93.3948 35.1994V35.2093C93.6926 35.2391 93.9606 35.3185 94.2088 35.4277C94.457 35.5468 94.6654 35.6957 94.8441 35.8744C95.0228 36.0531 95.1617 36.2615 95.261 36.4998C95.3404 36.738 95.3901 36.9861 95.3901 37.2641Z" fill="#333333"/>
<path fill-rule="evenodd" clip-rule="evenodd" d="M46.1941 59.1847C46.1941 59.3336 46.1743 59.4428 46.1246 59.5321C46.075 59.6214 46.0154 59.6611 45.936 59.6611H44.9732V61.4678C44.9732 61.5075 44.9632 61.5372 44.9434 61.5571C44.9235 61.577 44.8937 61.6067 44.8441 61.6167C44.7945 61.6365 44.7349 61.6464 44.6654 61.6564C44.596 61.6663 44.4967 61.6663 44.3875 61.6663C44.2783 61.6663 44.189 61.6663 44.1096 61.6564C44.0401 61.6464 43.9805 61.6365 43.9309 61.6167C43.8912 61.5968 43.8614 61.577 43.8415 61.5571C43.8217 61.5372 43.8118 61.5075 43.8118 61.4678V59.6611H40.3077C40.2482 59.6611 40.2085 59.6512 40.1787 59.6413C40.139 59.6314 40.1092 59.6016 40.0794 59.5718C40.0496 59.542 40.0298 59.4825 40.0199 59.4229C40.0099 59.3534 40 59.274 40 59.1648C40 59.0854 40 59.006 40.0099 58.9365C40.0099 58.867 40.0199 58.8075 40.0397 58.7578C40.0496 58.6983 40.0695 58.6486 40.0893 58.599C40.1092 58.5494 40.139 58.4898 40.1687 58.4402L43.236 53.2089C43.2559 53.1692 43.2956 53.1395 43.3353 53.1196C43.375 53.0898 43.4346 53.07 43.504 53.0501C43.5735 53.0303 43.6529 53.0203 43.7522 53.0104C43.8515 53.0005 43.9706 53.0005 44.1096 53.0005C44.2585 53.0005 44.3875 53.0005 44.4967 53.0203C44.6059 53.0303 44.6952 53.0501 44.7647 53.06C44.8342 53.0799 44.8838 53.0998 44.9235 53.1295C44.9632 53.1593 44.9831 53.1891 44.9831 53.2387V58.738H45.9559C46.0353 58.738 46.0949 58.7777 46.1346 58.8571C46.1743 58.9067 46.1941 59.0259 46.1941 59.1847ZM43.8316 53.9832H43.8217L41.0522 58.7082H43.8316V53.9832Z" fill="#333333"/>
<path fill-rule="evenodd" clip-rule="evenodd" d="M70.4199 58.8373C70.4199 59.2939 70.3404 59.7108 70.1915 60.0681C70.0327 60.4255 69.8143 60.7332 69.5364 60.9814C69.2485 61.2295 68.911 61.4082 68.5239 61.5472C68.1368 61.6762 67.7 61.7358 67.2235 61.7358C66.9555 61.7358 66.7074 61.7159 66.4691 61.6762C66.2309 61.6365 66.0125 61.5968 65.8239 61.5373C65.6353 61.4876 65.4864 61.4281 65.3673 61.3784C65.2482 61.3288 65.1687 61.2891 65.139 61.2494C65.1092 61.2196 65.0794 61.1898 65.0695 61.16C65.0596 61.1303 65.0397 61.1005 65.0298 61.0608C65.0199 61.0211 65.0099 60.9714 65.0099 60.9218C65 60.8623 65 60.7928 65 60.7134C65 60.6339 65 60.5744 65.0099 60.5148C65.0199 60.4553 65.0298 60.4056 65.0496 60.3659C65.0695 60.3262 65.0893 60.2964 65.1092 60.2865C65.139 60.2667 65.1588 60.2567 65.1985 60.2567C65.2482 60.2567 65.3077 60.2865 65.407 60.3461C65.4963 60.3957 65.6254 60.4553 65.7842 60.5248C65.943 60.5843 66.1316 60.6538 66.3699 60.7034C66.6081 60.763 66.8761 60.7928 67.1937 60.7928C67.4915 60.7928 67.7695 60.7531 68.0077 60.6836C68.2559 60.6141 68.4743 60.5049 68.6529 60.3461C68.8316 60.1972 68.9706 60.0086 69.0798 59.7803C69.179 59.552 69.2287 59.274 69.2287 58.9464C69.2287 58.6685 69.189 58.4303 69.0996 58.2218C69.0103 58.0134 68.8813 57.8347 68.7026 57.6957C68.5239 57.5567 68.2956 57.4575 68.0176 57.3781C67.7397 57.3086 67.4121 57.2788 67.0349 57.2788C66.757 57.2788 66.5287 57.2887 66.3401 57.3185C66.1415 57.3483 65.9629 57.3582 65.7941 57.3582C65.675 57.3582 65.5857 57.3284 65.5261 57.2689C65.4765 57.2093 65.4467 57.1001 65.4467 56.9413V53.4373C65.4467 53.2884 65.4765 53.1792 65.546 53.1097C65.6154 53.0402 65.7147 53.0005 65.8437 53.0005H69.6555C69.6853 53.0005 69.725 53.0104 69.7548 53.0303C69.7846 53.0501 69.8143 53.0799 69.8342 53.1196C69.854 53.1593 69.8739 53.2089 69.8838 53.2685C69.8937 53.3281 69.9037 53.3975 69.9037 53.4869C69.9037 53.6457 69.8838 53.7748 69.8441 53.8641C69.8044 53.9534 69.7449 53.9931 69.6654 53.9931H66.5882V56.4152C66.7371 56.3953 66.886 56.3755 67.0449 56.3755C67.2037 56.3755 67.3824 56.3656 67.5908 56.3656C68.0673 56.3656 68.4743 56.4251 68.8316 56.5442C69.189 56.6634 69.4868 56.8222 69.7151 57.0406C69.9533 57.2589 70.132 57.517 70.2511 57.8248C70.3603 58.1225 70.4199 58.46 70.4199 58.8373Z" fill="#333333"/>
<path fill-rule="evenodd" clip-rule="evenodd" d="M45.6283 74.477C45.6283 74.5564 45.6283 74.6259 45.6184 74.6953C45.6085 74.7549 45.6085 74.8244 45.5886 74.884C45.5787 74.9435 45.5588 75.0031 45.539 75.0626C45.5191 75.1123 45.4993 75.1718 45.4695 75.2413L42.3724 82.3884C42.3526 82.438 42.3228 82.4876 42.2831 82.5174C42.2533 82.5472 42.2037 82.577 42.154 82.5968C42.1044 82.6167 42.0349 82.6266 41.9555 82.6365C41.8761 82.6465 41.7768 82.6465 41.6577 82.6465C41.5088 82.6465 41.3897 82.6365 41.3103 82.6266C41.2309 82.6167 41.1614 82.5968 41.1217 82.567C41.082 82.5373 41.0721 82.5075 41.0721 82.4678C41.0721 82.4281 41.0919 82.3784 41.1217 82.3189L44.3776 75.013H40.2482C40.1688 75.013 40.0993 74.9634 40.0596 74.874C40.0199 74.7847 40 74.6656 40 74.4968C40 74.4174 40 74.338 40.0198 74.2784C40.0298 74.2189 40.0496 74.1692 40.0695 74.1196C40.0893 74.0799 40.1191 74.0501 40.1489 74.0303C40.1787 74.0104 40.2184 74.0005 40.2581 74.0005H45.271C45.3305 74.0005 45.3901 74.0104 45.4298 74.0203C45.4794 74.0303 45.5191 74.0601 45.539 74.0998C45.5688 74.1395 45.5787 74.1891 45.5985 74.2586C45.6184 74.2983 45.6283 74.3777 45.6283 74.477Z" fill="#333333"/>
<path fill-rule="evenodd" clip-rule="evenodd" d="M70.807 80.5222C70.807 80.8994 70.7375 81.227 70.6085 81.5148C70.4695 81.8027 70.2809 82.0509 70.0327 82.2494C69.7846 82.4479 69.4669 82.5968 69.0996 82.6961C68.7324 82.7953 68.3055 82.845 67.839 82.845C67.3923 82.845 66.9952 82.7953 66.6478 82.706C66.3004 82.6167 66.0026 82.4777 65.7544 82.299C65.5162 82.1203 65.3276 81.892 65.1985 81.624C65.0695 81.356 65 81.0582 65 80.7108C65 80.4428 65.0496 80.1946 65.129 79.9663C65.2184 79.738 65.3474 79.5295 65.5063 79.3409C65.675 79.1523 65.8835 78.9737 66.1217 78.8049C66.3699 78.6362 66.6379 78.4773 66.9456 78.3284C66.6776 78.1895 66.4393 78.0505 66.2408 77.8917C66.0324 77.7428 65.8636 77.574 65.7246 77.3953C65.5857 77.2167 65.4765 77.0181 65.3971 76.8196C65.3276 76.6211 65.2879 76.3928 65.2879 76.1545C65.2879 75.8567 65.3375 75.5689 65.4467 75.3108C65.5559 75.0428 65.7147 74.8145 65.943 74.6259C66.1614 74.4273 66.4393 74.2784 66.7868 74.1692C67.1243 74.0601 67.5213 74.0005 67.9779 74.0005C68.4147 74.0005 68.7919 74.0501 69.1096 74.1593C69.4272 74.2685 69.6853 74.4075 69.8938 74.5862C70.1022 74.7648 70.2511 74.9733 70.3504 75.2214C70.4496 75.4597 70.4993 75.7277 70.4993 76.0056C70.4993 76.2339 70.4596 76.4523 70.3901 76.6608C70.3107 76.8692 70.2114 77.0678 70.0625 77.2564C69.9235 77.445 69.7449 77.6137 69.5364 77.7825C69.3279 77.9413 69.0897 78.1001 68.8217 78.2391C69.1393 78.3979 69.4173 78.5567 69.6654 78.7156C69.9136 78.8843 70.1221 79.0531 70.2809 79.2417C70.4496 79.4303 70.5787 79.6288 70.6581 79.8373C70.7673 80.0358 70.807 80.274 70.807 80.5222ZM69.3776 76.1049C69.3776 75.9163 69.3478 75.7475 69.2783 75.5987C69.2188 75.4498 69.1195 75.3207 69.0004 75.2115C68.8713 75.1023 68.7224 75.0229 68.5338 74.9733C68.3452 74.9137 68.1368 74.8839 67.9085 74.8839C67.432 74.8839 67.0647 74.9931 66.8165 75.2115C66.5684 75.4299 66.4493 75.7277 66.4493 76.1049C66.4493 76.2737 66.479 76.4424 66.5386 76.5913C66.5982 76.7402 66.6875 76.8792 66.8165 77.0181C66.9456 77.1472 67.1044 77.2862 67.293 77.4053C67.4816 77.5343 67.7199 77.6634 67.9779 77.8023C68.4246 77.574 68.7721 77.3159 69.0103 77.038C69.2585 76.7501 69.3776 76.4424 69.3776 76.1049ZM69.6456 80.6413C69.6456 80.4328 69.6059 80.2542 69.5364 80.0854C69.457 79.9167 69.3478 79.7678 69.189 79.6189C69.0401 79.4799 68.8415 79.331 68.6132 79.202C68.3849 79.0729 68.1169 78.924 67.8191 78.7751C67.5412 78.9141 67.293 79.0531 67.0846 79.192C66.8761 79.331 66.6974 79.47 66.5684 79.6189C66.4393 79.7678 66.3302 79.9167 66.2607 80.0854C66.1912 80.2442 66.1614 80.4229 66.1614 80.6215C66.1614 81.0483 66.3103 81.3858 66.6081 81.624C66.9059 81.8623 67.3427 81.9715 67.9283 81.9715C68.4941 81.9715 68.921 81.8523 69.2188 81.6141C69.5066 81.3759 69.6456 81.0582 69.6456 80.6413Z" fill="#333333"/>
<path fill-rule="evenodd" clip-rule="evenodd" d="M70.9559 99.4078C70.9559 100.073 70.9063 100.669 70.7971 101.214C70.6879 101.76 70.5191 102.227 70.2809 102.624C70.0427 103.021 69.725 103.319 69.3279 103.537C68.9408 103.756 68.4544 103.855 67.8787 103.855C67.3427 103.855 66.886 103.756 66.5088 103.567C66.1415 103.378 65.8438 103.091 65.6154 102.713C65.3871 102.336 65.2283 101.88 65.139 101.334C65.0397 100.788 65 100.152 65 99.4475C65 98.7924 65.0496 98.1869 65.1588 97.6409C65.268 97.095 65.4368 96.6284 65.675 96.2314C65.9132 95.8343 66.2309 95.5365 66.618 95.3181C67.0052 95.0998 67.4915 95.0005 68.0574 95.0005C68.6033 95.0005 69.0599 95.0998 69.4272 95.2884C69.7945 95.477 70.0923 95.7648 70.3206 96.142C70.5489 96.5192 70.7077 96.9759 70.7971 97.5218C70.9063 98.0678 70.9559 98.7031 70.9559 99.4078ZM69.7846 99.4872C69.7846 99.0604 69.7647 98.6733 69.7349 98.3358C69.7052 97.9983 69.6555 97.6906 69.596 97.4325C69.5364 97.1744 69.457 96.9461 69.3677 96.7575C69.2684 96.5689 69.1592 96.41 69.0202 96.2909C68.8912 96.1718 68.7324 96.0825 68.5636 96.0229C68.3949 95.9634 68.1963 95.9435 67.9879 95.9435C67.6107 95.9435 67.3029 96.0328 67.0746 96.2115C66.8364 96.3902 66.6577 96.6284 66.5187 96.9461C66.3798 97.2538 66.2904 97.6211 66.2408 98.038C66.1912 98.4549 66.1713 98.9016 66.1713 99.3781C66.1713 100.023 66.2011 100.569 66.2706 101.016C66.3401 101.463 66.4393 101.83 66.5882 102.118C66.7272 102.406 66.9158 102.604 67.1441 102.733C67.3724 102.862 67.6404 102.922 67.9581 102.922C68.2063 102.922 68.4246 102.882 68.6132 102.803C68.8018 102.723 68.9607 102.614 69.0996 102.465C69.2287 102.316 69.3478 102.138 69.4371 101.929C69.5265 101.721 69.596 101.492 69.6555 101.234C69.7052 100.986 69.7449 100.708 69.7647 100.41C69.7746 100.113 69.7846 99.8049 69.7846 99.4872Z" fill="#333333"/>
<path fill-rule="evenodd" clip-rule="evenodd" d="M85.3953 49.2226C85.5501 49.4521 85.488 49.7626 85.2564 49.9162C84.6513 50.3173 84.1433 50.8323 83.7579 51.4285C83.285 52.1816 83.0088 53.0507 83.0088 53.9626V58.1373C83.0088 58.9935 83.2507 59.8042 83.6697 60.5137C84.0377 61.1267 84.5381 61.6679 85.1361 62.0948C85.3622 62.2562 85.4134 62.5687 85.2506 62.7927C85.0878 63.0168 84.7726 63.0677 84.5466 62.9063C83.8372 62.3998 83.2415 61.7564 82.8017 61.0233L82.8001 61.0205L82.8001 61.0205C82.2964 60.1682 82 59.1839 82 58.1373V53.9626C82 52.8465 82.3387 51.7952 82.9034 50.897L82.9066 50.8919L82.9066 50.8919C83.3673 50.1784 83.9743 49.5631 84.6956 49.0849C84.9271 48.9314 85.2404 48.993 85.3953 49.2226ZM99.8101 49.3478C99.9752 49.1254 100.291 49.0777 100.515 49.2414C101.182 49.7274 101.758 50.3424 102.18 51.051C102.693 51.9113 103 52.905 103 53.9714V56.189C103 56.4651 102.774 56.689 102.496 56.689C102.217 56.689 101.991 56.4651 101.991 56.189V53.9714C101.991 53.0989 101.741 52.2792 101.311 51.5595L101.311 51.5591C100.963 50.9748 100.482 50.4586 99.9174 50.0468C99.693 49.8832 99.645 49.5702 99.8101 49.3478Z" fill="#333333"/>
<path fill-rule="evenodd" clip-rule="evenodd" d="M83.6782 28.6715C84.7156 27.6381 86.1519 27.0005 87.7211 27.0005H97.2788C98.8481 27.0005 100.284 27.6381 101.322 28.6715C102.359 29.7046 103 31.1251 103 32.7017V38.8041C103 40.0186 102.614 41.1623 101.948 42.0905C101.394 42.871 100.646 43.5077 99.7769 43.9286C99.5284 44.0489 99.2293 43.945 99.109 43.6965C98.9886 43.4479 99.0925 43.1489 99.3411 43.0285C100.058 42.6815 100.676 42.1555 101.134 41.5101L101.135 41.5083C101.681 40.7467 102 39.8058 102 38.8041V32.7017C102 31.4033 101.474 30.2342 100.616 29.38C99.7588 28.5261 98.5735 28.0005 97.2788 28.0005H87.7211C86.4265 28.0005 85.2412 28.5261 84.384 29.38C83.5264 30.2342 83 31.4033 83 32.7017V38.8041C83 39.8255 83.3281 40.7755 83.8942 41.5474C84.3665 42.1879 84.9866 42.714 85.6894 43.0492C85.9386 43.1681 86.0443 43.4665 85.9254 43.7158C85.8065 43.965 85.508 44.0707 85.2588 43.9518C84.3976 43.5409 83.652 42.9041 83.0889 42.1403L83.0882 42.1393C82.3988 41.1995 82 40.0429 82 38.8041V32.7017C82 31.1251 82.6412 29.7046 83.6782 28.6715Z" fill="#333333"/>
<path fill-rule="evenodd" clip-rule="evenodd" d="M89.309 124H119.639V116.768C119.639 113.617 126.344 109.316 127 97.8535V75.2478C127 72.3771 124.795 70.0265 122.082 70.0265C119.38 70.0265 117.5 72.3771 117.5 75.2478V71C117.5 68.1293 114.95 65.6454 112.247 65.6454C109.545 65.6454 107.5 68.1293 107.5 71V67C107.5 64.1293 105.125 61.7744 102.412 61.7744C99.7103 61.7744 97.5 64.1293 97.5 67V49.5C97.5 46.6293 95.2121 44 92.5 44C89.7979 44 87.5 46.3506 87.5 49.2213V90.5C86.5 88 84.5306 82.9897 82.4245 79.4789C80.0104 75.4479 73.712 73.1373 73.0564 78.7987C72.5497 83.1498 75.5797 86.6707 77.2983 90.2616C79.2554 94.3326 80.2091 99.5739 82.4642 104.555C82.7324 105.145 89.2097 116.478 89.2593 116.778V124H89.309Z" fill="#FEFEFE"/>
<path fill-rule="evenodd" clip-rule="evenodd" d="M87 49.2213C87 46.092 89.5045 43.5 92.5 43.5C95.5382 43.5 98 46.4059 98 49.5V63.6955C98.978 62.2388 100.584 61.2744 102.412 61.2744C105.408 61.2744 108 63.8605 108 67V67.564C108.93 66.1244 110.441 65.1454 112.247 65.1454C115.228 65.1454 118 67.8553 118 71V71.7675C118.886 70.4189 120.313 69.5265 122.083 69.5265C125.099 69.5265 127.5 72.1302 127.5 75.2478V97.8678L127.499 97.882C127.165 103.717 125.288 107.737 123.501 110.687C123.056 111.422 122.616 112.09 122.211 112.698C122.143 112.801 122.076 112.902 122.009 113.001C121.682 113.492 121.383 113.94 121.121 114.36C120.48 115.389 120.139 116.139 120.139 116.768V124.5H88.7593V116.879C88.7516 116.863 88.7423 116.845 88.7313 116.823C88.684 116.729 88.6141 116.596 88.5236 116.428C88.3429 116.091 88.0862 115.624 87.7772 115.067C87.1597 113.955 86.3377 112.493 85.5081 111.021C85.2547 110.571 85.0006 110.12 84.7514 109.678C84.1853 108.674 83.6447 107.715 83.1962 106.917C82.5602 105.784 82.0877 104.935 82.009 104.762C80.867 102.239 80.0561 99.6545 79.2924 97.2165L79.2885 97.2041C78.5224 94.7584 77.806 92.4715 76.8477 90.4782C76.4275 89.6001 75.925 88.7221 75.4055 87.8162L75.3895 87.7882C74.8783 86.8967 74.3516 85.9783 73.8931 85.0335C72.9654 83.122 72.2906 81.0523 72.5597 78.7409C72.7344 77.2329 73.2974 76.1661 74.1659 75.5434C75.0304 74.9235 76.1066 74.8091 77.1748 75.013C79.2916 75.4171 81.5834 77.1013 82.8534 79.2218C84.4293 81.8489 85.9252 85.2962 87 87.9199V49.2213ZM118 75.2478H117V71C117 68.4033 114.671 66.1454 112.247 66.1454C109.886 66.1454 108 68.3358 108 71H107V67C107 64.398 104.841 62.2744 102.412 62.2744C100.015 62.2744 98 64.3756 98 67H97V49.5C97 46.8526 94.886 44.5 92.5 44.5C90.0912 44.5 88 46.6092 88 49.2213V90.5L87.0358 90.6857C86.9935 90.58 86.9495 90.47 86.904 90.3559C85.8662 87.758 83.9892 83.0593 81.9957 79.7361C80.8516 77.8257 78.787 76.3388 76.9873 75.9953C76.0972 75.8253 75.3249 75.9428 74.7486 76.356C74.1765 76.7663 73.7062 77.5336 73.5531 78.8562C73.3156 80.8959 73.9024 82.7625 74.7927 84.5969C75.2361 85.5105 75.7483 86.4038 76.2651 87.3049L76.273 87.3187C76.7892 88.2189 77.3103 89.1284 77.7494 90.0457C78.7389 92.1043 79.4733 94.4489 80.2294 96.8625L80.2467 96.9175C81.0128 99.3632 81.8067 101.89 82.9197 104.349C82.9752 104.471 83.4126 105.259 84.0681 106.427C84.5159 107.224 85.0552 108.181 85.6206 109.184C85.8703 109.627 86.1251 110.079 86.3794 110.53C87.2088 112.002 88.0322 113.467 88.6515 114.582C88.961 115.139 89.2205 115.612 89.4046 115.955C89.4965 116.126 89.5711 116.267 89.6243 116.373C89.6506 116.425 89.6737 116.472 89.6916 116.512C89.7004 116.531 89.7101 116.553 89.7187 116.576L89.7191 116.577C89.7244 116.591 89.743 116.638 89.7526 116.697L89.7593 116.737V123.5H119.139V116.768C119.139 115.822 119.636 114.853 120.272 113.831C120.543 113.397 120.852 112.933 121.18 112.441C121.246 112.343 121.312 112.244 121.379 112.144C121.782 111.538 122.212 110.885 122.646 110.169C124.374 107.317 126.176 103.459 126.5 97.8391V75.2478C126.5 72.624 124.49 70.5265 122.083 70.5265C119.728 70.5265 118 72.576 118 75.2478Z" fill="#333333"/>
<path fill-rule="evenodd" clip-rule="evenodd" d="M97.5 65C97.7761 65 98 65.2239 98 65.5V83.5C98 83.7761 97.7761 84 97.5 84C97.2239 84 97 83.7761 97 83.5V65.5C97 65.2239 97.2239 65 97.5 65Z" fill="#333333"/>
<path fill-rule="evenodd" clip-rule="evenodd" d="M107.5 69.5C107.776 69.5 108 69.7239 108 70V83C108 83.2761 107.776 83.5 107.5 83.5C107.224 83.5 107 83.2761 107 83V70C107 69.7239 107.224 69.5 107.5 69.5Z" fill="#333333"/>
<path fill-rule="evenodd" clip-rule="evenodd" d="M117.5 74C117.776 74 118 74.2239 118 74.5V86.5C118 86.7761 117.776 87 117.5 87C117.224 87 117 86.7761 117 86.5V74.5C117 74.2239 117.224 74 117.5 74Z" fill="#333333"/>
<path fill-rule="evenodd" clip-rule="evenodd" d="M87.831 123H122.169C123.182 123 124 123.954 124 125.135V132.865C124 134.034 123.182 135 122.169 135H87.831C86.8285 135 86 134.046 86 132.865V125.135C86.0102 123.966 86.8285 123 87.831 123Z" fill="#BDECFF"/>
<path fill-rule="evenodd" clip-rule="evenodd" d="M122.169 124H87.831C87.5268 124 87.0085 124.361 87 125.14V132.865C87 133.639 87.5162 134 87.831 134H122.169C122.487 134 123 133.635 123 132.865V125.135C123 124.357 122.491 124 122.169 124ZM86 125.135V132.865C86 134.046 86.8285 135 87.831 135H122.169C123.182 135 124 134.034 124 132.865V125.135C124 123.954 123.182 123 122.169 123H87.831C86.8285 123 86.0102 123.966 86 125.135Z" fill="#333333"/>
<path fill-rule="evenodd" clip-rule="evenodd" d="M118 126C119.656 126 121 127.344 121 129C121 130.656 119.656 132 118 132C116.344 132 115 130.656 115 129C115.012 127.344 116.344 126 118 126Z" fill="url(#paint1_linear_125_1879)"/>
<path fill-rule="evenodd" clip-rule="evenodd" d="M120 129C120 127.897 119.103 127 118 127C116.905 127 116.01 127.889 116 129.004C116.002 130.105 116.898 131 118 131C119.103 131 120 130.103 120 129ZM115 129C115 130.656 116.344 132 118 132C119.656 132 121 130.656 121 129C121 127.344 119.656 126 118 126C116.344 126 115.012 127.344 115 129Z" fill="#333333"/>
<defs>
<linearGradient id="paint0_linear_125_1879" x1="4.15153" y1="-7.28226" x2="77.0516" y2="73.015" gradientUnits="userSpaceOnUse">
<stop stop-color="#FFC671"/>
<stop offset="1" stop-color="#FF6F3D"/>
</linearGradient>
<linearGradient id="paint1_linear_125_1879" x1="114.916" y1="125.597" x2="118.473" y2="129.514" gradientUnits="userSpaceOnUse">
<stop stop-color="#FFC671"/>
<stop offset="1" stop-color="#FF6F3D"/>
</linearGradient>
</defs>
</svg>
