<svg width="150" height="150" viewBox="0 0 150 150" fill="none" xmlns="http://www.w3.org/2000/svg">
<g clip-path="url(#clip0_125_8714)">
<path fill-rule="evenodd" clip-rule="evenodd" d="M19.01 9.90859C19.01 5.54694 22.5881 2 26.9658 2H125.044C129.422 2 133 5.54694 133 9.90859V134.091C133 138.453 129.422 142 125.044 142H26.625C22.2473 142 19 138.705 19 134.344L19.01 9.90859Z" fill="#BDECFF"/>
<path fill-rule="evenodd" clip-rule="evenodd" d="M39 2V142H125.13C129.46 142 133 138.453 133 134.091V9.90859C133 5.54694 129.46 2 125.13 2H39Z" fill="#FEFEFE"/>
<path fill-rule="evenodd" clip-rule="evenodd" d="M21.4596 4.42458C19.959 5.90531 19 7.88484 19 9.90859V16.7243C19 17.0004 18.7761 17.2243 18.5 17.2243C18.2239 17.2243 18 17.0004 18 16.7243V9.90859C18 7.5707 19.1022 5.34593 20.7572 3.71278C22.4122 2.07961 24.6584 1 27 1H125C127.345 1 129.592 2.1055 131.245 3.76105C132.899 5.41652 134 7.66315 134 10V118.5C134 118.776 133.776 119 133.5 119C133.224 119 133 118.776 133 118.5V10C133 7.9752 132.04 5.97183 130.538 4.46771C129.036 2.96368 127.033 2 125 2H27C24.9639 2 22.9601 2.94387 21.4596 4.42458ZM18.5 33.5C18.7761 33.5 19 33.7239 19 34V49C19 49.2761 18.7761 49.5 18.5 49.5C18.2239 49.5 18 49.2761 18 49V34C18 33.7239 18.2239 33.5 18.5 33.5ZM18.5 65C18.7761 65 19 65.2239 19 65.5V79C19 79.2761 18.7761 79.5 18.5 79.5C18.2239 79.5 18 79.2761 18 79V65.5C18 65.2239 18.2239 65 18.5 65ZM18.5 95.5C18.7761 95.5 19 95.7239 19 96V110C19 110.276 18.7761 110.5 18.5 110.5C18.2239 110.5 18 110.276 18 110V96C18 95.7239 18.2239 95.5 18.5 95.5ZM18.5471 125.788C18.8232 125.79 19.0458 126.015 19.0442 126.291L19 134L19 134.001C19.0008 138.568 22.8803 142 27 142H121.044C121.32 142 121.544 142.224 121.544 142.5C121.544 142.776 121.32 143 121.044 143H27C22.3648 143 18 139.156 18 134V133.997L18.0442 126.286C18.0458 126.009 18.2709 125.787 18.5471 125.788Z" fill="#333333"/>
<path fill-rule="evenodd" clip-rule="evenodd" d="M121 43L133 35.3567V23H127.005C123.708 23 121.01 25.7902 121.01 29.1983V43H121Z" fill="url(#paint0_linear_125_8714)"/>
<path fill-rule="evenodd" clip-rule="evenodd" d="M133 35L121 42.6281V60L133 52.3818V35Z" fill="url(#paint1_linear_125_8714)"/>
<path fill-rule="evenodd" clip-rule="evenodd" d="M133 53L121 60.4921V77L133 69.5079V53Z" fill="#BDECFF"/>
<path fill-rule="evenodd" clip-rule="evenodd" d="M133 69L121 76.6531V94L133 86.5343V69Z" fill="url(#paint2_linear_125_8714)"/>
<path fill-rule="evenodd" clip-rule="evenodd" d="M133 86L121 93.7027V98.5941C121 102.116 123.699 105 126.995 105H132.99L133 86Z" fill="#BDECFF"/>
<path d="M39 2H38V142H39V2Z" fill="#333333"/>
<path fill-rule="evenodd" clip-rule="evenodd" d="M122.789 24.8553C123.888 23.7118 125.403 23.0039 127.071 23.0039H133.497C133.773 23.0039 133.997 22.78 133.997 22.5039C133.997 22.2278 133.773 22.0039 133.497 22.0039H127.071C125.112 22.0039 123.342 22.837 122.067 24.1631L122.066 24.1645C120.793 25.499 120 27.3305 120 29.3409V72.5436C120 72.8197 120.224 73.0436 120.5 73.0436C120.776 73.0436 121 72.8197 121 72.5436V60.7805C121.095 60.7844 121.192 60.7613 121.279 60.7085L133.756 53.153C133.992 53.0099 134.068 52.7025 133.925 52.4663C133.782 52.2301 133.475 52.1546 133.238 52.2976L121 59.7084V43.1509C121.095 43.1548 121.192 43.1318 121.279 43.0789L133.756 35.5234C133.992 35.3804 134.068 35.0729 133.925 34.8367C133.782 34.6005 133.475 34.525 133.238 34.668L121 42.0788V29.3409C121 27.5972 121.688 26.0106 122.789 24.8553ZM133.753 69.7782C133.991 69.6369 134.068 69.3299 133.927 69.0928C133.785 68.8555 133.478 68.7779 133.241 68.9193L121.244 76.0706C121.007 76.212 120.929 76.5189 121.071 76.7561C121.212 76.9933 121.519 77.071 121.756 76.9296L133.753 69.7782ZM133.764 86.3151C133.998 86.1676 134.067 85.8588 133.92 85.6253C133.773 85.3919 133.464 85.3221 133.23 85.4696L127.512 89.0815C127.278 89.229 127.208 89.5378 127.356 89.7713C127.503 90.0047 127.812 90.0745 128.046 89.927L133.764 86.3151Z" fill="#333333"/>
<path fill-rule="evenodd" clip-rule="evenodd" d="M61.9433 23H100.057C103.325 23 106 25.7316 106 29.0691V45.9309C106 49.2684 103.325 52 100.057 52H61.9433C58.675 52 56 49.2684 56 45.9309V29.0691C56 25.7316 58.675 23 61.9433 23Z" fill="#EFEFEF"/>
<path fill-rule="evenodd" clip-rule="evenodd" d="M100.057 24H61.9433C59.2469 24 57 26.264 57 29.0691V45.9309C57 48.736 59.2469 51 61.9433 51H100.057C102.753 51 105 48.736 105 45.9309V29.0691C105 26.264 102.753 24 100.057 24ZM100.057 23H61.9433C58.675 23 56 25.7316 56 29.0691V45.9309C56 49.2684 58.675 52 61.9433 52H100.057C103.325 52 106 49.2684 106 45.9309V29.0691C106 25.7316 103.325 23 100.057 23Z" fill="#333333"/>
<path d="M107.427 118.262L105.313 120.376L111.733 126.796L113.847 124.682L107.427 118.262Z" fill="#FEFEFE"/>
<path fill-rule="evenodd" clip-rule="evenodd" d="M11 22.5C11 22.2239 11.2239 22 11.5 22H26.5C26.7761 22 27 22.2239 27 22.5C27 22.7761 26.7761 23 26.5 23H11.5C11.2239 23 11 22.7761 11 22.5Z" fill="#333333"/>
<path fill-rule="evenodd" clip-rule="evenodd" d="M11 28.5C11 28.2239 11.2239 28 11.5 28H26.5C26.7761 28 27 28.2239 27 28.5C27 28.7761 26.7761 29 26.5 29H11.5C11.2239 29 11 28.7761 11 28.5Z" fill="#333333"/>
<path fill-rule="evenodd" clip-rule="evenodd" d="M11 84.5C11 84.2239 11.2239 84 11.5 84H26.5C26.7761 84 27 84.2239 27 84.5C27 84.7761 26.7761 85 26.5 85H11.5C11.2239 85 11 84.7761 11 84.5Z" fill="#333333"/>
<path fill-rule="evenodd" clip-rule="evenodd" d="M11 90.5C11 90.2239 11.2239 90 11.5 90H26.5C26.7761 90 27 90.2239 27 90.5C27 90.7761 26.7761 91 26.5 91H11.5C11.2239 91 11 90.7761 11 90.5Z" fill="#333333"/>
<path fill-rule="evenodd" clip-rule="evenodd" d="M11 53.5C11 53.2239 11.2239 53 11.5 53H26.5C26.7761 53 27 53.2239 27 53.5C27 53.7761 26.7761 54 26.5 54H11.5C11.2239 54 11 53.7761 11 53.5Z" fill="#333333"/>
<path fill-rule="evenodd" clip-rule="evenodd" d="M11 59.5C11 59.2239 11.2239 59 11.5 59H26.5C26.7761 59 27 59.2239 27 59.5C27 59.7761 26.7761 60 26.5 60H11.5C11.2239 60 11 59.7761 11 59.5Z" fill="#333333"/>
<path fill-rule="evenodd" clip-rule="evenodd" d="M11 115.5C11 115.224 11.2239 115 11.5 115H26.5C26.7761 115 27 115.224 27 115.5C27 115.776 26.7761 116 26.5 116H11.5C11.2239 116 11 115.776 11 115.5Z" fill="#333333"/>
<path fill-rule="evenodd" clip-rule="evenodd" d="M11 121.5C11 121.224 11.2239 121 11.5 121H26.5C26.7761 121 27 121.224 27 121.5C27 121.776 26.7761 122 26.5 122H11.5C11.2239 122 11 121.776 11 121.5Z" fill="#333333"/>
<path fill-rule="evenodd" clip-rule="evenodd" d="M65 34C65 33.4477 65.4477 33 66 33H92C92.5523 33 93 33.4477 93 34C93 34.5523 92.5523 35 92 35H66C65.4477 35 65 34.5523 65 34Z" fill="#333333"/>
<path fill-rule="evenodd" clip-rule="evenodd" d="M65 39.5C65 39.2239 65.2239 39 65.5 39H82.5C82.7761 39 83 39.2239 83 39.5C83 39.7761 82.7761 40 82.5 40H65.5C65.2239 40 65 39.7761 65 39.5Z" fill="#333333"/>
<path fill-rule="evenodd" clip-rule="evenodd" d="M97.4974 125C112.135 125 124 113.136 124 98.5C124 83.8639 112.135 72 97.4974 72C82.8651 72.0052 71 83.8691 71 98.5052C71 113.141 82.8651 125 97.4974 125Z" fill="#BDECFF"/>
<path fill-rule="evenodd" clip-rule="evenodd" d="M97.497 71L97.4974 71C112.687 71 125 83.3115 125 98.5C125 113.688 112.687 126 97.4974 126C82.313 126 70 113.694 70 98.5052C70 83.3168 82.3127 71.0054 97.497 71ZM97.4974 72C112.135 72 124 83.8639 124 98.5C124 113.136 112.135 125 97.4974 125C82.8651 125 71 113.141 71 98.5052C71 83.8691 82.8651 72.0052 97.4974 72Z" fill="#333333"/>
<path d="M97.5 119C108.822 119 118 109.822 118 98.5C118 87.1782 108.822 78 97.5 78C86.1782 78 77 87.1782 77 98.5C77 109.822 86.1782 119 97.5 119Z" fill="#FEFEFE"/>
<path fill-rule="evenodd" clip-rule="evenodd" d="M119 98.5C119 110.374 109.374 120 97.5 120C85.6259 120 76 110.374 76 98.5C76 86.6259 85.6259 77 97.5 77C109.374 77 119 86.6259 119 98.5ZM118 98.5C118 109.822 108.822 119 97.5 119C86.1782 119 77 109.822 77 98.5C77 87.1782 86.1782 78 97.5 78C108.822 78 118 87.1782 118 98.5Z" fill="#333333"/>
<path d="M118.107 116.865L116 119L123.025 126.117L125.132 123.981L118.107 116.865Z" fill="#FEFEFE"/>
<path fill-rule="evenodd" clip-rule="evenodd" d="M115 119L118.512 115.441L126.942 123.981L123.43 127.54L115 119ZM118.512 116.865L125.537 123.981L123.43 126.117L116.405 119L118.512 116.865Z" fill="#333333"/>
<path fill-rule="evenodd" clip-rule="evenodd" d="M122.588 128.84L142.381 149.39C143.165 150.203 144.448 150.203 145.232 149.39L147.412 147.125C148.196 146.312 148.196 144.979 147.412 144.165L127.619 123.61C126.835 122.797 125.552 122.797 124.768 123.61L122.588 125.875C121.804 126.693 121.804 128.026 122.588 128.84Z" fill="url(#paint3_linear_125_8714)"/>
<path fill-rule="evenodd" clip-rule="evenodd" d="M142.381 149.39C143.165 150.203 144.448 150.203 145.232 149.39L147.412 147.125C148.196 146.312 148.196 144.979 147.412 144.165L127.619 123.61C126.835 122.797 125.552 122.797 124.768 123.61L122.588 125.875C121.804 126.693 121.804 128.026 122.588 128.84L142.381 149.39ZM123.308 128.146L143.102 148.696L143.102 148.696C143.492 149.101 144.121 149.101 144.512 148.696L146.692 146.432C147.103 146.005 147.103 145.285 146.692 144.859L126.898 124.304C126.508 123.899 125.879 123.899 125.488 124.304L123.309 126.567C122.895 127 122.899 127.721 123.308 128.146C123.308 128.146 123.308 128.146 123.308 128.146Z" fill="#333333"/>
</g>
<defs>
<linearGradient id="paint0_linear_125_8714" x1="121" y1="22.2187" x2="138.971" y2="33.4225" gradientUnits="userSpaceOnUse">
<stop stop-color="#FF8E3D"/>
<stop offset="1" stop-color="#FF6F3D"/>
</linearGradient>
<linearGradient id="paint1_linear_125_8714" x1="121" y1="34.0234" x2="140.985" y2="43.9908" gradientUnits="userSpaceOnUse">
<stop stop-color="#FF8E3D"/>
<stop offset="1" stop-color="#FF6F3D"/>
</linearGradient>
<linearGradient id="paint2_linear_125_8714" x1="121" y1="68.0234" x2="140.985" y2="77.9908" gradientUnits="userSpaceOnUse">
<stop stop-color="#FF8E3D"/>
<stop offset="1" stop-color="#FF6F3D"/>
</linearGradient>
<linearGradient id="paint3_linear_125_8714" x1="118.446" y1="117.572" x2="138.284" y2="138.614" gradientUnits="userSpaceOnUse">
<stop stop-color="#FFC671"/>
<stop offset="1" stop-color="#FF6F3D"/>
</linearGradient>
<clipPath id="clip0_125_8714">
<rect width="150" height="150" fill="white"/>
</clipPath>
</defs>
</svg>
