<svg width="150" height="150" viewBox="0 0 150 150" fill="none" xmlns="http://www.w3.org/2000/svg">
<g clip-path="url(#clip0_125_8531)">
<mask id="path-1-outside-1_125_8531" maskUnits="userSpaceOnUse" x="73" y="65" width="66" height="38" fill="black">
<rect fill="white" x="73" y="65" width="66" height="38"/>
<path fill-rule="evenodd" clip-rule="evenodd" d="M98.2999 67C95.56 67.68 88.6263 69.7817 84.2581 72.1C77.2709 75.8835 76.113 84.1737 75.1135 91.3294C75.0755 91.6012 75.0378 91.8713 75 92.1395C78.1761 94.0606 81.3469 95.9105 84.8186 97.2732C86.5196 97.9014 87.1524 98.1176 88.5405 98.5567C92.3305 99.6983 96.5874 100.66 100.697 101C100.71 100.002 100.714 98.9845 100.718 97.9535C100.745 90.9342 100.773 83.2909 103.714 77.0355C102.45 74.0709 102.221 73.7028 101.485 72.5203C100.931 71.6293 100.089 70.2757 98.2999 67ZM108.456 77.3737L111.656 71.4204C113.711 69.7204 115 67.0002 115 67.0002C115.524 67.1814 116.119 67.3837 116.764 67.6031C121.41 69.1826 128.675 71.6524 130.856 73.5978C135.059 77.3484 135.989 84.4236 136.739 90.1299C136.827 90.7988 136.912 91.4488 137 92.0724C132.205 96.9202 119.191 100.66 111.314 101C111.314 100.213 111.319 99.4092 111.323 98.5929C111.365 91.5554 111.413 83.5891 108.456 77.3737Z"/>
</mask>
<path fill-rule="evenodd" clip-rule="evenodd" d="M98.2999 67C95.56 67.68 88.6263 69.7817 84.2581 72.1C77.2709 75.8835 76.113 84.1737 75.1135 91.3294C75.0755 91.6012 75.0378 91.8713 75 92.1395C78.1761 94.0606 81.3469 95.9105 84.8186 97.2732C86.5196 97.9014 87.1524 98.1176 88.5405 98.5567C92.3305 99.6983 96.5874 100.66 100.697 101C100.71 100.002 100.714 98.9845 100.718 97.9535C100.745 90.9342 100.773 83.2909 103.714 77.0355C102.45 74.0709 102.221 73.7028 101.485 72.5203C100.931 71.6293 100.089 70.2757 98.2999 67ZM108.456 77.3737L111.656 71.4204C113.711 69.7204 115 67.0002 115 67.0002C115.524 67.1814 116.119 67.3837 116.764 67.6031C121.41 69.1826 128.675 71.6524 130.856 73.5978C135.059 77.3484 135.989 84.4236 136.739 90.1299C136.827 90.7988 136.912 91.4488 137 92.0724C132.205 96.9202 119.191 100.66 111.314 101C111.314 100.213 111.319 99.4092 111.323 98.5929C111.365 91.5554 111.413 83.5891 108.456 77.3737Z" fill="#FEFEFE"/>
<path d="M84.2581 72.1L83.7819 71.2206L83.7893 71.2166L84.2581 72.1ZM98.2999 67L98.059 66.0294L98.8077 65.8436L99.1775 66.5206L98.2999 67ZM75.1135 91.3294L74.1231 91.1911L74.1231 91.1911L75.1135 91.3294ZM75 92.1395L74.4824 92.9952L73.9176 92.6535L74.0098 91.9999L75 92.1395ZM84.8186 97.2732L84.4721 98.2113L84.4626 98.2078L84.4532 98.2041L84.8186 97.2732ZM88.5405 98.5567L88.2521 99.5143L88.2389 99.5101L88.5405 98.5567ZM100.697 101L101.697 101.013L101.683 102.085L100.615 101.996L100.697 101ZM100.718 97.9535L101.718 97.9573L101.718 97.9573L100.718 97.9535ZM103.714 77.0355L104.634 76.6433L104.81 77.0554L104.619 77.461L103.714 77.0355ZM101.485 72.5203L102.334 71.9922L102.334 71.9922L101.485 72.5203ZM111.656 71.4204L110.776 70.9469L110.868 70.7746L111.019 70.6499L111.656 71.4204ZM108.456 77.3737L107.553 77.8033L107.336 77.3461L107.575 76.9003L108.456 77.3737ZM115 67.0002L114.096 66.572L114.48 65.762L115.327 66.0552L115 67.0002ZM116.764 67.6031L117.086 66.6563L117.086 66.6563L116.764 67.6031ZM130.856 73.5978L131.521 72.8515L131.522 72.8516L130.856 73.5978ZM136.739 90.1299L137.73 89.9996L137.73 89.9996L136.739 90.1299ZM137 92.0724L137.99 91.9328L138.059 92.4234L137.711 92.7756L137 92.0724ZM111.314 101L111.357 101.999L110.314 102.044V101H111.314ZM111.323 98.5929L110.324 98.587L110.324 98.587L111.323 98.5929ZM83.7893 71.2166C88.2651 68.8413 95.2918 66.7162 98.059 66.0294L98.5407 67.9706C95.8282 68.6438 88.9874 70.7222 84.7269 72.9833L83.7893 71.2166ZM74.1231 91.1911C74.6198 87.6348 75.1706 83.6607 76.5039 80.0995C77.847 76.5117 80.0127 73.2617 83.7819 71.2206L84.7343 72.9793C81.5163 74.7218 79.6094 77.5086 78.3769 80.8007C77.1345 84.1194 76.6066 87.8682 76.1039 91.4677L74.1231 91.1911ZM74.0098 91.9999C74.0475 91.7324 74.0851 91.463 74.1231 91.1911L76.1039 91.4677C76.0659 91.7394 76.0281 92.0102 75.9902 92.2791L74.0098 91.9999ZM84.4532 98.2041C80.8947 96.8073 77.6599 94.917 74.4824 92.9952L75.5175 91.2839C78.6923 93.2041 81.7992 95.0138 85.1839 96.3424L84.4532 98.2041ZM88.2389 99.5101C86.8338 99.0657 86.186 98.8442 84.4721 98.2113L85.165 96.3352C86.8533 96.9586 87.471 97.1695 88.8421 97.6032L88.2389 99.5101ZM100.615 101.996C96.4143 101.649 92.0856 100.669 88.2521 99.5142L88.8289 97.5992C92.5753 98.7276 96.7606 99.6706 100.78 100.003L100.615 101.996ZM101.718 97.9573C101.714 98.9874 101.71 100.01 101.697 101.013L99.6973 100.987C99.7103 99.9944 99.7141 98.9815 99.718 97.9497L101.718 97.9573ZM104.619 77.461C101.79 83.4788 101.745 90.8841 101.718 97.9573L99.718 97.9497C99.7444 90.9843 99.7568 83.103 102.809 76.6101L104.619 77.461ZM102.334 71.9922C103.106 73.2321 103.357 73.6496 104.634 76.6433L102.794 77.4278C101.542 74.4921 101.336 74.1736 100.636 73.0485L102.334 71.9922ZM99.1775 66.5206C100.957 69.7778 101.789 71.115 102.334 71.9922L100.636 73.0485C100.073 72.1435 99.2217 70.7736 97.4223 67.4794L99.1775 66.5206ZM112.537 71.8939L109.337 77.8472L107.575 76.9003L110.776 70.9469L112.537 71.8939ZM115 67.0002C115.904 67.4283 115.904 67.4285 115.904 67.4287C115.904 67.4287 115.903 67.4289 115.903 67.4291C115.903 67.4294 115.903 67.4297 115.903 67.4301C115.902 67.4309 115.902 67.4318 115.902 67.433C115.9 67.4352 115.899 67.438 115.897 67.4415C115.894 67.4486 115.889 67.4582 115.883 67.4702C115.872 67.4944 115.855 67.5283 115.833 67.5713C115.79 67.6571 115.727 67.7788 115.645 67.929C115.482 68.229 115.244 68.6451 114.938 69.117C114.332 70.0505 113.432 71.2494 112.294 72.1909L111.019 70.6499C111.936 69.8914 112.707 68.8803 113.26 68.0286C113.533 67.6079 113.745 67.2377 113.888 66.9745C113.959 66.8432 114.013 66.7391 114.048 66.6695C114.066 66.6347 114.079 66.6086 114.087 66.592C114.091 66.5837 114.093 66.5779 114.095 66.5745C114.096 66.5728 114.096 66.5717 114.097 66.5713C114.097 66.5711 114.097 66.5711 114.097 66.5712C114.097 66.5712 114.097 66.5713 114.097 66.5715C114.097 66.5716 114.096 66.5717 114.096 66.5717C114.096 66.5719 114.096 66.572 115 67.0002ZM116.442 68.5499C115.797 68.3307 115.2 68.1275 114.673 67.9452L115.327 66.0552C115.848 66.2353 116.44 66.4366 117.086 66.6563L116.442 68.5499ZM130.19 74.344C129.747 73.949 128.982 73.4776 127.94 72.9571C126.916 72.4451 125.687 71.9165 124.366 71.3929C121.723 70.3455 118.769 69.341 116.442 68.5499L117.086 66.6563C119.405 67.4446 122.406 68.4648 125.103 69.5336C126.451 70.068 127.738 70.6203 128.834 71.1679C129.913 71.707 130.874 72.2738 131.521 72.8515L130.19 74.344ZM135.747 90.2602C135.371 87.3937 134.959 84.274 134.132 81.4077C133.303 78.5379 132.09 76.0391 130.19 74.3439L131.522 72.8516C133.825 74.9071 135.178 77.8212 136.053 80.8532C136.929 83.8887 137.357 87.1598 137.73 89.9996L135.747 90.2602ZM136.01 92.212C135.921 91.5829 135.835 90.9281 135.747 90.2602L137.73 89.9996C137.818 90.6694 137.903 91.3146 137.99 91.9328L136.01 92.212ZM111.271 100.001C115.099 99.8359 120.23 98.8381 125.002 97.2763C129.807 95.7034 134.067 93.616 136.289 91.3692L137.711 92.7756C135.138 95.3766 130.494 97.5831 125.624 99.1771C120.72 100.782 115.406 101.824 111.357 101.999L111.271 100.001ZM112.323 98.5988C112.319 99.4157 112.314 100.217 112.314 101H110.314C110.314 100.21 110.319 99.4027 110.324 98.587L112.323 98.5988ZM109.359 76.9442C112.433 83.4061 112.365 91.6231 112.323 98.5988L110.324 98.587C110.366 91.4877 110.392 83.772 107.553 77.8033L109.359 76.9442Z" fill="#333333" mask="url(#path-1-outside-1_125_8531)"/>
<path d="M114.487 67.308L114.545 67.5593L114.373 67.7518C112.674 69.66 109.485 70.515 106.437 70.4998C103.391 70.4847 100.241 69.5993 98.6235 67.7483L98.4388 67.537L98.523 67.2693C99.1272 65.3489 99.1687 63.3497 99.1883 61.2637V61.2636V61.2635V61.2633V61.2632V61.263V61.2629V61.2627V61.2626V61.2624V61.2622V61.262V61.2619V61.2617V61.2615V61.2613V61.2611V61.261V61.2608V61.2606V61.2604V61.2602V61.26V61.2598V61.2596V61.2594V61.2591V61.2589V61.2587V61.2585V61.2583V61.258V61.2578V61.2576V61.2574V61.2571V61.2569V61.2566V61.2564V61.2561V61.2559V61.2556V61.2554V61.2551V61.2549V61.2546V61.2543V61.2541V61.2538V61.2535V61.2533V61.253V61.2527V61.2524V61.2521V61.2518V61.2516V61.2513V61.251V61.2507V61.2504V61.2501V61.2498V61.2495V61.2492V61.2488V61.2485V61.2482V61.2479V61.2476V61.2473V61.2469V61.2466V61.2463V61.2459V61.2456V61.2453V61.2449V61.2446V61.2442V61.2439V61.2435V61.2432V61.2428V61.2425V61.2421V61.2418V61.2414V61.241V61.2407V61.2403V61.2399V61.2396V61.2392V61.2388V61.2384V61.2381V61.2377V61.2373V61.2369V61.2365V61.2361V61.2357V61.2353V61.2349V61.2345V61.2341V61.2337V61.2333V61.2329V61.2325V61.2321V61.2317V61.2312V61.2308V61.2304V61.23V61.2296V61.2291V61.2287V61.2283V61.2278V61.2274V61.227V61.2265V61.2261V61.2256V61.2252V61.2248V61.2243V61.2239V61.2234V61.223V61.2225V61.222V61.2216V61.2211V61.2207V61.2202V61.2197V61.2193V61.2188V61.2183V61.2178V61.2174V61.2169V61.2164V61.2159V61.2155V61.215V61.2145V61.214V61.2135V61.213V61.2125V61.212V61.2115V61.211V61.2105V61.21V61.2095V61.209V61.2085V61.208V61.2075V61.207V61.2065V61.206V61.2055V61.2049V61.2044V61.2039V61.2034V61.2029V61.2023V61.2018V61.2013V61.2007V61.2002V61.1997V61.1992V61.1986V61.1981V61.1975V61.197V61.1965V61.1959V61.1954V61.1948V61.1943V61.1937V61.1932V61.1926V61.1921V61.1915V61.191V61.1904V61.1899V61.1893V61.1887V61.1882V61.1876V61.1871V61.1865V61.1859V61.1853V61.1848V61.1842V61.1836V61.1831V61.1825V61.1819V61.1813V61.1808V61.1802V61.1796V61.179V61.1784V61.1778V61.1773V61.1767V61.1761V61.1755V61.1749V61.1743V61.1737V61.1731V61.1725V61.1719V61.1713V61.1707V61.1701V61.1695V61.1689V61.1683V61.1677V61.1671V61.1665V61.1659V61.1653V61.1647V61.1641V61.1635V61.1629V61.1623V61.1616V61.161V61.1604V61.1598V61.1592V61.1586V61.1579V61.1573V61.1567V61.1561V61.1555V61.1548V61.1542V61.1536V61.153V61.1523V61.1517V61.1511V61.1504V61.1498V61.1492V61.1485V61.1479V61.1473V61.1466V61.146V61.1454V61.1447V61.1441V61.1435V61.1428V61.1422V61.1415V61.1409V61.1403V61.1396V61.139V61.1383V61.1377V61.137V61.1364V61.1357V61.1351V61.1344V61.1338V61.1331V61.1325V61.1318V61.1312V61.1305V61.1299V61.1292V61.1286V61.1279V61.1273V61.1266V61.126V61.1253V61.1247V61.124V61.1233V61.1227V61.122V61.1214V61.1207V61.12V61.1194V61.1187V61.1181V61.1174V61.1167V61.1161V61.1154V61.1147V61.1141V61.1134V61.1127V61.1121V61.1114V61.1107V61.1101V61.1094V61.1087V61.1081V61.1074V61.1067V61.1061V61.1054V61.1047V61.1041V61.1034V61.1027V61.1021V61.1014V61.1007V61.1V61.0994V61.0987V61.098V61.0974V61.0967V61.096V61.0953V61.0947V61.094V61.0933V61.0927V61.092V61.0913V61.0906V61.09V61.0893V61.0886V61.0879V61.0873V61.0866V61.0859V61.0852V61.0846V61.0839V61.0832V61.0825V61.0819V61.0812V61.0805V61.0798V61.0792V61.0785V61.0778V61.0772V61.0765V61.0758V61.0751V61.0745V61.0738V61.0731V61.0724V61.0718V61.0711V61.0704V61.0697V61.0691V61.0684V61.0677V61.067V61.0664V61.0657V61.065V61.0644V61.0637V61.063V61.0623V61.0617V61.061V61.0603V61.0597V61.059V61.0583V61.0576V61.057V61.0563V61.0556V61.055V61.0543V61.0536V61.053V61.0523V61.0516V61.051V61.0503V61.0496V61.049V61.0483V61.0476V61.047V61.0463V61.0456V61.045V61.0443V61.0437V61.043V61.0423V61.0417V61.041V61.0403V61.0397V61.039V61.0384V61.0377V61.037V61.0364V61.0357V61.0351V61.0344V61.0338V61.0331V61.0325V61.0318V61.0311V61.0305V61.0298V61.0292V61.0285V61.0279V61.0272V61.0266V61.0259V61.0253V61.0246V61.024V61.0234V61.0227V61.0221V61.0214V61.0208V61.0201V61.0195V61.0189V61.0182V61.0176V61.0169V61.0163V61.0157V61.015V61.0144V61.0138V61.0131V61.0125V61.0119V61.0112V61.0106V61.01V61.0093V61.0087V61.0081V61.0075V61.0068V61.0062V61.0056V61.005V61.0043V61.0037V61.0031V61.0025V61.0019V61.0012V61.0006V61V59.9618L100 60.6091C101.968 62.1787 104.27 63.0761 106.727 63.0761C109.037 63.0761 111.214 62.2847 113.098 60.8856L113.896 60.293V61.287V61.2874V61.2878V61.2882V61.2887V61.2891V61.2895V61.2899V61.2903V61.2907V61.2911V61.2915V61.2919V61.2923V61.2928V61.2932V61.2936V61.294V61.2944V61.2948V61.2952V61.2956V61.296V61.2964V61.2969V61.2973V61.2977V61.2981V61.2985V61.2989V61.2993V61.2997V61.3001V61.3005V61.3009V61.3013V61.3018V61.3022V61.3026V61.303V61.3034V61.3038V61.3042V61.3046V61.305V61.3054V61.3058V61.3062V61.3067V61.3071V61.3075V61.3079V61.3083V61.3087V61.3091V61.3095V61.3099V61.3103V61.3107V61.3111V61.3115V61.3119V61.3123V61.3127V61.3131V61.3135V61.314V61.3144V61.3148V61.3152V61.3156V61.316V61.3164V61.3168V61.3172V61.3176V61.318V61.3184V61.3188V61.3192V61.3196V61.32V61.3204V61.3208V61.3212V61.3216V61.322V61.3224V61.3228V61.3232V61.3236V61.324V61.3244V61.3248V61.3252V61.3256V61.326V61.3264V61.3268V61.3272V61.3276V61.328V61.3284V61.3287V61.3291V61.3295V61.3299V61.3303V61.3307V61.3311V61.3315V61.3319V61.3323V61.3327V61.3331V61.3335V61.3339V61.3343V61.3346V61.335V61.3354V61.3358V61.3362V61.3366V61.337V61.3374V61.3378V61.3381V61.3385V61.3389V61.3393V61.3397V61.3401V61.3405V61.3408V61.3412V61.3416V61.342V61.3424V61.3428V61.3432V61.3435V61.3439V61.3443V61.3447V61.3451V61.3454V61.3458V61.3462V61.3466V61.347V61.3473V61.3477V61.3481V61.3485V61.3488V61.3492V61.3496V61.35V61.3503V61.3507V61.3511V61.3515V61.3518V61.3522V61.3526V61.353V61.3533V61.3537V61.3541V61.3544V61.3548V61.3552V61.3555V61.3559V61.3563V61.3566V61.357V61.3574V61.3577V61.3581V61.3585V61.3588V61.3592V61.3596V61.3599V61.3603V61.3606V61.361V61.3614V61.3617V61.3621V61.3624V61.3628V61.3632V61.3635V61.3639V61.3642V61.3646V61.3649V61.3653V61.3656V61.366V61.3664V61.3667V61.3671V61.3674V61.3678V61.3681V61.3685V61.3688V61.3692V61.3695V61.3698V61.3702V61.3705V61.3709V61.3712V61.3716V61.3719V61.3723V61.3726V61.3729V61.3733V61.3736V61.374V61.3743V61.3746V61.375V61.3753V61.3756V61.376V61.3763V61.3766V61.377V61.3773V61.3776V61.378V61.3783V61.3786V61.379V61.3793V61.3796V61.38V61.3803V61.3806V61.3809V61.3813V61.3816V61.3819V61.3822V61.3825V61.3829V61.3832V61.3835V61.3838V61.3841V61.3845V61.3848V61.3851V61.3854V61.3857V61.386V61.3864V61.3867V61.387V61.3873V61.3876V61.3879V61.3882V61.3885V61.3888V61.3891V61.3894V61.3897V61.3901V61.3904V61.3907V61.391V61.3913V61.3916V61.3919V61.3922V61.3925V61.3928V61.393V61.3933V61.3936V61.3939V61.3942V61.3945V61.3948V61.3951V61.3954V61.3957V61.396V61.3963V61.3965V61.3968V61.3971V61.3974V61.3977V61.398V61.3982V61.3985V61.3988V61.3991V61.3994V61.3996V61.3999V61.4002V61.4005V61.4007V61.401V61.4013V61.4015V61.4018V61.4021V61.4024V61.4026V61.4029V61.4032V61.4034V61.4037V61.4039V61.4042V61.4045V61.4047V61.405V61.4052V61.4055V61.4058V61.406V61.4063V61.4065V61.4068V61.407V61.4073V61.4075V61.4078V61.408V61.4083V61.4085V61.4088V61.409V61.4093V61.4095V61.4097V61.41V61.4102V61.4105V61.4107V61.4109V61.4112V61.4114V61.4116V61.4119V61.4121V61.4123V61.4125V61.4128V61.413V61.4132V61.4135V61.4137V61.4139V61.4141V61.4143V61.4146V61.4148V61.415V61.4152V61.4154V61.4157V61.4159V61.4161V61.4163V61.4165V61.4167V61.4169V61.4171V61.4173V61.4175V61.4177V61.4179V61.4181V61.4183V61.4185V61.4187V61.4189V61.4191V61.4193V61.4195V61.4197V61.4199V61.4201V61.4203V61.4205V61.4207V61.4209V61.421V61.4212V61.4214V61.4216V61.4218V61.422V61.4221V61.4222C113.899 61.4879 113.902 61.5536 113.905 61.6191C114 63.6247 114.091 65.5725 114.487 67.308Z" fill="#FEFEFE" stroke="#333333"/>
<path fill-rule="evenodd" clip-rule="evenodd" d="M106.755 63C98.2146 63 93 54.3376 93 46.6364C93 45.9588 93.0334 45.2877 93.1002 44.63C96.2251 44.351 105.541 43.7331 109 34C110.436 37.5212 113.299 39.3283 119.816 41.4875C120.933 50.5 117.013 62 106.755 63Z" fill="#FEFEFE"/>
<path d="M113.896 75.369C114.105 75.2575 114.345 75.067 114.627 74.771C114.879 74.4962 115.157 74.153 115.466 73.7315L115.467 73.7304C115.783 73.3011 116.122 72.8032 116.492 72.2456L116.492 72.2449C116.598 72.086 116.704 71.9276 116.809 71.7697C117.646 70.5145 118.465 69.2852 119.249 68.0118C118.976 67.9178 118.7 67.8215 118.421 67.7208C117.61 67.4588 116.834 67.2364 116.132 67.0601C115.544 66.9135 115.004 66.7935 114.521 66.7141C113.64 67.5342 112.431 68.1154 111.092 68.4921C109.97 68.8077 108.736 68.986 107.483 69.0351C107.488 69.041 107.492 69.0469 107.496 69.0528C107.887 69.3764 108.293 69.9136 108.765 70.5724C108.904 70.7658 109.051 70.9733 109.208 71.1952C109.634 71.7977 110.136 72.5061 110.754 73.3266L110.9 73.52C111.154 73.8069 111.415 74.0944 111.677 74.384L111.677 74.384L111.684 74.3918C111.874 74.6113 112.054 74.7943 112.223 74.9431C112.39 75.0889 112.54 75.2068 112.679 75.2912L112.681 75.2919C112.791 75.3592 112.906 75.4131 113.008 75.4459C113.116 75.4756 113.223 75.4941 113.332 75.4988L113.334 75.4989C113.527 75.5077 113.71 75.465 113.896 75.369ZM105.561 69.0104C104.235 68.9247 102.932 68.6971 101.762 68.3309C100.452 67.9207 99.2787 67.3266 98.4378 66.5341C97.9514 66.6169 97.4105 66.7326 96.8268 66.878C96.1259 67.0542 95.3506 67.2763 94.5408 67.5381C94.4952 67.5549 94.4271 67.58 94.3536 67.5994C94.1617 67.6611 93.9709 67.7258 93.7732 67.7928C93.759 67.7977 93.7447 67.8025 93.7304 67.8074C94.3064 68.7989 94.9598 69.781 95.606 70.7524C95.7025 70.8974 95.7988 71.0422 95.8947 71.1868L95.895 71.1872L95.9677 71.2971C96.4715 72.0585 96.9114 72.7234 97.3446 73.3394C97.7693 73.9417 98.1391 74.4141 98.462 74.7642C98.7338 75.0503 98.9734 75.2425 99.1926 75.3621C99.3812 75.4564 99.5615 75.4965 99.7662 75.4918L99.7662 75.4917H99.7776C99.8747 75.4917 99.9705 75.4752 100.067 75.4434L100.067 75.4434L100.073 75.4414C100.172 75.4106 100.283 75.3579 100.413 75.2823C100.556 75.1949 100.707 75.0814 100.872 74.9365C101.034 74.7945 101.215 74.6104 101.417 74.3857L101.419 74.3834L101.946 73.8041L102.449 73.2503C102.531 73.1304 102.618 73.0184 102.708 72.9104C102.965 72.545 103.203 72.2022 103.425 71.8828C104.207 70.7581 104.788 69.9228 105.267 69.4098C105.36 69.276 105.46 69.1423 105.561 69.0104ZM114.128 75.8119C113.871 75.9451 113.601 76.0116 113.311 75.9983L114.128 75.8119Z" fill="#BDECFF" stroke="#333333"/>
<path d="M100.5 101.315L100.963 101.349C104.153 101.588 107.242 101.491 109.822 101.41C110.59 101.386 111.312 101.363 111.979 101.351C111.98 101.351 111.98 101.351 111.981 101.351L111.972 100.851C111.991 100.851 111.994 100.691 111.996 100.584C111.997 100.531 111.998 100.491 112 100.491L100.5 101.315ZM100.5 101.315V100.851V99.5973H100.5L100.5 99.5832L100.536 98.3305C100.536 98.3303 100.536 98.33 100.536 98.3297C100.536 98.3297 100.536 98.3297 100.536 98.3297C100.564 97.2611 100.607 95.7509 100.699 93.9941C100.784 92.2432 100.92 90.2651 101.119 88.279L101.119 88.2782C101.29 86.6035 101.519 84.8987 101.812 83.2977L101.814 83.2874L101.817 83.2771L102.362 80.8762L102.365 80.8657L102.367 80.8554C102.44 80.5906 102.516 80.2954 102.593 79.9935C102.69 79.6173 102.79 79.2308 102.888 78.8802C103.047 78.3096 103.227 77.7419 103.448 77.2462L102.141 74.4397L102.023 74.1858L102.178 73.9523C103.153 72.4824 103.937 71.3761 104.619 70.645C105.286 69.9303 105.964 69.4545 106.728 69.5033C107.478 69.5511 108.108 70.0946 108.712 70.8221C109.333 71.5695 110.033 72.6485 110.897 73.999L111.053 74.2421L110.92 74.4983L110.046 76.187L109.559 77.4187V77.7724C110.164 79.0097 110.633 80.6208 111.001 82.3696C111.288 83.7328 111.517 85.1863 111.695 86.6562C111.76 87.1707 111.817 87.6852 111.867 88.1998C112.066 90.1476 112.194 92.1194 112.294 93.9527L112.294 93.9539C112.304 94.1495 112.314 94.3455 112.325 94.5418C112.412 96.2008 112.5 97.8822 112.5 99.5575V100.491V100.991H112.456L100.5 101.315Z" fill="#BDECFF" stroke="#333333"/>
<path d="M119.228 41C121.543 49.1296 118.571 57.9406 111.386 61.7412C108.22 63.423 104.436 63.4162 101.269 61.7412C95.1336 58.4953 92.4361 51.162 93.0976 44.0486" stroke="#333333"/>
<path fill-rule="evenodd" clip-rule="evenodd" d="M110.704 74.0316C110.46 73.9446 110.178 74.0434 110.076 74.2523C109.486 75.4616 108.485 76.6475 107.884 77.2564C107.278 77.8693 106.724 78.1381 106.242 78.1755C105.776 78.2116 105.25 78.0406 104.666 77.5192C104.079 76.9945 103.884 76.2467 102.924 74.8477C102.822 74.6388 102.54 74.54 102.296 74.627C102.051 74.7141 101.935 74.954 102.037 75.163C102.648 76.4148 103.269 77.4576 103.972 78.0855C104.679 78.7169 105.474 79.0582 106.329 78.9918C107.167 78.9268 107.933 78.4783 108.618 77.7848C109.307 77.0873 110.353 75.8174 110.963 74.5676C111.065 74.3587 110.949 74.1187 110.704 74.0316Z" fill="#333333"/>
<path fill-rule="evenodd" clip-rule="evenodd" d="M109.281 33.4959C105.939 43.4004 95.6044 44.0291 92.5731 44.3131C92.3244 46.889 92.6565 49.5183 93.3656 52C83.9076 28.1912 105.597 23.7673 109.598 28.9189C118.427 28.1912 123.79 40.4228 119.485 49.5C119.91 46.7075 119.143 43.8432 118.427 41.1153C112.125 38.918 110.671 37.0791 109.281 33.4959Z" fill="#EFEFEF" stroke="#333333" stroke-linejoin="round"/>
<mask id="path-10-outside-2_125_8531" maskUnits="userSpaceOnUse" x="1" y="74" width="104" height="58" fill="black">
<rect fill="white" x="1" y="74" width="104" height="58"/>
<path fill-rule="evenodd" clip-rule="evenodd" d="M65.5 76C69.9191 77.1 81.0221 80.4998 88.0675 84.2498C99.3373 90.3703 101.205 103.781 102.817 115.356C102.878 115.796 102.939 116.233 103 116.666C97.8773 119.774 92.763 122.766 87.1636 124.971C84.4199 125.987 83.3993 126.337 81.1605 127.047C75.6869 128.7 68.3644 130.121 62.1338 130.795C60.9811 130.92 59.9866 130.016 59.9938 128.856C60.0084 126.522 60.0854 124.132 60.1634 121.716C60.4889 111.621 60.8291 101.071 56.687 92.2338C58.6879 87.5284 59.1062 86.8666 60.2629 85.0366C61.1735 83.596 62.5418 81.4314 65.5 76ZM49.0386 92.7812L43.8769 83.151C41.8001 81.4279 39.0727 80.5685 36.51 79.7611C34.9828 79.2799 33.5142 78.8172 32.2767 78.2011C31.2915 78.5431 30.2759 78.8867 29.2467 79.2348C23.0412 81.334 16.346 83.5989 12.9101 86.6731C6.13047 92.7403 4.63085 104.185 3.42136 113.416C3.2796 114.498 3.14182 115.549 3 116.558C10.7335 124.4 33.295 129.95 46 130.5C46 127.715 45.882 124.826 45.7622 121.893C45.355 111.927 44.9269 101.45 49.0386 92.7812Z"/>
</mask>
<path fill-rule="evenodd" clip-rule="evenodd" d="M65.5 76C69.9191 77.1 81.0221 80.4998 88.0675 84.2498C99.3373 90.3703 101.205 103.781 102.817 115.356C102.878 115.796 102.939 116.233 103 116.666C97.8773 119.774 92.763 122.766 87.1636 124.971C84.4199 125.987 83.3993 126.337 81.1605 127.047C75.6869 128.7 68.3644 130.121 62.1338 130.795C60.9811 130.92 59.9866 130.016 59.9938 128.856C60.0084 126.522 60.0854 124.132 60.1634 121.716C60.4889 111.621 60.8291 101.071 56.687 92.2338C58.6879 87.5284 59.1062 86.8666 60.2629 85.0366C61.1735 83.596 62.5418 81.4314 65.5 76ZM49.0386 92.7812L43.8769 83.151C41.8001 81.4279 39.0727 80.5685 36.51 79.7611C34.9828 79.2799 33.5142 78.8172 32.2767 78.2011C31.2915 78.5431 30.2759 78.8867 29.2467 79.2348C23.0412 81.334 16.346 83.5989 12.9101 86.6731C6.13047 92.7403 4.63085 104.185 3.42136 113.416C3.2796 114.498 3.14182 115.549 3 116.558C10.7335 124.4 33.295 129.95 46 130.5C46 127.715 45.882 124.826 45.7622 121.893C45.355 111.927 44.9269 101.45 49.0386 92.7812Z" fill="#FEFEFE"/>
<path d="M88.0675 84.2498L88.5448 83.371L88.5374 83.3671L88.0675 84.2498ZM65.5 76L65.7415 75.0296L64.9915 74.8429L64.6218 75.5217L65.5 76ZM102.817 115.356L103.807 115.218L103.807 115.218L102.817 115.356ZM103 116.666L103.519 117.521L104.082 117.18L103.99 116.527L103 116.666ZM87.1636 124.971L87.5109 125.909L87.5205 125.905L87.5299 125.901L87.1636 124.971ZM81.1605 127.047L81.4497 128.004L81.4629 128L81.1605 127.047ZM62.1338 130.795L62.0263 129.801L62.0263 129.801L62.1338 130.795ZM59.9938 128.856L60.9938 128.862L60.9938 128.862L59.9938 128.856ZM60.1634 121.716L59.1639 121.683L60.1634 121.716ZM56.687 92.2338L55.7668 91.8424L55.592 92.2536L55.7816 92.6582L56.687 92.2338ZM60.2629 85.0366L59.4176 84.5023L59.4176 84.5023L60.2629 85.0366ZM43.8769 83.151L44.7582 82.6786L44.6659 82.5063L44.5154 82.3814L43.8769 83.151ZM49.0386 92.7812L49.9421 93.2098L50.1584 92.7537L49.92 92.3088L49.0386 92.7812ZM36.51 79.7611L36.2095 80.7149L36.2095 80.7149L36.51 79.7611ZM32.2767 78.2011L32.7223 77.3059L32.3459 77.1185L31.9487 77.2564L32.2767 78.2011ZM29.2467 79.2348L29.5671 80.1821L29.5671 80.1821L29.2467 79.2348ZM12.9101 86.6731L12.2433 85.9278L12.2432 85.9279L12.9101 86.6731ZM3.42136 113.416L2.42983 113.286L2.42983 113.286L3.42136 113.416ZM3 116.558L2.00974 116.419L1.94093 116.908L2.28799 117.26L3 116.558ZM46 130.5L45.9568 131.499L47 131.544V130.5H46ZM45.7622 121.893L46.7613 121.852L46.7613 121.852L45.7622 121.893ZM88.5374 83.3671C81.3855 79.5604 70.1906 76.137 65.7415 75.0296L65.2585 76.9704C69.6477 78.0629 80.6588 81.4392 87.5977 85.1326L88.5374 83.3671ZM103.807 115.218C103.004 109.452 102.123 103.093 100.001 97.4076C97.8686 91.6957 94.4554 86.581 88.5448 83.3711L87.5903 85.1286C92.9495 88.0391 96.1049 92.6898 98.127 98.107C100.159 103.551 101.017 109.685 101.826 115.494L103.807 115.218ZM103.99 116.527C103.929 116.094 103.869 115.658 103.807 115.218L101.826 115.494C101.888 115.933 101.949 116.371 102.01 116.806L103.99 116.527ZM87.5299 125.901C93.2163 123.663 98.3946 120.63 103.519 117.521L102.481 115.811C97.3599 118.918 92.3097 121.87 86.7973 124.04L87.5299 125.901ZM81.4629 128C83.7187 127.284 84.7545 126.93 87.5109 125.909L86.8163 124.033C84.0854 125.045 83.0799 125.389 80.8581 126.094L81.4629 128ZM62.2414 131.789C68.5241 131.11 75.9084 129.678 81.4497 128.004L80.8713 126.09C75.4655 127.723 68.2048 129.133 62.0263 129.801L62.2414 131.789ZM58.9938 128.85C58.9829 130.603 60.4906 131.979 62.2414 131.789L62.0263 129.801C61.4716 129.861 60.9903 129.429 60.9938 128.862L58.9938 128.85ZM59.1639 121.683C59.086 124.097 59.0085 126.5 58.9938 128.85L60.9938 128.862C61.0083 126.543 61.0849 124.167 61.1628 121.748L59.1639 121.683ZM55.7816 92.6582C59.8032 101.238 59.4913 111.531 59.1639 121.683L61.1628 121.748C61.4865 111.711 61.855 100.904 57.5925 91.8094L55.7816 92.6582ZM59.4176 84.5023C58.2238 86.391 57.7816 87.1042 55.7668 91.8424L57.6073 92.6251C59.5942 87.9525 59.9886 87.3421 61.1082 85.5709L59.4176 84.5023ZM64.6218 75.5217C61.6749 80.9322 60.3178 83.0781 59.4176 84.5023L61.1082 85.5709C62.0292 84.1138 63.4086 81.9305 66.3782 76.4783L64.6218 75.5217ZM42.9955 83.6234L48.1572 93.2537L49.92 92.3088L44.7582 82.6786L42.9955 83.6234ZM36.2095 80.7149C38.8119 81.5348 41.3392 82.3449 43.2383 83.9206L44.5154 82.3814C42.2609 80.5109 39.3334 79.6022 36.8105 78.8073L36.2095 80.7149ZM31.831 79.0963C33.1525 79.7542 34.7017 80.2398 36.2095 80.7149L36.8105 78.8073C35.264 78.32 33.8759 77.8802 32.7223 77.3059L31.831 79.0963ZM29.5671 80.1821C30.5956 79.8342 31.6151 79.4893 32.6046 79.1458L31.9487 77.2564C30.968 77.5968 29.9561 77.9392 28.9262 78.2875L29.5671 80.1821ZM13.5769 87.4183C15.1674 85.9953 17.5743 84.7122 20.4281 83.5099C23.2674 82.3137 26.4568 81.2343 29.5671 80.1821L28.9262 78.2875C25.8311 79.3346 22.5701 80.4372 19.6516 81.6668C16.7473 82.8903 14.0887 84.2767 12.2433 85.9278L13.5769 87.4183ZM4.41288 113.546C5.01937 108.917 5.68868 103.824 7.03793 99.1347C8.38827 94.4419 10.3887 90.2715 13.577 87.4183L12.2432 85.9279C8.65186 89.1419 6.51267 93.7275 5.11592 98.5817C3.71809 103.44 3.03284 108.684 2.42983 113.286L4.41288 113.546ZM3.99026 116.697C4.13286 115.683 4.27125 114.627 4.41288 113.546L2.42983 113.286C2.28795 114.369 2.15079 115.416 2.00974 116.419L3.99026 116.697ZM46.0432 129.501C39.7868 129.23 31.0521 127.722 22.9207 125.305C14.7418 122.873 7.38655 119.582 3.71201 115.856L2.28799 117.26C6.34691 121.376 14.1392 124.781 22.3507 127.222C30.6097 129.677 39.5082 131.22 45.9568 131.499L46.0432 129.501ZM44.763 121.934C44.883 124.871 45 127.739 45 130.5H47C47 127.691 46.881 124.781 46.7613 121.852L44.763 121.934ZM48.1351 92.3527C43.898 101.286 44.3583 112.029 44.763 121.934L46.7613 121.852C46.3516 111.825 45.9558 101.615 49.9421 93.2098L48.1351 92.3527Z" fill="#333333" mask="url(#path-10-outside-2_125_8531)"/>
<path d="M39.5143 75.8667L39.4493 76.1327L39.6382 76.3307C41.0164 77.7752 43.0082 78.8196 45.2606 79.5008C47.5178 80.1834 50.0693 80.5115 52.6038 80.4997C55.1383 80.4879 57.6723 80.1363 59.8948 79.4477C62.1115 78.761 64.0538 77.7278 65.365 76.3273L65.5693 76.1091L65.4738 75.8259C64.4532 72.7981 64.3854 69.6526 64.3528 66.4112V66.4112V66.411V66.4107V66.4105V66.4103V66.4101V66.4099V66.4096V66.4094V66.4092V66.4089V66.4087V66.4084V66.4082V66.4079V66.4076V66.4074V66.4071V66.4068V66.4065V66.4062V66.4059V66.4056V66.4053V66.405V66.4047V66.4044V66.4041V66.4038V66.4034V66.4031V66.4028V66.4024V66.4021V66.4018V66.4014V66.401V66.4007V66.4003V66.4V66.3996V66.3992V66.3988V66.3984V66.3981V66.3977V66.3973V66.3969V66.3965V66.3961V66.3956V66.3952V66.3948V66.3944V66.394V66.3935V66.3931V66.3927V66.3922V66.3918V66.3913V66.3909V66.3904V66.3899V66.3895V66.389V66.3885V66.3881V66.3876V66.3871V66.3866V66.3861V66.3856V66.3851V66.3846V66.3841V66.3836V66.3831V66.3826V66.382V66.3815V66.381V66.3805V66.3799V66.3794V66.3788V66.3783V66.3778V66.3772V66.3766V66.3761V66.3755V66.375V66.3744V66.3738V66.3732V66.3727V66.3721V66.3715V66.3709V66.3703V66.3697V66.3691V66.3685V66.3679V66.3673V66.3667V66.3661V66.3654V66.3648V66.3642V66.3636V66.3629V66.3623V66.3617V66.361V66.3604V66.3597V66.3591V66.3584V66.3578V66.3571V66.3564V66.3558V66.3551V66.3544V66.3537V66.3531V66.3524V66.3517V66.351V66.3503V66.3496V66.3489V66.3482V66.3475V66.3468V66.3461V66.3454V66.3447V66.344V66.3432V66.3425V66.3418V66.3411V66.3403V66.3396V66.3389V66.3381V66.3374V66.3366V66.3359V66.3351V66.3344V66.3336V66.3329V66.3321V66.3314V66.3306V66.3298V66.3291V66.3283V66.3275V66.3267V66.3259V66.3252V66.3244V66.3236V66.3228V66.322V66.3212V66.3204V66.3196V66.3188V66.318V66.3172V66.3164V66.3156V66.3147V66.3139V66.3131V66.3123V66.3115V66.3106V66.3098V66.309V66.3081V66.3073V66.3064V66.3056V66.3048V66.3039V66.3031V66.3022V66.3014V66.3005V66.2997V66.2988V66.2979V66.2971V66.2962V66.2953V66.2945V66.2936V66.2927V66.2918V66.291V66.2901V66.2892V66.2883V66.2874V66.2865V66.2857V66.2848V66.2839V66.283V66.2821V66.2812V66.2803V66.2794V66.2785V66.2776V66.2767V66.2757V66.2748V66.2739V66.273V66.2721V66.2712V66.2702V66.2693V66.2684V66.2675V66.2665V66.2656V66.2647V66.2637V66.2628V66.2619V66.2609V66.26V66.259V66.2581V66.2572V66.2562V66.2553V66.2543V66.2534V66.2524V66.2515V66.2505V66.2495V66.2486V66.2476V66.2467V66.2457V66.2447V66.2438V66.2428V66.2418V66.2409V66.2399V66.2389V66.2379V66.237V66.236V66.235V66.234V66.233V66.2321V66.2311V66.2301V66.2291V66.2281V66.2271V66.2261V66.2251V66.2242V66.2232V66.2222V66.2212V66.2202V66.2192V66.2182V66.2172V66.2162V66.2152V66.2142V66.2132V66.2122V66.2112V66.2101V66.2091V66.2081V66.2071V66.2061V66.2051V66.2041V66.2031V66.2021V66.201V66.2V66.199V66.198V66.197V66.1959V66.1949V66.1939V66.1929V66.1919V66.1908V66.1898V66.1888V66.1878V66.1867V66.1857V66.1847V66.1836V66.1826V66.1816V66.1805V66.1795V66.1785V66.1775V66.1764V66.1754V66.1743V66.1733V66.1723V66.1712V66.1702V66.1692V66.1681V66.1671V66.166V66.165V66.164V66.1629V66.1619V66.1608V66.1598V66.1588V66.1577V66.1567V66.1556V66.1546V66.1535V66.1525V66.1515V66.1504V66.1494V66.1483V66.1473V66.1462V66.1452V66.1441V66.1431V66.142V66.141V66.1399V66.1389V66.1378V66.1368V66.1357V66.1347V66.1336V66.1326V66.1316V66.1305V66.1295V66.1284V66.1274V66.1263V66.1253V66.1242V66.1232V66.1221V66.1211V66.12V66.119V66.1179V66.1169V66.1158V66.1148V66.1137V66.1127V66.1116V66.1106V66.1095V66.1085V66.1074V66.1064V66.1053V66.1043V66.1032V66.1022V66.1012V66.1001V66.0991V66.098V66.097V66.0959V66.0949V66.0938V66.0928V66.0918V66.0907V66.0897V66.0886V66.0876V66.0865V66.0855V66.0845V66.0834V66.0824V66.0814V66.0803V66.0793V66.0782V66.0772V66.0762V66.0751V66.0741V66.0731V66.072V66.071V66.07V66.0689V66.0679V66.0669V66.0658V66.0648V66.0638V66.0628V66.0617V66.0607V66.0597V66.0587V66.0576V66.0566V66.0556V66.0546V66.0535V66.0525V66.0515V66.0505V66.0495V66.0485V66.0474V66.0464V66.0454V66.0444V66.0434V66.0424V66.0414V66.0404V66.0393V66.0383V66.0373V66.0363V66.0353V66.0343V66.0333V66.0323V66.0313V66.0303V66.0293V66.0283V66.0273V66.0263V66.0254V66.0244V66.0234V66.0224V66.0214V66.0204V66.0194V66.0184V66.0175V66.0165V66.0155V66.0145V66.0135V66.0126V66.0116V66.0106V66.0096V66.0087V66.0077V66.0067V66.0058V66.0048V66.0038V66.0029V66.0019V66.001V66V65.0046L63.5543 65.5989C60.2229 68.0783 56.3108 69.5073 52.1212 69.5073C48.1835 69.5073 44.4829 68.2473 41.2913 66.0355L40.5065 65.4916V66.4465V66.4471V66.4477V66.4484V66.449V66.4497V66.4503V66.4509V66.4516V66.4522V66.4528V66.4535V66.4541V66.4548V66.4554V66.456V66.4567V66.4573V66.4579V66.4586V66.4592V66.4599V66.4605V66.4611V66.4618V66.4624V66.463V66.4637V66.4643V66.465V66.4656V66.4662V66.4669V66.4675V66.4681V66.4688V66.4694V66.47V66.4707V66.4713V66.4719V66.4726V66.4732V66.4738V66.4745V66.4751V66.4757V66.4764V66.477V66.4776V66.4783V66.4789V66.4795V66.4802V66.4808V66.4814V66.4821V66.4827V66.4833V66.484V66.4846V66.4852V66.4859V66.4865V66.4871V66.4877V66.4884V66.489V66.4896V66.4903V66.4909V66.4915V66.4921V66.4928V66.4934V66.494V66.4946V66.4953V66.4959V66.4965V66.4971V66.4978V66.4984V66.499V66.4996V66.5003V66.5009V66.5015V66.5021V66.5027V66.5034V66.504V66.5046V66.5052V66.5058V66.5065V66.5071V66.5077V66.5083V66.5089V66.5095V66.5102V66.5108V66.5114V66.512V66.5126V66.5132V66.5138V66.5145V66.5151V66.5157V66.5163V66.5169V66.5175V66.5181V66.5187V66.5193V66.5199V66.5206V66.5212V66.5218V66.5224V66.523V66.5236V66.5242V66.5248V66.5254V66.526V66.5266V66.5272V66.5278V66.5284V66.529V66.5296V66.5302V66.5308V66.5314V66.532V66.5326V66.5332V66.5338V66.5344V66.535V66.5356V66.5362V66.5368V66.5373V66.5379V66.5385V66.5391V66.5397V66.5403V66.5409V66.5415V66.5421V66.5426V66.5432V66.5438V66.5444V66.545V66.5456V66.5461V66.5467V66.5473V66.5479V66.5485V66.549V66.5496V66.5502V66.5508V66.5513V66.5519V66.5525V66.5531V66.5536V66.5542V66.5548V66.5554V66.5559V66.5565V66.5571V66.5576V66.5582V66.5588V66.5593V66.5599V66.5604V66.561V66.5616V66.5621V66.5627V66.5632V66.5638V66.5644V66.5649V66.5655V66.566V66.5666V66.5671V66.5677V66.5682V66.5688V66.5693V66.5699V66.5704V66.571V66.5715V66.5721V66.5726V66.5732V66.5737V66.5742V66.5748V66.5753V66.5759V66.5764V66.5769V66.5775V66.578V66.5785V66.5791V66.5796V66.5801V66.5807V66.5812V66.5817V66.5822V66.5828V66.5833V66.5838V66.5843V66.5849V66.5854V66.5859V66.5864V66.5869V66.5874V66.588V66.5885V66.589V66.5895V66.59V66.5905V66.591V66.5915V66.5921V66.5926V66.5931V66.5936V66.5941V66.5946V66.5951V66.5956V66.5961V66.5966V66.5971V66.5976V66.5981V66.5985V66.599V66.5995V66.6V66.6005V66.601V66.6015V66.602V66.6024V66.6029V66.6034V66.6039V66.6044V66.6048V66.6053V66.6058V66.6063V66.6067V66.6072V66.6077V66.6082V66.6086V66.6091V66.6096V66.61V66.6105V66.6109V66.6114V66.6119V66.6123V66.6128V66.6132V66.6137V66.6141V66.6146V66.615V66.6155V66.6159V66.6164V66.6168V66.6173V66.6177V66.6182V66.6186V66.619V66.6195V66.6199V66.6204V66.6208V66.6212V66.6217V66.6221V66.6225V66.6229V66.6234V66.6238V66.6242V66.6246V66.6251V66.6255V66.6259V66.6263V66.6267V66.6271V66.6275V66.628V66.6284V66.6288V66.6292V66.6296V66.63V66.6304V66.6308V66.6312V66.6316V66.632V66.6324V66.6328V66.6332V66.6335V66.6339V66.6343V66.6347V66.6351V66.6355V66.6359V66.6362V66.6366V66.637V66.6374V66.6377V66.6381V66.6385V66.6388V66.6392V66.6396V66.6399V66.6403V66.6407V66.641V66.6414V66.6417V66.6421V66.6425V66.6428V66.6432V66.6435V66.6438V66.6442V66.6445V66.6449V66.6452V66.6456V66.6459V66.6462V66.6466V66.6469V66.6472V66.6476V66.6479V66.6482V66.6485V66.6489V66.6492V66.6495V66.6498V66.6501V66.6504V66.6508V66.6511V66.6514V66.6517V66.652V66.6523V66.6526V66.6529V66.6532V66.6535V66.6538V66.6541V66.6544V66.6547V66.655V66.6552V66.6555V66.6558V66.6561V66.6564V66.6567V66.6569V66.6572V66.6575V66.6577V66.658V66.6583V66.6585V66.6588V66.6591V66.6593V66.6596V66.6598V66.6601V66.6604V66.6606V66.6609V66.6611V66.6613V66.6616V66.6618V66.6621V66.6623V66.6625C40.5011 66.7699 40.4957 66.8772 40.4903 66.9845C40.3337 70.0959 40.1803 73.1452 39.5143 75.8667Z" fill="#FEFEFE" stroke="#333333"/>
<path fill-rule="evenodd" clip-rule="evenodd" d="M53.0169 70C67.5121 70 77.2697 53.2913 75.866 39.6303C70.6369 39.169 52.293 38.091 46.5053 22C44.1031 27.8213 42 30 31.1623 34.4351C28.5566 43.7636 30.3063 54.472 36.6707 61.993C40.8383 66.9474 46.629 70 53.0169 70Z" fill="#FEFEFE"/>
<path fill-rule="evenodd" clip-rule="evenodd" d="M61 131.88L60.9421 127.669C60.7255 119.274 60.3476 110.833 58.871 102.545L57.98 98.5118C57.413 96.3727 56.7419 94.423 55.9319 92.7407L58.3965 87.1589C51.3799 77.4396 52 78 45.5297 87.2257V88.5211L47.8269 92.7407C46.5138 95.4324 46.0686 98.0911 45.4718 101.007C44.17 107.369 43.7181 113.873 43.3775 120.338C43.2207 123.453 43.042 126.587 43.042 129.707C43.042 129.82 42.9528 131.629 43.0344 131.629C48 131.96 54.0134 132.131 61 131.88Z" fill="url(#paint0_linear_125_8531)"/>
<path fill-rule="evenodd" clip-rule="evenodd" d="M62 132C57.6099 132 50.7573 132 46.5639 131.854C45.3237 131.815 44.1578 131.779 43.084 131.76C42.4847 131.752 42.2172 131.317 42.186 131.266L42.1851 131.265C42.1157 131.152 42.0856 131.051 42.0755 131.016C42.0508 130.931 42.0402 130.852 42.0353 130.813C42.0237 130.72 42.0173 130.613 42.013 130.514C42.004 130.307 42.0008 130.042 42.0001 129.785C41.9989 129.321 42.0075 128.682 42.0075 128.699C42.0075 125.994 42.1508 123.279 42.2921 120.604C42.3088 120.288 42.3255 119.971 42.3419 119.656L42.3421 119.654C42.6804 113.444 43.1316 107.138 44.4402 100.956C45.0111 98.2582 45.7918 95.6069 47.022 93.0565L44.307 87.8043L44.6842 87.3311C45.4216 86.4059 46.0805 85.5564 46.6708 84.7954C47.498 83.7289 48.1907 82.8359 48.7763 82.1512C49.285 81.5565 49.7685 81.0504 50.2497 80.685C50.7327 80.3183 51.3038 80.0238 51.9761 80.0014C52.6608 79.9785 53.2484 80.2437 53.7454 80.6032C54.2325 80.9556 54.7107 81.4547 55.2054 82.0433C55.8814 82.8476 56.6871 83.9427 57.6815 85.2944C58.133 85.9082 58.6235 86.575 59.1585 87.2914L59.4888 87.7339L56.9947 93.1954C57.7469 94.7849 58.371 96.5785 58.8997 98.5069L58.9049 98.5259L59.7983 102.436L59.8019 102.455C61.282 110.488 61.6581 118.653 61.8734 126.717L61.8737 126.729L62 132ZM55.853 93.2072L58.3003 87.8481C54.5 81.5 53.4637 80.9797 52.062 80.9746C50.6279 80.9694 49.5 80 45.5234 87.9123L48.1776 93.0468C46.8737 95.6312 46.0585 98.3443 45.4659 101.144C44.1732 107.252 43.7244 113.496 43.3862 119.703C43.3698 120.019 43.3531 120.335 43.3364 120.651C43.195 123.33 43.053 126.02 43.053 128.699C43.053 128.711 43.0526 128.748 43.0519 128.803C43.0466 129.232 43.0273 130.785 43.099 130.785C47.8627 130.871 54.2243 131.281 60.8856 130.785L60.8282 126.742C60.6131 118.682 60.2377 110.578 58.7714 102.62L57.8867 98.7482C57.3237 96.6944 56.6573 94.8225 55.853 93.2072Z" fill="#333333"/>
<path fill-rule="evenodd" clip-rule="evenodd" d="M58.8039 88.0245C59.0484 88.1045 59.178 88.3572 59.0935 88.5889C58.1513 91.1724 57.1946 93.0502 56.1959 94.2634C54.6064 96.1944 50.2784 96.7557 48.4596 94.701C47.3584 93.4568 46.4298 91.5023 45.2532 89.3342C45.1349 89.1163 45.0232 89.0489 45.2532 88.9368C45.4831 88.8247 45.7655 88.9105 45.8838 89.1285C47.0484 91.2744 48.1419 92.9609 49.1772 94.1305C50.6338 95.7762 54.2058 95.238 55.4575 93.7174C56.5979 91.5 57.1022 91 58.2084 88.2989C58.2929 88.0673 58.5595 87.9444 58.8039 88.0245Z" fill="#333333"/>
<path fill-rule="evenodd" clip-rule="evenodd" d="M43.9444 67.9214C31.4574 61.6856 26.3347 47.2574 30.3344 34L31.3119 34.2763C27.4254 47.1585 32.4277 61.0609 44.4113 67.0453C49.6559 69.6752 55.9268 69.6654 61.1744 67.0453C71.3839 61.9469 75.9315 50.3892 74.8179 39.0861L75.8317 38.9926C76.9714 50.5616 72.3311 62.5831 61.6413 67.9214C56.1023 70.687 49.4839 70.6988 43.9444 67.9214Z" fill="#333333"/>
<path fill-rule="evenodd" clip-rule="evenodd" d="M46.3 21.6533C52.0634 37.8966 69.8885 38.9278 75.1168 39.3934C75.5459 43.6181 75.158 47.9303 73.9352 52C90.2476 12.9536 52.6539 5.69834 45.7538 14.1471C30.5261 12.9536 22.3544 33.0443 29.7791 47.9309C29.0472 43.3511 29.291 38.6225 30.526 34.149C41.395 30.5456 43.9032 27.5297 46.3 21.6533Z" fill="#EFEFEF" stroke="#333333" stroke-linejoin="round"/>
<path d="M35.422 85.2316L35.4216 85.231C35.2502 84.9804 35.0791 84.7306 34.9083 84.4813C33.4798 82.3958 32.0784 80.3499 30.7423 78.2195C32.9036 77.3789 34.2519 76.9338 35.395 76.6516C36.4836 76.3828 37.3927 76.2597 38.6692 76.0867C38.7707 76.0729 38.8744 76.0589 38.9808 76.0444C40.3737 77.3504 42.3586 78.2672 44.5959 78.8478C46.5613 79.3578 48.7502 79.6159 50.9643 79.6404L50.8437 79.7851C50.72 79.9336 50.606 80.0813 50.4942 80.2351C49.2956 81.1541 48.3905 82.3989 47.5736 83.631C47.3953 83.8999 47.2217 84.1672 47.0502 84.4313C46.4077 85.4208 45.7955 86.3635 45.0818 87.1634C44.914 87.3482 44.7421 87.5448 44.5655 87.7468C43.964 88.4348 43.3075 89.1857 42.5702 89.7452C41.6359 90.4542 40.7153 90.7464 39.7421 90.2555C38.8289 89.7845 38.0574 88.9963 37.3525 88.0744C36.8812 87.458 36.464 86.8173 36.0551 86.1892C35.844 85.8649 35.6351 85.544 35.422 85.2316ZM73.2659 77.7789C71.0622 81.6199 68.121 86.0856 65.1287 89.2412C64.6009 89.7819 64.0258 90.1817 63.434 90.3553C62.8598 90.5236 62.2412 90.4887 61.5728 90.1106C59.8702 89.1034 58.6063 87.544 57.3958 85.8219C57.127 85.4396 56.8599 85.0474 56.5908 84.6523C55.6742 83.3067 54.7341 81.9265 53.6258 80.7821C53.4272 80.5032 53.2063 80.2241 52.9854 79.945C52.9459 79.8952 52.9065 79.8453 52.8672 79.7955L52.7218 79.6113C55.2022 79.5019 57.6635 79.1048 59.8286 78.4366C62.0154 77.7616 63.9365 76.7988 65.2613 75.5433C69.0838 76.332 70.4537 76.8063 72.4458 77.4962C72.7063 77.5864 72.9773 77.6802 73.2659 77.7789Z" fill="#BDECFF" stroke="#333333"/>
<path d="M148.5 117.5C148.5 100.379 134.621 86.5 117.5 86.5C100.379 86.5 86.5 100.379 86.5 117.5C86.5 134.621 100.379 148.5 117.5 148.5C134.621 148.5 148.5 134.621 148.5 117.5Z" fill="#BDECFF" stroke="#333333"/>
<path fill-rule="evenodd" clip-rule="evenodd" d="M138.046 120.451C135.998 118.038 134.06 114.557 133.171 111.303C133.051 110.858 132.821 110.067 132.771 109.553C129.265 109.533 125.509 108.92 122.023 108.465C120.015 108.208 118.107 108 116.369 108C115.57 108.049 109.266 112.727 109.137 113.242C108.917 113.37 106 119.719 106 120.332C107.279 121.994 109.376 121.954 110.565 120.629C111.704 119.373 113.262 116.99 113.941 115.457C114.591 115.556 117.687 115.753 118.976 115.753C119.276 115.773 121.953 118.206 124.85 120.243C125.899 120.975 126.788 123.171 127.797 123.665C127.986 123.764 128.166 124.892 128.925 124.971C130.903 125.178 134.779 124.268 137.456 122.726C137.466 122.716 138.695 122.221 138.995 121.648C139.084 121.569 138.036 120.451 138.046 120.451Z" fill="#EFEFEF"/>
<path fill-rule="evenodd" clip-rule="evenodd" d="M101.077 111.5C100.174 114.809 98.1044 118.111 96 120.5C97.6732 121.49 99.8171 122.024 101.692 123.245C101.702 123.255 101.742 123.274 101.772 123.294C101.831 123.196 101.901 123.098 102 123L102.258 122.745C102.814 122.187 103.824 123.346 104.459 123.796L104.618 123.904C105.263 124.354 105.332 125.177 104.767 125.735L105.719 124.824C106.345 124.227 107.427 124.129 108.132 124.589L108.31 124.707C108.906 125.098 109.045 125.774 108.697 126.332C109.363 125.666 110.524 125.558 111.288 126.107L111.477 126.244C112.251 126.792 112.331 127.8 111.665 128.486L110.633 129.543C111.209 129.122 112.072 129.093 112.658 129.494L112.817 129.602C113.462 130.052 113.532 130.874 112.966 131.432L112.847 131.55C112.877 131.569 112.926 131.589 112.936 131.599C113.452 131.863 113.978 132.127 114.514 132.382C114.941 132.587 115.964 133.028 116.41 132.999C117.056 132.959 117.582 132.431 117.79 131.305C118.316 131.628 119.507 132.558 120.063 132.46C121.116 132.264 121.661 131.413 121.731 130.659C121.761 130.297 121.264 129.68 120.937 129.22C121.602 129.66 122.853 130.669 123.448 130.708C124.739 130.786 125.672 129.954 125.791 128.965C125.841 128.525 125.404 127.839 125.066 127.34C125.463 127.712 126.277 128.339 126.813 128.319C127.856 128.29 129.067 127.311 128.997 126.283C128.938 125.451 126.317 122.494 124.897 120.879C124.868 120.85 124.729 120.742 124.699 120.703C121.82 118.696 119.17 116.278 118.862 116.258C117.582 116.258 114.504 116.072 113.859 115.964C113.184 117.482 111.636 119.841 110.504 121.085C109.323 122.396 107.238 122.435 105.968 120.791C105.968 120.194 108.866 113.909 109.085 113.772C109.214 113.263 115.477 108.632 116.271 108.583C117.989 108.583 119.895 108.789 121.89 109.043C121.91 109.033 121.929 109.014 121.939 109.004C122.138 108.838 122.406 108.466 122.485 108.309C123.002 107.301 122.624 105.666 121.681 105C118.664 105 115.656 105 112.638 105C111.318 105.803 105.6 108.534 103.377 109.337C103.248 109.386 102.265 109.709 101.987 109.807C101.977 109.807 101.624 109.49 101.585 109.5C101.585 110 101.223 110.975 101.077 111.5Z" fill="#FEFEFE"/>
<path fill-rule="evenodd" clip-rule="evenodd" d="M95.7469 120.418C97.7807 117.945 99.7373 114.266 100.605 110.85C100.74 110.333 100.99 109.38 101 108.873C101 108.275 100.692 108.052 99.9687 107.718L97.2409 106.37C96.3445 105.924 96.0746 105.539 95.4192 107.373C94.0119 111.286 91.4577 115.715 89.6359 118.127C88.6624 119.283 88.8938 119.617 89.742 120.074L92.5854 121.604C93.6071 122.151 94.0698 122.222 95.0433 121.229C95.2746 120.976 95.5059 120.702 95.7469 120.418Z" fill="white"/>
<path fill-rule="evenodd" clip-rule="evenodd" d="M132.395 111.87C133.369 115.697 135.682 119.839 137.957 122.282C138.743 123.112 139.425 123.196 140.415 122.669L143.258 121.132C144.106 120.674 144.338 120.348 143.364 119.178C141.542 116.755 138.978 112.308 137.581 108.379C136.925 106.537 136.646 106.924 135.759 107.371L133.031 108.725C132.308 109.061 132 109.285 132 109.885C132 110.552 132.222 111.237 132.395 111.87Z" fill="#FF6F3D"/>
<path fill-rule="evenodd" clip-rule="evenodd" d="M96.1325 108.351C95.4393 110.148 94.4747 112.052 93.46 113.82C92.2845 115.852 91.0186 117.698 89.9938 118.964L89.9737 118.993C89.6321 119.376 89.4914 119.553 89.4914 119.602C89.4914 119.641 89.622 119.632 89.8531 119.749L92.827 121.232C93.239 121.438 93.5203 121.556 93.7212 121.536C93.9121 121.517 94.1532 121.359 94.525 120.996C95.6904 119.838 96.876 118.257 97.8807 116.519C98.8452 114.85 99.649 113.024 100.131 111.287L100.161 111.169C100.292 110.678 100.513 109.902 100.513 109.559C100.513 109.49 100.503 109.451 100.483 109.431C100.392 109.343 100.181 109.245 99.8801 109.117C98.9658 108.734 97.5994 108.165 96.7554 107.664C96.6349 107.605 96.5243 107.546 96.444 107.517C96.4239 107.507 96.4038 107.644 96.1325 108.351ZM92.1639 113.103C93.1485 111.404 94.0729 109.559 94.736 107.841C95.4594 105.975 95.9919 105.789 96.9564 106.152C97.1071 106.211 97.2477 106.28 97.4085 106.358L100.493 107.782C100.935 107.968 101.267 108.145 101.518 108.381C101.849 108.695 102 109.058 102 109.569C102 110.118 101.749 110.992 101.598 111.542L101.568 111.66C101.056 113.525 100.202 115.459 99.1768 117.226C98.1017 119.092 96.8358 120.78 95.5799 122.027L95.5699 122.037C94.9369 122.646 94.4245 122.93 93.8619 122.989C93.2992 123.048 92.7969 122.862 92.1438 122.538L89.1799 121.055C88.5269 120.731 88.1049 120.407 88.0145 119.828C87.9341 119.317 88.1853 118.777 88.8484 118.041C89.843 116.804 91.0487 115.047 92.1639 113.103Z" fill="#333333"/>
<path fill-rule="evenodd" clip-rule="evenodd" d="M138.264 107.845C138.927 109.574 139.851 111.41 140.836 113.109C141.951 115.044 143.157 116.812 144.152 118.039C144.815 118.776 145.066 119.316 144.986 119.827C144.895 120.406 144.473 120.73 143.82 121.054L140.856 122.537C140.203 122.862 139.701 123.048 139.138 122.989C138.576 122.93 138.063 122.645 137.43 122.037L137.42 122.027C136.164 120.779 134.898 119.09 133.823 117.224C132.798 115.447 131.944 113.512 131.432 111.656L131.402 111.548C131.251 110.998 131.01 110.114 131 109.564C131 109.053 131.151 108.69 131.482 108.376C131.733 108.14 132.065 107.963 132.507 107.777L135.592 106.352C135.752 106.274 135.893 106.205 136.044 106.146C137.018 105.793 137.551 105.979 138.264 107.845ZM139.55 113.826C138.525 112.058 137.571 110.153 136.878 108.356C136.606 107.649 136.596 107.502 136.576 107.511C136.496 107.541 136.385 107.59 136.265 107.659C135.411 108.16 134.044 108.719 133.13 109.112C132.829 109.24 132.628 109.338 132.527 109.426C132.507 109.446 132.497 109.485 132.497 109.554C132.497 109.908 132.718 110.684 132.849 111.165L132.879 111.273C133.361 113.021 134.165 114.848 135.119 116.507C136.124 118.255 137.31 119.837 138.475 120.996C138.847 121.349 139.088 121.516 139.279 121.536C139.48 121.555 139.761 121.437 140.173 121.231L143.137 119.748C143.368 119.63 143.499 119.64 143.509 119.601C143.519 119.562 143.378 119.375 143.026 118.992L143.006 118.963C141.981 117.706 140.726 115.859 139.55 113.826Z" fill="#333333"/>
<path fill-rule="evenodd" clip-rule="evenodd" d="M102.767 108.41C103.817 107.964 105.206 107.316 106.585 106.636C108.654 105.626 110.671 104.563 111.391 104.117L111.577 104H121.405L121.611 104.149C122.249 104.627 122.691 105.413 122.887 106.253C123.082 107.093 123.031 108.006 122.681 108.729L121.302 108.357C121.487 107.975 121.518 107.114 121.405 106.604C121.312 106.2 121.137 105.817 120.89 105.562H111.999C111.124 106.083 109.199 107.093 107.244 108.049C105.844 108.74 104.414 109.399 103.333 109.866C101.954 110.451 101.45 108.963 102.767 108.41Z" fill="#333333"/>
<path fill-rule="evenodd" clip-rule="evenodd" d="M96.6588 120.5L98.6095 121.357C99.5731 121.993 98.8778 123.294 97.6658 122.5L95.5431 121.509L96.6588 120.5ZM114.397 131.671C114.626 131.771 114.904 131.89 115.172 131.979C115.381 132.049 115.56 132.099 115.639 132.099C115.768 132.089 115.887 132.029 115.987 131.9C116.136 131.711 116.265 131.413 116.334 130.996L116.533 129.923L117.457 130.499L117.864 130.777C118.351 131.115 119.056 131.592 119.195 131.572C119.513 131.512 119.752 131.363 119.921 131.175C120.119 130.956 120.238 130.668 120.258 130.41C120.258 130.35 119.98 129.963 119.742 129.625L117.238 126.118L120.616 128.393L121.172 128.781C121.768 129.208 122.513 129.754 122.762 129.774C123.199 129.804 123.566 129.685 123.834 129.476C124.113 129.267 124.281 128.969 124.321 128.652C124.331 128.592 124.262 128.443 124.172 128.264C124.043 127.996 123.864 127.728 123.715 127.489L120.179 122.105L124.838 126.556C125.036 126.744 125.354 127.012 125.672 127.191C125.831 127.281 125.97 127.35 126.05 127.35H126.099C126.437 127.33 126.815 127.142 127.103 126.883C127.351 126.655 127.53 126.377 127.53 126.118V126.079C127.52 125.93 127.222 125.483 126.805 124.897C126.407 124.35 125.891 123.714 125.364 123.079C125.255 122.95 123.377 120.635 123.268 120.506L126.159 121.738C126.805 122.493 127.46 123.307 127.987 124.032C128.563 124.827 128.97 125.522 129 125.979V126.059C129.02 126.794 128.642 127.479 128.086 127.976C127.56 128.453 126.864 128.771 126.199 128.82H126.099C126 128.82 125.891 128.811 125.791 128.801V128.83C125.702 129.556 125.325 130.211 124.728 130.658C124.192 131.065 123.477 131.294 122.672 131.244C122.384 131.224 122.036 131.085 121.679 130.897C121.579 131.344 121.361 131.791 121.023 132.168C120.656 132.575 120.139 132.893 119.483 133.022C118.887 133.142 118.113 132.714 117.477 132.297C117.377 132.506 117.268 132.685 117.139 132.834C116.762 133.311 116.275 133.549 115.728 133.589C115.44 133.609 115.073 133.529 114.715 133.4C114.417 133.301 114.109 133.171 113.851 133.062C112.788 132.575 113.483 131.274 114.397 131.671Z" fill="#333333"/>
<path fill-rule="evenodd" clip-rule="evenodd" d="M116.964 131.702L115.146 130.331C114.441 129.794 115.295 128.602 116.05 129.169L117.848 130.52L116.964 131.702Z" fill="#333333"/>
<path fill-rule="evenodd" clip-rule="evenodd" d="M120.093 129.576L116.06 126.397C115.215 125.731 116.169 124.599 116.934 125.205L121.007 128.413L120.093 129.576Z" fill="#333333"/>
<path fill-rule="evenodd" clip-rule="evenodd" d="M124.166 127.62L118.116 121.888C117.242 121.053 118.255 119.991 119.129 120.825L125.179 126.557L124.166 127.62Z" fill="#333333"/>
<path fill-rule="evenodd" clip-rule="evenodd" d="M110.636 126.566L110.447 126.427C110.208 126.258 109.9 126.189 109.602 126.218C109.295 126.248 109.006 126.367 108.798 126.586L107.685 127.748L107.596 127.857C107.477 128.016 107.427 128.195 107.447 128.364C107.457 128.533 107.536 128.692 107.675 128.831L107.775 128.92L107.963 129.059C108.202 129.228 108.51 129.298 108.808 129.268C109.116 129.238 109.404 129.119 109.612 128.9L110.725 127.738L110.814 127.629C110.934 127.47 110.983 127.291 110.963 127.122C110.953 126.953 110.874 126.794 110.735 126.655L110.636 126.566ZM111.311 125.235L111.51 125.374C111.609 125.443 111.699 125.523 111.768 125.593C112.175 125.98 112.404 126.477 112.444 126.993C112.483 127.5 112.344 128.036 112.016 128.493C111.957 128.583 111.877 128.672 111.798 128.751L110.685 129.914C110.228 130.391 109.602 130.669 108.957 130.728C108.311 130.788 107.646 130.639 107.109 130.251L106.92 130.112C106.821 130.043 106.732 129.963 106.662 129.894C106.255 129.506 106.026 129.01 105.987 128.493C105.947 127.987 106.086 127.45 106.414 126.993C106.473 126.904 106.553 126.814 106.632 126.735L107.745 125.573C108.202 125.096 108.828 124.818 109.473 124.758C110.109 124.689 110.775 124.847 111.311 125.235Z" fill="#333333"/>
<path fill-rule="evenodd" clip-rule="evenodd" d="M107.286 124.768L107.107 124.649C106.899 124.51 106.631 124.46 106.352 124.49C106.074 124.52 105.806 124.629 105.617 124.808L104.664 125.732C104.624 125.771 104.594 125.811 104.554 125.861C104.485 125.96 104.455 126.069 104.465 126.179C104.475 126.268 104.515 126.367 104.594 126.447C104.624 126.487 104.664 126.516 104.713 126.546L104.892 126.665C105.101 126.805 105.369 126.854 105.647 126.834C105.925 126.805 106.194 126.695 106.382 126.516L107.336 125.593C107.376 125.553 107.405 125.513 107.445 125.463C107.515 125.364 107.545 125.255 107.535 125.146C107.525 125.056 107.485 124.957 107.405 124.877C107.376 124.828 107.336 124.798 107.286 124.768ZM107.932 123.427L108.111 123.546C108.24 123.636 108.359 123.735 108.468 123.834C108.796 124.172 108.975 124.589 109.015 125.016C109.045 125.444 108.935 125.871 108.677 126.258C108.598 126.387 108.488 126.507 108.369 126.626L107.415 127.55C106.978 127.967 106.392 128.215 105.806 128.275C105.21 128.334 104.584 128.205 104.088 127.867L103.909 127.748C103.78 127.659 103.66 127.559 103.551 127.45C103.223 127.112 103.045 126.695 103.005 126.268C102.975 125.841 103.084 125.414 103.343 125.026C103.422 124.897 103.531 124.778 103.65 124.659L104.604 123.735C105.041 123.318 105.627 123.069 106.213 123.01C106.819 122.96 107.435 123.099 107.932 123.427Z" fill="#333333"/>
<path fill-rule="evenodd" clip-rule="evenodd" d="M103.305 123.745L103.147 123.636C102.968 123.517 102.739 123.467 102.511 123.487C102.282 123.507 102.054 123.606 101.905 123.755L101.647 124.014L101.577 124.103C101.507 124.202 101.478 124.312 101.488 124.411C101.498 124.51 101.537 124.6 101.627 124.679L101.865 124.858C102.034 124.977 102.272 125.027 102.501 125.007C102.729 124.987 102.958 124.888 103.107 124.739L103.365 124.48L103.445 124.391C103.514 124.292 103.544 124.182 103.534 124.083C103.524 123.984 103.484 123.894 103.405 123.805L103.305 123.745ZM103.991 122.424L104.15 122.533C104.249 122.603 104.339 122.673 104.418 122.752C104.766 123.09 104.954 123.517 104.994 123.954C105.034 124.391 104.915 124.838 104.637 125.235C104.567 125.325 104.488 125.424 104.408 125.504L104.15 125.762C103.743 126.169 103.196 126.408 102.63 126.467C102.064 126.517 101.478 126.388 101.011 126.06L100.852 125.951C100.762 125.881 100.673 125.812 100.584 125.732C100.236 125.394 100.047 124.967 100.007 124.53C99.9677 124.093 100.087 123.646 100.365 123.249C100.425 123.159 100.504 123.07 100.594 122.98L100.852 122.712C101.259 122.305 101.805 122.057 102.372 122.007C102.938 121.967 103.524 122.096 103.991 122.424Z" fill="#333333"/>
<path fill-rule="evenodd" clip-rule="evenodd" d="M113.021 128.415L113.18 128.524C113.289 128.604 113.388 128.683 113.468 128.763C113.805 129.1 113.994 129.517 114.034 129.955C114.074 130.382 113.954 130.829 113.686 131.216C113.617 131.315 113.537 131.415 113.438 131.514L113.18 131.772C112.772 132.18 112.216 132.418 111.65 132.478C111.084 132.527 110.498 132.398 110.021 132.07L109.862 131.961C109.753 131.882 109.653 131.802 109.574 131.723C109.236 131.385 109.047 130.968 109.007 130.531C108.968 130.104 109.087 129.657 109.355 129.269C109.425 129.16 109.514 129.07 109.603 128.981L109.862 128.723C110.269 128.315 110.825 128.077 111.392 128.017C111.968 127.948 112.554 128.087 113.021 128.415Z" fill="white"/>
<path fill-rule="evenodd" clip-rule="evenodd" d="M111.021 126.415L111.18 126.524C111.289 126.604 111.388 126.683 111.468 126.763C111.805 127.1 111.994 127.517 112.034 127.955C112.074 128.382 111.954 128.829 111.686 129.216C111.617 129.315 111.537 129.415 111.438 129.514L111.18 129.772C110.772 130.18 110.216 130.418 109.65 130.478C109.084 130.527 108.498 130.398 108.021 130.07L107.862 129.961C107.753 129.882 107.653 129.802 107.574 129.723C107.236 129.385 107.047 128.968 107.007 128.531C106.968 128.104 107.087 127.657 107.355 127.269C107.425 127.16 107.514 127.07 107.603 126.981L107.862 126.723C108.269 126.315 108.825 126.077 109.392 126.017C109.968 125.948 110.554 126.087 111.021 126.415Z" fill="white"/>
<path fill-rule="evenodd" clip-rule="evenodd" d="M106.988 124.37L107.145 124.467C107.254 124.538 107.352 124.609 107.431 124.68C107.766 124.981 107.953 125.352 107.993 125.742C108.032 126.123 107.914 126.521 107.648 126.866C107.579 126.955 107.5 127.043 107.401 127.132L107.145 127.362C106.741 127.725 106.19 127.938 105.628 127.991C105.067 128.035 104.485 127.92 104.012 127.628L103.855 127.53C103.746 127.46 103.648 127.389 103.569 127.318C103.234 127.017 103.047 126.645 103.007 126.256C102.968 125.875 103.086 125.476 103.352 125.131C103.421 125.034 103.51 124.954 103.599 124.874L103.855 124.644C104.259 124.281 104.81 124.069 105.372 124.016C105.943 123.954 106.525 124.078 106.988 124.37Z" fill="white"/>
<path fill-rule="evenodd" clip-rule="evenodd" d="M103.393 123.277L103.487 123.35C103.552 123.403 103.611 123.457 103.659 123.51C103.86 123.735 103.972 124.014 103.996 124.307C104.019 124.592 103.948 124.891 103.789 125.15C103.747 125.216 103.7 125.283 103.641 125.349L103.487 125.522C103.245 125.794 102.914 125.953 102.577 125.993C102.24 126.026 101.891 125.94 101.607 125.721L101.513 125.648C101.448 125.595 101.389 125.542 101.341 125.488C101.14 125.263 101.028 124.984 101.004 124.692C100.981 124.406 101.052 124.107 101.211 123.848C101.253 123.775 101.306 123.716 101.359 123.656L101.513 123.483C101.755 123.211 102.086 123.052 102.423 123.012C102.766 122.965 103.115 123.058 103.393 123.277Z" fill="white"/>
<path fill-rule="evenodd" clip-rule="evenodd" d="M110.636 126.566L110.447 126.427C110.208 126.258 109.9 126.189 109.602 126.218C109.295 126.248 109.006 126.367 108.798 126.586L107.685 127.748L107.596 127.857C107.477 128.016 107.427 128.195 107.447 128.364C107.457 128.533 107.536 128.692 107.675 128.831L107.775 128.92L107.963 129.059C108.202 129.228 108.51 129.298 108.808 129.268C109.116 129.238 109.404 129.119 109.612 128.9L110.725 127.738L110.814 127.629C110.934 127.47 110.983 127.291 110.963 127.122C110.953 126.953 110.874 126.794 110.735 126.655L110.636 126.566ZM111.311 125.235L111.51 125.374C111.609 125.443 111.699 125.523 111.768 125.593C112.175 125.98 112.404 126.477 112.444 126.993C112.483 127.5 112.344 128.036 112.016 128.493C111.957 128.583 111.877 128.672 111.798 128.751L110.685 129.914C110.228 130.391 109.602 130.669 108.957 130.728C108.311 130.788 107.646 130.639 107.109 130.251L106.92 130.112C106.821 130.043 106.732 129.963 106.662 129.894C106.255 129.506 106.026 129.01 105.987 128.493C105.947 127.987 106.086 127.45 106.414 126.993C106.473 126.904 106.553 126.814 106.632 126.735L107.745 125.573C108.202 125.096 108.828 124.818 109.473 124.758C110.109 124.689 110.775 124.847 111.311 125.235Z" fill="#333333"/>
<path fill-rule="evenodd" clip-rule="evenodd" d="M107.286 124.768L107.107 124.649C106.899 124.51 106.631 124.46 106.352 124.49C106.074 124.52 105.806 124.629 105.617 124.808L104.664 125.732C104.624 125.771 104.594 125.811 104.554 125.861C104.485 125.96 104.455 126.069 104.465 126.179C104.475 126.268 104.515 126.367 104.594 126.447C104.624 126.487 104.664 126.516 104.713 126.546L104.892 126.665C105.101 126.805 105.369 126.854 105.647 126.834C105.925 126.805 106.194 126.695 106.382 126.516L107.336 125.593C107.376 125.553 107.405 125.513 107.445 125.463C107.515 125.364 107.545 125.255 107.535 125.146C107.525 125.056 107.485 124.957 107.405 124.877C107.376 124.828 107.336 124.798 107.286 124.768ZM107.932 123.427L108.111 123.546C108.24 123.636 108.359 123.735 108.468 123.834C108.796 124.172 108.975 124.589 109.015 125.016C109.045 125.444 108.935 125.871 108.677 126.258C108.598 126.387 108.488 126.507 108.369 126.626L107.415 127.55C106.978 127.967 106.392 128.215 105.806 128.275C105.21 128.334 104.584 128.205 104.088 127.867L103.909 127.748C103.78 127.659 103.66 127.559 103.551 127.45C103.223 127.112 103.045 126.695 103.005 126.268C102.975 125.841 103.084 125.414 103.343 125.026C103.422 124.897 103.531 124.778 103.65 124.659L104.604 123.735C105.041 123.318 105.627 123.069 106.213 123.01C106.819 122.96 107.435 123.099 107.932 123.427Z" fill="#333333"/>
<path fill-rule="evenodd" clip-rule="evenodd" d="M103.305 123.745L103.147 123.636C102.968 123.517 102.739 123.467 102.511 123.487C102.282 123.507 102.054 123.606 101.905 123.755L101.647 124.014L101.577 124.103C101.507 124.202 101.478 124.312 101.488 124.411C101.498 124.51 101.537 124.6 101.627 124.679L101.865 124.858C102.034 124.977 102.272 125.027 102.501 125.007C102.729 124.987 102.958 124.888 103.107 124.739L103.365 124.48L103.445 124.391C103.514 124.292 103.544 124.182 103.534 124.083C103.524 123.984 103.484 123.894 103.405 123.805L103.305 123.745ZM103.991 122.424L104.15 122.533C104.249 122.603 104.339 122.673 104.418 122.752C104.766 123.09 104.954 123.517 104.994 123.954C105.034 124.391 104.915 124.838 104.637 125.235C104.567 125.325 104.488 125.424 104.408 125.504L104.15 125.762C103.743 126.169 103.196 126.408 102.63 126.467C102.064 126.517 101.478 126.388 101.011 126.06L100.852 125.951C100.762 125.881 100.673 125.812 100.584 125.732C100.236 125.394 100.047 124.967 100.007 124.53C99.9677 124.093 100.087 123.646 100.365 123.249C100.425 123.159 100.504 123.07 100.594 122.98L100.852 122.712C101.259 122.305 101.805 122.057 102.372 122.007C102.938 121.967 103.524 122.096 103.991 122.424Z" fill="#333333"/>
<path fill-rule="evenodd" clip-rule="evenodd" d="M112.345 129.736L112.186 129.627C112.007 129.508 111.779 129.458 111.541 129.478C111.302 129.498 111.074 129.597 110.915 129.756L110.656 130.014L110.577 130.104C110.507 130.203 110.478 130.312 110.488 130.412C110.498 130.501 110.537 130.6 110.617 130.68L110.696 130.749L110.855 130.859C111.034 130.988 111.262 131.037 111.501 131.008C111.739 130.988 111.968 130.888 112.127 130.729L112.385 130.471L112.464 130.382C112.534 130.282 112.564 130.173 112.554 130.074C112.544 129.984 112.504 129.885 112.425 129.806L112.345 129.736ZM113.021 128.415L113.18 128.524C113.289 128.604 113.388 128.683 113.468 128.763C113.805 129.1 113.994 129.517 114.034 129.955C114.074 130.382 113.954 130.829 113.686 131.216C113.617 131.315 113.537 131.415 113.438 131.514L113.18 131.772C112.772 132.18 112.216 132.418 111.65 132.478C111.084 132.527 110.498 132.398 110.021 132.07L109.862 131.961C109.753 131.882 109.653 131.802 109.574 131.723C109.236 131.385 109.047 130.968 109.007 130.531C108.968 130.104 109.087 129.657 109.355 129.269C109.425 129.16 109.514 129.07 109.603 128.981L109.862 128.723C110.269 128.315 110.825 128.077 111.392 128.017C111.968 127.948 112.554 128.087 113.021 128.415Z" fill="#333333"/>
<path fill-rule="evenodd" clip-rule="evenodd" d="M138.489 122.499C137.124 123.365 135.75 123.953 134.417 124.338C133.243 124.68 132.101 124.872 131.033 124.99C130.282 125.065 130.081 124.712 130.018 124.348C129.944 123.942 130.081 123.493 130.853 123.418C131.858 123.322 132.915 123.14 133.983 122.819C135.157 122.477 136.363 121.964 137.569 121.216C138.742 120.478 139.589 121.814 138.489 122.499Z" fill="#333333"/>
<path fill-rule="evenodd" clip-rule="evenodd" d="M93 118C93.5545 118 94 118.446 94 119C94 119.554 93.5545 120 93 120C92.4455 120 92 119.554 92 119C92 118.446 92.4455 118 93 118Z" fill="#333333"/>
<path fill-rule="evenodd" clip-rule="evenodd" d="M140 118C140.554 118 141 118.446 141 119C141 119.554 140.554 120 140 120C139.446 120 139 119.554 139 119C139 118.446 139.446 118 140 118Z" fill="#333333"/>
<path fill-rule="evenodd" clip-rule="evenodd" d="M129.02 109.822C127.164 109.665 125.289 109.408 123.454 109.151C120.799 108.786 118.243 108.431 116.003 108.431C115.727 108.49 114.336 109.447 112.885 110.513C111.217 111.737 109.569 113 109.539 113.119L109.204 113.563C109.194 113.573 108.375 115.418 107.605 117.185C107.112 118.32 106.668 119.366 106.52 119.81L106.678 119.968C107.092 120.343 107.576 120.53 108.049 120.55C108.523 120.57 108.987 120.412 109.382 120.116C109.5 120.037 109.599 119.938 109.697 119.829C110.23 119.227 110.882 118.349 111.474 117.421C112.056 116.514 112.589 115.586 112.905 114.865L113.132 114.352L113.684 114.441C113.99 114.49 114.957 114.569 115.993 114.629C116.931 114.688 117.937 114.727 118.549 114.727H118.599C118.964 114.757 119.664 115.319 120.681 116.158C122.467 117.619 125.368 119.997 127.766 121.201C128.132 121.379 129.612 121.665 131.566 121.468C132.582 121.359 133.697 121.112 134.812 120.649C135.868 120.195 136.628 121.478 135.266 122.04C134.043 122.543 132.819 122.81 131.714 122.928C129.474 123.165 127.608 122.76 127.115 122.514C124.549 121.231 121.579 118.803 119.753 117.303C118.984 116.671 118.628 116.247 118.51 116.208C117.898 116.208 116.882 116.158 115.905 116.099C115.194 116.06 114.503 116.01 114.01 115.961C113.664 116.662 113.201 117.461 112.707 118.231C112.076 119.208 111.375 120.155 110.783 120.816C110.625 120.994 110.447 121.152 110.26 121.3C109.599 121.803 108.799 122.06 108 122.03C107.191 122.001 106.391 121.695 105.701 121.083C105.503 120.905 105.316 120.698 105.148 120.481L105 120.283V120.037C105 119.662 105.592 118.171 106.263 116.622C106.914 115.142 107.684 113.543 108.128 112.783H108.109C108.217 112.359 110.132 110.75 112.007 109.369C113.674 108.145 115.391 107.039 115.914 107H115.964C118.273 107 120.908 107.365 123.632 107.74C125.467 107.997 127.342 108.253 129.197 108.411C130.5 108.47 130.49 109.951 129.02 109.822Z" fill="#333333"/>
</g>
<defs>
<linearGradient id="paint0_linear_125_8531" x1="33.7184" y1="84.2627" x2="54.0487" y2="116.845" gradientUnits="userSpaceOnUse">
<stop stop-color="#FFC671"/>
<stop offset="1" stop-color="#FF6F3D"/>
</linearGradient>
<clipPath id="clip0_125_8531">
<rect width="150" height="150" fill="white"/>
</clipPath>
</defs>
</svg>
