<svg width="150" height="150" viewBox="0 0 150 150" fill="none" xmlns="http://www.w3.org/2000/svg">
<path fill-rule="evenodd" clip-rule="evenodd" d="M119 8C119 5.79086 117.209 4 115 4H72.2203H25.8587C25.5912 4 25.3349 4.10716 25.147 4.29753L4.28829 25.4306C4.10357 25.6178 4 25.8702 4 26.1331V142C4 144.209 5.79086 146 8 146H115C117.209 146 119 144.209 119 142V8Z" fill="white"/>
<path fill-rule="evenodd" clip-rule="evenodd" d="M120 7.5C120 5.01472 117.985 3 115.5 3L26.4142 3C26.0164 3 25.6349 3.15804 25.3536 3.43934L3.43934 25.3536C3.15803 25.6349 3 26.0164 3 26.4142L3 141.5C3 143.985 5.01472 146 7.5 146H115.5C117.985 146 120 143.985 120 141.5V127C120 126.724 119.776 126.5 119.5 126.5C119.224 126.5 119 126.724 119 127V141.5C119 143.433 117.433 145 115.5 145H7.5C5.56701 145 4 143.433 4 141.5L4 26.4142C4 26.2816 4.05268 26.1544 4.14645 26.0607L26.0607 4.14645C26.1544 4.05268 26.2816 4 26.4142 4L115.5 4C117.433 4 119 5.567 119 7.5V54.25C119 54.5261 119.224 54.75 119.5 54.75C119.776 54.75 120 54.5261 120 54.25V7.5Z" fill="#333333"/>
<path fill-rule="evenodd" clip-rule="evenodd" d="M26 4L4 26H23C24.6569 26 26 24.6569 26 23V4Z" fill="url(#paint0_linear_125_8453)"/>
<path fill-rule="evenodd" clip-rule="evenodd" d="M26.3827 3.07615C26.009 2.92137 25.5789 3.00692 25.2929 3.29292L3.29289 25.2929C3.0069 25.5789 2.92134 26.009 3.07612 26.3827C3.2309 26.7564 3.59554 27 4 27H23C25.2091 27 27 25.2092 27 23V4.00003C27 3.59557 26.7564 3.23093 26.3827 3.07615ZM26 4.00003V23C26 24.6569 24.6569 26 23 26H4L26 4.00003Z" fill="#333333"/>
<path fill-rule="evenodd" clip-rule="evenodd" d="M93 36.5039C93 36.2278 92.7753 36.0039 92.498 36.0039H34.502C34.2247 36.0039 34 36.2278 34 36.5039C34 36.78 34.2247 37.0039 34.502 37.0039H92.498C92.7753 37.0039 93 36.78 93 36.5039Z" fill="#333333"/>
<path fill-rule="evenodd" clip-rule="evenodd" d="M93 46.5039C93 46.2278 92.7761 46.0039 92.5 46.0039H22.5039C22.2278 46.0039 22.0039 46.2278 22.0039 46.5039C22.0039 46.78 22.2278 47.0039 22.5039 47.0039H92.5C92.7761 47.0039 93 46.78 93 46.5039Z" fill="#333333"/>
<path fill-rule="evenodd" clip-rule="evenodd" d="M64 122.5C64 122.224 63.7757 122 63.4991 122H22.5009C22.2243 122 22 122.224 22 122.5C22 122.776 22.2243 123 22.5009 123H63.4991C63.7757 123 64 122.776 64 122.5Z" fill="#333333"/>
<path fill-rule="evenodd" clip-rule="evenodd" d="M79 112.5C79 112.224 78.7773 112 78.5025 112H22.4975C22.2227 112 22 112.224 22 112.5C22 112.776 22.2227 113 22.4975 113H78.5025C78.7773 113 79 112.776 79 112.5Z" fill="#333333"/>
<path fill-rule="evenodd" clip-rule="evenodd" d="M93 21C93 20.4477 92.5523 20 92 20H52C51.4477 20 51 20.4477 51 21C51 21.5523 51.4477 22 52 22H92C92.5523 22 93 21.5523 93 21Z" fill="url(#paint1_linear_125_8453)"/>
<path fill-rule="evenodd" clip-rule="evenodd" d="M23 94C23 95.1045 23.8954 96 25 96H92C93.1046 96 94 95.1046 94 94V65C94 63.8954 93.1046 63 92 63L25.0004 63C23.8959 63 23.0004 63.8954 23.0004 65L23 94Z" fill="#BDECFF"/>
<path fill-rule="evenodd" clip-rule="evenodd" d="M62 96V79H23V94.2969C23 95.2305 23.7349 95.9897 24.6387 95.9897H62V96Z" fill="#FEFEFE"/>
<path fill-rule="evenodd" clip-rule="evenodd" d="M62 79H77V63H62V79Z" fill="#FEFEFE"/>
<path fill-rule="evenodd" clip-rule="evenodd" d="M78 96H92C93.1046 96 94 95.1046 94 94V80H78V96Z" fill="#FEFEFE"/>
<path d="M94 79H23V80H94V79Z" fill="#333333"/>
<path d="M62 63H61V96H62V63Z" fill="#333333"/>
<path d="M78 63H77V96H78V63Z" fill="#333333"/>
<path fill-rule="evenodd" clip-rule="evenodd" d="M90 70.4977C90 70.3721 89.9296 70.2512 89.8088 70.1674C89.6679 70.0651 89.4566 70 89.2151 70H82.7849C82.5434 70 82.3321 70.0651 82.1912 70.1674C82.0704 70.2558 82 70.3721 82 70.4977C82 70.6233 82.0704 70.7442 82.1912 70.8279C82.3321 70.9349 82.5434 71 82.7849 71H89.2151C89.4566 71 89.6679 70.9349 89.8088 70.8279C89.9296 70.7442 90 70.6279 90 70.4977Z" fill="#333333"/>
<path fill-rule="evenodd" clip-rule="evenodd" d="M55 70.4977C55 70.3721 54.9384 70.2512 54.8327 70.1674C54.7094 70.0651 54.5245 70 54.3132 70H30.6868C30.4755 70 30.2906 70.0651 30.1673 70.1674C30.0616 70.2558 30 70.3721 30 70.4977C30 70.6233 30.0616 70.7442 30.1673 70.8279C30.2906 70.9349 30.4755 71 30.6868 71H54.3132C54.5245 71 54.7094 70.9349 54.8327 70.8279C54.9384 70.7442 55 70.6279 55 70.4977Z" fill="#333333"/>
<path fill-rule="evenodd" clip-rule="evenodd" d="M74 70.4977C74 70.3721 73.9384 70.2512 73.8327 70.1674C73.7094 70.0651 73.5245 70 73.3132 70H65.6868C65.4755 70 65.2906 70.0651 65.1673 70.1674C65.0616 70.2558 65 70.3721 65 70.4977C65 70.6233 65.0616 70.7442 65.1673 70.8279C65.2906 70.9349 65.4755 71 65.6868 71H73.3132C73.5245 71 73.7094 70.9349 73.8327 70.8279C73.9384 70.7442 74 70.6279 74 70.4977Z" fill="#333333"/>
<path fill-rule="evenodd" clip-rule="evenodd" d="M74 87.4977C74 87.3721 73.9384 87.2512 73.8327 87.1674C73.7094 87.0651 73.5245 87 73.3132 87H65.6868C65.4755 87 65.2906 87.0651 65.1673 87.1674C65.0616 87.2558 65 87.3721 65 87.4977C65 87.6233 65.0616 87.7442 65.1673 87.8279C65.2906 87.9349 65.4755 88 65.6868 88H73.3132C73.5245 88 73.7094 87.9349 73.8327 87.8279C73.9384 87.7442 74 87.6279 74 87.4977Z" fill="#333333"/>
<path fill-rule="evenodd" clip-rule="evenodd" d="M89 87.4977C89 87.3721 88.9384 87.2512 88.8327 87.1674C88.7094 87.0651 88.5245 87 88.3132 87H81.6868C81.4755 87 81.2906 87.0651 81.1673 87.1674C81.0616 87.2558 81 87.3721 81 87.4977C81 87.6233 81.0616 87.7442 81.1673 87.8279C81.2906 87.9349 81.4755 88 81.6868 88H88.3132C88.5245 88 88.7094 87.9349 88.8327 87.8279C88.9384 87.7442 89 87.6279 89 87.4977Z" fill="#333333"/>
<path fill-rule="evenodd" clip-rule="evenodd" d="M55 87.4977C55 87.3721 54.9384 87.2512 54.8327 87.1674C54.7094 87.0651 54.5245 87 54.3132 87H30.6868C30.4755 87 30.2906 87.0651 30.1673 87.1674C30.0616 87.2558 30 87.3721 30 87.4977C30 87.6233 30.0616 87.7442 30.1673 87.8279C30.2906 87.9349 30.4755 88 30.6868 88H54.3132C54.5245 88 54.7094 87.9349 54.8327 87.8279C54.9384 87.7442 55 87.6279 55 87.4977Z" fill="#333333"/>
<path fill-rule="evenodd" clip-rule="evenodd" d="M92 97H25C23.3431 97 22 95.6568 22 93.9999L22.0004 65C22.0004 63.3431 23.3436 62 25.0004 62L92 62C93.6568 62 95 63.3431 95 65V94C95 95.6568 93.6568 97 92 97ZM25 96C23.8954 96 23 95.1045 23 94L23.0004 65C23.0004 63.8954 23.8959 63 25.0004 63L92 63C93.1045 63 94 63.8954 94 65V94C94 95.1046 93.1045 96 92 96H25Z" fill="#333333"/>
<path fill-rule="evenodd" clip-rule="evenodd" d="M118 63C132.913 63 145 75.0873 145 90C145 104.913 132.913 117 118 117C103.087 117 91 104.913 91 90C91 75.0873 103.087 63 118 63Z" fill="url(#paint2_linear_125_8453)"/>
<path fill-rule="evenodd" clip-rule="evenodd" d="M144 90C144 75.6396 132.36 64 118 64C103.64 64 92 75.6396 92 90C92 104.36 103.64 116 118 116C132.36 116 144 104.36 144 90ZM145 90C145 75.0873 132.913 63 118 63C103.087 63 91 75.0873 91 90C91 104.913 103.087 117 118 117C132.913 117 145 104.913 145 90Z" fill="#333333"/>
<path fill-rule="evenodd" clip-rule="evenodd" d="M116.661 105.992V102.908C115.087 102.712 113.802 102.368 112.814 101.874C111.827 101.381 110.975 100.575 110.253 99.4712C109.538 98.3596 109.12 97.0131 109 95.4162L112.164 94.8212C112.413 96.4808 112.838 97.702 113.465 98.4848C114.348 99.5808 115.416 100.191 116.653 100.324V90.6487C115.352 90.3199 114.027 89.7876 112.678 89.0439C111.674 88.5038 110.903 87.7444 110.357 86.7737C109.811 85.7952 109.546 84.6992 109.546 83.4702C109.546 81.2783 110.341 79.5091 111.931 78.147C112.991 77.2389 114.573 76.6753 116.661 76.4717V75H118.532V76.4717C120.355 76.6439 121.808 77.1684 122.876 78.053C124.249 79.1725 125.077 80.7146 125.358 82.6717L122.121 83.1649C121.937 81.9437 121.551 81.0043 120.957 80.3545C120.371 79.7048 119.56 79.2742 118.532 79.0629V87.9402C120.122 88.3394 121.166 88.6447 121.68 88.8639C122.659 89.2866 123.454 89.7955 124.073 90.4061C124.699 91.0088 125.165 91.729 125.502 92.5588C125.831 93.3886 126 94.2967 126 95.2596C126 97.3889 125.309 99.1659 123.912 100.598C122.523 102.023 120.724 102.783 118.524 102.884V106H116.661V105.992ZM116.661 79.0237C115.44 79.2038 114.469 79.6813 113.77 80.4641C113.063 81.2391 112.71 82.1551 112.71 83.2197C112.71 84.2687 113.007 85.1533 113.609 85.8578C114.212 86.5624 115.223 87.1025 116.661 87.4626V79.0237V79.0237ZM118.532 100.317C119.761 100.168 120.772 99.6513 121.575 98.7588C122.37 97.8742 122.772 96.7705 122.772 95.4631C122.772 94.3437 122.491 93.4513 121.921 92.7702C121.35 92.097 120.218 91.5412 118.532 91.1184V100.317Z" fill="#FEFEFE"/>
<defs>
<linearGradient id="paint0_linear_125_8453" x1="26" y1="3.14062" x2="3.99996" y2="26" gradientUnits="userSpaceOnUse">
<stop stop-color="#FF8E3D"/>
<stop offset="1" stop-color="#FF6F3D"/>
</linearGradient>
<linearGradient id="paint1_linear_125_8453" x1="92.9999" y1="19.9219" x2="92.8169" y2="23.9164" gradientUnits="userSpaceOnUse">
<stop stop-color="#FF8E3D"/>
<stop offset="1" stop-color="#FF6F3D"/>
</linearGradient>
<linearGradient id="paint2_linear_125_8453" x1="99.9259" y1="62.1092" x2="122.835" y2="97.4608" gradientUnits="userSpaceOnUse">
<stop stop-color="#FFC671"/>
<stop offset="1" stop-color="#FF6F3D"/>
</linearGradient>
</defs>
</svg>
