<svg width="150" height="150" viewBox="0 0 150 150" fill="none" xmlns="http://www.w3.org/2000/svg">
<g clip-path="url(#clip0_125_6939)">
<path fill-rule="evenodd" clip-rule="evenodd" d="M27.8985 93.0794H14.2088C10.6161 93.0794 7.35894 91.5211 5 89V127.124C5 133.5 8 137 14.3173 137H134.683C141 137 144 135 144 127.124V89C141.641 91.5112 138.384 93.0794 134.791 93.0794L122.5 93L27.8985 93.0794Z" fill="#BDECFF"/>
<path fill-rule="evenodd" clip-rule="evenodd" d="M94.1396 35H54.8703H48.2578H14.0271C7 35.5 1.5 41 1 48.5142V79.4858C1 83.1857 2.45515 86.5545 4.80121 88.9983C7.16707 91.4616 10.4337 93 14.037 93H27.7669H75.0642H122.362H134.973C139 93 142.134 91.4633 144.5 89C146.846 86.5562 148 83.1857 148 79.4858V48.5142C148 41.0853 142.14 35 134.973 35H100.752H94.1396Z" fill="#FEFEFE"/>
<path fill-rule="evenodd" clip-rule="evenodd" d="M1 49.0142C1 41.3168 7.06701 34 14.5271 34H40.5C40.7761 34 41 34.2239 41 34.5C41 34.7761 40.7761 35 40.5 35H14.5271C7.6534 35 2 41.8343 2 49.0142V79.9858C2 83.5531 3.40276 86.7987 5.66191 89.1521C7.94079 91.5248 11.0801 93 14.537 93H21.5C21.7761 93 22 93.2239 22 93.5C22 93.7761 21.7761 94 21.5 94H14.537C10.7874 94 7.39342 92.3985 4.9406 89.8447C2.50762 87.3103 1 83.8183 1 79.9858V49.0142ZM61 34.5C61 34.2239 61.2239 34 61.5 34H89.2328C89.509 34 89.7328 34.2239 89.7328 34.5C89.7328 34.7761 89.509 35 89.2328 35H61.5C61.2239 35 61 34.7761 61 34.5ZM110.198 34.5C110.198 34.2239 110.422 34 110.698 34H135.473C142.933 34 149 41.3267 149 49.0142V79.9858C149 83.8173 147.503 87.3095 145.069 89.8446C142.616 92.3986 139.212 94 135.473 94H129C128.724 94 128.5 93.7761 128.5 93.5C128.5 93.2239 128.724 93 129 93H135.473C138.92 93 142.069 91.5246 144.348 89.1521C146.606 86.7994 148 83.554 148 79.9858V49.0142C148 41.8438 142.346 35 135.473 35H110.698C110.422 35 110.198 34.7761 110.198 34.5ZM55.0185 93.5C55.0185 93.2239 55.2423 93 55.5185 93H94.5C94.7761 93 95 93.2239 95 93.5C95 93.7761 94.7761 94 94.5 94H55.5185C55.2423 94 55.0185 93.7761 55.0185 93.5Z" fill="#333333"/>
<path fill-rule="evenodd" clip-rule="evenodd" d="M4.5 99C4.77614 99 5 99.2239 5 99.5V127.624C5 132.805 9.99796 137 14.8173 137H135.183C140.002 137 144 132.805 144 127.624V99.5C144 99.2239 144.224 99 144.5 99C144.776 99 145 99.2239 145 99.5V127.624C145 133.302 140.608 138 135.183 138H14.8173C9.39159 138 4 133.302 4 127.624V99.5C4 99.2239 4.22386 99 4.5 99Z" fill="#333333"/>
<path fill-rule="evenodd" clip-rule="evenodd" d="M48 86.6118C48 85.7273 47.2911 85 46.4304 85H29.5797C28.7089 85 28 85.7273 28 86.6118V93V99.3882C28 100.273 28.7089 101 29.5797 101H46.4203C47.281 101 47.9899 100.273 47.9899 99.3882V86.6118H48Z" fill="url(#paint0_linear_125_6939)"/>
<path fill-rule="evenodd" clip-rule="evenodd" d="M49 87.6118H48.9899V99.3882C48.9899 100.8 47.8579 102 46.4203 102H29.5797C28.1361 102 27 100.804 27 99.3882V86.6118C27 85.1957 28.1361 84 29.5797 84H46.4304C47.868 84 49 85.1999 49 86.6118V87.6118ZM48 86.6118C48 86.5502 47.9966 86.4894 47.9899 86.4295C47.9557 86.1234 47.8366 85.8423 47.6577 85.6118C47.3691 85.2399 46.9248 85 46.4304 85H29.5797C28.7089 85 28 85.7273 28 86.6118V99.3882C28 100.273 28.7089 101 29.5797 101H46.4203C47.281 101 47.9899 100.273 47.9899 99.3882V86.6118H48Z" fill="#333333"/>
<path fill-rule="evenodd" clip-rule="evenodd" d="M102 86.6128V99.3872C102 100.272 102.709 101 103.57 101H120.419C121.291 101 122 100.272 122 99.3872V86.6128C122 85.7277 121.291 85 120.419 85H103.57C102.699 85.0098 102 85.7277 102 86.6128Z" fill="url(#paint1_linear_125_6939)"/>
<path fill-rule="evenodd" clip-rule="evenodd" d="M103.57 84V84.0001H120.419C121.864 84.0001 123 85.1963 123 86.6128V99.3873C123 100.804 121.864 102 120.419 102H103.57C102.132 102 101 100.8 101 99.3873V86.6128C101 85.1943 102.126 84.0163 103.559 84.0001L103.57 84ZM103.57 85.0001H120.419C121.291 85.0001 122 85.7278 122 86.6128V99.3873C122 100.272 121.291 101 120.419 101H103.57C102.709 101 102 100.272 102 99.3873V86.6128C102 85.7278 102.699 85.0099 103.57 85.0001Z" fill="#333333"/>
<path fill-rule="evenodd" clip-rule="evenodd" d="M91.5 22C94.0332 22 95.9412 23.9619 95.9412 26.5V32.4706C95.9412 34.4198 97.5213 36 99.4706 36C101.42 36 103 34.4198 103 32.4706V24C103 19.993 99.015 16 95 16H55C50.985 16 47 19.993 47 24V32.4815C47 34.4247 48.5753 36 50.5185 36C52.4702 36 54.049 34.4114 54.0369 32.4597L54 26.5C54.0588 23.5 55.5 22 58.5 22H91.5Z" fill="url(#paint2_linear_125_6939)"/>
<path fill-rule="evenodd" clip-rule="evenodd" d="M94.9412 26.5C94.9412 24.4975 93.4644 23 91.5 23H58.5C57.1558 23 56.3466 23.3349 55.8576 23.8286C55.3648 24.3263 55.0285 25.1554 55.0001 26.5071L55.0369 32.4535C55.0524 34.9599 53.0249 37 50.5185 37C48.023 37 46 34.977 46 32.4815V24C46 21.6727 47.1476 19.4311 48.787 17.7905C50.4266 16.1499 52.6683 15 55 15H95C97.3317 15 99.5734 16.1499 101.213 17.7905C102.852 19.4311 104 21.6727 104 24V32.4706C104 34.9721 101.972 37 99.4706 37C96.9691 37 94.9412 34.9721 94.9412 32.4706V26.5ZM54 26.5L54.0369 32.4597C54.049 34.4114 52.4702 36 50.5185 36C48.5753 36 47 34.4247 47 32.4815V24C47 19.993 50.985 16 55 16H95C99.015 16 103 19.993 103 24V32.4706C103 34.4198 101.42 36 99.4706 36C97.5213 36 95.9412 34.4198 95.9412 32.4706V26.5C95.9412 23.9619 94.0332 22 91.5 22H58.5C55.5 22 54.0588 23.5 54 26.5Z" fill="#333333"/>
</g>
<defs>
<linearGradient id="paint0_linear_125_6939" x1="25.4848" y1="79.6202" x2="39.4184" y2="95.4341" gradientUnits="userSpaceOnUse">
<stop stop-color="#FFC671"/>
<stop offset="1" stop-color="#FF6F3D"/>
</linearGradient>
<linearGradient id="paint1_linear_125_6939" x1="99.4727" y1="79.6169" x2="113.415" y2="95.439" gradientUnits="userSpaceOnUse">
<stop stop-color="#FFC671"/>
<stop offset="1" stop-color="#FF6F3D"/>
</linearGradient>
<linearGradient id="paint2_linear_125_6939" x1="50.1939" y1="-0.0451431" x2="78.5539" y2="31.2554" gradientUnits="userSpaceOnUse">
<stop stop-color="#FFC671"/>
<stop offset="1" stop-color="#FF6F3D"/>
</linearGradient>
<clipPath id="clip0_125_6939">
<rect width="150" height="150" fill="white"/>
</clipPath>
</defs>
</svg>
