<svg width="150" height="150" viewBox="0 0 150 150" fill="none" xmlns="http://www.w3.org/2000/svg">
<path fill-rule="evenodd" clip-rule="evenodd" d="M0.000132787 36.8494C-0.0125546 34.5299 0.884496 32.2398 2.45 30.595C4.01549 28.9501 6.20252 28 8.42281 28H140.946C143.166 28 145.841 28.8552 147.406 30.5C148.972 32.1448 148.965 34.1805 148.952 36.5C148.952 36.5 150 63.1098 150 80C150 96.8902 148.952 123 148.952 123C149.459 128.451 145.865 132.458 141.235 131.958H8.42281C6.20252 131.958 4.01549 131.008 2.45 129.363C0.884496 127.718 -0.0125546 125.428 0.000132787 123.108V36.8494Z" fill="#EFEFEF"/>
<path fill-rule="evenodd" clip-rule="evenodd" d="M7.31826 39.7198C7.31826 37.0308 9.03827 34.9999 13.1149 35L135.012 35C139.218 34.9999 142.023 36.0912 142 40.1874V102.984V122C142 124.209 140.209 126 138 126H12.2864C8.08089 126 7.0001 122.142 7 120.213L7.31826 39.7198Z" fill="white"/>
<path fill-rule="evenodd" clip-rule="evenodd" d="M8.98659 28.0047C4.84195 28.0047 0.974264 31.6661 1.00013 36.3716L1.00015 36.3744L1.00014 123.626L1.00013 123.628C0.99409 124.727 1.1971 125.816 1.59711 126.832C1.99711 127.848 2.58598 128.771 3.32906 129.548C4.07209 130.325 4.9546 130.94 5.92534 131.36C6.89605 131.78 7.93636 131.995 8.98659 131.995H141.295C142.333 131.977 143.357 131.743 144.308 131.309C145.261 130.874 146.121 130.245 146.84 129.459C147.558 128.672 148.119 127.744 148.489 126.728C148.86 125.712 149.032 124.629 148.995 123.542L148.995 123.525V36.3716C149.021 31.6661 145.153 28.0047 141.008 28.0047H117C116.724 28.0047 116.5 27.7798 116.5 27.5024C116.5 27.2249 116.724 27 117 27H141.008C145.712 26.9999 150.024 31.1188 149.995 36.3772V123.516C150.035 124.729 149.842 125.938 149.428 127.074C149.013 128.212 148.384 129.254 147.576 130.138C146.769 131.022 145.798 131.732 144.722 132.223C143.646 132.715 142.485 132.979 141.308 133L141.299 133H8.98661C7.79974 133 6.62501 132.756 5.53012 132.283C4.43527 131.81 3.44237 131.116 2.60805 130.244C1.77377 129.372 1.11445 128.338 0.667207 127.202C0.220143 126.066 -0.00642412 124.85 0.000138593 123.624V36.3758C-0.0279944 31.1181 4.28375 26.9999 8.98661 27H33.5C33.7761 27 34 27.2249 34 27.5024C34 27.7798 33.7761 28.0047 33.5 28.0047H8.98659Z" fill="#333333"/>
<path fill-rule="evenodd" clip-rule="evenodd" d="M82.967 25.0406C82.967 21.1561 79.7947 18 75.8783 18C71.962 18 68.7897 21.1456 68.7897 25.0406H47.5443C45.5913 25.0406 44 26.6133 44 28.5556V34.485C44 36.4272 45.5913 38 47.5443 38H102.456C104.409 38 106 36.4272 106 34.485V28.5556C106 26.6133 104.409 25.0406 102.456 25.0406H82.967Z" fill="url(#paint0_linear_125_10475)"/>
<path fill-rule="evenodd" clip-rule="evenodd" d="M81.967 26.0406V25.0406C81.967 21.7143 79.2483 19 75.8783 19C72.5074 19 69.7897 21.7047 69.7897 25.0406V26.0406H47.5443C46.1348 26.0406 45 27.1744 45 28.5556V34.485C45 35.8661 46.1348 37 47.5443 37H102.456C103.865 37 105 35.8661 105 34.485V28.5556C105 27.1744 103.865 26.0406 102.456 26.0406H81.967ZM82.967 25.0406C82.967 21.1561 79.7947 18 75.8783 18C71.962 18 68.7897 21.1456 68.7897 25.0406H47.5443C45.5913 25.0406 44 26.6133 44 28.5556V34.485C44 36.4272 45.5913 38 47.5443 38H102.456C104.409 38 106 36.4272 106 34.485V28.5556C106 26.6133 104.409 25.0406 102.456 25.0406H82.967Z" fill="#333333"/>
<path d="M17 103C17 101.343 18.3431 100 20 100H31C32.6569 100 34 101.343 34 103V114C34 115.657 32.6569 117 31 117H20C18.3431 117 17 115.657 17 114V103Z" fill="#BDECFF"/>
<path fill-rule="evenodd" clip-rule="evenodd" d="M31 101H20C18.8954 101 18 101.895 18 103V114C18 115.105 18.8954 116 20 116H31C32.1046 116 33 115.105 33 114V103C33 101.895 32.1046 101 31 101ZM20 100C18.3431 100 17 101.343 17 103V114C17 115.657 18.3431 117 20 117H31C32.6569 117 34 115.657 34 114V103C34 101.343 32.6569 100 31 100H20Z" fill="#333333"/>
<path fill-rule="evenodd" clip-rule="evenodd" d="M124.502 106C124.777 106 125 105.776 125 105.5C125 105.224 124.777 105 124.502 105L41.4998 105C41.2249 105 41.0019 105.224 41.0019 105.5C41.0019 105.776 41.2249 106 41.4998 106L124.502 106ZM110.707 112C110.982 112 111.205 111.776 111.205 111.5C111.205 111.224 110.982 111 110.707 111L41.4979 111C41.2229 111 41 111.224 41 111.5C41 111.776 41.2229 112 41.4979 112L110.707 112Z" fill="#333333"/>
<path fill-rule="evenodd" clip-rule="evenodd" d="M41 82.5C41 82.2239 41.2237 82 41.4997 82H127.5C127.776 82 128 82.2239 128 82.5C128 82.7761 127.776 83 127.5 83H41.4997C41.2237 83 41 82.7761 41 82.5Z" fill="#333333"/>
<path fill-rule="evenodd" clip-rule="evenodd" d="M41 88.5C41 88.2239 41.2246 88 41.5018 88H85.4982C85.7753 88 86 88.2239 86 88.5C86 88.7761 85.7753 89 85.4982 89H41.5018C41.2246 89 41 88.7761 41 88.5Z" fill="#333333"/>
<path fill-rule="evenodd" clip-rule="evenodd" d="M17 79C17 78.4477 17.4477 78 18 78H32C32.5523 78 33 78.4477 33 79V92C33 92.5523 32.5523 93 32 93H18C17.4477 93 17 92.5523 17 92V79Z" fill="#BDECFF"/>
<path fill-rule="evenodd" clip-rule="evenodd" d="M32.7962 79.1018C33.0224 79.2692 33.0671 79.5845 32.8961 79.8059L24.5889 90.5612C24.3993 90.8105 24.1156 90.9946 23.763 90.9999C23.4233 91.005 23.1248 90.8422 22.8912 90.6212C22.8798 90.6104 22.8689 90.5991 22.8586 90.5874L20.1241 87.4727C19.9392 87.2621 19.9637 86.9447 20.1788 86.7638C20.3939 86.5828 20.7181 86.6068 20.9029 86.8173L23.6201 89.9123C23.6791 89.9652 23.7188 89.9843 23.738 89.9911C23.7445 89.9852 23.7538 89.9756 23.7653 89.9605L23.7683 89.9565L23.7683 89.9565L32.0769 79.1995C32.2479 78.9781 32.57 78.9343 32.7962 79.1018Z" fill="#333333"/>
<path fill-rule="evenodd" clip-rule="evenodd" d="M19.3645 76.9951H27.0705C27.3466 76.9951 27.5705 77.219 27.5705 77.4951C27.5705 77.7713 27.3466 77.9951 27.0705 77.9951H19.3714C19.1805 78.0008 18.9927 78.0452 18.8194 78.1254C18.6444 78.2064 18.488 78.3223 18.3598 78.466C18.2316 78.6096 18.1343 78.7778 18.074 78.9602C18.0136 79.1428 17.9913 79.3356 18.0086 79.5268C18.01 79.5417 18.0106 79.5568 18.0106 79.5718V91.4538C18.0078 91.6566 18.0457 91.8582 18.1224 92.0465C18.199 92.2347 18.3126 92.4058 18.4567 92.5495C18.6009 92.6933 18.7725 92.8068 18.9615 92.8834C19.1505 92.9599 19.353 92.9979 19.5571 92.995L19.5642 92.9949L31.5229 92.9949C31.9454 92.9884 32.3484 92.8166 32.6448 92.5168C32.9003 92.2584 33.0031 91.8857 33.003 91.3898V85.4173C33.003 85.1411 33.2269 84.9173 33.503 84.9173C33.7792 84.9173 34.003 85.1411 34.003 85.4173V91.3897C34.003 91.3897 34.003 91.3897 34.003 91.3897C34.0031 92.0007 33.8796 92.6903 33.3559 93.2199C32.8738 93.7074 32.219 93.9856 31.5332 93.9949L31.5264 93.995L19.5674 93.9949C19.2313 93.9992 18.8977 93.9364 18.5862 93.8103C18.2735 93.6836 17.9893 93.4957 17.7505 93.2575C17.5118 93.0193 17.3232 92.7358 17.1961 92.4235C17.0696 92.1125 17.0064 91.7793 17.0106 91.4433V79.5931C16.9849 79.2729 17.0237 78.951 17.1246 78.6462C17.228 78.3336 17.3945 78.0457 17.6138 77.8C17.833 77.5544 18.1004 77.3563 18.3993 77.2179C18.6982 77.0795 19.0223 77.0038 19.3517 76.9953L19.3645 76.9951Z" fill="#333333"/>
<path d="M17 58C17 56.3431 18.3431 55 20 55H31C32.6569 55 34 56.3431 34 58V69C34 70.6569 32.6569 72 31 72H20C18.3431 72 17 70.6569 17 69V58Z" fill="#BDECFF"/>
<path fill-rule="evenodd" clip-rule="evenodd" d="M31 56H20C18.8954 56 18 56.8954 18 58V69C18 70.1046 18.8954 71 20 71H31C32.1046 71 33 70.1046 33 69V58C33 56.8954 32.1046 56 31 56ZM20 55C18.3431 55 17 56.3431 17 58V69C17 70.6569 18.3431 72 20 72H31C32.6569 72 34 70.6569 34 69V58C34 56.3431 32.6569 55 31 55H20Z" fill="#333333"/>
<path fill-rule="evenodd" clip-rule="evenodd" d="M117.498 61C117.775 61 118 60.7761 118 60.5C118 60.2239 117.775 60 117.498 60L41.5016 60C41.2246 60 41 60.2239 41 60.5C41 60.7762 41.2246 61 41.5016 61L117.498 61ZM106.509 67C106.786 67 107.01 66.7762 107.01 66.5C107.01 66.2239 106.786 66 106.509 66L41.502 66.0001C41.2249 66.0001 41.0004 66.2239 41.0004 66.5001C41.0004 66.7762 41.2249 67.0001 41.502 67.0001L106.509 67Z" fill="#333333"/>
<path fill-rule="evenodd" clip-rule="evenodd" d="M97 49C97 49.5523 96.5523 50 96 50L54 50C53.4477 50 53 49.5523 53 49C53 48.4477 53.4477 48 54 48L96 48C96.5523 48 97 48.4477 97 49Z" fill="#333333"/>
<defs>
<linearGradient id="paint0_linear_125_10475" x1="75" y1="18" x2="75" y2="38" gradientUnits="userSpaceOnUse">
<stop stop-color="#FF8E3D"/>
<stop offset="1" stop-color="#FF6F3D"/>
</linearGradient>
</defs>
</svg>
