<svg width="86" height="86" viewBox="0 0 86 86" fill="none" xmlns="http://www.w3.org/2000/svg">
<path fill-rule="evenodd" clip-rule="evenodd" d="M1.42969 56.2097V75.7597C1.42969 78.0897 3.33969 79.9897 5.65969 79.9897H57.0938C59.4238 79.9897 61 78.82 61 76.5V73V27L60.9597 11.9297V10.6597C60.9597 8.32969 59.0497 6.42969 56.7297 6.42969H16.1097L1.42969 21.1097V56.2097Z" fill="#FEFEFE"/>
<path fill-rule="evenodd" clip-rule="evenodd" d="M12 22C14.5412 22 17 19.5286 17 17V6L1 22H12Z" fill="url(#paint0_linear_2_1594)"/>
<path fill-rule="evenodd" clip-rule="evenodd" d="M17 6V17.0655C17 19.7763 15 22 12.0623 22H1V21H12C14.5443 21 16 19.3651 16 16.875V6H17Z" fill="#333333"/>
<path fill-rule="evenodd" clip-rule="evenodd" d="M61 37.31V11C61 8.86248 59.2761 7 57 7H16.5L2 21.5V76.5C2 78.4789 3.70082 80 5.66 80H57C59.1 80 61 78.6 61 76.5V67.58C61 67 62 66.98 62 67.58V76.5C62 79.06 59.56 81 57 81H5.66C3.32589 81 1 78.9167 1 76.5V21C5.97 16.02 10.96 10.98 15.93 6H57.34C59.9 6 62 8.1 62 10.66V37.31C62 37.92 61 37.92 61 37.31Z" fill="#333333"/>
<path fill-rule="evenodd" clip-rule="evenodd" d="M23.9998 16H50.9998C52.9998 16 52.9998 19 50.9998 19H24.0002C21.9994 19 21.9995 16 23.9998 16Z" fill="url(#paint1_linear_2_1594)"/>
<mask id="path-6-inside-1_2_1594" fill="white">
<path fill-rule="evenodd" clip-rule="evenodd" d="M47.9029 43.0179L65.0728 43.0179V39.6531C65.0728 37.9726 66.9649 37.5622 68 38.4731C71.7092 41.6985 80.1965 48.482 82.6358 50.4838C83.8554 51.4847 84.0993 54.4881 82.1479 55.9887C78.1418 59.0695 71.9029 64.0995 68 67.499C66.902 68.4554 65.0728 67.9995 65.0728 66.4981V62.9949L47.9029 62.9949C45.4205 62.9949 44 61.408 44 58.9913V46.9806C44.0096 44.5639 45.4205 43.0179 47.9029 43.0179Z"/>
</mask>
<path fill-rule="evenodd" clip-rule="evenodd" d="M47.9029 43.0179L65.0728 43.0179V39.6531C65.0728 37.9726 66.9649 37.5622 68 38.4731C71.7092 41.6985 80.1965 48.482 82.6358 50.4838C83.8554 51.4847 84.0993 54.4881 82.1479 55.9887C78.1418 59.0695 71.9029 64.0995 68 67.499C66.902 68.4554 65.0728 67.9995 65.0728 66.4981V62.9949L47.9029 62.9949C45.4205 62.9949 44 61.408 44 58.9913V46.9806C44.0096 44.5639 45.4205 43.0179 47.9029 43.0179Z" fill="#BDECFF"/>
<path d="M47.9029 43.0179L47.9029 42.0179H47.9029V43.0179ZM65.0728 43.0179L65.0728 44.0179L66.0728 44.0179V43.0179H65.0728ZM68 38.4731L67.3394 39.2238L67.3438 39.2277L68 38.4731ZM82.1479 55.9887L81.5383 55.196L82.1479 55.9887ZM68 67.499L68.6568 68.253L68 67.499ZM65.0728 62.9949H66.0728V61.9949L65.0728 61.9949L65.0728 62.9949ZM47.9029 62.9949L47.9029 61.9949H47.9029V62.9949ZM44 46.9806L43 46.9766V46.9806H44ZM47.9029 44.0179L65.0728 44.0179L65.0728 42.0179L47.9029 42.0179L47.9029 44.0179ZM66.0728 43.0179V39.6531H64.0728V43.0179H66.0728ZM66.0728 39.6531C66.0728 39.4282 66.1331 39.301 66.1874 39.228C66.2452 39.1502 66.3344 39.0829 66.4616 39.0409C66.7384 38.9496 67.097 39.0105 67.3394 39.2238L68.6606 37.7224C67.8679 37.0248 66.7629 36.8354 65.8349 37.1417C64.8429 37.469 64.0728 38.3603 64.0728 39.6531H66.0728ZM67.3438 39.2277C71.0666 42.4649 79.5873 49.2757 82.0014 51.2568L83.2701 49.7108C80.8056 47.6883 72.3518 40.932 68.6562 37.7185L67.3438 39.2277ZM82.0014 51.2568C82.2924 51.4957 82.6065 52.146 82.5814 53.0202C82.5576 53.8496 82.2279 54.6657 81.5383 55.196L82.7575 56.7815C84.0193 55.8111 84.5434 54.3752 84.5806 53.0775C84.6165 51.8246 84.1988 50.4729 83.2701 49.7108L82.0014 51.2568ZM81.5383 55.196C77.5211 58.2853 71.2656 63.3285 67.3432 66.7449L68.6568 68.253C72.5402 64.8706 78.7624 59.8537 82.7575 56.7815L81.5383 55.196ZM67.3432 66.7449C67.0582 66.9932 66.6864 67.0464 66.4175 66.9641C66.29 66.925 66.2082 66.863 66.1607 66.8027C66.1184 66.7492 66.0728 66.6602 66.0728 66.4981H64.0728C64.0728 67.7395 64.8681 68.5812 65.8318 68.8764C66.752 69.1582 67.8438 68.9612 68.6568 68.253L67.3432 66.7449ZM66.0728 66.4981V62.9949H64.0728V66.4981H66.0728ZM65.0728 61.9949L47.9029 61.9949L47.9029 63.9949L65.0728 63.9949L65.0728 61.9949ZM47.9029 61.9949C46.8812 61.9949 46.187 61.6743 45.7447 61.2098C45.2958 60.7383 45 60.0065 45 58.9913H43C43 60.3928 43.4144 61.6628 44.2963 62.589C45.1849 63.5221 46.4422 63.9949 47.9029 63.9949V61.9949ZM45 58.9913V46.9806H43V58.9913H45ZM45 46.9845C45.004 45.9672 45.2999 45.2474 45.7439 44.7872C46.1822 44.3328 46.874 44.0179 47.9029 44.0179V42.0179C46.4494 42.0179 45.1946 42.4759 44.3044 43.3987C43.4199 44.3157 43.0056 45.5773 43 46.9766L45 46.9845Z" fill="#333333" mask="url(#path-6-inside-1_2_1594)"/>
<rect x="11" y="29" width="41" height="1" rx="0.5" fill="#333333"/>
<path d="M11 45.5C11 45.2239 11.2239 45 11.5 45H34.5C34.7761 45 35 45.2239 35 45.5C35 45.7761 34.7761 46 34.5 46H11.5C11.2239 46 11 45.7761 11 45.5Z" fill="#333333"/>
<path d="M11 69.5C11 69.2239 11.2239 69 11.5 69H50.5C50.7761 69 51 69.2239 51 69.5C51 69.7761 50.7761 70 50.5 70H11.5C11.2239 70 11 69.7761 11 69.5Z" fill="#333333"/>
<rect x="11" y="37" width="41" height="1" rx="0.5" fill="#333333"/>
<path d="M11 53.5C11 53.2239 11.2239 53 11.5 53H34.5C34.7761 53 35 53.2239 35 53.5C35 53.7761 34.7761 54 34.5 54H11.5C11.2239 54 11 53.7761 11 53.5Z" fill="#333333"/>
<path d="M11 61.5C11 61.2239 11.2239 61 11.5 61H34.5C34.7761 61 35 61.2239 35 61.5C35 61.7761 34.7761 62 34.5 62H11.5C11.2239 62 11 61.7761 11 61.5Z" fill="#333333"/>
<defs>
<linearGradient id="paint0_linear_2_1594" x1="6.85412" y1="11.6335" x2="12.7449" y2="18.1263" gradientUnits="userSpaceOnUse">
<stop stop-color="#FFC671"/>
<stop offset="1" stop-color="#FF6F3D"/>
</linearGradient>
<linearGradient id="paint1_linear_2_1594" x1="22.4996" y1="15.8828" x2="23.0721" y2="21.8321" gradientUnits="userSpaceOnUse">
<stop stop-color="#FF8E3D"/>
<stop offset="1" stop-color="#FF6F3D"/>
</linearGradient>
</defs>
</svg>
