<svg width="32" height="808" viewBox="0 0 32 808" fill="none" xmlns="http://www.w3.org/2000/svg">
<rect x="0.5" y="783.5" width="21" height="21" rx="1.5" fill="#576996" stroke="#2A385C"/>
<rect x="0.5" y="498.5" width="9" height="18" rx="1.5" fill="#E8E8E8" stroke="#A4A4A4"/>
<path d="M15 4H5C4.73478 4 4.48043 4.10145 4.29289 4.28204C4.10536 4.46263 4 4.70757 4 4.96296V14.5926C4 14.8479 4.10536 15.0929 4.29289 15.2735C4.48043 15.4541 4.73478 15.5555 5 15.5555H15C15.2652 15.5555 15.5196 15.4541 15.7071 15.2735C15.8946 15.0929 16 14.8479 16 14.5926V4.96296C16 4.70757 15.8946 4.46263 15.7071 4.28204C15.5196 4.10145 15.2652 4 15 4ZM14 13.6296H6V6.88888H14V13.6296Z" fill="#BDBDBD"/>
<path d="M8 7.85184H7V8.8148H8V7.85184Z" fill="#BDBDBD"/>
<path d="M8 9.77776H7V10.7407H8V9.77776Z" fill="#BDBDBD"/>
<path d="M8 11.7037H7V12.6666H8V11.7037Z" fill="#BDBDBD"/>
<path d="M13 11.7037H9V12.6666H13V11.7037Z" fill="#BDBDBD"/>
<path d="M12 9.77776H9V10.7407H12V9.77776Z" fill="#BDBDBD"/>
<path d="M13 7.85184H9V8.8148H13V7.85184Z" fill="#BDBDBD"/>
<path d="M9 23C7.81331 23 6.65328 23.3389 5.66658 23.9737C4.67989 24.6086 3.91085 25.511 3.45673 26.5667C3.0026 27.6225 2.88378 28.7842 3.11529 29.9049C3.3468 31.0257 3.91825 32.0552 4.75736 32.8632C5.59648 33.6713 6.66558 34.2216 7.82946 34.4445C8.99335 34.6674 10.1997 34.553 11.2961 34.1157C12.3925 33.6784 13.3295 32.9379 13.9888 31.9877C14.6481 31.0376 15 29.9205 15 28.7778C15 27.2454 14.3679 25.7758 13.2426 24.6923C12.1174 23.6087 10.5913 23 9 23V23ZM12.8 31.2429L11.56 32.437L9 29.9718L6.43 32.437L5.19 31.2429L7.75 28.7778L5.19 26.3126L6.43 25.1185L9 27.5837L11.56 25.1185L12.8 26.3126L10.23 28.7778L12.8 31.2429Z" fill="#BDBDBD"/>
<path d="M7.97 55.5429L2 49.7941L3.94 47.9259L7.97 51.8066L14 46L15.94 47.8681L7.97 55.5429Z" fill="#BDBDBD"/>
<path d="M7.97 73.5429L2 67.7941L3.94 65.9259L7.97 69.8066L14 64L15.94 65.8681L7.97 73.5429Z" fill="#BDBDBD"/>
<path d="M1 83V95H13V83H1ZM12 94H2V84H12V94Z" fill="#BDBDBD"/>
<path d="M7 86V85H4L3 86V93H11V88H10V87H9V86H7ZM6 92H4V91H6V92ZM6 90H4V89H6V90ZM6 88H4V87H6V88Z" fill="#BDBDBD"/>
<path fill-rule="evenodd" clip-rule="evenodd" d="M11.1667 166.231C11.1667 165.109 10.7277 164.033 9.94625 163.239C9.16492 162.446 8.10507 162 7 162C5.89493 162 4.83512 162.446 4.05372 163.239C3.27232 164.033 2.83333 165.109 2.83333 166.231C2.61232 166.231 2.40036 166.32 2.24408 166.479C2.0878 166.637 2 166.853 2 167.077V172.154C2 172.378 2.0878 172.594 2.24408 172.752C2.40036 172.911 2.61232 173 2.83333 173H11.1667C11.3877 173 11.5997 172.911 11.7559 172.752C11.9122 172.594 12 172.378 12 172.154V167.077C12 166.853 11.9122 166.637 11.7559 166.479C11.5997 166.32 11.3877 166.231 11.1667 166.231ZM7.83333 171.308H6.16667V168.769C6.16667 168.545 6.25447 168.33 6.41074 168.171C6.56702 168.012 6.77898 167.923 7 167.923C7.22102 167.923 7.43298 168.012 7.58926 168.171C7.74553 168.33 7.83333 168.545 7.83333 168.769V171.308ZM4.5 166.231C4.5 165.558 4.76339 164.912 5.23223 164.436C5.70108 163.96 6.33696 163.692 7 163.692C7.66304 163.692 8.29892 163.96 8.76775 164.436C9.23658 164.912 9.5 165.558 9.5 166.231H4.5Z" fill="#FF9900"/>
<path fill-rule="evenodd" clip-rule="evenodd" d="M22.1667 200.231C22.1667 199.109 21.7277 198.033 20.9462 197.239C20.1649 196.446 19.1051 196 18 196C16.8949 196 15.8351 196.446 15.0537 197.239C14.2723 198.033 13.8333 199.109 13.8333 200.231C13.6123 200.231 13.4004 200.32 13.2441 200.479C13.0878 200.637 13 200.853 13 201.077V206.154C13 206.378 13.0878 206.594 13.2441 206.752C13.4004 206.911 13.6123 207 13.8333 207H22.1667C22.3877 207 22.5997 206.911 22.7559 206.752C22.9122 206.594 23 206.378 23 206.154V201.077C23 200.853 22.9122 200.637 22.7559 200.479C22.5997 200.32 22.3877 200.231 22.1667 200.231ZM18.8333 205.308H17.1667V202.769C17.1667 202.545 17.2545 202.33 17.4107 202.171C17.567 202.012 17.779 201.923 18 201.923C18.221 201.923 18.433 202.012 18.5893 202.171C18.7455 202.33 18.8333 202.545 18.8333 202.769V205.308ZM15.5 200.231C15.5 199.558 15.7634 198.912 16.2322 198.436C16.7011 197.96 17.337 197.692 18 197.692C18.663 197.692 19.2989 197.96 19.7677 198.436C20.2366 198.912 20.5 199.558 20.5 200.231H15.5Z" fill="#FF9900"/>
<path fill-rule="evenodd" clip-rule="evenodd" d="M10 225V221H7V225H3V228H7V232H10V228H14V225H10Z" fill="#BDBDBD"/>
<path d="M12 242L4 250V253H7L15 245L12 242ZM7 252H5V250H7V252Z" fill="#BDBDBD"/>
<path fill-rule="evenodd" clip-rule="evenodd" d="M7 265H10V266H14V267H3V266H7V265ZM13 268H4V276C4 276.552 4.44772 277 5 277H12C12.5523 277 13 276.552 13 276V268ZM5.75 269H5.25V276H5.75V269ZM7.25 269H7.75V276H7.25V269ZM9.75 269H9.25V276H9.75V269ZM11.25 269H11.75V276H11.25V269Z" fill="#BDBDBD"/>
<path d="M9 289L1 297V300H4L12 292L9 289ZM4 299H2V297H4V299Z" fill="#BDBDBD"/>
<path d="M15 313H1C0.734784 313 0.48043 313.105 0.292893 313.293C0.105357 313.48 0 313.735 0 314L0 328C0 328.265 0.105357 328.52 0.292893 328.707C0.48043 328.895 0.734784 329 1 329H15C15.2652 329 15.5196 328.895 15.7071 328.707C15.8946 328.52 16 328.265 16 328V314C16 313.735 15.8946 313.48 15.7071 313.293C15.5196 313.105 15.2652 313 15 313V313ZM2 327V324C2.79565 324 3.55871 324.316 4.12132 324.879C4.68393 325.441 5 326.204 5 327H2ZM7 327C7 326.343 6.87067 325.693 6.6194 325.087C6.36812 324.48 5.99983 323.929 5.53553 323.464C5.07124 323 4.52005 322.632 3.91342 322.381C3.30679 322.129 2.65661 322 2 322V320C3.85652 320 5.63699 320.737 6.94975 322.05C8.2625 323.363 9 325.143 9 327H7ZM11 327C11 324.613 10.0518 322.324 8.36396 320.636C6.67613 318.948 4.38695 318 2 318V316C3.44454 316 4.87494 316.285 6.20952 316.837C7.5441 317.39 8.75673 318.2 9.77817 319.222C10.7996 320.243 11.6099 321.456 12.1627 322.79C12.7155 324.125 13 325.555 13 327H11Z" fill="#E36E47"/>
<path d="M15 329H1C0.734784 329 0.48043 329.105 0.292893 329.293C0.105357 329.48 0 329.735 0 330L0 344C0 344.265 0.105357 344.52 0.292893 344.707C0.48043 344.895 0.734784 345 1 345H15C15.2652 345 15.5196 344.895 15.7071 344.707C15.8946 344.52 16 344.265 16 344V330C16 329.735 15.8946 329.48 15.7071 329.293C15.5196 329.105 15.2652 329 15 329V329ZM2 343V340C2.79565 340 3.55871 340.316 4.12132 340.879C4.68393 341.441 5 342.204 5 343H2ZM7 343C7 342.343 6.87067 341.693 6.6194 341.087C6.36812 340.48 5.99983 339.929 5.53553 339.464C5.07124 339 4.52005 338.632 3.91342 338.381C3.30679 338.129 2.65661 338 2 338V336C3.85652 336 5.63699 336.737 6.94975 338.05C8.2625 339.363 9 341.143 9 343H7ZM11 343C11 340.613 10.0518 338.324 8.36396 336.636C6.67613 334.948 4.38695 334 2 334V332C3.44454 332 4.87494 332.285 6.20952 332.837C7.5441 333.39 8.75673 334.2 9.77817 335.222C10.7996 336.243 11.6099 337.456 12.1627 338.79C12.7155 340.125 13 341.555 13 343H11Z" fill="#CECECE"/>
<path d="M6.97 363.543L1 357.794L2.94 355.926L6.97 359.807L13 354L14.94 355.868L6.97 363.543Z" fill="#BDBDBD"/>
<path d="M6.97 381.543L1 375.794L2.94 373.926L6.97 377.807L13 372L14.94 373.868L6.97 381.543Z" fill="#7CA52F"/>
<path d="M13.8039 402.653L10.8697 399.709C11.5707 398.703 11.8699 397.469 11.7079 396.252C11.546 395.035 10.9347 393.923 9.99533 393.137C9.05593 392.352 7.85698 391.949 6.63615 392.01C5.41531 392.07 4.26172 392.59 3.40406 393.464C2.54639 394.339 2.04727 395.506 2.00563 396.733C1.964 397.961 2.38288 399.159 3.17926 400.09C3.97563 401.022 5.09136 401.619 6.30525 401.763C7.51914 401.907 8.74258 401.588 9.73305 400.868L12.6592 403.804C12.8146 403.938 13.0146 404.008 13.219 404C13.4235 403.992 13.6173 403.907 13.7619 403.761C13.9065 403.616 13.9912 403.421 13.9989 403.215C14.0067 403.01 13.9371 402.809 13.8039 402.653V402.653ZM6.88945 400.16C6.24679 400.16 5.61845 399.969 5.08389 399.61C4.54933 399.252 4.13256 398.742 3.88628 398.146C3.64 397.55 3.57528 396.893 3.70029 396.26C3.82531 395.627 4.13445 395.045 4.58862 394.588C5.04279 394.131 5.62159 393.82 6.25183 393.694C6.88207 393.568 7.53545 393.632 8.12933 393.879C8.72322 394.126 9.23094 394.544 9.58829 395.08C9.94564 395.617 10.1366 396.248 10.1369 396.894C10.1374 397.759 9.79557 398.59 9.18655 399.202C8.57753 399.815 7.75123 400.159 6.88945 400.16V400.16Z" fill="#BDBDBD"/>
<path d="M12.9954 417.392C12.5195 417.104 11.9539 417.016 11.4164 417.146C10.879 417.277 10.4112 417.615 10.1105 418.092L5.98935 424.812L6.8754 425.395L10.9966 418.664C11.0673 418.542 11.1612 418.435 11.2727 418.351C11.3842 418.267 11.5111 418.207 11.6457 418.174C11.7803 418.142 11.9199 418.137 12.0562 418.161C12.1925 418.185 12.3227 418.237 12.439 418.314C12.5605 418.387 12.6661 418.485 12.7494 418.602C12.8327 418.719 12.8918 418.852 12.9232 418.993C12.9883 419.263 12.9476 419.548 12.8099 419.788L8.06024 426.847C7.7457 427.323 7.2648 427.656 6.71762 427.777C6.17045 427.897 5.59914 427.796 5.12261 427.494C4.64607 427.192 4.30101 426.713 4.15924 426.156C4.01747 425.599 4.08991 425.008 4.36148 424.504L8.67842 417.594L7.79237 417L3.47543 423.921C3.14232 424.483 2.97776 425.133 3.00241 425.79C3.02706 426.447 3.23982 427.082 3.61399 427.615C3.98815 428.149 4.50706 428.556 5.10561 428.787C5.70416 429.018 6.35568 429.062 6.97843 428.914C7.38081 428.818 7.76082 428.641 8.09671 428.393C8.43261 428.146 8.71781 427.833 8.93599 427.472L13.6857 420.413C13.9798 419.921 14.0723 419.329 13.9429 418.766C13.8135 418.204 13.4728 417.718 12.9954 417.413V417.392Z" fill="#BDBDBD"/>
<path d="M7.5 441L1 447.24H3V453H12V447.24H14L7.5 441ZM9 450.12H6V447.24H9V450.12Z" fill="#BDBDBD"/>
<path fill-rule="evenodd" clip-rule="evenodd" d="M3 470C3 470.552 3.44772 471 4 471H12C12.5523 471 13 470.552 13 470V468.193C13 468.065 12.9757 467.939 12.9285 467.821L11.2514 463.629C11.0996 463.249 10.7319 463 10.323 463H10V462H9V463H7V462H6V463H5.67703C5.26813 463 4.90042 463.249 4.74856 463.629L3.07152 467.821C3.02428 467.939 3 468.065 3 468.193V470ZM6.5 466C6.77614 466 7 465.776 7 465.5C7 465.224 6.77614 465 6.5 465C6.22386 465 6 465.224 6 465.5C6 465.776 6.22386 466 6.5 466ZM8 466C8.27614 466 8.5 465.776 8.5 465.5C8.5 465.224 8.27614 465 8 465C7.72386 465 7.5 465.224 7.5 465.5C7.5 465.776 7.72386 466 8 466ZM10 465.5C10 465.776 9.77614 466 9.5 466C9.22386 466 9 465.776 9 465.5C9 465.224 9.22386 465 9.5 465C9.77614 465 10 465.224 10 465.5ZM6.5 467.5C6.77614 467.5 7 467.276 7 467C7 466.724 6.77614 466.5 6.5 466.5C6.22386 466.5 6 466.724 6 467C6 467.276 6.22386 467.5 6.5 467.5ZM8.5 467C8.5 467.276 8.27614 467.5 8 467.5C7.72386 467.5 7.5 467.276 7.5 467C7.5 466.724 7.72386 466.5 8 466.5C8.27614 466.5 8.5 466.724 8.5 467ZM9.5 467.5C9.77614 467.5 10 467.276 10 467C10 466.724 9.77614 466.5 9.5 466.5C9.22386 466.5 9 466.724 9 467C9 467.276 9.22386 467.5 9.5 467.5ZM7 468.5C7 468.776 6.77614 469 6.5 469C6.22386 469 6 468.776 6 468.5C6 468.224 6.22386 468 6.5 468C6.77614 468 7 468.224 7 468.5ZM8 469C8.27614 469 8.5 468.776 8.5 468.5C8.5 468.224 8.27614 468 8 468C7.72386 468 7.5 468.224 7.5 468.5C7.5 468.776 7.72386 469 8 469ZM10 468.5C10 468.776 9.77614 469 9.5 469C9.22386 469 9 468.776 9 468.5C9 468.224 9.22386 468 9.5 468C9.77614 468 10 468.224 10 468.5Z" fill="#BDBDBD"/>
<path d="M8 460C5 460 5 462 5 462C5 462 5 462 5 462V462C5 462.552 4.55228 463 4 463H3C2.44772 463 2 462.552 2 462V461.236C2 461.081 2.03585 460.927 2.13269 460.806C2.53352 460.304 3.96291 459 8 459C12.0371 459 13.4665 460.304 13.8673 460.806C13.9642 460.927 14 461.081 14 461.236V462C14 462.552 13.5523 463 13 463H12C11.4477 463 11 462.552 11 462V462C11 462 11 462 11 462C11 462 11 460 8 460Z" fill="#BDBDBD"/>
<path fill-rule="evenodd" clip-rule="evenodd" d="M0.0611173 479.655C0.0215831 479.763 0 479.879 0 480V488C0 488.126 0.0232236 488.246 0.0656168 488.357C0.0935626 488.313 0.130323 488.274 0.175682 488.239L4.70628 484.664C4.87159 484.533 5.10451 484.532 5.27102 484.661C5.50656 484.844 5.50838 485.199 5.27472 485.384L0.807903 488.916C0.783578 488.934 0.757851 488.95 0.731113 488.963C0.816669 488.987 0.906847 489 1 489H13C13.0932 489 13.1833 488.987 13.2689 488.963C13.2421 488.95 13.2164 488.934 13.1921 488.916L8.72492 485.383C8.49145 485.199 8.49327 484.844 8.72862 484.662C8.89499 484.533 9.1277 484.534 9.29288 484.664L13.8243 488.239C13.8697 488.274 13.9064 488.313 13.9344 488.357C13.9768 488.246 14 488.126 14 488V480C14 479.879 13.9784 479.763 13.9389 479.655C13.9104 479.701 13.8722 479.744 13.8243 479.78L7.31451 484.916C7.1169 485.065 6.82716 485.05 6.64898 484.888L0.175682 479.78C0.127846 479.744 0.0895733 479.701 0.0611173 479.655ZM0.705913 479.044C0.741738 479.06 0.77602 479.079 0.807903 479.103L7 484L13.1921 479.103C13.224 479.079 13.2583 479.06 13.2941 479.044C13.2011 479.015 13.1023 479 13 479H1C0.897652 479 0.798895 479.015 0.705913 479.044Z" fill="#BDBDBD"/>
<rect x="3" y="505" width="1" height="5.77776" fill="#F3F3F3"/>
<rect x="5" y="505" width="1" height="5.77776" fill="#F3F3F3"/>
<rect x="4" y="505" width="1" height="5.77776" fill="#B3B3B3"/>
<rect x="6" y="505" width="1" height="5.77776" fill="#C1C1C1"/>
<path d="M13 528.5L7 523V526H3V531H7V534L13 528.5Z" fill="#BDBDBD"/>
<path d="M7.97 551.543L2 545.794L3.94 543.926L7.97 547.807L14 542L15.94 543.868L7.97 551.543Z" fill="#BDBDBD"/>
<path fill-rule="evenodd" clip-rule="evenodd" d="M6 605H9V606H13V607H2V606H6V605ZM12 608H3V616C3 616.552 3.44772 617 4 617H11C11.5523 617 12 616.552 12 616V608ZM4.75 609H4.25V616H4.75V609ZM6.25 609H6.75V616H6.25V609ZM8.75 609H8.25V616H8.75V609ZM10.25 609H10.75V616H10.25V609Z" fill="#BDBDBD"/>
<path d="M19.5 639.852L16 636H23L19.5 639.852Z" fill="#BDBDBD"/>
<path d="M5 668.423H10.463V679V679.5H10.963H22.037H22.537V679V668.423H28H29.1143L28.3735 667.591L16.8735 654.668L16.5 654.248L16.1265 654.668L4.62648 667.591L3.88575 668.423H5Z" fill="url(#paint0_linear_131_683)" stroke="#2294AF"/>
<path d="M6 685V682H26V685H6Z" fill="url(#paint1_radial_131_683)"/>
<path d="M0 706V698H32V706H0Z" fill="url(#paint2_linear_131_683)"/>
<path d="M8 720C6.81331 720 5.65328 720.352 4.66658 721.011C3.67989 721.67 2.91085 722.608 2.45673 723.704C2.0026 724.8 1.88378 726.007 2.11529 727.171C2.3468 728.334 2.91825 729.404 3.75736 730.243C4.59648 731.082 5.66557 731.653 6.82946 731.885C7.99335 732.116 9.19975 731.997 10.2961 731.543C11.3925 731.089 12.3295 730.32 12.9888 729.333C13.6481 728.347 14 727.187 14 726C14 724.409 13.3679 722.883 12.2426 721.757C11.1174 720.632 9.5913 720 8 720V720ZM11.8 728.56L10.56 729.8L8 727.24L5.43 729.8L4.19 728.56L6.75 726L4.19 723.44L5.43 722.2L8 724.76L10.56 722.2L11.8 723.44L9.23 726L11.8 728.56Z" fill="#BDBDBD"/>
<path d="M8 757C5.14648 757 2.69177 755.537 1.60175 753.437L3.42981 752.741C4.20844 754.24 5.96179 755.286 8 755.286C9.39691 755.286 10.66 754.795 11.5673 754.003L9.5 752.714L15 751V756.143L13.1974 755.019C11.9164 756.236 10.0623 757 8 757Z" fill="#BDBDBD"/>
<path d="M14.3983 748.563C13.3082 746.463 10.8535 745 8 745C5.93768 745 4.08362 745.764 2.80255 746.981L1 745.857V751L6.5 749.286L4.43274 747.997C5.33997 747.205 6.60309 746.714 8 746.714C10.0382 746.714 11.7916 747.76 12.5702 749.259L14.3983 748.563Z" fill="#BDBDBD"/>
<path fill-rule="evenodd" clip-rule="evenodd" d="M17 791.273V788C13.8174 788 10.7652 789.264 8.51472 791.515C6.26428 793.765 5 796.817 5 800H8.27273C8.27273 797.685 9.19221 795.466 10.8289 793.829C12.4656 792.192 14.6854 791.273 17 791.273Z" fill="white"/>
<path fill-rule="evenodd" clip-rule="evenodd" d="M17 793.455C15.264 793.455 13.5992 794.144 12.3717 795.372C11.1442 796.599 10.4545 798.264 10.4545 800H17V793.455Z" fill="white"/>
<rect x="0.5" y="768.5" width="11" height="11" rx="1.5" fill="#576996" stroke="#2A385C"/>
<path fill-rule="evenodd" clip-rule="evenodd" d="M9 772.636V771C7.4087 771 5.88258 771.632 4.75736 772.757C3.63214 773.883 3 775.409 3 777H4.63636C4.63636 775.843 5.0961 774.733 5.91444 773.914C6.73278 773.096 7.84269 772.636 9 772.636Z" fill="white"/>
<path fill-rule="evenodd" clip-rule="evenodd" d="M9 773.727C8.13202 773.727 7.29959 774.072 6.68583 774.686C6.07208 775.3 5.72727 776.132 5.72727 777H9V773.727Z" fill="white"/>
<defs>
<linearGradient id="paint0_linear_131_683" x1="16.5" y1="655" x2="16.5" y2="679" gradientUnits="userSpaceOnUse">
<stop stop-color="#94D0DF"/>
<stop offset="1" stop-color="#0886A5"/>
</linearGradient>
<radialGradient id="paint1_radial_131_683" cx="0" cy="0" r="1" gradientUnits="userSpaceOnUse" gradientTransform="translate(16 683.5) rotate(90) scale(1.5 10)">
<stop stop-color="#DEDEDE" stop-opacity="0.9"/>
<stop offset="1" stop-color="#F3F3F3" stop-opacity="0"/>
</radialGradient>
<linearGradient id="paint2_linear_131_683" x1="16" y1="698" x2="16" y2="706" gradientUnits="userSpaceOnUse">
<stop stop-color="#D9D9D9"/>
<stop offset="0.0001" stop-color="#134962" stop-opacity="0.96875"/>
<stop offset="1" stop-color="#32789A"/>
</linearGradient>
</defs>
</svg>
