<svg width="150" height="150" viewBox="0 0 150 150" fill="none" xmlns="http://www.w3.org/2000/svg">
<path fill-rule="evenodd" clip-rule="evenodd" d="M21 80.5367C21.1364 80.6276 21.2729 80.7186 21.3183 80.764C22.7735 81.7186 28.2306 85.3095 34.5062 89.4913L63.5195 108.082C66.2807 109.462 69.3431 112 72.5237 112C74.2745 112 76.4427 110.854 76.4427 108.219C77.807 109.082 80.7654 110.602 82.6123 110.264C85.3408 109.764 86.4846 107.719 86.6211 105.764C86.712 104.809 85.8485 103.673 84.9845 102.446C86.9854 103.946 89.0962 105.721 91.0777 105.855C95.0198 106.121 96.853 103.855 97.1714 101.264C97.3078 100.082 96.1709 98.3095 95.3069 96.9913C96.3528 97.9458 98.0436 99.5822 99.8544 99.5822C103.753 99.5822 108.176 95.4458 107.995 92.7186C107.858 90.5367 102.719 78.7273 99.0359 74.5C96.4959 71.9612 86.0299 50.5 86.0299 50.5C86.5301 50.0455 88.3946 47.3095 88.5765 46.9004C89.9408 44.2186 88.9403 39.9004 86.4846 38.1731C79.2086 37.1559 70.8411 36 63.0193 36C57.7666 36.3243 40.9643 43.9458 34.9615 49.4458C33.8435 65.9316 24.9249 75.9925 21 80.5367Z" fill="#FEFEFE"/>
<path d="M76.5255 96.057C80.5274 99.5603 86.7046 103.564 86.5301 106.067C86.3937 108.023 85.3408 109.834 82.6123 110.335C80.7654 110.673 77.3896 109.433 76.0253 108.569C77.0257 110.571 74.5652 112.236 72.7965 111.972C69.6159 111.972 66.2807 109.532 63.5195 108.151C63.5195 108.151 27.725 85.013 21.3183 80.8066C21.2729 80.7611 21.1364 80.6701 21 80.5791C24.9249 76.0305 33.8435 65.9601 34.9615 49.4586C40.9643 43.9534 57.7666 36.3246 63.0193 36C70.8411 36 79.2086 37.157 86.4846 38.1752C88.9403 39.9041 89.9408 44.2264 88.5765 46.9107C88.3946 47.3202 86.5301 50.0588 86.0299 50.5138C86.0299 50.5138 96.4959 71.9954 99.0359 74.5366C102.719 78.7679 107.858 90.5886 107.995 92.7725C108.176 95.5023 103.753 99.6426 99.8544 99.6426C98.0436 99.6426 96.3528 98.0047 95.3069 97.0492" stroke="#333333" stroke-linecap="round" stroke-linejoin="round"/>
<path fill-rule="evenodd" clip-rule="evenodd" d="M127.494 78.7399C122.19 72.4209 117.205 63.2171 114.938 54.7001C114.621 53.5096 114.032 51.449 113.941 50.1211C104.876 50.0753 95.2214 48.4269 86.2468 47.2363C81.0796 46.5495 76.1391 46 71.6971 46C69.6574 46.1374 53.3853 58.4549 53.0681 59.7828C52.5241 60.1492 45 76.8168 45 78.4194C48.3088 82.8153 53.7026 82.6779 56.7848 79.1978C59.731 75.901 63.7197 69.6277 65.4874 65.5982C67.1645 65.8729 75.1419 66.3766 78.4507 66.3766C79.2213 66.4224 89.5789 74.7438 92.973 77.8334C95.3474 79.9948 99.4547 84.8851 100.95 86.8998C101.597 87.7704 103.761 90.9098 103.942 90.9294C109.018 91.4789 119.154 88.768 126.043 84.6927C126.089 84.6927 129.216 83.3647 129.987 81.8537C130.213 81.6705 127.494 78.7399 127.494 78.7399Z" fill="#EFEFEF"/>
<path d="M97.5509 83C87.5791 71.4555 79.2213 66.4639 78.4507 66.418C75.1419 66.418 67.1645 65.9133 65.4874 65.638C63.7197 69.6758 59.731 75.9618 56.7848 79.2654C53.7026 82.7525 48.3088 82.8901 45 78.4853C45 76.8794 52.5241 60.1779 53.0681 59.8109C53.3853 58.4802 69.6574 46.1376 71.6971 46C76.1391 46 81.0796 46.5506 86.2468 47.2388C95.2214 48.4318 104.876 50.0836 113.941 50.1295C114.032 51.4601 114.621 53.5249 114.938 54.7178C117.205 63.2521 122.19 72.4746 127.494 78.8065C127.494 78.8065 130.213 81.7431 129.987 81.9266" stroke="#333333"/>
<path fill-rule="evenodd" clip-rule="evenodd" d="M114.04 54.4735C116.664 64.2554 122.816 74.8143 128.877 81.0308C129.013 81.168 129.148 81.3051 129.284 81.3965C131.591 83.5449 132.858 83.3163 135.436 81.9908L143.035 78.0597C145.297 76.917 145.885 76.0485 143.307 73.0774C138.467 66.9066 131.636 55.5249 127.882 45.5144C126.118 40.8064 125.394 41.812 122.997 42.9547L115.759 46.4286C113.814 47.2971 113 47.8456 113 49.3998C113 49.5369 113 49.674 113.045 49.8569C113.136 51.2282 113.724 53.2851 114.04 54.4735Z" fill="#BDECFF" stroke="#333333"/>
<path fill-rule="evenodd" clip-rule="evenodd" d="M20.1181 47.5306C16.3638 57.5323 9.57871 68.8584 4.69348 75.0695C2.11516 78.0381 2.7032 78.8601 4.96488 80.0475L12.5641 83.9752C15.2781 85.3909 16.5447 85.5736 19.123 83.0161C25.1843 76.805 31.3361 66.2552 33.9596 56.4819C34.3215 55.1574 35 52.7369 35 51.4125C35 49.8597 34.1858 49.3117 32.2408 48.444L25.0034 44.9731C22.606 43.7856 21.8823 42.8266 20.1181 47.5306Z" fill="#BDECFF" stroke="#333333"/>
<path fill-rule="evenodd" clip-rule="evenodd" d="M76.5 109.5L66.1053 102.647C65.6607 102.161 66.7362 101.77 67.2524 102.157L77.4973 108.887L76.5 109.5Z" fill="#333333"/>
<path fill-rule="evenodd" clip-rule="evenodd" d="M90.7237 94.4636L85.0574 89.9105C84.7137 89.3344 85.3346 88.733 85.7493 89.2018L91.6444 93.8442L90.7237 94.4636Z" fill="#333333"/>
<path fill-rule="evenodd" clip-rule="evenodd" d="M59.3428 94.3212L58.8428 93.9506C56.8428 92.4682 53.7974 92.7461 52.0701 94.5991L49.161 97.6566C47.4337 99.5096 47.661 102.196 49.661 103.679L50.161 104.049C52.161 105.532 55.2065 105.254 56.9337 103.401L59.8428 100.343C61.5701 98.4904 61.3428 95.7572 59.3428 94.3212Z" fill="#EFEFEF" stroke="#333333"/>
<path fill-rule="evenodd" clip-rule="evenodd" d="M51.4817 90.0937L51.0192 89.7737C49.1696 88.5396 46.3027 88.8139 44.6381 90.3679L42.1411 92.8362C40.4764 94.3902 40.6614 96.6756 42.511 97.9097L42.9734 98.2297C44.823 99.4638 47.6899 99.1896 49.3546 97.5898L51.8978 95.1673C53.5162 93.6132 53.3313 91.3278 51.4817 90.0937Z" fill="#EFEFEF" stroke="#333333"/>
<path fill-rule="evenodd" clip-rule="evenodd" d="M41.6311 88.0494L41.2285 87.7706C39.5735 86.5624 37.0686 86.7948 35.6373 88.3282L34.9664 89.0252C33.535 90.5121 33.7139 92.7425 35.3689 93.9506L35.7715 94.2294C37.4265 95.4376 39.9314 95.2052 41.3627 93.6718L42.0336 92.9748C43.465 91.4414 43.2861 89.211 41.6311 88.0494Z" fill="#EFEFEF" stroke="#333333"/>
<path fill-rule="evenodd" clip-rule="evenodd" d="M62.6468 103.039L62.2489 102.759C60.6129 101.546 58.0926 101.826 56.6335 103.318L55.9702 104.018C54.5553 105.557 54.688 107.749 56.3682 108.961L56.7661 109.241C58.4021 110.454 60.9224 110.174 62.3815 108.682L63.0447 107.982C64.4597 106.49 64.2828 104.251 62.6468 103.039Z" fill="#EFEFEF" stroke="#333333"/>
<path d="M18.5 78.5C18.5 76.8699 17.1853 75.5 15.5 75.5C13.8147 75.5 12.5 76.8699 12.5 78.5C12.5 80.1301 13.8147 81.5 15.5 81.5C17.1301 81.5 18.5 80.1853 18.5 78.5Z" fill="url(#paint0_linear_125_9892)" stroke="#333333"/>
<path d="M136.5 72.5C136.5 70.8699 135.185 69.5 133.5 69.5C131.815 69.5 130.5 70.8699 130.5 72.5C130.5 74.1301 131.815 75.5 133.5 75.5C135.13 75.5 136.5 74.1853 136.5 72.5Z" fill="url(#paint1_linear_125_9892)" stroke="#333333"/>
<path fill-rule="evenodd" clip-rule="evenodd" d="M143.441 117.975L119 117.975L119 123.975C119 126.095 116.338 127.91 114.747 126.503C106.749 119.399 98.3647 113.213 90.4656 106.007C88.5116 104.021 88.5113 100.92 90.4655 99.0863C98.1051 91.7591 108.187 83.863 114.746 78.436C116.338 77.0097 119 79.3593 119 81.4987L119 86.9631L143.441 86.9632C147.265 86.9632 150 90.3199 150 93.1662L150 111.773C150 114.976 147.265 117.975 143.441 117.975Z" fill="url(#paint2_linear_125_9892)"/>
<path fill-rule="evenodd" clip-rule="evenodd" d="M118 116.996L143.441 116.996C146.722 116.996 149 114.435 149 111.791L149 93.1737C149 92.0524 148.45 90.7412 147.437 89.6994C146.438 88.6707 145.048 87.9672 143.441 87.9672L118 87.9672L118 81.4997C118 80.8065 117.537 79.9519 116.853 79.417C116.155 78.8704 115.677 78.9434 115.414 79.1798L115.399 79.1929L115.384 79.2055C113.932 80.4078 112.313 81.7265 110.59 83.1299C104.491 88.098 97.0872 94.1286 91.1579 99.8186L91.1499 99.8263C89.6385 101.245 89.5914 103.687 91.1607 105.303C95.0812 108.88 99.1254 112.208 103.202 115.54C103.483 115.769 103.764 115.999 104.045 116.228C107.846 119.333 111.669 122.456 115.41 125.781C115.764 126.094 116.311 126.135 116.938 125.741C117.573 125.342 118 124.649 118 124L118 116.996ZM114.747 126.529C116.338 127.937 119 126.121 119 124L119 117.996L143.441 117.996C147.265 117.996 150 114.996 150 111.791L150 93.1737C150 90.3258 147.265 86.9672 143.441 86.9672L119 86.9672L119 81.4997C119 79.3591 116.338 77.0082 114.746 78.4352C113.306 79.6275 111.696 80.9389 109.979 82.3372C103.878 87.3073 96.4277 93.3755 90.4655 99.0971C88.5113 100.931 88.5116 104.034 90.4656 106.022C94.686 109.874 99.0449 113.435 103.409 117C107.214 120.108 111.022 123.219 114.747 126.529Z" fill="#333333"/>
<defs>
<linearGradient id="paint0_linear_125_9892" x1="13" y1="75.8047" x2="18" y2="81" gradientUnits="userSpaceOnUse">
<stop stop-color="#FF8E3D"/>
<stop offset="1" stop-color="#FF6F3D"/>
</linearGradient>
<linearGradient id="paint1_linear_125_9892" x1="131" y1="69.8047" x2="136" y2="75" gradientUnits="userSpaceOnUse">
<stop stop-color="#FF8E3D"/>
<stop offset="1" stop-color="#FF6F3D"/>
</linearGradient>
<linearGradient id="paint2_linear_125_9892" x1="86.6172" y1="127" x2="136.748" y2="66.9387" gradientUnits="userSpaceOnUse">
<stop stop-color="#FF8E3D"/>
<stop offset="1" stop-color="#FF6F3D"/>
</linearGradient>
</defs>
</svg>
