<svg width="150" height="150" viewBox="0 0 150 150" fill="none" xmlns="http://www.w3.org/2000/svg">
<path fill-rule="evenodd" clip-rule="evenodd" d="M25.0001 21.5126C25.0001 19.0002 28.6558 14.0002 33.4017 14.0002H115.593C117.808 14.0002 119.99 13.9141 121.551 15.4963C123.113 17.0785 124.008 19.2814 123.995 21.5126V140.391C124.072 142.6 123.242 144.807 121.731 146.41C120.22 148.013 118.075 148.963 115.881 149H33.4017C31.5 148.5 29.0616 147.582 27.5 146C25.9384 144.418 25.5 142.5 25.0001 140.488V21.5126Z" fill="#EFEFEF"/>
<path fill-rule="evenodd" clip-rule="evenodd" d="M33.9866 14C29.8209 13.9999 25.9745 17.498 26.0001 21.947L26.0001 21.9499L26.0001 140.05L26.0001 140.053C25.9941 141.094 26.196 142.126 26.5942 143.089C26.9925 144.053 27.5794 144.929 28.3213 145.668C29.0633 146.407 29.9458 146.993 30.9181 147.394C31.8904 147.794 32.9332 148 33.9866 148H116.296C117.336 147.982 118.363 147.759 119.316 147.345C120.27 146.93 121.13 146.331 121.847 145.583C122.564 144.835 123.123 143.954 123.492 142.991C123.861 142.027 124.032 141.001 123.995 139.972C123.995 139.966 123.995 139.96 123.995 139.954V21.9499L123.995 21.947C124.021 17.498 120.174 13.9999 116.008 14C115.732 14 115.508 13.7762 115.508 13.5C115.508 13.2239 115.732 13 116.008 13C120.69 12.9999 125.023 16.9113 124.995 21.9515L124.995 21.9528L124.995 139.945C125.035 141.106 124.841 142.263 124.426 143.348C124.009 144.437 123.378 145.432 122.569 146.275C121.76 147.119 120.789 147.794 119.714 148.262C118.64 148.729 117.481 148.98 116.308 149L116.299 149H33.9866C32.8028 149 31.6306 148.768 30.5374 148.318C29.4441 147.868 28.4511 147.208 27.6158 146.376C26.7804 145.545 26.1191 144.557 25.6701 143.471C25.2213 142.385 24.9936 141.222 25.0001 140.049V21.9514C24.9719 16.9112 29.3048 12.9999 33.9866 13C34.2627 13 34.4866 13.2239 34.4866 13.5C34.4866 13.7762 34.2627 14 33.9866 14Z" fill="#333333"/>
<path fill-rule="evenodd" clip-rule="evenodd" d="M39 32C39.0002 30 40.6112 28 43.0784 28H107.685C108.564 28 109.407 28.3811 110.029 29.0594C110.65 29.7378 110.999 30.6578 110.999 31.6171V118.361C111.008 118.838 110.927 119.312 110.761 119.753C110.594 120.193 110.347 120.592 110.033 120.924L95.9918 134.995C95.3558 135.645 94.5156 136.005 93.644 136H42.3145C41.4484 136.013 40.5903 135.637 39.9735 134.973C39.3567 134.309 38.9999 133.378 39 132.433L39 32Z" fill="white"/>
<path fill-rule="evenodd" clip-rule="evenodd" d="M42.8145 29C41.2251 29 40 30.4885 40 32.1171V132.933C39.9999 133.758 40.313 134.566 40.8398 135.133C41.3652 135.698 42.0895 136.011 42.8069 136L42.8145 136L93.6522 136L93.6552 136C94.3847 136.004 95.0967 135.703 95.6425 135.145C95.8356 134.948 96.1522 134.944 96.3496 135.137C96.547 135.331 96.5505 135.647 96.3575 135.844C95.6316 136.587 94.6637 137.005 93.6506 137C93.6501 137 93.6497 137 93.6492 137L42.8181 137C41.8045 137.014 40.8145 136.574 40.1073 135.813C39.4005 135.053 38.9999 133.998 39 132.933V32.1171C39 30.0702 40.5477 28 42.8145 28H108.185C110.452 28 111.999 30.0702 111.999 32.1171V87.1754C111.999 87.4515 111.775 87.6754 111.499 87.6754C111.223 87.6754 110.999 87.4515 110.999 87.1754V32.1171C110.999 30.4885 109.774 29 108.185 29H42.8145Z" fill="#333333"/>
<path fill-rule="evenodd" clip-rule="evenodd" d="M99.204 58.4071C100.087 59.0772 100.262 60.3394 99.5946 61.2262L75.3179 93.4816C74.692 94.3258 73.7282 94.9809 72.5089 94.9996C71.3397 95.0175 70.3453 94.4426 69.6027 93.7215C69.5583 93.6784 69.5159 93.6333 69.4757 93.5862L61.484 84.2447C60.7627 83.4016 60.8586 82.1309 61.6984 81.4066C62.5381 80.6823 63.8036 80.7787 64.5249 81.6218L72.342 90.7592L96.3964 58.7993C97.0638 57.9125 98.3208 57.7369 99.204 58.4071Z" fill="url(#paint0_linear_125_10178)"/>
<path fill-rule="evenodd" clip-rule="evenodd" d="M57.085 57H80.2023C80.479 57 80.7032 57.2241 80.7032 57.5006C80.7032 57.777 80.479 58.0011 80.2023 58.0011H57.0916C55.6649 58.0397 54.2744 58.6845 53.3255 59.7474C52.3753 60.8119 51.8943 62.2663 52.0227 63.6854C52.024 63.7004 52.0247 63.7155 52.0247 63.7305V99.3613C52.0036 100.846 52.6034 102.32 53.6562 103.37C54.7091 104.421 56.1875 105.019 57.6768 104.998L57.6839 104.998L86.6019 104.998C86.8785 104.998 87.1027 105.222 87.1027 105.499C87.1027 105.775 86.8785 105.999 86.6019 105.999H57.6874C55.9294 106.023 54.1921 105.319 52.9486 104.079C51.705 102.839 50.999 101.105 51.023 99.3507V63.7526C50.8768 62.0646 51.4486 60.3462 52.578 59.0809C53.7126 57.81 55.3671 57.0441 57.0721 57.0002L57.085 57ZM99.4996 80.7659C99.7762 80.7659 100 80.99 100 81.2665V94.2296C100 94.5061 99.7762 94.7302 99.4996 94.7302C99.223 94.7302 98.9988 94.5061 98.9988 94.2296V81.2665C98.9988 80.99 99.223 80.7659 99.4996 80.7659Z" fill="#333333"/>
<path fill-rule="evenodd" clip-rule="evenodd" d="M82.967 7.04056C82.967 3.15611 79.7947 0 75.8783 0C71.962 0 68.7897 3.14556 68.7897 7.04056H47.5443C45.5913 7.04056 44 8.61333 44 10.5556V15.485C44 17.4272 45.5913 19 47.5443 19H102.456C104.409 19 106 17.4272 106 15.485V10.5556C106 8.61333 104.409 7.04056 102.456 7.04056H82.967Z" fill="url(#paint1_linear_125_10178)"/>
<path fill-rule="evenodd" clip-rule="evenodd" d="M81.967 8.04056V7.04056C81.967 3.71432 79.2483 1 75.8783 1C72.5074 1 69.7897 3.70473 69.7897 7.04056V8.04056H47.5443C46.1348 8.04056 45 9.17443 45 10.5556V15.485C45 16.8661 46.1348 18 47.5443 18H102.456C103.865 18 105 16.8661 105 15.485V10.5556C105 9.17443 103.865 8.04056 102.456 8.04056H81.967ZM82.967 7.04056C82.967 3.15611 79.7947 0 75.8783 0C71.962 0 68.7897 3.14556 68.7897 7.04056H47.5443C45.5913 7.04056 44 8.61333 44 10.5556V15.485C44 17.4272 45.5913 19 47.5443 19H102.456C104.409 19 106 17.4272 106 15.485V10.5556C106 8.61333 104.409 7.04056 102.456 7.04056H82.967Z" fill="#333333"/>
<path fill-rule="evenodd" clip-rule="evenodd" d="M143.441 131.975L119 131.975L119 137.975C119 140.095 116.338 141.91 114.747 140.503C106.749 133.399 98.3647 127.213 90.4656 120.007C88.5116 118.021 88.5113 114.92 90.4655 113.086C98.1051 105.759 108.187 97.863 114.746 92.436C116.338 91.0097 119 93.3593 119 95.4987L119 100.963L143.441 100.963C147.265 100.963 150 104.32 150 107.166L150 125.773C150 128.976 147.265 131.975 143.441 131.975Z" fill="url(#paint2_linear_125_10178)"/>
<path fill-rule="evenodd" clip-rule="evenodd" d="M118 130.997L143.441 130.997C146.722 130.997 149 128.436 149 125.792L149 107.175C149 106.053 148.45 104.742 147.437 103.7C146.438 102.672 145.048 101.968 143.441 101.968L118 101.968L118 95.5006C118 94.8075 117.537 93.9528 116.853 93.4179C116.155 92.8713 115.677 92.9444 115.414 93.1807L115.399 93.1939L115.384 93.2065C113.932 94.4087 112.313 95.7274 110.59 97.1309C104.491 102.099 97.0872 108.13 91.1579 113.82L91.1499 113.827C89.6385 115.246 89.5914 117.688 91.1607 119.304C95.0812 122.881 99.1254 126.209 103.202 129.541C103.483 129.77 103.764 130 104.045 130.229C107.846 133.334 111.669 136.457 115.41 139.782C115.764 140.095 116.311 140.136 116.938 139.742C117.573 139.343 118 138.65 118 138.001L118 130.997ZM114.747 140.53C116.338 141.938 119 140.122 119 138.001L119 131.997L143.441 131.997C147.265 131.997 150 128.997 150 125.792L150 107.175C150 104.327 147.265 100.968 143.441 100.968L119 100.968L119 95.5006C119 93.3601 116.338 91.0092 114.746 92.4362C113.306 93.6285 111.696 94.9399 109.979 96.3382C103.878 101.308 96.4277 107.377 90.4655 113.098C88.5113 114.932 88.5116 118.035 90.4656 120.023C94.686 123.875 99.0449 127.436 103.409 131.001C107.214 134.109 111.022 137.22 114.747 140.53Z" fill="#333333"/>
<defs>
<linearGradient id="paint0_linear_125_10178" x1="61.0001" y1="56.5547" x2="97.8746" y2="96.9407" gradientUnits="userSpaceOnUse">
<stop stop-color="#FFC671"/>
<stop offset="0.59375" stop-color="#FF7541"/>
<stop offset="1" stop-color="#FF6F3D"/>
</linearGradient>
<linearGradient id="paint1_linear_125_10178" x1="49.7679" y1="-14.3163" x2="79.4831" y2="17.7252" gradientUnits="userSpaceOnUse">
<stop stop-color="#FFC671"/>
<stop offset="1" stop-color="#FF6F3D"/>
</linearGradient>
<linearGradient id="paint2_linear_125_10178" x1="86.6172" y1="141" x2="136.748" y2="80.9387" gradientUnits="userSpaceOnUse">
<stop stop-color="#FF8E3D"/>
<stop offset="1" stop-color="#FF6F3D"/>
</linearGradient>
</defs>
</svg>
