<svg width="150" height="150" viewBox="0 0 150 150" fill="none" xmlns="http://www.w3.org/2000/svg">
<g clip-path="url(#clip0_125_9840)">
<path fill-rule="evenodd" clip-rule="evenodd" d="M120.051 89.9362C112.5 84.6424 94.3562 76.6949 86.2486 76.6949C83.832 77.6743 68.4897 75.2583 55.8578 76.2393C44.9425 78.6263 26.8629 86.386 23.3181 89.9362C19.0738 94.1869 13.4148 109.301 12 124.431C45.0112 150.408 96.7497 138.622 103.802 136.478C112.786 133.612 121.955 129.341 130 124.431C128.539 112.607 124.767 93.2423 120.051 89.9362Z" fill="#FEFEFE"/>
<path fill-rule="evenodd" clip-rule="evenodd" d="M82 140.353C80.8838 126.66 82 109.66 76.328 95.6423L79.2225 89.2114C75.5849 84.0571 73.6164 80.3473 72.1285 80.0248C70.4043 79.6511 68.314 83.6708 64.5 88.9998L67.6774 95.451C63.3978 108.821 62 126.56 62 140.833C68.6617 140.959 74.54 141.308 82 140.353Z" fill="url(#paint0_linear_125_9840)"/>
<path fill-rule="evenodd" clip-rule="evenodd" d="M61 141C61 114.981 65.0106 99.2587 67.171 94.5847V94.5847C67.6713 94.8261 67.8862 95.4218 67.6829 95.9387C65.5395 101.389 61.9971 116.594 61.9971 141H61ZM76.4145 94C77.3165 95.988 78.0591 99.2899 78.6837 101.79L78.6862 101.8L78.6883 101.81C81.3421 114.557 82 127.538 82 140.514H81.0029C81.0029 127.572 80.3462 114.675 77.7151 102.032C77.1916 99.938 76.5887 97.2789 75.885 95.3556C75.6942 94.834 75.9125 94.2377 76.4145 94V94Z" fill="#333333"/>
<path d="M89.8444 139.408C70.3014 142.248 36.1643 143.343 12 124.321C13.4235 109.091 19.1177 93.8784 23.3883 89.5997C26.955 86.0263 42.1333 79.0941 56.6978 75.572C69.408 74.5846 84.0916 75.069 86.8311 75.5719C95.8711 77.2313 112.116 84.2712 119.714 89.5997C122.489 91.5459 123.493 94.1892 125 99.724" stroke="#333333" stroke-linecap="round" stroke-linejoin="round"/>
<path d="M56.5147 75.2916L56.4479 75.5607L56.6408 75.7599C58.2272 77.3981 60.5235 78.5858 63.1274 79.3617C65.7364 80.1391 68.6873 80.5131 71.62 80.4997C74.5527 80.4862 77.4834 80.0854 80.0523 79.3012C82.6151 78.519 84.8539 77.344 86.3624 75.7565L86.5712 75.5369L86.4731 75.2502C85.2853 71.7786 85.207 68.1737 85.1693 64.4703V64.4701V64.4699V64.4697V64.4694V64.4692V64.4689V64.4687V64.4684V64.4682V64.4679V64.4676V64.4673V64.467V64.4668V64.4665V64.4662V64.4659V64.4656V64.4652V64.4649V64.4646V64.4643V64.4639V64.4636V64.4632V64.4629V64.4625V64.4622V64.4618V64.4615V64.4611V64.4607V64.4603V64.4599V64.4595V64.4591V64.4587V64.4583V64.4579V64.4575V64.4571V64.4567V64.4562V64.4558V64.4554V64.4549V64.4545V64.454V64.4536V64.4531V64.4526V64.4522V64.4517V64.4512V64.4507V64.4502V64.4497V64.4492V64.4487V64.4482V64.4477V64.4472V64.4467V64.4462V64.4456V64.4451V64.4446V64.444V64.4435V64.4429V64.4424V64.4418V64.4413V64.4407V64.4401V64.4396V64.439V64.4384V64.4378V64.4372V64.4366V64.436V64.4354V64.4348V64.4342V64.4336V64.433V64.4323V64.4317V64.4311V64.4304V64.4298V64.4292V64.4285V64.4279V64.4272V64.4266V64.4259V64.4252V64.4246V64.4239V64.4232V64.4225V64.4218V64.4211V64.4205V64.4198V64.4191V64.4183V64.4176V64.4169V64.4162V64.4155V64.4148V64.414V64.4133V64.4126V64.4118V64.4111V64.4104V64.4096V64.4089V64.4081V64.4073V64.4066V64.4058V64.405V64.4043V64.4035V64.4027V64.4019V64.4012V64.4004V64.3996V64.3988V64.398V64.3972V64.3964V64.3956V64.3947V64.3939V64.3931V64.3923V64.3915V64.3906V64.3898V64.389V64.3881V64.3873V64.3864V64.3856V64.3847V64.3839V64.383V64.3822V64.3813V64.3804V64.3796V64.3787V64.3778V64.3769V64.3761V64.3752V64.3743V64.3734V64.3725V64.3716V64.3707V64.3698V64.3689V64.368V64.3671V64.3662V64.3653V64.3643V64.3634V64.3625V64.3616V64.3606V64.3597V64.3588V64.3578V64.3569V64.3559V64.355V64.354V64.3531V64.3521V64.3512V64.3502V64.3493V64.3483V64.3473V64.3464V64.3454V64.3444V64.3434V64.3425V64.3415V64.3405V64.3395V64.3385V64.3375V64.3365V64.3355V64.3345V64.3335V64.3325V64.3315V64.3305V64.3295V64.3285V64.3275V64.3265V64.3254V64.3244V64.3234V64.3224V64.3213V64.3203V64.3193V64.3182V64.3172V64.3162V64.3151V64.3141V64.313V64.312V64.3109V64.3099V64.3088V64.3078V64.3067V64.3057V64.3046V64.3035V64.3025V64.3014V64.3003V64.2993V64.2982V64.2971V64.296V64.295V64.2939V64.2928V64.2917V64.2906V64.2896V64.2885V64.2874V64.2863V64.2852V64.2841V64.283V64.2819V64.2808V64.2797V64.2786V64.2775V64.2764V64.2753V64.2742V64.273V64.2719V64.2708V64.2697V64.2686V64.2675V64.2663V64.2652V64.2641V64.263V64.2618V64.2607V64.2596V64.2584V64.2573V64.2562V64.255V64.2539V64.2528V64.2516V64.2505V64.2493V64.2482V64.2471V64.2459V64.2448V64.2436V64.2425V64.2413V64.2402V64.239V64.2379V64.2367V64.2356V64.2344V64.2332V64.2321V64.2309V64.2298V64.2286V64.2274V64.2263V64.2251V64.2239V64.2228V64.2216V64.2204V64.2193V64.2181V64.2169V64.2158V64.2146V64.2134V64.2122V64.2111V64.2099V64.2087V64.2075V64.2063V64.2052V64.204V64.2028V64.2016V64.2004V64.1993V64.1981V64.1969V64.1957V64.1945V64.1933V64.1921V64.191V64.1898V64.1886V64.1874V64.1862V64.185V64.1838V64.1826V64.1814V64.1802V64.1791V64.1779V64.1767V64.1755V64.1743V64.1731V64.1719V64.1707V64.1695V64.1683V64.1671V64.1659V64.1647V64.1635V64.1623V64.1611V64.1599V64.1587V64.1575V64.1563V64.1551V64.1539V64.1527V64.1515V64.1503V64.1491V64.1479V64.1467V64.1456V64.1444V64.1432V64.142V64.1408V64.1396V64.1384V64.1372V64.136V64.1348V64.1336V64.1324V64.1312V64.13V64.1288V64.1276V64.1264V64.1252V64.124V64.1228V64.1216V64.1204V64.1192V64.118V64.1168V64.1156V64.1144V64.1132V64.112V64.1108V64.1096V64.1084V64.1073V64.1061V64.1049V64.1037V64.1025V64.1013V64.1001V64.0989V64.0977V64.0965V64.0953V64.0942V64.093V64.0918V64.0906V64.0894V64.0882V64.087V64.0859V64.0847V64.0835V64.0823V64.0811V64.08V64.0788V64.0776V64.0764V64.0752V64.0741V64.0729V64.0717V64.0705V64.0694V64.0682V64.067V64.0659V64.0647V64.0635V64.0624V64.0612V64.06V64.0589V64.0577V64.0565V64.0554V64.0542V64.0531V64.0519V64.0507V64.0496V64.0484V64.0473V64.0461V64.045V64.0438V64.0427V64.0415V64.0404V64.0392V64.0381V64.0369V64.0358V64.0347V64.0335V64.0324V64.0312V64.0301V64.029V64.0278V64.0267V64.0256V64.0245V64.0233V64.0222V64.0211V64.02V64.0188V64.0177V64.0166V64.0155V64.0144V64.0132V64.0121V64.011V64.0099V64.0088V64.0077V64.0066V64.0055V64.0044V64.0033V64.0022V64.0011V64V63.0134L84.3736 63.5968C80.4968 66.4394 75.9413 68.0798 71.0606 68.0798C66.4735 68.0798 62.1641 66.6335 58.4495 64.0973L57.6675 63.5634V64.5102V64.511V64.5117V64.5124V64.5132V64.5139V64.5146V64.5154V64.5161V64.5168V64.5175V64.5183V64.519V64.5197V64.5205V64.5212V64.5219V64.5226V64.5234V64.5241V64.5248V64.5256V64.5263V64.527V64.5277V64.5285V64.5292V64.5299V64.5306V64.5314V64.5321V64.5328V64.5336V64.5343V64.535V64.5357V64.5365V64.5372V64.5379V64.5386V64.5394V64.5401V64.5408V64.5415V64.5423V64.543V64.5437V64.5444V64.5452V64.5459V64.5466V64.5473V64.548V64.5488V64.5495V64.5502V64.5509V64.5517V64.5524V64.5531V64.5538V64.5545V64.5553V64.556V64.5567V64.5574V64.5581V64.5589V64.5596V64.5603V64.561V64.5617V64.5624V64.5632V64.5639V64.5646V64.5653V64.566V64.5667V64.5674V64.5682V64.5689V64.5696V64.5703V64.571V64.5717V64.5724V64.5731V64.5738V64.5746V64.5753V64.576V64.5767V64.5774V64.5781V64.5788V64.5795V64.5802V64.5809V64.5816V64.5823V64.583V64.5837V64.5844V64.5851V64.5858V64.5865V64.5872V64.5879V64.5886V64.5893V64.59V64.5907V64.5914V64.5921V64.5928V64.5935V64.5942V64.5949V64.5956V64.5963V64.597V64.5977V64.5984V64.5991V64.5998V64.6005V64.6011V64.6018V64.6025V64.6032V64.6039V64.6046V64.6053V64.606V64.6066V64.6073V64.608V64.6087V64.6094V64.61V64.6107V64.6114V64.6121V64.6128V64.6134V64.6141V64.6148V64.6155V64.6161V64.6168V64.6175V64.6182V64.6188V64.6195V64.6202V64.6208V64.6215V64.6222V64.6228V64.6235V64.6242V64.6248V64.6255V64.6262V64.6268V64.6275V64.6281V64.6288V64.6295V64.6301V64.6308V64.6314V64.6321V64.6327V64.6334V64.634V64.6347V64.6353V64.636V64.6366V64.6373V64.6379V64.6386V64.6392V64.6399V64.6405V64.6412V64.6418V64.6424V64.6431V64.6437V64.6443V64.645V64.6456V64.6463V64.6469V64.6475V64.6482V64.6488V64.6494V64.65V64.6507V64.6513V64.6519V64.6525V64.6532V64.6538V64.6544V64.655V64.6557V64.6563V64.6569V64.6575V64.6581V64.6587V64.6593V64.66V64.6606V64.6612V64.6618V64.6624V64.663V64.6636V64.6642V64.6648V64.6654V64.666V64.6666V64.6672V64.6678V64.6684V64.669V64.6696V64.6702V64.6708V64.6714V64.672V64.6725V64.6731V64.6737V64.6743V64.6749V64.6755V64.6761V64.6766V64.6772V64.6778V64.6784V64.6789V64.6795V64.6801V64.6807V64.6812V64.6818V64.6824V64.6829V64.6835V64.6841V64.6846V64.6852V64.6857V64.6863V64.6868V64.6874V64.688V64.6885V64.6891V64.6896V64.6902V64.6907V64.6913V64.6918V64.6923V64.6929V64.6934V64.694V64.6945V64.695V64.6956V64.6961V64.6966V64.6972V64.6977V64.6982V64.6988V64.6993V64.6998V64.7003V64.7008V64.7014V64.7019V64.7024V64.7029V64.7034V64.7039V64.7045V64.705V64.7055V64.706V64.7065V64.707V64.7075V64.708V64.7085V64.709V64.7095V64.71V64.7105V64.711V64.7114V64.7119V64.7124V64.7129V64.7134V64.7139V64.7143V64.7148V64.7153V64.7158V64.7162V64.7167V64.7172V64.7177V64.7181V64.7186V64.7191V64.7195V64.72V64.7204V64.7209V64.7214V64.7218V64.7223V64.7227V64.7232V64.7236V64.7241V64.7245V64.7249V64.7254V64.7258V64.7263V64.7267V64.7271V64.7276V64.728V64.7284V64.7288V64.7293V64.7297V64.7301V64.7305V64.731V64.7314V64.7318V64.7322V64.7326V64.733V64.7334V64.7338V64.7342V64.7346V64.735V64.7354V64.7358V64.7362V64.7366V64.737V64.7374V64.7378V64.7382V64.7386V64.7389V64.7393V64.7397V64.7401V64.7404V64.7408V64.7412V64.7416V64.7419V64.7423V64.7426V64.743V64.7434V64.7437V64.7441V64.7444V64.7448V64.7451V64.7455V64.7458V64.7462V64.7465V64.7469V64.7472V64.7475V64.7479V64.7482V64.7485V64.7488V64.7492V64.7495V64.7498V64.7501V64.7505V64.7508V64.7511V64.7514V64.7517V64.752V64.7523V64.7526V64.7529V64.7532V64.7535V64.7538V64.7541V64.7544V64.7547V64.755V64.7553V64.7555V64.7558V64.7561V64.7564V64.7566V64.7569V64.7572V64.7575V64.7577V64.758V64.7582V64.7585V64.7588V64.7588C57.6612 64.8829 57.6548 65.0071 57.6485 65.1311C57.467 68.6847 57.2888 72.1752 56.5147 75.2916Z" fill="#FEFEFE" stroke="#333333"/>
<path fill-rule="evenodd" clip-rule="evenodd" d="M70.9442 69C88.5473 69 98.4206 49.483 96.8304 33.5269C90.9063 32.9881 70.6657 31.795 64.1087 13C61.3872 19.7995 58.5391 23.2891 46.1846 27.4586C41.5164 44.6891 50.784 69 70.9442 69Z" fill="#FEFEFE"/>
<path fill-rule="evenodd" clip-rule="evenodd" d="M60.856 67.5189C46.7724 60.0709 40.9875 42.3386 45.4999 26.5L46.461 26.7785C42.055 42.2437 47.7314 59.4393 61.3204 66.6257C67.2718 69.786 74.3863 69.7741 80.3408 66.6257C91.9223 60.501 97.2618 46.5639 96 33.0002L96.8089 32.9618C98.0952 46.7888 92.858 61.1449 80.8052 67.5189C74.5615 70.8203 67.1001 70.8342 60.856 67.5189Z" fill="#333333"/>
<path d="M79 89C76.0968 95.9891 74.0937 98.0201 71.7419 97.9999C69.161 97.9777 67.3871 95.9891 64 89" stroke="#333333" stroke-linecap="round"/>
<path fill-rule="evenodd" clip-rule="evenodd" d="M46 78.5C47.8718 81.673 49.859 84.1964 51.8718 87.2791C53.2811 89.4446 54.7849 92.372 57.1538 93.6509C58.6839 94.461 60.2244 93.7404 61.3974 92.6964C62.3915 91.8034 63.2413 90.7249 64.1154 89.7169C66.3338 87.113 68.5581 84.123 70.4487 81.2298C70.5897 81.0235 70.7308 80.83 70.8846 80.6365H72.3462C72.6667 81.0622 72.878 81.4469 73.2436 81.8619C74.5037 83.2923 75.7949 85.2928 78.0897 88.6205C78.2692 88.8398 78.4359 89.0591 78.5897 89.2912C80.0913 90.9762 81.8321 93.9991 84.4103 93.9991C89.5447 94.1192 94.7622 82.1182 97 77.9666C94.6801 77.1497 92.3447 76.3717 89.9615 75.761C88.641 75.4256 87.4231 75.1677 86.3462 75C80.5 81.2298 62.8846 81.4491 56.7308 75C53.0327 75.5315 49.5117 77.2711 46 78.5Z" fill="#BDECFF"/>
<path d="M49.9196 83.5345C48.8341 81.9828 47.777 80.4718 46.7418 78.7659C47.5542 78.4698 48.3794 78.1474 49.201 77.8264C49.9639 77.5283 50.7239 77.2314 51.468 76.9578C53.1558 76.3373 54.8408 75.8047 56.5527 75.5326C58.1618 77.1317 60.4283 78.3012 62.9874 79.0754C65.3253 79.7826 67.9322 80.1677 70.5598 80.2417L70.4933 80.3253C70.3308 80.5297 70.1826 80.7331 70.0359 80.9477L70.0358 80.9477L70.0302 80.9563C68.1509 83.8321 65.9398 86.8044 63.7361 89.3911C63.5382 89.6194 63.3442 89.8479 63.1516 90.0747C62.4737 90.873 61.8136 91.6503 61.0641 92.3237C59.9387 93.3249 58.6322 93.8667 57.3896 93.2099C56.3026 92.6226 55.3878 91.6415 54.5569 90.5027C54.0023 89.7428 53.5093 88.9494 53.0288 88.176C52.7818 87.7784 52.538 87.3861 52.2909 87.0064L52.2905 87.0058C51.4841 85.7708 50.6946 84.6423 49.9196 83.5345ZM72.7456 80.3358L72.6694 80.2346C75.3209 80.1419 77.9384 79.7335 80.2657 79.0127C82.7799 78.2341 84.9879 77.0805 86.5244 75.535C87.5187 75.6997 88.633 75.9395 89.8383 76.2456C92.0135 76.803 94.1526 77.5022 96.2863 78.2463C96.0279 78.7418 95.7408 79.3098 95.4277 79.9291C94.3464 82.0681 92.9554 84.8197 91.3693 87.3166C90.2655 89.0543 89.0881 90.6329 87.8861 91.7645C86.6738 92.9056 85.5085 93.5247 84.422 93.4992L84.422 93.4991H84.4103C83.3275 93.4991 82.3709 92.8652 81.4537 91.9274C81.0001 91.4636 80.5745 90.9448 80.1611 90.4261C80.0847 90.3302 80.0084 90.2339 79.9324 90.1379C79.6113 89.7327 79.2939 89.3322 78.9866 88.9851C78.8306 88.7523 78.6643 88.5339 78.4898 88.3199C78.014 87.6299 77.5801 86.9949 77.1796 86.4089C75.6688 84.1981 74.6336 82.6833 73.6188 81.5314C73.4554 81.3459 73.3242 81.1648 73.1898 80.9696C73.159 80.925 73.1276 80.8787 73.0952 80.8312C72.9897 80.6761 72.8747 80.5073 72.7456 80.3358Z" stroke="#333333"/>
<path fill-rule="evenodd" clip-rule="evenodd" d="M63.949 13.2124C70.5034 31.8327 90.7752 33.0148 96.7211 33.5486C97.209 38.3914 96.768 43.3344 95.3772 48C113.929 3.23945 71.1751 -5.07752 63.3278 4.6076C46.0101 3.23952 36.7167 26.2703 45.1605 43.3354C44.3282 38.0854 44.6053 32.6651 46.0099 27.5367C58.3708 23.4059 61.2233 19.9487 63.949 13.2124Z" fill="#EFEFEF" stroke="#333333" stroke-linejoin="round"/>
<path d="M117.356 138.13L116.856 138.13L116.856 138.63L116.856 144.685C116.856 145.614 116.328 146.546 115.626 147.076C115.279 147.338 114.918 147.481 114.589 147.498C114.272 147.515 113.958 147.418 113.667 147.146C109.995 143.693 106.242 140.449 102.502 137.216C102.226 136.977 101.95 136.739 101.674 136.5C97.6608 133.029 93.6695 129.554 89.7989 125.816C88.0567 123.931 88.0791 121.017 89.7938 119.314L89.7938 119.314L89.7977 119.31C95.6461 113.371 102.951 107.074 108.952 101.903C110.643 100.444 112.231 99.0758 113.654 97.8297L113.661 97.8232L113.668 97.8163C113.949 97.5495 114.248 97.4714 114.553 97.5092C114.878 97.5493 115.243 97.7269 115.599 98.0361C116.319 98.6617 116.856 99.7004 116.856 100.649L116.856 106.334L116.856 106.834L117.356 106.834L141.549 106.834C143.266 106.834 144.752 107.631 145.816 108.79C146.887 109.956 147.5 111.454 147.5 112.794L147.5 132.171C147.5 135.253 145.012 138.129 141.549 138.129L117.356 138.13Z" fill="url(#paint1_linear_125_9840)" stroke="#333333"/>
</g>
<defs>
<linearGradient id="paint0_linear_125_9840" x1="51.5319" y1="86.0301" x2="75.036" y2="122.853" gradientUnits="userSpaceOnUse">
<stop stop-color="#FFC671"/>
<stop offset="1" stop-color="#FF6F3D"/>
</linearGradient>
<linearGradient id="paint1_linear_125_9840" x1="85.6562" y1="148" x2="138.281" y2="88.4162" gradientUnits="userSpaceOnUse">
<stop stop-color="#FF8E3D"/>
<stop offset="1" stop-color="#FF6F3D"/>
</linearGradient>
<clipPath id="clip0_125_9840">
<rect width="150" height="150" fill="white"/>
</clipPath>
</defs>
</svg>
