<svg width="150" height="150" viewBox="0 0 150 150" fill="none" xmlns="http://www.w3.org/2000/svg">
<g clip-path="url(#clip0_315_13477)">
<path fill-rule="evenodd" clip-rule="evenodd" d="M25.9418 89.9944H12.8467C9.41008 89.9944 6.29444 88.4686 4.03797 86V123.33C3.5382 129.5 8.05053 133 12.9506 133H128.087C132.987 133 137 128.646 137 123.33V86C134.744 88.4589 131.628 89.9944 128.191 89.9944L116.434 89.9167L25.9418 89.9944Z" fill="#BDECFF"/>
<path fill-rule="evenodd" clip-rule="evenodd" d="M13.042 36C6 36 -0.5 40.9933 0.0462497 48.9943V75.9453C-0.453481 83.4139 3.04527 90.4012 13.042 89.9021H128.509C133 90.4267 135.231 88.7782 137.5 86.489C139.75 84.2178 141 80.7812 141 77.3428V48.5594C141 41.6553 135.381 36 128.509 36H13.042Z" fill="white"/>
<path fill-rule="evenodd" clip-rule="evenodd" d="M57.4893 35.4999C57.4893 35.2238 57.7131 35 57.9893 35H84.5C84.7761 35 85 35.2238 85 35.4999C85 35.7759 84.7761 35.9997 84.5 35.9997H57.9893C57.7131 35.9997 57.4893 35.7759 57.4893 35.4999ZM104.364 35.516C104.364 35.2399 104.588 35.0161 104.864 35.0161H128.547C135.666 35.0161 142 41.0474 142 48.4309V77.669C142 81.3364 140.567 84.6791 138.236 87.1058C135.884 89.5542 132.707 91 129.131 91H122.943C122.667 91 122.443 90.7762 122.443 90.5001C122.443 90.2241 122.667 90.0003 122.943 90.0003H129.131C132.424 90.0003 135.344 88.6733 137.515 86.4134C139.67 84.1691 141 81.0731 141 77.669V48.4309C141 41.6154 135.13 36.0158 128.547 36.0158H104.864C104.588 36.0158 104.364 35.792 104.364 35.516ZM53 90.5001C53 90.2241 53.2239 90.0003 53.5 90.0003H89.3796C89.6557 90.0003 89.8796 90.2241 89.8796 90.5001C89.8796 90.7762 89.6557 91 89.3796 91H53.5C53.2239 91 53 90.7762 53 90.5001Z" fill="#333333"/>
<path fill-rule="evenodd" clip-rule="evenodd" d="M36.9995 35.5C36.9995 35.2239 36.7735 35 36.4947 35H12.5828C5.39468 35 -1.00049 41.033 -1.00049 48.4187V77.6652C-1.00049 81.3337 0.446685 84.6774 2.79949 87.1048L2.79957 87.1049C5.17447 89.5539 8.38226 91.0001 11.9933 91.0001H18.2408C18.5196 91.0001 18.7457 90.7762 18.7457 90.5001C18.7457 90.2239 18.5196 90.0001 18.2408 90.0001H11.9933C8.66784 90.0001 5.71985 88.6727 3.52778 86.4122C1.35187 84.1673 0.00918834 81.0703 0.00918834 77.6652V48.4187C0.00918834 41.6012 5.93615 36 12.5828 36H36.4947C36.7735 36 36.9995 35.7761 36.9995 35.5Z" fill="#333333"/>
<path fill-rule="evenodd" clip-rule="evenodd" d="M3.5 97C3.77614 97 4 97.2239 4 97.5V124.144C4 129.033 7.82295 133 12.4418 133H80.5C80.7761 133 81 133.224 81 133.5C81 133.776 80.7761 134 80.5 134H12.4418C7.22843 134 3 129.542 3 124.144V97.5C3 97.2239 3.22386 97 3.5 97Z" fill="#333333"/>
<path fill-rule="evenodd" clip-rule="evenodd" d="M46 84.5111C46 83.6818 45.3266 83 44.5089 83H28.5008C27.6734 83 27 83.6818 27 84.5111V96.4889C27 97.3182 27.6734 98 28.5008 98H44.4992C45.317 98 45.9904 97.3182 45.9904 96.4889V84.5111H46Z" fill="#EFEFEF"/>
<path fill-rule="evenodd" clip-rule="evenodd" d="M47 85.5111H46.9904V96.4889C46.9904 97.8582 45.8815 99 44.4992 99H28.5008C27.1131 99 26 97.8624 26 96.4889V84.5111C26 83.1376 27.1131 82 28.5008 82H44.5089C45.8911 82 47 83.1418 47 84.5111V85.5111ZM46 84.5111C46 84.4533 45.9967 84.3963 45.9904 84.3401C45.9547 84.0249 45.8217 83.7379 45.6229 83.5111C45.3489 83.1983 44.9498 83 44.5089 83H28.5008C27.6734 83 27 83.6818 27 84.5111V96.4889C27 97.3182 27.6734 98 28.5008 98H44.4992C45.317 98 45.9904 97.3182 45.9904 96.4889V84.5111H46Z" fill="#333333"/>
<path fill-rule="evenodd" clip-rule="evenodd" d="M97 84.512V96.488C97 97.3178 97.6738 98 98.4919 98H114.498C115.326 98 116 97.3178 116 96.488V84.512C116 83.6822 115.326 83 114.498 83H98.4919C97.6641 83.0092 97 83.6822 97 84.512Z" fill="#EFEFEF"/>
<path fill-rule="evenodd" clip-rule="evenodd" d="M97.9919 83H114.998C116.106 83 117 83.9637 117 85.1303V91.4706C117 91.763 116.776 92 116.5 92C116.224 92 116 91.763 116 91.4706V85.1303C116 84.5398 115.546 84.0588 114.998 84.0588H97.995C97.4433 84.0668 97 84.5417 97 85.1303V91.4706C97 91.763 96.7761 92 96.5 92C96.2239 92 96 91.763 96 91.4706V85.1303C96 83.9628 96.8836 83.013 97.9863 83L97.9919 83Z" fill="#333333"/>
<path fill-rule="evenodd" clip-rule="evenodd" d="M86.9995 22.9628C89.4198 22.9628 91.0034 24.8266 91.0034 27.2378V32.5217C91.0034 34.4427 92.5697 36 94.5017 36V36C96.4338 36 98 34.4427 98 32.5217V24.9503C98 21.1437 93.8401 17 90.0039 17H52.0224C48.1862 17 44 21.1437 44 24.9503V32.52C44 34.442 45.567 36 47.5 36V36C49.4419 36 51.0126 34.4281 51 32.4973L50.9667 27.4348C51.0229 24.5848 52.6543 22.9628 55.5207 22.9628H86.9995Z" fill="url(#paint0_linear_315_13477)"/>
<path fill-rule="evenodd" clip-rule="evenodd" d="M90.0042 27.2382C90.0042 25.279 88.7766 23.955 86.9998 23.955H55.5205C54.2756 23.955 53.4318 24.304 52.8931 24.835C52.3548 25.3657 51.9927 26.2051 51.966 27.4423L51.9991 32.4944C52.0154 34.978 49.9961 37 47.4996 37C45.0145 37 43 34.9958 43 32.5236V24.9494C43 22.7014 44.2175 20.4738 45.8668 18.8391C47.5162 17.2042 49.7611 16 52.0221 16H90.0042C92.266 16 94.5048 17.2049 96.148 18.8407C97.791 20.4763 99 22.7035 99 24.9494V32.5253C99 34.9966 96.9862 37 94.5021 37C92.018 37 90.0042 34.9966 90.0042 32.5253V27.2382ZM50.9664 27.4354L50.9996 32.5009C51.0123 34.4328 49.4416 36.0056 47.4996 36.0056C45.5666 36.0056 43.9995 34.4467 43.9995 32.5236V24.9494C43.9995 21.1406 48.1858 16.9944 52.0221 16.9944H90.0042C93.8405 16.9944 98.0005 21.1406 98.0005 24.9494V32.5253C98.0005 34.4474 96.4342 36.0056 94.5021 36.0056C92.57 36.0056 91.0038 34.4474 91.0038 32.5253V27.2382C91.0038 24.8256 89.4202 22.9607 86.9998 22.9607H55.5205C52.654 22.9607 51.0226 24.5837 50.9664 27.4354Z" fill="#333333"/>
<path d="M110.781 134.028L110.281 134.028L110.281 134.528L110.281 141.294C110.281 142.354 109.681 143.412 108.884 144.014C108.49 144.312 108.075 144.478 107.694 144.498C107.325 144.517 106.958 144.404 106.621 144.088C102.523 140.23 98.3322 136.605 94.1554 132.991C93.8472 132.725 93.5392 132.458 93.2313 132.191C88.7495 128.312 84.2911 124.427 79.9672 120.248C78.0006 118.119 78.0229 114.824 79.9621 112.897L79.9622 112.897L79.966 112.893C86.4986 106.253 94.6585 99.2138 101.359 93.4334C103.248 91.804 105.021 90.2748 106.608 88.8826L106.616 88.8761L106.623 88.8693C106.95 88.5588 107.3 88.4661 107.658 88.5104C108.035 88.5571 108.454 88.7625 108.857 89.1132C109.672 89.8218 110.281 90.9982 110.281 92.0778L110.281 98.4316L110.281 98.9316L110.781 98.9316L137.796 98.9316C139.733 98.9316 141.406 99.8314 142.604 101.137C143.808 102.449 144.5 104.137 144.5 105.651L144.5 127.308C144.5 130.783 141.697 134.027 137.796 134.027L110.781 134.028Z" fill="url(#paint1_linear_315_13477)" stroke="#333333"/>
</g>
<defs>
<linearGradient id="paint0_linear_315_13477" x1="47.0517" y1="1.75711" x2="73.978" y2="31.6464" gradientUnits="userSpaceOnUse">
<stop stop-color="#FFC671"/>
<stop offset="1" stop-color="#FF6F3D"/>
</linearGradient>
<linearGradient id="paint1_linear_315_13477" x1="75.3828" y1="145" x2="134.205" y2="78.4573" gradientUnits="userSpaceOnUse">
<stop stop-color="#FF8E3D"/>
<stop offset="1" stop-color="#FF6F3D"/>
</linearGradient>
<clipPath id="clip0_315_13477">
<rect width="150" height="150" fill="white"/>
</clipPath>
</defs>
</svg>
