<svg width="135" height="135" viewBox="0 0 135 135" fill="none" xmlns="http://www.w3.org/2000/svg">
<path fill-rule="evenodd" clip-rule="evenodd" d="M120.152 80.8923L114.624 82.0925C112.243 82.6083 110.337 84.3641 109.405 86.6257C108.472 88.8775 108.571 91.4764 109.891 93.5297L112.947 98.2911C113.87 99.7294 113.672 101.624 112.461 102.834L97.8536 117.446C96.6429 118.656 94.7475 118.864 93.3086 117.932L88.5552 114.876C86.5011 113.557 83.911 113.458 81.6484 114.39C79.3958 115.323 77.6393 117.227 77.1134 119.608L75.9127 125.133C75.5455 126.81 74.0669 128 72.3501 128H51.6794C49.9626 128 48.484 126.81 48.1169 125.133L46.9161 119.608C46.4001 117.217 44.6436 115.323 42.3811 114.39C40.1284 113.458 37.5384 113.557 35.4743 114.876L30.7209 117.932C29.282 118.854 27.3866 118.656 26.176 117.446L11.5685 102.834C10.3579 101.624 10.1495 99.7294 11.0823 98.2911L14.1387 93.5297C15.4586 91.4764 15.5578 88.8874 14.625 86.6257C13.6922 84.374 11.7869 82.6183 9.40522 82.0925L3.8679 80.8923C2.19082 80.5252 1 79.0472 1 77.3312V56.6788C1 54.9627 2.19082 53.4847 3.8679 53.1176L9.3953 51.9174C11.7769 51.4016 13.6823 49.6359 14.6151 47.3842C15.5479 45.1324 15.4586 42.5335 14.1288 40.4802L11.0724 35.7188C10.1495 34.2805 10.348 32.3859 11.5586 31.1658L26.166 16.5544C27.3767 15.3442 29.2721 15.1359 30.711 16.0683L35.4644 19.1235C37.5186 20.4428 40.1086 20.542 42.3712 19.6096C44.6238 18.6771 46.3803 16.7726 46.9062 14.3919L48.107 8.86674C48.4741 7.19034 49.9527 6 51.6695 6H72.3303C74.047 6 75.5256 7.20026 75.8928 8.86674L77.0936 14.3919C77.6096 16.7726 79.366 18.6771 81.6286 19.6096C83.8812 20.542 86.4713 20.4527 88.5354 19.1235L93.2887 16.0683C94.7276 15.1458 96.623 15.3442 97.8337 16.5544L112.441 31.1658C113.652 32.376 113.86 34.2706 112.927 35.7188L109.871 40.4802C108.551 42.5335 108.452 45.1225 109.385 47.3842C110.317 49.6359 112.223 51.4016 114.604 51.9174L120.132 53.1176C121.809 53.4847 123 54.9627 123 56.6788V77.3411C123.02 79.0472 121.829 80.5352 120.152 80.8923ZM83.8812 67.005C83.8812 54.9428 74.0669 45.1324 61.9999 45.1324C49.9329 45.1324 40.1185 54.9428 40.1185 67.005C40.1185 79.0671 49.9329 88.8775 61.9999 88.8775C74.0669 88.8775 83.8812 79.0671 83.8812 67.005Z" fill="url(#paint0_linear_125_2197)"/>
<path d="M70.1759 46.8497C67.5736 45.7441 64.7144 45.1325 61.7154 45.1325C49.7047 45.1325 39.9361 54.9428 39.9361 67.005C39.9361 79.0671 49.7047 88.8775 61.7154 88.8775C64.7144 88.8775 67.5736 88.2658 70.1759 87.1602M108.268 44.5C108.235 43.0918 108.588 41.6926 109.363 40.4802L112.405 35.7188C113.334 34.2706 113.126 32.376 111.921 31.1658L97.3821 16.5544C96.1771 15.3442 94.2906 15.1458 92.8584 16.0683L88.1272 19.1235C86.0727 20.4527 83.4947 20.542 81.2526 19.6096C79.0006 18.6771 77.2523 16.7726 76.7387 14.3919L75.5436 8.86674C75.1781 7.20026 73.7064 6 71.9976 6H51.4332C49.7244 6 48.2527 7.19034 47.8873 8.86674L46.6921 14.3919C46.1686 16.7726 44.4204 18.6771 42.1782 19.6096C39.9262 20.542 37.3483 20.4428 35.3037 19.1235L30.5725 16.0683C29.1403 15.1359 27.2537 15.3442 26.0487 16.5544L11.5094 31.1658C10.3044 32.3859 10.1068 34.2805 11.0254 35.7188L14.0676 40.4802C15.3911 42.5335 15.48 45.1325 14.5516 47.3842C13.6231 49.6359 11.7267 51.4016 9.35615 51.9174L3.85452 53.1176C2.18527 53.4847 1 54.9627 1 56.6788V77.3312C1 79.0472 2.18527 80.5252 3.85452 80.8923L9.36603 82.0925C11.7366 82.6183 13.633 84.374 14.5615 86.6257C15.4899 88.8874 15.3911 91.4764 14.0775 93.5297L11.0353 98.2911C10.1068 99.7294 10.3142 101.624 11.5193 102.834L26.0586 117.446C27.2636 118.656 29.1501 118.854 30.5823 117.932L35.3135 114.876C37.368 113.557 39.946 113.458 42.1881 114.39C44.4401 115.323 46.1884 117.217 46.702 119.608L47.8972 125.133C48.2626 126.81 49.7343 128 51.4431 128H72.0174C73.7261 128 75.1979 126.81 75.5633 125.133L76.7585 119.608C77.282 117.227 79.0302 115.323 81.2724 114.39C83.5244 113.458 86.1023 113.557 88.1469 114.876L92.8781 117.932C94.3103 118.864 96.1969 118.656 97.4019 117.446L111.941 102.834C113.146 101.624 113.344 99.7294 112.425 98.2911L109.383 93.5297C108.606 92.3157 108.254 90.9109 108.288 89.5" stroke="#333333" stroke-linecap="round" stroke-linejoin="round"/>
<path fill-rule="evenodd" clip-rule="evenodd" d="M123.796 85.5266L96.781 85.5276L96.781 92.2945C96.781 94.7621 94.0272 97.0904 92.2791 95.4528C83.4953 87.1842 74.2858 79.9845 65.6098 71.5975C63.4636 69.2851 63.4633 65.6756 65.6096 63.5419C74.0007 55.0137 85.0747 45.8233 92.2785 39.5067C94.0266 37.8467 96.781 40.5878 96.781 43.0778L96.781 49.4316L123.796 49.4316C127.996 49.4316 131 53.3386 131 56.6515L131 78.3085C131 82.0365 127.996 85.5266 123.796 85.5266Z" fill="#BDECFF"/>
<path fill-rule="evenodd" clip-rule="evenodd" d="M95.7804 84.525L123.796 84.524C127.4 84.524 129.999 81.5265 129.999 78.3085L129.999 56.6515C129.999 55.2803 129.367 53.7102 128.236 52.4778C127.117 51.2573 125.57 50.4342 123.796 50.4342L95.7804 50.4342L95.7804 43.0778C95.7804 42.1653 95.2513 41.1211 94.5294 40.4932C94.1767 40.1863 93.8473 40.0403 93.5968 40.0093C93.3843 39.9829 93.1833 40.0289 92.9668 40.2345L92.9524 40.2482L92.9374 40.2613C91.3438 41.6586 89.5667 43.1917 87.675 44.8237C80.9757 50.6031 72.8386 57.6228 66.3221 64.2459L66.3143 64.2538C64.5833 65.9746 64.5386 68.9513 66.3248 70.8955C70.6343 75.0602 75.0795 78.9344 79.5581 82.8108C79.8665 83.0777 80.175 83.3447 80.4837 83.6117C84.6588 87.2238 88.8568 90.8556 92.9632 94.7212C93.1998 94.9425 93.4332 95.0083 93.6675 94.996C93.927 94.9823 94.2483 94.8658 94.5829 94.6128C95.2701 94.0931 95.7804 93.177 95.7804 92.2945L95.7804 84.525ZM92.2791 95.4528C94.0272 97.0904 96.781 94.7621 96.781 92.2945L96.781 85.5276L123.796 85.5266C127.996 85.5266 131 82.0365 131 78.3085L131 56.6515C131 53.3386 127.996 49.4316 123.796 49.4316L96.781 49.4316L96.781 43.0778C96.781 40.5878 94.0266 37.8467 92.2785 39.5067C90.6968 40.8937 88.9284 42.4192 87.0429 44.0458C80.3409 49.8273 72.1582 56.8862 65.6096 63.5419C63.4633 65.6756 63.4636 69.2851 65.6098 71.5975C70.2452 76.0785 75.033 80.2206 79.8267 84.3679C84.0052 87.983 88.1883 91.602 92.2791 95.4528Z" fill="#333333"/>
<defs>
<linearGradient id="paint0_linear_125_2197" x1="-1.29204" y1="-2.69117" x2="71.5212" y2="77.5431" gradientUnits="userSpaceOnUse">
<stop stop-color="#FFC671"/>
<stop offset="1" stop-color="#FF6F3D"/>
</linearGradient>
</defs>
</svg>
