<svg width="135" height="135" viewBox="0 0 135 135" fill="none" xmlns="http://www.w3.org/2000/svg">
<g clip-path="url(#clip0_125_2208)">
<path fill-rule="evenodd" clip-rule="evenodd" d="M107 4C107 2.34314 105.657 1 104 1H24.5313C23.1637 1 21.8558 1.56014 20.9122 2.54999L4.38097 19.8911C3.49451 20.821 3 22.0564 3 23.3412V130C3 132.761 5.23858 135 8 135H102C104.761 135 107 132.761 107 130V4Z" fill="white"/>
<path fill-rule="evenodd" clip-rule="evenodd" d="M108 4.5C108 2.01472 105.985 0 103.5 0L23.9211 0C23.5172 0 23.1303 0.162921 22.8481 0.451887L22.8481 0.451891L2.42693 21.3592C2.15322 21.6395 2 22.0156 2 22.4073L2 130.5C2 132.985 4.01472 135 6.5 135H103.5C105.985 135 108 132.985 108 130.5V116.5C108 116.224 107.776 116 107.5 116C107.224 116 107 116.224 107 116.5V130.5C107 132.433 105.433 134 103.5 134H6.5C4.56701 134 3 132.433 3 130.5L3 22.4073C3 22.2768 3.05108 22.1514 3.14231 22.058L23.5634 1.15063C23.6575 1.05431 23.7865 1 23.9211 1L103.5 1C105.433 1 107 2.567 107 4.5V47.5C107 47.7761 107.224 48 107.5 48C107.776 48 108 47.7761 108 47.5V4.5Z" fill="#333333"/>
<path d="M23.6464 0.646447C23.7894 0.503448 24.0045 0.46067 24.1913 0.53806C24.3782 0.615451 24.5 0.797769 24.5 1V19C24.5 20.933 22.933 22.5 21 22.5H3C2.79777 22.5 2.61545 22.3782 2.53806 22.1913C2.46067 22.0045 2.50345 21.7894 2.64645 21.6464L23.6464 0.646447Z" fill="url(#paint0_linear_125_2208)" stroke="#333333" stroke-linejoin="round"/>
<path fill-rule="evenodd" clip-rule="evenodd" d="M86 34.5C86 34.2239 85.7761 34 85.4999 34H33.5001C33.2239 34 33 34.2239 33 34.5C33 34.7761 33.2239 35 33.5001 35H85.4999C85.7761 35 86 34.7761 86 34.5Z" fill="#333333"/>
<path fill-rule="evenodd" clip-rule="evenodd" d="M86 43.5009C86 43.2247 85.7761 43.0009 85.5 43.0009H22.5035C22.2274 43.0009 22.0035 43.2247 22.0035 43.5009C22.0035 43.777 22.2274 44.0009 22.5035 44.0009H85.5C85.7761 44.0009 86 43.777 86 43.5009Z" fill="#333333"/>
<path fill-rule="evenodd" clip-rule="evenodd" d="M58 112.5C58 112.224 57.7761 112 57.5 112H20.5C20.2239 112 20 112.224 20 112.5C20 112.776 20.2239 113 20.5 113H57.5C57.7761 113 58 112.776 58 112.5Z" fill="#333333"/>
<path fill-rule="evenodd" clip-rule="evenodd" d="M72 102.5C72 102.224 71.7761 102 71.5 102H20.5C20.2239 102 20 102.224 20 102.5C20 102.776 20.2239 103 20.5 103H71.5C71.7761 103 72 102.776 72 102.5Z" fill="#333333"/>
<path d="M83 20H47" stroke="url(#paint1_linear_125_2208)" stroke-width="2" stroke-linecap="round"/>
<path d="M23 87.5H83C84.3807 87.5 85.5 86.3807 85.5 85V59C85.5 57.6193 84.3807 56.5 83 56.5L23.0004 56.5C21.6197 56.5 20.5004 57.6193 20.5004 59L20.5 85C20.5 86.3807 21.6193 87.5 23 87.5Z" fill="#BDECFF" stroke="#333333"/>
<path fill-rule="evenodd" clip-rule="evenodd" d="M56 87V71H21V85.3971C21 86.2758 21.6595 86.9903 22.4706 86.9903H56V87Z" fill="#FEFEFE"/>
<path fill-rule="evenodd" clip-rule="evenodd" d="M56 72H70V57H56V72Z" fill="#FEFEFE"/>
<path fill-rule="evenodd" clip-rule="evenodd" d="M71 87H83C84.1046 87 85 86.1046 85 85V72H71V87Z" fill="#FEFEFE"/>
<path d="M85 71H21V72H85V71Z" fill="#333333"/>
<path fill-rule="evenodd" clip-rule="evenodd" d="M81 63.4977C81 63.3721 80.9384 63.2512 80.8327 63.1674C80.7094 63.0651 80.5245 63 80.3132 63H74.6868C74.4755 63 74.2906 63.0651 74.1673 63.1674C74.0616 63.2558 74 63.3721 74 63.4977C74 63.6233 74.0616 63.7442 74.1673 63.8279C74.2906 63.9349 74.4755 64 74.6868 64H80.3132C80.5245 64 80.7094 63.9349 80.8327 63.8279C80.9384 63.7442 81 63.6279 81 63.4977Z" fill="#333333"/>
<path fill-rule="evenodd" clip-rule="evenodd" d="M50 63.4977C50 63.3721 49.9433 63.2512 49.8461 63.1674C49.7327 63.0651 49.5626 63 49.3682 63H27.6318C27.4374 63 27.2673 63.0651 27.1539 63.1674C27.0567 63.2558 27 63.3721 27 63.4977C27 63.6233 27.0567 63.7442 27.1539 63.8279C27.2673 63.9349 27.4374 64 27.6318 64H49.3682C49.5626 64 49.7327 63.9349 49.8461 63.8279C49.9433 63.7442 50 63.6279 50 63.4977Z" fill="#333333"/>
<path fill-rule="evenodd" clip-rule="evenodd" d="M67 63.4977C67 63.3721 66.9452 63.2512 66.8513 63.1674C66.7417 63.0651 66.5774 63 66.3895 63H59.6105C59.4226 63 59.2583 63.0651 59.1487 63.1674C59.0548 63.2558 59 63.3721 59 63.4977C59 63.6233 59.0548 63.7442 59.1487 63.8279C59.2583 63.9349 59.4226 64 59.6105 64H66.3895C66.5774 64 66.7417 63.9349 66.8513 63.8279C66.9452 63.7442 67 63.6279 67 63.4977Z" fill="#333333"/>
<path fill-rule="evenodd" clip-rule="evenodd" d="M67 79.4977C67 79.3721 66.9452 79.2512 66.8513 79.1674C66.7417 79.0651 66.5774 79 66.3895 79H59.6105C59.4226 79 59.2583 79.0651 59.1487 79.1674C59.0548 79.2558 59 79.3721 59 79.4977C59 79.6233 59.0548 79.7442 59.1487 79.8279C59.2583 79.9349 59.4226 80 59.6105 80H66.3895C66.5774 80 66.7417 79.9349 66.8513 79.8279C66.9452 79.7442 67 79.6279 67 79.4977Z" fill="#333333"/>
<path fill-rule="evenodd" clip-rule="evenodd" d="M81 79.4977C81 79.3721 80.9461 79.2512 80.8536 79.1674C80.7458 79.0651 80.584 79 80.3991 79H74.6009C74.416 79 74.2542 79.0651 74.1464 79.1674C74.0539 79.2558 74 79.3721 74 79.4977C74 79.6233 74.0539 79.7442 74.1464 79.8279C74.2542 79.9349 74.416 80 74.6009 80H80.3991C80.584 80 80.7458 79.9349 80.8536 79.8279C80.9461 79.7442 81 79.6279 81 79.4977Z" fill="#333333"/>
<path fill-rule="evenodd" clip-rule="evenodd" d="M50 79.4977C50 79.3721 49.9433 79.2512 49.8461 79.1674C49.7327 79.0651 49.5626 79 49.3682 79H27.6318C27.4374 79 27.2673 79.0651 27.1539 79.1674C27.0567 79.2558 27 79.3721 27 79.4977C27 79.6233 27.0567 79.7442 27.1539 79.8279C27.2673 79.9349 27.4374 80 27.6318 80H49.3682C49.5626 80 49.7327 79.9349 49.8461 79.8279C49.9433 79.7442 50 79.6279 50 79.4977Z" fill="#333333"/>
<path fill-rule="evenodd" clip-rule="evenodd" d="M70 87V57H71V87H70Z" fill="#333333"/>
<path fill-rule="evenodd" clip-rule="evenodd" d="M55 87V57H56V87H55Z" fill="#333333"/>
<path d="M106 57.5C118.98 57.5 129.5 68.0204 129.5 81C129.5 93.9796 118.98 104.5 106 104.5C93.0204 104.5 82.5 93.9796 82.5 81C82.5 68.0204 93.0204 57.5 106 57.5Z" fill="url(#paint2_linear_125_2208)" stroke="#333333"/>
<path fill-rule="evenodd" clip-rule="evenodd" d="M105.008 94.9927V92.1073C103.526 91.9242 102.52 91.602 101.59 91.1407C100.66 90.6793 99.8592 89.925 99.179 88.8924C98.5064 87.8525 98.1134 86.5929 98 85.099L100.978 84.5424C101.212 86.095 101.613 87.2374 102.202 87.9697C103.034 88.995 103.836 89.5662 105 89.6907V80.6391C103.776 80.3316 102.731 79.8336 101.462 79.1379C100.517 78.6326 99.7912 77.9222 99.2773 77.0141C98.7633 76.0987 98.5139 75.0735 98.5139 73.9237C98.5139 71.8732 99.2622 70.2182 100.759 68.9439C101.756 68.0944 103.043 67.5672 105.008 67.3768V66H107.008V67.3768C108.723 67.5379 110.055 68.0285 111.06 68.8561C112.352 69.9033 113.131 71.346 113.395 73.1768L110.35 73.6381C110.176 72.4957 109.813 71.6169 109.254 71.0091C108.702 70.4013 107.975 69.9985 107.008 69.8008V78.1053C108.504 78.4788 109.45 78.7644 109.934 78.9694C110.856 79.3649 111.604 79.8409 112.186 80.4121C112.776 80.976 113.214 81.6497 113.531 82.426C113.841 83.2023 114 84.0518 114 84.9525C114 86.9444 113.35 88.6068 112.035 89.947C110.727 91.2798 109.071 91.9902 107 92.0854V95H105.008V94.9927ZM105.008 69.7641C103.859 69.9326 103.147 70.3793 102.489 71.1116C101.824 71.8366 101.492 72.6934 101.492 73.6894C101.492 74.6707 101.771 75.4982 102.338 76.1573C102.905 76.8164 103.655 77.3217 105.008 77.6586V69.7641ZM107.008 89.6833C108.164 89.5442 109.08 89.0609 109.836 88.226C110.584 87.3985 110.962 86.3659 110.962 85.1429C110.962 84.0957 110.697 83.2609 110.161 82.6237C109.624 81.9939 108.595 81.474 107.008 81.0785V89.6833Z" fill="#FEFEFE"/>
</g>
<defs>
<linearGradient id="paint0_linear_125_2208" x1="24" y1="0.179687" x2="2.99996" y2="22" gradientUnits="userSpaceOnUse">
<stop stop-color="#FF8E3D"/>
<stop offset="1" stop-color="#FF6F3D"/>
</linearGradient>
<linearGradient id="paint1_linear_125_2208" x1="82.9999" y1="19.9609" x2="82.9465" y2="21.961" gradientUnits="userSpaceOnUse">
<stop stop-color="#FF8E3D"/>
<stop offset="1" stop-color="#FF6F3D"/>
</linearGradient>
<linearGradient id="paint2_linear_125_2208" x1="89.9341" y1="56.2082" x2="110.298" y2="87.6318" gradientUnits="userSpaceOnUse">
<stop stop-color="#FFC671"/>
<stop offset="1" stop-color="#FF6F3D"/>
</linearGradient>
<clipPath id="clip0_125_2208">
<rect width="135" height="135" fill="white"/>
</clipPath>
</defs>
</svg>
