<svg width="164" height="164" viewBox="0 0 164 164" fill="none" xmlns="http://www.w3.org/2000/svg">
<g clip-path="url(#clip0_125_85)">
<path fill-rule="evenodd" clip-rule="evenodd" d="M1 61.241C1 57.2412 4.28251 54 8.33094 54H130.669C134.717 54 138 54.7658 138 58.7656V131.759C138 135.759 134.717 139 130.669 139H8.33094C4.28251 139 1 135.759 1 131.759V61.241Z" fill="white"/>
<path fill-rule="evenodd" clip-rule="evenodd" d="M82.4707 92C65.0961 104.728 66.4341 102.486 52.7861 92.4784L2.82275 136.763C3.41744 138.108 6.48997 139.045 8.32358 138.996H126.16C130.937 139.045 132.989 138.697 134.823 136.843L82.4707 92Z" fill="#EFEFEF"/>
<path fill-rule="evenodd" clip-rule="evenodd" d="M113 38L113 73.2188L138 55.913L113 38Z" fill="#BDECFF"/>
<path fill-rule="evenodd" clip-rule="evenodd" d="M62.0149 11.7234C60.2283 12.617 60.9511 15 63.0105 15H76.9896C79.0489 15 79.7717 12.6289 77.9851 11.7353L71.0024 8.23234C70.3887 7.92255 69.625 7.92255 68.9976 8.23234L62.0149 11.7234Z" fill="#BDECFF"/>
<path fill-rule="evenodd" clip-rule="evenodd" d="M26 38V75L1 56.9731L26 38Z" fill="#BDECFF"/>
<path d="M69.4881 139.5H9C4.95582 139.5 1.5 136.04 1.5 132V60C1.5 57.6614 2.6256 55.4223 4.51819 54.049L65.6869 9.39571C68.2568 7.53476 71.7432 7.53476 74.3131 9.39571L135.982 54.118C137.874 55.4913 138.5 57.6614 138.5 60V87.8047" stroke="#333333" stroke-linecap="round"/>
<path d="M113.285 73.5671L113.5 73.418V73.1562V15.4569C113.5 14.3781 112.622 13.5002 111.544 13.5002H40.9805H40.7727L40.6262 13.6474L24.6457 29.6964L24.5 29.8427V30.0492V73.3125V73.5718L24.7119 73.7211L62.5243 100.38C66.1281 102.92 70.9353 102.939 74.5585 100.426L113.285 73.5671Z" fill="white" stroke="#333333"/>
<path fill-rule="evenodd" clip-rule="evenodd" d="M86.9201 52.1819C86.9201 54.3089 86.5921 56.267 85.9361 58.0362C85.2801 59.7955 84.3657 61.1572 83.173 62.1412C82.0001 63.1252 80.6384 63.6122 79.0779 63.6122C77.9349 63.6122 76.941 63.3041 76.0961 62.6779C75.2513 62.0517 74.6847 61.2069 74.3965 60.1334H74.148C73.4324 61.2963 72.5577 62.161 71.514 62.7475C70.4704 63.3239 69.2976 63.6221 67.9856 63.6221C65.62 63.6221 63.7514 62.8369 62.3897 61.2764C61.0379 59.7159 60.362 57.5989 60.362 54.9351C60.362 51.8738 61.2665 49.379 63.0656 47.4805C64.8646 45.5622 67.2799 44.5981 70.3114 44.5981C71.4147 44.5981 72.6372 44.7075 73.9691 44.9162C75.3208 45.105 76.5136 45.3833 77.5572 45.7412L77.0801 56.1278V56.6546C77.0801 59.0401 77.8355 60.2328 79.3463 60.2328C80.4893 60.2328 81.4037 59.4774 82.0697 57.9567C82.7555 56.4359 83.0934 54.5077 83.0934 52.1521C83.0934 49.6076 82.5865 47.3712 81.5727 45.4529C80.5589 43.5147 79.1177 42.0238 77.2391 40.9901C75.3705 39.9465 73.2236 39.4296 70.7984 39.4296C67.7073 39.4296 65.0137 40.0856 62.7177 41.3976C60.4416 42.7096 58.7022 44.5782 57.4896 47.0233C56.2869 49.4486 55.6806 52.2713 55.6806 55.4818C55.6806 59.7955 56.8037 63.1152 59.06 65.441C61.3063 67.7668 64.5366 68.9298 68.7509 68.9298C71.9613 68.9298 75.301 68.2638 78.7897 66.922V70.5698C75.7383 71.8519 72.4285 72.4881 68.8404 72.4881C63.4731 72.4881 59.2886 71.0071 56.277 68.0452C53.2753 65.0633 51.7744 60.9186 51.7744 55.611C51.7744 51.7247 52.5894 48.2757 54.2096 45.2541C55.8396 42.2127 58.0859 39.8968 60.9584 38.2866C63.8508 36.6764 67.1109 35.8713 70.7587 35.8713C73.9094 35.8713 76.7124 36.5373 79.1574 37.8791C81.6224 39.2209 83.5308 41.1293 84.8825 43.6141C86.2442 46.0791 86.9201 48.9416 86.9201 52.1819ZM64.5465 55.0245C64.5465 58.4934 65.8784 60.2328 68.5322 60.2328C71.3351 60.2328 72.8658 58.0561 73.1242 53.6927L73.3827 48.3552C72.4682 48.1067 71.4942 47.9775 70.4406 47.9775C68.5819 47.9775 67.1308 48.6136 66.0871 49.8759C65.0634 51.1283 64.5465 52.8478 64.5465 55.0245Z" fill="url(#paint0_linear_125_85)"/>
<path d="M41.5 14.0002C41.5 13.798 41.3782 13.6157 41.1913 13.5383C41.0045 13.4609 40.7894 13.5037 40.6464 13.6467L24.6464 29.6467C24.5034 29.7897 24.4607 30.0047 24.5381 30.1916C24.6155 30.3784 24.7978 30.5002 25 30.5002H41C41.2761 30.5002 41.5 30.2764 41.5 30.0002V14.0002Z" fill="url(#paint1_linear_125_85)" stroke="#333333" stroke-linejoin="round"/>
<path d="M1.54639 57.0575L52.5 93.5L3.27003 137.035M137.697 56.6987L84.5 93.5L135.623 137.273" stroke="#333333"/>
<path fill-rule="evenodd" clip-rule="evenodd" d="M85.8316 107.032H119.923V99.7831C119.923 96.8742 123.18 92.5444 125.438 94.4837C133.501 101.434 141.564 108.385 149.627 115.336C166.213 129.631 168.401 125.887 150.347 141.046C141.954 148.102 133.741 155.36 125.438 162.513C123.18 164.462 119.923 160.132 119.923 157.213V149.965H85.8316C80.4262 149.965 76 145.712 76 140.518V116.478C75.99 111.285 80.4163 107.032 85.8316 107.032Z" fill="url(#paint2_linear_125_85)" stroke="#333333"/>
</g>
<defs>
<linearGradient id="paint0_linear_125_85" x1="50.85" y1="33.8003" x2="72.3795" y2="57.5144" gradientUnits="userSpaceOnUse">
<stop stop-color="#FFC671"/>
<stop offset="1" stop-color="#FF6F3D"/>
</linearGradient>
<linearGradient id="paint1_linear_125_85" x1="30.5406" y1="19.2811" x2="37.5626" y2="26.9825" gradientUnits="userSpaceOnUse">
<stop stop-color="#FFC671"/>
<stop offset="1" stop-color="#FF6F3D"/>
</linearGradient>
<linearGradient id="paint2_linear_125_85" x1="74.8807" y1="88.3038" x2="115.87" y2="135.291" gradientUnits="userSpaceOnUse">
<stop stop-color="#FFC671"/>
<stop offset="1" stop-color="#FF6F3D"/>
</linearGradient>
<clipPath id="clip0_125_85">
<rect width="164" height="164" fill="white"/>
</clipPath>
</defs>
</svg>
