<svg width="32" height="32" viewBox="0 0 32 32" fill="none" xmlns="http://www.w3.org/2000/svg">
<path d="M2.56562 1.5C1.41876 1.5 0.500488 2.44818 0.500488 3.59373V28.4063C0.500488 29.5518 1.41876 30.5 2.56562 30.5H29.4354C30.5822 30.5 31.5005 29.5518 31.5005 28.4063V3.59373C31.5005 2.44818 30.5822 1.5 29.4354 1.5H2.56562Z" fill="#EFEFEF" stroke="#333333"/>
<path fill-rule="evenodd" clip-rule="evenodd" d="M4.00049 20.0914C4.00049 19.4911 4.0007 19 4.0007 19H28.0005C28.0005 19 28.0005 19.3514 28.0005 19.6893V25.9086C28.0005 26.5089 28.0005 27 28.0005 27H5.0237C4.44405 27 4.00049 27 4.00049 27V20.0914Z" fill="white"/>
<path fill-rule="evenodd" clip-rule="evenodd" d="M14.7557 18.0002L27.5245 18C28.3263 18 28.9974 18.6436 28.9974 19.4536L28.9974 26.5464C28.9974 27.3564 28.3263 28 27.5245 28L4.49774 27.9869C4.49765 27.9869 4.49784 27.9869 4.49774 27.9869C3.68244 27.9867 3.00049 27.2846 3.00049 26.4883V19.4988C3.00049 18.7024 3.68232 18.0002 4.49774 18.0002H5.99809C6.27424 18.0002 6.49809 18.2241 6.49809 18.5002C6.49809 18.7764 6.27424 19.0002 5.99809 19.0002H4.49774C4.24305 19.0002 4.00049 19.2462 4.00049 19.4988V26.4883C4.00049 26.7409 4.24305 26.9869 4.49774 26.9869L27.5245 27C27.5246 27 27.5244 27 27.5245 27C27.7928 26.9998 27.9974 26.7853 27.9974 26.5464L27.9974 19.4536C27.9974 19.2146 27.7929 19 27.5245 19L14.7558 19.0002C14.4796 19.0002 14.2558 18.7764 14.2558 18.5002C14.2557 18.2241 14.4796 18.0002 14.7557 18.0002Z" fill="#333333"/>
<path d="M6.00049 25L5.54838 24.7865C5.47522 24.9414 5.48645 25.1229 5.57813 25.2676C5.66981 25.4123 5.82919 25.5 6.00049 25.5H15.0005C15.2766 25.5 15.5005 25.2761 15.5005 25C15.5005 24.9019 15.4722 24.8104 15.4234 24.7331L15.4215 24.7298C15.4115 24.7122 15.396 24.6854 15.375 24.6514C15.3332 24.5837 15.2715 24.4906 15.1864 24.381C15.0163 24.1617 14.7538 23.8777 14.3712 23.5969C13.5997 23.0307 12.3712 22.5 10.4953 22.5C8.6195 22.5 7.39076 23.0307 6.62036 23.5972C6.23826 23.8782 5.97632 24.1625 5.80704 24.3829C5.72245 24.493 5.66097 24.5872 5.6191 24.6571C5.59815 24.6921 5.58208 24.721 5.57045 24.7429C5.56463 24.7538 5.55992 24.763 5.55626 24.7703L5.55155 24.7798L5.54978 24.7835L5.54903 24.7851L5.5487 24.7858C5.54854 24.7861 5.54838 24.7865 6.00049 25Z" fill="#BDECFF" stroke="#333333" stroke-linejoin="round"/>
<path fill-rule="evenodd" clip-rule="evenodd" d="M9.43115 21.1377H11.4312V23.1477L10.4312 24.1377L9.43115 23.1477V21.1377Z" fill="white" stroke="#333333"/>
<path fill-rule="evenodd" clip-rule="evenodd" d="M12.4312 19.5C12.4312 20.6 11.5312 21.5 10.4312 21.5C9.33115 21.5 8.43115 20.6 8.43115 19.5C8.43115 18.4 9.33115 17.5 10.4312 17.5C11.5312 17.5 12.4312 18.39 12.4312 19.5Z" fill="white" stroke="#333333"/>
<path fill-rule="evenodd" clip-rule="evenodd" d="M10.4862 18.2424C10.8159 18.7855 11.2911 19.6388 12.1056 19.6388C12.2026 18.6303 11.1747 18 10.4862 18C9.55534 18 8.75049 18.6691 8.75049 19.7455C9.59412 19.6097 10.2729 18.9406 10.4862 18.2424Z" fill="#333333"/>
<path fill-rule="evenodd" clip-rule="evenodd" d="M17 21.5C17 21.2239 17.2239 21 17.5 21H24.5C24.7761 21 25 21.2239 25 21.5C25 21.7761 24.7761 22 24.5 22H17.5C17.2239 22 17 21.7761 17 21.5Z" fill="#333333"/>
<path fill-rule="evenodd" clip-rule="evenodd" d="M17 23.5C17 23.2239 17.2239 23 17.5 23H21.5C21.7761 23 22 23.2239 22 23.5C22 23.7761 21.7761 24 21.5 24H17.5C17.2239 24 17 23.7761 17 23.5Z" fill="#333333"/>
<path fill-rule="evenodd" clip-rule="evenodd" d="M4.00049 7.09141C4.00049 6.49113 4.0007 6 4.0007 6H28.0005C28.0005 6 28.0005 6.35141 28.0005 6.68927V12.9086C28.0005 13.5089 28.0005 14 28.0005 14H5.0237C4.44405 14 4.00049 14 4.00049 14V7.09141Z" fill="white"/>
<path fill-rule="evenodd" clip-rule="evenodd" d="M14.7557 5.00024L27.5245 5C28.3269 5 28.9974 5.64406 28.9974 6.45307L28.9974 13.5469C28.9974 14.3559 28.327 15 27.5245 15L4.49774 14.9869C4.49765 14.9869 4.49784 14.9869 4.49774 14.9869C3.68176 14.9867 3.00049 14.2841 3.00049 13.4888V6.49827C3.00049 5.70287 3.68163 5.00024 4.49774 5.00024H5.99809C6.27424 5.00024 6.49809 5.2238 6.49809 5.49958C6.49809 5.77536 6.27424 5.99892 5.99809 5.99892H4.49774C4.24373 5.99892 4.00049 6.24457 4.00049 6.49827V13.4888C4.00049 13.7425 4.24373 13.9882 4.49774 13.9882L27.5245 14.0013C27.5246 14.0013 27.5244 14.0013 27.5245 14.0013C27.7921 14.0012 27.9974 13.7869 27.9974 13.5469L27.9974 6.45307C27.9974 6.21298 27.7922 5.99869 27.5245 5.99869L14.7558 5.99892C14.4796 5.99893 14.2558 5.77537 14.2558 5.49959C14.2557 5.22381 14.4796 5.00024 14.7557 5.00024Z" fill="#333333"/>
<path d="M6.00049 12L5.54838 11.7865C5.47522 11.9414 5.48645 12.1229 5.57813 12.2676C5.66981 12.4123 5.82919 12.5 6.00049 12.5H15.0005C15.2766 12.5 15.5005 12.2761 15.5005 12C15.5005 11.9019 15.4722 11.8104 15.4234 11.7331L15.4215 11.7298C15.4115 11.7122 15.396 11.6854 15.375 11.6514C15.3332 11.5837 15.2715 11.4906 15.1864 11.381C15.0163 11.1617 14.7538 10.8777 14.3712 10.5969C13.5997 10.0307 12.3712 9.5 10.4953 9.5C8.6195 9.5 7.39076 10.0307 6.62036 10.5972C6.23826 10.8782 5.97632 11.1625 5.80704 11.3829C5.72245 11.493 5.66097 11.5872 5.6191 11.6571C5.59815 11.6921 5.58208 11.721 5.57045 11.7429C5.56463 11.7538 5.55992 11.763 5.55626 11.7703L5.55155 11.7798L5.54978 11.7835L5.54903 11.7851L5.5487 11.7858C5.54854 11.7861 5.54838 11.7865 6.00049 12Z" fill="#BDECFF" stroke="#333333" stroke-linejoin="round"/>
<path fill-rule="evenodd" clip-rule="evenodd" d="M9.43115 8.1377H11.4312V10.1477L10.4312 11.1377L9.43115 10.1477V8.1377Z" fill="white" stroke="#333333"/>
<path fill-rule="evenodd" clip-rule="evenodd" d="M12.4312 6.5C12.4312 7.6 11.5312 8.5 10.4312 8.5C9.33115 8.5 8.43115 7.6 8.43115 6.5C8.43115 5.4 9.33115 4.5 10.4312 4.5C11.5312 4.5 12.4312 5.39 12.4312 6.5Z" fill="white" stroke="#333333"/>
<path fill-rule="evenodd" clip-rule="evenodd" d="M10.4862 5.24242C10.8159 5.78546 11.2911 6.63879 12.1056 6.63879C12.2026 5.6303 11.1747 5 10.4862 5C9.55534 5 8.75049 5.66909 8.75049 6.74546C9.59412 6.6097 10.2729 5.94061 10.4862 5.24242Z" fill="#333333"/>
<path fill-rule="evenodd" clip-rule="evenodd" d="M17 8.5C17 8.22386 17.2239 8 17.5 8H24.5C24.7761 8 25 8.22386 25 8.5C25 8.77614 24.7761 9 24.5 9H17.5C17.2239 9 17 8.77614 17 8.5Z" fill="#333333"/>
<path fill-rule="evenodd" clip-rule="evenodd" d="M17 10.5C17 10.2239 17.2239 10 17.5 10H21.5C21.7761 10 22 10.2239 22 10.5C22 10.7761 21.7761 11 21.5 11H17.5C17.2239 11 17 10.7761 17 10.5Z" fill="#333333"/>
</svg>
