<svg width="100" height="100" viewBox="0 0 100 100" fill="none" xmlns="http://www.w3.org/2000/svg">
<path d="M0 55.5327C0 73.6717 20.7444 93.9998 48.9426 93.9998C77.1408 93.9998 100 94.1014 100 64.9114C100 51.2124 93.6556 47.3979 82.1752 40.2049C75.4072 35.9644 78.9273 29.897 76.1329 21.4404C74.5627 16.6884 67.1707 8.16736 48.9426 7.05431C28.3988 5.79986 0 26.3427 0 55.5327Z" fill="#F1F9FF"/>
<path d="M86.5699 82.1362H13.4302C11.0998 82.1362 9.21054 80.0918 9.21054 77.5698V22.771C9.21054 20.249 11.0998 18.2044 13.4302 18.2044H86.5699C88.9003 18.2044 90.7895 20.249 90.7895 22.771V77.5696C90.7895 80.0918 88.9003 82.1362 86.5699 82.1362Z" fill="#7DD5FD"/>
<g clip-path="url(#clip0)">
<path d="M74.7554 42.799C74.8224 43.3624 75.309 43.7783 75.8732 43.7783C75.912 43.7783 75.9578 43.776 76.0025 43.7714C76.6184 43.7011 77.0603 43.1561 76.9945 42.5501L76.2305 35.9792C76.1964 35.6566 76.0142 35.3662 75.738 35.1842C75.4618 35.0067 75.121 34.9526 74.8001 35.0425L68.2216 36.8825C67.6245 37.0496 67.2825 37.6602 67.4459 38.2467C67.6198 38.8308 68.2369 39.1719 68.8363 39.0048L72.7326 37.9126C71.0413 40.7008 67.1462 45.9317 59.9354 49.9621C49.6945 55.6826 42.3062 55.0881 42.231 55.0824C41.6162 55.0236 41.0662 55.4683 41.0062 56.0744C40.9439 56.6793 41.4 57.222 42.0159 57.2784C42.0793 57.2853 42.4178 57.3153 43.0102 57.3153C45.4738 57.3153 52.2497 56.798 61.0496 51.8781C68.3251 47.8144 72.4059 42.6492 74.3652 39.5371L74.7554 42.799Z" fill="#0F4071"/>
<path d="M75.1667 49H71.8333C71.3762 49 71 49.4879 71 50.0859V70.9141C71 71.5132 71.3762 72 71.8333 72H75.1667C75.6238 72 76 71.5132 76 70.9141V50.0871C76 49.4879 75.6238 49 75.1667 49Z" fill="#0F4071"/>
<path d="M65.1677 55H61.8332C61.377 55 61 55.4991 61 56.1107V70.8893C61 71.5009 61.377 72 61.8332 72H65.1677C65.6248 72 66 71.5009 66 70.8893V56.1107C66 55.4991 65.6239 55 65.1677 55Z" fill="#0F4071"/>
<path d="M55.1668 59H51.8323C51.3752 59 51 59.5025 51 60.1209V70.8791C51 71.4964 51.3752 72 51.8323 72H55.1668C55.623 72 56 71.4964 56 70.8791V60.1209C56 59.5025 55.623 59 55.1668 59Z" fill="#0F4071"/>
<path d="M45.1658 61H41.8333C41.3762 61 41 61.4829 41 62.0672V70.9328C41 71.5205 41.3762 72 41.8333 72H45.1658C45.6247 72 46 71.5205 46 70.9328V62.0672C46 61.4818 45.6238 61 45.1658 61Z" fill="#0F4071"/>
</g>
<g filter="url(#filter0_d)">
<path d="M13.4302 82.1368H28.902V18.2052H13.4302C11.0998 18.2052 9.21054 20.2496 9.21054 22.7716V77.5702C9.21054 80.0924 11.0998 82.1368 13.4302 82.1368Z" fill="white"/>
</g>
<path d="M40.1541 25.8155H34.528C33.7506 25.8155 33.1214 25.1347 33.1214 24.2933C33.1214 23.4519 33.7505 22.771 34.528 22.771H40.1541C40.9315 22.771 41.5607 23.4518 41.5607 24.2933C41.5605 25.1346 40.9315 25.8155 40.1541 25.8155Z" fill="white"/>
<path d="M23.2756 25.8155H14.8363C14.0589 25.8155 13.4297 25.1347 13.4297 24.2933C13.4297 23.4519 14.0588 22.771 14.8363 22.771H23.2756C24.053 22.771 24.6822 23.4518 24.6822 24.2933C24.682 25.1346 24.053 25.8155 23.2756 25.8155Z" fill="#959CB5"/>
<path d="M23.2757 41.0372H14.8364C14.059 41.0372 13.4298 40.3565 13.4298 39.515C13.4298 38.6735 14.0589 37.9927 14.8364 37.9927H23.2757C24.0531 37.9927 24.6823 38.6735 24.6823 39.515C24.6823 40.3565 24.0531 41.0372 23.2757 41.0372Z" fill="#959CB5"/>
<path d="M23.2756 53.2147H14.8363C14.0589 53.2147 13.4297 52.5339 13.4297 51.6925C13.4297 50.8511 14.0588 50.1702 14.8363 50.1702H23.2756C24.053 50.1702 24.6822 50.851 24.6822 51.6925C24.682 52.5339 24.053 53.2147 23.2756 53.2147Z" fill="#959CB5"/>
<path d="M23.2756 65.3923H14.8363C14.0589 65.3923 13.4297 64.7115 13.4297 63.8701C13.4297 63.0286 14.0588 62.3478 14.8363 62.3478H23.2756C24.053 62.3478 24.6822 63.0286 24.6822 63.8701C24.6822 64.7115 24.053 65.3923 23.2756 65.3923Z" fill="#959CB5"/>
<path d="M23.2756 47.1261H14.8363C14.0589 47.1261 13.4297 46.4454 13.4297 45.6039C13.4297 44.7624 14.0588 44.0816 14.8363 44.0816H23.2756C24.053 44.0816 24.6822 44.7624 24.6822 45.6039C24.6822 46.4454 24.053 47.1261 23.2756 47.1261Z" fill="#959CB5"/>
<path d="M23.2756 59.3035H14.8363C14.0589 59.3035 13.4297 58.6227 13.4297 57.7813C13.4297 56.9399 14.0588 56.259 14.8363 56.259H23.2756C24.053 56.259 24.6822 56.9398 24.6822 57.7813C24.682 58.6226 24.053 59.3035 23.2756 59.3035Z" fill="#959CB5"/>
<path d="M20.4626 74.5253H14.8363C14.0589 74.5253 13.4297 73.8445 13.4297 73.003C13.4297 72.1615 14.0588 71.4808 14.8363 71.4808H20.4624C21.2398 71.4808 21.869 72.1615 21.869 73.003C21.869 73.8445 21.2399 74.5253 20.4626 74.5253Z" fill="#959CB5"/>
<path d="M20.4626 31.9041H14.8364C14.059 31.9041 13.4298 31.2233 13.4298 30.3818C13.4298 29.5403 14.0589 28.8596 14.8364 28.8596H20.4625C21.2399 28.8596 21.8691 29.5403 21.8691 30.3818C21.8691 31.2233 21.24 31.9041 20.4626 31.9041Z" fill="#FF507D"/>
<path d="M51.4065 25.8155H45.7804C45.003 25.8155 44.3738 25.1347 44.3738 24.2933C44.3738 23.4519 45.0028 22.771 45.7804 22.771H51.4065C52.1838 22.771 52.8131 23.4518 52.8131 24.2933C52.8129 25.1346 52.1838 25.8155 51.4065 25.8155Z" fill="#FF507D"/>
<path d="M62.6588 25.8155H57.0328C56.2554 25.8155 55.6262 25.1347 55.6262 24.2933C55.6262 23.4519 56.2552 22.771 57.0328 22.771H62.6588C63.4362 22.771 64.0654 23.4518 64.0654 24.2933C64.0654 25.1346 63.4364 25.8155 62.6588 25.8155Z" fill="white"/>
<path d="M73.9112 25.8157H68.2851C67.5077 25.8157 66.8785 25.1349 66.8785 24.2934C66.8785 23.4521 67.5076 22.7712 68.2851 22.7712H73.9112C74.6886 22.7712 75.3178 23.4519 75.3178 24.2934C75.3178 25.1347 74.6886 25.8157 73.9112 25.8157Z" fill="white"/>
<path d="M85.1633 25.8157H79.5373C78.7599 25.8157 78.1307 25.1349 78.1307 24.2934C78.1307 23.4521 78.7597 22.7712 79.5373 22.7712H85.1633C85.9407 22.7712 86.5699 23.4519 86.5699 24.2934C86.5698 25.1347 85.9407 25.8157 85.1633 25.8157Z" fill="white"/>
<defs>
<filter id="filter0_d" x="1.3158" y="10.3105" width="35.4809" height="79.7211" filterUnits="userSpaceOnUse" color-interpolation-filters="sRGB">
<feFlood flood-opacity="0" result="BackgroundImageFix"/>
<feColorMatrix in="SourceAlpha" type="matrix" values="0 0 0 0 0 0 0 0 0 0 0 0 0 0 0 0 0 0 127 0"/>
<feOffset/>
<feGaussianBlur stdDeviation="3.94737"/>
<feColorMatrix type="matrix" values="0 0 0 0 0 0 0 0 0 0 0 0 0 0 0 0 0 0 0.08 0"/>
<feBlend mode="normal" in2="BackgroundImageFix" result="effect1_dropShadow"/>
<feBlend mode="normal" in="SourceGraphic" in2="effect1_dropShadow" result="shape"/>
</filter>
<clipPath id="clip0">
<rect width="36" height="37" fill="white" transform="translate(41 35)"/>
</clipPath>
</defs>
</svg>
