<svg width="100" height="100" viewBox="0 0 100 100" fill="none" xmlns="http://www.w3.org/2000/svg">
<path d="M7 6.5H93C94.933 6.5 96.5 8.067 96.5 10V90C96.5 91.933 94.933 93.5 93 93.5H7C5.067 93.5 3.5 91.933 3.5 90V10C3.5 8.067 5.067 6.5 7 6.5Z" fill="white" stroke="#333333"/>
<path d="M46 82.5V67.5C46 66.1193 44.8661 65 43.4854 65C42.1046 65 41 66.1193 41 67.5V82.5C41 83.8807 42.1046 85 43.4854 85C44.8661 85 46 83.8807 46 82.5Z" fill="url(#paint0_linear)"/>
<path d="M56 82.5V64.5C56 63.1193 54.8661 62 53.4854 62C52.1046 62 51 63.1193 51 64.5V82.5C51 83.8807 52.1046 85 53.4854 85C54.8661 85 56 83.8807 56 82.5Z" fill="url(#paint1_linear)"/>
<path d="M66 82.5V59.5C66 58.1193 64.8661 57 63.4854 57C62.1046 57 61 58.1193 61 59.5V82.5C61 83.8807 62.1046 85 63.4854 85C64.8661 85 66 83.8807 66 82.5Z" fill="url(#paint2_linear)"/>
<path d="M76 82.5V56.5C76 55.1193 74.8661 54 73.4854 54C72.1046 54 71 55.1193 71 56.5V82.5C71 83.8807 72.1046 85 73.4854 85C74.8661 85 76 83.8807 76 82.5Z" fill="url(#paint3_linear)"/>
<path d="M86 82.5V48.5C86 47.1193 84.8661 46 83.4854 46C82.1046 46 81 47.1193 81 48.5V82.5C81 83.8807 82.1046 85 83.4854 85C84.8661 85 86 83.8807 86 82.5Z" fill="url(#paint4_linear)"/>
<path d="M4 10.9438C4 8.74552 5.85105 7 8 7H29V93H8C5.96468 93 4 90.9776 4 89.0562V10.9438Z" fill="#EFEFEF"/>
<path fill-rule="evenodd" clip-rule="evenodd" d="M12.5 19H19.5C19.7761 19 20 18.7761 20 18.5C20 18.2239 19.7761 18 19.5 18H12.5C12.2239 18 12 18.2239 12 18.5C12 18.7761 12.2239 19 12.5 19ZM12.5 55H19.5C19.7761 55 20 54.7761 20 54.5C20 54.2239 19.7761 54 19.5 54H12.5C12.2239 54 12 54.2239 12 54.5C12 54.7761 12.2239 55 12.5 55ZM19.5 37H12.5C12.2239 37 12 36.7761 12 36.5C12 36.2239 12.2239 36 12.5 36H19.5C19.7761 36 20 36.2239 20 36.5C20 36.7761 19.7761 37 19.5 37ZM12.5 73H19.5C19.7761 73 20 72.7761 20 72.5C20 72.2239 19.7761 72 19.5 72H12.5C12.2239 72 12 72.2239 12 72.5C12 72.7761 12.2239 73 12.5 73ZM19.5 28H12.5C12.2239 28 12 27.7761 12 27.5C12 27.2239 12.2239 27 12.5 27H19.5C19.7761 27 20 27.2239 20 27.5C20 27.7761 19.7761 28 19.5 28ZM12.5 64H19.5C19.7761 64 20 63.7761 20 63.5C20 63.2239 19.7761 63 19.5 63H12.5C12.2239 63 12 63.2239 12 63.5C12 63.7761 12.2239 64 12.5 64ZM19.5 46H12.5C12.2239 46 12 45.7761 12 45.5C12 45.2239 12.2239 45 12.5 45H19.5C19.7761 45 20 45.2239 20 45.5C20 45.7761 19.7761 46 19.5 46ZM12.5 82H19.5C19.7761 82 20 81.7761 20 81.5C20 81.2239 19.7761 81 19.5 81H12.5C12.2239 81 12 81.2239 12 81.5C12 81.7761 12.2239 82 12.5 82Z" fill="#333333"/>
<path d="M55.8187 14.7078C57.9755 14.7078 62 17.5 62.5 19L53.5 25L55.8187 14.7078Z" fill="#CCE9FF"/>
<path fill-rule="evenodd" clip-rule="evenodd" d="M62.1365 18.6732C61.4893 17.8248 60.4535 16.9504 59.2486 16.2241C58.0587 15.507 56.8436 15.0181 55.8768 14.8295L53.9568 24.4734L62.1365 18.6732ZM63.4854 18.9426C62.1912 16.3427 57.6618 13.7427 55.0736 13.7427L52.4854 26.7427L63.4854 18.9426Z" fill="#333333"/>
<path fill-rule="evenodd" clip-rule="evenodd" d="M52.998 14.456C53.0228 14.7316 52.8199 14.9751 52.5449 15C47.1937 15.4831 43 19.9899 43 25.4776C43 31.2879 47.701 35.998 53.5 35.998C59.299 35.998 64 31.2879 64 25.4776C64 24.8237 64 23.4751 63.6584 22.6452C63.6085 22.3731 63.7882 22.112 64.0598 22.062C64.3314 22.012 64.592 22.1921 64.6419 22.4642C64.9022 23.3134 65 24.7627 65 25.4776C65 31.8412 59.8513 37 53.5 37C47.1487 37 42 31.8412 42 25.4776C42 19.4667 46.5933 14.5313 52.4551 14.0021C52.7302 13.9772 52.9732 14.1805 52.998 14.456Z" fill="#333333"/>
<path fill-rule="evenodd" clip-rule="evenodd" d="M87.6441 30.7033C74.5642 46.9247 53.5803 55.9208 38.5105 56.8213L38.3845 55.7583C53.1943 54.8733 73.9095 46.0019 86.8133 30.0221L83.4848 30.2613C83.2042 30.2815 82.946 30.0601 82.908 29.7667C82.87 29.4734 83.0666 29.2192 83.3472 29.1991L87.9194 28.8705C88.2 28.8503 88.4582 29.0718 88.4962 29.3651L89.1154 34.1453C89.1534 34.4386 88.9568 34.6928 88.6762 34.7129C88.3956 34.7331 88.1374 34.5117 88.0994 34.2183L87.6441 30.7033Z" fill="#333333"/>
<defs>
<linearGradient id="paint0_linear" x1="43.5" y1="65" x2="43.5" y2="85" gradientUnits="userSpaceOnUse">
<stop stop-color="#FF8E3D"/>
<stop offset="1" stop-color="#FF6F3D"/>
</linearGradient>
<linearGradient id="paint1_linear" x1="53.5" y1="62" x2="53.5" y2="85" gradientUnits="userSpaceOnUse">
<stop stop-color="#FF8E3D"/>
<stop offset="1" stop-color="#FF6F3D"/>
</linearGradient>
<linearGradient id="paint2_linear" x1="63.5" y1="57" x2="63.5" y2="85" gradientUnits="userSpaceOnUse">
<stop stop-color="#FF8E3D"/>
<stop offset="1" stop-color="#FF6F3D"/>
</linearGradient>
<linearGradient id="paint3_linear" x1="73.5" y1="54" x2="73.5" y2="85" gradientUnits="userSpaceOnUse">
<stop stop-color="#FF8E3D"/>
<stop offset="1" stop-color="#FF6F3D"/>
</linearGradient>
<linearGradient id="paint4_linear" x1="83.5" y1="46" x2="83.5" y2="85" gradientUnits="userSpaceOnUse">
<stop stop-color="#FF8E3D"/>
<stop offset="1" stop-color="#FF6F3D"/>
</linearGradient>
</defs>
</svg>
