<svg width="135" height="135" viewBox="0 0 135 135" fill="none" xmlns="http://www.w3.org/2000/svg">
<path fill-rule="evenodd" clip-rule="evenodd" d="M67.5 9.99994C63.6715 9.99994 59.9309 10.374 56.3126 11.0875C56.0417 11.1409 55.7788 10.9646 55.7253 10.6937C55.6719 10.4227 55.8482 10.1598 56.1192 10.1064C59.8009 9.38042 63.6062 8.99994 67.5 8.99994C99.8087 8.99994 126 35.1913 126 67.4999C126 78.2559 123.097 88.3353 118.031 96.9956C117.891 97.2339 117.585 97.3141 117.347 97.1747C117.108 97.0352 117.028 96.729 117.168 96.4906C122.146 87.9794 125 78.0737 125 67.4999C125 35.7436 99.2564 9.99994 67.5 9.99994ZM45.0327 14.0096C45.142 14.2632 45.0249 14.5573 44.7713 14.6666C35.8637 18.5037 28.119 24.5281 22.2141 32.0637C22.0438 32.2811 21.7295 32.3192 21.5121 32.1489C21.2948 31.9785 21.2566 31.6643 21.427 31.4469C27.4338 23.7813 35.3124 17.6524 44.3757 13.7482C44.6293 13.6389 44.9235 13.756 45.0327 14.0096ZM15.7171 41.3422C15.9645 41.4647 16.0658 41.7647 15.9432 42.0121C12.1387 49.693 10 58.346 10 67.4999C10 99.2563 35.7436 125 67.5 125C72.7543 125 77.8433 124.295 82.6779 122.976C82.9443 122.903 83.2192 123.06 83.2919 123.326C83.3646 123.593 83.2076 123.868 82.9412 123.94C78.0216 125.283 72.8441 126 67.5 126C35.1913 126 9 99.8086 9 67.4999C9 58.1886 11.1758 49.3841 15.0471 41.5683C15.1697 41.3208 15.4696 41.2196 15.7171 41.3422ZM109.933 107.043C110.134 107.233 110.142 107.55 109.952 107.75C105.049 112.919 99.2123 117.194 92.7109 120.304C92.4618 120.423 92.1633 120.317 92.0441 120.068C91.925 119.819 92.0303 119.521 92.2795 119.402C98.6692 116.345 104.407 112.144 109.227 107.062C109.417 106.862 109.733 106.853 109.933 107.043Z" fill="#333333"/>
<path fill-rule="evenodd" clip-rule="evenodd" d="M80.1717 118.105C80.3085 117.875 80.605 117.801 80.8339 117.941L86.6077 121.472C87.2945 121.892 87.5185 122.794 87.1081 123.487L83.6574 129.309C83.5206 129.54 83.2241 129.613 82.9952 129.473C82.7662 129.333 82.6916 129.033 82.8284 128.802L86.279 122.98C86.4159 122.749 86.3412 122.448 86.1123 122.308L80.3385 118.777C80.1095 118.637 80.0349 118.336 80.1717 118.105Z" fill="#333333"/>
<path fill-rule="evenodd" clip-rule="evenodd" d="M59.8317 15.8895C59.6877 16.1159 59.389 16.1801 59.1646 16.0329L53.5055 12.3206C52.8324 11.8791 52.637 10.9705 53.0692 10.2913L56.7025 4.58119C56.8466 4.35479 57.1452 4.29058 57.3696 4.43777C57.594 4.58496 57.6591 4.88781 57.5151 5.11421L53.8818 10.8243C53.7377 11.0507 53.8028 11.3536 54.0272 11.5008L59.6863 15.213C59.9107 15.3602 59.9758 15.6631 59.8317 15.8895Z" fill="#333333"/>
<path fill-rule="evenodd" clip-rule="evenodd" d="M71.7316 56.1571L56.9303 70.3747C56.1422 71.1865 56.159 72.4957 56.9647 73.2823L81.1026 96.7973C81.914 97.5859 83.2226 97.569 84.0088 96.763L97.8101 81.5455C98.5982 80.7336 98.5814 79.4244 97.7757 78.6378L74.6436 56.1247C73.8264 55.3343 72.5197 55.3453 71.7316 56.1571ZM45.541 56.293C48.3425 59.0239 52.7723 58.7965 55.5 55.9995C58.2297 53.1967 58.2212 48.8817 55.4255 46.1527C52.6298 43.4236 48.1432 43.4813 45.4155 46.2783C42.7177 49.0458 42.809 53.6171 45.541 56.293ZM33.7691 34.9198C35.2351 33.371 38.1036 34.1761 45.748 34.4884C51.5979 34.7339 57.4092 34.941 63.2475 35.1634L65.015 35.2341C65.8458 35.2648 66.0544 35.4493 67.1073 36.4783L108.513 76.8597C110.461 78.756 110.499 81.9027 108.604 83.8511L84.5637 108.512C82.6684 110.46 79.5231 110.499 77.5756 108.603L36.1757 68.2233C35.1169 67.1924 34.9275 66.9885 34.8734 66.1615L34.7572 64.3955C34.5587 61.3437 34.3717 58.2957 34.1771 55.2516C34.0948 53.9657 34.0106 52.6856 33.9341 51.4016C33.8378 49.9056 33.7415 48.4095 33.6395 46.9116C33.1326 39.2753 32.4389 36.3252 33.7691 34.9198Z" fill="#BDECFF"/>
<path d="M34.1771 55.2516C34.3717 58.2957 34.5587 61.3437 34.7572 64.3955L34.8734 66.1615C34.9275 66.9885 35.1169 67.1924 36.1757 68.2233L77.5756 108.603C79.5231 110.499 82.6684 110.46 84.5637 108.512L108.604 83.8511C110.499 81.9027 110.461 78.756 108.513 76.8597L67.1073 36.4783C66.0544 35.4493 65.8458 35.2648 65.015 35.2341L63.2475 35.1634C57.4092 34.941 51.5979 34.7339 45.748 34.4884C38.1036 34.1761 35.2351 33.371 33.7691 34.9198C32.4389 36.3252 33.1326 39.2753 33.6395 46.9116" stroke="#333333"/>
<path d="M44.1242 54.1021C46.0002 57.4852 50.2609 58.7059 53.6403 56.8362C57.0232 54.9616 58.2426 50.7019 56.3764 47.3258C54.5003 43.9427 50.2431 42.717 46.8602 44.5916C45.6812 45.2442 44.7648 46.184 44.1524 47.278" stroke="#333333" stroke-linecap="round"/>
<path fill-rule="evenodd" clip-rule="evenodd" d="M49.7458 50.6451C49.7593 50.1168 49.3182 49.6614 48.7605 49.628L25.0408 48.2079C24.4831 48.1745 24.0201 48.5757 24.0066 49.1041C23.9931 49.6324 24.4342 50.0878 24.9919 50.1211L48.7116 51.5413C49.2692 51.5747 49.7323 51.1735 49.7458 50.6451Z" fill="#333333"/>
<path fill-rule="evenodd" clip-rule="evenodd" d="M71.3672 54.6192L55.5801 70.8951C54.7927 71.7098 54.8094 73.0237 55.6144 73.8132L80.7297 98.4165C81.5405 99.2078 82.8479 99.191 83.6334 98.382L99.4205 82.1061C100.208 81.2913 100.189 79.9832 99.3862 79.188L74.2708 54.5847C73.4601 53.7933 72.1546 53.8044 71.3672 54.6192Z" fill="url(#paint0_linear_125_2447)"/>
<path d="M71.7261 54.9673L71.7267 54.9666C72.319 54.3538 73.3064 54.3422 73.9214 54.9423C73.9214 54.9424 73.9215 54.9424 73.9216 54.9425L99.0344 79.5433C99.0347 79.5436 99.035 79.5439 99.0353 79.5442C99.6438 80.1478 99.6568 81.1417 99.0613 81.7582C99.0612 81.7584 99.0611 81.7585 99.061 81.7586L83.2747 98.0337C82.6827 98.6433 81.6926 98.6576 81.0791 98.0588C81.079 98.0587 81.079 98.0587 81.079 98.0587L55.9645 73.4562C55.3567 72.8602 55.3422 71.8613 55.9391 71.2431C55.9392 71.2429 55.9394 71.2427 55.9396 71.2426L71.7261 54.9673Z" stroke="#333333"/>
<path fill-rule="evenodd" clip-rule="evenodd" d="M68.0506 83.1003L69.5794 81.5708C68.8961 80.722 68.435 79.9489 68.1958 79.2261C67.9567 78.5118 67.9396 77.705 68.1275 76.8142C68.3239 75.9234 68.7937 75.0578 69.5281 74.2006L71.3814 75.4108C70.6811 76.352 70.2797 77.1672 70.2028 77.8479C70.0918 78.8143 70.3138 79.6295 70.8604 80.285L75.66 75.478C75.1818 74.6964 74.7975 73.7972 74.4986 72.7888C74.2765 72.0408 74.268 71.2929 74.4815 70.5533C74.695 69.8138 75.1049 69.1331 75.7198 68.5196C76.8044 67.4355 78.0769 66.9313 79.5373 67.0069C80.5109 67.0573 81.5699 67.5364 82.6972 68.4272L83.4232 67.696L84.3455 68.5868L83.6196 69.318C84.4309 70.276 84.8836 71.2256 84.9775 72.1753C85.0971 73.3854 84.7384 74.5452 83.91 75.6545L82.0738 74.3603C82.5862 73.6628 82.8595 73.0157 82.8937 72.4106C82.9278 71.8055 82.7399 71.2088 82.3386 70.6122L77.9403 75.0242C78.521 75.9738 78.8883 76.6293 79.0335 76.9823C79.3067 77.663 79.4434 78.2933 79.4519 78.89C79.4605 79.4866 79.3409 80.0665 79.0847 80.638C78.837 81.2094 78.4698 81.7389 77.9915 82.2179C76.9326 83.2768 75.7113 83.8314 74.3192 83.8819C72.9272 83.9323 71.6717 83.4533 70.5273 82.4532L68.9815 83.9995L68.0506 83.1003ZM81.4333 69.6961C80.7415 69.2087 80.0241 68.9818 79.2982 69.0322C78.5637 69.0827 77.9403 69.3684 77.4108 69.8978C76.8899 70.4189 76.5995 70.9987 76.5397 71.6374C76.4885 72.2761 76.719 73.0241 77.2485 73.8897L81.4333 69.6961ZM71.7913 81.1674C72.466 81.6801 73.2261 81.8985 74.063 81.8397C74.8914 81.7809 75.643 81.4195 76.292 80.7724C76.8471 80.2178 77.1546 79.6379 77.2144 79.0244C77.2742 78.4194 76.9838 77.6042 76.3689 76.5873L71.7913 81.1674Z" fill="#FEFEFE"/>
<defs>
<linearGradient id="paint0_linear_125_2447" x1="59.365" y1="53.6408" x2="83.3402" y2="76.7196" gradientUnits="userSpaceOnUse">
<stop stop-color="#FFC671"/>
<stop offset="1" stop-color="#FF6F3D"/>
</linearGradient>
</defs>
</svg>
