<svg width="32" height="32" viewBox="0 0 32 32" fill="none" xmlns="http://www.w3.org/2000/svg">
<path fill-rule="evenodd" clip-rule="evenodd" d="M5.00003 5.68999C4.99869 5.46851 5.04379 5.24897 5.13275 5.04398C5.22171 4.839 5.35277 4.65262 5.5184 4.49556C5.68402 4.33851 5.88094 4.21387 6.09782 4.12882C6.31471 4.04378 6.54729 4 6.78219 4H24.2168C24.4517 4 24.6842 4.04378 24.9011 4.12882C25.118 4.21387 25.3149 4.33851 25.4806 4.49556C25.6462 4.65262 25.7772 4.839 25.8662 5.04398C25.9552 5.24897 26.0003 5.46851 25.9989 5.68999V29.2908C26.0071 29.5101 25.9688 29.7287 25.8863 29.9339C25.8039 30.1391 25.6789 30.3267 25.5187 30.4858C25.3584 30.6449 25.1662 30.7724 24.9531 30.8607C24.7401 30.9489 24.5105 30.9963 24.2779 31H6.78219C6.54729 31 6.31471 30.9562 6.09782 30.8712C5.88094 30.7861 5.68402 30.6615 5.5184 30.5044C5.35277 30.3474 5.22171 30.161 5.13275 29.956C5.04379 29.751 4.99869 29.5315 5.00003 29.31V5.68999Z" fill="#EFEFEF"/>
<path d="M6.78219 4C5.85316 3.99999 4.99428 4.741 5.00003 5.68999V29.31C4.99869 29.5315 5.04379 29.751 5.13275 29.956C5.22171 30.161 5.35277 30.3474 5.5184 30.5044C5.68402 30.6615 5.88094 30.7861 6.09782 30.8712C6.31471 30.9562 6.54729 31 6.78219 31H24.2779C24.5105 30.9963 24.7401 30.9489 24.9531 30.8607C25.1662 30.7724 25.3584 30.6449 25.5187 30.4858C25.6789 30.3267 25.8039 30.1391 25.8863 29.9339C25.9688 29.7287 26.0071 29.5101 25.9989 29.2908V5.68999C26.0047 4.741 25.1458 3.99999 24.2168 4" stroke="#333333" stroke-linecap="round" stroke-linejoin="round"/>
<path fill-rule="evenodd" clip-rule="evenodd" d="M17.1847 2.34886C17.1537 1.98122 16.9834 1.63844 16.7074 1.38857C16.4314 1.1387 16.07 1 15.6948 1C15.3196 1 14.9582 1.1387 14.6822 1.38857C14.4062 1.63844 14.2359 1.98122 14.2049 2.34886H9.21748C9.12133 2.34754 9.02584 2.36485 8.93649 2.39982C8.84714 2.43479 8.76567 2.48672 8.69673 2.55265C8.62779 2.61858 8.57273 2.69722 8.53471 2.78408C8.49668 2.87093 8.47642 2.96431 8.4751 3.05886L8.4754 3.63467C8.47672 3.72922 8.49698 3.8226 8.53501 3.90945C8.57303 3.99631 8.62809 4.07495 8.69703 4.14088C8.76597 4.20681 8.84744 4.25874 8.93679 4.29371C9.02614 4.32868 9.12162 4.34599 9.21778 4.34467H21.7327C21.8289 4.34599 21.9244 4.32868 22.0137 4.29371C22.1031 4.25874 22.1845 4.20681 22.2535 4.14088C22.3224 4.07495 22.3775 3.99631 22.4155 3.90945C22.4535 3.8226 22.4738 3.72922 22.4751 3.63467L22.4748 3.05886C22.4735 2.96431 22.4532 2.87093 22.4152 2.78408C22.3772 2.69722 22.3221 2.61858 22.2532 2.55265C22.1842 2.48672 22.1028 2.43479 22.0134 2.39982C21.9241 2.36485 21.8286 2.34754 21.7324 2.34886H17.1847Z" fill="url(#paint0_linear_125_5903)" stroke="#333333"/>
<path d="M20.2169 28.1698L20.2168 28.1696C19.9916 28.3826 19.6933 28.5012 19.383 28.4999M20.2169 28.1698L19.3814 28.4999C19.3819 28.4999 19.3825 28.4999 19.383 28.4999M20.2169 28.1698L20.2255 28.1612L23.1478 25.2604C23.1484 25.2599 23.1489 25.2593 23.1495 25.2588C23.2633 25.1472 23.3529 25.0134 23.4131 24.866C23.4728 24.7196 23.5023 24.5627 23.4999 24.4047V7.69687C23.4999 7.38091 23.3755 7.07698 23.1528 6.85218C22.9299 6.62722 22.6266 6.5 22.3093 6.5H8.69053C8.3733 6.5 8.06999 6.62722 7.84709 6.85218C7.62433 7.07698 7.5 7.38091 7.5 7.69687V27.3127C7.5 27.3127 7.5 27.3127 7.5 27.3127C7.49999 27.4694 7.53083 27.6246 7.59083 27.7694C7.65085 27.9142 7.73891 28.0458 7.85013 28.1565C7.96135 28.2672 8.09352 28.3547 8.23907 28.4138C8.3834 28.4723 8.5379 28.5016 8.69368 28.4999M20.2169 28.1698L8.69368 28.4999M19.383 28.4999H8.69368M19.383 28.4999H8.69368" fill="white" stroke="#333333"/>
<path fill-rule="evenodd" clip-rule="evenodd" d="M11.0136 12.5684C11.0136 12.2823 11.0771 11.9961 11.3631 11.9961H16.8486C17.1188 12.0203 17.3626 11.7978 17.3675 11.5299C17.3731 11.2536 17.1247 10.9999 16.8486 11H11.3842C10.9924 11.0095 10.6113 11.1878 10.3527 11.4825C10.094 11.7772 9.96651 12.1783 10.0076 12.5684V20.4739C10.0019 20.8762 10.1635 21.2747 10.4479 21.5593C10.7322 21.8438 11.1304 22.0056 11.5325 21.9998H19.4325C19.8481 21.9998 20.2468 21.8346 20.5407 21.5405C20.8346 21.2464 20.9998 20.8474 20.9998 20.4315V16.4999C20.9998 16.2357 20.7661 16.0019 20.502 16.0019C20.238 16.0019 20.0043 16.2357 20.0043 16.4999V20.4633C20.0043 20.7494 19.962 21.0355 19.676 21.0355H11.3842C11.0983 21.0355 11.0136 20.7176 11.0136 20.4315V12.5684ZM20.9928 11.3964C20.9711 11.2651 20.8993 11.1474 20.7926 11.0685C20.6885 11.0081 20.5665 10.9867 20.4481 11.0081C20.3298 11.0296 20.2229 11.0925 20.1463 11.1858L15.4948 17.7193L13.8525 16.1312C13.7593 16.0388 13.6337 15.987 13.5028 15.987C13.3719 15.987 13.2463 16.0388 13.1531 16.1312C13.1047 16.1771 13.0661 16.2324 13.0398 16.2938C13.0134 16.3552 12.9998 16.4214 12.9998 16.4883C12.9998 16.5552 13.0134 16.6214 13.0398 16.6828C13.0661 16.7442 13.1047 16.7995 13.1531 16.8453L15.1557 18.8491C15.2059 18.9017 15.2672 18.9425 15.335 18.9683C15.4028 18.9941 15.4755 19.0044 15.5478 18.9983C15.6196 18.9912 15.689 18.9684 15.7512 18.9316C15.8134 18.8948 15.8669 18.8448 15.908 18.7852L20.9092 11.772C20.9846 11.6625 21.0146 11.5278 20.9928 11.3964Z" fill="url(#paint1_linear_125_5903)"/>
<path fill-rule="evenodd" clip-rule="evenodd" d="M20.0895 24L23 24.0002L22.9999 25.0016L20.1135 25.0015C20.0848 25.0041 20.058 25.0169 20.038 25.0377C20.0166 25.0599 20.0046 25.0896 20.0047 25.1204V28H19L19 25.121C19 25.1209 19 25.1211 19 25.121C18.9999 24.8315 19.1121 24.553 19.3133 24.3441C19.5145 24.1352 19.7891 24.012 20.0794 24.0004L20.0895 24Z" fill="#333333"/>
<defs>
<linearGradient id="paint0_linear_125_5903" x1="8.47512" y1="0.869346" x2="9.93707" y2="7.2276" gradientUnits="userSpaceOnUse">
<stop stop-color="#FF8E3D"/>
<stop offset="1" stop-color="#FF6F3D"/>
</linearGradient>
<linearGradient id="paint1_linear_125_5903" x1="9.96545" y1="-5.0229" x2="16.3242" y2="1.96668" gradientUnits="userSpaceOnUse">
<stop stop-color="#FFC671"/>
<stop offset="1" stop-color="#FF6F3D"/>
</linearGradient>
</defs>
</svg>
