<svg width="102" height="102" viewBox="0 0 102 102" fill="none" xmlns="http://www.w3.org/2000/svg">
<g clip-path="url(#clip0_125_4531)">
<path fill-rule="evenodd" clip-rule="evenodd" d="M12.828 4H96.1721C98.8289 4 101 6.17109 101 8.82795V92.172C101 96 98.8289 97 96.1721 97H12.828C10 97 8 96 8 92.172V8.82795C8 6.17109 10.181 4 12.828 4Z" fill="#FEFEFE"/>
<path fill-rule="evenodd" clip-rule="evenodd" d="M16.2153 9H92.7837C94.0049 9 94.9995 10.0701 94.9995 11.384V27.616C94.9995 28.9299 94.0049 30 92.7837 30H16.2153C14.9942 30 13.9995 28.9299 13.9995 27.616V11.3734C13.9995 10.0701 14.9942 9 16.2153 9Z" fill="#BDECFF"/>
<path fill-rule="evenodd" clip-rule="evenodd" d="M15.7506 9H93.2485C94.006 9 94.6938 9.31238 95.1921 9.81622C95.6905 10.3201 95.9995 11.0154 95.9995 11.7812V27.2188C95.9995 27.9846 95.6905 28.6799 95.1921 29.1838C94.6938 29.6876 94.006 30 93.2485 30H15.7506C14.993 30 14.3053 29.6876 13.8069 29.1838C13.3085 28.6799 12.9995 27.9846 12.9995 27.2188V11.7711C12.9995 11.0053 13.3085 10.31 13.8069 9.80614C14.3053 9.31238 14.993 9 15.7506 9ZM93.2485 10.0278H15.7506C15.2721 10.0278 14.8435 10.2294 14.5345 10.5417C14.2255 10.8541 14.0262 11.2975 14.0262 11.7812V27.2188C14.0262 27.7025 14.2255 28.1358 14.5345 28.4583C14.8435 28.7706 15.2821 28.9722 15.7506 28.9722H93.2485C93.7269 28.9722 94.1555 28.7706 94.4745 28.4583C94.7835 28.1459 94.9828 27.7025 94.9828 27.2188V11.7711C94.9828 11.2874 94.7835 10.8541 94.4745 10.5317C94.1655 10.2193 93.7269 10.0278 93.2485 10.0278Z" fill="#333333"/>
<rect x="0.612372" y="34.3526" width="41" height="36" rx="3.5" transform="rotate(-15 0.612372 34.3526)" fill="white" stroke="#333333"/>
<path fill-rule="evenodd" clip-rule="evenodd" d="M8.89744 37.2224L32.563 30.8808C34.4948 30.3631 36.3591 31.4913 36.8494 33.3551C37.3535 35.2199 36.3064 37.1242 34.375 37.6417L10.7095 43.9833C9.25102 44.3799 7.39459 43.2369 6.90431 41.3731C6.40016 39.5083 7.438 37.6018 8.89744 37.2224Z" fill="#EFEFEF"/>
<path fill-rule="evenodd" clip-rule="evenodd" d="M31.3754 34.771C31.4455 35.0294 31.2817 35.2986 31.0095 35.3724L20.6192 38.1882L20.6177 38.1886L10.7521 40.832C10.4797 40.905 10.2027 40.7546 10.1334 40.4961C10.0641 40.2375 10.2288 39.9687 10.5012 39.8957L20.3661 37.2524L30.7556 34.4368C31.0278 34.3631 31.3053 34.5127 31.3754 34.771Z" fill="#333333"/>
<path fill-rule="evenodd" clip-rule="evenodd" d="M15.0714 55.1765L38.8734 48.8052C40.5674 48.3455 42.3618 49.4968 42.8502 51.3595C43.3547 53.2225 42.3784 55.1181 40.684 55.5604L16.882 61.9317C15.1881 62.3913 13.3937 61.2401 12.9052 59.3774C12.4008 57.5144 13.3771 55.6188 15.0714 55.1765Z" fill="url(#paint0_linear_125_4531)"/>
<path fill-rule="evenodd" clip-rule="evenodd" d="M34.5911 53.499C34.6536 53.7126 34.4967 53.945 34.2407 54.018L25.0657 56.6335L20.7297 57.8391C20.4732 57.9104 20.2162 57.7946 20.1557 57.5804C20.0952 57.3662 20.2541 57.1348 20.5106 57.0634L24.8449 55.8583L34.0144 53.2443C34.2704 53.1713 34.5286 53.2854 34.5911 53.499Z" fill="white"/>
<path fill-rule="evenodd" clip-rule="evenodd" d="M12.3807 46.0927L35.564 39.8869C37.4963 39.3692 39.3597 40.4936 39.8496 42.3559C40.3533 44.2191 39.3064 46.1245 37.3746 46.6422L14.1913 52.8479C12.2605 53.3715 10.3949 52.2386 9.9051 50.3763C9.40136 48.5131 10.4489 46.6103 12.3807 46.0927Z" fill="#EFEFEF"/>
<path fill-rule="evenodd" clip-rule="evenodd" d="M14.4512 47.6097C15.2485 47.3892 16.0808 47.8678 16.2855 48.6695C16.5072 49.4712 16.0332 50.3061 15.2189 50.5096C14.4215 50.7302 13.5893 50.2516 13.3845 49.4328C13.1798 48.6481 13.6539 47.8303 14.4512 47.6097Z" fill="#333333"/>
<path fill-rule="evenodd" clip-rule="evenodd" d="M19.2808 46.3148C20.0781 46.0942 20.9103 46.5728 21.1151 47.3746C21.3368 48.1763 20.8628 49.0112 20.0484 49.2147C19.2511 49.4353 18.4189 48.9567 18.2141 48.1379C18.0094 47.3532 18.4835 46.5354 19.2808 46.3148Z" fill="#333333"/>
<path fill-rule="evenodd" clip-rule="evenodd" d="M24.1104 45.0218C24.9077 44.8013 25.7399 45.2799 25.9447 46.0816C26.1664 46.8833 25.6924 47.7182 24.878 47.9217C24.0807 48.1423 23.2485 47.6637 23.0437 46.8449C22.839 46.0603 23.3131 45.2424 24.1104 45.0218Z" fill="#333333"/>
<path fill-rule="evenodd" clip-rule="evenodd" d="M28.94 43.7269C29.7373 43.5064 30.5695 43.9849 30.7743 44.7867C30.996 45.5884 30.5219 46.4233 29.7076 46.6268C28.9103 46.8474 28.0781 46.3688 27.8733 45.55C27.6686 44.7653 28.1426 43.9475 28.94 43.7269Z" fill="#333333"/>
<path fill-rule="evenodd" clip-rule="evenodd" d="M33.7696 42.434C34.5669 42.2134 35.3991 42.692 35.6039 43.4937C35.8256 44.2954 35.3515 45.1303 34.5372 45.3338C33.7399 45.5544 32.9077 45.0758 32.7029 44.257C32.4982 43.4724 32.9722 42.6545 33.7696 42.434Z" fill="#333333"/>
<path fill-rule="evenodd" clip-rule="evenodd" d="M24 88L32.6085 66H35.8703L45 88H41.6198L39.0214 81.3326H29.5758L27.1433 88H24ZM30.4524 78.9708H38.0974L35.7597 72.8765C35.0568 71.0257 34.5197 69.4924 34.1486 68.2844C33.8405 69.717 33.4299 71.1264 32.9086 72.5202L30.4524 78.9708Z" fill="url(#paint1_linear_125_4531)"/>
<path fill-rule="evenodd" clip-rule="evenodd" d="M21.8756 20.219V23.5662C21.8756 23.6058 21.8657 23.6355 21.8459 23.6652C21.8261 23.695 21.7964 23.7148 21.7469 23.7346C21.6974 23.7544 21.6379 23.7643 21.5587 23.7742C21.4795 23.7841 21.3805 23.794 21.2715 23.794C21.1527 23.794 21.0537 23.794 20.9843 23.7742C20.9051 23.7643 20.8457 23.7445 20.7962 23.7346C20.7467 23.7148 20.717 23.695 20.6972 23.6652C20.6774 23.6355 20.6675 23.6058 20.6675 23.5662V20.219L18.1026 15.0992C18.0531 14.9903 18.0234 14.9111 18.0036 14.8517C17.9937 14.7922 18.0036 14.7427 18.0432 14.713C18.0729 14.6833 18.1422 14.6635 18.2313 14.6536C18.3205 14.6437 18.4393 14.6437 18.5977 14.6437C18.7364 14.6437 18.8552 14.6437 18.9344 14.6536C19.0236 14.6635 19.0929 14.6734 19.1424 14.6932C19.1919 14.713 19.2315 14.7328 19.2612 14.7625C19.281 14.7922 19.3108 14.8318 19.3306 14.8814L20.5882 17.4858C20.7071 17.7334 20.816 17.9909 20.9348 18.2583C21.0537 18.5355 21.1725 18.8029 21.2913 19.0802H21.3012C21.4102 18.8128 21.5191 18.5454 21.628 18.288C21.7469 18.0206 21.8558 17.7631 21.9746 17.5056L23.2323 14.8814C23.2422 14.8318 23.262 14.7922 23.2917 14.7625C23.3214 14.7328 23.3511 14.7031 23.4007 14.6932C23.4502 14.6734 23.5096 14.6635 23.5888 14.6536C23.668 14.6437 23.7671 14.6437 23.8958 14.6437C24.0642 14.6437 24.1929 14.6437 24.2919 14.6635C24.391 14.6734 24.4504 14.6932 24.49 14.7328C24.5296 14.7625 24.5395 14.812 24.5296 14.8715C24.5197 14.9309 24.49 15.0101 24.4306 15.119L21.8756 20.219ZM30.6496 20.3478C30.6496 19.8229 30.5803 19.3476 30.4614 18.9217C30.3327 18.4959 30.1346 18.1394 29.8772 17.8522C29.6197 17.5551 29.3028 17.3373 28.9166 17.1788C28.5304 17.0204 28.0748 16.9511 27.5599 16.9511C27.0251 16.9511 26.5597 17.0402 26.1537 17.2085C25.7477 17.3868 25.4209 17.6245 25.1535 17.9414C24.8861 18.2583 24.688 18.6247 24.5494 19.0604C24.4207 19.4961 24.3513 19.9616 24.3513 20.4765C24.3513 21.0113 24.4108 21.4866 24.5395 21.9124C24.6682 22.3284 24.8564 22.6948 25.1139 22.9819C25.3713 23.279 25.6882 23.4969 26.0744 23.6553C26.4607 23.8138 26.9162 23.8831 27.4311 23.8831C27.9659 23.8831 28.4313 23.794 28.8374 23.6157C29.2434 23.4375 29.5801 23.1998 29.8475 22.8829C30.1148 22.566 30.3228 22.1996 30.4515 21.7639C30.5803 21.3381 30.6496 20.8627 30.6496 20.3478ZM29.4414 20.4171C29.4414 20.7835 29.4018 21.1202 29.3325 21.4173C29.2632 21.7243 29.1443 21.9817 28.976 22.1996C28.8176 22.4175 28.6096 22.5858 28.362 22.7146C28.1144 22.8334 27.8174 22.8928 27.4807 22.8928C27.1143 22.8928 26.7974 22.8235 26.5498 22.6948C26.3022 22.566 26.1042 22.3779 25.9556 22.16C25.8071 21.9322 25.6981 21.6649 25.6387 21.3678C25.5694 21.0608 25.5397 20.734 25.5397 20.3874C25.5397 20.0309 25.5793 19.6942 25.6585 19.3872C25.7377 19.0802 25.8566 18.8227 26.015 18.595C26.1735 18.3771 26.3715 18.1988 26.6191 18.08C26.8667 17.9612 27.1638 17.9017 27.5005 17.9017C27.8669 17.9017 28.1838 17.9711 28.4313 18.0998C28.6789 18.2285 28.877 18.4167 29.0255 18.6445C29.1741 18.8722 29.2731 19.1396 29.3424 19.4466C29.4117 19.7536 29.4414 20.0804 29.4414 20.4171ZM37.7599 23.5761C37.7599 23.6157 37.75 23.6454 37.7401 23.6751C37.7203 23.695 37.6906 23.7247 37.651 23.7445C37.6113 23.7643 37.5519 23.7742 37.4826 23.7841C37.4133 23.794 37.3341 23.794 37.235 23.794C37.1261 23.794 37.037 23.794 36.9776 23.7841C36.9082 23.7742 36.8587 23.7643 36.8191 23.7445C36.7795 23.7247 36.7498 23.7049 36.7399 23.6751C36.7201 23.6454 36.7201 23.6157 36.7201 23.5761V22.7443C36.3636 23.1404 36.0071 23.4276 35.6506 23.6058C35.304 23.7841 34.9475 23.8831 34.591 23.8831C34.1651 23.8831 33.8185 23.8138 33.5313 23.6751C33.2442 23.5365 33.0065 23.3484 32.8282 23.1008C32.65 22.8631 32.5212 22.5858 32.442 22.259C32.3628 21.9421 32.3232 21.546 32.3232 21.0905V17.268C32.3232 17.2284 32.3331 17.1986 32.343 17.1689C32.3628 17.1491 32.3925 17.1194 32.442 17.0996C32.4915 17.0798 32.5509 17.06 32.6203 17.06C32.6896 17.0501 32.7886 17.0501 32.8976 17.0501C33.0065 17.0501 33.1055 17.0501 33.1748 17.06C33.2442 17.0699 33.3036 17.0798 33.3531 17.0996C33.3927 17.1194 33.4224 17.1491 33.4422 17.1689C33.462 17.1986 33.4719 17.2284 33.4719 17.268V20.9419C33.4719 21.3084 33.5016 21.6054 33.5511 21.8332C33.6007 22.0511 33.6898 22.2491 33.7987 22.3977C33.9076 22.5561 34.0463 22.675 34.2146 22.7641C34.383 22.8532 34.581 22.8928 34.7989 22.8928C35.0861 22.8928 35.3733 22.7938 35.6605 22.5858C35.9476 22.3779 36.2546 22.0808 36.5814 21.6847V17.268C36.5814 17.2284 36.5913 17.1986 36.6012 17.1689C36.621 17.1491 36.6508 17.1194 36.7003 17.0996C36.7498 17.0798 36.8092 17.06 36.8785 17.06C36.9478 17.0501 37.0469 17.0501 37.1657 17.0501C37.2746 17.0501 37.3737 17.0501 37.443 17.06C37.5123 17.0699 37.5816 17.0798 37.6212 17.0996C37.6609 17.1194 37.6906 17.1491 37.7203 17.1689C37.7401 17.1986 37.75 17.2284 37.75 17.268V23.5761H37.7599ZM43.5927 17.674C43.5927 17.773 43.5927 17.8621 43.5828 17.9315C43.5828 18.0008 43.5729 18.0602 43.5531 18.0998C43.5432 18.1394 43.5234 18.1691 43.5036 18.1889C43.4838 18.2087 43.4541 18.2186 43.4144 18.2186C43.3748 18.2186 43.3352 18.2087 43.2758 18.1889C43.2164 18.1691 43.157 18.1493 43.0976 18.1295C43.0282 18.1097 42.9589 18.0899 42.8698 18.0701C42.7906 18.0503 42.6915 18.0404 42.5925 18.0404C42.4737 18.0404 42.3647 18.0602 42.2459 18.1097C42.137 18.1592 42.0181 18.2384 41.8894 18.3474C41.7607 18.4563 41.6319 18.595 41.5032 18.7732C41.3744 18.9515 41.216 19.1693 41.0576 19.4268V23.5761C41.0576 23.6157 41.0476 23.6454 41.0278 23.6751C41.008 23.695 40.9783 23.7247 40.9387 23.7445C40.8991 23.7643 40.8397 23.7742 40.7605 23.7841C40.6911 23.794 40.5921 23.794 40.4733 23.794C40.3544 23.794 40.2653 23.794 40.1861 23.7841C40.1069 23.7742 40.0475 23.7643 40.0078 23.7445C39.9583 23.7247 39.9286 23.7049 39.9187 23.6751C39.8989 23.6454 39.8989 23.6157 39.8989 23.5761V17.268C39.8989 17.2284 39.9088 17.1986 39.9187 17.1689C39.9286 17.1491 39.9583 17.1194 39.9979 17.0996C40.0376 17.0798 40.097 17.06 40.1564 17.06C40.2257 17.0501 40.3049 17.0501 40.4139 17.0501C40.5129 17.0501 40.602 17.0501 40.6713 17.06C40.7407 17.0699 40.7902 17.0798 40.8298 17.0996C40.8694 17.1194 40.8991 17.1491 40.909 17.1689C40.9288 17.1986 40.9288 17.2284 40.9288 17.268V18.1889C41.0972 17.9315 41.2655 17.7334 41.4141 17.565C41.5725 17.4066 41.7111 17.2779 41.8498 17.1887C41.9884 17.0996 42.1172 17.0402 42.2558 17.0006C42.3944 16.961 42.5232 16.9511 42.6618 16.9511C42.7212 16.9511 42.7906 16.9511 42.8698 16.961C42.949 16.9709 43.0282 16.9808 43.1075 17.0006C43.1966 17.0204 43.2659 17.0402 43.3352 17.0699C43.4045 17.0897 43.4541 17.1194 43.4739 17.1392C43.5036 17.159 43.5234 17.1887 43.5333 17.2085C43.5432 17.2283 43.5531 17.2581 43.563 17.2878C43.5729 17.3175 43.5729 17.367 43.5729 17.4264C43.5927 17.4858 43.5927 17.565 43.5927 17.674ZM56.9715 17.2482C56.9715 17.2779 56.9715 17.3175 56.9616 17.367C56.9517 17.4165 56.9319 17.4759 56.9121 17.5452L55.0504 23.5365C55.0405 23.586 55.0108 23.6355 54.981 23.6652C54.9513 23.695 54.9117 23.7247 54.8523 23.7445C54.7929 23.7643 54.7236 23.7742 54.6344 23.7841C54.5453 23.794 54.4265 23.794 54.2878 23.794C54.1393 23.794 54.0205 23.794 53.9214 23.7841C53.8224 23.7742 53.7432 23.7643 53.6838 23.7445C53.6243 23.7247 53.5847 23.695 53.555 23.6652C53.5253 23.6355 53.5055 23.5959 53.4956 23.5464L52.1686 18.9713L52.1587 18.9118L52.1488 18.9713L50.9209 23.5464C50.9109 23.5959 50.8812 23.6454 50.8515 23.6751C50.8218 23.7049 50.7723 23.7346 50.7129 23.7544C50.6535 23.7742 50.5742 23.7841 50.4752 23.794C50.3762 23.8039 50.2574 23.8039 50.1187 23.8039C49.9702 23.8039 49.8612 23.8039 49.7622 23.794C49.6731 23.7841 49.5939 23.7742 49.5443 23.7544C49.4849 23.7346 49.4453 23.7049 49.4156 23.6751C49.3859 23.6454 49.3661 23.6058 49.3562 23.5563L47.5143 17.565C47.4944 17.4957 47.4746 17.4363 47.4647 17.3868C47.4548 17.3373 47.4548 17.2977 47.4548 17.268C47.4548 17.2284 47.4647 17.1887 47.4845 17.1689C47.5043 17.1491 47.5341 17.1194 47.5836 17.1095C47.6232 17.0897 47.6826 17.0798 47.7618 17.0798C47.841 17.0798 47.9302 17.0699 48.0391 17.0699C48.1678 17.0699 48.2768 17.0699 48.356 17.0798C48.4352 17.0897 48.4946 17.0996 48.5442 17.1194C48.5838 17.1392 48.6135 17.159 48.6333 17.1887C48.6531 17.2184 48.663 17.2581 48.6828 17.2977L50.2078 22.5066L50.2177 22.566L50.2276 22.5066L51.624 17.2977C51.6339 17.2581 51.6438 17.2184 51.6735 17.1887C51.6933 17.159 51.723 17.1392 51.7626 17.1194C51.8022 17.0996 51.8616 17.0897 51.9309 17.0798C52.0003 17.0699 52.0993 17.0699 52.2181 17.0699C52.3271 17.0699 52.4261 17.0699 52.4954 17.0798C52.5647 17.0897 52.6242 17.0996 52.6638 17.1194C52.7034 17.1392 52.7331 17.159 52.7529 17.1887C52.7727 17.2184 52.7826 17.2482 52.7925 17.2878L54.2977 22.5165L54.3076 22.5759L54.3175 22.5165L55.8129 17.3076C55.8228 17.268 55.8327 17.2283 55.8624 17.1986C55.8822 17.1689 55.9119 17.1491 55.9614 17.1293C56.001 17.1095 56.0605 17.0996 56.1397 17.0897C56.2189 17.0798 56.3179 17.0798 56.4368 17.0798C56.5457 17.0798 56.6447 17.0798 56.7042 17.0897C56.7735 17.0897 56.823 17.1095 56.8626 17.1293C56.9022 17.1491 56.9319 17.1689 56.9517 17.1887C56.9616 17.1788 56.9715 17.2085 56.9715 17.2482ZM63.656 20.1398C63.656 20.3181 63.6065 20.4468 63.5174 20.526C63.4282 20.6052 63.3193 20.6449 63.2005 20.6449H59.0511C59.0511 21.0014 59.0908 21.3084 59.1601 21.5955C59.2294 21.8827 59.3482 22.1204 59.5166 22.3184C59.675 22.5165 59.8929 22.675 60.1504 22.7839C60.4177 22.8928 60.7346 22.9423 61.1109 22.9423C61.408 22.9423 61.6754 22.9225 61.9131 22.873C62.1508 22.8235 62.3488 22.774 62.5172 22.7146C62.6855 22.6551 62.8341 22.5957 62.943 22.5561C63.0519 22.5066 63.1311 22.4769 63.1906 22.4769C63.2203 22.4769 63.25 22.4868 63.2797 22.4967C63.2995 22.5165 63.3292 22.5363 63.3391 22.566C63.349 22.5957 63.3688 22.6452 63.3688 22.7047C63.3787 22.7641 63.3787 22.8334 63.3787 22.9225C63.3787 22.9819 63.3787 23.0315 63.3688 23.081C63.3688 23.1206 63.3589 23.1602 63.349 23.1998C63.3391 23.2394 63.3292 23.2691 63.3094 23.2988C63.2896 23.3285 63.2698 23.3484 63.25 23.3781C63.2203 23.4078 63.1509 23.4474 63.0222 23.5068C62.8935 23.5662 62.735 23.6256 62.537 23.6751C62.3389 23.7346 62.1012 23.7841 61.8438 23.8237C61.5764 23.8732 61.2991 23.893 61.002 23.893C60.4871 23.893 60.0315 23.8237 59.6354 23.6751C59.2492 23.5365 58.9224 23.3186 58.655 23.0315C58.3876 22.7443 58.1896 22.3878 58.0509 21.952C57.9123 21.5262 57.8529 21.0212 57.8529 20.4567C57.8529 19.912 57.9222 19.4268 58.0608 18.9911C58.1995 18.5652 58.4075 18.1889 58.6649 17.8918C58.9323 17.5948 59.2492 17.3571 59.6255 17.1986C60.0018 17.0402 60.4177 16.961 60.8832 16.961C61.3783 16.961 61.8042 17.0402 62.1508 17.1986C62.4974 17.3571 62.7845 17.575 63.0123 17.8423C63.2302 18.1097 63.3985 18.4266 63.5075 18.793C63.6164 19.1594 63.6659 19.5456 63.6659 19.9517V20.1398H63.656ZM62.4974 19.8031C62.5073 19.199 62.3785 18.7138 62.0913 18.3672C61.8042 18.0206 61.3882 17.8522 60.8337 17.8522C60.5465 17.8522 60.2989 17.9017 60.081 18.0107C59.8632 18.1196 59.6849 18.2583 59.5364 18.4464C59.3878 18.6247 59.2789 18.8326 59.1997 19.0703C59.1205 19.308 59.0709 19.5555 59.061 19.813H62.4974V19.8031ZM71.2317 20.328C71.2317 20.8726 71.1723 21.3678 71.0535 21.8035C70.9346 22.2392 70.7663 22.6155 70.5286 22.9225C70.3008 23.2295 70.0137 23.4672 69.677 23.6256C69.3403 23.794 68.9541 23.8732 68.5282 23.8732C68.3302 23.8732 68.142 23.8534 67.9737 23.8138C67.8053 23.7742 67.637 23.7148 67.4785 23.6256C67.3201 23.5365 67.1517 23.4276 66.9834 23.2889C66.8249 23.1503 66.6467 22.9918 66.4684 22.8037V23.5761C66.4684 23.6157 66.4585 23.6454 66.4387 23.6751C66.4189 23.7049 66.3892 23.7247 66.3496 23.7445C66.31 23.7643 66.2506 23.7742 66.1911 23.7841C66.1317 23.794 66.0426 23.794 65.9436 23.794C65.8544 23.794 65.7653 23.794 65.7059 23.7841C65.6366 23.7742 65.5871 23.7643 65.5475 23.7445C65.5078 23.7247 65.4781 23.7049 65.4583 23.6751C65.4484 23.6454 65.4385 23.6157 65.4385 23.5761V14.2179C65.4385 14.1783 65.4484 14.1485 65.4583 14.1188C65.4781 14.0891 65.5078 14.0693 65.5475 14.0495C65.5871 14.0297 65.6465 14.0198 65.7257 14.0099C65.8049 14 65.8941 14 66.0129 14C66.1317 14 66.2209 14 66.3001 14.0099C66.3793 14.0198 66.4387 14.0297 66.4783 14.0495C66.5179 14.0693 66.5476 14.0891 66.5675 14.1188C66.5873 14.1485 66.5972 14.1783 66.5972 14.2179V17.9909C66.7853 17.8027 66.9636 17.6344 67.1418 17.5056C67.3201 17.3769 67.4884 17.268 67.6568 17.1887C67.8251 17.1095 67.9935 17.0501 68.1618 17.0105C68.3302 16.9709 68.5084 16.9511 68.6966 16.9511C69.1521 16.9511 69.5482 17.0402 69.8651 17.2284C70.1919 17.4066 70.4494 17.6542 70.6574 17.9612C70.8554 18.2682 71.0139 18.6247 71.103 19.0406C71.1822 19.4367 71.2317 19.8724 71.2317 20.328ZM70.0236 20.4666C70.0236 20.1398 70.0038 19.8328 69.9542 19.5258C69.9047 19.2188 69.8255 18.9515 69.6968 18.7138C69.5779 18.4761 69.4195 18.288 69.2115 18.1493C69.0135 18.0107 68.756 17.9315 68.4589 17.9315C68.3104 17.9315 68.1618 17.9513 68.0133 17.9909C67.8647 18.0305 67.7162 18.1097 67.5676 18.2087C67.4191 18.3078 67.2607 18.4365 67.1022 18.5851C66.9438 18.7336 66.7655 18.9317 66.5873 19.1693V21.6847C66.9042 22.0709 67.2111 22.368 67.4983 22.5759C67.7855 22.774 68.0925 22.8829 68.4094 22.8829C68.6966 22.8829 68.9441 22.8136 69.1521 22.675C69.3601 22.5363 69.5284 22.3482 69.6572 22.1105C69.7859 21.8827 69.875 21.6153 69.9344 21.3282C69.9939 21.0509 70.0236 20.7637 70.0236 20.4666ZM76.8665 21.853C76.8665 22.1798 76.8071 22.467 76.6882 22.7146C76.5694 22.9621 76.401 23.18 76.1832 23.3484C75.9653 23.5167 75.6979 23.6553 75.4008 23.7445C75.0939 23.8336 74.7671 23.8831 74.4007 23.8831C74.1729 23.8831 73.9649 23.8633 73.757 23.8336C73.549 23.8039 73.3707 23.7544 73.2123 23.7049C73.0539 23.6553 72.9152 23.5959 72.8063 23.5365C72.6974 23.4771 72.6082 23.4276 72.5587 23.3781C72.5092 23.3285 72.4696 23.2691 72.4498 23.18C72.43 23.1008 72.4102 22.9819 72.4102 22.8334C72.4102 22.7443 72.4102 22.675 72.4201 22.6155C72.43 22.5561 72.4399 22.5066 72.4498 22.467C72.4597 22.4274 72.4894 22.4076 72.5092 22.3878C72.5389 22.368 72.5686 22.368 72.5983 22.368C72.6478 22.368 72.7271 22.3977 72.8261 22.467C72.9251 22.5264 73.0539 22.5957 73.1925 22.675C73.341 22.7443 73.5094 22.8136 73.7174 22.8829C73.9154 22.9423 74.1432 22.9819 74.4106 22.9819C74.6086 22.9819 74.7869 22.9621 74.9453 22.9126C75.1038 22.873 75.2424 22.8136 75.3612 22.7245C75.4801 22.6452 75.5692 22.5363 75.6286 22.4076C75.688 22.2788 75.7177 22.1303 75.7177 21.952C75.7177 21.7738 75.6682 21.6252 75.5791 21.5064C75.49 21.3876 75.3711 21.2786 75.2226 21.1796C75.074 21.0905 74.9057 21.0014 74.7175 20.932C74.5294 20.8627 74.3412 20.7835 74.1432 20.7043C73.9451 20.625 73.757 20.5359 73.5589 20.4369C73.3708 20.3379 73.2024 20.219 73.0539 20.0705C72.9053 19.9219 72.7865 19.7536 72.6974 19.5555C72.6082 19.3575 72.5587 19.1198 72.5587 18.8326C72.5587 18.5851 72.6082 18.3474 72.6974 18.1196C72.7964 17.8918 72.935 17.6938 73.1331 17.5254C73.3311 17.3571 73.5688 17.2184 73.856 17.1095C74.1432 17.0105 74.4799 16.961 74.8661 16.961C75.0344 16.961 75.2028 16.9709 75.3711 17.0006C75.5395 17.0303 75.688 17.0699 75.8267 17.1095C75.9653 17.1491 76.0743 17.1986 76.1733 17.2482C76.2723 17.2977 76.3416 17.3472 76.3911 17.3868C76.4407 17.4264 76.4704 17.4561 76.4902 17.4858C76.51 17.5155 76.5199 17.5452 76.5298 17.5849C76.5397 17.6146 76.5397 17.6641 76.5496 17.7136C76.5595 17.7631 76.5595 17.8324 76.5595 17.9017C76.5595 17.981 76.5595 18.0503 76.5496 18.1097C76.5397 18.1691 76.5298 18.2186 76.51 18.2484C76.4902 18.288 76.4704 18.3177 76.4506 18.3276C76.4308 18.3474 76.401 18.3474 76.3713 18.3474C76.3317 18.3474 76.2723 18.3177 76.1832 18.2682C76.104 18.2186 76.0049 18.1592 75.8762 18.0998C75.7475 18.0404 75.5989 17.981 75.4306 17.9315C75.2622 17.8819 75.0641 17.8522 74.8463 17.8522C74.6482 17.8522 74.4799 17.872 74.3313 17.9216C74.1828 17.9612 74.0541 18.0305 73.9649 18.1097C73.8659 18.1889 73.7966 18.288 73.7471 18.3969C73.6975 18.5058 73.6777 18.6247 73.6777 18.7534C73.6777 18.9317 73.7273 19.0901 73.8164 19.2089C73.9055 19.3377 74.0342 19.4367 74.1828 19.5357C74.3313 19.6249 74.4997 19.714 74.6977 19.7932C74.8859 19.8625 75.084 19.9417 75.282 20.021C75.4801 20.1002 75.6781 20.1893 75.8663 20.2884C76.0643 20.3874 76.2327 20.5062 76.3812 20.6449C76.5298 20.7835 76.6486 20.9518 76.7377 21.1499C76.817 21.348 76.8665 21.5856 76.8665 21.853ZM79.6789 23.5761C79.6789 23.6157 79.669 23.6454 79.6492 23.6751C79.6294 23.695 79.5997 23.7247 79.5601 23.7445C79.5205 23.7643 79.461 23.7742 79.3818 23.7841C79.3125 23.794 79.2135 23.794 79.0946 23.794C78.9758 23.794 78.8867 23.794 78.8074 23.7841C78.7282 23.7742 78.6688 23.7643 78.6292 23.7445C78.5797 23.7247 78.55 23.7049 78.5401 23.6751C78.5203 23.6454 78.5203 23.6157 78.5203 23.5761V17.268C78.5203 17.2383 78.5302 17.1986 78.5401 17.1788C78.5599 17.1491 78.5896 17.1293 78.6292 17.1095C78.6688 17.0897 78.7282 17.0798 78.8074 17.0699C78.8768 17.06 78.9758 17.06 79.0946 17.06C79.2135 17.06 79.3125 17.06 79.3818 17.0699C79.461 17.0798 79.5106 17.0897 79.5601 17.1095C79.5997 17.1293 79.6294 17.1491 79.6492 17.1788C79.669 17.2085 79.6789 17.2383 79.6789 17.268V23.5761ZM79.8076 15.1388C79.8076 15.4161 79.7581 15.5944 79.6492 15.6934C79.5502 15.7924 79.362 15.8419 79.0748 15.8419C78.7976 15.8419 78.6193 15.7924 78.5104 15.7033C78.4113 15.6043 78.3618 15.426 78.3618 15.1586C78.3618 14.8814 78.4113 14.7031 78.5203 14.6041C78.6193 14.505 78.8074 14.4555 79.0847 14.4555C79.362 14.4555 79.5403 14.505 79.6492 14.5942C79.7581 14.6833 79.8076 14.8715 79.8076 15.1388ZM85.0859 23.1107C85.0859 23.2493 85.076 23.3583 85.0562 23.4375C85.0364 23.5167 85.0067 23.5761 84.977 23.6157C84.9374 23.6553 84.8878 23.685 84.8086 23.7247C84.7393 23.7544 84.6502 23.7841 84.5511 23.8039C84.4521 23.8237 84.3531 23.8435 84.2441 23.8534C84.1352 23.8633 84.0263 23.8732 83.9272 23.8732C83.6005 23.8732 83.3232 23.8336 83.0855 23.7445C82.8577 23.6553 82.6597 23.5266 82.5111 23.3484C82.3626 23.1701 82.2537 22.9522 82.1843 22.6849C82.115 22.4175 82.0853 22.1006 82.0853 21.7342V18.0503H81.1941C81.1247 18.0503 81.0653 18.0107 81.0257 17.9414C80.9861 17.872 80.9663 17.7433 80.9663 17.575C80.9663 17.4858 80.9663 17.4165 80.9861 17.3571C80.996 17.2977 81.0158 17.2482 81.0356 17.2085C81.0554 17.1689 81.0851 17.1392 81.1049 17.1194C81.1346 17.0996 81.1742 17.0996 81.204 17.0996H82.0853V15.6043C82.0853 15.5746 82.0952 15.535 82.1051 15.5151C82.1249 15.4854 82.1546 15.4656 82.1942 15.4458C82.2339 15.426 82.2933 15.4062 82.3725 15.3963C82.4418 15.3864 82.5408 15.3864 82.6498 15.3864C82.7686 15.3864 82.8676 15.3864 82.937 15.3963C83.0162 15.4062 83.0756 15.4161 83.1152 15.4458C83.1548 15.4656 83.1845 15.4953 83.2043 15.5151C83.2241 15.5449 83.234 15.5746 83.234 15.6043V17.0996H84.8383C84.8779 17.0996 84.9076 17.1095 84.9374 17.1194C84.9671 17.1392 84.9869 17.1689 85.0067 17.2085C85.0265 17.2482 85.0463 17.2977 85.0562 17.3571C85.0661 17.4165 85.0661 17.4957 85.0661 17.575C85.0661 17.7433 85.0463 17.8621 85.0067 17.9414C84.9671 18.0206 84.9076 18.0503 84.8383 18.0503H83.234V21.5559C83.234 21.9917 83.3034 22.3184 83.4222 22.5363C83.5509 22.7542 83.7787 22.873 84.1055 22.873C84.2144 22.873 84.3036 22.8631 84.3927 22.8433C84.4719 22.8235 84.5511 22.8037 84.6106 22.774C84.67 22.7542 84.7294 22.7245 84.7789 22.7047C84.8284 22.6849 84.868 22.675 84.9076 22.675C84.9274 22.675 84.9572 22.675 84.977 22.6948C84.9968 22.7047 85.0166 22.7245 85.0265 22.7641C85.0364 22.7938 85.0463 22.8433 85.0562 22.9027C85.076 22.9522 85.0859 23.0216 85.0859 23.1107ZM91.8397 20.1398C91.8397 20.3181 91.7902 20.4468 91.701 20.526C91.6119 20.6052 91.503 20.6449 91.3841 20.6449H87.2447C87.2447 21.0014 87.2843 21.3084 87.3537 21.5955C87.423 21.8827 87.5418 22.1204 87.7102 22.3184C87.8686 22.5165 88.0865 22.675 88.3439 22.7839C88.6113 22.8928 88.9282 22.9423 89.3045 22.9423C89.6016 22.9423 89.869 22.9225 90.1067 22.873C90.3443 22.8235 90.5424 22.774 90.7108 22.7146C90.8791 22.6551 91.0177 22.5957 91.1267 22.5561C91.2356 22.5066 91.3148 22.4769 91.3742 22.4769C91.404 22.4769 91.4337 22.4868 91.4634 22.4967C91.4832 22.5165 91.5129 22.5363 91.5228 22.566C91.5426 22.5957 91.5525 22.6452 91.5525 22.7047C91.5624 22.7641 91.5624 22.8334 91.5624 22.9225C91.5624 22.9819 91.5624 23.0315 91.5525 23.081C91.5525 23.1206 91.5426 23.1602 91.5327 23.1998C91.5228 23.2394 91.5129 23.2691 91.4931 23.2988C91.4733 23.3285 91.4535 23.3484 91.4337 23.3781C91.4039 23.4078 91.3346 23.4474 91.2059 23.5068C91.0772 23.5662 90.9187 23.6256 90.7206 23.6751C90.5226 23.7346 90.2849 23.7841 90.0274 23.8237C89.7601 23.8732 89.4828 23.893 89.1857 23.893C88.6707 23.893 88.2152 23.8237 87.8191 23.6751C87.4329 23.5365 87.1061 23.3186 86.8387 23.0315C86.5713 22.7443 86.3733 22.3878 86.2346 21.952C86.096 21.5262 86.0267 21.0212 86.0267 20.4567C86.0267 19.912 86.096 19.4268 86.2346 18.9911C86.3733 18.5652 86.5812 18.1889 86.8387 17.8918C87.1061 17.5948 87.423 17.3571 87.7993 17.1986C88.1756 17.0402 88.5915 16.961 89.057 16.961C89.5521 16.961 89.9779 17.0402 90.3245 17.1986C90.6711 17.3571 90.9583 17.575 91.1861 17.8423C91.4039 18.1097 91.5723 18.4266 91.6812 18.793C91.7902 19.1594 91.8397 19.5456 91.8397 19.9517V20.1398V20.1398ZM90.6711 19.8031C90.6909 19.199 90.5523 18.7138 90.2651 18.3672C89.9779 18.0206 89.562 17.8522 89.0074 17.8522C88.7203 17.8522 88.4727 17.9017 88.2548 18.0107C88.037 18.1196 87.8587 18.2583 87.7102 18.4464C87.5616 18.6247 87.4527 18.8326 87.3735 19.0703C87.2942 19.308 87.2447 19.5555 87.2447 19.813H90.6711V19.8031Z" fill="#333333"/>
<path fill-rule="evenodd" clip-rule="evenodd" d="M6.99951 26.6599V9.33291C6.99951 7.86587 7.61061 6.53759 8.58234 5.56617C9.5641 4.60466 10.9065 4 12.3892 4H96.6099C98.0925 4 99.4349 4.59475 100.417 5.56617C101.398 6.53759 102 7.86587 102 9.33291V92.6671C102 94.1341 101.388 95.4624 100.417 96.4338C99.4449 97.4053 98.0925 98 96.6099 98H12.3892C10.9065 98 9.5641 97.4053 8.58234 96.4338C7.60059 95.4624 6.99951 94.1341 6.99951 92.6671V68.7285C6.99951 67.9156 8.02134 67.9156 8.02134 68.7285V92.6671C8.02134 93.8566 8.51222 94.937 9.30364 95.7201C10.0951 96.5032 11.187 96.9889 12.3892 96.9889H96.6099C97.812 96.9889 98.904 96.5032 99.6954 95.7201C100.487 94.937 100.978 93.8566 100.978 92.6671V9.33291C100.978 8.14341 100.487 7.06295 99.6954 6.27987C98.904 5.49678 97.812 5.01107 96.6099 5.01107H12.3892C11.187 5.01107 10.0951 5.49678 9.30364 6.27987C8.52224 7.06295 8.03136 8.14341 8.03136 9.33291V26.6797C8.03136 27.4529 6.99951 27.4628 6.99951 26.6599Z" fill="#333333"/>
<path fill-rule="evenodd" clip-rule="evenodd" d="M51 63.5C51 63.2239 51.2239 63 51.5 63H90.5C90.7761 63 91 63.2239 91 63.5C91 63.7761 90.7761 64 90.5 64H51.5C51.2239 64 51 63.7761 51 63.5ZM51 69.5C51 69.2239 51.2239 69 51.5 69H90.5C90.7761 69 91 69.2239 91 69.5C91 69.7761 90.7761 70 90.5 70H51.5C51.2239 70 51 69.7761 51 69.5Z" fill="#AAAAAA"/>
<path fill-rule="evenodd" clip-rule="evenodd" d="M51 75.5C51 75.2239 51.2239 75 51.5 75H90.5C90.7761 75 91 75.2239 91 75.5C91 75.7761 90.7761 76 90.5 76H51.5C51.2239 76 51 75.7761 51 75.5ZM51 81.5C51 81.2239 51.2239 81 51.5 81H90.5C90.7761 81 91 81.2239 91 81.5C91 81.7761 90.7761 82 90.5 82H51.5C51.2239 82 51 81.7761 51 81.5Z" fill="#AAAAAA"/>
<path fill-rule="evenodd" clip-rule="evenodd" d="M51 87.5C51 87.2239 51.2239 87 51.5 87H90.5C90.7761 87 91 87.2239 91 87.5C91 87.7761 90.7761 88 90.5 88H51.5C51.2239 88 51 87.7761 51 87.5Z" fill="#AAAAAA"/>
<rect x="52.5" y="39.5" width="39" height="16" rx="1.5" stroke="#AAAAAA" stroke-dasharray="2 2"/>
</g>
<defs>
<linearGradient id="paint0_linear_125_4531" x1="17.4166" y1="52.4857" x2="24.1962" y2="60.3369" gradientUnits="userSpaceOnUse">
<stop stop-color="#FFC671"/>
<stop offset="1" stop-color="#FF6F3D"/>
</linearGradient>
<linearGradient id="paint1_linear_125_4531" x1="21.0925" y1="67.4566" x2="35.5574" y2="83.706" gradientUnits="userSpaceOnUse">
<stop stop-color="#FFC671"/>
<stop offset="1" stop-color="#FF6F3D"/>
</linearGradient>
<clipPath id="clip0_125_4531">
<rect width="102" height="102" fill="white"/>
</clipPath>
</defs>
</svg>
