<svg width="135" height="124" viewBox="0 0 135 124" fill="none" xmlns="http://www.w3.org/2000/svg">
<path fill-rule="evenodd" clip-rule="evenodd" d="M11.596 12H122.404C125.212 12.0079 127.902 13.1432 129.888 15.1576C131.873 17.172 132.992 19.9019 133 22.7507V112.259C132.992 115.107 131.873 117.836 129.887 119.849C127.902 121.862 125.211 122.995 122.404 123H11.596C8.78909 122.995 6.09848 121.862 4.11276 119.849C2.12704 117.836 1.00784 115.107 1 112.259V22.7507C1.00783 19.9019 2.12671 17.172 4.11215 15.1576C6.09759 13.1432 8.78818 12.0079 11.596 12Z" fill="#E0E0E0"/>
<path fill-rule="evenodd" clip-rule="evenodd" d="M12.0946 11L12.096 11L33.8431 11C34.1193 11 34.3431 11.2239 34.3431 11.5C34.3431 11.7761 34.1193 12 33.8431 12H12.0967C9.42362 12.0078 6.86068 13.0885 4.96826 15.0086C3.07558 16.9289 2.00765 19.5326 2 22.2514V111.759C2.00766 114.476 3.07585 117.079 4.9687 118.998C6.86147 120.916 9.42459 121.995 12.097 122H122.903C125.575 121.995 128.139 120.916 130.031 118.998C131.924 117.079 132.993 114.476 133 111.758V22.2521C132.993 19.5331 131.925 16.929 130.032 15.0086C128.139 13.0885 125.576 12.0078 122.903 12H101.157C100.881 12 100.657 11.7761 100.657 11.5C100.657 11.2239 100.881 11 101.157 11H122.905C125.848 11.0083 128.666 12.198 130.744 14.3066C132.822 16.415 133.992 19.2707 134 22.2493V111.761C133.992 114.739 132.822 117.593 130.743 119.7C128.665 121.807 125.846 122.994 122.905 123H12.096C9.15454 122.994 6.33549 121.807 4.25682 119.7C2.17838 117.593 1.0082 114.739 1 111.761L1 111.759V22.2507L1 22.2493C1.00819 19.2707 2.17799 16.415 4.25605 14.3066C6.33434 12.198 9.1523 11.0083 12.0946 11Z" fill="#333333"/>
<path d="M120 21L15 21.0001C11.6863 21.0001 8.99995 23.6865 9 27.0002L9.00122 109C9.00127 112.314 11.6875 115 15.0012 115H120C123.314 115 126 112.314 126 109V27C126 23.6863 123.314 21 120 21Z" fill="#FEFEFE"/>
<path fill-rule="evenodd" clip-rule="evenodd" d="M120 22L15 22.0001C12.2385 22.0001 9.99996 24.2388 10 27.0002L10.0012 109C10.0013 111.761 12.2398 114 15.0012 114H120C122.762 114 125 111.761 125 109V27C125 24.2386 122.762 22 120 22ZM15 21.0001L120 21C123.314 21 126 23.6863 126 27V109C126 112.314 123.314 115 120 115H15.0012C11.6875 115 9.00127 112.314 9.00122 109L9 27.0002C8.99995 23.6865 11.6863 21.0001 15 21.0001Z" fill="#333333"/>
<path fill-rule="evenodd" clip-rule="evenodd" d="M18 67C18 66.4477 18.4477 66 19 66H32C32.5523 66 33 66.4477 33 67V80C33 80.5523 32.5523 81 32 81H19C18.4477 81 18 80.5523 18 80V67Z" fill="#BDECFF"/>
<path fill-rule="evenodd" clip-rule="evenodd" d="M33.7962 66.1018C34.0224 66.2692 34.0671 66.5845 33.8961 66.8059L25.5889 77.5612C25.3993 77.8105 25.1156 77.9946 24.763 77.9999C24.4233 78.005 24.1248 77.8422 23.8912 77.6212C23.8798 77.6104 23.8689 77.5991 23.8586 77.5874L21.1241 74.4727C20.9392 74.2621 20.9637 73.9447 21.1788 73.7638C21.3939 73.5828 21.7181 73.6068 21.9029 73.8173L24.6201 76.9123C24.6791 76.9652 24.7188 76.9843 24.738 76.9911C24.7445 76.9852 24.7538 76.9756 24.7653 76.9605L24.7683 76.9565L24.7683 76.9565L33.0769 66.1995C33.2479 65.9781 33.57 65.9343 33.7962 66.1018Z" fill="#333333"/>
<path fill-rule="evenodd" clip-rule="evenodd" d="M19.3615 65H27.0674C27.3436 65 27.5674 65.2239 27.5674 65.5C27.5674 65.7761 27.3436 66 27.0674 66H19.3684C19.1774 66.0057 18.9897 66.05 18.8164 66.1302C18.6414 66.2113 18.4849 66.3272 18.3567 66.4708C18.2285 66.6145 18.1313 66.7827 18.0709 66.9651C18.0106 67.1476 17.9884 67.3404 18.0057 67.5316C18.0071 67.5466 18.0077 67.5617 18.0077 67.5767V79.4587C18.0048 79.6617 18.0428 79.8632 18.1193 80.0514C18.1959 80.2396 18.3096 80.4107 18.4537 80.5544C18.5978 80.6982 18.7695 80.8117 18.9585 80.8882C19.1475 80.9648 19.35 81.0027 19.5541 80.9998L19.5611 80.9997L31.5198 80.9998C31.9424 80.9933 32.3453 80.8215 32.6418 80.5217C32.8973 80.2633 33 79.8906 33 79.3947V73.4222C33 73.146 33.2239 72.9222 33.5 72.9222C33.7761 72.9222 34 73.146 34 73.4222V79.3946C34 79.3946 34 79.3946 34 79.3946C34.0001 80.0056 33.8766 80.6952 33.3528 81.2248C32.8708 81.7123 32.2159 81.9905 31.5301 81.9998L31.5234 81.9998L19.5644 81.9998C19.2283 82.004 18.8947 81.9413 18.5831 81.8151C18.2704 81.6885 17.9863 81.5006 17.7475 81.2624C17.5087 81.0242 17.3202 80.7406 17.1931 80.4284C17.0665 80.1172 17.0035 79.784 17.0077 79.4482V67.5979C16.982 67.278 17.0207 66.956 17.1215 66.651C17.2249 66.3385 17.3914 66.0506 17.6107 65.8049C17.83 65.5593 18.0974 65.3612 18.3963 65.2228C18.6952 65.0844 19.0193 65.0086 19.3486 65.0002L19.3615 65Z" fill="#333333"/>
<path d="M32 42.5H19C18.1716 42.5 17.5 43.1716 17.5 44V57C17.5 57.8284 18.1716 58.5 19 58.5H32C32.8284 58.5 33.5 57.8284 33.5 57V44C33.5 43.1716 32.8284 42.5 32 42.5Z" fill="#BDECFF" stroke="#333333"/>
<path d="M32 90.5H19C18.1716 90.5 17.5 91.1716 17.5 92V105C17.5 105.828 18.1716 106.5 19 106.5H32C32.8284 106.5 33.5 105.828 33.5 105V92C33.5 91.1716 32.8284 90.5 32 90.5Z" fill="#BDECFF" stroke="#333333"/>
<path fill-rule="evenodd" clip-rule="evenodd" d="M51 31.5C51 31.7761 51.2222 32 51.4963 32H85.5037C85.7778 32 86 31.7761 86 31.5C86 31.2239 85.7778 31 85.5037 31H51.4963C51.2222 31 51 31.2239 51 31.5Z" fill="#333333"/>
<path fill-rule="evenodd" clip-rule="evenodd" d="M42.9951 36.5C42.9951 36.7761 43.2189 37 43.495 37H94.4952C94.7713 37 94.9951 36.7761 94.9951 36.5C94.9951 36.2239 94.7713 36 94.4952 36H43.495C43.2189 36 42.9951 36.2239 42.9951 36.5Z" fill="#333333"/>
<path d="M74.0485 6.00053L74.0678 6.47865L74.5463 6.48031L91.8557 6.54041V6.5405L91.8656 6.54034C92.5531 6.52908 93.2162 6.78851 93.7097 7.26042C94.202 7.73111 94.4855 8.37473 94.5 9.05045V14.9888C94.4831 15.664 94.1987 16.3064 93.7068 16.7768C93.2135 17.2485 92.5512 17.5088 91.864 17.4998V17.4997H91.8574L43.1325 17.4997L43.1275 17.4998C42.4417 17.5066 41.7817 17.2453 41.2902 16.7738C40.8001 16.3037 40.5169 15.6625 40.5 14.9889V8.99031C40.5145 8.31608 40.7969 7.67377 41.2873 7.20334C41.779 6.73167 42.4399 6.47125 43.1259 6.48027L43.1259 6.48031H43.1325H61.9879H62.468L62.4875 6.00053C62.6107 2.95677 65.2243 0.5 68.268 0.5C71.3116 0.5 73.9253 2.95677 74.0485 6.00053Z" fill="url(#paint0_linear_125_1472)" stroke="#333333"/>
<path fill-rule="evenodd" clip-rule="evenodd" d="M37 50.4996C37 50.2235 37.2239 49.9996 37.5 49.9996H41.5002C42.881 49.9996 44 51.119 44 52.4996L44.0001 95.5C44.0001 96.8807 42.8809 98 41.5001 98H37.5C37.2239 98 37 97.7761 37 97.5C37 97.2238 37.2239 97 37.5 97H41.5001C42.3286 97 43.0001 96.3284 43.0001 95.5L43 52.4996C43 51.6711 42.3286 50.9996 41.5002 50.9996H37.5C37.2239 50.9996 37 50.7758 37 50.4996Z" fill="#333333"/>
<path fill-rule="evenodd" clip-rule="evenodd" d="M86 59.5C86 59.2239 86.2035 59 86.4546 59L88.7276 59C89.9829 59.0001 91 60.1194 91 61.5V87.5C91 88.8807 89.9825 90 88.7273 90L86.4545 90C86.2035 90 86 89.7761 86 89.5C86 89.2239 86.2035 89 86.4545 89L88.7273 89C89.4804 89 90.0909 88.3284 90.0909 87.5V61.5C90.0909 60.6715 89.4806 60.0001 88.7276 60L86.4545 60C86.2035 60 86 59.7761 86 59.5Z" fill="#333333"/>
<path d="M43.5 73H38.5C38.2239 73 38 73.2239 38 73.5C38 73.7761 38.2239 74 38.5 74H43.5C43.7761 74 44 73.7761 44 73.5C44 73.2239 43.7761 73 43.5 73Z" fill="#333333"/>
<path d="M58.0002 52.5H78.9999C80.3806 52.5 81.4999 53.6193 81.4999 55V66C81.4999 67.3807 80.3806 68.5 78.9999 68.5H58.0001C56.6193 68.5 55.5 67.3807 55.5001 66L55.5002 55C55.5003 53.6193 56.6196 52.5 58.0002 52.5Z" fill="#BDECFF" stroke="#333333"/>
<path d="M106 51.5H113C114.381 51.5 115.5 52.6193 115.5 54V95C115.5 96.3807 114.381 97.5 113 97.5H106C104.619 97.5 103.5 96.3807 103.5 95L103.5 54C103.5 52.6193 104.619 51.5 106 51.5Z" fill="url(#paint1_linear_125_1472)" stroke="#333333"/>
<path d="M58.0002 81.5H78.9999C80.3806 81.5 81.4999 82.6193 81.4999 84V95C81.4999 96.3807 80.3806 97.5 78.9999 97.5H58.0001C56.6193 97.5 55.5 96.3807 55.5001 95L55.5002 84C55.5003 82.6193 56.6196 81.5 58.0002 81.5Z" fill="#BDECFF" stroke="#333333"/>
<path fill-rule="evenodd" clip-rule="evenodd" d="M59 58.5C59 58.7761 59.2239 59 59.5 59H71.5C71.7761 59 72 58.7761 72 58.5C72 58.2239 71.7761 58 71.5 58H59.5C59.2239 58 59 58.2239 59 58.5Z" fill="#333333"/>
<path fill-rule="evenodd" clip-rule="evenodd" d="M59 62.5C59 62.7761 59.2239 63 59.5 63H76.5C76.7761 63 77 62.7761 77 62.5C77 62.2239 76.7761 62 76.5 62H59.5C59.2239 62 59 62.2239 59 62.5Z" fill="#333333"/>
<path fill-rule="evenodd" clip-rule="evenodd" d="M59 91.5C59 91.2239 59.2239 91 59.5 91H75.5C75.7761 91 76 91.2239 76 91.5C76 91.7761 75.7761 92 75.5 92H59.5C59.2239 92 59 91.7761 59 91.5Z" fill="#333333"/>
<path fill-rule="evenodd" clip-rule="evenodd" d="M59 87.5C59 87.2239 59.2388 87 59.5333 87H66.4667C66.7612 87 67 87.2239 67 87.5C67 87.7761 66.7612 88 66.4667 88H59.5333C59.2388 88 59 87.7761 59 87.5Z" fill="#333333"/>
<path d="M51.5 59H47.5C47.2239 59 47 59.2239 47 59.5C47 59.7761 47.2239 60 47.5 60H51.5C51.7761 60 52 59.7761 52 59.5C52 59.2239 51.7761 59 51.5 59Z" fill="#333333"/>
<path d="M51.5 89H47.5C47.2239 89 47 89.2239 47 89.5C47 89.7761 47.2239 90 47.5 90H51.5C51.7761 90 52 89.7761 52 89.5C52 89.2239 51.7761 89 51.5 89Z" fill="#333333"/>
<path d="M99.5 74H94.5C94.2239 74 94 74.2239 94 74.5C94 74.7761 94.2239 75 94.5 75H99.5C99.7761 75 100 74.7761 100 74.5C100 74.2239 99.7761 74 99.5 74Z" fill="#333333"/>
<defs>
<linearGradient id="paint0_linear_125_1472" x1="54.8438" y1="-7.30114" x2="70.6619" y2="17.3355" gradientUnits="userSpaceOnUse">
<stop stop-color="#FFC671"/>
<stop offset="1" stop-color="#FF6F3D"/>
</linearGradient>
<linearGradient id="paint1_linear_125_1472" x1="103" y1="49.1641" x2="127.973" y2="56.3412" gradientUnits="userSpaceOnUse">
<stop stop-color="#FF8E3D"/>
<stop offset="1" stop-color="#FF6F3D"/>
</linearGradient>
</defs>
</svg>
