<svg width="135" height="135" viewBox="0 0 135 135" fill="none" xmlns="http://www.w3.org/2000/svg">
<path fill-rule="evenodd" clip-rule="evenodd" d="M93.3112 117.923L88.5578 114.864C86.5107 113.545 83.924 113.439 81.667 114.378C79.4169 115.311 77.6508 117.218 77.1326 119.603L75.928 125.129C75.5638 126.798 74.0849 127.998 72.3745 127.997L51.7302 128C50.0198 128 48.5334 126.807 48.1756 125.131L46.9757 119.611C46.4565 117.226 44.6966 115.325 42.4392 114.384C40.1889 113.451 37.6022 113.556 35.5486 114.867L30.7964 117.924C29.3526 118.85 27.4668 118.646 26.2539 117.432L11.6492 102.82C10.4362 101.606 10.2325 99.7192 11.1576 98.2745L14.213 93.5198C15.5374 91.4651 15.635 88.884 14.6952 86.6254C13.7625 84.3738 11.8624 82.613 9.47191 82.0864L3.95483 80.886C2.28639 80.5209 1.08739 79.0408 1.08704 77.3294L1.08987 56.6739C0.587453 54 2.28092 53.4759 3.95622 53.1185L9.47983 51.9133C11.8631 51.3948 13.7624 49.6347 14.7013 47.3765C15.6332 45.1252 15.5275 42.5371 14.2162 40.4818L11.1519 35.7189C10.2263 34.2739 10.4292 32.3872 11.6417 31.1741L26.2335 16.5744C27.446 15.3613 29.3316 15.1583 30.7758 16.0844L35.5292 19.1433C37.5764 20.4623 40.1701 20.561 42.4201 19.6287C44.6701 18.6963 46.4432 16.7959 46.9545 14.4043L48.1591 8.87775C48.5232 7.20855 50.0021 6.0095 51.7195 6.00283L72.3639 6C74.0743 6.00035 75.5606 7.19298 75.9185 8.86934L77.1183 14.3894C77.6375 16.7742 79.3974 18.6753 81.6548 19.6156C83.9052 20.5489 86.4918 20.4442 88.5455 19.133L93.2976 16.076C94.7415 15.1505 96.6272 15.3542 97.8402 16.5679L112.438 31.1734C113.651 32.3871 113.847 34.2808 112.929 35.7185L109.874 40.4732C108.557 42.5209 108.452 45.109 109.392 47.3676C110.325 49.6192 112.218 51.387 114.615 51.9065L120.132 53.107C121.801 53.4721 123 54.9522 123 56.6636L122.997 77.319C122.998 79.0304 121.806 80.5171 120.124 80.8814L114.6 82.0867C112.217 82.6052 110.318 84.3653 109.379 86.6235C108.447 88.8748 108.546 91.4699 109.864 93.5182L112.921 98.2741C113.847 99.7191 113.644 101.606 112.431 102.819L97.8325 117.426C96.6411 118.646 94.7484 118.856 93.3112 117.923ZM77.4966 82.4649C86.019 73.9379 86.0162 60.0647 77.4903 51.5343C68.9645 43.0039 55.0988 43.001 46.5764 51.528C38.054 60.055 38.0569 73.9282 46.5827 82.4587C55.1085 90.9891 68.9742 90.9919 77.4966 82.4649Z" fill="url(#paint0_linear_125_2438)"/>
<path d="M84.5 67.5L84.9997 67.5169L84.5 67.5ZM39.5 67.5L39.0003 67.5169L39.5 67.5ZM123 55H123.5C123.5 54.8674 123.447 54.7402 123.354 54.6464L123 55ZM121 53L121.354 52.6464C121.254 52.5468 121.117 52.4938 120.976 52.5006L121 53ZM108.647 46L108.163 46.1266L108.647 46ZM114.147 34L114.506 34.3482C114.61 34.2403 114.661 34.091 114.644 33.9416L114.147 34ZM114 32.75L114.497 32.6916C114.483 32.5774 114.431 32.4713 114.348 32.3912L114 32.75ZM97 16.25L97.3482 15.8912C97.3032 15.8475 97.2503 15.8126 97.1923 15.7885L97 16.25ZM94 15L94.1923 14.5385C94.0077 14.4615 93.795 14.502 93.6515 14.6414L94 15ZM87 19.5L86.8821 19.0141L87 19.5ZM81 19.5L80.7747 19.9464L80.7747 19.9464L81 19.5ZM77.5 15L77.9408 14.764L77.5 15ZM75.5 7L75.9979 6.95368C75.9831 6.79517 75.8938 6.65316 75.7572 6.57125L75.5 7ZM73 5.5L73.2572 5.07125C73.1795 5.02463 73.0906 5 73 5V5.5ZM50.5 5.5V5C50.3918 5 50.2865 5.03509 50.2 5.1L50.5 5.5ZM48.5 7L48.2 6.6C48.0902 6.68231 48.0191 6.80611 48.0033 6.94238L48.5 7ZM46.5 15L46.9497 15.2186L46.9497 15.2186L46.5 15ZM43.5 19.5L43.7578 19.9284L43.7578 19.9284L43.5 19.5ZM38 20L37.9352 20.4958L38 20ZM29.5 15L29.8465 14.6396C29.7534 14.55 29.6292 14.5 29.5 14.5V15ZM27 15V14.5C26.8648 14.5 26.7354 14.5547 26.6412 14.6518L27 15ZM15 45.5L14.5108 45.3965L15 45.5ZM12.5 50.5L12.2226 50.084L12.5 50.5ZM1.49991 53.5L1.14632 53.1465L1.49991 53.5ZM0.5 55.5L0.0212233 55.3559C0.0071503 55.4026 0 55.4512 0 55.5H0.5ZM0.5 77.5H0C0 77.5776 0.0180725 77.6542 0.0527864 77.7236L0.5 77.5ZM2 80.5L1.55279 80.7236C1.6376 80.8932 1.8111 81.0003 2.00076 81L2 80.5ZM13.5 84.5L13.078 84.7681L13.078 84.7681L13.5 84.5ZM15 90.5L14.5008 90.4719L15 90.5ZM10.5 101H10C10 101.127 10.0486 101.25 10.1359 101.343L10.5 101ZM26.5 118L26.1359 118.343C26.1926 118.403 26.2634 118.448 26.3419 118.474L26.5 118ZM29.5 119L29.3419 119.474C29.5038 119.528 29.682 119.496 29.8146 119.389L29.5 119ZM42 114.5L41.8426 114.975L42 114.5ZM77.4867 119.115C77.55 118.846 77.3833 118.577 77.1145 118.513C76.8457 118.45 76.5765 118.617 76.5133 118.885L77.4867 119.115ZM75.3628 125.958L75.8495 126.073L75.3628 125.958ZM48.6888 125.785L48.1996 125.888L48.6888 125.785ZM10.7762 98.2036L10.4062 97.8672L10.7762 98.2036ZM62 89.5C74.4154 89.5 84.5807 79.9403 84.9997 67.5169L84.0003 67.4831C83.6 79.3527 73.8914 88.5 62 88.5V89.5ZM84.9997 67.5169C85.433 54.6685 74.8402 44 62 44V45C74.2902 45 84.414 55.2153 84.0003 67.4831L84.9997 67.5169ZM62 44C49.1597 44 38.5669 54.6685 39.0003 67.5169L39.9997 67.4831C39.586 55.2153 49.7097 45 62 45V44ZM39.0003 67.5169C39.4192 79.9403 49.5846 89.5 62 89.5V88.5C50.1086 88.5 40.4 79.3527 39.9997 67.4831L39.0003 67.5169ZM123.5 67V55H122.5V67H123.5ZM123.354 54.6464L121.354 52.6464L120.646 53.3536L122.646 55.3536L123.354 54.6464ZM121 53C120.976 52.5006 120.976 52.5006 120.976 52.5006C120.976 52.5006 120.976 52.5006 120.976 52.5006C120.976 52.5006 120.976 52.5006 120.976 52.5006C120.975 52.5006 120.973 52.5007 120.971 52.5008C120.967 52.501 120.961 52.5012 120.952 52.5015C120.934 52.5022 120.907 52.5031 120.871 52.5039C120.799 52.5057 120.691 52.5073 120.551 52.5068C120.273 52.5059 119.871 52.4964 119.381 52.4622C118.399 52.3935 117.075 52.2257 115.697 51.8317C112.928 51.0404 110.047 49.374 109.131 45.8734L108.163 46.1266C109.21 50.126 112.505 51.9596 115.422 52.7933C116.887 53.2118 118.283 53.3878 119.311 53.4597C119.826 53.4957 120.251 53.5058 120.548 53.5068C120.697 53.5073 120.814 53.5056 120.895 53.5036C120.935 53.5027 120.967 53.5017 120.988 53.5009C120.999 53.5005 121.008 53.5001 121.014 53.4999C121.017 53.4998 121.019 53.4997 121.021 53.4996C121.022 53.4995 121.022 53.4995 121.023 53.4995C121.023 53.4995 121.023 53.4995 121.024 53.4994C121.024 53.4994 121.024 53.4994 121 53ZM109.131 45.8734C108.838 44.7557 108.992 43.4881 109.43 42.1797C109.866 40.8748 110.571 39.5697 111.327 38.4015C112.082 37.2355 112.878 36.22 113.487 35.4952C113.791 35.1333 114.047 34.845 114.227 34.6478C114.317 34.5492 114.387 34.4735 114.435 34.4228C114.459 34.3975 114.477 34.3784 114.489 34.3659C114.495 34.3596 114.499 34.355 114.502 34.352C114.504 34.3505 114.505 34.3495 114.505 34.3488C114.505 34.3485 114.506 34.3483 114.506 34.3482C114.506 34.3481 114.506 34.3481 114.506 34.3481C114.506 34.3481 114.506 34.3482 114.147 34C113.788 33.6518 113.788 33.6519 113.788 33.652C113.788 33.6521 113.788 33.6523 113.788 33.6524C113.787 33.6528 113.787 33.6532 113.786 33.6537C113.785 33.6548 113.784 33.6563 113.782 33.6582C113.778 33.662 113.773 33.6675 113.766 33.6747C113.752 33.689 113.733 33.7099 113.707 33.7372C113.656 33.7917 113.581 33.8715 113.487 33.9744C113.3 34.1802 113.035 34.4787 112.721 34.8521C112.095 35.5982 111.271 36.6476 110.488 37.8582C109.706 39.0665 108.954 40.4497 108.482 41.8625C108.01 43.2716 107.803 44.7508 108.163 46.1266L109.131 45.8734ZM114.644 33.9416L114.497 32.6916L113.503 32.8084L113.65 34.0584L114.644 33.9416ZM114.348 32.3912L97.3482 15.8912L96.6518 16.6088L113.652 33.1088L114.348 32.3912ZM97.1923 15.7885L94.1923 14.5385L93.8077 15.4615L96.8077 16.7115L97.1923 15.7885ZM94 15C93.6515 14.6414 93.6516 14.6414 93.6516 14.6414C93.6516 14.6414 93.6516 14.6414 93.6516 14.6414C93.6515 14.6414 93.6514 14.6415 93.6513 14.6417C93.651 14.642 93.6504 14.6425 93.6496 14.6433C93.6481 14.6448 93.6456 14.6472 93.6422 14.6504C93.6354 14.657 93.6251 14.6669 93.6113 14.68C93.5836 14.7064 93.5422 14.7456 93.488 14.796C93.3796 14.897 93.2204 15.0429 93.0192 15.2207C92.6165 15.5767 92.0473 16.059 91.3819 16.5644C90.0345 17.5876 88.3542 18.6568 86.8821 19.0141L87.1179 19.9859C88.804 19.5767 90.6236 18.3959 91.9867 17.3608C92.6765 16.8369 93.2652 16.338 93.6815 15.97C93.8899 15.7858 94.0555 15.634 94.1695 15.5278C94.2266 15.4747 94.2707 15.4329 94.3009 15.4042C94.316 15.3898 94.3276 15.3787 94.3356 15.371C94.3396 15.3672 94.3426 15.3642 94.3448 15.3621C94.3459 15.3611 94.3467 15.3603 94.3473 15.3597C94.3476 15.3594 94.3479 15.3591 94.3481 15.359C94.3482 15.3589 94.3483 15.3588 94.3483 15.3587C94.3484 15.3586 94.3485 15.3586 94 15ZM86.8821 19.0141C84.5661 19.5762 83.1252 20.0125 81.2253 19.0536L80.7747 19.9464C83.0585 21.0989 84.8798 20.5291 87.1179 19.9859L86.8821 19.0141ZM81.2253 19.0536C79.4174 18.1413 79.0383 16.8141 77.9408 14.764L77.0592 15.236C78.0632 17.1114 78.6075 18.8526 80.7747 19.9464L81.2253 19.0536ZM77.9408 14.764C77.2191 13.4158 76.7299 11.4797 76.4214 9.84274C76.2685 9.03159 76.1624 8.3074 76.0946 7.7862C76.0607 7.52577 76.0364 7.31643 76.0206 7.17275C76.0127 7.10092 76.007 7.04554 76.0032 7.00841C76.0014 6.98985 76 6.97585 75.9991 6.96666C75.9986 6.96206 75.9983 6.95866 75.9981 6.95649C75.998 6.9554 75.9979 6.95462 75.9979 6.95415C75.9979 6.95392 75.9979 6.95376 75.9979 6.95369C75.9978 6.95365 75.9978 6.95365 75.9978 6.95363C75.9978 6.95365 75.9979 6.95368 75.5 7C75.0021 7.04632 75.0022 7.04639 75.0022 7.04649C75.0022 7.04655 75.0022 7.04667 75.0022 7.04679C75.0022 7.04702 75.0022 7.04734 75.0023 7.04773C75.0024 7.04851 75.0025 7.04961 75.0026 7.05102C75.0029 7.05383 75.0032 7.05787 75.0038 7.06313C75.0048 7.07363 75.0063 7.08896 75.0083 7.10889C75.0123 7.14875 75.0184 7.20702 75.0266 7.28185C75.043 7.4315 75.0681 7.64754 75.103 7.91529C75.1726 8.45049 75.2815 9.19396 75.4387 10.0279C75.7502 11.6812 76.2611 13.7451 77.0592 15.236L77.9408 14.764ZM75.7572 6.57125L73.2572 5.07125L72.7428 5.92875L75.2428 7.42875L75.7572 6.57125ZM73 5H50.5V6H73V5ZM50.2 5.1L48.2 6.6L48.8 7.4L50.8 5.9L50.2 5.1ZM48.5 7C48.0033 6.94238 48.0033 6.94235 48.0033 6.94234C48.0033 6.94236 48.0033 6.94237 48.0033 6.94241C48.0033 6.9425 48.0033 6.94267 48.0033 6.94291C48.0032 6.94339 48.0031 6.94418 48.003 6.94528C48.0027 6.94747 48.0023 6.95087 48.0018 6.95547C48.0007 6.96465 47.999 6.97858 47.9967 6.99704C47.9922 7.03396 47.9853 7.08897 47.976 7.16029C47.9574 7.30295 47.9292 7.51077 47.8909 7.76951C47.8143 8.28727 47.6976 9.00756 47.5375 9.81687C47.2149 11.4477 46.7246 13.3944 46.0503 14.7814L46.9497 15.2186C47.6834 13.7093 48.193 11.656 48.5185 10.0109C48.6824 9.18227 48.8017 8.44561 48.8801 7.91591C48.9193 7.65092 48.9483 7.43739 48.9676 7.28962C48.9772 7.21573 48.9844 7.15826 48.9893 7.11901C48.9917 7.09938 48.9935 7.0843 48.9947 7.07399C48.9953 7.06884 48.9958 7.06488 48.9961 7.06214C48.9963 7.06077 48.9964 7.05971 48.9965 7.05895C48.9966 7.05858 48.9966 7.05828 48.9966 7.05805C48.9966 7.05794 48.9966 7.05783 48.9967 7.05778C48.9967 7.05769 48.9967 7.05762 48.5 7ZM46.0503 14.7814C45.8132 15.2692 45.6181 15.7325 45.4369 16.1538C45.2535 16.5801 45.085 16.9619 44.893 17.3152C44.5177 18.0059 44.0553 18.5823 43.2422 19.0716L43.7578 19.9284C44.7544 19.3287 45.3303 18.6049 45.7717 17.7927C45.988 17.3946 46.1725 16.9743 46.3555 16.5489C46.5406 16.1185 46.7251 15.6806 46.9497 15.2186L46.0503 14.7814ZM43.2422 19.0716C41.572 20.0767 40.2511 19.7902 38.0648 19.5042L37.9352 20.4958C40.026 20.7693 41.7322 21.1474 43.7578 19.9284L43.2422 19.0716ZM38.0648 19.5042C36.2879 19.2718 34.2498 18.0887 32.6104 16.9071C31.8011 16.3238 31.1082 15.7552 30.6176 15.3323C30.3725 15.121 30.1785 14.9466 30.0463 14.8256C29.9802 14.7651 29.9296 14.7179 29.8958 14.6862C29.879 14.6704 29.8663 14.6584 29.858 14.6505C29.8539 14.6466 29.8509 14.6437 29.8489 14.6419C29.848 14.6409 29.8473 14.6403 29.8469 14.6399C29.8467 14.6397 29.8465 14.6396 29.8465 14.6395C29.8465 14.6395 29.8465 14.6395 29.8465 14.6395C29.8465 14.6395 29.8465 14.6396 29.5 15C29.1535 15.3604 29.1536 15.3605 29.1537 15.3606C29.1537 15.3607 29.1538 15.3608 29.1539 15.3609C29.1542 15.3611 29.1545 15.3614 29.1548 15.3617C29.1556 15.3625 29.1566 15.3634 29.1579 15.3647C29.1605 15.3672 29.1642 15.3707 29.1691 15.3753C29.1787 15.3845 29.1928 15.3979 29.2112 15.4151C29.2479 15.4496 29.3016 15.4996 29.371 15.5631C29.5097 15.6902 29.7112 15.8713 29.9647 16.0897C30.4712 16.5263 31.1872 17.114 32.0257 17.7183C33.6816 18.9118 35.8934 20.2287 37.9352 20.4958L38.0648 19.5042ZM29.5 14.5H27V15.5H29.5V14.5ZM26.6412 14.6518L11.5828 30.1665L12.3004 30.863L27.3588 15.3482L26.6412 14.6518ZM9.5 34C9.5 34.3276 9.6553 34.6676 9.82367 34.9646C10.0027 35.2803 10.2501 35.6362 10.5279 36.0158C11.0949 36.7906 11.8004 37.6818 12.4854 38.7003C13.8615 40.7466 14.9986 43.0917 14.5108 45.3965L15.4892 45.6035C16.0688 42.8649 14.7058 40.2101 13.3152 38.1422C12.6167 37.1036 11.872 36.1592 11.3348 35.4252C11.0605 35.0503 10.8422 34.7335 10.6936 34.4713C10.5343 34.1904 10.5 34.0474 10.5 34H9.5ZM14.5108 45.3965C14.0476 47.5851 13.8389 49.0065 12.2226 50.084L12.7774 50.916C14.794 49.5716 15.0483 47.6865 15.4892 45.6035L14.5108 45.3965ZM12.2226 50.084C11.5347 50.5426 10.5598 50.9319 9.44376 51.2628C8.33448 51.5918 7.11896 51.8537 5.96948 52.0712C4.80964 52.2906 3.75914 52.4575 2.91867 52.6096C2.50731 52.684 2.14714 52.7549 1.87049 52.8248C1.73271 52.8597 1.60407 52.8971 1.49512 52.9385C1.4049 52.9729 1.25828 53.0345 1.14632 53.1465L1.85349 53.8535C1.80403 53.903 1.77458 53.9021 1.85062 53.8732C1.90792 53.8514 1.99461 53.8249 2.11561 53.7943C2.35653 53.7334 2.68777 53.6676 3.09673 53.5936C3.89689 53.4488 5.00266 53.2719 6.15536 53.0538C7.31841 52.8338 8.57168 52.5645 9.72807 52.2216C10.8777 51.8806 11.9653 51.4574 12.7774 50.916L12.2226 50.084ZM1.14632 53.1465C0.785529 53.5073 0.50454 54.0905 0.325009 54.5211C0.230539 54.7476 0.155198 54.9545 0.103453 55.1047C0.0775105 55.18 0.0573217 55.2416 0.0434535 55.2849C0.0365155 55.3065 0.0311478 55.3237 0.0274216 55.3357C0.0255581 55.3417 0.0241041 55.3464 0.0230683 55.3498C0.0225504 55.3515 0.022137 55.3529 0.0218291 55.3539C0.0216752 55.3544 0.0215477 55.3548 0.0214467 55.3551C0.0213961 55.3553 0.0213523 55.3554 0.021315 55.3556C0.0212964 55.3556 0.0212735 55.3557 0.0212642 55.3557C0.0212429 55.3558 0.0212233 55.3559 0.5 55.5C0.978777 55.6441 0.97876 55.6442 0.978746 55.6442C0.978743 55.6442 0.97873 55.6443 0.978724 55.6443C0.978713 55.6443 0.978709 55.6444 0.978711 55.6443C0.978715 55.6443 0.978744 55.6442 0.9788 55.6441C0.97891 55.6437 0.979123 55.643 0.979437 55.642C0.980066 55.6399 0.9811 55.6365 0.98253 55.6319C0.98539 55.6227 0.989831 55.6085 0.995782 55.59C1.00769 55.5528 1.02559 55.4981 1.04892 55.4304C1.09572 55.2946 1.16362 55.1082 1.24798 54.9059C1.42609 54.4788 1.64506 54.062 1.85349 53.8535L1.14632 53.1465ZM0 55.5V77.5H1V55.5H0ZM0.0527864 77.7236L1.55279 80.7236L2.44721 80.2764L0.947214 77.2764L0.0527864 77.7236ZM2 80.5C2.00076 81 2.00068 81 2.00064 81C2.00067 81 2.00067 81 2.00073 81C2.00085 81 2.00111 81 2.00151 81C2.0023 81 2.00362 81 2.00548 81C2.00919 81 2.01502 81 2.02291 81.0001C2.03869 81.0002 2.0627 81.0004 2.09449 81.0008C2.15806 81.0016 2.25268 81.0034 2.37462 81.007C2.61855 81.0143 2.97144 81.0292 3.40347 81.0594C4.2686 81.1198 5.44575 81.2415 6.69822 81.4857C7.95315 81.7303 9.26751 82.0948 10.4147 82.6342C11.5655 83.1753 12.5104 83.8747 13.078 84.7681L13.922 84.2319C13.2148 83.1185 12.0848 82.3145 10.8403 81.7293C9.5922 81.1425 8.19092 80.7578 6.88955 80.5041C5.58573 80.25 4.36594 80.1242 3.4732 80.0618C3.02629 80.0306 2.66001 80.0151 2.40451 80.0075C2.27673 80.0037 2.17657 80.0018 2.10779 80.0009C2.0734 80.0004 2.04684 80.0002 2.0286 80.0001C2.01947 80 2.01243 80 2.00752 80C2.00506 80 2.00314 80 2.00176 80C2.00106 80 2.00051 80 2.00009 80C1.99988 80 1.99967 80 1.99956 80C1.99939 80 1.99924 80 2 80.5ZM13.078 84.7681C13.7045 85.7543 14.0869 86.6011 14.3009 87.4787C14.5153 88.3582 14.5671 89.2952 14.5008 90.4719L15.4992 90.5281C15.5688 89.2933 15.5182 88.2498 15.2724 87.2418C15.0262 86.2319 14.5906 85.2843 13.922 84.2319L13.078 84.7681ZM14.5008 90.4719C14.4231 91.8501 13.6661 93.4226 12.7614 94.8224C11.8666 96.2069 10.8733 97.3535 10.4062 97.8672L11.1461 98.5399C11.6318 98.0058 12.665 96.8139 13.6013 95.3652C14.5277 93.9319 15.4063 92.1765 15.4992 90.5281L14.5008 90.4719ZM10 98.906V101H11V98.906H10ZM10.1359 101.343L26.1359 118.343L26.8641 117.657L10.8641 100.657L10.1359 101.343ZM26.3419 118.474L29.3419 119.474L29.6581 118.526L26.6581 117.526L26.3419 118.474ZM29.5 119C29.8146 119.389 29.8146 119.389 29.8145 119.389C29.8146 119.389 29.8146 119.389 29.8146 119.389C29.8147 119.389 29.815 119.388 29.8153 119.388C29.816 119.387 29.8172 119.387 29.8187 119.385C29.8219 119.383 29.8269 119.379 29.8337 119.373C29.8472 119.363 29.8678 119.346 29.8951 119.325C29.9498 119.282 30.0314 119.218 30.1374 119.138C30.3496 118.977 30.6593 118.748 31.0468 118.477C31.8226 117.936 32.9057 117.232 34.1373 116.579C35.3712 115.926 36.7399 115.332 38.0889 115C39.4417 114.667 40.7343 114.607 41.8426 114.975L42.1574 114.025C40.8034 113.576 39.3025 113.671 37.8498 114.029C36.3934 114.387 34.9449 115.02 33.6693 115.696C32.3915 116.372 31.2729 117.1 30.4744 117.657C30.0747 117.936 29.7542 118.173 29.5328 118.341C29.4221 118.425 29.3362 118.492 29.2774 118.538C29.2481 118.561 29.2255 118.579 29.2101 118.592C29.2023 118.598 29.1964 118.603 29.1923 118.606C29.1902 118.607 29.1886 118.609 29.1874 118.61C29.1869 118.61 29.1864 118.611 29.1861 118.611C29.1859 118.611 29.1857 118.611 29.1856 118.611C29.1855 118.611 29.1854 118.611 29.5 119ZM41.8426 114.975C43.7054 115.592 45.1313 117.449 46.1889 119.669C47.2358 121.866 47.8655 124.301 48.1996 125.888L49.1781 125.682C48.8371 124.062 48.1877 121.539 47.0917 119.239C46.0064 116.96 44.4254 114.778 42.1574 114.025L41.8426 114.975ZM50.7455 128H73.416V127H50.7455V128ZM75.8495 126.073L77.4867 119.115L76.5133 118.885L74.8761 125.844L75.8495 126.073ZM73.416 128C74.5761 128 75.5838 127.202 75.8495 126.073L74.8761 125.844C74.7167 126.521 74.112 127 73.416 127V128ZM48.1996 125.888C48.4509 127.082 49.4931 128 50.7455 128V127C49.9978 127 49.3387 126.445 49.1781 125.682L48.1996 125.888ZM10.4062 97.8672C10.1514 98.1474 10 98.5154 10 98.906H11C11 98.7759 11.0506 98.645 11.1461 98.5399L10.4062 97.8672ZM11.5828 30.1665C10.6505 31.1271 9.5 32.4041 9.5 34H10.5C10.5 32.8642 11.3301 31.8626 12.3004 30.863L11.5828 30.1665Z" fill="#333333"/>
<path d="M119.542 91.7409V92.2409H120.042H122.807C123.521 92.2409 124.219 92.3229 124.881 92.4855L125.5 92.6378V92V85.7458C125.5 78.4664 119.625 72.5 112.429 72.5H103.571C96.3746 72.5 90.5 78.4664 90.5 85.7458V92V92.6363L91.1182 92.4858C91.7882 92.3228 92.4796 92.2409 93.1933 92.2409H95.9583H96.4583V91.7409V86.7894C96.4583 82.3229 99.841 78.4259 104.145 78.4259H111.783C116.092 78.4259 119.542 82.3289 119.542 86.7894V91.7409Z" fill="#EFEFEF" stroke="#333333"/>
<path fill-rule="evenodd" clip-rule="evenodd" d="M92.8283 91H123.172C128 91.499 133 95.99 133 100.548V123.368C133 128.619 128.405 133 123 133H92.5C87.1805 133.042 83 129.423 83 123.368V100.541C83 95.2899 87.4231 91 92.8283 91Z" fill="#BDECFF"/>
<path fill-rule="evenodd" clip-rule="evenodd" d="M92.3283 92C87.186 92 83 96.0877 83 101.06V123.933C83 128.906 87.1865 133 92.3283 133H122.672C127.814 133 132 128.906 132 123.933V101.067C132 96.0943 127.814 92 122.672 92H92.3283ZM82 101.06C82 95.5092 86.6602 91 92.3283 91H122.672C128.34 91 133 95.5168 133 101.067V123.933C133 129.483 128.34 134 122.672 134H92.3283C86.6598 134 82 129.483 82 123.933V101.06Z" fill="#333333"/>
<path d="M111.914 121.5H112.521L112.405 120.904L110.495 111.114C111.711 110.269 112.5 108.826 112.5 107.2V107.2V107.2V107.2V107.2V107.2V107.2V107.2V107.2V107.2V107.2V107.2V107.199V107.199V107.199V107.199V107.199V107.199V107.199V107.199V107.199V107.199V107.199V107.199V107.199V107.198V107.198V107.198V107.198V107.198V107.198V107.198V107.198V107.198V107.198V107.198V107.198V107.197V107.197V107.197V107.197V107.197V107.197V107.197V107.197V107.197V107.197V107.197V107.197V107.197V107.196V107.196V107.196V107.196V107.196V107.196V107.196V107.196V107.196V107.196V107.196V107.196V107.196V107.195V107.195V107.195V107.195V107.195V107.195V107.195V107.195V107.195V107.195V107.195V107.195V107.195V107.194V107.194V107.194V107.194V107.194V107.194V107.194V107.194V107.194V107.194V107.194V107.194V107.194V107.193V107.193V107.193V107.193V107.193V107.193V107.193V107.193V107.193V107.193V107.193V107.193V107.193V107.192V107.192V107.192V107.192V107.192V107.192V107.192V107.192V107.192V107.192V107.192V107.192V107.192V107.192V107.191V107.191V107.191V107.191V107.191V107.191V107.191V107.191V107.191V107.191V107.191V107.191V107.191V107.19V107.19V107.19V107.19V107.19V107.19V107.19V107.19V107.19V107.19V107.19V107.19V107.19V107.19V107.189V107.189V107.189V107.189V107.189V107.189V107.189V107.189V107.189V107.189V107.189V107.189V107.189V107.189V107.188V107.188V107.188V107.188V107.188V107.188V107.188V107.188V107.188V107.188V107.188V107.188V107.188V107.188V107.187V107.187V107.187V107.187V107.187V107.187V107.187V107.187V107.187V107.187V107.187V107.187V107.187V107.187V107.186V107.186V107.186V107.186V107.186V107.186V107.186V107.186V107.186V107.186V107.186V107.186V107.186V107.186V107.185V107.185V107.185V107.185V107.185V107.185V107.185V107.185V107.185V107.185V107.185V107.185V107.185V107.185V107.185V107.184V107.184V107.184V107.184V107.184V107.184V107.184V107.184V107.184V107.184V107.184V107.184V107.184V107.184V107.183V107.183V107.183V107.183V107.183V107.183V107.183V107.183V107.183V107.183V107.183V107.183V107.183V107.183V107.183V107.182V107.182V107.182V107.182V107.182V107.182V107.182V107.182V107.182V107.182V107.182V107.182V107.182V107.182V107.181V107.181V107.181V107.181V107.181V107.181V107.181V107.181V107.181V107.181V107.181V107.181V107.181V107.181V107.18V107.18V107.18V107.18V107.18V107.18V107.18V107.18V107.18V107.18V107.18V107.18V107.18V107.18V107.18V107.179V107.179V107.179V107.179V107.179V107.179V107.179V107.179V107.179V107.179V107.179V107.179V107.179V107.179V107.178V107.178V107.178V107.178V107.178V107.178V107.178V107.178V107.178V107.178V107.178V107.178V107.178V107.178V107.177V107.177V107.177V107.177V107.177V107.177V107.177V107.177V107.177V107.177V107.177V107.177V107.177V107.177V107.177V107.176V107.176V107.176V107.176V107.176V107.176V107.176V107.176V107.176V107.176V107.176V107.176V107.176V107.176V107.175V107.175V107.175V107.175V107.175V107.175V107.175V107.175V107.175V107.175V107.175V107.175V107.175V107.175V107.174V107.174V107.174V107.174V107.174V107.174V107.174V107.174V107.174V107.174V107.174V107.174V107.174V107.174V107.173V107.173V107.173V107.173V107.173V107.173V107.173V107.173V107.173V107.173V107.173V107.173V107.173V107.173V107.172V107.172V107.172V107.172V107.172V107.172V107.172V107.172V107.172V107.172V107.172V107.172V107.172V107.171V107.171V107.171V107.171V107.171V107.171V107.171V107.171V107.171V107.171V107.171V107.171V107.171V107.171V107.17V107.17V107.17V107.17V107.17V107.17V107.17V107.17V107.17V107.17V107.17V107.17V107.17V107.169V107.169V107.169V107.169V107.169V107.169V107.169V107.169V107.169V107.169V107.169V107.169V107.169V107.168V107.168V107.168V107.168V107.168V107.168V107.168V107.168V107.168V107.168V107.168V107.168V107.168V107.167V107.167V107.167V107.167V107.167V107.167V107.167V107.167V107.167V107.167V107.167V107.167V107.167V107.166V107.166V107.166V107.166V107.166V107.166V107.166V107.166V107.166V107.166V107.166V107.166V107.166V107.165V107.165V107.165V107.165V107.165V107.165V107.165V107.165V107.165V107.165V107.165V107.165V107.164V107.164V107.164V107.164V107.164V107.164V107.164V107.164V107.164V107.164V107.164V107.164V107.163V107.163V107.163V107.163V107.163V107.163V107.163V107.163V107.163V107.163V107.163V107.163H112.5L112.5 107.159C112.48 104.605 110.493 102.5 108 102.5C105.507 102.5 103.52 104.605 103.5 107.159H103.5V107.163V107.163V107.163V107.163V107.163V107.163V107.163V107.163V107.163V107.163V107.163V107.163V107.164V107.164V107.164V107.164V107.164V107.164V107.164V107.164V107.164V107.164V107.164V107.164V107.165V107.165V107.165V107.165V107.165V107.165V107.165V107.165V107.165V107.165V107.165V107.165V107.166V107.166V107.166V107.166V107.166V107.166V107.166V107.166V107.166V107.166V107.166V107.166V107.166V107.167V107.167V107.167V107.167V107.167V107.167V107.167V107.167V107.167V107.167V107.167V107.167V107.167V107.168V107.168V107.168V107.168V107.168V107.168V107.168V107.168V107.168V107.168V107.168V107.168V107.168V107.169V107.169V107.169V107.169V107.169V107.169V107.169V107.169V107.169V107.169V107.169V107.169V107.169V107.17V107.17V107.17V107.17V107.17V107.17V107.17V107.17V107.17V107.17V107.17V107.17V107.17V107.171V107.171V107.171V107.171V107.171V107.171V107.171V107.171V107.171V107.171V107.171V107.171V107.171V107.171V107.172V107.172V107.172V107.172V107.172V107.172V107.172V107.172V107.172V107.172V107.172V107.172V107.172V107.173V107.173V107.173V107.173V107.173V107.173V107.173V107.173V107.173V107.173V107.173V107.173V107.173V107.173V107.174V107.174V107.174V107.174V107.174V107.174V107.174V107.174V107.174V107.174V107.174V107.174V107.174V107.174V107.175V107.175V107.175V107.175V107.175V107.175V107.175V107.175V107.175V107.175V107.175V107.175V107.175V107.175V107.176V107.176V107.176V107.176V107.176V107.176V107.176V107.176V107.176V107.176V107.176V107.176V107.176V107.176V107.177V107.177V107.177V107.177V107.177V107.177V107.177V107.177V107.177V107.177V107.177V107.177V107.177V107.177V107.177V107.178V107.178V107.178V107.178V107.178V107.178V107.178V107.178V107.178V107.178V107.178V107.178V107.178V107.178V107.179V107.179V107.179V107.179V107.179V107.179V107.179V107.179V107.179V107.179V107.179V107.179V107.179V107.179V107.18V107.18V107.18V107.18V107.18V107.18V107.18V107.18V107.18V107.18V107.18V107.18V107.18V107.18V107.18V107.181V107.181V107.181V107.181V107.181V107.181V107.181V107.181V107.181V107.181V107.181V107.181V107.181V107.181V107.182V107.182V107.182V107.182V107.182V107.182V107.182V107.182V107.182V107.182V107.182V107.182V107.182V107.182V107.183V107.183V107.183V107.183V107.183V107.183V107.183V107.183V107.183V107.183V107.183V107.183V107.183V107.183V107.183V107.184V107.184V107.184V107.184V107.184V107.184V107.184V107.184V107.184V107.184V107.184V107.184V107.184V107.184V107.185V107.185V107.185V107.185V107.185V107.185V107.185V107.185V107.185V107.185V107.185V107.185V107.185V107.185V107.185V107.186V107.186V107.186V107.186V107.186V107.186V107.186V107.186V107.186V107.186V107.186V107.186V107.186V107.186V107.187V107.187V107.187V107.187V107.187V107.187V107.187V107.187V107.187V107.187V107.187V107.187V107.187V107.187V107.188V107.188V107.188V107.188V107.188V107.188V107.188V107.188V107.188V107.188V107.188V107.188V107.188V107.188V107.189V107.189V107.189V107.189V107.189V107.189V107.189V107.189V107.189V107.189V107.189V107.189V107.189V107.189V107.19V107.19V107.19V107.19V107.19V107.19V107.19V107.19V107.19V107.19V107.19V107.19V107.19V107.19V107.191V107.191V107.191V107.191V107.191V107.191V107.191V107.191V107.191V107.191V107.191V107.191V107.191V107.192V107.192V107.192V107.192V107.192V107.192V107.192V107.192V107.192V107.192V107.192V107.192V107.192V107.192V107.193V107.193V107.193V107.193V107.193V107.193V107.193V107.193V107.193V107.193V107.193V107.193V107.193V107.194V107.194V107.194V107.194V107.194V107.194V107.194V107.194V107.194V107.194V107.194V107.194V107.194V107.195V107.195V107.195V107.195V107.195V107.195V107.195V107.195V107.195V107.195V107.195V107.195V107.195V107.196V107.196V107.196V107.196V107.196V107.196V107.196V107.196V107.196V107.196V107.196V107.196V107.196V107.197V107.197V107.197V107.197V107.197V107.197V107.197V107.197V107.197V107.197V107.197V107.197V107.197V107.198V107.198V107.198V107.198V107.198V107.198V107.198V107.198V107.198V107.198V107.198V107.198V107.199V107.199V107.199V107.199V107.199V107.199V107.199V107.199V107.199V107.199V107.199V107.199V107.199V107.2V107.2V107.2V107.2V107.2V107.2V107.2V107.2V107.2V107.2V107.2V107.2C103.5 108.827 104.294 110.269 105.505 111.113L103.595 120.904L103.479 121.5H104.086H107.995H111.914Z" fill="white" stroke="#333333"/>
<defs>
<linearGradient id="paint0_linear_125_2438" x1="-1.29204" y1="-2.69117" x2="71.5212" y2="77.5431" gradientUnits="userSpaceOnUse">
<stop stop-color="#FFC671"/>
<stop offset="1" stop-color="#FF6F3D"/>
</linearGradient>
</defs>
</svg>
