<svg width="135" height="135" viewBox="0 0 135 135" fill="none" xmlns="http://www.w3.org/2000/svg">
<g clip-path="url(#clip0_125_3184)">
<path fill-rule="evenodd" clip-rule="evenodd" d="M127 85V13.5104C126.987 11.6968 126.397 10.0651 125.135 8.7827C123.872 7.50026 122.49 7.01355 120.704 7H7.33536C5.54983 7.01355 3.95305 7.5879 2.69046 8.87034C1.42787 10.1528 1.01334 11.8768 1 13.6904V85H127Z" fill="#FEFEFE"/>
<path fill-rule="evenodd" clip-rule="evenodd" d="M8.24788 6H120.756C122.675 6.01457 124.51 6.79554 125.865 8.17166C127.22 9.54752 127.986 11.4078 128 13.3502L128 13.3539L128 75.6067C128 75.8829 127.776 76.1067 127.5 76.1067C127.224 76.1067 127 75.8829 127 75.6067V13.3556C126.987 11.6716 126.323 10.0618 125.153 8.87323C123.983 7.68493 122.401 7.01303 120.75 7H8.24981C6.59877 7.01303 5.01737 7.68493 3.84745 8.87323C2.67726 10.0618 2.01286 11.6717 2 13.3558V84.5C2 84.7761 1.77614 85 1.5 85C1.22386 85 1 84.7761 1 84.5V13.3502C1.01429 11.4078 1.78028 9.54752 3.13485 8.17166C4.48968 6.79554 6.32474 6.01458 8.24408 6.00001L8.24788 6Z" fill="#333333"/>
<path d="M114.5 13.5H12.5C10.2909 13.5 8.50007 15.2908 8.50004 17.5C8.50002 19.7091 10.2909 21.5 12.5 21.5H114.5C116.709 21.5 118.5 19.7091 118.5 17.5C118.5 15.2909 116.709 13.5 114.5 13.5Z" fill="#FEFEFE" stroke="#333333"/>
<path d="M95 13.5H94.5V14L94.5 18.2223L94.5 20.1771L94.5 20.7782L94.5 20.9425L94.5 20.9854L94.5 20.9963V20.9991V20.9998V20.9999L95 21L94.5 21L94.5 21.5H95H115.5C117.709 21.5 119.5 19.7091 119.5 17.5C119.5 15.2909 117.709 13.5 115.5 13.5H95Z" fill="url(#paint0_linear_125_3184)" stroke="#333333"/>
<path d="M81 104H47V113H81V104Z" fill="#EFEFEF"/>
<path fill-rule="evenodd" clip-rule="evenodd" d="M80.7074 113H39.4045C38.2706 113 37.183 113.47 36.3812 114.307C35.5794 115.144 35.1823 115.822 35.0645 117C34.5645 122 37.0645 122 39.3651 122H87.5645C88.6985 122 90.0104 121.454 90.8122 120.617C91.614 119.78 92.0645 118.645 92.0645 117.462C92.0645 116.279 91.614 115.144 90.8122 114.307C90.0104 113.47 88.9228 113 87.7889 113H80.7074Z" fill="#EFEFEF"/>
<path fill-rule="evenodd" clip-rule="evenodd" d="M35.4055 114.472C36.3083 113.532 37.537 113 38.8227 113H73.1304C73.4065 113 73.6304 113.224 73.6304 113.5C73.6304 113.776 73.4065 114 73.1304 114H38.8227C37.8155 114 36.8453 114.416 36.1267 115.164C35.4074 115.913 35 116.933 35 118C35 119.067 35.4074 120.087 36.1267 120.836C36.8453 121.584 37.8155 122 38.8227 122H78.5C78.7761 122 79 122.224 79 122.5C79 122.776 78.7761 123 78.5 123H38.8227C37.537 123 36.3083 122.468 35.4055 121.528C34.5034 120.589 34 119.32 34 118C34 116.68 34.5034 115.411 35.4055 114.472Z" fill="#333333"/>
<path d="M64.4387 97.7485C66.4595 97.7485 68.0977 96.1104 68.0977 94.0896C68.0977 92.0688 66.4595 90.4307 64.4387 90.4307C62.4179 90.4307 60.7798 92.0688 60.7798 94.0896C60.7798 96.1104 62.4179 97.7485 64.4387 97.7485Z" fill="#333333"/>
<rect x="14" y="27" width="13" height="51" fill="#EFEFEF"/>
<rect x="71" y="27" width="13" height="51" fill="#EFEFEF"/>
<rect x="43" y="26" width="13" height="51" fill="#EFEFEF"/>
<rect x="99" y="27" width="13" height="51" fill="#EFEFEF"/>
<path fill-rule="evenodd" clip-rule="evenodd" d="M128 85H2V98.2913C2.01334 99.9644 2.32811 101.398 3.5907 102.581C4.85329 103.764 6.1469 103.987 7.93242 104H121.252C123.038 103.987 124.746 103.317 126.009 102.134C127.271 100.951 127.987 99.3503 128 97.6773V85Z" fill="#BDECFF"/>
<path fill-rule="evenodd" clip-rule="evenodd" d="M1 84.5C1 84.2239 1.22386 84 1.5 84H74.5C74.7761 84 75 84.2239 75 84.5C75 84.7761 74.7761 85 74.5 85H2V97.8426C2.01282 99.4695 2.6737 101.028 3.84226 102.18C5.01107 103.333 6.59404 103.987 8.24978 104H69.5C69.7761 104 70 104.224 70 104.5C70 104.776 69.7761 105 69.5 105H8.24788L8.24419 105C6.32953 104.986 4.496 104.229 3.14004 102.892C1.78386 101.554 1.01437 99.7429 1.00001 97.8483L1 97.8445V84.5Z" fill="#333333"/>
<path d="M47 105H46V113H47V105Z" fill="#333333"/>
<path d="M81.8526 104.001H80.8896V113.631H81.8526V104.001Z" fill="#333333"/>
<path d="M16 30.5C16 29.6716 16.658 29 17.4697 29H39.0253C39.8369 29 40.4949 29.6716 40.4949 30.5C40.4949 31.3284 39.8369 32 39.0253 32H17.4697C16.658 32 16 31.3284 16 30.5Z" fill="url(#paint1_linear_125_3184)"/>
<path d="M50.2929 44.5C50.2929 43.6716 50.9509 43 51.7626 43H73.3182C74.1299 43 74.7879 43.6716 74.7879 44.5C74.7879 45.3284 74.1299 46 73.3182 46H51.7626C50.9509 46 50.2929 45.3284 50.2929 44.5Z" fill="url(#paint2_linear_125_3184)"/>
<path d="M52.7424 57C51.9307 57 51.2727 57.6716 51.2727 58.5C51.2727 59.3284 51.9307 60 52.7424 60H111.53C112.342 60 113 59.3284 113 58.5C113 57.6716 112.342 57 111.53 57H52.7424Z" fill="url(#paint3_linear_125_3184)"/>
<path d="M32.6566 37.5C32.6566 36.6716 33.3146 36 34.1263 36H68.4192C69.2309 36 69.8889 36.6716 69.8889 37.5C69.8889 38.3284 69.2309 39 68.4192 39H34.1263C33.3146 39 32.6566 38.3284 32.6566 37.5Z" fill="url(#paint4_linear_125_3184)"/>
<path d="M61.5606 50C60.7489 50 60.0909 50.6716 60.0909 51.5C60.0909 52.3284 60.7489 53 61.5606 53H95.8535C96.6652 53 97.3232 52.3284 97.3232 51.5C97.3232 50.6716 96.6652 50 95.8535 50H61.5606Z" fill="url(#paint5_linear_125_3184)"/>
<path d="M60.0909 65.5C60.0909 64.6716 60.7489 64 61.5606 64H95.8535C96.6652 64 97.3232 64.6716 97.3232 65.5C97.3232 66.3284 96.6652 67 95.8535 67H61.5606C60.7489 67 60.0909 66.3284 60.0909 65.5Z" fill="url(#paint6_linear_125_3184)"/>
<path fill-rule="evenodd" clip-rule="evenodd" d="M123.007 55C123.5 55 124 55.4407 124 55.8815V68.1185C124 68.5593 123.557 69 123.007 69C122.458 69 122 68.5593 122 68.1185V55.8815C122 55.4407 122.5 55 123.007 55Z" fill="#AAAAAA"/>
<circle cx="66" cy="94" r="3" fill="#333333"/>
<path fill-rule="evenodd" clip-rule="evenodd" d="M105.5 130C89.7612 130 77 117.239 77 101.5C77 85.7612 89.7612 73 105.5 73C121.239 73 134 85.7612 134 101.5C133.992 117.239 121.231 130 105.5 130Z" fill="#EFEFEF"/>
<path fill-rule="evenodd" clip-rule="evenodd" d="M106 101.651C106 86.453 106 73 106 73C121.844 73 142.364 92.1687 130.432 115L106 101.651Z" fill="url(#paint7_linear_125_3184)"/>
<path d="M105.5 129.5C90.0373 129.5 77.5 116.963 77.5 101.5C77.5 86.0373 90.0373 73.5 105.5 73.5C120.963 73.5 133.5 86.0372 133.5 101.5C133.492 116.963 120.954 129.5 105.5 129.5Z" stroke="#333333"/>
<path fill-rule="evenodd" clip-rule="evenodd" d="M105.999 78.4991C105.999 78.2235 105.775 78 105.5 78C105.224 78 105.001 78.2235 105.001 78.4991V80.7994C105.001 81.0751 105.224 81.2986 105.5 81.2986C105.775 81.2986 105.999 81.0751 105.999 80.7994V78.4991ZM105.999 122.201C105.999 121.925 105.775 121.701 105.5 121.701C105.224 121.701 105.001 121.925 105.001 122.201V124.501C105.001 124.777 105.224 125 105.5 125C105.775 125 105.999 124.777 105.999 124.501V122.201ZM129 101.5C129 101.775 128.777 101.999 128.501 101.999H126.201C125.925 101.999 125.702 101.775 125.702 101.5C125.702 101.224 125.925 101.001 126.201 101.001H128.501C128.777 101.001 129 101.224 129 101.5ZM84.7992 101.999C85.0748 101.999 85.2983 101.775 85.2983 101.5C85.2983 101.224 85.0748 101.001 84.7992 101.001H82.4991C82.2235 101.001 82 101.224 82 101.5C82 101.775 82.2235 101.999 82.4991 101.999H84.7992ZM117.251 81.1488C117.489 81.2866 117.571 81.5919 117.433 81.8306L116.283 83.8227C116.145 84.0614 115.84 84.1432 115.601 84.0054C115.363 83.8676 115.281 83.5623 115.419 83.3236L116.569 81.3315C116.707 81.0928 117.012 81.011 117.251 81.1488ZM95.5821 119.677C95.7199 119.438 95.6382 119.133 95.3994 118.995C95.1607 118.857 94.8555 118.939 94.7176 119.178L93.5675 121.17C93.4297 121.409 93.5115 121.714 93.7502 121.852C93.9889 121.99 94.2942 121.908 94.432 121.669L95.5821 119.677ZM125.852 113.25C125.714 113.489 125.408 113.571 125.17 113.433L123.178 112.283C122.939 112.145 122.857 111.84 122.995 111.601C123.133 111.362 123.438 111.28 123.677 111.418L125.669 112.568C125.908 112.706 125.989 113.011 125.852 113.25ZM87.3229 91.5817C87.5617 91.7195 87.8669 91.6377 88.0047 91.399C88.1426 91.1603 88.0608 90.855 87.8221 90.7172L85.8301 89.5671C85.5914 89.4293 85.2861 89.5111 85.1483 89.7498C85.0105 89.9886 85.0922 90.2938 85.331 90.4316L87.3229 91.5817ZM125.852 89.7501C125.99 89.9888 125.908 90.2941 125.669 90.4319L123.677 91.582C123.439 91.7198 123.133 91.638 122.996 91.3993C122.858 91.1605 122.939 90.8553 123.178 90.7174L125.17 89.5674C125.409 89.4296 125.714 89.5114 125.852 89.7501ZM87.8221 112.283C88.0608 112.145 88.1426 111.84 88.0047 111.601C87.8669 111.363 87.5617 111.281 87.3229 111.419L85.331 112.569C85.0922 112.706 85.0105 113.012 85.1483 113.25C85.2861 113.489 85.5914 113.571 85.8301 113.433L87.8221 112.283ZM117.25 121.851C117.011 121.989 116.706 121.908 116.568 121.669L115.418 119.677C115.28 119.438 115.362 119.133 115.6 118.995C115.839 118.857 116.144 118.939 116.282 119.178L117.432 121.17C117.57 121.408 117.488 121.714 117.25 121.851ZM94.7167 83.8229C94.8545 84.0616 95.1598 84.1434 95.3985 84.0056C95.6372 83.8677 95.719 83.5625 95.5812 83.3237L94.431 81.3317C94.2932 81.0929 93.988 81.0111 93.7492 81.149C93.5105 81.2868 93.4287 81.5921 93.5666 81.8308L94.7167 83.8229Z" fill="#333333"/>
</g>
<defs>
<linearGradient id="paint0_linear_125_3184" x1="95" y1="13.7266" x2="98.6455" y2="26.7136" gradientUnits="userSpaceOnUse">
<stop stop-color="#FF8E3D"/>
<stop offset="1" stop-color="#FF6F3D"/>
</linearGradient>
<linearGradient id="paint1_linear_125_3184" x1="9.49512" y1="25.8403" x2="113" y2="59.265" gradientUnits="userSpaceOnUse">
<stop stop-color="#FFC671"/>
<stop stop-color="#FF9C41"/>
<stop offset="1" stop-color="#FF6F3D"/>
</linearGradient>
<linearGradient id="paint2_linear_125_3184" x1="9.49512" y1="25.8403" x2="113" y2="59.265" gradientUnits="userSpaceOnUse">
<stop stop-color="#FFC671"/>
<stop stop-color="#FF9C41"/>
<stop offset="1" stop-color="#FF6F3D"/>
</linearGradient>
<linearGradient id="paint3_linear_125_3184" x1="9.49512" y1="25.8403" x2="113" y2="59.265" gradientUnits="userSpaceOnUse">
<stop stop-color="#FFC671"/>
<stop stop-color="#FF9C41"/>
<stop offset="1" stop-color="#FF6F3D"/>
</linearGradient>
<linearGradient id="paint4_linear_125_3184" x1="9.49512" y1="25.8403" x2="113" y2="59.265" gradientUnits="userSpaceOnUse">
<stop stop-color="#FFC671"/>
<stop stop-color="#FF9C41"/>
<stop offset="1" stop-color="#FF6F3D"/>
</linearGradient>
<linearGradient id="paint5_linear_125_3184" x1="9.49512" y1="25.8403" x2="113" y2="59.265" gradientUnits="userSpaceOnUse">
<stop stop-color="#FFC671"/>
<stop stop-color="#FF9C41"/>
<stop offset="1" stop-color="#FF6F3D"/>
</linearGradient>
<linearGradient id="paint6_linear_125_3184" x1="9.49512" y1="25.8403" x2="113" y2="59.265" gradientUnits="userSpaceOnUse">
<stop stop-color="#FFC671"/>
<stop stop-color="#FF9C41"/>
<stop offset="1" stop-color="#FF6F3D"/>
</linearGradient>
<linearGradient id="paint7_linear_125_3184" x1="76.437" y1="70.289" x2="108.906" y2="107.573" gradientUnits="userSpaceOnUse">
<stop stop-color="#FFC671"/>
<stop offset="1" stop-color="#FF6F3D"/>
</linearGradient>
<clipPath id="clip0_125_3184">
<rect width="135" height="135" fill="white"/>
</clipPath>
</defs>
</svg>
