<svg width="135" height="135" viewBox="0 0 135 135" fill="none" xmlns="http://www.w3.org/2000/svg">
<g clip-path="url(#clip0_125_3305)">
<path fill-rule="evenodd" clip-rule="evenodd" d="M18.327 25.5531L32.589 11.3047C33.7775 10.1264 35.6252 9.92674 37.0234 10.8254L41.6576 13.8109C43.665 15.0989 46.1919 15.1888 48.3891 14.2802C50.5863 13.3715 52.3042 11.5143 52.8135 9.18786L53.992 3.79602C54.3516 2.15849 55.7997 1.00024 57.4676 1.00024H77.6222C79.3001 1.00024 80.7383 2.16848 81.0979 3.79602L82.2664 9.18786C82.7658 11.5143 84.4836 13.3715 86.6808 14.2802C88.8781 15.1888 91.4049 15.0989 93.4123 13.8109L98.0565 10.8254C99.4647 9.91676 101.312 10.1165 102.491 11.3047L116.733 25.5531C117.911 26.7313 118.111 28.5785 117.202 29.9864L114.216 34.6294C112.928 36.6363 112.828 39.1625 113.737 41.3592C114.646 43.5559 116.493 45.2733 118.82 45.7825L124.204 46.9507C125.841 47.3102 127 48.748 127 50.4255L126.99 70.575C126.99 72.2425 125.821 73.6903 124.184 74.0497L118.79 75.218C116.463 75.7272 114.606 77.4346 113.697 79.6413C112.778 81.838 112.878 84.3641 114.166 86.3711L117.142 91.0141C118.041 92.422 117.842 94.2692 116.663 95.4474L102.401 109.696C101.222 110.874 99.3748 111.074 97.9666 110.175L93.3324 107.19C91.325 105.902 88.7982 105.812 86.6009 106.72C84.4037 107.629 82.6859 109.486 82.1765 111.813L80.998 117.204C80.6384 118.842 79.1903 120 77.5224 120H57.3877C55.7099 120 54.2717 118.832 53.9121 117.204L52.7436 111.813C52.2442 109.486 50.5264 107.639 48.3292 106.72C46.1319 105.812 43.6051 105.902 41.5976 107.19L36.9535 110.175C35.5453 111.084 33.6976 110.874 32.5191 109.696L18.277 95.4474C17.0985 94.2692 16.8988 92.422 17.8076 91.0141L20.7939 86.3711C22.0822 84.3641 22.1821 81.838 21.2733 79.6413C20.3644 77.4446 18.5167 75.7272 16.1897 75.218L10.7965 74.0497C9.15854 73.7003 8 72.2525 8 70.575L8.01997 50.4255C8.01997 48.748 9.1885 47.3102 10.8264 46.9507L16.2196 45.7825C18.5467 45.2733 20.4044 43.5659 21.3132 41.3592C22.2221 39.1625 22.1322 36.6363 20.8438 34.6294L17.8676 29.9864C16.9387 28.5785 17.1485 26.7313 18.327 25.5531Z" fill="url(#paint0_linear_125_3305)"/>
<path fill-rule="evenodd" clip-rule="evenodd" d="M68.2246 34.4052C77.5158 34.6732 86.4298 39.696 91.2739 48.4015C97.0412 58.7746 95.314 71.282 87.889 79.6897C95.1353 92.7926 102.153 106.025 109.638 118.999C113.053 124.905 111.931 129.54 106.769 132.409C104.049 133.978 98.0537 135.586 94.1426 128.518C86.7673 115.187 79.382 101.856 72.0066 88.5243C60.9386 90.4004 49.404 85.2684 43.6368 74.8952C38.7926 66.1798 39.2393 55.9654 43.9048 47.925C45.9595 51.6276 48.0243 55.3302 50.079 59.0327C52.9478 64.1846 59.5092 66.0607 64.661 63.1919C66.5173 62.1596 68.3735 61.1272 70.2298 60.0949C75.3816 57.2261 77.2577 50.6647 74.389 45.5029C72.3441 41.8103 70.2794 38.1077 68.2246 34.4052Z" fill="#BDECFF"/>
<path fill-rule="evenodd" clip-rule="evenodd" d="M68.8706 34.0002C78.1106 34.2673 86.9754 39.2721 91.7929 47.9464C97.5284 58.2823 95.8107 70.7448 88.4266 79.1224C95.633 92.1783 102.612 105.363 110.056 118.29C113.452 124.175 112.336 128.794 107.203 131.653C104.498 133.216 98.5353 134.818 94.6458 127.776C87.3111 114.492 79.9665 101.209 72.6317 87.9253C61.6247 89.7946 50.1537 84.681 44.4182 74.3451C39.6007 65.6609 40.045 55.4832 44.6847 47.4716C46.7282 51.1609 48.7815 54.8502 50.825 58.5395C54.1266 64.5002 60.5 66.0002 65.3266 62.6838C67.1726 61.6551 69.0187 60.6265 70.8647 59.5978C75.9881 56.7394 77.8539 50.2015 75.001 45.0582C72.9674 41.3788 70.9141 37.6895 68.8706 34.0002Z" fill="#BDECFF"/>
<path fill-rule="evenodd" clip-rule="evenodd" d="M68.8349 34.0499C73.6985 34.1891 78.4627 35.6003 82.6301 38.1246C86.6484 40.5594 90.1096 44.0477 92.5564 48.4503C95.4805 53.7075 96.5348 59.5015 95.9281 65.0569C95.3313 70.6023 93.0835 75.9093 89.4035 80.2324C91.8005 84.5654 94.0781 88.7394 96.3657 92.9234C101.16 101.709 105.954 110.484 110.947 119.12L111.116 119.418C112.787 122.43 113.334 125.153 112.807 127.518C112.27 129.913 110.648 131.911 108.013 133.431C107.903 133.491 107.754 133.57 107.645 133.64C106.173 134.455 103.885 135.24 101.428 134.932C98.9617 134.614 96.3558 133.203 94.287 129.635C86.7677 116.487 79.5568 103.04 72.2165 89.7829C66.6069 90.6277 60.9078 89.7233 55.885 87.3083C50.8423 84.8834 46.466 80.938 43.5418 75.6807C41.0951 71.2781 39.9612 66.5078 40.001 61.8071C40.0507 56.9374 41.3736 52.1473 43.8203 47.9534L44.4668 46.8304L51.2899 59.0841C52.6227 61.4891 54.8307 63.1289 57.2973 63.8245C59.764 64.5302 62.4992 64.3016 64.9061 62.9599L70.4859 59.8592C72.8929 58.5275 74.534 56.3213 75.2302 53.8566C75.9364 51.392 75.7076 48.659 74.3649 46.2539L67.5419 34.0002L68.8349 34.0499ZM81.8643 39.3768C78.2936 37.2103 74.2555 35.9084 70.098 35.5903L75.638 45.5483C77.1697 48.3111 77.4383 51.4416 76.6326 54.2641C75.827 57.0865 73.9472 59.6108 71.1821 61.1512L65.6024 64.2519C62.8373 65.7824 59.7043 66.0507 56.8796 65.2457C54.0549 64.4407 51.5286 62.5624 49.9869 59.7996L44.4469 49.8416C42.5273 53.5386 41.5029 57.653 41.4631 61.827C41.4233 66.2793 42.4975 70.8011 44.8149 74.9652C47.5899 79.9442 51.7275 83.6908 56.5016 85.9866C61.415 88.3419 67.0048 89.1767 72.4751 88.2524L72.9824 88.163C80.4917 101.709 87.8519 115.483 95.5502 128.909C97.3405 132 99.5386 133.213 101.597 133.481C103.676 133.749 105.645 133.063 106.919 132.358L107.257 132.169C109.524 130.857 110.907 129.188 111.355 127.21C111.802 125.202 111.315 122.827 109.823 120.154L109.654 119.866C104.641 111.19 99.8568 102.414 95.0628 93.6389C92.636 89.1966 90.2091 84.7542 87.8618 80.5007L87.6131 80.0436L87.9513 79.656C91.6214 75.5018 93.8693 70.3241 94.4561 64.9078C95.023 59.6406 94.0284 54.1548 91.2534 49.1758C88.9459 44.9918 85.6737 41.6923 81.8643 39.3768Z" fill="#333333"/>
<path fill-rule="evenodd" clip-rule="evenodd" d="M82.0351 117.136C81.7666 117.902 81.2891 118.568 80.6724 119.055C79.9264 119.652 78.9914 120 77.9867 120H57.9237C56.9191 120 55.9841 119.652 55.2381 119.055C54.502 118.459 53.9549 117.613 53.746 116.629L52.5822 111.258C52.3634 110.243 51.8859 109.328 51.2195 108.562C50.5232 107.767 49.628 107.13 48.6233 106.702C47.6187 106.285 46.5245 106.096 45.4702 106.175C44.4655 106.245 43.4708 106.553 42.6054 107.11L37.9801 110.084C37.1346 110.631 36.1598 110.84 35.2149 110.74C34.2699 110.641 33.3548 110.223 32.6485 109.507L18.4542 95.3339C17.748 94.6277 17.3302 93.7126 17.2308 92.7678C17.1313 91.8229 17.3402 90.8482 17.8873 89.9928L20.8614 85.3678C21.4184 84.4926 21.7268 83.5079 21.7964 82.5033C21.866 81.4391 21.687 80.355 21.2692 79.3504C20.8515 78.3359 20.2149 77.4408 19.4191 76.7445C18.6532 76.0782 17.748 75.6007 16.7334 75.3819L11.3621 74.2182C10.3773 74.0094 9.53183 73.4623 8.94496 72.7164C8.34814 71.9804 8 71.0355 8 70.0309L8.00995 49.9596C8.00995 48.9551 8.35809 48.0201 8.95491 47.2742C9.55172 46.5282 10.3972 45.9911 11.382 45.7723L16.7533 44.6086C17.7679 44.3898 18.683 43.9124 19.4489 43.246C20.2447 42.5498 20.8813 41.6546 21.309 40.6401C21.7268 39.6256 21.9158 38.5415 21.8362 37.4872C21.7666 36.4826 21.4582 35.488 20.9012 34.6227L17.9271 29.9978C17.38 29.1523 17.1711 28.1776 17.2706 27.2327C17.37 26.2879 17.7878 25.3728 18.504 24.6666L32.7082 10.4735C33.4244 9.76734 34.3296 9.3496 35.2745 9.25014C36.2195 9.15068 37.1943 9.35955 38.0398 9.90658L42.6552 12.8805C43.5305 13.4375 44.5153 13.7458 45.5199 13.8154C46.5743 13.885 47.6684 13.706 48.683 13.2883C49.6976 12.8705 50.5928 12.234 51.2792 11.4383C51.9456 10.6724 52.4231 9.75739 52.6419 8.74289L53.8156 3.37198C54.0345 2.38731 54.5716 1.54189 55.3176 0.945126C56.0537 0.348359 56.9987 0.000244141 58.0033 0.000244141H78.0763C79.0809 0.000244141 80.0159 0.348359 80.7619 0.945126C81.508 1.54189 82.0451 2.38731 82.254 3.37198L83.4178 8.74289C83.6366 9.75739 84.1141 10.6724 84.7805 11.4283C85.4768 12.224 86.372 12.8606 87.3866 13.2883C88.4012 13.706 89.4854 13.895 90.5398 13.8154C91.5444 13.7458 92.5292 13.4375 93.4045 12.8805L98.0298 9.90658C98.8753 9.35955 99.8601 9.15068 100.805 9.25014C101.75 9.3496 102.665 9.76734 103.371 10.4835L117.556 24.6766C118.262 25.3828 118.68 26.2978 118.779 27.2427C118.879 28.1876 118.67 29.1623 118.123 30.0077L115.149 34.6327C114.592 35.5079 114.283 36.4926 114.204 37.5071C114.124 38.5713 114.313 39.6554 114.731 40.6699C115.149 41.6745 115.785 42.5796 116.581 43.2659C117.347 43.9323 118.262 44.4097 119.267 44.6285L124.638 45.7922C125.623 46.0011 126.458 46.5481 127.055 47.2841C127.652 48.0301 128 48.965 128 49.9696L127.98 70.0409C127.98 71.0454 127.632 71.9903 127.035 72.7263C126.438 73.4623 125.593 74.0094 124.618 74.2282L119.247 75.3919C118.232 75.6107 117.317 76.0881 116.561 76.7545C115.765 77.4507 115.119 78.3459 114.701 79.3604C114.283 80.3749 114.094 81.459 114.174 82.5232C114.243 83.5378 114.552 84.5224 115.109 85.3877L118.073 90.0127C118.62 90.8581 118.829 91.8428 118.729 92.7876C118.63 93.7325 118.212 94.6476 117.496 95.3537L110.851 101.998C110.205 102.644 109.081 101.689 109.906 100.864L116.462 94.3194C116.929 93.8519 117.198 93.2551 117.267 92.6385C117.337 92.0218 117.198 91.3753 116.84 90.8183L113.875 86.1934C113.179 85.1092 112.791 83.8859 112.712 82.6327C112.622 81.3496 112.841 80.0268 113.348 78.8133C113.855 77.59 114.631 76.5058 115.606 75.6604C116.551 74.8349 117.685 74.2481 118.948 73.9696L124.32 72.8059C124.966 72.6666 125.513 72.3086 125.901 71.8212C126.289 71.3339 126.528 70.7172 126.528 70.0608L126.538 49.9895C126.538 49.333 126.309 48.7164 125.921 48.229C125.533 47.7416 124.976 47.3935 124.34 47.2543L118.978 46.0906C117.715 45.8121 116.581 45.2253 115.636 44.3997C114.661 43.5543 113.885 42.4702 113.388 41.2468C112.881 40.0235 112.662 38.7106 112.751 37.4275C112.841 36.1743 113.219 34.9509 113.925 33.8668L116.899 29.2419C117.257 28.6849 117.397 28.0384 117.327 27.4217C117.257 26.8051 116.989 26.1983 116.521 25.7408L102.317 11.5179C101.849 11.0504 101.253 10.7818 100.636 10.7122C100.019 10.6426 99.3727 10.7818 98.8156 11.1399L94.1903 14.1138C93.1061 14.81 91.8727 15.1979 90.6293 15.2775C89.3461 15.367 88.0332 15.1482 86.8097 14.6409C85.5862 14.1337 84.502 13.3579 83.6664 12.3832C82.8408 11.4383 82.254 10.3044 81.9755 9.04127L80.8117 3.67036C80.6724 3.02387 80.3143 2.47683 79.8369 2.07898C79.3495 1.69109 78.7328 1.46232 78.0763 1.46232H58.0033C57.3369 1.46232 56.7301 1.69109 56.2427 2.07898C55.7553 2.48678 55.4072 3.03381 55.258 3.68031L54.0842 9.05122C53.8057 10.3144 53.2089 11.4482 52.3932 12.3931C51.5477 13.3678 50.4635 14.1436 49.24 14.6409C48.0166 15.1482 46.7036 15.367 45.4204 15.2775C44.1671 15.188 42.9436 14.81 41.8594 14.1138L37.244 11.1399C36.687 10.7818 36.0404 10.6426 35.4237 10.7122C34.807 10.7818 34.2003 11.0504 33.7328 11.5179L19.5385 25.711C19.071 26.1784 18.7924 26.7752 18.7328 27.3919C18.6631 28.0085 18.8024 28.655 19.1605 29.212L22.1346 33.837C22.8309 34.931 23.2089 36.1544 23.2984 37.3977C23.3879 38.6807 23.1691 39.9936 22.6618 41.217C22.1545 42.4404 21.3786 43.5245 20.4038 44.3699C19.4589 45.1954 18.3249 45.7823 17.0617 46.0608L11.6903 47.2244C11.0438 47.3637 10.4967 47.7218 10.0988 48.1992C9.71088 48.6865 9.4821 49.3032 9.4821 49.9596L9.4622 70.0409C9.4622 70.6973 9.69098 71.314 10.0789 71.8013C10.4668 72.2887 11.0239 72.6467 11.6704 72.786L17.0418 73.9497C18.305 74.2182 19.439 74.815 20.384 75.6405C21.3588 76.4859 22.1346 77.5701 22.632 78.7934C23.1393 80.0168 23.3581 81.3297 23.2686 82.6128C23.179 83.866 22.8011 85.0893 22.1048 86.1735L19.1306 90.7984C18.7725 91.3554 18.6333 92.0019 18.7029 92.6186C18.7725 93.2352 19.0411 93.8419 19.5086 94.2995L33.693 108.493C34.1605 108.96 34.7573 109.229 35.374 109.298C35.9907 109.368 36.6373 109.229 37.1943 108.871L41.8196 105.897C42.9138 105.2 44.1373 104.813 45.3806 104.733C46.6638 104.643 47.9768 104.862 49.2003 105.369C50.4237 105.877 51.508 106.653 52.3534 107.627C53.1691 108.572 53.7659 109.706 54.0444 110.969L55.2082 116.34C55.3475 116.987 55.7056 117.534 56.183 117.931C56.6605 118.329 57.2772 118.548 57.9436 118.548H78.0166C78.683 118.548 79.2997 118.319 79.7772 117.931C80.1452 117.633 80.4436 117.235 80.6227 116.778C80.941 115.902 82.3435 116.251 82.0351 117.136Z" fill="#333333"/>
</g>
<defs>
<linearGradient id="paint0_linear_125_3305" x1="5.79368" y1="-7.45537" x2="76.7879" y2="70.7623" gradientUnits="userSpaceOnUse">
<stop stop-color="#FFC671"/>
<stop offset="1" stop-color="#FF6F3D"/>
</linearGradient>
<clipPath id="clip0_125_3305">
<rect width="135" height="135" fill="white"/>
</clipPath>
</defs>
</svg>
