<svg width="100" height="100" viewBox="0 0 100 100" fill="none" xmlns="http://www.w3.org/2000/svg">
<g clip-path="url(#clip0_1_4466)">
<path fill-rule="evenodd" clip-rule="evenodd" d="M46.1994 15.5818C47.7503 13.0283 51.4515 13.0145 53.0214 15.5564L95.2311 83.8981C96.877 86.563 94.96 90 91.8278 90H14.1228H8.10927C4.99043 90 3.07141 86.5892 4.69047 83.9235L46.1994 15.5818Z" fill="url(#paint0_linear_1_4466)"/>
<path fill-rule="evenodd" clip-rule="evenodd" d="M94.3803 84.4236L52.1706 16.0819C50.9932 14.1755 48.2173 14.1858 47.0541 16.1009L5.54517 84.4426C4.33088 86.4419 5.77014 89 8.10927 89H91.8278C94.177 89 95.6147 86.4222 94.3803 84.4236ZM53.0214 15.5564C51.4515 13.0145 47.7503 13.0283 46.1994 15.5818L4.69047 83.9235C3.07141 86.5892 4.99043 90 8.10927 90H91.8278C94.96 90 96.877 86.563 95.2311 83.8981L53.0214 15.5564Z" fill="#333333"/>
<path d="M56.4531 46.8784C56.4531 49.9709 55.748 53.8302 54.3379 58.4565C54.0163 59.4956 53.707 60.5347 53.4102 61.5737C53.1133 62.6128 52.7917 63.6642 52.4453 64.728C51.7031 67.0041 51.0228 68.105 50.4043 68.0308C49.7363 67.9318 48.9941 66.7814 48.1777 64.5796C48.0293 64.2085 47.7819 63.5158 47.4355 62.5015C47.1139 61.4871 46.681 60.1388 46.1367 58.4565C44.7266 53.9787 44.0215 50.2183 44.0215 47.1753C44.0215 41.9305 46.0996 39.2463 50.2559 39.1226C54.3874 39.0483 56.4531 41.6336 56.4531 46.8784ZM54.9688 74.6362C54.9688 75.8732 54.5605 76.9617 53.7441 77.9019C52.8535 78.9162 51.6908 79.4233 50.2559 79.4233C48.7467 79.4233 47.5592 78.9533 46.6934 78.0132C45.877 77.0978 45.4688 75.9969 45.4688 74.7104C45.4688 73.3992 45.877 72.2736 46.6934 71.3335C47.5345 70.3934 48.6849 69.9233 50.1445 69.9233C51.6784 69.9233 52.8659 70.3934 53.707 71.3335C54.5482 72.2983 54.9688 73.3992 54.9688 74.6362Z" fill="white"/>
</g>
<defs>
<linearGradient id="paint0_linear_1_4466" x1="-0.399138" y1="20.6817" x2="53.8067" y2="81.1567" gradientUnits="userSpaceOnUse">
<stop stop-color="#FFC671"/>
<stop offset="1" stop-color="#FF6F3D"/>
</linearGradient>
<clipPath id="clip0_1_4466">
<rect width="100" height="100" fill="white"/>
</clipPath>
</defs>
</svg>
