<svg width="100" height="40" viewBox="0 0 100 40" fill="none" xmlns="http://www.w3.org/2000/svg">
<g clip-path="url(#clip0)">
<path d="M23.1192 21.0666C23.0782 16.7643 26.634 14.6972 26.794 14.5988C24.7925 11.6746 21.6837 11.2726 20.5764 11.2275C17.931 10.9568 15.4128 12.786 14.0676 12.786C12.7223 12.786 10.6512 11.2644 8.45694 11.3096C5.56961 11.3506 2.90785 12.987 1.41906 15.5708C-1.5749 20.7631 0.656217 28.4736 3.58046 32.6939C5.01183 34.7568 6.70978 37.0823 8.9491 36.9962C11.1064 36.91 11.9185 35.6017 14.5187 35.6017C17.1189 35.6017 17.8531 36.9962 20.1293 36.9552C22.4466 36.91 23.9148 34.8471 25.3339 32.7759C26.9662 30.3766 27.6429 28.0594 27.684 27.9363C27.6306 27.9158 23.1684 26.2056 23.1192 21.0666Z" fill="black"/>
<path d="M18.8415 8.43016C20.0309 6.99059 20.8306 4.99325 20.6133 3C18.903 3.06972 16.8318 4.14017 15.6055 5.57973C14.5064 6.85115 13.5426 8.88541 13.8051 10.8376C15.704 10.9853 17.6562 9.86562 18.8415 8.43016ZM38.1177 25.2948L36.1491 31.2622H33.6186L40.0617 12.2977H43.0147L49.4825 31.2622H46.8658L44.8398 25.2948H38.1177ZM44.3353 23.3795L42.4815 17.9206C42.0591 16.682 41.7802 15.5583 41.4972 14.4591H41.4439C41.1609 15.5829 40.8533 16.7353 40.4883 17.8919L38.6345 23.3754L44.3353 23.3795ZM51.4019 22.0876C51.4019 20.3445 51.3486 18.9337 51.2871 17.6417H53.51L53.6248 19.9795H53.6782C54.6912 18.3185 56.2948 17.3341 58.5177 17.3341C61.8111 17.3341 64.2842 20.1189 64.2842 24.2572C64.2842 29.1542 61.3025 31.5698 58.0953 31.5698C56.2948 31.5698 54.7199 30.7824 53.9037 29.4331H53.8504V36.8318H51.4019V22.0876ZM53.8463 25.7173C53.8463 26.0864 53.8996 26.4186 53.9611 26.7303C54.4123 28.4446 55.9011 29.6299 57.677 29.6299C60.2936 29.6299 61.8152 27.4931 61.8152 24.3679C61.8152 21.6364 60.3797 19.3069 57.7631 19.3069C56.0774 19.3069 54.5025 20.5168 54.0186 22.3747C53.9324 22.6823 53.8504 23.0514 53.8504 23.3877L53.8463 25.7173ZM66.8434 22.0876C66.8434 20.3445 66.7901 18.9337 66.7286 17.6417H68.9515L69.0663 19.9795H69.1197C70.1327 18.3185 71.7363 17.3341 73.9592 17.3341C77.2526 17.3341 79.7257 20.1189 79.7257 24.2572C79.7257 29.1542 76.744 31.5698 73.5368 31.5698C71.7363 31.5698 70.1614 30.7824 69.3452 29.4331H69.2919V36.8318H66.8434V22.0876ZM69.2919 25.7173C69.2919 26.0864 69.3452 26.4186 69.4067 26.7303C69.8579 28.4446 71.3467 29.6299 73.1226 29.6299C75.7392 29.6299 77.2608 27.4931 77.2608 24.3679C77.2608 21.6364 75.8253 19.3069 73.2087 19.3069C71.523 19.3069 69.9481 20.5168 69.4642 22.3747C69.378 22.6823 69.296 23.0514 69.296 23.3877L69.2919 25.7173ZM82.289 11.2847H84.7662V31.2581H82.289V11.2847ZM89.7452 24.9011C89.7985 28.2478 91.9394 29.6299 94.4125 29.6299C96.1843 29.6299 97.2547 29.3223 98.1816 28.9286L98.6041 30.7004C97.7346 31.0941 96.2417 31.5452 94.0762 31.5452C89.8847 31.5452 87.3788 28.7891 87.3788 24.6796C87.3788 20.5701 89.7985 17.3341 93.7645 17.3341C98.2104 17.3341 99.3915 21.2427 99.3915 23.7486C99.3915 24.2572 99.3382 24.6468 99.3054 24.9011H89.7452ZM97.0046 23.1293C97.0333 21.5544 96.3566 19.1059 93.5718 19.1059C91.0659 19.1059 89.9708 21.415 89.7739 23.1293H97.0046Z" fill="black"/>
</g>
<defs>
<clipPath id="clip0">
<rect width="99.3957" height="34" fill="white" transform="translate(0 3)"/>
</clipPath>
</defs>
</svg>
