<svg width="108" height="40" viewBox="0 0 108 40" fill="none" xmlns="http://www.w3.org/2000/svg">
<path d="M96.9367 26.2232L100.916 20.7589L97.1755 15.6964H100.359L102.508 18.9107L104.657 15.6964H107.761L104.02 20.7589L108 26.2232H104.896L102.429 22.7679L100.12 26.2232" fill="black"/>
<path d="M91.7633 26.5446C88.4204 26.5446 86.4306 24.6964 86.4306 21.1607V20.8393C86.4306 17.2232 88.6592 15.2946 91.7633 15.2946C94.8673 15.2946 97.2551 16.9018 97.2551 20.8393V21.1607C97.2551 24.6964 94.9469 26.5446 91.7633 26.5446ZM91.7633 24.1339C93.3551 24.1339 94.3898 23.0893 94.3898 21.1607V20.9196C94.3898 18.9107 93.3551 17.7857 91.8429 17.7857C90.3306 17.7857 89.4551 18.9107 89.4551 21V21.2411C89.3755 23.1696 90.1714 24.1339 91.7633 24.1339ZM80.7796 26.5446C79.0286 26.5446 77.9143 25.6607 77.3571 24.375L77.1184 26.2232H74.651V12H77.3571V17.625C77.9939 16.1786 79.2673 15.4554 80.8592 15.4554C83.3265 15.4554 85.0775 17.2232 85.0775 20.7589V21.0804C85.1571 24.9375 83.4857 26.5446 80.7796 26.5446ZM79.9837 24.2143C81.5755 24.2143 82.451 23.1696 82.451 21.0804V20.8393C82.451 18.9107 81.4959 17.7857 80.0633 17.7857C78.551 17.7857 77.5163 18.9911 77.5163 20.8393V21.0804C77.4367 23.0089 78.4714 24.2143 79.9837 24.2143ZM62.6327 30V15.6964H64.9408L65.1796 17.625C65.7367 16.2589 66.6122 15.375 68.6816 15.375C71.3878 15.375 73.0592 16.9821 73.0592 20.9196V21.2411C73.0592 25.0982 71.149 26.5446 68.6816 26.5446C67.0102 26.5446 65.8959 25.8214 65.3388 24.5357V30H62.6327ZM67.7265 24.1339C69.3184 24.1339 70.2735 23.0893 70.2735 21.1607V20.9196C70.2735 18.8304 69.2388 17.7857 67.8061 17.7857C66.2939 17.7857 65.2592 18.9911 65.2592 20.9196V21.0804C65.2592 22.9286 66.2143 24.1339 67.7265 24.1339ZM55.4694 26.5446C52.1265 26.5446 50.1367 24.6964 50.1367 21.1607V20.8393C50.1367 17.2232 52.3653 15.2946 55.4694 15.2946C58.5735 15.2946 60.9612 16.9018 60.9612 20.8393V21.1607C60.9612 24.6964 58.6531 26.5446 55.4694 26.5446ZM55.4694 24.1339C57.0612 24.1339 58.0959 23.0893 58.0959 21.1607V20.9196C58.0959 18.9107 57.0612 17.7857 55.549 17.7857C54.0367 17.7857 53.1612 18.9107 53.1612 21V21.2411C53.0816 23.1696 53.8776 24.1339 55.4694 24.1339ZM42.7347 26.2232H45.5204V21.4821C45.5204 19.3125 46.6347 18.5893 48.6245 18.5893H49.4204V15.6964H48.7041C46.7143 15.6964 45.998 16.5804 45.5204 18.1875L45.1224 15.6964H42.7347V26.2232ZM30 26.2232V12.6429H34.9347C38.1184 12.6429 41.1429 14.6518 41.1429 18.8304V20.0357C41.1429 24.2143 38.2776 26.1429 35.0143 26.1429H30V26.2232ZM34.7755 15.375H32.8653V23.4911H34.8551C36.2878 23.4911 38.198 22.6071 38.198 19.9554V18.9107C38.198 16.4196 36.4469 15.375 34.7755 15.375Z" fill="black"/>
<path d="M6.25621 9L0 12.9298L6.25621 16.8597L12.4876 12.9298L6.25621 9ZM18.7438 9L12.5124 12.9298L18.7438 16.8597L25 12.9298L18.7438 9Z" fill="#0062FF"/>
<path d="M0 20.814L6.25621 24.7439L12.4876 20.814L6.25621 16.8597L0 20.814ZM18.7438 16.8597L12.4876 20.814L18.7438 24.7439L25 20.814L18.7438 16.8597ZM6.25621 26.0702L12.4876 30L18.7438 26.0702L12.4876 22.1158L6.25621 26.0702Z" fill="#0062FF"/>
</svg>
