<svg width="96" height="40" viewBox="0 0 96 40" fill="none" xmlns="http://www.w3.org/2000/svg">
<path fill-rule="evenodd" clip-rule="evenodd" d="M52.7757 15.9822C51.333 15.8343 50.0848 16.254 49.0297 17.4724V10L45.209 10.4442V27.7397H49.0297V26.7131C49.5449 27.0662 50.0462 27.4914 50.6325 27.6929C52.8587 28.459 55.7941 27.8345 56.8211 24.9755C57.4804 23.1414 57.4632 21.261 56.9668 19.4063C56.4164 17.3459 54.9883 16.2085 52.7757 15.9822ZM53.3467 23.4727C53.1786 24.6131 52.2332 25.2107 51.111 25.1268C50.8305 25.1057 50.5768 25.0505 50.349 24.965C49.4444 24.4664 49.171 23.6316 49.0916 23.1073C49.0907 23.1077 49.0898 23.1077 49.0898 23.1081C49.0279 22.2969 48.9612 20.6006 49.3733 19.7991C49.7231 19.1846 50.3337 18.85 51.1434 18.8243C52.2938 18.7881 53.1642 19.3359 53.3353 20.4569C53.4872 21.4448 53.4942 22.4857 53.3467 23.4727Z" fill="#3B5998"/>
<path fill-rule="evenodd" clip-rule="evenodd" d="M66.3164 16.1959C64.9887 15.8549 63.6478 15.8591 62.3232 16.198C60.3394 16.7049 59.0099 17.9102 58.5816 19.8273C58.3476 20.8733 58.3011 21.9855 58.363 23.058C58.5043 25.5116 60.0844 27.2592 62.537 27.802C62.5712 27.81 62.6072 27.8159 62.6423 27.8235H62.6414C62.6414 27.8235 62.6485 27.8248 62.6594 27.8269C62.7538 27.845 62.8482 27.8619 62.943 27.8758C62.9746 27.8783 63.007 27.8808 63.0382 27.8838C63.0391 27.8838 63.04 27.8838 63.0408 27.8838C63.1598 27.9049 63.3024 27.9205 63.4525 27.9318C63.9327 27.9807 64.5437 28.0157 65.0537 27.958C65.0572 27.958 65.0589 27.9571 65.0616 27.9567C65.0875 27.9563 65.1138 27.9563 65.1397 27.9546C67.6722 27.8282 69.5937 26.295 70.1546 23.943C70.4623 22.653 70.4623 21.3567 70.1647 20.0658C69.699 18.0396 68.4192 16.7361 66.3164 16.1959ZM66.4779 23.2868C66.4652 23.3631 66.452 23.4385 66.434 23.5136C66.1803 24.5958 65.3618 25.1816 64.2702 25.1327C63.0966 25.0813 62.2916 24.4226 62.1784 23.2965C62.0968 22.4739 62.0902 21.634 62.1613 20.8109C62.2728 19.5117 63.119 18.8011 64.3883 18.8252C65.4316 18.8445 66.1746 19.4122 66.4397 20.3752C66.6802 21.344 66.5016 23.0664 66.4779 23.2868Z" fill="#3B5998"/>
<path fill-rule="evenodd" clip-rule="evenodd" d="M6.23465 16.1352V14.3938C6.43391 12.7477 9.26573 13.0604 9.26573 13.0604L9.26661 12.9479L9.26573 12.9353V10.2314H9.26529V10.2309H9.2631C9.16566 10.2086 3.63019 8.94727 2.53073 12.9926C2.53073 12.9934 2.53073 12.9947 2.52941 12.9955C2.52722 13.0044 2.52458 13.0132 2.52239 13.0221C2.34946 13.5278 2.36131 15.844 2.36351 16.1352H0V19.2323H2.5101V27.6566H6.1653V19.2323H8.96113L9.27582 16.1352H6.23465Z" fill="#3B5998"/>
<path fill-rule="evenodd" clip-rule="evenodd" d="M17.6787 17.6169C17.6339 17.5693 17.5896 17.5234 17.5514 17.485C17.5452 17.4791 17.5404 17.4736 17.5343 17.4677C17.4812 17.4146 17.4439 17.3792 17.4439 17.3792C16.5832 16.5389 16.2584 16.3299 15.5842 16.139C12.9916 15.4057 10.4675 16.7092 9.66821 19.2137C9.17707 20.7528 9.17005 22.3369 9.45797 23.8954C10.0799 27.2706 12.6945 28.4009 15.4811 27.8438C16.3361 27.6726 16.9716 27.1615 17.561 26.4497C17.561 26.4497 17.6141 26.3873 17.6791 26.2659V27.751H21.2448V16.1482H17.6791L17.6787 17.6169ZM17.3649 23.4558C17.2455 24.5288 16.3413 25.1732 15.2726 25.1327C14.1775 25.0918 13.4529 24.5288 13.2163 23.5199C12.9328 22.0845 13.2646 20.379 13.2927 20.2407C13.5789 19.2774 14.3088 18.8007 15.3797 18.8247C16.4313 18.8475 17.242 19.4451 17.3605 20.4911C17.4715 21.4696 17.4741 22.4768 17.3649 23.4558Z" fill="#3B5998"/>
<path fill-rule="evenodd" clip-rule="evenodd" d="M32.1349 26.9196C31.9694 26.3384 31.7811 25.7653 31.599 25.2115L31.4269 24.5958C31.4269 24.5958 26.958 26.6557 26.261 22.7415C26.1965 22.0954 26.2163 21.4287 26.3089 20.7911C26.4827 19.5879 27.2472 18.9436 28.4634 18.8332C28.8743 18.7957 29.3018 18.8146 29.7086 18.8808C30.2625 18.9705 30.8032 19.1307 31.4094 19.2744C31.6201 18.6553 31.8356 18.043 32.0361 17.4264C32.0677 17.3299 32.0941 17.2465 32.1147 17.1719L32.2156 16.8015C32.1906 16.7521 32.1296 16.7012 32.048 16.6514C32.048 16.6514 32.048 16.6514 32.048 16.6518C31.9453 16.5692 31.7702 16.5006 31.4967 16.4045C31.3874 16.3661 31.2777 16.332 31.168 16.2991C31.0697 16.2692 31.0056 16.2515 31.0056 16.2515C29.8315 15.9291 28.6267 15.9042 27.4022 16.0281C24.8214 16.2898 23.0697 17.7522 22.5839 20.1661C22.3289 21.4363 22.3407 22.7221 22.6335 23.9961C23.0719 25.9039 24.2763 27.1366 26.2342 27.6878C27.5119 28.0473 28.8212 28.0654 30.1238 27.8703C30.6716 27.7881 31.4572 27.5155 32.0212 27.3212L32.2358 27.2487L32.1344 26.9187L32.1349 26.9196Z" fill="#3B5998"/>
<path fill-rule="evenodd" clip-rule="evenodd" d="M43.8997 22.3803C43.8826 21.5771 43.894 20.7701 43.7755 19.9807C43.4494 17.8163 42.077 16.4466 39.8574 16.0888C39.0103 15.9527 38.1145 15.9708 37.2538 16.0496C34.8982 16.2654 33.1101 17.6742 32.7437 19.7944C32.5211 21.0806 32.4926 22.4457 32.6726 23.7373C32.9442 25.6806 33.9296 26.9183 35.6343 27.5125C35.6347 27.5125 35.6347 27.5125 35.6352 27.5125C35.6426 27.5129 35.6501 27.5142 35.6575 27.515C35.6567 27.5159 35.6571 27.5159 35.6567 27.5163C36.4348 27.7397 40.2432 28.6959 43.6004 27.0763L43.4657 26.6018C43.4644 26.6026 43.4622 26.6026 43.4608 26.6026C43.3055 25.9697 43.1185 25.3434 42.9425 24.7159L42.9236 24.6544C42.9236 24.6544 42.8538 24.6784 42.7301 24.7163C42.7274 24.7167 42.7239 24.7167 42.7213 24.7172C42.5747 24.7538 42.4299 24.7968 42.2859 24.8432C42.2591 24.8516 42.2328 24.8596 42.206 24.8672C41.6978 25.0046 40.9714 25.174 40.2042 25.2688C39.5603 25.3312 38.9098 25.3337 38.2532 25.2798C37.1871 25.1104 36.3712 24.5621 36.4103 23.2658H37.0195C39.1095 23.2658 41.1992 23.2658 43.2897 23.2653C43.3393 23.2653 43.3897 23.2658 43.4393 23.2649L43.4389 23.2658C43.4389 23.2658 43.8879 23.2603 43.9068 23.2561C43.9068 23.2561 43.9063 23.1423 43.9068 23.1284L43.8997 22.3803ZM40.4631 20.7983H36.3348C36.3563 20.0098 36.459 19.2769 37.1889 18.8306C37.964 18.3578 38.8203 18.3401 39.6173 18.764C40.4232 19.1914 40.4864 19.9634 40.4631 20.7983Z" fill="#3B5998"/>
<path fill-rule="evenodd" clip-rule="evenodd" d="M96 16.2692H91.9472L88.4271 21.5531V10.0105L84.6065 10.4551V27.751H88.4271V22.4579L91.9472 27.7586H96L92.1802 22.0044L96 16.2692Z" fill="#3B5998"/>
<path fill-rule="evenodd" clip-rule="evenodd" d="M79.3475 16.1942C78.0198 15.8528 76.6781 15.857 75.3535 16.1959C73.3705 16.7033 72.041 17.9081 71.6127 19.8248C71.3787 20.8712 71.3322 21.9829 71.3941 23.0559C71.5345 25.5095 73.1155 27.2575 75.5672 27.7999C75.6023 27.8079 75.6383 27.8138 75.6734 27.8214H75.6725C75.6725 27.8214 75.6787 27.8227 75.6897 27.8248C75.784 27.8429 75.8793 27.8598 75.9741 27.8733C76.0057 27.8762 76.0377 27.8792 76.0693 27.8808C76.0702 27.8817 76.0711 27.8817 76.0719 27.8817C76.1918 27.9028 76.3335 27.9188 76.4828 27.9301C76.9638 27.979 77.5756 28.014 78.0848 27.9563C78.0874 27.9554 78.0891 27.9554 78.0927 27.9546C78.1194 27.9542 78.1449 27.9542 78.1699 27.9529C80.7028 27.8261 82.6248 26.2925 83.1857 23.9413C83.4934 22.6513 83.4934 21.3546 83.1967 20.0637C82.7293 18.0375 81.4503 16.734 79.3475 16.1942ZM79.5086 23.2847C79.4958 23.3614 79.4827 23.4364 79.4647 23.5119C79.2101 24.5941 78.3924 25.1791 77.3009 25.131C76.1272 25.0783 75.3223 24.4201 75.2091 23.2944C75.1274 22.4722 75.12 21.6323 75.1911 20.8092C75.3043 19.5096 76.1496 18.799 77.4198 18.8231C78.4613 18.8424 79.2053 19.4101 79.4704 20.3731C79.71 21.3415 79.5327 23.0647 79.5086 23.2847Z" fill="#3B5998"/>
</svg>
