<svg width="97" height="40" viewBox="0 0 97 40" fill="none" xmlns="http://www.w3.org/2000/svg">
<path d="M71.208 8.95761C71.208 7.95359 72.0425 7.13918 73.072 7.13918H94.569C95.5985 7.13918 96.4331 7.95359 96.4331 8.95761V30.7059C96.4331 31.7103 95.5985 32.5244 94.569 32.5244H73.072C72.0425 32.5244 71.208 31.7103 71.208 30.7059V8.95761Z" fill="#006699"/>
<path fill-rule="evenodd" clip-rule="evenodd" d="M0.594508 28.4028H11.1217V24.9468H4.40417V11.7608H0.594508V28.4028Z" fill="black"/>
<path fill-rule="evenodd" clip-rule="evenodd" d="M16.4515 28.4028V16.9403H12.6415V28.4028H16.4515ZM14.5465 15.3753C15.8751 15.3753 16.7021 14.4951 16.7021 13.3944C16.6773 12.2699 15.8751 11.4145 14.5718 11.4145C13.2683 11.4145 12.4162 12.2699 12.4162 13.3944C12.4162 14.4951 13.243 15.3753 14.5216 15.3753H14.5464H14.5465Z" fill="black"/>
<path fill-rule="evenodd" clip-rule="evenodd" d="M18.2205 28.4028H22.0305V22.0015C22.0305 21.6589 22.0553 21.3167 22.156 21.0718C22.4313 20.3876 23.0582 19.6787 24.1107 19.6787C25.4895 19.6787 26.0411 20.7302 26.0411 22.2701V28.4028H29.8507V21.8302C29.8507 18.3093 27.9709 16.671 25.4642 16.671C23.409 16.671 22.5065 17.8199 22.0051 18.6024H22.0306V16.9403H18.2205C18.2706 18.0159 18.2205 28.4028 18.2205 28.4028H18.2205Z" fill="black"/>
<path fill-rule="evenodd" clip-rule="evenodd" d="M35.2256 11.7608H31.4154V28.4028H35.2256V24.6866L36.1777 23.4879L39.1606 28.4028H43.8476L38.8348 21.2875L43.2212 16.4465H38.6344C38.6344 16.4465 35.5013 20.7777 35.2256 21.2912V11.7608Z" fill="black"/>
<path fill-rule="evenodd" clip-rule="evenodd" d="M54.0366 23.6215C54.0866 23.3271 54.162 22.7623 54.162 22.1239C54.162 19.1607 52.6578 16.1527 48.6977 16.1527C44.4616 16.1527 42.5066 19.503 42.5066 22.5415C42.5066 26.2998 44.8877 28.647 49.0485 28.647C50.7029 28.647 52.2316 28.4028 53.4851 27.8893L52.9836 25.3731C51.9561 25.714 50.9033 25.8843 49.6001 25.8843C47.8204 25.8843 46.2665 25.154 46.141 23.5971L54.0366 23.6208V23.6215ZM46.1162 21.0439C46.2164 20.0657 46.8681 18.6227 48.4973 18.6227C50.2264 18.6227 50.6277 20.1637 50.6277 21.0439H46.1162Z" fill="black"/>
<path fill-rule="evenodd" clip-rule="evenodd" d="M63.5663 11.7607V17.5217H63.5162C62.9647 16.7154 61.8115 16.1774 60.2829 16.1774C57.3501 16.1774 54.7685 18.5247 54.7933 22.5343C54.7933 26.2512 57.1245 28.6718 60.032 28.6718C61.6111 28.6718 63.1149 27.9869 63.8668 26.6664H63.9422L64.0926 28.4028H67.4766C67.4264 27.5958 67.3759 26.2021 67.3759 24.8331V11.7607H63.5663ZM63.5663 23.097C63.5663 23.3901 63.5412 23.6839 63.4909 23.9281C63.2656 24.9796 62.363 25.7129 61.2604 25.7129C59.6812 25.7129 58.6535 24.4416 58.6535 22.4366C58.6535 20.5541 59.531 19.0382 61.2853 19.0382C62.4632 19.0382 63.2905 19.8448 63.5162 20.8472C63.5663 21.0676 63.5663 21.3122 63.5663 21.532V23.097Z" fill="black"/>
<path fill-rule="evenodd" clip-rule="evenodd" d="M78.8545 28.3892V16.9264H75.0445V28.3892H78.8545ZM76.9495 15.3613C78.2781 15.3613 79.1051 14.4811 79.1051 13.3811C79.0803 12.2563 78.2781 11.4005 76.9747 11.4005C75.6714 11.4005 74.8192 12.2563 74.8192 13.3811C74.8192 14.4811 75.646 15.3613 76.9246 15.3613H76.9494H76.9495Z" fill="white"/>
<path fill-rule="evenodd" clip-rule="evenodd" d="M80.9627 28.3892H84.7727V21.9879C84.7727 21.6453 84.7974 21.3031 84.8981 21.0582C85.1735 20.3737 85.8004 19.6647 86.8529 19.6647C88.2316 19.6647 88.7831 20.7159 88.7831 22.2569V28.3892H92.5928V21.8166C92.5928 18.2957 90.7131 16.6574 88.2064 16.6574C86.151 16.6574 85.2487 17.8063 84.7473 18.5888H84.7728V16.9264H80.9628C81.0128 18.002 80.9628 28.3892 80.9628 28.3892H80.9627Z" fill="white"/>
</svg>
