<svg width="150" height="40" viewBox="0 0 150 40" fill="none" xmlns="http://www.w3.org/2000/svg">
<g clip-path="url(#clip0)">
<path d="M52.8868 22.4308L51.9938 24.961H51.9194C51.7705 24.3905 51.4977 23.5223 51.0512 22.4804L46.2636 10.4494H41.5752V29.6246H44.676V17.792C44.676 17.0479 44.676 16.2044 44.6512 15.1626C44.6264 14.6417 44.5767 14.2448 44.5519 13.9471H44.6264C44.7752 14.6913 44.9488 15.237 45.0729 15.5843L50.8279 29.575H53.0109L58.7163 15.4603C58.8403 15.1378 58.9643 14.4928 59.0884 13.9471H59.1628C59.0884 15.361 59.0388 16.6262 59.014 17.3951V29.5502H62.3132V10.3998H57.7985L52.8868 22.4308V22.4308ZM65.4388 15.8075H68.6636V29.5502H65.4388V15.8075ZM67.076 10.0029C66.5302 10.0029 66.0837 10.2013 65.7116 10.5486C65.3395 10.8959 65.1411 11.3424 65.1411 11.8882C65.1411 12.4091 65.3395 12.8556 65.7116 13.2029C66.0837 13.5502 66.5302 13.7238 67.076 13.7238C67.6217 13.7238 68.093 13.5254 68.4403 13.2029C68.8124 12.8556 69.0109 12.4091 69.0109 11.8882C69.0109 11.3672 68.8124 10.9207 68.4403 10.5486C68.1178 10.2013 67.6465 10.0029 67.076 10.0029V10.0029ZM80.0992 15.6835C79.5039 15.5595 78.8837 15.4851 78.2884 15.4851C76.8248 15.4851 75.4853 15.8075 74.369 16.4525C73.2527 17.0975 72.3597 17.9905 71.7892 19.1068C71.1938 20.2479 70.8961 21.5626 70.8961 23.0758C70.8961 24.3905 71.1938 25.5564 71.7644 26.6231C72.3349 27.6649 73.1287 28.5083 74.1954 29.0789C75.2124 29.6494 76.4031 29.9471 77.7426 29.9471C79.2806 29.9471 80.5954 29.6246 81.6372 29.0293L81.662 29.0044V26.0277L81.538 26.1269C81.0667 26.4742 80.5209 26.7719 79.9752 26.9455C79.4047 27.144 78.8837 27.2432 78.4372 27.2432C77.1473 27.2432 76.1302 26.8711 75.4109 26.0525C74.6667 25.2587 74.2946 24.1672 74.2946 22.8029C74.2946 21.3889 74.6667 20.2727 75.4357 19.4541C76.2047 18.6355 77.2217 18.2137 78.462 18.2137C79.5039 18.2137 80.5706 18.561 81.538 19.2556L81.662 19.3548V16.2044L81.6372 16.1796C81.2155 16.006 80.7442 15.8075 80.0992 15.6835V15.6835ZM90.7411 15.5843C89.9473 15.5843 89.2031 15.8324 88.5582 16.3533C88.0124 16.7998 87.6403 17.4448 87.3178 18.2137H87.293V15.8075H84.0682V29.5502H87.293V22.53C87.293 21.3393 87.5411 20.3471 88.0868 19.6277C88.6326 18.8835 89.3272 18.5114 90.1706 18.5114C90.4682 18.5114 90.7659 18.5858 91.138 18.6355C91.4853 18.7347 91.7334 18.8339 91.907 18.9579L92.031 19.0572V15.8324L91.9566 15.8075C91.7334 15.6587 91.2868 15.5843 90.7411 15.5843V15.5843ZM99.5225 15.5099C97.2651 15.5099 95.4543 16.1796 94.1892 17.4944C92.8992 18.8091 92.2791 20.6199 92.2791 22.9021C92.2791 25.0355 92.9241 26.7719 94.1644 28.037C95.4047 29.2773 97.0915 29.9223 99.2 29.9223C101.408 29.9223 103.169 29.2525 104.434 27.913C105.724 26.5734 106.344 24.7874 106.344 22.5796C106.344 20.3967 105.749 18.6603 104.533 17.3951C103.367 16.13 101.656 15.5099 99.5225 15.5099V15.5099ZM102.102 26.0773C101.507 26.8463 100.564 27.2184 99.3985 27.2184C98.2326 27.2184 97.2899 26.8463 96.6202 26.0277C95.9504 25.2587 95.6279 24.1424 95.6279 22.7285C95.6279 21.2649 95.9752 20.1486 96.6202 19.3548C97.2899 18.561 98.2078 18.1641 99.3737 18.1641C100.515 18.1641 101.408 18.5362 102.053 19.3052C102.698 20.0742 103.045 21.1905 103.045 22.6541C102.995 24.1424 102.723 25.3083 102.102 26.0773V26.0773ZM113.538 21.513C112.521 21.0913 111.876 20.7688 111.578 20.4959C111.33 20.2479 111.206 19.9006 111.206 19.4541C111.206 19.082 111.355 18.7099 111.727 18.4618C112.099 18.2137 112.521 18.0897 113.141 18.0897C113.687 18.0897 114.257 18.1889 114.803 18.3378C115.349 18.4866 115.845 18.7099 116.242 19.0075L116.366 19.1068V16.0804L116.292 16.0556C115.919 15.9068 115.423 15.7579 114.828 15.6339C114.233 15.5347 113.687 15.4851 113.24 15.4851C111.702 15.4851 110.437 15.8572 109.445 16.6758C108.453 17.4448 107.981 18.4866 107.981 19.7021C107.981 20.3471 108.081 20.9176 108.304 21.3889C108.527 21.8603 108.85 22.3068 109.296 22.6789C109.743 23.0262 110.388 23.4231 111.281 23.7951C112.025 24.1176 112.595 24.3657 112.943 24.5641C113.29 24.7626 113.513 24.9858 113.687 25.1595C113.811 25.3579 113.885 25.606 113.885 25.9285C113.885 26.8463 113.191 27.2928 111.777 27.2928C111.231 27.2928 110.66 27.1936 109.991 26.9703C109.321 26.7471 108.701 26.4246 108.18 26.0525L108.056 25.9533V29.1037L108.13 29.1285C108.602 29.3517 109.172 29.5006 109.867 29.6742C110.561 29.7982 111.181 29.8975 111.727 29.8975C113.389 29.8975 114.754 29.5254 115.721 28.7068C116.713 27.913 117.234 26.8959 117.234 25.5812C117.234 24.6634 116.986 23.8448 116.44 23.2246C115.721 22.6293 114.828 22.0091 113.538 21.513V21.513ZM125.743 15.5099C123.485 15.5099 121.674 16.1796 120.409 17.4944C119.144 18.8091 118.499 20.6199 118.499 22.9021C118.499 25.0355 119.144 26.7719 120.385 28.037C121.625 29.2773 123.312 29.9223 125.42 29.9223C127.628 29.9223 129.389 29.2525 130.654 27.913C131.944 26.5734 132.564 24.7874 132.564 22.5796C132.564 20.3967 131.969 18.6603 130.754 17.3951C129.588 16.13 127.876 15.5099 125.743 15.5099V15.5099ZM128.298 26.0773C127.702 26.8463 126.76 27.2184 125.594 27.2184C124.403 27.2184 123.485 26.8463 122.816 26.0277C122.146 25.2587 121.823 24.1424 121.823 22.7285C121.823 21.2649 122.171 20.1486 122.816 19.3548C123.485 18.561 124.403 18.1641 125.569 18.1641C126.685 18.1641 127.603 18.5362 128.248 19.3052C128.893 20.0742 129.24 21.1905 129.24 22.6541C129.24 24.1424 128.918 25.3083 128.298 26.0773V26.0773ZM149.805 18.4618V15.8075H146.555V11.7393L146.456 11.7641L143.38 12.682L143.305 12.7068V15.8075H138.443V14.0711C138.443 13.2773 138.642 12.6572 138.989 12.2603C139.336 11.8634 139.857 11.6649 140.502 11.6649C140.949 11.6649 141.42 11.7641 141.941 11.9874L142.065 12.0618V9.25871L141.991 9.2339C141.544 9.08506 140.949 8.98584 140.18 8.98584C139.212 8.98584 138.369 9.2091 137.6 9.58119C136.831 10.0029 136.26 10.5734 135.839 11.3424C135.417 12.0866 135.194 12.93 135.194 13.8975V15.8075H132.936V18.437H135.194V29.5502H138.443V18.4618H143.305V25.5316C143.305 28.4339 144.67 29.8975 147.398 29.8975C147.845 29.8975 148.316 29.8231 148.763 29.7486C149.234 29.6494 149.581 29.5254 149.78 29.4262L149.805 29.4013V26.7471L149.681 26.8463C149.482 26.9703 149.309 27.0696 149.011 27.144C148.763 27.2184 148.54 27.2432 148.366 27.2432C147.721 27.2432 147.274 27.0944 146.952 26.7223C146.654 26.375 146.505 25.8044 146.505 24.961V18.4618H149.805V18.4618Z" fill="#737373"/>
<path d="M0 4H15.2062V19.2062H0V4Z" fill="#F25022"/>
<path d="M16.7939 4H32.0002V19.2062H16.7939V4Z" fill="#7FBA00"/>
<path d="M0 20.7935H15.2062V35.9997H0V20.7935Z" fill="#00A4EF"/>
<path d="M16.7939 20.7935H32.0002V35.9997H16.7939V20.7935Z" fill="#FFB900"/>
</g>
<defs>
<clipPath id="clip0">
<rect width="149.829" height="32" fill="white" transform="translate(0 4)"/>
</clipPath>
</defs>
</svg>
