<svg width="50" height="40" viewBox="0 0 50 40" fill="none" xmlns="http://www.w3.org/2000/svg">
<path fill-rule="evenodd" clip-rule="evenodd" d="M44.3961 28.9564C39.1438 32.9042 31.5129 35 24.9516 35C15.7561 35 7.47065 31.5395 1.21265 25.7884C0.717754 25.3335 1.16475 24.7161 1.75543 25.0735C8.52429 29.0701 16.8736 31.4908 25.5103 31.4908C31.3373 31.4908 37.739 30.2561 43.6298 27.7217C44.5078 27.3155 45.2581 28.3065 44.3961 28.9564Z" fill="#FF9900"/>
<path fill-rule="evenodd" clip-rule="evenodd" d="M46.5832 26.422C45.9127 25.5447 42.1451 25.9996 40.4369 26.2108C39.9261 26.2757 39.8462 25.8208 40.3092 25.4797C43.3105 23.3352 48.2435 23.9525 48.8182 24.6674C49.3929 25.3984 48.6585 30.4185 45.8488 32.823C45.4178 33.1967 45.0027 33.0017 45.1943 32.5143C45.8329 30.9059 47.2537 27.283 46.5832 26.422Z" fill="#FF9900"/>
<path d="M14.7966 17.1149C14.7966 17.7447 14.8619 18.2553 14.9761 18.6298C15.1066 19.0043 15.2698 19.4128 15.4982 19.8553C15.5798 19.9915 15.6124 20.1277 15.6124 20.2468C15.6124 20.417 15.5145 20.5872 15.3024 20.7574L14.2745 21.4723C14.1276 21.5745 13.9808 21.6255 13.8503 21.6255C13.6871 21.6255 13.5239 21.5404 13.3608 21.3872C13.1323 21.1319 12.9365 20.8596 12.7734 20.5872C12.6102 20.2979 12.4471 19.9745 12.2676 19.583C10.9949 21.1489 9.39594 21.9319 7.47063 21.9319C6.10007 21.9319 5.00689 21.5234 4.2074 20.7064C3.4079 19.8894 3 18.8 3 17.4383C3 15.9915 3.48949 14.817 4.48477 13.9319C5.48006 13.0468 6.80167 12.6043 8.48223 12.6043C9.03698 12.6043 9.60805 12.6553 10.2117 12.7404C10.8154 12.8255 11.4355 12.9617 12.0881 13.1149V11.8723C12.0881 10.5787 11.827 9.6766 11.3212 9.14894C10.7991 8.62128 9.91806 8.36596 8.66171 8.36596C8.09065 8.36596 7.50326 8.43404 6.89957 8.58723C6.29587 8.74043 5.70848 8.92766 5.13742 9.16596C4.87636 9.28511 4.68057 9.35319 4.56635 9.38723C4.45214 9.42128 4.37056 9.4383 4.30529 9.4383C4.07687 9.4383 3.96265 9.26809 3.96265 8.91064V8.0766C3.96265 7.80426 3.99529 7.6 4.07687 7.48085C4.15845 7.3617 4.30529 7.24255 4.53372 7.1234C5.10479 6.81702 5.79007 6.5617 6.58956 6.35745C7.38905 6.13617 8.23749 6.03404 9.13488 6.03404C11.0765 6.03404 12.496 6.49362 13.4097 7.41277C14.3071 8.33191 14.764 9.72766 14.764 11.6V17.1149H14.7966ZM8.17223 19.7021C8.71066 19.7021 9.26541 19.6 9.85279 19.3957C10.4402 19.1915 10.9623 18.817 11.4028 18.3064C11.6639 17.983 11.8597 17.6255 11.9576 17.217C12.0555 16.8085 12.1207 16.3149 12.1207 15.7362V15.0213C11.6476 14.9021 11.1418 14.8 10.6197 14.7319C10.0975 14.6638 9.59173 14.6298 9.08593 14.6298C7.99275 14.6298 7.19326 14.8511 6.65482 15.3106C6.11639 15.7702 5.85533 16.417 5.85533 17.2681C5.85533 18.0681 6.05112 18.6638 6.45903 19.0723C6.85062 19.4979 7.42168 19.7021 8.17223 19.7021ZM21.2741 21.5404C20.9804 21.5404 20.7846 21.4894 20.6541 21.3702C20.5236 21.2681 20.4094 21.0298 20.3115 20.7064L16.4772 7.54894C16.3793 7.20851 16.3303 6.98723 16.3303 6.86809C16.3303 6.59574 16.4608 6.44255 16.7219 6.44255H18.3209C18.6309 6.44255 18.843 6.49362 18.9572 6.61277C19.0877 6.71489 19.1856 6.95319 19.2835 7.2766L22.0247 18.5447L24.57 7.2766C24.6516 6.93617 24.7495 6.71489 24.88 6.61277C25.0105 6.51064 25.2389 6.44255 25.5326 6.44255H26.8379C27.1479 6.44255 27.36 6.49362 27.4906 6.61277C27.6211 6.71489 27.7353 6.95319 27.8006 7.2766L30.3785 18.6809L33.2012 7.2766C33.2991 6.93617 33.4133 6.71489 33.5276 6.61277C33.6581 6.51064 33.8702 6.44255 34.1639 6.44255H35.6813C35.9423 6.44255 36.0892 6.57872 36.0892 6.86809C36.0892 6.95319 36.0729 7.0383 36.0566 7.14043C36.0402 7.24255 36.0076 7.37872 35.9424 7.56596L32.0102 20.7234C31.9123 21.0638 31.798 21.2851 31.6675 21.3872C31.537 21.4894 31.3249 21.5574 31.0475 21.5574H29.6443C29.3343 21.5574 29.1222 21.5064 28.9917 21.3872C28.8611 21.2681 28.7469 21.0468 28.6817 20.7064L26.1526 9.72766L23.64 20.6894C23.5584 21.0298 23.4605 21.2511 23.33 21.3702C23.1994 21.4894 22.971 21.5404 22.6773 21.5404H21.2741ZM42.2404 22C41.392 22 40.5435 21.8979 39.7277 21.6936C38.9119 21.4894 38.2756 21.2681 37.8513 21.0128C37.5903 20.8596 37.4108 20.6894 37.3455 20.5362C37.2803 20.383 37.2476 20.2128 37.2476 20.0596V19.1915C37.2476 18.834 37.3782 18.6638 37.6229 18.6638C37.7208 18.6638 37.8187 18.6809 37.9166 18.7149C38.0145 18.7489 38.1614 18.817 38.3245 18.8851C38.8793 19.1404 39.483 19.3447 40.1193 19.4809C40.7719 19.617 41.4083 19.6851 42.0609 19.6851C43.0888 19.6851 43.8883 19.4979 44.4431 19.1234C44.9978 18.7489 45.2915 18.2043 45.2915 17.5064C45.2915 17.0298 45.1447 16.6383 44.851 16.3149C44.5573 15.9915 44.0025 15.7021 43.203 15.4298L40.8372 14.6638C39.6461 14.2723 38.765 13.6936 38.2266 12.9277C37.6882 12.1787 37.4108 11.3447 37.4108 10.4596C37.4108 9.74468 37.5577 9.11489 37.8513 8.57021C38.145 8.02553 38.5366 7.54894 39.0261 7.17447C39.5156 6.78298 40.0703 6.49362 40.723 6.28936C41.3756 6.08511 42.0609 6 42.7788 6C43.1378 6 43.5131 6.01702 43.872 6.06809C44.2473 6.11915 44.5899 6.18723 44.9326 6.25532C45.2589 6.34043 45.5689 6.42553 45.8626 6.52766C46.1563 6.62979 46.3847 6.73191 46.5479 6.83404C46.7763 6.97021 46.9395 7.10638 47.0373 7.25957C47.1352 7.39574 47.1842 7.58298 47.1842 7.82128V8.62128C47.1842 8.97872 47.0537 9.16596 46.8089 9.16596C46.6784 9.16596 46.4663 9.09787 46.1889 8.9617C45.2589 8.51915 44.2147 8.29787 43.0562 8.29787C42.1262 8.29787 41.392 8.45106 40.8862 8.77447C40.3804 9.09787 40.1193 9.59149 40.1193 10.2894C40.1193 10.766 40.2825 11.1745 40.6088 11.4979C40.9351 11.8213 41.5388 12.1447 42.4036 12.434L44.7205 13.2C45.8952 13.5915 46.7437 14.1362 47.2495 14.834C47.7553 15.5319 48 16.3319 48 17.217C48 17.9489 47.8532 18.6128 47.5758 19.1915C47.2821 19.7702 46.8905 20.2809 46.3847 20.6894C45.8789 21.1149 45.2752 21.4213 44.5736 21.6426C43.8394 21.8809 43.0725 22 42.2404 22Z" fill="#252F3E"/>
</svg>
