<svg width="109" height="40" viewBox="0 0 109 40" fill="none" xmlns="http://www.w3.org/2000/svg">
<path d="M35.9263 27V15.0044H31.4453V13.3994H42.2256V15.0044H37.7261V27H35.9263Z" fill="black"/>
<path d="M48.4971 23.8271L50.2227 24.0405C49.9505 25.0487 49.4465 25.8311 48.7104 26.3877C47.9744 26.9443 47.0343 27.2227 45.8901 27.2227C44.4491 27.2227 43.3049 26.7804 42.4575 25.896C41.6164 25.0054 41.1958 23.7591 41.1958 22.1572C41.1958 20.4997 41.6226 19.2132 42.4761 18.2979C43.3296 17.3825 44.4367 16.9248 45.7974 16.9248C47.1147 16.9248 48.1909 17.3732 49.0259 18.27C49.8608 19.1668 50.2783 20.4285 50.2783 22.0552C50.2783 22.1541 50.2752 22.3026 50.269 22.5005H42.9214C42.9832 23.5828 43.2894 24.4116 43.8398 24.9868C44.3903 25.562 45.0768 25.8496 45.8994 25.8496C46.5117 25.8496 47.0343 25.6888 47.4673 25.3672C47.9002 25.0456 48.2435 24.5322 48.4971 23.8271ZM43.0142 21.1274H48.5156C48.4414 20.2987 48.2311 19.6771 47.8848 19.2627C47.3529 18.6195 46.6632 18.2979 45.8159 18.2979C45.049 18.2979 44.4027 18.5545 43.877 19.0679C43.3574 19.5812 43.0698 20.2677 43.0142 21.1274Z" fill="black"/>
<path d="M52.2915 27V13.3994H53.9614V27H52.2915Z" fill="black"/>
<path d="M63.3037 23.8271L65.0293 24.0405C64.7572 25.0487 64.2531 25.8311 63.5171 26.3877C62.7811 26.9443 61.841 27.2227 60.6968 27.2227C59.2557 27.2227 58.1115 26.7804 57.2642 25.896C56.423 25.0054 56.0024 23.7591 56.0024 22.1572C56.0024 20.4997 56.4292 19.2132 57.2827 18.2979C58.1362 17.3825 59.2433 16.9248 60.604 16.9248C61.9214 16.9248 62.9976 17.3732 63.8325 18.27C64.6675 19.1668 65.085 20.4285 65.085 22.0552C65.085 22.1541 65.0819 22.3026 65.0757 22.5005H57.728C57.7899 23.5828 58.096 24.4116 58.6465 24.9868C59.1969 25.562 59.8835 25.8496 60.7061 25.8496C61.3184 25.8496 61.841 25.6888 62.2739 25.3672C62.7069 25.0456 63.0501 24.5322 63.3037 23.8271ZM57.8208 21.1274H63.3223C63.248 20.2987 63.0378 19.6771 62.6914 19.2627C62.1595 18.6195 61.4699 18.2979 60.6226 18.2979C59.8556 18.2979 59.2093 18.5545 58.6836 19.0679C58.1641 19.5812 57.8765 20.2677 57.8208 21.1274Z" fill="black"/>
<path d="M66.8291 27.8164L68.4526 28.0576C68.5207 28.5586 68.7093 28.9235 69.0186 29.1523C69.4329 29.4616 69.9989 29.6162 70.7163 29.6162C71.4894 29.6162 72.0863 29.4616 72.5068 29.1523C72.9274 28.8431 73.2119 28.4102 73.3604 27.8535C73.4469 27.5133 73.4871 26.799 73.481 25.7104C72.7511 26.5701 71.842 27 70.7534 27C69.3989 27 68.3506 26.5114 67.6084 25.5342C66.8662 24.557 66.4951 23.3849 66.4951 22.0181C66.4951 21.078 66.6652 20.2121 67.0054 19.4204C67.3455 18.6226 67.8372 18.0072 68.4805 17.5742C69.1299 17.1413 69.8906 16.9248 70.7627 16.9248C71.9255 16.9248 72.8841 17.3949 73.6387 18.335V17.1475H75.1787V25.6641C75.1787 27.1979 75.021 28.2834 74.7056 28.9204C74.3963 29.5636 73.9015 30.0708 73.2212 30.4419C72.547 30.813 71.7152 30.9985 70.7256 30.9985C69.5505 30.9985 68.6011 30.7326 67.8774 30.2007C67.1538 29.675 66.8044 28.8802 66.8291 27.8164ZM68.2114 21.8975C68.2114 23.1901 68.4681 24.1333 68.9814 24.7271C69.4948 25.3208 70.138 25.6177 70.9111 25.6177C71.6781 25.6177 72.3213 25.3239 72.8408 24.7363C73.3604 24.1426 73.6201 23.2148 73.6201 21.9531C73.6201 20.7471 73.3511 19.8379 72.813 19.2256C72.2811 18.6133 71.6379 18.3071 70.8833 18.3071C70.1411 18.3071 69.5103 18.6102 68.9907 19.2163C68.4712 19.8162 68.2114 20.71 68.2114 21.8975Z" fill="black"/>
<path d="M77.6929 27V17.1475H79.1958V18.6411C79.5793 17.9422 79.9318 17.4814 80.2534 17.2588C80.5812 17.0361 80.9399 16.9248 81.3296 16.9248C81.8924 16.9248 82.4645 17.1042 83.0459 17.4629L82.4707 19.0122C82.0625 18.771 81.6543 18.6504 81.2461 18.6504C80.8812 18.6504 80.5534 18.7617 80.2627 18.9844C79.972 19.2008 79.7648 19.5039 79.6411 19.8936C79.4556 20.4873 79.3628 21.1367 79.3628 21.8418V27H77.6929Z" fill="black"/>
<path d="M90.4678 25.7847C89.8493 26.3104 89.2524 26.6815 88.6772 26.8979C88.1082 27.1144 87.4959 27.2227 86.8403 27.2227C85.758 27.2227 84.9261 26.9598 84.3447 26.4341C83.7633 25.9022 83.4727 25.2249 83.4727 24.4023C83.4727 23.9199 83.5809 23.4808 83.7974 23.085C84.02 22.6829 84.3076 22.3613 84.6602 22.1201C85.0189 21.8789 85.4209 21.6965 85.8662 21.5728C86.194 21.4862 86.6888 21.4027 87.3506 21.3223C88.6989 21.1615 89.6916 20.9697 90.3286 20.7471C90.3348 20.5182 90.3379 20.3729 90.3379 20.311C90.3379 19.6307 90.1802 19.1514 89.8647 18.873C89.438 18.4958 88.804 18.3071 87.9629 18.3071C87.1774 18.3071 86.596 18.4463 86.2188 18.7246C85.8477 18.9967 85.5724 19.4823 85.3931 20.1812L83.7603 19.9585C83.9087 19.2596 84.153 18.6968 84.4932 18.27C84.8333 17.8371 85.325 17.5062 85.9683 17.2773C86.6115 17.0423 87.3568 16.9248 88.2041 16.9248C89.0452 16.9248 89.7287 17.0238 90.2544 17.2217C90.7801 17.4196 91.1667 17.6701 91.4141 17.9731C91.6615 18.27 91.8346 18.6473 91.9336 19.105C91.9893 19.3895 92.0171 19.9028 92.0171 20.645V22.8716C92.0171 24.424 92.0511 25.4074 92.1191 25.8218C92.1934 26.23 92.3356 26.6227 92.5459 27H90.8018C90.6286 26.6536 90.5173 26.2485 90.4678 25.7847ZM90.3286 22.0552C89.7225 22.3026 88.8133 22.5129 87.6011 22.686C86.9146 22.785 86.429 22.8963 86.1445 23.02C85.86 23.1437 85.6405 23.3262 85.4858 23.5674C85.3312 23.8024 85.2539 24.0653 85.2539 24.356C85.2539 24.8013 85.4209 25.1724 85.7549 25.4692C86.0951 25.7661 86.5898 25.9146 87.2393 25.9146C87.8825 25.9146 88.4546 25.7754 88.9556 25.4971C89.4565 25.2126 89.8245 24.826 90.0596 24.3374C90.2389 23.9601 90.3286 23.4035 90.3286 22.6675V22.0552Z" fill="black"/>
<path d="M94.6147 27V17.1475H96.1084V18.5298C96.4176 18.0474 96.8289 17.6608 97.3423 17.3701C97.8556 17.0732 98.4401 16.9248 99.0957 16.9248C99.8255 16.9248 100.422 17.0763 100.886 17.3794C101.356 17.6825 101.687 18.1061 101.879 18.6504C102.658 17.5 103.673 16.9248 104.922 16.9248C105.899 16.9248 106.651 17.1969 107.176 17.7412C107.702 18.2793 107.965 19.1112 107.965 20.2368V27H106.304V20.7935C106.304 20.1255 106.249 19.6462 106.137 19.3555C106.032 19.0586 105.837 18.8205 105.553 18.6411C105.268 18.4618 104.934 18.3721 104.551 18.3721C103.858 18.3721 103.283 18.604 102.825 19.0679C102.368 19.5256 102.139 20.2616 102.139 21.2759V27H100.469V20.5986C100.469 19.8564 100.333 19.2998 100.061 18.9287C99.7884 18.5576 99.3431 18.3721 98.7246 18.3721C98.2546 18.3721 97.8185 18.4958 97.4165 18.7432C97.0207 18.9906 96.7331 19.3524 96.5537 19.8286C96.3743 20.3049 96.2847 20.9914 96.2847 21.8882V27H94.6147Z" fill="black"/>
<path d="M13 32C19.6274 32 25 26.6274 25 20C25 13.3726 19.6274 8 13 8C6.37258 8 1 13.3726 1 20C1 26.6274 6.37258 32 13 32Z" fill="url(#paint0_linear)"/>
<path d="M10.8 25.5C10.4112 25.5 10.4773 25.3532 10.3432 24.983L9.2 21.2206L18 16" fill="#C8DAEA"/>
<path d="M10.8 25.5C11.1 25.5 11.2326 25.3628 11.4 25.2L13 23.6442L11.0042 22.4407" fill="#A9C9DD"/>
<path d="M11.004 22.441L15.84 26.0139C16.3919 26.3184 16.7901 26.1607 16.9276 25.5015L18.8961 16.2252C19.0976 15.4172 18.5881 15.0507 18.0602 15.2904L6.50116 19.7475C5.71215 20.064 5.71675 20.5042 6.35734 20.7003L9.32364 21.6262L16.1909 17.2937C16.5151 17.0971 16.8127 17.2028 16.5685 17.4195" fill="url(#paint1_linear)"/>
<defs>
<linearGradient id="paint0_linear" x1="17.0008" y1="12.0008" x2="11.0008" y2="26" gradientUnits="userSpaceOnUse">
<stop stop-color="#37AEE2"/>
<stop offset="1" stop-color="#1E96C8"/>
</linearGradient>
<linearGradient id="paint1_linear" x1="14.5005" y1="19.9999" x2="16.3784" y2="24.2732" gradientUnits="userSpaceOnUse">
<stop stop-color="#EFF7FC"/>
<stop offset="1" stop-color="white"/>
</linearGradient>
</defs>
</svg>
