<svg width="103" height="40" viewBox="0 0 103 40" fill="none" xmlns="http://www.w3.org/2000/svg">
<path d="M5 5H13.8727L22.0741 16.7214L32.2826 5L34.7082 5.04376L23.2833 18.3698L35 35H26.1308L18.39 24.0591L8.93368 35H6.54675L17.2158 22.4982L5 5ZM13.0361 6.6922H8.35013L27.0975 33.264H31.6991L13.0361 6.6922Z" fill="black"/>
<path d="M55.3724 25.2328L52.2253 29.851L55.3538 34.7672H51.9646L50.5866 32.1974C50.4749 31.9926 50.3414 31.7039 50.1862 31.3315H50.149C50.0559 31.5922 49.9286 31.8715 49.7672 32.1695L48.3799 34.7672H45L48.2216 30.0186L45.1955 25.2328H48.6034L49.9628 27.905C50.1428 28.2588 50.27 28.5568 50.3445 28.7989H50.3818C50.4811 28.5071 50.6145 28.203 50.7821 27.8864L52.1695 25.2328H55.3724Z" fill="black"/>
<path d="M58.0168 35C57.5326 35 57.1291 34.851 56.8063 34.5531C56.4836 34.2551 56.3222 33.8889 56.3222 33.4544C56.3222 33.0074 56.4867 32.6412 56.8156 32.3557C57.1508 32.0701 57.5667 31.9274 58.0633 31.9274C58.5661 31.9274 58.9758 32.0732 59.2924 32.365C59.6151 32.6505 59.7765 33.0137 59.7765 33.4544C59.7765 33.9075 59.612 34.28 59.2831 34.5717C58.9603 34.8572 58.5382 35 58.0168 35Z" fill="black"/>
<path d="M69.1061 34.4227C68.442 34.8076 67.4829 35 66.229 35C64.7641 35 63.5785 34.5562 62.6723 33.6685C61.766 32.7809 61.3128 31.6356 61.3128 30.2328C61.3128 28.6127 61.797 27.3371 62.7654 26.406C63.7399 25.4687 65.0403 25 66.6667 25C67.7902 25 68.6034 25.149 69.1061 25.4469V27.9423C68.4916 27.4829 67.8057 27.2533 67.0484 27.2533C66.2042 27.2533 65.5338 27.5016 65.0372 27.9981C64.5469 28.4885 64.3017 29.1682 64.3017 30.0372C64.3017 30.8814 64.5376 31.5456 65.0093 32.0298C65.4811 32.5078 66.1297 32.7467 66.9553 32.7467C67.6878 32.7467 68.4047 32.5171 69.1061 32.0577V34.4227Z" fill="black"/>
<path d="M75.5866 35C73.9975 35 72.7467 34.5562 71.8343 33.6685C70.928 32.7747 70.4749 31.5642 70.4749 30.0372C70.4749 28.4606 70.9466 27.2284 71.8901 26.3408C72.8336 25.4469 74.1092 25 75.7169 25C77.2998 25 78.5413 25.4469 79.4413 26.3408C80.3414 27.2284 80.7914 28.4047 80.7914 29.8696C80.7914 31.4525 80.3259 32.7033 79.3948 33.622C78.4699 34.5407 77.2005 35 75.5866 35ZM75.6611 27.2533C74.9659 27.2533 74.4258 27.4922 74.041 27.9702C73.6561 28.4482 73.4637 29.1248 73.4637 30C73.4637 31.8312 74.2024 32.7467 75.6797 32.7467C77.0888 32.7467 77.7933 31.8063 77.7933 29.9255C77.7933 28.144 77.0826 27.2533 75.6611 27.2533Z" fill="black"/>
<path d="M97.8398 34.7672H94.9069V29.3296C94.9069 27.9454 94.3979 27.2533 93.3799 27.2533C92.8957 27.2533 92.5016 27.4612 92.1974 27.8771C91.8932 28.293 91.7412 28.8113 91.7412 29.432V34.7672H88.7989V29.2737C88.7989 27.9268 88.2992 27.2533 87.2998 27.2533C86.797 27.2533 86.3935 27.4519 86.0894 27.8492C85.7914 28.2464 85.6425 28.7865 85.6425 29.4693V34.7672H82.7002V25.2328H85.6425V26.7225H85.6797C85.9839 26.2135 86.4091 25.8007 86.9553 25.4842C87.5078 25.1614 88.1099 25 88.7616 25C90.1086 25 91.0304 25.5928 91.527 26.7784C92.2533 25.5928 93.3209 25 94.73 25C96.8032 25 97.8398 26.2787 97.8398 28.8361V34.7672Z" fill="black"/>
</svg>
