<svg width="252" height="40" viewBox="0 0 252 40" fill="none" xmlns="http://www.w3.org/2000/svg">
<path fill-rule="evenodd" clip-rule="evenodd" d="M65.1218 2.68032C65.5851 1.1353 65.1218 0 62.9167 0H55.625C53.771 0 52.9163 0.980727 52.4527 2.06219C52.4527 2.06219 48.7446 11.1005 43.4917 16.9715C41.7922 18.6709 41.0196 19.2116 40.0926 19.2116C39.6292 19.2116 38.9582 18.6709 38.9582 17.126V2.68033C38.9582 0.826293 38.4202 0 36.875 0H25.4167C24.2581 0 23.5613 0.860501 23.5613 1.67603C23.5613 3.43361 26.1876 3.83893 26.4584 8.78302V19.5208C26.4584 21.875 26.0332 22.3018 25.1062 22.3018C22.6343 22.3018 16.6213 13.2231 13.0551 2.83476C12.3562 0.815626 11.6552 0 9.79169 0H2.50002C0.416688 0 0 0.980727 0 2.06219C0 3.9935 2.47204 13.5725 11.5102 26.2415C17.5356 34.8934 26.025 39.5833 33.75 39.5833C38.385 39.5833 38.9584 38.5417 38.9584 36.7474V30.2083C38.9584 28.125 39.3974 27.7092 40.8652 27.7092C41.9466 27.7092 43.8007 28.25 48.1267 32.4215C53.0707 37.3654 53.8858 39.5833 56.6667 39.5833H63.9584C66.0417 39.5833 67.0834 38.5417 66.4824 36.486C65.8249 34.4372 63.4644 31.4647 60.3323 27.9409C58.6327 25.9325 56.0835 23.7696 55.3109 22.6879C54.2294 21.2975 54.5384 20.6794 55.3109 19.4435C55.3109 19.4435 64.1948 6.92898 65.1218 2.68032V2.68032Z" fill="#5181B8"/>
<path d="M92.5364 9.32093H98.6478L92.0248 29.7209H85.5953L79 9.32093H85.1391L87.8906 19.6605C88.4621 21.9581 88.7755 23.5581 88.8308 24.4605C88.8953 23.8093 89.0244 22.9953 89.218 22.0186C89.4115 21.0419 89.5821 20.2744 89.7295 19.7163L92.5364 9.32093Z" fill="#5181B8"/>
<path d="M118.116 29.7209H111.949L107.953 21.9209L106.335 22.8977V29.7209H100.846V9.32093H106.335V18.1814C106.612 17.6326 107.17 16.7628 108.008 15.5721L112.253 9.32093H118.226L111.852 18.4605L118.116 29.7209Z" fill="#5181B8"/>
<path d="M139.229 19.493C139.229 22.9256 138.395 25.5349 136.727 27.3209C135.058 29.107 132.615 30 129.398 30C126.227 30 123.794 29.1023 122.098 27.307C120.411 25.5116 119.568 22.8977 119.568 19.4651C119.568 16.0698 120.406 13.4791 122.084 11.693C123.771 9.89767 126.218 9 129.426 9C132.643 9 135.081 9.88837 136.74 11.6651C138.4 13.4419 139.229 16.0512 139.229 19.493ZM125.32 19.493C125.32 23.4372 126.679 25.4093 129.398 25.4093C130.781 25.4093 131.804 24.9302 132.468 23.9721C133.141 23.014 133.477 21.5209 133.477 19.493C133.477 17.4558 133.136 15.9535 132.454 14.986C131.781 14.0093 130.772 13.5209 129.426 13.5209C126.688 13.5209 125.32 15.5116 125.32 19.493Z" fill="#5181B8"/>
<path d="M162.126 29.7209H154.964L147.581 15.3488H147.456C147.631 17.6093 147.719 19.3349 147.719 20.5256V29.7209H142.879V9.32093H150.014L157.37 23.4977H157.453C157.324 21.4419 157.259 19.7907 157.259 18.5442V9.32093H162.126V29.7209Z" fill="#5181B8"/>
<path d="M175.414 29.7209H169.952V13.8279H165.016V9.32093H180.336V13.8279H175.414V29.7209Z" fill="#5181B8"/>
<path d="M195.628 29.7209L194.633 25.8977H188.065L187.042 29.7209H181.041L187.637 9.23721H194.923L201.602 29.7209H195.628ZM193.499 21.3767L192.628 18.0279C192.425 17.2837 192.176 16.3209 191.881 15.1395C191.596 13.9581 191.407 13.1116 191.314 12.6C191.232 13.0744 191.066 13.8558 190.817 14.9442C190.577 16.0326 190.038 18.1767 189.199 21.3767H193.499Z" fill="#5181B8"/>
<path d="M221.07 29.7209H214.903L210.907 21.9209L209.289 22.8977V29.7209H203.8V9.32093H209.289V18.1814C209.566 17.6326 210.123 16.7628 210.962 15.5721L215.207 9.32093H221.18L214.806 18.4605L221.07 29.7209Z" fill="#5181B8"/>
<path d="M232.186 29.7209H226.725V13.8279H221.789V9.32093H237.109V13.8279H232.186V29.7209Z" fill="#5181B8"/>
<path d="M252 29.7209H239.998V9.32093H252V13.7442H245.46V16.9535H251.516V21.3767H245.46V25.2279H252V29.7209Z" fill="#5181B8"/>
</svg>
