<svg width="125" height="40" viewBox="0 0 125 40" fill="none" xmlns="http://www.w3.org/2000/svg">
<g clip-path="url(#clip0)">
<path d="M71.934 34.967C74.3076 34.967 76.2527 33.8462 77.6373 31.7692L77.901 34.5385H82.5823V5H77.5384V15.6813C76.2856 13.7692 74.3735 12.7473 72.1648 12.7473C67.2856 12.7473 63.8571 16.8681 63.8571 24.022C63.8571 31.044 67.1867 34.967 71.934 34.967ZM103.055 33.1209V29C101.472 30.0549 98.8351 31.011 96.3625 31.011C92.6702 31.011 91.2527 29.2637 91.0549 25.7033H103.253V23C103.253 15.5494 99.9889 12.7473 94.912 12.7473C88.7472 12.7473 85.8131 17.4615 85.8131 23.9231C85.8131 31.3736 89.4725 34.967 95.934 34.967C99.1648 34.967 101.538 34.1429 103.055 33.1209ZM48.5604 19.2088C49.5164 18.0549 50.967 17.0989 52.8131 17.0989C54.5933 17.0989 55.3845 17.8571 55.3845 19.4725V34.5714H60.4285V18.9451C60.4285 14.6923 58.7472 12.8132 54.5933 12.8132C51.5933 12.8132 49.7801 13.9341 48.7582 14.9231H48.4944L48.3626 13.1429H43.4175V34.5385H48.4615L48.5604 19.2088ZM39.3626 19.967C39.3626 14.7912 36.7252 12.8132 31.3516 12.8132C28.0219 12.8132 25.3516 14.2308 23.8351 15.3187V19.7033C25.4505 18.3846 27.923 16.8681 30.7582 16.8681C33.1648 16.8681 34.2856 17.7253 34.2856 20.033V21.3846H33.4944C25.7472 21.3846 22.3186 23.8901 22.3186 28.3736C22.3186 32.4945 24.956 34.8681 28.879 34.8681C31.8461 34.8681 33.1318 33.8791 34.1208 32.8571H34.3186C34.3516 33.4176 34.5164 34.1099 34.6812 34.5385H39.6263C39.4615 32.7912 39.3626 31.044 39.3626 29.2967V19.967ZM118.582 34.5714H124.286L117.297 23.5604L123.33 13.2088H118.286L114.626 19.6703L110.538 13.2088H104.802L111.264 23.4615L104.538 34.6044H109.681L113.967 27.3846L118.582 34.5714ZM73.4505 16.7363C76.1867 16.7363 77.5384 18.9121 77.5384 23.8242C77.5384 28.8022 76.0878 30.978 73.2527 30.978C70.4834 30.978 69.1318 28.8681 69.1318 23.989C69.0988 18.9451 70.5494 16.7363 73.4505 16.7363ZM94.8461 16.7363C97.3516 16.7363 98.1098 18.8132 98.1098 21.4835V21.9121H91.0549C91.1538 18.5165 92.4065 16.7363 94.8461 16.7363ZM34.3186 29.4615C33.6922 30.4176 32.4724 31.1429 30.6922 31.1429C28.5823 31.1429 27.4944 29.9231 27.4944 28.044C27.4944 25.5714 29.2417 24.7143 33.5604 24.7143H34.2856V29.4615H34.3186Z" fill="black"/>
<path d="M14.8352 29.5275V34.5385H9.69231V26.0989L0 5H5.37363L12.9231 21.4835C14.3736 24.6484 14.8352 25.7363 14.8352 29.5275ZM24.4945 5L18.1978 19.2747H12.956L19.2857 5H24.4945Z" fill="#FC3F1D"/>
</g>
<defs>
<clipPath id="clip0">
<rect width="124.615" height="30" fill="white" transform="translate(0 5)"/>
</clipPath>
</defs>
</svg>
