<?xml version="1.0" encoding="UTF-8" standalone="no"?>
<!-- Created with Inkscape (http://www.inkscape.org/) -->

<svg
   xmlns:dc="http://purl.org/dc/elements/1.1/"
   xmlns:cc="http://creativecommons.org/ns#"
   xmlns:rdf="http://www.w3.org/1999/02/22-rdf-syntax-ns#"
   xmlns:svg="http://www.w3.org/2000/svg"
   xmlns="http://www.w3.org/2000/svg"
   version="1.1"
   width="130.00005"
   height="51.254124"
   id="svg2"
   xml:space="preserve"><metadata
     id="metadata8"><rdf:RDF><cc:Work
         rdf:about=""><dc:format>image/svg+xml</dc:format><dc:type
           rdf:resource="http://purl.org/dc/dcmitype/StillImage" /><dc:title></dc:title></cc:Work></rdf:RDF></metadata><defs
     id="defs6" /><g
     transform="matrix(1.25,0,0,-1.25,-193.46271,442.73946)"
     id="g10"><path
       d="m 200.53814,338.65484 c -2.37992,0 -4.86113,-1.7383 -4.86113,-1.7383 l 0,1.11758 c 0,0.2448 -0.098,0.34304 -0.34258,0.34304 l -3.03761,0 c -0.24483,0 -0.39188,-0.14737 -0.39188,-0.34304 l 0,-23.82651 c 0,-0.24563 0.0982,-0.393 0.3432,-0.393 l 3.0865,0 c 0.19531,0 0.34258,0.14737 0.34258,0.393 l 0,20.39486 c 0,0 1.43248,0.90839 3.17219,0.90839 1.65651,0 2.96439,-0.82263 2.96439,-2.51035 0,-1.17546 0,-18.7929 0,-18.7929 0,-0.24563 0.14686,-0.393 0.39188,-0.393 l 3.03658,0 c 0.24502,0 0.34277,0.19629 0.34277,0.393 l 0,19.86094 c 2.1e-4,2.9912 -1.83766,4.58629 -5.04689,4.58629 z"
       id="path38"
       style="fill:#010202;fill-opacity:1;fill-rule:nonzero;stroke:none" /><path
       d="m 224.166,350.6063 -3.03762,0 c -0.24503,0 -0.39209,-0.14717 -0.39209,-0.34325 l 0,-12.02014 c -1.16582,0.44794 -2.22767,0.68441 -3.08566,0.68441 -4.93311,0 -8.31995,-4.71951 -8.31995,-13.79467 0,-7.77481 3.2947,-11.94438 7.59403,-11.94438 1.8123,0 3.30802,1.03911 4.40335,2.01411 l 0.66311,-1.12487 c 0.11168,-0.19463 0.20341,-0.26124 0.42806,-0.26124 l 1.74656,-0.002 c 0.19573,0 0.34299,0.14737 0.34299,0.393 l 0,36.05544 c 2.8e-4,0.24541 -0.098,0.34324 -0.34278,0.34324 z m -10.81804,-24.67121 c 0,5.00052 1.46246,9.95233 4.4489,9.95233 1.0115,0 1.98327,-0.33305 2.93985,-1.09344 l 0,-17.61745 c -0.74796,-0.40715 -1.68937,-0.78309 -2.70648,-0.78309 -3.24727,2.2e-4 -4.68227,3.85484 -4.68227,9.54165 z"
       id="path40"
       style="fill:#010202;fill-opacity:1;fill-rule:nonzero;stroke:none" /><path
       d="m 235.80168,338.87799 c -5.05834,0 -7.55537,-6.62226 -7.55537,-13.82923 0,-7.54314 3.56095,-11.7712 8.13943,-11.7712 2.01281,0 4.01583,0.79287 5.32934,1.52308 0.20135,0.11199 0.23775,0.27019 0.18928,0.46481 l -0.38418,1.59364 c -0.0479,0.19483 -0.14559,0.29204 -0.38916,0.29204 -0.10713,0 -1.76633,-0.48583 -3.38103,-0.48583 -3.74689,0 -5.46517,3.33319 -5.46517,7.76024 0,0.58388 0,1.07595 0,1.07595 0,0 1.86243,-0.2579 2.98126,-0.2579 l 7.06863,0 0,2.04451 c 0,7.54813 -2.64095,11.58989 -6.53303,11.58989 z m -0.24338,-10.5666 c -1.11882,0 -3.15512,-0.27664 -3.15512,-0.27664 0,0 0.0272,0.81222 0.1248,1.59155 0.43784,4.13897 1.42437,6.23239 3.12726,6.23239 1.48075,0 2.49474,-2.14213 2.73872,-5.89184 0.0481,-0.77934 0.0481,-1.65567 0.0481,-1.65567 l -2.88372,0 0,2.1e-4 z"
       id="path42"
       style="fill:#010202;fill-opacity:1;fill-rule:nonzero;stroke:none" /><path
       d="m 186.13567,335.78313 c -1.1232,2.21456 -3.12393,3.18269 -5.41567,3.18269 -1.47242,0 -3.76998,-0.56347 -5.30459,-1.25351 -0.30014,-0.13508 -0.49005,-0.25395 -0.49005,-0.49041 0,-0.1405 0.0698,-0.30203 0.14705,-0.4415 l 1.03376,-2.21519 c 0.1069,-0.2502 0.27726,-0.30724 0.41827,-0.30724 0.15289,0 0.27728,0.0725 0.41456,0.16049 1.49677,0.95731 2.59332,1.48352 3.46131,1.48352 1.14836,0 1.92814,-0.76247 2.40905,-1.90878 0.44782,-1.06826 0.62149,-2.54429 0.62149,-4.24971 0,-0.21752 8.3e-4,-0.50123 8.3e-4,-0.50123 -0.94327,0.59074 -2.57731,0.91629 -3.39288,0.91629 -4.38877,0 -6.7556,-4.17288 -6.7556,-8.63533 0,-4.80797 2.76619,-8.33474 6.09022,-8.33474 1.85139,0 3.52724,1.08739 4.6496,2.45852 0,0 0.59758,-1.42566 0.67558,-1.59676 0.0786,-0.1707 0.16162,-0.23377 0.38626,-0.23377 l 1.77631,-0.002 c 0.19551,0 0.34278,0.14738 0.34278,0.393 l 0,13.82131 c -5.5e-4,3.39607 -0.17201,5.98698 -1.06828,7.75402 z m -2.70419,-18.10765 c -0.87006,-0.84095 -1.91255,-1.28182 -2.85042,-1.28182 -0.93765,0 -1.66233,0.43358 -2.24348,1.23623 -0.70741,0.97688 -1.03729,2.48122 -1.03729,4.14792 0,2.63608 0.9724,5.34085 3.03387,5.34085 1.02003,0 2.14073,-0.33222 3.09752,-1.09344 l 0,-8.34974 -2e-4,0 z"
       id="path44"
       style="fill:#010202;fill-opacity:1;fill-rule:nonzero;stroke:none" /><path
       d="m 258.37622,338.38028 c -0.41559,0 -2.40509,0 -2.70732,0 -0.30243,0 -0.45655,-0.15861 -0.53455,-0.36406 -0.1716,-0.45045 -1.3158,-3.46641 -1.78504,-4.71576 -0.33446,-0.89257 -1.23531,-3.44851 -1.23531,-3.44851 l -0.10483,8.3e-4 c -0.003,0.009 -0.6631,1.85924 -1.02023,2.78575 -0.28913,0.75102 -1.79731,4.72699 -1.98827,5.21742 -0.10172,0.26331 -0.21569,0.52433 -0.6034,0.52433 -0.52353,0 -2.63805,0 -2.96419,0 -0.32573,0 -0.51022,-0.3576 -0.40497,-0.5795 0.10545,-0.22252 4.82828,-10.98769 4.82828,-10.98769 0,0 -5.07185,-12.0545 -5.22015,-12.32509 -0.14832,-0.27082 0.0383,-0.67151 0.39914,-0.67151 0.36004,0 2.15632,0 2.59771,0 0.442,0 0.6163,0.23188 0.749,0.60531 0.37336,1.04661 0.92935,2.50224 1.71661,4.75178 0.52145,1.49081 1.34618,4.10731 1.34618,4.10731 l 0.0907,0 c 0,0 0.90355,-2.66667 1.23946,-3.53864 0.84864,-2.20478 1.9344,-5.08482 2.04963,-5.38894 0.11981,-0.31805 0.28766,-0.53704 0.59154,-0.53704 0.30431,0 2.65324,0 2.94568,0 0.29141,0 0.4264,0.33306 0.28933,0.62281 -0.32801,0.69108 -3.12539,7.49381 -5.06769,11.96582 0,0 5.04127,11.13361 5.13965,11.409 0.0984,0.27539 0.0687,0.56638 -0.34694,0.56638 z"
       id="path46"
       style="fill:#010202;fill-opacity:1;fill-rule:nonzero;stroke:none" /><path
       d="m 176.35099,354.19157 -3.41473,0 c -0.30244,0 -0.49129,-0.14862 -0.53497,-0.36406 -0.0433,-0.21628 -5.12093,-15.71012 -5.48993,-17.00069 -0.26166,-0.91504 -1.11487,-4.14063 -1.31955,-4.91518 l -1.7659,4.82505 c -0.4291,1.32803 -4.54187,12.82654 -4.66252,13.28594 -0.0665,0.2525 -0.1824,0.56639 -0.62461,0.56639 l -3.3338,0 c -0.32593,0 -0.51044,-0.35782 -0.40518,-0.57971 0.0838,-0.17776 6.1058,-16.21031 8.53856,-22.33509 l 0,-13.4664 c 0,-0.24563 0.0982,-0.393 0.34298,-0.393 l 3.15743,0 c 0.19574,0 0.34257,0.14737 0.34257,0.393 l 0,12.76554 0,0.59471 c 2.028,5.66807 9.43567,25.83147 9.51617,26.05711 0.0984,0.2758 0.0695,0.56639 -0.34652,0.56639 z"
       id="path48"
       style="fill:#e52620;fill-opacity:1;fill-rule:nonzero;stroke:none" /></g></svg>