<svg width="150" height="150" viewBox="0 0 150 150" fill="none" xmlns="http://www.w3.org/2000/svg">
<g clip-path="url(#clip0_125_10597)">
<path fill-rule="evenodd" clip-rule="evenodd" d="M13 41.0002C13 35.4774 17.4772 31.0002 23 31.0002H83C88.5228 31.0002 93 35.4774 93 41.0002V74.1173C93 79.6402 88.5228 84.1173 83 84.1173H56.0855C55.4671 84.1173 54.8836 84.4034 54.5047 84.8921L44.9916 97.165C44.0454 98.3551 42.139 98.2583 41.3319 96.9712L32.2467 84.9138C31.8688 84.4123 31.2773 84.1173 30.6494 84.1173H23C17.4772 84.1173 13 79.6402 13 74.1173V41.0002Z" fill="url(#paint0_linear_125_10597)"/>
<path fill-rule="evenodd" clip-rule="evenodd" d="M41.3319 96.9712C42.139 98.2583 44.0454 98.3551 44.9916 97.165L54.5047 84.8921C54.8836 84.4034 55.4671 84.1173 56.0855 84.1173H83C88.5228 84.1173 93 79.6402 93 74.1173V41.0002C93 35.4774 88.5228 31.0002 83 31.0002H23C17.4772 31.0002 13 35.4774 13 41.0002V74.1173C13 79.6402 17.4772 84.1173 23 84.1173H30.6494C31.2773 84.1173 31.8688 84.4123 32.2467 84.9138L41.3319 96.9712ZM44.2056 96.5467C43.6822 97.1992 42.6143 97.134 42.1791 96.4399L42.1563 96.4037L33.0454 84.312C32.4785 83.5597 31.5913 83.1173 30.6494 83.1173H23C18.0294 83.1173 14 79.0879 14 74.1173V41.0002C14 36.0297 18.0294 32.0002 23 32.0002H83C87.9706 32.0002 92 36.0297 92 41.0002V74.1173C92 79.0879 87.9706 83.1173 83 83.1173H56.0855C55.158 83.1173 54.2826 83.5464 53.7144 84.2794L44.2089 96.5426C44.2078 96.544 44.2067 96.5454 44.2056 96.5467Z" fill="#333333"/>
<path fill-rule="evenodd" clip-rule="evenodd" d="M46 53C46 52.4477 46.4477 52 47 52L78 52C78.5523 52 79 52.4477 79 53C79 53.5523 78.5523 54 78 54L47 54C46.4477 54 46 53.5523 46 53Z" fill="white"/>
<path fill-rule="evenodd" clip-rule="evenodd" d="M46 62C46 61.4477 46.4477 61 47 61L57 61C57.5523 61 58 61.4477 58 62C58 62.5523 57.5523 63 57 63L47 63C46.4477 63 46 62.5523 46 62Z" fill="white"/>
<path fill-rule="evenodd" clip-rule="evenodd" d="M138 67C138 61.4772 133.523 57 128 57H74C68.4771 57 64 61.4772 64 67V96.1531C64 101.676 68.4771 106.153 74 106.153H98.0722C98.6907 106.153 99.2743 106.439 99.6531 106.928L108.408 118.227C109.283 119.328 111.046 119.239 111.793 118.048L120.152 106.95C120.53 106.448 121.121 106.153 121.749 106.153H128C133.523 106.153 138 101.676 138 96.1531V67Z" fill="#9ADAF3"/>
<path fill-rule="evenodd" clip-rule="evenodd" d="M111.793 118.048C111.046 119.239 109.283 119.328 108.408 118.227L99.6531 106.928C99.2743 106.439 98.6907 106.153 98.0722 106.153H74C68.4771 106.153 64 101.676 64 96.1531V67C64 61.4772 68.4771 57 74 57H128C133.523 57 138 61.4772 138 67V96.1531C138 101.676 133.523 106.153 128 106.153H121.749C121.121 106.153 120.53 106.448 120.152 106.95L111.793 118.048ZM109.194 117.609C109.646 118.172 110.571 118.115 110.946 117.517L110.968 117.48L119.353 106.348C119.92 105.596 120.807 105.153 121.749 105.153H128C132.971 105.153 137 101.124 137 96.1531V67C137 62.0294 132.971 58 128 58H74C69.0294 58 65 62.0294 65 67V96.1531C65 101.124 69.0294 105.153 74 105.153H98.0722C98.9999 105.153 99.8754 105.582 100.444 106.316L109.194 117.609Z" fill="#333333"/>
<path fill-rule="evenodd" clip-rule="evenodd" d="M105 78C105 78.5523 104.552 79 104 79H78C77.4477 79 77 78.5523 77 78C77 77.4477 77.4477 77 78 77H104C104.552 77 105 77.4477 105 78Z" fill="white"/>
<path fill-rule="evenodd" clip-rule="evenodd" d="M92 86C92 86.5523 91.5523 87 91 87H78C77.4477 87 77 86.5523 77 86C77 85.4477 77.4477 85 78 85H91C91.5523 85 92 85.4477 92 86Z" fill="white"/>
<path d="M43 57.5C43 64.9558 36.9558 71 29.5 71C22.0442 71 16 64.9558 16 57.5C16 50.0442 22.0442 44 29.5 44C36.9558 44 43 50.0442 43 57.5Z" fill="white"/>
<path fill-rule="evenodd" clip-rule="evenodd" d="M29.5 70C36.4036 70 42 64.4036 42 57.5C42 50.5964 36.4036 45 29.5 45C22.5964 45 17 50.5964 17 57.5C17 64.4036 22.5964 70 29.5 70ZM29.5 71C36.9558 71 43 64.9558 43 57.5C43 50.0442 36.9558 44 29.5 44C22.0442 44 16 50.0442 16 57.5C16 64.9558 22.0442 71 29.5 71Z" fill="#333333"/>
<path d="M29.7286 63.7724L30.165 64.0165C30.3496 63.6864 30.5398 63.3868 30.7347 63.0813C30.7418 63.0702 30.7488 63.0591 30.7559 63.048C30.9422 62.7561 31.1338 62.4559 31.3153 62.1338L31.3153 62.1338L31.3166 62.1315C31.319 62.1272 31.3215 62.1226 31.3241 62.1179C31.3568 62.0596 31.406 61.9714 31.441 61.8701C31.4833 61.7475 31.5 61.6246 31.5 61.488V61.0001V59.3344V58V57L30.7 57.6C30.3461 57.8655 30.0446 57.875 29.5 57.875C28.9872 57.875 28.607 57.8149 28.287 57.5906L27.5 57.0388V58V61.0183V61.488C27.5 61.6191 27.5138 61.7401 27.5542 61.863C27.5892 61.9697 27.6397 62.0602 27.6743 62.1223C27.6761 62.1254 27.6778 62.1285 27.6794 62.1315L27.6794 62.1315L27.6807 62.1338C27.8603 62.4524 28.0506 62.7484 28.2352 63.0355C28.2449 63.0506 28.2545 63.0656 28.2642 63.0807C28.4599 63.3852 28.6504 63.6838 28.8342 64.015L28.8347 64.0159C28.8806 64.0984 28.9468 64.2117 29.0329 64.3013C29.1098 64.3812 29.2744 64.5107 29.5 64.5004C29.7256 64.5107 29.8902 64.3812 29.9671 64.3013C30.0532 64.2117 30.1194 64.0984 30.1653 64.0159L29.7286 63.7724ZM29.7286 63.7724C29.6364 63.9379 29.5722 64.018 29.5 63.9966C29.4278 64.018 29.3636 63.9379 29.2714 63.7724C29.07 63.4096 28.8621 63.0861 28.6579 62.7685C28.4716 62.4787 28.2885 62.1938 28.1163 61.8883C28.0391 61.7495 28 61.6769 28 61.488V61.0183V58.5814C27.9031 58.5324 27.8072 58.4755 27.713 58.4094L28 58H28.5V58.2478C28.815 58.35 29.1508 58.375 29.5 58.375C29.8575 58.375 30.1789 58.375 30.5 58.267V58H31L31.3 58.4C31.1992 58.4756 31.0991 58.5392 31 58.5926V59.3344V61.0001V61.488C31 61.6722 30.957 61.7494 30.883 61.8824L30.8797 61.8883C30.705 62.1982 30.5201 62.4881 30.332 62.7828C30.1314 63.0972 29.9273 63.417 29.7286 63.7724Z" fill="white" stroke="#333333"/>
<circle cx="29.5" cy="53.5" r="5.5" fill="white" stroke="#333333"/>
<path fill-rule="evenodd" clip-rule="evenodd" d="M31.5 51C32.5509 52.7458 33 53.5 34.9665 53.9197C35.3298 50.833 32.6889 48 29.4935 48C26.195 48 23.7097 50.886 24.0274 54C25.6856 53.9799 30.1898 53.495 31.5 51Z" fill="#AAAAAA" stroke="#333333"/>
<path d="M29.5478 64.5547L29.5225 64.5822L29.5105 64.5998C29.1462 64.0816 28.691 63.5958 28.269 63.1477L28.2398 63.1167C27.8599 62.7134 27.5102 62.3423 27.2309 61.9743V61V60.3974L26.6387 60.5086C24.2155 60.9634 22.2423 62.0182 20.6759 63.3514L20.312 63.6612L20.605 64.0387C22.7162 66.7592 25.9192 68.5 29.5178 68.5C33.0943 68.5 36.2823 66.775 38.3933 64.0862L38.6885 63.7102L38.3261 63.3984C36.7823 62.0704 35.0344 60.9827 32.5953 60.5092L32.0249 60.3984L32.0004 60.979L31.9602 61.9346L29.5478 64.5547Z" fill="url(#paint1_linear_125_10597)" stroke="#333333"/>
<path d="M135 83.5C135 90.9558 128.956 97 121.5 97C114.044 97 108 90.9558 108 83.5C108 76.0442 114.044 70 121.5 70C128.956 70 135 76.0442 135 83.5Z" fill="white"/>
<path fill-rule="evenodd" clip-rule="evenodd" d="M121.5 96C128.404 96 134 90.4036 134 83.5C134 76.5964 128.404 71 121.5 71C114.596 71 109 76.5964 109 83.5C109 90.4036 114.596 96 121.5 96ZM121.5 97C128.956 97 135 90.9558 135 83.5C135 76.0442 128.956 70 121.5 70C114.044 70 108 76.0442 108 83.5C108 90.9558 114.044 97 121.5 97Z" fill="#333333"/>
<path d="M121.729 89.7724L122.165 90.0165C122.35 89.6864 122.54 89.3868 122.735 89.0813C122.742 89.0702 122.749 89.0591 122.756 89.048C122.942 88.7561 123.134 88.4559 123.315 88.1338L123.315 88.1338L123.317 88.1315C123.319 88.1272 123.321 88.1226 123.324 88.1179C123.357 88.0596 123.406 87.9714 123.441 87.8701C123.483 87.7475 123.5 87.6246 123.5 87.488V87.0001V85.3344V84V83L122.7 83.6C122.346 83.8655 122.045 83.875 121.5 83.875C120.987 83.875 120.607 83.8149 120.287 83.5906L119.5 83.0388V84V87.0183V87.488C119.5 87.6191 119.514 87.7401 119.554 87.863C119.589 87.9697 119.64 88.0602 119.674 88.1223C119.676 88.1254 119.678 88.1285 119.679 88.1315L119.679 88.1315L119.681 88.1338C119.86 88.4524 120.051 88.7484 120.235 89.0355C120.245 89.0506 120.255 89.0656 120.264 89.0807C120.46 89.3852 120.65 89.6838 120.834 90.015L120.835 90.0159C120.881 90.0984 120.947 90.2117 121.033 90.3013C121.11 90.3812 121.274 90.5107 121.5 90.5004C121.726 90.5107 121.89 90.3812 121.967 90.3013C122.053 90.2117 122.119 90.0984 122.165 90.0159L121.729 89.7724ZM121.729 89.7724C121.636 89.9379 121.572 90.018 121.5 89.9966C121.428 90.018 121.364 89.9379 121.271 89.7724C121.07 89.4096 120.862 89.0861 120.658 88.7685C120.472 88.4787 120.289 88.1938 120.116 87.8883C120.039 87.7495 120 87.6769 120 87.488V87.0183V84.5814C119.903 84.5324 119.807 84.4755 119.713 84.4094L120 84H120.5V84.2478C120.815 84.35 121.151 84.375 121.5 84.375C121.858 84.375 122.179 84.375 122.5 84.267V84H123L123.3 84.4C123.199 84.4756 123.099 84.5392 123 84.5926V85.3344V87.0001V87.488C123 87.6722 122.957 87.7494 122.883 87.8824L122.88 87.8883C122.705 88.1982 122.52 88.4881 122.332 88.7828C122.131 89.0972 121.927 89.417 121.729 89.7724Z" fill="white" stroke="#333333"/>
<circle cx="121.5" cy="79.5" r="5.5" fill="white" stroke="#333333"/>
<path fill-rule="evenodd" clip-rule="evenodd" d="M119.5 77C118.449 78.7458 118 79.5 116.034 79.9197C115.67 76.833 118.311 74 121.506 74C124.805 74 127.29 76.886 126.973 80C125.314 79.9799 120.81 79.495 119.5 77Z" fill="#AAAAAA" stroke="#333333"/>
<path d="M121.548 90.5547L121.522 90.5822L121.511 90.5998C121.146 90.0816 120.691 89.5958 120.269 89.1477L120.24 89.1167C119.86 88.7134 119.51 88.3423 119.231 87.9743V87V86.3974L118.639 86.5086C116.216 86.9634 114.242 88.0182 112.676 89.3514L112.312 89.6612L112.605 90.0387C114.716 92.7592 117.919 94.5 121.518 94.5C125.094 94.5 128.282 92.775 130.393 90.0862L130.689 89.7102L130.326 89.3984C128.782 88.0704 127.034 86.9827 124.595 86.5092L124.025 86.3984L124 86.979L123.96 87.9346L121.548 90.5547Z" fill="#BDECFF" stroke="#333333"/>
</g>
<defs>
<linearGradient id="paint0_linear_125_10597" x1="13.0002" y1="28.3831" x2="78.5199" y2="109.672" gradientUnits="userSpaceOnUse">
<stop stop-color="#FFC671"/>
<stop offset="0.59375" stop-color="#FF7541"/>
<stop offset="1" stop-color="#FF6F3D"/>
</linearGradient>
<linearGradient id="paint1_linear_125_10597" x1="21" y1="60.7266" x2="25.7985" y2="72.8353" gradientUnits="userSpaceOnUse">
<stop stop-color="#FF8E3D"/>
<stop offset="1" stop-color="#FF6F3D"/>
</linearGradient>
<clipPath id="clip0_125_10597">
<rect width="150" height="150" fill="white"/>
</clipPath>
</defs>
</svg>
