<svg width="16" height="16" viewBox="0 0 16 16" fill="none" xmlns="http://www.w3.org/2000/svg">
<g clip-path="url(#clip0_1_7011)">
<path d="M11.3702 5.50024H11.3702C11.6973 5.50024 11.9844 5.6625 12.1782 5.85442C12.3727 6.04711 12.5396 6.33554 12.5396 6.67037V12.3323C12.5396 12.6702 12.3748 12.9597 12.1763 13.1542C11.9792 13.3473 11.6923 13.5025 11.3702 13.5025C11.3702 13.5025 11.3702 13.5025 11.3702 13.5025L7.05507 13.5026H7.05506C7.04255 13.5026 7.02683 13.5038 7.00973 13.5069C6.99265 13.51 6.97734 13.5144 6.96498 13.5192C6.95853 13.5217 6.95375 13.5239 6.95049 13.5256L6.93751 13.5425L6.91032 13.5686L5.32611 15.0899C5.06009 15.4065 4.65939 15.5632 4.27225 15.4774C3.84531 15.3828 3.54933 15.0176 3.52999 14.5435L3.52988 14.5404C3.52407 14.3717 3.52421 13.9802 3.52554 13.6434C3.52573 13.5954 3.52595 13.5483 3.52618 13.5026H1.70435C1.37726 13.5026 1.09011 13.3403 0.896348 13.1484C0.701812 12.9557 0.534984 12.6673 0.534984 12.3325V6.61648C0.534984 6.01887 0.994157 5.50039 1.61797 5.50039L11.3702 5.50024Z" fill="#BDECFF" stroke="#333333"/>
<path fill-rule="evenodd" clip-rule="evenodd" d="M2.50879 10.488C2.50879 10.2198 2.71191 10.0002 2.98275 10.0002H7.0574C7.30566 10.0002 7.50879 10.2198 7.50879 10.488C7.50879 10.7563 7.30566 11.0002 7.0574 11.0002H2.98275C2.73448 10.9759 2.50879 10.7563 2.50879 10.488Z" fill="#333333"/>
<path d="M4.67523 0.499756H4.67523C4.34814 0.499756 4.06099 0.662012 3.86722 0.853933C3.67269 1.04662 3.50586 1.33505 3.50586 1.66989V7.33184C3.50586 7.66974 3.67062 7.95921 3.86915 8.15374C4.06617 8.34679 4.35308 8.50196 4.67521 8.50197C4.67521 8.50197 4.67522 8.50197 4.67523 8.50197L8.99034 8.50211H8.99035C9.00286 8.50211 9.01858 8.50334 9.03568 8.50644C9.05276 8.50953 9.06807 8.51392 9.08043 8.51868C9.08688 8.52116 9.09166 8.52341 9.09492 8.52511L9.1079 8.54201L9.13509 8.56812L10.7193 10.0894C10.9853 10.406 11.386 10.5627 11.7732 10.4769C12.2001 10.3823 12.4961 10.0171 12.5154 9.54302L12.5155 9.53987C12.5213 9.37125 12.5212 8.97969 12.5199 8.64286C12.5197 8.59493 12.5195 8.54777 12.5192 8.50211H14.3411C14.6681 8.50211 14.9553 8.33986 15.1491 8.14794C15.3436 7.95525 15.5104 7.66682 15.5104 7.33198V1.61599C15.5104 1.01838 15.0513 0.4999 14.4274 0.4999L4.67523 0.499756Z" fill="url(#paint0_linear_1_7011)" stroke="#333333"/>
<path fill-rule="evenodd" clip-rule="evenodd" d="M5.99707 3.48805C5.99707 3.21976 6.2002 3.00024 6.47103 3.00024H9.00835H12.5457C12.7939 3.00024 12.9971 3.21976 12.9971 3.48805C12.9971 3.75634 12.7939 4.00024 12.5457 4.00024H6.47103C6.22276 3.97585 5.99707 3.75634 5.99707 3.48805Z" fill="white"/>
<path fill-rule="evenodd" clip-rule="evenodd" d="M5.99707 5.48805C5.99707 5.21976 6.2002 5.00024 6.47103 5.00024H10.5457C10.7939 5.00024 10.9971 5.21976 10.9971 5.48805C10.9971 5.75634 10.7939 6.00024 10.5457 6.00024H6.47103C6.22276 5.97585 5.99707 5.75634 5.99707 5.48805Z" fill="white"/>
</g>
<defs>
<linearGradient id="paint0_linear_1_7011" x1="4.00588" y1="0.648188" x2="12.7606" y2="11.7708" gradientUnits="userSpaceOnUse">
<stop stop-color="#FF8E3D"/>
<stop offset="1" stop-color="#FF6F3D"/>
</linearGradient>
<clipPath id="clip0_1_7011">
<rect width="16" height="16" fill="white"/>
</clipPath>
</defs>
</svg>
