<svg width="32" height="32" viewBox="0 0 32 32" fill="none" xmlns="http://www.w3.org/2000/svg">
<g clip-path="url(#clip0_125_5545)">
<path d="M12.3306 16.5H12.3306C12.6577 16.5 12.9449 16.6623 13.1386 16.8542C13.3332 17.0469 13.5 17.3353 13.5 17.6701V23.3321C13.5 23.67 13.3352 23.9595 13.1367 24.154C12.9397 24.347 12.6528 24.5022 12.3307 24.5022C12.3306 24.5022 12.3306 24.5022 12.3306 24.5022L9.01553 24.5024H9.01551C9.003 24.5024 8.98728 24.5036 8.97018 24.5067C8.9531 24.5098 8.93779 24.5142 8.92543 24.5189C8.91897 24.5214 8.9142 24.5237 8.91094 24.5254L8.89796 24.5423L8.87077 24.5684L7.28657 26.0896C7.02055 26.4062 6.61984 26.563 6.2327 26.4772C5.80576 26.3825 5.50978 26.0174 5.49045 25.5433L5.49044 25.5433L5.49033 25.5401C5.48452 25.3715 5.48466 24.9799 5.48599 24.6431C5.48618 24.5952 5.4864 24.548 5.48663 24.5024H2.6648C2.33771 24.5024 2.05056 24.3401 1.8568 24.1482C1.66226 23.9555 1.49543 23.6671 1.49543 23.3322V17.6162C1.49543 17.0186 1.95461 16.5001 2.57842 16.5001L12.3306 16.5Z" fill="#BDECFF" stroke="#333333"/>
<path d="M20.6743 12.5H20.6743C20.3472 12.5 20.0601 12.6623 19.8663 12.8542C19.6718 13.0469 19.505 13.3353 19.505 13.6701V18.3321C19.505 18.67 19.6697 18.9595 19.8682 19.154C20.0653 19.347 20.3522 19.5022 20.6743 19.5022C20.6743 19.5022 20.6743 19.5022 20.6743 19.5022L23.9894 19.5024H23.9895C24.002 19.5024 24.0177 19.5036 24.0348 19.5067C24.0519 19.5098 24.0672 19.5142 24.0795 19.5189C24.086 19.5214 24.0908 19.5237 24.094 19.5254L24.107 19.5423L24.1342 19.5684L25.7184 21.0896C25.9844 21.4062 26.3851 21.563 26.7723 21.4772C27.1992 21.3825 27.4952 21.0174 27.5145 20.5433L27.5145 20.5433L27.5146 20.5401C27.5204 20.3715 27.5203 19.9799 27.519 19.6431C27.5188 19.5952 27.5186 19.548 27.5183 19.5024H30.3402C30.6672 19.5024 30.9544 19.3401 31.1482 19.1482C31.3427 18.9555 31.5095 18.6671 31.5095 18.3322V13.6162C31.5095 13.0186 31.0504 12.5001 30.4265 12.5001L20.6743 12.5Z" fill="white" stroke="#333333"/>
<path fill-rule="evenodd" clip-rule="evenodd" d="M22.9956 15.4878C22.9956 15.2195 23.1987 15 23.4696 15H26.0069H29.5442C29.7925 15 29.9956 15.2195 29.9956 15.4878C29.9956 15.7561 29.7925 16 29.5442 16H23.4696C23.2213 15.9756 22.9956 15.7561 22.9956 15.4878Z" fill="#333333"/>
<path fill-rule="evenodd" clip-rule="evenodd" d="M21.9956 17.4878C21.9956 17.2195 22.1987 17 22.4696 17H26.5442C26.7925 17 26.9956 17.2195 26.9956 17.4878C26.9956 17.7561 26.7925 18 26.5442 18H22.4696C22.2213 17.9756 21.9956 17.7561 21.9956 17.4878Z" fill="#333333"/>
<path d="M17.5074 17.5033H21.9916C22.3996 17.5033 22.7704 17.2992 23.0276 17.0444C23.2856 16.7889 23.4956 16.4167 23.4956 15.9981V8.92413C23.4956 8.15359 22.9069 7.5 22.1211 7.5H7.99965C7.5916 7.5 7.22077 7.70414 6.96358 7.95889C6.70562 8.2144 6.49561 8.5866 6.49561 9.0052V15.9981C6.49561 16.4225 6.70355 16.7957 6.96551 17.0524C7.22596 17.3076 7.59655 17.5033 7.99965 17.5033H12.4655C12.6423 17.5033 12.7753 17.5766 12.8056 17.616L12.8286 17.6459L12.8558 17.672L15.242 19.9635C15.5885 20.3827 16.103 20.5784 16.5856 20.4715C17.107 20.3559 17.4786 19.911 17.5033 19.3045L17.5034 19.3013C17.5119 19.0544 17.5118 18.4727 17.5098 17.9654C17.5091 17.801 17.5083 17.6426 17.5074 17.5033Z" fill="url(#paint0_linear_125_5545)" stroke="#333333"/>
<path fill-rule="evenodd" clip-rule="evenodd" d="M10 11.4878C10 11.2195 10.2031 11 10.474 11H15.0113H19.5486C19.7969 11 20 11.2195 20 11.4878C20 11.7561 19.7969 12 19.5486 12H10.474C10.2257 11.9756 10 11.7561 10 11.4878Z" fill="white"/>
<path fill-rule="evenodd" clip-rule="evenodd" d="M4 19.4878C4 19.2195 4.20313 19 4.47396 19H7.01128H10.5486C10.7969 19 11 19.2195 11 19.4878C11 19.7561 10.7969 20 10.5486 20H4.47396C4.22569 19.9756 4 19.7561 4 19.4878Z" fill="#333333"/>
<path fill-rule="evenodd" clip-rule="evenodd" d="M10 13.4878C10 13.2195 10.2031 13 10.474 13H16.5486C16.7969 13 17 13.2195 17 13.4878C17 13.7561 16.7969 14 16.5486 14H10.474C10.2257 13.9756 10 13.7561 10 13.4878Z" fill="white"/>
<path fill-rule="evenodd" clip-rule="evenodd" d="M4 21.4878C4 21.2195 4.20313 21 4.47396 21H8.54861C8.79687 21 9 21.2195 9 21.4878C9 21.7561 8.79687 22 8.54861 22H4.47396C4.22569 21.9756 4 21.7561 4 21.4878Z" fill="#333333"/>
</g>
<defs>
<linearGradient id="paint0_linear_125_5545" x1="6.13488" y1="3.18284" x2="16.3744" y2="14.4484" gradientUnits="userSpaceOnUse">
<stop stop-color="#FFC671"/>
<stop offset="1" stop-color="#FF6F3D"/>
</linearGradient>
<clipPath id="clip0_125_5545">
<rect width="32" height="32" fill="white"/>
</clipPath>
</defs>
</svg>
