<svg version="1.1" xmlns="http://www.w3.org/2000/svg" width="32" height="32" viewBox="0 0 32 32">
<path fill="#83888d" d="M26 21.020v-3.020c0.88-0.426 1.574-1.12 1.99-1.974l0.010-0.026v-6c-0.522-2.076-2.208-3.648-4.308-3.996l-0.032-0.004h-1.34c-0.498 0.028-0.954 0.174-1.354 0.408l0.014-0.008v8.6c-0.084 1.14-0.834 2.086-1.86 2.454l-0.020 0.006c0.24 0.25 0.544 0.438 0.886 0.536l0.014 0.004v2c2.24 1.020 7 4 7 5.14v2.86h5v-2c0-1.68-6-4.98-6-4.98z"></path>
<path fill="#83888d" d="M18 20v-3c0.918-0.37 1.63-1.082 1.992-1.976l0.008-0.024v-6c0-2-2-5-4-5h-4c-2 0-4 3-4 5v6c0.37 0.918 1.082 1.63 1.976 1.992l0.024 0.008v3s-8 4-8 6v2h24v-2c0-2-8-6-8-6z"></path>
</svg>
