<svg xmlns="http://www.w3.org/2000/svg" width="16" height="16" viewBox="0 0 16 16">
  <path fill="#83888d" d="M15,9V7H12.9a4.85,4.85,0,0,0-.73-1.75l1.49-1.49L12.24,2.34,10.75,3.83A4.85,4.85,0,0,0,9,3.1V1H7V3.1a4.85,4.85,0,0,0-1.75.73L3.76,2.34,2.34,3.76,3.83,5.25A4.85,4.85,0,0,0,3.1,7H1V9H3.1a4.85,4.85,0,0,0,.73,1.75L2.34,12.24l1.42,1.42,1.49-1.49A4.85,4.85,0,0,0,7,12.9V15H9V12.9a4.85,4.85,0,0,0,1.75-.73l1.49,1.49,1.42-1.42-1.49-1.49A4.85,4.85,0,0,0,12.9,9ZM8,11a3,3,0,1,1,3-3A3,3,0,0,1,8,11Z"/>
</svg>
