<svg width="170" height="56" viewBox="0 0 170 56" fill="none" xmlns="http://www.w3.org/2000/svg">
<path d="M43.2102 28.3584C43.2241 27.3235 43.512 26.3088 44.0469 25.4087C44.5818 24.5086 45.3464 23.7523 46.2695 23.2103C45.6831 22.4103 44.9094 21.752 44.01 21.2876C43.1105 20.8232 42.1101 20.5655 41.0881 20.5349C38.9081 20.3164 36.7946 21.7808 35.6837 21.7808C34.5513 21.7808 32.8409 20.5566 30.9991 20.5928C29.8078 20.6296 28.6467 20.9605 27.6291 21.5532C26.6114 22.146 25.7719 22.9804 25.1923 23.9751C22.6815 28.1269 24.5543 34.2285 26.9594 37.5844C28.1627 39.2277 29.5691 41.0634 31.4092 40.9983C33.2099 40.9269 33.8825 39.9016 36.0561 39.9016C38.2095 39.9016 38.8405 40.9983 40.718 40.9569C42.6502 40.9269 43.8677 39.3063 45.0288 37.6474C45.8933 36.4765 46.5586 35.1824 47 33.813C45.8774 33.3595 44.9194 32.6005 44.2455 31.6305C43.5716 30.6605 43.2115 29.5225 43.2102 28.3584V28.3584Z" fill="white"/>
<path d="M39.6638 18.328C40.7174 17.1201 41.2364 15.5675 41.1107 14C39.5012 14.1615 38.0144 14.8962 36.9466 16.0578C36.4245 16.6252 36.0247 17.2854 35.7699 18.0005C35.5151 18.7157 35.4104 19.4718 35.4618 20.2256C36.2669 20.2335 37.0633 20.0668 37.7912 19.7381C38.5191 19.4095 39.1594 18.9273 39.6638 18.328Z" fill="white"/>
<path d="M65.0749 35.6802H59.6203L58.3104 39.5481H56L61.1665 25.238H63.5669L68.7334 39.5481H66.3836L65.0749 35.6802ZM60.1852 33.8954H64.5089L62.3774 27.6182H62.3178L60.1852 33.8954Z" fill="white"/>
<path d="M79.8914 34.3326C79.8914 37.5748 78.1561 39.6578 75.5374 39.6578C74.874 39.6925 74.2143 39.5397 73.6337 39.2169C73.0532 38.8941 72.5753 38.4143 72.2547 37.8325H72.2051V43.0001H70.0636V29.1155H72.1365V30.8508H72.1759C72.5112 30.2718 72.9972 29.7945 73.5822 29.4697C74.1671 29.1449 74.8292 28.9848 75.498 29.0063C78.1459 29.0063 79.8914 31.0995 79.8914 34.3326ZM77.6902 34.3326C77.6902 32.2204 76.5986 30.8317 74.933 30.8317C73.2968 30.8317 72.1962 32.2496 72.1962 34.3326C72.1962 36.4348 73.2968 37.8426 74.933 37.8426C76.5986 37.8426 77.6902 36.4641 77.6902 34.3326Z" fill="white"/>
<path d="M91.3743 34.3326C91.3743 37.5748 89.639 39.6578 87.0203 39.6578C86.3569 39.6925 85.6972 39.5397 85.1166 39.2169C84.5361 38.894 84.0582 38.4143 83.7376 37.8325H83.6881V43.0001H81.5465V29.1155H83.6194V30.8508H83.6588C83.9941 30.2717 84.4801 29.7945 85.065 29.4697C85.65 29.1449 86.3121 28.9847 86.9808 29.0063C89.6288 29.0063 91.3743 31.0995 91.3743 34.3326ZM89.1731 34.3326C89.1731 32.2203 88.0815 30.8316 86.4159 30.8316C84.7797 30.8316 83.6791 32.2496 83.6791 34.3326C83.6791 36.4348 84.7797 37.8426 86.4159 37.8426C88.0815 37.8426 89.1731 36.464 89.1731 34.3326H89.1731Z" fill="white"/>
<path d="M98.9637 35.5615C99.1224 36.9806 100.501 37.9123 102.385 37.9123C104.19 37.9123 105.489 36.9805 105.489 35.701C105.489 34.5903 104.705 33.9252 102.851 33.4694L100.996 33.0227C98.3684 32.388 97.1485 31.1591 97.1485 29.1649C97.1485 26.6959 99.3002 25 102.356 25C105.379 25 107.452 26.6959 107.522 29.1649H105.36C105.231 27.7369 104.05 26.8748 102.325 26.8748C100.6 26.8748 99.4195 27.747 99.4195 29.0164C99.4195 30.0281 100.173 30.6234 102.018 31.0791L103.595 31.4663C106.531 32.1606 107.75 33.34 107.75 35.4331C107.75 38.1103 105.618 39.7871 102.226 39.7871C99.0526 39.7871 96.9099 38.1497 96.7715 35.5614L98.9637 35.5615Z" fill="white"/>
<path d="M112.372 26.6462V29.1153H114.356V30.8112H112.372V36.5629C112.372 37.4564 112.77 37.8728 113.642 37.8728C113.877 37.8687 114.112 37.8521 114.346 37.8232V39.509C113.954 39.5823 113.555 39.6155 113.157 39.608C111.044 39.608 110.221 38.8147 110.221 36.7913V30.8112H108.704V29.1153H110.221V26.6462H112.372Z" fill="white"/>
<path d="M115.505 34.3325C115.505 31.0498 117.439 28.9871 120.454 28.9871C123.479 28.9871 125.403 31.0498 125.403 34.3325C125.403 37.6242 123.489 39.6779 120.454 39.6779C117.42 39.6779 115.505 37.6242 115.505 34.3325ZM123.221 34.3325C123.221 32.0807 122.189 30.7516 120.454 30.7516C118.718 30.7516 117.687 32.0908 117.687 34.3325C117.687 36.5933 118.718 37.9123 120.454 37.9123C122.189 37.9123 123.221 36.5933 123.221 34.3325Z" fill="white"/>
<path d="M127.168 29.1156H129.211V30.8914H129.261C129.399 30.3368 129.724 29.8467 130.181 29.5034C130.638 29.1601 131.199 28.9846 131.77 29.0065C132.017 29.0056 132.263 29.0324 132.504 29.0864V31.0895C132.192 30.9943 131.867 30.9506 131.542 30.9601C131.23 30.9475 130.92 31.0023 130.632 31.1209C130.344 31.2394 130.086 31.4189 129.874 31.6469C129.662 31.875 129.501 32.1462 129.404 32.442C129.307 32.7378 129.275 33.0511 129.31 33.3604V39.5488H127.168L127.168 29.1156Z" fill="white"/>
<path d="M142.378 36.4842C142.09 38.3781 140.245 39.6779 137.885 39.6779C134.85 39.6779 132.966 37.6444 132.966 34.382C132.966 31.1095 134.86 28.9871 137.795 28.9871C140.682 28.9871 142.497 30.9699 142.497 34.1333V34.867H135.128V34.9965C135.094 35.3804 135.142 35.7672 135.269 36.1312C135.396 36.4952 135.599 36.8279 135.865 37.1074C136.13 37.3869 136.452 37.6068 136.809 37.7523C137.166 37.8979 137.55 37.9658 137.935 37.9516C138.441 37.999 138.949 37.8818 139.383 37.6174C139.817 37.353 140.154 36.9556 140.344 36.4842L142.378 36.4842ZM135.138 33.3703H140.354C140.373 33.0251 140.321 32.6796 140.201 32.3555C140.08 32.0315 139.894 31.7358 139.653 31.4872C139.413 31.2386 139.124 31.0423 138.804 30.9107C138.484 30.779 138.141 30.7149 137.795 30.7224C137.446 30.7203 137.101 30.7873 136.778 30.9195C136.455 31.0517 136.162 31.2466 135.915 31.4927C135.668 31.7389 135.472 32.0316 135.339 32.3538C135.206 32.6761 135.137 33.0216 135.138 33.3703V33.3703Z" fill="white"/>
<path d="M60.088 13.3753C60.5856 13.3396 61.085 13.4148 61.55 13.5955C62.0151 13.7761 62.4342 14.0577 62.7773 14.42C63.1203 14.7822 63.3787 15.2161 63.5338 15.6903C63.6888 16.1645 63.7367 16.6672 63.674 17.1621C63.674 19.5969 62.3581 20.9964 60.088 20.9964H57.3352V13.3753H60.088ZM58.5189 19.9186H59.9558C60.3114 19.9399 60.6672 19.8816 60.9974 19.7479C61.3276 19.6143 61.6239 19.4088 61.8646 19.1462C62.1054 18.8836 62.2846 18.5707 62.3891 18.2302C62.4937 17.8896 62.521 17.5301 62.4691 17.1777C62.5172 16.8266 62.4871 16.4693 62.381 16.1313C62.2748 15.7932 62.0952 15.4829 61.855 15.2224C61.6148 14.9619 61.32 14.7578 60.9916 14.6247C60.6633 14.4915 60.3095 14.4327 59.9558 14.4523H58.5189V19.9186Z" fill="white"/>
<path d="M65.0111 18.1181C64.975 17.7402 65.0182 17.3588 65.1381 16.9986C65.2579 16.6383 65.4517 16.3071 65.7071 16.0261C65.9625 15.7451 66.2738 15.5206 66.621 15.367C66.9682 15.2134 67.3437 15.134 67.7234 15.134C68.103 15.134 68.4785 15.2134 68.8258 15.367C69.173 15.5206 69.4842 15.7451 69.7396 16.0261C69.995 16.3071 70.1888 16.6383 70.3087 16.9986C70.4285 17.3588 70.4718 17.7402 70.4356 18.1181C70.4725 18.4965 70.4297 18.8783 70.3102 19.2392C70.1907 19.6 69.9969 19.9319 69.7415 20.2134C69.4861 20.4949 69.1746 20.7199 68.827 20.8738C68.4794 21.0278 68.1035 21.1073 67.7234 21.1073C67.3432 21.1073 66.9673 21.0278 66.6197 20.8738C66.2722 20.7199 65.9607 20.4949 65.7052 20.2134C65.4498 19.9319 65.2561 19.6 65.1365 19.2392C65.017 18.8783 64.9743 18.4965 65.0111 18.1181V18.1181ZM69.2681 18.1181C69.2681 16.8715 68.7081 16.1424 67.7252 16.1424C66.7386 16.1424 66.1836 16.8715 66.1836 18.1181C66.1836 19.3748 66.7387 20.0982 67.7252 20.0982C68.7081 20.0982 69.2681 19.3698 69.2681 18.1181H69.2681Z" fill="white"/>
<path d="M77.6461 20.9964H76.4687L75.28 16.7606H75.1902L74.0065 20.9964H72.8403L71.255 15.2451H72.4063L73.4365 19.6337H73.5214L74.7038 15.2451H75.7927L76.9751 19.6337H77.0649L78.0902 15.2451H79.2252L77.6461 20.9964Z" fill="white"/>
<path d="M80.5586 15.2451H81.6512V16.1587H81.736C81.8799 15.8306 82.1226 15.5555 82.4303 15.3718C82.7379 15.1882 83.0952 15.105 83.4523 15.1341C83.7322 15.113 84.0132 15.1552 84.2745 15.2575C84.5358 15.3598 84.7707 15.5196 84.9619 15.7251C85.1531 15.9305 85.2956 16.1763 85.3789 16.4443C85.4622 16.7123 85.4841 16.9956 85.443 17.2732V20.9963H84.308V17.5582C84.308 16.634 83.9063 16.1743 83.0669 16.1743C82.8769 16.1655 82.6872 16.1978 82.5109 16.2691C82.3346 16.3404 82.1758 16.449 82.0453 16.5875C81.9149 16.7259 81.8159 16.8909 81.7552 17.0712C81.6945 17.2514 81.6735 17.4427 81.6936 17.6318V20.9964H80.5586L80.5586 15.2451Z" fill="white"/>
<path d="M87.2516 13H88.3866V20.9964H87.2516V13Z" fill="white"/>
<path d="M89.9645 18.1182C89.9283 17.7403 89.9716 17.3589 90.0915 16.9986C90.2114 16.6383 90.4052 16.3071 90.6606 16.0261C90.916 15.7451 91.2273 15.5206 91.5746 15.367C91.9218 15.2134 92.2973 15.134 92.677 15.134C93.0567 15.134 93.4322 15.2134 93.7795 15.367C94.1267 15.5206 94.438 15.7451 94.6934 16.0261C94.9488 16.3071 95.1427 16.6383 95.2626 16.9986C95.3824 17.3589 95.4257 17.7403 95.3896 18.1182C95.4264 18.4966 95.3836 18.8785 95.264 19.2393C95.1445 19.6002 94.9507 19.932 94.6952 20.2135C94.4398 20.495 94.1283 20.72 93.7807 20.8739C93.4331 21.0279 93.0572 21.1074 92.677 21.1074C92.2969 21.1074 91.9209 21.0279 91.5734 20.8739C91.2258 20.72 90.9142 20.495 90.6588 20.2135C90.4033 19.932 90.2096 19.6002 90.09 19.2393C89.9704 18.8785 89.9277 18.4966 89.9645 18.1182V18.1182ZM94.2215 18.1182C94.2215 16.8716 93.6614 16.1425 92.6786 16.1425C91.692 16.1425 91.137 16.8716 91.137 18.1182C91.137 19.3749 91.692 20.0983 92.6786 20.0983C93.6614 20.0983 94.2215 19.3699 94.2215 18.1182H94.2215Z" fill="white"/>
<path d="M96.5845 19.3698C96.5845 18.3346 97.3553 17.7378 98.7236 17.6529L100.281 17.5631V17.0667C100.281 16.4593 99.8798 16.1163 99.104 16.1163C98.4704 16.1163 98.0313 16.3489 97.9054 16.7555H96.8065C96.9225 15.7677 97.8517 15.134 99.1564 15.134C100.598 15.134 101.412 15.8518 101.412 17.0667V20.9963H100.319V20.1881H100.229C100.047 20.478 99.7908 20.7143 99.4873 20.873C99.1838 21.0316 98.8437 21.1069 98.5016 21.0911C98.2601 21.1162 98.0161 21.0904 97.7852 21.0155C97.5544 20.9405 97.3418 20.818 97.1611 20.6558C96.9805 20.4936 96.8359 20.2954 96.7366 20.0739C96.6372 19.8524 96.5854 19.6126 96.5845 19.3698V19.3698ZM100.281 18.8784V18.3976L98.877 18.4874C98.085 18.5404 97.7257 18.8098 97.7257 19.3168C97.7257 19.8344 98.1748 20.1357 98.7922 20.1357C98.9731 20.154 99.1559 20.1357 99.3296 20.082C99.5033 20.0282 99.6644 19.94 99.8034 19.8227C99.9423 19.7054 100.056 19.5614 100.138 19.3992C100.221 19.2369 100.269 19.0598 100.281 18.8784V18.8784Z" fill="white"/>
<path d="M102.903 18.1183C102.903 16.301 103.838 15.1497 105.291 15.1497C105.65 15.1332 106.007 15.2193 106.319 15.3979C106.631 15.5766 106.886 15.8405 107.054 16.1587H107.139V13H108.274V20.9964H107.187V20.0878H107.097C106.916 20.4039 106.652 20.6645 106.334 20.8413C106.015 21.0182 105.655 21.1046 105.291 21.0912C103.828 21.0913 102.903 19.94 102.903 18.1183ZM104.076 18.1183C104.076 19.3382 104.651 20.0722 105.612 20.0722C106.569 20.0722 107.16 19.3276 107.16 18.1233C107.16 16.9246 106.563 16.1694 105.612 16.1694C104.657 16.1694 104.076 16.9084 104.076 18.1183H104.076Z" fill="white"/>
<path d="M112.97 18.1181C112.934 17.7402 112.977 17.3588 113.097 16.9986C113.217 16.6383 113.411 16.3071 113.666 16.0261C113.922 15.7451 114.233 15.5206 114.58 15.367C114.927 15.2134 115.303 15.134 115.682 15.134C116.062 15.134 116.438 15.2134 116.785 15.367C117.132 15.5206 117.443 15.7451 117.699 16.0261C117.954 16.3071 118.148 16.6383 118.268 16.9986C118.388 17.3588 118.431 17.7402 118.395 18.1181C118.432 18.4965 118.389 18.8783 118.269 19.2392C118.15 19.6 117.956 19.9319 117.701 20.2134C117.445 20.4949 117.134 20.7199 116.786 20.8738C116.439 21.0278 116.063 21.1073 115.682 21.1073C115.302 21.1073 114.926 21.0278 114.579 20.8738C114.231 20.7199 113.92 20.4949 113.664 20.2134C113.409 19.9319 113.215 19.6 113.096 19.2392C112.976 18.8783 112.933 18.4965 112.97 18.1181V18.1181ZM117.227 18.1181C117.227 16.8715 116.667 16.1424 115.684 16.1424C114.698 16.1424 114.143 16.8715 114.143 18.1181C114.143 19.3748 114.698 20.0982 115.684 20.0982C116.667 20.0982 117.227 19.3698 117.227 18.1181Z" fill="white"/>
<path d="M119.918 15.2451H121.01V16.1587H121.095C121.239 15.8306 121.482 15.5555 121.789 15.3718C122.097 15.1882 122.454 15.105 122.811 15.1341C123.091 15.113 123.372 15.1552 123.633 15.2575C123.895 15.3598 124.13 15.5196 124.321 15.7251C124.512 15.9305 124.655 16.1763 124.738 16.4443C124.821 16.7123 124.843 16.9956 124.802 17.2732V20.9963H123.667V17.5582C123.667 16.634 123.265 16.1743 122.426 16.1743C122.236 16.1655 122.046 16.1978 121.87 16.2691C121.694 16.3404 121.535 16.449 121.404 16.5875C121.274 16.7259 121.175 16.8909 121.114 17.0712C121.054 17.2514 121.033 17.4427 121.053 17.6318V20.9964H119.918V15.2451Z" fill="white"/>
<path d="M131.216 13.8132V15.2713H132.462V16.2274H131.216V19.1847C131.216 19.7872 131.464 20.051 132.029 20.051C132.174 20.0505 132.318 20.0418 132.462 20.0248V20.9702C132.258 21.0067 132.051 21.0261 131.844 21.0282C130.582 21.0282 130.079 20.5842 130.079 19.4753V16.2273H129.166V15.2713H130.079V13.8132H131.216Z" fill="white"/>
<path d="M134.012 13H135.137V16.1694H135.227C135.378 15.8382 135.627 15.5615 135.941 15.3772C136.255 15.1928 136.618 15.1097 136.981 15.1391C137.259 15.124 137.537 15.1704 137.796 15.2752C138.054 15.38 138.286 15.5405 138.475 15.7453C138.664 15.9501 138.806 16.1941 138.89 16.46C138.974 16.7258 138.998 17.0069 138.961 17.2832V20.9964H137.825V17.5632C137.825 16.6446 137.397 16.1793 136.595 16.1793C136.4 16.1633 136.204 16.1902 136.02 16.2579C135.837 16.3257 135.67 16.4328 135.532 16.5716C135.394 16.7105 135.288 16.8779 135.222 17.062C135.155 17.2461 135.13 17.4425 135.147 17.6374V20.9964H134.012L134.012 13Z" fill="white"/>
<path d="M145.579 19.4435C145.425 19.9692 145.091 20.4238 144.636 20.728C144.18 21.0322 143.632 21.1665 143.087 21.1074C142.708 21.1174 142.332 21.0448 141.984 20.8947C141.636 20.7446 141.325 20.5206 141.072 20.2381C140.819 19.9557 140.631 19.6216 140.52 19.2591C140.409 18.8966 140.379 18.5143 140.431 18.1389C140.38 17.7622 140.411 17.3791 140.522 17.0156C140.632 16.652 140.819 16.3163 141.071 16.0314C141.322 15.7465 141.632 15.5189 141.979 15.3641C142.326 15.2093 142.702 15.1309 143.082 15.1341C144.683 15.1341 145.648 16.2274 145.648 18.0334V18.4295H141.587V18.4931C141.569 18.7042 141.596 18.9166 141.665 19.1168C141.734 19.317 141.844 19.5006 141.988 19.6557C142.133 19.8108 142.308 19.9341 142.502 20.0176C142.697 20.1012 142.907 20.1431 143.119 20.1407C143.39 20.1733 143.665 20.1244 143.909 20.0003C144.152 19.8761 144.354 19.6823 144.487 19.4435L145.579 19.4435ZM141.587 17.5901H144.492C144.506 17.397 144.48 17.2031 144.415 17.0209C144.35 16.8386 144.247 16.6719 144.114 16.5316C143.981 16.3913 143.819 16.2804 143.641 16.2061C143.462 16.1318 143.27 16.0957 143.076 16.1002C142.88 16.0977 142.685 16.1346 142.503 16.2086C142.321 16.2826 142.156 16.3922 142.017 16.5311C141.879 16.6699 141.769 16.8352 141.695 17.017C141.621 17.1989 141.584 17.3937 141.587 17.5901H141.587Z" fill="white"/>
<rect x="0.5" y="0.5" width="169" height="55" rx="2.5" stroke="white"/>
</svg>
