<svg width="100" height="100" viewBox="0 0 100 100" fill="none" xmlns="http://www.w3.org/2000/svg">
<path d="M9.53674e-07 55.5329C9.53674e-07 73.6718 20.7444 94 48.9426 94C77.1408 94 100 94.1016 100 64.9115C100 51.2125 93.6556 47.3981 82.1752 40.205C75.4072 35.9645 78.9273 29.8971 76.1329 21.4405C74.5627 16.6886 67.1707 8.16751 48.9426 7.05446C28.3988 5.80002 9.53674e-07 26.3428 9.53674e-07 55.5329Z" fill="#F1F9FF"/>
<g clip-path="url(#clip0)">
<path d="M39.7 67.6193H59.642V79.5845H39.7V67.6193Z" fill="#4EC4F9"/>
<path d="M63.6309 81.5789H35.7112C34.6105 81.5789 33.7172 80.6856 33.7172 79.5845C33.7172 78.4838 34.6105 77.5905 35.7112 77.5905H63.6309C64.7316 77.5905 65.6249 78.4838 65.6249 79.5845C65.6249 80.6856 64.7316 81.5789 63.6309 81.5789V81.5789Z" fill="#7DD5FD"/>
<path d="M81.5789 21.7516C81.5789 19.5478 79.7942 17.7632 77.5905 17.7632H21.7515C19.5478 17.7632 17.7632 19.5478 17.7632 21.7516V61.6365H81.5789V21.7516Z" fill="#83A7C5"/>
<path d="M17.7632 59.642V67.6193C17.7632 69.823 19.5478 71.6077 21.7515 71.6077H77.5905C79.7942 71.6077 81.5789 69.823 81.5789 67.6193V59.642H17.7632Z" fill="#7DD5FD"/>
<path d="M34.8855 47.6768L26.9088 39.7001L34.8855 31.7228C35.6635 30.9453 36.9277 30.9453 37.7056 31.7228C38.4835 32.5007 38.4835 33.7649 37.7056 34.5428L32.5484 39.7001L37.7056 44.8568C38.4835 45.6347 38.4835 46.8989 37.7056 47.6768C36.9277 48.4548 35.6635 48.4548 34.8855 47.6768Z" fill="white"/>
<path d="M61.6365 47.6768C60.8585 46.8989 60.8585 45.6347 61.6365 44.8568L66.7937 39.7001L61.6365 34.5428C60.8585 33.7649 60.8585 32.5007 61.6365 31.7228C62.4144 30.9453 63.6786 30.9453 64.4565 31.7228L72.4333 39.7001L64.4565 47.6768C63.6786 48.4548 62.4144 48.4548 61.6365 47.6768V47.6768Z" fill="white"/>
<path d="M45.6824 47.6768C44.6975 47.1844 44.2966 45.9856 44.7891 45.0007L50.9831 32.6142C51.4759 31.6293 52.6743 31.2304 53.6596 31.7228C54.6445 32.2157 55.0434 33.414 54.551 34.3969L48.357 46.7835C47.866 47.7707 46.6677 48.1692 45.6824 47.6768V47.6768Z" fill="white"/>
<path d="M47.6768 65.6046C47.6768 64.5146 48.5605 63.6309 49.6505 63.6309V63.6309C50.7406 63.6309 51.6242 64.5146 51.6242 65.6046V65.6046C51.6242 66.6946 50.7406 67.5783 49.6505 67.5783V67.5783C48.5605 67.5783 47.6768 66.6946 47.6768 65.6046V65.6046Z" fill="white"/>
</g>
<defs>
<clipPath id="clip0">
<rect width="63.8158" height="63.8158" fill="white" transform="translate(17.7632 17.7632)"/>
</clipPath>
</defs>
</svg>
