<svg width="100" height="100" viewBox="0 0 100 100" fill="none" xmlns="http://www.w3.org/2000/svg">
<path d="M38 72H62V87H38V72Z" fill="#EFEFEF"/>
<path fill-rule="evenodd" clip-rule="evenodd" d="M61 73H39V86H61V73ZM38 72V87H62V72H38Z" fill="#333333"/>
<path d="M66.5612 89H32.4371C31.0918 89 30 87.8801 30 86.4997C30 85.1199 31.0918 84 32.4371 84H66.5612C67.9064 84 68.9982 85.1199 68.9982 86.4997C68.9982 87.8801 67.9064 89 66.5612 89Z" fill="#EFEFEF"/>
<path fill-rule="evenodd" clip-rule="evenodd" d="M66.5612 90H32.4371C30.5156 90 29 88.4082 29 86.4997C29 84.5917 30.5158 83 32.4371 83H66.5612C68.4825 83 69.9982 84.5917 69.9982 86.4997C69.9982 88.4082 68.4826 90 66.5612 90ZM32.4371 89H66.5612C67.9064 89 68.9982 87.8801 68.9982 86.4997C68.9982 85.1199 67.9064 84 66.5612 84H32.4371C31.0918 84 30 85.1199 30 86.4997C30 87.8801 31.0918 89 32.4371 89Z" fill="#333333"/>
<path d="M94 14.909C94 12.1966 91.539 10 88.5001 10H11.4999C8.46104 10 6 12.1966 6 14.909V64H94V14.909Z" fill="white"/>
<path fill-rule="evenodd" clip-rule="evenodd" d="M93 14.909C93 12.8818 91.1151 11.0189 88.5001 11.0189H11.4999C8.8849 11.0189 7 12.8818 7 14.909V62.9811H93V14.909ZM94 14.909C94 12.1966 91.539 10 88.5001 10H11.4999C8.46104 10 6 12.1966 6 14.909V64H94V14.909Z" fill="#333333"/>
<path d="M6 63V73.0002C6 75.7627 8.46104 78 11.4999 78H88.5001C91.539 78 94 75.7627 94 73.0002V63H6Z" fill="#CCE9FF"/>
<path fill-rule="evenodd" clip-rule="evenodd" d="M7 64V73.0002C7 75.1229 8.92149 77 11.4999 77H88.5001C91.0785 77 93 75.1229 93 73.0002V64H7ZM6 73.0002C6 75.7627 8.46104 78 11.4999 78H88.5001C91.539 78 94 75.7627 94 73.0002V63H6V73.0002Z" fill="#333333"/>
<path fill-rule="evenodd" clip-rule="evenodd" d="M64.7181 48.2843C63.7611 47.3301 63.7611 45.7795 64.7181 44.8253L71.0623 38.5001L64.7181 32.1743C63.7611 31.2201 63.7611 29.6694 64.7181 28.7152C65.6751 27.7616 67.2302 27.7616 68.1872 28.7152L78 38.5001L68.1872 48.2843C67.2302 49.2385 65.6751 49.2385 64.7181 48.2843ZM31.8128 48.2843L22 38.5001L31.8128 28.7152C32.7698 27.7616 34.3249 27.7616 35.2819 28.7152C36.2389 29.6695 36.2389 31.2201 35.2819 32.1743L28.9377 38.5001L35.2819 44.8253C36.2389 45.7795 36.2389 47.3301 35.2819 48.2843C34.3249 49.2386 32.7698 49.2386 31.8128 48.2843ZM43.9973 45.0021C43.3916 46.21 43.8847 47.6805 45.0962 48.2845C46.3083 48.8885 47.7825 48.3997 48.3865 47.1888L56.0061 31.9956C56.6119 30.7899 56.1211 29.32 54.9096 28.7154C53.6975 28.1115 52.2233 28.6008 51.617 29.8088L43.9973 45.0021Z" fill="url(#paint0_linear)"/>
<path d="M47.5 70.5C47.5 69.1193 48.6193 68 50 68C51.3807 68 52.5 69.1193 52.5 70.5C52.5 71.8807 51.3807 73 50 73C48.6193 73 47.5 71.8807 47.5 70.5Z" fill="#333333"/>
<defs>
<linearGradient id="paint0_linear" x1="22.0001" y1="27.1797" x2="35.421" y2="64.3669" gradientUnits="userSpaceOnUse">
<stop stop-color="#FFC671"/>
<stop offset="0.59375" stop-color="#FF7541"/>
<stop offset="1" stop-color="#FF6F3D"/>
</linearGradient>
</defs>
</svg>
