<svg width="16" height="110" viewBox="0 0 16 110" fill="none" xmlns="http://www.w3.org/2000/svg">
<path d="M13.1429 42H2.85714C2.62981 42 2.4118 42.0973 2.25105 42.2704C2.09031 42.4435 2 42.6783 2 42.9231V50.3077C2 50.5525 2.09031 50.7873 2.25105 50.9604C2.4118 51.1335 2.62981 51.2308 2.85714 51.2308H4.57143V54L8 51.2308H13.1429C13.3702 51.2308 13.5882 51.1335 13.7489 50.9604C13.9097 50.7873 14 50.5525 14 50.3077V42.9231C14 42.6783 13.9097 42.4435 13.7489 42.2704C13.5882 42.0973 13.3702 42 13.1429 42V42Z" fill="#BDBDBD"/>
<path d="M10.3077 33.0769H5.69231V34H10.3077V33.0769Z" fill="#BDBDBD"/>
<path d="M2.92308 22C2.41328 22 2 22.4133 2 22.9231V29.3846H14V22.9231C14 22.4133 13.5867 22 13.0769 22H2.92308Z" fill="#BDBDBD"/>
<path d="M14 30.3077H2V31.2308C2 31.7406 2.41328 32.1538 2.92308 32.1538H13.0769C13.5867 32.1538 14 31.7406 14 31.2308V30.3077Z" fill="#BDBDBD"/>
<rect x="3" y="12" width="9" height="2" fill="#BDBDBD"/>
<path d="M9 6.09091V2H6V6.09091H3L7.5 11L12 6.09091H9Z" fill="#BDBDBD"/>
<path d="M9.94 101.94L8 100L4.97 103.02L1.94 100L0 101.94L3.02 104.97L0 108L1.94 109.94L4.97 106.92L8 109.94L9.94 108L6.92 104.97L9.94 101.94Z" fill="#BDBDBD"/>
<path d="M11.889 62.1797C10.7378 61.4105 9.38447 61 8 61L8 63C8.32595 63 8.65266 63.0319 8.97545 63.0961C9.94535 63.289 10.8363 63.7652 11.5355 64.4645C12.2348 65.1637 12.711 66.0546 12.9039 67.0245C13.0968 67.9945 12.9978 68.9998 12.6194 69.9134C12.241 70.827 11.6001 71.6079 10.7778 72.1573C9.9556 72.7068 8.9889 73 8 73C7.34339 73 6.69321 72.8707 6.08658 72.6194C5.47995 72.3681 4.92876 71.9998 4.46446 71.5355C4.00017 71.0712 3.63187 70.52 3.3806 69.9134C3.12933 69.3068 3 68.6566 3 68H1V67.9937C0.999998 67.9958 1 67.9979 1 68C1 69.3845 1.41054 70.7378 2.17971 71.889C2.94888 73.0401 4.04213 73.9373 5.32121 74.4672C6.6003 74.997 8.00776 75.1356 9.36563 74.8655C10.7235 74.5954 11.9708 73.9287 12.9497 72.9497C13.9287 71.9708 14.5954 70.7235 14.8655 69.3656C15.1356 68.0078 14.997 66.6003 14.4672 65.3212C13.9373 64.0421 13.0401 62.9489 11.889 62.1797Z" fill="#BDBDBD"/>
<path d="M3.17971 62.0961L2.17971 63.0961L8 69L9 68L3.17971 62.0961Z" fill="#BDBDBD"/>
<path d="M4 70L10 70L10 64L4 70Z" fill="#BDBDBD"/>
<path d="M4.11101 82.1797C5.26216 81.4105 6.61553 81 8 81L8 83C7.67405 83 7.34734 83.0319 7.02455 83.0961C6.05465 83.289 5.16373 83.7652 4.46447 84.4645C3.76521 85.1637 3.289 86.0546 3.09608 87.0245C2.90315 87.9945 3.00217 88.9998 3.38061 89.9134C3.75904 90.827 4.39991 91.6079 5.22215 92.1573C6.0444 92.7068 7.0111 93 8 93C8.65661 93 9.30679 92.8707 9.91342 92.6194C10.52 92.3681 11.0712 91.9998 11.5355 91.5355C11.9998 91.0712 12.3681 90.52 12.6194 89.9134C12.8707 89.3068 13 88.6566 13 88H15V87.9937C15 87.9958 15 87.9979 15 88C15 89.3845 14.5895 90.7378 13.8203 91.889C13.0511 93.0401 11.9579 93.9373 10.6788 94.4672C9.3997 94.997 7.99224 95.1356 6.63437 94.8655C5.2765 94.5954 4.02922 93.9287 3.05026 92.9497C2.07129 91.9708 1.4046 90.7235 1.13451 89.3656C0.86441 88.0078 1.00303 86.6003 1.53285 85.3212C2.06266 84.0421 2.95987 82.9489 4.11101 82.1797Z" fill="#BDBDBD"/>
<path d="M12 83L13 84L8 89L7 88L12 83Z" fill="#BDBDBD"/>
<path d="M9 81H15V87L9 81Z" fill="#BDBDBD"/>
</svg>
