<svg width="284" height="46" viewBox="0 0 284 46" fill="none" xmlns="http://www.w3.org/2000/svg">
<path fill-rule="evenodd" clip-rule="evenodd" d="M21.7532 45.436L1.30633 35.9616C-0.435443 35.1345 -0.435443 33.8562 1.30633 33.1042L8.42487 29.7957L21.6775 35.9616C23.4193 36.7887 26.2212 36.7887 27.8873 35.9616L41.1399 29.7957L48.2584 33.1042C50.0002 33.9314 50.0002 35.2097 48.2584 35.9616L27.8116 45.436C26.2212 46.188 23.4193 46.188 21.7532 45.436Z" fill="#FF6F3D"/>
<path fill-rule="evenodd" clip-rule="evenodd" d="M21.7532 33.781L1.30633 24.3065C-0.435443 23.4794 -0.435443 22.2011 1.30633 21.4492L8.27341 18.2158L21.7532 24.4569C23.495 25.2841 26.297 25.2841 27.963 24.4569L41.4428 18.2158L48.4099 21.4492C50.1517 22.2763 50.1517 23.5546 48.4099 24.3065L27.963 33.781C26.2212 34.6081 23.4193 34.6081 21.7532 33.781Z" fill="#95C038"/>
<path fill-rule="evenodd" clip-rule="evenodd" d="M21.7532 22.4266L1.30633 12.9522C-0.435443 12.125 -0.435443 10.8467 1.30633 10.0948L21.7532 0.62035C23.495 -0.206783 26.297 -0.206783 27.963 0.62035L48.4099 10.0948C50.1517 10.9219 50.1517 12.2002 48.4099 12.9522L27.963 22.4266C26.2212 23.1785 23.4193 23.1785 21.7532 22.4266Z" fill="#5DC0E8"/>
<g opacity="0.9">
<path d="M74.1845 9.09998C67.63 9.09998 61.1892 13.0495 61.1892 22.6955C61.1892 32.3415 67.63 36.291 74.1845 36.291C80.7389 36.291 87.1797 32.3415 87.1797 22.6955C87.1797 13.0495 80.7389 9.09998 74.1845 9.09998ZM74.1845 12.8976C76.1925 12.8976 81.4967 13.6951 81.4967 22.6955C81.4967 31.6959 76.1925 32.4934 74.1845 32.4934C72.1765 32.4934 66.8723 31.6959 66.8723 22.6955C66.8723 13.6951 72.1765 12.8976 74.1845 12.8976Z" fill="white"/>
<path d="M91.5506 9.40378V35.9872H96.9306V20.341L96.8169 15.6319H96.9306L98.2566 18.594L107.501 35.9872H114.472V9.40378H109.092V25.05L109.206 29.7591H109.092L107.691 26.1513L98.5219 9.40378H91.5506Z" fill="white"/>
<path d="M119.781 9.40378V35.9872H135.693V31.506H125.161V9.40378H119.781Z" fill="white"/>
<path d="M131.147 9.40378L140.922 25.126V35.9872H146.302V25.2019L155.849 9.40378H150.166L144.673 18.7459L143.763 20.5688H143.65L142.816 18.7459L137.361 9.40378H131.147Z" fill="white"/>
<path d="M168.384 9.09998C161.83 9.09998 155.389 13.0495 155.389 22.6955C155.389 32.3415 161.83 36.291 168.384 36.291C174.939 36.291 181.379 32.3415 181.379 22.6955C181.379 13.0495 174.939 9.09998 168.384 9.09998ZM168.384 12.8976C170.392 12.8976 175.696 13.6951 175.696 22.6955C175.696 31.6959 170.392 32.4934 168.384 32.4934C166.376 32.4934 161.072 31.6959 161.072 22.6955C161.072 13.6951 166.376 12.8976 168.384 12.8976Z" fill="white"/>
<path d="M185.75 9.40378V35.9872H191.13V24.7082H200.147V20.341H191.13V13.885H200.602V9.40378H185.75Z" fill="white"/>
<path d="M204.398 9.40378V35.9872H209.778V24.7082H218.795V20.341H209.778V13.885H219.249V9.40378H204.398Z" fill="white"/>
<path d="M223.045 35.9872H228.425V9.40378H223.045V35.9872Z" fill="white"/>
<path d="M253.098 30.6325C251.772 31.2401 249.916 31.8098 247.567 31.8098C242.793 31.8098 238.474 29.1894 238.474 22.7714C238.474 17.3408 241.997 13.5812 247.946 13.5812C249.954 13.5812 251.659 13.9609 253.212 14.5686L253.439 10.0114C251.431 9.36581 249.651 9.09998 247.567 9.09998C239.232 9.09998 232.791 13.6951 232.791 22.8474C232.791 32.5313 239.989 36.291 246.582 36.291C248.703 36.291 251.09 35.9492 253.439 35.1517L253.098 30.6325Z" fill="white"/>
<path d="M257.602 9.40378V35.9872H273.439V31.2781H262.982V24.4804H272.492V20.1131H262.982V14.1128H273.439V9.40378H257.602Z" fill="white"/>
</g>
</svg>
