<svg width="142" height="23" viewBox="0 0 142 23" fill="none" xmlns="http://www.w3.org/2000/svg">
<path fill-rule="evenodd" clip-rule="evenodd" d="M10.8766 22.718L0.653164 17.9808C-0.217721 17.5672 -0.217721 16.9281 0.653164 16.5521L4.21244 14.8979L10.8387 17.9808C11.7096 18.3944 13.1106 18.3944 13.9436 17.9808L20.5699 14.8979L24.1292 16.5521C25.0001 16.9657 25.0001 17.6048 24.1292 17.9808L13.9058 22.718C13.1106 23.094 11.7096 23.094 10.8766 22.718Z" fill="#FF6F3D"/>
<path fill-rule="evenodd" clip-rule="evenodd" d="M10.8766 16.8905L0.653164 12.1533C-0.217721 11.7397 -0.217721 11.1005 0.653164 10.7246L4.13671 9.1079L10.8766 12.2285C11.7475 12.642 13.1485 12.642 13.9815 12.2285L20.7214 9.1079L24.2049 10.7246C25.0758 11.1381 25.0758 11.7773 24.2049 12.1533L13.9815 16.8905C13.1106 17.304 11.7096 17.304 10.8766 16.8905Z" fill="#95C038"/>
<path fill-rule="evenodd" clip-rule="evenodd" d="M10.8766 11.2133L0.653164 6.47608C-0.217721 6.06251 -0.217721 5.42336 0.653164 5.04739L10.8766 0.310175C11.7475 -0.103392 13.1485 -0.103392 13.9815 0.310175L24.2049 5.04739C25.0758 5.46096 25.0758 6.10011 24.2049 6.47608L13.9815 11.2133C13.1106 11.5893 11.7096 11.5893 10.8766 11.2133Z" fill="#5DC0E8"/>
<g opacity="0.9">
<path d="M37.0922 4.55C33.815 4.55 30.5946 6.52477 30.5946 11.3478C30.5946 16.1707 33.815 18.1455 37.0922 18.1455C40.3695 18.1455 43.5899 16.1707 43.5899 11.3478C43.5899 6.52477 40.3695 4.55 37.0922 4.55ZM37.0922 6.44882C38.0962 6.44882 40.7483 6.84757 40.7483 11.3478C40.7483 15.8479 38.0962 16.2467 37.0922 16.2467C36.0882 16.2467 33.4361 15.8479 33.4361 11.3478C33.4361 6.84757 36.0882 6.44882 37.0922 6.44882Z" fill="white"/>
<path d="M45.7753 4.70191V17.9936H48.4653V10.1705L48.4085 7.81596H48.4653L49.1283 9.29704L53.7505 17.9936H57.2361V4.70191H54.5462V12.525L54.603 14.8796H54.5462L53.8453 13.0757L49.2609 4.70191H45.7753Z" fill="white"/>
<path d="M59.8905 4.70191V17.9936H67.8467V15.753H62.5804V4.70191H59.8905Z" fill="white"/>
<path d="M65.5735 4.70191L70.4609 12.563V17.9936H73.1509V12.601L77.9247 4.70191H75.0832L72.3364 9.37299L71.8817 10.2844H71.8249L71.4081 9.37299L68.6803 4.70191H65.5735Z" fill="white"/>
<path d="M84.192 4.55C80.9148 4.55 77.6944 6.52477 77.6944 11.3478C77.6944 16.1707 80.9148 18.1455 84.192 18.1455C87.4693 18.1455 90.6897 16.1707 90.6897 11.3478C90.6897 6.52477 87.4693 4.55 84.192 4.55ZM84.192 6.44882C85.196 6.44882 87.8481 6.84757 87.8481 11.3478C87.8481 15.8479 85.196 16.2467 84.192 16.2467C83.188 16.2467 80.5359 15.8479 80.5359 11.3478C80.5359 6.84757 83.188 6.44882 84.192 6.44882Z" fill="white"/>
<path d="M92.8751 4.70191V17.9936H95.5651V12.3541H100.074V10.1705H95.5651V6.94251H100.301V4.70191H92.8751Z" fill="white"/>
<path d="M102.199 4.70191V17.9936H104.889V12.3541H109.397V10.1705H104.889V6.94251H109.625V4.70191H102.199Z" fill="white"/>
<path d="M111.523 17.9936H114.213V4.70191H111.523V17.9936Z" fill="white"/>
<path d="M126.549 15.3163C125.886 15.6201 124.958 15.9049 123.783 15.9049C121.397 15.9049 119.237 14.5947 119.237 11.3857C119.237 8.67043 120.999 6.7906 123.973 6.7906C124.977 6.7906 125.829 6.98048 126.606 7.2843L126.72 5.00572C125.716 4.68292 124.825 4.55 123.783 4.55C119.616 4.55 116.395 6.84757 116.395 11.4237C116.395 16.2657 119.995 18.1455 123.291 18.1455C124.352 18.1455 125.545 17.9746 126.72 17.5759L126.549 15.3163Z" fill="white"/>
<path d="M128.801 4.70191V17.9936H136.72V15.6391H131.491V12.2402H136.246V10.0566H131.491V7.05644H136.72V4.70191H128.801Z" fill="white"/>
</g>
</svg>
