<svg width="32" height="32" viewBox="0 0 32 32" fill="none" xmlns="http://www.w3.org/2000/svg">
<path d="M25.1544 11.2624C24.1342 11.2624 23.3088 12.0899 23.3088 13.1113V19.6647C23.3088 20.1554 23.5032 20.626 23.8494 20.973C24.1955 21.32 24.6649 21.5149 25.1544 21.5149C25.6439 21.5149 26.1133 21.32 26.4594 20.973C26.8056 20.626 27 20.1554 27 19.6647V13.1113C27 12.0899 26.1746 11.2624 25.1544 11.2624V11.2624ZM6.8456 11.2624C5.8254 11.2624 5 12.0899 5 13.1113V19.6647C5 20.1554 5.19445 20.626 5.54056 20.973C5.88668 21.32 6.35612 21.5149 6.8456 21.5149C7.33508 21.5149 7.80452 21.32 8.15063 20.973C8.49675 20.626 8.6912 20.1554 8.6912 19.6647V13.1113C8.69139 12.8683 8.64377 12.6277 8.55107 12.4032C8.45837 12.1787 8.32241 11.9747 8.15097 11.803C7.97953 11.6313 7.77599 11.4951 7.55199 11.4024C7.328 11.3096 7.08795 11.262 6.8456 11.2624V11.2624ZM19.6724 5.75207L20.7807 3.7441C20.8131 3.68693 20.8338 3.62388 20.8417 3.55861C20.8496 3.49334 20.8444 3.42715 20.8266 3.36389C20.8087 3.30063 20.7785 3.24155 20.7377 3.1901C20.6968 3.13864 20.6462 3.09584 20.5887 3.06416C20.5314 3.03177 20.4683 3.01112 20.403 3.00341C20.3376 2.9957 20.2714 3.00109 20.2082 3.01926C20.1449 3.03743 20.0859 3.06803 20.0346 3.10926C19.9832 3.1505 19.9406 3.20156 19.9091 3.25946L18.7706 5.31373C17.9221 4.97376 16.987 4.78136 16 4.78136C15.013 4.78136 14.0779 4.97232 13.2294 5.31228L12.0909 3.26091C12.0594 3.203 12.0168 3.15195 11.9654 3.11071C11.9141 3.06947 11.8551 3.03888 11.7918 3.02071C11.7286 3.00254 11.6624 2.99715 11.5971 3.00486C11.5317 3.01257 11.4686 3.03322 11.4113 3.06561C11.3541 3.09757 11.3037 3.14052 11.2631 3.19201C11.2225 3.2435 11.1924 3.30251 11.1746 3.36567C11.1568 3.42882 11.1516 3.49489 11.1592 3.56007C11.1669 3.62526 11.1873 3.68828 11.2193 3.74554L12.3276 5.75352C10.3319 6.89349 8.99856 8.93184 8.99856 11.2624C8.99856 11.2783 8.99856 11.2928 9.00144 11.3116C8.99856 11.3203 8.99856 11.3304 8.99856 11.3391V11.3405H23V11.3391V11.3116V11.2624C23.0014 8.93184 21.6681 6.89494 19.6724 5.75207V5.75207ZM12.7677 8.59911C12.702 8.59863 12.6371 8.5852 12.5766 8.55957C12.5161 8.53394 12.4613 8.49662 12.4152 8.44973C12.3221 8.35505 12.2703 8.22717 12.2713 8.09422C12.2722 7.96128 12.3258 7.83416 12.4203 7.74083C12.5147 7.6475 12.6423 7.59561 12.7749 7.59657C12.9075 7.59753 13.0343 7.65126 13.1274 7.74595C13.2205 7.84063 13.2722 7.96851 13.2713 8.10146C13.2703 8.2344 13.2167 8.36152 13.1223 8.45485C13.0278 8.54818 12.9003 8.60007 12.7677 8.59911ZM19.2323 8.59911C19.1065 8.58951 18.9889 8.53261 18.9031 8.4398C18.8173 8.34698 18.7696 8.22511 18.7696 8.09856C18.7696 7.97202 18.8173 7.85014 18.9031 7.75733C18.9889 7.66452 19.1065 7.60762 19.2323 7.59802C19.3647 7.59802 19.4917 7.65075 19.5854 7.74462C19.679 7.83849 19.7316 7.96581 19.7316 8.09856C19.7316 8.23132 19.679 8.35863 19.5854 8.4525C19.4917 8.54637 19.3647 8.59911 19.2323 8.59911V8.59911ZM8.99856 21.9822C8.99856 22.9168 9.75613 23.6763 10.6926 23.6763H11.5382V27.1497C11.5382 27.6404 11.7327 28.1111 12.0788 28.4581C12.4249 28.8051 12.8944 29 13.3838 29C13.8733 29 14.3428 28.8051 14.6889 28.4581C15.035 28.1111 15.2294 27.6404 15.2294 27.1497V23.6763H16.7677V27.1497C16.7677 28.1725 17.5931 28.9986 18.6104 28.9986C19.6335 28.9986 20.4589 28.1725 20.4589 27.1497V23.6763H21.3045C22.2395 23.6763 22.9986 22.9182 22.9986 21.9822V11.7225H8.99856V21.9822Z" fill="#9BD71C"/>
</svg>
