<svg width="32" height="33" viewBox="0 0 32 33" fill="none" xmlns="http://www.w3.org/2000/svg">
<path d="M25.1544 11.7624C24.1342 11.7624 23.3088 12.5899 23.3088 13.6113V20.1647C23.3088 20.6554 23.5032 21.126 23.8494 21.473C24.1955 21.82 24.6649 22.0149 25.1544 22.0149C25.6439 22.0149 26.1133 21.82 26.4594 21.473C26.8056 21.126 27 20.6554 27 20.1647V13.6113C27 12.5899 26.1746 11.7624 25.1544 11.7624ZM6.8456 11.7624C5.8254 11.7624 5 12.5899 5 13.6113V20.1647C5 20.6554 5.19445 21.126 5.54056 21.473C5.88668 21.82 6.35612 22.0149 6.8456 22.0149C7.33508 22.0149 7.80452 21.82 8.15063 21.473C8.49675 21.126 8.6912 20.6554 8.6912 20.1647V13.6113C8.69139 13.3683 8.64377 13.1277 8.55107 12.9032C8.45837 12.6787 8.32241 12.4747 8.15097 12.303C7.97953 12.1313 7.77599 11.9951 7.55199 11.9024C7.328 11.8096 7.08795 11.762 6.8456 11.7624ZM19.6724 6.25207L20.7807 4.2441C20.8131 4.18693 20.8338 4.12388 20.8417 4.05861C20.8496 3.99334 20.8444 3.92715 20.8266 3.86389C20.8087 3.80063 20.7785 3.74155 20.7377 3.6901C20.6968 3.63864 20.6462 3.59584 20.5887 3.56416C20.5314 3.53177 20.4683 3.51112 20.403 3.50341C20.3376 3.4957 20.2714 3.50109 20.2082 3.51926C20.1449 3.53743 20.0859 3.56803 20.0346 3.60926C19.9832 3.6505 19.9406 3.70156 19.9091 3.75946L18.7706 5.81373C17.9221 5.47376 16.987 5.28136 16 5.28136C15.013 5.28136 14.0779 5.47232 13.2294 5.81228L12.0909 3.76091C12.0594 3.703 12.0168 3.65195 11.9654 3.61071C11.9141 3.56947 11.8551 3.53888 11.7918 3.52071C11.7286 3.50254 11.6624 3.49715 11.5971 3.50486C11.5317 3.51257 11.4686 3.53322 11.4113 3.56561C11.3541 3.59757 11.3037 3.64052 11.2631 3.69201C11.2225 3.7435 11.1924 3.80251 11.1746 3.86567C11.1568 3.92882 11.1516 3.99489 11.1592 4.06007C11.1669 4.12526 11.1873 4.18828 11.2193 4.24554L12.3276 6.25352C10.3319 7.39349 8.99856 9.43184 8.99856 11.7624C8.99856 11.7783 8.99856 11.7928 9.00144 11.8116C8.99856 11.8203 8.99856 11.8304 8.99856 11.8391V11.8405H23V11.8391V11.8116V11.7624C23.0014 9.43184 21.6681 7.39494 19.6724 6.25207ZM12.7677 9.09911C12.702 9.09863 12.6371 9.0852 12.5766 9.05957C12.5161 9.03394 12.4613 8.99662 12.4152 8.94973C12.3221 8.85505 12.2703 8.72717 12.2713 8.59422C12.2722 8.46128 12.3258 8.33416 12.4203 8.24083C12.5147 8.1475 12.6423 8.09561 12.7749 8.09657C12.9075 8.09753 13.0343 8.15126 13.1274 8.24595C13.2205 8.34063 13.2722 8.46851 13.2713 8.60146C13.2703 8.7344 13.2167 8.86152 13.1223 8.95485C13.0278 9.04818 12.9003 9.10007 12.7677 9.09911ZM19.2323 9.09911C19.1065 9.08951 18.9889 9.03261 18.9031 8.9398C18.8173 8.84698 18.7696 8.72511 18.7696 8.59856C18.7696 8.47202 18.8173 8.35014 18.9031 8.25733C18.9889 8.16452 19.1065 8.10762 19.2323 8.09802C19.3647 8.09802 19.4917 8.15075 19.5854 8.24462C19.679 8.33849 19.7316 8.46581 19.7316 8.59856C19.7316 8.73132 19.679 8.85863 19.5854 8.9525C19.4917 9.04637 19.3647 9.09911 19.2323 9.09911ZM8.99856 22.4822C8.99856 23.4168 9.75613 24.1763 10.6926 24.1763H11.5382V27.6497C11.5382 28.1404 11.7327 28.6111 12.0788 28.9581C12.4249 29.3051 12.8944 29.5 13.3838 29.5C13.8733 29.5 14.3428 29.3051 14.6889 28.9581C15.035 28.6111 15.2294 28.1404 15.2294 27.6497V24.1763H16.7677V27.6497C16.7677 28.6725 17.5931 29.4986 18.6104 29.4986C19.6335 29.4986 20.4589 28.6725 20.4589 27.6497V24.1763H21.3045C22.2395 24.1763 22.9986 23.4182 22.9986 22.4822V12.2225H8.99856V22.4822Z" fill="#CDD0D2"/>
</svg>
