<svg width="32" height="32" viewBox="0 0 32 32" fill="none" xmlns="http://www.w3.org/2000/svg">
<path d="M2.78663 22.4H4.99996V13.0133H2.78663V22.4ZM3.89329 11.7867C4.05311 11.7902 4.21202 11.7618 4.36071 11.7031C4.50939 11.6444 4.64484 11.5565 4.75911 11.4448C4.87338 11.333 4.96417 11.1995 5.02613 11.0521C5.0881 10.9048 5.12 10.7465 5.11996 10.5867C5.11996 9.92 4.58663 9.38666 3.89329 9.38666C3.73348 9.38311 3.57456 9.41153 3.42588 9.47024C3.2772 9.52895 3.14174 9.61678 3.02747 9.72857C2.9132 9.84035 2.82242 9.97384 2.76045 10.1212C2.69849 10.2686 2.66659 10.4268 2.66663 10.5867C2.66663 11.2533 3.19996 11.7867 3.89329 11.7867ZM12.3333 9.41333C8.61329 9.41333 6.26663 11.9467 6.26663 16C6.26663 20.08 8.61329 22.6133 12.3333 22.6133C16.0533 22.6133 18.4 20.08 18.4 16C18.4 11.9467 16.0533 9.41333 12.3333 9.41333ZM12.3333 11.3333C14.6133 11.3333 16.0666 13.16 16.0666 16C16.0666 18.8667 14.6133 20.6667 12.3333 20.6667C10.0533 20.6667 8.61329 18.8667 8.61329 16C8.61329 13.16 10.0533 11.3333 12.3333 11.3333ZM19.3333 18.8133C19.4266 21.16 21.3333 22.6133 24.2933 22.6133C27.3866 22.6133 29.3333 21.0933 29.3333 18.6667C29.3333 16.76 28.24 15.6933 25.64 15.0933L24.1733 14.76C22.6 14.3867 21.96 13.8933 21.96 13.04C21.96 12 22.9333 11.2667 24.3733 11.2667C25.84 11.2667 26.84 12 26.9466 13.1867H29.12C29.0666 10.9333 27.2133 9.41333 24.3866 9.41333C21.6133 9.41333 19.64 10.9467 19.64 13.2133C19.64 15.04 20.7466 16.1733 23.1066 16.7067L24.76 17.0933C26.3733 17.48 27.0266 18 27.0266 18.9333C27.0266 20 25.96 20.76 24.4133 20.76C22.8666 20.76 21.68 20 21.5466 18.8133H19.3333Z" fill="url(#paint0_linear)"/>
<defs>
<linearGradient id="paint0_linear" x1="5.5" y1="10" x2="26.5" y2="23" gradientUnits="userSpaceOnUse">
<stop stop-color="#009688"/>
<stop offset="0.138984" stop-color="#03A9F4"/>
<stop offset="0.283761" stop-color="#3F51B5"/>
<stop offset="0.429821" stop-color="#9C27B0"/>
<stop offset="0.57304" stop-color="#E91E63"/>
<stop offset="0.698208" stop-color="#F44336"/>
<stop offset="0.846467" stop-color="#FF5722"/>
<stop offset="1" stop-color="#FFC107"/>
</linearGradient>
</defs>
</svg>
