<svg width="32" height="33" viewBox="0 0 32 33" fill="none" xmlns="http://www.w3.org/2000/svg">
<path d="M2.78675 22.9001H5.00008V13.5134H2.78675V22.9001ZM3.89341 12.2868C4.05323 12.2903 4.21214 12.2619 4.36083 12.2032C4.50951 12.1445 4.64496 12.0566 4.75923 11.9449C4.8735 11.8331 4.96429 11.6996 5.02625 11.5522C5.08822 11.4049 5.12012 11.2466 5.12008 11.0868C5.12008 10.4201 4.58675 9.88677 3.89341 9.88677C3.7336 9.88322 3.57468 9.91164 3.426 9.97035C3.27732 10.0291 3.14186 10.1169 3.02759 10.2287C2.91332 10.3405 2.82254 10.474 2.76057 10.6213C2.69861 10.7687 2.66671 10.9269 2.66675 11.0868C2.66675 11.7534 3.20008 12.2868 3.89341 12.2868ZM12.3334 9.91344C8.61341 9.91344 6.26675 12.4468 6.26675 16.5001C6.26675 20.5801 8.61341 23.1134 12.3334 23.1134C16.0534 23.1134 18.4001 20.5801 18.4001 16.5001C18.4001 12.4468 16.0534 9.91344 12.3334 9.91344ZM12.3334 11.8334C14.6134 11.8334 16.0667 13.6601 16.0667 16.5001C16.0667 19.3668 14.6134 21.1668 12.3334 21.1668C10.0534 21.1668 8.61341 19.3668 8.61341 16.5001C8.61341 13.6601 10.0534 11.8334 12.3334 11.8334ZM19.3334 19.3134C19.4267 21.6601 21.3334 23.1134 24.2934 23.1134C27.3867 23.1134 29.3334 21.5934 29.3334 19.1668C29.3334 17.2601 28.2401 16.1934 25.6401 15.5934L24.1734 15.2601C22.6001 14.8868 21.9601 14.3934 21.9601 13.5401C21.9601 12.5001 22.9334 11.7668 24.3734 11.7668C25.8401 11.7668 26.8401 12.5001 26.9467 13.6868H29.1201C29.0667 11.4334 27.2134 9.91344 24.3867 9.91344C21.6134 9.91344 19.6401 11.4468 19.6401 13.7134C19.6401 15.5401 20.7467 16.6734 23.1067 17.2068L24.7601 17.5934C26.3734 17.9801 27.0267 18.5001 27.0267 19.4334C27.0267 20.5001 25.9601 21.2601 24.4134 21.2601C22.8667 21.2601 21.6801 20.5001 21.5467 19.3134H19.3334Z" fill="#CDCFD1"/>
</svg>
