<svg width="32" height="33" viewBox="0 0 32 33" fill="none" xmlns="http://www.w3.org/2000/svg">
<path d="M2.78663 22.9001H4.99996V13.5134H2.78663V22.9001ZM3.89329 12.2868C4.05311 12.2903 4.21202 12.2619 4.36071 12.2032C4.50939 12.1445 4.64484 12.0566 4.75911 11.9449C4.87338 11.8331 4.96417 11.6996 5.02613 11.5522C5.0881 11.4049 5.12 11.2466 5.11996 11.0868C5.11996 10.4201 4.58663 9.88677 3.89329 9.88677C3.73348 9.88322 3.57456 9.91164 3.42588 9.97035C3.2772 10.0291 3.14174 10.1169 3.02747 10.2287C2.9132 10.3405 2.82242 10.474 2.76045 10.6213C2.69849 10.7687 2.66659 10.9269 2.66663 11.0868C2.66663 11.7534 3.19996 12.2868 3.89329 12.2868ZM12.3333 9.91344C8.61329 9.91344 6.26663 12.4468 6.26663 16.5001C6.26663 20.5801 8.61329 23.1134 12.3333 23.1134C16.0533 23.1134 18.4 20.5801 18.4 16.5001C18.4 12.4468 16.0533 9.91344 12.3333 9.91344ZM12.3333 11.8334C14.6133 11.8334 16.0666 13.6601 16.0666 16.5001C16.0666 19.3668 14.6133 21.1668 12.3333 21.1668C10.0533 21.1668 8.61329 19.3668 8.61329 16.5001C8.61329 13.6601 10.0533 11.8334 12.3333 11.8334ZM19.3333 19.3134C19.4266 21.6601 21.3333 23.1134 24.2933 23.1134C27.3866 23.1134 29.3333 21.5934 29.3333 19.1668C29.3333 17.2601 28.24 16.1934 25.64 15.5934L24.1733 15.2601C22.6 14.8868 21.96 14.3934 21.96 13.5401C21.96 12.5001 22.9333 11.7668 24.3733 11.7668C25.84 11.7668 26.84 12.5001 26.9466 13.6868H29.12C29.0666 11.4334 27.2133 9.91344 24.3866 9.91344C21.6133 9.91344 19.64 11.4468 19.64 13.7134C19.64 15.5401 20.7466 16.6734 23.1066 17.2068L24.76 17.5934C26.3733 17.9801 27.0266 18.5001 27.0266 19.4334C27.0266 20.5001 25.96 21.2601 24.4133 21.2601C22.8666 21.2601 21.68 20.5001 21.5466 19.3134H19.3333Z" fill="#CDD0D2"/>
</svg>
