<svg width="32" height="33" viewBox="0 0 32 33" fill="none" xmlns="http://www.w3.org/2000/svg">
<path fill-rule="evenodd" clip-rule="evenodd" d="M16.5613 3C17.7021 3.00176 18.5897 3.29729 19.2621 3.81896C19.9304 4.33741 20.3413 5.04452 20.5946 5.79304C21.0525 7.14631 21.0264 8.74661 21.0079 9.87552C21.0063 9.97275 21.0048 10.0665 21.0037 10.1563C20.9896 11.4696 21.7145 12.3607 22.6146 13.4671L22.6239 13.4784C23.4229 14.4047 24.5027 15.785 25.1264 17.3908C25.5919 18.5776 25.8106 19.9192 25.4593 21.293L25.5932 21.4024C26.0886 21.8069 26.2211 22.3942 26.3124 22.8133C26.3618 23.0272 26.4032 23.1984 26.4516 23.3408C26.4953 23.4691 26.5347 23.5422 26.5658 23.5831L26.7039 23.7131V23.8401C27.2091 24.4069 27.5327 24.9489 27.4975 25.5539C27.4605 26.2344 26.9503 26.6459 26.5245 26.8839C26.3118 27.0084 26.078 27.1223 25.8501 27.2307C25.8061 27.2516 25.7623 27.2724 25.7187 27.293C25.5289 27.3829 25.3424 27.4712 25.1562 27.5675C24.6979 27.8045 24.2992 28.0619 24.0118 28.4012L24.0044 28.4099C23.2052 29.3109 22.1796 29.9138 21.1568 29.9913C20.1402 30.0694 19.1618 29.6196 18.6187 28.6371L18.5927 28.6119L18.5532 28.5101C18.5494 28.5002 18.5449 28.4894 18.54 28.4775C18.0713 28.4745 17.6374 28.4145 17.258 28.3584C17.23 28.3543 17.2024 28.3502 17.1751 28.3461C16.7115 28.2774 16.3649 28.226 16.0644 28.2503L16.0548 28.2511C15.5178 28.284 15.0803 28.3677 14.6807 28.4482C14.6537 28.4536 14.6267 28.4591 14.5996 28.4645C14.3366 28.5178 14.069 28.5719 13.8038 28.5979C13.4521 29.1188 12.9068 29.4878 12.2808 29.624C11.2826 29.8802 10.1105 29.6055 9.03437 29.0771L9.02322 29.0716C8.62224 28.8622 8.1477 28.7628 7.62189 28.6922C7.48279 28.6735 7.33511 28.6566 7.18388 28.6392C6.80174 28.5953 6.3969 28.5488 6.05037 28.4656L6.03278 28.4614L6.00423 28.4523C5.59069 28.3208 4.98282 28.1274 4.68148 27.5643L4.68003 27.5616C4.38263 26.9975 4.48342 26.3165 4.7661 25.5572C4.77739 25.518 4.78636 25.4416 4.77526 25.2968C4.76537 25.1678 4.74381 25.0251 4.71683 24.8464C4.71249 24.8177 4.70801 24.788 4.70342 24.7573C4.66773 24.5845 4.63499 24.34 4.63457 24.0932C4.62935 23.7867 4.69948 23.4878 4.83273 23.2167L4.8366 23.2088C5.14071 22.6167 5.65666 22.4021 5.98499 22.2655C6.00687 22.2564 6.02791 22.2476 6.048 22.2391L6.0512 22.2377C6.14687 22.1981 6.23939 22.1637 6.31981 22.1338L6.32241 22.1328C6.40658 22.1015 6.47561 22.0758 6.53942 22.0489C6.65908 21.9986 6.72688 21.9575 6.77222 21.9161C6.85381 21.8257 6.93362 21.7184 7.03484 21.5824C7.04863 21.5638 7.06281 21.5448 7.07745 21.5251C7.18536 21.3805 7.31342 21.212 7.46489 21.0529C7.37019 20.1497 7.5362 19.2265 7.83594 18.353C8.51956 16.3522 9.94178 14.4618 10.9383 13.3073C11.6984 12.2503 11.9209 11.4153 12.0012 10.3163C12.0109 10.0804 11.9906 9.78029 11.9653 9.40673C11.9505 9.1879 11.9339 8.94385 11.9207 8.67274C11.8867 7.97377 11.882 7.15707 12.0362 6.36764C12.191 5.57547 12.512 4.77905 13.1537 4.15526C13.8003 3.52671 14.7232 3.12136 15.989 3.02423M12.5004 10.3451C12.4147 11.5291 12.1666 12.4618 11.331 13.6176C10.3463 14.7561 8.96434 16.5966 8.30898 18.515C7.99966 19.4163 7.85279 20.3392 7.98965 21.2112C7.9385 21.2511 7.89644 21.3009 7.86615 21.3575C7.70414 21.5201 7.56691 21.7047 7.43589 21.881C7.33295 22.0195 7.23384 22.1529 7.12957 22.2663C6.96368 22.4278 6.74345 22.5097 6.49742 22.6012C6.41507 22.6318 6.32984 22.6635 6.24278 22.6996C6.22636 22.7065 6.20985 22.7135 6.19329 22.7204C5.85866 22.8612 5.49984 23.012 5.28144 23.4373C5.1813 23.641 5.13012 23.863 5.13457 24.0884C5.13457 24.3039 5.16461 24.5227 5.19577 24.669C5.20074 24.7023 5.20571 24.7351 5.21061 24.7675C5.26935 25.1557 5.31824 25.4788 5.23916 25.7197C4.96322 26.4564 4.92873 26.9612 5.12233 27.3284C5.31593 27.6902 5.7176 27.8364 6.16712 27.9794C6.48247 28.0551 6.83695 28.0958 7.20577 28.1381C7.89235 28.2169 8.62864 28.3013 9.25474 28.6283C10.2851 29.1342 11.331 29.3551 12.1655 29.1374C12.7507 29.0128 13.2447 28.6359 13.5096 28.1137C13.8179 28.1122 14.14 28.0472 14.5148 27.9715C14.934 27.8869 15.4191 27.7891 16.0242 27.7519C16.3843 27.7228 16.7865 27.7827 17.2255 27.8481C17.7344 27.9239 18.2928 28.0071 18.8926 27.9675C18.9127 28.0731 18.9403 28.1387 18.9755 28.2221C18.989 28.2541 19.0037 28.2887 19.0194 28.3293L19.0228 28.3326C19.4578 29.1753 20.2612 29.5588 21.119 29.4927C21.9769 29.4277 22.8904 28.9121 23.6303 28.078C24.1246 27.4945 24.8511 27.1505 25.5078 26.8397C25.7837 26.709 26.0473 26.5842 26.2762 26.4499C26.6634 26.2343 26.9761 25.9418 26.9983 25.5258C27.0239 25.0925 26.7769 24.6462 26.2039 24.0342V23.9291L26.2005 23.9259C26.0114 23.7092 25.9224 23.3463 25.8245 22.9228C25.7299 22.4884 25.6219 22.0713 25.277 21.7897H25.2737C25.2444 21.7636 25.214 21.7463 25.1828 21.7287C25.1462 21.7079 25.1085 21.6865 25.0705 21.6494C25.0685 21.6475 25.0665 21.6455 25.0645 21.6434C25.0023 21.6012 24.9289 21.5771 24.8531 21.5741C24.9093 21.4118 24.9564 21.2496 24.9949 21.0876C25.285 19.8685 25.0898 18.6665 24.6606 17.5726C24.0676 16.0452 23.0306 14.7149 22.2406 13.7996C22.2211 13.7757 22.2016 13.7517 22.1822 13.7279C21.3171 12.6653 20.4874 11.6461 20.5037 10.1501C20.5048 10.0617 20.5063 9.97045 20.5077 9.8767C20.5451 7.49806 20.6079 3.50625 16.5605 3.5C16.388 3.5 16.21 3.50867 16.0275 3.52275C12.0917 3.82462 12.323 7.26788 12.4615 9.32997C12.4885 9.73202 12.512 10.0816 12.5004 10.3451ZM16.5613 3C16.3725 3 16.1802 3.00949 15.989 3.02423L16.5613 3Z" fill="#CDD0D2"/>
<path d="M17.1635 7.18848H17.1491C16.9105 7.18839 16.6785 7.26408 16.4881 7.40404C16.2678 7.54162 16.1009 7.74419 16.0097 7.98142C15.8909 8.24349 15.8339 8.52812 15.8428 8.81444V8.83611C15.845 8.90829 15.8516 8.98028 15.8628 9.05168C15.9754 9.0951 16.1182 9.13892 16.2608 9.18265C16.3564 9.21201 16.452 9.24134 16.5382 9.27049C16.5249 9.17517 16.5182 9.07767 16.516 8.98126V8.96068C16.5231 8.81167 16.557 8.66502 16.6161 8.52738C16.6601 8.39023 16.7385 8.2659 16.8442 8.16557C16.9399 8.05508 17.0322 8.02258 17.1357 8.02258H17.1535C17.2637 8.02258 17.3552 8.09256 17.4477 8.16328L17.4506 8.16557C17.4724 8.19991 17.4925 8.23013 17.5112 8.25822C17.5709 8.34797 17.6161 8.41599 17.6542 8.52738C17.7016 8.66708 17.7246 8.81356 17.7221 8.96068V8.98126C17.7154 9.13075 17.6831 9.27808 17.6242 9.41673C17.599 9.45982 17.5492 9.50656 17.5019 9.551C17.4719 9.57917 17.4429 9.60642 17.4217 9.63122C17.5049 9.6481 17.5864 9.67202 17.6653 9.70271C17.733 9.75553 17.805 9.7813 17.8827 9.80908C17.915 9.82061 17.9482 9.83249 17.9824 9.84679C18.0161 9.85975 18.0488 9.87495 18.0804 9.89228C18.1846 9.78886 18.2654 9.66521 18.3173 9.52939C18.4252 9.28799 18.482 9.02787 18.4842 8.76461L18.4887 8.79061C18.4892 8.79834 18.4907 8.80599 18.4931 8.81336V8.7007C18.4931 8.71086 18.4915 8.72128 18.4899 8.73184C18.4882 8.74267 18.4865 8.75364 18.4865 8.76461C18.4776 8.47755 18.4186 8.2609 18.3018 7.98034C18.1805 7.7626 18.0258 7.5492 17.8133 7.40296C17.6041 7.25564 17.4005 7.18848 17.1635 7.18848Z" fill="#CDD0D2"/>
<path d="M13.8934 7.25239H13.8534C13.6776 7.25239 13.5307 7.32497 13.3883 7.46904C13.242 7.63813 13.1347 7.83574 13.0734 8.04858C12.9962 8.28196 12.966 8.52766 12.9844 8.7722C12.9931 9.02167 13.0516 9.26709 13.1568 9.49473C13.2447 9.64881 13.3472 9.7946 13.4628 9.9302C13.5169 9.91763 13.5669 9.89234 13.6086 9.85653C13.6486 9.81298 13.6836 9.79073 13.7225 9.76604C13.7475 9.75019 13.774 9.73334 13.8044 9.70921C13.7918 9.70355 13.7818 9.69542 13.7713 9.68698C13.7713 9.68698 13.7682 9.68447 13.7666 9.68321C13.6909 9.60955 13.6331 9.53806 13.583 9.3929C13.579 9.38092 13.575 9.36944 13.5713 9.35838C13.5295 9.23642 13.5051 9.16517 13.4929 9.03109V9.01593C13.4796 8.89587 13.4882 8.77448 13.5185 8.65737C13.5348 8.54988 13.581 8.44876 13.652 8.36489C13.7143 8.26631 13.7799 8.2284 13.8589 8.2219H13.8823C13.9193 8.21955 13.9564 8.22448 13.9914 8.23639C14.0263 8.2483 14.0585 8.26695 14.0859 8.29123C14.1723 8.37037 14.2359 8.47006 14.2706 8.58046C14.2776 8.60139 14.2841 8.62078 14.2903 8.63909C14.3269 8.74774 14.3505 8.81788 14.3619 8.94118V8.95743C14.373 9.05276 14.3719 9.15025 14.3585 9.24666C14.3902 9.22981 14.4221 9.21204 14.4545 9.19393C14.5578 9.13634 14.6672 9.07534 14.7958 9.03001C14.8109 9.02674 14.8257 9.02211 14.841 9.01735C14.8561 9.01263 14.8716 9.00778 14.8881 9.00401V8.91735C14.897 8.84694 14.8982 8.77436 14.8904 8.62921V8.62487C14.877 8.33673 14.8203 8.11791 14.7201 7.90234C14.6311 7.7106 14.4998 7.53837 14.3374 7.39863C14.1938 7.30438 14.0514 7.25239 13.8934 7.25239Z" fill="#CDD0D2"/>
<path fill-rule="evenodd" clip-rule="evenodd" d="M16.7307 9.53264C16.1933 9.17083 15.7471 9.10042 15.3788 9.10042C15.1874 9.10042 15.015 9.13184 14.8603 9.17083C14.4119 9.31382 14.1148 9.60305 13.9268 9.82187V9.82512H13.9246C13.8879 9.85653 13.8445 9.88687 13.7287 9.96703C13.6855 9.99362 13.6338 10.0312 13.5727 10.0755C13.4722 10.1486 13.3465 10.24 13.1913 10.331C12.971 10.4729 12.8998 10.6907 12.9766 10.981C13.0545 11.1965 13.2948 11.4847 13.7399 11.7512H13.7454V11.7566C13.9148 11.8446 14.0504 11.9585 14.1798 12.0672C14.2622 12.1363 14.3421 12.2034 14.4264 12.2603C14.5418 12.3379 14.6614 12.4095 14.7847 12.4748C14.9442 12.5312 15.1137 12.5559 15.2831 12.5474C15.7466 12.5739 16.0897 12.4104 16.3928 12.2659L16.4091 12.2581C16.5675 12.1838 16.7135 12.0903 16.8591 11.997C16.9939 11.9107 17.1282 11.8247 17.2715 11.7544V11.7522C17.8812 11.5367 18.3185 11.1759 18.4553 10.8391C18.4897 10.7578 18.5058 10.6704 18.5028 10.5826C18.4997 10.4948 18.4774 10.4087 18.4375 10.3299V10.4718C18.3563 10.3277 18.1894 10.1869 17.9057 10.0396H17.9023C17.8141 10.0073 17.7333 9.97822 17.6586 9.95132C17.2345 9.79848 17.008 9.71686 16.7307 9.53264ZM13.2405 10.8961C13.2026 10.7918 13.2298 10.6997 13.2805 10.6997C13.3591 10.7109 13.3962 10.7691 13.4337 10.8281C13.4541 10.8601 13.4746 10.8923 13.502 10.9175C13.5699 10.9629 13.6483 11.0378 13.7381 11.1236C13.7894 11.1727 13.8445 11.2254 13.9036 11.2782C14.2274 11.4948 14.6602 11.7841 15.201 11.7841C15.7406 11.7841 16.3726 11.4948 16.7565 11.2793C16.849 11.2169 16.9526 11.1419 17.0586 11.0653C17.2011 10.9622 17.3479 10.856 17.4775 10.7734C17.5498 10.7115 17.5907 10.6508 17.6242 10.601C17.671 10.5313 17.7035 10.483 17.7879 10.483C17.8242 10.4874 17.8446 10.4989 17.8515 10.517C17.8719 10.5707 17.7748 10.6827 17.6244 10.8438C17.3776 11.0255 17.1213 11.1947 16.8566 11.3508C16.7539 11.397 16.6473 11.4491 16.5376 11.5035C16.1304 11.7051 15.6776 11.9292 15.2021 11.9292C14.599 11.9292 14.1228 11.64 13.779 11.4244C13.7052 11.3622 13.6374 11.3001 13.5759 11.2436C13.4938 11.1682 13.4227 11.103 13.3629 11.0615C13.2994 11.011 13.2607 10.9518 13.2405 10.8961ZM15.6547 9.63653L15.6538 9.63376V9.60993C15.6472 9.58935 15.6683 9.56444 15.6861 9.55577C15.7685 9.50919 15.8864 9.52652 15.9754 9.5601C16.0328 9.5601 16.1157 9.60883 16.1376 9.66696C16.1423 9.67965 16.1441 9.69279 16.1421 9.70596C16.1354 9.75904 16.0475 9.77746 15.9919 9.77746C15.9504 9.77746 15.9181 9.756 15.8846 9.73374C15.8687 9.72321 15.8526 9.7125 15.835 9.7038C15.8175 9.69787 15.7956 9.69475 15.7731 9.69153C15.7229 9.68436 15.6696 9.67675 15.6547 9.63653ZM15.0406 9.63268L15.0408 9.63376C15.025 9.67832 14.9683 9.68637 14.9157 9.69386C14.8941 9.69693 14.8732 9.69991 14.8561 9.70526C14.8399 9.71362 14.8247 9.72384 14.8095 9.73397C14.7755 9.75666 14.7422 9.77892 14.7014 9.77892C14.6486 9.77892 14.5678 9.76109 14.5515 9.71579C14.5503 9.71243 14.5495 9.70893 14.549 9.70526C14.539 9.63376 14.6469 9.56119 14.7159 9.56119C14.806 9.5276 14.9206 9.51027 15.0041 9.55577C15.0182 9.56229 15.0313 9.57463 15.0365 9.58856C15.039 9.59547 15.0396 9.60276 15.0374 9.60993V9.6323L15.0406 9.63268Z" fill="#CDD0D2"/>
<path d="M20.4247 16.2673C19.825 15.1862 18.8926 12.9568 18.4931 11.4218C18.2606 11.7447 17.85 12.0339 17.3304 12.1801H17.3249C17.1904 12.2196 17.0518 12.3033 16.9004 12.3948C16.7775 12.469 16.6461 12.5484 16.5015 12.6134C16.2044 12.7586 15.8506 12.9037 15.3933 12.9037C15.3551 12.9037 15.317 12.9008 15.276 12.8977L15.2698 12.8972C14.8258 12.8972 14.5299 12.7521 14.2951 12.5344C14.1814 12.4648 14.0804 12.3777 13.9786 12.2901C13.8713 12.1977 13.7632 12.1046 13.6386 12.0306C13.5851 11.9821 13.4832 11.918 13.4056 11.8692C13.3672 11.8451 13.3348 11.8247 13.3171 11.8118C13.2309 13.4034 12.3065 15.3421 11.6374 16.7455C11.5031 17.027 11.3791 17.287 11.2742 17.5184C10.8411 18.5055 10.5971 19.5613 10.5543 20.6339C9.42059 19.1639 10.2495 17.2725 10.6901 16.459C11.1852 15.5501 11.2631 15.3335 11.144 15.4039C10.6979 16.1113 9.99917 17.2378 9.72657 18.3969C9.58415 19.0036 9.55967 19.6004 9.74326 20.1789C9.92573 20.7487 10.3218 21.2589 11.0228 21.6911C11.9763 22.2609 12.6283 22.8329 13.0122 23.3387C13.3961 23.8435 13.5162 24.3093 13.3961 24.5986C13.3319 24.7585 13.2067 24.8881 13.0467 24.9604C12.9054 25.0015 12.7318 25.033 12.5293 25.033C12.6493 25.138 12.7524 25.2599 12.8353 25.3948C13.0088 25.5681 13.1591 25.7621 13.2826 25.9721C15.2509 27.2764 17.5652 26.7716 19.2342 25.6103C19.2432 25.5801 19.2522 25.5499 19.2611 25.5198C19.4167 24.9958 19.5671 24.489 19.5891 24.1469V24.1436C19.6281 23.3712 19.6726 22.6964 19.8172 22.119C19.963 21.5579 20.2211 21.1235 20.6995 20.8332C20.7588 20.8241 20.8188 20.8031 20.8774 20.7826C20.8958 20.7762 20.9141 20.7698 20.9321 20.7638C20.9369 20.6999 20.9417 20.6724 20.9478 20.6366C20.9488 20.6306 20.9499 20.6243 20.951 20.6176C21.0901 19.7499 21.9034 19.6806 22.9215 20.1139C23.904 20.5461 24.2745 20.9339 24.1065 21.4398H24.1232C24.146 21.4398 24.1684 21.4394 24.1908 21.439C24.2353 21.4383 24.2795 21.4376 24.3246 21.4398V21.4864C24.5282 20.8375 24.1043 20.3999 22.956 19.8214C22.889 19.8158 22.8237 19.7886 22.7592 19.7617C22.7488 19.7574 22.7383 19.753 22.7279 19.7488C22.8815 19.1357 22.8481 18.5193 22.7046 17.9398C22.3919 16.6561 21.5285 15.5317 20.8731 14.9533C20.7518 14.9533 20.7641 15.0984 21.01 15.3162C21.6142 15.8567 22.9404 17.8022 22.2217 19.6123C22.0169 19.5625 21.8244 19.5376 21.6509 19.543C21.376 18.0644 20.7429 16.8457 20.4247 16.2673Z" fill="#CDD0D2"/>
<path d="M21.9068 22.6173C21.3071 22.4743 20.9666 21.7767 20.9254 21.1257V21.1278L20.8753 21.1517C20.5048 21.3542 20.2957 21.7139 20.1621 22.2176C20.0297 22.7365 19.9863 23.4092 19.9452 24.1826C19.9175 24.6084 19.7678 25.1021 19.6133 25.6119C19.5504 25.8193 19.4867 26.0293 19.43 26.2386C19.2342 26.959 19.134 27.6349 19.3677 28.0693L19.3733 28.0726C19.7482 28.8287 20.3858 29.1027 21.1246 29.0453C21.8645 28.989 22.7023 28.5535 23.39 27.7552C23.9409 27.1079 24.7103 26.748 25.3634 26.4425C25.6483 26.3093 25.911 26.1864 26.1238 26.0545C26.472 25.8389 26.6612 25.6937 26.6779 25.4099L26.6812 25.4229V25.4034L26.6779 25.4099C26.6879 25.1564 26.511 24.7459 25.9702 24.175C25.7014 23.8814 25.6184 23.4974 25.5299 23.0883C25.525 23.0657 25.5201 23.043 25.5151 23.0203C25.4194 22.6465 25.3115 22.2869 25.0801 22.0713L25.0767 22.0681C24.7763 21.7897 24.4848 21.7702 24.1343 21.7789L23.8996 21.7886C23.5023 22.2566 22.561 22.7625 21.9068 22.6173Z" fill="#CDD0D2"/>
<path d="M8.9032 21.1787H8.89208C8.57719 21.1787 8.36579 21.325 8.15438 21.5427C8.03616 21.665 7.92654 21.8109 7.81335 21.9616C7.68896 22.1272 7.56026 22.2985 7.41113 22.4505V22.4537H7.4089C7.18795 22.6626 6.92581 22.7584 6.67359 22.8507C6.57652 22.8862 6.48092 22.9211 6.38971 22.9618C6.3483 22.9802 6.30791 22.9974 6.26859 23.0142C5.99835 23.1295 5.77849 23.2232 5.62309 23.5391C5.48289 23.7894 5.51405 24.123 5.57524 24.5574C5.58166 24.5975 5.58842 24.6382 5.59525 24.6794C5.65594 25.0448 5.72229 25.4444 5.60529 25.7696L5.60306 25.7728V25.7761C5.34047 26.4574 5.3427 26.8929 5.4662 27.1085C5.59082 27.3251 5.86008 27.4714 6.27066 27.5429C6.49837 27.5828 6.76115 27.606 7.04498 27.6312C7.78608 27.6968 8.67073 27.7752 9.44952 28.195C10.423 28.6998 11.3966 28.8438 12.1143 28.6976C12.8331 28.5395 13.3026 28.1018 13.366 27.2959V27.2894C13.4116 26.8138 13.0378 26.2365 12.5549 25.5887C12.4138 25.4073 12.2654 25.2299 12.1193 25.0552C11.7646 24.6311 11.4235 24.2233 11.2319 23.8143L11.2286 23.811L10.2161 22.0085C9.86343 21.5546 9.49625 21.2535 9.07789 21.1939C9.02003 21.1841 8.96217 21.1787 8.9032 21.1787Z" fill="#CDD0D2"/>
</svg>
