<svg width="32" height="32" viewBox="0 0 32 32" fill="none" xmlns="http://www.w3.org/2000/svg">
<path d="M16.5604 3C16.3879 3 16.2099 3.00867 16.0274 3.02275C11.3242 3.38347 12.5715 8.22996 12.5003 9.84509C12.4146 11.0291 12.1665 11.9618 11.3309 13.1176C10.3462 14.2561 8.96425 16.0966 8.30889 18.015C7.99957 18.9163 7.8527 19.8392 7.98956 20.7112C7.93841 20.7511 7.89635 20.8009 7.86606 20.8575C7.57676 21.1478 7.36647 21.5085 7.12948 21.7663C6.90806 21.9819 6.58984 22.0556 6.24269 22.1996C5.89443 22.3469 5.51056 22.491 5.28135 22.9373C5.18121 23.141 5.13003 23.363 5.13448 23.5884C5.13448 23.8039 5.16452 24.0227 5.19568 24.169C5.26021 24.6012 5.32475 24.9587 5.23907 25.2197C4.96313 25.9564 4.92864 26.4612 5.12224 26.8284C5.31584 27.1902 5.71751 27.3364 6.16703 27.4794C7.06939 27.6961 8.2922 27.6257 9.25465 28.1283C10.285 28.6342 11.3309 28.8551 12.1654 28.6374C12.7506 28.5128 13.2446 28.1359 13.5095 27.6137C14.1626 27.6105 14.878 27.3223 16.0241 27.2519C16.8018 27.1891 17.7754 27.5412 18.8925 27.4675C18.9203 27.6137 18.9626 27.6831 19.0193 27.8293L19.0227 27.8326C19.4577 28.6753 20.2611 29.0588 21.1189 28.9927C21.9768 28.9277 22.8903 28.4121 23.6302 27.578C24.3323 26.7493 25.5028 26.4037 26.2761 25.9499C26.6633 25.7343 26.976 25.4418 26.9982 25.0258C27.0238 24.5925 26.7768 24.1462 26.2038 23.5342V23.4291L26.2004 23.4259C26.0113 23.2092 25.9223 22.8463 25.8243 22.4228C25.7298 21.9884 25.6218 21.5713 25.2769 21.2897H25.2736C25.2079 21.2312 25.1367 21.2171 25.0644 21.1434C25.0022 21.1012 24.9288 21.0771 24.853 21.0741C25.3326 19.6897 25.1467 18.3118 24.6605 17.0726C24.0675 15.5452 23.0305 14.2149 22.2405 13.2996C21.3548 12.2109 20.4869 11.1797 20.5036 9.65011C20.5337 7.31894 20.7673 3.0065 16.5604 3V3ZM17.149 6.68849H17.1634C17.4004 6.68849 17.604 6.75565 17.8132 6.90297C18.0257 7.04921 18.1804 7.26261 18.3017 7.48035C18.4185 7.76091 18.4775 7.97756 18.4864 8.26462C18.4864 8.24296 18.493 8.22129 18.493 8.20071V8.31337C18.4906 8.306 18.4891 8.29835 18.4886 8.29062L18.4841 8.26462C18.4819 8.52788 18.4251 8.788 18.3172 9.0294C18.2653 9.16522 18.1845 9.28887 18.0803 9.39229C18.0487 9.37496 18.016 9.35976 17.9823 9.3468C17.8655 9.29805 17.7609 9.27747 17.6652 9.20272C17.5863 9.17203 17.5048 9.14811 17.4216 9.13123C17.4761 9.06731 17.5829 8.98715 17.6241 8.91674C17.683 8.77809 17.7153 8.63076 17.722 8.48127V8.46069C17.7245 8.31357 17.7015 8.16709 17.6541 8.02739C17.604 7.88115 17.5417 7.80966 17.4505 7.66558C17.357 7.59409 17.2647 7.52259 17.1534 7.52259H17.1356C17.0321 7.52259 16.9398 7.55509 16.8441 7.66558C16.7384 7.76591 16.66 7.89024 16.616 8.02739C16.5569 8.16503 16.523 8.31168 16.5159 8.46069V8.48127C16.5181 8.57768 16.5248 8.67518 16.5381 8.7705C16.3234 8.69792 16.0508 8.62426 15.8627 8.55169C15.8515 8.48029 15.8449 8.4083 15.8427 8.33612V8.31445C15.8338 8.02813 15.8908 7.7435 16.0096 7.48143C16.1008 7.2442 16.2677 7.04163 16.488 6.90405C16.6784 6.76409 16.9104 6.6884 17.149 6.68849V6.68849ZM13.8533 6.7524H13.8933C14.0513 6.7524 14.1937 6.80439 14.3373 6.89864C14.4997 7.03838 14.631 7.21061 14.72 7.40235C14.8202 7.61792 14.8769 7.83674 14.8903 8.12488V8.12922C14.8981 8.27437 14.8969 8.34695 14.888 8.41736V8.50402C14.8547 8.5116 14.8257 8.52352 14.7957 8.53002C14.6266 8.5896 14.4908 8.67626 14.3584 8.74667C14.3718 8.65026 14.3729 8.55277 14.3618 8.45744V8.44119C14.3484 8.29712 14.3184 8.22563 14.2705 8.08047C14.2358 7.97007 14.1722 7.87038 14.0858 7.79124C14.0584 7.76696 14.0262 7.74831 13.9913 7.7364C13.9563 7.72449 13.9192 7.71956 13.8822 7.72191H13.8588C13.7798 7.72841 13.7142 7.76633 13.6519 7.8649C13.5809 7.94877 13.5347 8.04989 13.5184 8.15738C13.4881 8.27449 13.4795 8.39588 13.4928 8.51594V8.5311C13.5061 8.67734 13.5339 8.74884 13.5829 8.89291C13.633 9.03807 13.6908 9.10956 13.7665 9.18322C13.7787 9.19297 13.7898 9.20272 13.8043 9.20922C13.7264 9.27097 13.6741 9.28505 13.6085 9.35654C13.5668 9.39235 13.5168 9.41764 13.4627 9.43021C13.3471 9.29461 13.2446 9.14882 13.1567 8.99474C13.0515 8.7671 12.993 8.52168 12.9843 8.27221C12.9659 8.02767 12.9961 7.78197 13.0733 7.54859C13.1346 7.33575 13.2419 7.13814 13.3882 6.96905C13.5306 6.82498 13.6775 6.7524 13.8533 6.7524V6.7524ZM15.3787 8.60043C15.747 8.60043 16.1932 8.67084 16.7306 9.03265C17.0566 9.2493 17.3125 9.32405 17.9022 9.53961H17.9056C18.1893 9.68694 18.3562 9.82776 18.4374 9.97183V9.82993C18.4773 9.90869 18.4996 9.99484 18.5027 10.0826C18.5057 10.1704 18.4896 10.2578 18.4552 10.3391C18.3184 10.6759 17.8811 11.0367 17.2714 11.2522V11.2544C16.9732 11.4006 16.7139 11.6151 16.409 11.7581C16.1019 11.9044 15.7548 12.0744 15.283 12.0474C15.1136 12.0559 14.9441 12.0312 14.7846 11.9748C14.6613 11.9095 14.5417 11.8379 14.4263 11.7603C14.2093 11.614 14.0224 11.4006 13.7453 11.2566V11.2512H13.7398C13.2947 10.9847 13.0544 10.6965 12.9765 10.481C12.8997 10.1907 12.9709 9.97292 13.1912 9.83101C13.4405 9.68477 13.614 9.53745 13.7286 9.46704C13.8444 9.38688 13.8878 9.35654 13.9245 9.32513H13.9267V9.32188C14.1147 9.10306 14.4118 8.81383 14.8602 8.67084C15.0149 8.63185 15.1873 8.60043 15.3787 8.60043V8.60043ZM18.493 10.9218C18.8925 12.4568 19.8249 14.6862 20.4246 15.7673C20.7428 16.3457 21.3759 17.5644 21.6508 19.043C21.8243 19.0376 22.0168 19.0625 22.2216 19.1123C22.9403 17.3022 21.6141 15.3567 21.0099 14.8162C20.764 14.5984 20.7517 14.4533 20.873 14.4533C21.5284 15.0317 22.3918 16.1561 22.7045 17.4398C22.848 18.0193 22.8814 18.6357 22.7278 19.2488C22.8024 19.2792 22.878 19.3149 22.9559 19.3214C24.1042 19.8999 24.5281 20.3375 24.3245 20.9864V20.9398C24.2566 20.9365 24.191 20.9398 24.1231 20.9398H24.1064C24.2744 20.4339 23.9039 20.0461 22.9214 19.6139C21.9033 19.1806 21.09 19.2499 20.9509 20.1176C20.9431 20.1642 20.9376 20.1891 20.932 20.2638C20.8563 20.2888 20.7773 20.3213 20.6994 20.3332C20.221 20.6235 19.9629 21.0579 19.8171 21.619C19.6725 22.1964 19.628 22.8712 19.589 23.6436V23.6469C19.5657 24.0087 19.3988 24.5546 19.2341 25.1103C17.5651 26.2716 15.2508 26.7764 13.2825 25.4721C13.159 25.2621 13.0087 25.0681 12.8352 24.8948C12.7523 24.7599 12.6492 24.638 12.5292 24.533C12.7317 24.533 12.9053 24.5015 13.0466 24.4604C13.2066 24.3881 13.3318 24.2585 13.396 24.0986C13.5161 23.8093 13.396 23.3435 13.0121 22.8387C12.6282 22.3329 11.9762 21.7609 11.0227 21.1911C10.3217 20.7589 9.92558 20.2487 9.74311 19.6789C9.55952 19.1004 9.584 18.5036 9.72642 17.8969C9.99902 16.7378 10.6978 15.6113 11.1439 14.9039C11.263 14.8335 11.1851 15.0501 10.69 15.959C10.2494 16.7725 9.42044 18.6639 10.5542 20.1339C10.597 19.0613 10.841 18.0055 11.2741 17.0184C11.9017 15.634 13.2135 13.2227 13.317 11.3118C13.3704 11.3508 13.5584 11.4581 13.6385 11.5306C13.8811 11.6747 14.0613 11.8914 14.295 12.0344C14.5298 12.2521 14.8257 12.3972 15.2697 12.3972C15.3131 12.4005 15.3531 12.4037 15.3932 12.4037C15.8505 12.4037 16.2043 12.2586 16.5014 12.1134C16.8241 11.9683 17.0811 11.7516 17.3248 11.6801H17.3303C17.8499 11.5339 18.2605 11.2447 18.493 10.9218V10.9218ZM20.9253 20.6257C20.9665 21.2767 21.307 21.9743 21.9067 22.1173C22.5609 22.2625 23.5022 21.7566 23.8995 21.2886L24.1342 21.2789C24.4847 21.2702 24.7762 21.2897 25.0766 21.5681L25.08 21.5713C25.3114 21.7869 25.4193 22.1465 25.515 22.5203C25.6096 22.9547 25.6864 23.3652 25.9701 23.675C26.5109 24.2459 26.6878 24.6564 26.6778 24.9099L26.6811 24.9034V24.9229L26.6778 24.9099C26.6611 25.1937 26.4719 25.3389 26.1237 25.5545C25.4227 25.9889 24.181 26.3257 23.3899 27.2552C22.7022 28.0535 21.8644 28.489 21.1245 28.5453C20.3857 28.6027 19.7481 28.3287 19.3732 27.5726L19.3676 27.5693C19.1339 27.1349 19.2341 26.459 19.4299 25.7386C19.6257 25.015 19.9061 24.2816 19.9451 23.6826C19.9862 22.9092 20.0296 22.2365 20.162 21.7176C20.2956 21.2139 20.5047 20.8542 20.8752 20.6517L20.9253 20.6278V20.6257ZM8.89193 20.6787H8.90305C8.96202 20.6787 9.01988 20.6841 9.07774 20.6939C9.4961 20.7535 9.86328 21.0546 10.216 21.5085L11.2285 23.311L11.2318 23.3143C11.5022 23.8917 12.0708 24.4669 12.5548 25.0887C13.0377 25.7365 13.4115 26.3138 13.3659 26.7894V26.7959C13.3025 27.6018 12.833 28.0395 12.1142 28.1976C11.3965 28.3438 10.4229 28.1998 9.44937 27.695C8.37231 27.1144 7.09276 27.1869 6.27051 27.0429C5.85993 26.9714 5.59067 26.8251 5.46605 26.6085C5.34255 26.3929 5.34032 25.9574 5.60291 25.2761V25.2728L5.60514 25.2696C5.73532 24.9078 5.63852 24.4539 5.57509 24.0574C5.5139 23.623 5.48274 23.2894 5.62294 23.0391C5.80096 22.6773 6.06355 22.6069 6.38956 22.4618C6.71779 22.3155 7.10277 22.243 7.40875 21.9537H7.41098V21.9505C7.69582 21.6602 7.90611 21.2994 8.15423 21.0427C8.36564 20.825 8.57704 20.6787 8.89193 20.6787V20.6787ZM16.8574 10.8493C16.3734 11.067 15.806 11.4288 15.2018 11.4288C14.5987 11.4288 14.1225 11.1396 13.7787 10.924C13.6063 10.7789 13.4672 10.6337 13.3626 10.5611C13.1801 10.416 13.2024 10.1993 13.2802 10.1993C13.4015 10.2166 13.4238 10.3456 13.5017 10.4171C13.6085 10.4885 13.7409 10.6326 13.9033 10.7778C14.2271 10.9944 14.6599 11.2837 15.2007 11.2837C15.7403 11.2837 16.3723 10.9944 16.7562 10.7789C16.9732 10.6326 17.2513 10.4171 17.4772 10.273C17.6508 10.1246 17.643 9.98267 17.7876 9.98267C17.9312 10 17.8255 10.1278 17.6241 10.3434C17.3773 10.5251 17.121 10.6943 16.8563 10.8504V10.8493H16.8574ZM15.6535 9.13339V9.10956C15.6469 9.08898 15.668 9.06407 15.6858 9.0554C15.7682 9.00882 15.8861 9.02615 15.9751 9.05973C16.0452 9.05973 16.1531 9.13231 16.142 9.20597C16.1353 9.25905 16.0474 9.27747 15.9918 9.27747C15.9306 9.27747 15.8894 9.23089 15.8349 9.20381C15.7771 9.18431 15.6725 9.19514 15.6535 9.13339V9.13339ZM15.0405 9.13339C15.0182 9.19622 14.9147 9.18647 14.8558 9.20489C14.8035 9.23197 14.7601 9.27855 14.7011 9.27855C14.6444 9.27855 14.5554 9.25797 14.5487 9.20489C14.5387 9.13339 14.6466 9.06082 14.7156 9.06082C14.8057 9.02723 14.9203 9.0099 15.0038 9.0554C15.0249 9.06515 15.0438 9.0879 15.0371 9.10956V9.13231H15.0405V9.13339Z" fill="#FFB800"/>
</svg>
