<svg width="32" height="33" viewBox="0 0 32 33" fill="none" xmlns="http://www.w3.org/2000/svg">
<path fill-rule="evenodd" clip-rule="evenodd" d="M16.5611 3C17.702 3.00176 18.5896 3.29729 19.262 3.81896C19.9302 4.33741 20.3412 5.04452 20.5945 5.79304C21.0524 7.14631 21.0263 8.74661 21.0078 9.87552C21.0062 9.97275 21.0047 10.0665 21.0035 10.1563C20.9894 11.4696 21.7144 12.3607 22.6145 13.4671L22.6237 13.4784C23.4227 14.4047 24.5026 15.785 25.1263 17.3908C25.5918 18.5776 25.8105 19.9192 25.4591 21.293L25.5931 21.4024C26.0885 21.8069 26.221 22.3942 26.3122 22.8133C26.3617 23.0272 26.403 23.1984 26.4515 23.3408C26.4952 23.4691 26.5346 23.5422 26.5657 23.5831L26.7038 23.7131V23.8401C27.209 24.4069 27.5326 24.9489 27.4974 25.5539C27.4604 26.2344 26.9501 26.6459 26.5243 26.8839C26.3117 27.0084 26.0778 27.1223 25.85 27.2307C25.806 27.2516 25.7622 27.2724 25.7186 27.293C25.5288 27.3829 25.3423 27.4712 25.1561 27.5675C24.6978 27.8045 24.2991 28.0619 24.0117 28.4012L24.0043 28.4099C23.2051 29.3109 22.1794 29.9138 21.1566 29.9913C20.1401 30.0694 19.1617 29.6196 18.6185 28.6371L18.5926 28.6119L18.5531 28.5101C18.5493 28.5002 18.5448 28.4894 18.5398 28.4775C18.0712 28.4745 17.6373 28.4145 17.2579 28.3584C17.2299 28.3543 17.2022 28.3502 17.175 28.3461C16.7114 28.2774 16.3648 28.226 16.0643 28.2503L16.0547 28.2511C15.5177 28.284 15.0802 28.3677 14.6805 28.4482C14.6536 28.4536 14.6266 28.4591 14.5995 28.4645C14.3364 28.5178 14.0689 28.5719 13.8036 28.5979C13.452 29.1188 12.9067 29.4878 12.2807 29.624C11.2825 29.8802 10.1103 29.6055 9.03425 29.0771L9.0231 29.0716C8.62212 28.8622 8.14758 28.7628 7.62177 28.6922C7.48267 28.6735 7.33499 28.6566 7.18376 28.6392C6.80162 28.5953 6.39677 28.5488 6.05024 28.4656L6.03266 28.4614L6.00411 28.4523C5.59057 28.3208 4.98269 28.1274 4.68136 27.5643L4.67991 27.5616C4.3825 26.9975 4.4833 26.3165 4.76598 25.5572C4.77726 25.518 4.78624 25.4416 4.77513 25.2968C4.76525 25.1678 4.74369 25.0251 4.71671 24.8464C4.71237 24.8177 4.70789 24.788 4.7033 24.7573C4.66761 24.5845 4.63487 24.34 4.63445 24.0932C4.62923 23.7867 4.69936 23.4878 4.83261 23.2167L4.83648 23.2088C5.14058 22.6167 5.65654 22.4021 5.98487 22.2655C6.00675 22.2564 6.02779 22.2476 6.04788 22.2391L6.05108 22.2377C6.14675 22.1981 6.23927 22.1637 6.31968 22.1338L6.32229 22.1328C6.40646 22.1015 6.47548 22.0758 6.53929 22.0489C6.65896 21.9986 6.72675 21.9575 6.7721 21.9161C6.85369 21.8257 6.9335 21.7184 7.03472 21.5824C7.0485 21.5638 7.06269 21.5448 7.07733 21.5251C7.18524 21.3805 7.31329 21.212 7.46477 21.0529C7.37007 20.1497 7.53608 19.2265 7.83582 18.353C8.51943 16.3522 9.94165 14.4618 10.9382 13.3073C11.6983 12.2503 11.9208 11.4153 12.001 10.3163C12.0108 10.0804 11.9905 9.78029 11.9652 9.40673C11.9503 9.1879 11.9338 8.94385 11.9206 8.67274C11.8866 7.97377 11.8819 7.15707 12.0361 6.36764C12.1909 5.57547 12.5119 4.77905 13.1536 4.15526C13.8002 3.52671 14.723 3.12136 15.9889 3.02423M12.5003 10.3451C12.4146 11.5291 12.1665 12.4618 11.3309 13.6176C10.3462 14.7561 8.96422 16.5966 8.30886 18.515C7.99954 19.4163 7.85267 20.3392 7.98953 21.2112C7.93838 21.2511 7.89632 21.3009 7.86603 21.3575C7.70402 21.5201 7.56679 21.7047 7.43576 21.881C7.33282 22.0195 7.23372 22.1529 7.12945 22.2663C6.96355 22.4278 6.74332 22.5097 6.4973 22.6012C6.41495 22.6318 6.32971 22.6635 6.24266 22.6996C6.22623 22.7065 6.20973 22.7135 6.19317 22.7204C5.85853 22.8612 5.49972 23.012 5.28132 23.4373C5.18118 23.641 5.13 23.863 5.13445 24.0884C5.13445 24.3039 5.16449 24.5227 5.19565 24.669C5.20062 24.7023 5.20559 24.7351 5.21049 24.7675C5.26923 25.1557 5.31812 25.4788 5.23904 25.7197C4.9631 26.4564 4.92861 26.9612 5.12221 27.3284C5.31581 27.6902 5.71748 27.8364 6.167 27.9794C6.48234 28.0551 6.83682 28.0958 7.20565 28.1381C7.89223 28.2169 8.62851 28.3013 9.25462 28.6283C10.285 29.1342 11.3309 29.3551 12.1654 29.1374C12.7506 29.0128 13.2446 28.6359 13.5095 28.1137C13.8177 28.1122 14.1399 28.0472 14.5147 27.9715C14.9339 27.8869 15.419 27.7891 16.0241 27.7519C16.3842 27.7228 16.7864 27.7827 17.2254 27.8481C17.7343 27.9239 18.2927 28.0071 18.8925 27.9675C18.9126 28.0731 18.9402 28.1387 18.9754 28.2221C18.9889 28.2541 19.0035 28.2887 19.0193 28.3293L19.0227 28.3326C19.4577 29.1753 20.2611 29.5588 21.1189 29.4927C21.9768 29.4277 22.8903 28.9121 23.6302 28.078C24.1245 27.4945 24.851 27.1505 25.5076 26.8397C25.7836 26.709 26.0472 26.5842 26.2761 26.4499C26.6633 26.2343 26.976 25.9418 26.9982 25.5258C27.0238 25.0925 26.7768 24.6462 26.2038 24.0342V23.9291L26.2004 23.9259C26.0113 23.7092 25.9223 23.3463 25.8244 22.9228C25.7298 22.4884 25.6218 22.0713 25.2769 21.7897H25.2736C25.2442 21.7636 25.2138 21.7463 25.1827 21.7287C25.1461 21.7079 25.1084 21.6865 25.0704 21.6494C25.0684 21.6475 25.0664 21.6455 25.0644 21.6434C25.0022 21.6012 24.9288 21.5771 24.853 21.5741C24.9092 21.4118 24.9563 21.2496 24.9948 21.0876C25.2849 19.8685 25.0897 18.6665 24.6605 17.5726C24.0675 16.0452 23.0305 14.7149 22.2405 13.7996C22.221 13.7757 22.2015 13.7517 22.1821 13.7279C21.317 12.6653 20.4872 11.6461 20.5036 10.1501C20.5047 10.0617 20.5061 9.97045 20.5076 9.8767C20.545 7.49806 20.6077 3.50625 16.5604 3.5C16.3879 3.5 16.2099 3.50867 16.0274 3.52275C12.0915 3.82462 12.3229 7.26788 12.4614 9.32997C12.4884 9.73202 12.5119 10.0816 12.5003 10.3451ZM16.5611 3C16.3724 3 16.1801 3.00949 15.9889 3.02423L16.5611 3Z" fill="#CDD0D2"/>
<path d="M17.1634 7.18848H17.149C16.9104 7.18839 16.6784 7.26408 16.488 7.40404C16.2677 7.54162 16.1008 7.74419 16.0096 7.98142C15.8908 8.24349 15.8338 8.52812 15.8427 8.81444V8.83611C15.8449 8.90829 15.8515 8.98028 15.8627 9.05168C15.9753 9.0951 16.1181 9.13892 16.2606 9.18265C16.3563 9.21201 16.4519 9.24134 16.5381 9.27049C16.5248 9.17517 16.5181 9.07767 16.5159 8.98126V8.96068C16.523 8.81167 16.5569 8.66502 16.616 8.52738C16.66 8.39023 16.7384 8.2659 16.8441 8.16557C16.9398 8.05508 17.0321 8.02258 17.1356 8.02258H17.1534C17.2635 8.02258 17.3551 8.09256 17.4475 8.16328L17.4505 8.16557C17.4723 8.19991 17.4924 8.23013 17.511 8.25822C17.5707 8.34797 17.616 8.41599 17.6541 8.52738C17.7015 8.66708 17.7245 8.81356 17.722 8.96068V8.98126C17.7153 9.13075 17.683 9.27808 17.6241 9.41673C17.5989 9.45982 17.5491 9.50656 17.5018 9.551C17.4718 9.57917 17.4428 9.60642 17.4216 9.63122C17.5048 9.6481 17.5863 9.67202 17.6652 9.70271C17.7329 9.75553 17.8049 9.7813 17.8826 9.80908C17.9149 9.82061 17.9481 9.83249 17.9823 9.84679C18.016 9.85975 18.0487 9.87495 18.0803 9.89228C18.1845 9.78886 18.2653 9.66521 18.3172 9.52939C18.4251 9.28799 18.4819 9.02787 18.4841 8.76461L18.4886 8.79061C18.4891 8.79834 18.4906 8.80599 18.493 8.81336V8.7007C18.493 8.71086 18.4914 8.72128 18.4898 8.73184C18.4881 8.74267 18.4864 8.75364 18.4864 8.76461C18.4775 8.47755 18.4185 8.2609 18.3017 7.98034C18.1804 7.7626 18.0257 7.5492 17.8132 7.40296C17.604 7.25564 17.4004 7.18848 17.1634 7.18848Z" fill="#CDD0D2"/>
<path d="M13.8933 7.25239H13.8533C13.6775 7.25239 13.5306 7.32497 13.3882 7.46904C13.2419 7.63813 13.1346 7.83574 13.0733 8.04858C12.9961 8.28196 12.9659 8.52766 12.9843 8.7722C12.993 9.02167 13.0515 9.26709 13.1567 9.49473C13.2446 9.64881 13.3471 9.7946 13.4627 9.9302C13.5168 9.91763 13.5668 9.89234 13.6085 9.85653C13.6485 9.81298 13.6835 9.79073 13.7224 9.76604C13.7473 9.75019 13.7739 9.73334 13.8043 9.70921C13.7917 9.70355 13.7816 9.69542 13.7712 9.68698C13.7712 9.68698 13.7681 9.68447 13.7665 9.68321C13.6908 9.60955 13.633 9.53806 13.5829 9.3929C13.5788 9.38092 13.5749 9.36944 13.5711 9.35838C13.5294 9.23642 13.505 9.16517 13.4928 9.03109V9.01593C13.4795 8.89587 13.4881 8.77448 13.5184 8.65737C13.5347 8.54988 13.5809 8.44876 13.6519 8.36489C13.7142 8.26631 13.7798 8.2284 13.8588 8.2219H13.8822C13.9192 8.21955 13.9563 8.22448 13.9913 8.23639C14.0262 8.2483 14.0584 8.26695 14.0858 8.29123C14.1722 8.37037 14.2358 8.47006 14.2705 8.58046C14.2774 8.60139 14.284 8.62078 14.2901 8.63909C14.3267 8.74774 14.3504 8.81788 14.3618 8.94118V8.95743C14.3729 9.05276 14.3718 9.15025 14.3584 9.24666C14.3901 9.22981 14.422 9.21204 14.4544 9.19393C14.5577 9.13634 14.6671 9.07534 14.7957 9.03001C14.8108 9.02674 14.8256 9.02211 14.8408 9.01735C14.8559 9.01263 14.8714 9.00778 14.888 9.00401V8.91735C14.8969 8.84694 14.8981 8.77436 14.8903 8.62921V8.62487C14.8769 8.33673 14.8202 8.11791 14.72 7.90234C14.631 7.7106 14.4997 7.53837 14.3373 7.39863C14.1937 7.30438 14.0513 7.25239 13.8933 7.25239Z" fill="#CDD0D2"/>
<path fill-rule="evenodd" clip-rule="evenodd" d="M16.7306 9.53264C16.1932 9.17083 15.747 9.10042 15.3787 9.10042C15.1873 9.10042 15.0149 9.13184 14.8602 9.17083C14.4118 9.31382 14.1147 9.60305 13.9267 9.82187V9.82512H13.9245C13.8878 9.85653 13.8444 9.88687 13.7286 9.96703C13.6853 9.99362 13.6336 10.0312 13.5726 10.0755C13.4721 10.1486 13.3463 10.24 13.1912 10.331C12.9709 10.4729 12.8997 10.6907 12.9765 10.981C13.0544 11.1965 13.2947 11.4847 13.7398 11.7512H13.7453V11.7566C13.9147 11.8446 14.0503 11.9585 14.1797 12.0672C14.2621 12.1363 14.3419 12.2034 14.4263 12.2603C14.5417 12.3379 14.6613 12.4095 14.7846 12.4748C14.9441 12.5312 15.1136 12.5559 15.283 12.5474C15.7465 12.5739 16.0896 12.4104 16.3926 12.2659L16.409 12.2581C16.5674 12.1838 16.7134 12.0903 16.859 11.997C16.9937 11.9107 17.1281 11.8247 17.2714 11.7544V11.7522C17.8811 11.5367 18.3184 11.1759 18.4552 10.8391C18.4896 10.7578 18.5057 10.6704 18.5027 10.5826C18.4996 10.4948 18.4773 10.4087 18.4374 10.3299V10.4718C18.3562 10.3277 18.1893 10.1869 17.9056 10.0396H17.9022C17.814 10.0073 17.7332 9.97822 17.6585 9.95132C17.2343 9.79848 17.0078 9.71686 16.7306 9.53264ZM13.2403 10.8961C13.2025 10.7918 13.2296 10.6997 13.2804 10.6997C13.359 10.7109 13.3961 10.7691 13.4336 10.8281C13.454 10.8601 13.4745 10.8923 13.5019 10.9175C13.5698 10.9629 13.6481 11.0378 13.7379 11.1236C13.7893 11.1727 13.8444 11.2254 13.9035 11.2782C14.2273 11.4948 14.6601 11.7841 15.2009 11.7841C15.7405 11.7841 16.3725 11.4948 16.7564 11.2793C16.8489 11.2169 16.9525 11.1419 17.0585 11.0653C17.201 10.9622 17.3478 10.856 17.4774 10.7734C17.5497 10.7115 17.5905 10.6508 17.624 10.601C17.6709 10.5313 17.7034 10.483 17.7878 10.483C17.8241 10.4874 17.8445 10.4989 17.8514 10.517C17.8718 10.5707 17.7747 10.6827 17.6243 10.8438C17.3775 11.0255 17.1212 11.1947 16.8565 11.3508C16.7538 11.397 16.6472 11.4491 16.5375 11.5035C16.1303 11.7051 15.6775 11.9292 15.202 11.9292C14.5989 11.9292 14.1227 11.64 13.7789 11.4244C13.705 11.3622 13.6373 11.3001 13.5758 11.2436C13.4937 11.1682 13.4226 11.103 13.3628 11.0615C13.2992 11.011 13.2605 10.9518 13.2403 10.8961ZM15.6546 9.63653L15.6537 9.63376V9.60993C15.6471 9.58935 15.6682 9.56444 15.686 9.55577C15.7684 9.50919 15.8863 9.52652 15.9753 9.5601C16.0327 9.5601 16.1155 9.60883 16.1375 9.66696C16.1422 9.67965 16.144 9.69279 16.142 9.70596C16.1353 9.75904 16.0474 9.77746 15.9918 9.77746C15.9503 9.77746 15.918 9.756 15.8844 9.73374C15.8686 9.72321 15.8524 9.7125 15.8349 9.7038C15.8174 9.69787 15.7955 9.69475 15.773 9.69153C15.7228 9.68436 15.6695 9.67675 15.6546 9.63653ZM15.0405 9.63268L15.0407 9.63376C15.0249 9.67832 14.9682 9.68637 14.9156 9.69386C14.894 9.69693 14.8731 9.69991 14.856 9.70526C14.8398 9.71362 14.8245 9.72384 14.8094 9.73397C14.7754 9.75666 14.7421 9.77892 14.7013 9.77892C14.6485 9.77892 14.5677 9.76109 14.5514 9.71579C14.5502 9.71243 14.5493 9.70893 14.5489 9.70526C14.5389 9.63376 14.6468 9.56119 14.7158 9.56119C14.8059 9.5276 14.9205 9.51027 15.004 9.55577C15.0181 9.56229 15.0312 9.57463 15.0363 9.58856C15.0389 9.59547 15.0395 9.60276 15.0373 9.60993V9.6323L15.0405 9.63268Z" fill="#CDD0D2"/>
<path d="M20.4246 16.2673C19.8249 15.1862 18.8925 12.9568 18.493 11.4218C18.2605 11.7447 17.8499 12.0339 17.3303 12.1801H17.3248C17.1903 12.2196 17.0517 12.3033 16.9002 12.3948C16.7773 12.469 16.646 12.5484 16.5014 12.6134C16.2043 12.7586 15.8505 12.9037 15.3932 12.9037C15.355 12.9037 15.3169 12.9008 15.2759 12.8977L15.2697 12.8972C14.8257 12.8972 14.5298 12.7521 14.295 12.5344C14.1813 12.4648 14.0802 12.3777 13.9785 12.2901C13.8712 12.1977 13.7631 12.1046 13.6385 12.0306C13.5849 11.9821 13.4831 11.918 13.4055 11.8692C13.3671 11.8451 13.3347 11.8247 13.317 11.8118C13.2308 13.4034 12.3064 15.3421 11.6372 16.7455C11.503 17.027 11.379 17.287 11.2741 17.5184C10.841 18.5055 10.597 19.5613 10.5542 20.6339C9.42047 19.1639 10.2494 17.2725 10.69 16.459C11.1851 15.5501 11.263 15.3335 11.1439 15.4039C10.6978 16.1113 9.99905 17.2378 9.72645 18.3969C9.58403 19.0036 9.55955 19.6004 9.74313 20.1789C9.9256 20.7487 10.3217 21.2589 11.0227 21.6911C11.9762 22.2609 12.6282 22.8329 13.0121 23.3387C13.396 23.8435 13.5161 24.3093 13.396 24.5986C13.3318 24.7585 13.2066 24.8881 13.0466 24.9604C12.9053 25.0015 12.7317 25.033 12.5292 25.033C12.6492 25.138 12.7523 25.2599 12.8352 25.3948C13.0087 25.5681 13.159 25.7621 13.2825 25.9721C15.2508 27.2764 17.5651 26.7716 19.2341 25.6103C19.2431 25.5801 19.252 25.5499 19.261 25.5198C19.4165 24.9958 19.567 24.489 19.589 24.1469V24.1436C19.628 23.3712 19.6725 22.6964 19.8171 22.119C19.9629 21.5579 20.221 21.1235 20.6994 20.8332C20.7587 20.8241 20.8186 20.8031 20.8773 20.7826C20.8957 20.7762 20.9139 20.7698 20.932 20.7638C20.9368 20.6999 20.9415 20.6724 20.9477 20.6366C20.9487 20.6306 20.9498 20.6243 20.9509 20.6176C21.09 19.7499 21.9033 19.6806 22.9214 20.1139C23.9039 20.5461 24.2744 20.9339 24.1064 21.4398H24.1231C24.1458 21.4398 24.1683 21.4394 24.1907 21.439C24.2352 21.4383 24.2793 21.4376 24.3245 21.4398V21.4864C24.5281 20.8375 24.1042 20.3999 22.9559 19.8214C22.8889 19.8158 22.8235 19.7886 22.7591 19.7617C22.7486 19.7574 22.7382 19.753 22.7278 19.7488C22.8814 19.1357 22.848 18.5193 22.7045 17.9398C22.3918 16.6561 21.5284 15.5317 20.873 14.9533C20.7517 14.9533 20.764 15.0984 21.0099 15.3162C21.6141 15.8567 22.9403 17.8022 22.2216 19.6123C22.0168 19.5625 21.8243 19.5376 21.6508 19.543C21.3759 18.0644 20.7428 16.8457 20.4246 16.2673Z" fill="#CDD0D2"/>
<path d="M21.9067 22.6173C21.307 22.4743 20.9665 21.7767 20.9253 21.1257V21.1278L20.8752 21.1517C20.5047 21.3542 20.2956 21.7139 20.162 22.2176C20.0296 22.7365 19.9862 23.4092 19.9451 24.1826C19.9174 24.6084 19.7677 25.1021 19.6131 25.6119C19.5502 25.8193 19.4865 26.0293 19.4299 26.2386C19.2341 26.959 19.1339 27.6349 19.3676 28.0693L19.3732 28.0726C19.7481 28.8287 20.3857 29.1027 21.1245 29.0453C21.8644 28.989 22.7022 28.5535 23.3899 27.7552C23.9408 27.1079 24.7102 26.748 25.3633 26.4425C25.6481 26.3093 25.9109 26.1864 26.1237 26.0545C26.4719 25.8389 26.6611 25.6937 26.6778 25.4099L26.6811 25.4229V25.4034L26.6778 25.4099C26.6878 25.1564 26.5109 24.7459 25.9701 24.175C25.7013 23.8814 25.6182 23.4974 25.5298 23.0883C25.5249 23.0657 25.52 23.043 25.515 23.0203C25.4193 22.6465 25.3114 22.2869 25.08 22.0713L25.0766 22.0681C24.7762 21.7897 24.4847 21.7702 24.1342 21.7789L23.8995 21.7886C23.5022 22.2566 22.5609 22.7625 21.9067 22.6173Z" fill="#CDD0D2"/>
<path d="M8.90308 21.1787H8.89195C8.57706 21.1787 8.36567 21.325 8.15426 21.5427C8.03604 21.665 7.92642 21.8109 7.81323 21.9616C7.68884 22.1272 7.56014 22.2985 7.41101 22.4505V22.4537H7.40878C7.18783 22.6626 6.92568 22.7584 6.67346 22.8507C6.5764 22.8862 6.4808 22.9211 6.38959 22.9618C6.34817 22.9802 6.30779 22.9974 6.26847 23.0142C5.99823 23.1295 5.77837 23.2232 5.62297 23.5391C5.48277 23.7894 5.51393 24.123 5.57512 24.5574C5.58154 24.5975 5.5883 24.6382 5.59513 24.6794C5.65582 25.0448 5.72217 25.4444 5.60517 25.7696L5.60294 25.7728V25.7761C5.34035 26.4574 5.34258 26.8929 5.46608 27.1085C5.5907 27.3251 5.85996 27.4714 6.27054 27.5429C6.49824 27.5828 6.76102 27.606 7.04486 27.6312C7.78596 27.6968 8.67061 27.7752 9.4494 28.195C10.4229 28.6998 11.3965 28.8438 12.1142 28.6976C12.833 28.5395 13.3025 28.1018 13.3659 27.2959V27.2894C13.4115 26.8138 13.0377 26.2365 12.5548 25.5887C12.4136 25.4073 12.2652 25.2299 12.1192 25.0552C11.7645 24.6311 11.4233 24.2233 11.2318 23.8143L11.2285 23.811L10.216 22.0085C9.86331 21.5546 9.49613 21.2535 9.07776 21.1939C9.01991 21.1841 8.96205 21.1787 8.90308 21.1787Z" fill="#CDD0D2"/>
</svg>
