<svg width="32" height="33" viewBox="0 0 32 33" fill="none" xmlns="http://www.w3.org/2000/svg">
<path d="M24 17.4404C23.5624 18.429 23.3532 18.871 22.7912 19.7446C22.0061 20.9647 20.8976 22.4872 19.5271 22.4976C18.3081 22.5081 17.9934 21.686 16.339 21.6994C14.6847 21.7076 14.34 22.5125 13.1195 22.4999C11.7491 22.4872 10.6998 21.1155 9.91394 19.8977C7.71663 16.4817 7.48468 12.478 8.84272 10.3477C9.80345 8.83722 11.3239 7.95017 12.7515 7.95017C14.2054 7.95017 15.1193 8.76554 16.3215 8.76554C17.4878 8.76554 18.1983 7.94793 19.8798 7.94793C21.1515 7.94793 22.4963 8.65503 23.4571 9.8751C20.3137 11.6328 20.8244 16.2144 24 17.4404ZM18.6037 6.58451C19.2154 5.78333 19.6793 4.65286 19.511 3.5C18.5129 3.56944 17.3459 4.21979 16.6639 5.06204C16.0464 5.82887 15.5342 6.9683 15.7339 8.07039C16.8227 8.10623 17.9495 7.44393 18.6037 6.58451Z" fill="#CDCFD1"/>
<path d="M2.00002 29.4034H3.09794V26.7917C3.09794 26.2766 3.46832 25.9024 3.99745 25.9024C4.50892 25.9024 4.82641 26.1961 4.82641 26.671V29.4033H5.89346V26.7675C5.89346 26.2564 6.25502 25.9023 6.78414 25.9023C7.32207 25.9023 7.62191 26.2001 7.62191 26.7232V29.4033H8.71983V26.4778C8.71983 25.6247 8.11575 25.0573 7.19417 25.0573C6.51954 25.0573 5.96402 25.3873 5.73905 25.9145H5.7126C5.54064 25.3672 5.06884 25.0573 4.40749 25.0573C3.77255 25.0573 3.27871 25.3833 3.07587 25.8783H3.05382V25.1378H2V29.4033L2.00002 29.4034ZM11.1231 28.7152C10.6469 28.7152 10.3294 28.4939 10.3294 28.1438C10.3294 27.8058 10.6337 27.5885 11.1628 27.5563L12.243 27.4959V27.8219C12.243 28.337 11.7448 28.7152 11.1231 28.7152ZM10.7924 29.4718C11.392 29.4718 11.9785 29.1861 12.2475 28.7233H12.2695V29.4034H13.3278V26.4657C13.3278 25.6086 12.5738 25.0493 11.4142 25.0493C10.2236 25.0493 9.47851 25.6207 9.42997 26.4174H10.4485C10.5191 26.0633 10.8498 25.8339 11.3701 25.8339C11.9124 25.8339 12.2431 26.0915 12.2431 26.5381V26.844L11.0085 26.9084C9.87087 26.9728 9.23152 27.4275 9.23152 28.184C9.23152 28.9526 9.88851 29.4717 10.7924 29.4717V29.4718ZM18.1473 26.6589C18.0724 25.7615 17.3095 25.0493 16.075 25.0493C14.7169 25.0493 13.835 25.9064 13.835 27.2705C13.835 28.6549 14.7169 29.4877 16.0838 29.4877C17.2567 29.4877 18.0636 28.86 18.1517 27.9062H17.1155C17.0141 28.3891 16.6525 28.6789 16.097 28.6789C15.4003 28.6789 14.9506 28.1638 14.9506 27.2704C14.9506 26.3932 15.3959 25.862 16.0882 25.862C16.6746 25.862 17.0229 26.204 17.1111 26.6587H18.1473V26.6589ZM21.5383 23.5C19.682 23.5 18.5179 24.6549 18.5179 26.502C18.5179 28.3491 19.6819 29.5 21.5383 29.5C23.3902 29.5 24.5543 28.3491 24.5543 26.502C24.5543 24.6549 23.3903 23.5 21.5383 23.5ZM21.5383 24.3853C22.6715 24.3853 23.3946 25.2062 23.3946 26.502C23.3946 27.7937 22.6715 28.6147 21.5383 28.6147C20.4007 28.6147 19.682 27.7937 19.682 26.502C19.682 25.2062 20.4007 24.3853 21.5383 24.3853ZM25.0174 27.7696C25.0659 28.8401 26.0272 29.5 27.4911 29.5C29.0299 29.5 30 28.8078 30 27.7052C30 26.84 29.4532 26.3531 28.1613 26.0835L27.4294 25.9306C26.6489 25.7616 26.327 25.5363 26.327 25.1499C26.327 24.6671 26.8121 24.3451 27.5308 24.3451C28.2583 24.3451 28.7565 24.6711 28.8095 25.2143H29.8942C29.8677 24.1922 28.9418 23.5 27.5396 23.5C26.1551 23.5 25.1718 24.1962 25.1718 25.2264C25.1718 26.0553 25.7274 26.5704 26.9002 26.8159L27.7247 26.993C28.5272 27.166 28.8535 27.4075 28.8535 27.826C28.8535 28.3089 28.32 28.6549 27.5528 28.6549C26.7768 28.6549 26.1904 28.3049 26.1198 27.7696H25.0175H25.0174Z" fill="#CDCFD1"/>
</svg>
