<svg width="32" height="32" viewBox="0 0 32 32" fill="none" xmlns="http://www.w3.org/2000/svg">
<path d="M24 16.9404C23.5624 17.929 23.3532 18.371 22.7912 19.2446C22.0061 20.4647 20.8976 21.9872 19.5271 21.9976C18.3081 22.0081 17.9934 21.186 16.339 21.1994C14.6847 21.2076 14.34 22.0125 13.1195 21.9999C11.7491 21.9872 10.6998 20.6155 9.91394 19.3977C7.71663 15.9817 7.48468 11.978 8.84272 9.84774C9.80345 8.33722 11.3239 7.45017 12.7515 7.45017C14.2054 7.45017 15.1193 8.26554 16.3215 8.26554C17.4878 8.26554 18.1983 7.44793 19.8798 7.44793C21.1515 7.44793 22.4963 8.15503 23.4571 9.3751C20.3137 11.1328 20.8244 15.7144 24 16.9404ZM18.6037 6.08451C19.2154 5.28333 19.6793 4.15286 19.511 3C18.5129 3.06944 17.3459 3.71979 16.6639 4.56204C16.0464 5.32887 15.5342 6.4683 15.7339 7.57039C16.8227 7.60623 17.9495 6.94393 18.6037 6.08451Z" fill="#CDCFD1"/>
<path d="M2.00002 28.9034H3.09794V26.2917C3.09794 25.7766 3.46832 25.4024 3.99745 25.4024C4.50892 25.4024 4.82641 25.6961 4.82641 26.171V28.9033H5.89346V26.2675C5.89346 25.7564 6.25502 25.4023 6.78414 25.4023C7.32207 25.4023 7.62191 25.7001 7.62191 26.2232V28.9033H8.71983V25.9778C8.71983 25.1247 8.11575 24.5573 7.19417 24.5573C6.51954 24.5573 5.96402 24.8873 5.73905 25.4145H5.7126C5.54064 24.8672 5.06884 24.5573 4.40749 24.5573C3.77255 24.5573 3.27871 24.8833 3.07587 25.3783H3.05382V24.6378H2V28.9033L2.00002 28.9034ZM11.1231 28.2152C10.6469 28.2152 10.3294 27.9939 10.3294 27.6438C10.3294 27.3058 10.6337 27.0885 11.1628 27.0563L12.243 26.9959V27.3219C12.243 27.837 11.7448 28.2152 11.1231 28.2152V28.2152ZM10.7924 28.9718C11.392 28.9718 11.9785 28.6861 12.2475 28.2233H12.2695V28.9034H13.3278V25.9657C13.3278 25.1086 12.5738 24.5493 11.4142 24.5493C10.2236 24.5493 9.47851 25.1207 9.42997 25.9174H10.4485C10.5191 25.5633 10.8498 25.3339 11.3701 25.3339C11.9124 25.3339 12.2431 25.5915 12.2431 26.0381V26.344L11.0085 26.4084C9.87087 26.4728 9.23152 26.9275 9.23152 27.684C9.23152 28.4526 9.88851 28.9717 10.7924 28.9717L10.7924 28.9718ZM18.1473 26.1589C18.0724 25.2615 17.3095 24.5493 16.075 24.5493C14.7169 24.5493 13.835 25.4064 13.835 26.7705C13.835 28.1549 14.7169 28.9877 16.0838 28.9877C17.2567 28.9877 18.0636 28.36 18.1517 27.4062H17.1155C17.0141 27.8891 16.6525 28.1789 16.097 28.1789C15.4003 28.1789 14.9506 27.6638 14.9506 26.7704C14.9506 25.8932 15.3959 25.362 16.0882 25.362C16.6746 25.362 17.0229 25.704 17.1111 26.1587H18.1473L18.1473 26.1589ZM21.5383 23C19.682 23 18.5179 24.1549 18.5179 26.002C18.5179 27.8491 19.6819 29 21.5383 29C23.3902 29 24.5543 27.8491 24.5543 26.002C24.5543 24.1549 23.3903 23 21.5383 23ZM21.5383 23.8853C22.6715 23.8853 23.3946 24.7062 23.3946 26.002C23.3946 27.2937 22.6715 28.1147 21.5383 28.1147C20.4007 28.1147 19.682 27.2937 19.682 26.002C19.682 24.7062 20.4007 23.8853 21.5383 23.8853ZM25.0174 27.2696C25.0659 28.3401 26.0272 29 27.4911 29C29.0299 29 30 28.3078 30 27.2052C30 26.34 29.4532 25.8531 28.1613 25.5835L27.4294 25.4306C26.6489 25.2616 26.327 25.0363 26.327 24.6499C26.327 24.1671 26.8121 23.8451 27.5308 23.8451C28.2583 23.8451 28.7565 24.1711 28.8095 24.7143H29.8942C29.8677 23.6922 28.9418 23 27.5396 23C26.1551 23 25.1718 23.6962 25.1718 24.7264C25.1718 25.5553 25.7274 26.0704 26.9002 26.3159L27.7247 26.493C28.5272 26.666 28.8535 26.9075 28.8535 27.326C28.8535 27.8089 28.32 28.1549 27.5528 28.1549C26.7768 28.1549 26.1904 27.8049 26.1198 27.2696H25.0175L25.0174 27.2696Z" fill="#CDCFD1"/>
</svg>
