<svg xmlns="http://www.w3.org/2000/svg" width="16" height="16" viewBox="0 0 16 16"><defs><style>.a{fill:#747474;}</style></defs><title>look_off</title><path class="a" d="M8,3a8.56,8.56,0,0,0-1.82.18L8,5a3,3,0,0,1,3,3l2.86,2.86A8.59,8.59,0,0,0,16,8,8.61,8.61,0,0,0,8,3Z"/><path class="a" d="M10.55,9.55,9.43,8.43A1.48,1.48,0,0,0,9.5,8,1.5,1.5,0,0,0,8,6.5a1.48,1.48,0,0,0-.43.07L6.45,5.45,4.63,3.63,2,1,1,2,3.3,4.3A8.54,8.54,0,0,0,0,8a8.61,8.61,0,0,0,8,5,8.56,8.56,0,0,0,3.37-.63L13,14l1-1-1.29-1.29ZM8,11A3,3,0,0,1,5,8a2.94,2.94,0,0,1,.45-1.55L6.57,7.57A1.48,1.48,0,0,0,6.5,8,1.5,1.5,0,0,0,8,9.5a1.48,1.48,0,0,0,.43-.07l1.12,1.12A2.94,2.94,0,0,1,8,11Z"/></svg>