<svg width="22" height="22" viewBox="0 0 22 22" fill="none" xmlns="http://www.w3.org/2000/svg">
<g clip-path="url(#clip0)">
<path d="M14.0598 3.57085C14.7775 2.64548 15.3206 1.33649 15.124 0C13.9512 0.0811245 12.5803 0.83187 11.7814 1.80949C11.0527 2.69636 10.4532 4.0136 10.6869 5.29372C11.9684 5.33359 13.2925 4.56497 14.0598 3.57085Z" fill="#161823"/>
<path d="M19.7591 7.38103C18.633 5.96891 17.0504 5.14941 15.5558 5.14941C13.5827 5.14941 12.748 6.09403 11.3772 6.09403C9.96368 6.09403 8.88981 5.15216 7.18345 5.15216C5.50733 5.15216 3.7226 6.17653 2.59098 7.92827C1.00011 10.395 1.27236 15.0329 3.85047 18.9832C4.77309 20.3967 6.00508 21.9862 7.61657 21.9999C9.05069 22.0137 9.45494 21.0801 11.3978 21.0704C13.3407 21.0594 13.7092 22.0123 15.1405 21.9972C16.7534 21.9848 18.0528 20.2235 18.9754 18.81C19.6368 17.7966 19.8829 17.2865 20.3957 16.1425C16.6654 14.7221 16.0673 9.41739 19.7591 7.38103Z" fill="#161823"/>
</g>
<defs>
<clipPath id="clip0">
<rect width="22" height="22" fill="white"/>
</clipPath>
</defs>
</svg>
