<svg width="16" height="16" viewBox="0 0 16 16" fill="none" xmlns="http://www.w3.org/2000/svg">
<path d="M2 9.5H13C13.2761 9.5 13.5 9.72386 13.5 10V15.5H1.5V10C1.5 9.72386 1.72386 9.5 2 9.5Z" fill="white" stroke="#333333"/>
<path fill-rule="evenodd" clip-rule="evenodd" d="M13.0617 11.9995C13.3867 11.9994 13.7074 11.8976 14 11.7017V8.95598C13.9954 8.55924 14 7.99986 14 7.99986L10.3939 7.99995H7.5H4.60609H1.71217C1.24101 7.98933 1 7.99989 1 7.99989V11.7017C1.30062 11.8976 1.62869 11.9993 1.96087 11.9995C2.3312 12.0045 2.69624 11.8775 3.02091 11.6304C3.34558 11.3834 3.61896 11.0248 3.81478 10.589C4.01355 11.016 4.28635 11.3671 4.60824 11.6102C4.93013 11.8533 5.29084 11.9807 5.65739 11.9807C6.02395 11.9807 6.38466 11.8533 6.70654 11.6102C7.02843 11.3671 7.30123 11.016 7.5 10.589C7.69825 11.0193 7.9715 11.3735 8.29452 11.6189C8.61754 11.8643 8.97994 11.9929 9.34826 11.9929C9.71659 11.9929 10.079 11.8643 10.402 11.6189C10.725 11.3735 10.9983 11.0193 11.1965 10.589C11.3933 11.0271 11.6685 11.3872 11.9953 11.6343C12.3221 11.8815 12.6895 12.0073 13.0617 11.9995Z" fill="#BDECFF"/>
<path d="M4.5291 7.49707H1.40051C0.89233 7.49707 0.5 7.85477 0.5 8.387V11.7019C1.6267 12.4361 3.32859 11.671 3.81471 10.5891C4.63573 12.3528 6.6789 12.3528 7.49992 10.5891C8.2736 12.2686 10.3661 12.3916 11.1964 10.5891C11.6832 11.6725 13.4103 12.4277 14.4946 11.7019V8.54013C14.4946 7.99045 13.9962 7.51052 13.4285 7.51052H10.5104" stroke="#333333" stroke-linecap="round" stroke-linejoin="round"/>
<path fill-rule="evenodd" clip-rule="evenodd" d="M7.5 9C7.77614 9 8 8.77614 8 8.5V5.5C8 5.22386 7.77614 5 7.5 5V5V5C7.22386 5 7 5.22386 7 5.5V8.5C7 8.77614 7.22386 9 7.5 9V9Z" fill="#333333"/>
<path fill-rule="evenodd" clip-rule="evenodd" d="M7.43057 5.52381C9.43151 5.52381 7.8535 2.0286 7.49919 1.35205C7.10297 2.0286 5.48634 5.33795 7.43057 5.52381Z" fill="url(#paint0_linear_125_5981)" stroke="#333333"/>
<defs>
<linearGradient id="paint0_linear_125_5981" x1="6.49219" y1="1.18909" x2="9.75554" y2="2.76013" gradientUnits="userSpaceOnUse">
<stop stop-color="#FFC671"/>
<stop offset="0.59375" stop-color="#FF7541"/>
<stop offset="1" stop-color="#FF6F3D"/>
</linearGradient>
</defs>
</svg>
