<?xml version="1.0" encoding="utf-8"?>
<!-- Generator: Adobe Illustrator 22.1.0, SVG Export Plug-In . SVG Version: 6.00 Build 0)  -->
<svg version="1.1" id="_x35_aabf23803732_xA0_Image_1_"
	 xmlns="http://www.w3.org/2000/svg" xmlns:xlink="http://www.w3.org/1999/xlink" x="0px" y="0px" viewBox="0 0 61 13"
	 style="enable-background:new 0 0 61 13;" xml:space="preserve">
<style type="text/css">
	.st0{fill:#0066B2;}
	.st1{fill:#ED2E53;}
</style>
<g>
	<g>
		<path class="st0" d="M9.1,2.3c-2.3,0-3.2,1-3.2,3.5c0,2.6,0.9,3.6,3.2,3.6c2.3,0,3.2-1,3.2-3.6C12.3,3.3,11.4,2.3,9.1,2.3
			 M9.1,7.9C8,7.9,7.7,7.7,7.7,5.9c0-1.9,0.4-2.1,1.4-2.1c1,0,1.4,0.2,1.4,2.1C10.5,7.7,10.2,7.9,9.1,7.9"/>
		<path class="st1" d="M39.7,2.5h-4.9c0,0-0.1,0-0.1,0.1c-0.1,2.2-0.5,4.6-1.1,6.6c0,0,0,0.1,0,0.1c0,0,0,0,0.1,0h1.7
			c0,0,0.1,0,0.1-0.1c0.5-1.5,0.8-3.5,1-5.1H38v5.1c0,0,0,0.1,0.1,0.1h1.6c0,0,0.1,0,0.1-0.1L39.7,2.5C39.8,2.5,39.8,2.5,39.7,2.5"
			/>
		<path class="st1" d="M60.5,2.5h-1.6c0,0-0.1,0-0.1,0.1v5.1c-0.4,0.1-0.7,0.1-1.1,0.1c-1.1,0-1.3-0.3-1.3-1.7V2.6
			c0,0,0-0.1-0.1-0.1h-1.6c0,0-0.1,0-0.1,0.1v3.7c0,2.3,0.8,3.2,2.8,3.2c1.1,0,2.4-0.3,3.1-0.6c0,0,0.1,0,0.1-0.1L60.5,2.5
			C60.6,2.5,60.5,2.5,60.5,2.5"/>
		<path class="st1" d="M26.5,2.5h-1.6c0,0-0.1,0-0.1,0.1c-0.3,1-0.8,2.7-1.5,4.5l-1.6-4.5c0,0,0-0.1-0.1-0.1H20c0,0-0.1,0-0.1,0
			c0,0,0,0.1,0,0.1l2.4,6.7c-0.3,0.5-0.5,0.9-0.7,1.4c-0.2,0.3-0.3,0.6-0.5,0.9c0,0,0,0.1,0,0.1c0,0,0,0,0.1,0H23c0,0,0.1,0,0.1,0
			c0.3-0.6,0.7-1.4,1-2.2c1-2.4,1.9-4.8,2.5-6.9C26.6,2.6,26.6,2.6,26.5,2.5C26.6,2.5,26.6,2.5,26.5,2.5"/>
		<path class="st0" d="M18.7,7.7C18.7,7.6,18.7,7.6,18.7,7.7c-0.1-0.1-0.1-0.1-0.1-0.1c-0.4,0.1-1.1,0.3-1.6,0.3
			c-1.1,0-1.6-0.3-1.6-2c0-1.4,0.2-2,1.6-2c0.4,0,0.8,0.1,1.3,0.2c0,0,0.1,0,0.1,0c0.2-0.3,0.4-0.8,0.7-1.3c0,0,0-0.1,0-0.1
			c0,0,0,0-0.1,0c-0.7-0.2-1.4-0.3-2.1-0.3c-2.3,0-3.4,1.1-3.4,3.6c0,2.5,1,3.6,3.4,3.6c0.6,0,1.7-0.1,2.3-0.3c0,0,0.1-0.1,0.1-0.1
			L18.7,7.7z"/>
		<path class="st1" d="M32.4,7.7C32.4,7.6,32.3,7.6,32.4,7.7c-0.1-0.1-0.1-0.1-0.1-0.1c-0.4,0.1-1.1,0.3-1.6,0.3
			c-1.1,0-1.6-0.3-1.6-2c0-1.4,0.2-2,1.6-2c0.4,0,0.8,0.1,1.3,0.2c0,0,0.1,0,0.1,0c0.2-0.3,0.4-0.8,0.7-1.3c0,0,0-0.1,0-0.1
			c0,0,0,0-0.1,0c-0.7-0.2-1.4-0.3-2.1-0.3c-2.3,0-3.4,1.1-3.4,3.6c0,2.5,1,3.6,3.4,3.6c0.6,0,1.7-0.1,2.3-0.3c0,0,0.1-0.1,0.1-0.1
			L32.4,7.7z"/>
		<path class="st1" d="M47.6,2.5H46c0,0-0.1,0-0.1,0.1c-0.3,1-0.8,2.7-1.5,4.5l-1.6-4.5c0,0,0-0.1-0.1-0.1h-1.6c0,0-0.1,0-0.1,0
			c0,0,0,0.1,0,0.1l2.4,6.7c-0.3,0.5-0.5,0.9-0.7,1.4c-0.2,0.3-0.3,0.6-0.5,0.9c0,0,0,0.1,0,0.1c0,0,0,0,0.1,0h1.8c0,0,0.1,0,0.1,0
			c0.3-0.6,0.7-1.4,1-2.2c1-2.4,1.9-4.7,2.5-6.9C47.7,2.6,47.7,2.6,47.6,2.5C47.7,2.5,47.6,2.5,47.6,2.5"/>
		<path class="st1" d="M53.6,2.5h-4.7c0,0-0.1,0-0.1,0.1v6.6c0,0,0,0.1,0.1,0.1h1.6c0,0,0.1,0,0.1-0.1V4.1H53c0,0,0.1,0,0.1-0.1
			c0.2-0.4,0.4-0.9,0.6-1.4C53.7,2.6,53.7,2.6,53.6,2.5C53.7,2.5,53.7,2.5,53.6,2.5"/>
		<path class="st0" d="M5.3,2.5H0.5c0,0-0.1,0-0.1,0.1v6.6c0,0,0,0.1,0.1,0.1h1.6c0,0,0.1,0,0.1-0.1V4.1h2.5c0,0,0.1,0,0.1-0.1
			c0.2-0.4,0.4-0.9,0.6-1.4C5.3,2.6,5.3,2.6,5.3,2.5C5.3,2.5,5.3,2.5,5.3,2.5"/>
	</g>
</g>
</svg>
