<?xml version="1.0" encoding="utf-8"?>
<!-- Generator: Adobe Illustrator 22.1.0, SVG Export Plug-In . SVG Version: 6.00 Build 0)  -->
<svg version="1.1" id="bnr_x5F_logo_x5F_2_xA0_Image_1_"
	 xmlns="http://www.w3.org/2000/svg" xmlns:xlink="http://www.w3.org/1999/xlink" x="0px" y="0px" viewBox="0 0 61 13"
	 style="enable-background:new 0 0 61 13;" xml:space="preserve">
<style type="text/css">
	.st0{fill:#F89C0E;}
	.st1{fill:#228FDE;}
</style>
<path class="st0" d="M8.7,6.8C8.6,5.4,7.6,4.6,6.4,4.6l0,0C5,4.6,4.2,5.7,4.2,6.9c0,1.4,1,2.3,2.2,2.3c1.4,0,2.2-1,2.3-2.2V6.8
	L8.7,6.8z M6.4,3.4c0.9,0,1.8,0.4,2.4,1.1l0,0C8.8,4.2,9,4,9.3,4h0.1c0.5,0,0.5,0.4,0.5,0.6v4.8c0,0.3,0.3,0.5,0.5,0.3
	c0.8-0.8,1.7-4.1-0.5-6c-2-1.8-4.7-1.5-6.2-0.5c-1.4,1-2.4,3.3-1.4,5.5c1,2.4,4,3.1,5.8,2.4c0.9-0.4,1.3,0.8,0.4,1.2
	c-1.4,0.6-5.3,0.5-7.1-2.6C0,7.6,0.1,3.8,3.4,1.9c2.5-1.5,5.8-1.1,7.8,1c2.1,2.2,2,6.2-0.1,7.8c-0.9,0.7-2.3,0-2.3-1V9.4
	c-0.6,0.6-1.5,1-2.4,1c-1.8,0-3.5-1.6-3.5-3.4C2.9,5,4.6,3.4,6.4,3.4"/>
<path class="st1" d="M41.3,9.8c-1,0-2-0.8-2-2v-6c0-0.5-0.4-0.8-0.8-0.8c-0.5,0-0.8,0.4-0.8,0.8v6c0,2,1.7,3.6,3.6,3.6
	c0.6,0,0.8-0.5,0.8-0.9C42.1,10.2,41.9,9.8,41.3,9.8 M29.4,9.8c-1.5,0-2.7-1.2-2.7-2.6c0-1.5,1.2-2.7,2.7-2.7s2.7,1.2,2.7,2.7
	C32.1,8.6,30.9,9.8,29.4,9.8 M32.8,2.9c-0.5,0-0.8,0.4-0.8,0.7v0.3c-0.7-0.6-1.7-1-2.7-1c-2.2,0-4.2,1.9-4.2,4.3
	c0,2.2,1.9,4.2,4.2,4.2c0.9,0,2-0.4,2.7-1v0.2c0,0.4,0.3,0.8,0.8,0.8c0.6,0,0.8-0.5,0.8-0.8V3.7C33.7,3.4,33.3,2.9,32.8,2.9
	 M35.7,2.9c-0.5,0-0.8,0.4-0.8,0.8v6.9c0,0.5,0.4,0.8,0.8,0.8c0.5,0,0.8-0.4,0.8-0.8V3.8C36.5,3.3,36.1,2.9,35.7,2.9 M21.7,2.9
	c-1,0-1.8,0.6-2.3,1c-0.5-0.6-1.2-0.9-1.9-1c-0.7,0-1.4,0.2-1.9,0.6c-0.2-0.4-0.4-0.6-0.7-0.6c-0.4,0-0.8,0.3-0.8,0.9s0,6.9,0,6.9
	c0,0.4,0.3,0.8,0.8,0.8s0.8-0.4,0.8-0.8V5.5c0-0.5,0.8-1.1,1.6-1.1c0.5,0,1,0.5,1,1.2v5c0,0.4,0.4,0.8,0.8,0.8
	c0.5,0,0.8-0.4,0.8-0.8v-5c0-0.6,0.9-1.1,1.6-1.1c0.5,0,1,0.6,1,1.1v5c0,0.4,0.4,0.8,0.9,0.8c0.4,0,0.8-0.3,0.8-0.8v-5
	C24.3,3.7,22.5,2.9,21.7,2.9 M36.5,1.6c0,0.3-0.3,0.6-0.8,0.6s-0.8-0.3-0.8-0.7V1.1c0-0.3,0.3-0.7,0.8-0.7c0.6,0,0.8,0.4,0.8,0.7
	V1.6z"/>
<path class="st0" d="M59.7,2.9c-0.5,0-0.8,0.4-0.8,0.8v3.5c0,1.3-1.1,2.7-2.7,2.7c-1.3,0-2.7-1.1-2.7-2.6V3.7c0-0.4-0.3-0.8-0.8-0.8
	c-0.4,0-0.8,0.3-0.8,0.8v3.5c0,2.3,2,4.2,4.2,4.2c2.4,0,4.3-2.1,4.3-4.2V3.7C60.5,3.3,60.2,2.9,59.7,2.9 M50.2,2.9
	c-2.3,0-4.2,2-4.2,4.3v3.5c0,0.5,0.4,0.8,0.8,0.8c0.5,0,0.8-0.3,0.8-0.8V7.1c0-1.3,1.1-2.7,2.6-2.6c0.5,0,0.8-0.4,0.8-0.8
	C51,3.3,50.8,2.9,50.2,2.9 M44.8,10.8c0,0.3-0.3,0.7-0.8,0.7s-0.8-0.4-0.8-0.7v-0.6c0-0.3,0.3-0.7,0.8-0.7c0.6,0,0.8,0.4,0.8,0.7
	V10.8z"/>
</svg>
