<svg width="20" height="320" viewBox="0 0 20 320" fill="none" xmlns="http://www.w3.org/2000/svg">
<path fill-rule="evenodd" clip-rule="evenodd" d="M3.06112 5.65497C3.02158 5.76252 3 5.87874 3 6V14C3 14.1258 3.02322 14.2461 3.06562 14.357C3.09356 14.3135 3.13032 14.2735 3.17568 14.2394L7.70628 10.6639C7.87159 10.5335 8.10451 10.5324 8.27102 10.6613C8.50656 10.8437 8.50838 11.1987 8.27472 11.3835L3.8079 14.9159C3.78358 14.9342 3.75785 14.95 3.73111 14.9634C3.81667 14.9873 3.90685 15 4 15H16C16.0932 15 16.1833 14.9873 16.2689 14.9634C16.2421 14.95 16.2164 14.9342 16.1921 14.9159L11.7249 11.3832C11.4914 11.1986 11.4933 10.8438 11.7286 10.6616C11.895 10.5328 12.1277 10.5339 12.2929 10.6642L16.8243 14.2394C16.8697 14.2735 16.9064 14.3135 16.9344 14.357C16.9768 14.2461 17 14.1258 17 14V6C17 5.87874 16.9784 5.76252 16.9389 5.65497C16.9104 5.70129 16.8722 5.74377 16.8243 5.77981L10.3145 10.9159C10.1169 11.0647 9.82716 11.0502 9.64898 10.8883L3.17568 5.77981C3.12785 5.74377 3.08957 5.70129 3.06112 5.65497ZM3.70591 5.04394C3.74174 5.05953 3.77602 5.07929 3.8079 5.10331L10 10L16.1921 5.10331C16.224 5.07929 16.2583 5.05952 16.2941 5.04394C16.2011 5.01538 16.1023 5 16 5H4C3.89765 5 3.79889 5.01538 3.70591 5.04394Z" fill="#BDBDBD"/>
<path fill-rule="evenodd" clip-rule="evenodd" d="M7 43C6.44772 43 6 43.4477 6 44V56C6 56.5523 6.44772 57 7 57H13C13.5523 57 14 56.5523 14 56V44C14 43.4477 13.5523 43 13 43H7ZM8.5 44C8.22386 44 8 44.2239 8 44.5C8 44.7761 8.22386 45 8.5 45H11.5C11.7761 45 12 44.7761 12 44.5C12 44.2239 11.7761 44 11.5 44H8.5ZM10 56C10.5523 56 11 55.5523 11 55C11 54.4477 10.5523 54 10 54C9.44772 54 9 54.4477 9 55C9 55.5523 9.44772 56 10 56ZM7 46H13V53H7V46Z" fill="#BDBDBD"/>
<path fill-rule="evenodd" clip-rule="evenodd" d="M5 35C5 35.5523 5.44772 36 6 36H14C14.5523 36 15 35.5523 15 35V33.1926C15 33.0654 14.9757 32.9393 14.9285 32.8212L13.2514 28.6286C13.0996 28.249 12.7319 28 12.323 28H12V27H11V28H9V27H8V28H7.67703C7.26813 28 6.90042 28.249 6.74856 28.6286L5.07152 32.8212C5.02428 32.9393 5 33.0654 5 33.1926V35ZM8.5 31C8.77614 31 9 30.7761 9 30.5C9 30.2239 8.77614 30 8.5 30C8.22386 30 8 30.2239 8 30.5C8 30.7761 8.22386 31 8.5 31ZM10 31C10.2761 31 10.5 30.7761 10.5 30.5C10.5 30.2239 10.2761 30 10 30C9.72386 30 9.5 30.2239 9.5 30.5C9.5 30.7761 9.72386 31 10 31ZM12 30.5C12 30.7761 11.7761 31 11.5 31C11.2239 31 11 30.7761 11 30.5C11 30.2239 11.2239 30 11.5 30C11.7761 30 12 30.2239 12 30.5ZM8.5 32.5C8.77614 32.5 9 32.2761 9 32C9 31.7239 8.77614 31.5 8.5 31.5C8.22386 31.5 8 31.7239 8 32C8 32.2761 8.22386 32.5 8.5 32.5ZM10.5 32C10.5 32.2761 10.2761 32.5 10 32.5C9.72386 32.5 9.5 32.2761 9.5 32C9.5 31.7239 9.72386 31.5 10 31.5C10.2761 31.5 10.5 31.7239 10.5 32ZM11.5 32.5C11.7761 32.5 12 32.2761 12 32C12 31.7239 11.7761 31.5 11.5 31.5C11.2239 31.5 11 31.7239 11 32C11 32.2761 11.2239 32.5 11.5 32.5ZM9 33.5C9 33.7761 8.77614 34 8.5 34C8.22386 34 8 33.7761 8 33.5C8 33.2239 8.22386 33 8.5 33C8.77614 33 9 33.2239 9 33.5ZM10 34C10.2761 34 10.5 33.7761 10.5 33.5C10.5 33.2239 10.2761 33 10 33C9.72386 33 9.5 33.2239 9.5 33.5C9.5 33.7761 9.72386 34 10 34ZM12 33.5C12 33.7761 11.7761 34 11.5 34C11.2239 34 11 33.7761 11 33.5C11 33.2239 11.2239 33 11.5 33C11.7761 33 12 33.2239 12 33.5Z" fill="#BDBDBD"/>
<path d="M10 25C7 25 7 27 7 27C7 27 7 27 7 27V27C7 27.5523 6.55228 28 6 28H5C4.44772 28 4 27.5523 4 27V26.2361C4 26.0808 4.03585 25.9274 4.13269 25.806C4.53352 25.3038 5.96291 24 10 24C14.0371 24 15.4665 25.3038 15.8673 25.806C15.9642 25.9274 16 26.0808 16 26.2361V27C16 27.5523 15.5523 28 15 28H14C13.4477 28 13 27.5523 13 27V27C13 27 13 27 13 27C13 27 13 25 10 25Z" fill="#BDBDBD"/>
<path d="M16.426 91.0169C16.573 90.0882 16.5169 89.1386 16.2615 88.2336C16.0062 87.3286 15.5576 86.4897 14.9469 85.7748C14.3361 85.0598 13.5775 84.4858 12.7235 84.0922C11.8695 83.6987 10.9403 83.495 10 83.4951C9.65949 83.4951 9.31949 83.5214 8.98307 83.574C8.22954 83.1153 7.34376 82.923 6.46785 83.028C5.59195 83.1329 4.77669 83.5291 4.1529 84.1529C3.52911 84.7767 3.13295 85.5919 3.02797 86.4679C2.923 87.3438 3.11531 88.2295 3.57403 88.9831C3.52165 89.3195 3.49527 89.6595 3.49513 90C3.49646 90.9399 3.70116 91.8683 4.09519 92.7216C4.48921 93.5749 5.06323 94.3328 5.77783 94.9433C6.49243 95.5538 7.33068 96.0024 8.23502 96.2583C9.13937 96.5142 10.0884 96.5714 11.0169 96.426C11.7705 96.8847 12.6562 97.077 13.5321 96.972C14.4081 96.8671 15.2233 96.4709 15.8471 95.8471C16.4709 95.2233 16.8671 94.4081 16.972 93.5321C17.077 92.6562 16.8847 91.7705 16.426 91.0169ZM13.0859 92.9631C12.7803 93.3827 12.3603 93.7054 11.8761 93.8924C11.2792 94.1274 10.6413 94.2406 10 94.2255C9.25736 94.2537 8.51933 94.0971 7.85217 93.7697C7.45959 93.56 7.12292 93.2594 6.8703 92.893C6.63765 92.5804 6.50612 92.2042 6.49333 91.8147C6.492 91.7146 6.51158 91.6153 6.55083 91.5232C6.59008 91.4312 6.64813 91.3483 6.72127 91.2799C6.80049 91.2042 6.89401 91.1451 6.99637 91.1059C7.09873 91.0668 7.20787 91.0484 7.3174 91.052C7.49695 91.0486 7.67154 91.111 7.80833 91.2273C7.97228 91.3527 8.10442 91.5149 8.19407 91.7007C8.28872 91.9272 8.40934 92.142 8.5535 92.3407C8.69502 92.5222 8.87854 92.6666 9.08827 92.7615C9.3653 92.8788 9.66419 92.9356 9.96493 92.9281C10.4099 92.9484 10.8504 92.8322 11.2273 92.5949C11.3717 92.5106 11.492 92.3904 11.5764 92.2461C11.6609 92.1018 11.7067 91.9381 11.7095 91.7709C11.7145 91.6536 11.6944 91.5367 11.6506 91.4278C11.6067 91.3189 11.5401 91.2207 11.4553 91.1397C11.2538 90.9847 11.0201 90.8768 10.7715 90.8241C10.4909 90.7364 10.1169 90.6429 9.64933 90.5435C9.10636 90.4333 8.57506 90.2719 8.06257 90.0614C7.666 89.8988 7.3164 89.6396 7.04563 89.3074C6.78733 88.9648 6.65428 88.544 6.66867 88.1152C6.66341 87.6781 6.80546 87.2519 7.07193 86.9054C7.35637 86.5199 7.746 86.2246 8.19407 86.055C8.75717 85.8579 9.35092 85.7629 9.9474 85.7745C10.4216 85.7646 10.8945 85.8266 11.3501 85.9586C11.7158 86.0554 12.0605 86.2189 12.367 86.4407C12.6033 86.6175 12.8004 86.8414 12.9456 87.0982C13.062 87.3045 13.1252 87.5365 13.1297 87.7733C13.1287 87.8764 13.1073 87.9783 13.0667 88.0731C13.026 88.1679 12.967 88.2537 12.893 88.3256C12.8192 88.4048 12.7295 88.4676 12.6298 88.5099C12.5301 88.5522 12.4227 88.573 12.3144 88.571C12.1408 88.5829 11.9689 88.5298 11.8322 88.422C11.6916 88.2833 11.5733 88.1236 11.4816 87.9486C11.3487 87.6737 11.1572 87.4313 10.9205 87.2385C10.6054 87.0449 10.2372 86.956 9.8685 86.9843C9.47808 86.9829 9.09626 87.099 8.77267 87.3174C8.65328 87.3801 8.55241 87.473 8.48012 87.5868C8.40782 87.7006 8.36663 87.8314 8.36063 87.9661C8.35838 88.1129 8.40806 88.2557 8.5009 88.3694C8.60685 88.495 8.73835 88.5966 8.88663 88.6675C9.0462 88.7486 9.21364 88.8132 9.38633 88.8603L10.263 89.0707C10.7539 89.1759 11.201 89.2928 11.6043 89.4214C11.9459 89.5257 12.2729 89.673 12.5774 89.8597C12.8546 90.0379 13.0835 90.2818 13.2437 90.5698C13.4115 90.8944 13.493 91.2567 13.4804 91.6218C13.4952 92.0983 13.3603 92.5674 13.0946 92.9631H13.0859Z" fill="#BDBDBD"/>
<path d="M13.9285 165.007C13.9285 166.116 13.0011 167.014 11.857 167.014C10.7129 167.014 9.78549 166.116 9.78549 165.007C9.78549 163.899 10.7129 163 11.857 163C13.0011 163 13.9285 163.899 13.9285 165.007Z" fill="#BDBDBD"/>
<path d="M7.77681 169.376C7.8198 169.335 7.86563 169.298 7.91369 169.265L9.60778 167.623C10.0123 167.231 10.6681 167.231 11.0726 167.623L11.48 168.018H14.9642C15.5363 168.018 16 168.467 16 169.022C16 169.576 15.5363 170.025 14.9642 170.025H11.5232L10.8689 170.659L15.6446 175.287C16.0491 175.679 16.0491 176.314 15.6446 176.706C15.2401 177.098 14.5843 177.098 14.1798 176.706L10.4919 173.133L10.3402 173.28C10.0103 173.599 9.51335 173.658 9.12182 173.456L5.76814 176.706C5.36365 177.098 4.70785 177.098 4.30336 176.706C3.89888 176.314 3.89888 175.679 4.30336 175.287L7.62513 172.068L7.04443 171.505C6.63994 171.113 6.63994 170.478 7.04443 170.086L7.77681 169.376Z" fill="#BDBDBD"/>
<path d="M15 148C15 150.761 12.7614 153 10 153C7.23858 153 5 150.761 5 148C5 145.239 7.23858 143 10 143C12.7614 143 15 145.239 15 148ZM6 148C6 150.209 7.79086 152 10 152C12.2091 152 14 150.209 14 148C14 145.791 12.2091 144 10 144C7.79086 144 6 145.791 6 148Z" fill="#BDBDBD"/>
<path d="M8 152H12V155C12 155.552 11.5523 156 11 156H9C8.44772 156 8 155.552 8 155V152Z" fill="#BDBDBD"/>
<rect x="9" y="152" width="2" height="5" rx="1" fill="#BDBDBD"/>
<path d="M9.02996 147.493L9.46151 152.42C9.48538 152.693 9.28378 152.933 9.01126 152.957C8.73881 152.981 8.49864 152.779 8.47478 152.507L8.04322 147.58L8.01825 147.404C8.00642 147.364 8 147.321 8 147.276C8 147.107 8.0957 146.952 8.24721 146.876L9.55279 146.224C9.83431 146.083 10.1657 146.083 10.4472 146.224L11.7528 146.876C11.8829 146.941 11.9719 147.065 11.9944 147.206C12.0018 147.252 11.9967 147.3 11.99 147.347L11.9818 147.404L11.9568 147.58L11.5252 152.507C11.5014 152.779 11.2612 152.981 10.9887 152.957C10.7162 152.933 10.5146 152.693 10.5385 152.42L10.97 147.493C10.6164 147.316 10.8009 147.4 10.4472 147.224C10.1657 147.083 9.83431 147.083 9.55279 147.224L9.02996 147.493Z" fill="#BDBDBD"/>
<path fill-rule="evenodd" clip-rule="evenodd" d="M4 122C2.89543 122 2 122.895 2 124V136C2 137.105 2.89543 138 4 138H16C17.1046 138 18 137.105 18 136V124C18 122.895 17.1046 122 16 122H4ZM10.8176 126.806C10.8662 126.724 10.9085 126.638 10.9439 126.549C11.0264 126.341 11.0715 126.116 11.0715 125.881C11.0715 124.842 10.1918 124 9.10655 124C8.02134 124 7.14159 124.842 7.14159 125.881C7.14159 126.233 7.24266 126.562 7.41854 126.844C7.44728 126.89 7.47802 126.935 7.51064 126.978L8.44194 128.335L8.44339 128.337C8.61588 128.587 8.9125 128.753 9.24946 128.753C9.6465 128.753 9.98752 128.523 10.1355 128.195L10.8176 126.806ZM13.4501 130.413C13.5584 130.43 13.6685 130.44 13.7796 130.441C14.0381 130.445 14.3016 130.404 14.559 130.314C15.6951 129.919 16.2809 128.716 15.8674 127.629C15.4539 126.542 14.1976 125.981 13.0615 126.377C12.6764 126.511 12.3545 126.738 12.1133 127.021C12.0739 127.068 12.0367 127.116 12.0017 127.165L10.8724 128.615L10.8706 128.617C10.6623 128.885 10.5944 129.246 10.7228 129.583C10.8741 129.981 11.2552 130.235 11.6704 130.259L13.4501 130.413ZM10.3439 133.956C10.319 133.861 10.3019 133.766 10.2923 133.671L10.0137 132.132C9.937 131.776 10.0812 131.394 10.4121 131.172C10.693 130.984 11.041 130.956 11.3375 131.069L11.34 131.07L12.9435 131.68C12.9971 131.698 13.05 131.718 13.1021 131.741C13.4204 131.877 13.7055 132.095 13.9202 132.389C14.5535 133.254 14.3337 134.447 13.4292 135.053C12.5248 135.659 11.2782 135.449 10.6449 134.583C10.5014 134.387 10.4018 134.175 10.3439 133.956ZM5.99416 132.023C5.89524 132.068 5.79947 132.121 5.70781 132.18C5.49447 132.319 5.30338 132.496 5.14666 132.711C4.45479 133.656 4.69492 134.96 5.68302 135.622C6.67111 136.284 8.03298 136.054 8.72485 135.108C8.95936 134.788 9.08679 134.426 9.11432 134.063C9.11882 134.003 9.12065 133.944 9.11984 133.884L9.1757 132.081L9.17578 132.078C9.18563 131.744 9.02572 131.413 8.71891 131.207C8.35741 130.965 7.89398 130.966 7.54075 131.174L5.99416 132.023ZM6.68159 128.023C6.74398 128.075 6.8018 128.13 6.85474 128.189L7.78995 129.084C8.01444 129.286 8.10478 129.603 7.99312 129.896C7.89837 130.145 7.68081 130.317 7.42905 130.374L7.42693 130.374L6.0644 130.679C6.02004 130.691 5.97509 130.701 5.92967 130.709C5.65167 130.759 5.356 130.741 5.07042 130.642C4.22788 130.349 3.79226 129.462 4.09743 128.661C4.40261 127.859 5.33302 127.448 6.17556 127.741C6.36641 127.807 6.53638 127.904 6.68159 128.023Z" fill="#BDBDBD"/>
<path fill-rule="evenodd" clip-rule="evenodd" d="M4 302H16C16.5304 302 17.0391 302.211 17.4142 302.586C17.7893 302.961 18 303.47 18 304V316C18 316.53 17.7893 317.039 17.4142 317.414C17.0391 317.789 16.5304 318 16 318H4C3.46957 318 2.96086 317.789 2.58579 317.414C2.21071 317.039 2 316.53 2 316V304C2 303.47 2.21071 302.961 2.58579 302.586C2.96086 302.211 3.46957 302 4 302ZM12.4556 313.63C12.5101 313.579 12.5531 313.516 12.5817 313.447L14.0117 306.277C14.0117 305.797 13.3517 306.087 13.3517 306.087L5.35169 309.237C5.35169 309.237 4.97169 309.367 5.00169 309.607C5.03169 309.847 5.34169 309.957 5.34169 309.957L7.23606 310.601L12.6833 307.09C12.6833 307.09 13.0114 306.888 12.9997 307.09L12.8825 307.292L8.54169 311.212V313.447C8.72568 313.455 8.9916 313.122 9.34324 312.682L9.34326 312.682C9.47919 312.512 9.62794 312.325 9.78971 312.137L11.8317 313.707C11.8971 313.744 11.9695 313.766 12.0443 313.773C12.119 313.78 12.1943 313.77 12.2652 313.746C12.3361 313.721 12.401 313.682 12.4556 313.63Z" fill="#BDBDBD"/>
<path d="M15.84 182H4.16C3.58713 182 3.03773 182.228 2.63265 182.633C2.22757 183.038 2 183.587 2 184.16L2 195.84C2 196.413 2.22757 196.962 2.63265 197.367C3.03773 197.772 3.58713 198 4.16 198H9.92V192.28H8.44C8.34717 192.28 8.25815 192.243 8.19251 192.177C8.12687 192.112 8.09 192.023 8.09 191.93V190.09C8.09 189.997 8.12687 189.908 8.19251 189.843C8.25815 189.777 8.34717 189.74 8.44 189.74H9.92V188C9.87231 187.577 9.91795 187.149 10.0537 186.746C10.1894 186.342 10.412 185.974 10.7057 185.666C10.9993 185.358 11.357 185.118 11.7534 184.963C12.1498 184.808 12.5753 184.742 13 184.77H14.51C14.6028 184.77 14.6918 184.807 14.7575 184.873C14.8231 184.938 14.86 185.027 14.86 185.12V186.67C14.86 186.763 14.8231 186.852 14.7575 186.917C14.6918 186.983 14.6028 187.02 14.51 187.02H13.58C12.58 187.02 12.38 187.5 12.38 188.2V189.74H14.58C14.6295 189.74 14.6786 189.75 14.7239 189.77C14.7692 189.79 14.8097 189.819 14.8428 189.856C14.8759 189.893 14.9007 189.937 14.9158 189.984C14.9308 190.031 14.9357 190.081 14.93 190.13L14.75 192C14.7401 192.086 14.699 192.165 14.6344 192.222C14.5698 192.279 14.4863 192.311 14.4 192.31H12.4V198H15.83C16.1145 198.001 16.3964 197.946 16.6597 197.838C16.9229 197.73 17.1622 197.572 17.3638 197.371C17.5655 197.17 17.7255 196.932 17.8346 196.669C17.9438 196.406 18 196.124 18 195.84V184.16C18 183.587 17.7724 183.038 17.3674 182.633C16.9623 182.228 16.4129 182 15.84 182Z" fill="#BDBDBD"/>
<path d="M11.67 271.26H8.11002C7.95487 271.26 7.80608 271.322 7.69637 271.431C7.58666 271.541 7.52502 271.69 7.52502 271.845C7.52502 272 7.58666 272.149 7.69637 272.259C7.80608 272.368 7.95487 272.43 8.11002 272.43H11.67C11.8252 272.43 11.974 272.368 12.0837 272.259C12.1934 272.149 12.255 272 12.255 271.845C12.255 271.69 12.1934 271.541 12.0837 271.431C11.974 271.322 11.8252 271.26 11.67 271.26Z" fill="#BDBDBD"/>
<path d="M8.11002 268.87H9.89002C10.0452 268.87 10.194 268.808 10.3037 268.699C10.4134 268.589 10.475 268.44 10.475 268.285C10.475 268.13 10.4134 267.981 10.3037 267.871C10.194 267.762 10.0452 267.7 9.89002 267.7H8.11002C7.95487 267.7 7.80608 267.762 7.69637 267.871C7.58666 267.981 7.52502 268.13 7.52502 268.285C7.52502 268.44 7.58666 268.589 7.69637 268.699C7.80608 268.808 7.95487 268.87 8.11002 268.87V268.87Z" fill="#BDBDBD"/>
<path d="M16 262H4C3.46957 262 2.96086 262.211 2.58579 262.586C2.21071 262.961 2 263.47 2 264L2 276C2 276.53 2.21071 277.039 2.58579 277.414C2.96086 277.789 3.46957 278 4 278H16C16.5304 278 17.0391 277.789 17.4142 277.414C17.7893 277.039 18 276.53 18 276V264C18 263.47 17.7893 262.961 17.4142 262.586C17.0391 262.211 16.5304 262 16 262V262ZM14.77 272C14.77 272.796 14.4539 273.559 13.8913 274.121C13.3287 274.684 12.5656 275 11.77 275H8C7.20435 275 6.44129 274.684 5.87868 274.121C5.31607 273.559 5 272.796 5 272V268.18C5 267.384 5.31607 266.621 5.87868 266.059C6.44129 265.496 7.20435 265.18 8 265.18H10C10.7956 265.18 11.5587 265.496 12.1213 266.059C12.6839 266.621 13 267.384 13 268.18V268.39C13 268.517 13.0506 268.639 13.1406 268.729C13.2306 268.819 13.3527 268.87 13.48 268.87H14.27C14.3973 268.87 14.5194 268.921 14.6094 269.011C14.6994 269.101 14.75 269.223 14.75 269.35L14.77 272Z" fill="#BDBDBD"/>
<path d="M4 258H16C16.5304 258 17.0391 257.789 17.4142 257.414C17.7893 257.039 18 256.53 18 256V244C18 243.47 17.7893 242.961 17.4142 242.586C17.0391 242.211 16.5304 242 16 242H4C3.46957 242 2.96086 242.211 2.58579 242.586C2.21071 242.961 2 243.47 2 244L2 256C2 256.53 2.21071 257.039 2.58579 257.414C2.96086 257.789 3.46957 258 4 258ZM6 251.12C6.13963 251.134 6.28037 251.134 6.42 251.12C6.61425 251.132 6.80923 251.118 7 251.08C6.49877 250.979 6.04789 250.707 5.72357 250.312C5.39925 249.917 5.22137 249.421 5.22 248.91V248.91C5.52591 249.083 5.86898 249.179 6.22 249.19C5.91417 248.99 5.66274 248.717 5.48822 248.396C5.3137 248.075 5.22154 247.715 5.22 247.35C5.21706 246.956 5.32073 246.569 5.52 246.23C6.08065 246.91 6.77821 247.465 7.5673 247.858C8.35638 248.25 9.21933 248.473 10.1 248.51C10.0459 248.345 10.0123 248.173 10 248C10.0017 247.557 10.136 247.124 10.3857 246.758C10.6354 246.392 10.9891 246.109 11.4011 245.945C11.8131 245.782 12.2646 245.745 12.6975 245.84C13.1304 245.936 13.5248 246.159 13.83 246.48C14.3407 246.405 14.8347 246.243 15.29 246C15.1181 246.516 14.7621 246.95 14.29 247.22C14.7283 247.167 15.1563 247.049 15.56 246.87C15.2677 247.306 14.9024 247.688 14.48 248V248.29C14.4811 249.421 14.1776 250.532 13.6014 251.505C13.0252 252.479 12.1974 253.279 11.2052 253.822C10.2129 254.366 9.09263 254.632 7.96207 254.592C6.83151 254.553 5.73235 254.211 4.78 253.6C4.95647 253.612 5.13353 253.612 5.31 253.6C6.31319 253.586 7.28227 253.234 8.06 252.6C7.60657 252.593 7.16609 252.448 6.79781 252.183C6.42953 251.919 6.15111 251.548 6 251.12V251.12Z" fill="#BDBDBD"/>
<path d="M16 222H4C3.46957 222 2.96086 222.211 2.58579 222.586C2.21071 222.961 2 223.47 2 224L2 236C2 236.53 2.21071 237.039 2.58579 237.414C2.96086 237.789 3.46957 238 4 238H16C16.5304 238 17.0391 237.789 17.4142 237.414C17.7893 237.039 18 236.53 18 236V224C18 223.47 17.7893 222.961 17.4142 222.586C17.0391 222.211 16.5304 222 16 222V222ZM13.39 226.91C13.706 226.912 14.0144 227.007 14.2762 227.184C14.538 227.362 14.7415 227.612 14.8611 227.905C14.9806 228.197 15.0109 228.519 14.948 228.828C14.8852 229.138 14.732 229.422 14.5078 229.645C14.2837 229.868 13.9986 230.019 13.6885 230.08C13.3784 230.141 13.0572 230.109 12.7654 229.987C12.4736 229.866 12.2243 229.661 12.049 229.398C11.8736 229.135 11.78 228.826 11.78 228.51C11.7826 228.085 11.9534 227.678 12.2551 227.378C12.5567 227.078 12.9647 226.91 13.39 226.91V226.91ZM9.66 227.53C9.94308 227.532 10.2193 227.617 10.4541 227.776C10.6889 227.934 10.8719 228.158 10.9802 228.419C11.0885 228.681 11.1172 228.968 11.063 229.246C11.0087 229.524 10.8737 229.78 10.6749 229.981C10.4761 230.183 10.2223 230.321 9.94522 230.379C9.66816 230.437 9.38012 230.413 9.11711 230.308C8.85409 230.203 8.62777 230.023 8.46644 229.791C8.3051 229.558 8.2159 229.283 8.21 229C8.20735 228.808 8.2429 228.617 8.31458 228.439C8.38626 228.261 8.49265 228.099 8.62756 227.962C8.76247 227.825 8.92321 227.716 9.10045 227.642C9.27769 227.568 9.46789 227.53 9.66 227.53V227.53ZM6.27 228.09C6.52873 228.084 6.78336 228.155 7.00127 228.295C7.21919 228.435 7.39047 228.636 7.49319 228.874C7.5959 229.111 7.62538 229.374 7.57785 229.628C7.53031 229.883 7.40792 230.117 7.22636 230.302C7.04479 230.486 6.81231 230.612 6.55868 230.664C6.30506 230.715 6.04183 230.69 5.80271 230.591C5.56359 230.492 5.35945 230.324 5.21645 230.108C5.07344 229.892 4.99808 229.639 5 229.38C4.99996 229.039 5.13417 228.711 5.37366 228.468C5.61315 228.225 5.9387 228.085 6.28 228.08L6.27 228.09ZM7.7 233.09H4.84V232.46C4.84278 232.097 4.97877 231.748 5.22213 231.479C5.46549 231.21 5.79925 231.039 6.16 231H6.39C6.75245 231.039 7.0876 231.211 7.33119 231.483C7.57478 231.754 7.70967 232.105 7.71 232.47L7.7 233.09ZM11.25 233.09H8.07V232.39C8.06755 231.985 8.21541 231.592 8.48504 231.29C8.75467 230.987 9.12695 230.794 9.53 230.75H9.79C10.1913 230.794 10.5622 230.985 10.8316 231.286C11.101 231.587 11.25 231.976 11.25 232.38V233.09ZM15.15 233.09H11.62V232.3C11.62 231.85 11.7866 231.416 12.0876 231.082C12.3886 230.748 12.8027 230.537 13.25 230.49H13.53C13.9773 230.537 14.3914 230.748 14.6924 231.082C14.9934 231.416 15.16 231.85 15.16 232.3L15.15 233.09Z" fill="#BDBDBD"/>
<path fill-rule="evenodd" clip-rule="evenodd" d="M4 202C2.89543 202 2 202.895 2 204V216C2 217.105 2.89543 218 4 218H16C17.1046 218 18 217.105 18 216V204C18 202.895 17.1046 202 16 202H4ZM6.80005 203.8L7.53005 204.53C6.19807 205.131 5.13132 206.198 4.53005 207.53L3.80005 206.8C3.62801 206.631 3.52311 206.405 3.50473 206.164C3.48635 205.923 3.55573 205.684 3.70005 205.49C4.19513 204.8 4.79978 204.195 5.49005 203.7C5.68367 203.556 5.92298 203.486 6.16377 203.505C6.40456 203.523 6.63057 203.628 6.80005 203.8ZM7.53004 204.53C8.30643 204.18 9.14843 203.999 10 204C11.2953 204 12.5556 204.42 13.5926 205.196C14.6297 205.972 15.3878 207.063 15.7537 208.305C16.1196 209.548 16.0736 210.875 15.6225 212.089C15.1715 213.303 14.3397 214.339 13.2514 215.041C12.1632 215.744 10.8768 216.075 9.58467 215.986C8.29252 215.897 7.06394 215.392 6.08253 214.546C5.10112 213.701 4.41957 212.561 4.13975 211.296C3.85992 210.032 3.99684 208.71 4.53004 207.53L8.2929 211.293L11.2929 208.293L11.27 208.27L7.53004 204.53ZM13 213L10.1314 212.283L12.2829 210.131L13 213Z" fill="#BDBDBD"/>
<path d="M9.39708 104.099C11.9159 103.713 14.4396 103.35 16.9632 103C16.9648 105.212 16.9632 107.422 16.9648 109.634C14.4428 109.643 11.9207 109.682 9.39708 109.69C9.39548 107.825 9.39548 105.962 9.39708 104.099ZM3 104.991C4.89673 104.698 6.80162 104.446 8.70635 104.207C8.70795 106.042 8.70795 107.875 8.70955 109.709C6.80642 109.707 4.90313 109.736 3 109.731V104.991ZM3 110.309C4.90169 110.302 6.80306 110.333 8.70459 110.329C8.70459 112.169 8.70939 114.008 8.70635 115.847C6.80642 115.565 4.90313 115.319 3 115.062V110.309ZM9.38588 110.382H16.9632C16.9664 112.588 16.9632 114.793 16.9632 117C14.4444 116.623 11.9207 116.272 9.39708 115.93C9.39388 114.081 9.38908 112.233 9.38588 110.382Z" fill="#BDBDBD"/>
<path d="M16 62H4C3.46957 62 2.96086 62.2107 2.58579 62.5858C2.21071 62.9609 2 63.4696 2 64L2 76C2 76.5304 2.21071 77.0391 2.58579 77.4142C2.96086 77.7893 3.46957 78 4 78H16C16.5304 78 17.0391 77.7893 17.4142 77.4142C17.7893 77.0391 18 76.5304 18 76V64C18 63.4696 17.7893 62.9609 17.4142 62.5858C17.0391 62.2107 16.5304 62 16 62ZM15 70C14.9979 71.1567 14.5949 72.2768 13.8596 73.1697C13.1243 74.0625 12.1022 74.6728 10.9673 74.8966C9.83253 75.1204 8.65524 74.9438 7.63602 74.3969C6.6168 73.8501 5.81871 72.9667 5.3777 71.8974C4.93669 70.8282 4.88005 69.639 5.21743 68.5327C5.5548 67.4263 6.26532 66.4711 7.22795 65.8299C8.19057 65.1886 9.34575 64.9009 10.4967 65.0158C11.6476 65.1307 12.7231 65.6411 13.54 66.46L12.12 67.88C11.6612 67.4188 11.065 67.1192 10.4211 67.0264C9.77721 66.9336 9.12061 67.0526 8.55026 67.3655C7.9799 67.6783 7.5267 68.1681 7.25896 68.761C6.99122 69.3539 6.92345 70.0177 7.06586 70.6525C7.20827 71.2872 7.55315 71.8585 8.04851 72.2801C8.54388 72.7018 9.16288 72.951 9.81223 72.9903C10.4616 73.0295 11.1061 72.8566 11.6486 72.4976C12.1911 72.1386 12.6022 71.613 12.82 71H10V69.33H15V70Z" fill="#BDBDBD"/>
<path d="M16 282H4C3.46957 282 2.96086 282.211 2.58579 282.586C2.21071 282.961 2 283.47 2 284L2 296C2 296.53 2.21071 297.039 2.58579 297.414C2.96086 297.789 3.46957 298 4 298H16C16.5304 298 17.0391 297.789 17.4142 297.414C17.7893 297.039 18 296.53 18 296V284C18 283.47 17.7893 282.961 17.4142 282.586C17.0391 282.211 16.5304 282 16 282V282ZM15.65 286.51L14.28 287C13.6252 287.592 13.0473 288.264 12.56 289C11.8822 289.723 11.3312 290.554 10.93 291.46L10.87 292.61V293.3L11 295H12.81V295.87H9.8L7.17 296L7.26 295.18H8.1C8.54 295.18 8.8 295.04 8.89 294.91C8.99387 294.363 9.03081 293.806 9 293.25V292.65V291.46C8.59529 290.427 8.11741 289.425 7.57 288.46C7.0177 287.339 6.38958 286.256 5.69 285.22L4 284.86V284.08C4.9075 283.951 5.82654 283.924 6.74 284C7.73865 283.927 8.74135 283.927 9.74 284L9.68 284.64L7.87 285C8.42 286.28 9.27 288.07 10.4 290.32C11.89 288.53 12.67 287.38 12.7 286.88L11.19 286.51L11.07 285.68H13.6H15.99L15.65 286.51Z" fill="#BDBDBD"/>
</svg>
