<svg width="33" height="32" viewBox="0 0 33 32" fill="none" xmlns="http://www.w3.org/2000/svg">
<g clip-path="url(#clip0_1_6881)">
<path d="M16.5005 30.9998C24.7848 30.9998 31.5005 24.284 31.5005 15.9998C31.5005 7.71548 24.7848 0.999756 16.5005 0.999756C8.21622 0.999756 1.50049 7.71548 1.50049 15.9998C1.50049 24.284 8.21622 30.9998 16.5005 30.9998Z" fill="url(#paint0_linear_1_6881)"/>
<path fill-rule="evenodd" clip-rule="evenodd" d="M32.5005 15.9998C32.5005 24.8363 25.337 31.9998 16.5005 31.9998C7.66393 31.9998 0.500488 24.8363 0.500488 15.9998C0.500488 7.1632 7.66393 -0.000244141 16.5005 -0.000244141C25.337 -0.000244141 32.5005 7.1632 32.5005 15.9998ZM31.5005 15.9998C31.5005 24.284 24.7848 30.9998 16.5005 30.9998C8.21622 30.9998 1.50049 24.284 1.50049 15.9998C1.50049 7.71548 8.21622 0.999756 16.5005 0.999756C24.7848 0.999756 31.5005 7.71548 31.5005 15.9998Z" fill="#333333"/>
<path fill-rule="evenodd" clip-rule="evenodd" d="M6.54919 13.9998H26.5235C27.1197 13.9998 27.5005 14.4488 27.5005 14.9894V17.0102C27.5005 17.559 27.1831 17.9998 26.5235 17.9998H6.54919C5.87945 17.9998 5.50049 17.5507 5.50049 17.0102V14.9894C5.50049 14.4488 5.87945 13.9998 6.54919 13.9998Z" fill="#FEFEFE"/>
</g>
<defs>
<linearGradient id="paint0_linear_1_6881" x1="1.50055" y1="-0.172119" x2="31.5005" y2="30.9998" gradientUnits="userSpaceOnUse">
<stop stop-color="#FF8E3D"/>
<stop offset="1" stop-color="#FF6F3D"/>
</linearGradient>
<clipPath id="clip0_1_6881">
<rect width="32" height="32" fill="white" transform="translate(0.5)"/>
</clipPath>
</defs>
</svg>
