<?xml version="1.0" encoding="utf-8"?>
<!-- Generator: Adobe Illustrator 22.1.0, SVG Export Plug-In . SVG Version: 6.00 Build 0)  -->
<svg version="1.1" id="Layer_1" xmlns="http://www.w3.org/2000/svg" xmlns:xlink="http://www.w3.org/1999/xlink" x="0px" y="0px"
	 viewBox="0 0 24 24" style="enable-background:new 0 0 24 24;" xml:space="preserve">
<style type="text/css">
	.st0{fill:#5181B8;}
</style>
<path id="Logo" class="st0" d="M23.5,6.7c0.1-0.5,0-1-0.9-1H20c-0.7,0-1,0.3-1.1,0.8c0,0-1.3,3.3-3.2,5.4c-0.7,0.7-0.9,0.8-1.2,0.8
	c-0.2,0-0.4-0.2-0.4-0.8V6.7c0-0.7-0.2-1-0.8-1H9.1c-0.4,0-0.7,0.3-0.7,0.7c0,0.7,1,0.8,1.1,2.5v3.8c0,0.9-0.1,1-0.4,1
	c-0.9,0-3.1-3.3-4.4-7c-0.3-0.7-0.5-1-1.2-1H0.9C0.1,5.7,0,6.1,0,6.5c0,0.7,0.9,4.2,4.2,8.7c2.2,3.1,5.3,4.8,8,4.8
	c1.6,0,1.9-0.3,1.9-1v-2.4c0-0.8,0.1-0.9,0.7-0.9c0.4,0,1.1,0.2,2.6,1.6c1.8,1.8,2.1,2.6,3.1,2.6h2.6c0.8,0,1.1-0.3,0.9-1.1
	c-0.2-0.8-1.1-1.8-2.2-3.1c-0.7-0.8-1.5-1.5-1.8-1.9c-0.4-0.5-0.3-0.8,0-1.2C19.9,12.8,23.1,8.3,23.5,6.7z"/>
</svg>
