<svg width="100" height="101" viewBox="0 0 100 101" fill="none" xmlns="http://www.w3.org/2000/svg">
<path d="M76.4486 0.290835H67.9915C67.2424 0.290835 66.7747 0.658879 66.6665 1.19245C66.5593 1.72811 53.9837 40.1013 53.0698 43.2976C52.4217 45.5639 50.3086 53.5526 49.8017 55.4709L45.4281 43.5208C44.3654 40.2317 34.1794 11.7537 33.8806 10.6159C33.7159 9.99052 33.4288 9.21315 32.3336 9.21315H24.0769C23.2697 9.21315 22.8127 10.0994 23.0734 10.6489C23.2809 11.0892 38.1955 50.7965 44.2206 65.9656V99.3175C44.2206 99.9258 44.4638 100.291 45.07 100.291H52.89C53.3748 100.291 53.7384 99.9258 53.7384 99.3175V67.7014V66.2285C58.7611 52.1905 77.1075 2.2524 77.3069 1.69356C77.5506 1.0105 77.479 0.290835 76.4486 0.290835V0.290835Z" fill="#E52620"/>
</svg>
