<svg width="22" height="22" viewBox="0 0 22 22" fill="none" xmlns="http://www.w3.org/2000/svg">
<path d="M21.9438 20.5756C21.9438 21.3302 21.3304 21.9436 20.5758 21.9436H1.42435C0.669861 21.9436 0.0563965 21.3302 0.0563965 20.5756V1.42411C0.0563965 0.669574 0.669861 0.0561523 1.42435 0.0561523H20.5758C21.3304 0.0561523 21.9438 0.669574 21.9438 1.42411V20.5756Z" fill="#ED1F24"/>
<path d="M15 18H12.8975V6.75714H11.9587C10.2397 6.75714 9.3405 7.68571 9.3405 9.07143C9.3405 10.6429 9.96198 11.3714 11.2446 12.3L12.3025 13.0714L9.26116 18H7L9.73719 13.6C8.16364 12.3857 7.27769 11.2 7.27769 9.2C7.27769 6.7 8.89091 5 11.9455 5H14.9868V18H15Z" fill="white"/>
</svg>
