<svg width="150" height="150" viewBox="0 0 150 150" fill="none" xmlns="http://www.w3.org/2000/svg">
<mask id="path-1-inside-1_2207_4285" fill="white">
<path fill-rule="evenodd" clip-rule="evenodd" d="M133 101H17V129C17 135.075 42.9675 140 75 140C107.033 140 133 135.075 133 129V101Z"/>
</mask>
<path fill-rule="evenodd" clip-rule="evenodd" d="M133 101H17V129C17 135.075 42.9675 140 75 140C107.033 140 133 135.075 133 129V101Z" fill="url(#paint0_linear_2207_4285)"/>
<path d="M17 101V100H16V101H17ZM133 101H134V100H133V101ZM17 102H133V100H17V102ZM18 129V101H16V129H18ZM75 139C59.0266 139 44.592 137.771 34.1741 135.796C28.957 134.806 24.798 133.639 21.9671 132.369C20.5483 131.733 19.5184 131.095 18.8581 130.483C18.1967 129.87 18 129.375 18 129H16C16 130.143 16.6148 131.131 17.4986 131.95C18.3835 132.77 19.6326 133.514 21.1488 134.194C24.1878 135.557 28.5227 136.76 33.8015 137.761C44.3755 139.766 58.9409 141 75 141V139ZM132 129C132 129.375 131.803 129.87 131.142 130.483C130.482 131.095 129.452 131.733 128.033 132.369C125.202 133.639 121.043 134.806 115.826 135.796C105.408 137.771 90.9734 139 75 139V141C91.0591 141 105.624 139.766 116.199 137.761C121.477 136.76 125.812 135.557 128.851 134.194C130.367 133.514 131.616 132.77 132.501 131.95C133.385 131.131 134 130.143 134 129H132ZM132 101V129H134V101H132Z" fill="#333333" mask="url(#path-1-inside-1_2207_4285)"/>
<path d="M132.5 101C132.5 101.567 132.199 102.186 131.482 102.85C130.765 103.514 129.681 104.178 128.238 104.825C125.355 106.118 121.152 107.295 115.919 108.287C105.462 110.27 90.9948 111.5 75 111.5C59.0052 111.5 44.5379 110.27 34.081 108.287C28.8484 107.295 24.6454 106.118 21.7625 104.825C20.3194 104.178 19.2347 103.514 18.5182 102.85C17.8012 102.186 17.5 101.567 17.5 101C17.5 100.433 17.8012 99.8144 18.5182 99.1498C19.2347 98.4858 20.3194 97.8216 21.7625 97.1745C24.6454 95.8818 28.8484 94.7054 34.081 93.7131C44.5379 91.7299 59.0052 90.5 75 90.5C90.9948 90.5 105.462 91.7299 115.919 93.7131C121.152 94.7054 125.355 95.8818 128.238 97.1745C129.681 97.8216 130.765 98.4858 131.482 99.1498C132.199 99.8144 132.5 100.433 132.5 101Z" fill="#EFEFEF" stroke="#333333"/>
<mask id="path-4-inside-2_2207_4285" fill="white">
<path fill-rule="evenodd" clip-rule="evenodd" d="M133 60H17V88C17 94.0751 42.9675 99 75 99C107.033 99 133 94.0751 133 88V60Z"/>
</mask>
<path fill-rule="evenodd" clip-rule="evenodd" d="M133 60H17V88C17 94.0751 42.9675 99 75 99C107.033 99 133 94.0751 133 88V60Z" fill="url(#paint1_linear_2207_4285)"/>
<path d="M17 60V59H16V60H17ZM133 60H134V59H133V60ZM17 61H133V59H17V61ZM18 88V60H16V88H18ZM75 98C59.0266 98 44.592 96.7715 34.1741 94.7957C28.957 93.8062 24.798 92.6386 21.9671 91.3692C20.5483 90.7331 19.5184 90.0954 18.8581 89.4834C18.1967 88.8704 18 88.3755 18 88H16C16 89.1433 16.6148 90.1312 17.4986 90.9503C18.3835 91.7705 19.6326 92.5143 21.1488 93.1942C24.1878 94.5568 28.5227 95.7595 33.8015 96.7607C44.3755 98.7661 58.9409 100 75 100V98ZM132 88C132 88.3755 131.803 88.8704 131.142 89.4834C130.482 90.0954 129.452 90.7331 128.033 91.3692C125.202 92.6386 121.043 93.8062 115.826 94.7957C105.408 96.7715 90.9734 98 75 98V100C91.0591 100 105.624 98.7661 116.199 96.7607C121.477 95.7595 125.812 94.5568 128.851 93.1942C130.367 92.5143 131.616 91.7705 132.501 90.9503C133.385 90.1312 134 89.1433 134 88H132ZM132 60V88H134V60H132Z" fill="#333333" mask="url(#path-4-inside-2_2207_4285)"/>
<path d="M132.5 60C132.5 60.5674 132.199 61.1856 131.482 61.8502C130.765 62.5142 129.681 63.1784 128.238 63.8255C125.355 65.1182 121.152 66.2945 115.919 67.2869C105.462 69.2701 90.9948 70.5 75 70.5C59.0052 70.5 44.5379 69.2701 34.081 67.2869C28.8484 66.2945 24.6454 65.1182 21.7625 63.8255C20.3194 63.1784 19.2347 62.5142 18.5182 61.8502C17.8012 61.1856 17.5 60.5674 17.5 60C17.5 59.4326 17.8012 58.8144 18.5182 58.1498C19.2347 57.4858 20.3194 56.8216 21.7625 56.1745C24.6454 54.8818 28.8484 53.7054 34.081 52.7131C44.5379 50.7299 59.0052 49.5 75 49.5C90.9948 49.5 105.462 50.7299 115.919 52.7131C121.152 53.7054 125.355 54.8818 128.238 56.1745C129.681 56.8216 130.765 57.4858 131.482 58.1498C132.199 58.8144 132.5 59.4326 132.5 60Z" fill="#EFEFEF" stroke="#333333"/>
<mask id="path-7-inside-3_2207_4285" fill="white">
<path fill-rule="evenodd" clip-rule="evenodd" d="M133 19H17V47C17 53.0751 42.9675 58 75 58C107.033 58 133 53.0751 133 47V19Z"/>
</mask>
<path fill-rule="evenodd" clip-rule="evenodd" d="M133 19H17V47C17 53.0751 42.9675 58 75 58C107.033 58 133 53.0751 133 47V19Z" fill="url(#paint2_linear_2207_4285)"/>
<path d="M17 19V18H16V19H17ZM133 19H134V18H133V19ZM17 20H133V18H17V20ZM18 47V19H16V47H18ZM75 57C59.0266 57 44.592 55.7715 34.1741 53.7957C28.957 52.8062 24.798 51.6386 21.9671 50.3692C20.5483 49.7331 19.5184 49.0954 18.8581 48.4834C18.1967 47.8704 18 47.3755 18 47H16C16 48.1433 16.6148 49.1312 17.4986 49.9503C18.3835 50.7705 19.6326 51.5143 21.1488 52.1942C24.1878 53.5568 28.5227 54.7595 33.8015 55.7607C44.3755 57.7661 58.9409 59 75 59V57ZM132 47C132 47.3755 131.803 47.8704 131.142 48.4834C130.482 49.0954 129.452 49.7331 128.033 50.3692C125.202 51.6386 121.043 52.8062 115.826 53.7957C105.408 55.7715 90.9734 57 75 57V59C91.0591 59 105.624 57.7661 116.199 55.7607C121.477 54.7595 125.812 53.5568 128.851 52.1942C130.367 51.5143 131.616 50.7705 132.501 49.9503C133.385 49.1312 134 48.1433 134 47H132ZM132 19V47H134V19H132Z" fill="#333333" mask="url(#path-7-inside-3_2207_4285)"/>
<path d="M132.5 19C132.5 19.5674 132.199 20.1856 131.482 20.8502C130.765 21.5142 129.681 22.1784 128.238 22.8255C125.355 24.1182 121.152 25.2945 115.919 26.2869C105.462 28.2701 90.9948 29.5 75 29.5C59.0052 29.5 44.5379 28.2701 34.081 26.2869C28.8484 25.2945 24.6454 24.1182 21.7625 22.8255C20.3194 22.1784 19.2347 21.5142 18.5182 20.8502C17.8012 20.1856 17.5 19.5674 17.5 19C17.5 18.4326 17.8012 17.8144 18.5182 17.1498C19.2347 16.4858 20.3194 15.8216 21.7625 15.1745C24.6454 13.8818 28.8484 12.7054 34.081 11.7131C44.5379 9.72987 59.0052 8.5 75 8.5C90.9948 8.5 105.462 9.72987 115.919 11.7131C121.152 12.7054 125.355 13.8818 128.238 15.1745C129.681 15.8216 130.765 16.4858 131.482 17.1498C132.199 17.8144 132.5 18.4326 132.5 19Z" fill="#EFEFEF" stroke="#333333"/>
<path d="M96 81C96 78.7909 97.7909 77 100 77H143C145.209 77 147 78.7909 147 81V145C147 147.209 145.209 149 143 149H100C97.7909 149 96 147.209 96 145V81Z" fill="white"/>
<path fill-rule="evenodd" clip-rule="evenodd" d="M100 76H143C145.761 76 148 78.2386 148 81V145C148 147.761 145.761 150 143 150H100C97.2386 150 95 147.761 95 145V81C95 78.2386 97.2386 76 100 76ZM100 77C97.7909 77 96 78.7909 96 81V145C96 147.209 97.7909 149 100 149H143C145.209 149 147 147.209 147 145V81C147 78.7909 145.209 77 143 77H100Z" fill="#333333"/>
<path d="M96 81C96 78.7909 97.7909 77 100 77H143C145.209 77 147 78.7909 147 81V102H96V81Z" fill="#EFEFEF"/>
<path fill-rule="evenodd" clip-rule="evenodd" d="M148 103H95V81C95 78.2386 97.2386 76 100 76H143C145.761 76 148 78.2386 148 81V103ZM100 77C97.7909 77 96 78.7909 96 81V102H147V81C147 78.7909 145.209 77 143 77H100Z" fill="#333333"/>
<path d="M102 85C102 83.8954 102.895 83 104 83H139C140.105 83 141 83.8954 141 85V94C141 95.1046 140.105 96 139 96H104C102.895 96 102 95.1046 102 94V85Z" fill="#BDECFF"/>
<path fill-rule="evenodd" clip-rule="evenodd" d="M104 82H139C140.657 82 142 83.3431 142 85V94C142 95.6569 140.657 97 139 97H104C102.343 97 101 95.6569 101 94V85C101 83.3431 102.343 82 104 82ZM104 83C102.895 83 102 83.8954 102 85V94C102 95.1046 102.895 96 104 96H139C140.105 96 141 95.1046 141 94V85C141 83.8954 140.105 83 139 83H104Z" fill="#333333"/>
<path d="M101 110C101 109.448 101.448 109 102 109H110C110.552 109 111 109.448 111 110V116C111 116.552 110.552 117 110 117H102C101.448 117 101 116.552 101 116V110Z" fill="#EFEFEF"/>
<path fill-rule="evenodd" clip-rule="evenodd" d="M102 108H110C111.105 108 112 108.895 112 110V116C112 117.105 111.105 118 110 118H102C100.895 118 100 117.105 100 116V110C100 108.895 100.895 108 102 108ZM102 109C101.448 109 101 109.448 101 110V116C101 116.552 101.448 117 102 117H110C110.552 117 111 116.552 111 116V110C111 109.448 110.552 109 110 109H102Z" fill="#333333"/>
<path d="M101 123C101 122.448 101.448 122 102 122H110C110.552 122 111 122.448 111 123V129C111 129.552 110.552 130 110 130H102C101.448 130 101 129.552 101 129V123Z" fill="#EFEFEF"/>
<path fill-rule="evenodd" clip-rule="evenodd" d="M102 121H110C111.105 121 112 121.895 112 123V129C112 130.105 111.105 131 110 131H102C100.895 131 100 130.105 100 129V123C100 121.895 100.895 121 102 121ZM102 122C101.448 122 101 122.448 101 123V129C101 129.552 101.448 130 102 130H110C110.552 130 111 129.552 111 129V123C111 122.448 110.552 122 110 122H102Z" fill="#333333"/>
<path d="M101 136C101 135.448 101.448 135 102 135H110C110.552 135 111 135.448 111 136V142C111 142.552 110.552 143 110 143H102C101.448 143 101 142.552 101 142V136Z" fill="#EFEFEF"/>
<path fill-rule="evenodd" clip-rule="evenodd" d="M102 134H110C111.105 134 112 134.895 112 136V142C112 143.105 111.105 144 110 144H102C100.895 144 100 143.105 100 142V136C100 134.895 100.895 134 102 134ZM102 135C101.448 135 101 135.448 101 136V142C101 142.552 101.448 143 102 143H110C110.552 143 111 142.552 111 142V136C111 135.448 110.552 135 110 135H102Z" fill="#333333"/>
<path d="M116 110C116 109.448 116.448 109 117 109H125C125.552 109 126 109.448 126 110V116C126 116.552 125.552 117 125 117H117C116.448 117 116 116.552 116 116V110Z" fill="#EFEFEF"/>
<path fill-rule="evenodd" clip-rule="evenodd" d="M117 108H125C126.105 108 127 108.895 127 110V116C127 117.105 126.105 118 125 118H117C115.895 118 115 117.105 115 116V110C115 108.895 115.895 108 117 108ZM117 109C116.448 109 116 109.448 116 110V116C116 116.552 116.448 117 117 117H125C125.552 117 126 116.552 126 116V110C126 109.448 125.552 109 125 109H117Z" fill="#333333"/>
<path d="M116 123C116 122.448 116.448 122 117 122H125C125.552 122 126 122.448 126 123V129C126 129.552 125.552 130 125 130H117C116.448 130 116 129.552 116 129V123Z" fill="#EFEFEF"/>
<path fill-rule="evenodd" clip-rule="evenodd" d="M117 121H125C126.105 121 127 121.895 127 123V129C127 130.105 126.105 131 125 131H117C115.895 131 115 130.105 115 129V123C115 121.895 115.895 121 117 121ZM117 122C116.448 122 116 122.448 116 123V129C116 129.552 116.448 130 117 130H125C125.552 130 126 129.552 126 129V123C126 122.448 125.552 122 125 122H117Z" fill="#333333"/>
<path d="M116 136C116 135.448 116.448 135 117 135H125C125.552 135 126 135.448 126 136V142C126 142.552 125.552 143 125 143H117C116.448 143 116 142.552 116 142V136Z" fill="#EFEFEF"/>
<path fill-rule="evenodd" clip-rule="evenodd" d="M117 134H125C126.105 134 127 134.895 127 136V142C127 143.105 126.105 144 125 144H117C115.895 144 115 143.105 115 142V136C115 134.895 115.895 134 117 134ZM117 135C116.448 135 116 135.448 116 136V142C116 142.552 116.448 143 117 143H125C125.552 143 126 142.552 126 142V136C126 135.448 125.552 135 125 135H117Z" fill="#333333"/>
<path d="M131 110C131 109.448 131.448 109 132 109H140C140.552 109 141 109.448 141 110V116C141 116.552 140.552 117 140 117H132C131.448 117 131 116.552 131 116V110Z" fill="url(#paint3_linear_2207_4285)"/>
<path fill-rule="evenodd" clip-rule="evenodd" d="M132 108H140C141.105 108 142 108.895 142 110V116C142 117.105 141.105 118 140 118H132C130.895 118 130 117.105 130 116V110C130 108.895 130.895 108 132 108ZM132 109C131.448 109 131 109.448 131 110V116C131 116.552 131.448 117 132 117H140C140.552 117 141 116.552 141 116V110C141 109.448 140.552 109 140 109H132Z" fill="#333333"/>
<path d="M131 123C131 122.448 131.448 122 132 122H140C140.552 122 141 122.448 141 123V129C141 129.552 140.552 130 140 130H132C131.448 130 131 129.552 131 129V123Z" fill="#EFEFEF"/>
<path fill-rule="evenodd" clip-rule="evenodd" d="M132 121H140C141.105 121 142 121.895 142 123V129C142 130.105 141.105 131 140 131H132C130.895 131 130 130.105 130 129V123C130 121.895 130.895 121 132 121ZM132 122C131.448 122 131 122.448 131 123V129C131 129.552 131.448 130 132 130H140C140.552 130 141 129.552 141 129V123C141 122.448 140.552 122 140 122H132Z" fill="#333333"/>
<path d="M131 136C131 135.448 131.448 135 132 135H140C140.552 135 141 135.448 141 136V142C141 142.552 140.552 143 140 143H132C131.448 143 131 142.552 131 142V136Z" fill="#EFEFEF"/>
<path fill-rule="evenodd" clip-rule="evenodd" d="M132 134H140C141.105 134 142 134.895 142 136V142C142 143.105 141.105 144 140 144H132C130.895 144 130 143.105 130 142V136C130 134.895 130.895 134 132 134ZM132 135C131.448 135 131 135.448 131 136V142C131 142.552 131.448 143 132 143H140C140.552 143 141 142.552 141 142V136C141 135.448 140.552 135 140 135H132Z" fill="#333333"/>
<path d="M115.266 89.9078C115.514 90.0419 115.704 90.2067 115.837 90.4022C115.976 90.5978 116.045 90.8017 116.045 91.014V91.3492C116.045 91.6732 115.958 91.9609 115.783 92.2123C115.607 92.4637 115.36 92.6592 115.04 92.7989C114.726 92.933 114.361 93 113.944 93H113.065C112.419 93 111.912 92.8296 111.543 92.4888C111.181 92.148 111 91.6732 111 91.0642H112.232C112.232 91.3547 112.304 91.581 112.449 91.743C112.594 91.8994 112.8 91.9777 113.065 91.9777H113.944C114.197 91.9777 114.403 91.9218 114.56 91.8101C114.717 91.6927 114.795 91.5391 114.795 91.3492V91.014C114.795 90.8408 114.714 90.7011 114.551 90.595C114.388 90.4888 114.176 90.4358 113.917 90.4358H112.757V89.4302H113.917C114.146 89.4302 114.33 89.3799 114.469 89.2793C114.608 89.1732 114.678 89.0363 114.678 88.8687V88.5335C114.678 88.3771 114.611 88.2542 114.478 88.1648C114.345 88.0698 114.173 88.0223 113.962 88.0223H113.083C112.836 88.0223 112.643 88.1034 112.504 88.2654C112.371 88.4218 112.304 88.6453 112.304 88.9358H111.045C111.045 88.3268 111.223 87.852 111.58 87.5112C111.942 87.1704 112.443 87 113.083 87H113.962C114.348 87 114.69 87.0642 114.986 87.1927C115.287 87.3212 115.52 87.5028 115.683 87.7374C115.846 87.9665 115.928 88.2318 115.928 88.5335V88.8687C115.928 89.0754 115.87 89.2682 115.755 89.4469C115.641 89.6257 115.478 89.7793 115.266 89.9078Z" fill="#333333"/>
<path d="M119.109 93C118.686 93 118.311 92.9162 117.985 92.7486C117.659 92.5754 117.406 92.3324 117.225 92.0196C117.043 91.7067 116.953 91.3464 116.953 90.9385V89.0615C116.953 88.6536 117.04 88.2933 117.215 87.9804C117.397 87.6676 117.65 87.4274 117.976 87.2598C118.302 87.0866 118.68 87 119.109 87H120.069C120.485 87 120.854 87.0866 121.174 87.2598C121.494 87.4274 121.741 87.6676 121.917 87.9804C122.098 88.2933 122.188 88.6536 122.188 89.0615V90.9385C122.188 91.3464 122.101 91.7067 121.926 92.0196C121.751 92.3324 121.503 92.5754 121.183 92.7486C120.863 92.9162 120.491 93 120.069 93H119.109ZM120.051 91.9777C120.316 91.9777 120.528 91.8855 120.685 91.7011C120.848 91.5112 120.929 91.2626 120.929 90.9553V89.0447C120.929 88.7374 120.848 88.4916 120.685 88.3073C120.528 88.1173 120.316 88.0223 120.051 88.0223H119.127C118.849 88.0223 118.626 88.1173 118.456 88.3073C118.287 88.4916 118.203 88.7374 118.203 89.0447V90.9553C118.203 91.2626 118.287 91.5112 118.456 91.7011C118.626 91.8855 118.849 91.9777 119.127 91.9777H120.051Z" fill="#333333"/>
<path d="M124.795 90.7123H123.147V89.7235H124.795V88.1983H126.027V89.7235H127.676V90.7123H126.027V92.2374H124.795V90.7123Z" fill="#333333"/>
<path d="M128.502 92.095C128.502 91.7598 128.568 91.4693 128.701 91.2235C128.834 90.9777 129.06 90.7654 129.38 90.5866L131.627 89.3464C131.735 89.2905 131.82 89.2123 131.88 89.1117C131.947 89.0112 131.98 88.9106 131.98 88.8101V88.5419C131.98 88.3855 131.917 88.2598 131.79 88.1648C131.669 88.0698 131.509 88.0223 131.31 88.0223H130.476C130.241 88.0223 130.057 88.1034 129.924 88.2654C129.791 88.4218 129.725 88.6453 129.725 88.9358H128.475C128.475 88.3268 128.65 87.852 129 87.5112C129.35 87.1704 129.836 87 130.458 87H131.31C131.69 87 132.025 87.0642 132.315 87.1927C132.605 87.3212 132.828 87.5028 132.985 87.7374C133.148 87.9721 133.23 88.2402 133.23 88.5419V88.8101C133.23 89.1117 133.161 89.3715 133.022 89.5894C132.889 89.8017 132.677 89.986 132.388 90.1425L130.205 91.3156C130.06 91.3939 129.948 91.4804 129.869 91.5754C129.797 91.6704 129.761 91.7877 129.761 91.9274H133.266V92.933H128.502V92.095Z" fill="#333333"/>
<path d="M136.002 93C135.374 93 134.885 92.8352 134.534 92.5056C134.184 92.176 134.009 91.7179 134.009 91.1313H135.241C135.241 91.3939 135.307 91.6006 135.44 91.7514C135.573 91.9022 135.76 91.9777 136.002 91.9777H136.871C137.137 91.9777 137.348 91.9106 137.505 91.7765C137.668 91.6425 137.75 91.4637 137.75 91.2402V90.7877C137.75 90.5922 137.665 90.433 137.496 90.3101C137.333 90.1872 137.116 90.1257 136.844 90.1257H134.226V87.067H138.764V88.0894H135.476V89.1034H136.844C137.273 89.1034 137.65 89.1732 137.976 89.3128C138.303 89.4525 138.553 89.6508 138.728 89.9078C138.909 90.1592 139 90.4525 139 90.7877V91.2402C139 91.5866 138.909 91.8939 138.728 92.162C138.553 92.4302 138.306 92.6369 137.986 92.7821C137.665 92.9274 137.294 93 136.871 93H136.002Z" fill="#333333"/>
<defs>
<linearGradient id="paint0_linear_2207_4285" x1="75" y1="101" x2="75" y2="138" gradientUnits="userSpaceOnUse">
<stop stop-color="#FFB466"/>
<stop offset="0.885417" stop-color="#FF6F3D"/>
</linearGradient>
<linearGradient id="paint1_linear_2207_4285" x1="75" y1="60" x2="75" y2="97" gradientUnits="userSpaceOnUse">
<stop stop-color="#FFB466"/>
<stop offset="0.885417" stop-color="#FF6F3D"/>
</linearGradient>
<linearGradient id="paint2_linear_2207_4285" x1="75" y1="19" x2="75" y2="56" gradientUnits="userSpaceOnUse">
<stop stop-color="#FFB466"/>
<stop offset="0.885417" stop-color="#FF6F3D"/>
</linearGradient>
<linearGradient id="paint3_linear_2207_4285" x1="131" y1="108.687" x2="138.74" y2="118.74" gradientUnits="userSpaceOnUse">
<stop stop-color="#FFC671"/>
<stop offset="0.59375" stop-color="#FF7541"/>
<stop offset="1" stop-color="#FF6F3D"/>
</linearGradient>
</defs>
</svg>
