<svg width="20" height="20" viewBox="0 0 20 20" fill="none" xmlns="http://www.w3.org/2000/svg">
<path d="M3.5 10C3.5 9.72386 3.72386 9.5 4 9.5H17C17.2761 9.5 17.5 9.72386 17.5 10V13C17.5 16.0376 15.0376 18.5 12 18.5H9C5.96243 18.5 3.5 16.0376 3.5 13V10Z" stroke="#505050"/>
<path fill-rule="evenodd" clip-rule="evenodd" d="M15 8V7.5C15 5.01472 12.9853 3 10.5 3C8.01472 3 6 5.01472 6 7.5V8H5V7.5C5 4.46243 7.46243 2 10.5 2C13.5376 2 16 4.46243 16 7.5V8H15Z" fill="#505050"/>
<mask id="path-3-outside-1" maskUnits="userSpaceOnUse" x="9" y="11" width="3" height="5" fill="black">
<rect fill="white" x="9" y="11" width="3" height="5"/>
<path d="M10 12.5C10 12.2239 10.2239 12 10.5 12C10.7761 12 11 12.2239 11 12.5V14.5C11 14.7761 10.7761 15 10.5 15C10.2239 15 10 14.7761 10 14.5V12.5Z"/>
</mask>
<path d="M10 12.5V14.5H12V12.5H10ZM11 14.5V12.5H9V14.5H11ZM10.5 14C10.7761 14 11 14.2239 11 14.5H9C9 15.3284 9.67157 16 10.5 16V14ZM10 14.5C10 14.2239 10.2239 14 10.5 14V16C11.3284 16 12 15.3284 12 14.5H10ZM10.5 13C10.2239 13 10 12.7761 10 12.5H12C12 11.6716 11.3284 11 10.5 11V13ZM10.5 11C9.67157 11 9 11.6716 9 12.5H11C11 12.7761 10.7761 13 10.5 13V11Z" fill="#505050" mask="url(#path-3-outside-1)"/>
</svg>
