<svg width="135" height="124" viewBox="0 0 135 124" fill="none" xmlns="http://www.w3.org/2000/svg">
<path fill-rule="evenodd" clip-rule="evenodd" d="M11.596 12H122.404C125.212 12.0079 127.902 13.1432 129.888 15.1576C131.873 17.172 132.992 19.9019 133 22.7507V112.259C132.992 115.107 131.873 117.836 129.887 119.849C127.902 121.862 125.211 122.995 122.404 123H11.596C8.78909 122.995 6.09848 121.862 4.11276 119.849C2.12704 117.836 1.00784 115.107 1 112.259V22.7507C1.00783 19.9019 2.12671 17.172 4.11215 15.1576C6.09759 13.1432 8.78818 12.0079 11.596 12Z" fill="#E0E0E0"/>
<path d="M101.157 11.5H122.904C125.712 11.5079 128.402 12.6432 130.388 14.6576C132.373 16.672 133.492 19.4019 133.5 22.2507V111.759C133.492 114.607 132.373 117.336 130.387 119.349C128.402 121.362 125.711 122.495 122.904 122.5H12.096C9.28909 122.495 6.59848 121.362 4.61276 119.349C2.62704 117.336 1.50784 114.607 1.5 111.759V22.2507C1.50783 19.4019 2.62671 16.672 4.61215 14.6576C6.59759 12.6432 9.28818 11.5079 12.096 11.5H33.8431" stroke="#333333" stroke-linecap="round" stroke-linejoin="round"/>
<path d="M15.0001 21.5001L120 21.5C123.038 21.5 125.5 23.9624 125.5 27V109C125.5 112.038 123.038 114.5 120 114.5H15.0013C11.9638 114.5 9.50135 112.038 9.50131 109L9.50009 27.0002C9.50004 23.9626 11.9625 21.5001 15.0001 21.5001Z" fill="#FEFEFE" stroke="#333333"/>
<path fill-rule="evenodd" clip-rule="evenodd" d="M18 67C18 66.4477 18.4477 66 19 66H32C32.5523 66 33 66.4477 33 67V80C33 80.5523 32.5523 81 32 81H19C18.4477 81 18 80.5523 18 80V67Z" fill="#BDECFF"/>
<path d="M32.9844 66.1958L24.8943 76.8949C24.668 77.2004 24.3246 77.2195 23.9888 76.8949L21.3262 73.797" stroke="#333333" stroke-linecap="round" stroke-linejoin="round"/>
<path d="M33.5 73.4222V79.3947C33.5001 79.9481 33.3869 80.4793 32.9973 80.8732C32.6077 81.2672 32.0782 81.4923 31.5234 81.4998H19.5611C19.2904 81.5036 19.0217 81.4533 18.7708 81.3517C18.5199 81.2501 18.292 81.0994 18.1006 80.9084C17.9092 80.7174 17.758 80.4901 17.6562 80.2399C17.5544 79.9897 17.5039 79.7216 17.5077 79.4515V67.5767C17.4843 67.3171 17.5144 67.0556 17.5962 66.8081C17.6781 66.5606 17.81 66.3325 17.9837 66.1379C18.1575 65.9433 18.3694 65.7862 18.6063 65.6765C18.8433 65.5668 19.1003 65.5067 19.3615 65.5H27.0674" stroke="#333333" stroke-linecap="round" stroke-linejoin="round"/>
<path d="M32 42.5H19C18.1716 42.5 17.5 43.1716 17.5 44V57C17.5 57.8284 18.1716 58.5 19 58.5H32C32.8284 58.5 33.5 57.8284 33.5 57V44C33.5 43.1716 32.8284 42.5 32 42.5Z" fill="#BDECFF" stroke="#333333"/>
<path d="M32 90.5H19C18.1716 90.5 17.5 91.1716 17.5 92V105C17.5 105.828 18.1716 106.5 19 106.5H32C32.8284 106.5 33.5 105.828 33.5 105V92C33.5 91.1716 32.8284 90.5 32 90.5Z" fill="#BDECFF" stroke="#333333"/>
<path fill-rule="evenodd" clip-rule="evenodd" d="M51.9141 32C51.6379 32 51.4141 31.7761 51.4141 31.5C51.4141 31.2239 51.6379 31 51.9141 31H86.1774C86.4535 31 86.6774 31.2239 86.6774 31.5C86.6774 31.7761 86.4535 32 86.1774 32H51.9141ZM43.4951 37C43.219 37 42.9951 36.7761 42.9951 36.5C42.9951 36.2239 43.219 36 43.4951 36H94.5046C94.7808 36 95.0046 36.2239 95.0046 36.5C95.0046 36.7761 94.7808 37 94.5046 37H43.4951Z" fill="#333333"/>
<path d="M74.0485 6.00053L74.0678 6.47865L74.5463 6.48031L91.8557 6.54041L91.8557 6.5405L91.8656 6.54034C92.5531 6.52908 93.2162 6.78851 93.7097 7.26042C94.2019 7.73107 94.4854 8.37461 94.5 9.05027V14.989C94.4831 15.6641 94.1987 16.3065 93.7068 16.7768C93.2135 17.2485 92.5512 17.5088 91.864 17.4998V17.4997H91.8574L43.1325 17.4997L43.1275 17.4998C42.4417 17.5066 41.7817 17.2453 41.2902 16.7738C40.8001 16.3037 40.5169 15.6625 40.5 14.9889V8.99031C40.5145 8.31608 40.7969 7.67377 41.2873 7.20334C41.779 6.73167 42.4399 6.47125 43.1259 6.48027L43.1259 6.48031H43.1325H61.9879H62.468L62.4875 6.00053C62.5473 4.52315 63.1814 3.12507 64.2585 2.0994C65.3357 1.0736 66.7724 0.5 68.268 0.5C69.7635 0.5 71.2002 1.0736 72.2774 2.0994C73.3545 3.12507 73.9887 4.52315 74.0485 6.00053Z" fill="url(#paint0_linear_2_7494)" stroke="#333333"/>
<path d="M37.5 50.4997C38.2481 50.4997 40.0614 50.4997 41.5002 50.4997C42.6048 50.4997 43.5 51.3951 43.5 52.4997L43.5001 95.5C43.5001 96.6046 42.6047 97.5 41.5001 97.5H37.5" stroke="#333333" stroke-linecap="round" stroke-linejoin="round"/>
<path d="M86 59.5C86.6069 59.5 87.6008 59.5 88.5003 59.5C89.6049 59.5001 90.5 60.3955 90.5 61.5V87.5C90.5 88.6046 89.6046 89.5 88.5 89.5L86 89.5" stroke="#333333" stroke-linecap="round" stroke-linejoin="round"/>
<path d="M43.5 73H38.5C38.2239 73 38 73.2239 38 73.5C38 73.7761 38.2239 74 38.5 74H43.5C43.7761 74 44 73.7761 44 73.5C44 73.2239 43.7761 73 43.5 73Z" fill="#333333"/>
<path d="M58.0002 52.5H78.9999C80.3806 52.5 81.4999 53.6193 81.4999 55V66C81.4999 67.3807 80.3806 68.5 78.9999 68.5H58.0001C56.6193 68.5 55.5 67.3807 55.5001 66L55.5002 55C55.5003 53.6193 56.6196 52.5 58.0002 52.5Z" fill="#BDECFF" stroke="#333333"/>
<path d="M106 51.5H113C114.381 51.5 115.5 52.6193 115.5 54V95C115.5 96.3807 114.381 97.5 113 97.5H106C104.619 97.5 103.5 96.3807 103.5 95L103.5 54C103.5 52.6193 104.619 51.5 106 51.5Z" fill="url(#paint1_linear_2_7494)" stroke="#333333"/>
<path d="M58.0002 81.5H78.9999C80.3806 81.5 81.4999 82.6193 81.4999 84V95C81.4999 96.3807 80.3806 97.5 78.9999 97.5H58.0001C56.6193 97.5 55.5 96.3807 55.5001 95L55.5002 84C55.5003 82.6193 56.6196 81.5 58.0002 81.5Z" fill="#BDECFF" stroke="#333333"/>
<path fill-rule="evenodd" clip-rule="evenodd" d="M59.5 59C59.2239 59 59 58.7761 59 58.5C59 58.2239 59.2239 58 59.5 58H71.5C71.7761 58 72 58.2239 72 58.5C72 58.7761 71.7761 59 71.5 59H59.5ZM59.5 63C59.2239 63 59 62.7761 59 62.5C59 62.2239 59.2239 62 59.5 62H76.5C76.7761 62 77 62.2239 77 62.5C77 62.7761 76.7761 63 76.5 63H59.5Z" fill="#333333"/>
<path fill-rule="evenodd" clip-rule="evenodd" d="M59.5 87C59.2239 87 59 87.2239 59 87.5C59 87.7761 59.2239 88 59.5 88H66C66.2761 88 66.5 87.7761 66.5 87.5C66.5 87.2239 66.2761 87 66 87H59.5ZM59.5 91C59.2239 91 59 91.2239 59 91.5C59 91.7761 59.2239 92 59.5 92H75.5C75.7761 92 76 91.7761 76 91.5C76 91.2239 75.7761 91 75.5 91H59.5Z" fill="#333333"/>
<path d="M51.5 59H47.5C47.2239 59 47 59.2239 47 59.5C47 59.7761 47.2239 60 47.5 60H51.5C51.7761 60 52 59.7761 52 59.5C52 59.2239 51.7761 59 51.5 59Z" fill="#333333"/>
<path d="M51.5 89H47.5C47.2239 89 47 89.2239 47 89.5C47 89.7761 47.2239 90 47.5 90H51.5C51.7761 90 52 89.7761 52 89.5C52 89.2239 51.7761 89 51.5 89Z" fill="#333333"/>
<path d="M99.5 74H94.5C94.2239 74 94 74.2239 94 74.5C94 74.7761 94.2239 75 94.5 75H99.5C99.7761 75 100 74.7761 100 74.5C100 74.2239 99.7761 74 99.5 74Z" fill="#333333"/>
<defs>
<linearGradient id="paint0_linear_2_7494" x1="54.8438" y1="-7.30114" x2="70.6619" y2="17.3355" gradientUnits="userSpaceOnUse">
<stop stop-color="#FFC671"/>
<stop offset="1" stop-color="#FF6F3D"/>
</linearGradient>
<linearGradient id="paint1_linear_2_7494" x1="103" y1="49.1641" x2="127.973" y2="56.3412" gradientUnits="userSpaceOnUse">
<stop stop-color="#FF8E3D"/>
<stop offset="1" stop-color="#FF6F3D"/>
</linearGradient>
</defs>
</svg>
