<svg width="150" height="150" viewBox="0 0 150 150" fill="none" xmlns="http://www.w3.org/2000/svg">
<path fill-rule="evenodd" clip-rule="evenodd" d="M125.456 94.7938C117.453 89.1742 99.5 82 90.6909 80.7377C88.1296 81.7773 71.8695 79.2127 58.4817 80.254C47.5 82.5 27.7522 91.0252 23.9953 94.7938C19.4971 99.3061 13.4994 115.35 12 131.412C46.9862 158.987 101.82 146.475 109.295 144.2C112.032 143.325 113.281 142.894 116.635 141.642C123.482 138.927 129.736 135.24 136 131.412C134.452 118.859 130.454 98.3033 125.456 94.7938Z" fill="#FEFEFE"/>
<path fill-rule="evenodd" clip-rule="evenodd" d="M85.0221 148.312C85.0221 134.723 84.3152 121.155 81.4732 107.843C80.8069 105.242 80.0183 102.872 79.0665 100.826L81.4732 98L82.2534 93.8253C78.4339 88.3509 76.51 84.3678 74.9477 84.0253C73.1373 83.6283 71.4407 87.946 66.8424 94.1199L68.5421 97.6151L70.5 100.5C65.5176 115.377 64.0221 133.663 64.0221 148.822C71 149.5 83 149.5 85.0221 148.312Z" fill="url(#paint0_linear_125_8622)"/>
<path d="M85.0001 148.495C85.0001 135.029 84.3098 121.583 81.5347 108.392C80.8841 105.814 80.1141 103.465 79.1847 101.438M70.4285 101C68.2082 105.755 64.0001 122 64.0001 149" stroke="#333333"/>
<path d="M83 94C79.9032 101.766 77.7666 104.022 75.2581 104C72.5051 103.975 70.6129 101.766 67 94" stroke="#333333" stroke-linecap="round"/>
<path fill-rule="evenodd" clip-rule="evenodd" d="M47 83.0101C49.5153 87.2585 53.1831 92.082 56.0847 96.0814C57.2296 97.6686 58.8368 100.102 61.0858 99.9967C62.179 99.9491 63.0647 99.3499 63.8568 98.6475C64.2263 98.3168 64.6089 97.92 65.0048 97.4571C65.559 96.8354 66.1132 96.2137 66.6542 95.592C66.681 95.5612 66.7873 95.393 66.8654 95.2877C67.1417 94.9151 72.4318 87.0424 73.1727 85.9127C73.3179 85.701 73.463 85.5026 73.6214 85.3042H75.1257C75.4555 85.7407 75.673 86.1352 76.0493 86.5608C77.3463 88.0277 78.6752 91.0549 81.0372 94.4676C81.2778 94.8154 81.3935 94.9174 81.5518 95.1555C82.5955 96.3224 83.5869 97.5905 84.7583 98.6343C85.5277 99.3199 86.4713 99.9835 87.5425 99.9835C92.0911 100.09 99.8843 86.9211 102 83.0101C98.4206 81.7543 94.6576 80.595 90.8991 80.0119C84.3395 86.508 65.1587 85.0089 58.5 79.5C54.9679 79.9997 50.5 81.4634 47 83.0101Z" fill="#BDECFF"/>
<path d="M56.4903 95.7889L56.4894 95.7878C55.9588 95.0564 55.404 94.2992 54.8361 93.5244C52.4051 90.2071 49.7367 86.5661 47.7216 83.2416C51.0358 81.8236 55.0899 80.5195 58.3556 80.0264C60.0859 81.3988 62.5339 82.5016 65.3112 83.2982C68.1901 84.1239 71.457 84.6304 74.7172 84.7575C77.9765 84.8845 81.2449 84.6331 84.1239 83.933C86.8961 83.2589 89.3452 82.1594 91.0667 80.5447C94.5063 81.1012 97.9562 82.1391 101.278 83.2879C100.108 85.4001 97.8204 89.2667 95.2813 92.7062C93.8989 94.579 92.4544 96.3078 91.0859 97.5568C90.4017 98.1812 89.7485 98.6745 89.1426 99.0065C88.5338 99.3402 88.0033 99.4941 87.5542 99.4836L87.5542 99.4835H87.5425C86.6712 99.4835 85.8504 98.9377 85.0909 98.261C84.2646 97.5247 83.5396 96.6836 82.7957 95.8204C82.5177 95.4979 82.2371 95.1723 81.9475 94.8479C81.8674 94.7302 81.7957 94.6404 81.7273 94.5547L81.7162 94.5408C81.64 94.4454 81.5591 94.3432 81.4483 94.1831C80.3205 92.5535 79.4302 91.012 78.658 89.675C78.6308 89.6279 78.6037 89.5811 78.5768 89.5344C77.7965 88.1837 77.1131 87.0092 76.4239 86.2296C76.2552 86.0388 76.1199 85.8526 75.9814 85.6523C75.9497 85.6065 75.9173 85.559 75.8839 85.5102C75.7753 85.3512 75.6573 85.1784 75.5246 85.0028L75.3745 84.8042H75.1257H73.6214H73.3807L73.2306 84.9923C73.0635 85.2016 72.9112 85.41 72.7604 85.6299L72.7603 85.6298L72.7546 85.6385C72.0107 86.7728 66.7295 94.6315 66.4637 94.9899C66.4165 95.0536 66.3638 95.132 66.3255 95.1889L66.3205 95.1964C66.3022 95.2237 66.2875 95.2456 66.2755 95.263L66.2665 95.2758C65.7311 95.8909 65.1825 96.5063 64.6316 97.1243L64.6315 97.1243L64.6248 97.1321C64.2405 97.5815 63.8735 97.9614 63.5241 98.2743C62.7545 98.9566 61.9791 99.4573 61.064 99.4972L61.0625 99.4973C60.1375 99.5404 59.3012 99.0658 58.5176 98.313C57.8183 97.6412 57.2206 96.8073 56.6851 96.0601C56.6192 95.9682 56.5543 95.8777 56.4903 95.7889Z" stroke="#333333"/>
<path fill-rule="evenodd" clip-rule="evenodd" d="M90.5372 79.7094L90.8045 79.7478C95.325 80.3961 102.098 82.5411 108.704 85.2041C115.314 87.8687 121.879 91.1007 125.969 93.9753C126.743 94.519 127.434 95.3438 128.059 96.3207C128.69 97.3066 129.287 98.5017 129.851 99.8426C130.979 102.524 132.009 105.868 132.923 109.465C134.752 116.663 136.144 124.984 136.921 131.289L137 131.929L136.451 132.265C130.191 136.094 123.879 139.822 116.951 142.572L116.942 142.576L116.932 142.579C113.568 143.836 112.306 144.272 109.554 145.153L109.54 145.157C105.724 146.319 90.0627 150.035 70.9527 150C51.8531 149.965 29.156 146.184 11.4268 132.197L11 131.86L11.0505 131.319C11.8075 123.202 13.6983 115.099 15.9684 108.448C17.1037 105.122 18.3384 102.147 19.5815 99.706C20.8164 97.2816 22.0897 95.3249 23.3218 94.0877C24.3771 93.0282 26.4369 91.7284 28.9823 90.366C31.5639 88.9842 34.7529 87.4824 38.1587 86.0326C44.9575 83.1385 52.7029 80.4167 58.2835 79.2743L58.3443 79.2618L58.4062 79.257C65.1718 78.7303 72.6408 79.1162 78.6921 79.4972C79.3884 79.541 80.0652 79.5847 80.7196 79.627C82.9228 79.7693 84.8737 79.8953 86.4733 79.9549C87.5098 79.9936 88.3751 80.0033 89.0502 79.9736C89.7633 79.9423 90.142 79.87 90.287 79.8111L90.5372 79.7094ZM135.93 131.412C129.671 135.24 123.424 138.927 116.583 141.642C113.231 142.894 111.984 143.325 109.249 144.2C101.782 146.475 46.9988 158.987 12.0453 131.412C13.5433 115.35 19.5353 99.306 24.0294 94.7937C27.7827 91.0251 47.5122 82.5 58.4836 80.254C65.9341 79.6739 74.2751 80.2128 80.6449 80.6243C85.7103 80.9515 89.5293 81.1982 90.6627 80.7377C99.4637 82 117.4 89.1742 125.395 94.7937C130.388 98.3033 134.383 118.859 135.93 131.412Z" fill="#333333"/>
<path d="M58.5143 80.2749L58.4493 80.5406L58.6381 80.7386C60.3434 82.5276 63.0368 83.7466 66.0896 84.5024C69.1538 85.2611 72.6387 85.5675 75.99 85.4877C79.3399 85.4079 82.581 84.9415 85.1562 84.1389C86.4435 83.7376 87.5799 83.2477 88.4839 82.6692C89.3839 82.0933 90.088 81.4075 90.4551 80.6007L90.5368 80.4211L90.4739 80.234C89.2013 76.4552 89.1178 72.5323 89.0775 68.511V68.5108V68.5106V68.5103V68.5101V68.5098V68.5095V68.5093V68.509V68.5087V68.5084V68.5081V68.5078V68.5075V68.5072V68.5069V68.5066V68.5063V68.5059V68.5056V68.5053V68.5049V68.5046V68.5042V68.5038V68.5035V68.5031V68.5027V68.5023V68.5019V68.5015V68.5011V68.5007V68.5003V68.4999V68.4995V68.4991V68.4986V68.4982V68.4978V68.4973V68.4969V68.4964V68.4959V68.4955V68.495V68.4945V68.494V68.4936V68.4931V68.4926V68.4921V68.4916V68.4911V68.4905V68.49V68.4895V68.489V68.4884V68.4879V68.4873V68.4868V68.4862V68.4857V68.4851V68.4845V68.484V68.4834V68.4828V68.4822V68.4816V68.481V68.4804V68.4798V68.4792V68.4786V68.478V68.4774V68.4767V68.4761V68.4755V68.4748V68.4742V68.4735V68.4729V68.4722V68.4715V68.4709V68.4702V68.4695V68.4688V68.4682V68.4675V68.4668V68.4661V68.4654V68.4647V68.464V68.4632V68.4625V68.4618V68.4611V68.4603V68.4596V68.4589V68.4581V68.4574V68.4566V68.4559V68.4551V68.4543V68.4536V68.4528V68.452V68.4512V68.4504V68.4497V68.4489V68.4481V68.4473V68.4465V68.4457V68.4448V68.444V68.4432V68.4424V68.4416V68.4407V68.4399V68.439V68.4382V68.4374V68.4365V68.4357V68.4348V68.4339V68.4331V68.4322V68.4313V68.4305V68.4296V68.4287V68.4278V68.4269V68.426V68.4251V68.4242V68.4233V68.4224V68.4215V68.4206V68.4197V68.4188V68.4178V68.4169V68.416V68.415V68.4141V68.4132V68.4122V68.4113V68.4103V68.4094V68.4084V68.4074V68.4065V68.4055V68.4045V68.4036V68.4026V68.4016V68.4006V68.3996V68.3987V68.3977V68.3967V68.3957V68.3947V68.3937V68.3927V68.3917V68.3906V68.3896V68.3886V68.3876V68.3866V68.3855V68.3845V68.3835V68.3824V68.3814V68.3803V68.3793V68.3783V68.3772V68.3762V68.3751V68.374V68.373V68.3719V68.3708V68.3698V68.3687V68.3676V68.3666V68.3655V68.3644V68.3633V68.3622V68.3611V68.36V68.3589V68.3579V68.3568V68.3556V68.3545V68.3534V68.3523V68.3512V68.3501V68.349V68.3479V68.3467V68.3456V68.3445V68.3434V68.3422V68.3411V68.34V68.3388V68.3377V68.3365V68.3354V68.3343V68.3331V68.332V68.3308V68.3297V68.3285V68.3273V68.3262V68.325V68.3238V68.3227V68.3215V68.3203V68.3192V68.318V68.3168V68.3156V68.3145V68.3133V68.3121V68.3109V68.3097V68.3085V68.3073V68.3061V68.3049V68.3037V68.3025V68.3013V68.3001V68.2989V68.2977V68.2965V68.2953V68.2941V68.2929V68.2917V68.2905V68.2892V68.288V68.2868V68.2856V68.2844V68.2831V68.2819V68.2807V68.2794V68.2782V68.277V68.2757V68.2745V68.2733V68.272V68.2708V68.2696V68.2683V68.2671V68.2658V68.2646V68.2633V68.2621V68.2608V68.2596V68.2583V68.2571V68.2558V68.2546V68.2533V68.252V68.2508V68.2495V68.2483V68.247V68.2457V68.2445V68.2432V68.2419V68.2407V68.2394V68.2381V68.2369V68.2356V68.2343V68.233V68.2318V68.2305V68.2292V68.2279V68.2266V68.2254V68.2241V68.2228V68.2215V68.2202V68.219V68.2177V68.2164V68.2151V68.2138V68.2125V68.2112V68.21V68.2087V68.2074V68.2061V68.2048V68.2035V68.2022V68.2009V68.1996V68.1983V68.197V68.1957V68.1945V68.1932V68.1919V68.1906V68.1893V68.188V68.1867V68.1854V68.1841V68.1828V68.1815V68.1802V68.1789V68.1776V68.1763V68.175V68.1737V68.1724V68.1711V68.1698V68.1685V68.1672V68.1659V68.1646V68.1633V68.162V68.1607V68.1594V68.1581V68.1568V68.1555V68.1542V68.1529V68.1516V68.1503V68.149V68.1477V68.1464V68.1451V68.1437V68.1424V68.1411V68.1398V68.1385V68.1372V68.1359V68.1346V68.1333V68.132V68.1307V68.1294V68.1281V68.1268V68.1256V68.1243V68.123V68.1217V68.1204V68.1191V68.1178V68.1165V68.1152V68.1139V68.1126V68.1113V68.11V68.1087V68.1074V68.1061V68.1048V68.1035V68.1023V68.101V68.0997V68.0984V68.0971V68.0958V68.0945V68.0932V68.092V68.0907V68.0894V68.0881V68.0868V68.0856V68.0843V68.083V68.0817V68.0804V68.0792V68.0779V68.0766V68.0753V68.0741V68.0728V68.0715V68.0703V68.069V68.0677V68.0665V68.0652V68.0639V68.0627V68.0614V68.0601V68.0589V68.0576V68.0564V68.0551V68.0538V68.0526V68.0513V68.0501V68.0488V68.0476V68.0463V68.0451V68.0438V68.0426V68.0414V68.0401V68.0389V68.0376V68.0364V68.0352V68.0339V68.0327V68.0315V68.0302V68.029V68.0278V68.0266V68.0253V68.0241V68.0229V68.0217V68.0204V68.0192V68.018V68.0168V68.0156V68.0144V68.0132V68.012V68.0108V68.0096V68.0084V68.0072V68.006V68.0048V68.0036V68.0024V68.0012V68V67.004L88.2788 67.599C84.1292 70.6902 79.2536 72.4737 74.0303 72.4737C69.1212 72.4737 64.5091 70.9013 60.533 68.1433L59.7481 67.5988V68.5541V68.5549V68.5557V68.5565V68.5573V68.5581V68.5589V68.5597V68.5605V68.5613V68.562V68.5628V68.5636V68.5644V68.5652V68.566V68.5668V68.5676V68.5684V68.5692V68.57V68.5708V68.5715V68.5723V68.5731V68.5739V68.5747V68.5755V68.5763V68.5771V68.5779V68.5787V68.5794V68.5802V68.581V68.5818V68.5826V68.5834V68.5842V68.585V68.5857V68.5865V68.5873V68.5881V68.5889V68.5897V68.5905V68.5913V68.592V68.5928V68.5936V68.5944V68.5952V68.596V68.5968V68.5975V68.5983V68.5991V68.5999V68.6007V68.6015V68.6022V68.603V68.6038V68.6046V68.6054V68.6061V68.6069V68.6077V68.6085V68.6093V68.61V68.6108V68.6116V68.6124V68.6131V68.6139V68.6147V68.6155V68.6162V68.617V68.6178V68.6186V68.6193V68.6201V68.6209V68.6217V68.6224V68.6232V68.624V68.6247V68.6255V68.6263V68.6271V68.6278V68.6286V68.6294V68.6301V68.6309V68.6317V68.6324V68.6332V68.6339V68.6347V68.6355V68.6362V68.637V68.6378V68.6385V68.6393V68.64V68.6408V68.6416V68.6423V68.6431V68.6438V68.6446V68.6453V68.6461V68.6468V68.6476V68.6483V68.6491V68.6499V68.6506V68.6514V68.6521V68.6528V68.6536V68.6543V68.6551V68.6558V68.6566V68.6573V68.6581V68.6588V68.6596V68.6603V68.661V68.6618V68.6625V68.6633V68.664V68.6647V68.6655V68.6662V68.6669V68.6677V68.6684V68.6691V68.6699V68.6706V68.6713V68.672V68.6728V68.6735V68.6742V68.675V68.6757V68.6764V68.6771V68.6778V68.6786V68.6793V68.68V68.6807V68.6814V68.6822V68.6829V68.6836V68.6843V68.685V68.6857V68.6864V68.6872V68.6879V68.6886V68.6893V68.69V68.6907V68.6914V68.6921V68.6928V68.6935V68.6942V68.6949V68.6956V68.6963V68.697V68.6977V68.6984V68.6991V68.6998V68.7005V68.7011V68.7018V68.7025V68.7032V68.7039V68.7046V68.7053V68.7059V68.7066V68.7073V68.708V68.7087V68.7093V68.71V68.7107V68.7114V68.712V68.7127V68.7134V68.7141V68.7147V68.7154V68.7161V68.7167V68.7174V68.718V68.7187V68.7194V68.72V68.7207V68.7213V68.722V68.7226V68.7233V68.7239V68.7246V68.7252V68.7259V68.7265V68.7272V68.7278V68.7285V68.7291V68.7298V68.7304V68.731V68.7317V68.7323V68.7329V68.7336V68.7342V68.7348V68.7355V68.7361V68.7367V68.7373V68.738V68.7386V68.7392V68.7398V68.7404V68.741V68.7417V68.7423V68.7429V68.7435V68.7441V68.7447V68.7453V68.7459V68.7465V68.7471V68.7477V68.7483V68.7489V68.7495V68.7501V68.7507V68.7513V68.7519V68.7525V68.7531V68.7536V68.7542V68.7548V68.7554V68.756V68.7566V68.7571V68.7577V68.7583V68.7589V68.7594V68.76V68.7606V68.7611V68.7617V68.7622V68.7628V68.7634V68.7639V68.7645V68.765V68.7656V68.7661V68.7667V68.7672V68.7678V68.7683V68.7689V68.7694V68.77V68.7705V68.771V68.7716V68.7721V68.7726V68.7732V68.7737V68.7742V68.7747V68.7753V68.7758V68.7763V68.7768V68.7773V68.7779V68.7784V68.7789V68.7794V68.7799V68.7804V68.7809V68.7814V68.7819V68.7824V68.7829V68.7834V68.7839V68.7844V68.7849V68.7854V68.7858V68.7863V68.7868V68.7873V68.7878V68.7882V68.7887V68.7892V68.7897V68.7901V68.7906V68.7911V68.7915V68.792V68.7924V68.7929V68.7934V68.7938V68.7943V68.7947V68.7952V68.7956V68.7961V68.7965V68.7969V68.7974V68.7978V68.7983V68.7987V68.7991V68.7995V68.8V68.8004V68.8008V68.8012V68.8017V68.8021V68.8025V68.8029V68.8033V68.8037V68.8041V68.8045V68.8049V68.8053V68.8057V68.8061V68.8065V68.8069V68.8073V68.8077V68.8081V68.8085V68.8088V68.8092V68.8096V68.81V68.8103V68.8107V68.8111V68.8115V68.8118V68.8122V68.8125V68.8129V68.8133V68.8136V68.814V68.8143V68.8147V68.815V68.8153V68.8157V68.816V68.8164V68.8167V68.817V68.8174V68.8177V68.818V68.8183V68.8186V68.819V68.8193V68.8196V68.8199V68.8202V68.8205V68.8208V68.8211V68.8214V68.8217V68.822V68.8223V68.8226V68.8229V68.8232V68.8235V68.8237V68.824V68.8243V68.8246V68.8248V68.8251V68.8253C59.7412 68.9613 59.7344 69.0972 59.7275 69.2331C59.5336 73.0906 59.3429 76.8856 58.5143 80.2749Z" fill="#FEFEFE" stroke="#333333"/>
<path fill-rule="evenodd" clip-rule="evenodd" d="M75.0115 73C93.9628 73 104.524 52.382 102.821 35.6266C96.4571 35.0589 74.7123 33.8018 67.6681 14C64.7443 21.1638 61.6845 24.8403 48.4119 29.2332C46.9062 34.6834 46.6086 40.4416 47.5008 46.0208C49.71 59.6129 60.2115 73 75.0115 73Z" fill="#FEFEFE"/>
<path fill-rule="evenodd" clip-rule="evenodd" d="M67.3542 13.9805C74.3282 33.7955 95.8978 35.0533 102.224 35.6214C102.743 40.7749 102.714 46.0351 101.234 51C120.644 3.48514 75.0429 -5.4828 66.6932 4.82369C48.2668 3.36783 38.3785 27.8762 47.3629 46.0361C46.4773 40.4493 46.7721 34.6813 48.2667 29.2238C61.4188 24.828 64.454 21.1491 67.3542 13.9805Z" fill="#EFEFEF" stroke="#333333" stroke-linejoin="round"/>
<path d="M48.6012 29C43.7991 45.2592 49.9644 62.8812 64.8651 70.4824C71.432 73.846 79.2803 73.8324 85.8488 70.4824C98.5748 63.9905 104.17 49.324 102.797 35.0972" stroke="#333333"/>
<defs>
<linearGradient id="paint0_linear_125_8622" x1="53.0306" y1="90.6169" x2="78.1135" y2="129.466" gradientUnits="userSpaceOnUse">
<stop stop-color="#FFC671"/>
<stop offset="1" stop-color="#FF6F3D"/>
</linearGradient>
</defs>
</svg>
