<svg width="135" height="135" viewBox="0 0 135 135" fill="none" xmlns="http://www.w3.org/2000/svg">
<g clip-path="url(#clip0_125_1919)">
<path fill-rule="evenodd" clip-rule="evenodd" d="M6.00008 11.9448C5.99637 11.2967 6.12095 10.6544 6.36665 10.0546C6.61235 9.45485 6.97433 8.90952 7.43176 8.44998C7.88919 7.99045 8.43306 7.62577 9.03208 7.37693C9.63111 7.12809 10.2735 6.99999 10.9222 7H59.0749C62.5386 7 64.0123 8.83105 63.997 11.4912V80.999C64.0195 81.6406 63.9138 82.2803 63.6861 82.8806C63.4583 83.481 63.1131 84.03 62.6706 84.4956C62.2281 84.9611 61.6971 85.334 61.1087 85.5923C60.5203 85.8506 59.8863 85.9892 59.2436 86H10.9222C10.2735 86 9.63111 85.8719 9.03208 85.6231C8.43306 85.3742 7.88919 85.0096 7.43176 84.55C6.97433 84.0905 6.61235 83.5452 6.36665 82.9454C6.12095 82.3456 5.99637 81.7033 6.00008 81.0552V11.9448Z" fill="#EFEFEF"/>
<path fill-rule="evenodd" clip-rule="evenodd" d="M11.4682 7C9.1361 6.99996 6.98501 8.96344 6.99934 11.4469L6.99935 11.4498L6.99934 81.5502L6.99934 81.5531C6.99598 82.1351 7.10881 82.7122 7.33147 83.2513C7.55413 83.7903 7.8823 84.2807 8.29736 84.6942C8.71243 85.1077 9.20621 85.4361 9.75043 85.6603C10.2947 85.8845 10.8784 86 11.4682 86H48.5311C48.807 86 49.0307 86.2239 49.0307 86.5C49.0307 86.7761 48.807 87 48.5311 87H11.4682C10.7482 87 10.0351 86.859 9.37005 86.585C8.70495 86.3111 8.10076 85.9094 7.59236 85.4029C7.08395 84.8964 6.68136 84.295 6.408 83.6333C6.13482 82.972 5.99615 82.2636 6.00008 81.5488V11.4512C5.98319 8.37646 8.62061 5.99996 11.4682 6C11.4682 6 11.4682 6 11.4682 6H13.8597C14.1356 6 14.3593 6.22386 14.3593 6.5C14.3593 6.77614 14.1356 7 13.8597 7H11.4682ZM56.5062 6.5C56.5062 6.22386 56.7299 6 57.0058 6H59.504C62.3547 5.99995 65.0169 8.42969 64.9999 11.5015V27C64.9999 27.2761 64.7762 27.5 64.5003 27.5C64.2244 27.5 64.0007 27.2761 64.0007 27V11.5L64.0007 11.4971C64.015 9.01063 61.8329 6.99996 59.504 7H57.0058C56.7299 7 56.5062 6.77614 56.5062 6.5Z" fill="#333333"/>
<path fill-rule="evenodd" clip-rule="evenodd" d="M11 13C11 11.8954 11.8954 11 13 11H57C58.1046 11 59 11.8954 59 13L59 79C59 80.1046 58.1046 81 57 81H13C11.8954 81 11 80.1046 11 79V13Z" fill="white"/>
<path fill-rule="evenodd" clip-rule="evenodd" d="M13.9591 80.9932C12.5848 80.9932 11.4679 79.8771 11.4581 78.4939L11.0005 13.5503C10.9906 12.1532 12.1133 11.0153 13.5015 11.0153H13.9803C14.2566 11.0153 14.4805 10.79 14.4805 10.5119C14.4805 10.2339 14.2566 10.0085 13.9803 10.0085H13.5015C11.558 10.0085 9.98631 11.6015 10.0001 13.5574L10.4577 78.5011C10.4714 80.4375 12.035 82 13.9591 82H51.4964C51.7727 82 51.9966 81.7746 51.9966 81.4966C51.9966 81.2186 51.7727 80.9932 51.4964 80.9932H13.9591ZM59.4998 31.6557C59.776 31.6557 60 31.4303 60 31.1522V13.5239C60 11.5777 58.4323 10 56.4985 10H56.0581C55.7819 10 55.5579 10.2254 55.5579 10.5034C55.5579 10.7814 55.7819 11.0068 56.0581 11.0068H56.4985C57.8798 11.0068 58.9996 12.1338 58.9996 13.5239V31.1522C58.9996 31.4303 59.2235 31.6557 59.4998 31.6557Z" fill="#333333"/>
<path fill-rule="evenodd" clip-rule="evenodd" d="M49.3027 32.3673C50.0766 32.9597 50.2378 34.0861 49.6628 34.8834L33.1674 57.7508C32.6923 58.4188 31.934 58.9716 30.9494 58.9873C30.0099 59.0024 29.2381 58.5205 28.691 57.9662C28.6202 57.8945 28.5555 57.8167 28.4976 57.7337L21.321 47.4488C20.7583 46.6423 20.9368 45.5186 21.7197 44.939C22.5026 44.3593 23.5935 44.5431 24.1563 45.3496L30.8466 54.9377L46.8601 32.7382C47.4352 31.941 48.5288 31.7749 49.3027 32.3673Z" fill="#BDECFF"/>
<path fill-rule="evenodd" clip-rule="evenodd" d="M49.8985 31.5574C51.1101 32.4847 51.3585 34.2406 50.4623 35.4829L33.9709 58.3448C33.9702 58.3458 33.9695 58.3468 33.9688 58.3478C33.3586 59.2042 32.335 59.9772 30.965 59.9992C29.6664 60.02 28.6517 59.353 27.9913 58.684L28.6909 57.9659C29.238 58.5202 30.0098 59.0021 30.9494 58.987C31.934 58.9713 32.6923 58.4185 33.1673 57.7505L49.6627 34.8831C50.2378 34.0858 50.0766 32.9594 49.3027 32.367C48.5287 31.7746 47.4351 31.9407 46.8601 32.7379L46.0605 32.1381C46.961 30.8897 48.6809 30.6255 49.8985 31.5574ZM24.1562 45.3493C23.5935 44.5428 22.5026 44.359 21.7197 44.9386C20.9367 45.5183 20.7582 46.642 21.321 47.4485L28.4975 57.7334C28.5555 57.8164 28.6202 57.8942 28.6909 57.9659L27.9913 58.684C27.8805 58.5717 27.7793 58.45 27.6888 58.3203L20.5122 48.0354C19.6355 46.7789 19.9105 45.0272 21.1365 44.1195C22.3685 43.2073 24.0841 43.4999 24.965 44.7624L30.8599 53.2105L46.0605 32.1381L46.8601 32.7379L30.8466 54.9373L24.1562 45.3493Z" fill="#333333"/>
<path fill-rule="evenodd" clip-rule="evenodd" d="M39.626 4.8234C39.6154 2.90464 37.7355 0.999634 35.4615 0.999634C33.1875 0.999634 31.394 3.02627 31.394 4.8234H19.058C17.924 4.8234 17 6.05877 17 7.23561V9.716C17 10.8928 17.866 11.9996 19 11.9996H50.942C52.076 11.9996 53 11.1446 53 9.96777V6.96698C53 5.79014 52.076 4.8234 50.942 4.8234H39.626Z" fill="#BDECFF"/>
<path fill-rule="evenodd" clip-rule="evenodd" d="M38.6317 5.84857L38.626 4.82921C38.6189 3.54316 37.2551 2.02481 35.4615 2.02481C34.6201 2.02481 33.8452 2.40055 33.2726 2.97211C32.6884 3.55529 32.394 4.25977 32.394 4.8234V5.84857H19.058C18.8593 5.84857 18.605 5.9594 18.3702 6.2467C18.1347 6.53468 18 6.90881 18 7.23561V9.716C18 10.4694 18.5479 10.9745 19 10.9745H50.942C51.5785 10.9745 52 10.5239 52 9.96777V6.96698C52 6.33957 51.5075 5.84857 50.942 5.84857H38.6317ZM31.394 4.8234C31.394 3.02627 33.1875 0.999634 35.4615 0.999634C37.7355 0.999634 39.6154 2.90464 39.626 4.8234H50.942C52.076 4.8234 53 5.79014 53 6.96698V9.96777C53 11.1446 52.076 11.9996 50.942 11.9996H19C17.866 11.9996 17 10.8928 17 9.716V7.23561C17 6.05877 17.924 4.8234 19.058 4.8234H31.394Z" fill="#333333"/>
<path fill-rule="evenodd" clip-rule="evenodd" d="M58.0001 42.6043C57.9813 39.3119 60.6147 37 63.4032 37L122.573 37C125.856 37 127.996 39.8144 127.996 42.6664V128.288C128.109 131.517 125.924 133.945 122.658 134H64.0254C60.2981 134 58 132.292 58 127.929L58.0001 42.6043Z" fill="#EFEFEF"/>
<path fill-rule="evenodd" clip-rule="evenodd" d="M63.5863 37C60.6721 37 57.9822 39.4514 58.0001 42.5606L58.0001 42.5635L58.0001 128.436L58.0001 128.439C57.9959 129.167 58.137 129.889 58.4155 130.563C58.694 131.238 59.1043 131.851 59.6233 132.368C60.1422 132.885 60.7595 133.295 61.4396 133.576C62.1198 133.856 62.8494 134 63.5863 134H122.614C123.342 133.987 124.059 133.831 124.725 133.542C125.392 133.251 125.994 132.832 126.495 132.309C126.996 131.786 127.387 131.17 127.645 130.496C127.903 129.823 128.022 129.105 127.997 128.385C127.996 128.379 127.996 128.373 127.996 128.368V42.5635L127.996 42.5606C128.014 39.4514 125.324 37 122.41 37H119.484C119.208 37 118.984 36.7761 118.984 36.5C118.984 36.2239 119.208 36 119.484 36H122.41C125.841 35.9999 129.017 38.8652 128.996 42.5651C128.996 42.5655 128.996 42.566 128.996 42.5664L128.996 128.359C129.025 129.21 128.883 130.058 128.579 130.854C128.273 131.652 127.81 132.382 127.217 133.001C126.624 133.62 125.913 134.115 125.124 134.458C124.336 134.802 123.487 134.986 122.627 135L122.619 135H63.5864C62.7189 135 61.8599 134.83 61.0587 134.5C60.2575 134.17 59.5298 133.686 58.9175 133.076C58.3052 132.466 57.8204 131.742 57.4912 130.945C57.1623 130.149 56.9953 129.296 57.0001 128.435V42.5649C56.9796 38.8651 60.1555 35.9999 63.5863 36C63.5864 36 63.5863 36 63.5863 36H66.5159C66.792 36 67.0159 36.2239 67.0159 36.5C67.0159 36.7761 66.792 37 66.5159 37H63.5863Z" fill="#333333"/>
<path fill-rule="evenodd" clip-rule="evenodd" d="M64 43.9999C64 42.8954 64.8954 41.9999 66 41.9999H120C121.105 41.9999 122 42.8954 122 43.9999V126C122 127.105 121.105 128 120 128H66C64.8954 128 64 127.105 64 126V43.9999Z" fill="white"/>
<path fill-rule="evenodd" clip-rule="evenodd" d="M63 125.5C63 127.433 64.567 129 66.5 129H119.5C121.433 129 123 127.433 123 125.5V44.4999C123 42.5669 121.433 40.9999 119.5 40.9999H118C117.724 40.9999 117.5 41.2238 117.5 41.4999C117.5 41.7761 117.724 41.9999 118 41.9999H119.5C120.881 41.9999 122 43.1192 122 44.4999V125.5C122 126.881 120.881 128 119.5 128H66.5C65.1193 128 64 126.881 64 125.5V44.4999C64 43.1192 65.1193 41.9999 66.5 41.9999H67.4904C67.7665 41.9999 67.9904 41.7761 67.9904 41.4999C67.9904 41.2238 67.7665 40.9999 67.4904 40.9999H66.5C64.567 40.9999 63 42.5669 63 44.4999V125.5Z" fill="#333333"/>
<path fill-rule="evenodd" clip-rule="evenodd" d="M113.07 69.4603C114.083 70.2288 114.294 71.6903 113.541 72.7247L91.9465 102.394C91.3246 103.26 90.3318 103.978 89.0429 103.998C87.8129 104.018 86.8025 103.392 86.0863 102.673C85.9937 102.58 85.909 102.479 85.8331 102.372L76.4381 89.0276C75.7014 87.9812 75.9351 86.5233 76.9601 85.7712C77.985 85.0191 79.4131 85.2576 80.1498 86.304L88.9083 98.7439L109.872 69.9415C110.625 68.9072 112.056 68.6917 113.07 69.4603Z" fill="url(#paint0_linear_125_1919)"/>
<path fill-rule="evenodd" clip-rule="evenodd" d="M113.682 68.6661C115.135 69.7683 115.426 71.8435 114.358 73.3112L92.7676 102.975C92.7669 102.976 92.7662 102.977 92.7656 102.978C92.0099 104.029 90.7473 104.972 89.0588 104.999C87.4571 105.025 86.198 104.21 85.3689 103.377C85.236 103.244 85.1148 103.099 85.0064 102.945L75.6114 89.6013C74.5666 88.1173 74.8896 86.0467 76.3604 84.9675C77.8488 83.8753 79.9196 84.2311 80.9762 85.7317L88.9217 97.0171L109.054 69.3564C110.135 67.8721 112.211 67.5507 113.682 68.6661ZM109.872 69.9422C110.625 68.9079 112.056 68.6924 113.069 69.461C114.083 70.2295 114.294 71.6911 113.541 72.7254L91.9463 102.395C91.3244 103.261 90.3316 103.978 89.0427 103.999C87.8127 104.018 86.8023 103.393 86.0861 102.674C85.9935 102.581 85.9088 102.48 85.8329 102.372L76.4379 89.0283C75.7012 87.9819 75.9349 86.524 76.9599 85.7719C77.9848 85.0198 79.4129 85.2584 80.1497 86.3047L88.9081 98.7446L109.872 69.9422Z" fill="#333333"/>
<path fill-rule="evenodd" clip-rule="evenodd" d="M98.9831 33.9574C98.9702 31.5553 96.6098 28.9997 93.8351 28.9997C91.0604 28.9997 88.9891 31.4467 88.9132 33.9236H73.6516C72.268 33.9236 71 35.2174 71 36.6906V41.3334C71 42.8067 72.0072 43.9997 73.3909 43.9997H112.475C113.859 43.9997 114.973 42.9624 114.973 41.4891L115 36.5542C115 35.0809 113.764 33.9574 112.38 33.9574H98.9831Z" fill="url(#paint1_linear_125_1919)"/>
<path fill-rule="evenodd" clip-rule="evenodd" d="M98.0054 35L98 34.0054C97.9952 33.1255 97.5474 32.1322 96.7551 31.3432C95.9695 30.5609 94.9283 30.0632 93.8489 30.0632C91.6843 30.0632 89.9852 31.9964 89.9235 33.9971L89.8937 34.9663H73.6532C72.8496 34.9663 72 35.7779 72 36.7217V41.345C72 42.3784 72.6717 43.0001 73.3923 43.0001H112.5C113.354 43.0001 114 42.3932 114 41.5001V41.4947L114.027 36.5859C114.027 36.5852 114.027 36.5844 114.027 36.5836C114.025 35.7079 113.275 35 112.405 35H98.0054ZM115.027 36.5859L115 41.5001C115 42.9671 113.884 44.0001 112.5 44.0001H73.3923C72.0078 44.0001 71 42.812 71 41.345V36.7217C71 35.2547 72.2687 33.9663 73.6532 33.9663H88.924C89 31.4999 91.0725 29.0632 93.8489 29.0632C96.6252 29.0632 98.987 31.608 99 34H112.405C113.789 34 115.027 35.1188 115.027 36.5859Z" fill="#333333"/>
<path fill-rule="evenodd" clip-rule="evenodd" d="M19.9193 96.2159L19.9193 96.2159L19.9193 96.2159L19.9196 96.2163L19.9208 96.2181L19.9262 96.2261L19.9483 96.2586C19.9681 96.2876 19.9979 96.331 20.0372 96.3878C20.1159 96.5013 20.2326 96.6682 20.3841 96.88C20.6872 97.3036 21.1289 97.9066 21.6818 98.6215C21.8507 98.8399 21.8106 99.1539 21.5922 99.3229C21.3737 99.4918 21.0597 99.4517 20.8908 99.2333C20.3292 98.5072 19.88 97.894 19.5708 97.4618C19.4162 97.2456 19.2965 97.0746 19.2152 96.9572C19.1745 96.8986 19.1435 96.8533 19.1224 96.8224L19.0984 96.7871L19.0921 96.7779L19.0905 96.7754L19.09 96.7747L19.0898 96.7745L19.0898 96.7744L19.5045 96.4951L19.0897 96.7743C18.9355 96.5453 18.9962 96.2346 19.2253 96.0803C19.4544 95.9261 19.7651 95.9868 19.9193 96.2159ZM24.864 103.144C25.0632 102.952 25.3797 102.959 25.571 103.158C26.2514 103.867 26.9688 104.568 27.7098 105.229C27.9158 105.413 27.9337 105.729 27.7498 105.935C27.566 106.141 27.2499 106.159 27.0439 105.975C26.2806 105.294 25.5447 104.574 24.8497 103.851C24.6584 103.652 24.6648 103.335 24.864 103.144ZM31.3395 108.755C31.5081 108.537 31.8221 108.496 32.0408 108.665C35.776 111.544 41.5323 114.016 46.1565 114.91C46.1356 114.799 46.1016 114.688 46.0537 114.579L42.1104 105.648C41.9989 105.396 42.1133 105.101 42.3659 104.989C42.6185 104.878 42.9137 104.992 43.0252 105.245L46.9685 114.175C47.5559 115.506 46.8883 117.055 45.5179 117.541L36.3156 120.807C36.0554 120.9 35.7695 120.763 35.6771 120.503C35.5847 120.243 35.7208 119.957 35.981 119.865L45.1833 116.599C45.549 116.469 45.8312 116.213 46.0009 115.899C41.2267 114.982 35.306 112.445 31.4302 109.457C31.2115 109.288 31.1709 108.974 31.3395 108.755Z" fill="#333333"/>
<path fill-rule="evenodd" clip-rule="evenodd" d="M97.763 24.9521C97.5549 25.1335 97.2391 25.112 97.0576 24.9038L97.0576 24.9038L97.0576 24.9038L97.0573 24.9036L97.0562 24.9022L97.051 24.8964L97.0297 24.8721C97.0105 24.8505 96.9818 24.818 96.9438 24.7756C96.8678 24.6907 96.755 24.566 96.6092 24.408C96.3174 24.0919 95.8936 23.6429 95.3675 23.1137C95.1728 22.9179 95.1737 22.6013 95.3695 22.4066C95.5654 22.2119 95.882 22.2128 96.0766 22.4087C96.6127 22.9479 97.0451 23.4059 97.344 23.7298C97.4935 23.8917 97.6096 24.0201 97.6887 24.1085C97.7283 24.1526 97.7586 24.1868 97.7791 24.2101L97.8027 24.2368L97.8089 24.2438L97.8105 24.2458L97.811 24.2463L97.8112 24.2465L97.8112 24.2466L97.4344 24.5752L97.8113 24.2466C97.9928 24.4547 97.9712 24.7706 97.763 24.9521ZM92.4202 19.7197C92.2461 19.9341 91.9312 19.9668 91.7168 19.7928C91.0868 19.2814 90.4278 18.7803 89.7545 18.3149C89.5273 18.1579 89.4704 17.8465 89.6274 17.6193C89.7844 17.3921 90.0958 17.3352 90.323 17.4923C91.021 17.9747 91.7007 18.4917 92.3471 19.0164C92.5615 19.1904 92.5942 19.5053 92.4202 19.7197ZM86.5448 15.7735C86.4046 16.0113 86.0981 16.0905 85.8602 15.9503C82.5835 14.0187 77.7698 12.6195 73.9627 12.3439C73.9979 12.4861 74.0547 12.6258 74.1346 12.7583L78.1458 19.4188C78.2883 19.6554 78.212 19.9626 77.9755 20.105C77.7389 20.2474 77.4317 20.1711 77.2892 19.9345L73.2779 13.274C73.0192 12.8444 72.9051 12.3699 72.9202 11.9057C72.9131 11.8682 72.9101 11.8293 72.9118 11.7895C72.9142 11.7342 72.9254 11.6814 72.9442 11.6325C73.0541 10.8634 73.5197 10.1541 74.267 9.76602L81.0578 6.23993C81.3029 6.11268 81.6047 6.2082 81.732 6.45327C81.8593 6.69834 81.7639 7.00016 81.5188 7.1274L74.728 10.6535C74.4224 10.8122 74.1954 11.0603 74.0609 11.3484C78.0098 11.6393 82.9585 13.0789 86.368 15.0888C86.6059 15.2291 86.6851 15.5356 86.5448 15.7735Z" fill="#333333"/>
</g>
<defs>
<linearGradient id="paint0_linear_125_1919" x1="76.0084" y1="67.6326" x2="110.782" y2="106.846" gradientUnits="userSpaceOnUse">
<stop stop-color="#FFC671"/>
<stop offset="0.59375" stop-color="#FF7541"/>
<stop offset="1" stop-color="#FF6F3D"/>
</linearGradient>
<linearGradient id="paint1_linear_125_1919" x1="71.0001" y1="28.4138" x2="79.8928" y2="55.5181" gradientUnits="userSpaceOnUse">
<stop stop-color="#FFC671"/>
<stop offset="0.59375" stop-color="#FF7541"/>
<stop offset="1" stop-color="#FF6F3D"/>
</linearGradient>
<clipPath id="clip0_125_1919">
<rect width="135" height="135" fill="white"/>
</clipPath>
</defs>
</svg>
