<svg width="150" height="150" viewBox="0 0 150 150" fill="none" xmlns="http://www.w3.org/2000/svg">
<g clip-path="url(#clip0_125_8484)">
<path fill-rule="evenodd" clip-rule="evenodd" d="M30.9999 111C57.0658 97.3377 82.9892 83.1623 109.055 69.5C131.895 57.5267 131.51 58.9432 108.72 47C82.6737 33.3579 48.012 14.5 30.9999 7V111Z" fill="url(#paint0_linear_125_8484)"/>
<path d="M38.5 10C63.2845 22.8457 88.6122 36.1139 113.36 49.0304C121.773 53.3329 126 55.4891 126 58.0355C126.01 60.5916 121.744 62.7673 113.203 67.1479L31.9999 110" stroke="#333333" stroke-linecap="round" stroke-linejoin="round"/>
<path fill-rule="evenodd" clip-rule="evenodd" d="M28.0001 1C29.6516 1 31.0001 2.37663 31.0001 4.0625V144.937C31.0001 146.623 29.6516 148 28.0001 148C26.3487 148 25.0001 146.623 25.0001 144.937V4.0625C25.0001 2.37663 26.3487 1 28.0001 1Z" fill="#FEFEFE"/>
<path fill-rule="evenodd" clip-rule="evenodd" d="M25.9035 2.78159C25.3387 3.26318 25.0001 3.89898 25.0001 4.56636V130.499C25.0001 130.776 24.7763 131 24.5001 131C24.224 131 24.0001 130.776 24.0001 130.499V4.56636C24.0001 3.54605 24.517 2.64893 25.255 2.01954C25.9925 1.39058 26.9812 1 28.0001 1C29.0191 1 30.0078 1.39058 30.7453 2.01954C31.4833 2.64893 32.0001 3.54605 32.0001 4.56636V130.499C32.0001 130.776 31.7763 131 31.5001 131C31.224 131 31.0001 130.776 31.0001 130.499V4.56636C31.0001 3.89898 30.6615 3.26318 30.0968 2.78159C29.5316 2.29956 28.7703 2.00108 28.0001 2.00108C27.23 2.00108 26.4687 2.29956 25.9035 2.78159Z" fill="#333333"/>
<path d="M30.7091 129.5H25.2911C24.3248 129.5 23.5001 130.265 23.5001 131.241V147.759C23.5001 148.735 24.3248 149.5 25.2911 149.5H30.7091C31.6754 149.5 32.5001 148.735 32.5001 147.759V131.241C32.5001 130.265 31.6754 129.5 30.7091 129.5Z" fill="#BDECFF" stroke="#333333"/>
<path fill-rule="evenodd" clip-rule="evenodd" d="M64.4999 77C54.2846 77 45.9999 68.7153 45.9999 58.5C45.9999 48.2847 54.2846 40 64.4999 40C74.7151 40 82.9999 48.2847 82.9999 58.5C82.9902 68.7153 74.7151 77 64.4999 77Z" fill="#FEFEFE"/>
<path fill-rule="evenodd" clip-rule="evenodd" d="M83.9999 58.5V58.501C83.9897 69.2669 75.2683 78 64.4999 78C53.7323 78 44.9999 69.2675 44.9999 58.5C44.9999 47.7325 53.7323 39 64.4999 39C75.2674 39 83.9999 47.7325 83.9999 58.5ZM45.9999 58.5C45.9999 68.7153 54.2846 77 64.4999 77C74.7151 77 82.9902 68.7153 82.9999 58.5C82.9999 48.2847 74.7151 40 64.4999 40C54.2846 40 45.9999 48.2847 45.9999 58.5Z" fill="#333333"/>
<path fill-rule="evenodd" clip-rule="evenodd" d="M64.4999 74C55.9448 74 48.9999 67.0648 48.9999 58.5C48.9999 49.9352 55.9351 43 64.4999 43C73.055 43 79.9999 49.9352 79.9999 58.5C79.9999 67.0551 73.055 74 64.4999 74Z" fill="url(#paint1_linear_125_8484)"/>
<path fill-rule="evenodd" clip-rule="evenodd" d="M53.02 70L64 58.5802V42.4452C55.3638 39.6281 47 50.755 47 59.6606C47 64.1235 49.7815 69.3033 53.02 70Z" fill="#FEFEFE"/>
</g>
<defs>
<linearGradient id="paint0_linear_125_8484" x1="0.314385" y1="-2.23705" x2="61.8022" y2="65.0439" gradientUnits="userSpaceOnUse">
<stop stop-color="#FFC671"/>
<stop offset="1" stop-color="#FF6F3D"/>
</linearGradient>
<linearGradient id="paint1_linear_125_8484" x1="48.5317" y1="40.9152" x2="66.9036" y2="61.1514" gradientUnits="userSpaceOnUse">
<stop stop-color="#FFC671"/>
<stop offset="1" stop-color="#FF6F3D"/>
</linearGradient>
<clipPath id="clip0_125_8484">
<rect width="150" height="150" fill="white"/>
</clipPath>
</defs>
</svg>
