<svg width="150" height="150" viewBox="0 0 150 150" fill="none" xmlns="http://www.w3.org/2000/svg">
<g clip-path="url(#clip0_125_7726)">
<path fill-rule="evenodd" clip-rule="evenodd" d="M92.5176 100.932C92.2318 99.8649 92.8649 98.7682 93.9319 98.4824V98.4824C94.9988 98.1965 96.0955 98.8296 96.3813 99.8966L107.769 142.397C108.055 143.464 107.422 144.561 106.355 144.847V144.847C105.288 145.133 104.192 144.5 103.906 143.433L92.5176 100.932Z" fill="#333333"/>
<path fill-rule="evenodd" clip-rule="evenodd" d="M57.4824 100.932C57.7682 99.8649 57.1351 98.7682 56.0681 98.4824V98.4824C55.0012 98.1965 53.9045 98.8296 53.6187 99.8966L42.2306 142.397C41.9447 143.464 42.5779 144.561 43.6448 144.847V144.847C44.7118 145.133 45.8084 144.5 46.0943 143.433L57.4824 100.932Z" fill="#333333"/>
<path fill-rule="evenodd" clip-rule="evenodd" d="M1.00018 9.99999C1.00018 7.23857 3.23876 5 6.00018 5L144 5.00002C146.761 5.00002 149 7.2386 149 10V96C149 98.7615 146.761 101 144 101H6.00001C3.23858 101 0.999994 98.7614 1 96L1.00018 9.99999Z" fill="#FEFEFE"/>
<path fill-rule="evenodd" clip-rule="evenodd" d="M144 6.00002L6.00018 6C3.79104 6 2.00018 7.79086 2.00018 10L2 96C2 98.2092 3.79087 100 6.00001 100H144C146.209 100 148 98.2092 148 96V10C148 7.79088 146.209 6.00002 144 6.00002ZM6.00018 5C3.23876 5 1.00018 7.23857 1.00018 9.99999L1 96C0.999994 98.7614 3.23858 101 6.00001 101H144C146.761 101 149 98.7615 149 96V10C149 7.2386 146.761 5.00002 144 5.00002L6.00018 5Z" fill="#333333"/>
<path d="M1.50027 96L1.50029 91.5L148.5 91.5V96C148.5 98.4853 146.485 100.5 144 100.5H6.00027C3.51498 100.5 1.50026 98.4853 1.50027 96Z" fill="url(#paint0_linear_125_7726)" stroke="#333333"/>
<path fill-rule="evenodd" clip-rule="evenodd" d="M85.9995 18H110C125.402 18 138 30.6613 138 46.1407C138 52.0745 136.144 57.5915 132.994 62.146L136.206 80L120.801 74.5061H86.0157C75.9947 74.5061 67.1423 68.9232 62.196 60.9156C59.5402 56.6191 58 51.5486 58 46.1407C58 30.6682 70.5866 18 85.9995 18Z" fill="#FEFEFE"/>
<path fill-rule="evenodd" clip-rule="evenodd" d="M120.801 74.5061H86.0157C75.9947 74.5061 67.1423 68.9232 62.196 60.9156C59.5402 56.6191 58 51.5486 58 46.1407C58 30.6682 70.5866 18 85.9995 18H110C125.402 18 138 30.6613 138 46.1407C138 52.0745 136.144 57.5915 132.994 62.146L136.206 80L120.801 74.5061ZM134.051 62.3711L137.496 81.5217L120.628 75.5061H86.0157C75.6153 75.5061 66.4559 69.7147 61.3454 61.4414M134.051 62.3711C137.169 57.7237 139 52.1376 139 46.1407C139 30.1138 125.959 17 110 17H85.9995C70.0291 17 57 30.1211 57 46.1407C57 51.7405 58.5953 56.9923 61.3454 61.4414" fill="#333333"/>
<path fill-rule="evenodd" clip-rule="evenodd" d="M86.7649 46.1488C87.0283 46.378 87.0853 46.7229 86.8594 46.9902L85.2562 48.8838L83.653 50.7774C83.5396 50.9117 83.3763 50.9921 83.2022 50.9994C83.0282 51.0068 82.8589 50.9404 82.7349 50.8162L81.1869 49.2314C80.94 48.9841 80.9374 48.5804 81.1811 48.3297C81.4247 48.0791 81.8225 48.0764 82.0694 48.3238L83.2022 49.4527L85.8821 46.2293C86.108 45.962 86.5016 45.9196 86.7649 46.1488Z" fill="#333333"/>
<path fill-rule="evenodd" clip-rule="evenodd" d="M90 46.5C90 46.2239 90.2239 46 90.5 46H118.5C118.776 46 119 46.2239 119 46.5C119 46.7761 118.776 47 118.5 47H90.5C90.2239 47 90 46.7761 90 46.5Z" fill="#333333"/>
<path fill-rule="evenodd" clip-rule="evenodd" d="M90 50.5C90 50.2239 90.2239 50 90.5 50H112.5C112.776 50 113 50.2239 113 50.5C113 50.7761 112.776 51 112.5 51H90.5C90.2239 51 90 50.7761 90 50.5Z" fill="#333333"/>
<path d="M16.5 73C17.3284 73 18 72.3284 18 71.5C18 70.6716 17.3284 70 16.5 70C15.6716 70 15 70.6716 15 71.5C15 72.3284 15.6716 73 16.5 73Z" fill="url(#paint1_linear_125_7726)"/>
<path d="M16.5 78C17.3284 78 18 77.3284 18 76.5C18 75.6716 17.3284 75 16.5 75C15.6716 75 15 75.6716 15 76.5C15 77.3284 15.6716 78 16.5 78Z" fill="url(#paint2_linear_125_7726)"/>
<path fill-rule="evenodd" clip-rule="evenodd" d="M21 71.5C21 71.2239 21.2299 71 21.5135 71H39.4865C39.7701 71 40 71.2239 40 71.5C40 71.7761 39.7701 72 39.4865 72H21.5135C21.2299 72 21 71.7761 21 71.5Z" fill="#333333"/>
<path fill-rule="evenodd" clip-rule="evenodd" d="M21 76.5C21 76.2239 21.2328 76 21.52 76H33.48C33.7672 76 34 76.2239 34 76.5C34 76.7761 33.7672 77 33.48 77H21.52C21.2328 77 21 76.7761 21 76.5Z" fill="#333333"/>
<path fill-rule="evenodd" clip-rule="evenodd" d="M44 71.5C44 71.2239 44.2239 71 44.5 71H54.5C54.7761 71 55 71.2239 55 71.5C55 71.7761 54.7761 72 54.5 72H44.5C44.2239 72 44 71.7761 44 71.5Z" fill="#333333"/>
<path fill-rule="evenodd" clip-rule="evenodd" d="M37 76.5C37 76.2239 37.2239 76 37.5 76H61.5C61.7761 76 62 76.2239 62 76.5C62 76.7761 61.7761 77 61.5 77H37.5C37.2239 77 37 76.7761 37 76.5Z" fill="#333333"/>
<path d="M11 58L11.1793 58.4668C10.9723 58.5462 10.7377 58.4799 10.6029 58.3039C10.4682 58.1278 10.4655 57.884 10.5963 57.705C10.9302 57.248 11.3705 56.4304 11.8764 55.3933C12.3775 54.3661 12.9262 53.1593 13.4787 51.9441L13.4806 51.94C14.0309 50.7295 14.5849 49.511 15.0925 48.4704C15.5956 47.4391 16.0703 46.5462 16.4632 46.0081C16.4742 45.9929 16.4849 45.9784 16.4951 45.9645C16.4691 45.9309 16.441 45.8933 16.4111 45.8515L16.41 45.85C14.3971 43.011 12.1508 38.5021 12.1508 34.6793C12.1508 24.5676 20.6976 17.5 30.4181 17.5H56.2424C66.2787 17.5 74.4996 25.5374 74.4996 35.3926C74.4996 45.3823 66.2323 53.5621 56.2424 53.5621H34.4181C32.7842 53.5621 30.1713 53.3465 28.6271 52.9303M11 58L28.6271 52.9303M11 58C11.1793 58.4668 11.1793 58.4667 11.1794 58.4667L11.1798 58.4666L11.1815 58.4659L11.1881 58.4634L11.2145 58.4532L11.3183 58.4135C11.4094 58.3786 11.5436 58.3273 11.7156 58.2617C12.0597 58.1304 12.5553 57.9419 13.1609 57.7129C14.3722 57.2549 16.0233 56.6352 17.7829 55.9881C21.316 54.689 25.2459 53.2951 26.9572 52.8641C27.177 52.809 27.3537 52.7608 27.4805 52.7262C27.5372 52.7108 27.5839 52.698 27.6201 52.6886C27.7023 52.6671 27.7368 52.6613 27.748 52.6598M11 58L27.748 52.6598M28.6271 52.9303C28.2865 52.8387 28.0724 52.7667 27.9259 52.7168L27.917 52.7138C27.8468 52.6898 27.8068 52.6762 27.7743 52.6667C27.7608 52.6628 27.7525 52.6607 27.748 52.6598M28.6271 52.9303L27.748 52.6598" fill="#BDECFF" stroke="#333333" stroke-linejoin="round"/>
<path fill-rule="evenodd" clip-rule="evenodd" d="M27.403 27.0761C30.7035 26.5978 33.6436 28.4251 33.9702 31.1354C34.2969 33.858 31.8975 36.4456 28.597 36.9239C25.2965 37.4022 22.3564 35.5749 22.0298 32.8523C21.7031 30.142 24.1025 27.5544 27.403 27.0761Z" fill="#FEFEFE" stroke="#333333"/>
<path fill-rule="evenodd" clip-rule="evenodd" d="M39 25.5C39 25.2239 39.2239 25 39.5 25H54.5C54.7761 25 55 25.2239 55 25.5C55 25.7761 54.7761 26 54.5 26H39.5C39.2239 26 39 25.7761 39 25.5Z" fill="#333333"/>
<path fill-rule="evenodd" clip-rule="evenodd" d="M42 31.5C42 31.2239 42.2239 31 42.5 31H64.5C64.7761 31 65 31.2239 65 31.5C65 31.7761 64.7761 32 64.5 32H42.5C42.2239 32 42 31.7761 42 31.5Z" fill="#333333"/>
<path fill-rule="evenodd" clip-rule="evenodd" d="M42 36.5C42 36.2239 42.2239 36 42.5 36H57.5C57.7761 36 58 36.2239 58 36.5C58 36.7761 57.7761 37 57.5 37H42.5C42.2239 37 42 36.7761 42 36.5Z" fill="#333333"/>
<path fill-rule="evenodd" clip-rule="evenodd" d="M38 46.5C38 46.2239 38.2239 46 38.5 46H53.5C53.7761 46 54 46.2239 54 46.5C54 46.7761 53.7761 47 53.5 47H38.5C38.2239 47 38 46.7761 38 46.5Z" fill="#333333"/>
<path fill-rule="evenodd" clip-rule="evenodd" d="M45 41.5C45 41.2239 45.2239 41 45.5 41H67.5C67.7761 41 68 41.2239 68 41.5C68 41.7761 67.7761 42 67.5 42H45.5C45.2239 42 45 41.7761 45 41.5Z" fill="#333333"/>
<path fill-rule="evenodd" clip-rule="evenodd" d="M88.3928 27.076C91.6928 26.5983 94.6324 28.4233 94.9702 31.1426C95.2969 33.8618 92.8979 36.4463 89.5979 36.924C86.2979 37.4017 83.3584 35.5767 83.0317 32.8574C82.6938 30.1382 85.0928 27.5414 88.3928 27.076Z" fill="url(#paint3_linear_125_7726)"/>
<path fill-rule="evenodd" clip-rule="evenodd" d="M88.5325 28.0662L88.5325 28.0662C85.5917 28.481 83.7741 30.7217 84.0241 32.7341L84.0246 32.7382L84.0246 32.7382C84.2628 34.7216 86.5151 36.3599 89.4546 35.9343C92.3995 35.5081 94.218 33.277 93.9776 31.2639C93.7293 29.2765 91.4727 27.6406 88.5361 28.0657L88.5325 28.0662ZM94.9702 31.1426C95.2969 33.8618 92.8979 36.4463 89.5979 36.924C86.2979 37.4017 83.3584 35.5767 83.0317 32.8574C82.6938 30.1382 85.0928 27.5414 88.3928 27.076C91.6928 26.5983 94.6324 28.4233 94.9702 31.1426Z" fill="#333333"/>
<path fill-rule="evenodd" clip-rule="evenodd" d="M100 30.5C100 30.2239 100.224 30 100.5 30H115.5C115.776 30 116 30.2239 116 30.5C116 30.7761 115.776 31 115.5 31H100.5C100.224 31 100 30.7761 100 30.5Z" fill="#333333"/>
<path fill-rule="evenodd" clip-rule="evenodd" d="M100 34.5C100 34.2239 100.224 34 100.5 34H122.5C122.776 34 123 34.2239 123 34.5C123 34.7761 122.776 35 122.5 35H100.5C100.224 35 100 34.7761 100 34.5Z" fill="#333333"/>
<path fill-rule="evenodd" clip-rule="evenodd" d="M86.7649 57.1488C87.0283 57.378 87.0853 57.7229 86.8594 57.9902L83.653 61.7774C83.5396 61.9117 83.3763 61.9921 83.2022 61.9994C83.0282 62.0068 82.8589 61.9404 82.7349 61.8162L81.1869 60.2314C80.94 59.9841 80.9374 59.5804 81.1811 59.3297C81.4247 59.0791 81.8225 59.0764 82.0694 59.3238L83.2022 60.4527L85.8821 57.2293C86.108 56.962 86.5016 56.9196 86.7649 57.1488Z" fill="#333333"/>
<path fill-rule="evenodd" clip-rule="evenodd" d="M90 57.5C90 57.2239 90.2239 57 90.5 57H98.5C98.7761 57 99 57.2239 99 57.5C99 57.7761 98.7761 58 98.5 58H90.5C90.2239 58 90 57.7761 90 57.5Z" fill="#333333"/>
<path fill-rule="evenodd" clip-rule="evenodd" d="M90 61.5C90 61.2239 90.2239 61 90.5 61H112.5C112.776 61 113 61.2239 113 61.5C113 61.7761 112.776 62 112.5 62H90.5C90.2239 62 90 61.7761 90 61.5Z" fill="#333333"/>
<path fill-rule="evenodd" clip-rule="evenodd" d="M103 57.5C103 57.2239 103.224 57 103.5 57H121C121.276 57 121.5 57.2239 121.5 57.5C121.5 57.7761 121.276 58 121 58H103.5C103.224 58 103 57.7761 103 57.5Z" fill="#333333"/>
</g>
<defs>
<linearGradient id="paint0_linear_125_7726" x1="1.00053" y1="90.6094" x2="2.29655" y2="110.54" gradientUnits="userSpaceOnUse">
<stop stop-color="#FFC671"/>
<stop offset="0.59375" stop-color="#FF7541"/>
<stop offset="1" stop-color="#FF6F3D"/>
</linearGradient>
<linearGradient id="paint1_linear_125_7726" x1="15" y1="69.8828" x2="18" y2="73" gradientUnits="userSpaceOnUse">
<stop stop-color="#FF8E3D"/>
<stop offset="1" stop-color="#FF6F3D"/>
</linearGradient>
<linearGradient id="paint2_linear_125_7726" x1="15" y1="74.8828" x2="18" y2="78" gradientUnits="userSpaceOnUse">
<stop stop-color="#FF8E3D"/>
<stop offset="1" stop-color="#FF6F3D"/>
</linearGradient>
<linearGradient id="paint3_linear_125_7726" x1="83" y1="26.6094" x2="92.7686" y2="38.7896" gradientUnits="userSpaceOnUse">
<stop stop-color="#FF8E3D"/>
<stop offset="1" stop-color="#FF6F3D"/>
</linearGradient>
<clipPath id="clip0_125_7726">
<rect width="150" height="150" fill="white"/>
</clipPath>
</defs>
</svg>
