<svg width="150" height="150" viewBox="0 0 150 150" fill="none" xmlns="http://www.w3.org/2000/svg">
<g clip-path="url(#clip0_125_9611)">
<path fill-rule="evenodd" clip-rule="evenodd" d="M75 150C33.5821 150 0 116.418 0 75C0 33.5821 33.5821 0 75 0C116.418 0 150 33.5821 150 75C149.978 116.418 116.396 150 75 150Z" fill="#FEFEFE"/>
<path fill-rule="evenodd" clip-rule="evenodd" d="M1 75C1 115.866 34.1344 149 75 149C115.844 149 148.979 115.866 149 74.9995C149 34.1341 115.865 1 75 1C34.1344 1 1 34.1344 1 75ZM150 75C150 33.5821 116.418 0 75 0C33.5821 0 0 33.5821 0 75C0 116.418 33.5821 150 75 150C116.396 150 149.978 116.418 150 75Z" fill="#333333"/>
<path fill-rule="evenodd" clip-rule="evenodd" d="M75 137C40.7609 137 13 109.239 13 75C13 40.7609 40.7609 13 75 13C109.239 13 137 40.7609 137 75C137 109.239 109.239 137 75 137Z" fill="url(#paint0_linear_125_9611)"/>
<path fill-rule="evenodd" clip-rule="evenodd" d="M75 79C72.7868 79 71 77.2132 71 75C71 72.7868 72.7868 71 75 71C77.2132 71 79 72.7868 79 75C78.9797 77.2132 77.1929 79 75 79Z" fill="white"/>
<path fill-rule="evenodd" clip-rule="evenodd" d="M76.319 47.4326V74.4615L104.392 103.653C105.851 105.113 104.392 106.896 103.076 105.485L72 73.6507V47.4326C72 44.1891 76.319 44.1891 76.319 47.4326Z" fill="white"/>
<path fill-rule="evenodd" clip-rule="evenodd" d="M74.9998 20C75.5564 20 76.0076 20.4512 76.0076 21.0079V26.4071C76.0076 26.9637 75.5564 27.4149 74.9998 27.4149C74.4432 27.4149 73.9919 26.9637 73.9919 26.4071V21.0079C73.9919 20.4512 74.4432 20 74.9998 20ZM74.9998 122.585C75.5564 122.585 76.0076 123.036 76.0076 123.593V128.992C76.0076 129.549 75.5564 130 74.9998 130C74.4432 130 73.9919 129.549 73.9919 128.992V123.593C73.9919 123.036 74.4432 122.585 74.9998 122.585ZM130 75.0001C130 75.5568 129.549 76.008 128.992 76.008H123.593C123.036 76.008 122.585 75.5568 122.585 75.0001C122.585 74.4435 123.036 73.9923 123.593 73.9923H128.992C129.549 73.9923 130 74.4435 130 75.0001ZM27.4149 75.0001C27.4149 75.5568 26.9637 76.008 26.4071 76.008H21.0079C20.4512 76.008 20 75.5568 20 75.0001C20 74.4435 20.4512 73.9923 21.0079 73.9923H26.4071C26.9637 73.9923 27.4149 74.4435 27.4149 75.0001ZM102.87 28.7458C103.148 28.2638 102.983 27.6474 102.501 27.3691C102.019 27.0907 101.403 27.2559 101.124 27.738L98.4248 32.4138C98.1465 32.8959 98.3117 33.5123 98.7937 33.7906C99.2758 34.0689 99.8922 33.9037 100.17 33.4217L102.87 28.7458ZM51.5776 117.587C51.8559 117.105 51.6907 116.489 51.2087 116.21C50.7266 115.932 50.1102 116.097 49.8319 116.579L47.1323 121.255C46.854 121.737 47.0191 122.354 47.5012 122.632C47.9832 122.91 48.5996 122.745 48.8779 122.263L51.5776 117.587ZM122.631 102.501C122.353 102.983 121.736 103.148 121.254 102.87L116.578 100.17C116.096 99.892 115.931 99.2756 116.209 98.7936C116.488 98.3115 117.104 98.1464 117.586 98.4247L122.262 101.124C122.744 101.403 122.909 102.019 122.631 102.501ZM33.7896 51.2085C33.5113 51.6906 32.8949 51.8557 32.4128 51.5774L27.737 48.8778C27.2549 48.5995 27.0898 47.9831 27.3681 47.5011C27.6464 47.019 28.2628 46.8538 28.7448 47.1322L33.4207 49.8318C33.9027 50.1101 34.0679 50.7265 33.7896 51.2085ZM122.263 48.8779C122.745 48.5996 122.91 47.9832 122.632 47.5011C122.353 47.0191 121.737 46.8539 121.255 47.1322L116.579 49.8318C116.097 50.1101 115.932 50.7265 116.21 51.2086C116.489 51.6906 117.105 51.8558 117.587 51.5775L122.263 48.8779ZM33.4216 100.17C33.9036 99.8921 34.0688 99.2757 33.7905 98.7937C33.5121 98.3116 32.8957 98.1465 32.4137 98.4248L27.7378 101.124C27.2558 101.403 27.0906 102.019 27.3689 102.501C27.6473 102.983 28.2636 103.148 28.7457 102.87L33.4216 100.17ZM102.499 122.632C102.017 122.91 101.4 122.745 101.122 122.263L98.4225 117.587C98.1442 117.105 98.3094 116.489 98.7914 116.211C99.2735 115.932 99.8899 116.097 100.168 116.58L102.868 121.255C103.146 121.737 102.981 122.354 102.499 122.632ZM51.2063 33.7908C50.7243 34.0691 50.1079 33.9039 49.8296 33.4219L47.13 28.746C46.8517 28.264 47.0168 27.6476 47.4989 27.3693C47.9809 27.091 48.5973 27.2561 48.8756 27.7382L51.5752 32.414C51.8535 32.8961 51.6884 33.5125 51.2063 33.7908Z" fill="white"/>
</g>
<defs>
<linearGradient id="paint0_linear_125_9611" x1="11.1147" y1="4.62819" x2="84.6201" y2="85.5923" gradientUnits="userSpaceOnUse">
<stop stop-color="#FFC671"/>
<stop offset="1" stop-color="#FF6F3D"/>
</linearGradient>
<clipPath id="clip0_125_9611">
<rect width="150" height="150" fill="white"/>
</clipPath>
</defs>
</svg>
