<svg width="135" height="135" viewBox="0 0 135 135" fill="none" xmlns="http://www.w3.org/2000/svg">
<path fill-rule="evenodd" clip-rule="evenodd" d="M11.596 18H122.404C129.5 18 132.984 22.9223 133 28.6538V117.356C132.984 123.086 130 128 122.404 128H11.596C5.76816 127.989 1.01592 123.086 1 117.356V28.6538C1.0159 22.9223 5.76654 18.0163 11.596 18Z" fill="#E0E0E0"/>
<path fill-rule="evenodd" clip-rule="evenodd" d="M12.0946 17L12.096 17L33.8431 17C34.1193 17 34.3431 17.2239 34.3431 17.5C34.3431 17.7761 34.1193 18 33.8431 18H12.0967C9.42362 18.0078 6.86068 19.0885 4.96826 21.0086C3.07558 22.9289 2.00765 25.5326 2 28.2514V117.759C2.00766 120.476 3.07585 123.079 4.9687 124.998C6.86147 126.916 9.42459 127.995 12.097 128H122.903C125.575 127.995 128.139 126.916 130.031 124.998C131.924 123.079 132.993 120.476 133 117.758V28.2521C132.993 25.5331 131.925 22.929 130.032 21.0086C128.139 19.0885 125.576 18.0078 122.903 18H101.157C100.881 18 100.657 17.7761 100.657 17.5C100.657 17.2239 100.881 17 101.157 17H122.905C125.848 17.0083 128.666 18.198 130.744 20.3066C132.822 22.415 133.992 25.2707 134 28.2493V117.761C133.992 120.739 132.822 123.593 130.743 125.7C128.665 127.807 125.846 128.994 122.905 129H12.096C9.15454 128.994 6.33549 127.807 4.25682 125.7C2.17838 123.593 1.0082 120.739 1 117.761L1 117.759V28.2507L1 28.2493C1.00819 25.2707 2.17799 22.415 4.25605 20.3066C6.33434 18.198 9.1523 17.0083 12.0946 17Z" fill="#333333"/>
<path d="M15.0001 27.5001L120 27.5C123.038 27.5 125.5 29.9624 125.5 33V115C125.5 118.038 123.038 120.5 120 120.5H15.0013C11.9638 120.5 9.50135 118.038 9.50131 115L9.50009 33.0002C9.50004 29.9626 11.9625 27.5001 15.0001 27.5001Z" fill="#FEFEFE" stroke="#333333"/>
<path fill-rule="evenodd" clip-rule="evenodd" d="M36 74C36 73.4477 36.4477 73 37 73H50C50.5523 73 51 73.4477 51 74V87C51 87.5523 50.5523 88 50 88H37C36.4477 88 36 87.5523 36 87V74Z" fill="#BDECFF"/>
<path fill-rule="evenodd" clip-rule="evenodd" d="M51.7962 73.1018C52.0224 73.2692 52.0671 73.5845 51.8961 73.8059L43.5889 84.5612C43.3993 84.8105 43.1156 84.9946 42.763 84.9999C42.4233 85.005 42.1248 84.8422 41.8912 84.6212C41.8798 84.6104 41.8689 84.5991 41.8586 84.5874L39.1241 81.4727C38.9392 81.2621 38.9637 80.9447 39.1788 80.7638C39.3939 80.5828 39.7181 80.6068 39.9029 80.8173L42.6201 83.9123C42.6791 83.9652 42.7188 83.9843 42.738 83.9911C42.7445 83.9852 42.7538 83.9756 42.7653 83.9605L42.7683 83.9565L42.7683 83.9565L51.0769 73.1995C51.2479 72.9781 51.57 72.9343 51.7962 73.1018Z" fill="#333333"/>
<path fill-rule="evenodd" clip-rule="evenodd" d="M37.3615 72H45.0674C45.3436 72 45.5674 72.2239 45.5674 72.5C45.5674 72.7761 45.3436 73 45.0674 73H37.3684C37.1774 73.0057 36.9897 73.05 36.8164 73.1302C36.6414 73.2113 36.4849 73.3272 36.3567 73.4708C36.2285 73.6145 36.1313 73.7827 36.0709 73.9651C36.0106 74.1476 35.9884 74.3404 36.0057 74.5316C36.0071 74.5466 36.0077 74.5617 36.0077 74.5767V86.4587C36.0048 86.6617 36.0428 86.8632 36.1193 87.0514C36.1959 87.2396 36.3096 87.4107 36.4537 87.5544C36.5978 87.6982 36.7695 87.8117 36.9585 87.8882C37.1475 87.9648 37.35 88.0027 37.5541 87.9998L37.5611 87.9997L49.5198 87.9998C49.9424 87.9933 50.3453 87.8215 50.6418 87.5217C50.8973 87.2633 51 86.8906 51 86.3947V80.4222C51 80.146 51.2239 79.9222 51.5 79.9222C51.7761 79.9222 52 80.146 52 80.4222V86.3946C52 86.3946 52 86.3946 52 86.3946C52.0001 87.0056 51.8766 87.6952 51.3528 88.2248C50.8708 88.7123 50.2159 88.9905 49.5301 88.9998L49.5234 88.9998L37.5644 88.9998C37.2283 89.004 36.8947 88.9413 36.5831 88.8151C36.2704 88.6885 35.9863 88.5006 35.7475 88.2624C35.5087 88.0242 35.3202 87.7406 35.1931 87.4284C35.0665 87.1172 35.0035 86.784 35.0077 86.4482V74.5979C34.982 74.278 35.0207 73.956 35.1215 73.651C35.2249 73.3385 35.3914 73.0506 35.6107 72.8049C35.83 72.5593 36.0974 72.3612 36.3963 72.2228C36.6952 72.0844 37.0193 72.0086 37.3486 72.0002L37.3615 72Z" fill="#333333"/>
<path d="M32 48.5H19C18.1716 48.5 17.5 49.1716 17.5 50V63C17.5 63.8284 18.1716 64.5 19 64.5H32C32.8284 64.5 33.5 63.8284 33.5 63V50C33.5 49.1716 32.8284 48.5 32 48.5Z" fill="#BDECFF" stroke="#333333"/>
<path d="M50 94.5H37C36.1716 94.5 35.5 95.1716 35.5 96V109C35.5 109.828 36.1716 110.5 37 110.5H50C50.8284 110.5 51.5 109.828 51.5 109V96C51.5 95.1716 50.8284 94.5 50 94.5Z" fill="#BDECFF" stroke="#333333"/>
<path fill-rule="evenodd" clip-rule="evenodd" d="M49 37C49 37.5523 49.4445 38 49.9927 38H84.0073C84.5555 38 85 37.5523 85 37C85 36.4477 84.5555 36 84.0073 36H49.9927C49.4445 36 49 36.4477 49 37Z" fill="url(#paint0_linear_125_1961)"/>
<path fill-rule="evenodd" clip-rule="evenodd" d="M41 42C41 42.5523 41.4476 43 41.9998 43H93.0002C93.5524 43 94 42.5523 94 42C94 41.4477 93.5524 41 93.0002 41H41.9998C41.4476 41 41 41.4477 41 42Z" fill="url(#paint1_linear_125_1961)"/>
<path d="M74.548 11.9803C74.483 10.3725 73.7929 8.85206 72.6222 7.73731C71.4516 6.62256 69.8913 6 68.268 6C66.6447 6 65.0843 6.62256 63.9137 7.73731C62.7431 8.85206 62.0529 10.3725 61.9879 11.9803H43.1325C42.3158 11.9696 41.5281 12.2795 40.9412 12.8425C40.3543 13.4055 40.0159 14.1758 40 14.9852V20.9949C40.0186 21.8034 40.3577 22.5722 40.944 23.1346C41.5304 23.697 42.3166 24.0078 43.1325 23.9997H91.8574C92.675 24.0105 93.4639 23.7009 94.0524 23.1381C94.6409 22.5754 94.9814 21.8052 95 20.9949V15.0453C94.9841 14.2341 94.6443 13.4623 94.0552 12.899C93.4662 12.3358 92.6758 12.027 91.8574 12.0404L74.548 11.9803Z" fill="url(#paint2_linear_125_1961)"/>
<path fill-rule="evenodd" clip-rule="evenodd" d="M73.5876 12.977L73.5489 12.0208C73.4943 10.6738 72.9162 9.39809 71.9326 8.46149C70.9488 7.52463 69.6357 7 68.268 7C66.9002 7 65.5871 7.52463 64.6033 8.46149C63.6198 9.39809 63.0416 10.6738 62.9871 12.0208L62.9482 12.9803H43.1193C42.564 12.973 42.0299 13.1838 41.6334 13.5642C41.2394 13.9422 41.013 14.4567 41 14.996V20.9823C41.0151 21.5213 41.2424 22.0351 41.6363 22.4129C42.033 22.7935 42.5669 23.0053 43.1225 22.9998L43.1325 22.9997L91.8706 22.9997C92.4275 23.0071 92.963 22.7962 93.3613 22.4154C93.7567 22.0373 93.9849 21.5225 94 20.9823V15.056C93.987 14.5156 93.7597 14 93.3641 13.6218C92.9661 13.2412 92.4303 13.0312 91.8738 13.0403L91.8639 13.0404L73.5876 12.977ZM95 15.0453V20.9949C94.9814 21.8052 94.6409 22.5754 94.0524 23.1381C93.4639 23.7009 92.675 24.0105 91.8574 23.9997H43.1325C42.3166 24.0078 41.5304 23.697 40.944 23.1346C40.3577 22.5722 40.0186 21.8034 40 20.9949V14.9852C40.0159 14.1758 40.3543 13.4055 40.9412 12.8425C41.5281 12.2795 42.3158 11.9696 43.1325 11.9803H61.9879C62.0529 10.3725 62.7431 8.85206 63.9137 7.73731C65.0843 6.62256 66.6447 6 68.268 6C69.8913 6 71.4516 6.62256 72.6222 7.73731C73.7929 8.85206 74.483 10.3725 74.548 11.9803L91.8574 12.0404C92.6758 12.027 93.4662 12.3358 94.0552 12.899C94.6443 13.4623 94.9841 14.2341 95 15.0453Z" fill="#333333"/>
<path fill-rule="evenodd" clip-rule="evenodd" d="M25.5 68C25.7761 68 26 68.2239 26 68.5V100.5C26 101.328 26.6716 102 27.5 102H32.5C32.7761 102 33 102.224 33 102.5C33 102.776 32.7761 103 32.5 103H27.5C26.1193 103 25 101.881 25 100.5V68.5C25 68.2239 25.2239 68 25.5 68Z" fill="#333333"/>
<path d="M30.5 80H25.5C25.2239 80 25 80.2239 25 80.5C25 80.7761 25.2239 81 25.5 81H30.5C30.7761 81 31 80.7761 31 80.5C31 80.2239 30.7761 80 30.5 80Z" fill="#333333"/>
<path fill-rule="evenodd" clip-rule="evenodd" d="M39 56.5C39 56.2239 39.2239 56 39.5 56H87.5C87.7761 56 88 56.2239 88 56.5C88 56.7761 87.7761 57 87.5 57H39.5C39.2239 57 39 56.7761 39 56.5Z" fill="#333333"/>
<path fill-rule="evenodd" clip-rule="evenodd" d="M39 52.5C39 52.2239 39.2239 52 39.5 52H65.5C65.7761 52 66 52.2239 66 52.5C66 52.7761 65.7761 53 65.5 53H39.5C39.2239 53 39 52.7761 39 52.5Z" fill="#333333"/>
<path fill-rule="evenodd" clip-rule="evenodd" d="M39 60.5C39 60.2239 39.2256 60 39.504 60H101.496C101.774 60 102 60.2239 102 60.5C102 60.7761 101.774 61 101.496 61H39.504C39.2256 61 39 60.7761 39 60.5Z" fill="#333333"/>
<path fill-rule="evenodd" clip-rule="evenodd" d="M70 52.5C70 52.2239 70.2239 52 70.5 52H96.5C96.7761 52 97 52.2239 97 52.5C97 52.7761 96.7761 53 96.5 53H70.5C70.2239 53 70 52.7761 70 52.5Z" fill="#333333"/>
<path fill-rule="evenodd" clip-rule="evenodd" d="M100 52.5C100 52.2239 100.224 52 100.5 52H113.5C113.776 52 114 52.2239 114 52.5C114 52.7761 113.776 53 113.5 53H100.5C100.224 53 100 52.7761 100 52.5Z" fill="#333333"/>
<path fill-rule="evenodd" clip-rule="evenodd" d="M57 104.5C57 104.224 57.2249 104 57.5023 104H95.4977C95.7751 104 96 104.224 96 104.5C96 104.776 95.7751 105 95.4977 105H57.5023C57.2249 105 57 104.776 57 104.5Z" fill="#333333"/>
<path fill-rule="evenodd" clip-rule="evenodd" d="M57 100.5C57 100.224 57.2224 100 57.4968 100H106.503C106.778 100 107 100.224 107 100.5C107 100.776 106.778 101 106.503 101H57.4968C57.2224 101 57 100.776 57 100.5Z" fill="#333333"/>
<path d="M100.5 82H57.5C57.2239 82 57 82.2239 57 82.5C57 82.7761 57.2239 83 57.5 83H100.5C100.776 83 101 82.7761 101 82.5C101 82.2239 100.776 82 100.5 82Z" fill="#333333"/>
<path d="M111.5 78H57.5C57.2239 78 57 78.2239 57 78.5C57 78.7761 57.2239 79 57.5 79H111.5C111.776 79 112 78.7761 112 78.5C112 78.2239 111.776 78 111.5 78Z" fill="#333333"/>
<defs>
<linearGradient id="paint0_linear_125_1961" x1="49.0001" y1="38.0781" x2="49.2135" y2="34.0866" gradientUnits="userSpaceOnUse">
<stop stop-color="#FF8E3D"/>
<stop offset="1" stop-color="#FF6F3D"/>
</linearGradient>
<linearGradient id="paint1_linear_125_1961" x1="41.0001" y1="43.0781" x2="41.1453" y2="39.0805" gradientUnits="userSpaceOnUse">
<stop stop-color="#FF8E3D"/>
<stop offset="1" stop-color="#FF6F3D"/>
</linearGradient>
<linearGradient id="paint2_linear_125_1961" x1="54.8438" y1="-1.30114" x2="70.6619" y2="23.3355" gradientUnits="userSpaceOnUse">
<stop stop-color="#FFC671"/>
<stop offset="1" stop-color="#FF6F3D"/>
</linearGradient>
</defs>
</svg>
