<svg width="150" height="150" viewBox="0 0 150 150" fill="none" xmlns="http://www.w3.org/2000/svg">
<path fill-rule="evenodd" clip-rule="evenodd" d="M0.000132454 40.5125C-0.0125231 38.2813 0.882282 36.0784 2.44386 34.4962C4.00545 32.914 6.187 32 8.40173 32H140.593C142.808 32 144.99 32.914 146.551 34.4962C148.113 36.0784 149.008 38.2813 148.995 40.5125V123.391C149.072 125.6 148.242 127.807 146.731 129.41C145.22 131.013 143.075 131.963 140.881 132H8.40173C4 131 1.5 128 0.000132454 123.487V40.5125Z" fill="white"/>
<path fill-rule="evenodd" clip-rule="evenodd" d="M8.98659 32C4.82089 31.9999 0.97445 35.498 1.00013 39.947L1.00015 39.9499L1.00014 123.05L1.00013 123.053C0.988123 125.133 1.83839 127.191 3.32134 128.668C4.80446 130.145 6.88098 131 8.98659 131H141.295C143.377 130.964 145.415 130.076 146.847 128.583C148.28 127.089 149.068 125.029 148.995 122.972L148.995 122.964C148.995 122.961 148.995 122.957 148.995 122.954V39.9499L148.995 39.947C149.021 35.498 145.174 31.9999 141.008 32H117C116.724 32 116.5 31.7761 116.5 31.5C116.5 31.2239 116.724 31 117 31H141.008C145.69 30.9999 150.022 34.9106 149.995 39.9501L149.995 39.9528L149.995 122.946C150.075 125.271 149.186 127.589 147.569 129.275C145.95 130.963 143.656 131.961 141.308 132L141.299 132H8.98661C6.61802 132 4.28735 131.041 2.61576 129.377C0.944349 127.712 -0.0130167 125.398 0.00013734 123.049V39.9514C-0.0281086 34.9112 4.30484 30.9999 8.98661 31H34.5C34.7761 31 35 31.2239 35 31.5C35 31.7761 34.7761 32 34.5 32H8.98659Z" fill="#333333"/>
<path fill-rule="evenodd" clip-rule="evenodd" d="M81.967 25.0406C81.967 21.1561 78.7947 18 74.8783 18C70.962 18 67.7897 21.1456 67.7897 25.0406H46.5443C44.5913 25.0406 43 26.6133 43 28.5556V33.485C43 35.4272 44.5913 37 46.5443 37H101.456C103.409 37 105 35.4272 105 33.485V28.5556C105 26.6133 103.409 25.0406 101.456 25.0406H81.967Z" fill="url(#paint0_linear_125_9789)"/>
<path fill-rule="evenodd" clip-rule="evenodd" d="M80.967 26.0406V25.0406C80.967 21.7143 78.2483 19 74.8783 19C71.5074 19 68.7897 21.7047 68.7897 25.0406V26.0406H46.5443C45.1348 26.0406 44 27.1744 44 28.5556V33.485C44 34.8661 45.1348 36 46.5443 36H101.456C102.865 36 104 34.8661 104 33.485V28.5556C104 27.1744 102.865 26.0406 101.456 26.0406H80.967ZM81.967 25.0406C81.967 21.1561 78.7947 18 74.8783 18C70.962 18 67.7897 21.1456 67.7897 25.0406H46.5443C44.5913 25.0406 43 26.6133 43 28.5556V33.485C43 35.4272 44.5913 37 46.5443 37H101.456C103.409 37 105 35.4272 105 33.485V28.5556C105 26.6133 103.409 25.0406 101.456 25.0406H81.967Z" fill="#333333"/>
<path d="M75 72C75 70.8954 75.8954 70 77 70H135C136.105 70 137 70.8954 137 72V76C137 77.1046 136.105 78 135 78H77C75.8954 78 75 77.1046 75 76V72Z" fill="#BDECFF"/>
<path fill-rule="evenodd" clip-rule="evenodd" d="M135 71H77C76.4477 71 76 71.4477 76 72V76C76 76.5523 76.4477 77 77 77H135C135.552 77 136 76.5523 136 76V72C136 71.4477 135.552 71 135 71ZM77 70C75.8954 70 75 70.8954 75 72V76C75 77.1046 75.8954 78 77 78H135C136.105 78 137 77.1046 137 76V72C137 70.8954 136.105 70 135 70H77Z" fill="#333333"/>
<path d="M44 85C44 83.8954 44.8954 83 46 83H74C75.1046 83 76 83.8954 76 85V89C76 90.1046 75.1046 91 74 91H46C44.8954 91 44 90.1046 44 89V85Z" fill="#BDECFF"/>
<path fill-rule="evenodd" clip-rule="evenodd" d="M74 84H46C45.4477 84 45 84.4477 45 85V89C45 89.5523 45.4477 90 46 90H74C74.5523 90 75 89.5523 75 89V85C75 84.4477 74.5523 84 74 84ZM46 83C44.8954 83 44 83.8954 44 85V89C44 90.1046 44.8954 91 46 91H74C75.1046 91 76 90.1046 76 89V85C76 83.8954 75.1046 83 74 83H46Z" fill="#333333"/>
<path d="M96 113C96 111.895 96.8954 111 98 111H128C129.105 111 130 111.895 130 113V117C130 118.105 129.105 119 128 119H98C96.8954 119 96 118.105 96 117V113Z" fill="#BDECFF"/>
<path fill-rule="evenodd" clip-rule="evenodd" d="M128 112H98C97.4477 112 97 112.448 97 113V117C97 117.552 97.4477 118 98 118H128C128.552 118 129 117.552 129 117V113C129 112.448 128.552 112 128 112ZM98 111C96.8954 111 96 111.895 96 113V117C96 118.105 96.8954 119 98 119H128C129.105 119 130 118.105 130 117V113C130 111.895 129.105 111 128 111H98Z" fill="#333333"/>
<path d="M44 101C44 99.8954 44.8954 99 46 99H107C108.105 99 109 99.8954 109 101V105C109 106.105 108.105 107 107 107H46C44.8954 107 44 106.105 44 105V101Z" fill="#BDECFF"/>
<path fill-rule="evenodd" clip-rule="evenodd" d="M107 100H46C45.4477 100 45 100.448 45 101V105C45 105.552 45.4477 106 46 106H107C107.552 106 108 105.552 108 105V101C108 100.448 107.552 100 107 100ZM46 99C44.8954 99 44 99.8954 44 101V105C44 106.105 44.8954 107 46 107H107C108.105 107 109 106.105 109 105V101C109 99.8954 108.105 99 107 99H46Z" fill="#333333"/>
<path d="M31.5 65V121.5" stroke="#333333" stroke-linecap="round" stroke-linejoin="round"/>
<path fill-rule="evenodd" clip-rule="evenodd" d="M23 70.5C23 70.7761 22.7761 71 22.5 71L13.5 71C13.2239 71 13 70.7761 13 70.5C13 70.2239 13.2239 70 13.5 70L22.5 70C22.7761 70 23 70.2239 23 70.5Z" fill="#333333"/>
<path fill-rule="evenodd" clip-rule="evenodd" d="M23 80.5C23 80.7761 22.7761 81 22.5 81L13.5 81C13.2239 81 13 80.7761 13 80.5C13 80.2239 13.2239 80 13.5 80L22.5 80C22.7761 80 23 80.2239 23 80.5Z" fill="#333333"/>
<path fill-rule="evenodd" clip-rule="evenodd" d="M23 90.5C23 90.7761 22.7761 91 22.5 91L13.5 91C13.2239 91 13 90.7761 13 90.5C13 90.2239 13.2239 90 13.5 90L22.5 90C22.7761 90 23 90.2239 23 90.5Z" fill="#333333"/>
<path fill-rule="evenodd" clip-rule="evenodd" d="M23 100.5C23 100.776 22.7761 101 22.5 101L13.5 101C13.2239 101 13 100.776 13 100.5C13 100.224 13.2239 100 13.5 100L22.5 100C22.7761 100 23 100.224 23 100.5Z" fill="#333333"/>
<path fill-rule="evenodd" clip-rule="evenodd" d="M23 110.5C23 110.776 22.7761 111 22.5 111L13.5 111C13.2239 111 13 110.776 13 110.5C13 110.224 13.2239 110 13.5 110L22.5 110C22.7761 110 23 110.224 23 110.5Z" fill="#333333"/>
<path d="M8 48C8 47.4477 8.44772 47 9 47H28C28.5523 47 29 47.4477 29 48V54C29 54.5523 28.5523 55 28 55H9C8.44772 55 8 54.5523 8 54V48Z" fill="url(#paint1_linear_125_9789)"/>
<path fill-rule="evenodd" clip-rule="evenodd" d="M9 46H28C29.1046 46 30 46.8954 30 48V54C30 55.1046 29.1046 56 28 56H9C7.89543 56 7 55.1046 7 54V48C7 46.8954 7.89543 46 9 46ZM9 47C8.44772 47 8 47.4477 8 48V54C8 54.5523 8.44772 55 9 55H28C28.5523 55 29 54.5523 29 54V48C29 47.4477 28.5523 47 28 47H9Z" fill="#333333"/>
<path fill-rule="evenodd" clip-rule="evenodd" d="M23 50.5C23 50.7761 22.7761 51 22.5 51L13.5 51C13.2239 51 13 50.7761 13 50.5C13 50.2239 13.2239 50 13.5 50L22.5 50C22.7761 50 23 50.2239 23 50.5Z" fill="white"/>
<rect x="36.5" y="46.5" width="100" height="9" rx="1.5" fill="#EFEFEF" stroke="#333333"/>
<path fill-rule="evenodd" clip-rule="evenodd" d="M122.5 49C122.776 49 123 49.1791 123 49.4L123 52.6C123 52.8209 122.776 53 122.5 53C122.224 53 122 52.8209 122 52.6L122 49.4C122 49.1791 122.224 49 122.5 49Z" fill="#333333"/>
<path fill-rule="evenodd" clip-rule="evenodd" d="M111.5 49C111.776 49 112 49.1791 112 49.4L112 52.6C112 52.8209 111.776 53 111.5 53C111.224 53 111 52.8209 111 52.6L111 49.4C111 49.1791 111.224 49 111.5 49Z" fill="#333333"/>
<path fill-rule="evenodd" clip-rule="evenodd" d="M108.5 49C108.776 49 109 49.1791 109 49.4L109 52.6C109 52.8209 108.776 53 108.5 53C108.224 53 108 52.8209 108 52.6L108 49.4C108 49.1791 108.224 49 108.5 49Z" fill="#333333"/>
<path fill-rule="evenodd" clip-rule="evenodd" d="M89.5 49C89.7761 49 90 49.1791 90 49.4L90 52.6C90 52.8209 89.7761 53 89.5 53C89.2239 53 89 52.8209 89 52.6L89 49.4C89 49.1791 89.2239 49 89.5 49Z" fill="#333333"/>
<path fill-rule="evenodd" clip-rule="evenodd" d="M66.5 49C66.7761 49 67 49.1791 67 49.4L67 52.6C67 52.8209 66.7761 53 66.5 53C66.2239 53 66 52.8209 66 52.6L66 49.4C66 49.1791 66.2239 49 66.5 49Z" fill="#333333"/>
<path fill-rule="evenodd" clip-rule="evenodd" d="M126.5 49C126.776 49 127 49.1791 127 49.4L127 52.6C127 52.8209 126.776 53 126.5 53C126.224 53 126 52.8209 126 52.6L126 49.4C126 49.1791 126.224 49 126.5 49Z" fill="url(#paint2_linear_125_9789)"/>
<path fill-rule="evenodd" clip-rule="evenodd" d="M104.5 49C104.776 49 105 49.1791 105 49.4L105 52.6C105 52.8209 104.776 53 104.5 53C104.224 53 104 52.8209 104 52.6L104 49.4C104 49.1791 104.224 49 104.5 49Z" fill="url(#paint3_linear_125_9789)"/>
<path fill-rule="evenodd" clip-rule="evenodd" d="M84.5 49C84.7761 49 85 49.1791 85 49.4L85 52.6C85 52.8209 84.7761 53 84.5 53C84.2239 53 84 52.8209 84 52.6L84 49.4C84 49.1791 84.2239 49 84.5 49Z" fill="url(#paint4_linear_125_9789)"/>
<path fill-rule="evenodd" clip-rule="evenodd" d="M58.5 49C58.7761 49 59 49.1791 59 49.4L59 52.6C59 52.8209 58.7761 53 58.5 53C58.2239 53 58 52.8209 58 52.6L58 49.4C58 49.1791 58.2239 49 58.5 49Z" fill="url(#paint5_linear_125_9789)"/>
<path fill-rule="evenodd" clip-rule="evenodd" d="M53.5 49C53.7761 49 54 49.1791 54 49.4L54 52.6C54 52.8209 53.7761 53 53.5 53C53.2239 53 53 52.8209 53 52.6L53 49.4C53 49.1791 53.2239 49 53.5 49Z" fill="url(#paint6_linear_125_9789)"/>
<path fill-rule="evenodd" clip-rule="evenodd" d="M49.5 49C49.7761 49 50 49.1791 50 49.4L50 52.6C50 52.8209 49.7761 53 49.5 53C49.2239 53 49 52.8209 49 52.6L49 49.4C49 49.1791 49.2239 49 49.5 49Z" fill="url(#paint7_linear_125_9789)"/>
<path fill-rule="evenodd" clip-rule="evenodd" d="M47.5 49C47.7761 49 48 49.1791 48 49.4L48 52.6C48 52.8209 47.7761 53 47.5 53C47.2239 53 47 52.8209 47 52.6L47 49.4C47 49.1791 47.2239 49 47.5 49Z" fill="url(#paint8_linear_125_9789)"/>
<defs>
<linearGradient id="paint0_linear_125_9789" x1="48.7679" y1="3.68371" x2="78.4831" y2="35.7252" gradientUnits="userSpaceOnUse">
<stop stop-color="#FFC671"/>
<stop offset="1" stop-color="#FF6F3D"/>
</linearGradient>
<linearGradient id="paint1_linear_125_9789" x1="8.00004" y1="46.6875" x2="13.1749" y2="60.802" gradientUnits="userSpaceOnUse">
<stop stop-color="#FF8E3D"/>
<stop offset="1" stop-color="#FF6F3D"/>
</linearGradient>
<linearGradient id="paint2_linear_125_9789" x1="126" y1="48.8437" x2="127.948" y2="49.3498" gradientUnits="userSpaceOnUse">
<stop stop-color="#FF8E3D"/>
<stop offset="1" stop-color="#FF6F3D"/>
</linearGradient>
<linearGradient id="paint3_linear_125_9789" x1="104" y1="48.8437" x2="105.948" y2="49.3498" gradientUnits="userSpaceOnUse">
<stop stop-color="#FF8E3D"/>
<stop offset="1" stop-color="#FF6F3D"/>
</linearGradient>
<linearGradient id="paint4_linear_125_9789" x1="84" y1="48.8437" x2="85.9482" y2="49.3498" gradientUnits="userSpaceOnUse">
<stop stop-color="#FF8E3D"/>
<stop offset="1" stop-color="#FF6F3D"/>
</linearGradient>
<linearGradient id="paint5_linear_125_9789" x1="58.5" y1="49" x2="58.5" y2="53" gradientUnits="userSpaceOnUse">
<stop stop-color="#FF8E3D"/>
<stop offset="1" stop-color="#FF6F3D"/>
</linearGradient>
<linearGradient id="paint6_linear_125_9789" x1="53.5" y1="49" x2="53.5" y2="53" gradientUnits="userSpaceOnUse">
<stop stop-color="#FF8E3D"/>
<stop offset="1" stop-color="#FF6F3D"/>
</linearGradient>
<linearGradient id="paint7_linear_125_9789" x1="49.5" y1="49" x2="49.5" y2="53" gradientUnits="userSpaceOnUse">
<stop stop-color="#FF8E3D"/>
<stop offset="1" stop-color="#FF6F3D"/>
</linearGradient>
<linearGradient id="paint8_linear_125_9789" x1="47.5" y1="49" x2="47.5" y2="53" gradientUnits="userSpaceOnUse">
<stop stop-color="#FF8E3D"/>
<stop offset="1" stop-color="#FF6F3D"/>
</linearGradient>
</defs>
</svg>
