<svg width="100" height="100" viewBox="0 0 100 100" fill="none" xmlns="http://www.w3.org/2000/svg">
<path d="M21 17.9461C21 15.2144 23.2013 13 25.9167 13H74.0833C76.7987 13 79 15.2144 79 17.9461V90C79 92.7316 76.9595 95 74.2441 95H25.9167C23.2013 95 21 92.7856 21 90.0539V17.9461Z" fill="#EFEFEF"/>
<path fill-rule="evenodd" clip-rule="evenodd" d="M29 13H25.9167C23.2013 13 21 15.2144 21 17.9461V90.0539C21 92.7856 23.2013 95 25.9167 95H74.2441C76.9595 95 79 92.7316 79 90V17.9461C79 15.2144 76.7987 13 74.0833 13H70.9894V14H74.0833C76.2408 14 78 15.7611 78 17.9461V90C78 92.2437 76.3451 94 74.2441 94H25.9167C23.7592 94 22 92.2389 22 90.0539V17.9461C22 15.7611 23.7592 14 25.9167 14H29V13Z" fill="#333333"/>
<path fill-rule="evenodd" clip-rule="evenodd" d="M54.6286 9C54.6286 6.79086 52.7865 5 50.5143 5C48.242 5 46.4 6.79086 46.4 9H34.0571C32.921 9 32 9.89543 32 11V15C32 16.1046 32.921 17 34.0571 17H65.9429C67.079 17 68 16.1046 68 15V11C68 9.89543 67.079 9 65.9429 9H54.6286Z" fill="url(#paint0_linear)"/>
<path fill-rule="evenodd" clip-rule="evenodd" d="M53.6286 10V9C53.6286 7.36951 52.261 6 50.5143 6C48.7676 6 47.4 7.36951 47.4 9V10H34.0571C33.4466 10 33 10.4741 33 11V15C33 15.5259 33.4466 16 34.0571 16H65.9429C66.5534 16 67 15.5259 67 15V11C67 10.4741 66.5534 10 65.9429 10H53.6286ZM65.9429 9C67.079 9 68 9.89543 68 11V15C68 16.1046 67.079 17 65.9429 17H34.0571C32.921 17 32 16.1046 32 15V11C32 9.89543 32.921 9 34.0571 9H46.4C46.4 6.79086 48.242 5 50.5143 5C52.7865 5 54.6286 6.79086 54.6286 9H65.9429Z" fill="#333333"/>
<path d="M28 25.0111C28 23.9008 28.9093 23.0007 30.0309 23.0007H69.9691C71.0907 23.0007 72 23.9008 72 25.0111V76.5028C72 77.0367 71.7855 77.5486 71.4037 77.9258L62.8168 86.409C62.4361 86.7852 61.9201 86.9964 61.3822 86.9964H30.0309C28.9093 86.9964 28 86.0963 28 84.986V25.0111Z" fill="white"/>
<path fill-rule="evenodd" clip-rule="evenodd" d="M69.9691 24.0057H30.0309C29.4701 24.0057 29.0154 24.4557 29.0154 25.0109V84.986C29.0154 85.5412 29.4701 85.9912 30.0309 85.9912H61.3822C61.6511 85.9912 61.9091 85.8856 62.0995 85.6975L70.6864 77.2142C70.8773 77.0257 70.9846 76.7697 70.9846 76.5027V25.0109C70.9846 24.4557 70.5299 24.0057 69.9691 24.0057ZM30.0309 23.0005C28.9093 23.0005 28 23.9006 28 25.0109V84.986C28 86.0963 28.9093 86.9964 30.0309 86.9964H61.3822C61.9201 86.9964 62.4361 86.7852 62.8168 86.409L71.4037 77.9257C71.7855 77.5486 72 77.0366 72 76.5027V25.0109C72 23.9006 71.0907 23.0005 69.9691 23.0005H30.0309Z" fill="#333333"/>
<path fill-rule="evenodd" clip-rule="evenodd" d="M39.0005 30.5C39.0005 30.2239 39.2184 30 39.4872 30H60.5138C60.7826 30 61.0005 30.2239 61.0005 30.5C61.0005 30.7761 60.7826 31 60.5138 31H39.4872C39.2184 31 39.0005 30.7761 39.0005 30.5Z" fill="#333333"/>
<path d="M32.9995 68.0636C32.9995 67.4831 33.4651 67.0126 34.0394 67.0126H41.9724C42.5467 67.0126 43.0122 67.4831 43.0122 68.0636V75.9489C43.0122 76.5294 42.5467 77 41.9724 77H34.0394C33.4651 77 32.9995 76.5294 32.9995 75.9489V68.0636Z" fill="url(#paint1_linear)"/>
<path d="M32.9995 68.0636C32.9995 67.4831 33.4651 67.0126 34.0394 67.0126H41.9724C42.5467 67.0126 43.0122 67.4831 43.0122 68.0636V75.9489C43.0122 76.5294 42.5467 77 41.9724 77H34.0394C33.4651 77 32.9995 76.5294 32.9995 75.9489V68.0636Z" fill="#CCE9FF"/>
<path fill-rule="evenodd" clip-rule="evenodd" d="M43.2911 66.5247C43.5158 66.6852 43.5679 66.9975 43.4074 67.2222L38.4074 74.2222C38.3219 74.3418 38.1882 74.4177 38.0417 74.4299C37.8953 74.442 37.7509 74.389 37.6469 74.2851L35.6469 72.2851C35.4517 72.0898 35.4517 71.7733 35.6469 71.578C35.8422 71.3827 36.1588 71.3827 36.354 71.578L37.9367 73.1606L42.5936 66.6409C42.7541 66.4162 43.0664 66.3642 43.2911 66.5247Z" fill="#333333"/>
<path fill-rule="evenodd" clip-rule="evenodd" d="M34.3796 66.9976C34.0944 66.9976 34.0324 67.2819 34.0324 67.5711L34.0116 75.4283C34.0116 75.7176 34.0946 76.0304 34.3798 76.0304L42.6751 76.0023C42.9603 76.0023 43.0062 75.7181 43.0062 75.4289V71.5C43.0062 71.2108 43.2134 71.0216 43.4986 71.0216C43.7838 71.0216 43.9995 71.2108 43.9995 71.5V75.4289C43.9995 76.2966 43.284 77 42.4284 77H34.5488C33.6931 77 33.0229 76.3361 33.0229 75.4684L32.9995 67.5711C32.9995 66.7034 33.524 66 34.3796 66H39.8448C40.13 66 40.3612 66.2345 40.3612 66.5237C40.3612 66.8129 40.13 66.9976 39.8448 66.9976H34.3796Z" fill="#333333"/>
<path fill-rule="evenodd" clip-rule="evenodd" d="M49.4871 69C49.2178 69 48.9995 69.2239 48.9995 69.5C48.9995 69.7761 49.2178 70 49.4871 70H64.5119C64.7812 70 64.9995 69.7761 64.9995 69.5C64.9995 69.2239 64.7812 69 64.5119 69H49.4871ZM49.4895 72C49.2189 72 48.9995 72.2239 48.9995 72.5C48.9995 72.7761 49.2189 73 49.4895 73H57.5096C57.7802 73 57.9995 72.7761 57.9995 72.5C57.9995 72.2239 57.7802 72 57.5096 72H49.4895Z" fill="#333333"/>
<path d="M32.9995 53.0524C32.9995 52.4712 33.4645 52 34.038 52H41.961C42.5345 52 42.9995 52.4712 42.9995 53.0524V60.9476C42.9995 61.5288 42.5345 62 41.961 62H34.038C33.4645 62 32.9995 61.5288 32.9995 60.9476V53.0524Z" fill="url(#paint2_linear)"/>
<path d="M32.9995 53.0524C32.9995 52.4712 33.4645 52 34.038 52H41.961C42.5345 52 42.9995 52.4712 42.9995 53.0524V60.9476C42.9995 61.5288 42.5345 62 41.961 62H34.038C33.4645 62 32.9995 61.5288 32.9995 60.9476V53.0524Z" fill="#CCE9FF"/>
<path fill-rule="evenodd" clip-rule="evenodd" d="M43.2919 51.5211C43.5163 51.682 43.5677 51.9944 43.4068 52.2188L38.4068 59.1906C38.3213 59.3097 38.1879 59.3854 38.0418 59.3975C37.8956 59.4096 37.7515 59.3569 37.6476 59.2535L35.6476 57.2615C35.452 57.0667 35.4514 56.7501 35.6462 56.5544C35.8411 56.3588 36.1577 56.3581 36.3533 56.553L37.9368 58.1301L42.5942 51.636C42.7551 51.4116 43.0675 51.3602 43.2919 51.5211Z" fill="#333333"/>
<path fill-rule="evenodd" clip-rule="evenodd" d="M34.3796 51.9976C34.0944 51.9976 34.0324 52.2819 34.0324 52.5711L34.0116 60.4283C34.0116 60.7176 34.0946 61.0304 34.3798 61.0304L42.6751 61.0023C42.9603 61.0023 43.0062 60.7181 43.0062 60.4289V56.5C43.0062 56.2108 43.2134 56.0216 43.4986 56.0216C43.7838 56.0216 43.9995 56.2108 43.9995 56.5V60.4289C43.9995 61.2966 43.284 62 42.4284 62H34.5488C33.6931 62 33.0229 61.3361 33.0229 60.4684L32.9995 52.5711C32.9995 51.7034 33.524 51 34.3796 51H39.8448C40.13 51 40.3612 51.2345 40.3612 51.5237C40.3612 51.8129 40.13 51.9976 39.8448 51.9976H34.3796Z" fill="#333333"/>
<path fill-rule="evenodd" clip-rule="evenodd" d="M49.4871 53C49.2178 53 48.9995 53.2239 48.9995 53.5C48.9995 53.7761 49.2178 54 49.4871 54H64.5119C64.7812 54 64.9995 53.7761 64.9995 53.5C64.9995 53.2239 64.7812 53 64.5119 53H49.4871ZM49.4895 56C49.2189 56 48.9995 56.2239 48.9995 56.5C48.9995 56.7761 49.2189 57 49.4895 57H57.5096C57.7802 57 57.9995 56.7761 57.9995 56.5C57.9995 56.2239 57.7802 56 57.5096 56H49.4895Z" fill="#333333"/>
<path d="M32.9995 38.0524C32.9995 37.4712 33.4645 37 34.038 37H41.961C42.5345 37 42.9995 37.4712 42.9995 38.0524V45.9476C42.9995 46.5288 42.5345 47 41.961 47H34.038C33.4645 47 32.9995 46.5288 32.9995 45.9476V38.0524Z" fill="url(#paint3_linear)"/>
<path d="M32.9995 38.0524C32.9995 37.4712 33.4645 37 34.038 37H41.961C42.5345 37 42.9995 37.4712 42.9995 38.0524V45.9476C42.9995 46.5288 42.5345 47 41.961 47H34.038C33.4645 47 32.9995 46.5288 32.9995 45.9476V38.0524Z" fill="#CCE9FF"/>
<path fill-rule="evenodd" clip-rule="evenodd" d="M43.2911 36.5247C43.5158 36.6852 43.5679 36.9975 43.4074 37.2222L38.4074 44.2222C38.3219 44.3418 38.1882 44.4177 38.0417 44.4299C37.8953 44.442 37.7509 44.389 37.6469 44.2851L35.6469 42.2851C35.4517 42.0898 35.4517 41.7733 35.6469 41.578C35.8422 41.3827 36.1588 41.3827 36.354 41.578L37.9367 43.1606L42.5936 36.6409C42.7541 36.4162 43.0664 36.3642 43.2911 36.5247Z" fill="#333333"/>
<path fill-rule="evenodd" clip-rule="evenodd" d="M34.3796 36.9976C34.0944 36.9976 34.0324 37.2819 34.0324 37.5711L34.0116 45.4283C34.0116 45.7176 34.0946 46.0304 34.3798 46.0304L42.6751 46.0023C42.9603 46.0023 43.0062 45.7181 43.0062 45.4289V41.5C43.0062 41.2108 43.2134 41.0216 43.4986 41.0216C43.7838 41.0216 43.9995 41.2108 43.9995 41.5V45.4289C43.9995 46.2966 43.284 47 42.4284 47H34.5488C33.6931 47 33.0229 46.3361 33.0229 45.4684L32.9995 37.5711C32.9995 36.7034 33.524 36 34.3796 36H39.8448C40.13 36 40.3612 36.2345 40.3612 36.5237C40.3612 36.8129 40.13 36.9976 39.8448 36.9976H34.3796Z" fill="#333333"/>
<path fill-rule="evenodd" clip-rule="evenodd" d="M49.4871 39C49.2178 39 48.9995 39.2239 48.9995 39.5C48.9995 39.7761 49.2178 40 49.4871 40H64.5119C64.7812 40 64.9995 39.7761 64.9995 39.5C64.9995 39.2239 64.7812 39 64.5119 39H56.9995H49.4871ZM49.4895 42C49.2189 42 48.9995 42.2239 48.9995 42.5C48.9995 42.7761 49.2189 43 49.4895 43H57.5096C57.7802 43 57.9995 42.7761 57.9995 42.5C57.9995 42.2239 57.7802 42 57.5096 42H49.4895Z" fill="#333333"/>
<path fill-rule="evenodd" clip-rule="evenodd" d="M63.485 77.9421C63.2125 77.9421 62.9873 78.2823 62.9873 78.5424V87H62.0005V78.5424C62.0005 77.762 62.6675 77 63.485 77H72.0005V77.9421H63.485Z" fill="#333333"/>
<defs>
<linearGradient id="paint0_linear" x1="32.0001" y1="4.53125" x2="38.986" y2="26.3078" gradientUnits="userSpaceOnUse">
<stop stop-color="#FFC671"/>
<stop offset="0.59375" stop-color="#FF7541"/>
<stop offset="1" stop-color="#FF6F3D"/>
</linearGradient>
<linearGradient id="paint1_linear" x1="32.9995" y1="66.6224" x2="42.986" y2="77.0252" gradientUnits="userSpaceOnUse">
<stop stop-color="#FFC671"/>
<stop offset="0.59375" stop-color="#FF7541"/>
<stop offset="1" stop-color="#FF6F3D"/>
</linearGradient>
<linearGradient id="paint2_linear" x1="32.9995" y1="51.6094" x2="42.9995" y2="62" gradientUnits="userSpaceOnUse">
<stop stop-color="#FFC671"/>
<stop offset="0.59375" stop-color="#FF7541"/>
<stop offset="1" stop-color="#FF6F3D"/>
</linearGradient>
<linearGradient id="paint3_linear" x1="32.9995" y1="36.6094" x2="42.9995" y2="47" gradientUnits="userSpaceOnUse">
<stop stop-color="#FFC671"/>
<stop offset="0.59375" stop-color="#FF7541"/>
<stop offset="1" stop-color="#FF6F3D"/>
</linearGradient>
</defs>
</svg>
