<svg width="100" height="100" viewBox="0 0 100 100" fill="none" xmlns="http://www.w3.org/2000/svg">
<path fill-rule="evenodd" clip-rule="evenodd" d="M29 13H25.9167C23.2013 13 21 15.2144 21 17.9461V90.0539C21 92.7856 23.2013 95 25.9167 95H74.2441C76.9595 95 79 92.7316 79 90V17.9461C79 15.2144 76.7987 13 74.0833 13H70.9894V14H74.0833C76.2408 14 78 15.7611 78 17.9461V90C78 92.2437 76.3451 94 74.2441 94H25.9167C23.7592 94 22 92.2389 22 90.0539V17.9461C22 15.7611 23.7592 14 25.9167 14H29V13Z" fill="#333333"/>
<path d="M21 17.9461C21 15.2144 23.2013 13 25.9167 13H74.0833C76.7987 13 79 15.2144 79 17.9461V90C79 92.7316 76.9595 95 74.2441 95H25.9167C23.2013 95 21 92.7856 21 90.0539V17.9461Z" fill="#333333"/>
<path d="M21 17.9461C21 15.2144 23.2013 13 25.9167 13H74.0833C76.7987 13 79 15.2144 79 17.9461V90C79 92.7316 76.9595 95 74.2441 95H25.9167C23.2013 95 21 92.7856 21 90.0539V17.9461Z" fill="white" fill-opacity="0.88"/>
<path fill-rule="evenodd" clip-rule="evenodd" d="M54.6286 9C54.6286 6.79086 52.7865 5 50.5143 5C48.242 5 46.4 6.79086 46.4 9H34.0571C32.921 9 32 9.89543 32 11V15C32 16.1046 32.921 17 34.0571 17H65.9429C67.079 17 68 16.1046 68 15V11C68 9.89543 67.079 9 65.9429 9H54.6286Z" fill="#E07751"/>
<path fill-rule="evenodd" clip-rule="evenodd" d="M53.6286 10V9C53.6286 7.36951 52.261 6 50.5143 6C48.7676 6 47.4 7.36951 47.4 9V10H34.0571C33.4466 10 33 10.4741 33 11V15C33 15.5259 33.4466 16 34.0571 16H65.9429C66.5534 16 67 15.5259 67 15V11C67 10.4741 66.5534 10 65.9429 10H53.6286ZM65.9429 9C67.079 9 68 9.89543 68 11V15C68 16.1046 67.079 17 65.9429 17H34.0571C32.921 17 32 16.1046 32 15V11C32 9.89543 32.921 9 34.0571 9H46.4C46.4 6.79086 48.242 5 50.5143 5C52.7865 5 54.6286 6.79086 54.6286 9H65.9429Z" fill="#333333"/>
<path d="M28 25.0114C28 23.9011 28.9093 23.001 30.0309 23.001H69.9691C71.0907 23.001 72 23.9011 72 25.0114V76.503C72 77.0369 71.7855 77.5489 71.4037 77.926L62.8168 86.4092C62.4361 86.7854 61.9201 86.9967 61.3822 86.9967H30.0309C28.9093 86.9967 28 86.0966 28 84.9863V25.0114Z" fill="#333333"/>
<path d="M28 25.0114C28 23.9011 28.9093 23.001 30.0309 23.001H69.9691C71.0907 23.001 72 23.9011 72 25.0114V76.503C72 77.0369 71.7855 77.5489 71.4037 77.926L62.8168 86.4092C62.4361 86.7854 61.9201 86.9967 61.3822 86.9967H30.0309C28.9093 86.9967 28 86.0966 28 84.9863V25.0114Z" fill="white" fill-opacity="0.88"/>
<path fill-rule="evenodd" clip-rule="evenodd" d="M69.9691 24.0052H30.0309C29.4701 24.0052 29.0154 24.4552 29.0154 25.0104V84.9855C29.0154 85.5407 29.4701 85.9907 30.0309 85.9907H61.3822C61.6511 85.9907 61.9091 85.8851 62.0995 85.697L70.6864 77.2137C70.8773 77.0252 70.9846 76.7692 70.9846 76.5023V25.0104C70.9846 24.4552 70.5299 24.0052 69.9691 24.0052ZM30.0309 23C28.9093 23 28 23.9001 28 25.0104V84.9855C28 86.0958 28.9093 86.9959 30.0309 86.9959H61.3822C61.9201 86.9959 62.4361 86.7847 62.8168 86.4085L71.4037 77.9252C71.7855 77.5481 72 77.0361 72 76.5023V25.0104C72 23.9001 71.0907 23 69.9691 23H30.0309Z" fill="#333333"/>
<path fill-rule="evenodd" clip-rule="evenodd" d="M39 30.5C39 30.2239 39.2179 30 39.4867 30H60.5133C60.7821 30 61 30.2239 61 30.5C61 30.7761 60.7821 31 60.5133 31H39.4867C39.2179 31 39 30.7761 39 30.5Z" fill="#333333"/>
<path d="M33 68.0638C33 67.4833 33.4656 67.0127 34.0398 67.0127H41.9729C42.5471 67.0127 43.0127 67.4833 43.0127 68.0638V75.9491C43.0127 76.5295 42.5471 77.0001 41.9728 77.0001H34.0398C33.4656 77.0001 33 76.5295 33 75.9491V68.0638Z" fill="white" fill-opacity="0.6"/>
<path fill-rule="evenodd" clip-rule="evenodd" d="M43.2916 66.5246C43.5163 66.6851 43.5683 66.9973 43.4078 67.2221L38.4078 74.2221C38.3224 74.3417 38.1887 74.4176 38.0422 74.4297C37.8957 74.4419 37.7514 74.3889 37.6474 74.285L35.6474 72.285C35.4522 72.0897 35.4522 71.7731 35.6474 71.5779C35.8427 71.3826 36.1593 71.3826 36.3545 71.5779L37.9372 73.1605L42.5941 66.6408C42.7546 66.4161 43.0669 66.3641 43.2916 66.5246Z" fill="#333333"/>
<path fill-rule="evenodd" clip-rule="evenodd" d="M34.3801 66.9976C34.0949 66.9976 34.0328 67.2819 34.0328 67.5711L34.0121 75.4283C34.0121 75.7176 34.0951 76.0304 34.3803 76.0304L42.6756 76.0023C42.9608 76.0023 43.0067 75.7181 43.0067 75.4289V71.5C43.0067 71.2108 43.2139 71.0216 43.4991 71.0216C43.7843 71.0216 44 71.2108 44 71.5V75.4289C44 76.2966 43.2845 77 42.4289 77H34.5493C33.6936 77 33.0234 76.3361 33.0234 75.4684L33 67.5711C33 66.7034 33.5245 66 34.3801 66H39.8452C40.1305 66 40.3617 66.2345 40.3617 66.5237C40.3617 66.8129 40.1305 66.9976 39.8452 66.9976H34.3801Z" fill="#333333"/>
<path fill-rule="evenodd" clip-rule="evenodd" d="M49.4876 69C49.2183 69 49 69.2239 49 69.5C49 69.7761 49.2183 70 49.4876 70H64.5124C64.7817 70 65 69.7761 65 69.5C65 69.2239 64.7817 69 64.5124 69H49.4876ZM49.4899 72C49.2194 72 49 72.2239 49 72.5C49 72.7761 49.2194 73 49.4899 73H57.5101C57.7806 73 58 72.7761 58 72.5C58 72.2239 57.7806 72 57.5101 72H49.4899Z" fill="#333333"/>
<path d="M33 53.0524C33 52.4712 33.465 52 34.0385 52H41.9615C42.535 52 43 52.4712 43 53.0524V60.9476C43 61.5288 42.535 62 41.9615 62H34.0385C33.465 62 33 61.5288 33 60.9476V53.0524Z" fill="white" fill-opacity="0.6"/>
<path fill-rule="evenodd" clip-rule="evenodd" d="M43.2924 51.5215C43.5168 51.6824 43.5682 51.9948 43.4073 52.2192L38.4073 59.191C38.3218 59.3101 38.1884 59.3857 38.0422 59.3979C37.8961 59.41 37.752 59.3573 37.6481 59.2538L35.6481 57.2619C35.4525 57.067 35.4518 56.7504 35.6467 56.5548C35.8416 56.3591 36.1582 56.3585 36.3538 56.5534L37.9373 58.1304L42.5947 51.6364C42.7556 51.412 43.068 51.3605 43.2924 51.5215Z" fill="#333333"/>
<path fill-rule="evenodd" clip-rule="evenodd" d="M34.3801 51.9976C34.0949 51.9976 34.0328 52.2819 34.0328 52.5711L34.0121 60.4283C34.0121 60.7176 34.0951 61.0304 34.3803 61.0304L42.6756 61.0023C42.9608 61.0023 43.0067 60.7181 43.0067 60.4289V56.5C43.0067 56.2108 43.2139 56.0216 43.4991 56.0216C43.7843 56.0216 44 56.2108 44 56.5V60.4289C44 61.2966 43.2845 62 42.4289 62H34.5493C33.6936 62 33.0234 61.3361 33.0234 60.4684L33 52.5711C33 51.7034 33.5245 51 34.3801 51H39.8452C40.1305 51 40.3617 51.2345 40.3617 51.5237C40.3617 51.8129 40.1305 51.9976 39.8452 51.9976H34.3801Z" fill="#333333"/>
<path fill-rule="evenodd" clip-rule="evenodd" d="M49.4876 53C49.2183 53 49 53.2239 49 53.5C49 53.7761 49.2183 54 49.4876 54H64.5124C64.7817 54 65 53.7761 65 53.5C65 53.2239 64.7817 53 64.5124 53H49.4876ZM49.4899 56C49.2194 56 49 56.2239 49 56.5C49 56.7761 49.2194 57 49.4899 57H57.5101C57.7806 57 58 56.7761 58 56.5C58 56.2239 57.7806 56 57.5101 56H49.4899Z" fill="#333333"/>
<path d="M33 38.0524C33 37.4712 33.465 37 34.0385 37H41.9615C42.535 37 43 37.4712 43 38.0524V45.9476C43 46.5288 42.535 47 41.9615 47H34.0385C33.465 47 33 46.5288 33 45.9476V38.0524Z" fill="white" fill-opacity="0.6"/>
<path fill-rule="evenodd" clip-rule="evenodd" d="M43.2916 36.5248C43.5163 36.6853 43.5683 36.9976 43.4078 37.2223L38.4078 44.2223C38.3224 44.3419 38.1887 44.4179 38.0422 44.43C37.8957 44.4421 37.7514 44.3892 37.6474 44.2852L35.6474 42.2852C35.4522 42.09 35.4522 41.7734 35.6474 41.5781C35.8427 41.3829 36.1593 41.3829 36.3545 41.5781L37.9372 43.1608L42.5941 36.6411C42.7546 36.4164 43.0669 36.3643 43.2916 36.5248Z" fill="#333333"/>
<path fill-rule="evenodd" clip-rule="evenodd" d="M34.3801 36.9976C34.0949 36.9976 34.0328 37.2819 34.0328 37.5711L34.0121 45.4283C34.0121 45.7176 34.0951 46.0304 34.3803 46.0304L42.6756 46.0023C42.9608 46.0023 43.0067 45.7181 43.0067 45.4289V41.5C43.0067 41.2108 43.2139 41.0216 43.4991 41.0216C43.7843 41.0216 44 41.2108 44 41.5V45.4289C44 46.2966 43.2845 47 42.4289 47H34.5493C33.6936 47 33.0234 46.3361 33.0234 45.4684L33 37.5711C33 36.7034 33.5245 36 34.3801 36H39.8452C40.1305 36 40.3617 36.2345 40.3617 36.5237C40.3617 36.8129 40.1305 36.9976 39.8452 36.9976H34.3801Z" fill="#333333"/>
<path fill-rule="evenodd" clip-rule="evenodd" d="M49.4876 39C49.2183 39 49 39.2239 49 39.5C49 39.7761 49.2183 40 49.4876 40H64.5124C64.7817 40 65 39.7761 65 39.5C65 39.2239 64.7817 39 64.5124 39H57H49.4876ZM49.4899 42C49.2194 42 49 42.2239 49 42.5C49 42.7761 49.2194 43 49.4899 43H57.5101C57.7806 43 58 42.7761 58 42.5C58 42.2239 57.7806 42 57.5101 42H49.4899Z" fill="#333333"/>
<path fill-rule="evenodd" clip-rule="evenodd" d="M62.4845 76.9421C62.212 76.9421 61.9868 77.2823 61.9868 77.5424V86H61L61 77.5424C61 76.762 61.667 76 62.4845 76H71V76.9421H62.4845Z" fill="#333333"/>
</svg>
