<svg width="100" height="100" viewBox="0 0 100 100" fill="none" xmlns="http://www.w3.org/2000/svg">
<path d="M100 55.5328C100 73.6718 79.2556 93.9999 51.0574 93.9999C22.8592 93.9999 0 94.1015 0 64.9115C0 51.2125 6.34441 47.398 17.8248 40.205C24.5928 35.9645 21.0727 29.8971 23.8671 21.4405C25.4373 16.6885 32.8293 8.16746 51.0574 7.05441C71.6012 5.79996 100 26.3428 100 55.5328Z" fill="#F1F9FF"/>
<path d="M33.1835 20.8409H72.5768C73.5524 20.8409 74.3421 21.6247 74.3421 22.5929V81.7024C74.3421 82.6707 73.5524 83.4545 72.5768 83.4545H27.4232C26.4476 83.4545 25.6579 82.6707 25.6579 81.7024V22.5929C25.6579 21.6247 26.4476 20.8409 27.4232 20.8409H30.0246" fill="#0F4071"/>
<path d="M71.1542 26.2524V78.3898C71.1542 79.1591 70.5217 79.7475 69.7989 79.7475H30.5861C29.8181 79.7475 29.2308 79.1591 29.2308 78.3898V26.2524C29.2308 25.483 29.8181 24.8946 30.5861 24.8946H69.7537C70.5217 24.8946 71.1542 25.483 71.1542 26.2524Z" fill="white"/>
<path d="M63.4977 20.7252C63.0432 19.7077 62.0434 18.9676 60.8617 18.9676H52.4087C52.2269 17.8113 51.2271 16.8863 50 16.8863C48.7729 16.8863 47.7731 17.7651 47.5913 18.9676H39.0473C38.2748 18.9676 37.5476 19.2914 37.0022 19.8464C36.7296 20.1239 36.5478 20.4014 36.4114 20.7252C36.2751 21.0952 36.1842 21.4652 36.1842 21.8815C36.1842 23.5003 37.4567 24.7954 39.0473 24.7954H60.9072C61.7252 24.7954 62.4069 24.4716 62.9523 23.9166C63.4522 23.4078 63.8158 22.6678 63.8158 21.8352C63.7249 21.4652 63.634 21.0952 63.4977 20.7252ZM49.9545 18.4588C50.4545 18.4588 50.8635 18.8751 50.8635 19.3839C50.8635 19.8927 50.4545 20.3089 49.9545 20.3089C49.4546 20.3089 49.0456 19.8927 49.0456 19.3839C49.0456 18.8751 49.4546 18.4588 49.9545 18.4588Z" fill="#576E92"/>
<path d="M58.0768 36.297H49.4127C48.8208 36.297 48.3365 35.8118 48.3365 35.2188C48.3365 34.6257 48.8208 34.1405 49.4127 34.1405H58.0768C58.6687 34.1405 59.153 34.6257 59.153 35.2188C59.153 35.8118 58.6687 36.297 58.0768 36.297Z" fill="#83A7C5"/>
<path d="M64.7345 41.149H49.4124C48.8204 41.149 48.3361 40.6638 48.3361 40.0708C48.3361 39.4778 48.8204 38.9926 49.4124 38.9926H64.7345C65.3264 38.9926 65.8107 39.4778 65.8107 40.0708C65.8107 40.6638 65.3264 41.149 64.7345 41.149Z" fill="#83A7C5"/>
<path d="M38.8264 42.6046C41.739 42.6046 44.1001 40.2392 44.1001 37.3213C44.1001 34.4034 41.739 32.0379 38.8264 32.0379C35.9138 32.0379 33.5526 34.4034 33.5526 37.3213C33.5526 40.2392 35.9138 42.6046 38.8264 42.6046Z" fill="#FF507D"/>
<path d="M37.9114 39.6398C37.6962 39.6398 37.4809 39.5319 37.3195 39.4241L35.7589 37.8607C35.436 37.5372 35.436 37.052 35.7589 36.7285C36.0818 36.405 36.5661 36.405 36.889 36.7285L37.9114 37.7528L40.4945 35.1651C40.8174 34.8416 41.3017 34.8416 41.6246 35.1651C41.9475 35.4886 41.9475 35.9738 41.6246 36.2972L38.4496 39.478C38.342 39.5319 38.1267 39.6398 37.9114 39.6398Z" fill="white"/>
<path d="M58.0768 51.1966H49.4127C48.8208 51.1966 48.3365 50.7114 48.3365 50.1184C48.3365 49.5253 48.8208 49.0401 49.4127 49.0401H58.0768C58.6687 49.0401 59.153 49.5253 59.153 50.1184C59.153 50.7114 58.6687 51.1966 58.0768 51.1966Z" fill="#83A7C5"/>
<path d="M64.7345 56.0487H49.4124C48.8204 56.0487 48.3361 55.5635 48.3361 54.9704C48.3361 54.3774 48.8204 53.8922 49.4124 53.8922H64.7345C65.3264 53.8922 65.8107 54.3774 65.8107 54.9704C65.8107 55.5635 65.3264 56.0487 64.7345 56.0487Z" fill="#83A7C5"/>
<path d="M38.8264 57.5043C41.739 57.5043 44.1001 55.1388 44.1001 52.2209C44.1001 49.303 41.739 46.9376 38.8264 46.9376C35.9138 46.9376 33.5526 49.303 33.5526 52.2209C33.5526 55.1388 35.9138 57.5043 38.8264 57.5043Z" fill="#FF507D"/>
<path d="M37.9114 54.5393C37.6962 54.5393 37.4809 54.4315 37.3195 54.3237L35.7589 52.7602C35.436 52.4368 35.436 51.9516 35.7589 51.6281C36.0818 51.3046 36.5661 51.3046 36.889 51.6281L37.9114 52.6524L40.4945 50.0647C40.8174 49.7412 41.3017 49.7412 41.6246 50.0647C41.9475 50.3881 41.9475 50.8733 41.6246 51.1968L38.4496 54.3776C38.342 54.4315 38.1267 54.5393 37.9114 54.5393Z" fill="white"/>
<path d="M58.0768 66.0962H49.4127C48.8208 66.0962 48.3365 65.611 48.3365 65.018C48.3365 64.425 48.8208 63.9398 49.4127 63.9398H58.0768C58.6687 63.9398 59.153 64.425 59.153 65.018C59.153 65.611 58.6687 66.0962 58.0768 66.0962Z" fill="#83A7C5"/>
<path d="M64.7345 70.9484H49.4124C48.8204 70.9484 48.3361 70.4632 48.3361 69.8701C48.3361 69.2771 48.8204 68.7919 49.4124 68.7919H64.7345C65.3264 68.7919 65.8107 69.2771 65.8107 69.8701C65.8107 70.4632 65.3264 70.9484 64.7345 70.9484Z" fill="#83A7C5"/>
<path d="M38.8264 72.4039C41.739 72.4039 44.1001 70.0384 44.1001 67.1205C44.1001 64.2026 41.739 61.8372 38.8264 61.8372C35.9138 61.8372 33.5526 64.2026 33.5526 67.1205C33.5526 70.0384 35.9138 72.4039 38.8264 72.4039Z" fill="#FF507D"/>
<path d="M37.9114 69.439C37.6962 69.439 37.4809 69.3312 37.3195 69.2233L35.7589 67.6599C35.436 67.3364 35.436 66.8512 35.7589 66.5278C36.0818 66.2043 36.5661 66.2043 36.889 66.5278L37.9114 67.5521L40.4945 64.9643C40.8174 64.6409 41.3017 64.6409 41.6246 64.9643C41.9475 65.2878 41.9475 65.773 41.6246 66.0965L38.4496 69.2773C38.342 69.3312 38.1267 69.439 37.9114 69.439Z" fill="white"/>
</svg>
