<svg width="150" height="150" viewBox="0 0 150 150" fill="none" xmlns="http://www.w3.org/2000/svg">
<g clip-path="url(#clip0_125_10300)">
<path fill-rule="evenodd" clip-rule="evenodd" d="M55.7586 111.039C56.8229 111.248 57.3828 112.247 57.0092 113.269L45.9699 143.488C45.5963 144.511 44.4306 145.17 43.3664 144.961C42.3021 144.752 41.7422 143.753 42.1159 142.731L53.1551 112.512C53.5287 111.489 54.6944 110.83 55.7586 111.039ZM93.2414 111.039C92.1771 111.248 91.6172 112.247 91.9908 113.269L103.03 143.488C103.404 144.511 104.569 145.17 105.634 144.961C106.698 144.752 107.258 143.753 106.884 142.731L95.8449 112.512C95.4713 111.489 94.3056 110.83 93.2414 111.039Z" fill="#BDECFF"/>
<path fill-rule="evenodd" clip-rule="evenodd" d="M55.949 110.057C57.6156 110.385 58.5296 112.015 57.9445 113.616L46.9046 143.831C46.362 145.316 44.7182 146.246 43.1728 145.943C41.5061 145.615 40.5922 143.985 41.1773 142.384L52.2172 112.169C52.7598 110.684 54.4036 109.754 55.949 110.057ZM91.0555 113.616C90.4704 112.015 91.3843 110.385 93.051 110.057C94.5964 109.754 96.2402 110.684 96.7828 112.169L107.823 142.384C108.408 143.985 107.494 145.615 105.827 145.943C104.282 146.246 102.638 145.316 102.095 143.831L91.0555 113.616ZM57.008 113.271C57.3817 112.248 56.8218 111.25 55.7574 111.041C54.6931 110.832 53.5274 111.491 53.1537 112.514L42.1138 142.729C41.7401 143.752 42.3 144.75 43.3644 144.959C44.4287 145.168 45.5944 144.509 45.9681 143.486L57.008 113.271ZM91.992 113.271C91.6183 112.248 92.1782 111.25 93.2426 111.041C94.3069 110.832 95.4726 111.491 95.8463 112.514L106.886 142.729C107.26 143.752 106.7 144.75 105.636 144.959C104.571 145.168 103.406 144.509 103.032 143.486L91.992 113.271Z" fill="#333333"/>
<path fill-rule="evenodd" clip-rule="evenodd" d="M28.9156 7.14283C27.2824 7.14283 25.7691 8.12208 24.9288 9.72249C24.7867 9.9931 24.4796 10.0808 24.2428 9.91848C24.006 9.75612 23.9293 9.40512 24.0713 9.13451C25.0923 7.18987 26.9312 6 28.9156 6H122.5C124.231 6 125.861 6.93149 126.9 8.51423C127.066 8.7667 127.021 9.12486 126.8 9.31421C126.579 9.50356 126.266 9.4524 126.1 9.19993C125.25 7.90496 123.916 7.14283 122.5 7.14283H28.9156Z" fill="#333333"/>
<path fill-rule="evenodd" clip-rule="evenodd" d="M17.9156 13.1428C16.2824 13.1428 14.7691 14.1221 13.9288 15.7225C13.7867 15.9931 13.4796 16.0808 13.2428 15.9185C13.006 15.7561 12.9293 15.4051 13.0713 15.1345C14.0923 13.1899 15.9312 12 17.9156 12H131.5C133.231 12 134.861 12.9315 135.9 14.5142C136.066 14.7667 136.021 15.1249 135.8 15.3142C135.579 15.5036 135.266 15.4524 135.1 15.1999C134.25 13.905 132.916 13.1428 131.5 13.1428H17.9156Z" fill="#333333"/>
<path d="M11 45H138.5" stroke="#333333" stroke-linecap="round"/>
<path fill-rule="evenodd" clip-rule="evenodd" d="M2.00018 27C2.00019 22.5817 5.58191 19 10.0002 19L141 19C145.418 19 149 22.5817 149 27V106C149 110.418 145.418 114 141 114H10C5.58173 114 2.00001 110.418 2.00002 106L2.00018 27Z" fill="#FEFEFE"/>
<path fill-rule="evenodd" clip-rule="evenodd" d="M1.00016 27.5C1.00017 22.2533 5.25346 18 10.5002 18L140.5 18C145.747 18 150 22.2533 150 27.5V90.5C150 90.7762 149.776 91 149.5 91C149.224 91 149 90.7762 149 90.5V27.5C149 22.8056 145.194 19 140.5 19L10.5002 19C5.80575 19 2.00017 22.8056 2.00016 27.5L2 105.5C1.99999 110.194 5.80557 114 10.5 114H88.5C88.7761 114 89 114.224 89 114.5C89 114.776 88.7761 115 88.5 115H10.5C5.25329 115 0.999989 110.747 1 105.5L1.00016 27.5Z" fill="#333333"/>
<path fill-rule="evenodd" clip-rule="evenodd" d="M133.619 36.2144C134.053 36.5561 134.127 37.1849 133.786 37.6188L119.879 55.2761L105.419 46.7085L89.7361 59.9836L73.0007 52.6981L54.5808 66.854L38.0126 47.6202L19.7552 68.6555C19.3932 69.0726 18.7616 69.1173 18.3445 68.7553C17.9274 68.3932 17.8828 67.7617 18.2448 67.3446L38.0183 44.5625L54.8618 64.1158L72.7174 50.3935L89.3936 57.6532L105.213 44.2621L119.392 52.6626L132.214 36.3813C132.556 35.9474 133.185 35.8727 133.619 36.2144Z" fill="url(#paint0_linear_125_10300)"/>
<path fill-rule="evenodd" clip-rule="evenodd" d="M19.5 64C20.8797 64 22 65.1203 22 66.5C22 67.8797 20.8797 69 19.5 69C18.1203 69 17 67.8797 17 66.5C17 65.1203 18.1164 64 19.5 64Z" fill="#BDECFF"/>
<path fill-rule="evenodd" clip-rule="evenodd" d="M19.5 63C21.432 63 23 64.568 23 66.5C23 68.432 21.432 70 19.5 70C17.568 70 16 68.432 16 66.5C16 64.569 17.563 63 19.5 63ZM22 66.5C22 65.1203 20.8797 64 19.5 64C18.1164 64 17 65.1203 17 66.5C17 67.8797 18.1203 69 19.5 69C20.8797 69 22 67.8797 22 66.5Z" fill="#333333"/>
<path fill-rule="evenodd" clip-rule="evenodd" d="M38.5 44C39.8797 44 41 45.1203 41 46.5C41 47.8797 39.8797 49 38.5 49C37.1203 49 36 47.8797 36 46.5C36 45.1203 37.1164 44 38.5 44Z" fill="#BDECFF"/>
<path fill-rule="evenodd" clip-rule="evenodd" d="M38.5 43C40.432 43 42 44.568 42 46.5C42 48.432 40.432 50 38.5 50C36.568 50 35 48.432 35 46.5C35 44.569 36.563 43 38.5 43ZM41 46.5C41 45.1203 39.8797 44 38.5 44C37.1164 44 36 45.1203 36 46.5C36 47.8797 37.1203 49 38.5 49C39.8797 49 41 47.8797 41 46.5Z" fill="#333333"/>
<path fill-rule="evenodd" clip-rule="evenodd" d="M73.5 54C74.8797 54 76 52.8797 76 51.5C76 50.1203 74.8797 49 73.5 49C72.1203 49 71 50.1203 71 51.5C71 52.8797 72.1164 54 73.5 54Z" fill="#BDECFF"/>
<path fill-rule="evenodd" clip-rule="evenodd" d="M73.5 55C75.432 55 77 53.432 77 51.5C77 49.568 75.432 48 73.5 48C71.568 48 70 49.568 70 51.5C70 53.431 71.563 55 73.5 55ZM76 51.5C76 52.8797 74.8797 54 73.5 54C72.1164 54 71 52.8797 71 51.5C71 50.1203 72.1203 49 73.5 49C74.8797 49 76 50.1203 76 51.5Z" fill="#333333"/>
<path fill-rule="evenodd" clip-rule="evenodd" d="M89.5 61C90.8797 61 92 59.8797 92 58.5C92 57.1203 90.8797 56 89.5 56C88.1203 56 87 57.1203 87 58.5C87 59.8797 88.1164 61 89.5 61Z" fill="#BDECFF"/>
<path fill-rule="evenodd" clip-rule="evenodd" d="M89.5 62C91.432 62 93 60.432 93 58.5C93 56.568 91.432 55 89.5 55C87.568 55 86 56.568 86 58.5C86 60.431 87.563 62 89.5 62ZM92 58.5C92 59.8797 90.8797 61 89.5 61C88.1164 61 87 59.8797 87 58.5C87 57.1203 88.1203 56 89.5 56C90.8797 56 92 57.1203 92 58.5Z" fill="#333333"/>
<path fill-rule="evenodd" clip-rule="evenodd" d="M105.5 49C106.88 49 108 47.8797 108 46.5C108 45.1203 106.88 44 105.5 44C104.12 44 103 45.1203 103 46.5C103 47.8797 104.116 49 105.5 49Z" fill="#BDECFF"/>
<path fill-rule="evenodd" clip-rule="evenodd" d="M105.5 50C107.432 50 109 48.432 109 46.5C109 44.568 107.432 43 105.5 43C103.568 43 102 44.568 102 46.5C102 48.431 103.563 50 105.5 50ZM108 46.5C108 47.8797 106.88 49 105.5 49C104.116 49 103 47.8797 103 46.5C103 45.1203 104.12 44 105.5 44C106.88 44 108 45.1203 108 46.5Z" fill="#333333"/>
<path fill-rule="evenodd" clip-rule="evenodd" d="M120.5 56C121.88 56 123 54.8797 123 53.5C123 52.1203 121.88 51 120.5 51C119.12 51 118 52.1203 118 53.5C118 54.8797 119.116 56 120.5 56Z" fill="#BDECFF"/>
<path fill-rule="evenodd" clip-rule="evenodd" d="M120.5 57C122.432 57 124 55.432 124 53.5C124 51.568 122.432 50 120.5 50C118.568 50 117 51.568 117 53.5C117 55.431 118.563 57 120.5 57ZM123 53.5C123 54.8797 121.88 56 120.5 56C119.116 56 118 54.8797 118 53.5C118 52.1203 119.12 51 120.5 51C121.88 51 123 52.1203 123 53.5Z" fill="#333333"/>
<path fill-rule="evenodd" clip-rule="evenodd" d="M132.5 40C133.88 40 135 38.8797 135 37.5C135 36.1203 133.88 35 132.5 35C131.12 35 130 36.1203 130 37.5C130 38.8797 131.116 40 132.5 40Z" fill="#BDECFF"/>
<path fill-rule="evenodd" clip-rule="evenodd" d="M132.5 41C134.432 41 136 39.432 136 37.5C136 35.568 134.432 34 132.5 34C130.568 34 129 35.568 129 37.5C129 39.431 130.563 41 132.5 41ZM135 37.5C135 38.8797 133.88 40 132.5 40C131.116 40 130 38.8797 130 37.5C130 36.1203 131.12 35 132.5 35C133.88 35 135 36.1203 135 37.5Z" fill="#333333"/>
<path fill-rule="evenodd" clip-rule="evenodd" d="M54.5 68C55.8797 68 57 66.8797 57 65.5C57 64.1203 55.8797 63 54.5 63C53.1203 63 52 64.1203 52 65.5C52 66.8797 53.1164 68 54.5 68Z" fill="#BDECFF"/>
<path fill-rule="evenodd" clip-rule="evenodd" d="M54.5 69C56.432 69 58 67.432 58 65.5C58 63.568 56.432 62 54.5 62C52.568 62 51 63.568 51 65.5C51 67.431 52.563 69 54.5 69ZM57 65.5C57 66.8797 55.8797 68 54.5 68C53.1164 68 52 66.8797 52 65.5C52 64.1203 53.1203 63 54.5 63C55.8797 63 57 64.1203 57 65.5Z" fill="#333333"/>
<path d="M116 98.7493V87.916" stroke="url(#paint1_linear_125_10300)" stroke-width="3" stroke-linecap="round" stroke-linejoin="round"/>
<path d="M124 98.7493V83.041" stroke="url(#paint2_linear_125_10300)" stroke-width="3" stroke-linecap="round" stroke-linejoin="round"/>
<path fill-rule="evenodd" clip-rule="evenodd" d="M19.5 87C20.3284 87 21 87.6847 21 88.5294V98.4706C21 99.3153 20.3284 100 19.5 100C18.6716 100 18 99.3153 18 98.4706V88.5294C18 87.6847 18.6716 87 19.5 87Z" fill="url(#paint3_linear_125_10300)"/>
<path fill-rule="evenodd" clip-rule="evenodd" d="M27.5 85C28.3284 85 29 85.6753 29 86.5084V98.4916C29 99.3247 28.3284 100 27.5 100C26.6716 100 26 99.3247 26 98.4916V86.5084C26 85.6753 26.6716 85 27.5 85Z" fill="url(#paint4_linear_125_10300)"/>
<path fill-rule="evenodd" clip-rule="evenodd" d="M35.5 76C34.6716 76 34 76.6834 34 77.5265V98.4735C34 99.3166 34.6716 100 35.5 100C36.3284 100 37 99.3166 37 98.4735V77.5265C37 76.6834 36.3284 76 35.5 76Z" fill="url(#paint5_linear_125_10300)"/>
<path fill-rule="evenodd" clip-rule="evenodd" d="M43.5 84C42.6716 84 42 84.6951 42 85.5526V98.4474C42 99.3049 42.6716 100 43.5 100C44.3284 100 45 99.3049 45 98.4474V85.5526C45 84.6951 44.3284 84 43.5 84Z" fill="url(#paint6_linear_125_10300)"/>
<path fill-rule="evenodd" clip-rule="evenodd" d="M51.5 92C52.3284 92 53 92.6822 53 93.5238V98.4762C53 99.3178 52.3284 100 51.5 100C50.6716 100 50 99.3178 50 98.4762V93.5238C50 92.6822 50.6716 92 51.5 92Z" fill="url(#paint7_linear_125_10300)"/>
<path fill-rule="evenodd" clip-rule="evenodd" d="M59.5 87C60.3284 87 61 87.6847 61 88.5294V98.4706C61 99.3153 60.3284 100 59.5 100C58.6716 100 58 99.3153 58 98.4706V88.5294C58 87.6847 58.6716 87 59.5 87Z" fill="url(#paint8_linear_125_10300)"/>
<path fill-rule="evenodd" clip-rule="evenodd" d="M67.5 80C66.6716 80 66 80.6786 66 81.5158V98.4842C66 99.3214 66.6716 100 67.5 100C68.3284 100 69 99.3214 69 98.4842V81.5158C69 80.6786 68.3284 80 67.5 80Z" fill="url(#paint9_linear_125_10300)"/>
<path fill-rule="evenodd" clip-rule="evenodd" d="M75.5 85C74.6716 85 74 85.6753 74 86.5084V98.4916C74 99.3247 74.6716 100 75.5 100C76.3284 100 77 99.3247 77 98.4916V86.5084C77 85.6753 76.3284 85 75.5 85Z" fill="url(#paint10_linear_125_10300)"/>
<path fill-rule="evenodd" clip-rule="evenodd" d="M83.5 89C82.6716 89 82 89.698 82 90.5591V98.4409C82 99.302 82.6716 100 83.5 100C84.3284 100 85 99.302 85 98.4409V90.5591C85 89.698 84.3284 89 83.5 89Z" fill="url(#paint11_linear_125_10300)"/>
<path d="M108 98.7499V81.9583" stroke="url(#paint12_linear_125_10300)" stroke-width="3" stroke-linecap="round" stroke-linejoin="round"/>
<path fill-rule="evenodd" clip-rule="evenodd" d="M100.273 85.1155L106.143 79.2439C106.633 78.7546 107.391 78.6747 107.97 79.0442L109.877 80.2725C110.706 80.8017 111.744 80.8417 112.653 80.4622C113.561 80.0827 114.26 79.3238 114.47 78.3652L114.959 76.1484C115.109 75.4793 115.698 75 116.387 75H124.683C125.372 75 125.971 75.4793 126.111 76.1484L126.59 78.3652C126.8 79.3238 127.499 80.0827 128.407 80.4622C129.316 80.8417 130.354 80.8017 131.183 80.2725L133.089 79.0442C133.668 78.6747 134.427 78.7546 134.916 79.2439L140.777 85.1155C141.266 85.6048 141.346 86.3638 140.967 86.9429L139.739 88.8502C139.209 89.679 139.17 90.7175 139.539 91.6263C139.918 92.535 140.677 93.234 141.635 93.4437L143.852 93.923C144.521 94.0728 145 94.6619 145 95.3509L144.99 103.649C144.99 104.338 144.511 104.937 143.832 105.077L141.616 105.556C140.657 105.766 139.898 106.475 139.519 107.374C139.14 108.282 139.179 109.321 139.709 110.15L140.937 112.057C141.306 112.636 141.226 113.395 140.737 113.884L134.867 119.756C134.377 120.245 133.619 120.325 133.04 119.956L131.133 118.728C130.304 118.198 129.266 118.158 128.357 118.538C127.449 118.917 126.75 119.676 126.54 120.635L126.051 122.852C125.901 123.521 125.312 124 124.623 124H116.327C115.638 124 115.049 123.521 114.899 122.852L114.42 120.635C114.21 119.676 113.511 118.917 112.603 118.538C111.694 118.158 110.656 118.198 109.827 118.728L107.921 119.956C107.341 120.325 106.583 120.245 106.094 119.756L100.233 113.884C99.7439 113.395 99.664 112.636 100.033 112.057L101.261 110.15C101.791 109.321 101.83 108.282 101.461 107.374C101.092 106.465 100.323 105.766 99.3645 105.556L97.1481 105.077C96.4792 104.927 96 104.338 96 103.649L96.01 95.3509C96.01 94.6619 96.4892 94.0628 97.1681 93.923L99.3845 93.4437C100.343 93.234 101.102 92.525 101.481 91.6263C101.86 90.7175 101.82 89.679 101.291 88.8502L100.063 86.9429C99.704 86.3638 99.7838 85.5949 100.273 85.1155Z" fill="url(#paint13_linear_125_10300)"/>
<path d="M139.709 114.707C140.777 113.884 141.306 112.636 140.937 112.057L139.709 110.15C139.179 109.321 139.14 108.282 139.519 107.374C139.898 106.475 140.657 105.766 141.616 105.556L143.832 105.077C144.511 104.937 144.99 104.338 144.99 103.649L145 95.3509C145 94.6619 144.521 94.0728 143.852 93.923L141.635 93.4437C140.677 93.234 139.918 92.535 139.539 91.6263C139.17 90.7175 139.209 89.679 139.739 88.8502L140.967 86.9429C141.346 86.3638 141.266 85.6048 140.777 85.1155L134.916 79.2439C134.427 78.7546 133.668 78.6747 133.089 79.0442L131.183 80.2725C130.354 80.8017 129.316 80.8417 128.407 80.4622C127.499 80.0827 126.8 79.3238 126.59 78.3652L126.111 76.1484C125.971 75.4793 125.372 75 124.683 75H116.387C115.698 75 115.109 75.4793 114.959 76.1484L114.47 78.3652C114.26 79.3238 113.561 80.0827 112.653 80.4622C111.744 80.8417 110.706 80.8017 109.877 80.2725L107.97 79.0442C107.391 78.6747 106.633 78.7546 106.143 79.2439L100.273 85.1155C99.7838 85.5949 99.704 86.3638 100.063 86.9429L101.291 88.8502C101.82 89.679 101.86 90.7175 101.481 91.6263C101.102 92.525 100.343 93.234 99.3845 93.4437L97.1681 93.923C96.4892 94.0628 96.01 94.6619 96.01 95.3509L96 103.649C96 104.338 96.4792 104.927 97.1481 105.077L99.3645 105.556C100.323 105.766 101.092 106.465 101.461 107.374C101.83 108.282 101.791 109.321 101.261 110.15L100.033 112.057C99.664 112.636 99.7439 113.395 100.233 113.884L106.094 119.756C106.583 120.245 107.341 120.325 107.921 119.956L109.827 118.728C110.656 118.198 111.694 118.158 112.603 118.538C113.511 118.917 114.21 119.676 114.42 120.635L114.899 122.852C115.049 123.521 115.638 124 116.327 124H122.131" stroke="#333333" stroke-linecap="round"/>
<path fill-rule="evenodd" clip-rule="evenodd" d="M120.394 89C124.174 89.1094 127.786 91.1782 129.754 94.7787C132.094 99.0556 131.399 104.218 128.374 107.689C131.321 113.1 134.17 118.56 137.205 123.911C138.595 126.348 138.135 128.258 136.04 129.441C134.933 130.088 132.496 130.754 130.909 127.84C127.914 122.34 124.918 116.839 121.922 111.329C117.428 112.105 112.738 109.986 110.398 105.7C108.43 102.099 108.607 97.882 110.506 94.5699C112.797 98.7868 115.397 103.867 120.83 99.9015C125.296 96.6418 122.407 92.705 120.394 89Z" fill="#BDECFF"/>
<path fill-rule="evenodd" clip-rule="evenodd" d="M130.508 94.094C129.461 92.2363 127.986 90.7619 126.262 89.7299C124.487 88.6684 122.444 88.0688 120.361 88.0098L119.055 88C119.241 88.3315 119.428 88.6627 119.615 88.9937C119.833 89.3796 120.051 89.7653 120.269 90.1508C120.933 91.3269 121.598 92.5021 122.255 93.6811C122.733 94.5559 122.813 95.5388 122.554 96.4234C122.294 97.3277 121.686 98.1337 120.799 98.6153C120.591 98.7294 120.384 98.8435 120.178 98.9574C119.601 99.2753 119.027 99.5917 118.447 99.9029C117.58 100.365 116.583 100.443 115.686 100.188C114.769 99.9323 113.951 99.3328 113.463 98.458C112.93 97.5144 112.401 96.5733 111.873 95.6322C111.533 95.026 111.193 94.4198 110.851 93.813C110.662 93.4777 110.473 93.1422 110.283 92.8064L109.635 93.9072C108.589 95.6862 108.021 97.711 108.001 99.7653C107.981 101.751 108.469 103.766 109.516 105.623C110.762 107.845 112.636 109.516 114.799 110.538C116.862 111.511 119.194 111.904 121.497 111.619C122.494 113.395 123.495 115.169 124.496 116.944C126.498 120.493 128.501 124.043 130.468 127.601C131.405 129.193 132.601 129.822 133.737 129.97C134.854 130.107 135.9 129.753 136.568 129.39L136.718 129.301C137.924 128.623 138.662 127.719 138.911 126.618C139.15 125.547 138.911 124.338 138.163 123.011L138.093 122.883C136.2 119.648 134.375 116.354 132.547 113.056C132.392 112.777 132.238 112.498 132.083 112.219C131.206 110.616 130.328 109.034 129.352 107.294C130.807 105.515 131.704 103.353 131.953 101.112C132.212 98.7627 131.764 96.3153 130.508 94.094ZM127.587 107.117L127.837 107.569C128.764 109.211 129.79 111.069 130.807 112.916L130.808 112.917C132.781 116.485 134.754 120.053 136.827 123.6L136.897 123.718C137.455 124.711 137.645 125.576 137.485 126.294C137.326 126.972 136.827 127.562 136 128.033L135.861 128.112C135.392 128.368 134.674 128.613 133.927 128.515C133.199 128.426 132.412 127.984 131.754 126.864C129.626 123.151 127.538 119.403 125.451 115.659C124.4 113.772 123.35 111.887 122.294 110.007L121.786 110.095C119.613 110.459 117.39 110.135 115.447 109.211C113.553 108.316 111.908 106.842 110.812 104.896C109.894 103.264 109.466 101.495 109.486 99.7554C109.492 98.8434 109.623 97.9446 109.867 97.0764C109.988 96.644 110.137 96.2192 110.313 95.8042C110.374 95.9133 110.496 96.1389 110.652 96.4249C110.741 96.5896 110.841 96.7743 110.947 96.9684C111.467 97.925 112.119 99.1081 112.247 99.2345C112.945 100.404 114.061 101.21 115.297 101.554C116.563 101.918 117.978 101.79 119.224 101.112C119.558 100.927 119.893 100.746 120.228 100.564C120.695 100.311 121.162 100.058 121.627 99.7947C122.823 99.1067 123.64 98.0059 123.989 96.7871C124.358 95.5388 124.228 94.1431 123.54 92.9145L121.666 89.5825C122.108 89.6535 122.547 89.7509 122.978 89.8749C123.861 90.1285 124.714 90.493 125.504 90.9683C127.009 91.8726 128.315 93.1602 129.252 94.8016C130.348 96.7576 130.747 98.9003 130.518 100.964C130.279 103.087 129.392 105.112 127.936 106.734L127.587 107.117Z" fill="#333333"/>
</g>
<defs>
<linearGradient id="paint0_linear_125_10300" x1="18.0002" y1="34.7109" x2="34.8225" y2="96.1538" gradientUnits="userSpaceOnUse">
<stop stop-color="#FFC671"/>
<stop offset="0.59375" stop-color="#FF7541"/>
<stop offset="1" stop-color="#FF6F3D"/>
</linearGradient>
<linearGradient id="paint1_linear_125_10300" x1="116" y1="85.2077" x2="116" y2="99.291" gradientUnits="userSpaceOnUse">
<stop stop-color="#FFC671"/>
<stop offset="0.59375" stop-color="#FF7541"/>
<stop offset="1" stop-color="#FF6F3D"/>
</linearGradient>
<linearGradient id="paint2_linear_125_10300" x1="124" y1="83.5827" x2="124" y2="99.291" gradientUnits="userSpaceOnUse">
<stop stop-color="#FFC671"/>
<stop offset="0.59375" stop-color="#FF7541"/>
<stop offset="1" stop-color="#FF6F3D"/>
</linearGradient>
<linearGradient id="paint3_linear_125_10300" x1="19.5" y1="81.902" x2="19.5" y2="99.0229" gradientUnits="userSpaceOnUse">
<stop stop-color="#FFC671"/>
<stop offset="0.59375" stop-color="#FF7541"/>
<stop offset="1" stop-color="#FF6F3D"/>
</linearGradient>
<linearGradient id="paint4_linear_125_10300" x1="27.5" y1="76.7039" x2="27.5" y2="99.0363" gradientUnits="userSpaceOnUse">
<stop stop-color="#FFC671"/>
<stop offset="0.59375" stop-color="#FF7541"/>
<stop offset="1" stop-color="#FF6F3D"/>
</linearGradient>
<linearGradient id="paint5_linear_125_10300" x1="35.5" y1="83.0389" x2="35.5" y2="99.0247" gradientUnits="userSpaceOnUse">
<stop stop-color="#FFC671"/>
<stop offset="0.59375" stop-color="#FF7541"/>
<stop offset="1" stop-color="#FF6F3D"/>
</linearGradient>
<linearGradient id="paint6_linear_125_10300" x1="43.5" y1="84.4313" x2="43.5" y2="99.0081" gradientUnits="userSpaceOnUse">
<stop stop-color="#FFC671"/>
<stop offset="0.59375" stop-color="#FF7541"/>
<stop offset="1" stop-color="#FF6F3D"/>
</linearGradient>
<linearGradient id="paint7_linear_125_10300" x1="51.5" y1="84.7196" x2="51.5" y2="99.0265" gradientUnits="userSpaceOnUse">
<stop stop-color="#FFC671"/>
<stop offset="0.59375" stop-color="#FF7541"/>
<stop offset="1" stop-color="#FF6F3D"/>
</linearGradient>
<linearGradient id="paint8_linear_125_10300" x1="59.5" y1="81.902" x2="59.5" y2="99.0229" gradientUnits="userSpaceOnUse">
<stop stop-color="#FFC671"/>
<stop offset="0.59375" stop-color="#FF7541"/>
<stop offset="1" stop-color="#FF6F3D"/>
</linearGradient>
<linearGradient id="paint9_linear_125_10300" x1="67.5" y1="84.8" x2="67.5" y2="99.0316" gradientUnits="userSpaceOnUse">
<stop stop-color="#FFC671"/>
<stop offset="0.59375" stop-color="#FF7541"/>
<stop offset="1" stop-color="#FF6F3D"/>
</linearGradient>
<linearGradient id="paint10_linear_125_10300" x1="75.5" y1="83.2402" x2="75.5" y2="99.0363" gradientUnits="userSpaceOnUse">
<stop stop-color="#FFC671"/>
<stop offset="0.59375" stop-color="#FF7541"/>
<stop offset="1" stop-color="#FF6F3D"/>
</linearGradient>
<linearGradient id="paint11_linear_125_10300" x1="83.5" y1="84.3661" x2="83.5" y2="99.0039" gradientUnits="userSpaceOnUse">
<stop stop-color="#FFC671"/>
<stop offset="0.59375" stop-color="#FF7541"/>
<stop offset="1" stop-color="#FF6F3D"/>
</linearGradient>
<linearGradient id="paint12_linear_125_10300" x1="108" y1="77.0833" x2="108" y2="99.2916" gradientUnits="userSpaceOnUse">
<stop stop-color="#FFC671"/>
<stop offset="0.59375" stop-color="#FF7541"/>
<stop offset="1" stop-color="#FF6F3D"/>
</linearGradient>
<linearGradient id="paint13_linear_125_10300" x1="95.1109" y1="71.5159" x2="124.355" y2="103.721" gradientUnits="userSpaceOnUse">
<stop stop-color="#FFC671"/>
<stop offset="1" stop-color="#FF6F3D"/>
</linearGradient>
<clipPath id="clip0_125_10300">
<rect width="150" height="150" fill="white"/>
</clipPath>
</defs>
</svg>
