<svg width="16" height="16" viewBox="0 0 16 16" fill="none" xmlns="http://www.w3.org/2000/svg">
<g clip-path="url(#clip0_1_7208)">
<path d="M8.79786 2.00284L8.79772 2.00261C8.62286 1.71711 8.32674 1.48868 7.94829 1.50041C7.57797 1.5119 7.29415 1.7488 7.12262 2.03135C7.1224 2.0317 7.12219 2.03205 7.12198 2.0324L0.805932 12.3602C0.805885 12.3603 0.805837 12.3604 0.80579 12.3605C0.575073 12.7368 0.478439 13.0951 0.503964 13.4233C0.529139 13.7471 0.670591 14.0008 0.84403 14.169C1.05856 14.3882 1.31387 14.4528 1.52734 14.4711C1.64903 14.4816 1.80975 14.4776 1.94222 14.4744C1.99755 14.4731 2.04795 14.4718 2.08852 14.4718C2.08876 14.4718 2.089 14.4718 2.08923 14.4718L13.9366 14.4995H13.9377C13.9639 14.4995 13.9918 14.4997 14.021 14.4999C14.2209 14.5011 14.4857 14.5026 14.709 14.4551C14.8463 14.4258 15.0099 14.3709 15.156 14.2563C15.3106 14.1349 15.4177 13.9681 15.4658 13.768C15.5621 13.3885 15.4559 12.8891 15.151 12.389L15.1506 12.3884L8.79786 2.00284Z" fill="url(#paint0_linear_1_7208)" stroke="#333333"/>
<path d="M7.36804 8.63371C7.16004 8.25771 6.96804 7.92971 6.79204 7.64971C6.62404 7.36171 6.54004 7.06171 6.54004 6.74971C6.54004 6.42971 6.64804 6.14171 6.86404 5.88571C7.08004 5.62971 7.41604 5.50171 7.87204 5.50171C8.32804 5.50171 8.66404 5.62971 8.88004 5.88571C9.09604 6.14171 9.20404 6.42571 9.20404 6.73771C9.20404 7.04971 9.12004 7.34971 8.95204 7.63771C8.78404 7.91771 8.59604 8.24971 8.38804 8.63371C8.18004 9.00971 8.04004 9.41371 7.96804 9.84571H7.77604C7.71204 9.41371 7.57604 9.00971 7.36804 8.63371ZM7.88404 12.5817C7.58004 12.5817 7.32004 12.4737 7.10404 12.2577C6.88804 12.0417 6.78004 11.7817 6.78004 11.4777C6.78004 11.1657 6.88804 10.9017 7.10404 10.6857C7.32004 10.4697 7.58004 10.3617 7.88404 10.3617C8.19604 10.3617 8.46004 10.4697 8.67604 10.6857C8.89204 10.9017 9.00004 11.1657 9.00004 11.4777C9.00004 11.7817 8.89204 12.0417 8.67604 12.2577C8.46004 12.4737 8.19604 12.5817 7.88404 12.5817Z" fill="white"/>
</g>
<defs>
<linearGradient id="paint0_linear_1_7208" x1="0.939991" y1="2.60037" x2="9.10394" y2="11.1917" gradientUnits="userSpaceOnUse">
<stop stop-color="#FFC671"/>
<stop offset="1" stop-color="#FF6F3D"/>
</linearGradient>
<clipPath id="clip0_1_7208">
<rect width="16" height="16" fill="white"/>
</clipPath>
</defs>
</svg>
