<svg width="170" height="56" viewBox="0 0 170 56" fill="none" xmlns="http://www.w3.org/2000/svg">
<path d="M66.5512 23.33H60.7651L59.3755 27.4329H56.9248L62.4053 12.2532H64.9516L70.4321 27.4329H67.9395L66.5512 23.33ZM61.3643 21.4367H65.9508L63.6898 14.7779H63.6265L61.3643 21.4367Z" fill="white"/>
<path d="M82.2681 21.8998C82.2681 25.3389 80.4274 27.5486 77.6495 27.5486C76.9459 27.5854 76.246 27.4233 75.6302 27.0809C75.0144 26.7384 74.5074 26.2295 74.1674 25.6123H74.1148V31.094H71.8431V16.3655H74.042V18.2064H74.0838C74.4395 17.5921 74.955 17.0859 75.5755 16.7413C76.1961 16.3968 76.8984 16.227 77.6078 16.2498C80.4166 16.2498 82.2681 18.4701 82.2681 21.8998ZM79.9332 21.8998C79.9332 19.6591 78.7752 18.186 77.0085 18.186C75.2728 18.186 74.1053 19.6901 74.1053 21.8998C74.1053 24.1297 75.2728 25.6231 77.0085 25.6231C78.7753 25.6231 79.9332 24.1607 79.9332 21.8998H79.9332Z" fill="white"/>
<path d="M94.4496 21.8998C94.4496 25.3389 92.6083 27.5486 89.8304 27.5486C89.1268 27.5854 88.4269 27.4233 87.8111 27.0809C87.1953 26.7384 86.6883 26.2295 86.3483 25.6123H86.2957V31.094H84.024V16.3655H86.2229V18.2064H86.2647C86.6204 17.5921 87.1359 17.0859 87.7564 16.7413C88.377 16.3968 89.0793 16.227 89.7887 16.2498C92.5975 16.2498 94.4496 18.4701 94.4496 21.8998ZM92.1141 21.8998C92.1141 19.6591 90.9561 18.186 89.1894 18.186C87.4537 18.186 86.2862 19.6901 86.2862 21.8998C86.2862 24.1297 87.4537 25.6231 89.1894 25.6231C90.9561 25.6231 92.1141 24.1607 92.1141 21.8998H92.1141Z" fill="white"/>
<path d="M102.499 23.2033C102.667 24.7086 104.13 25.6971 106.128 25.6971C108.043 25.6971 109.42 24.7086 109.42 23.3513C109.42 22.1732 108.59 21.4677 106.622 20.9841L104.655 20.5102C101.868 19.837 100.574 18.5334 100.574 16.4181C100.574 13.7989 102.856 12 106.096 12C109.305 12 111.504 13.799 111.578 16.4181H109.284C109.147 14.9032 107.895 13.9888 106.065 13.9888C104.235 13.9888 102.983 14.914 102.983 16.2606C102.983 17.3337 103.782 17.9652 105.739 18.4487L107.411 18.8593C110.526 19.5959 111.819 20.8469 111.819 23.0673C111.819 25.9072 109.558 27.6859 105.96 27.6859C102.593 27.6859 100.321 25.949 100.174 23.2034L102.499 23.2033Z" fill="white"/>
<path d="M116.724 13.7464V16.3656H118.828V18.1646H116.724V24.2658C116.724 25.2136 117.145 25.6553 118.07 25.6553C118.32 25.651 118.57 25.6335 118.818 25.6028V27.3911C118.402 27.4688 117.979 27.504 117.556 27.4961C115.315 27.4961 114.441 26.6545 114.441 24.5082V18.1645H112.832V16.3655H114.441V13.7463L116.724 13.7464Z" fill="white"/>
<path d="M120.046 21.8998C120.046 18.4176 122.097 16.2295 125.295 16.2295C128.504 16.2295 130.545 18.4176 130.545 21.8998C130.545 25.3915 128.514 27.5701 125.295 27.5701C122.077 27.5701 120.046 25.3915 120.046 21.8998ZM128.23 21.8998C128.23 19.5111 127.136 18.1013 125.295 18.1013C123.454 18.1013 122.36 19.5218 122.36 21.8998C122.36 24.298 123.454 25.6971 125.295 25.6971C127.136 25.6971 128.23 24.298 128.23 21.8998Z" fill="white"/>
<path d="M132.418 16.3656H134.585V18.2492H134.637C134.784 17.6609 135.128 17.141 135.613 16.7769C136.098 16.4128 136.693 16.2266 137.299 16.2497C137.561 16.2488 137.822 16.2772 138.077 16.3345V18.4594C137.747 18.3584 137.402 18.312 137.057 18.3221C136.727 18.3087 136.398 18.3669 136.092 18.4926C135.787 18.6184 135.512 18.8088 135.287 19.0507C135.063 19.2926 134.893 19.5803 134.789 19.8941C134.686 20.2078 134.652 20.5402 134.69 20.8684V27.4328H132.418V16.3656Z" fill="white"/>
<path d="M148.552 24.1822C148.302 25.2281 147.681 26.1479 146.805 26.7709C145.929 27.3939 144.856 27.6779 143.786 27.5701C140.567 27.5701 138.568 25.413 138.568 21.9523C138.568 18.4809 140.577 16.2295 143.691 16.2295C146.753 16.2295 148.678 18.3329 148.678 21.6885V22.4668H140.861V22.6041C140.825 23.0114 140.876 23.4217 141.011 23.8078C141.146 24.1939 141.361 24.5469 141.643 24.8434C141.924 25.1399 142.266 25.3731 142.644 25.5275C143.023 25.6819 143.43 25.7539 143.839 25.7389C144.375 25.7892 144.914 25.6649 145.375 25.3844C145.835 25.1039 146.193 24.6823 146.394 24.1823L148.552 24.1822ZM140.872 20.8791H146.405C146.426 20.5129 146.37 20.1464 146.242 19.8027C146.114 19.4589 145.917 19.1453 145.662 18.8816C145.407 18.6178 145.1 18.4096 144.761 18.27C144.422 18.1304 144.057 18.0624 143.691 18.0702C143.321 18.068 142.954 18.1391 142.612 18.2794C142.269 18.4196 141.958 18.6263 141.696 18.8875C141.434 19.1486 141.226 19.459 141.085 19.8009C140.944 20.1427 140.871 20.5092 140.872 20.8791V20.8791Z" fill="white"/>
<path d="M59.795 43.6906L59.8891 42.5205C60.3278 42.6621 60.7858 42.735 61.2468 42.7366C61.6638 42.7366 61.8249 42.6962 62.0271 42.4131C62.5187 41.3839 62.7318 40.2437 62.6449 39.1064C62.6449 37.8959 62.2691 37.5458 61.3144 37.5458C61.099 37.5458 60.857 37.5598 60.5878 37.5737C60.0741 39.6617 59.2203 41.651 58.0607 43.4618L56.9443 42.8565C58.0335 41.2915 58.8305 39.5423 59.2971 37.6936C58.5604 37.7733 57.8289 37.8948 57.1061 38.0576L56.8641 36.8735C57.6842 36.7257 58.6653 36.5918 59.5795 36.5109C59.7674 35.6182 59.9066 34.7159 59.9965 33.8081L61.3144 33.9559C61.193 34.776 61.0453 35.5974 60.857 36.4035H61.3814C63.0891 36.4035 63.9091 37.2501 63.9091 39.052C63.9832 40.4269 63.7154 41.7987 63.1295 43.0448C62.9752 43.3312 62.7398 43.5657 62.4527 43.7188C62.1656 43.8718 61.8398 43.9367 61.5159 43.9053C60.9359 43.9014 60.3582 43.8294 59.795 43.6906V43.6906ZM64.1239 36.444L65.1057 35.7844C66.467 37.0975 67.2873 38.8727 67.4048 40.7605L66.1141 40.9613C66.1046 40.113 65.9233 39.2754 65.5813 38.499C65.2393 37.7226 64.7435 37.0236 64.1239 36.444V36.444Z" fill="white"/>
<path d="M71.8627 43.8787L71.5942 42.6682C71.9303 42.6961 72.3739 42.7086 72.643 42.7086C75.3047 42.7086 76.313 41.9569 76.313 40.8398C76.313 39.9528 75.7349 39.4424 74.4442 39.4424C73.0369 39.5714 71.726 40.2126 70.7603 41.2443L69.7247 40.7868C69.5286 39.0256 69.9312 37.2496 70.8677 35.7451L72.0643 36.1342C71.3187 37.1411 70.9565 38.3807 71.0427 39.6306C72.121 38.8702 73.3952 38.4359 74.7134 38.3796C76.5153 38.3796 77.6311 39.307 77.6311 40.8132C77.6311 42.7225 76.1248 43.8926 72.5085 43.8926C72.3334 43.8927 72.0782 43.8787 71.8627 43.8787ZM70.6124 34.9516L70.9485 33.7676C72.7372 34.0412 74.5034 34.4458 76.2328 34.9781L75.91 36.1482C74.1837 35.591 72.4106 35.1906 70.6124 34.9517V34.9516Z" fill="white"/>
<path d="M81.5249 42.9513C82.9114 42.4949 84.1569 41.6889 85.1412 40.6111C84.3614 39.9648 83.5194 39.3976 82.6274 38.918L83.3665 37.9905C84.2659 38.448 85.121 38.9877 85.9208 39.6028C86.5632 38.6659 87.0113 37.6098 87.2387 36.4969H83.81C83.0222 37.7731 82.0323 38.913 80.8792 39.8719L79.8973 39.0254C81.5571 37.6563 82.8431 35.8892 83.6357 33.8889L84.9264 34.1985C84.7786 34.5751 84.6308 34.9642 84.4557 35.3282H87.7904L88.745 35.7717C88.5134 37.5966 87.7925 39.3248 86.6587 40.7734C85.5249 42.222 84.0204 43.3369 82.3045 44L81.5249 42.9513ZM87.1982 33.5667L87.9513 33.2027C88.3336 33.7146 88.654 34.2698 88.906 34.8568L88.0587 35.2473C87.8455 34.6524 87.5563 34.0875 87.1982 33.5667V33.5667ZM88.8788 33.4315L89.6451 33.0688C90.0326 33.5966 90.3618 34.1647 90.627 34.7633L89.7797 35.1259C89.5544 34.5243 89.2516 33.9547 88.8788 33.4315H88.8788Z" fill="white"/>
<path d="M94.7621 43.9457L94.0766 42.8565C95.4622 42.6354 96.7154 41.9051 97.5908 40.8085C98.4662 39.7119 98.9007 38.3281 98.8093 36.9279H93.1625V39.6307H91.8041V35.7843H95.1791V33.8081H96.5368V35.7843H99.0513L100.288 36.1344C100.127 39.9529 98.8498 42.8705 94.7621 43.9457Z" fill="white"/>
<path d="M102.904 35.879L103.657 34.7759C104.833 35.3135 105.943 35.9861 106.964 36.78L106.103 37.9361C105.124 37.124 104.049 36.4333 102.904 35.879ZM103.159 42.5078C104.804 42.2602 106.366 41.6235 107.716 40.6505C109.065 39.6776 110.163 38.3965 110.918 36.9138L111.805 37.9096C110.985 39.4406 109.826 40.7636 108.416 41.7772C107.006 42.7909 105.383 43.4682 103.671 43.7573L103.159 42.5078Z" fill="white"/>
<path d="M122.824 43.1534H114.366V35.1523H122.824L122.824 43.1534ZM115.698 36.3894V41.9164H121.479V36.3894H115.698Z" fill="white"/>
<path d="M134.932 39.5624H125.426V38.1914H134.932V39.5624Z" fill="white"/>
<path d="M138.166 33.8483H139.497V37.2903C141.266 38.0268 142.982 38.8852 144.633 39.8592L143.88 41.0418C142.481 40.1466 141.016 39.36 139.497 38.6891V43.8785H138.166V33.8483ZM141.325 34.575L142.118 34.1984C142.507 34.7685 142.828 35.3821 143.074 36.0268L142.199 36.4173C141.989 35.7679 141.695 35.1486 141.325 34.575H141.325ZM142.858 33.9962L143.665 33.6196C144.073 34.1865 144.412 34.8003 144.673 35.4479L143.799 35.8384C143.559 35.1893 143.243 34.5709 142.858 33.9962H142.858Z" fill="white"/>
<path d="M43.1322 28.6797C43.1475 27.4877 43.4642 26.319 44.0526 25.2822C44.641 24.2455 45.4821 23.3744 46.4976 22.7501C45.8525 21.8287 45.0014 21.0705 44.012 20.5356C43.0225 20.0007 41.922 19.7039 40.7978 19.6687C38.3997 19.417 36.0748 21.1037 34.8527 21.1037C33.607 21.1037 31.7255 19.6937 29.6994 19.7354C28.3888 19.7777 27.1116 20.1588 25.9922 20.8415C24.8727 21.5242 23.9492 22.4853 23.3116 23.6311C20.5496 28.413 22.6098 35.4408 25.2555 39.3061C26.5792 41.1988 28.1263 43.3131 30.1505 43.2381C32.1314 43.156 32.8712 41.975 35.2623 41.975C37.6312 41.975 38.3253 43.2381 40.3907 43.1904C42.5162 43.1559 43.8554 41.2893 45.1327 39.3786C46.0838 38.03 46.8157 36.5394 47.3012 34.9622C46.0663 34.4399 45.0125 33.5656 44.2711 32.4484C43.5297 31.3312 43.1336 30.0205 43.1322 28.6797V28.6797Z" fill="white"/>
<path d="M39.2312 17.1266C40.3901 15.7353 40.9611 13.9471 40.8228 12.1416C39.0522 12.3276 37.4167 13.1738 36.242 14.5117C35.6677 15.1653 35.2279 15.9257 34.9476 16.7494C34.6674 17.5731 34.5522 18.4439 34.6087 19.3121C35.4943 19.3213 36.3705 19.1293 37.1712 18.7507C37.9719 18.3722 38.6762 17.8168 39.2312 17.1266Z" fill="white"/>
<rect x="0.5" y="0.5" width="169" height="55" rx="2.5" stroke="white"/>
</svg>
