<svg width="170" height="56" viewBox="0 0 170 56" fill="none" xmlns="http://www.w3.org/2000/svg">
<path d="M118.182 26.6702H119.942V14.9242H118.182V26.6702ZM134.043 19.1554L132.024 24.2478H131.963L129.869 19.1554H127.971L131.113 26.273L129.322 30.2321H131.158L136 19.1554H134.043ZM124.055 25.3362C123.479 25.3362 122.675 25.049 122.675 24.3385C122.675 23.432 123.676 23.0843 124.541 23.0843C125.315 23.0843 125.679 23.2505 126.15 23.4773C126.014 24.5652 125.072 25.3362 124.055 25.3362ZM124.268 18.8984C122.993 18.8984 121.673 19.4576 121.126 20.6968L122.69 21.3468C123.023 20.6968 123.646 20.4852 124.298 20.4852C125.21 20.4852 126.135 21.0293 126.15 21.9964V22.1173C125.831 21.9359 125.148 21.6638 124.313 21.6638C122.629 21.6638 120.914 22.5859 120.914 24.3082C120.914 25.8799 122.295 26.8922 123.843 26.8922C125.027 26.8922 125.679 26.3636 126.089 25.7439H126.15V26.6508H127.85V22.1475C127.85 20.0619 126.287 18.8984 124.268 18.8984V18.8984ZM113.386 20.5856H110.882V16.5591H113.386C114.703 16.5591 115.45 17.6441 115.45 18.5721C115.45 19.4825 114.703 20.5856 113.386 20.5856V20.5856ZM113.34 14.9242H109.121V26.6702H110.882V22.2202H113.34C115.292 22.2202 117.211 20.8131 117.211 18.5721C117.211 16.3311 115.292 14.9242 113.34 14.9242V14.9242ZM90.3334 25.3382C89.1173 25.3382 88.0984 24.3242 88.0984 22.9315C88.0984 21.5235 89.1173 20.4944 90.3334 20.4944C91.5342 20.4944 92.4771 21.5235 92.4771 22.9315C92.4771 24.3242 91.5342 25.3382 90.3334 25.3382ZM92.3552 19.8133H92.2944C91.8993 19.3439 91.1389 18.9202 90.1812 18.9202C88.1743 18.9202 86.3348 20.6762 86.3348 22.9315C86.3348 25.1716 88.1743 26.9124 90.1812 26.9124C91.1389 26.9124 91.8993 26.4887 92.2944 26.0042H92.3552V26.5794C92.3552 28.1083 91.5342 28.9258 90.2117 28.9258C89.1324 28.9258 88.4632 28.1537 88.1899 27.5028L86.654 28.1385C87.0951 29.1984 88.2658 30.5 90.2117 30.5C92.2793 30.5 94.0277 29.289 94.0277 26.3372V19.162H92.3552V19.8133ZM95.244 26.6702H97.0071V14.9242H95.244V26.6702ZM99.607 22.795C99.5615 21.2515 100.808 20.4642 101.705 20.4642C102.404 20.4642 102.997 20.8123 103.195 21.3119L99.607 22.795ZM105.08 21.4631C104.746 20.57 103.727 18.9202 101.644 18.9202C99.5767 18.9202 97.8586 20.5398 97.8586 22.9163C97.8586 25.1565 99.5615 26.9124 101.842 26.9124C103.681 26.9124 104.746 25.7922 105.186 25.1413L103.818 24.2331C103.362 24.8994 102.739 25.3382 101.842 25.3382C100.945 25.3382 100.306 24.9298 99.8959 24.1273L105.263 21.9174L105.08 21.4631ZM62.3245 20.1463V21.8414H66.3986C66.2772 22.795 65.9579 23.4916 65.4712 23.9758C64.8783 24.5661 63.951 25.2173 62.3245 25.2173C59.8161 25.2173 57.8547 23.204 57.8547 20.7065C57.8547 18.2085 59.8161 16.1956 62.3245 16.1956C63.6773 16.1956 64.6659 16.725 65.3953 17.4065L66.5964 16.2106C65.578 15.242 64.2247 14.5 62.3245 14.5C58.8888 14.5 56 17.2851 56 20.7065C56 24.1273 58.8888 26.9124 62.3245 26.9124C64.1792 26.9124 65.578 26.3069 66.6723 25.1716C67.7974 24.0518 68.1471 22.4771 68.1471 21.2057C68.1471 20.8123 68.1167 20.449 68.056 20.1463H62.3245ZM72.7792 25.3382C71.5625 25.3382 70.5137 24.3393 70.5137 22.9163C70.5137 21.4782 71.5625 20.4944 72.7792 20.4944C73.9954 20.4944 75.0442 21.4782 75.0442 22.9163C75.0442 24.3393 73.9954 25.3382 72.7792 25.3382ZM72.7792 18.9202C70.5592 18.9202 68.7502 20.6002 68.7502 22.9163C68.7502 25.2173 70.5592 26.9124 72.7792 26.9124C74.9986 26.9124 76.8078 25.2173 76.8078 22.9163C76.8078 20.6002 74.9986 18.9202 72.7792 18.9202ZM81.5677 25.3382C80.3514 25.3382 79.3023 24.3393 79.3023 22.9163C79.3023 21.4782 80.3514 20.4944 81.5677 20.4944C82.784 20.4944 83.8328 21.4782 83.8328 22.9163C83.8328 24.3393 82.784 25.3382 81.5677 25.3382ZM81.5677 18.9202C79.3479 18.9202 77.5391 20.6002 77.5391 22.9163C77.5391 25.2173 79.3479 26.9124 81.5677 26.9124C83.7872 26.9124 85.5964 25.2173 85.5964 22.9163C85.5964 20.6002 83.7872 18.9202 81.5677 18.9202Z" fill="white"/>
<path d="M64.5003 36.9554L63.9934 37.1894C63.7593 36.7205 63.4762 36.2431 63.1643 35.8339L63.6518 35.6097C63.8858 35.9312 64.2667 36.5259 64.5003 36.9554ZM63.3887 37.3743L62.8914 37.6083C62.667 37.1406 62.384 36.6338 62.0916 36.2338L62.5888 36.0193C62.8131 36.3409 63.1838 36.9461 63.3887 37.3743V37.3743ZM57.1176 34.6139C57.751 34.5559 59.5749 34.3803 61.3501 34.2238C62.4035 34.137 63.3108 34.0875 63.9544 34.0587V34.8386C63.3983 34.8386 62.5596 34.8479 62.0623 34.9952C60.687 35.4341 59.8581 36.9066 59.8581 38.0472C59.8581 39.9295 61.6134 40.5249 63.1838 40.5833L62.9007 41.4016C61.1161 41.3247 59.0781 40.3682 59.0781 38.2135C59.0781 36.7112 59.9846 35.4827 60.8724 34.9558C60.0239 35.0532 57.3905 35.3071 56.347 35.5216L56.2589 34.6625C56.6301 34.6533 56.9318 34.6342 57.1176 34.6139Z" fill="white"/>
<path d="M64.5002 36.9552L64.4549 36.8565L63.9476 37.0906L63.9933 37.1892L64.0897 37.1405C63.8537 36.6669 63.568 36.1845 63.2502 35.7681L63.1643 35.8338L63.2095 35.9323L63.697 35.7081L63.6518 35.6095L63.5642 35.6733C63.794 35.9891 64.1748 36.5836 64.405 37.0068L64.5002 36.9552L64.4549 36.8565L64.5002 36.9552L64.5954 36.9031C64.3581 36.4677 63.9772 35.8731 63.7394 35.546L63.6873 35.4741L63.119 35.7352L62.9959 35.7918L63.0779 35.8993C63.3847 36.3018 63.6649 36.7737 63.8959 37.2374L63.943 37.3314L64.5455 37.0538L64.6509 37.0051L64.5954 36.9031L64.5002 36.9552ZM63.3886 37.3741L63.3425 37.2759L62.8452 37.51L62.8914 37.6081L62.9886 37.5611C62.7622 37.0889 62.4774 36.5777 62.1787 36.1698L62.0915 36.2336L62.1342 36.3331L62.6315 36.1186L62.5888 36.0191L62.4998 36.0809C62.72 36.3965 63.0907 37.0017 63.2908 37.4206L63.3886 37.3741L63.3425 37.2759L63.3886 37.3741L63.4863 37.3276C63.2768 36.8896 62.9058 36.2844 62.6776 35.9569L62.6268 35.8846L62.0483 36.1342L61.9239 36.1879L62.0039 36.2975C62.2909 36.6894 62.5715 37.1917 62.7935 37.6547L62.8401 37.7516L63.4347 37.4723L63.5332 37.4257L63.4863 37.3276L63.3886 37.3741ZM57.1175 34.6137L57.1273 34.7216C57.7616 34.6636 59.585 34.488 61.3599 34.3315H61.359C62.4106 34.2452 63.3166 34.1952 63.959 34.1668L63.9543 34.0585H63.846V34.8384H63.9543V34.7301C63.3953 34.7305 62.5562 34.7373 62.0314 34.8909L62.0305 34.8914L62.0294 34.8918C60.5986 35.3534 59.7531 36.8587 59.7497 38.047C59.7471 39.0228 60.2148 39.6872 60.8753 40.0914C61.535 40.4972 62.3826 40.661 63.18 40.691L63.1838 40.5831L63.0814 40.5476L62.7982 41.3663L62.9007 41.4014L62.9053 41.2935C62.0301 41.2559 61.0924 41.0007 60.3827 40.498C59.6727 39.994 59.1877 39.2551 59.1864 38.2133C59.1839 36.7563 60.0721 35.5549 60.9274 35.0488L61.3628 34.7902L60.8597 34.8481C60.0121 34.9455 57.3815 35.1986 56.3248 35.4157L56.3469 35.5214L56.4544 35.5105L56.3668 34.6518L56.2589 34.6623L56.2618 34.7707C56.6351 34.7615 56.9384 34.7424 57.1289 34.7216L57.1175 34.6137L57.1273 34.7216L57.1175 34.6137L57.1056 34.5062C56.9249 34.5257 56.6245 34.5448 56.2564 34.5544L56.1392 34.5575L56.2389 35.5329L56.2513 35.6518L56.3685 35.6277C57.3993 35.4153 60.0353 35.1605 60.8846 35.0632L60.8724 34.9556L60.8169 34.8625C59.8969 35.4102 58.9719 36.6653 58.9697 38.2133C58.9681 39.3262 59.5022 40.1429 60.2575 40.6748C61.0129 41.2085 61.9866 41.47 62.896 41.5098L62.9768 41.5137L63.2861 40.6182L63.334 40.4803L63.188 40.4748C62.4144 40.4464 61.5989 40.2834 60.9887 39.9069C60.3793 39.5277 59.9689 38.953 59.9664 38.047C59.9633 36.9544 60.7754 35.5143 62.0953 35.0978L62.0623 34.995L62.0933 35.0987C62.5629 34.9582 63.4017 34.946 63.9543 34.9467H64.0627V34.0585V33.9451L63.9497 33.9502C63.3048 33.979 62.3962 34.0289 61.3412 34.1157H61.3408C59.5652 34.2722 57.7409 34.4478 57.1078 34.5058L57.1065 34.5062H57.1056L57.1175 34.6137" fill="white"/>
<path d="M74.1846 38.6523H70.1865V40.8168C70.1865 41.3339 70.0303 41.5489 69.6693 41.6653C69.3079 41.7825 68.6837 41.802 67.6605 41.7922C67.6017 41.5878 67.4649 41.2654 67.3482 41.0707C68.1671 41.1003 68.9279 41.0898 69.1522 41.0805C69.3667 41.0805 69.4548 41.0128 69.4548 40.8071V38.6523H65.446V37.94H69.4548V36.3595H66.0998V35.6681H69.4548V34.1658C68.382 34.283 67.2797 34.3507 66.275 34.3994C66.2459 34.2047 66.1582 33.922 66.0897 33.7561C68.3913 33.6495 71.2199 33.3951 72.6828 32.9373L73.229 33.5128C72.4001 33.7654 71.3367 33.9508 70.1865 34.0875V35.6681H73.6388V36.3595H70.1865V37.94H74.1846V38.6523" fill="white"/>
<path d="M74.1847 38.6523V38.5439H70.0782V40.8168C70.0782 41.0652 70.0396 41.2268 69.9715 41.3335C69.9038 41.4392 69.8035 41.5074 69.6363 41.562L69.636 41.5624C69.3524 41.6555 68.8526 41.6868 68.0727 41.6859C67.9436 41.6859 67.8066 41.6852 67.6614 41.6839L67.6605 41.7922L67.7646 41.7622C67.7016 41.5455 67.5653 41.2226 67.4414 41.0148L67.3482 41.0707L67.3444 41.179C67.7498 41.1939 68.1409 41.1984 68.4604 41.1984C68.7883 41.1984 69.0402 41.1934 69.1569 41.1883L69.1523 41.0804V41.1888C69.2691 41.1879 69.3723 41.1726 69.4553 41.1024C69.5377 41.0296 69.5636 40.9226 69.5632 40.807V38.5439H65.5544V38.0483H69.5632V36.2512H66.2082V35.7763H69.5632V34.0446L69.443 34.0577C68.3736 34.175 67.2734 34.2423 66.27 34.291L66.2751 34.3993L66.3821 34.3832C66.3504 34.1733 66.262 33.8906 66.19 33.715L66.0897 33.756L66.0948 33.8644C68.402 33.7565 71.2288 33.5051 72.7154 33.0405L72.6829 32.9372L72.6046 33.0117L73.1504 33.5872L73.2291 33.5127L73.1975 33.409C72.379 33.6587 71.3202 33.8437 70.1733 33.9795L70.0782 33.9909V35.7763H73.5305V36.2512H70.0782V38.0483H74.0764V38.6523H74.1847V38.5439V38.6523H74.293V37.94V37.8316H70.2949V36.4678H73.7471V35.668V35.5597H70.2949V34.0874H70.1866L70.1992 34.1949C71.3532 34.0577 72.4213 33.8724 73.2605 33.6164L73.428 33.5653L72.7615 32.8627L72.7149 32.8136L72.6507 32.834C71.2111 33.2859 68.3812 33.542 66.085 33.6477L65.9314 33.655L65.9898 33.7971C66.0546 33.9536 66.1418 34.2355 66.168 34.4153L66.1824 34.5123L66.2802 34.5076C67.286 34.459 68.3902 34.3909 69.4662 34.2732L69.4549 34.1657H69.3465V35.5597H65.9916V36.3595V36.4678H69.3465V37.8316H65.3378V38.6523V38.7606H69.3465V40.807L69.3126 40.9391C69.2978 40.9539 69.25 40.9725 69.1523 40.9721H69.1497H69.1476C69.0367 40.9768 68.7858 40.9818 68.4604 40.9818C68.1429 40.9818 67.7545 40.9772 67.352 40.9624L67.1528 40.9551L67.2556 41.1265C67.3652 41.3081 67.5018 41.6306 67.5564 41.8222L67.5784 41.8997L67.6592 41.9005C67.8048 41.9018 67.9429 41.9026 68.0727 41.9026C68.8595 41.9018 69.3664 41.8764 69.7028 41.768V41.7685C69.8962 41.7067 70.0545 41.609 70.1548 41.4494C70.255 41.2899 70.2945 41.0855 70.2949 40.8168V38.7606H74.293V38.6523H74.1847" fill="white"/>
<path d="M78.9827 34.5073C80.0363 34.6829 81.9863 34.644 82.9525 34.5073V35.3072C81.9183 35.4138 80.0457 35.4138 78.9929 35.3072L78.9827 34.5073ZM79.3635 38.4471C79.2755 38.7983 79.2366 39.0713 79.2366 39.3345C79.2366 39.7737 79.529 40.2033 80.8552 40.2033C81.7232 40.2033 82.4645 40.125 83.245 39.9494L83.2546 40.7682C82.6592 40.8859 81.8502 40.9638 80.8455 40.9638C79.2264 40.9638 78.5049 40.4275 78.5049 39.5198C78.5049 39.1686 78.5731 38.7886 78.661 38.3794L79.3635 38.4471ZM77.1592 33.7655C77.1004 33.9318 77.0128 34.2436 76.9734 34.4193C76.7885 35.3072 76.5054 37.0324 76.5054 38.1157C76.5054 38.5838 76.5248 38.9739 76.5837 39.4428C76.7492 39.0036 76.9641 38.4373 77.1199 38.0569L77.5397 38.3688C77.2959 39.0522 76.9442 40.0763 76.8567 40.5347C76.8274 40.6709 76.808 40.8558 76.808 40.9638L76.8372 41.3044L76.1352 41.353C75.94 40.6709 75.7839 39.5592 75.7839 38.2524C75.7839 36.8285 76.0957 35.1709 76.2129 34.3804C76.2426 34.1561 76.2811 33.9022 76.2811 33.6978L77.1592 33.7655" fill="white"/>
<path d="M78.9826 34.5073L78.9649 34.6139C79.4697 34.6982 80.1641 34.7328 80.8628 34.7333C81.6533 34.7333 82.4464 34.688 82.9677 34.6143L82.9524 34.5073H82.8441V35.3071H82.9524L82.9415 35.1992C82.4307 35.2521 81.7058 35.2792 80.9795 35.2787C80.2534 35.2792 79.5239 35.2521 79.0033 35.1992L78.9928 35.3071L79.1012 35.3058L79.091 34.506L78.9826 34.5073L78.9649 34.6139L78.9826 34.5073L78.8743 34.5086L78.8845 35.3083L78.8852 35.4048L78.9818 35.415C79.5141 35.4688 80.248 35.4954 80.9795 35.4954C81.7117 35.4954 82.4404 35.4688 82.9635 35.415L83.0607 35.4048V34.5073V34.3825L82.9372 34.4003C82.4328 34.4713 81.6448 34.5166 80.8628 34.5166C80.1721 34.5166 79.4837 34.4811 79.0004 34.4003L78.8726 34.379L78.8743 34.5086L78.9826 34.5073ZM79.3634 38.4471L79.2581 38.4208C79.1693 38.7772 79.1282 39.0602 79.1282 39.3344C79.1252 39.577 79.2171 39.8423 79.4875 40.0234C79.7561 40.2046 80.181 40.3107 80.8552 40.3116C81.7294 40.3116 82.481 40.2325 83.2685 40.0552L83.2449 39.9493L83.1366 39.9506L83.1462 40.7695L83.2545 40.7682L83.2334 40.6619C82.6478 40.7775 81.8446 40.8557 80.8454 40.8554C80.0478 40.8562 79.4815 40.7216 79.1269 40.4914C78.7735 40.2599 78.6157 39.9451 78.6132 39.5198C78.6132 39.1825 78.6792 38.8093 78.7668 38.4022L78.661 38.3794L78.6504 38.4873L79.3529 38.555L79.3634 38.4471L79.2581 38.4208L79.3634 38.4471L79.3736 38.3392L78.6712 38.2715L78.5751 38.2621L78.5548 38.3565C78.4667 38.7683 78.3965 39.1546 78.3965 39.5198C78.3939 40.0019 78.5966 40.4097 79.0093 40.6734C79.4202 40.9379 80.0245 41.0717 80.8454 41.0721C81.8555 41.0721 82.6711 40.9938 83.2753 40.8744L83.3637 40.857L83.3532 39.9481L83.3519 39.8143L83.2212 39.8436C82.4484 40.0175 81.7168 40.0949 80.8552 40.0949C80.203 40.0958 79.8184 39.9875 79.6093 39.844C79.402 39.7005 79.3474 39.5317 79.3449 39.3344C79.3449 39.0822 79.3821 38.8195 79.4684 38.4733L79.4988 38.3514L79.3736 38.3392L79.3634 38.4471ZM77.1592 33.7654L77.0571 33.7295C76.9958 33.903 76.9086 34.214 76.8675 34.396V34.3964V34.3972C76.6814 35.291 76.3975 37.0159 76.397 38.1157C76.397 38.5863 76.4169 38.9828 76.4761 39.456L76.5303 39.8905L76.6852 39.4809C76.8502 39.042 77.0652 38.4763 77.22 38.0979L77.1198 38.0568L77.0555 38.1436L77.4748 38.4555L77.5396 38.3687L77.4376 38.3323C77.193 39.0187 76.8417 40.0386 76.7503 40.5138L76.8566 40.5346L76.7507 40.5118C76.7199 40.6581 76.7 40.8439 76.6996 40.9638V40.9683L76.7194 41.204L76.1274 41.2451L76.1351 41.353L76.2392 41.3234C76.0479 40.6557 75.8918 39.5499 75.8922 38.2524C75.8918 36.8428 76.2024 35.1899 76.32 34.396V34.3956L76.3204 34.3947C76.3496 34.1712 76.3889 33.9153 76.3893 33.6977H76.281L76.2726 33.8061L77.1507 33.8738L77.1592 33.7654L77.0571 33.7295L77.1592 33.7654L77.1676 33.6575L76.2895 33.5898L76.1727 33.5809V33.6977C76.1731 33.889 76.1355 34.1408 76.1054 34.3659L76.2129 34.3803L76.1054 34.3646C75.9895 35.1513 75.6755 36.814 75.6755 38.2524C75.6759 39.5681 75.8321 40.6861 76.031 41.3831L76.055 41.4673L76.8443 41.4127L76.9543 41.4051L76.9159 40.9548L76.8079 40.9638H76.9163C76.9158 40.8677 76.9352 40.6836 76.9623 40.5571L76.9628 40.5558V40.5549C77.047 40.114 77.3983 39.0857 77.6416 38.4051L77.6687 38.3298L77.1845 37.9697L77.0728 37.8863L77.02 38.0155C76.8629 38.3988 76.6479 38.965 76.4825 39.4043L76.5836 39.4428L76.6912 39.4292C76.6331 38.965 76.6137 38.5807 76.6137 38.1157C76.6133 37.0493 76.895 35.3227 77.0795 34.4416L76.9734 34.4192L77.0792 34.4429C77.1168 34.2737 77.2049 33.9605 77.2611 33.8018L77.3086 33.6686L77.1676 33.6575L77.1592 33.7654" fill="white"/>
<path d="M89.4728 33.5128C89.4728 35.2385 89.6966 38.9155 93.5191 41.1884C93.3541 41.3043 93.0613 41.6166 92.9339 41.7923C90.535 40.3399 89.5011 38.2037 89.0623 36.3596C88.3408 38.8863 87.1123 40.6615 85.1712 41.802C85.0345 41.6555 84.7124 41.353 84.5178 41.2273C86.673 40.1051 87.8727 38.1445 88.4678 35.4137L88.8968 35.4827C88.8283 35.0341 88.7889 34.6046 88.7703 34.2343H86.3704V33.5128H89.4728Z" fill="white"/>
<path d="M89.4728 33.5127H89.3645C89.3623 35.2452 89.5929 38.9806 93.4638 41.2809L93.5191 41.1883L93.4565 41.0994C93.2716 41.2319 92.9843 41.54 92.8464 41.7287L92.9339 41.7922L92.9903 41.6994C90.6209 40.2645 89.6031 38.1605 89.1676 36.3344L89.0716 35.9316L88.9578 36.3298C88.2401 38.8388 87.0306 40.5823 85.1162 41.7084L85.1712 41.8019L85.2498 41.7278C85.1064 41.5746 84.7882 41.2742 84.5767 41.1362L84.5178 41.2272L84.5678 41.3233C86.7572 40.1845 87.9768 38.185 88.5735 35.4369L88.4678 35.4136L88.4503 35.5206L88.8799 35.5897L89.0268 35.6129L89.0044 35.466C88.9362 35.0218 88.8972 34.5956 88.8783 34.2288L88.8732 34.1259H86.4788V33.621H89.4728V33.5127H89.3645H89.4728V33.4044H86.2621V34.2342V34.3425H88.7704V34.2342L88.662 34.2397C88.681 34.6134 88.7204 35.0463 88.7897 35.4991L88.8968 35.4826L88.9142 35.3755L88.4847 35.307L88.3835 35.2904L88.3615 35.3908C87.769 38.1037 86.5893 40.0249 84.4679 41.1311L84.3024 41.217L84.459 41.3182C84.6367 41.4321 84.9625 41.7363 85.0916 41.8755L85.1508 41.939L85.2258 41.895C87.194 40.7401 88.441 38.9331 89.1664 36.3895L89.0623 36.3595L88.9565 36.3848C89.3991 38.2467 90.4487 40.4147 92.878 41.8848L92.9636 41.9365L93.022 41.8557C93.1379 41.6932 93.4363 41.377 93.5819 41.2767L93.718 41.1803L93.5746 41.0947C89.8007 38.8507 89.5829 35.2312 89.5811 33.5127V33.4044H89.4728V33.5127" fill="white"/>
<path d="M103.017 40.3005C102.511 40.8168 101.906 41.1097 101.242 41.1097C100.609 41.1097 100.169 40.6801 100.169 39.8804C100.169 38.8076 100.53 37.2185 100.53 36.2825C100.53 35.726 100.248 35.4925 99.7603 35.4925C98.9795 35.4925 97.809 36.3989 96.9216 37.3553C96.9025 37.7644 96.8932 38.1445 96.8932 38.4859C96.8932 39.3645 96.8932 39.9493 96.9313 40.8168C96.9414 40.9827 96.9609 41.2273 96.9809 41.4016H96.1324C96.1416 41.2654 96.1607 40.9827 96.1607 40.8274C96.1704 39.9007 96.1704 39.4225 96.1908 38.3498C96.1908 38.2524 96.2001 38.1254 96.2001 37.9795C95.7311 38.6917 95.0977 39.6171 94.63 40.2612L94.1421 39.5883C94.6788 38.9155 95.7904 37.4132 96.2783 36.6528C96.2974 36.3409 96.3176 36.0286 96.3363 35.726C95.8975 35.7747 95.0583 35.8919 94.4544 35.9706L94.3762 35.1598C94.5911 35.1708 94.7761 35.1708 95.0096 35.1505C95.3219 35.1315 95.8882 35.0731 96.3853 34.9952C96.415 34.536 96.4341 34.195 96.4341 34.0875C96.4341 33.8632 96.4442 33.6102 96.3947 33.366L97.3215 33.3951C97.2728 33.6291 97.1945 34.175 97.1268 34.8479L97.1754 34.8289L97.4582 35.1708C97.3418 35.346 97.1754 35.6097 97.0295 35.8437C97.0091 36.0193 96.9998 36.2042 96.9809 36.3896C97.7306 35.6972 98.9698 34.7709 99.9359 34.7709C100.842 34.7709 101.301 35.2774 101.301 36.0675C101.301 37.0323 100.94 38.701 100.94 39.6764C100.94 40.0073 101.096 40.2612 101.438 40.2612C101.924 40.2612 102.442 39.9493 102.89 39.4614L103.017 40.3005" fill="white"/>
<path d="M103.017 40.3006L102.94 40.2249C102.448 40.725 101.873 41.001 101.242 41.0014C100.663 40.9929 100.288 40.6409 100.278 39.8805C100.276 38.8271 100.637 37.2406 100.638 36.2826C100.639 35.9876 100.563 35.7557 100.403 35.6013C100.244 35.4468 100.02 35.3838 99.7603 35.3842C98.9038 35.3947 97.7446 36.3181 96.842 37.2817L96.8153 37.3109L96.8133 37.3502C96.7942 37.7611 96.7849 38.1425 96.7849 38.486C96.7849 39.3641 96.7849 39.952 96.823 40.8216V40.8229V40.8237C96.8335 40.9912 96.8526 41.2363 96.8733 41.4145L96.9809 41.4017V41.2933H96.1324V41.4017L96.2403 41.4094C96.2499 41.2718 96.269 40.9904 96.269 40.8275H96.1607L96.269 40.8287C96.2787 39.9012 96.2787 39.4238 96.2987 38.3519L96.2991 38.3506V38.3498C96.2987 38.2593 96.3084 38.1301 96.3084 37.9795V37.6177L96.1095 37.9198C95.6419 38.6303 95.0084 39.5558 94.5425 40.1978L94.63 40.2613L94.7177 40.1978L94.2302 39.5249L94.1421 39.5884L94.2272 39.6561C94.7663 38.979 95.8772 37.4789 96.3697 36.7113L96.3846 36.6875L96.3862 36.6592C96.4053 36.3477 96.4256 36.0354 96.4446 35.7328L96.4527 35.6042L96.3245 35.6186C95.8822 35.6677 95.044 35.7849 94.4404 35.8631L94.4544 35.9707L94.5623 35.9601L94.4841 35.1498L94.3762 35.1598L94.3707 35.2682L94.6373 35.2754C94.7583 35.2754 94.881 35.2703 95.0189 35.2584L95.0096 35.1505L95.0164 35.2588C95.3334 35.2395 95.9004 35.1811 96.4019 35.1019L96.4878 35.0883L96.4934 35.002C96.5229 34.5411 96.542 34.2035 96.5424 34.0875L96.5433 33.8798C96.5433 33.7104 96.5382 33.5277 96.5009 33.3441L96.3947 33.366L96.3913 33.4739L97.3181 33.5035L97.3214 33.3952L97.2153 33.3732C97.1653 33.6152 97.087 34.1612 97.0189 34.837L97.0011 35.0135L97.1421 34.9584L97.3743 35.2399L97.4582 35.1709L97.3676 35.1108C97.25 35.2885 97.0837 35.5517 96.9376 35.7862L96.9245 35.8069L96.922 35.8311C96.9012 36.0113 96.8919 36.1967 96.8728 36.3781L96.8437 36.663L97.0544 36.4691C97.7925 35.7823 99.035 34.8717 99.9359 34.8792C100.799 34.8912 101.18 35.3223 101.192 36.0676C101.193 37.0121 100.833 38.6807 100.831 39.6765C100.831 39.8584 100.874 40.029 100.975 40.1597C101.076 40.2913 101.241 40.3713 101.438 40.3696C101.973 40.368 102.509 40.0348 102.97 39.5351L102.89 39.4614L102.783 39.478L102.91 40.3167L103.017 40.3006L102.94 40.2249L103.017 40.3006L103.125 40.2845L102.998 39.4454L102.964 39.2219L102.811 39.3883C102.375 39.8639 101.877 40.1551 101.438 40.1529C101.163 40.147 101.059 39.9795 101.048 39.6765C101.047 38.7213 101.408 37.0532 101.409 36.0676C101.409 35.6524 101.287 35.2957 101.034 35.0461C100.781 34.7955 100.408 34.6618 99.9359 34.6626C98.9045 34.6698 97.6693 35.6131 96.9076 36.3097L96.9809 36.3896L97.0888 36.4006C97.1077 36.2119 97.1175 36.0269 97.137 35.856L97.0295 35.8437L97.1213 35.9008C97.2669 35.6677 97.4331 35.404 97.5483 35.2306L97.5927 35.1636L97.2588 34.76L97.2089 34.6994L97.0875 34.7473L97.1268 34.8479L97.2347 34.859C97.302 34.1891 97.3807 33.6432 97.4277 33.4176L97.4539 33.2911L96.3981 33.2577L96.2614 33.2531L96.2885 33.3876C96.3211 33.5467 96.3266 33.7151 96.3266 33.8798L96.3258 34.0875C96.3258 34.187 96.3067 34.5306 96.277 34.988L96.3853 34.9953L96.3684 34.8881C95.8754 34.9656 95.3106 35.0235 95.0033 35.0422L95.002 35.0426H95.0007C94.8679 35.0541 94.7523 35.0588 94.6373 35.0588L94.3816 35.0519L94.2564 35.0456L94.3465 35.9808L94.3576 36.0921L94.4684 36.0777C95.0731 35.9994 95.9127 35.8822 96.3486 35.8336L96.3363 35.7261L96.2284 35.7193C96.2093 36.0218 96.1895 36.3337 96.17 36.6461L96.2783 36.6529L96.1869 36.5944C95.704 37.3482 94.5911 38.8525 94.0575 39.5211L94.0063 39.5855L94.5425 40.3252L94.63 40.4457L94.7177 40.3252C95.187 39.6785 95.8209 38.7526 96.2906 38.0391L96.2001 37.9795H96.0918C96.0918 38.1208 96.0824 38.2457 96.0824 38.3498H96.1908L96.0824 38.3477C96.0621 39.4212 96.0621 39.9003 96.0523 40.8262V40.8266V40.8275C96.0528 40.9756 96.0337 41.2591 96.0244 41.3945L96.0159 41.51H96.9809H97.1023L97.0883 41.3894C97.0688 41.2185 97.0498 40.9743 97.0392 40.8102L96.9313 40.8169L97.0392 40.8122C97.0015 39.9469 97.0015 39.3646 97.0015 38.486C97.0015 38.1467 97.0109 37.7683 97.0299 37.3604L96.9216 37.3553L97.0011 37.429C97.8742 36.4798 99.0548 35.5898 99.7603 35.6009C99.9879 35.6009 100.148 35.655 100.252 35.7565C100.357 35.8577 100.421 36.0211 100.422 36.2826C100.423 37.197 100.062 38.7886 100.061 39.8805C100.061 40.2998 100.177 40.6362 100.388 40.8681C100.599 41.1004 100.902 41.2189 101.242 41.2181C101.938 41.2185 102.573 40.9088 103.095 40.3764L103.133 40.3378L103.125 40.2845L103.017 40.3006" fill="white"/>
<path d="M107.795 39.1495C107.483 39.081 107.171 39.0522 106.849 39.0522C105.854 39.0522 105.289 39.3929 105.289 39.9198C105.289 40.4559 105.825 40.7492 106.752 40.7492C107.463 40.7492 107.805 40.417 107.805 39.7547C107.805 39.5981 107.795 39.3929 107.795 39.1495ZM108.459 36.1746C108.459 36.8081 108.507 37.7446 108.555 38.5838C109.795 38.9253 110.858 39.5981 111.56 40.2321L111.092 40.9536C110.477 40.3289 109.589 39.7153 108.586 39.3646C108.595 39.6172 108.604 39.8317 108.604 40.0073C108.604 40.7978 108.117 41.48 106.829 41.48C105.504 41.48 104.518 41.0517 104.518 39.9493C104.518 39.081 105.279 38.3594 106.947 38.3594C107.22 38.3594 107.493 38.3794 107.765 38.4183C107.727 37.6375 107.688 36.7501 107.688 36.1746C107.688 35.6194 107.688 34.8196 107.678 34.4099C107.668 34.0587 107.638 33.6385 107.6 33.4536H108.537C108.498 33.6589 108.468 34.1167 108.459 34.4099C108.449 34.6732 108.459 35.0143 108.459 35.3947C109.228 35.3749 110.447 35.3261 111.316 35.2098L111.345 35.9503C110.486 36.0286 109.249 36.087 108.459 36.1069V36.1746" fill="white"/>
<path d="M107.795 39.1493L107.818 39.0436C107.498 38.973 107.177 38.9437 106.849 38.9437C106.339 38.9442 105.933 39.0296 105.642 39.1942C105.352 39.3559 105.178 39.6148 105.181 39.9196C105.178 40.2259 105.344 40.4786 105.62 40.63C105.895 40.7836 106.277 40.8569 106.752 40.8573C107.123 40.8573 107.417 40.7705 107.619 40.5785C107.822 40.3863 107.914 40.1028 107.913 39.7545C107.913 39.5937 107.903 39.3902 107.903 39.1493V39.0622L107.818 39.0436L107.795 39.1493H107.687C107.687 39.3952 107.696 39.6022 107.696 39.7545C107.696 40.0685 107.616 40.2822 107.47 40.4215C107.324 40.5616 107.092 40.6402 106.752 40.6407C106.3 40.6411 105.95 40.5674 105.726 40.4409C105.502 40.3119 105.4 40.1498 105.397 39.9196C105.399 39.6974 105.508 39.5226 105.749 39.3826C105.99 39.2446 106.364 39.16 106.849 39.1604C107.164 39.1604 107.468 39.1883 107.772 39.2552L107.795 39.1493H107.687H107.795ZM108.459 36.1744H108.35C108.35 36.813 108.399 37.7499 108.448 38.5895L108.452 38.6669L108.527 38.6877C109.746 39.0237 110.797 39.6889 111.487 40.3123L111.56 40.2319L111.469 40.1726L111.001 40.8942L111.092 40.9534L111.168 40.8773C110.542 40.2416 109.643 39.6199 108.621 39.2619L108.471 39.2095L108.477 39.3682C108.487 39.6217 108.496 39.8357 108.496 40.0071C108.484 40.749 108.077 41.3592 106.829 41.3715C106.178 41.3723 105.617 41.2649 105.231 41.0351C104.847 40.8027 104.629 40.4671 104.626 39.9492C104.628 39.157 105.304 38.4761 106.947 38.4676C107.214 38.4676 107.482 38.4871 107.75 38.5257L107.88 38.5442L107.874 38.4131C107.834 37.6331 107.796 36.7457 107.796 36.1744C107.796 35.6189 107.797 34.8195 107.786 34.4068C107.776 34.0505 107.747 33.6332 107.707 33.4314L107.6 33.4534V33.5617H108.536V33.4534L108.43 33.4331C108.389 33.6536 108.36 34.1085 108.35 34.4064V34.406C108.347 34.4957 108.346 34.5935 108.346 34.6976C108.346 34.9061 108.35 35.1419 108.35 35.3945V35.5059L108.461 35.5028C109.233 35.483 110.453 35.4343 111.33 35.317L111.316 35.2096L111.207 35.2138L111.237 35.9544L111.345 35.9501L111.335 35.8422C110.481 35.9201 109.244 35.9785 108.456 35.9983L108.35 36.0014V36.1744H108.459H108.567V36.1067H108.459L108.461 36.215C109.254 36.1948 110.492 36.1368 111.356 36.058L111.458 36.0487L111.424 35.2054L111.42 35.0865L111.302 35.1021C110.442 35.2176 109.224 35.2663 108.456 35.2866L108.459 35.3945H108.567C108.567 35.1398 108.563 34.9032 108.563 34.6976C108.563 34.5947 108.564 34.4996 108.566 34.4137L108.567 34.4123L108.566 34.4132C108.576 34.125 108.606 33.6638 108.643 33.4737L108.668 33.3451H107.6H107.467L107.494 33.4754C107.53 33.6438 107.56 34.0665 107.57 34.4128C107.58 34.819 107.58 35.6192 107.58 36.1744C107.58 36.7542 107.618 37.642 107.657 38.4236L107.765 38.4181L107.781 38.3111C107.503 38.2713 107.225 38.2506 106.947 38.2509C106.098 38.2509 105.468 38.4338 105.043 38.7406C104.618 39.0465 104.408 39.4829 104.409 39.9492C104.406 40.5336 104.681 40.9632 105.121 41.2212C105.56 41.4811 106.155 41.5877 106.829 41.5881C107.491 41.5886 107.966 41.4121 108.275 41.1184C108.583 40.8251 108.713 40.424 108.713 40.0071C108.713 39.8277 108.703 39.6128 108.693 39.3601L108.586 39.3644L108.55 39.4663C109.535 39.8108 110.411 40.4164 111.015 41.0291L111.109 41.1252L111.651 40.2907L111.7 40.2133L111.632 40.1514C110.918 39.5069 109.844 38.8265 108.585 38.4791L108.555 38.5836L108.664 38.5772C108.615 37.7389 108.566 36.8028 108.567 36.1744H108.459" fill="white"/>
<path d="M119.068 33.9118L118.952 34.6625C117.879 34.5948 115.929 34.3993 114.836 34.2046L114.962 33.4628C116.026 33.7074 118.122 33.9021 119.068 33.9118V33.9118ZM117.362 36.4284C116.25 36.4284 115.305 36.7598 114.728 36.9257C114.436 37.004 114.153 37.1203 113.919 37.2083L113.675 36.3108C113.939 36.2825 114.271 36.2232 114.553 36.1653C115.235 36.0095 116.338 35.6972 117.44 35.6972C118.815 35.6972 119.838 36.4678 119.838 37.8431C119.838 39.9395 117.977 41.1291 115.469 41.5002L115.011 40.7588C117.352 40.4656 119.011 39.5494 119.011 37.813C119.011 37.004 118.356 36.4284 117.362 36.4284" fill="white"/>
<path d="M119.068 33.9118L118.962 33.8949L118.845 34.646L118.952 34.6625L118.959 34.5546C117.889 34.4873 115.939 34.2914 114.855 34.0981L114.836 34.2047L114.943 34.2229L115.07 33.4814L114.962 33.4628L114.938 33.5686C116.017 33.8157 118.11 34.0096 119.067 34.0202L119.068 33.9118L118.962 33.8949L119.068 33.9118L119.069 33.8035C118.135 33.7946 116.035 33.5986 114.987 33.3575L114.876 33.3316L114.729 34.1865L114.711 34.2922L114.817 34.3113C115.918 34.5072 117.867 34.7028 118.946 34.7708L119.044 34.7772L119.175 33.9283L119.195 33.8044L119.069 33.8035L119.068 33.9118ZM117.362 36.4284V36.3201C116.23 36.3201 115.27 36.6574 114.699 36.8216L114.728 36.9257L114.701 36.8211C114.399 36.9015 114.113 37.02 113.881 37.1068L113.919 37.2083L114.024 37.1796L113.779 36.2825L113.675 36.3108L113.687 36.4187C113.956 36.3895 114.291 36.3298 114.576 36.271H114.577L114.578 36.2706C115.263 36.1136 116.358 35.8055 117.44 35.8055C118.777 35.8144 119.725 36.5305 119.73 37.8432C119.729 38.8583 119.285 39.642 118.528 40.2332C117.77 40.8228 116.695 41.2095 115.453 41.3931L115.469 41.5003L115.561 41.4431L115.103 40.7017L115.011 40.7588L115.025 40.8659C116.206 40.7178 117.22 40.4139 117.95 39.9167C118.679 39.4216 119.12 38.7174 119.119 37.813C119.119 37.3794 118.94 36.9989 118.629 36.7348C118.318 36.4699 117.88 36.3201 117.362 36.3201V36.4284V36.5368C118.317 36.5436 118.899 37.07 118.902 37.813C118.9 38.645 118.512 39.2675 117.828 39.7377C117.143 40.2057 116.158 40.5062 114.998 40.6514L114.83 40.6721L115.377 41.5569L115.415 41.6179L115.486 41.6073C116.751 41.4195 117.86 41.0259 118.661 40.4042C119.461 39.7838 119.949 38.9243 119.947 37.8432C119.948 37.1284 119.678 36.5563 119.225 36.172C118.773 35.7869 118.147 35.5888 117.44 35.5888C116.319 35.5893 115.207 35.9054 114.529 36.0594L114.553 36.1653L114.531 36.059C114.252 36.1165 113.921 36.1754 113.663 36.2033L113.538 36.2169L113.815 37.2367L113.846 37.3514L113.958 37.3095C114.193 37.2207 114.473 37.1059 114.756 37.0302H114.758L114.759 37.0298C115.339 36.8618 116.271 36.5368 117.362 36.5368V36.4284" fill="white"/>
<path d="M20 14.2195V42.2195L34 28.2195L20 14.2195Z" fill="url(#paint0_linear)"/>
<path d="M20 14.2195V42.2195L34 28.2195L20 14.2195Z" fill="url(#paint1_linear)"/>
<path d="M44.4845 27.2646L39.2 24.2195L35 28.2195L39.2 32.2195L44.4845 28.9679C44.7938 28.813 45 28.4517 45 28.0905C45 27.7292 44.7938 27.4195 44.4845 27.2646Z" fill="url(#paint2_linear)"/>
<path d="M44.4845 27.2646L39.2 24.2195L35 28.2195L39.2 32.2195L44.4845 28.9679C44.7938 28.813 45 28.4517 45 28.0905C45 27.7292 44.7938 27.4195 44.4845 27.2646Z" fill="url(#paint3_linear)"/>
<path d="M21 42.2195L38.6 32.6695L34.5 28.7195L21 42.2195Z" fill="url(#paint4_linear)"/>
<path d="M21 42.2195L38.6 32.6695L34.5 28.7195L21 42.2195Z" fill="url(#paint5_linear)"/>
<path d="M38.6 23.7695L33.05 20.5195L21 14.2195L34.5 27.7195L38.6 23.7695Z" fill="url(#paint6_linear)"/>
<path d="M38.6 23.7695L33.05 20.5195L21 14.2195L34.5 27.7195L38.6 23.7695Z" fill="url(#paint7_linear)"/>
<rect x="0.5" y="0.5" width="169" height="55" rx="2.5" stroke="white"/>
<defs>
<linearGradient id="paint0_linear" x1="27" y1="23.7195" x2="20" y2="32.2195" gradientUnits="userSpaceOnUse">
<stop stop-color="#00E2FF"/>
<stop offset="1" stop-color="#03C6F5"/>
</linearGradient>
<linearGradient id="paint1_linear" x1="32.8101" y1="40.9783" x2="13.8625" y2="22.8172" gradientUnits="userSpaceOnUse">
<stop stop-color="#00A0FF"/>
<stop offset="0.00657445" stop-color="#00A1FF"/>
<stop offset="0.2601" stop-color="#00BEFF"/>
<stop offset="0.5122" stop-color="#00D2FF"/>
<stop offset="0.7604" stop-color="#00DFFF"/>
<stop offset="1" stop-color="#00E3FF"/>
</linearGradient>
<linearGradient id="paint2_linear" x1="40" y1="24.2195" x2="29.5" y2="24.2195" gradientUnits="userSpaceOnUse">
<stop stop-color="#FFEA0D"/>
<stop offset="1" stop-color="#FFCF00"/>
</linearGradient>
<linearGradient id="paint3_linear" x1="45.759" y1="28.2889" x2="21.9536" y2="28.2889" gradientUnits="userSpaceOnUse">
<stop stop-color="#FFE000"/>
<stop offset="0.4087" stop-color="#FFBD00"/>
<stop offset="0.7754" stop-color="#FFA500"/>
<stop offset="1" stop-color="#FF9C00"/>
</linearGradient>
<linearGradient id="paint4_linear" x1="30" y1="28.2195" x2="18.5" y2="39.7195" gradientUnits="userSpaceOnUse">
<stop stop-color="#F73547"/>
<stop offset="1" stop-color="#E22652"/>
</linearGradient>
<linearGradient id="paint5_linear" x1="36.2636" y1="39.81" x2="12.375" y2="15.6634" gradientUnits="userSpaceOnUse">
<stop stop-color="#FF3A44"/>
<stop offset="1" stop-color="#C31162"/>
</linearGradient>
<linearGradient id="paint6_linear" x1="36" y1="23.7195" x2="21" y2="14.2195" gradientUnits="userSpaceOnUse">
<stop stop-color="#2EF38F"/>
<stop offset="1" stop-color="#0EDE76"/>
</linearGradient>
<linearGradient id="paint7_linear" x1="17.598" y1="35.0304" x2="28.2656" y2="24.2647" gradientUnits="userSpaceOnUse">
<stop stop-color="#32A071"/>
<stop offset="0.0685" stop-color="#2DA771"/>
<stop offset="0.4762" stop-color="#15CF74"/>
<stop offset="0.8009" stop-color="#06E775"/>
<stop offset="1" stop-color="#00F076"/>
</linearGradient>
</defs>
</svg>
