<svg width="16" height="16" viewBox="0 0 16 16" fill="none" xmlns="http://www.w3.org/2000/svg">
<path fill="#3b72a7" d="M8 15C5.14648 15 2.69177 13.2926 1.60175 10.8437L3.42981 10.0312C4.20844 11.7804 5.96179 13 8 13C9.39691 13 10.66 12.4271 11.5673 11.5035L9.5 10L15 8V14L13.1974 12.6891C11.9164 14.1081 10.0623 15 8 15Z" />
<path fill="#3b72a7" d="M14.3983 5.15632C13.3082 2.70741 10.8535 1 8 1C5.93768 1 4.08362 1.89186 2.80255 3.31094L1 2V8L6.5 6L4.43274 4.49652C5.33997 3.57288 6.60309 3 8 3C10.0382 3 11.7916 4.21958 12.5702 5.9688L14.3983 5.15632Z"/>
</svg>
