<svg width="24" height="704" viewBox="0 0 24 704" fill="none" xmlns="http://www.w3.org/2000/svg">
<path fill-rule="evenodd" clip-rule="evenodd" d="M15 241H4.5C4.10218 241 3.72064 241.158 3.43934 241.439C3.15804 241.721 3 242.102 3 242.5V257.5C3 257.898 3.15804 258.279 3.43934 258.561C3.72064 258.842 4.10218 259 4.5 259H19.5C19.8978 259 20.2794 258.842 20.5607 258.561C20.842 258.279 21 257.898 21 257.5V247L15 241ZM6 244H13.5V245.5H6V244ZM6 247H13.5V248.5H6V247ZM18 254.5H6V253H18V254.5ZM18 251.5H6V250H18V251.5Z" fill="#83888D"/>
<path fill-rule="evenodd" clip-rule="evenodd" d="M12 2L2 11.88H5.07692V21H18.9231V11.88H22L12 2ZM14.3077 16.44H9.69231V11.88H14.3077V16.44Z" fill="#83888D"/>
<path d="M17.0244 483V483.348C17.3405 483.321 17.6564 483.403 17.9284 483.584C18.0062 483.657 18.0682 483.749 18.1095 483.853C18.1508 483.956 18.1704 484.069 18.1669 484.182C18.1658 484.374 18.1447 484.565 18.1041 484.752C18.0015 485.143 17.88 485.529 17.74 485.906L15.8567 491.342L13.7725 485.35C13.6002 484.903 13.4739 484.437 13.3959 483.959C13.395 483.835 13.4302 483.713 13.4963 483.612C13.5642 483.506 13.6611 483.428 13.7725 483.389C14.0475 483.314 14.3306 483.281 14.6137 483.292V483H9.0517V483.348C9.32659 483.33 9.60153 483.382 9.85524 483.501C10.0595 483.623 10.229 483.806 10.3449 484.029C10.5811 484.501 10.7826 484.994 10.9476 485.503L11.4247 486.893L9.61669 491.69L7.36928 485.517C7.16774 485.04 7.02824 484.535 6.95495 484.015C6.95397 483.926 6.97162 483.839 7.00648 483.759C7.04135 483.68 7.09248 483.61 7.15583 483.556C7.40018 483.404 7.68 483.336 7.95938 483.361V483H3V483.348C3.1451 483.35 3.28818 483.386 3.42006 483.453C3.55195 483.52 3.66973 483.617 3.76588 483.737C4.08672 484.338 4.35576 484.971 4.56942 485.628L8.33604 496H8.64993L11.7888 487.811L14.6263 496H14.9527L18.5436 485.517C18.8616 484.59 19.0374 484.126 19.0709 484.126C19.1608 483.922 19.2944 483.745 19.4601 483.612C19.6212 483.495 19.8076 483.428 20 483.417V483H17.0244Z" fill="#83888D"/>
<path d="M20.5714 412H3.42857C3.04969 412 2.68633 412.146 2.41842 412.406C2.15051 412.665 2 413.017 2 413.385V424.462C2 424.829 2.15051 425.181 2.41842 425.441C2.68633 425.7 3.04969 425.846 3.42857 425.846H6.28571V430L12 425.846H20.5714C20.9503 425.846 21.3137 425.7 21.5816 425.441C21.8495 425.181 22 424.829 22 424.462V413.385C22 413.017 21.8495 412.665 21.5816 412.406C21.3137 412.146 20.9503 412 20.5714 412ZM6.28571 418.923H9.14286V421.692H6.28571V418.923ZM13.4286 421.692H10.5714V418.923H13.4286V421.692ZM17.7143 421.692H14.8571V418.923H17.7143V421.692Z" fill="#83888D"/>
<path fill-rule="evenodd" clip-rule="evenodd" d="M19.2 84.765V82.5C19.9015 82.1874 20.4666 81.6577 20.8 81V76.5C20.5999 75.7354 20.1638 75.043 19.5463 74.5094C18.9288 73.9759 18.1572 73.6248 17.328 73.5H16.256C15.8786 73.52 15.5114 73.6227 15.184 73.8V80.25C15.1526 80.6615 14.9935 81.0555 14.7262 81.3833C14.459 81.7111 14.0953 81.9585 13.68 82.095C13.8773 82.2877 14.1258 82.4275 14.4 82.5V84C16.192 84.765 20 87 20 87.855V90H24V88.5C24 87.24 19.2 84.765 19.2 84.765Z" fill="#83888D"/>
<path fill-rule="evenodd" clip-rule="evenodd" d="M12.8 84V81.75C13.1619 81.6157 13.4905 81.4134 13.7657 81.1554C14.0409 80.8974 14.2568 80.5892 14.4 80.25V75.75C14.4 74.25 12.8 72 11.2 72H8C6.4 72 4.8 74.25 4.8 75.75V80.25C4.94322 80.5892 5.15909 80.8974 5.43428 81.1554C5.70947 81.4134 6.03814 81.6157 6.4 81.75V84C6.4 84 0 87 0 88.5V90H19.2V88.5C19.2 87 12.8 84 12.8 84Z" fill="#83888D"/>
<path d="M19.5 309H4.5C4.10218 309 3.72064 309.158 3.43934 309.439C3.15804 309.721 3 310.102 3 310.5V325.5C3 325.898 3.15804 326.279 3.43934 326.561C3.72064 326.842 4.10218 327 4.5 327H19.5C19.8978 327 20.2794 326.842 20.5607 326.561C20.842 326.279 21 325.898 21 325.5V310.5C21 310.102 20.842 309.721 20.5607 309.439C20.2794 309.158 19.8978 309 19.5 309ZM18 324H6V313.5H18V324Z" fill="#83888D"/>
<path d="M9 315H7.5V316.5H9V315Z" fill="#83888D"/>
<path d="M9 318H7.5V319.5H9V318Z" fill="#83888D"/>
<path d="M9 321H7.5V322.5H9V321Z" fill="#83888D"/>
<path d="M16.5 321H10.5V322.5H16.5V321Z" fill="#83888D"/>
<path d="M15 318H10.5V319.5H15V318Z" fill="#83888D"/>
<path d="M16.5 315H10.5V316.5H16.5V315Z" fill="#83888D"/>
<path d="M16.8462 690.5L12.6923 695V686H9.92308V683H4.38462V686H3V701H21V695L16.8462 690.5Z" fill="#83888D"/>
<path fill-rule="evenodd" clip-rule="evenodd" d="M20 383.982L18.878 382.973L16.634 384.977L10.9439 379.933L12.0659 378.924L11.024 378L8.187 380.515L3.12199 385.02L2 386.028L3.04185 386.952L4.17988 385.943L9.85396 391.002L7.59394 393.005L8.73197 394L10.976 391.996L13.3642 389.879L17.6438 393.673H19.6474V391.897L15.3678 388.103L20 383.982Z" fill="#83888D"/>
<path d="M5.33056 188.667H18.6528V182.783L21.9833 179.45V190.333C21.9833 190.775 21.8079 191.199 21.4956 191.512C21.1833 191.824 20.7597 192 20.3181 192H3.66528C3.22365 192 2.80001 191.824 2.48777 191.512C2.17543 191.199 2 190.775 2 190.333V173.667C2 173.225 2.17543 172.801 2.48777 172.488C2.80001 172.176 3.22365 172 3.66528 172H17.8535L14.5229 175.333H5.33056V188.667Z" fill="#83888D"/>
<path d="M6.66276 182.7L9.02742 180.333L11.0091 182.317L19.6352 173.667L22 176.033L11.0258 187.017L11.0091 187L10.9759 187.017L6.66276 182.7Z" fill="#83888D"/>
<path d="M14.8929 623.036H12.9643V620.143C12.9643 619.887 12.8627 619.642 12.6819 619.461C12.501 619.28 12.2557 619.179 12 619.179C11.7443 619.179 11.499 619.28 11.3181 619.461C11.1373 619.642 11.0357 619.887 11.0357 620.143V624C11.0357 624.256 11.1373 624.501 11.3181 624.682C11.499 624.863 11.7443 624.964 12 624.964H14.8929C15.1486 624.964 15.3939 624.863 15.5747 624.682C15.7555 624.501 15.8571 624.256 15.8571 624C15.8571 623.744 15.7555 623.499 15.5747 623.318C15.3939 623.137 15.1486 623.036 14.8929 623.036Z" fill="#83888D"/>
<path d="M12 615C10.22 615 8.47991 615.528 6.99987 616.517C5.51983 617.506 4.36628 618.911 3.68509 620.556C3.0039 622.2 2.82567 624.01 3.17294 625.756C3.5202 627.502 4.37737 629.105 5.63604 630.364C6.89471 631.623 8.49836 632.48 10.2442 632.827C11.99 633.174 13.7996 632.996 15.4442 632.315C17.0887 631.634 18.4943 630.48 19.4832 629C20.4722 627.52 21 625.78 21 624C21 621.613 20.0518 619.324 18.364 617.636C16.6761 615.948 14.387 615 12 615ZM12 630.429C10.7286 630.429 9.48565 630.052 8.42848 629.345C7.37131 628.639 6.54734 627.635 6.06078 626.46C5.57421 625.285 5.44691 623.993 5.69496 622.746C5.943 621.499 6.55526 620.353 7.45432 619.454C8.35337 618.555 9.49883 617.943 10.7459 617.695C11.9929 617.447 13.2854 617.574 14.4601 618.061C15.6348 618.547 16.6388 619.371 17.3452 620.428C18.0515 621.486 18.4286 622.729 18.4286 624C18.4286 625.705 17.7513 627.34 16.5457 628.546C15.3401 629.751 13.705 630.429 12 630.429Z" fill="#83888D"/>
<path d="M18.6667 358.667H5.33333V345.333H12.8667L16.2 342H3.66667C3.22464 342 2.80072 342.176 2.48816 342.488C2.17559 342.801 2 343.225 2 343.667V360.333C2 360.775 2.17559 361.199 2.48816 361.512C2.80072 361.824 3.22464 362 3.66667 362H20.3333C20.7754 362 21.1993 361.824 21.5118 361.512C21.8244 361.199 22 360.775 22 360.333V347.783L18.6667 351.117V358.667Z" fill="#83888D"/>
<path d="M8.66667 352.833V355.333H11.1667L17 349.5V347H14.5L8.66667 352.833Z" fill="#83888D"/>
<path d="M19.5 342L17 344.5V347H19.5L22 344.5V342H19.5Z" fill="#83888D"/>
<path d="M20.5714 208H3.42857C3.04969 208 2.68633 208.146 2.41842 208.406C2.15051 208.665 2 209.017 2 209.385V220.462C2 220.829 2.15051 221.181 2.41842 221.441C2.68633 221.7 3.04969 221.846 3.42857 221.846H6.28571V226L12 221.846H20.5714C20.9503 221.846 21.3137 221.7 21.5816 221.441C21.8495 221.181 22 220.829 22 220.462V209.385C22 209.017 21.8495 208.665 21.5816 208.406C21.3137 208.146 20.9503 208 20.5714 208V208ZM13.4286 220.462H10.5714V217.692H13.4286V220.462ZM13.4286 216.308H10.5714V209.385H13.4286V216.308Z" fill="#83888D"/>
<path fill-rule="evenodd" clip-rule="evenodd" d="M6 649V652H3V667H18V664H21V649H6ZM15 664H6V655H15V664ZM19.5 662.5H18V652H7.5V650.5H19.5V662.5Z" fill="#83888D"/>
<path d="M20.5714 582H3.42857C3.04969 582 2.68633 582.146 2.41842 582.406C2.15051 582.665 2 583.017 2 583.385V594.462C2 594.829 2.15051 595.181 2.41842 595.441C2.68633 595.7 3.04969 595.846 3.42857 595.846H6.28571V600L12 595.846H20.5714C20.9503 595.846 21.3137 595.7 21.5816 595.441C21.8495 595.181 22 594.829 22 594.462V583.385C22 583.017 21.8495 582.665 21.5816 582.406C21.3137 582.146 20.9503 582 20.5714 582V582ZM19.1429 593.077H4.85714V584.769H19.1429V593.077Z" fill="#83888D"/>
<path fill-rule="evenodd" clip-rule="evenodd" d="M15.3333 50.6667V47.9167C15.7668 47.7526 16.1605 47.5052 16.4902 47.1899C16.8198 46.8746 17.0784 46.498 17.25 46.0833V40.5833C17.25 38.75 15.3333 36 13.4167 36H9.58333C7.66667 36 5.75 38.75 5.75 40.5833V46.0833C5.92157 46.498 6.18016 46.8746 6.50982 47.1899C6.83947 47.5052 7.23319 47.7526 7.66667 47.9167V50.6667C7.66667 50.6667 0 54.3333 0 56.1667V58H23V56.1667C23 54.3333 15.3333 50.6667 15.3333 50.6667Z" fill="#83888D"/>
<path d="M18 445H6.04494V447.831H18V445Z" fill="#83888D"/>
<path d="M6 462L11.9925 457.754L17.985 462L18 449.261H6.04494L6 462Z" fill="#83888D"/>
<path fill-rule="evenodd" clip-rule="evenodd" d="M8.995 154.667H7.51124V151.383L21 144.65L7.51124 138H5.9975V154.667H4.49875V156.333H3V158H10.4938V156.333H8.995V154.667Z" fill="#83888D"/>
<path d="M17.0909 277H20V292H17.0909V277Z" fill="#83888D"/>
<path d="M12.7273 280.333H15.6364V292H12.7273V280.333Z" fill="#83888D"/>
<path d="M8.36364 283.667H11.2727V292H8.36364V283.667Z" fill="#83888D"/>
<path d="M4 287H6.90909V292H4V287Z" fill="#83888D"/>
<path d="M12 558.571C13.4202 558.571 14.5714 557.42 14.5714 556C14.5714 554.58 13.4202 553.429 12 553.429C10.5798 553.429 9.42857 554.58 9.42857 556C9.42857 557.42 10.5798 558.571 12 558.571Z" fill="#83888D"/>
<path d="M21 557.286V554.714H18.2871C18.1246 553.912 17.8104 553.149 17.3614 552.464L19.2771 550.549L17.4514 548.723L15.5357 550.639C14.8515 550.19 14.0878 549.875 13.2857 549.713V547H10.7143V549.713C9.9122 549.875 9.14852 550.19 8.46429 550.639L6.54857 548.723L4.72286 550.549L6.63857 552.464C6.18959 553.149 5.8754 553.912 5.71286 554.714H3V557.286H5.71286C5.8754 558.088 6.18959 558.851 6.63857 559.536L4.72286 561.451L6.53571 563.264L8.45143 561.349C9.13858 561.804 9.90681 562.122 10.7143 562.287V565H13.2857V562.287C14.0878 562.125 14.8515 561.81 15.5357 561.361L17.4514 563.277L19.2643 561.464L17.3486 559.549C17.8036 558.861 18.1222 558.093 18.2871 557.286H21ZM14.7257 558.726C14.0025 559.448 13.0221 559.854 12 559.854C10.9779 559.854 9.9975 559.448 9.27429 558.726C8.73437 558.186 8.36654 557.499 8.21732 556.751C8.0681 556.003 8.14421 555.227 8.43601 554.522C8.7278 553.817 9.22218 553.214 9.85659 552.79C10.491 552.366 11.2369 552.139 12 552.139C12.7631 552.139 13.509 552.366 14.1434 552.79C14.7778 553.214 15.2722 553.817 15.564 554.522C15.8558 555.227 15.9319 556.003 15.7827 556.751C15.6335 557.499 15.2656 558.186 14.7257 558.726Z" fill="#83888D"/>
<path fill-rule="evenodd" clip-rule="evenodd" d="M14.0562 107.782C14.6216 108.274 15.0127 108.913 15.1782 109.614L20 121.143V124L16.9091 122.571L8.94996 113.1C8.3741 112.658 7.95066 112.071 7.73192 111.409C7.51317 110.748 7.50864 110.041 7.71899 109.377C7.92934 108.714 8.34533 108.121 8.91563 107.673C9.48583 107.226 10.1855 106.942 10.9282 106.857H10.7273V104H12.2727V106.857H12.0099C12.7774 106.968 13.4907 107.29 14.0562 107.782ZM10.5783 111.64C10.8552 111.796 11.1762 111.871 11.5 111.857C11.7096 111.857 11.9171 111.818 12.1098 111.742C12.3025 111.666 12.4765 111.554 12.6211 111.414C12.7656 111.273 12.8777 111.107 12.9507 110.926C13.0237 110.744 13.0559 110.551 13.0455 110.357C13.0451 110.058 12.9476 109.765 12.7657 109.517C12.5837 109.269 12.3256 109.077 12.0246 108.966C11.7235 108.855 11.3933 108.829 11.0767 108.893C10.7599 108.957 10.4712 109.107 10.2476 109.324C10.0241 109.541 9.87597 109.815 9.8223 110.111C9.76872 110.406 9.81211 110.71 9.94681 110.982C10.0816 111.255 10.3016 111.484 10.5783 111.64Z" fill="#83888D"/>
<path d="M3.03094 123.986L3 121.214L6.87911 112.171L10.6809 117.443L6.05997 122.543L3.03094 123.986Z" fill="#83888D"/>
<path d="M13.5 523.818H10.5V522.273H3V528.455C3 528.864 3.15804 529.258 3.43934 529.547C3.72064 529.837 4.10218 530 4.5 530H19.5C19.8978 530 20.2794 529.837 20.5607 529.547C20.842 529.258 21 528.864 21 528.455V522.273H13.5V523.818Z" fill="#83888D"/>
<path d="M19.5 516.091H18V514.545C18 514.136 17.842 513.742 17.5607 513.453C17.2794 513.163 16.8978 513 16.5 513H7.5C7.10218 513 6.72064 513.163 6.43934 513.453C6.15804 513.742 6 514.136 6 514.545V516.091H4.5C4.10218 516.091 3.72064 516.254 3.43934 516.544C3.15804 516.833 3 517.226 3 517.636V520.727H21V517.636C21 517.226 20.842 516.833 20.5607 516.544C20.2794 516.254 19.8978 516.091 19.5 516.091ZM16.5 516.091H7.5V514.545H16.5V516.091Z" fill="#83888D"/>
</svg>
