<svg width="150" height="150" viewBox="0 0 150 150" fill="none" xmlns="http://www.w3.org/2000/svg">
<g clip-path="url(#clip0_125_6558)">
<path fill-rule="evenodd" clip-rule="evenodd" d="M79 53V29H72V53H79Z" fill="#BDECFF"/>
<path fill-rule="evenodd" clip-rule="evenodd" d="M71 29H80V51.5C80 51.7761 79.7761 52 79.5 52C79.2239 52 79 51.7761 79 51.5V30H72V51.5C72 51.7761 71.7761 52 71.5 52C71.2239 52 71 51.7761 71 51.5V29Z" fill="#333333"/>
<path d="M16 101C16 98.2386 18.2386 96 21 96H129C131.761 96 134 98.2386 134 101V143C134 145.761 131.761 148 129 148H21C18.2386 148 16 145.761 16 143V101Z" fill="white"/>
<path fill-rule="evenodd" clip-rule="evenodd" d="M21 95H129C132.314 95 135 97.6863 135 101V143C135 146.314 132.314 149 129 149H21C17.6863 149 15 146.314 15 143V101C15 97.6863 17.6863 95 21 95ZM21 96C18.2386 96 16 98.2386 16 101V143C16 145.761 18.2386 148 21 148H129C131.761 148 134 145.761 134 143V101C134 98.2386 131.761 96 129 96H21Z" fill="#333333"/>
<path fill-rule="evenodd" clip-rule="evenodd" d="M75.6976 31C89.3076 31 78.076 10.8375 75.6978 5C73.2991 10.8065 60.3479 31 75.6976 31Z" fill="url(#paint0_linear_125_6558)"/>
<path fill-rule="evenodd" clip-rule="evenodd" d="M75.5625 3L76.4846 5.25308C76.8038 6.033 77.2751 7.0342 77.8311 8.21525C78.2845 9.1786 78.7943 10.2616 79.3238 11.4418C80.4764 14.0105 81.6754 16.945 82.3774 19.7229C83.0685 22.4578 83.3334 25.2451 82.383 27.3978C81.8932 28.5072 81.0876 29.4309 79.9084 30.0641C78.7454 30.6886 77.2773 31 75.4954 31C73.7077 31 72.2362 30.6883 71.0721 30.0627C69.8914 29.4282 69.087 28.5023 68.6011 27.3902C67.6588 25.2332 67.9407 22.4422 68.6489 19.7062C69.3684 16.9266 70.587 13.9914 71.7558 11.4242C72.2914 10.2478 72.8067 9.16837 73.2648 8.20853C73.8291 7.02641 74.3067 6.0257 74.6292 5.24871L75.5625 3ZM75.556 5.61537C75.4055 5.97795 75.2192 6.39399 75.0058 6.85518C74.7543 7.39876 74.4651 8.00505 74.1525 8.66042C70.5835 16.1429 63.9627 30.0237 75.4954 30.0237C86.9886 30.0237 80.4655 16.1558 76.9407 8.66208C76.6328 8.00759 76.3479 7.40172 76.0997 6.85795C75.8891 6.39622 75.705 5.97927 75.556 5.61537Z" fill="#333333"/>
<path d="M32 57C32 54.2386 34.2386 52 37 52H114C116.761 52 119 54.2386 119 57V95H32V57Z" fill="white"/>
<path fill-rule="evenodd" clip-rule="evenodd" d="M134 122V101.208C134 98.3396 131.718 96 128.92 96H21.0795C18.2818 96 16 98.3396 16 101.208V121.908C25.0646 126.625 36.5113 123.069 41.5862 114.178C48.9575 127.093 67.7768 127.058 75.1488 114.157C82.5482 127.122 101.106 126.957 108.622 114.218C113.67 123.017 124.971 126.575 134 122Z" fill="url(#paint1_linear_125_6558)"/>
<path fill-rule="evenodd" clip-rule="evenodd" d="M135 122.614L134.451 122.892C125.417 127.469 114.26 124.32 108.613 116.082C100.544 127.662 83.1344 127.83 75.1477 116.046C67.1775 127.762 49.5544 127.795 41.5844 116.063C35.8974 124.377 24.606 127.513 15.5391 122.795L15 122.515V101.209C15 97.8097 17.7079 95 21.0795 95H128.92C132.292 95 135 97.8097 135 101.209V122.614ZM40.9949 115.145C41.2005 114.83 41.3977 114.507 41.5862 114.177C41.7755 114.508 41.9723 114.831 42.1763 115.146C49.7123 126.765 67.0209 126.734 74.558 115.125C74.7623 114.811 74.9593 114.488 75.1488 114.156C75.3383 114.488 75.535 114.811 75.7387 115.126C83.2876 126.787 100.37 126.644 108.024 115.171C108.23 114.861 108.43 114.543 108.622 114.217C108.81 114.544 109.006 114.864 109.21 115.176C114.507 123.268 125.307 126.402 134 121.998V101.209C134 98.341 131.718 96.0018 128.92 96.0018H21.0795C18.2818 96.0018 16 98.341 16 101.209V121.906C24.7281 126.447 35.6645 123.32 40.9949 115.145Z" fill="#333333"/>
<path fill-rule="evenodd" clip-rule="evenodd" d="M112.5 76.5C114.77 76.5 117 76 119 75.5187V56.8166C119 54.1665 116.841 52 114.199 52H36.801C33 52 32 53 32 56.8166V75.4784C33.9284 76.4458 36.118 77 38.4281 77C40.5 76.5 48.0091 73.7624 50.5 69.5C52.9909 73.7725 57.7069 76.5 63 76.5C68.2931 76.5 72.5192 73.7825 75 69.5C77.4909 73.7725 82.7069 76.5 88 76.5C93.2128 76.5 97.489 73.6717 100 69.5C102.501 73.7422 107.227 76.5 112.5 76.5Z" fill="#BDECFF"/>
<path fill-rule="evenodd" clip-rule="evenodd" d="M36.5 52C34.0147 52 32 54.0147 32 56.5V95H118V56.5C118 54.0147 115.985 52 113.5 52H87.375C87.0989 52 86.875 51.7761 86.875 51.5C86.875 51.2239 87.0989 51 87.375 51H113.5C116.538 51 119 53.4624 119 56.5V96H31V56.5C31 53.4624 33.4624 51 36.5 51H63.625C63.9011 51 64.125 51.2239 64.125 51.5C64.125 51.7761 63.9011 52 63.625 52H36.5Z" fill="#333333"/>
<path fill-rule="evenodd" clip-rule="evenodd" d="M75.0897 69C75.269 68.9998 75.4351 69.0939 75.5262 69.2474C80.8022 78.1457 93.9965 78.0573 99.3628 69.2909C99.455 69.1403 99.6199 69.0487 99.7973 69.0495C99.9747 69.0503 100.139 69.1434 100.229 69.2948C103.873 75.3718 111.916 77.7305 118.271 74.6289C118.522 74.5065 118.825 74.6092 118.948 74.8583C119.071 75.1073 118.968 75.4084 118.717 75.5307C112.129 78.7458 103.879 76.5065 99.7914 70.4841C93.9422 78.9881 80.8768 79.0957 75.0914 70.4505C69.342 79.0738 56.087 79.062 50.3246 70.4665C46.2154 76.5615 37.9033 78.7565 31.2809 75.4902C31.0308 75.3668 30.9287 75.0653 31.0529 74.8167C31.1771 74.5682 31.4806 74.4668 31.7308 74.5902C38.1274 77.7452 46.2312 75.4229 49.89 69.2668C49.981 69.1136 50.1468 69.0197 50.3258 69.0198C50.5048 69.0199 50.6705 69.114 50.7613 69.2672C56.0127 78.1239 69.4198 78.1328 74.6539 69.2486C74.7445 69.0949 74.9103 69.0002 75.0897 69Z" fill="#333333"/>
</g>
<defs>
<linearGradient id="paint0_linear_125_6558" x1="64.7821" y1="7.49237" x2="77.0493" y2="20.9801" gradientUnits="userSpaceOnUse">
<stop stop-color="#FFC671"/>
<stop offset="1" stop-color="#FF6F3D"/>
</linearGradient>
<linearGradient id="paint1_linear_125_6558" x1="25.5102" y1="54.6624" x2="83.9673" y2="117.461" gradientUnits="userSpaceOnUse">
<stop stop-color="#FFC671"/>
<stop offset="1" stop-color="#FF6F3D"/>
</linearGradient>
<clipPath id="clip0_125_6558">
<rect width="150" height="150" fill="white"/>
</clipPath>
</defs>
</svg>
