<svg width="100" height="100" viewBox="0 0 100 100" fill="none" xmlns="http://www.w3.org/2000/svg">
<path d="M0 55.5327C0 73.6717 20.7444 93.9999 48.9426 93.9999C77.1408 93.9999 100 94.1014 100 64.9114C100 51.2124 93.6556 47.398 82.1752 40.2049C75.4072 35.9644 78.9273 29.897 76.1329 21.4404C74.5627 16.6885 67.1707 8.1674 48.9426 7.05435C28.3988 5.7999 0 26.3427 0 55.5327Z" fill="#F1F9FF"/>
<path d="M68.9518 44.9194V45.9061C68.9518 47.1152 69.146 48.3162 69.5267 49.4631L71.7531 56.1678H75.9551V40.7011H73.1538C70.8331 40.7013 68.9518 42.5897 68.9518 44.9194Z" fill="#154A80"/>
<path d="M88.13 47.8403L85.7599 56.168L74.5544 46.3256C73.0071 46.3256 71.753 45.0665 71.753 43.5136C71.753 41.184 73.6344 39.2954 75.955 39.2954H85.7597C87.3069 39.2954 88.561 40.5545 88.561 42.1075V44.7504C88.5612 45.7953 88.416 46.8352 88.13 47.8403Z" fill="#0F4071"/>
<path d="M82.9574 60.387H74.5534V66.61H82.9574V60.387Z" fill="#E6AF78"/>
<path d="M74.5543 62.9688C75.8534 63.4986 77.27 63.7969 78.7563 63.7969C80.2426 63.7969 81.6592 63.4986 82.9583 62.9688V60.386H74.5543V62.9688Z" fill="#D29B6E"/>
<path d="M89.7154 65.7351L82.958 63.7972L78.7564 66.5962L74.5544 63.797L67.7973 65.7351C65.9933 66.2526 64.7497 67.9077 64.7497 69.791V80.0709C64.7497 80.8475 65.3768 81.4769 66.1504 81.4769H91.3626C92.1362 81.4769 92.7632 80.8475 92.7632 80.0709V69.791C92.7632 67.9075 91.5195 66.2526 89.7154 65.7351Z" fill="#D5DCED"/>
<path d="M80.1569 81.4768H77.3556L78.0559 66.6091H79.4566L80.1569 81.4768Z" fill="#AFB9D2"/>
<path d="M78.7563 61.7921C74.1148 61.7921 70.3523 58.015 70.3523 53.3559V51.7086C70.3523 50.9628 70.6474 50.2475 71.1727 49.72L73.7126 47.1703C74.2505 46.6304 74.9859 46.32 75.7461 46.344C80.2236 46.4859 84.1868 47.4487 86.3533 49.5728C86.8836 50.0927 87.1604 50.8201 87.1604 51.5642V53.3559C87.1604 58.0152 83.3977 61.7921 78.7563 61.7921Z" fill="#F0C087"/>
<path d="M74.5543 52.0573C74.5543 50.4354 75.9112 49.1461 77.5237 49.2493C80.3513 49.4305 84.5472 49.9048 87.1214 51.1477C87.0375 50.5545 86.7836 49.9945 86.3533 49.5726C84.1868 47.4486 80.2236 46.4857 75.7461 46.3439L75.746 46.3441V46.3439C74.9859 46.3199 74.2503 46.6305 73.7126 47.1702L71.1729 49.7197C70.6474 50.247 70.3523 50.9623 70.3523 51.7083V53.3556C70.3523 57.2029 72.9204 60.4421 76.4278 61.4566C75.2604 60.0107 74.5544 58.1752 74.5544 56.1677L74.5543 52.0573Z" fill="#E6AF78"/>
<path d="M87.1606 73.9807C87.1606 72.8619 87.6032 71.7891 88.3913 70.998L91.9967 67.3787C92.4786 68.0702 92.7632 68.9026 92.7632 69.7912V80.0711C92.7632 80.8477 92.1362 81.4771 91.3626 81.4771H87.1606V73.9807Z" fill="#C7CFE2"/>
<path d="M79.4566 69.4212H78.0559C77.6692 69.4212 77.3556 69.1064 77.3556 68.7182V66.6091H80.1569V68.7182C80.1569 69.1064 79.8434 69.4212 79.4566 69.4212Z" fill="#959CB5"/>
<path d="M78.7562 66.5963L76.3821 68.4166C75.9732 68.7302 75.3819 68.6046 75.1348 68.1513L73.0051 64.2472L73.8623 62.9346C74.0525 62.6435 74.4577 62.5939 74.7119 62.8306L78.7562 66.5963Z" fill="#C7CFE2"/>
<path d="M78.7561 66.5964L81.1302 68.4169C81.5391 68.7305 82.1304 68.6048 82.3775 68.1516L84.5072 64.2474L83.65 62.9348C83.4598 62.6437 83.0546 62.5941 82.8004 62.8308L78.7561 66.5964Z" fill="#C7CFE2"/>
<path d="M30.9937 61.2049C29.7968 58.0213 28.8474 52.5485 28.6424 49.6991C28.2523 44.2769 24.1817 39.8568 18.6791 39.8568C13.1765 39.8568 9.10596 44.2771 8.71585 49.6991C8.51079 52.5483 7.56146 58.0213 6.3645 61.2049C6.10075 61.9068 6.4052 62.6806 7.09367 62.9939C8.37628 63.5774 11.111 64.7205 14.4091 65.1658H22.949C26.2317 64.7195 28.9855 63.5757 30.2644 62.9939C30.953 62.6806 31.2575 61.9068 30.9937 61.2049Z" fill="#154A80"/>
<path d="M30.2644 62.9941C30.9527 62.6808 31.2573 61.907 30.9934 61.2052C29.7966 58.0216 28.8471 52.5487 28.6422 49.6994C28.2523 44.2771 24.1816 39.8571 18.6791 39.8571C18.6652 39.8571 18.6515 39.8571 18.6376 39.8572C14.4154 39.8744 12.9233 45.6547 16.5579 47.8115C16.7762 47.941 16.9162 48.0034 16.9162 48.0034L20.0996 65.166H22.949C26.2317 64.7194 28.9855 63.5758 30.2644 62.9941Z" fill="#0F4071"/>
<path d="M28.8104 67.9888L24.2776 65.7139C23.3285 65.2375 22.7289 64.2636 22.7291 63.1985L22.7294 58.9801H14.3251V63.1986C14.3251 64.2638 13.7256 65.2374 12.7765 65.7138L8.24374 67.9888C6.82017 68.7033 5.92105 70.1638 5.92105 71.7614V80.0706C5.92105 80.847 6.54811 81.4767 7.32172 81.4767H29.7326C30.5062 81.4767 31.1332 80.847 31.1332 80.0706V71.7616C31.1332 70.1638 30.234 68.7033 28.8104 67.9888Z" fill="#E6AF78"/>
<path d="M18.5272 64.6041C20.0354 64.6041 21.48 64.292 22.8044 63.7364C22.7696 63.5592 22.729 63.3829 22.729 63.1982L22.7294 58.9799H14.325V63.1984C14.325 63.3841 14.2845 63.5612 14.2494 63.7391C15.5746 64.2918 17.0185 64.6041 18.5272 64.6041Z" fill="#D29B6E"/>
<path d="M28.8104 67.989L25.5813 66.3682C24.0839 68.6893 21.487 70.2286 18.5272 70.2286C15.5675 70.2286 12.9704 68.6893 11.473 66.3681L8.24391 67.989C6.82034 68.7034 5.92105 70.1639 5.92105 71.7615V80.0708C5.92105 80.8474 6.54811 81.4768 7.32172 81.4768H29.7326C30.5062 81.4768 31.1332 80.8474 31.1332 80.0708V71.7617C31.1332 70.1639 30.234 68.7034 28.8104 67.989Z" fill="#D5DCED"/>
<path d="M18.5272 61.792C14.2543 61.792 10.7263 58.591 10.1929 54.4476C10.1155 53.8473 10.403 53.2587 10.9414 52.9861C11.5863 52.6595 12.5234 52.1089 13.4206 51.3052C14.4198 50.4103 15.006 49.4666 15.3371 48.7737C15.6222 48.1771 16.2776 47.8397 16.9164 48.0033C21.848 49.266 25.2055 51.8416 26.4237 52.8931C26.7507 53.1754 26.9392 53.5917 26.9056 54.0235C26.5662 58.3704 22.9448 61.792 18.5272 61.792Z" fill="#F0C087"/>
<path d="M26.4237 52.893C25.2057 51.8415 21.848 49.2659 16.9163 48.0032C16.2776 47.8396 15.6222 48.177 15.3371 48.7736C15.0864 49.2984 14.672 49.9668 14.0572 50.6493C14.057 50.651 14.0565 50.6523 14.0563 50.654C13.8655 50.8711 13.6623 51.0887 13.4208 51.3053C12.5235 52.1091 11.5864 52.6596 10.9415 52.9861C10.4032 53.2587 10.1159 53.8475 10.193 54.4479C10.6722 58.169 13.5729 61.1309 17.2532 61.6959C15.5762 60.5507 14.3253 58.9757 14.3253 56.168V54.163C14.6435 53.9272 14.9639 53.6921 15.2858 53.4036C16.0644 52.7062 16.744 51.8997 17.289 51.0313C21.0617 52.2131 23.6195 54.1816 24.5891 55.0186C24.8546 55.2522 25.5134 55.8617 26.2841 56.5876C26.6157 55.7865 26.835 54.927 26.9054 54.0237C26.9391 53.5918 26.7507 53.1755 26.4237 52.893Z" fill="#E6AF78"/>
<path d="M6.77489 69.2269C6.23534 69.9457 5.92105 70.8275 5.92105 71.7614V80.0707C5.92105 80.8473 6.54811 81.4767 7.32172 81.4767H11.5237V74.392C11.5237 73.5378 11.1368 72.7297 10.4723 72.1961L6.77489 69.2269Z" fill="#C7CFE2"/>
<path d="M69.4656 66.07L57.7462 61.7919L49.3422 64.6041L40.9382 61.7921L29.2187 66.0701C27.0046 66.8784 25.5307 68.9907 25.5307 71.3556V80.0708C25.5307 80.8472 26.1577 81.4769 26.9313 81.4769H71.7531C72.5267 81.4769 73.1537 80.8472 73.1537 80.0708V71.3556C73.1537 68.9905 71.68 66.8782 69.4656 66.07Z" fill="#FFE07D"/>
<path d="M47.8748 67.4164L46.5408 81.4766H52.1435L50.8095 67.4164H47.8748Z" fill="#175491"/>
<path d="M50.8128 69.348H47.8717C47.3301 69.348 46.8911 68.9074 46.8911 68.3637V64.6041H51.7931V68.3637C51.7933 68.9072 51.3543 69.348 50.8128 69.348Z" fill="#0F4071"/>
<path d="M71.646 67.5235C72.5918 68.5425 73.1537 69.8997 73.1537 71.3555V80.0706C73.1537 80.8472 72.5266 81.4767 71.753 81.4767H64.7497V76.776C64.7497 75.2843 65.34 73.8537 66.3907 72.7991L71.646 67.5235Z" fill="#FFD064"/>
<path d="M64.7496 32.7954V21.0165C64.7496 19.4633 63.4953 18.2044 61.9482 18.2044H45.1401C38.9515 18.2044 33.9345 23.2405 33.9345 29.4529V32.7954C33.9345 34.3066 34.1773 35.808 34.6534 37.2417L35.1196 38.6458C35.2624 39.0759 35.3352 39.5263 35.3352 39.9797V40.7013H63.3487V39.9797C63.3487 39.5263 63.4215 39.0759 63.5643 38.6458L64.0306 37.2417C64.5069 35.8079 64.7496 34.3065 64.7496 32.7954Z" fill="#154A80"/>
<path d="M40.938 23.9164C40.938 27.0711 43.4856 29.6284 46.6282 29.6284H47.4161L47.7963 40.7011H63.3487V39.9795C63.3487 39.5261 63.4215 39.0757 63.5643 38.6457L64.0306 37.2415C64.5067 35.8079 64.7494 34.3065 64.7494 32.7952V21.0165C64.7494 19.4633 63.4951 18.2044 61.948 18.2044H46.6282C43.4856 18.2044 40.938 20.7617 40.938 23.9164Z" fill="#0F4071"/>
<path d="M57.7464 51.9503H40.9377V64.6044H57.7464V51.9503Z" fill="#E6AF78"/>
<path d="M40.938 56.704C43.4123 58.1429 46.2769 58.9798 49.342 58.9798C52.4071 58.9798 55.2719 58.1429 57.746 56.704V51.9496H40.9378L40.938 56.704Z" fill="#D29B6E"/>
<path d="M49.3421 64.6041L44.8748 69.0885C44.2744 69.6912 43.282 69.6233 42.7687 68.9443L38.1367 62.8175L39.3483 60.2545C39.7058 59.4982 40.6384 59.221 41.3484 59.6603L49.3421 64.6041Z" fill="#FFD064"/>
<path d="M49.3421 64.6041L53.8094 69.0885C54.4098 69.6912 55.4022 69.6233 55.9155 68.9443L60.5474 62.8175L59.3359 60.2545C58.9784 59.4982 58.0458 59.221 57.3358 59.6603L49.3421 64.6041Z" fill="#FFD064"/>
<path d="M49.3421 56.1679C41.6064 56.1679 35.3353 49.8727 35.3353 42.1073V40.46C35.3353 39.7142 35.6304 38.999 36.1557 38.4715L37.316 37.3067C37.8413 36.7794 38.1365 36.0641 38.1365 35.3182V31.9476C38.1365 31.2965 38.572 30.7309 39.2032 30.5813C42.5159 29.7958 52.8245 27.9353 59.8399 33.1148C60.2954 33.4511 60.5473 34.0036 60.5473 34.5712V35.3182C60.5473 36.0639 60.8424 36.7792 61.3677 37.3067L62.5281 38.4715C63.0534 38.9988 63.3485 39.7141 63.3485 40.46V42.1073C63.349 49.8727 57.0779 56.1679 49.3421 56.1679Z" fill="#F0C087"/>
<path d="M59.84 33.1148C54.906 29.472 48.3519 29.3144 43.7395 29.8131C41.7938 30.0233 40.1862 30.3484 39.2035 30.5813C38.5724 30.731 38.1368 31.2966 38.1368 31.9477V35.318C38.1368 36.064 37.8417 36.7793 37.3162 37.3067L36.1559 38.4715C35.6304 38.999 35.3353 39.7143 35.3353 40.4602V42.1073C35.3353 49.2966 40.7137 55.2152 47.6496 56.0554C45.2328 53.5289 43.7393 50.105 43.7393 46.3255V36.0481C43.7393 34.6232 44.7948 33.4324 46.2031 33.2551C49.5645 32.832 55.7211 32.5776 60.5473 35.3184V34.5713C60.5477 34.0036 60.2953 33.4509 59.84 33.1148Z" fill="#E6AF78"/>
<path d="M27.0384 67.5235C26.0926 68.5425 25.5307 69.8997 25.5307 71.3555V80.0706C25.5307 80.8472 26.1577 81.4767 26.9313 81.4767H33.9347V76.776C33.9347 75.2843 33.3444 73.8538 32.2937 72.7991L27.0384 67.5235Z" fill="#FFD064"/>
</svg>
