<svg width="64" height="64" viewBox="0 0 64 64" fill="none" xmlns="http://www.w3.org/2000/svg">
<g clip-path="url(#clip0_125_4645)">
<path fill-rule="evenodd" clip-rule="evenodd" d="M54.6415 1.40374L62.5964 9.3586C63.1345 9.89675 63.1345 10.7774 62.5964 11.3155L41.5008 32.4111L33.2035 40.7084L11.3154 62.5965C10.7772 63.1347 9.89663 63.1347 9.35848 62.5965L1.40361 54.6416C0.865462 54.1035 0.865462 53.2229 1.40361 52.6847L23.2134 30.8749L31.5108 22.5776L52.6846 1.40374C53.2228 0.865584 54.1034 0.865584 54.6415 1.40374Z" fill="#BDECFF"/>
<path fill-rule="evenodd" clip-rule="evenodd" d="M51.0129 3.01294L54.9907 6.99079C55.4535 7.44371 55.0006 7.89663 54.5477 7.43386L50.5698 3.45602L51.0129 3.01294Z" fill="#333333"/>
<path fill-rule="evenodd" clip-rule="evenodd" d="M47.8719 6.15381L51.8202 10.1021C52.3125 10.5944 51.8497 11.0277 51.3968 10.5747L47.4189 6.59689L47.8719 6.15381Z" fill="#333333"/>
<path fill-rule="evenodd" clip-rule="evenodd" d="M44.7308 9.2948L48.748 13.3022C49.1418 13.696 48.7184 14.1686 48.2754 13.7256L44.2778 9.74772L44.7308 9.2948Z" fill="#333333"/>
<path fill-rule="evenodd" clip-rule="evenodd" d="M41.5803 12.4456L45.5778 16.4431C46.0012 16.8665 45.5581 17.3096 45.1347 16.8862L41.1372 12.8886L41.5803 12.4456Z" fill="#333333"/>
<path fill-rule="evenodd" clip-rule="evenodd" d="M38.4392 15.5864L42.4466 19.5938C42.8404 19.9877 42.417 20.4603 41.9739 20.0073L37.9961 16.0295L38.4392 15.5864Z" fill="#333333"/>
<path fill-rule="evenodd" clip-rule="evenodd" d="M35.2985 18.7274L39.365 22.7939C39.6899 23.1188 39.2469 23.5717 38.9121 23.237L34.8555 19.1803L35.2985 18.7274Z" fill="#333333"/>
<path fill-rule="evenodd" clip-rule="evenodd" d="M32.1575 21.8683L36.2141 25.9249C36.539 26.2498 36.1255 26.7323 35.7317 26.3384L31.7046 22.3114L32.1575 21.8683Z" fill="#333333"/>
<path d="M29.0159 25.011L28.5703 25.4565L32.8382 29.7244L33.2837 29.2788L29.0159 25.011Z" fill="#333333"/>
<path d="M25.8767 28.151L25.4312 28.5967L29.6996 32.8645L30.1452 32.4189L25.8767 28.151Z" fill="#333333"/>
<path fill-rule="evenodd" clip-rule="evenodd" d="M22.7347 31.2911L26.7913 35.3478C27.126 35.6825 26.6731 36.1256 26.3482 35.8007L22.2817 31.7342L22.7347 31.2911Z" fill="#333333"/>
<path fill-rule="evenodd" clip-rule="evenodd" d="M19.5935 34.432L23.6403 38.4788C23.9849 38.8234 23.5419 39.2763 23.1874 38.9218L19.1406 34.8751L19.5935 34.432Z" fill="#333333"/>
<path fill-rule="evenodd" clip-rule="evenodd" d="M16.4529 37.5729L20.5292 41.6492C20.8345 41.9544 20.3815 42.3975 20.0862 42.1021L16 38.016L16.4529 37.5729Z" fill="#333333"/>
<path fill-rule="evenodd" clip-rule="evenodd" d="M13.302 40.7236L17.3487 44.7704C17.7032 45.1249 17.2503 45.5581 16.9155 45.2233L12.8589 41.1667L13.302 40.7236Z" fill="#333333"/>
<path fill-rule="evenodd" clip-rule="evenodd" d="M10.1613 43.8646L14.2573 47.9606C14.5429 48.2462 14.0998 48.6991 13.8044 48.4037L9.71826 44.3077L10.1613 43.8646Z" fill="#333333"/>
<path fill-rule="evenodd" clip-rule="evenodd" d="M7.02023 47.0055L11.1064 51.0916C11.3919 51.3772 10.9882 51.8596 10.6141 51.4953L6.57715 47.4486L7.02023 47.0055Z" fill="#333333"/>
<path fill-rule="evenodd" clip-rule="evenodd" d="M3.87919 50.1465L7.92596 54.1933C8.27058 54.5379 7.8275 54.9908 7.47304 54.6363L3.42627 50.5896L3.87919 50.1465Z" fill="#333333"/>
<path fill-rule="evenodd" clip-rule="evenodd" d="M56.3787 51.1902L52.3024 55.2862C51.7806 55.8081 51.1504 56.0739 50.7271 55.9853L58.8501 57.9939L57.0877 49.6345C57.1467 50.0678 56.8809 50.6782 56.3787 51.1902Z" fill="#FEFEFE"/>
<path fill-rule="evenodd" clip-rule="evenodd" d="M2.40246 8.63504L6.17354 12.3372L12.6228 5.7895L8.88123 2.11689C8.51692 1.75258 7.67015 1.99874 7.01046 2.66827L2.93415 6.76427C2.27446 7.43381 2.02831 8.27074 2.40246 8.63504Z" fill="#FEFEFE"/>
<path d="M12.62 5.78381L6.16699 12.3362L7.44379 13.5936L13.8968 7.04126L12.62 5.78381Z" fill="#FEFEFE"/>
<path fill-rule="evenodd" clip-rule="evenodd" d="M50.4218 55.8376C50.7861 56.2019 51.6329 55.9557 52.2926 55.2862L56.3689 51.1902C57.0286 50.5207 57.2747 49.6837 56.9006 49.3194L47.4975 40.0739L46.2963 38.8923L13.8926 7.04004L7.44336 13.5976L50.4218 55.8376Z" fill="url(#paint0_linear_125_4645)"/>
<path fill-rule="evenodd" clip-rule="evenodd" d="M57.3636 49.5164L59.0079 57.3047L59.0768 57.5705C59.1457 57.8659 59.1851 58.0136 59.0276 58.1711C58.8602 58.3385 58.7125 58.2991 58.4073 58.2105L58.1611 58.1416L50.6387 56.2807L50.7864 55.6702L58.4368 57.5607L56.7531 49.6247L57.3636 49.5164ZM58.5747 57.7379C58.6141 57.6985 58.5944 57.7084 58.555 57.7182C58.5451 57.7576 58.5353 57.7871 58.5747 57.7379Z" fill="#333333"/>
<path d="M12.393 5.56201L5.93994 12.1144L6.38893 12.5566L12.842 6.00419L12.393 5.56201Z" fill="#333333"/>
<path d="M13.6739 6.81914L7.22363 13.3743L7.67281 13.8163L14.1231 7.26113L13.6739 6.81914Z" fill="#333333"/>
<path fill-rule="evenodd" clip-rule="evenodd" d="M44.9181 49.979L50.6485 55.611C50.747 55.7095 50.9341 55.7095 51.1704 55.6406C51.4657 55.552 51.7907 55.355 52.0861 55.0596L56.1722 50.944C56.4577 50.6486 56.6547 50.3237 56.7334 50.0381C56.7925 49.8215 56.7925 49.6344 56.7039 49.5458C40.8516 33.7033 24.6547 18.0578 8.66452 2.34334C8.56606 2.24488 8.37898 2.24488 8.14267 2.3138C7.84729 2.40242 7.52236 2.59934 7.22698 2.89473L3.14082 7.00057C2.85529 7.29596 2.66821 7.62088 2.57959 7.90642C2.52052 8.13288 2.53036 8.31996 2.61898 8.40857L44.9181 49.979ZM50.2054 56.064C34.2054 40.3396 18.0282 24.704 2.1759 8.8615C1.91006 8.59565 1.85098 8.18211 1.97898 7.73904C2.08729 7.35504 2.33344 6.93165 2.69775 6.56734C2.96359 6.12427 6.16359 3.09165 6.79375 2.45165C7.15806 2.0775 7.59129 1.8215 7.97529 1.71319C8.41836 1.57534 8.8319 1.62457 9.10759 1.89042C24.9796 17.4867 41.5802 33.1717 57.1371 49.0929C57.403 49.3587 57.4621 49.7723 57.3341 50.2153C57.2257 50.5993 56.9796 51.0227 56.6153 51.387L52.5193 55.5027C52.1451 55.8769 51.7217 56.1329 51.3377 56.2412C50.8947 56.379 50.4811 56.3298 50.2054 56.064Z" fill="#333333"/>
<path fill-rule="evenodd" clip-rule="evenodd" d="M31.4164 22.1353L52.5673 0.994262C52.902 0.659627 53.335 0.49231 53.7779 0.49231C54.211 0.49231 54.6539 0.659627 54.9885 0.994262L62.9902 8.99598C63.3249 9.33062 63.4922 9.76367 63.4922 10.2066C63.4922 10.6396 63.3249 11.0825 62.9902 11.4172L41.9673 32.4204C41.6523 32.7354 41.1897 32.3122 41.5441 31.948L62.5375 10.9546C62.7442 10.7479 62.8524 10.4723 62.8524 10.1967C62.8524 9.92115 62.7442 9.64557 62.5375 9.43888L54.5358 1.43716C54.3291 1.23048 54.0535 1.12221 53.7681 1.12221C53.4925 1.12221 53.2169 1.23048 53.0102 1.43716L31.8692 22.5881C31.5542 22.8932 31.131 22.4306 31.4164 22.1353ZM33.2372 41.1505C33.5423 40.8454 33.1093 40.3828 32.7746 40.7174L10.9643 62.5376C10.7576 62.7443 10.482 62.8526 10.2065 62.8526C9.93087 62.8526 9.65529 62.7443 9.4486 62.5376L1.44688 54.5359C1.2402 54.3292 1.13193 54.0536 1.13193 53.7682C1.13193 53.4926 1.2402 53.217 1.44688 53.0104L23.1588 31.2984C23.5033 30.954 23.0604 30.5012 22.7061 30.8555L0.99414 52.5675C0.659505 52.9021 0.492188 53.3351 0.492188 53.778C0.492188 54.2209 0.659505 54.654 0.99414 54.9886L8.99586 62.9904C9.33049 63.325 9.76355 63.4923 10.2065 63.4923C10.6395 63.4923 11.0824 63.325 11.417 62.9904L33.2372 41.1505Z" fill="#333333"/>
</g>
<defs>
<linearGradient id="paint0_linear_125_4645" x1="0.754275" y1="-3.15546" x2="37.2282" y2="37.0196" gradientUnits="userSpaceOnUse">
<stop stop-color="#FFC671"/>
<stop offset="1" stop-color="#FF6F3D"/>
</linearGradient>
<clipPath id="clip0_125_4645">
<rect width="64" height="64" fill="white"/>
</clipPath>
</defs>
</svg>
