<svg width="100" height="100" viewBox="0 0 100 100" fill="none" xmlns="http://www.w3.org/2000/svg">
<path d="M2 11C2 8.23858 4.23858 6 7 6H93C95.7614 6 98 8.23858 98 11V89C98 91.7614 95.7614 94 93 94H7C4.23857 94 2 91.7614 2 89V11Z" fill="#333333"/>
<path d="M2 11C2 8.23858 4.23858 6 7 6H93C95.7614 6 98 8.23858 98 11V89C98 91.7614 95.7614 94 93 94H7C4.23857 94 2 91.7614 2 89V11Z" fill="white" fill-opacity="0.88"/>
<path fill-rule="evenodd" clip-rule="evenodd" d="M93 7H7C4.79086 7 3 8.79086 3 11V89C3 91.2091 4.79086 93 7 93H93C95.2091 93 97 91.2091 97 89V11C97 8.79086 95.2091 7 93 7ZM7 6C4.23858 6 2 8.23858 2 11V89C2 91.7614 4.23857 94 7 94H93C95.7614 94 98 91.7614 98 89V11C98 8.23858 95.7614 6 93 6H7Z" fill="#333333"/>
<path d="M13 33C13 31.3431 14.3431 30 16 30H84.001C85.6578 30 87.001 31.3431 87.001 33V49C87.001 50.6569 85.6578 52 84.001 52H16C14.3431 52 13 50.6569 13 49V33Z" fill="#333333"/>
<path d="M13 33C13 31.3431 14.3431 30 16 30H84.001C85.6578 30 87.001 31.3431 87.001 33V49C87.001 50.6569 85.6578 52 84.001 52H16C14.3431 52 13 50.6569 13 49V33Z" fill="white" fill-opacity="0.88"/>
<path d="M22.001 30H16C14.3431 30 13 31.3431 13 33V49C13 50.6569 14.3431 52 16 52H84.001C85.6578 52 87.001 50.6569 87.001 49V33C87.001 31.3431 85.6578 30 84.001 30H40.001V31H84.001C85.1055 31 86.001 31.8954 86.001 33V49C86.001 50.1046 85.1055 51 84.001 51H16C14.8954 51 14 50.1046 14 49V33C14 31.8954 14.8954 31 16 31H22.001V30Z" fill="#333333"/>
<path d="M31 42C20.7368 42 18 48 18 48H44C44 48 41.2632 42 31 42Z" fill="#E07751"/>
<path fill-rule="evenodd" clip-rule="evenodd" d="M17.0902 47.585L18 48H44L44.9098 47.585C45.051 47.8945 45.0251 48.2546 44.8411 48.5408C44.6571 48.827 44.3402 49 44 49H18C17.6598 49 17.3429 48.827 17.1589 48.5408C16.9749 48.2546 16.949 47.8945 17.0902 47.585ZM43.3652 47C43.8162 47.5971 44 48 44 48L44.9092 47.5837L44.9098 47.585C44.8742 47.5455 44.9248 47.6141 44.9098 47.585C44.88 47.5268 44.7842 47.3387 44.728 47.2416C44.6157 47.0474 44.4482 46.7811 44.2154 46.467C43.7497 45.8388 43.0224 45.0187 41.955 44.2048C39.8069 42.5667 36.3419 41 31 41C25.6581 41 22.1931 42.5667 20.045 44.2048C18.9776 45.0187 18.2503 45.8388 17.7846 46.467C17.5519 46.7811 17.3843 47.0474 17.272 47.2416C17.2158 47.3387 17.1734 47.4179 17.1435 47.4761C17.1286 47.5052 17.1168 47.5291 17.108 47.5473L17.0969 47.5705L17.093 47.5788L17.0915 47.5822L17.0908 47.5837C17.0908 47.5837 17.0902 47.585 18 48C18 48 18.1838 47.5971 18.6348 47C19.924 45.2932 23.3965 42 31 42C38.6035 42 42.076 45.2932 43.3652 47Z" fill="#333333"/>
<path d="M28 39H34V43L31 45L28 43V39Z" fill="#333333"/>
<path d="M28 39H34V43L31 45L28 43V39Z" fill="white" fill-opacity="0.88"/>
<path d="M37 34C37 37.3137 34.3137 40 31 40C27.6863 40 25 37.3137 25 34C25 30.6863 27.6863 28 31 28C34.3137 28 37 30.6863 37 34Z" fill="#333333"/>
<path d="M37 34C37 37.3137 34.3137 40 31 40C27.6863 40 25 37.3137 25 34C25 30.6863 27.6863 28 31 28C34.3137 28 37 30.6863 37 34Z" fill="white" fill-opacity="0.88"/>
<path fill-rule="evenodd" clip-rule="evenodd" d="M31 39C33.7614 39 36 36.7614 36 34C36 31.2386 33.7614 29 31 29C28.2386 29 26 31.2386 26 34C26 36.7614 28.2386 39 31 39ZM31 40C34.3137 40 37 37.3137 37 34C37 30.6863 34.3137 28 31 28C27.6863 28 25 30.6863 25 34C25 37.3137 27.6863 40 31 40Z" fill="#333333"/>
<path fill-rule="evenodd" clip-rule="evenodd" d="M31 30.5C31.9728 32.0455 33.5957 34 36 34C36.2876 31.1136 33.0414 28.5 31 28.5C28.2328 28.5 26 30.9193 26 34C28.5136 33.6095 30.3699 32.4909 31 30.5Z" fill="#AAAAAA"/>
<path fill-rule="evenodd" clip-rule="evenodd" d="M30.412 29.0391C27.8758 29.3316 26 31.2438 26 34C28.4749 33.5849 29.9329 32.1332 30.9995 30C31.9368 31.6074 34.0583 34 36 34C36 33.6736 35.926 32.8339 35.793 32.4939C35.2028 30.9857 33.4505 29.4721 31.8384 29.0912C31.3418 28.9739 30.8662 28.9867 30.412 29.0391ZM31.2486 31.829C32.2732 33.1946 33.7558 34.9862 36 34.9862C36.5523 34.9862 36.9995 34.5523 36.9995 34C36.9995 32 36.045 30.4532 34.9995 29.5C33.9412 28.5351 32.5058 28 31.0996 28C27.7128 28 25 30.4058 25 34C25 34.2941 25.1295 34.5733 25.354 34.7633C25.5785 34.9533 25.8753 35.0349 26.1654 34.9862C28.3902 34.6131 30.1746 33.4945 31.2486 31.829Z" fill="#333333"/>
<path fill-rule="evenodd" clip-rule="evenodd" d="M33.4995 38.4999C33.8151 38.4999 34 38.3258 34 38.5835V42.765C34 42.8947 34 43.1275 33.8176 43.273L31.389 45.875C31.1697 46.0415 30.8303 46.0415 30.611 45.875L28.1824 43.273C28 43.0802 28 42.8947 28 42.765V38.5835C28 38.3258 28.2217 38.5055 28.5373 38.5055C28.8529 38.5055 28.9995 38.7422 28.9995 38.9999L29 42.5389L31 45.0111L33 42.5389L32.9995 38.9943C32.9995 38.7365 33.1839 38.4999 33.4995 38.4999Z" fill="#333333"/>
<path fill-rule="evenodd" clip-rule="evenodd" d="M49 38.5C49 38.2239 49.225 38 49.5027 38H76.4973C76.775 38 77 38.2239 77 38.5C77 38.7761 76.775 39 76.4973 39H49.5027C49.225 39 49 38.7761 49 38.5Z" fill="#333333"/>
<path fill-rule="evenodd" clip-rule="evenodd" d="M49 42.5C49 42.2239 49.2311 42 49.5162 42H70.4838C70.7689 42 71 42.2239 71 42.5C71 42.7761 70.7689 43 70.4838 43H49.5162C49.2311 43 49 42.7761 49 42.5Z" fill="#333333"/>
<path d="M13 63C13 61.3431 14.3431 60 16 60H84.001C85.6578 60 87.001 61.3431 87.001 63V79C87.001 80.6569 85.6578 82 84.001 82H16C14.3431 82 13 80.6569 13 79V63Z" fill="#333333"/>
<path d="M13 63C13 61.3431 14.3431 60 16 60H84.001C85.6578 60 87.001 61.3431 87.001 63V79C87.001 80.6569 85.6578 82 84.001 82H16C14.3431 82 13 80.6569 13 79V63Z" fill="white" fill-opacity="0.88"/>
<path d="M22.001 60H16C14.3431 60 13 61.3431 13 63V79C13 80.6569 14.3431 82 16 82H84.001C85.6578 82 87.001 80.6569 87.001 79V63C87.001 61.3431 85.6578 60 84.001 60H40.001V61H84.001C85.1055 61 86.001 61.8954 86.001 63V79C86.001 80.1046 85.1055 81 84.001 81H16C14.8954 81 14 80.1046 14 79V63C14 61.8954 14.8954 61 16 61H22.001V60Z" fill="#333333"/>
<path d="M31 72C20.7368 72 18 78 18 78H44C44 78 41.2632 72 31 72Z" fill="#E07751"/>
<path fill-rule="evenodd" clip-rule="evenodd" d="M17.0902 77.585L18 78H44L44.9098 77.585C45.051 77.8945 45.0251 78.2546 44.8411 78.5408C44.6571 78.827 44.3402 79 44 79H18C17.6598 79 17.3429 78.827 17.1589 78.5408C16.9749 78.2546 16.949 77.8945 17.0902 77.585ZM43.3652 77C43.8162 77.5971 44 78 44 78L44.9092 77.5837L44.9098 77.585C44.8742 77.5455 44.9248 77.6141 44.9098 77.585C44.88 77.5268 44.7842 77.3387 44.728 77.2416C44.6157 77.0474 44.4482 76.7811 44.2154 76.467C43.7497 75.8388 43.0224 75.0187 41.955 74.2048C39.8069 72.5667 36.3419 71 31 71C25.6581 71 22.1931 72.5667 20.045 74.2048C18.9776 75.0187 18.2503 75.8388 17.7846 76.467C17.5519 76.7811 17.3843 77.0474 17.272 77.2416C17.2158 77.3387 17.1734 77.4179 17.1435 77.4761C17.1286 77.5052 17.1168 77.5291 17.108 77.5473L17.0969 77.5705L17.093 77.5788L17.0915 77.5822L17.0908 77.5837C17.0908 77.5837 17.0902 77.585 18 78C18 78 18.1838 77.5971 18.6348 77C19.924 75.2932 23.3965 72 31 72C38.6035 72 42.076 75.2932 43.3652 77Z" fill="#333333"/>
<path d="M28 69H34V73L31 75L28 73V69Z" fill="#333333"/>
<path d="M28 69H34V73L31 75L28 73V69Z" fill="white" fill-opacity="0.88"/>
<path d="M37 64C37 67.3137 34.3137 70 31 70C27.6863 70 25 67.3137 25 64C25 60.6863 27.6863 58 31 58C34.3137 58 37 60.6863 37 64Z" fill="#333333"/>
<path d="M37 64C37 67.3137 34.3137 70 31 70C27.6863 70 25 67.3137 25 64C25 60.6863 27.6863 58 31 58C34.3137 58 37 60.6863 37 64Z" fill="white" fill-opacity="0.88"/>
<path fill-rule="evenodd" clip-rule="evenodd" d="M31 69C33.7614 69 36 66.7614 36 64C36 61.2386 33.7614 59 31 59C28.2386 59 26 61.2386 26 64C26 66.7614 28.2386 69 31 69ZM31 70C34.3137 70 37 67.3137 37 64C37 60.6863 34.3137 58 31 58C27.6863 58 25 60.6863 25 64C25 67.3137 27.6863 70 31 70Z" fill="#333333"/>
<path fill-rule="evenodd" clip-rule="evenodd" d="M31.0999 59.6945C32.1114 61.36 33.597 64.019 36.097 64.019C36.3961 60.9086 33.2225 58.96 31.0999 58.96C28.2225 58.96 25.7188 61.0283 25.7188 64.348C28.3324 63.9272 30.4448 61.84 31.0999 59.6945Z" fill="#AAAAAA"/>
<path fill-rule="evenodd" clip-rule="evenodd" d="M30.412 59.0391C28.2068 59.2934 26.5009 60.7722 26.0931 62.9657C26.0319 63.2949 26 63.6403 26 64C26.3495 63.9414 26.685 63.8627 27.0056 63.7649C28.6452 63.2651 29.8941 62.268 30.6265 60.9175C30.5181 61.2386 30.7837 60.6277 30.6265 60.9175C30.6526 60.84 31.0763 59.8445 31.0996 59.7652C31.146 59.8448 31.1933 59.9251 31.2414 60.0056C31.4074 60.2835 31.5837 60.5655 31.7732 60.8425C32.5542 61.984 33.5623 62.9657 35.0195 63.7649C35.3334 63.84 35.6429 64 36 64C36 63.6736 35.926 62.8339 35.793 62.4939C35.2028 60.9857 33.4505 59.4721 31.8384 59.0912C31.5871 59.0318 31.3391 59 31.0996 59C30.8658 59 30.6363 59.0132 30.412 59.0391ZM31.2486 61.829C32.2732 63.1946 33.7558 64.9862 36 64.9862C36.5523 64.9862 37 64.0523 37 63.5C37 62.0877 36.065 60.7184 35.0195 59.7652C33.9612 58.8003 32.5058 58 31.0996 58C27.7128 58 25 60.4058 25 64C25 64.2941 25.1295 64.5733 25.354 64.7633C25.5785 64.9533 25.8753 65.0349 26.1654 64.9862C28.3902 64.6131 30.1746 63.4945 31.2486 61.829Z" fill="#333333"/>
<path fill-rule="evenodd" clip-rule="evenodd" d="M33.5 69.0889C33.8156 69.0889 34 69.3255 34 69.5833V72.7648C34 72.8944 34 73.1272 33.8176 73.2727L31.389 75.8748C31.1697 76.0412 30.8303 76.0412 30.611 75.8748L28.1824 73.2727C28 73.08 28 72.8944 28 72.7648V69.5833C28 69.3255 28.2104 69.0889 28.526 69.0889C28.8416 69.0889 28.9882 69.3255 28.9882 69.5833L29 72.5387L31 75.0108L33 72.5387V69.5833C33 69.3255 33.1844 69.0889 33.5 69.0889Z" fill="#333333"/>
<path fill-rule="evenodd" clip-rule="evenodd" d="M49 68.5C49 68.2239 49.225 68 49.5027 68H76.4973C76.775 68 77 68.2239 77 68.5C77 68.7761 76.775 69 76.4973 69H49.5027C49.225 69 49 68.7761 49 68.5Z" fill="#333333"/>
<path fill-rule="evenodd" clip-rule="evenodd" d="M49 72.5C49 72.2239 49.2311 72 49.5162 72H70.4838C70.7689 72 71 72.2239 71 72.5C71 72.7761 70.7689 73 70.4838 73H49.5162C49.2311 73 49 72.7761 49 72.5Z" fill="#333333"/>
<path fill-rule="evenodd" clip-rule="evenodd" d="M15.8026 16H84.1974C85.7452 16 87 17.3431 87 19C87 20.6569 85.7452 22 84.1974 22H15.8026C14.2548 22 13 20.6569 13 19C13 17.3431 14.2548 16 15.8026 16ZM15.8026 16.9993C14.8238 16.9993 14.0304 17.9523 14.0304 19C14.0304 20.0477 14.8238 20.9996 15.8026 20.9996H84.1974C85.1762 20.9996 85.9696 20.0477 85.9696 19C85.9696 17.9523 85.1762 16.9993 84.1974 16.9993H15.8026Z" fill="#333333"/>
<path d="M68.001 16H84.0676C85.6877 16 87.001 17.3431 87.001 19C87.001 20.6569 85.6877 22 84.0676 22H68.001V16Z" fill="#E07751"/>
<path fill-rule="evenodd" clip-rule="evenodd" d="M84.0676 17H69.001V21H84.0676C85.1143 21 86.001 20.1259 86.001 19C86.001 17.8741 85.1143 17 84.0676 17ZM68.001 16V22H84.0676C85.6877 22 87.001 20.6569 87.001 19C87.001 17.3431 85.6877 16 84.0676 16H68.001Z" fill="#333333"/>
</svg>
