<svg width="100" height="100" viewBox="0 0 100 100" fill="none" xmlns="http://www.w3.org/2000/svg">
<path d="M2 11C2 8.23858 4.23858 6 7 6H93C95.7614 6 98 8.23858 98 11V89C98 91.7614 95.7614 94 93 94H7C4.23857 94 2 91.7614 2 89V11Z" fill="#EFEFEF"/>
<path fill-rule="evenodd" clip-rule="evenodd" d="M93 7H7C4.79086 7 3 8.79086 3 11V89C3 91.2091 4.79086 93 7 93H93C95.2091 93 97 91.2091 97 89V11C97 8.79086 95.2091 7 93 7ZM7 6C4.23858 6 2 8.23858 2 11V89C2 91.7614 4.23857 94 7 94H93C95.7614 94 98 91.7614 98 89V11C98 8.23858 95.7614 6 93 6H7Z" fill="#333333"/>
<path d="M12.9995 33C12.9995 31.3431 14.3427 30 15.9995 30H84.0005C85.6573 30 87.0005 31.3431 87.0005 33V49C87.0005 50.6569 85.6573 52 84.0005 52H15.9995C14.3427 52 12.9995 50.6569 12.9995 49V33Z" fill="white"/>
<path d="M22.0005 30H15.9995C14.3427 30 12.9995 31.3431 12.9995 33V49C12.9995 50.6569 14.3427 52 15.9995 52H84.0005C85.6573 52 87.0005 50.6569 87.0005 49V33C87.0005 31.3431 85.6573 30 84.0005 30H40.0005V31H84.0005C85.1051 31 86.0005 31.8954 86.0005 33V49C86.0005 50.1046 85.1051 51 84.0005 51H15.9995C14.8949 51 13.9995 50.1046 13.9995 49V33C13.9995 31.8954 14.8949 31 15.9995 31H22.0005V30Z" fill="#333333"/>
<path d="M31.0005 41C20.7373 41 18.0005 48 18.0005 48H44.0005C44.0005 48 41.2636 41 31.0005 41Z" fill="url(#paint0_linear)"/>
<path d="M31.0005 41C20.7373 41 18.0005 48 18.0005 48H44.0005C44.0005 48 41.2636 41 31.0005 41Z" fill="#CCE9FF"/>
<path fill-rule="evenodd" clip-rule="evenodd" d="M17.0907 47.585L18.0005 48H44.0005L44.9103 47.585C45.0515 47.8945 45.0256 48.2546 44.8416 48.5408C44.6576 48.827 44.3407 49 44.0005 49H18.0005C17.6603 49 17.3434 48.827 17.1594 48.5408C16.9754 48.2546 16.9495 47.8945 17.0907 47.585ZM43.3657 47C43.8167 47.5971 44.0005 48 44.0005 48L44.9097 47.5837L44.9103 47.585C44.9252 47.6141 44.8747 47.5455 44.9103 47.585C44.8804 47.5268 44.7847 47.3387 44.7285 47.2416C44.6162 47.0474 44.4486 46.7811 44.2159 46.467C43.7502 45.8388 43.0229 45.0187 41.9555 44.2048C39.8074 42.5667 36.3424 41 31.0005 41C25.6586 41 22.1936 42.5667 20.0454 44.2048C18.9781 45.0187 18.2508 45.8388 17.7851 46.467C17.5523 46.7811 17.3848 47.0474 17.2725 47.2416C17.2163 47.3387 17.1739 47.4179 17.144 47.4761C17.1291 47.5052 17.1173 47.5291 17.1084 47.5473L17.0974 47.5705L17.0935 47.5788L17.092 47.5822L17.0913 47.5837C17.0913 47.5837 17.0907 47.585 18.0005 48C18.0005 48 18.1843 47.5971 18.6353 47C19.9244 45.2932 23.397 42 31.0005 42C38.604 42 42.0765 45.2932 43.3657 47Z" fill="#333333"/>
<path d="M28.0005 39H34.0005V43L31.0005 45L28.0005 43V39Z" fill="white"/>
<path d="M37.0005 34C37.0005 37.3137 34.3142 40 31.0005 40C27.6868 40 25.0005 37.3137 25.0005 34C25.0005 30.6863 27.6868 28 31.0005 28C34.3142 28 37.0005 30.6863 37.0005 34Z" fill="white"/>
<path fill-rule="evenodd" clip-rule="evenodd" d="M31.0005 39C33.7619 39 36.0005 36.7614 36.0005 34C36.0005 31.2386 33.7619 29 31.0005 29C28.2391 29 26.0005 31.2386 26.0005 34C26.0005 36.7614 28.2391 39 31.0005 39ZM31.0005 40C34.3142 40 37.0005 37.3137 37.0005 34C37.0005 30.6863 34.3142 28 31.0005 28C27.6868 28 25.0005 30.6863 25.0005 34C25.0005 37.3137 27.6868 40 31.0005 40Z" fill="#333333"/>
<path fill-rule="evenodd" clip-rule="evenodd" d="M31.0999 29.6945C32.1114 31.36 33.597 34.019 36.097 34.019C36.3961 30.9086 33.2225 28.96 31.0999 28.96C28.2225 28.96 25.7188 31.0283 25.7188 34.348C28.3324 33.9272 30.4448 31.84 31.0999 29.6945Z" fill="#AAAAAA"/>
<path fill-rule="evenodd" clip-rule="evenodd" d="M30.4125 29.0391C28.2073 29.2934 26.5013 30.7722 26.0936 32.9657C26.0324 33.2949 26.0005 33.6403 26.0005 34C26.35 33.9414 26.6855 33.8627 27.0061 33.7649C28.6457 33.2651 29.8946 32.268 30.6269 30.9175C30.5186 31.2386 30.7841 30.6277 30.6269 30.9175C30.6531 30.84 31.0768 29.8445 31.1001 29.7652C31.1465 29.8448 31.1938 29.9251 31.2419 30.0056C31.4078 30.2835 31.5841 30.5655 31.7737 30.8425C32.5547 31.984 33.5628 32.9657 35.02 33.7649C35.3339 33.84 35.6433 34 36.0005 34C36.0005 33.6736 35.9265 32.8339 35.7935 32.4939C35.2033 30.9857 33.4509 29.4721 31.8389 29.0912C31.5876 29.0318 31.3396 29 31.1001 29C30.8663 29 30.6368 29.0132 30.4125 29.0391ZM31.2491 31.829C32.2737 33.1946 33.7562 34.9862 36.0005 34.9862C36.5528 34.9862 37.0005 34.0523 37.0005 33.5C37.0005 32.0877 36.0655 30.7184 35.02 29.7652C33.9617 28.8003 32.5063 28 31.1001 28C27.7133 28 25.0005 30.4058 25.0005 34C25.0005 34.2941 25.13 34.5733 25.3545 34.7633C25.579 34.9533 25.8758 35.0349 26.1659 34.9862C28.3907 34.6131 30.1751 33.4945 31.2491 31.829Z" fill="#333333"/>
<path fill-rule="evenodd" clip-rule="evenodd" d="M33.5005 39.0892C33.8161 39.0892 34.0005 39.3259 34.0005 39.5836V42.7651C34.0005 42.8948 34.0005 43.1276 33.8181 43.2731L31.3895 45.8752C31.1702 46.0416 30.8308 46.0416 30.6115 45.8752L28.1829 43.2731C28.0005 43.0803 28.0005 42.8948 28.0005 42.7651V39.5836C28.0005 39.3259 28.2109 39.0892 28.5265 39.0892C28.8421 39.0892 28.9887 39.3259 28.9887 39.5836L29.0005 42.5391L31.0005 45.0112L33.0005 42.5391V39.5836C33.0005 39.3259 33.1849 39.0892 33.5005 39.0892Z" fill="#333333"/>
<path fill-rule="evenodd" clip-rule="evenodd" d="M49.0005 38.5C49.0005 38.2239 49.2255 38 49.5031 38H76.4978C76.7754 38 77.0005 38.2239 77.0005 38.5C77.0005 38.7761 76.7754 39 76.4978 39H49.5031C49.2255 39 49.0005 38.7761 49.0005 38.5Z" fill="#333333"/>
<path fill-rule="evenodd" clip-rule="evenodd" d="M49.0005 42.5C49.0005 42.2239 49.2316 42 49.5167 42H70.4843C70.7694 42 71.0005 42.2239 71.0005 42.5C71.0005 42.7761 70.7694 43 70.4843 43H49.5167C49.2316 43 49.0005 42.7761 49.0005 42.5Z" fill="#333333"/>
<path d="M12.9995 63C12.9995 61.3431 14.3427 60 15.9995 60H84.0005C85.6573 60 87.0005 61.3431 87.0005 63V79C87.0005 80.6569 85.6573 82 84.0005 82H15.9995C14.3427 82 12.9995 80.6569 12.9995 79V63Z" fill="white"/>
<path d="M22.0005 60H15.9995C14.3427 60 12.9995 61.3431 12.9995 63V79C12.9995 80.6569 14.3427 82 15.9995 82H84.0005C85.6573 82 87.0005 80.6569 87.0005 79V63C87.0005 61.3431 85.6573 60 84.0005 60H40.0005V61H84.0005C85.1051 61 86.0005 61.8954 86.0005 63V79C86.0005 80.1046 85.1051 81 84.0005 81H15.9995C14.8949 81 13.9995 80.1046 13.9995 79V63C13.9995 61.8954 14.8949 61 15.9995 61H22.0005V60Z" fill="#333333"/>
<path d="M31.0005 71C20.7373 71 18.0005 78 18.0005 78H44.0005C44.0005 78 41.2636 71 31.0005 71Z" fill="url(#paint1_linear)"/>
<path d="M31.0005 71C20.7373 71 18.0005 78 18.0005 78H44.0005C44.0005 78 41.2636 71 31.0005 71Z" fill="#CCE9FF"/>
<path fill-rule="evenodd" clip-rule="evenodd" d="M17.0907 77.585L18.0005 78H44.0005L44.9103 77.585C45.0515 77.8945 45.0256 78.2546 44.8416 78.5408C44.6576 78.827 44.3407 79 44.0005 79H18.0005C17.6603 79 17.3434 78.827 17.1594 78.5408C16.9754 78.2546 16.9495 77.8945 17.0907 77.585ZM43.3657 77C43.8167 77.5971 44.0005 78 44.0005 78L44.9097 77.5837L44.9103 77.585C44.9252 77.6141 44.8747 77.5455 44.9103 77.585C44.8804 77.5268 44.7847 77.3387 44.7285 77.2416C44.6162 77.0474 44.4486 76.7811 44.2159 76.467C43.7502 75.8388 43.0229 75.0187 41.9555 74.2048C39.8074 72.5667 36.3424 71 31.0005 71C25.6586 71 22.1936 72.5667 20.0454 74.2048C18.9781 75.0187 18.2508 75.8388 17.7851 76.467C17.5523 76.7811 17.3848 77.0474 17.2725 77.2416C17.2163 77.3387 17.1739 77.4179 17.144 77.4761C17.1291 77.5052 17.1173 77.5291 17.1084 77.5473L17.0974 77.5705L17.0935 77.5788L17.092 77.5822L17.0913 77.5837C17.0913 77.5837 17.0907 77.585 18.0005 78C18.0005 78 18.1843 77.5971 18.6353 77C19.9244 75.2932 23.397 72 31.0005 72C38.604 72 42.0765 75.2932 43.3657 77Z" fill="#333333"/>
<path d="M28.0005 69H34.0005V73L31.0005 75L28.0005 73V69Z" fill="white"/>
<path d="M37.0005 64C37.0005 67.3137 34.3142 70 31.0005 70C27.6868 70 25.0005 67.3137 25.0005 64C25.0005 60.6863 27.6868 58 31.0005 58C34.3142 58 37.0005 60.6863 37.0005 64Z" fill="white"/>
<path fill-rule="evenodd" clip-rule="evenodd" d="M31.0005 69C33.7619 69 36.0005 66.7614 36.0005 64C36.0005 61.2386 33.7619 59 31.0005 59C28.2391 59 26.0005 61.2386 26.0005 64C26.0005 66.7614 28.2391 69 31.0005 69ZM31.0005 70C34.3142 70 37.0005 67.3137 37.0005 64C37.0005 60.6863 34.3142 58 31.0005 58C27.6868 58 25.0005 60.6863 25.0005 64C25.0005 67.3137 27.6868 70 31.0005 70Z" fill="#333333"/>
<path fill-rule="evenodd" clip-rule="evenodd" d="M31.0999 59.6945C32.1114 61.36 33.597 64.019 36.097 64.019C36.3961 60.9086 33.2225 58.96 31.0999 58.96C28.2225 58.96 25.7188 61.0283 25.7188 64.348C28.3324 63.9272 30.4448 61.84 31.0999 59.6945Z" fill="#AAAAAA"/>
<path fill-rule="evenodd" clip-rule="evenodd" d="M30.4125 59.0391C28.2073 59.2934 26.5013 60.7722 26.0936 62.9657C26.0324 63.2949 26.0005 63.6403 26.0005 64C26.35 63.9414 26.6855 63.8627 27.0061 63.7649C28.6457 63.2651 29.8946 62.268 30.6269 60.9175C30.5186 61.2386 30.7841 60.6277 30.6269 60.9175C30.6531 60.84 31.0768 59.8445 31.1001 59.7652C31.1465 59.8448 31.1938 59.9251 31.2419 60.0056C31.4078 60.2835 31.5841 60.5655 31.7737 60.8425C32.5547 61.984 33.5628 62.9657 35.02 63.7649C35.3339 63.84 35.6433 64 36.0005 64C36.0005 63.6736 35.9265 62.8339 35.7935 62.4939C35.2033 60.9857 33.4509 59.4721 31.8389 59.0912C31.5876 59.0318 31.3396 59 31.1001 59C30.8663 59 30.6368 59.0132 30.4125 59.0391ZM31.2491 61.829C32.2737 63.1946 33.7562 64.9862 36.0005 64.9862C36.5528 64.9862 37.0005 64.0523 37.0005 63.5C37.0005 62.0877 36.0655 60.7184 35.02 59.7652C33.9617 58.8003 32.5063 58 31.1001 58C27.7133 58 25.0005 60.4058 25.0005 64C25.0005 64.2941 25.13 64.5733 25.3545 64.7633C25.579 64.9533 25.8758 65.0349 26.1659 64.9862C28.3907 64.6131 30.1751 63.4945 31.2491 61.829Z" fill="#333333"/>
<path fill-rule="evenodd" clip-rule="evenodd" d="M33.5005 69.0892C33.8161 69.0892 34.0005 69.3259 34.0005 69.5836V72.7651C34.0005 72.8948 34.0005 73.1276 33.8181 73.2731L31.3895 75.8752C31.1702 76.0416 30.8308 76.0416 30.6115 75.8752L28.1829 73.2731C28.0005 73.0803 28.0005 72.8948 28.0005 72.7651V69.5836C28.0005 69.3259 28.2109 69.0892 28.5265 69.0892C28.8421 69.0892 28.9887 69.3259 28.9887 69.5836L29.0005 72.5391L31.0005 75.0112L33.0005 72.5391V69.5836C33.0005 69.3259 33.1849 69.0892 33.5005 69.0892Z" fill="#333333"/>
<path fill-rule="evenodd" clip-rule="evenodd" d="M49.0005 68.5C49.0005 68.2239 49.2255 68 49.5031 68H76.4978C76.7754 68 77.0005 68.2239 77.0005 68.5C77.0005 68.7761 76.7754 69 76.4978 69H49.5031C49.2255 69 49.0005 68.7761 49.0005 68.5Z" fill="#333333"/>
<path fill-rule="evenodd" clip-rule="evenodd" d="M49.0005 72.5C49.0005 72.2239 49.2316 72 49.5167 72H70.4843C70.7694 72 71.0005 72.2239 71.0005 72.5C71.0005 72.7761 70.7694 73 70.4843 73H49.5167C49.2316 73 49.0005 72.7761 49.0005 72.5Z" fill="#333333"/>
<path fill-rule="evenodd" clip-rule="evenodd" d="M15.8021 16H84.1969C85.7447 16 86.9995 17.3431 86.9995 19C86.9995 20.6569 85.7447 22 84.1969 22H15.8021C14.2543 22 12.9995 20.6569 12.9995 19C12.9995 17.3431 14.2543 16 15.8021 16ZM15.8021 16.9993C14.8233 16.9993 14.0299 17.9523 14.0299 19C14.0299 20.0477 14.8233 20.9996 15.8021 20.9996H84.1969C85.1757 20.9996 85.9692 20.0477 85.9692 19C85.9692 17.9523 85.1757 16.9993 84.1969 16.9993H15.8021Z" fill="#333333"/>
<path d="M68.0005 16H84.0671C85.6872 16 87.0005 17.3431 87.0005 19C87.0005 20.6569 85.6872 22 84.0671 22H68.0005V16Z" fill="url(#paint2_linear)"/>
<path fill-rule="evenodd" clip-rule="evenodd" d="M84.0671 17H69.0005V21H84.0671C85.1138 21 86.0005 20.1259 86.0005 19C86.0005 17.8741 85.1138 17 84.0671 17ZM68.0005 16V22H84.0671C85.6872 22 87.0005 20.6569 87.0005 19C87.0005 17.3431 85.6872 16 84.0671 16H68.0005Z" fill="#333333"/>
<defs>
<linearGradient id="paint0_linear" x1="31.0005" y1="41" x2="31.0005" y2="48" gradientUnits="userSpaceOnUse">
<stop stop-color="#FF8E3D"/>
<stop offset="1" stop-color="#FF6F3D"/>
</linearGradient>
<linearGradient id="paint1_linear" x1="31.0005" y1="71" x2="31.0005" y2="78" gradientUnits="userSpaceOnUse">
<stop stop-color="#FF8E3D"/>
<stop offset="1" stop-color="#FF6F3D"/>
</linearGradient>
<linearGradient id="paint2_linear" x1="68.0005" y1="15.7656" x2="71.3416" y2="26.759" gradientUnits="userSpaceOnUse">
<stop stop-color="#FFC671"/>
<stop offset="0.59375" stop-color="#FF7541"/>
<stop offset="1" stop-color="#FF6F3D"/>
</linearGradient>
</defs>
</svg>
