<svg width="135" height="135" viewBox="0 0 135 135" fill="none" xmlns="http://www.w3.org/2000/svg">
<path fill-rule="evenodd" clip-rule="evenodd" d="M134 44V108.145C133.97 111.977 130.632 114.973 126.877 115H8.12276C4.36823 114.973 1.02976 111.977 1 108.145V44H134Z" fill="#FEFEFE"/>
<path d="M128 21.5H7C3.96243 21.5 1.5 23.9624 1.5 27V109C1.5 112.038 3.96244 114.5 7 114.5H128C131.038 114.5 133.5 112.038 133.5 109V54.2885V27C133.5 23.9624 131.038 21.5 128 21.5Z" stroke="#333333" stroke-linecap="round"/>
<path fill-rule="evenodd" clip-rule="evenodd" d="M88 75.501C88 75.2248 88.2277 75.001 88.5086 75.001H120.491C120.772 75.001 121 75.2248 121 75.501C121 75.7771 120.772 76.001 120.491 76.001H88.5086C88.2277 76.001 88 75.7771 88 75.501Z" fill="#333333"/>
<path fill-rule="evenodd" clip-rule="evenodd" d="M48 75.501C48 75.2248 48.2258 75.001 48.5043 75.001H77.4957C77.7742 75.001 78 75.2248 78 75.501C78 75.7771 77.7742 76.001 77.4957 76.001H48.5043C48.2258 76.001 48 75.7771 48 75.501Z" fill="#333333"/>
<path fill-rule="evenodd" clip-rule="evenodd" d="M53 66.502C53 66.2258 53.2256 66.002 53.5039 66.002H120.496C120.774 66.002 121 66.2258 121 66.502C121 66.7781 120.774 67.002 120.496 67.002H53.5039C53.2256 67.002 53 66.7781 53 66.502Z" fill="#333333"/>
<path fill-rule="evenodd" clip-rule="evenodd" d="M25 84.5C25 84.2239 25.2243 84 25.5009 84H106.499C106.776 84 107 84.2239 107 84.5C107 84.7761 106.776 85 106.499 85H25.5009C25.2243 85 25 84.7761 25 84.5Z" fill="#333333"/>
<path fill-rule="evenodd" clip-rule="evenodd" d="M13.999 93.499C13.999 93.2229 14.2227 92.999 14.4985 92.999H49.4995C49.7754 92.999 49.999 93.2229 49.999 93.499C49.999 93.7752 49.7754 93.999 49.4995 93.999H14.4985C14.2227 93.999 13.999 93.7752 13.999 93.499Z" fill="#333333"/>
<path fill-rule="evenodd" clip-rule="evenodd" d="M121 102.498C121 102.222 120.776 101.998 120.5 101.998H85.4995C85.2236 101.998 85 102.222 85 102.498C85 102.774 85.2236 102.998 85.4995 102.998H120.5C120.776 102.998 121 102.774 121 102.498Z" fill="#333333"/>
<path fill-rule="evenodd" clip-rule="evenodd" d="M60 93.499C60 93.2229 60.2265 92.999 60.5059 92.999H120.494C120.774 92.999 121 93.2229 121 93.499C121 93.7752 120.774 93.999 120.494 93.999H60.5059C60.2265 93.999 60 93.7752 60 93.499Z" fill="#333333"/>
<path fill-rule="evenodd" clip-rule="evenodd" d="M74 102.498C74 102.222 73.7772 101.998 73.5024 101.998H14.4976C14.2228 101.998 14 102.222 14 102.498C14 102.774 14.2228 102.998 14.4976 102.998H73.5024C73.7772 102.998 74 102.774 74 102.498Z" fill="#333333"/>
<path fill-rule="evenodd" clip-rule="evenodd" d="M53 55C53 54.4477 53.4435 54 53.9905 54H99.0095C99.5565 54 100 54.4477 100 55C100 55.5523 99.5565 56 99.0095 56H53.9905C53.4435 56 53 55.5523 53 55Z" fill="url(#paint0_linear_125_2063)"/>
<path d="M2 27C2 24.2386 4.23858 22 7 22H128C130.761 22 133 24.2386 133 27V44H2V27Z" fill="#BDECFF"/>
<path fill-rule="evenodd" clip-rule="evenodd" d="M47 44.5C47 44.2239 47.2239 44 47.5 44H122.5C122.776 44 123 44.2239 123 44.5C123 44.7761 122.776 45 122.5 45H47.5C47.2239 45 47 44.7761 47 44.5Z" fill="#333333"/>
<path d="M120.5 28.5H16.5003C15.3286 28.5 14.3225 29.1903 13.6308 30.0792C12.9374 30.9704 12.5003 32.1319 12.5003 33.2223C12.5003 34.3443 12.9652 35.1927 13.7346 35.7428C14.4813 36.2766 15.4711 36.5 16.5003 36.5H120.5C122.709 36.5 124.5 34.7091 124.5 32.5C124.5 30.2909 122.709 28.5 120.5 28.5Z" fill="#FEFEFE" stroke="#333333"/>
<path d="M100 28.5H99.5003V29L99.5003 33.2223L99.5002 35.1771L99.5002 35.7782L99.5002 35.9425L99.5002 35.9854L99.5002 35.9963V35.9991V35.9998V35.9999L100 36L99.5002 36L99.5002 36.5H100H120.5C122.709 36.5 124.5 34.7091 124.5 32.5C124.5 30.2909 122.709 28.5 120.5 28.5H100Z" fill="url(#paint1_linear_125_2063)" stroke="#333333"/>
<path fill-rule="evenodd" clip-rule="evenodd" d="M15.6476 18H34.5986C36.387 18 39.027 18 40.0002 18C38.8202 18.5325 39.1215 20.25 39.1215 21.6V72L25.0609 60.3L11.0002 72V21.3905C11.0002 19.5266 13.0928 18 15.6476 18Z" fill="url(#paint2_linear_125_2063)"/>
<path fill-rule="evenodd" clip-rule="evenodd" d="M40.9779 17.7896C41.077 18.2503 40.8411 18.7177 40.4116 18.9115C40.3112 18.9568 40.1715 19.0579 40.1125 19.6014C40.084 19.8636 40.0829 20.1658 40.0924 20.5156C40.0952 20.6169 40.0991 20.7266 40.1031 20.8404C40.1119 21.0891 40.1215 21.3573 40.1215 21.6V72C40.1215 72.3879 39.8971 72.7408 39.5459 72.9054C39.1947 73.0701 38.78 73.0168 38.4818 72.7687L25.0609 61.6009L11.6399 72.7687C11.3417 73.0168 10.927 73.0701 10.5758 72.9054C10.2246 72.7408 10.0002 72.3879 10.0002 72V21.3905C10.0002 20.0584 10.749 18.938 11.7765 18.1884C12.8061 17.4373 14.179 17 15.6476 17H40.0002C40.4715 17 40.8787 17.329 40.9779 17.7896ZM25.0609 60.3L39.1215 72V21.6C39.1215 21.3748 39.1131 21.1393 39.1046 20.9008C39.081 20.2391 39.0566 19.5542 39.2082 19C39.3295 18.5568 39.5633 18.1972 40.0002 18H15.6476C13.0928 18 11.0002 19.5266 11.0002 21.3905V72L25.0609 60.3Z" fill="#333333"/>
<path d="M45.4949 20.0466L45.4525 20.5H44.9971H41.0002H40.5002V20V19.9883V19.9767V19.965V19.9535V19.942V19.9305V19.9191V19.9077V19.8964V19.8851V19.8738V19.8626V19.8515V19.8404V19.8293V19.8183V19.8073V19.7964V19.7855V19.7747V19.7639V19.7531V19.7424V19.7317V19.7211V19.7105V19.7V19.6895V19.679V19.6686V19.6583V19.6479V19.6377V19.6274V19.6172V19.6071V19.597V19.5869V19.5769V19.5669V19.557V19.5471V19.5372V19.5274V19.5176V19.5079V19.4982V19.4886V19.479V19.4694V19.4599V19.4504V19.441V19.4316V19.4222V19.4129V19.4036V19.3944V19.3852V19.3761V19.3669V19.3579V19.3488V19.3398V19.3309V19.322V19.3131V19.3043V19.2955V19.2867V19.278V19.2693V19.2607V19.2521V19.2436V19.235V19.2266V19.2181V19.2097V19.2014V19.193V19.1847V19.1765V19.1683V19.1601V19.152V19.1439V19.1358V19.1278V19.1198V19.1119V19.104V19.0961V19.0883V19.0805V19.0728V19.065V19.0574V19.0497V19.0421V19.0345V19.027V19.0195V19.012V19.0046V18.9972V18.9899V18.9826V18.9753V18.9681V18.9608V18.9537V18.9465V18.9394V18.9324V18.9253V18.9184V18.9114V18.9045V18.8976V18.8907V18.8839V18.8771V18.8704V18.8637V18.857V18.8504V18.8438V18.8372V18.8306V18.8241V18.8177V18.8112V18.8048V18.7984V18.7921V18.7858V18.7795V18.7733V18.7671V18.7609V18.7548V18.7487V18.7426V18.7366V18.7306V18.7246V18.7187V18.7128V18.7069V18.701V18.6952V18.6895V18.6837V18.678V18.6723V18.6667V18.661V18.6555V18.6499V18.6444V18.6389V18.6334V18.628V18.6226V18.6172V18.6119V18.6066V18.6013V18.5961V18.5909V18.5857V18.5805V18.5754V18.5703V18.5652V18.5602V18.5552V18.5502V18.5453V18.5404V18.5355V18.5306V18.5258V18.521V18.5163V18.5115V18.5068V18.5021V18.4975V18.4929V18.4883V18.4837V18.4792V18.4747V18.4702V18.4657V18.4613V18.4569V18.4526V18.4482V18.4439V18.4396V18.4354V18.4312V18.427V18.4228V18.4186V18.4145V18.4104V18.4064V18.4023V18.3983V18.3943V18.3904V18.3865V18.3825V18.3787V18.3748V18.371V18.3672V18.3634V18.3597V18.356V18.3523V18.3486V18.3449V18.3413V18.3377V18.3342V18.3306V18.3271V18.3236V18.3202V18.3167V18.3133V18.3099V18.3065V18.3032V18.2999V18.2966V18.2933V18.2901V18.2868V18.2836V18.2805V18.2773V18.2742V18.2711V18.268V18.2649V18.2619V18.2589V18.2559V18.2529V18.25V18.2471V18.2442V18.2413V18.2385V18.2356V18.2328V18.23V18.2273V18.2245V18.2218V18.2191V18.2165V18.2138V18.2112V18.2086V18.206V18.2034V18.2009V18.1984V18.1959V18.1934V18.1909V18.1885V18.1861V18.1837V18.1813V18.1789V18.1766V18.1743V18.172V18.1697V18.1675V18.1652V18.163V18.1608V18.1587V18.1565V18.1544V18.1523V18.1502V18.1481V18.146V18.144V18.142V18.14V18.138V18.136V18.1341V18.1322V18.1303V18.1284V18.1265V18.1247V18.1228V18.121V18.1192V18.1174V18.1157V18.1139V18.1122V18.1105V18.1088V18.1071V18.1055V18.1038V18.1022V18.1006V18.099V18.0974V18.0959V18.0943V18.0928V18.0913V18.0898V18.0884V18.0869V18.0855V18.084V18.0826V18.0812V18.0799V18.0785V18.0772V18.0758V18.0745V18.0732V18.0719V18.0707V18.0694V18.0682V18.0669V18.0657V18.0645V18.0634V18.0622V18.061V18.0599V18.0588V18.0577V18.0566V18.0555V18.0544V18.0534V18.0523V18.0513V18.0503V18.0493V18.0483V18.0473V18.0464V18.0454V18.0445V18.0436V18.0427V18.0418V18.0409V18.04V18.0392V18.0383V18.0375V18.0367V18.0359V18.0351V18.0343V18.0335V18.0327V18.032V18.0312V18.0305V18.0298V18.0291V18.0284V18.0277V18.0271V18.0264V18.0257V18.0251V18.0245V18.0239V18.0233V18.0227V18.0221V18.0215V18.0209V18.0204V18.0198V18.0193V18.0188V18.0183V18.0177V18.0172V18.0168V18.0163V18.0158V18.0154V18.0149V18.0145V18.014V18.0136V18.0132V18.0128V18.0124V18.012V18.0116V18.0112V18.0109V18.0105V18.0102V18.0098V18.0095V18.0092V18.0088V18.0085V18.0082V18.0079V18.0076V18.0073V18.0071V18.0068V18.0065V18.0063V18.006V18.0058V18.0056V18.0053V18.0051V18.0049V18.0047V18.0045V18.0043V18.0041V18.0039V18.0037V18.0036V18.0034V18.0032V18.0031V18.0029V18.0028V18.0026V18.0025V18.0023V18.0022V18.0021V18.002V18.0019V18.0018V18.0016V18.0015V18.0015V18.0014V18.0013V18.0012V18.0011V18.001V18.001V18.0009V18.0008V18.0008V18.0007V18.0006V18.0006V18.0005V18.0005V18.0004V18.0004V18.0004V18.0003V18.0003V18.0003V18.0002V18.0002V18.0002V18.0002V18.0001V18.0001V18.0001V18.0001V18.0001V18.0001V18.0001V18V18V18V18V18V18V18V18V17.5H41.0002H42.9969C43.786 17.5 44.4287 17.9381 44.8468 18.4238C45.059 18.6703 45.2275 18.9441 45.3401 19.2135C45.4494 19.4753 45.5209 19.7693 45.4949 20.0466Z" fill="#333333" stroke="#333333"/>
<path fill-rule="evenodd" clip-rule="evenodd" d="M25.0047 31L27.3545 38.2728L35.0002 38.255L28.8053 42.7361L31.1818 50L25.0047 45.4923L18.8187 50L21.2041 42.7361L15.0002 38.255L22.6549 38.2728L25.0047 31Z" fill="#FEFEFE"/>
<defs>
<linearGradient id="paint0_linear_125_2063" x1="51.7692" y1="53" x2="121.742" y2="53" gradientUnits="userSpaceOnUse">
<stop stop-color="#FF8E3D"/>
<stop offset="1" stop-color="#FF6F3D"/>
</linearGradient>
<linearGradient id="paint1_linear_125_2063" x1="100" y1="28.7266" x2="103.646" y2="41.7136" gradientUnits="userSpaceOnUse">
<stop stop-color="#FF8E3D"/>
<stop offset="1" stop-color="#FF6F3D"/>
</linearGradient>
<linearGradient id="paint2_linear_125_2063" x1="-9.14627" y1="12.2141" x2="22.9094" y2="60.6107" gradientUnits="userSpaceOnUse">
<stop stop-color="#FFC671"/>
<stop offset="1" stop-color="#FF6F3D"/>
</linearGradient>
</defs>
</svg>
