<svg width="135" height="135" viewBox="0 0 135 135" fill="none" xmlns="http://www.w3.org/2000/svg">
<g clip-path="url(#clip0_125_2183)">
<path fill-rule="evenodd" clip-rule="evenodd" d="M34.2149 26.1797C26.0779 34.0317 21 45.4385 21 59.6609C21 59.937 20.7761 60.1609 20.5 60.1609C20.2239 60.1609 20 59.937 20 59.6609C20 45.1887 25.1732 33.515 33.5205 25.4601C41.8644 17.4085 53.3515 13 65.9348 13C76.7071 13 84.7593 14.1548 93.6664 19.4894C93.9033 19.6313 93.9803 19.9384 93.8384 20.1753C93.6965 20.4122 93.3894 20.4892 93.1525 20.3473C84.4635 15.1433 76.617 14 65.9348 14C53.5857 14 42.3553 18.3246 34.2149 26.1797ZM101.552 25.372C101.731 25.1612 102.046 25.1349 102.257 25.3133C112.182 33.7124 116.001 46.1564 116.001 56.3035V93.5C116.001 93.7762 115.777 94 115.501 94C115.225 94 115.001 93.7762 115.001 93.5V56.3035C115.001 46.3732 111.258 34.2409 101.611 26.0766C101.4 25.8983 101.374 25.5828 101.552 25.372Z" fill="#333333"/>
<path d="M6.46112 65.5H12.5389C14.7268 65.5 16.5 67.2546 16.5 69.3826V93.6174C16.5 95.7454 14.7268 97.5 12.5389 97.5H6.46112C4.27319 97.5 2.5 95.7454 2.5 93.6174V69.3826C2.5 67.2546 4.27319 65.5 6.46112 65.5Z" fill="#BDECFF" stroke="#333333"/>
<path d="M130.432 68.5H125.568C123.307 68.5 121.5 70.4234 121.5 72.7161V93.2839C121.5 95.5875 123.307 97.5 125.568 97.5H130.432C132.693 97.5 134.5 95.5875 134.5 93.2839V72.7172C134.51 70.4102 132.69 68.5 130.432 68.5Z" fill="#BDECFF" stroke="#333333"/>
<path fill-rule="evenodd" clip-rule="evenodd" d="M115.5 103C115.776 103 116 103.224 116 103.5V113.667C116 117.058 114.61 120.139 112.369 122.376C110.129 124.613 107.043 126 103.647 126H77.5C77.2239 126 77 125.776 77 125.5C77 125.224 77.2239 125 77.5 125H103.647C106.765 125 109.6 123.727 111.663 121.668C113.725 119.609 115 116.779 115 113.667V103.5C115 103.224 115.224 103 115.5 103Z" fill="#333333"/>
<path fill-rule="evenodd" clip-rule="evenodd" d="M27.8373 19.041C17.8775 28.0735 11.999 41.1713 11.999 57.4484V64.944H10.999V57.4484C10.999 40.916 16.9776 27.5396 27.1655 18.3003C37.348 9.06583 51.6948 4 68.3758 4C104.488 4 126.001 28.9011 126.001 57.4484V68.5H125.001V57.4484C125.001 29.4628 103.945 5 68.3758 5C51.8941 5 37.8025 10.0036 27.8373 19.041Z" fill="#333333"/>
<path fill-rule="evenodd" clip-rule="evenodd" d="M88 52.4333C88 55.4008 87.5951 58.0385 86.7556 60.3366C85.916 62.6346 84.7605 64.5929 83.279 66.2215C81.7778 67.8401 79.9901 69.0991 77.8864 70.0183C75.7926 70.9375 73.4716 71.467 70.9136 71.6369L70.558 83.7865C70.558 84.306 70.2716 84.6657 69.6889 84.9255C69.1062 85.1853 68.1679 85.3052 66.8741 85.3052C66.1728 85.3052 65.5803 85.2852 65.0864 85.2352C64.5728 85.1853 64.1778 85.0953 63.8716 84.9755C63.5852 84.8556 63.358 84.6957 63.2198 84.4959C63.0815 84.286 63.0321 84.0662 63.0321 83.7865L62.7259 69.7985C62.6963 69.0191 62.7457 68.3797 62.8938 67.9001C63.042 67.4005 63.2691 67.0009 63.5753 66.6711C63.8617 66.3614 64.2568 66.1316 64.721 66.0117C65.1852 65.8918 65.7284 65.8419 66.321 65.8419H67.4173C69.5803 65.8419 71.4272 65.4921 72.958 64.8027C74.4889 64.1133 75.7333 63.1841 76.6716 62.0251C77.6296 60.8861 78.3309 59.5273 78.7556 57.9686C79.1802 56.4199 79.4074 54.7913 79.4074 53.1028C79.4074 51.1744 79.1309 49.4059 78.6074 47.7873C78.0741 46.1887 77.2741 44.7999 76.2173 43.6309C75.1407 42.4719 73.7975 41.5627 72.1975 40.9232C70.5778 40.2838 68.6716 39.954 66.4691 39.954C64.5432 39.954 62.8543 40.1639 61.4025 40.5935C59.9506 41.0231 58.6963 41.4927 57.6395 41.9923C56.5827 42.5118 55.6938 42.9814 55.0123 43.3711C54.3309 43.7808 53.8173 43.9906 53.4914 43.9906C53.2543 43.9906 53.0469 43.9406 52.8593 43.8307C52.6914 43.7308 52.5136 43.541 52.3852 43.2412C52.2667 42.9615 52.1679 42.5718 52.0988 42.0822C52.0296 41.6026 52 40.9732 52 40.2338C52 39.4245 52.0494 38.815 52.158 38.3854C52.2568 37.9757 52.4642 37.5861 52.8099 37.2763C53.1358 36.9466 53.7877 36.537 54.716 35.9974C55.6741 35.4779 56.8099 34.9983 58.163 34.5687C59.5062 34.119 60.9975 33.7593 62.6173 33.4496C64.2173 33.1599 65.8963 33 67.6346 33C71.1802 33 74.2519 33.5196 76.8099 34.5487C79.3679 35.5678 81.4815 36.9666 83.1309 38.7251C84.8 40.4836 86.0247 42.5418 86.8346 44.8998C87.6049 47.2878 88 49.7956 88 52.4333ZM72.3457 97.2449C72.3457 98.354 72.2765 99.2632 72.1284 99.9926C71.9704 100.712 71.7037 101.301 71.2889 101.751C70.8938 102.221 70.3506 102.53 69.6691 102.72C68.9679 102.91 68.1383 103 67.1309 103C66.0543 103 65.1852 102.91 64.5235 102.72C63.8617 102.53 63.3086 102.221 62.884 101.751C62.479 101.301 62.1827 100.712 62.0346 99.9926C61.8864 99.2632 61.8173 98.354 61.8173 97.2449C61.8173 96.1459 61.8864 95.2067 62.0346 94.4473C62.1926 93.688 62.479 93.0985 62.884 92.6888C63.3086 92.2592 63.8519 91.9695 64.5235 91.7796C65.1852 91.5898 66.0543 91.4999 67.1309 91.4999C68.1383 91.4999 68.9679 91.5898 69.6691 91.7796C70.3506 91.9695 70.8938 92.2592 71.2889 92.6888C71.6938 93.0985 71.9704 93.688 72.1284 94.4473C72.2765 95.2167 72.3457 96.1459 72.3457 97.2449Z" fill="url(#paint0_linear_125_2183)"/>
<path fill-rule="evenodd" clip-rule="evenodd" d="M84.0122 66.9016L84.0122 66.9015C82.414 68.6247 80.5119 69.9622 78.2876 70.9343C76.327 71.7949 74.1928 72.3259 71.887 72.5589L71.558 83.8031C71.5548 84.2566 71.4221 84.6902 71.1339 85.064C70.8557 85.4249 70.481 85.6672 70.0961 85.8388C69.3065 86.1908 68.1837 86.3052 66.8741 86.3052C66.1592 86.3052 65.5295 86.285 64.988 86.2304C64.4139 86.1744 63.9232 86.0696 63.507 85.9066L63.4962 85.9024L63.4855 85.8979C63.0955 85.7346 62.6818 85.4759 62.3974 85.0649L62.391 85.0556L62.3848 85.0461C62.1119 84.632 62.0336 84.2082 62.0321 83.7984L61.7263 69.8282C61.6958 69.0112 61.7416 68.2456 61.9366 67.6106C62.1248 66.9786 62.4237 66.4419 62.8418 65.9914C63.2724 65.5262 63.8422 65.2059 64.4709 65.0435C65.0453 64.8951 65.6796 64.8419 66.321 64.8419H67.4173C69.4759 64.8419 71.1757 64.5087 72.5474 63.8909C73.9546 63.2572 75.0668 62.4182 75.8944 61.3959L75.9003 61.3886L75.9063 61.3814C76.7644 60.3612 77.4014 59.1347 77.7907 57.7057L77.7912 57.7041C78.1925 56.2407 78.4074 54.701 78.4074 53.1028C78.4074 51.273 78.1455 49.6105 77.6574 48.0995C77.1657 46.6276 76.4352 45.3646 75.48 44.3066C74.5126 43.2665 73.298 42.4403 71.8285 41.8526C70.3494 41.269 68.5728 40.954 66.4691 40.954C64.6123 40.954 63.0233 41.1567 61.6862 41.5524C60.2758 41.9698 59.0734 42.4211 58.0737 42.8931C57.0382 43.4024 56.1742 43.859 55.5179 44.234C55.1543 44.4521 54.811 44.6321 54.496 44.7605C54.1938 44.8837 53.8437 44.9906 53.4914 44.9906C53.1053 44.9906 52.7178 44.9067 52.3539 44.6936L52.3479 44.6901L52.3479 44.6901C51.9717 44.4662 51.6646 44.0987 51.466 43.635L51.4644 43.6313L51.4644 43.6313C51.2995 43.2421 51.1845 42.7593 51.1088 42.2235C51.0297 41.6743 51 40.9901 51 40.2338C51 39.4062 51.0483 38.698 51.1872 38.1455C51.326 37.5739 51.6209 37.0078 52.1205 36.5515C52.5635 36.1135 53.3358 35.643 54.2136 35.1328L54.2263 35.1254L54.2393 35.1184C55.2597 34.565 56.4529 34.0629 57.8529 33.6179C59.2506 33.1506 60.7862 32.7816 62.4295 32.4674L62.4391 32.4656L62.4391 32.4656C64.0963 32.1655 65.835 32 67.6346 32C71.2729 32 74.477 32.5325 77.1816 33.6203C79.8556 34.6859 82.0963 36.161 83.8582 38.0388C85.6303 39.9064 86.9268 42.0898 87.7803 44.575L87.7834 44.5838L87.7863 44.5928C88.5894 47.0823 89 49.6939 89 52.4333C89 55.4894 88.5832 58.2478 87.6948 60.6797C86.816 63.0855 85.597 65.1594 84.0187 66.8944L84.0122 66.9016ZM83.1309 38.7251C81.4815 36.9666 79.3679 35.5678 76.8099 34.5487C74.2519 33.5196 71.1802 33 67.6346 33C65.8963 33 64.2173 33.1599 62.6173 33.4496C60.9975 33.7593 59.5062 34.119 58.163 34.5687C56.8099 34.9983 55.6741 35.4779 54.716 35.9974C53.7877 36.537 53.1358 36.9466 52.8099 37.2763C52.4642 37.5861 52.2568 37.9757 52.158 38.3854C52.0494 38.815 52 39.4245 52 40.2338C52 40.9732 52.0296 41.6026 52.0988 42.0822C52.1679 42.5718 52.2667 42.9615 52.3852 43.2412C52.5136 43.541 52.6914 43.7308 52.8593 43.8307C53.0469 43.9406 53.2543 43.9906 53.4914 43.9906C53.8173 43.9906 54.3309 43.7808 55.0123 43.3711C55.6938 42.9814 56.5827 42.5118 57.6395 41.9923C58.6963 41.4927 59.9506 41.0231 61.4025 40.5935C62.8543 40.1639 64.5432 39.954 66.4691 39.954C68.6716 39.954 70.5778 40.2838 72.1975 40.9232C73.7975 41.5627 75.1407 42.4719 76.2173 43.6309C77.2741 44.7999 78.0741 46.1887 78.6074 47.7873C79.1309 49.4059 79.4074 51.1744 79.4074 53.1028C79.4074 54.7913 79.1802 56.4199 78.7556 57.9686C78.3309 59.5273 77.6296 60.8861 76.6716 62.0251C75.7333 63.1841 74.4889 64.1133 72.958 64.8027C71.4272 65.4921 69.5803 65.8419 67.4173 65.8419H66.321C65.7284 65.8419 65.1852 65.8918 64.721 66.0117C64.2568 66.1316 63.8617 66.3614 63.5753 66.6711C63.2691 67.0009 63.042 67.4005 62.8938 67.9001C62.7457 68.3797 62.6963 69.0191 62.7259 69.7985L63.0321 83.7865C63.0321 84.0662 63.0815 84.286 63.2198 84.4959C63.358 84.6957 63.5852 84.8556 63.8716 84.9755C64.1778 85.0953 64.5728 85.1853 65.0864 85.2352C65.5803 85.2852 66.1728 85.3052 66.8741 85.3052C68.1679 85.3052 69.1062 85.1853 69.6889 84.9255C70.2716 84.6657 70.558 84.306 70.558 83.7865L70.9136 71.6369C73.4716 71.467 75.7926 70.9375 77.8864 70.0183C79.9901 69.0991 81.7778 67.8401 83.279 66.2215C84.7605 64.5929 85.916 62.6346 86.7556 60.3366C87.5951 58.0385 88 55.4008 88 52.4333C88 49.7956 87.6049 47.2878 86.8346 44.8998C86.0247 42.5418 84.8 40.4836 83.1309 38.7251ZM73.1068 100.199L73.1051 100.207C72.9236 101.034 72.5999 101.797 72.0393 102.412C71.4846 103.063 70.7522 103.457 69.9375 103.684L69.9305 103.686C69.1169 103.906 68.1931 104 67.1309 104C66.0119 104 65.0375 103.908 64.2477 103.681C63.4479 103.452 62.7181 103.059 62.1423 102.422L62.1409 102.42C61.6042 101.824 61.2351 101.068 61.0551 100.194L61.0546 100.192C60.8879 99.371 60.8173 98.3881 60.8173 97.2449C60.8173 96.1109 60.8881 95.1017 61.0531 94.2558L61.0555 94.2436L61.0555 94.2436C61.2402 93.3564 61.5943 92.571 62.1728 91.9858C62.7468 91.4051 63.4559 91.0425 64.2494 90.8179C65.039 90.5917 66.0128 90.4999 67.1309 90.4999C68.1931 90.4999 69.1169 90.5941 69.9305 90.8144L69.9375 90.8163C70.7305 91.0372 71.4556 91.399 72.0128 91.9988C72.5892 92.5883 72.9264 93.3736 73.1074 94.2436L73.1089 94.2509L73.1104 94.2582C73.2747 95.1118 73.3457 96.1095 73.3457 97.2449C73.3457 98.3881 73.2751 99.371 73.1084 100.192L73.1068 100.199ZM71.2889 92.6888C70.8938 92.2592 70.3506 91.9695 69.6691 91.7796C68.9679 91.5898 68.1383 91.4999 67.1309 91.4999C66.0543 91.4999 65.1852 91.5898 64.5235 91.7796C63.8519 91.9695 63.3086 92.2592 62.884 92.6888C62.479 93.0985 62.1926 93.688 62.0346 94.4473C61.8864 95.2067 61.8173 96.1459 61.8173 97.2449C61.8173 98.354 61.8864 99.2632 62.0346 99.9926C62.1827 100.712 62.479 101.301 62.884 101.751C63.3086 102.221 63.8617 102.53 64.5235 102.72C65.1852 102.91 66.0543 103 67.1309 103C68.1383 103 68.9679 102.91 69.6691 102.72C70.3506 102.53 70.8938 102.221 71.2889 101.751C71.7037 101.301 71.9704 100.712 72.1284 99.9926C72.2765 99.2632 72.3457 98.354 72.3457 97.2449C72.3457 96.1459 72.2765 95.2167 72.1284 94.4473C71.9704 93.688 71.6938 93.0985 71.2889 92.6888Z" fill="#333333"/>
<path d="M77.5 124.999C77.4995 121.979 75.0267 119.5 71.9933 119.5H63.0067C59.984 119.5 57.5 121.969 57.5 125C57.5 128.02 59.9729 130.5 63.0067 130.5H71.9933C75.0251 130.5 77.5103 128.022 77.5 124.999ZM77.5 124.999C77.5 124.999 77.5 125 77.5 125H77L77.5 124.998C77.5 124.999 77.5 124.999 77.5 124.999Z" fill="#BDECFF" stroke="#333333"/>
</g>
<defs>
<linearGradient id="paint0_linear_125_2183" x1="52.0001" y1="30.2656" x2="110.237" y2="61.3862" gradientUnits="userSpaceOnUse">
<stop stop-color="#FF8E3D"/>
<stop offset="1" stop-color="#FF6F3D"/>
</linearGradient>
<clipPath id="clip0_125_2183">
<rect width="135" height="135" fill="white"/>
</clipPath>
</defs>
</svg>
