<svg width="135" height="135" viewBox="0 0 135 135" fill="none" xmlns="http://www.w3.org/2000/svg">
<g clip-path="url(#clip0_125_2088)">
<path fill-rule="evenodd" clip-rule="evenodd" d="M66.9963 98.6313C91.781 98.6313 111.994 78.4993 111.994 53.8136C111.994 29.128 91.781 8.99597 66.9963 8.99597C42.2116 8.99597 21.9988 29.128 21.9988 53.8136C21.9988 78.4993 42.2116 98.6313 66.9963 98.6313Z" fill="#BDECFF"/>
<path fill-rule="evenodd" clip-rule="evenodd" d="M27.0567 32.1708C34.7214 17.8209 49.9836 8 67.4963 8C85.0091 8 99.2713 17.8209 106.936 32.1708C107.065 32.4131 106.972 32.7133 106.726 32.8412C106.481 32.9692 106.177 32.8764 106.048 32.634C98.5492 18.595 84.6202 8.9924 67.4963 8.9924C50.3724 8.9924 35.4434 18.595 27.9448 32.634C27.8153 32.8764 27.5116 32.9692 27.2664 32.8412C27.0211 32.7133 26.9273 32.4131 27.0567 32.1708Z" fill="#333333"/>
<path fill-rule="evenodd" clip-rule="evenodd" d="M29.2811 72.7706C31.7725 72.7706 34.0852 71.9303 36.0605 70.477C36.924 69.8443 37.7181 69.0831 38.4328 68.2328C39.743 66.6609 40.7654 64.7529 41.4105 62.6273C41.8969 61.006 42.1649 59.2561 42.1649 57.4272C42.1649 56.7944 42.1351 56.1617 42.0657 55.5488C39.1375 55.2917 29.1421 54.7084 25.9063 45.5834C24.5563 48.8854 23.1568 50.576 17.0523 52.6027C16.6354 54.1252 16.3972 55.7465 16.3972 57.4272C16.3972 58.4257 16.4766 59.3945 16.6255 60.3436C17.1218 63.3886 18.3626 66.1172 20.1294 68.2328C20.9334 69.2017 21.8565 70.042 22.8491 70.7341C24.7548 72.0292 26.9485 72.7706 29.2811 72.7706Z" fill="#FEFEFE"/>
<path fill-rule="evenodd" clip-rule="evenodd" d="M48.5277 80.5405C47.5351 80.0165 46.4929 79.5123 45.5102 79.0773C44.1206 78.4545 42.8302 77.9503 41.927 77.624C41.2421 78.8796 40.5473 79.9374 39.773 81.1336C39.2767 81.885 38.8499 82.5474 38.4231 83.1603C38.0261 83.7337 37.6787 84.1984 37.3511 84.5444C37.0732 84.841 36.8151 85.0585 36.5471 85.1969C36.3089 85.3254 36.0607 85.3847 35.7927 85.3748C35.6538 85.3748 35.5148 85.3452 35.3759 85.3056C35.2369 85.2661 35.0979 85.1969 34.9689 85.1079C34.8101 85.0091 34.6413 84.8805 34.4726 84.7322C34.3039 84.5839 34.1252 84.3961 33.9267 84.1786C33.5991 83.8227 33.2815 83.4569 32.9539 83.101C32.8745 82.9824 32.7951 82.8835 32.7058 82.7748C32.7852 82.8835 32.8646 83.0021 32.944 83.1208L32.6859 83.714C32.6661 83.7535 32.6462 83.8029 32.6264 83.8425L31.604 86.2349C32.0407 87.1741 32.408 88.2616 32.7157 89.4579L33.1922 91.7119C33.4502 93.1949 33.6487 94.7866 33.7976 96.3486C33.9763 98.1973 34.0954 100.056 34.1649 101.687C34.2443 103.338 34.284 104.742 34.3039 105.75L34.3336 106.927V108.153C38.4033 107.757 42.056 107.115 45.54 106.067C46.8105 105.661 47.3962 105.464 48.9545 104.88C51.6742 103.813 54.3244 102.448 57.0342 100.718L57.9772 100.145L57.4114 96.141C57.0739 94.1934 56.2997 90.8815 55.188 87.9947C54.7116 86.8281 54.1557 85.6714 53.5006 84.5246C53.1333 83.9611 52.7462 83.4767 52.3293 83.1109C51.3765 82.2409 50.0364 81.361 48.5277 80.5405Z" fill="#EFEFEF"/>
<path fill-rule="evenodd" clip-rule="evenodd" d="M24.8346 101.668C24.914 99.9476 25.0331 98.1088 25.2118 96.2897C25.2614 95.8053 25.311 95.3307 25.3607 94.8463C25.5195 93.482 25.718 92.1276 25.9661 90.8621C26.2937 89.1815 26.7205 87.6788 27.2466 86.5616L27.4451 86.1464L26.7801 84.7623L26.0059 83.1805C25.9661 83.2201 25.9364 83.2596 25.8967 83.2992C25.6386 83.5958 25.3706 83.8825 25.1125 84.179C24.9239 84.3965 24.7353 84.5844 24.5666 84.7327C24.4078 84.881 24.239 85.0095 24.0802 85.1083C23.9413 85.1874 23.8023 85.2566 23.6633 85.3061C23.5343 85.3456 23.3953 85.3753 23.2464 85.3753C22.9784 85.3852 22.7303 85.3258 22.4921 85.1973C22.234 85.0589 21.966 84.8414 21.6881 84.5448C21.4399 84.2779 21.1719 83.9319 20.8741 83.5266C20.5764 83.1113 20.2587 82.6467 19.9113 82.1227C18.9287 80.6398 17.9559 79.1865 17.0527 77.6541C13.1021 79.0184 8.93326 81.0352 6.65029 83.0817C4.00007 85.4643 2.14392 92.7801 1.56822 96.1117L1.00244 100.116L1.9454 100.689C4.65518 102.419 7.3054 103.783 10.0251 104.851C11.5835 105.434 12.1691 105.632 13.4396 106.038C16.9236 107.085 20.5764 107.728 24.6361 108.124V106.908C24.6361 106.739 24.646 106.562 24.646 106.374L24.6658 105.761C24.6658 105.701 24.6658 105.642 24.6658 105.583C24.7155 104.416 24.7651 103.082 24.8346 101.668Z" fill="#EFEFEF"/>
<path fill-rule="evenodd" clip-rule="evenodd" d="M34.3541 108.163V106.937L34.3243 105.761C34.2945 104.762 34.2548 103.348 34.1853 101.697C34.1059 100.056 33.9967 98.2075 33.8181 96.3587C33.6692 94.7967 33.4706 93.205 33.2125 91.7221L32.7361 89.468C32.4284 88.2718 32.071 87.1843 31.6243 86.2451L32.9445 83.121C28.9243 77.3574 29.9269 77.8714 25.9861 83.1606L26.7703 84.7622L27.4353 86.1462L27.2368 86.5615C26.7107 87.6786 26.2839 89.1912 25.9563 90.862C25.7081 92.1274 25.5096 93.4818 25.3508 94.8461C25.3011 95.3207 25.2416 95.8051 25.2019 96.2895C25.0232 98.1086 24.914 99.9474 24.8247 101.668C24.7552 103.081 24.7155 104.416 24.6758 105.583C24.6758 105.642 24.6758 105.701 24.6758 105.761L24.6559 106.373C24.6559 106.561 24.646 106.739 24.646 106.907V108.123C24.6559 108.123 24.6658 108.123 24.6758 108.123C24.914 108.143 25.1522 108.173 25.3905 108.193C28.16 108.43 31.2173 108.43 34.3541 108.163Z" fill="#BDECFF"/>
<path fill-rule="evenodd" clip-rule="evenodd" d="M17.2014 78.0889C15.1468 78.8007 13.0325 79.6904 11.1665 80.6692C9.49891 81.5392 8.01995 82.4882 6.9678 83.4274C5.94543 84.337 5.03224 86.0671 4.27787 88.0147C3.15624 90.8916 2.37209 94.2331 2.03461 96.1807L1.51846 99.8683L2.21328 100.283C3.55328 101.144 4.88335 101.905 6.21343 102.587C7.5435 103.269 8.86365 103.872 10.2136 104.396C10.9878 104.683 11.5238 104.881 12.0102 105.049C12.5263 105.227 12.9829 105.375 13.5884 105.573C15.3155 106.087 17.0922 106.512 18.9285 106.848C20.6159 107.154 22.3629 107.402 24.1794 107.58C24.1794 106.284 24.2389 104.979 24.2786 103.684C24.2985 103.022 24.3282 102.33 24.3679 101.628C24.4076 100.748 24.4573 99.8485 24.5168 98.9686C24.5764 98.0887 24.6459 97.1693 24.7352 96.2301L24.8841 94.7769C24.9635 94.0552 25.0628 93.3532 25.162 92.6711C25.2613 92.0186 25.3705 91.376 25.4896 90.7531C25.6682 89.8733 25.8668 89.0329 26.0951 88.2717C26.3035 87.5599 26.5517 86.9074 26.8097 86.3439L26.909 86.1264L26.3432 84.94L25.4399 83.0814L25.6087 82.854C26.1844 82.073 26.641 81.4205 27.0281 80.8768C28.1199 79.3246 28.6857 78.5041 29.4798 78.5041C30.3334 78.4942 31.0183 79.4828 32.4576 81.5787L33.47 83.0419L32.1201 86.2154C32.3087 86.6405 32.4874 87.0853 32.6462 87.5599C32.8348 88.1234 33.0134 88.7166 33.1722 89.3394L33.6586 91.6231C33.7777 92.3349 33.8968 93.0863 33.9961 93.8574C34.1053 94.6681 34.1946 95.4788 34.274 96.2993C34.3634 97.2583 34.4428 98.1777 34.5023 99.0675C34.5619 99.9474 34.6115 100.827 34.6512 101.668C34.6909 102.478 34.7207 103.249 34.7405 103.941L34.7902 105.731C34.81 106.69 34.8199 107.619 34.8199 108.578L34.3832 108.618C32.8149 108.746 31.2565 108.815 29.7279 108.815C28.2192 108.815 26.7502 108.756 25.3407 108.637C24.9536 108.608 24.5764 108.568 24.1992 108.539V108.529C22.3034 108.341 20.4869 108.084 18.7499 107.767C16.8639 107.421 15.0574 106.996 13.3105 106.472H13.3005C12.6454 106.265 12.169 106.106 11.6826 105.938C11.1764 105.76 10.6305 105.563 9.85624 105.276C8.48646 104.742 7.12661 104.119 5.76676 103.427C4.40691 102.725 3.05698 101.944 1.6872 101.074L0.496094 100.353C0.694612 98.9192 0.932835 97.4659 1.10158 96.0324C1.44898 94.0453 2.24306 90.6345 3.39446 87.6884C4.19846 85.6222 5.19106 83.7636 6.33254 82.7453C7.44424 81.7468 8.98276 80.7581 10.7297 79.8486C12.6454 78.8501 14.7994 77.9406 16.8937 77.2189L17.2014 78.0889ZM25.1223 107.688L25.43 107.718C26.8097 107.846 28.249 107.906 29.7379 107.896C31.0779 107.896 32.4675 107.837 33.8869 107.728V106.937L33.8671 105.77L33.8174 103.981C33.7976 103.309 33.7678 102.557 33.7281 101.717C33.6884 100.916 33.6388 100.046 33.5792 99.1367C33.5197 98.2173 33.4402 97.2978 33.3608 96.3982C33.2814 95.5974 33.1921 94.7867 33.0928 93.9958C32.9936 93.2643 32.8844 92.5327 32.7554 91.8011L32.2789 89.5866C32.13 88.9934 31.9613 88.42 31.7727 87.8861C31.594 87.372 31.4054 86.8876 31.197 86.4427L31.1077 86.2549L32.4179 83.1803L31.6933 82.1323C30.4525 80.3232 29.857 79.463 29.4996 79.4729C29.2019 79.4729 28.7155 80.1551 27.8122 81.4502C27.4549 81.9643 27.038 82.5574 26.5417 83.2297L27.1968 84.5742L27.9611 86.1659L27.6733 86.7789C27.4251 87.293 27.2068 87.9059 27.0082 88.5782C26.7899 89.3098 26.6013 90.1204 26.4226 90.9706C26.3035 91.5737 26.1943 92.2064 26.0951 92.849C25.9859 93.5411 25.8965 94.2331 25.8171 94.9251L25.6682 96.3587C25.5888 97.2385 25.5094 98.1481 25.4499 99.0675C25.3903 99.9869 25.3407 100.867 25.301 101.707C25.2712 102.419 25.2414 103.111 25.2116 103.754C25.1719 105.059 25.1223 106.373 25.1223 107.688ZM55.6247 90.5159C55.2971 89.4877 54.91 88.4595 54.4534 87.4314C54.0068 86.4131 53.4807 85.4047 52.8851 84.3963C52.3392 83.4769 50.9198 82.4487 49.2225 81.47C46.6616 79.9969 43.5051 78.6919 41.7582 78.0691L42.0758 77.1892C43.8525 77.8219 47.0685 79.1566 49.6989 80.6692C51.5154 81.7171 53.0638 82.854 53.6991 83.9217C54.3145 84.9598 54.8505 86.0077 55.317 87.0557C55.7736 88.0937 56.1706 89.1615 56.518 90.2391L55.6247 90.5159Z" fill="#333333"/>
<path fill-rule="evenodd" clip-rule="evenodd" d="M100.639 108.163V106.937L100.668 105.761C100.698 104.762 100.738 103.348 100.807 101.697C100.887 100.056 100.996 98.2075 101.175 96.3587C101.324 94.7967 101.522 93.205 101.78 91.7221L102.257 89.468C102.564 88.2718 102.922 87.1843 103.368 86.2451L102.038 83.121C106.059 77.3574 105.056 77.8714 108.997 83.1606L108.222 84.7622L107.557 86.1462L107.746 86.5615C108.272 87.6786 108.699 89.1912 109.027 90.862C109.275 92.1274 109.473 93.4818 109.632 94.8461C109.692 95.3207 109.741 95.8051 109.781 96.2895C109.95 98.1086 110.069 99.9474 110.158 101.668C110.228 103.081 110.267 104.416 110.307 105.583C110.307 105.642 110.307 105.701 110.307 105.761L110.327 106.373C110.327 106.561 110.337 106.739 110.337 106.907V108.123C110.327 108.123 110.317 108.123 110.317 108.123C110.079 108.143 109.841 108.173 109.602 108.193C106.823 108.43 103.775 108.43 100.639 108.163Z" fill="#BDECFF"/>
<path fill-rule="evenodd" clip-rule="evenodd" d="M86.4647 80.5405C87.4573 80.0165 88.4995 79.5123 89.4822 79.0773C90.8718 78.4545 92.1622 77.9503 93.0654 77.624C93.7503 78.8796 94.4352 79.9374 95.2194 81.1336C95.7157 81.885 96.1425 82.5474 96.5693 83.1603C96.9663 83.7337 97.3137 84.1984 97.6413 84.5444C97.9192 84.841 98.1773 85.0585 98.4453 85.1969C98.6835 85.3254 98.9317 85.3847 99.1997 85.3748C99.3386 85.3748 99.4776 85.3452 99.6166 85.3056C99.7555 85.2661 99.8945 85.1969 100.024 85.1079C100.182 85.0091 100.351 84.8805 100.52 84.7322C100.689 84.5839 100.867 84.3961 101.066 84.1786C101.393 83.8227 101.711 83.4569 102.038 83.101C102.118 82.9824 102.197 82.8835 102.287 82.7748C102.207 82.8835 102.128 83.0021 102.048 83.1208L102.306 83.714C102.326 83.7535 102.346 83.8029 102.366 83.8425L103.388 86.2349C102.952 87.1741 102.584 88.2616 102.277 89.4579L101.8 91.7119C101.542 93.1949 101.344 94.7866 101.195 96.3486C101.016 98.1973 100.897 100.056 100.828 101.687C100.748 103.338 100.708 104.742 100.689 105.75L100.659 106.927V108.153C96.5891 107.757 92.9364 107.115 89.4623 106.067C88.1918 105.661 87.6062 105.464 86.0478 104.88C83.3281 103.813 80.6779 102.448 77.9681 100.718L77.0251 100.145L77.5909 96.141C77.9284 94.1934 78.7026 90.8815 79.8143 87.9947C80.2908 86.8281 80.8466 85.6714 81.5017 84.5246C81.869 83.9611 82.2561 83.4767 82.673 83.1109C83.616 82.2409 84.946 81.361 86.4647 80.5405Z" fill="#EFEFEF"/>
<path fill-rule="evenodd" clip-rule="evenodd" d="M109.781 96.2897C109.594 94.4713 109.378 92.6576 109.026 90.8621C108.708 89.2283 108.245 87.6617 107.557 86.1464L108.222 84.7623L108.996 83.1805C109.036 83.2201 109.066 83.2596 109.106 83.2992C109.364 83.5958 109.632 83.8825 109.89 84.179C110.078 84.3965 110.267 84.5844 110.436 84.7327C110.604 84.881 110.763 85.0095 110.922 85.1083C111.061 85.1874 111.2 85.2566 111.339 85.3061C111.468 85.3456 111.607 85.3753 111.756 85.3753C112.024 85.3852 112.272 85.3258 112.51 85.1973C112.768 85.0589 113.036 84.8414 113.314 84.5448C113.562 84.2779 113.83 83.9319 114.128 83.5266C114.426 83.1113 114.743 82.6467 115.091 82.1227C116.064 80.6398 117.036 79.1865 117.95 77.6541C121.9 79.0184 126.069 81.0451 128.352 83.0916C131.002 85.4741 132.858 92.79 133.434 96.1216L134 100.126L133.057 100.699C126.166 105.099 118.463 107.345 110.366 108.133C110.366 104.191 110.166 100.214 109.781 96.2897Z" fill="#EFEFEF"/>
<path fill-rule="evenodd" clip-rule="evenodd" d="M22.2834 76.1906C25.2812 79.3047 33.8776 79.196 36.7265 76.1906C36.1209 74.411 36.0812 72.5623 36.0614 70.7136C36.0614 70.7037 36.0614 70.5752 36.0614 70.4763C34.0959 71.9296 31.7732 72.7699 29.2816 72.7699C26.939 72.7699 24.7452 72.0285 22.8592 70.7334C22.8592 70.8026 22.8592 70.8619 22.8592 70.8619C22.7698 72.7007 22.6904 74.5495 22.2834 76.1906Z" fill="#FEFEFE"/>
<path fill-rule="evenodd" clip-rule="evenodd" d="M17.0525 77.6436C17.9657 79.176 18.9384 80.6293 19.9112 82.1122C20.2586 82.6362 20.5762 83.1107 20.874 83.526C21.1717 83.9313 21.4397 84.2674 21.6879 84.5442C21.9658 84.8408 22.2338 85.0583 22.4919 85.1967C22.7301 85.3253 22.9783 85.3846 23.2463 85.3747C23.3852 85.3747 23.5242 85.345 23.6632 85.3055C23.8021 85.2561 23.9411 85.1967 24.08 85.1078C24.2389 85.0089 24.4076 84.8804 24.5664 84.7321C24.7352 84.5739 24.9237 84.3861 25.1123 84.1785C25.3704 83.8819 25.6384 83.5952 25.8965 83.2986C25.9362 83.259 25.966 83.2195 26.0057 83.1799L25.9957 83.1602C27.574 81.0445 28.3581 79.7 28.9835 79.2057C29.0529 79.1068 29.1224 79.008 29.1919 78.919H29.9066C30.0654 79.1266 30.2143 79.3144 30.3433 79.5121C30.8793 80.0954 31.584 81.1632 32.7057 82.7746C32.795 82.8834 32.8744 82.9822 32.9538 83.1009C33.2814 83.4568 33.599 83.8226 33.9266 84.1785C34.1251 84.396 34.3037 84.5838 34.4725 84.7321C34.6412 84.8804 34.8 85.0089 34.9688 85.1078C35.1077 85.1869 35.2467 85.2561 35.3757 85.3055C35.5048 85.345 35.6438 85.3747 35.7926 85.3747C36.0606 85.3846 36.3088 85.3253 36.547 85.1967C36.815 85.0583 37.0731 84.8408 37.351 84.5442C37.6686 84.1982 38.026 83.7336 38.423 83.1602C38.8498 82.5472 39.2766 81.8947 39.7729 81.1335C40.5571 79.9373 41.2519 78.8794 41.9269 77.6239C41.8078 77.5843 41.6787 77.5349 41.5596 77.4954C41.3015 77.4064 41.0534 77.3174 40.8052 77.2383C40.7556 77.2185 40.706 77.2087 40.6563 77.1889C39.892 76.9417 39.1575 76.7242 38.5024 76.5562C37.8572 76.398 37.2617 76.2695 36.7356 76.1904C33.8869 79.1958 25.291 79.3045 22.2934 76.1904C21.7673 76.2695 21.1717 76.398 20.5266 76.5562C19.8615 76.7242 19.1369 76.9417 18.3726 77.1889C17.926 77.3372 17.4892 77.4954 17.0525 77.6436Z" fill="#FEFEFE"/>
<path fill-rule="evenodd" clip-rule="evenodd" d="M42.1056 77.2485C44.1999 77.9702 46.3539 78.8798 48.2696 79.8783C50.0165 80.7878 51.555 81.7764 52.6668 82.775C53.8082 83.8031 54.8008 85.6519 55.6048 87.728C56.7562 90.684 57.5503 94.0848 57.8977 96.0818C58.0665 97.5154 58.3047 98.9686 58.5131 100.402L57.3121 101.124C55.9522 101.994 54.5924 102.775 53.2325 103.477C51.8727 104.179 50.5128 104.792 49.153 105.325H49.143C48.3589 105.612 47.8229 105.81 47.3167 105.988C46.8204 106.156 46.3439 106.314 45.6988 106.522H45.6888C43.9319 107.046 42.1254 107.481 40.2494 107.827C38.3734 108.173 36.4279 108.43 34.3733 108.628L34.2839 107.698C36.3088 107.5 38.2245 107.243 40.0707 106.907C41.907 106.571 43.6838 106.146 45.4109 105.632C46.0362 105.434 46.4928 105.286 46.999 105.108C47.4953 104.94 48.0214 104.742 48.7956 104.456C50.1456 103.922 51.4756 103.319 52.7958 102.646C54.1259 101.964 55.446 101.193 56.7959 100.333L57.4907 99.9177L56.9647 96.2301C56.6272 94.2727 55.843 90.941 54.7214 88.0542C53.967 86.1066 53.0539 84.3765 52.0315 83.467C50.9793 82.5179 49.5004 81.5787 47.8229 80.7087C45.9568 79.73 43.8426 78.8402 41.7879 78.1284L42.1056 77.2485Z" fill="#333333"/>
<path fill-rule="evenodd" clip-rule="evenodd" d="M22.1147 76.695C21.9261 76.7246 21.7375 76.7642 21.539 76.8037C21.2412 76.863 20.9335 76.9421 20.6258 77.0212C20.2883 77.1102 19.9508 77.1992 19.6134 77.298C19.266 77.3969 18.8987 77.5155 18.5017 77.6441L17.7473 77.9011C18.4421 79.0479 19.1865 80.1651 19.931 81.2921L20.8045 82.5971C20.9434 82.8047 21.0923 83.0222 21.2611 83.2496C21.41 83.4473 21.539 83.6351 21.668 83.7933C21.7971 83.9515 21.9162 84.0998 22.0353 84.2184C22.1544 84.3469 22.2735 84.4656 22.4025 84.5644C22.5117 84.6534 22.611 84.7226 22.7103 84.7819C22.7897 84.8215 22.879 84.861 22.9683 84.8808C23.0577 84.9006 23.147 84.9105 23.2363 84.9105L23.3753 84.9006L23.5143 84.8709L23.6731 84.8017C23.7227 84.7819 23.7723 84.7523 23.8319 84.7127C23.9014 84.6732 23.9708 84.6238 24.0304 84.5743C24.1098 84.515 24.1793 84.4557 24.2488 84.3964L24.4969 84.1591C24.5863 84.0701 24.6756 83.9713 24.755 83.8823C25.1421 83.4473 25.5292 83.0123 25.9163 82.5872C26.3729 82.083 26.8097 81.5986 27.2265 81.0548C27.5045 80.689 27.7526 80.2936 27.9908 79.8981C28.1794 79.5818 28.368 79.2654 28.5963 78.9589C26.0454 78.7909 23.5738 78.0593 22.1147 76.695ZM21.3504 75.8843C21.6581 75.8151 21.946 75.7657 22.214 75.7261L22.4522 75.6866L22.7698 76.0029C24.219 77.3672 26.8891 78.0197 29.5591 78.0099C32.2292 78 34.8695 77.3178 36.2393 76.0029L36.547 75.6866L36.7852 75.7261C37.0433 75.7657 37.3311 75.8151 37.6388 75.8744C37.9664 75.9436 38.284 76.0128 38.6017 76.0919C38.959 76.1809 39.3163 76.2798 39.6737 76.3885C40.0409 76.4973 40.4181 76.6159 40.7854 76.7345C41.3809 76.9026 42.0063 77.1497 42.6018 77.3574L42.3437 77.8418C42.0063 78.4646 41.6588 79.0578 41.2916 79.6411C40.9045 80.2639 40.5471 80.8077 40.17 81.3811L39.4652 82.4488C39.2468 82.775 39.0384 83.0914 38.8101 83.4176C38.6116 83.7043 38.423 83.9614 38.2245 84.2085C38.0458 84.4458 37.8671 84.6534 37.6885 84.8412C37.5396 84.9994 37.3907 85.1477 37.2418 85.2664C37.0929 85.3949 36.9341 85.5036 36.7654 85.5926C36.6065 85.6717 36.4477 85.731 36.2889 85.7706C36.1301 85.8101 35.9614 85.8299 35.7827 85.82C35.6934 85.82 35.5941 85.8101 35.5147 85.7903C35.4254 85.7804 35.336 85.7508 35.2467 85.7211H35.2368C35.1474 85.6915 35.0581 85.6519 34.9688 85.6124C34.8894 85.5728 34.8 85.5333 34.7206 85.474C34.6313 85.4147 34.532 85.3455 34.4427 85.2762C34.3534 85.207 34.2541 85.1279 34.1648 85.0489C34.0754 84.9698 33.9861 84.8808 33.8769 84.772L33.5791 84.4557C33.3012 84.1393 32.8049 83.6648 32.5667 83.3287C32.4178 83.1112 32.2391 82.9134 32.0704 82.7157C31.8818 82.4982 31.6932 82.2807 31.5145 82.0237C31.1572 81.5491 30.8594 81.1042 30.5716 80.6594C30.2937 80.2244 30.0058 79.7993 29.6683 79.3445H29.4202C29.1919 79.6609 28.9934 79.9871 28.7948 80.3232C28.5467 80.7385 28.2886 81.1537 27.971 81.5689C27.5442 82.1324 27.0876 82.6366 26.6012 83.1606L25.4498 84.4458C25.3505 84.5644 25.2513 84.6633 25.152 84.7622L24.8642 85.039C24.7649 85.128 24.6756 85.1972 24.5863 85.2664C24.487 85.3454 24.3977 85.4048 24.2984 85.4641C24.219 85.5135 24.1396 85.5531 24.0503 85.5926C23.9708 85.6322 23.8815 85.6717 23.7922 85.7014H23.7723C23.683 85.731 23.5937 85.7508 23.5043 85.7706C23.4249 85.7804 23.3257 85.7903 23.2363 85.8002C23.0577 85.8002 22.8889 85.7903 22.7301 85.7508C22.5713 85.7112 22.4125 85.6519 22.2537 85.5728C22.0948 85.4839 21.936 85.385 21.7772 85.2565C21.6383 85.1378 21.4894 84.9994 21.3305 84.8215C21.1916 84.6831 21.0526 84.515 20.9137 84.3371C20.7747 84.1591 20.6258 83.9614 20.4769 83.7637C20.3479 83.5857 20.1891 83.3484 20.0104 83.0914L19.5042 82.34L19.127 81.7666C18.2734 80.4715 17.4297 79.1962 16.6257 77.8517L16.3279 77.3574C16.9433 77.1399 17.5885 76.9421 18.184 76.7147C18.5612 76.5961 18.9384 76.4775 19.3255 76.3588C19.7027 76.2501 20.0501 76.1512 20.3777 76.0721C20.735 76.0227 21.0526 75.9436 21.3504 75.8843ZM30.5021 78.9293C30.8297 79.3742 31.0977 79.7795 31.3657 80.1947C31.6436 80.6099 31.9116 81.035 32.2689 81.5096L32.2788 81.5195C32.4277 81.737 32.6064 81.9446 32.7851 82.1423C32.9737 82.3598 33.1523 82.5674 33.331 82.8146L34.274 83.8625L34.542 84.1591C34.6214 84.2382 34.7008 84.3173 34.7703 84.3865C34.8497 84.4557 34.9191 84.515 34.9886 84.5743C35.0581 84.6336 35.1276 84.6732 35.1971 84.7226L35.3559 84.8116C35.4055 84.8314 35.4551 84.861 35.5048 84.8709L35.6537 84.9006L35.7926 84.9105C35.882 84.9105 35.9713 84.9006 36.0606 84.8808C36.15 84.861 36.2294 84.8314 36.3187 84.7819C36.418 84.7325 36.5271 84.6534 36.6363 84.5644C36.7455 84.4755 36.8745 84.3568 36.9937 84.2184C37.1425 84.0602 37.3014 83.8724 37.4701 83.645C37.6388 83.4275 37.8175 83.1804 38.016 82.8937C38.2145 82.607 38.4329 82.2906 38.6612 81.9446L39.356 80.8769C39.763 80.254 40.1402 79.6806 40.4677 79.1567C40.7258 78.7414 40.974 78.3262 41.2221 77.8813L40.6464 77.6836L40.4777 77.6342C40.0905 77.5056 39.7233 77.3969 39.3858 77.298C39.0185 77.1893 38.6711 77.0904 38.3535 77.0113C38.016 76.9322 37.7083 76.8532 37.4304 76.7938C37.2319 76.7543 37.0532 76.7147 36.8646 76.6851C35.4948 78.0098 33.0531 78.7711 30.5021 78.9293Z" fill="#333333"/>
<path fill-rule="evenodd" clip-rule="evenodd" d="M118.088 77.2093C120.183 77.931 122.337 78.8406 124.252 79.8391C125.999 80.7486 127.538 81.7372 128.65 82.7358C129.791 83.754 130.774 85.6127 131.588 87.6888C132.739 90.6349 133.533 94.0456 133.881 96.0328C134.049 97.4663 134.288 98.9196 134.496 100.353L133.295 101.085C131.925 101.955 130.575 102.736 129.215 103.438C127.856 104.139 126.506 104.752 125.126 105.286C124.352 105.573 123.806 105.771 123.3 105.949C122.813 106.117 122.347 106.265 121.682 106.483H121.672C119.915 107.007 118.108 107.442 116.232 107.778C114.495 108.094 112.679 108.341 110.783 108.539V108.549L109.641 108.658C108.232 108.776 106.763 108.845 105.254 108.835C103.726 108.835 102.167 108.766 100.599 108.638L100.162 108.598C100.162 107.639 100.172 106.71 100.192 105.751L100.242 103.952C100.261 103.26 100.291 102.488 100.331 101.678C100.371 100.837 100.42 99.9576 100.48 99.0777C100.539 98.1979 100.609 97.2685 100.708 96.3096C100.788 95.4989 100.877 94.6784 100.986 93.8677C101.085 93.0966 101.204 92.3452 101.324 91.6334L101.81 89.3497C101.969 88.7367 102.137 88.1337 102.336 87.5701C102.495 87.0956 102.673 86.6507 102.862 86.2256L101.512 83.0521L102.525 81.5889C103.964 79.5029 104.639 78.5143 105.502 78.5143C106.296 78.5143 106.872 79.3349 107.954 80.887C108.341 81.4407 108.798 82.0931 109.373 82.8643L109.542 83.0917L108.639 84.9503L108.063 86.1366L108.162 86.3442C108.44 86.9275 108.689 87.5998 108.907 88.3512C109.125 89.1025 109.314 89.9132 109.483 90.7535C109.602 91.3763 109.711 92.019 109.81 92.6714C109.909 93.3536 110.009 94.0654 110.088 94.7772L110.237 96.2305C110.326 97.1697 110.396 98.0891 110.455 98.969C110.515 99.8587 110.565 100.749 110.604 101.628C110.634 102.32 110.664 103.012 110.694 103.685C110.733 104.98 110.793 106.285 110.793 107.58C112.619 107.392 114.356 107.155 116.044 106.848C117.88 106.512 119.657 106.087 121.384 105.573C121.989 105.375 122.446 105.227 122.962 105.049C123.448 104.881 123.984 104.683 124.759 104.397C126.099 103.873 127.429 103.27 128.759 102.587C130.089 101.905 131.419 101.134 132.759 100.284L133.454 99.8587L132.928 96.1712C132.59 94.2137 131.806 90.882 130.684 88.0051C129.93 86.0575 129.017 84.3274 127.994 83.4179C126.942 82.4688 125.463 81.5296 123.796 80.6596C121.93 79.6809 119.816 78.7911 117.761 78.0793L118.088 77.2093ZM109.84 107.689H109.87C109.87 107.046 109.86 106.423 109.84 105.791C109.83 105.711 109.83 105.652 109.83 105.583L109.77 103.734C109.751 103.092 109.721 102.409 109.681 101.688C109.641 100.847 109.592 99.9675 109.532 99.0481C109.473 98.1287 109.403 97.2092 109.314 96.3392L109.165 94.9057C109.086 94.2137 108.996 93.5217 108.887 92.8296C108.788 92.187 108.679 91.5642 108.56 90.9512C108.391 90.1109 108.212 89.3299 108.004 88.628C107.795 87.926 107.567 87.2933 107.309 86.7595L107.021 86.1465L107.785 84.5647L108.44 83.2202C107.954 82.5578 107.527 81.9547 107.17 81.4407C106.267 80.1456 105.78 79.4634 105.482 79.4634C105.125 79.4634 104.53 80.3136 103.289 82.1228L102.564 83.1708L103.874 86.2454L103.785 86.4332C103.577 86.8781 103.388 87.3625 103.209 87.8766C103.031 88.4105 102.862 88.9839 102.703 89.577L102.227 91.7916C102.098 92.5231 101.989 93.2547 101.889 93.9863C101.79 94.7871 101.701 95.5879 101.621 96.3887C101.532 97.2784 101.462 98.2077 101.403 99.1272C101.343 100.037 101.294 100.907 101.254 101.707C101.214 102.538 101.185 103.299 101.165 103.971L101.115 105.761L101.085 106.927V107.718C102.505 107.827 103.894 107.886 105.234 107.886C106.723 107.886 108.162 107.827 109.542 107.708L109.84 107.689ZM78.4641 90.2295C78.8115 89.1519 79.2086 88.0941 79.6651 87.0462C80.1317 85.9982 80.6577 84.9602 81.2831 83.9122C81.9183 82.8346 83.4668 81.6977 85.2832 80.6498C87.9136 79.1372 91.1296 77.8025 92.9063 77.1698L93.224 78.0497C91.4671 78.6725 88.3106 79.9874 85.7597 81.4505C84.0623 82.4194 82.6429 83.4575 82.097 84.3769C81.5014 85.3754 80.9853 86.3937 80.5287 87.412C80.0721 88.4401 79.685 89.4683 79.3574 90.4965L78.4641 90.2295Z" fill="#333333"/>
<path fill-rule="evenodd" clip-rule="evenodd" d="M93.1944 78.1284C91.1398 78.8402 89.0255 79.73 87.1595 80.7087C85.482 81.5787 84.0129 82.5278 82.9509 83.467C81.9285 84.3864 81.0153 86.1165 80.2609 88.0542C79.1393 90.9311 78.3552 94.2727 78.0177 96.2203L77.4916 99.9078L78.1864 100.323C79.5264 101.183 80.8565 101.944 82.1866 102.636C83.5067 103.319 84.8368 103.922 86.1867 104.446C86.9609 104.732 87.4969 104.93 87.9833 105.098C88.4796 105.266 88.9461 105.424 89.5715 105.622C91.3085 106.146 93.0753 106.561 94.9116 106.897C96.7578 107.234 98.6835 107.491 100.698 107.688L100.609 108.618C98.5544 108.42 96.609 108.163 94.733 107.817C92.847 107.471 91.0405 107.046 89.2935 106.512H89.2836C88.6384 106.304 88.1719 106.156 87.6657 105.978C87.1595 105.8 86.6235 105.612 85.8393 105.316H85.8294C84.4695 104.782 83.1097 104.159 81.7498 103.467C80.39 102.765 79.0401 101.984 77.6703 101.114L76.4692 100.392C76.6777 98.9588 76.906 97.5055 77.0846 96.072C77.4321 94.0749 78.2261 90.6741 79.3775 87.728C80.1815 85.6617 81.1741 83.8031 82.3156 82.775C83.4273 81.7764 84.9658 80.7878 86.7128 79.8783C88.6285 78.8798 90.7824 77.9702 92.8768 77.2485L93.1944 78.1284Z" fill="#333333"/>
<path fill-rule="evenodd" clip-rule="evenodd" d="M117.94 77.6436C117.026 79.176 116.054 80.6293 115.081 82.1122C114.733 82.6362 114.416 83.1107 114.118 83.526C113.82 83.9313 113.552 84.2674 113.304 84.5442C113.026 84.8408 112.758 85.0583 112.5 85.1967C112.262 85.3253 112.014 85.3846 111.746 85.3747C111.607 85.3747 111.468 85.345 111.329 85.3055C111.19 85.2561 111.051 85.1967 110.912 85.1078C110.753 85.0089 110.584 84.8804 110.426 84.7321C110.257 84.5739 110.068 84.3861 109.88 84.1785C109.622 83.8819 109.354 83.5952 109.096 83.2986C109.056 83.259 109.026 83.2195 108.986 83.1799L108.996 83.1602C107.418 81.0445 106.634 79.7 106.009 79.2057C105.939 79.1068 105.87 79.008 105.8 78.919H105.085C104.927 79.1266 104.778 79.3144 104.649 79.5121C104.113 80.0954 103.408 81.1632 102.286 82.7746C102.197 82.8834 102.118 82.9822 102.038 83.1009C101.711 83.4568 101.393 83.8226 101.065 84.1785C100.867 84.396 100.688 84.5838 100.52 84.7321C100.351 84.8804 100.192 85.0089 100.023 85.1078C99.8843 85.1869 99.7453 85.2561 99.6163 85.3055C99.4873 85.345 99.3483 85.3747 99.1994 85.3747C98.9314 85.3846 98.6833 85.3253 98.445 85.1967C98.187 85.0583 97.919 84.8408 97.641 84.5442C97.3234 84.1982 96.9661 83.7336 96.569 83.1602C96.1422 82.5472 95.7154 81.8947 95.2191 81.1335C94.435 79.9373 93.7401 78.8794 93.0652 77.6239C93.1843 77.5843 93.3133 77.5349 93.4324 77.4954C93.6905 77.4064 93.9387 77.3174 94.1868 77.2383C94.2364 77.2185 94.2861 77.2087 94.3357 77.1889C95.1 76.9417 95.8345 76.7242 96.4896 76.5562C97.1348 76.398 97.7304 76.2695 98.2564 76.1904C101.105 79.1958 109.701 79.3045 112.699 76.1904C113.225 76.2695 113.82 76.398 114.465 76.5562C115.131 76.7242 115.855 76.9417 116.619 77.1889C117.066 77.3372 117.503 77.4954 117.94 77.6436Z" fill="#FEFEFE"/>
<path fill-rule="evenodd" clip-rule="evenodd" d="M112.709 76.1906C109.702 79.3047 101.115 79.196 98.2664 76.1906C98.8719 74.411 98.9116 72.5623 98.9314 70.7136C98.9314 70.7037 98.9314 70.5752 98.9314 70.4763C100.897 71.9296 103.22 72.7699 105.711 72.7699C108.054 72.7699 110.248 72.0285 112.134 70.7334C112.134 70.8026 112.134 70.8619 112.134 70.8619C112.223 72.7007 112.302 74.5495 112.709 76.1906Z" fill="#FEFEFE"/>
<path fill-rule="evenodd" clip-rule="evenodd" d="M112.778 75.7264C113.036 75.766 113.324 75.8154 113.632 75.8846C113.929 75.9439 114.257 76.023 114.585 76.112C114.912 76.1911 115.26 76.2899 115.637 76.3987C116.024 76.5074 116.401 76.6261 116.778 76.7546C117.384 76.982 118.029 77.1896 118.634 77.3972L118.347 77.8915C117.543 79.2361 116.699 80.5213 115.845 81.8065L115.468 82.37L114.962 83.1214C114.783 83.3784 114.624 83.6157 114.485 83.7936C114.336 83.9913 114.197 84.1891 114.049 84.367C113.91 84.545 113.771 84.713 113.632 84.8514C113.473 85.0195 113.324 85.1678 113.185 85.2864C113.026 85.415 112.867 85.5237 112.709 85.6028C112.55 85.6819 112.391 85.7412 112.232 85.7808C112.073 85.8203 111.905 85.8401 111.726 85.8302C111.637 85.8302 111.537 85.8203 111.458 85.8005C111.369 85.7906 111.279 85.761 111.19 85.7313H111.17C111.081 85.7017 110.991 85.6621 110.912 85.6226C110.823 85.583 110.743 85.5336 110.664 85.4941C110.565 85.4347 110.475 85.3655 110.376 85.2963C110.277 85.2172 110.187 85.148 110.098 85.0689L109.81 84.7921L109.512 84.4758L108.728 83.5959L108.371 83.2004C107.895 82.6666 107.428 82.1624 106.991 81.589C106.674 81.1738 106.416 80.7585 106.167 80.3433C105.969 80.0171 105.77 79.6809 105.542 79.3646H105.294C104.956 79.8193 104.669 80.2445 104.391 80.6794C104.103 81.1243 103.805 81.5692 103.448 82.0438C103.269 82.3008 103.08 82.5183 102.882 82.7358C102.713 82.9335 102.544 83.1214 102.396 83.3389C102.157 83.675 101.681 84.1396 101.393 84.456C101.304 84.5647 101.204 84.6735 101.095 84.7724C100.996 84.8712 100.907 84.9602 100.807 85.0492C100.708 85.1381 100.619 85.2172 100.529 85.2766C100.43 85.3458 100.341 85.415 100.252 85.4743C100.162 85.5237 100.083 85.5731 100.003 85.6127C99.9141 85.6522 99.8247 85.6918 99.7354 85.7214H99.7255C99.6361 85.7511 99.5468 85.7709 99.4575 85.7906C99.3781 85.8005 99.2788 85.8104 99.1895 85.8203C99.0108 85.8203 98.8421 85.8104 98.6833 85.7709C98.5244 85.7313 98.3656 85.672 98.2068 85.5929C98.048 85.5039 97.8892 85.3952 97.7304 85.2766C97.5815 85.148 97.4326 85.0096 97.2837 84.8514C97.115 84.6636 96.9363 84.456 96.7477 84.2088C96.5591 83.9617 96.3606 83.6948 96.1621 83.4179C95.9437 83.0917 95.7253 82.7753 95.507 82.4491L94.8022 81.3814C94.4151 80.7882 94.0478 80.2346 93.6806 79.6414C93.3133 79.0482 92.9659 78.4649 92.6284 77.8421L92.3704 77.3577C92.956 77.1501 93.5913 76.9029 94.1868 76.7348C94.5541 76.6162 94.9313 76.4976 95.2985 76.3888C95.6558 76.2801 96.0132 76.1812 96.3705 76.0922C96.6881 76.0131 97.0157 75.934 97.3333 75.8648C97.641 75.8055 97.9289 75.7462 98.187 75.7067L98.4252 75.6671L98.723 75.9835C100.103 77.2983 102.743 77.9805 105.413 78.0003C108.083 78.0102 110.763 77.3577 112.212 75.9934L112.53 75.677L112.778 75.7264ZM113.443 76.804C113.245 76.7645 113.056 76.7249 112.867 76.6953C111.418 78.0596 108.947 78.8011 106.386 78.9395C106.604 79.2558 106.793 79.5623 106.991 79.8787C107.229 80.2741 107.478 80.6794 107.756 81.0354C108.182 81.589 108.619 82.0734 109.086 82.5875C109.473 83.0126 109.85 83.4377 110.227 83.8628L110.495 84.1495L110.733 84.3868L110.952 84.5746C111.021 84.6241 111.091 84.6735 111.15 84.713L111.309 84.802L111.468 84.8712L111.607 84.9009L111.746 84.9108C111.835 84.9108 111.924 84.9009 112.014 84.8811C112.103 84.8613 112.183 84.8317 112.272 84.7822C112.371 84.7229 112.48 84.6537 112.58 84.5647C112.709 84.4659 112.828 84.3473 112.947 84.2187C113.066 84.0902 113.185 83.9518 113.314 83.7837C113.443 83.6256 113.582 83.4377 113.721 83.24C113.89 83.0126 114.039 82.7951 114.178 82.5875L115.051 81.2825C115.796 80.1555 116.53 79.0284 117.235 77.8915L116.48 77.6345C116.083 77.506 115.716 77.3873 115.369 77.2885C115.021 77.1896 114.684 77.0907 114.356 77.0116C114.039 76.9326 113.731 76.8634 113.443 76.804ZM103.626 80.1851C103.894 79.7699 104.162 79.3646 104.49 78.9197C101.929 78.7615 99.4972 78.0102 98.1075 76.6854C97.919 76.7151 97.7403 76.7546 97.5418 76.7941C97.2638 76.8535 96.9561 76.9227 96.6187 77.0116C96.301 77.0907 95.9536 77.1896 95.5864 77.2983C95.2489 77.3972 94.8816 77.5158 94.4945 77.6345L94.3258 77.6839L93.7501 77.8816C93.9982 78.3265 94.2563 78.7417 94.5044 79.157C94.8518 79.7106 95.2191 80.2741 95.6161 80.8772L96.311 81.9449C96.5393 82.2909 96.7576 82.6073 96.9561 82.894C97.1547 83.1807 97.3433 83.4377 97.512 83.6453C97.6807 83.8628 97.8396 84.0507 97.9884 84.2187C98.1175 84.3571 98.2366 84.4659 98.3458 84.5647C98.455 84.6537 98.5641 84.7328 98.6634 84.7822C98.7428 84.8218 98.8321 84.8514 98.9215 84.8811C99.0108 84.9009 99.1001 84.9108 99.1895 84.9108L99.3284 84.9009C99.3781 84.891 99.4376 84.8811 99.4773 84.8613C99.517 84.8515 99.5667 84.8317 99.6163 84.802L99.7751 84.713C99.8446 84.6735 99.9141 84.6241 99.9836 84.5746C100.063 84.5153 100.142 84.4461 100.212 84.3868C100.281 84.3176 100.361 84.2484 100.45 84.1594C100.857 83.7145 101.264 83.2697 101.671 82.8149C101.84 82.5776 102.028 82.3601 102.207 82.1525C102.386 81.9449 102.564 81.7373 102.713 81.5198L102.723 81.5099C103.071 81.0255 103.348 80.6004 103.626 80.1851Z" fill="#333333"/>
<path fill-rule="evenodd" clip-rule="evenodd" d="M105.701 72.7706C103.21 72.7706 100.887 71.9303 98.9216 70.477C98.058 69.8443 97.2639 69.0831 96.5493 68.2328C95.2391 66.6609 94.2167 64.7529 93.5715 62.6273C93.0851 61.006 92.8171 59.2561 92.8171 57.4272C92.8171 56.7944 92.8469 56.1617 92.9164 55.5488C95.8445 55.2917 105.84 54.7084 109.076 45.5834C110.426 48.8854 111.825 50.576 117.93 52.6027C118.357 54.1252 118.585 55.7465 118.585 57.4272C118.585 58.4257 118.505 59.3945 118.357 60.3436C117.86 63.3886 116.62 66.1172 114.853 68.2328C114.049 69.2017 113.126 70.042 112.133 70.7341C110.237 72.0292 108.044 72.7706 105.701 72.7706Z" fill="#FEFEFE"/>
<path fill-rule="evenodd" clip-rule="evenodd" d="M109.086 45.5828C105.85 54.7078 95.8545 55.2812 92.9264 55.5481C92.8668 56.1611 92.8271 56.7938 92.8271 57.4265C92.8271 59.2456 93.0951 61.0053 93.5815 62.6267C84.6978 39.6412 105.87 36.9027 109.384 41.3712C117.89 41.2526 122.347 51.6826 118.347 60.343C118.496 59.4038 118.575 58.425 118.575 57.4265C118.575 55.7459 118.347 54.1146 117.92 52.602C111.835 50.5754 110.426 48.8848 109.086 45.5828Z" fill="#EFEFEF"/>
<path fill-rule="evenodd" clip-rule="evenodd" d="M112.59 70.5256L112.6 70.9507C112.69 72.7302 112.769 74.5097 113.166 76.0717L112.253 76.2991C111.836 74.6481 111.757 72.8192 111.667 71.0001L111.657 70.5453L112.59 70.5256ZM97.8198 76.0421C98.1077 75.1919 98.2665 74.3219 98.3459 73.442C98.4253 72.5423 98.4452 71.6328 98.4551 70.7134V70.3674L99.3981 70.3773V70.7233C99.3882 71.6625 99.3783 72.5918 99.2889 73.531C99.1996 74.4801 99.0308 75.4192 98.7132 76.3486L97.8198 76.0421Z" fill="#333333"/>
<path fill-rule="evenodd" clip-rule="evenodd" d="M93.4027 55.4893C93.363 55.8056 93.3432 56.1319 93.3233 56.4483C93.3035 56.7646 93.2935 57.0909 93.2935 57.4369C93.2935 59.4438 93.631 61.3716 94.2365 63.1215C94.8618 64.9405 95.785 66.5718 96.9165 67.946C98.0679 69.33 99.4377 70.4373 100.956 71.1887C102.415 71.9104 104.014 72.3157 105.701 72.3157C107.388 72.3157 108.986 71.9202 110.446 71.1887C111.964 70.4373 113.344 69.3202 114.485 67.946C115.627 66.5817 116.54 64.9405 117.165 63.1314C117.771 61.3815 118.108 59.4636 118.108 57.4468C118.108 56.6064 118.049 55.7859 117.94 55.0049C117.83 54.1942 117.662 53.4033 117.443 52.6322L118.347 52.3751C118.575 53.1759 118.754 54.0162 118.873 54.8763C118.992 55.7167 119.051 56.5768 119.051 57.4468C119.051 59.5624 118.694 61.5891 118.059 63.4378C117.394 65.3558 116.421 67.0957 115.21 68.549C113.979 70.032 112.5 71.2183 110.862 72.0389C109.274 72.8298 107.527 73.2648 105.701 73.2648C103.875 73.2648 102.128 72.8298 100.539 72.0389C98.9017 71.2282 97.4227 70.032 96.1919 68.549C94.981 67.0957 94.0082 65.3558 93.3432 63.4378C92.7079 61.5891 92.3506 59.5723 92.3506 57.4567C92.3506 57.1205 92.3605 56.7745 92.3804 56.4186C92.4002 56.0726 92.43 55.7364 92.4697 55.4003L93.4027 55.4893Z" fill="#333333"/>
<path fill-rule="evenodd" clip-rule="evenodd" d="M92.9166 55.5481C92.6856 57.9258 92.8837 60.3331 93.5717 62.6267C84.688 39.6412 105.86 36.9027 109.374 41.3712C117.88 41.2526 122.337 51.6826 118.337 60.343C118.744 57.7746 118.617 55.1075 117.91 52.602C111.816 50.5754 110.406 48.8848 109.056 45.5828C105.85 54.7078 95.8447 55.2911 92.9166 55.5481Z" fill="#AAAAAA"/>
<path fill-rule="evenodd" clip-rule="evenodd" d="M93.3532 55.9833L93.3234 56.5172C93.3135 56.8039 93.3036 57.1104 93.3036 57.4366C93.3036 58.3165 93.3631 59.1766 93.4922 60.007C93.6212 60.8671 93.7999 61.6976 94.048 62.4984L93.1547 62.8048C90.0975 54.9057 90.5442 49.32 92.6187 45.5632C93.7403 43.5267 95.3483 42.0239 97.1251 40.9859C98.9018 39.9577 100.857 39.3843 102.694 39.1866C105.671 38.8702 108.381 39.5623 109.622 40.9068C111.091 40.9167 112.451 41.233 113.662 41.7867C115.716 42.7259 117.374 44.367 118.515 46.4134C119.647 48.4401 120.282 50.8721 120.322 53.4129C120.352 55.7658 119.875 58.2176 118.793 60.5409L117.364 63.6452L117.91 60.274C117.979 59.8192 118.039 59.3447 118.079 58.8602C118.118 58.3956 118.138 57.921 118.138 57.4366C118.138 56.6161 118.079 55.8153 117.979 55.0441C117.88 54.3323 117.741 53.6403 117.572 52.968C114.605 51.9695 112.739 51.0303 111.448 49.9329C110.386 49.0234 109.711 48.0249 109.126 46.8089C105.552 54.8563 96.6288 55.7065 93.3532 55.9833ZM92.3805 56.4678C92.4003 56.1514 92.4202 55.8252 92.45 55.4989L92.4897 55.1133L93.1547 55.054C96.3211 54.7871 105.592 53.9962 108.629 45.4347L109.036 44.2681L109.503 45.4149C110.148 46.9967 110.803 48.193 112.014 49.2211C113.245 50.2691 115.081 51.1786 118.059 52.1672L118.297 52.2463L118.367 52.4836C118.585 53.2745 118.754 54.0852 118.863 54.9255C118.942 55.5286 119.002 56.1415 119.022 56.7643C119.25 55.6472 119.359 54.5202 119.349 53.4228C119.319 51.0303 118.724 48.7565 117.662 46.8682C116.61 44.9898 115.101 43.497 113.235 42.6369C112.083 42.1129 110.783 41.8262 109.374 41.8361H109.145L109.006 41.6582C108.044 40.4421 105.562 39.8193 102.773 40.1159C101.056 40.2938 99.2294 40.8376 97.5817 41.7966C95.934 42.7555 94.455 44.1396 93.4227 46.018C91.9834 48.6181 91.3978 52.187 92.3507 56.9225L92.3805 56.4678Z" fill="#333333"/>
<path fill-rule="evenodd" clip-rule="evenodd" d="M109.136 83.9321L108.639 84.9602C107.19 87.9657 105.89 88.6676 104.669 88.0744C103.577 87.5405 102.693 85.85 101.86 83.9024L102.723 83.5366C103.478 85.3063 104.252 86.8287 105.086 87.2341C105.791 87.5801 106.654 86.9375 107.796 84.5549L108.292 83.5267L109.136 83.9321Z" fill="#333333"/>
<path fill-rule="evenodd" clip-rule="evenodd" d="M23.3357 70.5455L23.3258 71.0003C23.2365 72.8292 23.1471 74.6483 22.7401 76.2993L21.8269 76.0719C22.214 74.5 22.3034 72.7304 22.3828 70.9508L22.3927 70.5158L23.3357 70.5455ZM36.2798 76.3389C35.9622 75.4194 35.7935 74.4704 35.7041 73.5213C35.6148 72.592 35.6048 71.6528 35.5949 70.7136V70.3676L36.5379 70.3577V70.7037C36.5479 71.6231 36.5578 72.5326 36.6471 73.4323C36.7265 74.3122 36.8854 75.1822 37.1732 76.0324L36.2798 76.3389Z" fill="#333333"/>
<path fill-rule="evenodd" clip-rule="evenodd" d="M26.6907 83.5267L27.187 84.5549C28.3285 86.9375 29.1921 87.5801 29.8969 87.2341C30.7208 86.8287 31.505 85.3063 32.2594 83.5366L33.123 83.9024C32.2892 85.85 31.4057 87.5405 30.3138 88.0744C29.1028 88.6676 27.7925 87.9755 26.3432 84.9602L25.8469 83.9321L26.6907 83.5267Z" fill="#333333"/>
<path fill-rule="evenodd" clip-rule="evenodd" d="M94.7823 84.673C93.3629 83.9216 91.874 83.1999 90.4646 82.5771C88.4694 81.6873 86.6331 80.9557 85.3229 80.501C84.3502 82.2904 83.3576 83.8228 82.236 85.5232C80.9898 87.4287 79.6772 90.2042 77.6204 91.3363C76.1467 92.1134 74.8313 90.9438 73.8783 89.8929C73.4118 89.3788 72.9453 88.8647 72.4887 88.3408C72.048 87.7555 72.4055 88.5401 72.1115 89.2206C71.5273 90.3843 71.0827 91.6407 70.573 92.839C71.1983 94.1835 71.7244 95.7456 72.1611 97.4559L72.846 100.679C73.2133 102.804 73.5011 105.078 73.7195 107.322C73.9776 109.972 74.1364 112.621 74.2456 114.974C74.3548 117.327 74.4143 119.354 74.454 120.787L74.4937 122.468V124.218C80.3103 123.654 85.5512 122.735 90.534 121.232C92.3604 120.649 93.1942 120.362 95.4275 119.532C99.3185 118 103.12 116.052 107.001 113.57L108.351 112.75L107.547 107.016C107.061 104.228 105.959 99.4925 104.371 95.3501C103.686 93.6794 102.892 92.0283 101.949 90.3872C101.423 89.5766 100.867 88.8845 100.281 88.3605C98.8619 87.105 96.9462 85.8494 94.7823 84.673Z" fill="#FEFEFE"/>
<path fill-rule="evenodd" clip-rule="evenodd" d="M64.3197 93.2845L64.5976 92.7012L63.6447 90.7141L62.543 88.4402C61.8971 89.2121 61.2209 89.9941 60.4784 90.6745C59.9596 91.1482 59.3136 91.5841 58.5825 91.5841C56.3843 91.6417 54.8694 88.5244 53.8081 86.9178C52.4086 84.7922 51.019 82.7062 49.7087 80.5214C44.0609 82.4788 38.0756 85.3755 34.8099 88.3018C31.0083 91.7027 28.3581 102.182 27.5342 106.957L26.7302 112.691C37.2174 119.066 48.3092 122.97 60.5876 124.159C60.5876 114.347 60.0284 102.452 64.3197 93.2845Z" fill="#FEFEFE"/>
<path fill-rule="evenodd" clip-rule="evenodd" d="M57.1929 78.4452C61.4908 82.9039 73.7989 82.7457 77.8785 78.4452C77.005 75.9044 76.9554 73.2549 76.9355 70.6054C76.9355 70.5856 76.9355 70.3978 76.9355 70.2594C74.1166 72.3355 70.7914 73.5416 67.228 73.5416C63.873 73.5416 60.7364 72.4838 58.0266 70.6252C58.0266 70.7142 58.0266 70.8031 58.0266 70.813C57.8976 73.4428 57.7785 76.0923 57.1929 78.4452Z" fill="#FEFEFE"/>
<path fill-rule="evenodd" clip-rule="evenodd" d="M67.228 73.5417C70.7914 73.5417 74.1166 72.3455 76.9356 70.2595C78.1763 69.35 79.3079 68.2625 80.3302 67.0366C82.2062 64.7924 83.6654 62.0539 84.5885 59.0089C85.2932 56.6857 85.6704 54.1746 85.6704 51.5646C85.6704 50.6551 85.6208 49.7554 85.5314 48.8657C81.3427 48.4999 67.0196 47.6694 62.3941 34.5998C60.4685 39.3254 58.4535 41.7476 49.7187 44.6442C49.1132 46.8192 48.7856 49.1425 48.7856 51.5547C48.7856 52.9783 48.8948 54.3723 49.1132 55.7267C49.8179 60.0866 51.6046 64.0015 54.1258 67.0267C55.2871 68.4207 56.5973 69.6268 58.0267 70.6055C60.7365 72.4839 63.8731 73.5417 67.228 73.5417Z" fill="#FEFEFE"/>
<path fill-rule="evenodd" clip-rule="evenodd" d="M49.7087 80.5211C51.009 82.706 52.4086 84.792 53.8081 86.9175C54.3044 87.6689 54.761 88.3411 55.1878 88.9343C55.6047 89.5077 55.9918 90.002 56.3492 90.3876C56.7462 90.8127 57.1234 91.1291 57.5006 91.3268C57.848 91.5047 58.1954 91.5937 58.5825 91.5838C58.791 91.5739 58.9895 91.5443 59.1781 91.485C59.3766 91.4158 59.5751 91.3268 59.7736 91.2081C60.0019 91.0598 60.2401 90.8819 60.4784 90.6743C60.7265 90.4469 60.9846 90.18 61.2625 89.8735C61.6397 89.4583 62.007 89.0332 62.3841 88.6179C62.4338 88.5586 62.4834 88.4993 62.543 88.44L62.533 88.4202C64.7862 85.395 65.9078 83.4672 66.8111 82.7554C66.9104 82.617 67.0096 82.4786 67.1089 82.3402H68.1213C68.3496 82.6269 68.5581 82.9136 68.7566 83.1904C69.5308 84.0208 70.5433 85.5631 72.1413 87.8666C72.2604 88.0149 72.3796 88.1731 72.4987 88.3312C72.9652 88.8453 73.4317 89.3594 73.8883 89.8834C74.1662 90.1899 74.4243 90.4568 74.6625 90.6743C74.9007 90.8918 75.139 91.0697 75.3673 91.2081C75.5658 91.3268 75.7544 91.4256 75.9529 91.485C76.1415 91.5443 76.34 91.5838 76.5484 91.5838C76.9356 91.5937 77.283 91.5047 77.6304 91.3268C78.0075 91.1291 78.3847 90.8127 78.7718 90.3876C79.2284 89.8933 79.7347 89.2309 80.3104 88.4103C80.9158 87.5403 81.5412 86.5913 82.2459 85.5137C83.3675 83.8033 84.3601 82.2809 85.3329 80.4915C85.1542 80.4321 84.9756 80.3629 84.8068 80.3036C84.4396 80.1751 84.0822 80.0565 83.7249 79.9378C83.6554 79.9181 83.576 79.8884 83.5065 79.8686C82.4147 79.5127 81.3625 79.2062 80.4195 78.9591C79.4964 78.7317 78.6428 78.5439 77.8984 78.4351C73.8188 82.7356 61.5107 82.8938 57.2127 78.4351C56.4584 78.5439 55.6047 78.7218 54.6916 78.9591C53.7387 79.1964 52.6964 79.5028 51.6046 79.8587C50.9594 80.0861 50.3341 80.3036 49.7087 80.5211Z" fill="#BDECFF"/>
<path fill-rule="evenodd" clip-rule="evenodd" d="M74.4946 124.218V122.458L74.4549 120.778C74.4151 119.344 74.3655 117.317 74.2464 114.965C74.1372 112.621 73.9684 109.962 73.7203 107.313C73.5019 105.068 73.224 102.795 72.8468 100.669L72.1618 97.4461C71.7251 95.7358 71.199 94.1737 70.5736 92.8292L72.4795 88.3606C66.7221 80.1155 68.1615 80.8372 62.5232 88.4101L63.635 90.7037L64.5879 92.6908L64.31 93.2741C63.5556 94.8856 62.9501 97.0309 62.4736 99.4431C62.1162 101.252 61.8284 103.19 61.6001 105.147C61.5207 105.83 61.4512 106.522 61.3817 107.214C61.1335 109.814 60.9648 112.453 60.8457 114.915C60.7464 116.942 60.6868 118.85 60.6372 120.521C60.6372 120.61 60.6372 120.689 60.6273 120.768L60.5975 121.648C60.5876 121.915 60.5876 122.162 60.5776 122.409V124.149C60.5876 124.149 60.5975 124.149 60.6173 124.149C60.9548 124.179 61.3023 124.218 61.6497 124.248C65.6203 124.604 69.9879 124.604 74.4946 124.218Z" fill="url(#paint0_linear_125_2088)"/>
<path fill-rule="evenodd" clip-rule="evenodd" d="M62.3944 34.6188C67.0298 47.6785 81.343 48.509 85.5317 48.8847C85.877 52.286 85.5693 55.7491 84.5888 59.028C97.3138 26.1166 66.9901 22.1918 61.9576 28.5882C49.7785 28.43 43.3862 43.3582 49.1234 55.7556C48.5268 52.0825 48.7309 48.258 49.7289 44.6731C58.4538 41.7666 60.4687 39.3444 62.3944 34.6188Z" fill="#EFEFEF"/>
<path fill-rule="evenodd" clip-rule="evenodd" d="M58.5031 70.348C58.5031 70.5557 58.5031 70.7534 58.4932 70.961C58.3642 73.5808 58.2451 76.2007 57.6495 78.5635L56.7363 78.3361C57.3021 76.0623 57.4311 73.482 57.5503 70.9116L57.5701 70.3382L58.5031 70.348ZM77.4319 78.5932C76.9852 77.2882 76.747 75.9535 76.618 74.5991C76.4889 73.2645 76.4691 71.9298 76.4591 70.5952V70.1009H77.4021V70.5952C77.412 71.9101 77.4319 73.2249 77.5609 74.5102C77.68 75.7855 77.9083 77.0509 78.3252 78.2867L77.4319 78.5932Z" fill="#333333"/>
<path fill-rule="evenodd" clip-rule="evenodd" d="M85.9881 48.6672C86.0378 49.1418 86.0775 49.6262 86.1073 50.1106C86.137 50.6049 86.147 51.0992 86.147 51.5738C86.147 54.5891 85.6507 57.466 84.7375 60.0858C83.7945 62.8144 82.4148 65.2761 80.6877 67.3424C78.9407 69.4382 76.8563 71.1288 74.5336 72.2855C72.2904 73.4026 69.8188 74.0156 67.2281 74.0156C64.6375 74.0156 62.1758 73.4026 59.9227 72.2855C57.6 71.1288 55.5056 69.4481 53.7587 67.3424C52.0415 65.2761 50.6618 62.8144 49.7188 60.0858C48.8156 57.466 48.3093 54.5891 48.3093 51.5738C48.3093 50.338 48.3987 49.1121 48.5575 47.9159C48.7262 46.6999 48.9744 45.5036 49.3019 44.3667L50.2052 44.6237C49.8876 45.731 49.6493 46.8679 49.4905 48.0444C49.3317 49.1912 49.2523 50.3677 49.2523 51.5738C49.2523 54.4803 49.7387 57.2485 50.6121 59.7794C51.5154 62.3992 52.8455 64.762 54.4932 66.7393C56.1508 68.7363 58.136 70.3379 60.3495 71.4353C62.4637 72.4832 64.7963 73.0665 67.2281 73.0665C69.6699 73.0665 71.9926 72.4832 74.1167 71.4353C76.3203 70.3379 78.3055 68.7363 79.9631 66.7393C81.6108 64.762 82.9409 62.3992 83.8441 59.7794C84.7176 57.2485 85.204 54.4803 85.204 51.5738C85.204 51.0795 85.1941 50.6148 85.1643 50.1502C85.1444 49.6855 85.1047 49.2209 85.0551 48.7562L85.9881 48.6672Z" fill="#333333"/>
<path fill-rule="evenodd" clip-rule="evenodd" d="M85.998 48.8361C86.0476 49.2908 86.0774 49.7555 86.1072 50.2102C86.1271 50.6749 86.1469 51.1297 86.1469 51.5745C86.1469 51.9601 86.137 52.3358 86.1271 52.7213C88.0725 44.9606 87.2487 39.2266 84.9955 35.1238C83.4967 32.3952 81.3527 30.3982 78.9605 29.0042C76.5684 27.6103 73.9281 26.8391 71.4367 26.5722C67.3671 26.1372 63.7441 27.0566 62.3247 28.8559L62.1857 29.0339H61.9574C59.9028 29.0042 58.0268 29.4194 56.3493 30.1906C53.6296 31.4362 51.4459 33.6112 49.9173 36.3299C48.3887 39.0684 47.5251 42.3606 47.4755 45.8109C47.4457 47.9265 47.7237 50.1015 48.3391 52.2468L48.3291 51.5647C48.3291 50.3585 48.4085 49.1623 48.5674 47.9957C48.7262 46.8094 48.9644 45.6527 49.2721 44.5256L49.3416 44.2884L49.5798 44.2093C53.8877 42.7857 56.5279 41.4807 58.3146 39.9582C60.0814 38.4654 61.0343 36.7254 61.9674 34.4318L62.4339 33.285L62.8508 34.4516C67.2281 46.839 80.5884 47.9858 85.1642 48.3813L85.9682 48.4505L85.998 48.8361ZM85.1642 50.2597C85.1444 49.9433 85.1245 49.627 85.0948 49.3205H85.0749C80.4891 48.925 67.3274 47.798 62.3644 35.8752C61.5008 37.7931 60.5281 39.3156 58.9102 40.6898C57.0639 42.2617 54.3939 43.5963 50.1059 45.0298C49.8379 46.0382 49.6294 47.0664 49.4905 48.1341C49.3416 49.2513 49.2622 50.3981 49.2622 51.5844C49.2622 52.2765 49.2919 52.9685 49.3416 53.6507C49.4011 54.3526 49.4805 55.0248 49.5897 55.6872L50.1356 59.0584L48.6964 55.9542C47.1678 52.6521 46.4829 49.1623 46.5325 45.8306C46.5822 42.2221 47.4854 38.7718 49.0934 35.9048C50.7114 33.018 53.0439 30.6948 55.9522 29.37C57.6893 28.5692 59.6348 28.1244 61.7391 28.1244C63.4364 26.1965 67.2876 25.2178 71.5359 25.6627C74.1465 25.9395 76.9158 26.7502 79.437 28.2133C81.9582 29.6765 84.2213 31.802 85.8193 34.6888C88.7574 40.0175 89.3828 47.9562 85.0352 59.1968L84.1419 58.8904C84.4893 57.7337 84.7573 56.5276 84.9359 55.2918C85.1146 54.0856 85.2039 52.8499 85.2039 51.5745C85.2039 51.1198 85.1841 50.6749 85.1642 50.2597Z" fill="#333333"/>
<path fill-rule="evenodd" clip-rule="evenodd" d="M63.3371 89.0328L64.0518 90.5059C65.7591 94.0551 67.0893 94.9844 68.201 94.4307C69.4419 93.8178 70.5834 91.6033 71.6753 89.0229L72.5389 89.3887C71.3676 92.1371 70.1169 94.5296 68.608 95.2711C66.9801 96.0719 65.2033 95.0832 63.1981 90.9112L62.4834 89.4382L63.3371 89.0328Z" fill="#333333"/>
<path fill-rule="evenodd" clip-rule="evenodd" d="M57.193 78.445C56.4386 78.5537 55.585 78.7317 54.6718 78.969C53.7189 79.2062 52.6767 79.5127 51.5848 79.8686C50.9595 80.0861 50.3342 80.3036 49.7188 80.5211C51.019 82.706 52.4186 84.792 53.8182 86.9274C54.3145 87.6788 54.771 88.351 55.1979 88.9442C55.6147 89.5176 56.0019 90.0119 56.3592 90.3975C56.7562 90.8226 57.1334 91.1389 57.5106 91.3367C57.858 91.5146 58.2054 91.6036 58.5925 91.5937C58.791 91.5838 58.9995 91.5542 59.1881 91.4949C59.3866 91.4256 59.5851 91.3367 59.7836 91.218C60.0119 91.0697 60.2502 90.8918 60.4884 90.6842C60.7365 90.4568 60.9946 90.1899 61.2725 89.8834C61.6497 89.4682 62.017 89.0431 62.3942 88.6278C63.2577 87.659 64.0816 86.7989 64.8558 85.8004C65.7094 84.6931 66.2752 83.4672 67.1288 82.3501H68.1413C69.2728 83.7935 69.8982 84.9897 70.99 86.4529C71.4664 87.135 72.0322 87.659 72.5087 88.3312C72.9752 88.8453 73.4417 89.3594 73.8983 89.8834C74.1762 90.1899 74.4343 90.4568 74.6725 90.6743C74.9107 90.8918 75.149 91.0697 75.3773 91.2081C75.5758 91.3268 75.7644 91.4256 75.9629 91.485C76.1515 91.5443 76.35 91.5838 76.5584 91.5838C76.9456 91.5937 77.293 91.5047 77.6404 91.3268C78.0176 91.1291 78.3947 90.8127 78.7819 90.3876C79.2385 89.8933 79.7447 89.2309 80.3204 88.4103C80.9259 87.5403 81.5512 86.5913 82.2559 85.5137C83.3776 83.8132 84.3702 82.2809 85.3429 80.4915C85.1642 80.4321 84.9856 80.3629 84.8168 80.3036C84.4496 80.1751 84.0922 80.0565 83.7349 79.9378C83.6654 79.9181 83.586 79.8884 83.5165 79.8686C82.4247 79.5127 81.3725 79.2062 80.4296 78.9591C79.5064 78.7317 78.6528 78.5439 77.9084 78.4351C73.799 82.7455 61.4909 82.9037 57.193 78.445Z" fill="#FEFEFE"/>
<path fill-rule="evenodd" clip-rule="evenodd" d="M57.0342 78.9493C56.7265 78.9988 56.4188 79.0581 56.0913 79.1273C55.6843 79.2064 55.2476 79.3151 54.781 79.4337C54.2947 79.5524 53.8083 79.6908 53.3219 79.8292C52.8157 79.9775 52.2797 80.1456 51.7338 80.3235L50.4136 80.7783C51.4658 82.5084 52.5775 84.189 53.6892 85.8895L54.2053 86.6705L54.92 87.7283C55.1384 88.0546 55.3568 88.361 55.5751 88.6675C55.7836 88.9542 55.9821 89.2211 56.1707 89.4485C56.3692 89.6858 56.5379 89.9033 56.7067 90.0714C56.8953 90.2691 57.0739 90.4371 57.2526 90.5854C57.4114 90.7239 57.5802 90.8326 57.739 90.9117C57.8779 90.9809 58.0169 91.0303 58.1559 91.0699C58.2948 91.0995 58.4437 91.1193 58.5926 91.1094H58.6025C58.672 91.1094 58.7415 91.0995 58.8209 91.0896C58.9102 91.0699 58.9896 91.0501 59.069 91.0303C59.1385 91.0105 59.2179 90.971 59.2973 90.9315C59.3867 90.8919 59.4661 90.8425 59.5455 90.8029C59.6448 90.7337 59.7539 90.6645 59.8631 90.5854C59.9624 90.5064 60.0716 90.4174 60.1807 90.3185C60.2999 90.2098 60.419 90.0911 60.5381 89.9725C60.6572 89.844 60.7862 89.7056 60.9252 89.5573L62.6325 87.6492C63.2776 86.9374 63.903 86.2553 64.4787 85.494C64.8856 84.9602 65.233 84.3868 65.5805 83.8134C65.9179 83.2696 66.2455 82.716 66.6425 82.1821C62.8905 82.0437 59.2279 80.9958 57.1136 79.0086L57.0342 78.9493ZM55.9027 78.2079C56.3394 78.1189 56.7563 78.0398 57.1335 77.9904L57.3717 77.9508L57.7489 78.3364C59.8631 80.3235 63.7541 81.2924 67.6252 81.2726C71.4963 81.2528 75.3376 80.2543 77.3427 78.3265L77.7099 77.9508L77.9482 77.9904C78.3253 78.0497 78.7323 78.1189 79.169 78.2079C79.6058 78.2968 80.0525 78.4056 80.519 78.5143C81.0153 78.6428 81.5215 78.7813 82.0376 78.9296C82.5637 79.0778 83.0898 79.2459 83.6357 79.4239C84.4298 79.671 85.2139 79.9577 85.9882 80.2246L85.7301 80.7091C85.2338 81.6186 84.7375 82.4589 84.2213 83.2795C83.6953 84.1198 83.1692 84.9206 82.6133 85.7708L81.6108 87.3032C81.2833 87.7975 80.9756 88.2523 80.6778 88.6774C80.3899 89.0926 80.112 89.4683 79.8539 89.8044C79.5859 90.1504 79.3378 90.447 79.0996 90.7041C78.8911 90.9315 78.6827 91.1292 78.4742 91.2972C78.2658 91.4752 78.0474 91.6235 77.829 91.7322C77.6206 91.841 77.4122 91.9201 77.1938 91.9695C76.9754 92.0189 76.7471 92.0387 76.5188 92.0387C76.3898 92.0387 76.2707 92.0288 76.1615 92.0091C76.0325 91.9893 75.9133 91.9596 75.8042 91.9201C75.685 91.8805 75.5659 91.8311 75.4468 91.7817C75.3277 91.7224 75.2086 91.663 75.1093 91.5938C74.9803 91.5147 74.8513 91.4258 74.7222 91.3269C74.5932 91.228 74.4642 91.1193 74.3351 91.0007C74.2061 90.882 74.0671 90.7535 73.9381 90.625C73.7991 90.4866 73.6602 90.3284 73.5212 90.1801C73.1242 89.7352 72.3996 89.0333 72.0919 88.5884C71.8636 88.2622 71.6154 87.9755 71.3673 87.6888C71.0993 87.3724 70.8213 87.0659 70.5831 86.71C70.067 86.0279 69.66 85.405 69.263 84.7822C68.8362 84.1297 68.4193 83.4871 67.8932 82.805H67.3473C66.9999 83.2795 66.6922 83.7936 66.3745 84.2978C66.0172 84.891 65.6499 85.4841 65.2132 86.0674C64.5978 86.8583 63.9725 87.5504 63.3173 88.2819L61.6101 90.1801C61.4711 90.3284 61.3322 90.4866 61.1932 90.625C61.0542 90.7634 60.9153 90.8919 60.7962 91.0106C60.677 91.1193 60.548 91.228 60.419 91.3269C60.2899 91.4258 60.1609 91.5147 60.0319 91.6037C59.9127 91.6729 59.8036 91.7421 59.6845 91.7916C59.5753 91.841 59.4562 91.8904 59.337 91.93H59.3271C59.208 91.9695 59.0889 91.9992 58.9698 92.0189C58.8507 92.0387 58.7316 92.0486 58.6125 92.0486C58.3742 92.0585 58.1459 92.0288 57.9375 91.9794C57.7191 91.93 57.5107 91.8509 57.3022 91.7421C57.0938 91.6334 56.8754 91.4851 56.657 91.3071C56.4486 91.1391 56.2402 90.9413 56.0317 90.714C55.8332 90.5063 55.6446 90.279 55.4461 90.0318C55.2476 89.7847 55.0391 89.5078 54.8307 89.2211C54.6222 88.9245 54.3939 88.6082 54.1557 88.2622L53.441 87.1945L52.9249 86.4134C51.6941 84.5548 50.4831 82.716 49.3317 80.7684L49.0339 80.2741C49.7585 80.017 50.7809 79.5919 51.4559 79.4337C52.0117 79.2558 52.5477 79.0877 53.0837 78.9296C53.6197 78.7714 54.1259 78.633 54.5825 78.5143C55.0093 78.4056 55.456 78.2968 55.9027 78.2079ZM68.5781 82.1722C69.1538 82.9137 69.5905 83.5959 70.0372 84.278C70.4342 84.891 70.8412 85.5039 71.3375 86.1663L71.3474 86.1762C71.5757 86.5024 71.8239 86.7891 72.072 87.0758C72.34 87.3823 72.5981 87.6888 72.8462 88.0348L74.2259 89.5573C74.3649 89.7155 74.4939 89.8539 74.613 89.9725C74.7421 90.101 74.8612 90.2098 74.9604 90.3086C75.0696 90.4075 75.1788 90.5064 75.288 90.5854C75.3873 90.6645 75.4965 90.7337 75.5957 90.8029C75.685 90.8623 75.7645 90.9018 75.8439 90.9413C75.9233 90.9809 76.0027 91.0105 76.0722 91.0303C76.1516 91.0501 76.231 91.0699 76.3104 91.0896C76.3898 91.0995 76.4593 91.1094 76.5387 91.1094H76.5486C76.6975 91.1094 76.8464 91.0995 76.9853 91.0699C77.1243 91.0402 77.2633 90.9809 77.3923 90.9117C77.5511 90.8227 77.7099 90.714 77.8787 90.5756C78.0474 90.4371 78.2261 90.2691 78.4147 90.0714C78.643 89.8341 78.8713 89.5474 79.1194 89.231C79.3676 88.9048 79.6356 88.539 79.9135 88.1435C80.2212 87.6987 80.5289 87.2439 80.8366 86.7792C81.1741 86.275 81.5016 85.7807 81.8391 85.2568C82.4049 84.3966 82.9409 83.586 83.4372 82.7852C83.8541 82.1228 84.2511 81.4505 84.6482 80.7486L83.5662 80.3828L83.3479 80.3136C82.8019 80.1357 82.2759 79.9775 81.7696 79.8193C81.2436 79.6611 80.7473 79.5326 80.2907 79.414C79.8341 79.3052 79.3874 79.1965 78.9805 79.1174C78.6628 79.0482 78.3452 78.9889 78.0474 78.9394L77.9978 78.9889C75.9729 80.9266 72.3499 82.0042 68.5781 82.1722Z" fill="#333333"/>
<path fill-rule="evenodd" clip-rule="evenodd" d="M49.8677 80.966C46.9197 81.9843 43.8823 83.2695 41.1924 84.6733C38.7804 85.9289 36.6563 87.2932 35.1277 88.6575C33.6388 89.9921 32.3186 92.4934 31.2169 95.3011C29.5989 99.4434 28.4773 104.238 27.9909 107.046L27.2266 112.454L28.3284 113.126C30.254 114.362 32.1697 115.459 34.0755 116.438C35.9813 117.417 37.8871 118.277 39.8226 119.038C40.9343 119.453 41.6986 119.73 42.4034 119.967C43.118 120.214 43.7831 120.432 44.6764 120.719C47.1678 121.47 49.7089 122.073 52.3492 122.557C54.8306 123.012 57.4114 123.368 60.1112 123.635C60.1112 122.587 60.1609 121.549 60.1609 120.511C60.1807 119.671 60.2105 118.771 60.2502 117.842C60.28 116.893 60.3296 115.904 60.3792 114.896C60.4388 113.64 60.5083 112.365 60.5976 111.089C60.6869 109.814 60.7862 108.499 60.9152 107.174L61.0145 106.136L61.1237 105.108C61.2428 104.11 61.3718 103.131 61.5108 102.182C61.6597 101.223 61.8185 100.274 61.9971 99.3643C62.2354 98.1582 62.5133 97.0015 62.821 95.9437C63.1287 94.8858 63.486 93.917 63.8731 93.0964L64.0518 92.7109L63.1982 90.9313L61.9574 88.3807L62.1262 88.1533C62.95 87.046 63.6051 86.1068 64.161 85.3159C65.6797 83.1509 66.4837 82.0041 67.506 82.0041C68.6277 81.9942 69.5806 83.3881 71.5955 86.3145C71.9529 86.8285 72.34 87.4019 72.8363 88.1138L72.9851 88.3214L71.0595 92.8394C71.3474 93.4721 71.6154 94.1542 71.8536 94.8661C72.1216 95.657 72.3697 96.4874 72.5881 97.3475C72.7569 98.3262 73.0249 99.651 73.2829 100.61C73.4616 101.618 73.6204 102.676 73.7594 103.774C73.9083 104.93 74.0472 106.117 74.1564 107.283C74.2854 108.638 74.3946 109.962 74.474 111.238C74.5634 112.513 74.6329 113.769 74.6825 114.955C74.742 116.121 74.7817 117.229 74.8115 118.217C74.8413 119.186 74.8711 120.056 74.881 120.778C74.9108 122.083 74.9207 123.358 74.9207 124.663L74.484 124.703C72.2407 124.891 70.0173 124.989 67.8534 124.999C65.6697 125.009 63.5654 124.92 61.5703 124.742L60.538 124.643C57.6 124.367 54.8207 123.991 52.1407 123.497C49.4508 123.002 46.87 122.389 44.3687 121.638C43.4456 121.341 42.7806 121.124 42.0659 120.887C41.3413 120.64 40.5671 120.363 39.4554 119.947H39.4454C37.49 119.176 35.5545 118.296 33.6189 117.298C31.6834 116.299 29.7478 115.182 27.8023 113.937L26.1943 112.958C26.4822 110.951 26.8097 108.914 27.048 106.908C27.5443 104.06 28.6758 99.1962 30.3235 94.9847C31.465 92.0485 32.8646 89.4187 34.4726 87.9753C36.0508 86.5616 38.2444 85.1578 40.7259 83.8528C43.4555 82.4292 46.5326 81.1242 49.5203 80.096L49.8677 80.966ZM61.0641 123.734L61.6994 123.793C63.6945 123.971 65.769 124.05 67.8931 124.05C69.8684 124.04 71.9231 123.961 74.0174 123.793V122.468L73.9777 120.788C73.9579 120.076 73.938 119.216 73.9083 118.227C73.8785 117.258 73.8289 116.171 73.7792 114.975C73.7197 113.818 73.6601 112.582 73.5708 111.277C73.4814 109.972 73.3822 108.647 73.2532 107.352C73.144 106.196 73.0149 105.029 72.8561 103.872C72.7172 102.834 72.5583 101.786 72.3797 100.748L71.7047 97.5551C71.4863 96.7049 71.2481 95.8942 70.99 95.1429C70.732 94.3816 70.4441 93.6698 70.1463 93.0173L70.057 92.8295L71.9429 88.4103L70.8412 86.8186C69.0148 84.1691 68.1512 82.9136 67.5259 82.9136C66.9899 82.9136 66.2851 83.922 64.9451 85.83C64.4191 86.5814 63.7937 87.4711 63.0592 88.4598L64.0518 90.5062L65.104 92.6911L64.7268 93.482C64.3595 94.263 64.022 95.1824 63.7243 96.2007C63.4265 97.219 63.1585 98.346 62.9203 99.5423C62.7416 100.442 62.5828 101.371 62.4438 102.32C62.2949 103.279 62.1659 104.248 62.0567 105.217L61.9475 106.235L61.8483 107.263C61.7292 108.539 61.62 109.844 61.5306 111.159C61.4413 112.464 61.3718 113.739 61.3123 114.945C61.2626 115.973 61.2229 116.952 61.1832 117.881C61.1435 118.83 61.1237 119.72 61.0939 120.551C61.084 121.173 61.0641 121.796 61.0443 122.429L61.0641 123.734ZM105.145 98.8898C104.669 97.4068 104.113 95.9239 103.468 94.4508C102.813 92.9778 102.078 91.5245 101.224 90.0811C100.42 88.7267 98.3558 87.2339 95.914 85.83C92.2315 83.7144 87.6954 81.836 85.1841 80.9363L85.5017 80.0565C88.0428 80.966 92.6385 82.874 96.3905 85.0194C98.9712 86.5023 101.155 88.1039 102.048 89.6066C102.932 91.0895 103.686 92.5823 104.351 94.0752C105.006 95.568 105.572 97.0707 106.068 98.6031L105.145 98.8898Z" fill="#333333"/>
<path fill-rule="evenodd" clip-rule="evenodd" d="M85.5214 80.1353C88.5091 81.1733 91.5961 82.4684 94.3257 83.9019C96.8072 85.197 99.0008 86.6009 100.579 88.0146C102.187 89.458 103.587 92.0877 104.738 95.0239C106.376 99.2355 107.517 104.1 108.004 106.937C108.242 108.944 108.579 110.98 108.857 112.987L107.249 113.966C105.304 115.212 103.368 116.329 101.433 117.327C99.4872 118.326 97.5516 119.206 95.6062 119.967H95.5962C94.4746 120.382 93.7103 120.659 92.9857 120.916C92.2909 121.163 91.6159 121.381 90.6829 121.677H90.673C88.1617 122.429 85.5909 123.042 82.901 123.536C80.221 124.03 77.4417 124.396 74.5036 124.683L74.4143 123.753C77.3127 123.477 80.0721 123.101 82.7223 122.616C85.3626 122.132 87.9036 121.529 90.395 120.778C91.2785 120.501 91.9435 120.283 92.6681 120.026C93.3827 119.779 94.147 119.502 95.2488 119.087C97.1844 118.326 99.0902 117.456 100.996 116.487C102.902 115.508 104.807 114.401 106.743 113.175L107.845 112.503L107.081 107.085C106.594 104.277 105.473 99.4826 103.865 95.3502C102.763 92.5326 101.443 90.0314 99.9537 88.6967C98.435 87.3324 96.3109 85.978 93.8989 84.7126C91.209 83.3087 88.1716 82.0235 85.2137 81.0052L85.5214 80.1353Z" fill="#333333"/>
<path fill-rule="evenodd" clip-rule="evenodd" d="M42.8773 54.8506C42.9175 55.1871 42.9476 55.5236 42.9677 55.8701C42.9877 56.2264 42.9978 56.5729 42.9978 56.9094C42.9978 59.0276 42.6365 61.0567 41.9941 62.8978C41.3217 64.828 40.3381 66.5601 39.1136 68.0152C37.8691 69.4999 36.3736 70.6877 34.7176 71.5093C33.1117 72.3011 31.3453 72.7366 29.4985 72.7366C27.6518 72.7366 25.8853 72.3011 24.2795 71.5093C22.6234 70.6976 21.128 69.4999 19.8834 68.0152C18.659 66.5601 17.6754 64.828 17.0029 62.8978C16.3606 61.0468 15.9993 59.0177 15.9993 56.8995C15.9993 56.0285 16.0595 55.1673 16.1799 54.3161C16.3004 53.4549 16.481 52.6235 16.7119 51.8217L17.6252 52.0791C17.4044 52.8412 17.2338 53.6331 17.1234 54.4447C17.013 55.2366 16.9527 56.0581 16.9527 56.8995C16.9527 58.9187 17.294 60.839 17.9062 62.591C18.5385 64.4122 19.4719 66.0454 20.6161 67.4114C21.7804 68.7971 23.1654 69.9057 24.701 70.658C26.1764 71.3806 27.7923 71.7864 29.4985 71.7864C31.2048 71.7864 32.8206 71.3905 34.296 70.658C35.8316 69.9057 37.2267 68.7872 38.3809 67.4114C39.5352 66.0454 40.4585 64.4023 41.0908 62.5811C41.7031 60.8291 42.0443 58.9088 42.0443 56.8896C42.0443 56.5432 42.0343 56.2165 42.0142 55.8998C41.9941 55.5731 41.964 55.2564 41.9339 54.9397L42.8773 54.8506Z" fill="#333333"/>
<path fill-rule="evenodd" clip-rule="evenodd" d="M25.967 45.1042C29.2701 54.566 39.4732 55.1606 42.4622 55.4373C42.523 56.0729 42.5635 56.729 42.5635 57.3851C42.5635 59.2713 42.2899 61.096 41.7935 62.7772C50.8618 38.9433 29.2498 36.1037 25.663 40.7372C16.9797 40.6142 12.4304 51.4292 16.5136 60.4091C16.3616 59.4353 16.2806 58.4204 16.2806 57.3851C16.2806 55.6424 16.5136 53.9509 16.9392 52.3825C23.1604 50.281 24.589 48.5281 25.967 45.1042Z" fill="#AAAAAA"/>
<path fill-rule="evenodd" clip-rule="evenodd" d="M42.5238 55.5048C42.5532 55.8359 42.5827 56.157 42.5925 56.4881L42.6121 56.9497C43.5635 52.1432 42.975 48.5208 41.5527 45.8717C40.5326 43.9652 39.0711 42.5604 37.4429 41.5971C35.8048 40.6237 34.0098 40.0819 32.3129 39.8912C29.5567 39.5902 27.1045 40.2224 26.1531 41.4566L26.0157 41.6372H25.7901C24.3973 41.6171 23.1222 41.9081 21.9745 42.45C20.1305 43.323 18.6396 44.8482 17.5999 46.7447C16.5503 48.6713 15.9618 50.9792 15.9324 53.3975C15.9226 54.5113 16.0206 55.6452 16.2561 56.7892C16.2757 56.157 16.3345 55.5349 16.413 54.9228C16.5209 54.0698 16.6876 53.247 16.9034 52.4443L16.9721 52.2034L17.2075 52.1232C20.1599 51.1197 21.9647 50.1966 23.181 49.1329C24.3777 48.0893 25.025 46.8752 25.6626 45.2697L26.1236 44.1057L26.5356 45.2897C29.5371 53.9795 38.6984 54.7823 41.8274 55.0532L42.4944 55.1134L42.5238 55.5048ZM41.6704 56.5383L41.641 55.9964C38.4041 55.7155 29.5861 54.8525 26.0746 46.6845C25.5057 47.9187 24.8387 48.9322 23.7793 49.8554C22.5042 50.9692 20.6602 51.9225 17.7274 52.9359C17.5508 53.6183 17.4135 54.3207 17.3252 55.0432C17.2271 55.8259 17.1683 56.6386 17.1683 57.4715C17.1683 57.9632 17.1879 58.4448 17.2271 58.9164C17.2664 59.4081 17.3252 59.8898 17.3939 60.3514L17.9333 63.7731L16.5111 60.6223C15.4517 58.2642 14.9711 55.7757 15.0005 53.3875C15.03 50.7986 15.6577 48.3402 16.7857 46.2831C17.9137 44.206 19.5518 42.5403 21.5822 41.587C22.7789 41.0251 24.1226 40.704 25.5743 40.694C26.7906 39.3293 29.4684 38.6369 32.411 38.948C34.2354 39.1487 36.1579 39.7307 37.9137 40.7743C39.6695 41.8279 41.2585 43.3431 42.3669 45.4202C44.4071 49.2232 44.8485 54.8826 41.847 62.88L41.8372 62.9202L40.9978 62.7772C41.2333 61.9644 41.3762 60.9534 41.5037 60.0905C41.6214 59.2476 41.6901 58.3646 41.6901 57.4715C41.6999 57.1404 41.6901 56.8293 41.6704 56.5383Z" fill="#333333"/>
</g>
<defs>
<linearGradient id="paint0_linear_125_2088" x1="48.7274" y1="86.1856" x2="69.9735" y2="109.683" gradientUnits="userSpaceOnUse">
<stop stop-color="#FFC671"/>
<stop offset="1" stop-color="#FF6F3D"/>
</linearGradient>
<clipPath id="clip0_125_2088">
<rect width="135" height="135" fill="white"/>
</clipPath>
</defs>
</svg>
