<svg width="135" height="135" viewBox="0 0 135 135" fill="none" xmlns="http://www.w3.org/2000/svg">
<g clip-path="url(#clip0_125_2017)">
<path fill-rule="evenodd" clip-rule="evenodd" d="M133 87V14.0297C132.986 12.1696 132.243 10.3896 130.93 9.0743C129.617 7.75898 127.841 7.0139 125.984 7H9.01565C7.15927 7.0139 5.38286 7.75898 4.07017 9.0743C2.75747 10.3896 2.01387 12.1696 2 14.0297V87H133Z" fill="#FEFEFE"/>
<path fill-rule="evenodd" clip-rule="evenodd" d="M134 88H1V14.0222C1.01583 11.9002 1.86417 9.8691 3.36235 8.36793C4.8606 6.86669 6.88853 6.01593 9.00816 6.00006L9.01565 6L125.992 6.00003C128.111 6.0159 130.139 6.86669 131.638 8.36793C133.136 9.8691 133.984 11.9002 134 14.0222L134 14.0297L134 88ZM125.984 7.00003C127.841 7.01393 129.617 7.75901 130.93 9.07433C132.243 10.3896 132.986 12.1696 133 14.0297V87H2V14.0297C2.01387 12.1696 2.75747 10.3896 4.07017 9.07433C5.38286 7.75901 7.15927 7.01393 9.01565 7.00003H125.984Z" fill="#333333"/>
<path d="M85 109H49V117H85V109Z" fill="#EFEFEF"/>
<path fill-rule="evenodd" clip-rule="evenodd" d="M84.0317 118H40.5057C39.3107 118 38.1647 118.474 37.3197 119.318C36.4747 120.162 36 121.307 36 122.5C36 123.693 36.4747 124.838 37.3197 125.682C38.1647 126.526 39.3107 127 40.5057 127H91.4943C92.6893 127 93.8353 126.526 94.6803 125.682C95.5253 124.838 96 123.693 96 122.5C96 121.307 95.5253 120.162 94.6803 119.318C93.8353 118.474 92.6893 118 91.4943 118H84.0317Z" fill="#EFEFEF"/>
<path fill-rule="evenodd" clip-rule="evenodd" d="M40.5057 117H91.4943C92.9541 117 94.3543 117.579 95.387 118.61C96.4196 119.642 97 121.041 97 122.5C97 123.959 96.4196 125.358 95.387 126.39C94.3543 127.421 92.9541 128 91.4943 128H40.5057C39.0459 128 37.6457 127.421 36.613 126.39C35.5804 125.358 35 123.959 35 122.5C35 121.041 35.5804 119.642 36.613 118.61C37.6457 117.579 39.0459 117 40.5057 117ZM40.5057 118H91.4943C92.6893 118 93.8353 118.474 94.6803 119.318C95.5253 120.162 96 121.307 96 122.5C96 123.693 95.5253 124.838 94.6803 125.682C93.8353 126.526 92.6893 127 91.4943 127H40.5057C39.3107 127 38.1647 126.526 37.3197 125.682C36.4747 124.838 36 123.693 36 122.5C36 121.307 36.4747 120.162 37.3197 119.318C38.1647 118.474 39.3107 118 40.5057 118Z" fill="#333333"/>
<path d="M66.9183 101.509C69.0168 101.509 70.718 99.808 70.718 97.7095C70.718 95.611 69.0168 93.9098 66.9183 93.9098C64.8198 93.9098 63.1187 95.611 63.1187 97.7095C63.1187 99.808 64.8198 101.509 66.9183 101.509Z" fill="#333333"/>
<path d="M12 30C12 27.2386 14.2386 25 17 25H119C121.761 25 124 27.2386 124 30V85H12V30Z" fill="white"/>
<path d="M12 32C12 29.2386 14.2386 27 17 27H117C120.866 27 124 30.134 124 34V41H12V32Z" fill="#BDECFF"/>
<path fill-rule="evenodd" clip-rule="evenodd" d="M18 34.5C18 34.2239 18.2239 34 18.5 34H38.5C38.7761 34 39 34.2239 39 34.5C39 34.7761 38.7761 35 38.5 35H18.5C18.2239 35 18 34.7761 18 34.5Z" fill="#333333"/>
<path fill-rule="evenodd" clip-rule="evenodd" d="M11 32.5C11 29.4624 13.4624 27 16.5 27H118.5C121.538 27 124 29.4624 124 32.5V33.097C124 33.3732 123.776 33.597 123.5 33.597C123.224 33.597 123 33.3732 123 33.097V32.5C123 30.0147 120.985 28 118.5 28H16.5C14.0147 28 12 30.0147 12 32.5V87H123V65.5597C123 65.2836 123.224 65.0597 123.5 65.0597C123.776 65.0597 124 65.2836 124 65.5597V88H11V32.5Z" fill="#333333"/>
<path fill-rule="evenodd" clip-rule="evenodd" d="M11 41.5C11 41.2239 11.2239 41 11.5 41H108.5C108.776 41 109 41.2239 109 41.5C109 41.7761 108.776 42 108.5 42H11.5C11.2239 42 11 41.7761 11 41.5Z" fill="#333333"/>
<path d="M55.2369 49.5H21.7631C20.4967 49.5 19.5 50.5694 19.5 51.8386V71.1614C19.5 72.4348 20.4923 73.5 21.7631 73.5H55.2369C56.5033 73.5 57.5 72.4306 57.5 71.1614V51.8386C57.5 50.5694 56.5033 49.5 55.2369 49.5Z" fill="#BDECFF" stroke="#333333"/>
<path d="M29.9395 62.6287L29.5971 62.3199L29.2616 62.6362L20.489 70.9087C19.5012 71.8401 20.1604 73.5 21.5181 73.5H55C56.3807 73.5 57.5 72.3807 57.5 71V66.3556V66.1402L57.3435 65.9923L48.5063 57.6367L48.1511 57.3008L47.8073 57.6484L36.7789 68.7977L29.9395 62.6287Z" fill="white" stroke="#333333"/>
<path d="M25.5 58.5C27.1597 58.5 28.5 57.158 28.5 55.4981C28.5 53.8368 27.1543 52.5 25.5 52.5C23.8407 52.5 22.5 53.8415 22.5 55.4981C22.5 57.1537 23.8398 58.5 25.5 58.5Z" fill="url(#paint0_linear_125_2017)" stroke="#333333"/>
<path fill-rule="evenodd" clip-rule="evenodd" d="M67 60.5C67 60.2239 67.2239 60 67.5 60H88.5C88.7761 60 89 60.2239 89 60.5C89 60.7761 88.7761 61 88.5 61H67.5C67.2239 61 67 60.7761 67 60.5Z" fill="#333333"/>
<path fill-rule="evenodd" clip-rule="evenodd" d="M67 65.5C67 65.2239 67.2239 65 67.5 65H84.5C84.7761 65 85 65.2239 85 65.5C85 65.7761 84.7761 66 84.5 66H67.5C67.2239 66 67 65.7761 67 65.5Z" fill="#333333"/>
<path fill-rule="evenodd" clip-rule="evenodd" d="M67 70.5C67 70.2239 67.2239 70 67.5 70H81.6639C81.9401 70 82.1639 70.2239 82.1639 70.5C82.1639 70.7761 81.9401 71 81.6639 71H67.5C67.2239 71 67 70.7761 67 70.5Z" fill="#333333"/>
<path fill-rule="evenodd" clip-rule="evenodd" d="M67 52.5002C67 52.224 67.2239 52.0002 67.5 52.0002H94.5C94.7761 52.0002 95 52.224 95 52.5002C95 52.7763 94.7761 53.0002 94.5 53.0002H67.5C67.2239 53.0002 67 52.7763 67 52.5002Z" fill="url(#paint1_linear_125_2017)"/>
<path d="M133.5 87V86.5H133H2H1.5V87L1.49999 101.012L1.50001 101.015C1.51488 102.997 2.31154 104.892 3.7173 106.292C5.123 107.692 7.02486 108.485 9.01193 108.5H9.01565L125.984 108.5L125.988 108.5C127.975 108.485 129.877 107.692 131.283 106.292C132.688 104.892 133.485 102.997 133.5 101.015V101.012V87Z" fill="#BDECFF" stroke="#333333"/>
<path d="M49 108H48V118H49V108Z" fill="#333333"/>
<path d="M85 108H84V118H85V108Z" fill="#333333"/>
<path fill-rule="evenodd" clip-rule="evenodd" d="M10 14C10.3956 14 10.7822 14.1173 11.1111 14.3371C11.44 14.5568 11.6964 14.8692 11.8478 15.2346C11.9991 15.6001 12.0387 16.0022 11.9616 16.3902C11.8844 16.7781 11.6939 17.1345 11.4142 17.4142C11.1345 17.6939 10.7781 17.8844 10.3902 17.9616C10.0022 18.0387 9.60009 17.9991 9.23463 17.8478C8.86918 17.6964 8.55682 17.44 8.33706 17.1111C8.1173 16.7822 8 16.3956 8 16C8 15.4696 8.21071 14.9609 8.58579 14.5858C8.96086 14.2107 9.46957 14 10 14ZM16 14C16.3956 14 16.7822 14.1173 17.1111 14.3371C17.44 14.5568 17.6964 14.8692 17.8478 15.2346C17.9991 15.6001 18.0387 16.0022 17.9616 16.3902C17.8844 16.7781 17.6939 17.1345 17.4142 17.4142C17.1345 17.6939 16.7781 17.8844 16.3902 17.9616C16.0022 18.0387 15.6001 17.9991 15.2346 17.8478C14.8692 17.6964 14.5568 17.44 14.3371 17.1111C14.1173 16.7822 14 16.3956 14 16C14 15.4696 14.2107 14.9609 14.5858 14.5858C14.9609 14.2107 15.4696 14 16 14ZM23.1056 14.3334C22.7757 14.1145 22.3883 13.9985 21.9924 14C21.4633 14.002 20.9565 14.2136 20.5831 14.5885C20.2097 14.9633 20 15.4709 20 16C20 16.3959 20.1175 16.7829 20.3376 17.1119C20.5577 17.441 20.8705 17.6973 21.2364 17.8485C21.6023 17.9996 22.0048 18.0388 22.393 17.961C22.7811 17.8832 23.1375 17.692 23.4169 17.4115C23.6963 17.1311 23.8862 16.774 23.9625 16.3855C24.0388 15.9971 23.9981 15.5947 23.8456 15.2294C23.693 14.8641 23.4355 14.5522 23.1056 14.3334Z" fill="url(#paint2_linear_125_2017)"/>
<rect x="31" y="16" width="69" height="1" rx="0.5" fill="#333333"/>
<rect x="106" y="16" width="18" height="1" rx="0.5" fill="#FF6F3D"/>
<path fill-rule="evenodd" clip-rule="evenodd" d="M129.007 66C129.5 66 130 66.4722 130 66.9444V80.0556C130 80.5278 129.557 81 129.007 81C128.458 81 128 80.5278 128 80.0556V66.9444C128 66.4722 128.5 66 129.007 66Z" fill="#AAAAAA"/>
<path d="M130.293 46.7066C130.683 46.3163 130.683 45.6835 130.293 45.2931L123.925 38.9326C123.534 38.5422 122.901 38.5422 122.51 38.9326L91.3811 70.0288L89.6732 77.0967C89.3221 78.5498 90.6333 79.8596 92.0879 79.5089L99.1634 77.8028L130.293 46.7066Z" fill="white"/>
<path fill-rule="evenodd" clip-rule="evenodd" d="M116.925 44.9326L124 51.9999L99.2382 76.7355L92.1634 69.6682L116.925 44.9326Z" fill="url(#paint3_linear_125_2017)"/>
<path fill-rule="evenodd" clip-rule="evenodd" d="M120.293 48.2931L94.8232 73.7355L95.5307 74.4422L121 48.9999L120.293 48.2931Z" fill="white"/>
<path fill-rule="evenodd" clip-rule="evenodd" d="M99.5518 76.9771L92.4772 69.9099L91.7697 70.6166L98.8445 77.684L99.5518 76.9771Z" fill="#333333"/>
<path fill-rule="evenodd" clip-rule="evenodd" d="M124 51.9997L116.925 44.9326L116.218 45.6393L123.293 52.7066L124 51.9997Z" fill="#333333"/>
<path fill-rule="evenodd" clip-rule="evenodd" d="M126 49.9997L118.925 42.9326L118.218 43.6393L125.293 50.7066L126 49.9997Z" fill="#333333"/>
<path fill-rule="evenodd" clip-rule="evenodd" d="M94 77.9999L91.1701 75.1729L90.2268 78.471L90.6984 78.9422L94 77.9999Z" fill="#333333"/>
<path fill-rule="evenodd" clip-rule="evenodd" d="M123.218 39.6393L129.585 45.9999L98.6549 76.8972L91.8532 78.5373C91.1259 78.7127 90.4702 78.0578 90.6458 77.3312L92.2876 70.5367L123.218 39.6393ZM91.3811 70.0288L122.51 38.9326C122.901 38.5422 123.534 38.5422 123.925 38.9326L130.293 45.2931C130.683 45.6835 130.683 46.3163 130.293 46.7066L99.1634 77.8028L92.0879 79.5089C90.6333 79.8596 89.3221 78.5498 89.6732 77.0967L91.3811 70.0288Z" fill="#333333"/>
<circle cx="68" cy="98" r="3" fill="#333333"/>
</g>
<defs>
<linearGradient id="paint0_linear_125_2017" x1="23" y1="52.8047" x2="28" y2="58" gradientUnits="userSpaceOnUse">
<stop stop-color="#FF8E3D"/>
<stop offset="1" stop-color="#FF6F3D"/>
</linearGradient>
<linearGradient id="paint1_linear_125_2017" x1="66.6148" y1="50.5002" x2="94.5" y2="50.5002" gradientUnits="userSpaceOnUse">
<stop stop-color="#FF8E3D"/>
<stop offset="1" stop-color="#FF6F3D"/>
</linearGradient>
<linearGradient id="paint2_linear_125_2017" x1="8.00003" y1="13.8437" x2="9.82085" y2="21.4115" gradientUnits="userSpaceOnUse">
<stop stop-color="#FF8E3D"/>
<stop offset="1" stop-color="#FF6F3D"/>
</linearGradient>
<linearGradient id="paint3_linear_125_2017" x1="102.845" y1="54.8914" x2="111.082" y2="63.6645" gradientUnits="userSpaceOnUse">
<stop stop-color="#FFC671"/>
<stop offset="1" stop-color="#FF6F3D"/>
</linearGradient>
<clipPath id="clip0_125_2017">
<rect width="135" height="135" fill="white"/>
</clipPath>
</defs>
</svg>
