<svg width="135" height="135" viewBox="0 0 135 135" fill="none" xmlns="http://www.w3.org/2000/svg">
<g clip-path="url(#clip0_125_2137)">
<path fill-rule="evenodd" clip-rule="evenodd" d="M7.52625 13C3.92249 13 1 15.9015 1 19.4787V111.521C1 115.099 3.92249 118 7.52625 118H114.474C118.077 118 121 115.099 121 111.521V19.4787C121 15.9015 118.077 13 114.474 13H7.52625Z" fill="white"/>
<path fill-rule="evenodd" clip-rule="evenodd" d="M1 18.2475C1 14.3616 4.6538 13 6.3293 13H115.661C119.637 13 121 15.7331 121 18.2475V34H1V18.2475Z" fill="#BDECFF"/>
<path fill-rule="evenodd" clip-rule="evenodd" d="M0 19.0811C0 15.1833 3.11574 12 6.97535 12H27.3348C27.611 12 27.8348 12.2239 27.8348 12.5C27.8348 12.7761 27.611 13 27.3348 13H6.97535C3.68372 13 1.00008 15.7197 1 19.081L1.02762 111.919C1.02762 115.29 3.7108 118 7.00297 118H57.8093C58.0855 118 58.3093 118.224 58.3093 118.5C58.3093 118.776 58.0855 119 57.8093 119H7.00297C3.14389 119 0.0276962 115.827 0.0276191 111.919L0 19.0811ZM42.7099 12.5001C42.7099 12.2239 42.9337 12.0001 43.2099 12.0001H76.5075C76.7837 12.0001 77.0075 12.2239 77.0075 12.5001C77.0075 12.7762 76.7837 13.0001 76.5075 13.0001H43.2099C42.9337 13.0001 42.7099 12.7762 42.7099 12.5001ZM92.0148 12.5001C92.0148 12.2239 92.2387 12.0001 92.5148 12.0001H114.025C117.884 12.0001 122 15.1729 122 19.0812V62.6546C122 62.9308 121.776 63.1546 121.5 63.1546C121.224 63.1546 121 62.9308 121 62.6546V19.0812C121 15.7104 117.317 13.0001 114.025 13.0001H92.5148C92.2387 13.0001 92.0148 12.7762 92.0148 12.5001Z" fill="#333333"/>
<path fill-rule="evenodd" clip-rule="evenodd" d="M32 4.49937C32 4.22194 31.7727 4 31.5 4C31.2197 4 31 4.22194 31 4.49937V9.5V19.5006C31 19.7781 31.2273 20 31.5 20C31.7727 20 32 19.7781 32 19.5006V4.49937ZM38 4.49937C38 4.22194 37.7727 4 37.5 4C37.2197 4 37 4.22194 37 4.49937V9.5V19.5006C37 19.7781 37.2273 20 37.5 20C37.7727 20 38 19.7781 38 19.5006V4.49937Z" fill="#333333"/>
<path fill-rule="evenodd" clip-rule="evenodd" d="M83 4.49937C83 4.22194 82.7727 4 82.5 4C82.2197 4 82 4.22194 82 4.49937V9.5V19.5006C82 19.7781 82.2273 20 82.5 20C82.7727 20 83 19.7781 83 19.5006V4.49937ZM89 4.49937C89 4.22194 88.7727 4 88.5 4C88.2197 4 88 4.22194 88 4.49937V9.5V19.5006C88 19.7781 88.2273 20 88.5 20C88.7727 20 89 19.7781 89 19.5006V4.49937Z" fill="#333333"/>
<path fill-rule="evenodd" clip-rule="evenodd" d="M10 28.5V28.5C10 28.2239 10.2239 28 10.5 28H109.5C109.776 28 110 28.2239 110 28.5V28.5C110 28.7761 109.776 29 109.5 29H10.5C10.2239 29 10 28.7761 10 28.5V28.5Z" fill="#333333"/>
<path d="M56.5 64C56.5 62.064 58.064 60.5 60 60.5C61.936 60.5 63.5 62.064 63.5 64C63.5 65.936 61.936 67.5 60 67.5C58.064 67.5 56.5 65.936 56.5 64Z" fill="#EFEFEF" stroke="#333333"/>
<path d="M69.5 64C69.5 62.064 71.064 60.5 73 60.5C74.9267 60.5 76.5 62.0648 76.5 64C76.5 65.936 74.936 67.5 73 67.5C71.0733 67.5 69.5 65.9352 69.5 64Z" fill="#EFEFEF" stroke="#333333"/>
<path d="M17.5 64C17.5 62.064 19.064 60.5 21 60.5C22.936 60.5 24.5 62.064 24.5 64C24.5 65.936 22.936 67.5 21 67.5C19.064 67.5 17.5 65.936 17.5 64Z" fill="#EFEFEF" stroke="#333333"/>
<path d="M37.5 63.9977H37.5V64C37.5 65.936 35.936 67.5 34 67.5C32.0733 67.5 30.5 65.9352 30.5 64C30.5 62.064 32.064 60.5 34 60.5C35.9381 60.5 37.5088 62.0656 37.5 63.9977Z" fill="#EFEFEF" stroke="#333333"/>
<path d="M89.5 63.9977H89.5V64C89.5 65.936 87.936 67.5 86 67.5C84.064 67.5 82.5 65.936 82.5 64C82.5 62.064 84.064 60.5 86 60.5C87.9381 60.5 89.5088 62.0656 89.5 63.9977Z" fill="#EFEFEF" stroke="#333333"/>
<path d="M95.5 64C95.5 62.064 97.064 60.5 99 60.5C100.936 60.5 102.5 62.064 102.5 64C102.5 65.936 100.936 67.5 99 67.5C97.064 67.5 95.5 65.936 95.5 64Z" fill="#EFEFEF" stroke="#333333"/>
<path d="M56.5 51C56.5 49.0733 58.0648 47.5 60 47.5C61.936 47.5 63.5 49.064 63.5 51C63.5 52.936 61.936 54.5 60 54.5C58.064 54.5 56.5 52.936 56.5 51Z" fill="#EFEFEF" stroke="#333333"/>
<path d="M69.5 51C69.5 49.0733 71.0648 47.5 73 47.5C74.9267 47.5 76.5 49.0648 76.5 51C76.5 52.936 74.936 54.5 73 54.5C71.0733 54.5 69.5 52.9352 69.5 51Z" fill="#EFEFEF" stroke="#333333"/>
<path d="M89.5 50.9977H89.5V51C89.5 52.936 87.936 54.5 86 54.5C84.064 54.5 82.5 52.936 82.5 51C82.5 49.0733 84.0648 47.5 86 47.5C87.9381 47.5 89.5088 49.0656 89.5 50.9977Z" fill="#EFEFEF" stroke="#333333"/>
<path d="M95.5 51C95.5 49.0733 97.0648 47.5 99 47.5C100.936 47.5 102.5 49.064 102.5 51C102.5 52.936 100.936 54.5 99 54.5C97.064 54.5 95.5 52.936 95.5 51Z" fill="#EFEFEF" stroke="#333333"/>
<path d="M56.5 76C56.5 74.0733 58.0648 72.5 60 72.5C61.936 72.5 63.5 74.064 63.5 76C63.5 77.936 61.936 79.5 60 79.5C58.064 79.5 56.5 77.936 56.5 76Z" fill="#EFEFEF" stroke="#333333"/>
<path d="M69.5 76C69.5 74.0733 71.0648 72.5 73 72.5C74.9267 72.5 76.5 74.0648 76.5 76C76.5 77.936 74.936 79.5 73 79.5C71.0733 79.5 69.5 77.9352 69.5 76Z" fill="#EFEFEF" stroke="#333333"/>
<path d="M96.2314 76C96.2314 74.0733 97.7963 72.5 99.7314 72.5C101.667 72.5 103.231 74.064 103.231 76C103.231 77.936 101.667 79.5 99.7314 79.5C97.7955 79.5 96.2314 77.936 96.2314 76Z" fill="#EFEFEF" stroke="#333333"/>
<path d="M56.5 88C56.5 86.0733 58.0648 84.5 60 84.5C61.9352 84.5 63.5 86.0733 63.5 88C63.5 89.936 61.936 91.5 60 91.5C58.064 91.5 56.5 89.936 56.5 88Z" fill="#EFEFEF" stroke="#333333"/>
<path d="M90.1084 87.9977H90.1084V88C90.1084 89.936 88.5444 91.5 86.6084 91.5C84.6724 91.5 83.1084 89.936 83.1084 88C83.1084 86.0733 84.6732 84.5 86.6084 84.5C88.5456 84.5 90.1172 86.0749 90.1084 87.9977Z" fill="#EFEFEF" stroke="#333333"/>
<path d="M96.2314 88C96.2314 86.0733 97.7963 84.5 99.7314 84.5C101.667 84.5 103.231 86.0733 103.231 88C103.231 89.936 101.667 91.5 99.7314 91.5C97.7955 91.5 96.2314 89.936 96.2314 88Z" fill="#EFEFEF" stroke="#333333"/>
<path d="M56.5 100C56.5 98.0733 58.0648 96.5 60 96.5C61.9352 96.5 63.5 98.0733 63.5 100C63.5 101.936 61.936 103.5 60 103.5C58.064 103.5 56.5 101.936 56.5 100Z" fill="#EFEFEF" stroke="#333333"/>
<path d="M70.0049 100C70.0049 98.0733 71.5697 96.5 73.5049 96.5C75.4308 96.5 77.0049 98.0741 77.0049 100C77.0049 101.936 75.4409 103.5 73.5049 103.5C71.5782 103.5 70.0049 101.935 70.0049 100Z" fill="#EFEFEF" stroke="#333333"/>
<path d="M17.5 76C17.5 74.0733 19.0648 72.5 21 72.5C22.936 72.5 24.5 74.064 24.5 76C24.5 77.936 22.936 79.5 21 79.5C19.064 79.5 17.5 77.936 17.5 76Z" fill="#EFEFEF" stroke="#333333"/>
<path d="M37.5 75.9977H37.5V76C37.5 77.936 35.936 79.5 34 79.5C32.0733 79.5 30.5 77.9352 30.5 76C30.5 74.0733 32.0648 72.5 34 72.5C35.9381 72.5 37.5088 74.0656 37.5 75.9977Z" fill="#EFEFEF" stroke="#333333"/>
<path d="M50.5 75.9977H50.5V76C50.5 77.936 48.936 79.5 47 79.5C45.064 79.5 43.5 77.936 43.5 76C43.5 74.0733 45.0648 72.5 47 72.5C48.9381 72.5 50.5088 74.0656 50.5 75.9977Z" fill="#EFEFEF" stroke="#333333"/>
<path d="M17.5 88C17.5 86.0733 19.0648 84.5 21 84.5C22.9352 84.5 24.5 86.0733 24.5 88C24.5 89.936 22.936 91.5 21 91.5C19.064 91.5 17.5 89.936 17.5 88Z" fill="#EFEFEF" stroke="#333333"/>
<path d="M37.5 87.9977H37.5V88C37.5 89.936 35.936 91.5 34 91.5C32.0733 91.5 30.5 89.9352 30.5 88C30.5 86.0733 32.0648 84.5 34 84.5C35.9373 84.5 37.5088 86.0749 37.5 87.9977Z" fill="#EFEFEF" stroke="#333333"/>
<path d="M50.5 87.9977H50.5V88C50.5 89.936 48.936 91.5 47 91.5C45.064 91.5 43.5 89.936 43.5 88C43.5 86.0733 45.0648 84.5 47 84.5C48.9372 84.5 50.5088 86.0749 50.5 87.9977Z" fill="#EFEFEF" stroke="#333333"/>
<path d="M17.5 100C17.5 98.0733 19.0648 96.5 21 96.5C22.9352 96.5 24.5 98.0733 24.5 100C24.5 101.936 22.936 103.5 21 103.5C19.064 103.5 17.5 101.936 17.5 100Z" fill="#EFEFEF" stroke="#333333"/>
<path d="M37.5 99.9977H37.5V100C37.5 101.936 35.936 103.5 34 103.5C32.0733 103.5 30.5 101.935 30.5 100C30.5 98.0733 32.0648 96.5 34 96.5C35.9373 96.5 37.5088 98.0749 37.5 99.9977Z" fill="#EFEFEF" stroke="#333333"/>
<path d="M50.5 99.9977H50.5V100C50.5 101.936 48.936 103.5 47 103.5C45.064 103.5 43.5 101.936 43.5 100C43.5 98.0733 45.0648 96.5 47 96.5C48.9373 96.5 50.5088 98.0749 50.5 99.9977Z" fill="#EFEFEF" stroke="#333333"/>
<path fill-rule="evenodd" clip-rule="evenodd" d="M43 64C43 61.7879 44.7879 60 47 60C49.2121 60 51 61.7879 51 64C51 66.2121 49.2121 68 47 68C44.798 68 43 66.2121 43 64Z" fill="url(#paint0_linear_125_2137)"/>
<circle cx="100.5" cy="102.5" r="30.5" fill="white"/>
<path d="M115.024 75.6734C110.706 73.3306 105.758 72 100.5 72C83.6553 72 70 85.6553 70 102.5C70 119.345 83.6553 133 100.5 133C117.345 133 131 119.345 131 102.5C131 98.5705 130.257 94.8146 128.904 91.3651" stroke="#333333" stroke-linecap="round"/>
<path fill-rule="evenodd" clip-rule="evenodd" d="M132.453 68.6915C134.112 69.8732 134.496 72.1887 133.316 73.8509L101.471 118.451C100.838 119.335 99.8502 119.892 98.7663 119.988C97.6825 120.074 96.6178 119.69 95.8504 118.922L81.0791 104.135C79.6403 102.694 79.6403 100.349 81.0791 98.9083C82.5178 97.4671 84.8582 97.4671 86.297 98.9083L97.9798 110.611L127.292 69.5658C128.482 67.8844 130.793 67.5001 132.453 68.6915Z" fill="url(#paint1_linear_125_2137)"/>
<path fill-rule="evenodd" clip-rule="evenodd" d="M133.316 73.8509L101.471 118.451C100.838 119.335 99.8502 119.892 98.7663 119.988C97.6825 120.074 96.6178 119.69 95.8504 118.922L81.0791 104.135C79.6403 102.694 79.6403 100.349 81.0791 98.9083C82.5178 97.4671 84.8582 97.4671 86.297 98.9083L97.9798 110.611L127.292 69.5658C128.482 67.8844 130.793 67.5001 132.453 68.6915C134.112 69.8732 134.496 72.1887 133.316 73.8509ZM133.034 67.878C130.924 66.3639 127.986 66.8551 126.477 68.9867C126.477 68.9872 126.476 68.9878 126.476 68.9883L97.8527 109.068L87.0047 98.2018C85.1753 96.3693 82.2008 96.3693 80.3714 98.2018C78.5429 100.033 78.5429 103.01 80.3714 104.841L95.1427 119.628C96.1212 120.608 97.4753 121.094 98.8459 120.985L98.8546 120.984C100.225 120.863 101.479 120.157 102.284 119.033L134.13 74.432L134.131 74.4297C135.628 72.3214 135.145 69.3824 133.034 67.878Z" fill="#333333"/>
</g>
<defs>
<linearGradient id="paint0_linear_125_2137" x1="42.8839" y1="59.4577" x2="47.6296" y2="64.6849" gradientUnits="userSpaceOnUse">
<stop stop-color="#FFC671"/>
<stop offset="1" stop-color="#FF6F3D"/>
</linearGradient>
<linearGradient id="paint1_linear_125_2137" x1="80.0001" y1="65.9687" x2="131.888" y2="121.957" gradientUnits="userSpaceOnUse">
<stop stop-color="#FF8E3D"/>
<stop offset="1" stop-color="#FF6F3D"/>
</linearGradient>
<clipPath id="clip0_125_2137">
<rect width="135" height="135" fill="white"/>
</clipPath>
</defs>
</svg>
