<svg width="100" height="100" viewBox="0 0 100 100" fill="none" xmlns="http://www.w3.org/2000/svg">
<path d="M15 10C15 7.23121 17.0135 3 22 3L75 3C77.8197 3 81 6.23121 81 9V91C81 93.7688 77.8197 97 75 97H22C18.4683 97 15 94.8306 15 90V10Z" fill="white"/>
<path fill-rule="evenodd" clip-rule="evenodd" d="M15 9C15 5.84709 17.8221 3 20.9976 3H74.9763C78.1518 3 80.976 5.84709 80.976 9V53.9999H79.9751V8.99042C79.9751 6.41076 77.5745 4 74.9763 4H20.9976C18.3995 4 15.9996 6.42034 15.9996 9V42L15 41.9902V9ZM15.9957 81.9991V91.3043C15.9957 93.884 18.2584 95.962 20.8565 95.962H75.0546C77.6528 95.962 79.9546 93.8708 79.9546 91.2911V82.0004H81V91.2911C81 94.444 78.2301 97 75.0546 97H20.8565C17.681 97 15.0023 94.4572 15.0023 91.3043V81.9991H15.9957Z" fill="#333333"/>
<path d="M66.9983 14.4337H28.6729C27.5589 14.4337 26.6558 15.3987 26.6558 16.589V39.2195C26.6558 40.4098 27.5589 41.3748 28.6729 41.3748H66.9983C68.1123 41.3748 69.0154 40.4098 69.0154 39.2195V16.589C69.0154 15.3987 68.1123 14.4337 66.9983 14.4337Z" fill="#CCE9FF"/>
<path fill-rule="evenodd" clip-rule="evenodd" d="M27 42L40 29L48 37L60.7273 20L69 31.9845V42" fill="white"/>
<path fill-rule="evenodd" clip-rule="evenodd" d="M29.0582 14H66.9418C68.6308 14 70 15.4094 70 17.148V38.852C70 40.5906 68.6308 42 66.9418 42H29.0582C27.3692 42 26 40.5906 26 38.852V17.148C26 15.4094 27.3692 14 29.0582 14ZM29.0582 15.0493H66.9418C68.0678 15.0493 68.9806 15.9889 68.9806 17.148V38.852C68.9806 40.0111 68.0678 40.9507 66.9418 40.9507H29.0582C27.9322 40.9507 27.0194 40.0111 27.0194 38.852V17.148C27.0194 15.9889 27.9322 15.0493 29.0582 15.0493Z" fill="#333333"/>
<path fill-rule="evenodd" clip-rule="evenodd" d="M60.4487 19C60.6084 19.0022 60.7576 19.0859 60.85 19.2254L68.9077 31.378C69.0675 31.619 69.0146 31.9531 68.7895 32.1243C68.5645 32.2954 68.2525 32.2388 68.0927 31.9977L60.4321 20.4439L48.7563 37.1635C48.6726 37.2833 48.5459 37.3601 48.4069 37.3754C48.268 37.3906 48.1294 37.3429 48.0248 37.2437L39.7386 29.3886L27.8341 40.8626C27.6289 41.0603 27.3129 41.0425 27.1283 40.8228C26.9437 40.6031 26.9603 40.2647 27.1654 40.0669L39.4015 28.2734C39.5904 28.0913 39.8768 28.09 40.0671 28.2704L48.2809 36.0569L60.0423 19.2147C60.138 19.0777 60.289 18.9979 60.4487 19Z" fill="#333333"/>
<path fill-rule="evenodd" clip-rule="evenodd" d="M35.1745 25.4342C36.3756 25.4342 37.3483 24.418 37.3483 23.1658C37.3483 21.9136 36.3756 20.8974 35.1745 20.8974C33.9735 20.8974 33.0008 21.9136 33.0008 23.1658C33.0008 24.418 33.9735 25.4342 35.1745 25.4342ZM35.1745 26.4875C36.9321 26.4875 38.3568 25.0003 38.3568 23.1658C38.3568 21.3313 36.9321 19.8441 35.1745 19.8441C33.417 19.8441 31.9922 21.3313 31.9922 23.1658C31.9922 25.0003 33.417 26.4875 35.1745 26.4875Z" fill="#333333"/>
<path fill-rule="evenodd" clip-rule="evenodd" d="M44.0068 51.5C44.0068 51.2239 44.2325 51 44.5108 51H65.5003C65.7787 51 66.0043 51.2239 66.0043 51.5C66.0043 51.7761 65.7787 52 65.5003 52H44.5108C44.2325 52 44.0068 51.7761 44.0068 51.5Z" fill="#333333"/>
<path fill-rule="evenodd" clip-rule="evenodd" d="M44.0068 61.5C44.0068 61.2239 44.2325 61 44.5108 61H65.5003C65.7787 61 66.0043 61.2239 66.0043 61.5C66.0043 61.7761 65.7787 62 65.5003 62H44.5108C44.2325 62 44.0068 61.7761 44.0068 61.5Z" fill="#333333"/>
<path fill-rule="evenodd" clip-rule="evenodd" d="M44.0068 71.5C44.0068 71.2239 44.2425 71 44.5332 71H60.4785C60.7692 71 61.0049 71.2239 61.0049 71.5C61.0049 71.7761 60.7692 72 60.4785 72H44.5332C44.2425 72 44.0068 71.7761 44.0068 71.5Z" fill="#333333"/>
<path fill-rule="evenodd" clip-rule="evenodd" d="M44.0068 56.5C44.0068 56.2239 44.2325 56 44.5108 56H65.5003C65.7787 56 66.0043 56.2239 66.0043 56.5C66.0043 56.7761 65.7787 57 65.5003 57H44.5108C44.2325 57 44.0068 56.7761 44.0068 56.5Z" fill="#333333"/>
<path fill-rule="evenodd" clip-rule="evenodd" d="M55.9614 66.5C55.9614 66.2239 56.1849 66 56.4605 66H65.9098C66.1854 66 66.4089 66.2239 66.4089 66.5C66.4089 66.7761 66.1854 67 65.9098 67H56.4605C56.1849 67 55.9614 66.7761 55.9614 66.5Z" fill="#333333"/>
<path fill-rule="evenodd" clip-rule="evenodd" d="M44.0068 66.5C44.0068 66.2239 44.2187 66 44.4799 66H51.6454C51.9067 66 52.1185 66.2239 52.1185 66.5C52.1185 66.7761 51.9067 67 51.6454 67H44.4799C44.2187 67 44.0068 66.7761 44.0068 66.5Z" fill="#333333"/>
<path fill-rule="evenodd" clip-rule="evenodd" d="M29.0083 77.5C29.0083 77.2239 29.2433 77 29.5332 77H37.4824C37.7723 77 38.0073 77.2239 38.0073 77.5C38.0073 77.7761 37.7723 78 37.4824 78H29.5332C29.2433 78 29.0083 77.7761 29.0083 77.5Z" fill="#333333"/>
<path fill-rule="evenodd" clip-rule="evenodd" d="M40.0073 77.5C40.0073 77.2239 40.2395 77 40.5259 77H56.8871C57.1735 77 57.4056 77.2239 57.4056 77.5C57.4056 77.7761 57.1735 78 56.8871 78H40.5259C40.2395 78 40.0073 77.7761 40.0073 77.5Z" fill="#333333"/>
<path d="M92.4921 63.4448L84.9092 55.8799L60.5923 80.2889L68.3483 87.6524L92.4921 63.4448Z" fill="url(#paint0_linear)"/>
<path fill-rule="evenodd" clip-rule="evenodd" d="M68.104 87.333L97.8046 57.4375C98.2088 57.0307 98.2088 56.3711 97.8046 55.9643L92.402 50.5263C91.9979 50.1195 91.3426 50.1195 90.9384 50.5263L61.2378 80.4218C61.1109 80.5495 61.0192 80.7082 60.9717 80.8823L58.9247 88.3808C58.7121 89.1597 59.423 89.8753 60.1969 89.6612L67.6464 87.6009C67.8194 87.553 67.9771 87.4607 68.104 87.333ZM98.5364 58.1741C99.3447 57.3605 99.3447 56.0414 98.5364 55.2277L93.1338 49.7897C92.3255 48.9761 91.015 48.9761 90.2066 49.7897L60.506 79.6852C60.2523 79.9406 60.0688 80.258 59.9738 80.6063L57.9268 88.1048C57.5015 89.6626 58.9234 91.0938 60.4711 90.6657L67.9206 88.6053C68.2667 88.5096 68.582 88.325 68.8358 88.0696L98.5364 58.1741Z" fill="#333333"/>
<path d="M89.5 60.0269L64.8538 84.8347L64.1496 84.1259L88.7958 59.3181L89.5 60.0269Z" fill="white"/>
<path fill-rule="evenodd" clip-rule="evenodd" d="M60.9452 79.9082L68.7234 87.2197L68.017 87.9811L60.2388 80.6696L60.9452 79.9082Z" fill="#333333"/>
<path fill-rule="evenodd" clip-rule="evenodd" d="M85.4755 55.7394L93.1011 63.2049L92.3795 63.9517L84.7539 56.4862L85.4755 55.7394Z" fill="#333333"/>
<path fill-rule="evenodd" clip-rule="evenodd" d="M59.7044 84.2316L64.0759 88.806L63.33 89.5282L58.9585 84.9538L59.7044 84.2316Z" fill="#333333"/>
<path fill-rule="evenodd" clip-rule="evenodd" d="M87.402 53.8094L94.6618 61.1209L93.9297 61.8574L86.6699 54.5459L87.402 53.8094Z" fill="#333333"/>
<path d="M0 47.605C0 47.0392 1.20164 46 1.78461 46H35.9444C37.0161 46 38 47.0959 38 48.0244V70.1917C38 70.7575 37.5274 71.2161 36.9444 71.2161H20.7853C20.4582 71.2161 20.1496 71.3633 19.9497 71.6146L15.1881 77.6015C14.7357 78.1702 13.8363 78.1222 13.4511 77.5086L10.0278 72.6667C9.5 71.6 8.28486 71.2161 7.91667 71.2161H1.05556C0.472588 71.2161 0 70.7575 0 70.1917V47.605Z" fill="url(#paint1_linear)"/>
<path fill-rule="evenodd" clip-rule="evenodd" d="M36 47H2C1.44438 47 1 47.436 1 48V70C1 70.564 1.44438 71 2 71H9C9 71 9.9484 71.1045 10.5 72L13.6253 76.4989C13.9939 77.0973 14.8352 77.1448 15.2669 76.5915L18.923 72.1467C19.4955 71.413 20.078 71 21 71L36 70.9852C36.5556 70.9852 37 70.564 37 70V48C37 47.436 36.5556 47 36 47ZM2 46C0.888765 46 0 46.8719 0 48V70C0 71.1281 0.888765 72 2 72H9C9 72 9.63227 72.403 10 73L12.7723 77.0404C13.5096 78.2373 15.1921 78.3322 16.0555 77.2256L19.7116 72.7808C20.0933 72.2917 20.3854 72 21 72L36 72.0065C37.1112 72.0065 38 71.1281 38 70V48C38 46.8719 37.1112 46 36 46H2Z" fill="#333333"/>
<path fill-rule="evenodd" clip-rule="evenodd" d="M7 56.5C7 56.2239 7.22984 56 7.51336 56H31.4866C31.7702 56 32 56.2239 32 56.5C32 56.7761 31.7702 57 31.4866 57H7.51336C7.22984 57 7 56.7761 7 56.5Z" fill="white"/>
<path fill-rule="evenodd" clip-rule="evenodd" d="M7 60.5C7 60.2239 7.22684 60 7.50666 60H23.4933C23.7732 60 24 60.2239 24 60.5C24 60.7761 23.7732 61 23.4933 61H7.50666C7.22684 61 7 60.7761 7 60.5Z" fill="white"/>
<defs>
<linearGradient id="paint0_linear" x1="60.5923" y1="54.6388" x2="92.3597" y2="87.7794" gradientUnits="userSpaceOnUse">
<stop stop-color="#FFC671"/>
<stop offset="0.59375" stop-color="#FF7541"/>
<stop offset="1" stop-color="#FF6F3D"/>
</linearGradient>
<linearGradient id="paint1_linear" x1="7.31618e-05" y1="44.75" x2="31.3291" y2="83.4065" gradientUnits="userSpaceOnUse">
<stop stop-color="#FFC671"/>
<stop offset="0.59375" stop-color="#FF7541"/>
<stop offset="1" stop-color="#FF6F3D"/>
</linearGradient>
</defs>
</svg>
