<svg width="100" height="100" viewBox="0 0 100 100" fill="none" xmlns="http://www.w3.org/2000/svg">
<path d="M100 55.5327C100 73.6717 79.2556 93.9999 51.0574 93.9999C22.8592 93.9999 0 94.1014 0 64.9114C0 51.2124 6.34441 47.398 17.8248 40.2049C24.5928 35.9644 21.0727 29.897 23.8671 21.4404C25.4373 16.6885 32.8293 8.16739 51.0574 7.05434C71.6012 5.79989 100 26.3427 100 55.5327Z" fill="#F1F9FF"/>
<path d="M84.8679 20.4846V79.8566C84.8679 81.8444 83.1808 83.4544 81.0988 83.4544H18.9012C16.8187 83.4544 15.1316 81.8444 15.1316 79.8566V20.4846C15.1316 18.4967 16.8187 16.8862 18.9012 16.8862H81.0988C83.1813 16.8862 84.8679 18.4967 84.8679 20.4846Z" fill="#7DD5FD"/>
<path d="M84.8679 20.4846V27.3384H15.1316V20.4846C15.1316 18.4967 16.8187 16.8862 18.9012 16.8862H81.0988C83.1813 16.8862 84.8679 18.4967 84.8679 20.4846Z" fill="#576D91"/>
<path d="M18.9012 16.8862H32.0885C30.5185 16.8862 29.2453 18.1138 29.2453 19.6278C29.2453 20.3835 28.9271 21.0701 28.4137 21.5653C27.8986 22.0625 27.1884 22.3688 26.4031 22.3688H15.1316V20.4846C15.1316 18.4967 16.8187 16.8862 18.9012 16.8862Z" fill="#83A7C5"/>
<path d="M84.8679 20.4845V22.3688H48.3044C46.7343 22.3688 45.4611 21.1412 45.4611 19.6277C45.4611 18.8715 45.1429 18.1849 44.6279 17.6897C44.1129 17.1925 43.4036 16.8862 42.6189 16.8862H81.0988C83.1813 16.8862 84.8679 18.4967 84.8679 20.4845Z" fill="#83A7C5"/>
<path d="M78.5071 51.159H21.4934C21.0685 51.159 20.7237 50.8385 20.7237 50.4436V32.7602C20.7237 32.3653 21.0685 32.0453 21.4934 32.0453H78.5071C78.932 32.0453 79.2763 32.3653 79.2763 32.7602V50.4436C79.2763 50.8385 78.932 51.159 78.5071 51.159Z" fill="white"/>
<path d="M75.3337 37.4716H43.914C43.2782 37.4716 42.7632 36.9946 42.7632 36.4062C42.7632 35.8173 43.2782 35.3408 43.914 35.3408H75.3337C75.9689 35.3408 76.4839 35.8173 76.4839 36.4062C76.4839 36.9946 75.9689 37.4716 75.3337 37.4716Z" fill="#959CB5"/>
<path d="M68.7547 42.0853H43.914C43.2782 42.0853 42.7632 41.6082 42.7632 41.0198C42.7632 40.431 43.2782 39.9544 43.914 39.9544H68.7547C69.39 39.9544 69.905 40.431 69.905 41.0198C69.905 41.6082 69.39 42.0853 68.7547 42.0853Z" fill="#959CB5"/>
<path d="M62.1758 46.699H43.914C43.2782 46.699 42.7632 46.222 42.7632 45.6336C42.7632 45.0447 43.2782 44.5682 43.914 44.5682H62.1758C62.811 44.5682 63.326 45.0447 63.326 45.6336C63.326 46.222 62.811 46.699 62.1758 46.699Z" fill="#959CB5"/>
<g clip-path="url(#clip0)">
<path d="M29.8872 45.765L27.5316 47.0522C27.3934 47.1277 27.2691 47.2205 27.1535 47.3217C28.5269 48.4818 30.2998 49.1817 32.2369 49.1817C34.1596 49.1817 35.9212 48.4922 37.2907 47.348C37.1644 47.2411 37.0273 47.145 36.8754 47.0692L34.3529 45.8058C34.027 45.6426 33.8212 45.3089 33.8212 44.9439V43.9524C33.8921 43.8715 33.9731 43.7677 34.0598 43.645C34.4036 43.1585 34.6637 42.6234 34.8439 42.062C35.1674 41.962 35.4058 41.6627 35.4058 41.3069V40.2486C35.4058 40.0158 35.3024 39.8078 35.1418 39.6621V38.1322C35.1418 38.1322 35.4555 35.7514 32.2371 35.7514C29.0188 35.7514 29.3325 38.1322 29.3325 38.1322V39.6621C29.1716 39.8078 29.0685 40.0158 29.0685 40.2486V41.3069C29.0685 41.5857 29.2148 41.831 29.4338 41.9728C29.6977 43.1239 30.3889 43.9524 30.3889 43.9524V44.9194C30.3886 45.2716 30.1961 45.596 29.8872 45.765Z" fill="#E7ECED"/>
<path d="M32.3718 33.3648C28.0124 33.2902 24.4178 36.7702 24.3433 41.1375C24.301 43.6138 25.4027 45.8394 27.1568 47.3194C27.2715 47.2191 27.3946 47.1272 27.5313 47.0526L29.8869 45.7654C30.1959 45.5964 30.3883 45.272 30.3883 44.9192V43.9522C30.3883 43.9522 29.6968 43.1237 29.4332 41.9726C29.2145 41.8308 29.068 41.5858 29.068 41.3067V40.2484C29.068 40.0156 29.1713 39.8076 29.3319 39.6619V38.132C29.3319 38.132 29.0182 35.7513 32.2366 35.7513C35.4549 35.7513 35.1412 38.132 35.1412 38.132V39.6619C35.3021 39.8076 35.4052 40.0156 35.4052 40.2484V41.3067C35.4052 41.6625 35.1669 41.9618 34.8433 42.0618C34.6631 42.6232 34.403 43.1583 34.0592 43.6448C33.9725 43.7675 33.8915 43.8714 33.8206 43.9522V44.9437C33.8206 45.3087 34.0264 45.6427 34.3524 45.8057L36.8748 47.069C37.0261 47.1448 37.1629 47.2406 37.2889 47.3472C38.99 45.9259 40.089 43.8009 40.1298 41.4079C40.2049 37.0406 36.7315 33.4394 32.3718 33.3648Z" fill="#FF507D"/>
</g>
<path d="M78.5071 75.5453H21.4934C21.0685 75.5453 20.7237 75.2248 20.7237 74.8299V57.1465C20.7237 56.7516 21.0685 56.4316 21.4934 56.4316H78.5071C78.932 56.4316 79.2763 56.7516 79.2763 57.1465V74.8299C79.2763 75.2248 78.932 75.5453 78.5071 75.5453Z" fill="white"/>
<path d="M75.3337 61.858H43.914C43.2782 61.858 42.7632 61.381 42.7632 60.7926C42.7632 60.2037 43.2782 59.7272 43.914 59.7272H75.3337C75.9689 59.7272 76.4839 60.2037 76.4839 60.7926C76.4839 61.381 75.9689 61.858 75.3337 61.858Z" fill="#959CB5"/>
<path d="M68.7547 66.4716H43.914C43.2782 66.4716 42.7632 65.9946 42.7632 65.4062C42.7632 64.8173 43.2782 64.3408 43.914 64.3408H68.7547C69.39 64.3408 69.905 64.8173 69.905 65.4062C69.905 65.9946 69.39 66.4716 68.7547 66.4716Z" fill="#959CB5"/>
<path d="M62.1758 71.0852H43.914C43.2782 71.0852 42.7632 70.6081 42.7632 70.0198C42.7632 69.4309 43.2782 68.9543 43.914 68.9543H62.1758C62.811 68.9543 63.326 69.4309 63.326 70.0198C63.326 70.6081 62.811 71.0852 62.1758 71.0852Z" fill="#959CB5"/>
<g clip-path="url(#clip1)">
<path d="M29.8872 70.1513L27.5316 71.4385C27.3934 71.514 27.2691 71.6068 27.1535 71.708C28.5269 72.8681 30.2998 73.568 32.2369 73.568C34.1596 73.568 35.9212 72.8786 37.2907 71.7343C37.1644 71.6274 37.0273 71.5313 36.8754 71.4555L34.3529 70.1922C34.027 70.0289 33.8212 69.6952 33.8212 69.3302V68.3387C33.8921 68.2579 33.9731 68.154 34.0598 68.0313C34.4036 67.5448 34.6637 67.0097 34.8439 66.4483C35.1674 66.3483 35.4058 66.049 35.4058 65.6932V64.6349C35.4058 64.4021 35.3024 64.1941 35.1418 64.0484V62.5185C35.1418 62.5185 35.4555 60.1378 32.2371 60.1378C29.0188 60.1378 29.3325 62.5185 29.3325 62.5185V64.0484C29.1716 64.1941 29.0685 64.4021 29.0685 64.6349V65.6932C29.0685 65.972 29.2148 66.2173 29.4338 66.3591C29.6977 67.5102 30.3889 68.3387 30.3889 68.3387V69.3057C30.3886 69.6579 30.1961 69.9823 29.8872 70.1513Z" fill="#E7ECED"/>
<path d="M32.3718 57.751C28.0124 57.6764 24.4178 61.1564 24.3433 65.5237C24.301 68 25.4027 70.2256 27.1568 71.7057C27.2715 71.6054 27.3946 71.5135 27.5313 71.4389L29.8869 70.1516C30.1959 69.9827 30.3883 69.6583 30.3883 69.3055V68.3385C30.3883 68.3385 29.6968 67.51 29.4332 66.3588C29.2145 66.2171 29.068 65.972 29.068 65.693V64.6346C29.068 64.4018 29.1713 64.1938 29.3319 64.0482V62.5183C29.3319 62.5183 29.0182 60.1375 32.2366 60.1375C35.4549 60.1375 35.1412 62.5183 35.1412 62.5183V64.0482C35.3021 64.1938 35.4052 64.4018 35.4052 64.6346V65.693C35.4052 66.0487 35.1669 66.3481 34.8433 66.4481C34.6631 67.0095 34.403 67.5446 34.0592 68.0311C33.9725 68.1537 33.8915 68.2576 33.8206 68.3385V69.33C33.8206 69.695 34.0264 70.0289 34.3524 70.1919L36.8748 71.4553C37.0261 71.5311 37.1629 71.6269 37.2889 71.7334C38.99 70.3122 40.089 68.1872 40.1298 65.7941C40.2049 61.4268 36.7315 57.8257 32.3718 57.751Z" fill="#0F4071"/>
</g>
<defs>
<clipPath id="clip0">
<rect width="15.7895" height="15.8182" fill="white" transform="translate(24.3421 33.3636)"/>
</clipPath>
<clipPath id="clip1">
<rect width="15.7895" height="15.8182" fill="white" transform="translate(24.3421 57.7498)"/>
</clipPath>
</defs>
</svg>
