<svg width="100" height="100" viewBox="0 0 100 100" fill="none" xmlns="http://www.w3.org/2000/svg">
<path d="M91 50L84 57L91 64.5L98.5 57V56L92.5 50H91Z" fill="white" fill-opacity="0.6"/>
<path fill-rule="evenodd" clip-rule="evenodd" d="M15 9C15 5.84709 17.8221 3 20.9976 3H74.9763C78.1518 3 80.976 5.84709 80.976 9V53.9999H79.9751V8.99042C79.9751 6.41076 77.5745 4 74.9763 4H20.9976C18.3995 4 15.9996 6.42034 15.9996 9V42L15 41.9902V9ZM15.9957 81.9991V91.3043C15.9957 93.884 18.2584 95.962 20.8565 95.962H75.0546C77.6528 95.962 79.9546 93.8708 79.9546 91.2911V82.0004H81V91.2911C81 94.444 78.2301 97 75.0546 97H20.8565C17.681 97 15.0023 94.4572 15.0023 91.3043V81.9991H15.9957Z" fill="#333333"/>
<path d="M15 10C15 7.23121 17.0135 3 22 3L75 3C77.8197 3 81 6.23121 81 9V91C81 93.7688 77.8197 97 75 97H22C18.4683 97 15 94.8306 15 90V10Z" fill="#333333"/>
<path d="M15 10C15 7.23121 17.0135 3 22 3L75 3C77.8197 3 81 6.23121 81 9V91C81 93.7688 77.8197 97 75 97H22C18.4683 97 15 94.8306 15 90V10Z" fill="white" fill-opacity="0.88"/>
<path d="M67 15H29C27.8954 15 27 15.9312 27 17.08V38.92C27 40.0688 27.8954 41 29 41H67C68.1046 41 69 40.0688 69 38.92V17.08C69 15.9312 68.1046 15 67 15Z" fill="white" fill-opacity="0.6"/>
<path fill-rule="evenodd" clip-rule="evenodd" d="M27 42L40 29L48 37L60.7273 20L69 31.9845V42" fill="#333333"/>
<path fill-rule="evenodd" clip-rule="evenodd" d="M27 42L40 29L48 37L60.7273 20L69 31.9845V42" fill="white" fill-opacity="0.88"/>
<path fill-rule="evenodd" clip-rule="evenodd" d="M29.0582 14H66.9418C68.6308 14 70 15.4094 70 17.148V38.852C70 40.5906 68.6308 42 66.9418 42H29.0582C27.3692 42 26 40.5906 26 38.852V17.148C26 15.4094 27.3692 14 29.0582 14ZM29.0582 15.0493H66.9418C68.0678 15.0493 68.9806 15.9889 68.9806 17.148V38.852C68.9806 40.0111 68.0678 40.9507 66.9418 40.9507H29.0582C27.9322 40.9507 27.0194 40.0111 27.0194 38.852V17.148C27.0194 15.9889 27.9322 15.0493 29.0582 15.0493Z" fill="#333333"/>
<path fill-rule="evenodd" clip-rule="evenodd" d="M60.4488 19C60.6085 19.0022 60.7577 19.0859 60.8502 19.2254L69.5298 32C69.6896 32.241 69.6367 32.5751 69.4117 32.7463C69.1866 32.9174 69.1599 33.241 69.0001 33L60.4322 20.4439L48.7564 37.1635C48.6727 37.2833 48.5461 37.3601 48.4071 37.3754C48.2681 37.3906 48.1295 37.3429 48.0249 37.2437L39.7388 29.3886L28.0001 41C27.795 41.1977 27.479 41.1799 27.2943 40.9602C27.1097 40.7405 27.1263 40.4021 27.3315 40.2043L39.4017 28.2734C39.5906 28.0913 39.877 28.09 40.0673 28.2704L48.281 36.0569L60.0424 19.2147C60.1381 19.0777 60.2891 18.9979 60.4488 19Z" fill="#333333"/>
<path fill-rule="evenodd" clip-rule="evenodd" d="M35 25.0487C36.1322 25.0487 37.0492 24.131 37.0492 23C37.0492 21.869 36.1322 20.9513 35 20.9513C33.8678 20.9513 32.9508 21.869 32.9508 23C32.9508 24.131 33.8678 25.0487 35 25.0487ZM35 26C36.6569 26 38 24.6569 38 23C38 21.3431 36.6569 20 35 20C33.3431 20 32 21.3431 32 23C32 24.6569 33.3431 26 35 26Z" fill="#333333"/>
<path fill-rule="evenodd" clip-rule="evenodd" d="M44.0068 51.5C44.0068 51.2239 44.2325 51 44.5108 51H65.5003C65.7787 51 66.0043 51.2239 66.0043 51.5C66.0043 51.7761 65.7787 52 65.5003 52H44.5108C44.2325 52 44.0068 51.7761 44.0068 51.5Z" fill="#333333"/>
<path fill-rule="evenodd" clip-rule="evenodd" d="M44.0068 61.5C44.0068 61.2239 44.2325 61 44.5108 61H65.5003C65.7787 61 66.0043 61.2239 66.0043 61.5C66.0043 61.7761 65.7787 62 65.5003 62H44.5108C44.2325 62 44.0068 61.7761 44.0068 61.5Z" fill="#333333"/>
<path fill-rule="evenodd" clip-rule="evenodd" d="M44.0068 71.5C44.0068 71.2239 44.2425 71 44.5332 71H60.4785C60.7692 71 61.0049 71.2239 61.0049 71.5C61.0049 71.7761 60.7692 72 60.4785 72H44.5332C44.2425 72 44.0068 71.7761 44.0068 71.5Z" fill="#333333"/>
<path fill-rule="evenodd" clip-rule="evenodd" d="M44.0068 56.5C44.0068 56.2239 44.2325 56 44.5108 56H65.5003C65.7787 56 66.0043 56.2239 66.0043 56.5C66.0043 56.7761 65.7787 57 65.5003 57H44.5108C44.2325 57 44.0068 56.7761 44.0068 56.5Z" fill="#333333"/>
<path fill-rule="evenodd" clip-rule="evenodd" d="M55.9609 66.5C55.9609 66.2239 56.1844 66 56.4601 66H65.9093C66.185 66 66.4084 66.2239 66.4084 66.5C66.4084 66.7761 66.185 67 65.9093 67H56.4601C56.1844 67 55.9609 66.7761 55.9609 66.5Z" fill="#333333"/>
<path fill-rule="evenodd" clip-rule="evenodd" d="M44.0068 66.5C44.0068 66.2239 44.2187 66 44.4799 66H51.6454C51.9067 66 52.1185 66.2239 52.1185 66.5C52.1185 66.7761 51.9067 67 51.6454 67H44.4799C44.2187 67 44.0068 66.7761 44.0068 66.5Z" fill="#333333"/>
<path fill-rule="evenodd" clip-rule="evenodd" d="M29.0088 77.5C29.0088 77.2239 29.2438 77 29.5336 77H37.4829C37.7728 77 38.0077 77.2239 38.0077 77.5C38.0077 77.7761 37.7728 78 37.4829 78H29.5336C29.2438 78 29.0088 77.7761 29.0088 77.5Z" fill="#333333"/>
<path fill-rule="evenodd" clip-rule="evenodd" d="M40.0068 77.5C40.0068 77.2239 40.239 77 40.5254 77H56.8866C57.173 77 57.4051 77.2239 57.4051 77.5C57.4051 77.7761 57.173 78 56.8866 78H40.5254C40.239 78 40.0068 77.7761 40.0068 77.5Z" fill="#333333"/>
<path d="M92.4917 63.4448L84.9087 55.8799L60.5918 80.2889L68.3478 87.6524L92.4917 63.4448Z" fill="#E07751"/>
<path fill-rule="evenodd" clip-rule="evenodd" d="M68.104 87.3332L97.8046 57.4378C98.2088 57.031 98.2088 56.3714 97.8046 55.9646L92.402 50.5265C91.9979 50.1197 91.3426 50.1197 90.9384 50.5265L61.2378 80.422C61.1109 80.5497 61.0192 80.7084 60.9717 80.8826L58.9247 88.381C58.7121 89.1599 59.423 89.8755 60.1969 89.6615L67.6464 87.6011C67.8194 87.5533 67.9771 87.4609 68.104 87.3332ZM98.5364 58.1744C99.3447 57.3607 99.3447 56.0416 98.5364 55.228L93.1338 49.7899C92.3255 48.9763 91.015 48.9763 90.2066 49.7899L60.506 79.6854C60.2523 79.9408 60.0688 80.2583 59.9738 80.6066L57.9268 88.105C57.5015 89.6629 58.9234 91.094 60.4711 90.666L67.9206 88.6056C68.2667 88.5099 68.582 88.3252 68.8358 88.0698L98.5364 58.1744Z" fill="#333333"/>
<path d="M89.5 60.0273L64.8538 84.8352L64.1496 84.1264L88.7958 59.3185L89.5 60.0273Z" fill="#333333"/>
<path d="M89.5 60.0273L64.8538 84.8352L64.1496 84.1264L88.7958 59.3185L89.5 60.0273Z" fill="white" fill-opacity="0.88"/>
<path fill-rule="evenodd" clip-rule="evenodd" d="M60.9447 79.9082L68.7229 87.2197L68.0165 87.9811L60.2383 80.6696L60.9447 79.9082Z" fill="#333333"/>
<path fill-rule="evenodd" clip-rule="evenodd" d="M85.4755 55.7395L93.1011 63.205L92.3795 63.9518L84.7539 56.4863L85.4755 55.7395Z" fill="#333333"/>
<path fill-rule="evenodd" clip-rule="evenodd" d="M59.7049 84.2314L64.0764 88.8059L63.3305 89.5281L58.959 84.9536L59.7049 84.2314Z" fill="#333333"/>
<path fill-rule="evenodd" clip-rule="evenodd" d="M87.402 53.8096L94.6618 61.1211L93.9297 61.8575L86.6699 54.546L87.402 53.8096Z" fill="#333333"/>
<path d="M0 47.605C0 47.0392 1.20164 46 1.78461 46H35.9444C37.0161 46 38 47.0959 38 48.0244V70.1917C38 70.7575 37.5274 71.2161 36.9444 71.2161H20.7853C20.4582 71.2161 20.1496 71.3633 19.9497 71.6146L15.1881 77.6015C14.7357 78.1702 13.8363 78.1222 13.4511 77.5086L10.0278 72.6667C9.5 71.6 8.28486 71.2161 7.91667 71.2161H1.05556C0.472588 71.2161 0 70.7575 0 70.1917V47.605Z" fill="#E07751"/>
<path fill-rule="evenodd" clip-rule="evenodd" d="M36 47H2C1.44438 47 1 47.436 1 48V70C1 70.564 1.44438 71 2 71H9C9 71 9.9484 71.1045 10.5 72L13.6253 76.4989C13.9939 77.0973 14.8352 77.1448 15.2669 76.5915L18.923 72.1467C19.4955 71.413 20.078 71 21 71L36 70.9852C36.5556 70.9852 37 70.564 37 70V48C37 47.436 36.5556 47 36 47ZM2 46C0.888765 46 0 46.8719 0 48V70C0 71.1281 0.888765 72 2 72H9C9 72 9.63227 72.403 10 73L12.7723 77.0404C13.5096 78.2373 15.1921 78.3322 16.0555 77.2256L19.7116 72.7808C20.0933 72.2917 20.3854 72 21 72L36 72.0065C37.1112 72.0065 38 71.1281 38 70V48C38 46.8719 37.1112 46 36 46H2Z" fill="#333333"/>
<path fill-rule="evenodd" clip-rule="evenodd" d="M7 56.5C7 56.2239 7.22984 56 7.51336 56H31.4866C31.7702 56 32 56.2239 32 56.5C32 56.7761 31.7702 57 31.4866 57H7.51336C7.22984 57 7 56.7761 7 56.5Z" fill="#333333"/>
<path fill-rule="evenodd" clip-rule="evenodd" d="M7 56.5C7 56.2239 7.22984 56 7.51336 56H31.4866C31.7702 56 32 56.2239 32 56.5C32 56.7761 31.7702 57 31.4866 57H7.51336C7.22984 57 7 56.7761 7 56.5Z" fill="white" fill-opacity="0.88"/>
<path fill-rule="evenodd" clip-rule="evenodd" d="M7 60.5C7 60.2239 7.22684 60 7.50666 60H23.4933C23.7732 60 24 60.2239 24 60.5C24 60.7761 23.7732 61 23.4933 61H7.50666C7.22684 61 7 60.7761 7 60.5Z" fill="#333333"/>
<path fill-rule="evenodd" clip-rule="evenodd" d="M7 60.5C7 60.2239 7.22684 60 7.50666 60H23.4933C23.7732 60 24 60.2239 24 60.5C24 60.7761 23.7732 61 23.4933 61H7.50666C7.22684 61 7 60.7761 7 60.5Z" fill="white" fill-opacity="0.88"/>
</svg>
