<svg width="19" height="20" viewBox="0 0 19 20" fill="none" xmlns="http://www.w3.org/2000/svg">
<path d="M8.51549 19.6594C8.80949 19.8164 9.17849 19.8154 9.47249 19.6584C17.4845 15.3544 18.0535 6.94538 18.0465 4.55438C18.0457 4.36221 17.9889 4.17443 17.8831 4.01405C17.7772 3.85366 17.6269 3.72762 17.4505 3.65138L9.40049 0.0853804C9.27239 0.0289099 9.13389 -0.000171445 8.99389 7.60329e-07C8.85389 0.000172965 8.71546 0.0295948 8.58749 0.0863803L0.593494 3.65238C0.419691 3.72867 0.271481 3.85331 0.166522 4.01146C0.0615622 4.1696 0.00427825 4.35459 0.00149415 4.54438C-0.0325059 6.92338 0.446494 15.3504 8.51549 19.6594ZM5.70149 8.19838L7.99449 10.4914L12.2875 6.19838L13.7015 7.61238L7.99449 13.3194L4.28749 9.61238L5.70149 8.19838Z" fill="#ED7309"/>
</svg>
