<svg width="150" height="150" viewBox="0 0 150 150" fill="none" xmlns="http://www.w3.org/2000/svg">
<path fill-rule="evenodd" clip-rule="evenodd" d="M120 20C120 17.7909 118.209 16 116 16H46.3832C46.1163 16 45.8604 16.1067 45.6726 16.2964L29.2894 32.8411C29.104 33.0284 29 33.2812 29 33.5448V124C29 126.209 30.7909 128 33 128H116C118.209 128 120 126.209 120 124V20Z" fill="white"/>
<path fill-rule="evenodd" clip-rule="evenodd" d="M121 20.5C121 18.0147 118.5 16 115.5 16L46.5667 16C46.1674 16 45.7847 16.1592 45.5031 16.4422L28.4365 33.6013C28.1569 33.8824 28 34.2627 28 34.6591L28 124.5C28 126.985 30.0147 129 32.5 129H115.5C117.985 129 121 126.985 121 124.5V79.5986C121 79.3225 120.776 79.0986 120.5 79.0986C120.224 79.0986 120 79.3225 120 79.5986V124.5C120 126.433 117.433 128 115.5 128L32.5 128C30.567 128 29 126.433 29 124.5L29 34.6591C29 34.527 29.0523 34.4002 29.1455 34.3065L46.2122 17.1474C46.306 17.053 46.4336 17 46.5667 17L115.5 17C117.433 17 120 18.567 120 20.5V30.5C120 30.7761 120.224 31 120.5 31C120.776 31 121 30.7761 121 30.5V20.5Z" fill="#333333"/>
<path fill-rule="evenodd" clip-rule="evenodd" d="M46 17L29 35H43C44.6569 35 46 33.6569 46 32V17Z" fill="url(#paint0_linear_125_10526)"/>
<path fill-rule="evenodd" clip-rule="evenodd" d="M46.3695 16.0708C45.9888 15.9194 45.5543 16.0156 45.273 16.3134L28.273 34.3134C27.9988 34.6037 27.9236 35.0292 28.0817 35.3959C28.2397 35.7625 28.6007 36 29 36H43C45.2091 36 47 34.2092 47 32V17C47 16.5904 46.7501 16.2221 46.3695 16.0708ZM46 17V32C46 33.6569 44.6569 35 43 35H29L46 17Z" fill="#333333"/>
<path fill-rule="evenodd" clip-rule="evenodd" d="M68 66.5C68 66.2239 67.7754 66 67.4982 66H43.5018C43.2246 66 43 66.2239 43 66.5C43 66.7761 43.2246 67 43.5018 67H67.4982C67.7754 67 68 66.7761 68 66.5Z" fill="#333333"/>
<path fill-rule="evenodd" clip-rule="evenodd" d="M51 42.5C51 42.7761 51.2213 43 51.4943 43H69.5057C69.7787 43 70 42.7761 70 42.5C70 42.2239 69.7787 42 69.5057 42H51.4943C51.2213 42 51 42.2239 51 42.5Z" fill="#333333"/>
<path fill-rule="evenodd" clip-rule="evenodd" d="M75 77.5C75 77.2239 74.7768 77 74.5015 77H43.4985C43.2232 77 43 77.2239 43 77.5C43 77.7761 43.2232 78 43.4985 78H74.5015C74.7768 78 75 77.7761 75 77.5Z" fill="#333333"/>
<path fill-rule="evenodd" clip-rule="evenodd" d="M70 54.5C70 54.2239 69.7705 54 69.4874 54H43.5126C43.2295 54 43 54.2239 43 54.5C43 54.7761 43.2295 55 43.5126 55H69.4874C69.7705 55 70 54.7761 70 54.5Z" fill="#333333"/>
<path fill-rule="evenodd" clip-rule="evenodd" d="M67 89.5C67 89.2239 66.77 89 66.4863 89H43.5137C43.23 89 43 89.2239 43 89.5C43 89.7761 43.23 90 43.5137 90H66.4863C66.77 90 67 89.7761 67 89.5Z" fill="#333333"/>
<path fill-rule="evenodd" clip-rule="evenodd" d="M94 101.5C94 101.224 93.7743 101 93.4958 101H43.5042C43.2257 101 43 101.224 43 101.5C43 101.776 43.2257 102 43.5042 102H93.4958C93.7743 102 94 101.776 94 101.5Z" fill="#333333"/>
<path fill-rule="evenodd" clip-rule="evenodd" d="M93 89.5C93 89.2239 92.7788 89 92.5059 89H75.4941C75.2212 89 75 89.2239 75 89.5C75 89.7761 75.2212 90 75.4941 90H92.5059C92.7788 90 93 89.7761 93 89.5Z" fill="#333333"/>
<path fill-rule="evenodd" clip-rule="evenodd" d="M83 29C83 28.4477 82.5497 28 81.9941 28H61.0059C60.4503 28 60 28.4477 60 29C60 29.5523 60.4503 30 61.0059 30H81.9941C82.5497 30 83 29.5523 83 29Z" fill="url(#paint1_linear_125_10526)"/>
<path fill-rule="evenodd" clip-rule="evenodd" d="M103 84.001C117.867 84.001 130 71.8685 130 57.001C130 42.1335 117.867 30.001 103 30.001C88.132 30.001 75.9995 42.1251 75.9995 57.001C75.9995 71.8685 88.132 84.001 103 84.001Z" fill="#EFEFEF"/>
<path fill-rule="evenodd" clip-rule="evenodd" d="M131 57.001C131 72.4208 118.419 85.001 103 85.001C87.5797 85.001 74.9995 72.4208 74.9995 57.001C74.9995 41.5726 87.5799 29.001 103 29.001C118.419 29.001 131 41.5812 131 57.001ZM130 57.001C130 71.8685 117.867 84.001 103 84.001C88.132 84.001 75.9995 71.8685 75.9995 57.001C75.9995 42.1251 88.132 30.001 103 30.001C117.867 30.001 130 42.1335 130 57.001Z" fill="#333333"/>
<path fill-rule="evenodd" clip-rule="evenodd" d="M110.731 46.0575L127.111 51.3482C127.775 51.5589 128.147 52.2963 127.944 52.9869L122.844 70.0763C122.642 70.7669 121.932 71.1532 121.268 70.9425L104.888 65.6518C104.224 65.4411 103.852 64.7037 104.055 64.0131L109.155 46.9237C109.369 46.2331 110.078 45.8468 110.731 46.0575Z" fill="#B01B1B"/>
<path fill-rule="evenodd" clip-rule="evenodd" d="M110.443 45.7594L126.805 50.794C126.806 50.7943 126.807 50.7946 126.808 50.7949C128.011 51.16 128.671 52.425 128.308 53.6022L128.307 53.6067L123.213 69.8692C123.212 69.8702 123.212 69.8712 123.212 69.8722C122.843 71.0635 121.566 71.7175 120.378 71.3584L120.373 71.3569L104.01 66.3223C104.009 66.322 104.008 66.3216 104.007 66.3213C102.805 65.9561 102.144 64.6912 102.507 63.5141L102.508 63.5096L107.607 47.2323C107.987 46.0638 109.251 45.3931 110.443 45.7594ZM126.51 51.7505L110.143 46.7144C109.491 46.5138 108.782 46.8815 108.568 47.5389L103.473 63.8059C103.27 64.4633 103.641 65.1652 104.305 65.3658L120.672 70.4019C121.336 70.6024 122.045 70.2348 122.247 69.5774L127.343 53.3104C127.545 52.653 127.174 51.9511 126.51 51.7505Z" fill="#333333"/>
<path fill-rule="evenodd" clip-rule="evenodd" d="M108.878 63.0444C108.976 62.7657 110.557 61.8663 110.776 61.7777C110.435 62.1704 109.377 62.9811 108.878 63.0444ZM118.598 62.2464C118.975 62.3224 119.449 62.4744 119.79 62.6391C120.094 62.7911 120.507 63.0571 120.532 63.3105C120.167 63.4625 118.792 62.5251 118.598 62.2464ZM113.099 60.9289C113.184 60.7769 113.501 60.4729 113.635 60.3208C114.17 59.7381 114.705 59.1681 115.192 58.522C115.228 58.5853 115.325 59.0921 115.362 59.1934C115.423 59.4214 115.496 59.6114 115.569 59.8268C115.702 60.2322 116.092 60.7515 116.177 61.0176C115.654 60.9036 115.119 60.9036 114.608 60.9036L113.099 60.9289ZM116.092 55.773C116.043 55.4057 116.384 54.2022 116.615 53.7462C116.627 53.7208 116.627 53.7082 116.651 53.6828C116.688 53.6322 116.663 53.6575 116.7 53.6322C116.834 54.0882 116.773 54.2529 116.712 54.785C116.676 55.0383 116.25 55.5957 116.092 55.773ZM110.156 63.4752C110.946 63.0318 112.211 61.5623 112.674 61.5623C113.902 61.5623 115.338 61.651 116.578 61.841C116.919 61.8917 116.846 61.841 117.041 62.069C117.539 62.6644 118.415 63.3611 119.133 63.7158C119.473 63.8805 119.948 64.0579 120.288 63.9819C120.629 63.9185 120.824 63.6145 120.958 63.1711C121.383 61.765 118.452 61.461 117.551 61.1823C117.296 61.1063 116.663 59.9788 116.676 59.8648C116.445 59.5988 116.092 58.0786 116.043 57.6479C115.994 57.1665 116.043 57.2932 116.262 56.8498C116.518 56.3431 116.87 55.621 116.943 55.0636C116.955 54.9243 117.247 54.5949 117.333 54.2782C117.466 53.7842 117.333 53.6448 117.296 53.4548C117.138 53.2521 117.053 53.1508 116.724 53.0494C115.836 52.8087 115.557 53.4802 115.338 54.3416C115.155 55.089 115.07 55.9124 115.058 56.6725C115.058 56.9005 115.106 57.1539 114.973 57.3439C114.085 58.5347 113.355 59.3454 112.345 60.3462L111.396 61.1949C111.214 61.0809 111.044 61.0936 110.8 61.1443C110.606 61.1823 110.46 61.2076 110.265 61.2709C109.681 61.4483 108.805 61.8537 108.355 62.259C107.419 63.1205 108.44 64.4252 110.156 63.4752Z" fill="#FEFEFE"/>
<path fill-rule="evenodd" clip-rule="evenodd" d="M81.2645 55.4801L98.1839 48.5392C98.8674 48.2545 99.6642 48.6107 99.9608 49.3256L107.229 67.0739C107.525 67.7887 107.204 68.6012 106.521 68.8858L89.6015 75.8268C88.918 76.1114 87.8243 75.3392 87.8246 75.0404L87.5 74.5L80.5567 57.2921C80.2693 56.5694 80.5902 55.757 81.2645 55.4801Z" fill="#006B45"/>
<path fill-rule="evenodd" clip-rule="evenodd" d="M81.663 54.9768L98.3261 48.7462C98.327 48.7458 98.328 48.7455 98.3289 48.7451C99.5507 48.2829 100.903 48.9104 101.359 50.1152L101.361 50.1199L107.593 66.8187C107.593 66.8198 107.594 66.8208 107.594 66.8218C108.054 68.0422 107.424 69.3952 106.218 69.8531L106.213 69.855L89.5501 76.0856C89.5491 76.086 89.548 76.0864 89.547 76.0868C88.3253 76.5487 86.9728 75.9213 86.5167 74.7166L86.515 74.7119L80.2776 57.9979C79.8412 56.7892 80.4497 55.4309 81.663 54.9768ZM98.6967 49.7252L82.0286 55.9576C81.3643 56.2062 81.0178 56.9609 81.2633 57.6409L87.4967 74.3444C87.7515 75.0173 88.5059 75.3624 89.1795 75.1066L105.848 68.8742C106.521 68.6184 106.868 67.8637 106.613 67.1909L100.379 50.4873C100.125 49.8145 99.3703 49.4694 98.6967 49.7252Z" fill="#333333"/>
<path fill-rule="evenodd" clip-rule="evenodd" d="M92.538 64.0687L95.7913 67.2112L98.3412 66.3051L93.3786 62.2438L94.1377 55.5521L91.709 56.8116L91.6713 61.6936L88.5846 58.4334L86.3843 59.5833L90.8144 63.3923L90.2247 69.1637L92.442 68.3807L92.538 64.0687Z" fill="white"/>
<path fill-rule="evenodd" clip-rule="evenodd" d="M92.4183 37.8006L111.39 35.1331C112.158 35.0212 112.87 35.5592 112.981 36.3251L115.638 55.319C115.749 56.0849 115.208 56.797 114.441 56.9089L95.4689 59.5764C94.7014 59.6883 93.9889 59.1503 93.8781 58.3843L91.2213 39.3905C91.1219 38.6192 91.6621 37.9072 92.4183 37.8006Z" fill="#4D76A1"/>
<path fill-rule="evenodd" clip-rule="evenodd" d="M92.7808 37.397L110.889 34.7898C110.89 34.7897 110.891 34.7895 110.892 34.7894C112.22 34.5928 113.449 35.5272 113.651 36.8467L113.652 36.8517L116.368 55.1201C116.368 55.1212 116.368 55.1223 116.368 55.1234C116.571 56.4595 115.649 57.6881 114.337 57.8839L114.331 57.8847L96.2234 60.4918C96.2223 60.492 96.2211 60.4922 96.22 60.4923C94.8913 60.6887 93.6631 59.7544 93.4607 58.435L93.4599 58.4299L90.7417 40.1451C90.56 38.826 91.4622 37.5873 92.7808 37.397ZM111.053 35.862L92.94 38.47C92.218 38.5741 91.7081 39.2605 91.8104 40.0025L94.5268 58.2759C94.6399 59.0128 95.3261 59.529 96.0589 59.4197L114.172 56.8117C114.905 56.7024 115.415 56.016 115.302 55.2791L112.585 37.0058C112.472 36.2689 111.786 35.7526 111.053 35.862Z" fill="#333333"/>
<path fill-rule="evenodd" clip-rule="evenodd" d="M105.694 49.9625L103.358 43.5258L101.547 43.7816L101.001 50.5668L98.976 43.8875L96.9995 44.001L100.317 53.3862L102.355 53.1686L102.671 46.4042L105.048 52.8818L107.111 52.6723L107.914 42.6253L105.959 43.0066L105.694 49.9625Z" fill="white"/>
<path fill-rule="evenodd" clip-rule="evenodd" d="M21.5588 104C17.4567 114.579 16.3069 124.285 21.3102 134.765H30.2526L28.4677 130.299C26.9773 121.367 26.1499 115.345 29.5076 106.464C30.078 104.956 30.5012 104 30.5012 104H21.5588Z" fill="#BDECFF"/>
<path d="M28.4677 130.299C28.4677 130.299 34.0893 131.085 36.9132 131.788C42.8954 133.276 49.3326 135 54.3008 135C59.269 135 64.7307 133.278 70.6951 130.299C74.2749 128.511 94.4013 117.306 89.1231 112.436C84.6725 108.328 73.3119 117.994 69.5377 119.879C65.7728 115.587 61.4132 115.66 56.0987 114.917C51.0381 114.209 47.0617 109.785 41.902 107.838C36.7422 105.891 29.5076 106.464 29.5076 106.464C26.1499 115.345 26.9773 121.367 28.4677 130.299Z" fill="#EFEFEF"/>
<path d="M21.5588 104V103.5C21.3524 103.5 21.1673 103.627 21.0926 103.819L21.5588 104ZM21.3102 134.765L20.859 134.98C20.942 135.154 21.1175 135.265 21.3102 135.265V134.765ZM30.2526 134.765V135.265C30.4185 135.265 30.5736 135.183 30.6666 135.045C30.7596 134.908 30.7785 134.733 30.7169 134.579L30.2526 134.765ZM30.5012 104L30.9583 104.202C31.0268 104.048 31.0125 103.869 30.9202 103.727C30.828 103.586 30.6703 103.5 30.5012 103.5V104ZM56.0987 114.917L56.168 114.421L56.0987 114.917ZM89.1231 112.436L89.4622 112.068L89.1231 112.436ZM70.6951 130.299L70.9185 130.746L70.6951 130.299ZM36.9132 131.788L36.7925 132.273L36.9132 131.788ZM28.4677 130.299L27.9745 130.381C27.9804 130.417 27.9901 130.451 28.0034 130.485L28.4677 130.299ZM59.7867 123.848L59.8085 124.348L59.8085 124.348L59.7867 123.848ZM29.5076 106.464L29.0399 106.287L29.5076 106.464ZM21.3102 135.265H30.2526V134.265H21.3102V135.265ZM30.5012 103.5H21.5588V104.5H30.5012V103.5ZM30.7169 134.579L28.9319 130.114L28.0034 130.485L29.7883 134.951L30.7169 134.579ZM37.0339 131.303C35.5995 130.946 33.4695 130.571 31.7113 130.286C30.8294 130.144 30.0362 130.023 29.4635 129.938C29.1771 129.896 28.9457 129.862 28.7858 129.839C28.7058 129.828 28.6437 129.819 28.6016 129.813C28.5805 129.81 28.5644 129.808 28.5535 129.806C28.5481 129.806 28.544 129.805 28.5412 129.805C28.5398 129.804 28.5387 129.804 28.538 129.804C28.5377 129.804 28.5374 129.804 28.5372 129.804C28.5371 129.804 28.537 129.804 28.537 129.804C28.5369 129.804 28.5369 129.804 28.4677 130.299C28.3984 130.794 28.3984 130.794 28.3985 130.794C28.3985 130.794 28.3986 130.794 28.3986 130.794C28.3988 130.794 28.399 130.794 28.3993 130.794C28.4 130.795 28.401 130.795 28.4023 130.795C28.4049 130.795 28.4089 130.796 28.4142 130.797C28.4248 130.798 28.4406 130.8 28.4614 130.803C28.5029 130.809 28.5644 130.818 28.6437 130.829C28.8022 130.852 29.0321 130.885 29.3169 130.928C29.8864 131.012 30.6752 131.132 31.5517 131.274C33.3103 131.558 35.403 131.927 36.7925 132.273L37.0339 131.303ZM56.0295 115.412C61.432 116.167 65.5492 116.09 69.1619 120.208L69.9136 119.549C65.9965 115.083 61.3943 115.152 56.168 114.421L56.0295 115.412ZM69.7611 120.326C70.7403 119.837 72.1933 118.855 73.8411 117.759C75.5069 116.652 77.4045 115.406 79.3187 114.348C81.2385 113.286 83.1411 112.433 84.8163 112.091C86.4935 111.748 87.8415 111.933 88.7841 112.803L89.4622 112.068C88.1795 110.884 86.4384 110.738 84.6159 111.111C82.7913 111.484 80.7833 112.395 78.8349 113.473C76.8808 114.553 74.9525 115.82 73.2875 116.927C71.6047 118.045 70.2223 118.978 69.3144 119.431L69.7611 120.326ZM88.7841 112.803C89.3356 113.312 89.5365 113.874 89.4947 114.495C89.451 115.145 89.1369 115.902 88.5606 116.749C87.4082 118.442 85.3304 120.314 82.9299 122.124C78.1428 125.734 72.245 128.966 70.4717 129.852L70.9185 130.746C72.725 129.844 78.6803 126.581 83.5319 122.923C85.9507 121.099 88.1385 119.146 89.3872 117.312C90.0114 116.395 90.4318 115.464 90.4924 114.562C90.555 113.631 90.2303 112.777 89.4622 112.068L88.7841 112.803ZM69.0478 119.779C68.8722 120.641 68.5458 121.251 68.1009 121.7C67.6525 122.153 67.0511 122.475 66.2729 122.705C64.6859 123.176 62.5212 123.229 59.7649 123.349L59.8085 124.348C62.4921 124.231 64.8201 124.179 66.5571 123.664C67.441 123.402 68.2095 123.011 68.8112 122.404C69.4164 121.793 69.8204 120.996 70.0277 119.979L69.0478 119.779ZM59.7649 123.349C57.2053 123.461 53.8129 122.501 50.6138 121.475C49.0351 120.968 47.4988 120.445 46.1861 120.053C44.8861 119.664 43.7239 119.379 42.8954 119.379V120.379C43.5572 120.379 44.5857 120.618 45.8999 121.011C47.2013 121.399 48.7026 121.912 50.3083 122.427C53.4777 123.444 57.0406 124.469 59.8085 124.348L59.7649 123.349ZM29.9753 106.641C30.2584 105.892 30.5048 105.281 30.6802 104.858C30.7679 104.646 30.8378 104.481 30.8856 104.37C30.9095 104.314 30.9278 104.272 30.9402 104.244C30.9463 104.23 30.9509 104.219 30.954 104.212C30.9555 104.209 30.9567 104.206 30.9574 104.205C30.9577 104.204 30.958 104.203 30.9582 104.203C30.9582 104.203 30.9583 104.203 30.9583 104.202C30.9583 104.202 30.9584 104.202 30.9584 104.202C30.9584 104.202 30.9584 104.202 30.9584 104.202C30.9583 104.202 30.9583 104.202 30.5012 104C30.044 103.798 30.044 103.798 30.044 103.798C30.044 103.798 30.0439 103.798 30.0439 103.798C30.0439 103.798 30.0439 103.798 30.0438 103.798C30.0438 103.798 30.0437 103.798 30.0435 103.799C30.0433 103.799 30.0429 103.8 30.0425 103.801C30.0416 103.803 30.0403 103.806 30.0385 103.81C30.0351 103.818 30.0301 103.829 30.0236 103.844C30.0105 103.874 29.9914 103.918 29.9667 103.976C29.9173 104.091 29.8458 104.259 29.7564 104.475C29.5776 104.907 29.3272 105.528 29.0399 106.287L29.9753 106.641ZM41.7254 108.306C44.2441 109.256 46.4705 110.809 48.7701 112.265C51.0427 113.703 53.3824 115.042 56.0295 115.412L56.168 114.421C53.7545 114.084 51.5756 112.857 49.3049 111.42C47.0612 109.999 44.7196 108.367 42.0785 107.37L41.7254 108.306ZM29.5076 106.464C29.5471 106.963 29.547 106.963 29.547 106.963C29.547 106.963 29.547 106.963 29.5471 106.963C29.5472 106.963 29.5474 106.963 29.5478 106.963C29.5484 106.963 29.5495 106.963 29.5511 106.962C29.5541 106.962 29.5589 106.962 29.5654 106.961C29.5784 106.96 29.5981 106.959 29.6243 106.957C29.6767 106.954 29.7551 106.949 29.857 106.943C30.061 106.931 30.3593 106.916 30.734 106.905C31.4836 106.882 32.537 106.871 33.7495 106.921C36.1846 107.02 39.2202 107.36 41.7254 108.306L42.0785 107.37C39.424 106.368 36.2624 106.022 33.7902 105.921C32.5491 105.871 31.4714 105.882 30.7032 105.905C30.319 105.917 30.0119 105.932 29.8 105.944C29.6941 105.95 29.6119 105.956 29.5558 105.96C29.5278 105.961 29.5063 105.963 29.4916 105.964C29.4842 105.965 29.4785 105.965 29.4746 105.965C29.4726 105.966 29.4711 105.966 29.47 105.966C29.4695 105.966 29.469 105.966 29.4687 105.966C29.4686 105.966 29.4684 105.966 29.4683 105.966C29.4682 105.966 29.4681 105.966 29.5076 106.464ZM70.4717 129.852C64.5396 132.814 59.1586 134.5 54.3008 134.5V135.5C59.3795 135.5 64.9217 133.741 70.9185 130.746L70.4717 129.852ZM54.3008 134.5C49.41 134.5 43.0483 132.799 37.0339 131.303L36.7925 132.273C42.7425 133.754 49.2553 135.5 54.3008 135.5V134.5ZM21.0926 103.819C16.9613 114.474 15.7756 124.332 20.859 134.98L21.7614 134.55C16.8382 124.237 17.9521 114.685 22.025 104.181L21.0926 103.819ZM28.9608 130.217C27.4729 121.3 26.6673 115.39 29.9753 106.641L29.0399 106.287C25.6326 115.299 26.4816 121.435 27.9745 130.381L28.9608 130.217Z" fill="#333333"/>
<circle cx="24.5" cy="130.5" r="2" fill="url(#paint2_linear_125_10526)" stroke="#333333"/>
<defs>
<linearGradient id="paint0_linear_125_10526" x1="46" y1="16.2969" x2="27.9899" y2="33.9708" gradientUnits="userSpaceOnUse">
<stop stop-color="#FF8E3D"/>
<stop offset="1" stop-color="#FF6F3D"/>
</linearGradient>
<linearGradient id="paint1_linear_125_10526" x1="83" y1="27.9219" x2="82.6673" y2="31.897" gradientUnits="userSpaceOnUse">
<stop stop-color="#FF8E3D"/>
<stop offset="1" stop-color="#FF6F3D"/>
</linearGradient>
<linearGradient id="paint2_linear_125_10526" x1="22" y1="127.805" x2="27" y2="133" gradientUnits="userSpaceOnUse">
<stop stop-color="#FF8E3D"/>
<stop offset="1" stop-color="#FF6F3D"/>
</linearGradient>
</defs>
</svg>
