<?xml version="1.0" encoding="utf-8"?>
<svg version="1.1" id="Layer_1" xmlns="http://www.w3.org/2000/svg" xmlns:xlink="http://www.w3.org/1999/xlink" x="0px" y="0px"
	 viewBox="0 0 30 30" style="enable-background:new 0 0 30 30;" xml:space="preserve" fill="#fff">
<path d="M15,7.9v14.2l-3.8-2.7L10.6,19H10H4v-8h6h0.6l0.5-0.4L15,7.9 M17,4l-7,5H2v12h8l7,5V4L17,4z"/>
<path d="M24,15c0-2.5-1.5-4.6-3.6-5.5l-0.8,1.8c1.4,0.6,2.4,2,2.4,3.7s-1,3.1-2.4,3.7l0.8,1.8C22.5,19.6,24,17.5,24,15z"/>
<path d="M29,15c0-4.5-2.7-8.4-6.7-10.1l-0.8,1.8C24.7,8.1,27,11.3,27,15s-2.3,6.9-5.5,8.3l0.8,1.8C26.3,23.4,29,19.5,29,15z"/>
</svg>
