<svg width="110" height="110" viewBox="0 0 110 110" fill="none" xmlns="http://www.w3.org/2000/svg">
<g clip-path="url(#clip0_125_4506)">
<path fill-rule="evenodd" clip-rule="evenodd" d="M109 30C109 27.2386 106.761 25 104 25H6C3.23858 25 1 27.2386 1 30V80C1 82.7614 3.2384 85 5.99982 85C6.53834 85 7.10269 85 7.68357 85H104C106.761 85 109 82.7614 109 80V30Z" fill="#FEFEFE"/>
<path fill-rule="evenodd" clip-rule="evenodd" d="M67 45.2473V31.5119V25H5.0844C2.8306 25 1 27.0969 1 29.6651V53H29.5908H38.4092H67V45.2473Z" fill="#E0E0E0"/>
<path fill-rule="evenodd" clip-rule="evenodd" d="M67.5 53C67.7761 53 68 53.2227 68 53.4974V79.5026C68 79.7773 67.7761 80 67.5 80C67.2239 80 67 79.7773 67 79.5026V53.4974C67 53.2227 67.2239 53 67.5 53Z" fill="#333333"/>
<path fill-rule="evenodd" clip-rule="evenodd" d="M5 53.5C5 53.2239 5.22386 53 5.5 53H61.4951C61.7713 53 61.9951 53.2239 61.9951 53.5C61.9951 53.7761 61.7713 54 61.4951 54H5.5C5.22386 54 5 53.7761 5 53.5Z" fill="#333333"/>
<path fill-rule="evenodd" clip-rule="evenodd" d="M40 61C41.6569 61 43 59.6569 43 58V54H25L25.0001 58.0001C25.0002 59.6569 26.3433 61 28.0001 61H40Z" fill="#BDECFF"/>
<path d="M43.5 54V53.5H43H25H24.5L24.5 54L24.5001 58.0001C24.5002 59.9331 26.0672 61.5 28.0001 61.5H40C41.933 61.5 43.5 59.933 43.5 58V54Z" stroke="#333333"/>
<path fill-rule="evenodd" clip-rule="evenodd" d="M5.3514 24H103.649C105.115 24 106.463 24.6015 107.424 25.5679C108.395 26.5343 109 27.8655 109 29.3348V79.6652C109 81.1345 108.395 82.4657 107.424 83.4321C106.453 84.3985 105.115 85 103.639 85H5.3514C3.87481 85 2.53696 84.3985 1.56578 83.4321C0.604509 82.446 0 81.1148 0 79.6553V29.3249C0 27.8655 0.604509 26.5343 1.57569 25.5679C2.54687 24.6015 3.88472 24 5.3514 24ZM103.649 25H5.3514C4.18202 25 3.11174 25.558 2.33876 26.3272C1.57569 27.0963 1 28.1613 1 29.3249V79.6553C1 80.8189 1.56578 81.8839 2.33876 82.6531C3.11174 83.4222 4.33062 84 5.5 84H103.639C104.808 84 105.888 83.4222 106.661 82.6531C107.434 81.8839 108 80.8288 108 79.6652V29.3348C108 28.1712 107.434 27.0963 106.661 26.3272C105.898 25.558 104.818 25 103.649 25Z" fill="#333333"/>
<path fill-rule="evenodd" clip-rule="evenodd" d="M76.5052 55C77.8877 55 79 56.1227 79 57.4948C79 58.8773 77.8773 60 76.5052 60C75.1227 60 74 58.8773 74 57.4948C74.0104 56.1227 75.1331 55 76.5052 55Z" fill="url(#paint0_linear_125_4506)"/>
<path fill-rule="evenodd" clip-rule="evenodd" d="M76.5052 64C77.8877 64 79 65.1227 79 66.5052C79 67.8877 77.8773 69 76.5052 69C75.1227 69 74 67.8773 74 66.5052C74.0104 65.1123 75.1331 64 76.5052 64Z" fill="url(#paint1_linear_125_4506)"/>
<path fill-rule="evenodd" clip-rule="evenodd" d="M76.5052 73C77.8877 73 79 74.1227 79 75.4948C79 76.8773 77.8773 78 76.5052 78C75.1227 78 74 76.8773 74 75.4948C74.0104 74.1123 75.1331 73 76.5052 73Z" fill="url(#paint2_linear_125_4506)"/>
<path fill-rule="evenodd" clip-rule="evenodd" d="M87.0001 48.5001C87.0001 48.224 87.2239 48 87.5001 48L100.5 48C100.776 48 101 48.2239 101 48.5V48.5C101 48.7761 100.776 49 100.5 49H87.5001C87.224 49 87.0002 48.7762 87.0001 48.5001V48.5001Z" fill="#333333"/>
<path fill-rule="evenodd" clip-rule="evenodd" d="M90.0002 39.5002C90.0001 39.224 90.224 39 90.5002 39L100.5 39C100.776 39 101 39.2239 101 39.5V39.5C101 39.7761 100.776 40 100.5 40H90.5002C90.2241 40 90.0003 39.7763 90.0002 39.5002V39.5002Z" fill="#333333"/>
<path fill-rule="evenodd" clip-rule="evenodd" d="M82.0002 66.5002C82.0001 66.224 82.224 66 82.5002 66L100.5 66C100.776 66 101 66.2239 101 66.5V66.5C101 66.7761 100.776 67 100.5 67H82.5002C82.2241 67 82.0003 66.7763 82.0002 66.5002V66.5002Z" fill="#333333"/>
<path fill-rule="evenodd" clip-rule="evenodd" d="M82.0002 57.5002C82.0001 57.224 82.224 57 82.5002 57L100.5 57C100.776 57 101 57.2239 101 57.5V57.5C101 57.7761 100.776 58 100.5 58H82.5002C82.2241 58 82.0003 57.7763 82.0002 57.5002V57.5002Z" fill="#333333"/>
<path fill-rule="evenodd" clip-rule="evenodd" d="M82.0002 75.5002C82.0001 75.224 82.224 75 82.5002 75L100.5 75C100.776 75 101 75.2239 101 75.5V75.5C101 75.7761 100.776 76 100.5 76H82.5002C82.2241 76 82.0003 75.7763 82.0002 75.5002V75.5002Z" fill="#333333"/>
<path fill-rule="evenodd" clip-rule="evenodd" d="M66 47L55 47L55 49.5698C55 50.5222 53.8492 51.4209 53.1186 50.7888C49.4478 47.5974 45.2986 44.8183 41.6727 41.5812C40.7758 40.6887 40.7757 39.2956 41.6727 38.4721C45.1794 35.1804 50.1078 31.6336 53.1184 29.1956C53.8489 28.5548 55 29.6128 55 30.5739L55 33.026L65.9894 33.026C67.7445 33.026 69 34.5339 69 35.8126L69 44.1714C69 45.6103 67.7551 47 66 47Z" fill="url(#paint3_linear_125_4506)"/>
<path fill-rule="evenodd" clip-rule="evenodd" d="M54 46L66 46C67.2087 46 68 45.0521 68 44.1714L68 35.8126C68 35.0799 67.1859 34.026 65.9894 34.026L54 34.026L54 30.5739C54 30.5287 53.9844 30.4427 53.9259 30.3326C53.868 30.2239 53.7872 30.1282 53.7069 30.0637C53.6932 30.0527 53.6808 30.0436 53.6696 30.0359C52.7299 30.7946 51.634 31.6405 50.4668 32.5415C47.797 34.6023 44.7545 36.9508 42.3571 39.2012L42.349 39.2087C41.9051 39.6163 41.8584 40.3385 42.3614 40.8555C44.1367 42.4385 46.0445 43.9153 47.9882 45.4093C48.0859 45.4844 48.1837 45.5595 48.2815 45.6347C50.1088 47.0386 51.9631 48.4634 53.7146 49.9819C53.7275 49.9752 53.7429 49.966 53.7607 49.9536C53.8276 49.9069 53.8941 49.8359 53.941 49.754C53.9877 49.6725 54 49.6073 54 49.5698L54 46ZM53.1186 50.7888C53.8492 51.4209 55 50.5222 55 49.5698L55 47L66 47C67.7551 47 69 45.6103 69 44.1714L69 35.8126C69 34.5339 67.7445 33.026 65.9894 33.026L55 33.026L55 30.5739C55 29.6128 53.8489 28.5548 53.1184 29.1956C52.1966 29.942 51.095 30.7925 49.9095 31.7077C47.2231 33.7816 44.1057 36.1883 41.6727 38.4721C40.7757 39.2956 40.7758 40.6887 41.6727 41.5812C43.5744 43.279 45.62 44.8508 47.6651 46.4222C49.5193 47.8469 51.3731 49.2712 53.1186 50.7888Z" fill="#333333"/>
<path fill-rule="evenodd" clip-rule="evenodd" d="M75.5 28C81.8545 28 87 33.1479 87 39.5052C87 45.8625 81.8545 51 75.5 51C69.1456 51 64 45.8521 64 39.4948C64 33.1375 69.1456 28 75.5 28Z" fill="#FEFEFE"/>
<path fill-rule="evenodd" clip-rule="evenodd" d="M75.5 28C78.6704 28 81.5454 29.2898 83.6327 31.3673C85.7102 33.4448 87 36.3198 87 39.5C87 42.6704 85.7102 45.5454 83.6327 47.6327C81.5552 49.7102 78.6802 51 75.5 51C72.3296 51 69.4546 49.7102 67.3673 47.6327C65.2898 45.5552 64 42.6802 64 39.5C64 36.3296 65.2898 33.4546 67.3673 31.3673C69.4546 29.28 72.3296 28 75.5 28ZM82.8647 32.1353C80.9842 30.2547 78.375 29.083 75.5 29.083C72.625 29.083 70.0158 30.2449 68.1353 32.1353C66.2547 34.0158 65.083 36.625 65.083 39.5C65.083 42.375 66.2449 44.9842 68.1353 46.8647C70.0158 48.7453 72.625 49.917 75.5 49.917C78.375 49.917 80.9842 48.7551 82.8647 46.8647C84.7453 44.9842 85.917 42.375 85.917 39.5C85.917 36.6152 84.7453 34.0158 82.8647 32.1353Z" fill="#333333"/>
<path d="M75.5 32L77.3982 34.2847L80.3209 33.7547L80.3064 36.725L82.8861 38.1976L80.9657 40.4637L81.9952 43.25L79.0675 43.7515L78.0652 46.5477L75.5 45.05L72.9348 46.5477L71.9325 43.7515L69.0048 43.25L70.0343 40.4637L68.1139 38.1976L70.6936 36.725L70.6791 33.7547L73.6018 34.2847L75.5 32Z" fill="url(#paint4_linear_125_4506)"/>
<path fill-rule="evenodd" clip-rule="evenodd" d="M31 57.5C31 57.2239 31.2239 57 31.5 57H36.5C36.7761 57 37 57.2239 37 57.5C37 57.7761 36.7761 58 36.5 58H31.5C31.2239 58 31 57.7761 31 57.5Z" fill="#333333"/>
</g>
<defs>
<linearGradient id="paint0_linear_125_4506" x1="74" y1="54.8047" x2="79" y2="60" gradientUnits="userSpaceOnUse">
<stop stop-color="#FF8E3D"/>
<stop offset="1" stop-color="#FF6F3D"/>
</linearGradient>
<linearGradient id="paint1_linear_125_4506" x1="74" y1="63.8047" x2="79" y2="69" gradientUnits="userSpaceOnUse">
<stop stop-color="#FF8E3D"/>
<stop offset="1" stop-color="#FF6F3D"/>
</linearGradient>
<linearGradient id="paint2_linear_125_4506" x1="74" y1="72.8047" x2="79" y2="78" gradientUnits="userSpaceOnUse">
<stop stop-color="#FF8E3D"/>
<stop offset="1" stop-color="#FF6F3D"/>
</linearGradient>
<linearGradient id="paint3_linear_125_4506" x1="39.9062" y1="51" x2="62.3197" y2="23.5461" gradientUnits="userSpaceOnUse">
<stop stop-color="#FF8E3D"/>
<stop offset="1" stop-color="#FF6F3D"/>
</linearGradient>
<linearGradient id="paint4_linear_125_4506" x1="68" y1="31.4141" x2="83" y2="47" gradientUnits="userSpaceOnUse">
<stop stop-color="#FF8E3D"/>
<stop offset="1" stop-color="#FF6F3D"/>
</linearGradient>
<clipPath id="clip0_125_4506">
<rect width="110" height="110" fill="white"/>
</clipPath>
</defs>
</svg>
