<svg width="725" height="373" viewBox="0 0 725 373" fill="none" xmlns="http://www.w3.org/2000/svg">
<g clip-path="url(#clip0_114_212)">
<path d="M440.49 210.27C440.47 209.29 440.7 208.18 441.22 206.9C442.21 204.49 444.55 202.95 446.75 201.57C449.84 199.63 450.47 198.38 450.98 194.67C451.4 191.6 452.2 187.96 455.47 186.75C460.24 184.98 465.11 190.1 470.26 189.57C472.01 189.39 473.57 188.57 475.23 188.06C476.89 187.55 478.92 187.4 480.24 188.42C482.33 190.03 481.36 193.46 483.59 194.92C485.01 195.84 486.98 195.47 488.75 195.33C493.25 194.95 493.59 198.22 493.73 201.36C493.83 203.78 493.54 206.34 494.67 208.52C495.8 210.7 499.18 212.06 501.01 210.34C501.87 215.98 501.27 221.98 498.22 226.9C494.88 232.28 488.66 235.97 482.06 236.59C475.46 237.21 468.63 234.79 464.04 230.29C461.12 227.43 459.1 223.84 456.18 220.98C452.4 217.29 440.63 217.03 440.49 210.27Z" fill="white"/>
<path d="M480.04 238.18C473.76 238.18 467.38 235.67 462.98 231.36C461.44 229.86 460.16 228.18 458.91 226.55C457.67 224.93 456.5 223.41 455.12 222.05C453.95 220.91 451.51 220.03 449.16 219.19C444.68 217.58 439.1 215.58 438.99 210.3C438.97 209.08 439.25 207.75 439.84 206.33C441.05 203.39 443.89 201.6 445.96 200.3C448.57 198.65 449.04 197.89 449.5 194.47C449.83 192.04 450.53 186.98 454.95 185.34C458.08 184.18 461.06 185.39 463.93 186.57C466.09 187.45 468.12 188.28 470.11 188.08C471.09 187.98 472.07 187.61 473.09 187.22C473.65 187.01 474.21 186.8 474.78 186.62C477.31 185.84 479.63 186.06 481.15 187.22C482.59 188.33 482.98 189.96 483.29 191.27C483.58 192.48 483.79 193.25 484.4 193.65C485.18 194.16 486.53 194.02 487.84 193.89C488.1 193.86 488.36 193.84 488.61 193.82C490.53 193.66 492.07 194.07 493.17 195.04C494.87 196.54 495.12 198.95 495.22 201.29C495.24 201.84 495.25 202.39 495.25 202.95C495.26 204.75 495.27 206.45 495.99 207.83C496.43 208.68 497.48 209.41 498.5 209.58C498.94 209.66 499.54 209.66 499.98 209.25C500.39 208.87 500.97 208.75 501.5 208.92C502.03 209.1 502.41 209.56 502.49 210.11C503.2 214.77 503.26 221.6 499.49 227.69C495.93 233.43 489.3 237.42 482.2 238.08C481.48 238.15 480.76 238.18 480.04 238.18ZM457.62 187.87C457.07 187.87 456.53 187.95 456 188.15C453.59 189.04 452.88 191.91 452.48 194.87C451.93 198.86 451.15 200.57 447.56 202.83C445.32 204.24 443.4 205.56 442.62 207.47C442.19 208.51 441.98 209.44 442 210.24C442.06 213.23 445.28 214.61 450.18 216.37C452.96 217.37 455.59 218.31 457.23 219.91C458.77 221.42 460.06 223.1 461.31 224.73C462.54 226.34 463.71 227.86 465.09 229.22C469.38 233.42 475.83 235.67 481.92 235.1C488.11 234.52 493.87 231.07 496.95 226.11C499.75 221.6 500.12 216.53 499.77 212.55C499.21 212.65 498.62 212.64 498.01 212.54C496.05 212.21 494.22 210.9 493.34 209.21C492.29 207.19 492.27 205.04 492.26 202.97C492.26 202.45 492.25 201.93 492.23 201.42C492.16 199.73 492.02 198.02 491.2 197.29C490.74 196.88 489.96 196.72 488.88 196.81C488.64 196.83 488.4 196.85 488.15 196.88C486.41 197.05 484.44 197.25 482.77 196.17C481.13 195.1 480.71 193.37 480.38 191.98C480.13 190.95 479.92 190.07 479.32 189.61C478.61 189.06 477.21 189.02 475.67 189.49C475.16 189.65 474.66 189.84 474.15 190.03C472.99 190.47 471.78 190.92 470.41 191.06C467.69 191.33 465.2 190.32 462.79 189.34C460.91 188.57 459.2 187.87 457.62 187.87Z" fill="#333333"/>
<path d="M456.63 251.49L452.5 257.14L440.27 262.59L438.53 312.36L433.69 342.62C433.69 342.62 431.63 358.82 433.13 361.2C434.32 363.08 436.04 364.06 436.04 364.06L503.06 357.3L504.08 356.69C507.33 354.74 509.16 351.1 508.8 347.33L504.26 300.07L510.84 282.82C510.84 282.82 514.66 271.37 511.73 268.92C501.53 260.41 490.25 258.74 490.25 258.74L485.83 256.81L481.73 249.89L456.63 251.49Z" fill="white"/>
<path d="M436.05 366.06C435.7 366.06 435.36 365.97 435.06 365.8C434.84 365.67 432.87 364.51 431.45 362.27C429.81 359.67 430.91 348.69 431.71 342.37L436.54 312.17L438.27 262.52C438.3 261.76 438.76 261.07 439.46 260.76L451.2 255.53L455.01 250.31C455.36 249.83 455.9 249.53 456.5 249.49L481.62 247.89C482.38 247.84 483.08 248.22 483.47 248.87L487.24 255.23L490.84 256.8C492.72 257.12 503.28 259.25 513.03 267.38C516.62 270.37 514.03 279.61 512.75 283.45L506.31 300.34L510.8 347.14C511.23 351.65 509 356.07 505.11 358.4L504.09 359.01C503.84 359.16 503.55 359.25 503.26 359.28L436.24 366.04C436.18 366.05 436.11 366.06 436.05 366.06ZM442.23 263.9L440.53 312.43C440.53 312.51 440.52 312.6 440.51 312.68L435.67 342.94C434.77 350.02 434.2 358.67 434.87 360.2C435.4 361.03 436.11 361.65 436.57 362L502.42 355.35L503.06 354.97C505.63 353.43 507.11 350.51 506.82 347.52L502.28 300.26C502.25 299.95 502.29 299.64 502.4 299.36L508.98 282.11C510.83 276.54 511.31 271.25 510.46 270.46C500.8 262.4 490.08 260.74 489.97 260.72C489.8 260.69 489.63 260.64 489.46 260.57L485.04 258.64C484.66 258.47 484.33 258.19 484.12 257.83L480.65 251.97L457.69 253.43L454.11 258.32C453.9 258.6 453.63 258.82 453.31 258.97L442.23 263.9Z" fill="#333333"/>
<path d="M508.92 266.74C508.92 266.74 514.37 269.5 518.93 279.7C521.72 285.94 520.94 300.42 520.94 300.42C520.94 300.42 529.31 324.83 528.6 327.32C527.89 329.81 527.89 329.81 527.89 329.81C527.89 329.81 528.78 338.9 524.15 341.93C519.52 344.96 521.08 346.36 515.24 346.56C509.41 346.76 500.1 339.79 500.1 339.79L503.68 324.95L502.62 298.16" fill="white"/>
<path d="M515 348.56C508.66 348.56 499.89 342.13 498.9 341.39C498.26 340.91 497.97 340.1 498.15 339.32L501.66 324.75L500.61 298.24C500.57 297.14 501.43 296.21 502.53 296.16C503.66 296.13 504.56 296.98 504.61 298.08L505.67 324.87C505.68 325.05 505.66 325.24 505.62 325.42L502.36 338.95C505.42 341.06 511.51 344.69 515.18 344.56C518.22 344.46 518.54 344.14 519.6 343.08C520.31 342.37 521.29 341.41 523.06 340.25C526.01 338.32 526.12 332.2 525.91 330C525.89 329.75 525.91 329.5 525.98 329.26L526.66 326.88C526.71 324.73 522.86 312.13 519.06 301.06C518.98 300.82 518.94 300.56 518.95 300.3C519.16 296.4 519.23 285.25 517.11 280.51C512.96 271.21 508.05 268.54 508.01 268.51C507.04 268 506.66 266.79 507.16 265.82C507.66 264.85 508.85 264.45 509.83 264.95C510.08 265.08 515.98 268.15 520.77 278.88C523.48 284.96 523.08 297.67 522.97 300.13C526.85 311.47 531.26 325.34 530.54 327.87L529.93 330.01C530.08 332.1 530.32 340.29 525.26 343.6C523.83 344.54 523.08 345.27 522.43 345.92C520.69 347.64 519.49 348.41 515.33 348.55C515.21 348.56 515.11 348.56 515 348.56Z" fill="#333333"/>
<path d="M456.07 326.6C456.01 326.62 455.99 326.62 455.97 326.63C456.02 326.61 456.07 326.6 456.07 326.6Z" fill="white"/>
<path d="M455.97 327.63C455.55 327.63 455.16 327.36 455.02 326.94C454.85 326.42 455.13 325.85 455.65 325.68L455.76 325.64C456.29 325.47 456.85 325.76 457.01 326.29C457.18 326.82 456.89 327.38 456.36 327.55L456.26 327.58C456.18 327.61 456.08 327.63 455.97 327.63Z" fill="#333333"/>
<path d="M455.97 326.63C455.91 326.65 455.93 326.64 455.97 326.63Z" fill="white"/>
<path d="M455.95 327.63C455.7 327.63 455.45 327.55 455.26 327.38C454.99 327.14 454.88 326.77 454.95 326.42C455.02 326.08 455.3 325.8 455.63 325.68C455.64 325.68 455.66 325.67 455.67 325.67C456.19 325.5 456.75 325.8 456.92 326.32C457.09 326.84 456.8 327.4 456.28 327.57H456.27C456.26 327.57 456.26 327.57 456.25 327.58C456.15 327.62 456.05 327.63 455.95 327.63Z" fill="#333333"/>
<path d="M481.06 302.76L469.01 304.09L453.62 315L456.08 326.59C456.85 326.34 462.9 323.84 464.32 322.95C465.74 322.06 465.47 319.41 465.47 319.41L467.51 320.38C467.51 320.38 468.75 323.04 469.72 325.34C470.69 327.64 473.09 326.05 473.09 326.05L473.27 323.57C474.6 324.81 476.46 323.57 476.46 323.57L476.81 314.44L473.18 310.28L477.17 310.46C477.17 310.46 479.55 311.68 482.03 313.98C484.51 316.28 487.8 313.47 487.8 313.47L480.53 306.03L481.68 306.47C481.68 306.47 486.29 309.31 488.15 309.31C490.01 309.31 490.28 307.02 490.28 307.02L481.06 302.76Z" fill="white"/>
<path d="M456.07 327.6C455.9 327.6 455.72 327.56 455.57 327.47C455.32 327.33 455.15 327.09 455.09 326.81L452.63 315.22C452.55 314.83 452.7 314.43 453.03 314.2L468.42 303.28C468.56 303.18 468.72 303.12 468.89 303.1L480.94 301.77C481.12 301.75 481.3 301.78 481.47 301.86L490.68 306.12C491.07 306.3 491.3 306.71 491.25 307.14C491.12 308.24 490.31 310.32 488.13 310.32C487.39 310.32 486.37 309.99 485.33 309.55L488.49 312.79C488.68 312.99 488.79 313.26 488.77 313.53C488.75 313.8 488.63 314.07 488.42 314.24C487.05 315.41 483.8 317.03 481.32 314.72C479.36 312.9 477.45 311.78 476.87 311.46L475.45 311.4L477.55 313.8C477.72 313.99 477.8 314.24 477.8 314.5L477.45 323.63C477.44 323.95 477.27 324.25 477.01 324.42C476.38 324.84 475.28 325.28 474.16 325.1L474.09 326.14C474.07 326.45 473.9 326.73 473.65 326.9C473.49 327.01 472.06 327.93 470.61 327.49C470.05 327.32 469.29 326.89 468.81 325.75C468.05 323.96 467.12 321.92 466.76 321.15L466.43 320.99C466.29 321.99 465.89 323.17 464.86 323.82C463.3 324.79 457.14 327.32 456.4 327.56C456.28 327.58 456.18 327.6 456.07 327.6ZM465.47 318.41C465.62 318.41 465.76 318.44 465.9 318.51L467.94 319.48C468.15 319.58 468.32 319.75 468.41 319.96C468.42 319.99 469.67 322.66 470.64 324.95C470.85 325.46 471.1 325.53 471.17 325.55C471.44 325.63 471.82 325.54 472.12 325.42L472.26 323.5C472.29 323.12 472.53 322.78 472.89 322.64C473.25 322.5 473.66 322.58 473.94 322.84C474.4 323.27 475.05 323.12 475.47 322.95L475.79 314.8L472.42 310.93C472.16 310.63 472.1 310.2 472.27 309.84C472.44 309.48 472.83 309.25 473.22 309.27L477.21 309.45C477.35 309.46 477.49 309.49 477.62 309.56C477.72 309.61 480.15 310.87 482.7 313.24C483.85 314.31 485.32 313.82 486.24 313.31L479.81 306.72C479.48 306.38 479.43 305.86 479.69 305.47C479.95 305.08 480.45 304.92 480.88 305.09L482.03 305.53C482.09 305.55 482.14 305.58 482.2 305.61C484.01 306.73 487.06 308.3 488.14 308.3C488.63 308.3 488.92 307.92 489.08 307.56L480.88 303.77L469.36 305.04L454.72 315.43L456.8 325.23C458.77 324.44 462.75 322.74 463.78 322.1C464.45 321.68 464.53 320.14 464.47 319.5C464.43 319.14 464.6 318.79 464.89 318.58C465.06 318.47 465.26 318.41 465.47 318.41Z" fill="#333333"/>
<path d="M482.86 311.83L482.79 311.85L467.06 335.64L500.14 330.19L500.22 330.18L517.44 304.82L482.86 311.83Z" fill="white"/>
<path d="M467.06 336.64C466.73 336.64 466.41 336.47 466.22 336.18C466 335.85 466.01 335.42 466.22 335.08L481.95 311.29C482.1 311.07 482.33 310.91 482.59 310.86L482.85 311.83L482.65 310.85L517.24 303.84C517.64 303.76 518.05 303.93 518.27 304.27C518.49 304.61 518.49 305.05 518.26 305.39L501.03 330.74C500.88 330.97 500.63 331.12 500.36 331.17L467.2 336.63C467.16 336.63 467.11 336.64 467.06 336.64ZM483.39 312.75L469.15 334.28L499.63 329.26L515.24 306.29L483.39 312.75Z" fill="#333333"/>
<path d="M512.65 316.57C512.75 316.75 513.06 317.04 512.65 318.39C512.24 319.74 511.84 320.35 511.84 320.35V326.49L510.42 330.07H511.62C511.62 330.07 513.18 332.1 512.24 334.12C511.29 336.15 510.15 337.17 507.99 338.21C505.83 339.25 502.59 339.59 502.59 339.59L487.87 336.08L476.53 332.16C476.53 332.16 475.92 331.96 475.92 331.35L474.03 329.8C474.03 329.8 473.9 328.65 475.65 328.08C477.41 327.51 482.33 329.19 482.6 329.33C482.87 329.46 486.79 330.01 486.79 330.01C486.79 330.01 482.27 327.98 478.89 327.17C478.89 327.17 477.61 322.98 481.93 323.73C486.25 324.47 491.11 326.77 491.11 326.77L494.22 328.09L495.64 327.45L494.63 325.76C494.63 325.76 489.9 321.13 489.84 320.91C489.77 320.69 488.56 319.28 489.64 318.53C490.72 317.79 493.49 317.99 494.84 319.34C496.19 320.69 500.98 325.28 500.98 325.28C500.98 325.28 501.45 325.08 502.94 325.08C504.43 325.08 506.39 323.31 506.56 322.78C506.72 322.25 506.72 319.54 508.14 317.92C509.55 316.3 512.05 315.49 512.65 316.57Z" fill="white"/>
<path d="M502.59 340.59C502.51 340.59 502.43 340.58 502.36 340.56L487.64 337.05L476.2 333.11C475.82 332.98 475.21 332.59 475 331.89L473.4 330.57C473.2 330.41 473.07 330.17 473.04 329.91C472.95 329.18 473.34 327.78 475.34 327.12C475.98 326.91 476.88 326.92 477.83 327.05C477.67 326.3 477.5 324.72 478.47 323.62C479.24 322.75 480.46 322.45 482.1 322.73C486.5 323.49 491.34 325.75 491.54 325.85L494.2 326.98L493.83 326.37C489.58 322.2 489.04 321.59 488.91 321.3L488.86 321.22C487.63 319.27 488.29 318.23 489.06 317.7C490.54 316.68 493.82 316.91 495.53 318.63C496.63 319.73 500.1 323.06 501.27 324.18C501.64 324.12 502.17 324.07 502.93 324.07C503.84 324.07 505.3 322.87 505.6 322.44C505.62 322.34 505.63 322.2 505.65 322.02C505.79 320.88 506.06 318.75 507.37 317.25C508.6 315.85 510.51 314.94 511.91 315.08C512.63 315.15 513.19 315.5 513.51 316.06C513.81 316.53 514.04 317.2 513.6 318.67C513.31 319.64 513.01 320.27 512.83 320.61V326.49C512.83 326.62 512.81 326.74 512.76 326.86L511.87 329.1C512.08 329.16 512.27 329.28 512.41 329.46C512.49 329.56 514.33 332 513.14 334.54C512.13 336.69 510.85 337.93 508.42 339.11C506.13 340.21 502.83 340.57 502.69 340.58C502.66 340.59 502.63 340.59 502.59 340.59ZM476.92 331.23L488.2 335.13L502.65 338.57C503.31 338.49 505.85 338.13 507.56 337.3C509.61 336.31 510.52 335.44 511.34 333.69C511.81 332.69 511.38 331.62 511.08 331.06H510.43C510.1 331.06 509.79 330.9 509.6 330.62C509.41 330.35 509.38 330 509.5 329.69L510.85 326.29V320.34C510.85 320.14 510.91 319.95 511.02 319.79C511.02 319.79 511.36 319.25 511.7 318.1C511.91 317.39 511.86 317.16 511.85 317.16C511.85 317.15 511.82 317.12 511.81 317.09C511.44 316.93 509.92 317.4 508.89 318.57C507.98 319.61 507.76 321.34 507.65 322.27C507.61 322.63 507.57 322.87 507.51 323.06C507.22 324.02 504.86 326.06 502.94 326.06C501.76 326.06 501.34 326.2 501.33 326.2C500.98 326.32 500.55 326.24 500.29 325.99C500.09 325.8 495.47 321.38 494.13 320.03C493.07 318.97 490.82 318.91 490.21 319.34C490.19 319.41 490.24 319.62 490.57 320.15C490.62 320.23 490.67 320.3 490.7 320.38C491.1 320.84 493.32 323.05 495.33 325.03C495.39 325.09 495.44 325.16 495.49 325.23L496.5 326.92C496.65 327.17 496.68 327.46 496.6 327.73C496.52 328 496.32 328.23 496.06 328.34L494.64 328.98C494.39 329.09 494.09 329.1 493.84 328.99L490.73 327.67C490.65 327.63 485.9 325.41 481.77 324.7C481.26 324.61 480.34 324.53 479.98 324.94C479.7 325.25 479.69 325.86 479.75 326.34C483.07 327.23 487.03 329 487.21 329.08C487.67 329.28 487.9 329.79 487.76 330.27C487.62 330.75 487.15 331.06 486.66 330.98C482.58 330.42 482.32 330.29 482.16 330.21C481.3 329.84 477.16 328.63 475.96 329.02C475.56 329.15 475.32 329.31 475.19 329.45L476.56 330.58C476.76 330.74 476.89 330.98 476.92 331.23Z" fill="#333333"/>
<path d="M450.75 257.92C450.75 257.92 435.96 264.33 431.87 266.16C427.67 268.04 424.64 271.82 423.71 276.33C420.72 290.95 411.01 333.76 416.83 338.33C421.81 342.25 457.28 327.84 457.28 327.84L452.96 313.62L438.1 316.9" fill="white"/>
<path d="M419.86 340.9C417.97 340.9 416.49 340.6 415.6 339.89C410.39 335.79 413.53 315.15 420.73 280.89C421.12 279.01 421.48 277.33 421.77 275.92C422.82 270.8 426.29 266.47 431.07 264.33C435.12 262.52 449.82 256.14 449.97 256.08C450.98 255.64 452.16 256.11 452.6 257.12C453.04 258.13 452.57 259.31 451.56 259.75C451.41 259.81 436.73 266.18 432.71 267.98C429.11 269.6 426.48 272.86 425.69 276.72C425.4 278.14 425.05 279.82 424.65 281.71C422.82 290.45 420.05 303.66 418.4 315.13C415.66 334.22 417.83 336.54 418.09 336.74C420.66 338.49 438.83 333.03 454.86 326.65L451.61 315.96L438.56 318.84C437.48 319.08 436.41 318.4 436.18 317.32C435.94 316.24 436.62 315.17 437.7 314.94L452.56 311.66C453.59 311.43 454.6 312.03 454.91 313.03L459.23 327.25C459.53 328.24 459.03 329.29 458.07 329.68C448.89 333.4 429.26 340.9 419.86 340.9Z" fill="#333333"/>
<path d="M438.55 317C441.34 310.55 445.93 301.63 443.17 294.55C442.83 293.68 441.43 293.46 441.18 294.55C440.37 298.12 440.53 301.8 439.71 305.4C438.88 309.05 437.75 312.62 436.58 316.17C436.2 317.31 438.06 318.13 438.55 317Z" fill="#333333"/>
<path d="M481.44 256.5C481.44 256.5 479.5 262.53 472.42 263.14C461.8 264.05 457.28 256.5 457.28 256.5V231.17H481.44V256.5Z" fill="white"/>
<path d="M470.64 264.22C460.85 264.22 456.61 257.33 456.43 257.02C456.34 256.86 456.29 256.69 456.29 256.51V231.18C456.29 230.63 456.74 230.18 457.29 230.18H481.45C482 230.18 482.45 230.63 482.45 231.18V256.51C482.45 256.61 482.43 256.72 482.4 256.82C482.31 257.09 480.17 263.5 472.51 264.15C471.86 264.19 471.24 264.22 470.64 264.22ZM458.28 256.2C459.1 257.4 463.37 262.91 472.33 262.14C478.11 261.64 480.11 257.15 480.43 256.32V232.17H458.27V256.2H458.28Z" fill="#333333"/>
<path d="M492.25 223.02C492.25 236.88 478.23 250.91 465.42 250.91C452.61 250.91 445.87 236.88 445.87 223.02C445.87 209.16 456.25 197.92 469.06 197.92C481.87 197.92 492.25 209.16 492.25 223.02Z" fill="white"/>
<path d="M465.42 251.92C451.93 251.92 444.87 237.38 444.87 223.03C444.87 208.64 455.72 196.93 469.06 196.93C482.4 196.93 493.25 208.64 493.25 223.03C493.25 237.06 478.94 251.92 465.42 251.92ZM469.06 198.92C456.82 198.92 446.87 209.73 446.87 223.02C446.87 236.38 453.24 249.91 465.42 249.91C477.97 249.91 491.25 236.09 491.25 223.02C491.25 209.73 481.29 198.92 469.06 198.92Z" fill="#333333"/>
<path d="M495.83 216.61C495.5 217.24 495.18 217.86 494.85 218.49C491.23 216.21 486.32 216.19 482.68 218.44C482.43 214.73 482.16 210.96 480.83 207.49C479.5 204.02 476.9 200.84 473.35 199.73C469.8 198.62 465.35 200.18 464 203.64C463.25 200.71 462.5 197.78 461.75 194.86C465.18 194.62 468.64 194.12 472.07 193.87C473.74 193.75 475.44 193.63 477.08 193.97C479.27 194.42 481.22 195.67 482.89 197.16C485.93 199.87 488.13 203.39 490.28 206.85C491.72 209.17 493.16 211.48 494.6 213.8C495.39 215.06 496.51 215.29 495.83 216.61Z" fill="white"/>
<path d="M461.74 194.86C462.49 197.79 463.24 200.72 463.99 203.64C465.34 200.18 469.79 198.62 473.34 199.73C476.89 200.84 479.48 204.02 480.82 207.49C482.16 210.96 482.42 214.73 482.67 218.44C484.84 217.1 489.81 215.47 491.98 217.51C492.79 218.27 493.21 219.39 493.27 220.5C493.34 221.73 492.97 223.01 492.13 223.91C491.29 224.81 489.95 225.26 488.77 224.91" fill="white"/>
<path d="M489.61 226.03C489.23 226.03 488.86 225.98 488.49 225.87C487.96 225.71 487.66 225.15 487.82 224.62C487.98 224.09 488.54 223.79 489.07 223.95C489.83 224.18 490.8 223.88 491.41 223.23C492.01 222.59 492.34 221.59 492.28 220.56C492.23 219.62 491.87 218.78 491.3 218.24C489.75 216.78 485.47 217.89 483.21 219.29C482.91 219.47 482.54 219.49 482.23 219.33C481.92 219.17 481.71 218.86 481.69 218.51C481.45 214.92 481.19 211.21 479.9 207.85C478.52 204.27 475.96 201.6 473.05 200.69C470.17 199.79 466.13 200.93 464.93 204.01C464.77 204.41 464.39 204.67 463.94 204.64C463.51 204.61 463.14 204.31 463.03 203.89L460.78 195.1C460.64 194.56 460.97 194.02 461.5 193.88C462.03 193.74 462.58 194.07 462.72 194.6L464.39 201.13C466.66 198.62 470.59 197.81 473.64 198.77C477.18 199.87 480.14 202.92 481.76 207.12C482.97 210.27 483.33 213.58 483.57 216.84C486.19 215.67 490.42 214.65 492.67 216.77C493.61 217.66 494.19 218.99 494.27 220.44C494.36 222.02 493.85 223.53 492.86 224.58C492.01 225.51 490.79 226.03 489.61 226.03Z" fill="#333333"/>
<path d="M474.39 220.9C473.35 221.82 471.39 222.21 470.03 222.36C468.44 222.54 467.39 221.92 466.05 221.18C465.74 221.01 465.34 221.22 465.34 221.58C465.34 223.74 467.87 224.65 469.72 224.67C472.27 224.71 473.82 223.51 474.97 221.35C475.18 220.97 474.71 220.62 474.39 220.9Z" fill="#333333"/>
<path d="M449.61 221.89C450.7 223.28 451.86 224.41 453.74 224.5C455.42 224.58 457.3 223.79 458.01 222.19C458.51 221.06 457.29 220.07 456.31 220.88C455.54 221.52 454.8 222.26 453.74 222.34C452.66 222.42 451.39 221.9 450.93 220.87C450.48 219.84 448.8 220.85 449.61 221.89Z" fill="#333333"/>
<path d="M460.07 223.41C459.85 225.29 459.11 226.61 458.4 228.31C458.1 229.04 457.9 229.82 458.01 230.62C458.24 232.33 459.76 233.88 461.5 233.85C462.07 233.84 462.25 233.21 461.93 232.81C461.37 232.11 460.34 231.79 459.92 230.99C459.39 229.99 459.9 229.06 460.15 228.13C460.58 226.59 460.71 225 460.72 223.41C460.73 222.98 460.12 223 460.07 223.41Z" fill="#333333"/>
<path d="M459.66 241.09C460.83 242.1 462.57 242.56 464.1 242.21C465.7 241.85 467.06 240.46 466.71 238.76C466.45 237.5 464.9 237.34 464.06 238.06C463.52 238.52 463.34 239.2 462.68 239.55C461.87 239.97 460.82 239.79 459.95 240.04C459.51 240.16 459.29 240.77 459.66 241.09Z" fill="#333333"/>
<path d="M455.63 223.76C455.64 223.75 455.65 223.74 455.65 223.72C455.68 223.68 455.68 223.62 455.65 223.58C455.64 223.57 455.63 223.56 455.63 223.54C455.62 223.52 455.6 223.5 455.58 223.48C455.57 223.47 455.55 223.46 455.53 223.45C455.5 223.44 455.48 223.43 455.45 223.43C455.43 223.43 455.41 223.44 455.39 223.44C455.37 223.45 455.36 223.45 455.34 223.46C455.32 223.47 455.3 223.49 455.28 223.51C455.25 223.55 455.23 223.59 455.23 223.64C455.23 223.68 455.24 223.71 455.26 223.75C455.28 223.79 455.32 223.82 455.36 223.84C455.39 223.85 455.41 223.86 455.44 223.86C455.46 223.86 455.48 223.85 455.5 223.85C455.52 223.84 455.53 223.84 455.55 223.83C455.59 223.82 455.61 223.8 455.63 223.76Z" fill="#333333"/>
<path d="M454.76 224.81C455.1 225.25 455.62 225.46 456.18 225.31C456.65 225.19 456.95 224.8 457.09 224.36C457.14 224.2 457.16 224.03 457.17 223.87C457.18 223.5 457.02 223.23 456.8 222.96C456.55 222.65 456.05 222.57 455.69 222.67C455.29 222.78 455.03 223.08 454.89 223.47C454.8 223.72 454.84 223.94 454.88 224.19C454.87 224.09 454.85 223.98 454.84 223.88C454.85 223.94 454.85 223.99 454.84 224.04C454.85 223.94 454.87 223.84 454.88 223.74C454.86 223.9 454.81 224.03 454.81 224.2C454.79 224.31 454.81 224.43 454.84 224.54C454.82 224.33 454.81 224.27 454.81 224.35C454.81 224.26 454.82 224.21 454.88 224.11C454.84 224.17 454.85 224.16 454.92 224.06C454.87 224.1 454.88 224.1 454.95 224.04C454.73 224.19 454.56 224.55 454.76 224.81Z" fill="#333333"/>
<path d="M473.26 225.62C473.64 225.38 473.95 225.02 474.03 224.57C474.1 224.31 474.1 224.05 474.03 223.79C473.96 223.54 473.83 223.33 473.65 223.14C473.3 222.79 472.71 222.6 472.22 222.76C471.91 222.86 471.64 222.97 471.4 223.22C470.87 223.77 470.81 224.62 471.28 225.23C471.48 225.48 471.75 225.7 472.07 225.78C472.48 225.86 472.92 225.84 473.26 225.62Z" fill="#333333"/>
<path d="M503.3 357.08C501.53 357.26 499.76 357.44 497.99 357.62C477.44 359.69 456.87 362.09 436.29 363.83C436.24 366.55 436.23 368.75 435.97 371.02H507.18C506.37 366.16 505.19 361.41 503.3 357.08Z" fill="#666666"/>
<path d="M509.54 373.02H433.73L433.98 370.79C434.2 368.86 434.24 366.91 434.28 364.66L434.33 361.99L436.13 361.84C449.92 360.67 463.96 359.19 477.52 357.75C484.28 357.03 491.04 356.32 497.79 355.63L504.56 354.95L505.14 356.29C506.89 360.31 508.21 365.03 509.15 370.7L509.54 373.02ZM438.14 369.02H504.78C504.05 365.3 503.14 362.07 502.02 359.22L498.19 359.61C491.44 360.29 484.69 361.01 477.94 361.72C464.94 363.1 451.51 364.52 438.26 365.67C438.23 366.84 438.2 367.94 438.14 369.02Z" fill="#333333"/>
<path d="M394.4 371.02C391.91 365.36 389.55 359.81 389.55 359.81L331.41 364.07L330.5 371.02H394.4Z" fill="#666666"/>
<path d="M397.46 373.02H328.21L329.63 362.2L390.82 357.72L391.38 359.03C391.4 359.09 393.77 364.63 396.22 370.21L397.46 373.02ZM332.77 369.02H391.34C390.06 366.08 388.92 363.43 388.27 361.91L333.18 365.95L332.77 369.02Z" fill="#333333"/>
<path d="M401.13 236.34C400.32 233.93 398.97 231.7 398.43 229.22C397.27 223.89 399.92 217.89 397.28 213.09C395.4 209.67 391.39 208 387.6 206.86C383.81 205.72 379.74 204.75 376.91 202.03C374.84 200.03 373.66 197.29 371.59 195.28C368.65 192.43 364.3 191.46 360.16 191.21C355.91 190.96 351.52 191.35 347.7 193.19C343.88 195.02 340.71 198.47 340.02 202.58C339.69 204.58 339.94 206.68 339.29 208.61C339 209.49 338.53 210.29 338.01 211.07C334.49 215.05 332.6 220.43 333.01 225.69C333.26 228.83 334.15 232.42 332.05 234.82C329.98 237.2 325.91 237.13 323.93 239.57C321.59 242.45 323.55 246.73 322.71 250.32C321.93 253.68 318.3 256.16 314.8 255.73C318.9 259.01 323.94 261.15 329.19 261.84C330.53 260.15 331.87 258.47 333.22 256.78C331.69 258.55 332.1 261.37 333.58 263.18C335.06 264.99 337.34 265.97 339.6 266.67C348.84 269.54 359.24 268.49 367.78 264.03C373.94 266.26 388.71 263.53 393.44 259.11C398.18 254.69 403.17 242.43 401.13 236.34Z" fill="white"/>
<path d="M350.4 269.79C346.6 269.79 342.81 269.23 339.17 268.1C337 267.43 334.27 266.36 332.44 264.12C331.9 263.46 331.45 262.66 331.16 261.79L330.39 262.76C330.06 263.17 329.55 263.38 329.02 263.31C323.46 262.58 318.23 260.36 313.89 256.89C313.37 256.47 313.18 255.75 313.44 255.14C313.7 254.52 314.34 254.15 315.01 254.23C317.74 254.57 320.67 252.58 321.27 249.97C321.55 248.77 321.46 247.41 321.35 245.97C321.18 243.56 320.99 240.82 322.78 238.62C324.04 237.07 325.88 236.36 327.51 235.74C328.87 235.22 330.16 234.72 330.94 233.83C332.24 232.34 331.98 229.98 331.7 227.49C331.64 226.92 331.57 226.35 331.53 225.8C331.09 220.2 333.02 214.5 336.83 210.14C337.22 209.56 337.63 208.87 337.88 208.12C338.21 207.15 338.26 206.05 338.32 204.88C338.36 204.05 338.4 203.19 338.55 202.31C339.26 198.01 342.52 193.99 347.06 191.81C350.64 190.09 355.09 189.37 360.26 189.69C365.82 190.02 369.87 191.49 372.64 194.18C373.78 195.28 374.64 196.55 375.48 197.77C376.27 198.93 377.02 200.03 377.96 200.92C380.22 203.09 383.56 204.08 386.8 205.03L388.04 205.4C391.8 206.53 396.4 208.35 398.6 212.34C400.35 215.52 400.08 219 399.81 222.38C399.63 224.68 399.46 226.85 399.9 228.87C400.19 230.2 400.75 231.48 401.35 232.84C401.77 233.8 402.21 234.8 402.56 235.84C404.88 242.78 399.24 255.73 394.48 260.19C389.53 264.82 375.03 267.72 367.93 265.63C362.45 268.39 356.42 269.79 350.4 269.79ZM334.25 257.92C333.38 259.14 333.81 261.07 334.76 262.23C336.09 263.85 338.29 264.69 340.06 265.24C348.77 267.94 358.88 267 367.1 262.71C367.47 262.52 367.91 262.49 368.3 262.63C373.99 264.69 388.19 261.98 392.42 258.03C396.94 253.8 401.48 242.12 399.71 236.82C399.41 235.91 399.02 235.02 398.6 234.08C397.97 232.65 397.32 231.16 396.97 229.54C396.43 227.08 396.63 224.59 396.82 222.17C397.06 219.1 397.29 216.2 395.97 213.81C394.29 210.77 390.39 209.26 387.17 208.29L385.95 207.93C382.37 206.88 378.67 205.79 375.88 203.11C374.73 202 373.85 200.72 373.01 199.49C372.22 198.34 371.48 197.25 370.56 196.36C368.32 194.19 364.9 193 360.08 192.71C355.42 192.43 351.47 193.05 348.35 194.54C344.68 196.3 342.06 199.47 341.51 202.82C341.39 203.53 341.36 204.26 341.32 205.05C341.25 206.36 341.19 207.72 340.73 209.09C340.35 210.21 339.75 211.18 339.27 211.9C339.23 211.96 339.19 212.01 339.15 212.06C335.83 215.82 334.14 220.74 334.52 225.57C334.56 226.09 334.62 226.63 334.68 227.17C335 230.05 335.37 233.32 333.2 235.81C331.94 237.26 330.16 237.94 328.59 238.55C327.19 239.09 325.87 239.59 325.12 240.53C324.08 241.81 324.21 243.65 324.36 245.78C324.47 247.38 324.59 249.04 324.2 250.67C323.57 253.38 321.42 255.62 318.8 256.66C321.79 258.44 325.15 259.67 328.58 260.23L331.85 256.12C331.93 256.01 332.01 255.91 332.1 255.81C332.63 255.19 333.56 255.11 334.19 255.63C334.82 256.15 334.92 257.08 334.41 257.72L334.25 257.92Z" fill="#333333"/>
<path d="M391.01 275.35H337.63V360.83H391.01V275.35Z" fill="white"/>
<path d="M391.01 361.84H337.63C337.08 361.84 336.63 361.39 336.63 360.84V275.36C336.63 274.81 337.08 274.36 337.63 274.36H391.01C391.56 274.36 392.01 274.81 392.01 275.36V360.84C392.01 361.39 391.56 361.84 391.01 361.84ZM338.63 359.84H390.01V276.36H338.63V359.84Z" fill="#333333"/>
<path d="M416.05 312.61C416.05 312.61 418.46 307.83 417.65 303.89C417.65 303.89 419.89 302.02 417.24 297.66C414.59 293.3 412.56 287.48 412.56 287.48C412.56 287.48 410.46 279.89 407.93 279.34L388.35 271.87L380.03 265.73C380.03 265.73 380.46 273.62 379.13 277.98C377.8 282.33 366.86 329.15 367.13 336.5C367.28 340.51 370.4 356.28 373.54 371.02H405.15L402.34 366.44L401.58 356.75L398.87 322.07L406.67 357.92L410.87 363.7C416.44 362.25 419.69 359.82 419.9 357.92C420.1 356.02 421.73 349.37 421.12 347.09C420.5 344.81 416.05 312.61 416.05 312.61Z" fill="url(#paint0_linear_114_212)"/>
<path d="M405.13 373.02H373.52C372.58 373.02 371.76 372.36 371.56 371.44C369.68 362.63 365.29 341.59 365.11 336.57C364.83 328.83 375.7 282.29 377.2 277.39C378.21 274.1 378.13 267.93 378.02 265.84C377.98 265.07 378.39 264.34 379.07 263.97C379.75 263.6 380.58 263.66 381.21 264.12L389.31 270.1L408.53 277.43C411.75 278.33 413.74 284.25 414.47 286.87C414.69 287.48 416.59 292.71 418.95 296.61C421.31 300.5 420.54 303.09 419.75 304.4C420.12 307.88 418.73 311.51 418.11 312.91C419.83 325.35 422.62 345.01 423.04 346.57C423.56 348.5 423 351.91 422.27 355.83C422.09 356.79 421.92 357.69 421.88 358.14C421.56 361.16 417.53 364.04 411.37 365.65C410.57 365.85 409.73 365.56 409.25 364.89L405.05 359.11C404.89 358.89 404.77 358.63 404.71 358.36L403.14 351.15L404.29 365.81L406.84 369.98C407.22 370.6 407.23 371.37 406.88 372C406.53 372.63 405.85 373.02 405.13 373.02ZM375.14 369.02H401.56L400.62 367.48C400.45 367.21 400.36 366.91 400.33 366.59L396.86 322.22C396.78 321.17 397.52 320.24 398.56 320.09C399.6 319.93 400.58 320.62 400.81 321.64L408.52 357.08L411.65 361.39C416.11 360.01 417.79 358.23 417.89 357.69C417.95 357.1 418.12 356.21 418.33 355.09C418.71 353.05 419.5 348.82 419.17 347.6C418.54 345.26 414.52 316.18 414.06 312.88C414.01 312.48 414.07 312.07 414.25 311.71C414.83 310.55 416.22 306.94 415.67 304.29C415.51 303.5 415.64 302.83 416.3 302.38C416.59 301.98 416.77 300.76 415.51 298.69C412.79 294.2 410.74 288.38 410.65 288.14C410.64 288.1 410.62 288.06 410.61 288.01C409.75 284.9 408.22 281.68 407.4 281.27C407.3 281.25 407.28 281.25 407.19 281.21L387.61 273.74C387.44 273.67 387.28 273.59 387.14 273.48L382.06 269.73C382.02 272.47 381.79 276.01 381.01 278.56C379.56 283.29 368.84 329.49 369.09 336.42C369.22 339.59 371.47 351.72 375.14 369.02Z" fill="#333333"/>
<path d="M390.89 324.08C390.68 322.73 390.13 321.4 389.14 320.49C388.33 319.75 387.2 319.35 386.13 319.5L386.38 318.2H360.22L364.99 337.69H382.61L383.23 334.5C385.41 334.22 387.49 333.09 388.91 331.37C390.55 329.39 391.3 326.65 390.89 324.08ZM387.3 328.47C386.4 329.46 385.22 330.12 383.97 330.61L385.7 321.69C386.91 321.77 388.08 322.69 388.48 323.9C389 325.47 388.4 327.26 387.3 328.47Z" fill="white"/>
<path d="M382.61 338.69H364.99C364.53 338.69 364.13 338.38 364.02 337.93L359.25 318.44C359.18 318.14 359.25 317.83 359.43 317.59C359.62 317.35 359.91 317.21 360.22 317.21H386.38C386.68 317.21 386.96 317.34 387.15 317.57C387.34 317.8 387.42 318.1 387.36 318.4L387.33 318.54C388.23 318.69 389.1 319.12 389.81 319.76C391.16 321 391.68 322.72 391.87 323.93C392.33 326.78 391.5 329.81 389.67 332.02C388.26 333.73 386.24 334.92 384.07 335.38L383.58 337.89C383.5 338.35 383.09 338.69 382.61 338.69ZM365.77 336.69H381.78L382.24 334.31C382.32 333.89 382.66 333.56 383.09 333.51C385.04 333.26 386.88 332.24 388.13 330.74C389.6 328.97 390.26 326.54 389.89 324.24C389.69 322.96 389.17 321.89 388.45 321.23C387.84 320.67 387 320.39 386.26 320.49C385.94 320.54 385.62 320.42 385.39 320.19C385.17 319.96 385.07 319.63 385.13 319.31L385.15 319.2H361.47L365.77 336.69ZM383.98 331.61C383.75 331.61 383.52 331.53 383.34 331.38C383.06 331.15 382.93 330.78 383 330.42L384.73 321.5C384.83 321 385.29 320.65 385.78 320.69C387.41 320.8 388.91 321.99 389.44 323.58C390.03 325.37 389.49 327.55 388.06 329.14C387.17 330.13 385.96 330.91 384.35 331.54C384.22 331.59 384.1 331.61 383.98 331.61ZM386.48 322.96L385.35 328.82C385.83 328.51 386.23 328.18 386.57 327.8C387.53 326.74 387.91 325.33 387.54 324.21C387.36 323.69 386.96 323.23 386.48 322.96Z" fill="#333333"/>
<path d="M326.9 278.02C324.38 279.42 323.46 283.16 322.78 285.97C322.09 288.77 319.34 333.88 319.34 333.88C319.34 333.88 317.05 335.98 317.28 337.15C317.51 338.32 317.26 343.06 317.26 343.06L333.08 336.21L334.23 352.43L325.08 371.01H342.67C343.98 366.4 345.23 361.94 346.16 358.6C347.21 354.85 347.95 351.03 348.37 347.16L355.25 284.74L356.23 266.73L351.17 270.54C351.18 270.55 329.42 276.62 326.9 278.02Z" fill="url(#paint1_linear_114_212)"/>
<path d="M342.68 373.02H325.09C324.4 373.02 323.76 372.66 323.39 372.08C323.03 371.49 322.99 370.76 323.29 370.14L332.2 352.04L331.29 339.17L318.06 344.9C317.43 345.18 316.69 345.1 316.12 344.71C315.55 344.32 315.23 343.66 315.26 342.96C315.37 340.8 315.42 338.11 315.31 337.53C314.98 335.87 316.27 334.13 317.38 332.98C317.93 323.92 320.15 288.24 320.82 285.49C321.58 282.37 322.63 278.1 325.91 276.27C328.43 274.87 345.87 269.94 350.26 268.71L355.02 265.13C355.64 264.66 356.48 264.6 357.16 264.96C357.85 265.33 358.26 266.06 358.22 266.83L357.24 284.84C357.24 284.88 357.24 284.91 357.23 284.95L350.35 347.37C349.91 351.34 349.15 355.3 348.07 359.13C347.14 362.47 345.89 366.93 344.58 371.54C344.36 372.43 343.57 373.02 342.68 373.02ZM328.3 369.02H341.17C342.33 364.94 343.41 361.06 344.25 358.08C345.26 354.45 345.99 350.71 346.4 346.96L353.28 284.6L354.02 270.93L352.39 272.16C352.19 272.31 351.97 272.42 351.73 272.49C343.41 274.81 329.57 278.85 327.89 279.79C326.13 280.77 325.33 284.06 324.74 286.46C324.26 288.56 322.41 316.74 321.36 334.01C321.33 334.53 321.1 335.01 320.72 335.36C320.14 335.9 319.5 336.67 319.31 337.06C319.4 337.76 319.41 338.87 319.39 339.98L332.31 334.39C332.91 334.13 333.59 334.18 334.14 334.52C334.69 334.86 335.05 335.44 335.1 336.09L336.25 352.31C336.27 352.66 336.21 353.02 336.05 353.33L328.3 369.02Z" fill="#333333"/>
<path d="M418.65 349.04C417.23 346.98 415.03 345.77 411.12 344.32C407.21 342.87 400.81 334.22 400.81 334.22C400.81 334.22 399.8 328.05 398.85 327.2C398.67 327.04 397.54 324.41 396.59 324.34C396.59 324.34 393.58 317.59 392.92 316.99C392.26 316.39 391.01 316.47 391.01 316.47L386.38 318.19C386.38 318.19 385.79 320.06 387.63 320.51C389.47 320.96 390.86 320.51 390.86 320.51L391.67 324.31C389.62 324.32 387.71 324.34 387.71 324.34C387.71 324.34 385.93 325.2 385.69 326.23C385.45 327.26 385.46 329.25 386.28 329.19C387.11 329.13 390.19 329.19 390.19 329.19L390.01 330.46C390.01 330.46 386.63 330.46 385.92 331C385.21 331.54 383.49 333.48 384.2 334.27C384.91 335.06 386.87 335.72 386.87 335.72C386.87 335.72 386.28 335.48 386.28 336.32C386.28 337.17 386.81 338.2 386.81 338.2C386.81 338.2 387.51 341.1 388.97 341.16C390.43 341.22 393.75 343.34 393.75 343.34C393.75 343.34 396.18 346.42 396.77 347.88C397.36 349.34 398.55 358.16 405.13 361.91C405.72 362.25 406.27 362.55 406.79 362.83C411.05 365.1 416.44 362.82 417.5 358.12C417.51 358.09 417.51 358.07 417.52 358.04C418.06 355.51 420.08 351.1 418.65 349.04Z" fill="white"/>
<path d="M410.35 364.72C408.96 364.72 407.58 364.39 406.33 363.72C405.8 363.44 405.24 363.13 404.64 362.79C398.77 359.45 396.95 352.41 396.17 349.4C396.04 348.91 395.92 348.45 395.85 348.27C395.43 347.24 393.79 345.04 393.07 344.11C391.77 343.3 389.72 342.21 388.93 342.18C386.93 342.1 386.08 339.37 385.87 338.57C385.71 338.23 385.28 337.26 385.28 336.35C385.28 336.29 385.28 336.23 385.29 336.18C384.64 335.88 383.91 335.46 383.47 334.97C383.25 334.72 382.99 334.29 383.05 333.64C383.18 332.17 384.9 330.56 385.32 330.24C385.4 330.18 385.5 330.12 385.6 330.07C385.43 329.98 385.27 329.86 385.13 329.7C384.31 328.75 384.55 326.73 384.71 326.03C385.04 324.61 386.89 323.64 387.26 323.46C387.39 323.39 387.54 323.36 387.69 323.36C387.69 323.36 388.9 323.35 390.43 323.34L390.08 321.69C389.4 321.76 388.45 321.77 387.38 321.51C386.37 321.26 385.87 320.69 385.62 320.25C385.03 319.21 385.37 318.04 385.41 317.91C385.5 317.62 385.73 317.38 386.02 317.27L390.65 315.55C390.74 315.52 390.84 315.5 390.94 315.49C391.11 315.48 392.64 315.41 393.58 316.27C394.23 316.86 395.93 320.47 397.32 323.56C398.15 323.99 398.8 325.09 399.44 326.27C399.51 326.4 399.57 326.51 399.61 326.58C400.58 327.65 401.35 331.46 401.75 333.83C403.61 336.3 408.56 342.32 411.46 343.4C415.28 344.82 417.81 346.1 419.46 348.49C420.8 350.42 419.88 353.47 419.07 356.15C418.83 356.94 418.61 357.68 418.49 358.27C417.91 360.84 416.25 362.88 413.9 363.96C412.79 364.46 411.57 364.72 410.35 364.72ZM387.33 336.63C387.41 337.07 387.61 337.55 387.71 337.76C387.75 337.83 387.78 337.91 387.79 337.98C388.05 339.03 388.68 340.17 389.02 340.18C390.66 340.25 393.7 342.14 394.29 342.51C394.38 342.57 394.47 342.65 394.54 342.73C394.8 343.06 397.08 345.97 397.7 347.51C397.82 347.81 397.94 348.26 398.1 348.89C398.82 351.65 400.49 358.12 405.62 361.05C406.2 361.38 406.74 361.68 407.26 361.95C409.08 362.92 411.2 362.98 413.07 362.12C414.85 361.31 416.11 359.77 416.52 357.9C416.68 357.16 416.91 356.37 417.16 355.55C417.77 353.52 418.61 350.74 417.82 349.6C416.63 347.88 414.78 346.74 410.77 345.25C406.63 343.71 400.27 335.17 400 334.81C399.91 334.68 399.84 334.53 399.82 334.38C399.38 331.69 398.61 328.45 398.16 327.93C398.01 327.8 397.91 327.62 397.69 327.2C397.1 326.12 396.68 325.49 396.43 325.33C396.1 325.28 395.82 325.06 395.68 324.75C394.33 321.73 392.62 318.18 392.22 317.7C392.05 317.55 391.56 317.47 391.2 317.46L387.29 318.92C387.3 319.04 387.32 319.16 387.38 319.25C387.41 319.3 387.5 319.45 387.87 319.54C389.38 319.91 390.56 319.56 390.57 319.56C390.84 319.48 391.13 319.51 391.37 319.65C391.61 319.79 391.79 320.03 391.85 320.3L392.66 324.1C392.72 324.39 392.65 324.7 392.46 324.94C392.27 325.17 391.99 325.31 391.69 325.31C390.07 325.32 388.55 325.33 387.97 325.33C387.34 325.68 386.74 326.19 386.68 326.45C386.54 327.05 386.55 327.79 386.62 328.17C387.73 328.14 389.95 328.18 390.23 328.19C390.52 328.2 390.79 328.32 390.97 328.54C391.16 328.76 391.24 329.04 391.2 329.33L391.02 330.6C390.95 331.09 390.53 331.46 390.03 331.46C388.51 331.46 386.86 331.63 386.52 331.82C385.96 332.25 385.19 333.26 385.07 333.7C385.51 334.08 386.51 334.53 387.17 334.76C387.21 334.77 387.24 334.78 387.27 334.8C387.77 335.01 388.02 335.57 387.83 336.08C387.73 336.33 387.55 336.52 387.33 336.63Z" fill="#333333"/>
<path d="M317.27 343.06C317.27 343.06 316.58 347.81 317.41 350.57C318.25 353.33 321.92 359.3 324.43 359.76C324.74 359.82 325.11 359.83 325.5 359.79C329.54 359.45 332.64 356.02 332.99 351.98L333.32 348.1C333.32 348.1 336.7 347.61 337.19 345.68C337.67 343.76 337.19 342.67 337.19 342.67C337.19 342.67 339.41 340.01 338.74 337.84C338.74 337.84 342.22 334.98 340.87 333.4C340.87 333.4 339.13 332.81 338.45 333.4C338.45 333.4 338.41 331.57 336.55 331.6C336.55 331.6 336.29 327.23 333.72 327.59C331.15 327.94 330.8 332.13 330.8 332.13C330.8 332.13 327.74 332.27 326.91 332.7C326.08 333.13 323.5 338.73 323.5 338.73L323.57 340.25L317.27 343.06Z" fill="white"/>
<path d="M325.05 360.82C324.76 360.82 324.49 360.8 324.25 360.75C321.08 360.16 317.28 353.59 316.46 350.86C315.57 347.92 316.25 343.12 316.28 342.92C316.33 342.58 316.55 342.29 316.86 342.15L322.53 339.62L322.49 338.78C322.48 338.62 322.51 338.46 322.58 338.32C325.3 332.4 326.16 331.96 326.44 331.82C327.16 331.45 328.83 331.27 329.92 331.19C330.2 329.74 331.07 326.95 333.57 326.61C334.39 326.49 335.15 326.71 335.77 327.22C336.85 328.11 337.28 329.73 337.44 330.72C338.29 330.95 338.84 331.53 339.14 332.16C339.98 332.11 340.84 332.35 341.18 332.47C341.35 332.53 341.5 332.63 341.62 332.76C342.03 333.24 342.22 333.84 342.16 334.49C342.03 335.98 340.62 337.48 339.83 338.21C340.07 340.12 338.9 342.03 338.29 342.88C338.42 343.49 338.51 344.53 338.16 345.92C337.69 347.81 335.48 348.61 334.26 348.92L333.99 352.06C333.6 356.66 329.99 360.41 325.59 360.78C325.4 360.81 325.22 360.82 325.05 360.82ZM318.19 343.74C318.05 345.02 317.76 348.28 318.37 350.28C319.19 353 322.72 358.43 324.62 358.78C324.83 358.82 325.1 358.82 325.42 358.8C328.86 358.51 331.69 355.54 332 351.9L332.33 348.02C332.37 347.56 332.72 347.18 333.18 347.12C334.07 346.99 335.98 346.4 336.22 345.45C336.6 343.94 336.28 343.11 336.27 343.08C336.14 342.74 336.19 342.33 336.42 342.05C336.94 341.42 338.2 339.5 337.78 338.16C337.66 337.77 337.79 337.35 338.1 337.09C338.92 336.41 340.1 335.11 340.17 334.33C340.17 334.31 340.17 334.29 340.17 334.27C339.71 334.16 339.23 334.13 339.07 334.2C338.78 334.45 338.38 334.51 338.02 334.35C337.66 334.19 337.45 333.83 337.44 333.45C337.41 332.9 337.11 332.6 336.56 332.63C336.55 332.63 336.55 332.63 336.54 332.63C336.01 332.63 335.58 332.22 335.54 331.69C335.49 330.85 335.16 329.32 334.5 328.78C334.31 328.62 334.11 328.57 333.84 328.61C332.14 328.85 331.78 332.21 331.78 332.24C331.74 332.74 331.33 333.13 330.83 333.16C329.51 333.22 327.87 333.41 327.4 333.6C326.92 334.08 325.55 336.68 324.5 338.96L324.56 340.24C324.58 340.65 324.34 341.03 323.97 341.2L318.19 343.74Z" fill="#333333"/>
<path d="M357.04 276.05C357.04 276.05 358.74 282.08 364.93 282.69C374.22 283.6 378.17 276.05 378.17 276.05V250.72H357.04V276.05Z" fill="white"/>
<path d="M366.45 283.76C365.93 283.76 365.39 283.73 364.83 283.68C358.04 283.02 356.15 276.59 356.08 276.32C356.06 276.23 356.04 276.14 356.04 276.05V250.72C356.04 250.17 356.49 249.72 357.04 249.72H378.17C378.72 249.72 379.17 250.17 379.17 250.72V276.05C379.17 276.21 379.13 276.37 379.06 276.51C379.01 276.59 375.15 283.76 366.45 283.76ZM358.04 275.89C358.31 276.71 360 281.19 365.03 281.68C372.79 282.44 376.48 276.93 377.17 275.77V251.7H358.04V275.89Z" fill="#333333"/>
<path d="M388.73 234.78C388.73 248.64 374.71 262.67 361.9 262.67C349.09 262.67 342.35 248.64 342.35 234.78C342.35 220.92 352.73 209.68 365.54 209.68C378.35 209.68 388.73 220.92 388.73 234.78Z" fill="white"/>
<path d="M361.9 263.67C348.41 263.67 341.35 249.13 341.35 234.78C341.35 220.39 352.2 208.68 365.54 208.68C378.88 208.68 389.73 220.39 389.73 234.78C389.73 248.82 375.43 263.67 361.9 263.67ZM365.54 210.68C353.3 210.68 343.35 221.49 343.35 234.78C343.35 248.14 349.72 261.67 361.9 261.67C374.45 261.67 387.73 247.85 387.73 234.78C387.73 221.5 377.78 210.68 365.54 210.68Z" fill="#333333"/>
<path d="M352.97 201.01C351.93 203.04 350.26 210.54 357.52 213.51C359.63 214.37 361.73 215.2 363.92 215.84C366.11 216.49 368.38 217.56 369.41 219.6C370.5 221.77 369.9 224.47 370.88 226.69C372.57 230.51 378.13 231.38 379.8 235.21C380.05 235.78 380.19 236.37 380.25 236.97C379.35 244.54 378.2 248.61 380.11 252.87C381.16 255.2 382.47 257.46 382.99 259.96C383.51 262.46 383.07 265.37 381.11 267.02C390.34 267.09 398.61 261.67 406.23 256.46C408.92 254.62 411.61 252.78 414.3 250.95C415.14 250.38 416.01 249.76 416.48 248.86C417.57 246.73 415.89 244.21 414 242.74C412.11 241.27 409.79 240.06 408.92 237.83C407.65 234.59 410.04 230.5 408.11 227.6C406.35 224.96 399.75 227 398.44 218.94" fill="white"/>
<path d="M381.28 268.52C381.22 268.52 381.16 268.52 381.1 268.52C380.47 268.52 379.91 268.12 379.7 267.53C379.49 266.94 379.67 266.28 380.15 265.87C381.75 264.53 381.89 262.02 381.53 260.27C381.17 258.57 380.4 256.96 379.58 255.26C379.3 254.67 379.01 254.08 378.75 253.49C377.03 249.66 377.51 246.13 378.25 240.78C378.41 239.62 378.58 238.36 378.75 236.98C378.69 236.55 378.59 236.17 378.43 235.82C377.77 234.32 376.2 233.29 374.53 232.21C372.66 231 370.54 229.62 369.52 227.31C368.95 226.01 368.83 224.68 368.71 223.4C368.61 222.25 368.51 221.16 368.08 220.29C367.43 218.99 365.93 218.01 363.51 217.3C361.37 216.67 359.35 215.89 356.97 214.92C354.1 213.74 352.15 211.83 351.19 209.23C349.93 205.83 350.78 202.05 351.65 200.35C352.03 199.61 352.93 199.32 353.67 199.7C354.41 200.08 354.7 200.98 354.32 201.72C353.81 202.72 353.05 205.62 354 208.19C354.66 209.97 356.04 211.3 358.1 212.14C360.4 213.08 362.34 213.83 364.36 214.42C367.62 215.38 369.71 216.86 370.76 218.94C371.46 220.32 371.59 221.81 371.7 223.13C371.8 224.22 371.89 225.25 372.26 226.09C372.92 227.59 374.5 228.61 376.16 229.69C378.04 230.91 380.16 232.29 381.18 234.62C381.48 235.3 381.66 236.02 381.75 236.82C381.76 236.93 381.76 237.04 381.75 237.16C381.58 238.62 381.39 239.96 381.22 241.19C380.53 246.2 380.12 249.22 381.49 252.26C381.75 252.83 382.02 253.39 382.29 253.96C383.15 255.75 384.04 257.6 384.48 259.66C384.84 261.37 384.83 263.48 384.1 265.35C391.36 264.46 398.09 260.22 405.41 255.23L413.48 249.72C414.13 249.28 414.87 248.77 415.17 248.19C415.81 246.94 414.62 245.11 413.11 243.94C412.72 243.64 412.31 243.35 411.9 243.06C410.26 241.89 408.39 240.56 407.55 238.39C406.83 236.55 407.06 234.59 407.25 232.86C407.45 231.08 407.63 229.55 406.89 228.44C406.58 227.98 405.61 227.69 404.58 227.38C401.96 226.59 398 225.4 396.99 219.19C396.86 218.37 397.41 217.6 398.23 217.47C399.06 217.33 399.82 217.89 399.95 218.71C400.66 223.07 402.99 223.77 405.45 224.51C406.94 224.96 408.49 225.42 409.39 226.78C410.74 228.8 410.47 231.14 410.24 233.2C410.07 234.72 409.9 236.15 410.35 237.3C410.87 238.63 412.22 239.6 413.65 240.62C414.09 240.94 414.53 241.25 414.95 241.58C417.44 243.51 419.29 246.72 417.84 249.56C417.19 250.83 416.07 251.59 415.17 252.21L407.1 257.72C400.02 262.52 391.25 268.52 381.28 268.52Z" fill="#333333"/>
<path d="M353.84 230.93C353.15 229.83 352.21 228.28 350.72 228.34C349.24 228.4 347.45 229.68 347.53 231.26C347.56 231.86 348.13 232.13 348.64 231.9C349.53 231.51 349.84 230.49 350.73 230.12C351.87 229.65 352.8 230.2 353.47 231.14C353.63 231.36 353.99 231.16 353.84 230.93Z" fill="#333333"/>
<path d="M351.59 230.38C350.71 229.71 349.23 230.09 348.74 231.06C348.48 231.58 348.43 232.15 348.59 232.71C348.8 233.45 349.5 234.14 350.31 234.09C351.09 234.04 351.76 233.47 351.75 232.65C351.75 232.62 351.75 232.59 351.75 232.56C351.69 232.79 351.62 233.03 351.56 233.26C351.77 232.89 351.95 232.49 352.04 232.07C352.09 231.83 352.15 231.58 352.13 231.34C352.09 230.82 351.85 230.48 351.44 230.17C351.08 229.9 350.57 229.99 350.2 230.17C349.7 230.41 349.58 230.88 349.44 231.36C349.43 231.41 349.41 231.46 349.39 231.52C349.34 231.66 349.34 231.66 349.4 231.5C349.4 231.61 349.24 231.79 349.18 231.88C349.46 231.67 349.73 231.46 350.01 231.24C349.98 231.25 349.96 231.26 349.93 231.27C350.52 231.61 351.11 231.94 351.71 232.28C351.66 232.14 351.61 231.99 351.54 231.87C351.47 231.75 351.38 231.64 351.28 231.54C351.23 231.48 351.24 231.5 351.32 231.6C351.49 231.83 351.3 231.45 351.4 231.72C351.47 231.92 351.51 232.08 351.44 232.29C351.42 232.35 351.26 232.57 351.39 232.42C351.52 232.27 351.32 232.49 351.29 232.52C351.24 232.56 351.18 232.6 351.13 232.64C351.23 232.59 351.22 232.58 351.11 232.64C350.93 232.68 350.85 232.7 350.65 232.67C351.27 232.77 351.86 232.56 352.12 231.95C352.36 231.32 352.09 230.76 351.59 230.38Z" fill="#333333"/>
<path d="M363.54 230.07C362.66 229.4 361.18 229.78 360.69 230.75C360.43 231.27 360.38 231.84 360.54 232.4C360.75 233.14 361.45 233.83 362.26 233.78C363.04 233.73 363.71 233.16 363.7 232.34C363.7 232.31 363.7 232.28 363.7 232.25C363.64 232.48 363.57 232.72 363.51 232.95C363.72 232.58 363.9 232.18 363.99 231.76C364.04 231.52 364.1 231.27 364.08 231.03C364.04 230.51 363.8 230.17 363.39 229.86C363.03 229.59 362.52 229.68 362.15 229.86C361.65 230.1 361.53 230.57 361.39 231.05C361.38 231.1 361.36 231.15 361.34 231.21C361.29 231.35 361.29 231.35 361.35 231.19C361.35 231.3 361.19 231.48 361.13 231.57C361.41 231.36 361.68 231.15 361.96 230.93C361.93 230.94 361.91 230.95 361.88 230.96C362.47 231.3 363.06 231.63 363.66 231.97C363.61 231.83 363.56 231.68 363.49 231.56C363.42 231.44 363.33 231.33 363.23 231.23C363.18 231.17 363.19 231.19 363.27 231.29C363.44 231.52 363.25 231.14 363.35 231.41C363.42 231.61 363.46 231.77 363.39 231.98C363.37 232.04 363.21 232.26 363.34 232.11C363.47 231.96 363.27 232.18 363.24 232.21C363.19 232.25 363.13 232.29 363.08 232.33C363.18 232.28 363.17 232.27 363.06 232.33C362.88 232.37 362.8 232.39 362.6 232.36C363.22 232.46 363.81 232.25 364.07 231.64C364.3 231.01 364.04 230.45 363.54 230.07Z" fill="#333333"/>
<path d="M366.22 232.3C366.17 230.49 365.34 228.77 363.41 228.35C361.76 227.99 359.84 229.06 359.38 230.69C359.28 231.05 359.68 231.34 360 231.17C360.99 230.62 361.75 229.77 362.98 229.93C364.24 230.09 365.46 231.2 365.86 232.36C365.92 232.54 366.23 232.52 366.22 232.3Z" fill="#333333"/>
<path d="M354.82 236.62C354.27 238.05 353.87 239.51 353.65 241.02C353.48 242.15 353.31 243.33 354.17 244.2C354.36 244.39 354.75 244.42 354.93 244.2C355.65 243.33 355.53 242.36 355.56 241.28C355.6 239.82 355.82 238.4 356.18 236.99C356.4 236.1 355.14 235.79 354.82 236.62Z" fill="#333333"/>
<path d="M354.71 250.82C355.97 252.35 357.67 253.05 359.68 252.76C361.36 252.52 363.5 251.28 363.83 249.43C364.16 247.57 362.32 247.47 361.27 248.44C359.48 250.1 357.57 251.04 355.09 250.16C354.69 250 354.49 250.54 354.71 250.82Z" fill="#333333"/>
<path d="M267.32 271.73L262.42 271.71V247.24H237.5V271.59L233.89 271.57L228.28 272.31L233.89 296.52L261.98 316.97L274.09 310.27L267.32 271.73Z" fill="white"/>
<path d="M261.98 317.97C261.77 317.97 261.57 317.91 261.39 317.78L233.3 297.32C233.11 297.18 232.97 296.97 232.91 296.74L227.31 272.53C227.25 272.26 227.3 271.97 227.46 271.74C227.62 271.51 227.87 271.36 228.15 271.32L233.75 270.58C233.79 270.57 233.85 270.58 233.89 270.57L236.5 270.58V247.23C236.5 246.68 236.95 246.23 237.5 246.23H262.41C262.96 246.23 263.41 246.68 263.41 247.23V270.7L267.32 270.72C267.8 270.72 268.22 271.07 268.3 271.55L275.07 310.09C275.14 310.51 274.94 310.93 274.57 311.14L262.46 317.84C262.31 317.93 262.14 317.97 261.98 317.97ZM234.78 295.93L262.06 315.79L272.99 309.74L266.49 272.72L262.42 272.7C261.87 272.7 261.42 272.25 261.42 271.7V248.23H238.5V271.58C238.5 271.85 238.39 272.1 238.21 272.29C238.02 272.48 237.79 272.56 237.5 272.58L233.95 272.56L229.51 273.15L234.78 295.93Z" fill="#333333"/>
<path d="M301.75 324.25C301.75 324.25 295.08 286.31 286.62 278.14C278.16 269.97 267.32 271.73 267.32 271.73L263.16 298.9L228.29 272.31C228.29 272.31 213.81 275.94 210.89 279.15C207.97 282.36 194.66 335.05 197.29 340.6C199.92 346.14 216.26 344.1 216.26 344.1L225.01 352.27C225.01 352.27 216.77 361.94 210.96 371.03H292.84C291.65 366.13 290.29 361.27 288.75 356.46L284.93 344.58L286.58 331.85L301.75 324.25Z" fill="#9ADAF3"/>
<path d="M295.37 373.02H207.3L209.27 369.94C213.82 362.84 219.73 355.49 222.26 352.43L215.57 346.18C211.21 346.64 198.33 347.44 195.49 341.44C193.74 337.74 197.01 321.5 200.07 308.53C200.13 308.25 206.61 280.88 209.42 277.79C212.58 274.31 225.3 270.99 227.81 270.36L228.74 270.13L261.7 295.26L265.57 269.98L267.01 269.75C267.49 269.67 278.95 267.93 288.02 276.7C296.85 285.22 303.45 322.33 303.73 323.91L303.99 325.38L288.43 333.16L286.97 344.39L290.65 355.85C292.19 360.63 293.58 365.58 294.78 370.56L295.37 373.02ZM214.68 369.02H290.27C289.24 364.97 288.08 360.96 286.83 357.07L282.88 344.76L284.73 330.53L299.52 323.14C297.42 311.79 291.5 285.64 285.24 279.58C279.35 273.9 272.09 273.49 269.06 273.6L264.63 302.54L227.85 274.5C222.1 276.01 214.02 278.7 212.38 280.5C209.24 284.74 197.12 334.83 199.11 339.76C200.47 342.63 210 342.87 216.02 342.12L216.93 342L227.77 352.11L226.53 353.56C226.46 353.65 220.08 361.16 214.68 369.02Z" fill="#333333"/>
<path d="M285.91 330.76L278.64 352.89L295.56 347.01L302.38 324.48L301.77 323.33L285.91 330.76Z" fill="white"/>
<path d="M278.64 353.89C278.38 353.89 278.13 353.79 277.94 353.6C277.67 353.33 277.57 352.94 277.69 352.57L284.96 330.44C285.05 330.18 285.24 329.96 285.49 329.85L301.34 322.42C301.82 322.19 302.4 322.38 302.65 322.85L303.26 324C303.38 324.23 303.41 324.51 303.33 324.76L296.51 347.29C296.42 347.6 296.18 347.84 295.88 347.95L278.96 353.83C278.86 353.87 278.75 353.89 278.64 353.89ZM286.73 331.48L280.22 351.28L294.75 346.23L301.27 324.66L286.73 331.48Z" fill="#333333"/>
<path d="M228.28 235.48C228.28 250.88 242.13 266.47 254.78 266.47C267.43 266.47 274.09 250.88 274.09 235.48C274.09 220.08 263.84 207.59 251.19 207.59C238.54 207.59 228.28 220.08 228.28 235.48Z" fill="white"/>
<path d="M254.78 267.47C241.42 267.47 227.28 251.02 227.28 235.48C227.28 219.55 238 206.59 251.18 206.59C264.36 206.59 275.08 219.55 275.08 235.48C275.09 251.38 268.11 267.47 254.78 267.47ZM251.19 208.59C239.11 208.59 229.29 220.65 229.29 235.48C229.29 250.06 242.4 265.47 254.79 265.47C266.81 265.47 273.1 250.38 273.1 235.48C273.09 220.65 263.26 208.59 251.19 208.59Z" fill="#333333"/>
<path d="M229.37 226.73C230.67 224.38 232.01 221.98 234.03 220.17C236.05 218.36 238.91 217.21 241.57 217.88C243.25 218.3 244.65 219.37 246.07 220.33C247.49 221.29 249.08 222.19 250.81 222.17C252.54 222.15 254.36 220.87 254.32 219.18C257.49 224.23 264.11 226.97 270.04 225.68C275.97 224.4 280.78 219.18 281.45 213.31C281.94 208.99 280.09 204.28 276.25 202.06C272.41 199.84 266.7 200.88 264.56 204.7C259.02 200.39 250.27 200.63 244.99 205.24C244.05 206.06 243.09 207.05 241.83 207.14C239.84 207.27 238.6 205.18 237.25 203.75C234.62 200.98 224.94 199.6 225.33 204.96C225.85 212.16 228.05 219.61 229.37 226.73Z" fill="#666666"/>
<path d="M228.66 231.12L227.9 227C227.47 224.67 226.93 222.24 226.4 219.9C225.31 215.03 224.19 210 223.83 205.07C223.68 202.98 224.69 201.29 226.61 200.44C230.18 198.86 236.14 200.4 238.33 202.71C238.63 203.02 238.92 203.37 239.21 203.71C240.23 204.91 240.97 205.7 241.72 205.63C242.32 205.59 242.96 205.01 243.65 204.41L243.99 204.1C249.38 199.4 258.11 198.84 264.18 202.61C265.33 201.29 266.92 200.31 268.8 199.79C271.57 199.03 274.63 199.39 276.98 200.75C281.12 203.15 283.51 208.26 282.92 213.47C282.18 219.97 276.89 225.72 270.34 227.14C264.67 228.37 258.44 226.26 254.61 222.04C253.64 223.04 252.22 223.64 250.81 223.65C248.67 223.66 246.77 222.6 245.21 221.55L244.64 221.16C243.47 220.36 242.37 219.6 241.18 219.3C238.87 218.72 236.48 219.93 235.01 221.25C233.16 222.91 231.89 225.21 230.66 227.42L228.66 231.12ZM252.68 213.74L255.6 218.39C258.45 222.93 264.39 225.38 269.73 224.22C275.06 223.07 279.36 218.41 279.96 213.14C280.41 209.16 278.58 205.14 275.5 203.36C273.82 202.39 271.63 202.14 269.62 202.69C267.93 203.15 266.6 204.13 265.88 205.43L265.03 206.96L263.65 205.89C258.66 202.01 250.74 202.23 245.99 206.38L245.67 206.66C244.73 207.49 243.57 208.53 241.94 208.64C239.61 208.78 238.13 207.06 236.95 205.66C236.69 205.36 236.44 205.05 236.18 204.78C234.76 203.28 230.12 202.18 227.85 203.19C227.08 203.53 226.79 204.01 226.85 204.85C227.19 209.56 228.29 214.48 229.35 219.25C229.6 220.35 229.85 221.47 230.09 222.6C230.92 221.34 231.88 220.11 233.05 219.06C235.7 216.68 239.03 215.7 241.96 216.43C243.68 216.86 245.06 217.81 246.39 218.72L246.94 219.09C248.11 219.88 249.45 220.7 250.83 220.67C251.44 220.66 252.1 220.39 252.51 219.96C252.67 219.79 252.86 219.53 252.85 219.22L252.68 213.74Z" fill="#333333"/>
<path d="M252.11 236.8C252.64 236.51 254.71 235.68 255.21 236.37C255.45 236.71 254.95 237.06 255.04 237.35C255.87 237.39 256.12 237.28 255.81 237.02C255.72 236.94 255.64 236.85 255.58 236.75C255.46 236.57 255.38 236.36 255.28 236.16C255.16 235.93 254.79 235.87 254.62 236.07C253.8 237.06 253.7 238.69 255.03 239.35C256.76 240.21 257.74 238.11 257.74 236.72C257.74 235.18 256.51 234.14 255.03 234.03C253.38 233.91 252.16 234.67 251.44 236.12C251.22 236.56 251.67 237.04 252.11 236.8Z" fill="#333333"/>
<path d="M264.37 235.21C264.83 234.76 265.59 234.66 266.15 235C266.71 235.35 266.75 235.97 266.72 236.56C266.71 236.77 266.61 237.09 266.65 237.29C267.5 237.77 267.9 237.77 267.85 237.28C267.85 237.19 267.85 237.09 267.86 237C267.92 236.51 268.06 235.95 268.22 235.48C268.47 234.74 267.53 234.01 266.88 234.45C266.23 234.89 265.72 235.4 265.55 236.2C265.41 236.88 265.37 237.67 265.64 238.32C265.98 239.12 266.91 239.49 267.69 239.05C268.34 238.69 268.59 237.97 268.63 237.27C268.71 235.9 268.46 234.14 266.99 233.58C265.68 233.09 264.51 233.77 264.18 235.09C264.15 235.21 264.29 235.3 264.37 235.21Z" fill="#333333"/>
<path d="M262.46 239.92C262.53 241.47 262.93 242.79 263.52 244.23C263.67 244.6 264.45 245.84 264.35 246.07C264.31 246.16 263.21 246.59 263.01 246.75C262.76 246.95 262.93 247.33 263.19 247.42C264.5 247.83 266.61 247.57 266.14 245.72C265.89 244.73 265.17 243.8 264.74 242.89C264.22 241.81 263.72 240.78 263.08 239.76C262.91 239.49 262.45 239.58 262.46 239.92Z" fill="#333333"/>
<path d="M256.73 254.21C257.5 255.59 258.35 256.67 259.98 257.02C261.23 257.29 262.72 256.95 262.97 255.49C263.05 255.05 262.73 254.77 262.31 254.83C261.6 254.93 260.67 255.08 259.98 254.9C259.09 254.66 258.13 254.06 257.31 253.63C256.94 253.44 256.52 253.84 256.73 254.21Z" fill="#333333"/>
<path d="M255.52 251.45C256.61 253.35 258.37 254.63 260.62 254.75C262.63 254.85 265.21 254.19 266.21 252.29C266.42 251.89 266.07 251.36 265.6 251.5C263.98 251.99 262.71 252.96 260.93 252.91C259.12 252.85 257.38 252.08 255.91 251.07C255.67 250.9 255.39 251.21 255.52 251.45Z" fill="#333333"/>
<path d="M228.28 235.8C235.29 231.35 238.12 237.71 238.4 239.92C238.58 232.71 241.78 227.79 246.8 222.35C244.61 219.85 242.2 217.21 238.88 216.36C236.36 215.72 233.76 216.24 231.35 217.02C228.89 217.82 228.38 218.16 228.35 220.59C228.32 222.03 229.02 235.58 228.28 235.8Z" fill="#666666"/>
<path d="M238.4 240.92C237.9 240.92 237.47 240.55 237.41 240.04C237.28 239 236.37 236.54 234.41 235.62C232.96 234.94 231.18 235.23 229.1 236.47C228.95 236.64 228.77 236.7 228.57 236.76C228.09 236.91 227.58 236.67 227.37 236.22C227.21 235.88 227.26 235.5 227.47 235.21C227.78 233.83 227.51 226.2 227.41 223.28C227.36 221.93 227.33 220.92 227.33 220.58C227.37 217.56 228.37 216.94 231.02 216.08C233.05 215.42 236.09 214.62 239.11 215.4C242.86 216.36 245.56 219.44 247.53 221.7C247.87 222.08 247.86 222.66 247.51 223.04C242.62 228.35 239.55 233.03 239.38 239.96C239.37 240.48 238.95 240.91 238.43 240.93C238.44 240.92 238.42 240.92 238.4 240.92ZM232.76 233.25C233.64 233.25 234.48 233.44 235.27 233.81C236.34 234.31 237.18 235.11 237.82 235.99C238.84 230.73 241.63 226.59 245.46 222.34C243.34 219.97 241.3 218.01 238.64 217.33C236.13 216.69 233.46 217.39 231.66 217.98C229.43 218.71 229.37 218.78 229.34 220.61C229.34 220.94 229.37 221.91 229.42 223.22C229.62 228.86 229.67 232.1 229.59 233.98C230.7 233.49 231.76 233.25 232.76 233.25Z" fill="#333333"/>
<path d="M231.94 237.02C231.86 236.09 230.92 235.51 230.05 235.17C229.38 234.91 228.61 234.71 227.98 235.04C227.43 235.33 227.14 235.96 226.98 236.57C226.6 237.94 226.65 239.47 227.38 240.68C228.11 241.89 229.62 242.68 230.99 242.31" fill="white"/>
<path d="M233.29 237.04C233.79 234.78 231.13 233.5 229.21 233.4C227.15 233.28 225.96 234.81 225.59 236.69C225.2 238.63 225.55 240.82 227 242.26C228 243.25 230.78 244.54 231.63 242.71C231.77 242.4 231.76 242.05 231.51 241.8C230.96 241.25 230.34 241.36 229.66 241.06C228.6 240.6 228.08 239.58 228.04 238.46C228.01 237.49 228.05 236.2 229.24 236.55C230.04 236.79 230.35 237.62 231.09 237.94C231.93 238.29 233.06 238.08 233.29 237.04Z" fill="#333333"/>
<path d="M230.35 248.2C228.84 248.2 227.33 247.45 226.54 246.12C225.36 244.15 226.04 241.37 227.99 240.17C228.46 239.88 229.08 240.03 229.37 240.5C229.66 240.97 229.51 241.59 229.04 241.88C228.02 242.51 227.64 244.07 228.25 245.09C228.86 246.12 230.42 246.52 231.45 245.91C232.24 245.45 232.69 244.47 232.5 243.63C232.31 242.81 231.46 242.16 230.67 242.25C230.11 242.29 229.63 241.91 229.57 241.36C229.51 240.81 229.91 240.32 230.46 240.26C232.24 240.09 234.03 241.39 234.44 243.18C234.83 244.86 233.99 246.73 232.45 247.63C231.82 248.02 231.08 248.2 230.35 248.2Z" fill="#333333"/>
<path d="M202.05 342.11C202.05 342.11 204.41 358.02 205.05 359.96C205.7 361.9 211.05 366.5 214.93 366.81C218.68 367.11 229.92 366.8 235.34 362.14C243.07 355.48 249.39 334.93 249.39 334.93L258.53 337.46C258.53 337.46 269.11 346.48 270.86 345.21C272.42 344.07 270.56 342.11 270.56 342.11L264.79 335.73C264.79 335.73 274.49 343 275.59 343.71C276.57 344.33 278.57 343.29 278.03 342C277.49 340.7 268.88 333.36 268.88 333.36C268.88 333.36 279.35 339.9 280.95 340.28C282.08 340.55 283.56 339.62 282.91 338.33C282.26 337.03 269.88 327.98 269.88 327.98C269.88 327.98 283.27 330.34 284.04 330.44C285.21 330.58 286.36 328.4 284.85 327.75C283.34 327.1 262.4 319.55 262.4 319.55C262.4 319.55 268.01 313.94 267.8 310.92C267.58 307.9 266.28 306.81 266.28 306.81C266.28 306.81 266 305.91 263.99 309.6C261.97 313.3 260.03 314.7 257.22 315.83C254.41 316.96 240.17 322.36 240.17 322.36L216.23 344.11L202.05 342.11Z" fill="white"/>
<path d="M217.42 367.89C216.4 367.89 215.52 367.85 214.86 367.8C210.66 367.47 204.93 362.73 204.11 360.27C203.45 358.3 201.31 343.89 201.07 342.25C201.02 341.94 201.13 341.62 201.35 341.4C201.57 341.18 201.88 341.07 202.2 341.11L215.94 343.03L239.53 321.59C239.62 321.51 239.73 321.44 239.85 321.39C239.99 321.34 254.12 315.99 256.88 314.87C259.46 313.83 261.22 312.6 263.14 309.08C264.76 306.11 265.5 305.6 266.29 305.68C266.62 305.71 266.91 305.88 267.1 306.14C267.52 306.56 268.62 307.94 268.83 310.81C269.02 313.4 265.94 317.19 264.21 319.09C269 320.82 283.97 326.24 285.28 326.8C286.34 327.25 286.83 328.28 286.52 329.42C286.23 330.51 285.19 331.55 283.96 331.4C283.44 331.34 277.97 330.38 273.93 329.67C278.08 332.77 283.32 336.81 283.84 337.85C284.26 338.69 284.18 339.57 283.63 340.26C282.99 341.07 281.81 341.47 280.76 341.22C280.2 341.09 278.85 340.39 277.22 339.47C278.15 340.4 278.82 341.17 278.99 341.58C279.37 342.48 279.1 343.46 278.3 344.14C277.48 344.83 276.12 345.18 275.09 344.53C274.72 344.3 273.49 343.4 271.98 342.28C272.29 342.8 272.58 343.51 272.51 344.25C272.45 344.94 272.09 345.54 271.48 345.99C269.91 347.13 265.4 344.56 258.08 338.34L250.08 336.13C248.73 340.28 243.02 356.85 236.02 362.88C231.21 367.01 222.48 367.89 217.42 367.89ZM203.24 343.28C204.19 349.61 205.58 358.37 206.01 359.64C206.5 361.12 211.43 365.52 215.02 365.81C218.47 366.09 229.48 365.86 234.69 361.37C242.11 354.98 248.38 334.83 248.44 334.62C248.6 334.1 249.14 333.81 249.66 333.95L258.8 336.48C258.94 336.52 259.07 336.59 259.18 336.68C263.55 340.4 269.01 344.3 270.35 344.31C270.47 344.2 270.48 344.12 270.48 344.08C270.52 343.7 270.11 343.08 269.83 342.77L264.05 336.38C263.7 336 263.71 335.42 264.05 335.04C264.4 334.66 264.98 334.6 265.39 334.91C268.08 336.93 275.25 342.28 276.13 342.84C276.24 342.91 276.68 342.86 276.98 342.61C277.16 342.46 277.13 342.39 277.12 342.35C276.7 341.57 272.28 337.53 268.25 334.09C267.85 333.75 267.78 333.16 268.09 332.74C268.4 332.32 268.98 332.2 269.43 332.48C274.51 335.65 280.3 339.06 281.2 339.27C281.52 339.34 281.9 339.2 282.04 339.02C282.08 338.97 282.12 338.92 282.03 338.74C281.47 337.91 275.12 333 269.31 328.75C268.93 328.47 268.8 327.98 268.98 327.55C269.16 327.12 269.61 326.87 270.07 326.96C275.44 327.91 283.63 329.34 284.18 329.41C284.28 329.39 284.55 329.11 284.58 328.81C284.59 328.7 284.59 328.69 284.47 328.63C283.3 328.13 269.31 323.06 262.08 320.45C261.76 320.33 261.52 320.06 261.44 319.73C261.37 319.4 261.47 319.05 261.71 318.81C263.75 316.76 266.95 312.82 266.82 310.95C266.72 309.52 266.36 308.62 266.06 308.09C265.8 308.45 265.42 309.04 264.88 310.03C262.7 314.03 260.48 315.56 257.61 316.71C255 317.76 242.37 322.55 240.72 323.18L216.93 344.83C216.71 345.03 216.42 345.12 216.12 345.08L203.24 343.28ZM265.34 307.08C265.36 307.16 265.4 307.23 265.44 307.29C265.4 307.23 265.37 307.16 265.34 307.08Z" fill="#333333"/>
<path d="M301.75 324.25C301.75 324.25 307.28 341.91 305.34 349.34C303.41 356.77 298.27 362.59 293.06 358.72C289.45 356.04 280.37 345.35 280.37 345.35L286.57 331.83L300.97 324.63" fill="white"/>
<path d="M296.46 360.96C295.1 360.96 293.75 360.48 292.47 359.53C288.81 356.81 279.99 346.44 279.62 346C279.37 345.7 279.31 345.29 279.47 344.94L285.67 331.42C285.77 331.21 285.93 331.04 286.13 330.94L300.53 323.74C300.67 323.67 300.82 323.64 300.96 323.63C301.08 323.47 301.25 323.35 301.45 323.29C301.98 323.13 302.54 323.42 302.7 323.95C302.93 324.68 308.29 341.97 306.31 349.59C304.85 355.19 301.85 359.41 298.46 360.6C297.8 360.84 297.13 360.96 296.46 360.96ZM281.55 345.19C283.36 347.3 290.61 355.66 293.66 357.92C295.03 358.93 296.42 359.2 297.8 358.71C300.52 357.75 303.1 353.97 304.38 349.08C305.94 343.07 302.29 329.64 301.14 325.67L287.35 332.57L281.55 345.19Z" fill="#333333"/>
<path d="M288.2 321.63C288.2 321.63 286.73 325.67 290.81 327.12C294.9 328.56 298.88 328.94 298.88 328.94V332.48L288.61 336.76C288.61 336.76 287.67 336.67 286.66 336.62C285.58 336.57 283.94 336.6 283.7 336.8C283.24 337.19 282.15 338.59 284.18 339.3C286.21 340.01 288.67 340.3 288.67 340.3L281.8 340.27C281.8 340.27 279.59 343.06 283.44 343.77C286.82 344.39 287.4 344.76 287.4 344.76L280.39 344.23C280.39 344.23 279.84 345.79 281.6 347.07C283.35 348.34 287.35 348.23 287.35 348.23H298.87L307.77 339.22C307.77 339.22 309.14 337.39 309.02 334.94C308.91 332.49 308.91 332.26 308.22 331.69C307.54 331.12 301.74 325.99 301.74 325.99L292.37 323.4L288.2 321.63Z" fill="white"/>
<path d="M287.01 349.22C285.91 349.22 282.72 349.11 281.01 347.87C279.15 346.52 279.16 344.74 279.45 343.9C279.6 343.47 280.03 343.2 280.47 343.23H280.54C280.45 343.09 280.38 342.95 280.33 342.8C279.77 341.3 280.89 339.81 281.02 339.65C281.21 339.41 281.5 339.27 281.8 339.27H282.39C282.17 338.99 282.07 338.7 282.02 338.45C281.83 337.47 282.45 336.54 283.04 336.03C283.2 335.89 283.7 335.46 286.7 335.61C287.42 335.65 288.1 335.7 288.45 335.73L297.87 331.8V329.82C296.43 329.62 293.5 329.13 290.47 328.06C289 327.54 287.97 326.67 287.4 325.47C286.47 323.49 287.22 321.38 287.25 321.29C287.34 321.03 287.54 320.83 287.79 320.72C288.04 320.61 288.32 320.61 288.58 320.71L292.7 322.43L302.01 325C302.16 325.04 302.29 325.11 302.41 325.21C302.47 325.26 308.2 330.34 308.87 330.89C309.88 331.73 309.91 332.31 310.02 334.75L310.03 334.87C310.16 337.65 308.64 339.71 308.58 339.79C308.55 339.83 308.52 339.86 308.49 339.89L299.59 348.9C299.4 349.09 299.15 349.2 298.88 349.2H287.36C287.3 349.21 287.18 349.22 287.01 349.22ZM281.4 345.3C281.51 345.59 281.74 345.92 282.19 346.25C283.39 347.13 286.3 347.25 287.33 347.22H298.46L307.01 338.56C307.19 338.29 308.12 336.82 308.04 334.97L308.03 334.85C307.93 332.72 307.93 332.72 307.6 332.44C306.97 331.92 302.26 327.74 301.27 326.87L292.12 324.34C292.08 324.33 292.04 324.31 292 324.3L288.93 323.02C288.86 324.04 289.16 325.47 291.15 326.17C295.06 327.55 298.94 327.93 298.98 327.93C299.49 327.98 299.89 328.41 299.89 328.93V332.47C299.89 332.87 299.65 333.24 299.28 333.39L289.01 337.67C288.86 337.73 288.69 337.76 288.53 337.74C288.52 337.74 287.61 337.65 286.62 337.6C285.66 337.55 284.65 337.59 284.26 337.65C284.13 337.8 284.02 337.99 284.01 338.07C284.01 338.08 284.12 338.19 284.53 338.33C286.43 339 288.78 339.28 288.81 339.29C289.34 339.35 289.72 339.82 289.69 340.35C289.66 340.88 289.22 341.29 288.69 341.29L282.38 341.26C282.25 341.53 282.14 341.86 282.23 342.09C282.34 342.38 282.87 342.64 283.66 342.78C286.88 343.37 287.75 343.76 287.97 343.9C288.36 344.14 288.53 344.62 288.39 345.06C288.25 345.5 287.82 345.78 287.36 345.74L281.4 345.3Z" fill="#333333"/>
<path d="M294.53 170V177L285.28 170H246.53C242.11 170 238.53 166.42 238.53 162V132C238.53 127.58 242.11 124 246.53 124H294.53C298.95 124 302.53 127.58 302.53 132V162C302.53 166.42 298.95 170 294.53 170Z" fill="url(#paint2_linear_114_212)"/>
<path d="M294.53 179C294.1 179 293.68 178.86 293.32 178.59L284.61 172H246.53C241.02 172 236.53 167.51 236.53 162V132C236.53 126.49 241.02 122 246.53 122H294.53C300.04 122 304.53 126.49 304.53 132V162C304.53 166.83 301.09 170.87 296.53 171.8V177C296.53 177.76 296.1 178.45 295.42 178.79C295.14 178.93 294.83 179 294.53 179ZM246.53 126C243.22 126 240.53 128.69 240.53 132V162C240.53 165.31 243.22 168 246.53 168H285.28C285.72 168 286.14 168.14 286.49 168.41L292.53 172.98V170C292.53 168.9 293.43 168 294.53 168C297.84 168 300.53 165.31 300.53 162V132C300.53 128.69 297.84 126 294.53 126H246.53Z" fill="#333333"/>
<path d="M286.53 143H254.53C253.43 143 252.53 142.1 252.53 141C252.53 139.9 253.43 139 254.53 139H286.53C287.63 139 288.53 139.9 288.53 141C288.53 142.1 287.63 143 286.53 143Z" fill="white"/>
<path d="M269.53 154H254.53C253.43 154 252.53 153.1 252.53 152C252.53 150.9 253.43 150 254.53 150H269.53C270.63 150 271.53 150.9 271.53 152C271.53 153.1 270.63 154 269.53 154Z" fill="white"/>
<path d="M446.53 167V174L455.78 167H494.53C498.95 167 502.53 163.42 502.53 159V129C502.53 124.58 498.95 121 494.53 121H446.53C442.11 121 438.53 124.58 438.53 129V159C438.53 163.42 442.11 167 446.53 167Z" fill="white"/>
<path d="M446.53 176C446.23 176 445.92 175.93 445.64 175.79C444.96 175.45 444.53 174.76 444.53 174V168.8C439.97 167.87 436.53 163.83 436.53 159V129C436.53 123.49 441.02 119 446.53 119H494.53C500.04 119 504.53 123.49 504.53 129V159C504.53 164.51 500.04 169 494.53 169H456.45L447.74 175.59C447.38 175.86 446.96 176 446.53 176ZM446.53 123C443.22 123 440.53 125.69 440.53 129V159C440.53 162.31 443.22 165 446.53 165C447.63 165 448.53 165.9 448.53 167V169.98L454.57 165.41C454.92 165.15 455.34 165 455.78 165H494.53C497.84 165 500.53 162.31 500.53 159V129C500.53 125.69 497.84 123 494.53 123H446.53Z" fill="#333333"/>
<path d="M454.53 140H486.53C487.63 140 488.53 139.1 488.53 138C488.53 136.9 487.63 136 486.53 136H454.53C453.43 136 452.53 136.9 452.53 138C452.53 139.1 453.43 140 454.53 140Z" fill="#333333"/>
<path d="M454.53 151H469.53C470.63 151 471.53 150.1 471.53 149C471.53 147.9 470.63 147 469.53 147H454.53C453.43 147 452.53 147.9 452.53 149C452.53 150.1 453.43 151 454.53 151Z" fill="#333333"/>
<path d="M406.53 152H360.53L346.53 161V152H341.53C337.11 152 333.53 148.42 333.53 144V108C333.53 103.58 337.11 100 341.53 100H406.53C410.95 100 414.53 103.58 414.53 108V144C414.53 148.42 410.95 152 406.53 152Z" fill="#9ADAF3"/>
<path d="M346.53 163C346.2 163 345.87 162.92 345.57 162.76C344.93 162.4 344.53 161.73 344.53 161V154H341.53C336.02 154 331.53 149.51 331.53 144V108C331.53 102.49 336.02 98 341.53 98H406.53C412.04 98 416.53 102.49 416.53 108V144C416.53 149.51 412.04 154 406.53 154H361.12L347.61 162.68C347.28 162.89 346.91 163 346.53 163ZM341.53 102C338.22 102 335.53 104.69 335.53 108V144C335.53 147.31 338.22 150 341.53 150H346.53C347.63 150 348.53 150.9 348.53 152V157.34L359.45 150.32C359.77 150.11 360.15 150 360.53 150H406.53C409.84 150 412.53 147.31 412.53 144V108C412.53 104.69 409.84 102 406.53 102H341.53Z" fill="#333333"/>
<path d="M398.53 116H349.53C348.43 116 347.53 115.1 347.53 114C347.53 112.9 348.43 112 349.53 112H398.53C399.63 112 400.53 112.9 400.53 114C400.53 115.1 399.63 116 398.53 116Z" fill="white"/>
<path d="M398.53 126H349.53C348.43 126 347.53 125.1 347.53 124C347.53 122.9 348.43 122 349.53 122H398.53C399.63 122 400.53 122.9 400.53 124C400.53 125.1 399.63 126 398.53 126Z" fill="white"/>
<path d="M372.53 136H349.53C348.43 136 347.53 135.1 347.53 134C347.53 132.9 348.43 132 349.53 132H372.53C373.63 132 374.53 132.9 374.53 134C374.53 135.1 373.63 136 372.53 136Z" fill="white"/>
</g>
<defs>
<linearGradient id="paint0_linear_114_212" x1="367.104" y1="318.376" x2="421.242" y2="318.376" gradientUnits="userSpaceOnUse">
<stop stop-color="#FFA363"/>
<stop offset="0.9127" stop-color="#FF7743"/>
</linearGradient>
<linearGradient id="paint1_linear_114_212" x1="317.269" y1="318.88" x2="356.245" y2="318.88" gradientUnits="userSpaceOnUse">
<stop stop-color="#FFA363"/>
<stop offset="0.9127" stop-color="#FF7743"/>
</linearGradient>
<linearGradient id="paint2_linear_114_212" x1="238.53" y1="150.5" x2="302.53" y2="150.5" gradientUnits="userSpaceOnUse">
<stop stop-color="#FFA363"/>
<stop offset="0.9127" stop-color="#FF7743"/>
</linearGradient>
<clipPath id="clip0_114_212">
<rect width="725" height="373" fill="white"/>
</clipPath>
</defs>
</svg>
