<svg width="135" height="135" viewBox="0 0 135 135" fill="none" xmlns="http://www.w3.org/2000/svg">
<rect width="135" height="135" fill="white"/>
<path d="M101.331 77.9439H101.831V77.4439V35.1325V28.7858C101.831 25.8998 99.4581 23.5664 96.5505 23.5664H23.8521H17.423C14.5153 23.5664 12.1423 25.8998 12.1423 28.7858V77.4439V77.9439H12.6423H91.1104H101.331Z" fill="#FEFEFE" stroke="#333333"/>
<path d="M68.0727 91.4043H45.0793V97.9738H68.0727V91.4043Z" fill="#9ADAF3"/>
<path d="M12.6423 76.9438H12.1423V77.4438V87.2982C12.1423 90.2779 14.4927 92.7253 17.4185 92.7253H45.2521H68.7213H96.5549C99.4807 92.7253 101.831 90.2779 101.831 87.2982V77.4438V76.9438H101.331H101.166H12.6423Z" fill="#BDECFF" stroke="#333333"/>
<path d="M44.6356 98.4736H68.7976H74.2317C75.6351 98.4736 76.6059 99.554 76.6059 100.848C76.6059 102.142 75.6351 103.222 74.2317 103.222H38.0993C36.6959 103.222 35.7251 102.142 35.7251 100.848C35.7251 99.554 36.6959 98.4736 38.0993 98.4736H44.6356Z" fill="#BDECFF" stroke="#333333"/>
<path d="M56.5761 82.8711C57.651 82.8711 58.5397 83.7598 58.5397 84.8347C58.5397 85.9095 57.651 86.7983 56.5761 86.7983C55.5013 86.7983 54.6125 85.9095 54.6125 84.8347C54.6125 83.7598 55.5013 82.8711 56.5761 82.8711Z" fill="#9ADAF3" stroke="#333333"/>
<path d="M45.0795 92.2256H44.2583V97.9739H45.0795V92.2256Z" fill="#333333"/>
<path d="M68.8939 92.2256H68.0728V97.9739H68.8939V92.2256Z" fill="#333333"/>
<path fill-rule="evenodd" clip-rule="evenodd" d="M19.0476 70.1349L34.3218 56.5031L34.2396 56.421L18.7191 44.5137C18.4727 44.8421 18.3906 45.3349 18.3906 45.7455V68.4104C18.3906 69.0673 18.637 69.6421 19.0476 70.1349Z" fill="#FEFEFE"/>
<path fill-rule="evenodd" clip-rule="evenodd" d="M41.2896 56.5155L42.2504 55.7988L50.4171 49.5878C48.6557 46.0045 48.1753 47.5174 46.8942 43.7749H20.3122C19.5116 43.7749 18.791 44.2527 18.3906 44.8897L33.5231 56.4359L33.6032 56.5155L35.6049 58.0284C36.5657 58.7451 38.247 58.7451 39.2879 57.9488L41.2896 56.5155Z" fill="url(#paint0_linear)"/>
<path fill-rule="evenodd" clip-rule="evenodd" d="M42.3694 56.6676L57.8079 69.6425C58.4649 69.2319 58.6291 68.4107 58.6291 67.5895V55.2716V43.7749L43.1085 55.7643L42.123 56.5033L42.3694 56.6676Z" fill="#FEFEFE"/>
<path fill-rule="evenodd" clip-rule="evenodd" d="M57.8079 70.0531L42.6159 56.5034L40.1523 58.1458C39.069 58.9435 37.457 58.8638 36.4569 58.1458L33.9934 56.5034L19.2119 70.0531C19.6286 70.452 20.2518 70.8743 20.9185 70.8743H56.1656C56.5822 70.8743 57.3973 70.4637 57.8079 70.0531Z" fill="#EFEFEF"/>
<path fill-rule="evenodd" clip-rule="evenodd" d="M42.6155 56.0928L58.0539 69.314L57.397 70.053L41.9739 56.7496L42.6155 56.0928ZM18.9653 69.314L33.5824 56.0928L34.4036 56.7496L19.6223 70.053L18.9653 69.314Z" fill="#333333"/>
<path fill-rule="evenodd" clip-rule="evenodd" d="M48.6106 51.9044L40.4808 58.3918C39.8239 58.8845 39.0848 59.1308 38.2636 59.1308C37.4424 59.1308 36.7034 58.9666 36.0464 58.4739L18.4729 44.9242L19.0477 44.103L36.7034 57.7348C37.114 58.0633 37.6888 58.2275 38.2636 58.2275C38.8385 58.2275 39.4133 58.0633 39.906 57.6527L47.9536 51.1654C48.6106 50.6726 49.1854 51.4938 48.6106 51.9044Z" fill="#333333"/>
<path fill-rule="evenodd" clip-rule="evenodd" d="M21.0997 42.9536H44.0078C44.5456 42.9536 44.5456 43.7748 44.0803 43.7748H21.2073C20.1633 43.7748 19.1954 44.7165 19.1954 45.8278V67.9775C19.1954 69.0959 20.1513 70.053 21.2073 70.053H55.7369C56.215 70.053 56.8761 69.6672 57.1948 69.3454C57.5135 69.0235 57.8243 68.5632 57.8243 68V63.4834C57.8243 63.0728 58.629 63.0728 58.629 63.5521V67.9775C58.629 68.7821 58.3103 69.5063 57.8322 69.9891C57.3542 70.5523 56.637 70.8742 55.9199 70.8742H21.0997C19.593 70.8742 18.3906 69.4751 18.3906 67.9775V45.8503C18.3906 44.3526 19.593 42.9536 21.0997 42.9536Z" fill="#333333"/>
<path fill-rule="evenodd" clip-rule="evenodd" d="M69.6934 46.9958C69.5441 46.1115 69.1709 45.0799 68.6483 44.0483C68.0511 42.7956 67.1552 41.4692 66.0355 40.2165C64.9903 38.9638 63.8705 37.9322 62.7507 37.1216C61.8549 36.4584 60.9591 35.9426 60.1379 35.6479C59.0181 35.2058 58.4955 36.6058 59.8393 37.1953C60.5112 37.4901 61.183 37.8585 61.8549 38.3743C62.9 39.1112 63.9452 40.0691 64.9157 41.1744C65.8862 42.3534 66.7073 43.5324 67.3046 44.6378C67.7525 45.522 68.0511 46.3326 68.2004 46.9958C68.3497 48.2484 69.9174 48.1011 69.6934 46.9958Z" fill="#333333"/>
<path fill-rule="evenodd" clip-rule="evenodd" d="M76.6853 47.8552C76.4629 46.3365 75.8698 44.6007 74.906 42.7203C73.8682 40.6952 72.4596 38.5979 70.6803 36.5728C68.9752 34.5478 67.1219 32.8843 65.2685 31.5825C63.6375 30.4253 62.0065 29.5575 60.5238 29.0512C59.4118 28.6896 58.967 30.1361 60.1532 30.4977C61.4876 30.9316 62.8962 31.7272 64.3789 32.812C66.084 34.0415 67.8632 35.6326 69.4942 37.5853C71.1993 39.5381 72.5337 41.5631 73.4975 43.4435C74.313 45.107 74.906 46.6981 75.1285 48.0722C75.2767 49.0124 76.8336 48.8678 76.6853 47.8552Z" fill="#333333"/>
<path d="M53.2893 47.0998L53.2852 47.0939L53.2809 47.0881C52.306 45.7883 51.481 44.5188 50.9227 43.4421C50.6434 42.9033 50.4362 42.4232 50.3092 42.0187C50.2032 41.6809 50.1627 41.4257 50.1651 41.2464C50.1781 41.2356 50.1936 41.2232 50.212 41.2092C50.3263 41.1217 50.4995 41.0089 50.7266 40.873C51.1376 40.6271 51.6764 40.3342 52.2568 40.0186C52.3148 39.9871 52.3733 39.9553 52.432 39.9234C53.0722 39.5751 53.7475 39.2051 54.3152 38.8589C54.8607 38.5263 55.3798 38.1738 55.6464 37.8539L55.6836 37.8093L55.7095 37.7574C55.8665 37.4435 55.8482 37.0416 55.7954 36.6917C55.7382 36.313 55.6186 35.8694 55.461 35.3941C55.1451 34.441 54.6554 33.2986 54.1229 32.1767C53.5893 31.0524 53.0066 29.9363 52.4996 29.0324C52.002 28.1453 51.5536 27.4198 51.2917 27.1102L51.2339 27.0419L51.156 26.9979C50.7823 26.7866 50.3408 26.7687 49.919 26.8352C49.4913 26.9026 49.0259 27.0656 48.552 27.2867C47.6026 27.7296 46.543 28.4415 45.5529 29.2535C44.561 30.0669 43.6184 30.9976 42.9083 31.8915C42.5533 32.3384 42.2499 32.7844 42.0275 33.2089C41.8082 33.6276 41.6514 34.0564 41.6243 34.4622L41.6243 34.4621L41.6238 34.4708C41.3705 39.6225 43.478 45.3921 46.7925 50.6124L46.794 50.6148C48.2886 52.9397 49.7845 54.8509 51.609 56.8412L51.6109 56.8433C55.8414 61.4057 60.9365 64.8472 66.0799 65.9434L66.0799 65.9434L66.0861 65.9446C66.4911 66.0256 66.9502 65.9843 67.4146 65.8781C67.8851 65.7705 68.3956 65.5883 68.9189 65.3556C69.9655 64.8903 71.1026 64.2057 72.1365 63.4448C73.1687 62.685 74.1194 61.8334 74.7816 61.0249C75.1121 60.6215 75.3842 60.2125 75.5544 59.8174C75.722 59.4284 75.8141 58.9976 75.6988 58.5858L75.6751 58.5013L75.6241 58.43C75.3867 58.0975 74.7917 57.4806 74.0521 56.7753C73.2987 56.057 72.3588 55.2129 71.4004 54.4151C70.4441 53.619 69.4589 52.8602 68.6168 52.3183C68.197 52.0481 67.7988 51.8226 67.4489 51.6743C67.1279 51.5383 66.7417 51.4192 66.3981 51.5001L66.3413 51.5135L66.289 51.5396C65.9192 51.7245 65.4549 52.1424 65.0011 52.591C64.5297 53.0573 64.0086 53.6202 63.5174 54.1523L63.4593 54.2152C62.9851 54.7291 62.544 55.207 62.189 55.5572C62.0031 55.7405 61.854 55.8757 61.7445 55.9596C61.7309 55.97 61.7188 55.9789 61.7082 55.9866C61.5165 55.9381 61.2616 55.8218 60.9421 55.6152C60.5671 55.3726 60.1406 55.0305 59.6748 54.6048C58.7441 53.7541 57.6932 52.6036 56.6322 51.3387C56.5475 51.2358 56.4625 51.1326 56.3772 51.0292C55.3008 49.7233 54.1898 48.3754 53.2893 47.0998ZM61.6482 56.0253C61.6392 56.0297 61.6406 56.028 61.6507 56.024C61.6497 56.0245 61.6489 56.0249 61.6482 56.0253Z" fill="#BDECFF" stroke="#333333"/>
<path d="M116.04 42.4536H85.8011C82.7637 42.4536 80.3013 44.9152 80.3013 47.9527L80.3013 48.3717L80.3013 106.934C80.3013 109.971 82.7637 112.434 85.8013 112.434H116.04C119.077 112.434 121.54 109.971 121.54 106.934V48.4526V47.9532C121.54 44.9156 119.077 42.4536 116.04 42.4536Z" fill="#EBECEC" stroke="#333333"/>
<path fill-rule="evenodd" clip-rule="evenodd" d="M120.957 98.7944H80.8013V106.934C80.8013 109.695 83.0398 111.934 85.8013 111.934H116.04C118.801 111.934 121.04 109.695 121.04 106.934C121.04 106.753 121.04 106.57 121.04 106.384V98.7944H120.957Z" fill="#BDECFF"/>
<path d="M98.5496 105.364V105.351L98.5488 105.337C98.4938 104.345 99.3959 103.401 100.512 103.401C101.611 103.401 102.474 104.264 102.474 105.364C102.474 106.465 101.611 107.328 100.512 107.328C99.4122 107.328 98.5496 106.465 98.5496 105.364Z" fill="#9ADAF3" stroke="#333333"/>
<path d="M121.04 98.7944H80.8013V99.6156H121.04V98.7944Z" fill="#333333"/>
<path d="M116.934 99.2947H117.434V98.7947V89.3742V76.688V48.0596C117.434 47.2311 116.762 46.5596 115.934 46.5596H85.9072C85.0788 46.5596 84.4072 47.2311 84.4072 48.0596V98.7947V99.2947H84.9072H116.934Z" fill="#FEFEFE" stroke="#333333"/>
<path d="M129.459 59.0175L129.202 59.4197L129.592 59.6948L131.854 61.2916L132.283 61.5944L132.565 61.1509L134.089 58.749C134.519 58.0713 134.339 57.1754 133.681 56.7158L133.058 56.2803C132.358 55.7916 131.393 55.984 130.934 56.7035L129.459 59.0175Z" fill="#FEFEFE" stroke="#333333"/>
<mask id="path-24-outside-1" maskUnits="userSpaceOnUse" x="112.364" y="57.2861" width="22" height="30" fill="black">
<rect fill="white" x="112.364" y="57.2861" width="22" height="30"/>
<path fill-rule="evenodd" clip-rule="evenodd" d="M115.402 86.4311L113.364 84.8558L117.022 79.3287L117.494 78.6173L129.881 59.2861L132.142 60.8829L115.402 86.4311Z"/>
</mask>
<path fill-rule="evenodd" clip-rule="evenodd" d="M115.402 86.4311L113.364 84.8558L117.022 79.3287L117.494 78.6173L129.881 59.2861L132.142 60.8829L115.402 86.4311Z" fill="url(#paint1_linear)"/>
<path d="M115.402 86.4311L114.79 87.2222L116.238 86.9792L115.402 86.4311ZM113.364 84.8558L112.53 84.3038L112.752 85.6469L113.364 84.8558ZM117.022 79.3287L116.189 78.7755L116.188 78.7767L117.022 79.3287ZM117.494 78.6173L118.327 79.1705L118.332 79.1637L118.336 79.1569L117.494 78.6173ZM129.881 59.2861L130.458 58.4693L129.604 57.8659L129.039 58.7466L129.881 59.2861ZM132.142 60.8829L132.979 61.431L133.508 60.6232L132.719 60.066L132.142 60.8829ZM116.013 85.64L113.976 84.0646L112.752 85.6469L114.79 87.2222L116.013 85.64ZM114.198 85.4077L117.856 79.8806L116.188 78.7767L112.53 84.3038L114.198 85.4077ZM117.855 79.8818L118.327 79.1705L116.661 78.0642L116.189 78.7755L117.855 79.8818ZM118.336 79.1569L130.723 59.8256L129.039 58.7466L116.652 78.0778L118.336 79.1569ZM129.305 60.103L131.566 61.6998L132.719 60.066L130.458 58.4693L129.305 60.103ZM131.306 60.3348L114.565 85.883L116.238 86.9792L132.979 61.431L131.306 60.3348Z" fill="#333333" mask="url(#path-24-outside-1)"/>
<mask id="path-26-outside-2" maskUnits="userSpaceOnUse" x="110.233" y="83.856" width="7" height="8" fill="black">
<rect fill="white" x="110.233" y="83.856" width="7" height="8"/>
<path fill-rule="evenodd" clip-rule="evenodd" d="M113.363 84.856L112.233 88.6394L115.4 86.4313L113.363 84.856Z"/>
</mask>
<path fill-rule="evenodd" clip-rule="evenodd" d="M113.363 84.856L112.233 88.6394L115.4 86.4313L113.363 84.856Z" fill="#FEFEFE"/>
<path d="M113.363 84.856L113.975 84.0649C113.714 83.8632 113.371 83.8031 113.057 83.904C112.743 84.0049 112.499 84.2539 112.405 84.5698L113.363 84.856ZM112.233 88.6394L111.275 88.3532L110.455 91.0979L112.805 89.4598L112.233 88.6394ZM115.4 86.4313L115.972 87.2517C116.233 87.0697 116.392 86.7742 116.4 86.456C116.408 86.1379 116.264 85.8349 116.012 85.6402L115.4 86.4313ZM112.405 84.5698L111.275 88.3532L113.191 88.9256L114.321 85.1421L112.405 84.5698ZM112.805 89.4598L115.972 87.2517L114.828 85.611L111.661 87.8191L112.805 89.4598ZM116.012 85.6402L113.975 84.0649L112.751 85.647L114.789 87.2224L116.012 85.6402Z" fill="#333333" mask="url(#path-26-outside-2)"/>
<path d="M113.137 88.0329L112.007 88.9406L112.459 87.5791L113.137 88.0329Z" fill="#333333"/>
<path d="M130.559 57.9175L133.274 59.7424" stroke="#333333"/>
<path fill-rule="evenodd" clip-rule="evenodd" d="M100.51 89.351C100.51 89.2484 100.455 89.1457 100.4 89.0944C100.345 88.9918 100.234 88.9404 100.069 88.9404H89.4541C89.3439 88.9404 89.2336 88.9918 89.1234 89.0944C89.0683 89.1457 89.0132 89.2484 89.0132 89.351C89.0132 89.4537 89.0683 89.5563 89.1234 89.6076C89.1785 89.7103 89.2888 89.7616 89.4541 89.7616H100.069C100.179 89.7616 100.289 89.7103 100.4 89.6076C100.455 89.5563 100.51 89.4537 100.51 89.351Z" fill="url(#paint2_linear)"/>
<path fill-rule="evenodd" clip-rule="evenodd" d="M98.0463 91.8144C98.0463 91.7118 97.9771 91.6091 97.9079 91.5578C97.8386 91.4551 97.7002 91.4038 97.4925 91.4038H89.5669C89.4285 91.4038 89.2901 91.4551 89.1516 91.5578C89.0824 91.6091 89.0132 91.7118 89.0132 91.8144C89.0132 91.9171 89.0824 92.0197 89.1516 92.071C89.2208 92.1737 89.3593 92.225 89.5669 92.225H97.4925C97.631 92.225 97.7694 92.1737 97.9079 92.071C97.9771 92.0197 98.0463 91.9171 98.0463 91.8144Z" fill="url(#paint3_linear)"/>
<path fill-rule="evenodd" clip-rule="evenodd" d="M103.712 87.9551L103.795 87.7087C104.123 87.0518 104.534 86.0663 104.452 85.4094C104.452 85.0809 104.205 84.8345 103.466 84.8345C103.138 84.8345 102.809 84.9988 102.563 85.163C102.316 85.3273 102.152 85.4915 101.988 85.7379C101.906 85.9842 101.824 86.2306 101.824 86.559C101.824 86.8875 101.988 87.216 102.152 87.5445C102.234 87.6266 102.399 87.873 102.645 88.1193C103.138 88.6941 103.795 89.5153 104.205 90.2544C104.534 90.0081 104.78 89.7617 104.944 89.5975C105.191 89.3511 105.355 89.1869 105.601 89.3511C105.93 89.5153 105.93 90.0081 105.93 90.5829C105.93 90.9114 105.848 91.2398 105.93 91.2398C105.93 91.2398 106.012 90.9935 106.34 90.1723C106.34 90.0902 106.34 89.9259 106.34 89.8438C106.422 89.6796 106.504 89.5153 106.587 89.3511C106.997 88.7763 107.326 88.7763 107.326 89.4332C107.572 89.0226 107.901 88.5299 107.983 88.2835C108.311 85.82 108.886 83.3564 109.625 82.9458C110.036 82.7816 110.282 82.8637 110.446 83.11C110.857 83.8491 109.214 87.4624 108.886 88.2014L108.722 88.4478C108.64 88.9405 108.557 89.4332 108.557 89.9259C108.64 89.8438 108.722 89.7617 108.886 89.7617C109.132 89.5975 109.379 89.5153 109.625 89.4332C110.2 89.1869 110.775 88.9405 111.185 88.4478C111.103 89.1047 110.939 89.5975 109.954 90.0902C109.707 90.1723 109.461 90.3365 109.297 90.4187C108.968 90.5829 108.722 90.9114 108.557 91.2398V91.322L108.475 91.8968C108.311 93.0465 108.311 93.8677 107.901 93.8677C107.654 93.8677 107.49 93.4571 107.49 92.5538C107.49 92.1432 107.572 91.6504 107.818 91.1577L107.983 90.0081C107.654 90.4187 107.326 90.7471 106.997 90.665C106.422 91.6504 106.012 91.8968 105.765 91.8147C105.437 91.6504 105.355 91.0756 105.355 90.5008C105.355 90.4187 105.355 90.3365 105.355 90.2544C105.191 90.4187 104.944 90.665 104.616 90.8293C104.862 91.4862 104.78 92.061 104.369 92.4716C103.795 93.0465 102.973 93.0465 102.399 92.8822C102.07 92.8001 101.824 92.5538 101.659 92.3074C101.495 92.061 101.413 91.7326 101.577 91.4041C101.742 91.0756 102.316 90.7471 103.22 90.5829C103.384 90.5829 103.466 90.5008 103.63 90.5008C103.22 89.8438 102.645 89.0226 102.152 88.5299C101.906 88.2014 101.742 87.9551 101.659 87.873C101.413 87.3802 101.249 86.9696 101.167 86.559C101.167 86.1484 101.249 85.7379 101.413 85.3273C101.577 84.9988 101.906 84.6703 102.234 84.5061C102.563 84.2597 102.973 84.1776 103.466 84.0955C104.698 84.0133 105.191 84.5061 105.273 85.3273C105.273 86.3127 104.78 87.7908 103.712 87.9551ZM103.795 92.061C103.959 91.8968 103.959 91.5683 103.877 91.2398C103.712 91.322 103.466 91.322 103.302 91.4041C102.563 91.4862 102.234 91.7326 102.152 91.8968C102.152 91.9789 102.152 91.9789 102.152 92.061C102.234 92.1432 102.399 92.2253 102.563 92.3074C102.973 92.3895 103.466 92.3895 103.795 92.061ZM109.379 85.5736C109.625 84.8345 109.871 84.1776 109.954 83.767C109.707 84.0955 109.543 84.7524 109.379 85.5736Z" fill="#333333"/>
<path fill-rule="evenodd" clip-rule="evenodd" d="M92.298 61.8408C92.0712 61.8408 91.8874 62.0246 91.8874 62.2514C91.8874 62.4782 92.0712 62.662 92.298 62.662H112.417C112.644 62.662 112.828 62.4782 112.828 62.2514C112.828 62.0246 112.644 61.8408 112.417 61.8408H92.298ZM89.4238 68.4104C89.197 68.4104 89.0132 68.5942 89.0132 68.821C89.0132 69.0477 89.197 69.2315 89.4238 69.2315H112.417C112.644 69.2315 112.828 69.0477 112.828 68.821C112.828 68.5942 112.644 68.4104 112.417 68.4104H89.4238ZM89.0132 75.3905C89.0132 75.1637 89.197 74.9799 89.4238 74.9799H112.417C112.644 74.9799 112.828 75.1637 112.828 75.3905C112.828 75.6173 112.644 75.8011 112.417 75.8011H89.4238C89.197 75.8011 89.0132 75.6173 89.0132 75.3905ZM89.4238 65.1256C89.197 65.1256 89.0132 65.3094 89.0132 65.5362C89.0132 65.763 89.197 65.9468 89.4238 65.9468H112.417C112.644 65.9468 112.828 65.763 112.828 65.5362C112.828 65.3094 112.644 65.1256 112.417 65.1256H89.4238ZM89.0132 72.1057C89.0132 71.879 89.197 71.6951 89.4238 71.6951H112.417C112.644 71.6951 112.828 71.879 112.828 72.1057C112.828 72.3325 112.644 72.5163 112.417 72.5163H89.4238C89.197 72.5163 89.0132 72.3325 89.0132 72.1057ZM89.4238 78.2647C89.197 78.2647 89.0132 78.4485 89.0132 78.6753C89.0132 78.902 89.197 79.0859 89.4238 79.0859H109.543C109.77 79.0859 109.954 78.902 109.954 78.6753C109.954 78.4485 109.77 78.2647 109.543 78.2647H89.4238Z" fill="#333333"/>
<path fill-rule="evenodd" clip-rule="evenodd" d="M89.4238 53.5396C89.1477 53.5396 88.9238 53.7634 88.9238 54.0396C88.9238 54.3157 89.1477 54.5396 89.4238 54.5396H112.417C112.693 54.5396 112.917 54.3157 112.917 54.0396C112.917 53.7634 112.693 53.5396 112.417 53.5396H89.4238ZM93.5298 56.0031C93.2536 56.0031 93.0298 56.227 93.0298 56.5031C93.0298 56.7793 93.2536 57.0031 93.5298 57.0031H108.311C108.587 57.0031 108.811 56.7793 108.811 56.5031C108.811 56.227 108.587 56.0031 108.311 56.0031H93.5298Z" fill="url(#paint4_linear)"/>
<defs>
<linearGradient id="paint0_linear" x1="21.9364" y1="32.6049" x2="36.7166" y2="48.9744" gradientUnits="userSpaceOnUse">
<stop stop-color="#FFC671"/>
<stop offset="1" stop-color="#FF6F3D"/>
</linearGradient>
<linearGradient id="paint1_linear" x1="113.364" y1="58.2258" x2="139.113" y2="76.7342" gradientUnits="userSpaceOnUse">
<stop stop-color="#FF8E3D"/>
<stop offset="1" stop-color="#FF6F3D"/>
</linearGradient>
<linearGradient id="paint2_linear" x1="89.0132" y1="88.9084" x2="89.1257" y2="90.5442" gradientUnits="userSpaceOnUse">
<stop stop-color="#FF8E3D"/>
<stop offset="1" stop-color="#FF6F3D"/>
</linearGradient>
<linearGradient id="paint3_linear" x1="89.0132" y1="91.3717" x2="89.1559" y2="93.0028" gradientUnits="userSpaceOnUse">
<stop stop-color="#FF8E3D"/>
<stop offset="1" stop-color="#FF6F3D"/>
</linearGradient>
<linearGradient id="paint4_linear" x1="100.921" y1="53.5396" x2="100.921" y2="57.0031" gradientUnits="userSpaceOnUse">
<stop stop-color="#FF8E3D"/>
<stop offset="1" stop-color="#FF6F3D"/>
</linearGradient>
</defs>
</svg>
