<svg width="135" height="135" viewBox="0 0 135 135" fill="none" xmlns="http://www.w3.org/2000/svg">
<path fill-rule="evenodd" clip-rule="evenodd" d="M86.096 77.8707H97.1821V31.3806V24.4071C97.1821 21.5462 94.8576 19.2217 91.9967 19.2217H13.1423H6.16883C3.3079 19.2217 0.983398 21.5462 0.983398 24.4071V77.8707H86.096Z" fill="#FEFEFE"/>
<path fill-rule="evenodd" clip-rule="evenodd" d="M32.633 57.6655L33.7059 56.8608L42.8251 49.8873C40.8582 45.8642 40.3218 47.5628 38.8913 43.3608H9.20917C8.31513 43.3608 7.5105 43.8973 7.06348 44.6125L23.9608 57.5761L24.0502 57.6655L26.2853 59.3642C27.3582 60.1688 29.2357 60.1688 30.3979 59.2747L32.633 57.6655Z" fill="url(#paint0_linear)"/>
<path d="M61.778 93.4272H36.2979V100.043H61.778V93.4272Z" fill="#EFEFEF"/>
<path fill-rule="evenodd" clip-rule="evenodd" d="M97.0927 77.8711H0.983398V88.242C0.983398 91.1029 3.3079 93.4274 6.16883 93.4274H36.3874H61.8675H92.0861C94.947 93.4274 97.2715 91.1029 97.2715 88.242V77.8711H97.0927ZM49.0827 82.8777C50.6026 82.8777 51.8543 84.1294 51.8543 85.6492C51.8543 87.1691 50.6026 88.4208 49.0827 88.4208C47.5629 88.4208 46.3112 87.1691 46.3112 85.6492C46.3112 84.1294 47.5629 82.8777 49.0827 82.8777Z" fill="#CCE9FF"/>
<path fill-rule="evenodd" clip-rule="evenodd" d="M61.778 100.043H36.2979H29.682C27.8939 100.043 26.374 101.563 26.374 103.351C26.374 105.139 27.8939 106.659 29.682 106.659H67.2316C69.0197 106.659 70.5396 105.139 70.5396 103.351C70.5396 101.563 69.0197 100.043 67.2316 100.043H61.778Z" fill="#EFEFEF"/>
<path fill-rule="evenodd" clip-rule="evenodd" d="M49.083 82.8774C50.6029 82.8774 51.8546 84.1291 51.8546 85.649C51.8546 87.1688 50.6029 88.4205 49.083 88.4205C47.5632 88.4205 46.3115 87.1688 46.3115 85.649C46.3115 84.1291 47.5632 82.8774 49.083 82.8774Z" fill="#333333"/>
<path d="M36.8346 93.0698H35.7617V100.312H36.8346V93.0698Z" fill="#333333"/>
<path d="M62.315 93.1592H61.2422V100.312H62.315V93.1592Z" fill="#333333"/>
<path fill-rule="evenodd" clip-rule="evenodd" d="M29.6823 99.5068H67.2319C68.3048 99.5068 69.2882 99.9539 69.914 100.669C70.6293 101.384 71.0763 102.368 71.0763 103.351C71.0763 104.424 70.6293 105.407 69.914 106.033C69.1988 106.749 68.2154 107.196 67.2319 107.196H29.6823C28.6094 107.196 27.626 106.749 27.0001 106.033C26.2849 105.318 25.8379 104.335 25.8379 103.351C25.8379 102.278 26.2849 101.295 27.0001 100.669C27.7154 99.8644 28.6094 99.5068 29.6823 99.5068ZM67.3213 100.58H29.7717C28.967 100.58 28.3412 100.848 27.8048 101.384C27.2684 101.921 27.0001 102.547 27.0001 103.351C27.0001 104.156 27.2684 104.782 27.8048 105.318C28.3412 105.855 28.967 106.123 29.7717 106.123H67.3213C68.126 106.123 68.7518 105.855 69.2882 105.318C69.8246 104.782 70.0929 104.156 70.0929 103.351C70.0929 102.547 69.8246 101.921 69.2882 101.384C68.7518 100.848 68.0366 100.58 67.3213 100.58Z" fill="#333333"/>
<path fill-rule="evenodd" clip-rule="evenodd" d="M7.42031 72.5068L24.0494 57.6658L23.96 57.5764L7.06269 44.6128C6.79448 44.9704 6.70508 45.5068 6.70508 45.9539V70.6293C6.70508 71.3446 6.97329 71.9704 7.42031 72.5068Z" fill="#FEFEFE"/>
<path fill-rule="evenodd" clip-rule="evenodd" d="M32.8112 57.8442L49.5297 72.7747L49.6191 72.8641C50.3344 72.4171 50.7814 71.523 50.7814 70.629V57.2184C44.3443 55.6091 48.4569 51.7647 44.0761 48.9038L33.6158 56.8608L32.543 57.6654L32.8112 57.8442Z" fill="#FEFEFE"/>
<path fill-rule="evenodd" clip-rule="evenodd" d="M49.6196 72.7748L32.8116 57.8443L32.6328 57.6655L30.4871 59.3642C29.3249 60.2582 27.4474 60.2582 26.3745 59.4536L24.1394 57.7549L7.4209 72.5066C7.86792 72.9536 8.49375 73.3112 9.20898 73.3112H48.3679C48.8149 73.3112 49.3514 73.1324 49.709 72.8642L49.6196 72.7748Z" fill="#EFEFEF"/>
<path fill-rule="evenodd" clip-rule="evenodd" d="M32.9012 57.1294L33.1694 57.3976L50.1562 72.5963L49.441 73.4009C43.6297 68.3049 37.8184 63.1195 32.0966 57.934L32.9012 57.1294ZM7.06348 72.0599L23.8714 57.1294L24.5867 57.934L7.77871 72.8645L7.06348 72.0599Z" fill="#333333"/>
<path fill-rule="evenodd" clip-rule="evenodd" d="M37.5499 54.5364L30.7552 59.7218C30.04 60.2582 29.2353 60.5265 28.3413 60.5265C27.4472 60.5265 26.6426 60.3476 25.9274 59.8112L6.79492 45.0596L7.42075 44.1655L26.6426 59.0066C27.0896 59.3642 27.7155 59.543 28.3413 59.543C28.9671 59.543 29.5929 59.3642 30.1294 58.9172L36.8347 53.7317C37.5499 53.1953 38.1757 54.0894 37.5499 54.5364Z" fill="#333333"/>
<path fill-rule="evenodd" clip-rule="evenodd" d="M1.52011 77.3345H69.7353C70.7188 77.3345 70.7188 78.4074 69.7353 78.4074H1.52011V88.1524C1.52011 89.404 2.05654 90.5663 2.86117 91.3709C3.66581 92.1756 4.82806 92.712 6.07972 92.712H69.7353C70.7188 92.712 70.7188 93.7848 69.7353 93.7848H6.16912C4.64925 93.7848 3.21879 93.159 2.14594 92.0862C1.07309 91.0133 0.447266 89.6723 0.447266 88.063V24.4968C0.447266 22.9769 1.07309 21.5464 2.14594 20.4736C3.12938 19.4007 4.55985 18.7749 6.16912 18.7749H91.9969C93.5168 18.7749 94.9473 19.4007 96.0201 20.4736C97.093 21.5464 97.7188 22.8875 97.7188 24.4968V34.7782C97.7188 35.8511 96.6459 35.8511 96.6459 34.7782V24.4968C96.6459 23.2451 96.1095 22.0828 95.3049 21.2782C94.5002 20.4736 93.338 19.9372 92.0863 19.9372H6.25852C5.00687 19.9372 3.84462 20.4736 3.03998 21.2782C2.23535 22.0828 1.69892 23.2451 1.69892 24.4968V77.3345H1.52011Z" fill="#333333"/>
<path fill-rule="evenodd" clip-rule="evenodd" d="M9.20868 42.8247H30.3974C31.5597 42.8247 31.5597 43.8976 30.3974 43.8976H9.20868C8.67226 43.8976 8.22524 44.1658 7.86762 44.5234C7.51001 44.881 7.3312 45.4174 7.3312 46.0432V70.6293C7.3312 71.2552 7.51001 71.7916 7.86762 72.1492C8.22524 72.5068 8.67226 72.775 9.20868 72.775H48.3676C48.904 72.775 49.3511 72.5068 49.7087 72.1492C50.0663 71.7916 50.2451 71.2552 50.2451 70.6293V65.7121C50.2451 64.7287 51.318 64.7287 51.318 65.7121V70.6293C51.318 71.5234 50.9603 72.328 50.4239 72.8644C49.8875 73.4903 49.0829 73.8479 48.2782 73.8479H9.20868C8.40404 73.8479 7.59941 73.4903 7.06299 72.8644C6.52656 72.328 6.16895 71.5234 6.16895 70.6293V46.0432C6.16895 45.1492 6.52656 44.3446 7.06299 43.8081C7.59941 43.1823 8.40404 42.8247 9.20868 42.8247Z" fill="#333333"/>
<path fill-rule="evenodd" clip-rule="evenodd" d="M63.6563 46.6691C63.4774 45.5962 63.0304 44.3446 62.4046 43.0929C61.6894 41.573 60.6165 39.9638 59.2755 38.4439C58.0238 36.924 56.6827 35.6724 55.3417 34.6889C54.2688 33.8843 53.196 33.2585 52.2125 32.9008C50.8715 32.3644 50.2457 34.0631 51.8549 34.7783C52.6596 35.1359 53.4642 35.583 54.2688 36.2088C55.5205 37.1028 56.7722 38.2651 57.9344 39.6061C59.0967 41.0366 60.0801 42.4671 60.7953 43.8081C61.3318 44.881 61.6894 45.8644 61.8682 46.6691C62.047 48.1889 63.9245 48.0101 63.6563 46.6691Z" fill="url(#paint1_linear)"/>
<path fill-rule="evenodd" clip-rule="evenodd" d="M72.8649 47.384C72.5967 45.5066 71.8815 43.3609 70.7192 41.0364C69.4676 38.5331 67.7689 35.9403 65.6232 33.437C63.5669 30.9337 61.3318 28.8774 59.0967 27.2682C57.1298 25.8377 55.1629 24.7648 53.3749 24.139C52.0338 23.692 51.4974 25.4801 52.9278 25.9271C54.5371 26.4635 56.2358 27.447 58.0239 28.788C60.0802 30.3079 62.2259 32.2748 64.1927 34.6887C66.249 37.1026 67.8583 39.6059 69.0206 41.9304C70.004 43.9867 70.7192 45.9536 70.9874 47.6523C71.1663 48.8145 73.0437 48.6357 72.8649 47.384Z" fill="url(#paint2_linear)"/>
<path fill-rule="evenodd" clip-rule="evenodd" d="M44.2551 45.9538C42.1094 43.0928 40.5896 40.3213 40.7684 39.0697C40.8578 38.5332 45.9538 36.2981 46.8479 35.2253C47.5631 33.7948 43.0929 25.3908 42.1094 24.2286C40.0532 23.0663 32.722 29.2352 32.5432 31.9173C32.275 37.371 34.5101 43.5399 38.0863 49.1723C39.6955 51.6756 41.3048 53.7319 43.2717 55.8776C47.8313 60.7948 53.2849 64.4604 58.7386 65.6226C61.4207 66.1591 69.1989 60.5266 68.573 58.2915C67.679 57.0398 60.6161 50.6028 59.0962 50.9604C57.8445 51.5862 54.4472 55.967 53.9108 55.8776C52.5697 55.6988 50.2452 53.3743 47.9207 50.6028C46.669 49.0829 45.328 47.4736 44.2551 45.9538Z" fill="#CCE9FF"/>
<path fill-rule="evenodd" clip-rule="evenodd" d="M43.8081 46.3111C42.6459 44.7913 41.6624 43.2714 41.0366 41.9304C40.4108 40.7681 40.0531 39.6953 40.1425 38.98C40.232 38.4436 41.573 37.639 43.0929 36.8343C44.4339 36.1191 45.775 35.3145 46.3114 34.8674C46.4008 34.4204 45.9538 32.9006 45.2386 31.2913C44.0763 28.6092 42.3776 25.48 41.7518 24.586C41.6624 24.586 41.6624 24.586 41.573 24.586C40.5896 24.4966 38.9803 25.3906 37.371 26.6423C35.7617 27.8939 34.1525 29.5032 33.4372 30.8443C33.2584 31.2913 33.0796 31.6489 33.0796 31.9171C32.9008 34.5098 33.3478 37.1919 34.2419 39.9635C35.2253 42.9138 36.6558 45.9535 38.5333 48.8145C39.3379 50.0661 40.1425 51.139 40.9472 52.2118C41.7518 53.2847 42.6459 54.3575 43.7187 55.341C46.0432 57.8443 48.6359 60.0794 51.318 61.6886C53.8214 63.2085 56.3247 64.3708 58.9174 64.8178C59.1856 64.9072 59.6326 64.8178 60.0796 64.7284C61.5101 64.3708 63.477 63.2085 65.0863 61.9568C66.6955 60.7052 67.9472 59.3641 68.126 58.4701C68.126 58.3807 68.126 58.2913 68.126 58.2913C67.5002 57.4866 64.9074 55.0727 62.5829 53.2847C61.1525 52.1224 59.8114 51.3178 59.3644 51.3178C58.828 51.6754 57.7551 52.8376 56.6823 53.9105C55.52 55.1621 54.4472 56.3244 53.9108 56.235C53.1955 56.1456 52.2121 55.5198 51.2286 54.6257C50.1558 53.6423 48.8147 52.3012 47.5631 50.6919C46.9372 49.9767 46.3114 49.1721 45.6856 48.3674C44.9704 47.831 44.4339 47.0264 43.8081 46.3111ZM42.02 41.3939C42.6459 42.6456 43.6293 44.076 44.7021 45.5959C45.2386 46.3111 45.775 47.1158 46.4008 47.9204C47.0267 48.7251 47.6525 49.4403 48.1889 50.1555C49.4406 51.6754 50.6028 53.0164 51.6757 53.9105C52.5697 54.7151 53.2849 55.1621 53.8214 55.2515C53.8214 55.2515 54.7154 54.2681 55.6988 53.2847C56.8611 52.1224 58.0233 50.7813 58.7386 50.4237H58.828H58.9174C59.722 50.2449 61.3313 51.2284 63.1194 52.5694C65.6227 54.4469 68.3942 57.129 69.02 57.9337L69.1094 58.0231V58.1125C69.1988 58.3807 69.1988 58.6489 69.1094 58.9171C68.8412 60.0794 67.4108 61.6886 65.7121 63.1191C64.0134 64.4602 61.8677 65.6224 60.3478 66.0694C59.722 66.2482 59.1856 66.2482 58.7386 66.1588C56.0564 65.6224 53.3743 64.4602 50.7816 62.8509C48.0101 61.1522 45.4174 58.8277 43.0035 56.3244C42.02 55.2515 41.0366 54.1787 40.2319 53.1059C39.3379 52.033 38.5333 50.8708 37.7286 49.6191C35.8512 46.6688 34.3313 43.5396 33.3478 40.4999C32.4538 37.639 32.0068 34.778 32.0962 32.0065C32.0962 31.5595 32.275 31.0231 32.6326 30.3972C33.4372 28.9668 35.0465 27.2681 36.8346 25.927C38.6227 24.586 40.5002 23.6025 41.7518 23.6025C42.02 23.6025 42.2882 23.6919 42.467 23.7813L42.5565 23.8708L42.6459 23.9602C43.2717 24.6754 45.1492 28.0727 46.4008 31.0231C47.2949 33.0794 47.8313 34.8674 47.4737 35.5827V35.6721L47.3843 35.7615C46.8478 36.2979 45.328 37.1919 43.8081 37.9966C42.5565 38.7118 41.3942 39.2482 41.3942 39.3376C41.2154 39.6059 41.4836 40.4105 42.02 41.3939Z" fill="#333333"/>
<path fill-rule="evenodd" clip-rule="evenodd" d="M80.4642 39.5166H111.577C114.885 39.5166 117.656 42.1987 117.656 45.5961V109.699C117.656 113.007 114.974 115.778 111.577 115.778H80.4642C77.1563 115.778 74.3848 113.096 74.3848 109.699V45.5067C74.3848 42.1987 77.0669 39.5166 80.4642 39.5166Z" fill="#EBECEC"/>
<path fill-rule="evenodd" clip-rule="evenodd" d="M96.0203 105.765C97.719 105.765 99.06 107.106 99.06 108.805C99.06 110.504 97.719 111.845 96.0203 111.845C94.3216 111.845 92.9805 110.504 92.9805 108.805C92.8911 107.196 94.3216 105.765 96.0203 105.765Z" fill="#333333"/>
<path fill-rule="evenodd" clip-rule="evenodd" d="M117.567 101.295H74.3848V109.609C74.3848 112.917 77.0669 115.689 80.4642 115.689H111.577C114.885 115.689 117.656 113.007 117.656 109.609V101.295H117.567ZM96.0205 105.765C97.7192 105.765 99.0603 107.106 99.0603 108.805C99.0603 110.504 97.7192 111.845 96.0205 111.845C94.3219 111.845 92.9808 110.504 92.9808 108.805C92.8914 107.196 94.3219 105.765 96.0205 105.765Z" fill="#CCE9FF"/>
<path d="M117.567 100.758H74.3848V101.831H117.567V100.758Z" fill="#333333"/>
<path fill-rule="evenodd" clip-rule="evenodd" d="M118.103 85.1125V109.609C118.103 111.397 117.387 113.096 116.136 114.258C114.973 115.42 113.275 116.225 111.487 116.225H80.4636C78.6755 116.225 76.9768 115.51 75.8145 114.258C74.6523 113.096 73.8477 111.397 73.8477 109.609V45.5065C73.8477 43.7184 74.5629 42.0198 75.8145 40.8575C76.9768 39.6953 78.6755 38.8906 80.4636 38.8906H111.576C113.364 38.8906 115.063 39.6059 116.225 40.8575C117.387 42.0198 118.192 43.7184 118.192 45.5065V72.4171H117.119V45.5065C117.119 43.9867 116.493 42.6456 115.51 41.6621C114.526 40.6787 113.096 40.0529 111.666 40.0529H80.4636C78.9437 40.0529 77.6026 40.6787 76.6192 41.6621C75.6357 42.6456 75.0099 44.0761 75.0099 45.5065V109.609C75.0099 111.129 75.6357 112.47 76.6192 113.454C77.6026 114.437 79.0331 115.063 80.4636 115.063H111.576C113.096 115.063 114.437 114.437 115.421 113.454C116.404 112.47 117.03 111.129 117.03 109.609V85.1125H118.103Z" fill="#333333"/>
<path fill-rule="evenodd" clip-rule="evenodd" d="M78.1396 44.2549H113.812V76.6191V90.4767V98.0761H78.1396V44.2549Z" fill="#FEFEFE"/>
<path fill-rule="evenodd" clip-rule="evenodd" d="M114.348 90.477V98.6128H77.6025V43.7188H114.348V76.6194H113.275V44.7916H78.6754V97.5399H113.275V90.477H114.348Z" fill="#333333"/>
<path fill-rule="evenodd" clip-rule="evenodd" d="M106.749 51.0498C106.749 50.7816 106.659 50.6028 106.57 50.424C106.48 50.2452 106.302 50.1558 106.033 50.1558H85.5599C85.3811 50.1558 85.2023 50.2452 85.0235 50.424C84.9341 50.6028 84.9341 50.7816 84.9341 51.0498C84.9341 51.318 85.0235 51.4968 85.1129 51.6756C85.2023 51.8544 85.3811 51.9438 85.6493 51.9438H106.123C106.302 51.9438 106.48 51.8544 106.659 51.6756C106.659 51.4968 106.749 51.318 106.749 51.0498ZM109.61 56.414C109.61 56.1458 109.52 55.967 109.431 55.7882C109.341 55.6094 109.163 55.52 108.894 55.52H82.9672C82.7884 55.52 82.6096 55.6094 82.4308 55.7882C82.3414 55.967 82.252 56.1458 82.252 56.414C82.252 56.6823 82.3414 56.8611 82.4308 57.0399C82.5202 57.2187 82.699 57.3081 82.9672 57.3081H108.894C109.073 57.3081 109.252 57.2187 109.431 57.0399C109.52 56.8611 109.61 56.6823 109.61 56.414Z" fill="url(#paint3_linear)"/>
<path fill-rule="evenodd" clip-rule="evenodd" d="M95.5731 93.3378C95.5731 93.159 95.4837 92.9802 95.3943 92.8908C95.3049 92.712 95.1261 92.6226 94.8579 92.6226H82.9672C82.7884 92.6226 82.6096 92.712 82.4308 92.8908C82.3414 92.9802 82.252 93.159 82.252 93.3378C82.252 93.5166 82.3414 93.6954 82.4308 93.7848C82.5202 93.9636 82.699 94.053 82.9672 94.053H94.8579C95.0367 94.053 95.2155 93.9636 95.3943 93.7848C95.4837 93.6954 95.5731 93.5166 95.5731 93.3378Z" fill="url(#paint4_linear)"/>
<path fill-rule="evenodd" clip-rule="evenodd" d="M90.0301 90.119C90.0301 89.9402 89.9407 89.7614 89.8513 89.672C89.7619 89.4932 89.5831 89.4038 89.3149 89.4038H82.9672C82.7884 89.4038 82.6096 89.4932 82.4308 89.672C82.3414 89.7614 82.252 89.9402 82.252 90.119C82.252 90.2978 82.3414 90.4767 82.4308 90.5661C82.5202 90.7449 82.699 90.8343 82.9672 90.8343H89.3149C89.4937 90.8343 89.6725 90.7449 89.8513 90.5661C89.9407 90.4767 90.0301 90.2978 90.0301 90.119Z" fill="url(#paint5_linear)"/>
<path d="M109.61 65.7119H82.3418V66.7848H109.61V65.7119Z" fill="#333333"/>
<path d="M109.61 68.9307H82.3418V70.0035H109.61V68.9307Z" fill="#333333"/>
<path d="M109.61 72.0596H82.3418V73.1324H109.61V72.0596Z" fill="#333333"/>
<path d="M109.61 75.2783H82.3418V76.3512H109.61V75.2783Z" fill="#333333"/>
<path d="M109.61 78.4072H82.3418V79.4801H109.61V78.4072Z" fill="#333333"/>
<path fill-rule="evenodd" clip-rule="evenodd" d="M112.113 88.2415L110.593 87.2581C110.415 87.1687 110.325 86.9005 110.325 86.7217L109.521 91.0131L112.739 88.2415C112.56 88.3309 112.292 88.3309 112.113 88.2415Z" fill="#FEFEFE"/>
<path fill-rule="evenodd" clip-rule="evenodd" d="M129.814 56.5032L132.318 58.1124L133.927 55.5197C134.106 55.2515 134.016 54.8939 133.748 54.8045L132.228 53.8211C131.96 53.6422 131.603 53.7317 131.513 53.9999L129.814 56.5032Z" fill="#FEFEFE"/>
<path fill-rule="evenodd" clip-rule="evenodd" d="M132.318 58.1127L129.815 56.5034L129.278 57.3975L131.692 59.0067L132.318 58.1127Z" fill="#FEFEFE"/>
<path fill-rule="evenodd" clip-rule="evenodd" d="M112.828 88.063C112.649 88.3312 112.292 88.4206 112.113 88.2418L110.593 87.2583C110.325 87.0795 110.236 86.7219 110.414 86.5431L114.527 80.1954L115.063 79.3908L129.279 57.4868L131.692 59.0961L112.828 88.063Z" fill="#CCE9FF"/>
<path fill-rule="evenodd" clip-rule="evenodd" d="M113.275 88.331C113.096 88.5992 112.828 88.778 112.56 88.778C112.291 88.8674 112.023 88.778 111.755 88.5992L110.235 87.6158C109.967 87.4369 109.788 87.1687 109.788 86.9005C109.699 86.6323 109.788 86.3641 109.967 86.0959L131.066 53.6422C131.245 53.4634 131.424 53.2846 131.692 53.1952C131.96 53.1058 132.228 53.1952 132.497 53.374C132.765 53.5528 133.838 54.2681 134.016 54.3575C134.285 54.5363 134.463 54.8045 134.463 55.0727C134.553 55.3409 134.463 55.6091 134.285 55.8773L113.275 88.331ZM112.381 87.7946L133.48 55.2515L131.96 54.2681L110.861 86.8111L112.381 87.7946Z" fill="#333333"/>
<path fill-rule="evenodd" clip-rule="evenodd" d="M110.861 86.8112L110.146 89.4933L112.381 87.7946L113.096 88.5993L108.357 92.2648L109.788 86.543L110.861 86.8112Z" fill="#333333"/>
<path d="M130.163 56.0586L129.571 56.9536L132.032 58.5807L132.624 57.6858L130.163 56.0586Z" fill="#333333"/>
<path d="M129.574 56.8744L128.981 57.769L131.442 59.3976L132.034 58.503L129.574 56.8744Z" fill="#333333"/>
<path fill-rule="evenodd" clip-rule="evenodd" d="M100.043 90.1194L100.132 89.8512C100.49 89.136 100.937 88.0631 100.848 87.3479C100.848 86.9903 100.579 86.7221 99.7748 86.7221C99.4172 86.7221 99.0596 86.9009 98.7913 87.0797C98.5231 87.2585 98.3443 87.4373 98.1655 87.7055C98.0761 87.9737 97.9867 88.2419 97.9867 88.5996C97.9867 88.9572 98.1655 89.3148 98.3443 89.6724C98.4337 89.7618 98.6125 90.03 98.8808 90.2982C99.4172 90.9241 100.132 91.8181 100.579 92.6227C100.937 92.3545 101.205 92.0863 101.384 91.9075C101.652 91.6393 101.831 91.4605 102.099 91.6393C102.457 91.8181 102.457 92.3545 102.457 92.9803C102.457 93.338 102.368 93.6956 102.457 93.6956C102.457 93.6956 102.546 93.4274 102.904 92.5333C102.904 92.4439 102.904 92.2651 102.904 92.1757C102.993 91.9969 103.083 91.8181 103.172 91.6393C103.619 91.0135 103.977 91.0135 103.977 91.7287C104.245 91.2817 104.603 90.7452 104.692 90.477C105.05 87.7949 105.675 85.1128 106.48 84.6658C106.927 84.487 107.195 84.5764 107.374 84.8446C107.821 85.6492 106.033 89.583 105.675 90.3876L105.497 90.6558C105.407 91.1923 105.318 91.7287 105.318 92.2651C105.407 92.1757 105.497 92.0863 105.675 92.0863C105.944 91.9075 106.212 91.8181 106.48 91.7287C107.106 91.4605 107.732 91.1923 108.179 90.6558C108.089 91.3711 107.911 91.9075 106.838 92.4439C106.569 92.5333 106.301 92.7121 106.122 92.8015C105.765 92.9803 105.497 93.338 105.318 93.6956V93.785L105.228 94.4108C105.05 95.6625 105.05 96.5565 104.603 96.5565C104.334 96.5565 104.156 96.1095 104.156 95.126C104.156 94.679 104.245 94.1426 104.513 93.6062L104.692 92.3545C104.334 92.8015 103.977 93.1592 103.619 93.0697C102.993 94.1426 102.546 94.4108 102.278 94.3214C101.92 94.1426 101.831 93.5168 101.831 92.8909C101.831 92.8015 101.831 92.7121 101.831 92.6227C101.652 92.8015 101.384 93.0698 101.026 93.2486C101.295 93.9638 101.205 94.5896 100.758 95.0366C100.132 95.6625 99.2384 95.6625 98.6125 95.4837C98.2549 95.3943 97.9867 95.126 97.8079 94.8578C97.6291 94.5896 97.5397 94.232 97.7185 93.8744C97.8973 93.5168 98.5231 93.1592 99.5066 92.9803C99.6854 92.9803 99.7748 92.8909 99.9536 92.8909C99.5066 92.1757 98.8808 91.2817 98.3443 90.7452C98.0761 90.3876 97.8973 90.1194 97.8079 90.03C97.5397 89.4936 97.3609 89.0466 97.2715 88.5996C97.2715 88.1525 97.3609 87.7055 97.5397 87.2585C97.7185 86.9009 98.0761 86.5433 98.4337 86.3645C98.7913 86.0962 99.2384 86.0068 99.7748 85.9174C101.116 85.828 101.652 86.3645 101.742 87.2585C101.742 88.3313 101.205 89.9406 100.043 90.1194ZM100.132 94.5896C100.311 94.4108 100.311 94.0532 100.222 93.6956C100.043 93.785 99.7748 93.785 99.596 93.8744C98.7914 93.9638 98.4337 94.232 98.3443 94.4108C98.3443 94.5002 98.3443 94.5002 98.3443 94.5896C98.4337 94.679 98.6125 94.7684 98.7913 94.8578C99.2384 94.9472 99.7748 94.9472 100.132 94.5896ZM106.212 87.5267C106.48 86.7221 106.748 86.0068 106.838 85.5598C106.569 85.9174 106.391 86.6327 106.212 87.5267Z" fill="#333333"/>
<defs>
<linearGradient id="paint0_linear" x1="11.0227" y1="30.8196" x2="27.6264" y2="49.1081" gradientUnits="userSpaceOnUse">
<stop stop-color="#FFC671"/>
<stop offset="1" stop-color="#FF6F3D"/>
</linearGradient>
<linearGradient id="paint1_linear" x1="48.0523" y1="29.0484" x2="59.301" y2="41.4386" gradientUnits="userSpaceOnUse">
<stop stop-color="#FFC671"/>
<stop offset="1" stop-color="#FF6F3D"/>
</linearGradient>
<linearGradient id="paint2_linear" x1="47.4058" y1="17.5353" x2="65.9611" y2="37.9735" gradientUnits="userSpaceOnUse">
<stop stop-color="#FFC671"/>
<stop offset="1" stop-color="#FF6F3D"/>
</linearGradient>
<linearGradient id="paint3_linear" x1="84.7707" y1="42.9863" x2="97.4165" y2="56.9151" gradientUnits="userSpaceOnUse">
<stop stop-color="#FFC671"/>
<stop offset="1" stop-color="#FF6F3D"/>
</linearGradient>
<linearGradient id="paint4_linear" x1="84.1266" y1="88.0062" x2="89.6704" y2="94.1126" gradientUnits="userSpaceOnUse">
<stop stop-color="#FFC671"/>
<stop offset="1" stop-color="#FF6F3D"/>
</linearGradient>
<linearGradient id="paint5_linear" x1="83.2782" y1="86.9186" x2="86.6242" y2="90.6041" gradientUnits="userSpaceOnUse">
<stop stop-color="#FFC671"/>
<stop offset="1" stop-color="#FF6F3D"/>
</linearGradient>
</defs>
</svg>
