<svg width="135" height="135" viewBox="0 0 135 135" fill="none" xmlns="http://www.w3.org/2000/svg">
<path fill-rule="evenodd" clip-rule="evenodd" d="M44.6 50H89.4C90.4 50 91.31 50.4302 91.96 51.1243C92.6 51.7989 93 52.7277 93 53.7444V81.2556C93 82.2724 92.6 83.2011 91.96 83.8757C91.31 84.5698 90.4 85 89.4 85H44.6C43.6 85 42.69 84.5698 42.04 83.8757C41.4 83.2011 41 82.2724 41 81.2556V53.7444C41 52.7277 41.4 51.7989 42.04 51.1243C42.69 50.4302 43.6 50 44.6 50Z" fill="white"/>
<path fill-rule="evenodd" clip-rule="evenodd" d="M72.5 67.1597L91 83.4897C91 83.4897 90.2788 84 89.2711 84H43.9657C42.9221 84 42.5115 83.9225 42 82.9794L61 66.1391L64 63.5876C65.2891 62.548 67.1291 62.994 68.5 64.0979L72.5 67.1597Z" fill="#E2E2E2"/>
<path fill-rule="evenodd" clip-rule="evenodd" d="M71.7462 66L72.2561 66.4479L91.8313 83.1561C92.0381 83.3326 92.0575 83.6375 91.8745 83.8371C91.6916 84.0368 91.3756 84.0554 91.1688 83.8789L71.6962 67.2583L69.5575 68.8575C68.0559 69.9842 65.6937 70.042 64.2366 68.9669L64.2342 68.9651L61.9749 66.2772L42.8342 82.8764C42.6288 83.0545 42.3127 83.0382 42.1281 82.84C41.9435 82.6418 41.9604 82.3367 42.1658 82.1586L61.9272 65.0212L64.8439 68.2002L64.8452 68.2012C65.9177 68.9914 67.7769 68.9711 68.9437 68.0957L71.7462 66Z" fill="#333333"/>
<path fill-rule="evenodd" clip-rule="evenodd" d="M71.9152 68.1583L73.1225 67.2132L91.4096 52.8948L91.9138 52.5C91.9138 52.5 92.1077 52.2847 91.9138 52C91.6188 51.5668 90.7788 51 89.7711 51H44.4657C43.4221 51 42.5115 51.6195 42 52.5436L61.7866 68.1058L61.8787 68.1793L64.5387 70.2689C65.8278 71.2875 68.007 71.235 69.378 70.1534L71.9152 68.1583Z" fill="url(#paint0_linear_125_1252)"/>
<path d="M92 52L72 68.1405L69.151 70.2583C67.7914 71.377 65.2784 71.1531 64 70.0996L61.7139 68.2165L61.6226 68.1405L42 52.0449" stroke="#333333" stroke-linecap="round"/>
<path d="M91.595 51.4661L91.5973 51.4684C92.1521 52.0532 92.5 52.8599 92.5 53.7444V81.2556C92.5 82.1401 92.1521 82.9468 91.5973 83.5316L91.595 83.5339C91.0335 84.1336 90.2531 84.5 89.4 84.5H44.6C43.7469 84.5 42.9665 84.1336 42.405 83.5339L42.4027 83.5316C41.8479 82.9468 41.5 82.1401 41.5 81.2556V53.7444C41.5 52.8599 41.8479 52.0532 42.4027 51.4684L42.4027 51.4684L42.405 51.4661C42.9665 50.8664 43.7469 50.5 44.6 50.5H89.4C90.2531 50.5 91.0335 50.8664 91.595 51.4661Z" stroke="#333333"/>
<path d="M83.0179 23C95.6893 27.5777 105.895 37.4232 111 49.8879M50.9821 23C38.3107 27.5777 28.105 37.4232 23 49.8879M25.4131 91.1432C30.9852 101.208 40.0692 109.058 50.9821 113M108.584 91.1432C103.011 101.206 93.9264 109.055 83.0179 112.998" stroke="#333333" stroke-linecap="round" stroke-linejoin="round"/>
<path d="M71.1118 29.7902L71.1137 29.7878L71.3 29.5487C71.3684 29.4618 71.4392 29.3527 71.4737 29.1916C71.4997 29.0702 71.5 28.9346 71.5 28.8133V28.0001V23V22.1649L70.7639 22.5593C69.7218 23.1176 68.773 23.125 67.5 23.125C66.2516 23.125 65.1624 23.0229 64.2239 22.5529L63.5 22.1904V23V28.0305V28.8133C63.5 28.8222 63.5 28.8312 63.5 28.8403C63.4998 28.9463 63.4997 29.0684 63.518 29.1732C63.5466 29.3359 63.6134 29.4505 63.6906 29.5487L63.877 29.7878L63.877 29.7878L63.8789 29.7902C64.291 30.3126 64.7283 30.7984 65.1603 31.2784C65.1823 31.3028 65.2043 31.3273 65.2262 31.3517C65.6829 31.8593 66.1349 32.3652 66.5717 32.9275L66.5724 32.9284C66.6827 33.0696 66.809 33.219 66.9528 33.3258C67.0915 33.4287 67.2782 33.5144 67.5 33.4982C67.7218 33.5144 67.9085 33.4287 68.0472 33.3258C68.1909 33.2191 68.3172 33.0698 68.4273 32.9287C68.8652 32.3694 69.3158 31.8625 69.7703 31.3537C69.7861 31.3359 69.802 31.3182 69.8178 31.3005C70.2539 30.8123 70.6946 30.319 71.1118 29.7902Z" fill="white" stroke="#333333"/>
<circle cx="67.5" cy="14.5" r="9.5" fill="white" stroke="#333333"/>
<path fill-rule="evenodd" clip-rule="evenodd" d="M67.8772 9.39018C69.6923 12.5909 73.9708 16.2943 76.9529 15.8528C76.9882 15.534 77 15.2152 77 14.8841C77 9.42698 72.745 5 67.5 5C62.255 5 58 9.42698 58 14.8841C58 15.2642 58.0236 15.6321 58.0589 16C60.9231 15.9632 65.6141 13.9643 67.8772 9.39018Z" fill="#AAAAAA" stroke="#333333"/>
<path d="M67.786 32.7864L67.7652 32.8099L67.7474 32.8358C67.6875 32.9233 67.6372 32.9911 67.594 33.0431C67.5711 33.0707 67.5521 33.0915 67.5368 33.107L67.5169 33.1024L67.5012 33.1061C67.4845 33.0893 67.4637 33.0666 67.4385 33.0366C67.3942 32.9836 67.343 32.9158 67.2822 32.8297L67.2818 32.8291C66.7126 32.026 65.9712 31.2708 65.2715 30.5623C65.2549 30.5456 65.2383 30.5288 65.2218 30.5121C64.5723 29.8546 63.9643 29.2392 63.5 28.6246V27V26.3986L62.9087 26.5084C59.1115 27.2136 56.1267 28.8488 53.6779 30.911L53.3086 31.2221L53.6066 31.602C56.9096 35.8132 61.9134 38.5 67.5282 38.5C73.1085 38.5 78.0889 35.8376 81.3917 31.6753L81.692 31.2969L81.3241 30.9838C78.8876 28.9101 75.8919 27.2385 72.0943 26.509L71.5 26.3948V27V28.5994L67.786 32.7864Z" fill="#BDECFF" stroke="#333333"/>
<path d="M71.1118 124.79L71.1137 124.788L71.3 124.549C71.3684 124.462 71.4392 124.353 71.4737 124.192C71.4997 124.07 71.5 123.935 71.5 123.813V123V118V117.165L70.7639 117.559C69.7218 118.118 68.773 118.125 67.5 118.125C66.2516 118.125 65.1624 118.023 64.2239 117.553L63.5 117.19V118V123.03V123.813C63.5 123.822 63.5 123.831 63.5 123.84C63.4998 123.946 63.4997 124.068 63.518 124.173C63.5466 124.336 63.6134 124.451 63.6906 124.549L63.877 124.788L63.877 124.788L63.8789 124.79C64.291 125.313 64.7283 125.798 65.1603 126.278C65.1823 126.303 65.2043 126.327 65.2262 126.352C65.6829 126.859 66.1349 127.365 66.5717 127.927L66.5724 127.928C66.6827 128.07 66.809 128.219 66.9528 128.326C67.0915 128.429 67.2782 128.514 67.5 128.498C67.7218 128.514 67.9085 128.429 68.0472 128.326C68.1909 128.219 68.3172 128.07 68.4273 127.929C68.8652 127.369 69.3158 126.863 69.7703 126.354C69.7861 126.336 69.802 126.318 69.8178 126.3C70.2539 125.812 70.6946 125.319 71.1118 124.79Z" fill="white" stroke="#333333"/>
<circle cx="67.5" cy="109.5" r="9.5" fill="white" stroke="#333333"/>
<path fill-rule="evenodd" clip-rule="evenodd" d="M67.8772 104.39C69.6923 107.591 73.9708 111.294 76.9529 110.853C76.9882 110.534 77 110.215 77 109.884C77 104.427 72.745 100 67.5 100C62.255 100 58 104.427 58 109.884C58 110.264 58.0236 110.632 58.0589 111C60.9231 110.963 65.6141 108.964 67.8772 104.39Z" fill="#AAAAAA" stroke="#333333"/>
<path d="M67.786 127.786L67.7652 127.81L67.7474 127.836C67.6875 127.923 67.6372 127.991 67.594 128.043C67.5711 128.071 67.5521 128.091 67.5368 128.107L67.5169 128.102L67.5012 128.106C67.4845 128.089 67.4637 128.067 67.4385 128.037C67.3942 127.984 67.343 127.916 67.2822 127.83L67.2818 127.829C66.7126 127.026 65.9712 126.271 65.2715 125.562C65.2549 125.546 65.2383 125.529 65.2218 125.512C64.5723 124.855 63.9643 124.239 63.5 123.625V122V121.399L62.9087 121.508C59.1115 122.214 56.1267 123.849 53.6779 125.911L53.3086 126.222L53.6066 126.602C56.9096 130.813 61.9134 133.5 67.5282 133.5C73.1085 133.5 78.0889 130.838 81.3917 126.675L81.692 126.297L81.3241 125.984C78.8876 123.91 75.8919 122.239 72.0943 121.509L71.5 121.395V122V123.599L67.786 127.786Z" fill="#BDECFF" stroke="#333333"/>
<path d="M123.112 76.7902L123.114 76.7878L123.3 76.5487C123.368 76.4618 123.439 76.3527 123.474 76.1916C123.5 76.0702 123.5 75.9346 123.5 75.8133V75.0001V70V69.1649L122.764 69.5593C121.722 70.1176 120.773 70.125 119.5 70.125C118.252 70.125 117.162 70.0229 116.224 69.5529L115.5 69.1904V70V75.0305V75.8133C115.5 75.8222 115.5 75.8312 115.5 75.8403C115.5 75.9463 115.5 76.0684 115.518 76.1732C115.547 76.3359 115.613 76.4505 115.691 76.5487L115.877 76.7878L115.877 76.7878L115.879 76.7902C116.291 77.3126 116.728 77.7984 117.16 78.2784C117.182 78.3028 117.204 78.3273 117.226 78.3517C117.683 78.8593 118.135 79.3652 118.572 79.9275L118.572 79.9284C118.683 80.0696 118.809 80.219 118.953 80.3258C119.091 80.4287 119.278 80.5144 119.5 80.4982C119.722 80.5144 119.909 80.4287 120.047 80.3258C120.191 80.2191 120.317 80.0698 120.427 79.9287C120.865 79.3694 121.316 78.8625 121.77 78.3537C121.786 78.3359 121.802 78.3182 121.818 78.3005C122.254 77.8123 122.695 77.319 123.112 76.7902Z" fill="white" stroke="#333333"/>
<circle cx="119.5" cy="62.5" r="9.5" fill="white" stroke="#333333"/>
<path fill-rule="evenodd" clip-rule="evenodd" d="M119.877 57.3902C121.692 60.5909 125.971 64.2943 128.953 63.8528C128.988 63.534 129 63.2152 129 62.8841C129 57.427 124.745 53 119.5 53C114.255 53 110 57.427 110 62.8841C110 63.2642 110.024 63.6321 110.059 64C112.923 63.9632 117.614 61.9643 119.877 57.3902Z" fill="#AAAAAA" stroke="#333333"/>
<path d="M119.786 79.7864L119.765 79.8099L119.747 79.8358C119.688 79.9233 119.637 79.9911 119.594 80.0431C119.571 80.0707 119.552 80.0915 119.537 80.107L119.517 80.1024L119.501 80.1061C119.485 80.0893 119.464 80.0666 119.439 80.0366C119.394 79.9836 119.343 79.9158 119.282 79.8297L119.282 79.8291C118.713 79.026 117.971 78.2708 117.271 77.5623C117.255 77.5456 117.238 77.5288 117.222 77.5121C116.572 76.8546 115.964 76.2392 115.5 75.6246V74V73.3986L114.909 73.5084C111.112 74.2136 108.127 75.8488 105.678 77.911L105.309 78.2221L105.607 78.602C108.91 82.8132 113.913 85.5 119.528 85.5C125.109 85.5 130.089 82.8376 133.392 78.6753L133.692 78.2969L133.324 77.9838C130.888 75.9101 127.892 74.2385 124.094 73.509L123.5 73.3948V74V75.5994L119.786 79.7864Z" fill="url(#paint1_linear_125_1252)" stroke="#333333"/>
<path d="M19.1118 76.7902L19.1137 76.7878L19.3 76.5487C19.3684 76.4618 19.4392 76.3527 19.4737 76.1916C19.4997 76.0702 19.5 75.9346 19.5 75.8133V75.0001V70V69.1649L18.7639 69.5593C17.7218 70.1176 16.773 70.125 15.5 70.125C14.2516 70.125 13.1624 70.0229 12.2239 69.5529L11.5 69.1904V70V75.0305L11.5 75.8133C11.5 75.8222 11.5 75.8312 11.5 75.8403C11.4998 75.9463 11.4997 76.0684 11.518 76.1732C11.5466 76.3359 11.6134 76.4505 11.6906 76.5487L11.877 76.7878L11.877 76.7878L11.8789 76.7902C12.291 77.3126 12.7283 77.7984 13.1603 78.2784C13.1823 78.3028 13.2043 78.3273 13.2262 78.3517C13.6829 78.8593 14.1349 79.3652 14.5717 79.9275L14.5724 79.9284C14.6827 80.0696 14.809 80.219 14.9528 80.3258C15.0915 80.4287 15.2782 80.5144 15.5 80.4982C15.7218 80.5144 15.9085 80.4287 16.0472 80.3258C16.1909 80.2191 16.3172 80.0698 16.4273 79.9287C16.8652 79.3694 17.3158 78.8625 17.7703 78.3537C17.7861 78.3359 17.802 78.3182 17.8178 78.3005C18.2539 77.8123 18.6946 77.319 19.1118 76.7902Z" fill="white" stroke="#333333"/>
<circle cx="15.5" cy="62.5" r="9.5" fill="white" stroke="#333333"/>
<path fill-rule="evenodd" clip-rule="evenodd" d="M15.8772 57.3902C17.6923 60.5909 21.9708 64.2943 24.9529 63.8528C24.9882 63.534 25 63.2152 25 62.8841C25 57.427 20.745 53 15.5 53C10.255 53 6 57.427 6 62.8841C6 63.2642 6.02357 63.6321 6.05893 64C8.92307 63.9632 13.6141 61.9643 15.8772 57.3902Z" fill="#AAAAAA" stroke="#333333"/>
<path d="M15.786 79.7864L15.7652 79.8099L15.7474 79.8358C15.6875 79.9233 15.6372 79.9911 15.594 80.0431C15.5711 80.0707 15.5521 80.0915 15.5368 80.107L15.5169 80.1024L15.5012 80.1061C15.4845 80.0893 15.4637 80.0666 15.4385 80.0366C15.3942 79.9836 15.343 79.9158 15.2822 79.8297L15.2818 79.8291C14.7126 79.026 13.9712 78.2708 13.2715 77.5623C13.2549 77.5456 13.2383 77.5288 13.2218 77.5121C12.5723 76.8546 11.9643 76.2392 11.5 75.6246V74V73.3986L10.9087 73.5084C7.1115 74.2136 4.12667 75.8488 1.67793 77.911L1.30855 78.2221L1.60658 78.602C4.90959 82.8132 9.91338 85.5 15.5282 85.5C21.1085 85.5 26.0889 82.8376 29.3917 78.6753L29.692 78.2969L29.3241 77.9838C26.8876 75.9101 23.8919 74.2385 20.0943 73.509L19.5 73.3948V74V75.5994L15.786 79.7864Z" fill="url(#paint2_linear_125_1252)" stroke="#333333"/>
<defs>
<linearGradient id="paint0_linear_125_1252" x1="42.0001" y1="50.2187" x2="55.421" y2="85.0816" gradientUnits="userSpaceOnUse">
<stop stop-color="#FF8E3D"/>
<stop offset="1" stop-color="#FF6F3D"/>
</linearGradient>
<linearGradient id="paint1_linear_125_1252" x1="106" y1="73.5703" x2="113.482" y2="92.6528" gradientUnits="userSpaceOnUse">
<stop stop-color="#FF8E3D"/>
<stop offset="1" stop-color="#FF6F3D"/>
</linearGradient>
<linearGradient id="paint2_linear_125_1252" x1="2.00005" y1="73.5703" x2="9.48213" y2="92.6528" gradientUnits="userSpaceOnUse">
<stop stop-color="#FF8E3D"/>
<stop offset="1" stop-color="#FF6F3D"/>
</linearGradient>
</defs>
</svg>
