<svg width="135" height="135" viewBox="0 0 135 135" fill="none" xmlns="http://www.w3.org/2000/svg">
<g clip-path="url(#clip0_125_1315)">
<path fill-rule="evenodd" clip-rule="evenodd" d="M17.009 31.9195V24.9896V15.2519V9.11773C17.009 5.19225 20.2419 2 24.1972 2H112.812C116.767 2 120 5.19225 120 9.11773V120.882C120 124.808 116.767 128 112.812 128H23.8893C19.934 128 17 125.035 17 121.109V31.9195H17.009Z" fill="#BDECFF"/>
<path fill-rule="evenodd" clip-rule="evenodd" d="M36 2V128H112.967C116.837 128 120 124.808 120 120.882V9.11773C120 5.19225 116.837 2 112.967 2H36V2Z" fill="#FEFEFE"/>
<path d="M16.5 30.7731V44.2837M16.5 15.2127V9.0737C16.5 5.14512 20.228 1.5 24.187 1.5H112.813C116.772 1.5 120.5 5.22745 120.5 9.15603V37.078V65V92.922V118.5C120.5 124.023 116.023 128.5 110.5 128.5H24.187C20.228 128.5 16.5 125.223 16.5 120.844L16.54 113.898M16.5 71.305V59.1454M16.5 99.227V86.617" stroke="#333333" stroke-linecap="round"/>
<path fill-rule="evenodd" clip-rule="evenodd" d="M109 39L120 31.5V21H114.504C111.483 21 109.009 23.5112 109.009 26.5785V39H109Z" fill="#BDECFF"/>
<path fill-rule="evenodd" clip-rule="evenodd" d="M120 32L109 39.5V54L120 47.296V32Z" fill="url(#paint0_linear_125_1315)"/>
<path fill-rule="evenodd" clip-rule="evenodd" d="M120 47L109 54V70L120 62.6123V47Z" fill="#BDECFF"/>
<path fill-rule="evenodd" clip-rule="evenodd" d="M120 63L109 69.7347V85L120 78V63Z" fill="url(#paint1_linear_125_1315)"/>
<path fill-rule="evenodd" clip-rule="evenodd" d="M120 78L109 84.8919V88.5C109 91.6515 111.474 95 114.496 95H119.991L120 78Z" fill="#BDECFF"/>
<path d="M36 2H35V128H36V2Z" fill="#333333"/>
<path fill-rule="evenodd" clip-rule="evenodd" d="M108 27.4998C108 23.3577 111.358 19.9998 115.5 19.9998H120C120.276 19.9998 120.5 20.2237 120.5 20.4998C120.5 20.776 120.276 20.9998 120 20.9998H115.5C111.91 20.9998 109 23.91 109 27.4998V38.5654L120.223 31.0836C120.452 30.9304 120.763 30.9925 120.916 31.2222C121.069 31.452 121.007 31.7624 120.777 31.9156L109 39.7672V53.5975L120.235 46.5756C120.469 46.4292 120.778 46.5004 120.924 46.7346C121.07 46.9688 120.999 47.2772 120.765 47.4236L109 54.7768V69.5521L120.218 61.8814C120.446 61.7255 120.757 61.7839 120.913 62.0119C121.068 62.2398 121.01 62.5509 120.782 62.7068L109 70.7635V84.7002L120.221 77.1589C120.45 77.0048 120.761 77.0658 120.915 77.2949C121.069 77.5241 121.008 77.8348 120.779 77.9888L109.079 85.8521C109.053 85.8692 109.027 85.8836 109 85.8954V88.4998C109 92.0897 111.91 94.9998 115.5 94.9998H116.48H120C120.276 94.9998 120.5 95.2237 120.5 95.4998C120.5 95.776 120.276 95.9998 120 95.9998H116.48H115.5C111.358 95.9998 108 92.642 108 88.4998V54.5023V54.4978V27.4998Z" fill="#333333"/>
<path d="M97.0347 106.585L95.1318 108.488L100.91 114.266L102.813 112.364L97.0347 106.585Z" fill="#FEFEFE"/>
<path fill-rule="evenodd" clip-rule="evenodd" d="M10 20.5C10 20.2239 10.2316 20 10.5172 20H24.4828C24.7684 20 25 20.2239 25 20.5C25 20.7761 24.7684 21 24.4828 21H10.5172C10.2316 21 10 20.7761 10 20.5Z" fill="#333333"/>
<path fill-rule="evenodd" clip-rule="evenodd" d="M10 25.5C10 25.2239 10.2316 25 10.5172 25H24.4828C24.7684 25 25 25.2239 25 25.5C25 25.7761 24.7684 26 24.4828 26H10.5172C10.2316 26 10 25.7761 10 25.5Z" fill="#333333"/>
<path fill-rule="evenodd" clip-rule="evenodd" d="M10.0005 76.5002C10.0005 76.224 10.2321 76.0002 10.5177 76.0002H24.4832C24.7689 76.0002 25.0005 76.224 25.0005 76.5002C25.0005 76.7763 24.7689 77.0002 24.4832 77.0002H10.5177C10.2321 77.0002 10.0005 76.7763 10.0005 76.5002Z" fill="#333333"/>
<path fill-rule="evenodd" clip-rule="evenodd" d="M10.0005 81.5C10.0005 81.2239 10.2321 81 10.5177 81H24.4832C24.7689 81 25.0005 81.2239 25.0005 81.5C25.0005 81.7761 24.7689 82 24.4832 82H10.5177C10.2321 82 10.0005 81.7761 10.0005 81.5Z" fill="#333333"/>
<path fill-rule="evenodd" clip-rule="evenodd" d="M10 48.5C10 48.2239 10.2316 48 10.5172 48H24.4828C24.7684 48 25 48.2239 25 48.5C25 48.7761 24.7684 49 24.4828 49H10.5172C10.2316 49 10 48.7761 10 48.5Z" fill="#333333"/>
<path fill-rule="evenodd" clip-rule="evenodd" d="M10 53.5C10 53.2239 10.2316 53 10.5172 53H24.4828C24.7684 53 25 53.2239 25 53.5C25 53.7761 24.7684 54 24.4828 54H10.5172C10.2316 54 10 53.7761 10 53.5Z" fill="#333333"/>
<path fill-rule="evenodd" clip-rule="evenodd" d="M10 103.5C10 103.224 10.2239 103 10.5 103H23.5025C23.7786 103 24.0025 103.224 24.0025 103.5C24.0025 103.776 23.7786 104 23.5025 104H10.5C10.2239 104 10 103.776 10 103.5Z" fill="#333333"/>
<path fill-rule="evenodd" clip-rule="evenodd" d="M10 108.5C10 108.224 10.2239 108 10.5 108H23.5025C23.7786 108 24.0025 108.224 24.0025 108.5C24.0025 108.776 23.7786 109 23.5025 109H10.5C10.2239 109 10 108.776 10 108.5Z" fill="#333333"/>
<path fill-rule="evenodd" clip-rule="evenodd" d="M72.5455 67C53 67 48 80.2698 48 80.2698C60.7273 89.879 83 91.2517 98 80.2698C98 80.2513 92.0909 67 72.5455 67Z" fill="#BDECFF"/>
<path d="M48 80.2698L47.5321 80.0935C47.4539 80.301 47.5218 80.5352 47.6987 80.6688C60.5943 90.4051 83.1096 91.7911 98.2954 80.6732C98.424 80.5791 98.5 80.4292 98.5 80.2698C98.4959 80.2062 98.4796 80.1282 98.4748 80.1128C98.4724 80.1059 98.4685 80.095 98.4669 80.0909C98.4659 80.0882 98.465 80.0858 98.4641 80.0836C98.4626 80.0798 98.4614 80.0769 98.4607 80.0753L98.4536 80.0586C98.4492 80.0485 98.4435 80.0359 98.4367 80.0212C98.4231 79.9916 98.4035 79.9501 98.3779 79.8977C98.3265 79.7928 98.2499 79.6427 98.1463 79.4538C97.939 79.076 97.623 78.5422 97.1828 77.9045C96.3026 76.6295 94.9244 74.9367 92.9251 73.2462C88.9193 69.8588 82.4426 66.5 72.5455 66.5C62.6472 66.5 56.3924 69.8645 52.6091 73.2629C50.7218 74.9582 49.4568 76.6552 48.6621 77.9322C48.2647 78.5709 47.9845 79.1051 47.8026 79.4825C47.7116 79.6712 47.6452 79.8209 47.6009 79.9248C47.5788 79.9768 47.5622 80.0174 47.5508 80.0458L47.5376 80.0791L47.5339 80.0887L47.5328 80.0917L47.5324 80.0927C47.5322 80.0931 47.5321 80.0935 48 80.2698Z" stroke="#333333" stroke-linejoin="round"/>
<path d="M67 61.5H78C78.2761 61.5 78.5 61.7239 78.5 62V69.8134C78.5 69.9569 78.4384 70.0934 78.3308 70.1884L72.8308 75.0413C72.6418 75.2081 72.3582 75.2081 72.1692 75.0413L66.6692 70.1884C66.5616 70.0934 66.5 69.9569 66.5 69.8134V62C66.5 61.7239 66.7239 61.5 67 61.5Z" fill="white" stroke="#333333"/>
<path d="M86.5 49.5C86.5 57.2244 80.2244 63.5 72.5 63.5C64.7756 63.5 58.5 57.2244 58.5 49.5C58.5 41.7589 64.7752 35.5 72.5 35.5C80.2411 35.5 86.5 41.7752 86.5 49.5Z" fill="white" stroke="#333333"/>
<path fill-rule="evenodd" clip-rule="evenodd" d="M72.5 39.7143C74.4286 45.2857 79.5101 49 86 49C86 40.6429 78.7802 36 72.5 36C65.0201 36 59 40.9921 59 49C65.75 49 70.5714 45.2857 72.5 39.7143Z" fill="#AAAAAA"/>
<path d="M72.5018 41.0774C74.7834 46.1827 79.7786 49.5 86 49.5C86.2761 49.5 86.5 49.2761 86.5 49C86.5 40.2944 78.9779 35.5 72.5 35.5C68.6496 35.5 65.1491 36.7855 62.6062 39.1294C60.0586 41.4776 58.5 44.8631 58.5 49C58.5 49.2761 58.7239 49.5 59 49.5C65.4677 49.5 70.2526 46.1787 72.5018 41.0774Z" stroke="#333333" stroke-linejoin="round"/>
</g>
<defs>
<linearGradient id="paint0_linear_125_1315" x1="109" y1="31.1406" x2="127.014" y2="40.4994" gradientUnits="userSpaceOnUse">
<stop stop-color="#FF8E3D"/>
<stop offset="1" stop-color="#FF6F3D"/>
</linearGradient>
<linearGradient id="paint1_linear_125_1315" x1="109" y1="62.1406" x2="127.014" y2="71.4994" gradientUnits="userSpaceOnUse">
<stop stop-color="#FF8E3D"/>
<stop offset="1" stop-color="#FF6F3D"/>
</linearGradient>
<clipPath id="clip0_125_1315">
<rect width="135" height="135" fill="white"/>
</clipPath>
</defs>
</svg>
