<svg width="135" height="135" viewBox="0 0 135 135" fill="none" xmlns="http://www.w3.org/2000/svg">
<g clip-path="url(#clip0)">
<rect width="135" height="135" fill="white"/>
<path d="M78 107H51V114H78V107Z" fill="#9ADAF3"/>
<path fill-rule="evenodd" clip-rule="evenodd" d="M20.9727 29.9579H20.8114C17.8933 29.9579 15.5065 32.3355 15.5065 35.2422V90.061H114.511V42.4152V35.2355C114.511 32.3288 112.124 29.9512 109.206 29.9512H47.9207H44.3304H20.9727V29.9579Z" fill="#FEFEFE"/>
<path fill-rule="evenodd" clip-rule="evenodd" d="M31 28.9512H19.9727V29.0136C16.8985 29.4248 14.5065 32.0634 14.5065 35.2422V91.061H115.511V45.1544H114.511V90.061H15.5065V35.2422C15.5065 32.3355 17.8933 29.9579 20.8114 29.9579H20.9727V29.9512H31V28.9512Z" fill="#333333"/>
<path d="M115.011 90.9448V90.4448H114.511H15.5065H15.0065V90.9448V101.62C15.0065 104.824 17.6153 107.445 20.811 107.445H51.8852H78.1052H109.206C112.402 107.445 115.011 104.824 115.011 101.62V90.9448ZM65.0154 96.5735C66.304 96.5735 67.3525 97.6233 67.3525 98.9212C67.3525 100.219 66.304 101.269 65.0154 101.269C63.7268 101.269 62.6782 100.219 62.6782 98.9212C62.6782 97.6292 63.7276 96.5735 65.0154 96.5735Z" fill="#BDECFF" stroke="#333333"/>
<path d="M52.0314 114.051H78.5307H84.2586C85.8121 114.051 87.2103 115.551 87.2103 117.551C87.2103 119.544 85.8178 121.051 84.2586 121.051H45.162C43.6085 121.051 42.2103 119.55 42.2103 117.551C42.2103 115.558 43.6029 114.051 45.162 114.051H52.0314Z" fill="#BDECFF" stroke="#333333"/>
<path d="M65 102.5C66.933 102.5 68.5 100.933 68.5 99C68.5 97.067 66.933 95.5 65 95.5C63.067 95.5 61.5 97.067 61.5 99C61.5 100.933 63.067 102.5 65 102.5Z" fill="#9ADAF3" stroke="#333333"/>
<path d="M52 107H51V114H52V107Z" fill="#333333"/>
<path d="M79 107H78V114H79V107Z" fill="#333333"/>
<circle cx="66.1139" cy="43.5563" r="36.4469" fill="#F4F4F4"/>
<mask id="mask0" mask-type="alpha" maskUnits="userSpaceOnUse" x="18" y="-4" width="96" height="95">
<path d="M99.9837 57.2344C107.57 38.5888 98.6053 17.3234 79.9597 9.73673C61.3142 2.15007 40.0487 11.1151 32.4621 29.7607C24.8754 48.4063 33.8404 69.6717 52.486 77.2583C71.1316 84.845 92.397 75.88 99.9837 57.2344Z" fill="#F4F4F4"/>
</mask>
<g mask="url(#mask0)">
<path d="M66.3789 69.586L66.4259 69.5904L66.4729 69.586L73.4999 68.9231C73.5463 68.9465 73.6046 68.9759 73.6748 69.0108C73.8759 69.1108 74.1738 69.2565 74.5639 69.4409C75.3439 69.8096 76.4924 70.3328 77.9713 70.9532C80.9283 72.1938 85.2073 73.8238 90.5036 75.3856C95.6108 76.9581 99.2005 80.7587 101.372 85.6477C103.52 90.4859 104.266 96.3682 103.703 102.119C103.63 102.176 103.53 102.253 103.403 102.346C103.089 102.576 102.606 102.908 101.943 103.311C100.617 104.116 98.5676 105.202 95.6949 106.308C89.9512 108.518 80.9103 110.808 67.7738 111.078H67.7719H67.7696H67.7672H67.7648H67.7624H67.7601H67.7577H67.7553H67.7529H67.7505H67.7482H67.7458H67.7434H67.741H67.7386H67.7363H67.7339H67.7315H67.7291H67.7267H67.7244H67.722H67.7196H67.7172H67.7149H67.7125H67.7101H67.7077H67.7053H67.703H67.7006H67.6982H67.6958H67.6935H67.6911H67.6887H67.6863H67.6839H67.6816H67.6792H67.6768H67.6744H67.672H67.6697H67.6673H67.6649H67.6625H67.6601H67.6578H67.6554H67.653H67.6506H67.6483H67.6459H67.6435H67.6411H67.6387H67.6364H67.634H67.6316H67.6292H67.6268H67.6245H67.6221H67.6197H67.6173H67.615H67.6126H67.6102H67.6078H67.6054H67.6031H67.6007H67.5983H67.5959H67.5935H67.5912H67.5888H67.5864H67.584H67.5817H67.5793H67.5769H67.5745H67.5721H67.5698H67.5674H67.565H67.5626H67.5602H67.5579H67.5555H67.5531H67.5507H67.5484H67.546H67.5436H67.5412H67.5388H67.5365H67.5341H67.5317H67.5293H67.5269H67.5246H67.5222H67.5198H67.5174H67.515H67.5127H67.5103H67.5079H67.5055H67.5032H67.5008H67.4984H67.496H67.4936H67.4913H67.4889H67.4865H67.4841H67.4817H67.4794H67.477H67.4746H67.4722H67.4699H67.4675H67.4651H67.4627H67.4603H67.458H67.4556H67.4532H67.4508H67.4484H67.4461H67.4437H67.4413H67.4389H67.4366H67.4342H67.4318H67.4294H67.427H67.4247H67.4223H67.4199H67.4175H67.4151H67.4128H67.4104H67.408H67.4056H67.4033H67.4009H67.3985H67.3961H67.3937H67.3914H67.389H67.3866H67.3842H67.3818H67.3795H67.3771H67.3747H67.3723H67.3699H67.3676H67.3652H67.3628H67.3604H67.3581H67.3557H67.3533H67.3509H67.3485H67.3462H67.3438H67.3414H67.339H67.3367H67.3343H67.3319H67.3295H67.3271H67.3248H67.3224H67.32H67.3176H67.3152H67.3129H67.3105H67.3081H67.3057H67.3033H67.301H67.2986H67.2962H67.2938H67.2915H67.2891H67.2867H67.2843H67.2819H67.2796H67.2772H67.2748H67.2724H67.27H67.2677H67.2653H67.2629H67.2605H67.2582H67.2558H67.2534H67.251H67.2486H67.2463H67.2439H67.2415H67.2391H67.2367H67.2344H67.232H67.2296H67.2272H67.2249H67.2225H67.2201H67.2177H67.2153H67.213H67.2106H67.2082H67.2058H67.2034H67.2011H67.1987H67.1963H67.1939H67.1916H67.1892H67.1868H67.1844H67.182H67.1797H67.1773H67.1749H67.1725H67.1701H67.1678H67.1654H67.163H67.1606H67.1582H67.1559H67.1535H67.1511H67.1487H67.1464H67.144H67.1416H67.1392H67.1368H67.1345H67.1321H67.1297H67.1273H67.1249H67.1226H67.1202H67.1178H67.1154H67.1131H67.1107H67.1083H67.1059H67.1035H67.1012H67.0988H67.0964H67.094H67.0916H67.0893H67.0869H67.0845H67.0821H67.0798H67.0774H67.075H67.0726H67.0702H67.0679H67.0655H67.0631H67.0607H67.0583H67.056H67.0536H67.0512H67.0488H67.0465H67.0441H67.0417H67.0393H67.0369H67.0346H67.0322H67.0298H67.0274H67.025H67.0227H67.0203H67.0179H67.0155H67.0131H67.0108H67.0084H67.006H67.0036H67.0013H66.9989H66.9965H66.9941H66.9917H66.9894H66.987H66.9846H66.9822H66.9798H66.9775H66.9751H66.9727H66.9703H66.968H66.9656H66.9632H66.9608H66.9584H66.9561H66.9537H66.9513H66.9489H66.9465H66.9442H66.9418H66.9394H66.937H66.9347H66.9323H66.9299H66.9275H66.9251H66.9228H66.9204H66.918H66.9156H66.9132H66.9109H66.9085H66.9061H66.9037H66.9014H66.899H66.8966H66.8942H66.8918H66.8895H66.8871H66.8847H66.8823H66.8799H66.8776H66.8752H66.8728H66.8704H66.868H66.8657H66.8633H66.8609H66.8585H66.8562H66.8538H66.8514H66.849H66.8466H66.8443H66.8419H66.8395H66.8371H66.8347H66.8324H66.83H66.8276H66.8252H66.8229H66.8205H66.8181H66.8157H66.8133H66.811H66.8086H66.8062H66.8038H66.8014H66.7991H66.7967H66.7943H66.7919H66.7896H66.7872H66.7848H66.7824H66.78H66.7777H66.7753H66.7729H66.7705H66.7681H66.7658H66.7634H66.761H66.7586H66.7563H66.7539H66.7515H66.7491H66.7467H66.7444H66.742H66.7396H66.7372H66.7348H66.7325H66.7301H66.7277H66.7253H66.723H66.7206H66.7182H66.7158H66.7134H66.7111H66.7087H66.7063H66.7039H66.7015H66.6992H66.6968H66.6944H66.692H66.6897H66.6873H66.6849H66.6825H66.6801H66.6778H66.6754H66.673H66.6706H66.6682H66.6659H66.6635H66.6611H66.6587H66.6563H66.654H66.6516H66.6492H66.6468H66.6445H66.6421H66.6397H66.6373H66.6349H66.6326H66.6302H66.6278H66.6254H66.623H66.6207H66.6183H66.6159H66.6135H66.6112H66.6088H66.6064H66.604H66.6016H66.5993H66.5969H66.5945H66.5921H66.5897H66.5874H66.585H66.5826H66.5802H66.5779H66.5755H66.5731H66.5707H66.5683H66.566H66.5636H66.5612H66.5588H66.5564H66.5541H66.5517H66.5493H66.5469H66.5446H66.5422H66.5398H66.5374H66.535H66.5327H66.5303H66.5279H66.5255H66.5231H66.5208H66.5184H66.516H66.5136H66.5113H66.5089H66.5065H66.5041H66.5017H66.4994H66.497H66.4946H66.4922H66.4898H66.4875H66.4851H66.4827H66.4803H66.478H66.4756H66.4732H66.4708H66.4684H66.4661H66.4637H66.4613H66.4589H66.4565H66.4542H66.4518H66.4494H66.447H66.4446H66.4423H66.4399H66.4375H66.4351H66.4328H66.4304H66.428H66.4256H66.4232H66.4209H66.4185H66.4161H66.4137H66.4114H66.409H66.4066H66.4042H66.4018H66.3995H66.3971H66.3947H66.3923H66.3899H66.3876H66.3852H66.3828H66.3804H66.378H66.3757H66.3733H66.3709H66.3685H66.3662H66.3638H66.3614H66.359H66.3566H66.3543H66.3519H66.3495H66.3471H66.3447H66.3424H66.34H66.3376H66.3352H66.3329H66.3305H66.3281H66.3257H66.3233H66.321H66.3186H66.3162H66.3138H66.3114H66.3091H66.3067H66.3043H66.3019H66.2996H66.2972H66.2948H66.2924H66.29H66.2877H66.2853H66.2829H66.2805H66.2781H66.2758H66.2734H66.271H66.2686H66.2663H66.2639H66.2615H66.2591H66.2567H66.2544H66.252H66.2496H66.2472H66.2448H66.2425H66.2401H66.2377H66.2353H66.233H66.2306H66.2282H66.2258H66.2234H66.2211H66.2187H66.2163H66.2139H66.2115H66.2092H66.2068H66.2044H66.202H66.1997H66.1973H66.1949H66.1925H66.1901H66.1878H66.1854H66.183H66.1806H66.1782H66.1759H66.1735H66.1711H66.1687H66.1664H66.164H66.1616H66.1592H66.1568H66.1545H66.1521H66.1497H66.1473H66.1449H66.1426H66.1402H66.1378H66.1354H66.133H66.1307H66.1283H66.1259H66.1235H66.1212H66.1188H66.1164H66.114H66.1116H66.1093H66.1069H66.1045H66.1021H66.0998H66.0974H66.095H66.0926H66.0902H66.0879H66.0855H66.0831H66.0807H66.0783H66.076H66.0736H66.0712H66.0688H66.0664H66.0641H66.0617H66.0593H66.0569H66.0546H66.0522H66.0498H66.0474H66.045H66.0427H66.0403H66.0379H66.0355H66.0331H66.0308H66.0284H66.026H66.0236H66.0213H66.0189H66.0165H66.0141H66.0117H66.0094H66.007H66.0046H66.0022H65.9998H65.9975H65.9951H65.9927H65.9903H65.988H65.9856H65.9832H65.9808H65.9784H65.9761H65.9737H65.9713H65.9689H65.9665H65.9642H65.9618H65.9594H65.957H65.9547H65.9523H65.9499H65.9475H65.9451H65.9428H65.9404H65.938H65.9356H65.9332H65.9309H65.9285H65.9261H65.9237H65.9214H65.919H65.9166H65.9142H65.9118H65.9095H65.9071H65.9047H65.9023H65.8999H65.8976H65.8952H65.8928H65.8904H65.8881H65.8857H65.8833H65.8809H65.8785H65.8762H65.8738H65.8714H65.869H65.8666H65.8643H65.8619H65.8595H65.8571H65.8548H65.8524H65.85H65.8476H65.8452H65.8429H65.8405H65.8381H65.8357H65.8333H65.831H65.8286H65.8262H65.8238H65.8215H65.8191H65.8167H65.8143H65.8119H65.8096H65.8072H65.8048H65.8024H65.8H65.7977H65.7953H65.7929H65.7905H65.7882H65.7858H65.7834H65.781H65.7786H65.7763H65.7739H65.7715H65.7691H65.7667H65.7644H65.762H65.7596H65.7572H65.7549H65.7525H65.7501H65.7477H65.7453H65.743H65.7406H65.7382H65.7358H65.7334H65.7311H65.7287H65.7263H65.7239H65.7215H65.7192H65.7168H65.7144H65.712H65.7097H65.7073H65.7049H65.7025H65.7001H65.6978H65.6954H65.693H65.6906H65.6882H65.6859H65.6835H65.6811H65.6787H65.6764H65.674H65.6716H65.6692H65.6668H65.6645H65.6621H65.6597H65.6573H65.6549H65.6526H65.6502H65.6478H65.6454H65.6431H65.6407H65.6383H65.6359H65.6335H65.6312H65.6288H65.6264H65.624H65.6216H65.6193H65.6169H65.6145H65.6121H65.6098H65.6074H65.605H65.6026H65.6002H65.5979H65.5955H65.5931H65.5907H65.5883H65.586H65.5836H65.5812H65.5788H65.5765H65.5741H65.5717H65.5693H65.5669H65.5646H65.5622H65.5598H65.5574H65.555H65.5527H65.5503H65.5479H65.5455H65.5432H65.5408H65.5384H65.536H65.5336H65.5313H65.5289H65.5265H65.5241H65.5217H65.5194H65.517H65.5146H65.5122H65.5099H65.5075H65.5051H65.5027H65.5003H65.498H65.4956H65.4932H65.4908H65.4884H65.4861H65.4837H65.4813H65.4789H65.4766H65.4742H65.4718H65.4694H65.467H65.4647H65.4623H65.4599H65.4575H65.4551H65.4528H65.4504H65.448H65.4456H65.4432H65.4409H65.4385H65.4361H65.4337H65.4314H65.429H65.4266H65.4242H65.4218H65.4195H65.4171H65.4147H65.4123H65.41H65.4076H65.4052H65.4028H65.4004H65.3981H65.3957H65.3933H65.3909H65.3885H65.3862H65.3838H65.3814H65.379H65.3766H65.3743H65.3719H65.3695H65.3671H65.3648H65.3624H65.36H65.3576H65.3552H65.3529H65.3505H65.3481H65.3474C52.2794 110.876 43.2392 108.586 37.4789 106.359C34.5981 105.245 32.5359 104.146 31.1991 103.33C30.5307 102.922 30.0435 102.585 29.7259 102.352C29.5925 102.254 29.489 102.175 29.4146 102.116C28.719 96.298 29.3996 90.3816 31.5152 85.5436C33.6521 80.657 37.24 76.8919 42.3453 75.3865C47.6429 73.8244 51.9229 72.194 54.8805 70.9532C56.3593 70.3328 57.5078 69.8096 58.2879 69.4409C58.6779 69.2565 58.9759 69.1108 59.177 69.0108C59.2471 68.9759 59.3055 68.9465 59.3519 68.9231L66.3789 69.586Z" fill="url(#paint0_linear)" stroke="#333333"/>
<path d="M57.0174 58.8013L65.614 58.0877L74.2105 58.8013C74.1803 58.981 74.1458 59.2005 74.1104 59.4548C74.0056 60.2081 73.8922 61.2688 73.8573 62.5032C73.7905 64.8634 74.0093 67.9001 75.1583 70.6372C75.0844 70.6967 74.9939 70.7667 74.8863 70.8447C74.5163 71.1132 73.944 71.4779 73.1525 71.8448C71.5714 72.5776 69.1059 73.3241 65.614 73.3241C62.1221 73.3241 59.6565 72.5776 58.0754 71.8448C57.2839 71.4779 56.7117 71.1132 56.3416 70.8447C56.234 70.7667 56.1435 70.6967 56.0696 70.6372C57.2186 67.9001 57.4374 64.8634 57.3706 62.5032C57.3357 61.2688 57.2223 60.2081 57.1175 59.4548C57.0821 59.2005 57.0476 58.981 57.0174 58.8013Z" fill="white" stroke="#333333"/>
<path d="M72.1808 62.6151L72.177 62.6183C70.5316 64.0106 68.1189 64.6641 66.02 64.6641C64.9736 64.6641 63.6093 64.5013 62.2774 64.1562C60.9405 63.8099 59.6822 63.2919 58.8118 62.6091C56.0774 60.3942 54.1763 56.9122 52.9597 53.0881C51.7449 49.2693 51.229 45.1599 51.229 41.7541C51.229 32.6328 57.1513 25.4746 66.02 25.4746C74.8862 25.4746 80.8109 32.7653 80.8109 41.7541C80.8109 45.1345 80.0099 49.2343 78.5201 53.0582C77.0286 56.8863 74.8664 60.388 72.1808 62.6151Z" fill="white" stroke="#333333"/>
<path d="M76.7101 29.4401C76.7101 26.4631 71.974 24.0273 66.02 24.0273C60.066 24.0273 55.3298 26.4631 55.3298 29.4401C55.3298 32.4171 60.066 34.8528 66.02 34.8528C71.8387 34.7175 76.7101 32.4171 76.7101 29.4401Z" fill="#333333"/>
<path d="M58.7128 31.0643C58.7128 31.0643 50.9996 34.4472 51.4056 47.5731C51.4056 47.5731 49.6464 43.2429 50.0524 36.8829C50.4584 30.6583 56.9536 26.3281 56.9536 26.3281L58.7128 31.0643Z" fill="#333333"/>
<path d="M73.3273 31.0643C73.3273 31.0643 81.0404 34.4472 80.6345 47.5731C80.6345 47.5731 82.3936 43.2429 81.9877 36.8829C81.5817 30.6583 75.0864 26.3281 75.0864 26.3281L73.3273 31.0643Z" fill="#333333"/>
<path d="M53.7061 28.3572C53.7061 28.3572 53.0295 24.5682 58.5775 21.8619C66.6966 17.8023 79.4165 22.6738 81.4463 35.6643C81.311 35.6643 67.7792 25.9214 53.7061 28.3572Z" fill="#333333"/>
<path d="M56.2771 26.5991C56.2771 26.5991 54.3827 25.1106 51.2703 28.4935C48.158 31.8765 50.0525 40.8075 50.0525 40.8075C50.0525 40.8075 53.9767 28.6289 58.7128 28.0876C63.449 27.5463 55.7358 26.5991 55.7358 26.5991" fill="#333333"/>
<path d="M75.4923 26.5991C75.4923 26.5991 77.3867 25.1106 80.499 28.4935C83.6114 31.8765 81.7169 40.8075 81.7169 40.8075C81.7169 40.8075 77.7927 28.6289 73.0565 28.0876C68.3204 27.5463 76.0335 26.5991 76.0335 26.5991" fill="#333333"/>
<path d="M86.5541 48.8236C86.1537 53.2304 82.1498 56.4999 80.0144 56.2156C77.879 55.9313 78.4129 52.3774 78.9467 47.8285C79.3471 43.4217 79.614 39.7257 81.7494 40.01C83.7514 40.2943 86.9545 44.2746 86.5541 48.8236Z" fill="#333333"/>
<path d="M81.0402 47.8434C81.4462 44.3252 81.5815 41.4835 82.7993 40.5363C82.5287 40.4009 82.2581 40.2656 81.9874 40.2656C79.8224 39.995 79.687 43.5133 79.1458 47.7081C78.7398 51.903 78.1985 55.4213 80.2283 55.6919C80.6343 55.6919 81.0402 55.6919 81.4462 55.5566C80.093 54.7447 80.6342 51.6324 81.0402 47.8434Z" fill="white"/>
<path d="M80.6344 56.0981C80.4991 56.0981 80.4991 56.0981 80.3638 56.0981C79.8225 56.0981 79.4166 55.8274 79.1459 55.4215C78.1987 54.2036 78.4693 51.7679 78.8753 48.6556L79.0106 46.8964C79.4166 43.7841 79.5519 41.213 80.7697 40.2658C81.1757 39.9952 81.5817 39.8599 82.1229 39.8599C82.3936 39.8599 82.6642 39.9952 83.0702 40.1305L83.6114 40.4011L83.0702 40.8071C82.1229 41.4837 81.8523 44.0547 81.4463 46.8964L81.311 48.6556C80.9051 51.9032 80.6344 54.6096 81.717 55.2861L82.3936 55.6921L81.5817 55.9627C81.311 55.9627 80.9051 56.0981 80.6344 56.0981ZM81.8523 40.6718C81.5817 40.6718 81.311 40.8071 81.1757 40.9424C80.2285 41.7543 79.9578 44.19 79.6872 47.0317L79.5519 48.7909C79.2813 51.6326 79.0106 54.2036 79.6872 55.1508C79.8225 55.4215 80.0932 55.5568 80.4991 55.5568C80.6344 55.5568 80.7697 55.5568 81.0404 55.5568C80.0932 54.3389 80.3638 51.9032 80.7697 48.7909L80.9051 47.0317C81.1757 44.19 81.4463 41.8896 82.3936 40.8071C82.2582 40.8071 82.2582 40.8071 82.1229 40.8071C81.9876 40.6718 81.8523 40.6718 81.8523 40.6718Z" fill="#333333"/>
<path d="M44.6987 48.8236C45.0978 53.2304 49.0895 56.4999 51.2184 56.2156C53.3473 55.9313 52.8151 52.3774 52.2828 47.8285C51.8837 43.4217 51.6176 39.7257 49.4887 40.01C47.3598 40.2943 44.1665 44.2746 44.6987 48.8236Z" fill="#333333"/>
<path d="M52.8941 47.8424C52.4881 43.6475 52.2175 40.1293 50.0524 40.3999C49.7817 40.3999 49.5111 40.5352 49.2405 40.6705C50.4583 41.4824 50.729 44.4594 50.9996 47.9777C51.4056 51.7666 51.9468 55.0143 50.4583 55.6909C50.8643 55.8262 51.4056 55.9615 51.6762 55.8262C53.8413 55.5555 53.3 52.0373 52.8941 47.8424Z" fill="white"/>
<path d="M51.541 56.0976C51.1351 56.0976 50.8644 56.0976 50.4585 55.9623L49.6466 55.6917L50.3232 55.2857C51.4057 54.7444 51.1351 51.9028 50.7291 48.6551L50.5938 46.896C50.3232 43.919 50.0525 41.4833 48.97 40.6713L48.4287 40.2654L48.97 39.9948C49.2406 39.8594 49.6466 39.7241 49.9172 39.7241C50.4585 39.7241 50.8644 39.7241 51.2704 40.1301C52.4883 41.0773 52.7589 43.513 53.0295 46.7607L53.1648 48.5198C53.5708 51.6321 53.8414 54.2032 52.8942 55.2857C52.6236 55.6917 52.2176 55.827 51.6763 55.9623C51.6763 56.0976 51.541 56.0976 51.541 56.0976ZM51.2704 55.421C51.4057 55.421 51.6763 55.421 51.8117 55.421C52.0823 55.421 52.3529 55.2857 52.6236 55.0151C53.4355 54.0679 53.0295 51.6321 52.7589 48.6551L52.6236 46.896C52.3529 44.0543 52.0823 41.4833 51.1351 40.8067C50.8644 40.6713 50.5938 40.536 50.3232 40.536C50.1878 40.536 50.1878 40.536 50.0525 40.536C50.8644 41.6186 51.1351 43.919 51.541 46.7607L51.6763 48.3845C51.8117 51.6321 52.0823 54.2032 51.2704 55.421Z" fill="#333333"/>
<path d="M83.6115 42.9722L82.2583 42.5663C82.2583 42.431 86.3179 29.9817 80.7698 22.4039C77.9281 18.4796 72.9214 16.4499 66.0201 16.4499C59.1189 16.4499 54.1121 18.4796 51.2704 22.4039C45.7224 29.9817 49.6466 42.431 49.7819 42.5663L48.4288 42.9722C48.2934 42.431 44.2339 29.7111 50.1879 21.592C53.3002 17.2618 58.7129 15.0967 66.0201 15.0967C73.4626 15.0967 78.74 17.2618 81.8524 21.592C87.8064 29.7111 83.7468 42.431 83.6115 42.9722Z" fill="#333333"/>
<path d="M51.1844 18.9988L51.1941 18.9907L51.2034 18.9821C54.6052 15.842 59.4778 14.1079 66.0199 14.1079C72.2906 14.1079 77.1615 15.7065 80.5617 18.708C81.2143 19.3694 81.2575 20.2614 80.6867 20.8322C80.0242 21.4946 79.1259 21.5413 78.5521 20.9675L78.5428 20.9582L78.533 20.9494C75.699 18.3988 71.4975 17.1675 66.0199 17.1675C60.5335 17.1675 56.201 18.5382 53.3715 21.0847L53.3352 21.1173L53.306 21.1564C53.0285 21.5263 52.6684 21.633 52.2175 21.633C51.8388 21.633 51.4183 21.4386 51.0825 21.1028C50.4917 20.512 50.5837 19.4994 51.1844 18.9988Z" fill="#CCCCCC" stroke="#333333"/>
<path d="M52.2176 22.4033C51.541 22.4033 50.8645 22.1327 50.4585 21.5914C49.5113 20.6442 49.6466 19.1557 50.5938 18.2084C54.1121 14.8255 59.2542 13.2017 65.8848 13.2017C72.3801 13.2017 77.5221 14.8255 81.0404 18.0731C81.4464 18.4791 81.8523 19.1557 81.8523 19.6969C81.8523 20.3735 81.717 20.9148 81.1757 21.4561C80.2285 22.4033 78.74 22.5386 77.7928 21.5914C75.0864 19.1557 71.1622 17.9378 65.8848 17.9378C60.4721 17.9378 56.4125 19.1557 53.8415 21.7267C53.4355 22.268 52.8942 22.4033 52.2176 22.4033ZM66.0201 14.0136C59.5248 14.0136 54.5181 15.6374 51.1351 18.885C50.4585 19.5616 50.4585 20.6442 50.9998 21.3208C51.6764 21.9973 52.7589 21.9973 53.4355 21.4561C56.1419 18.885 60.4721 17.5318 66.0201 17.5318C71.4328 17.5318 75.6277 18.7497 78.3341 21.3208C79.0106 21.9973 80.0932 21.862 80.7698 21.1854C81.0404 20.7795 81.1757 20.3735 81.1757 19.9676C81.1757 19.5616 80.9051 19.1557 80.6345 18.7497C77.2515 15.5021 72.2447 14.0136 66.0201 14.0136Z" fill="#333333"/>
<path d="M68 62V60.9868C74.1936 60.9868 78.7097 59.25 81.1613 55.9211C82.9677 53.4605 83.0968 51 83.0968 51H84C84 51.1447 84 53.8947 81.9355 56.6447C80 58.9605 76.129 62 68 62Z" fill="#333333"/>
<path d="M60.5 48C61.3284 48 62 47.3284 62 46.5C62 45.6716 61.3284 45 60.5 45C59.6716 45 59 45.6716 59 46.5C59 47.3284 59.6716 48 60.5 48Z" fill="#333333"/>
<path d="M73.5 48C74.3284 48 75 47.3284 75 46.5C75 45.6716 74.3284 45 73.5 45C72.6716 45 72 45.6716 72 46.5C72 47.3284 72.6716 48 73.5 48Z" fill="#333333"/>
<path d="M57.618 42C57.4532 42 57.2884 42 57.1236 41.8471C56.9588 41.6942 56.9588 41.2355 57.1236 41.0826C57.9476 40.3181 60.2549 39.2478 62.7269 40.7768C63.0566 40.9297 63.0566 41.2355 62.8917 41.5413C62.7269 41.8471 62.3973 41.8471 62.0677 41.6942C59.999 40.4604 59.2099 42 57.618 42Z" fill="#333333"/>
<path d="M75.382 42C75.5468 42 75.7116 42 75.8764 41.8471C76.0412 41.6942 76.0412 41.2355 75.8764 41.0826C75.0524 40.3181 72.7451 39.2478 70.2731 40.7768C69.9434 40.9297 69.9434 41.2355 70.1083 41.5413C70.2731 41.8471 70.6027 41.8471 70.9323 41.6942C73.001 40.4604 73.7901 42 75.382 42Z" fill="#333333"/>
<path d="M69.5836 56.1831C69.5492 56.2446 69.5099 56.3121 69.4658 56.3844C69.2579 56.7254 68.9452 57.1674 68.525 57.5769C67.6886 58.3922 66.4411 59.0694 64.7247 58.5903L64.7247 58.5902L64.7179 58.5885C63.1062 58.1874 62.5089 56.8586 62.3216 55.5521C62.2283 54.9017 62.2408 54.2744 62.2772 53.8076C62.2845 53.7144 62.2927 53.6279 62.3012 53.5492C63.7761 55.011 65.6193 55.6693 67.123 55.9605C67.9394 56.1187 68.6611 56.1698 69.1794 56.1814C69.3327 56.1849 69.4684 56.1848 69.5836 56.1831Z" fill="white" stroke="#333333" stroke-width="0.5"/>
<path d="M70 62C70 63.0769 68.4091 64 66.5 64C64.5909 64 63 63.0769 63 62C63 60.9231 64.5909 60 66.5 60C68.4091 60 70 60.9231 70 62Z" fill="#333333"/>
<path d="M67.8 46C67.95 46.5496 68.25 47.2824 68.4 47.8321L68.7 48.7481C68.85 49.1145 69 49.2977 69 49.8473C69 50.0305 69 50.3969 69 50.5802C69 50.7634 68.85 51.1298 68.7 51.313C68.4 51.6794 68.1 51.6794 67.8 51.8626C67.2 52.0458 66.6 52.0458 66 51.8626V51.4962C66.6 51.313 67.05 51.1298 67.5 50.9466C67.65 50.7634 67.95 50.7634 68.1 50.5802C68.25 50.3969 68.25 50.397 68.25 50.2137C68.25 49.8473 67.8 49.1145 67.65 48.3817C67.5 47.6489 67.35 47.0992 67.35 46.3664L67.8 46Z" fill="#333333"/>
</g>
<path fill-rule="evenodd" clip-rule="evenodd" d="M101.561 43.5563C101.561 63.1331 85.6908 79.0033 66.1139 79.0033C46.5371 79.0033 30.667 63.1331 30.667 43.5563C30.667 23.9795 46.5371 8.10938 66.1139 8.10938C76.0988 8.10938 85.1194 12.2378 91.562 18.8807C91.7345 18.5872 91.9314 18.3098 92.1497 18.051C85.5343 11.2989 76.3134 7.10938 66.1139 7.10938C45.9848 7.10938 29.667 23.4272 29.667 43.5563C29.667 63.6854 45.9848 80.0033 66.1139 80.0033C86.243 80.0033 102.561 63.6854 102.561 43.5563C102.561 43.5365 102.561 43.5167 102.561 43.4969H101.561C101.561 43.5167 101.561 43.5365 101.561 43.5563Z" fill="#333333"/>
<path d="M104.246 9.99365C98.1674 9.99365 93.2396 14.9214 93.2396 21V30.756C93.2396 36.8347 98.1674 41.7624 104.246 41.7624H114.002C120.081 41.7624 125.008 36.8347 125.008 30.756V21C125.008 14.9214 120.081 9.99365 114.002 9.99365H104.246ZM100.243 27.3789V21.5H109.124C111.127 21.5 112.752 23.1241 112.752 25.1276V31.0064H103.871C101.867 31.0064 100.243 29.3824 100.243 27.3789ZM114.502 27.52V24.9865L118.005 22.0676V30.4389L114.502 27.52Z" fill="url(#paint1_linear)" stroke="#333333"/>
<path d="M100.243 21.5H109.124C111.127 21.5 112.752 23.1241 112.752 25.1275V31.0064H103.871C101.867 31.0064 100.243 29.3823 100.243 27.3789V21.5ZM114.502 27.5199V24.9865L118.005 22.0675V30.4389L114.502 27.5199Z" fill="white" stroke="#333333"/>
</g>
<defs>
<linearGradient id="paint0_linear" x1="28.4015" y1="90.0828" x2="104.18" y2="90.0828" gradientUnits="userSpaceOnUse">
<stop stop-color="#FFC671"/>
<stop offset="0.5938" stop-color="#FF7541"/>
<stop offset="1" stop-color="#FF6F3D"/>
</linearGradient>
<linearGradient id="paint1_linear" x1="93.7397" y1="9.29175" x2="124.508" y2="41.2624" gradientUnits="userSpaceOnUse">
<stop stop-color="#FFC671"/>
<stop offset="0.59375" stop-color="#FF7541"/>
<stop offset="1" stop-color="#FF6F3D"/>
</linearGradient>
<clipPath id="clip0">
<rect width="135" height="135" fill="white"/>
</clipPath>
</defs>
</svg>
