<svg width="135" height="135" viewBox="0 0 135 135" fill="none" xmlns="http://www.w3.org/2000/svg">
<g clip-path="url(#clip0_125_1418)">
<path fill-rule="evenodd" clip-rule="evenodd" d="M0.999512 14.9997C0.999512 12.2383 3.23809 9.99969 5.99951 9.99969H120.932C123.691 9.99969 125.928 12.2338 125.932 14.9924L126 60.8492L125.027 104.112C124.966 106.829 122.746 109 120.029 109H5.99951C3.23809 109 0.999512 106.761 0.999512 104L0.999512 14.9997Z" fill="white"/>
<path fill-rule="evenodd" clip-rule="evenodd" d="M127 60.8597L126.027 104.134C125.954 107.395 123.29 110 120.029 110H5.99951C2.6858 110 -0.000488281 107.313 -0.000488281 104L-0.000488281 14.9997C-0.000488281 11.686 2.6858 8.99969 5.99951 8.99969H120.932C124.243 8.99969 126.928 11.6806 126.932 14.9909L127 60.8597ZM5.99951 9.99969C3.23809 9.99969 0.999512 12.2383 0.999512 14.9997L0.999512 104C0.999512 106.761 3.23809 109 5.99951 109H120.029C122.746 109 124.966 106.829 125.027 104.112L126 60.8492L125.932 14.9924C125.928 12.2338 123.691 9.99969 120.932 9.99969H5.99951Z" fill="#333333"/>
<path fill-rule="evenodd" clip-rule="evenodd" d="M0.999512 15.0002C0.999512 12.2388 3.23809 10.0002 5.99951 10.0002H33.9995V60.8497V109H5.99951C3.23809 109 0.999512 106.762 0.999512 104L0.999512 15.0002Z" fill="#EFEFEF"/>
<path fill-rule="evenodd" clip-rule="evenodd" d="M10.9995 92.5046C10.9995 92.2284 11.2189 92.0046 11.4896 92.0046H21.5094C21.7801 92.0046 21.9995 92.2284 21.9995 92.5046C21.9995 92.7807 21.7801 93.0046 21.5094 93.0046H11.4896C11.2189 93.0046 10.9995 92.7807 10.9995 92.5046Z" fill="#333333"/>
<path fill-rule="evenodd" clip-rule="evenodd" d="M10.9995 79.5036C10.9995 79.2275 11.2189 79.0036 11.4896 79.0036H21.5094C21.7801 79.0036 21.9995 79.2275 21.9995 79.5036C21.9995 79.7797 21.7801 80.0036 21.5094 80.0036H11.4896C11.2189 80.0036 10.9995 79.7797 10.9995 79.5036Z" fill="#333333"/>
<path fill-rule="evenodd" clip-rule="evenodd" d="M10.9995 66.5036C10.9995 66.2275 11.2189 66.0036 11.4896 66.0036H21.5094C21.7801 66.0036 21.9995 66.2275 21.9995 66.5036C21.9995 66.7797 21.7801 67.0036 21.5094 67.0036H11.4896C11.2189 67.0036 10.9995 66.7797 10.9995 66.5036Z" fill="#333333"/>
<path fill-rule="evenodd" clip-rule="evenodd" d="M10.9995 53.5016C10.9995 53.2255 11.2189 53.0016 11.4896 53.0016H21.5094C21.7801 53.0016 21.9995 53.2255 21.9995 53.5016C21.9995 53.7778 21.7801 54.0016 21.5094 54.0016H11.4896C11.2189 54.0016 10.9995 53.7778 10.9995 53.5016Z" fill="#333333"/>
<path fill-rule="evenodd" clip-rule="evenodd" d="M10.9995 40.4997C10.9995 40.2236 11.2189 39.9997 11.4896 39.9997H21.5094C21.7801 39.9997 21.9995 40.2236 21.9995 40.4997C21.9995 40.7758 21.7801 40.9997 21.5094 40.9997H11.4896C11.2189 40.9997 10.9995 40.7758 10.9995 40.4997Z" fill="#333333"/>
<path fill-rule="evenodd" clip-rule="evenodd" d="M10.9995 27.4997C10.9995 27.2236 11.2189 26.9997 11.4896 26.9997H21.5094C21.7801 26.9997 21.9995 27.2236 21.9995 27.4997C21.9995 27.7758 21.7801 27.9997 21.5094 27.9997H11.4896C11.2189 27.9997 10.9995 27.7758 10.9995 27.4997Z" fill="#333333"/>
<path fill-rule="evenodd" clip-rule="evenodd" d="M34.4995 15.9997C34.7757 15.9997 34.9995 16.2236 34.9995 16.4997L34.9995 101.5C34.9995 101.776 34.7757 102 34.4995 102C34.2234 102 33.9995 101.776 33.9995 101.5L33.9995 16.4997C33.9995 16.2236 34.2234 15.9997 34.4995 15.9997Z" fill="#333333"/>
<path d="M49.9995 59.0002V76.0002" stroke="url(#paint0_linear_125_1418)" stroke-width="6" stroke-linecap="round"/>
<path d="M94.9995 40.0002V76.0002" stroke="url(#paint1_linear_125_1418)" stroke-width="6" stroke-linecap="round"/>
<path d="M64.9995 52.0002V76.0002" stroke="url(#paint2_linear_125_1418)" stroke-width="6" stroke-linecap="round"/>
<path d="M110 31.0002V76.0002" stroke="url(#paint3_linear_125_1418)" stroke-width="6" stroke-linecap="round"/>
<path d="M79.9995 46.0002V76.0002" stroke="url(#paint4_linear_125_1418)" stroke-width="6" stroke-linecap="round"/>
<path fill-rule="evenodd" clip-rule="evenodd" d="M97.999 127C117.822 127 133.999 110.823 133.999 91.0001C133.999 71.1767 117.833 55.0001 97.999 55.0001C78.1756 55.0001 61.999 71.1664 61.999 91.0001C61.999 110.834 78.1756 127 97.999 127Z" fill="#BDECFF"/>
<path fill-rule="evenodd" clip-rule="evenodd" d="M134.999 91.0001C134.999 111.376 118.375 128 97.999 128C77.6236 128 60.999 111.386 60.999 91.0001C60.999 70.6139 77.6236 54.0001 97.999 54.0001C118.385 54.0001 134.999 70.6247 134.999 91.0001ZM133.999 91.0001C133.999 110.823 117.822 127 97.999 127C78.1756 127 61.999 110.834 61.999 91.0001C61.999 71.1664 78.1756 55.0001 97.999 55.0001C117.833 55.0001 133.999 71.1767 133.999 91.0001Z" fill="#333333"/>
<path fill-rule="evenodd" clip-rule="evenodd" d="M78.499 70.0001C78.7752 70.0001 78.999 70.224 78.999 70.5001V108.5C78.999 108.776 78.7752 109 78.499 109C78.2229 109 77.999 108.776 77.999 108.5V70.5001C77.999 70.224 78.2229 70.0001 78.499 70.0001ZM97.499 70.0001C97.7752 70.0001 97.999 70.224 97.999 70.5001V108.5C97.999 108.776 97.7752 109 97.499 109C97.2229 109 96.999 108.776 96.999 108.5V70.5001C96.999 70.224 97.2229 70.0001 97.499 70.0001ZM116.999 70.5001C116.999 70.224 116.775 70.0001 116.499 70.0001C116.223 70.0001 115.999 70.224 115.999 70.5001V108.5C115.999 108.776 116.223 109 116.499 109C116.775 109 116.999 108.776 116.999 108.5V70.5001Z" fill="#333333"/>
<path fill-rule="evenodd" clip-rule="evenodd" d="M78.499 96.0001C81.5224 96.0001 83.999 93.5342 83.999 90.5001C83.999 87.466 81.5331 85.0001 78.499 85.0001C75.4756 85.0001 72.999 87.466 72.999 90.5001C72.999 93.5342 75.4756 96.0001 78.499 96.0001Z" fill="url(#paint5_linear_125_1418)"/>
<path fill-rule="evenodd" clip-rule="evenodd" d="M78.499 95.0001C80.9714 95.0001 82.999 92.9807 82.999 90.5001C82.999 88.0183 80.9809 86.0001 78.499 86.0001C76.0267 86.0001 73.999 88.0196 73.999 90.5001C73.999 92.9807 76.0267 95.0001 78.499 95.0001ZM83.999 90.5001C83.999 93.5342 81.5224 96.0001 78.499 96.0001C75.4756 96.0001 72.999 93.5342 72.999 90.5001C72.999 87.466 75.4756 85.0001 78.499 85.0001C81.5331 85.0001 83.999 87.466 83.999 90.5001Z" fill="#333333"/>
<path fill-rule="evenodd" clip-rule="evenodd" d="M97.499 84.0001C100.522 84.0001 102.999 81.5342 102.999 78.5001C102.999 75.4767 100.533 73.0001 97.499 73.0001C94.4756 73.0001 91.999 75.466 91.999 78.5001C91.999 81.5342 94.4756 84.0001 97.499 84.0001Z" fill="white"/>
<path fill-rule="evenodd" clip-rule="evenodd" d="M97.499 83.0001C99.9714 83.0001 101.999 80.9807 101.999 78.5001C101.999 76.0277 99.9796 74.0001 97.499 74.0001C95.0266 74.0001 92.999 76.0196 92.999 78.5001C92.999 80.9807 95.0266 83.0001 97.499 83.0001ZM102.999 78.5001C102.999 81.5342 100.522 84.0001 97.499 84.0001C94.4756 84.0001 91.999 81.5342 91.999 78.5001C91.999 75.466 94.4756 73.0001 97.499 73.0001C100.533 73.0001 102.999 75.4767 102.999 78.5001Z" fill="#333333"/>
<path fill-rule="evenodd" clip-rule="evenodd" d="M116.499 109C119.522 109 121.999 106.534 121.999 103.5C121.999 100.477 119.533 98.0001 116.499 98.0001C113.476 98.0001 110.999 100.466 110.999 103.5C110.999 106.534 113.465 109 116.499 109Z" fill="url(#paint6_linear_125_1418)"/>
<path fill-rule="evenodd" clip-rule="evenodd" d="M116.499 108C118.971 108 120.999 105.981 120.999 103.5C120.999 101.028 118.98 99.0001 116.499 99.0001C114.027 99.0001 111.999 101.02 111.999 103.5C111.999 105.982 114.017 108 116.499 108ZM121.999 103.5C121.999 106.534 119.522 109 116.499 109C113.465 109 110.999 106.534 110.999 103.5C110.999 100.466 113.476 98.0001 116.499 98.0001C119.533 98.0001 121.999 100.477 121.999 103.5Z" fill="#333333"/>
</g>
<defs>
<linearGradient id="paint0_linear_125_1418" x1="49.9995" y1="46.2787" x2="49.9995" y2="78.7567" gradientUnits="userSpaceOnUse">
<stop stop-color="#FF8E3D"/>
<stop offset="1" stop-color="#FF6F3D"/>
</linearGradient>
<linearGradient id="paint1_linear_125_1418" x1="94.9995" y1="-7.43974" x2="94.9998" y2="83.7387" gradientUnits="userSpaceOnUse">
<stop stop-color="#FF8E3D"/>
<stop offset="1" stop-color="#FF6F3D"/>
</linearGradient>
<linearGradient id="paint2_linear_125_1418" x1="64.9995" y1="47.028" x2="64.9995" y2="78.6872" gradientUnits="userSpaceOnUse">
<stop stop-color="#FF8E3D"/>
<stop offset="1" stop-color="#FF6F3D"/>
</linearGradient>
<linearGradient id="paint3_linear_125_1418" x1="110" y1="31.4276" x2="110" y2="80.134" gradientUnits="userSpaceOnUse">
<stop stop-color="#FF8E3D"/>
<stop offset="1" stop-color="#FF6F3D"/>
</linearGradient>
<linearGradient id="paint4_linear_125_1418" x1="79.9995" y1="46.7494" x2="79.9995" y2="78.713" gradientUnits="userSpaceOnUse">
<stop stop-color="#FF8E3D"/>
<stop offset="1" stop-color="#FF6F3D"/>
</linearGradient>
<linearGradient id="paint5_linear_125_1418" x1="72.8426" y1="84.2741" x2="79.3536" y2="91.4458" gradientUnits="userSpaceOnUse">
<stop stop-color="#FFC671"/>
<stop offset="1" stop-color="#FF6F3D"/>
</linearGradient>
<linearGradient id="paint6_linear_125_1418" x1="110.838" y1="97.2748" x2="117.349" y2="104.446" gradientUnits="userSpaceOnUse">
<stop stop-color="#FFC671"/>
<stop offset="1" stop-color="#FF6F3D"/>
</linearGradient>
<clipPath id="clip0_125_1418">
<rect width="135" height="135" fill="white"/>
</clipPath>
</defs>
</svg>
