<svg width="135" height="135" viewBox="0 0 135 135" fill="none" xmlns="http://www.w3.org/2000/svg">
<path fill-rule="evenodd" clip-rule="evenodd" d="M119.041 97.0775C119.409 97.276 119.767 97.469 120.11 97.6537C125.689 100.711 126.614 107.411 127.412 113.194C127.442 113.414 127.472 113.632 127.502 113.849C119.534 119.499 110.637 121.244 101.607 122C99.9384 122 98.8338 121.543 98.1312 120.758C91.8767 120.436 81.7548 117.511 78 113.732C78.0696 113.241 78.1372 112.728 78.2068 112.201C78.8005 107.704 79.5366 102.128 82.8643 99.1726C84.8305 97.4265 91.5586 94.6669 95.7015 93.5321C96.4574 93.9056 97.0541 94.2961 97.6395 94.7416C99.2602 93.6313 102.771 92.9093 109.5 92.4999C111.472 92.9952 115.677 95.263 119.041 97.0775Z" fill="#E2E2E2"/>
<path d="M108.377 121C115.308 119.84 121.624 118.209 127.501 114.196C127.809 113.985 127.968 113.617 127.917 113.247C127.117 107.452 126.204 100.721 120.608 97.6535C117.181 95.8127 111.95 93.6178 109.693 93.0205C109.614 92.9995 109.534 92.9902 109.452 92.9902H96.1315C95.9971 92.9902 95.8641 93.0173 95.7404 93.0699L82.98 98.4921" stroke="#333333" stroke-linecap="round"/>
<path d="M95.8762 92.9411L95.8515 93.0417L95.8689 93.1438C96.54 97.0975 99.4268 99.134 102.425 99.134C105.414 99.134 108.431 97.1116 109.397 93.1795L109.432 93.0381L109.385 92.9002C108.887 91.4264 108.852 89.8891 108.835 88.2614V88.2614V88.2613V88.2612V88.261V88.2609V88.2608V88.2606V88.2605V88.2603V88.2602V88.26V88.2599V88.2597V88.2596V88.2594V88.2593V88.2591V88.259V88.2588V88.2586V88.2585V88.2583V88.2581V88.2579V88.2578V88.2576V88.2574V88.2572V88.257V88.2569V88.2567V88.2565V88.2563V88.2561V88.2559V88.2557V88.2555V88.2553V88.2551V88.2549V88.2547V88.2545V88.2543V88.254V88.2538V88.2536V88.2534V88.2532V88.2529V88.2527V88.2525V88.2523V88.252V88.2518V88.2516V88.2513V88.2511V88.2508V88.2506V88.2504V88.2501V88.2499V88.2496V88.2494V88.2491V88.2489V88.2486V88.2483V88.2481V88.2478V88.2475V88.2473V88.247V88.2467V88.2465V88.2462V88.2459V88.2456V88.2454V88.2451V88.2448V88.2445V88.2442V88.2439V88.2437V88.2434V88.2431V88.2428V88.2425V88.2422V88.2419V88.2416V88.2413V88.241V88.2407V88.2404V88.2401V88.2398V88.2394V88.2391V88.2388V88.2385V88.2382V88.2379V88.2375V88.2372V88.2369V88.2366V88.2362V88.2359V88.2356V88.2352V88.2349V88.2346V88.2342V88.2339V88.2336V88.2332V88.2329V88.2325V88.2322V88.2318V88.2315V88.2311V88.2308V88.2304V88.2301V88.2297V88.2294V88.229V88.2286V88.2283V88.2279V88.2275V88.2272V88.2268V88.2264V88.2261V88.2257V88.2253V88.225V88.2246V88.2242V88.2238V88.2234V88.2231V88.2227V88.2223V88.2219V88.2215V88.2211V88.2207V88.2204V88.22V88.2196V88.2192V88.2188V88.2184V88.218V88.2176V88.2172V88.2168V88.2164V88.216V88.2156V88.2152V88.2148V88.2143V88.2139V88.2135V88.2131V88.2127V88.2123V88.2119V88.2115V88.211V88.2106V88.2102V88.2098V88.2093V88.2089V88.2085V88.2081V88.2076V88.2072V88.2068V88.2064V88.2059V88.2055V88.2051V88.2046V88.2042V88.2038V88.2033V88.2029V88.2024V88.202V88.2016V88.2011V88.2007V88.2002V88.1998V88.1993V88.1989V88.1984V88.198V88.1975V88.1971V88.1966V88.1962V88.1957V88.1953V88.1948V88.1943V88.1939V88.1934V88.193V88.1925V88.192V88.1916V88.1911V88.1907V88.1902V88.1897V88.1893V88.1888V88.1883V88.1879V88.1874V88.1869V88.1864V88.186V88.1855V88.185V88.1845V88.1841V88.1836V88.1831V88.1826V88.1822V88.1817V88.1812V88.1807V88.1802V88.1798V88.1793V88.1788V88.1783V88.1778V88.1773V88.1768V88.1764V88.1759V88.1754V88.1749V88.1744V88.1739V88.1734V88.1729V88.1724V88.1719V88.1714V88.1709V88.1704V88.17V88.1695V88.169V88.1685V88.168V88.1675V88.167V88.1665V88.166V88.1655V88.165V88.1645V88.164V88.1635V88.163V88.1624V88.1619V88.1614V88.1609V88.1604V88.1599V88.1594V88.1589V88.1584V88.1579V88.1574V88.1569V88.1564V88.1558V88.1553V88.1548V88.1543V88.1538V88.1533V88.1528V88.1523V88.1517V88.1512V88.1507V88.1502V88.1497V88.1492V88.1487V88.1481V88.1476V88.1471V88.1466V88.1461V88.1456V88.145V88.1445V88.144V88.1435V88.143V88.1424V88.1419V88.1414V88.1409V88.1404V88.1398V88.1393V88.1388V88.1383V88.1378V88.1372V88.1367V88.1362V88.1357V88.1351V88.1346V88.1341V88.1336V88.1331V88.1325V88.132V88.1315V88.131V88.1304V88.1299V88.1294V88.1289V88.1283V88.1278V88.1273V88.1268V88.1262V88.1257V88.1252V88.1247V88.1241V88.1236V88.1231V88.1226V88.122V88.1215V88.121V88.1205V88.1199V88.1194V88.1189V88.1184V88.1178V88.1173V88.1168V88.1163V88.1157V88.1152V88.1147V88.1141V88.1136V88.1131V88.1126V88.112V88.1115V88.111V88.1105V88.1099V88.1094V88.1089V88.1084V88.1079V88.1073V88.1068V88.1063V88.1058V88.1052V88.1047V88.1042V88.1037V88.1031V88.1026V88.1021V88.1016V88.1011V88.1005V88.1V88.0995V88.099V88.0984V88.0979V88.0974V88.0969V88.0964V88.0958V88.0953V88.0948V88.0943V88.0938V88.0933V88.0927V88.0922V88.0917V88.0912V88.0907V88.0901V88.0896V88.0891V88.0886V88.0881V88.0876V88.0871V88.0865V88.086V88.0855V88.085V88.0845V88.084V88.0835V88.083V88.0824V88.0819V88.0814V88.0809V88.0804V88.0799V88.0794V88.0789V88.0784V88.0779V88.0774V88.0769V88.0764V88.0759V88.0753V88.0748V88.0743V88.0738V88.0733V88.0728V88.0723V88.0718V88.0713V88.0708V88.0703V88.0698V88.0693V88.0688V88.0684V88.0679V88.0674V88.0669V88.0664V88.0659V88.0654V88.0649V88.0644V88.0639V88.0634V88.0629V88.0624V88.062V88.0615V88.061V88.0605V88.06V88.0595V88.059V88.0586V88.0581V88.0576V88.0571V88.0566V87.0623L108.037 87.6553C106.404 88.8689 104.491 89.5646 102.446 89.5646C100.524 89.5646 98.7154 88.951 97.1515 87.8692L96.3671 87.3265V88.2804V88.2807V88.281V88.2813V88.2816V88.282V88.2823V88.2826V88.2829V88.2832V88.2835V88.2839V88.2842V88.2845V88.2848V88.2851V88.2855V88.2858V88.2861V88.2864V88.2867V88.2871V88.2874V88.2877V88.288V88.2883V88.2887V88.289V88.2893V88.2896V88.2899V88.2903V88.2906V88.2909V88.2912V88.2915V88.2918V88.2922V88.2925V88.2928V88.2931V88.2934V88.2938V88.2941V88.2944V88.2947V88.295V88.2953V88.2957V88.296V88.2963V88.2966V88.2969V88.2972V88.2976V88.2979V88.2982V88.2985V88.2988V88.2991V88.2995V88.2998V88.3001V88.3004V88.3007V88.301V88.3013V88.3017V88.302V88.3023V88.3026V88.3029V88.3032V88.3035V88.3039V88.3042V88.3045V88.3048V88.3051V88.3054V88.3057V88.3061V88.3064V88.3067V88.307V88.3073V88.3076V88.3079V88.3082V88.3085V88.3089V88.3092V88.3095V88.3098V88.3101V88.3104V88.3107V88.311V88.3113V88.3116V88.312V88.3123V88.3126V88.3129V88.3132V88.3135V88.3138V88.3141V88.3144V88.3147V88.315V88.3153V88.3156V88.316V88.3163V88.3166V88.3169V88.3172V88.3175V88.3178V88.3181V88.3184V88.3187V88.319V88.3193V88.3196V88.3199V88.3202V88.3205V88.3208V88.3211V88.3214V88.3217V88.322V88.3223V88.3226V88.3229V88.3232V88.3235V88.3238V88.3241V88.3244V88.3247V88.325V88.3253V88.3256V88.3259V88.3262V88.3265V88.3268V88.3271V88.3274V88.3277V88.328V88.3283V88.3285V88.3288V88.3291V88.3294V88.3297V88.33V88.3303V88.3306V88.3309V88.3312V88.3315V88.3318V88.332V88.3323V88.3326V88.3329V88.3332V88.3335V88.3338V88.3341V88.3343V88.3346V88.3349V88.3352V88.3355V88.3358V88.3361V88.3363V88.3366V88.3369V88.3372V88.3375V88.3377V88.338V88.3383V88.3386V88.3389V88.3391V88.3394V88.3397V88.34V88.3403V88.3405V88.3408V88.3411V88.3414V88.3416V88.3419V88.3422V88.3425V88.3427V88.343V88.3433V88.3436V88.3438V88.3441V88.3444V88.3446V88.3449V88.3452V88.3455V88.3457V88.346V88.3463V88.3465V88.3468V88.3471V88.3473V88.3476V88.3479V88.3481V88.3484V88.3486V88.3489V88.3492V88.3494V88.3497V88.35V88.3502V88.3505V88.3507V88.351V88.3513V88.3515V88.3518V88.352V88.3523V88.3525V88.3528V88.353V88.3533V88.3536V88.3538V88.3541V88.3543V88.3546V88.3548V88.3551V88.3553V88.3556V88.3558V88.3561V88.3563V88.3566V88.3568V88.357V88.3573V88.3575V88.3578V88.358V88.3583V88.3585V88.3588V88.359V88.3592V88.3595V88.3597V88.36V88.3602V88.3604V88.3607V88.3609V88.3611V88.3614V88.3616V88.3618V88.3621V88.3623V88.3625V88.3628V88.363V88.3632V88.3635V88.3637V88.3639V88.3641V88.3644V88.3646V88.3648V88.3651V88.3653V88.3655V88.3657V88.3659V88.3662V88.3664V88.3666V88.3668V88.367V88.3673V88.3675V88.3677V88.3679V88.3681V88.3684V88.3686V88.3688V88.369V88.3692V88.3694V88.3696V88.3698V88.37V88.3703V88.3705V88.3707V88.3709V88.3711V88.3713V88.3715V88.3717V88.3719V88.3721V88.3723V88.3725V88.3727V88.3729V88.3731V88.3733V88.3735V88.3737V88.3739V88.3741V88.3743V88.3745V88.3747V88.3749V88.3751V88.3753V88.3754V88.3756V88.3758V88.376V88.3762V88.3764V88.3766V88.3768V88.3769V88.3771V88.3773V88.3775V88.3777V88.3778V88.378V88.3782V88.3784V88.3786V88.3787V88.3789V88.3791V88.3793V88.3794V88.3796V88.3798V88.3799V88.3801V88.3803V88.3805V88.3806V88.3808V88.381V88.3811V88.3813V88.3814V88.3816V88.3818V88.3819V88.3821V88.3822V88.3823C96.3646 88.4304 96.3622 88.4784 96.3598 88.5264C96.2807 90.0945 96.2047 91.6011 95.8762 92.9411Z" fill="#FEFEFE" stroke="#333333"/>
<path fill-rule="evenodd" clip-rule="evenodd" d="M102.448 90.0653C104.61 90.0653 106.625 89.3287 108.337 88.0573C109.086 87.5008 109.776 86.8351 110.396 86.0875C111.531 84.7125 112.422 83.0374 112.982 81.1768C113.405 79.7527 113.639 78.2194 113.639 76.6261C113.639 76.0696 113.612 75.5185 113.557 74.9783C111.015 74.7491 102.328 74.2417 99.514 66.248C98.346 69.1399 97.1236 70.6241 91.8213 72.3974C91.4574 73.7288 91.2563 75.1474 91.2563 76.6261C91.2563 77.4992 91.327 78.3504 91.4574 79.1743C91.8865 81.8425 92.9676 84.2378 94.4997 86.0875C95.2005 86.9387 95.9991 87.6754 96.8683 88.2756C98.509 89.416 100.416 90.0653 102.448 90.0653Z" fill="#FEFEFE"/>
<path fill-rule="evenodd" clip-rule="evenodd" d="M99.513 66.2427C102.322 74.2364 111.009 74.7438 113.556 74.973C113.766 77.052 113.577 79.174 112.981 81.1769C120.93 61.9614 102.609 58.3909 99.2468 62.5487C91.8258 61.9614 87.8434 71.8484 91.4618 79.1744C91.1051 76.9206 91.2238 74.5937 91.8258 72.3921C97.1226 70.6188 98.345 69.1346 99.513 66.2427Z" fill="#AAAAAA" stroke="#333333" stroke-linejoin="round"/>
<path d="M91.9458 72.3984C90.0318 78.9898 92.4892 86.1336 98.4285 89.215C101.046 90.5786 104.174 90.5731 106.792 89.215C111.865 86.5833 114.095 80.6376 113.548 74.8702" stroke="#333333"/>
<path d="M118.338 116.498L117.749 113.391" stroke="#333333" stroke-linecap="round" stroke-linejoin="round"/>
<path fill-rule="evenodd" clip-rule="evenodd" d="M39.6664 119.735C45.9838 119.406 56.2075 116.427 60 112.577C59.9297 112.077 59.8614 111.555 59.7911 111.018C59.1915 106.437 58.448 100.757 55.0868 97.7459C53.1009 95.9672 46.3051 93.156 42.1206 92C41.2009 92.4583 40.5145 92.9418 39.8003 93.518C38.0186 92.8143 34.6561 92.36 28.7901 92C26.5806 92.5598 20.9889 94.2901 17.4662 96.1986C11.8313 99.3135 10.8975 106.138 10.0915 112.029C10.0609 112.253 10.0305 112.476 10 112.696C17.4075 117.994 25.5807 119.303 33.9737 120.648C34.6997 120.764 35.4273 120.881 36.1561 121C37.841 121 38.9567 120.534 39.6664 119.735Z" fill="#E2E2E2"/>
<path fill-rule="evenodd" clip-rule="evenodd" d="M42.777 91.1205C42.5906 91.041 42.3903 91 42.1879 91H28.7043C28.583 91 28.4597 91.0139 28.3339 91.0473L28.4623 91.5386L28.3339 91.0473C25.9986 91.6676 20.6647 93.917 17.1775 95.7975L17.1738 95.7995C14.202 97.4346 12.373 100.083 11.1844 103.037C9.99863 105.983 9.43583 109.269 9.01527 112.225C8.93976 112.756 9.14652 113.299 9.58545 113.631C14.8038 117.567 23.6397 120.004 30.0203 120.994C30.2955 121.037 30.5528 120.846 30.5951 120.569C30.6374 120.292 30.4487 120.032 30.1736 119.99C23.8351 119.006 15.2031 116.599 10.1893 112.817C10.0585 112.718 9.98751 112.549 10.013 112.369C10.4327 109.42 10.9826 106.241 12.1184 103.419C13.2511 100.604 14.9521 98.1802 17.6549 96.6925C21.1047 94.8325 26.3601 92.6225 28.5907 92.03C28.6244 92.0211 28.6606 92.0162 28.7043 92.0162H42.1879C42.2554 92.0162 42.3222 92.0299 42.3843 92.0564L55.2995 97.5654C55.5559 97.6747 55.8516 97.5539 55.96 97.2954C56.0685 97.037 55.9486 96.7388 55.6923 96.6295L42.777 91.1205L42.5807 91.5884L42.777 91.1205Z" fill="#333333"/>
<path d="M42.4857 92.0848L42.5102 92.1851L42.493 92.2868C41.7996 96.3876 38.8176 98.5 35.7193 98.5C32.6301 98.5 29.5128 96.4019 28.5143 92.3223L28.4799 92.1815L28.5261 92.044C29.0429 90.5076 29.0796 88.9056 29.0965 87.2132V87.2131V87.213V87.2128V87.2127V87.2126V87.2124V87.2123V87.2121V87.212V87.2118V87.2117V87.2115V87.2114V87.2112V87.2111V87.2109V87.2107V87.2106V87.2104V87.2102V87.2101V87.2099V87.2097V87.2095V87.2094V87.2092V87.209V87.2088V87.2086V87.2084V87.2082V87.208V87.2078V87.2076V87.2074V87.2072V87.207V87.2068V87.2066V87.2064V87.2062V87.206V87.2057V87.2055V87.2053V87.2051V87.2048V87.2046V87.2044V87.2041V87.2039V87.2037V87.2034V87.2032V87.203V87.2027V87.2025V87.2022V87.202V87.2017V87.2015V87.2012V87.2009V87.2007V87.2004V87.2002V87.1999V87.1996V87.1994V87.1991V87.1988V87.1985V87.1983V87.198V87.1977V87.1974V87.1971V87.1968V87.1966V87.1963V87.196V87.1957V87.1954V87.1951V87.1948V87.1945V87.1942V87.1939V87.1936V87.1933V87.193V87.1927V87.1923V87.192V87.1917V87.1914V87.1911V87.1907V87.1904V87.1901V87.1898V87.1894V87.1891V87.1888V87.1885V87.1881V87.1878V87.1874V87.1871V87.1868V87.1864V87.1861V87.1857V87.1854V87.185V87.1847V87.1843V87.184V87.1836V87.1833V87.1829V87.1825V87.1822V87.1818V87.1815V87.1811V87.1807V87.1804V87.18V87.1796V87.1792V87.1789V87.1785V87.1781V87.1777V87.1774V87.177V87.1766V87.1762V87.1758V87.1754V87.175V87.1746V87.1743V87.1739V87.1735V87.1731V87.1727V87.1723V87.1719V87.1715V87.1711V87.1707V87.1703V87.1698V87.1694V87.169V87.1686V87.1682V87.1678V87.1674V87.167V87.1665V87.1661V87.1657V87.1653V87.1649V87.1644V87.164V87.1636V87.1632V87.1627V87.1623V87.1619V87.1614V87.161V87.1606V87.1601V87.1597V87.1592V87.1588V87.1584V87.1579V87.1575V87.157V87.1566V87.1561V87.1557V87.1553V87.1548V87.1544V87.1539V87.1534V87.153V87.1525V87.1521V87.1516V87.1512V87.1507V87.1502V87.1498V87.1493V87.1489V87.1484V87.1479V87.1475V87.147V87.1465V87.1461V87.1456V87.1451V87.1446V87.1442V87.1437V87.1432V87.1427V87.1423V87.1418V87.1413V87.1408V87.1403V87.1399V87.1394V87.1389V87.1384V87.1379V87.1374V87.1369V87.1365V87.136V87.1355V87.135V87.1345V87.134V87.1335V87.133V87.1325V87.132V87.1315V87.131V87.1305V87.13V87.1295V87.129V87.1285V87.128V87.1275V87.127V87.1265V87.126V87.1255V87.125V87.1245V87.124V87.1235V87.123V87.1225V87.1219V87.1214V87.1209V87.1204V87.1199V87.1194V87.1189V87.1184V87.1178V87.1173V87.1168V87.1163V87.1158V87.1153V87.1147V87.1142V87.1137V87.1132V87.1126V87.1121V87.1116V87.1111V87.1106V87.11V87.1095V87.109V87.1085V87.1079V87.1074V87.1069V87.1063V87.1058V87.1053V87.1048V87.1042V87.1037V87.1032V87.1026V87.1021V87.1016V87.101V87.1005V87.1V87.0994V87.0989V87.0984V87.0978V87.0973V87.0968V87.0962V87.0957V87.0952V87.0946V87.0941V87.0935V87.093V87.0925V87.0919V87.0914V87.0909V87.0903V87.0898V87.0892V87.0887V87.0881V87.0876V87.0871V87.0865V87.086V87.0854V87.0849V87.0844V87.0838V87.0833V87.0827V87.0822V87.0816V87.0811V87.0806V87.08V87.0795V87.0789V87.0784V87.0778V87.0773V87.0767V87.0762V87.0756V87.0751V87.0746V87.074V87.0735V87.0729V87.0724V87.0718V87.0713V87.0707V87.0702V87.0696V87.0691V87.0686V87.068V87.0675V87.0669V87.0664V87.0658V87.0653V87.0647V87.0642V87.0636V87.0631V87.0625V87.062V87.0614V87.0609V87.0604V87.0598V87.0593V87.0587V87.0582V87.0576V87.0571V87.0565V87.056V87.0554V87.0549V87.0543V87.0538V87.0533V87.0527V87.0522V87.0516V87.0511V87.0505V87.05V87.0494V87.0489V87.0484V87.0478V87.0473V87.0467V87.0462V87.0456V87.0451V87.0446V87.044V87.0435V87.0429V87.0424V87.0419V87.0413V87.0408V87.0402V87.0397V87.0392V87.0386V87.0381V87.0375V87.037V87.0365V87.0359V87.0354V87.0348V87.0343V87.0338V87.0332V87.0327V87.0322V87.0316V87.0311V87.0306V87.03V87.0295V87.029V87.0284V87.0279V87.0274V87.0268V87.0263V87.0258V87.0252V87.0247V87.0242V87.0237V87.0231V87.0226V87.0221V87.0216V87.021V87.0205V87.02V87.0195V87.0189V87.0184V87.0179V87.0174V87.0168V87.0163V87.0158V87.0153V87.0148V87.0142V87.0137V87.0132V87.0127V87.0122V87.0117V87.0111V87.0106V87.0101V87.0096V87.0091V87.0086V87.0081V87.0076V87.0071V87.0065V87.006V87.0055V87.005V87.0045V87.004V87.0035V87.003V87.0025V87.002V87.0015V87.001V87.0005V87V86.0033L29.8955 86.5992C31.5905 87.8634 33.5752 88.5882 35.697 88.5882C37.6916 88.5882 39.5686 87.9489 41.1914 86.822L41.9766 86.2767V87.2327V87.233V87.2333V87.2336V87.234V87.2343V87.2346V87.235V87.2353V87.2356V87.236V87.2363V87.2366V87.237V87.2373V87.2376V87.238V87.2383V87.2386V87.239V87.2393V87.2396V87.24V87.2403V87.2406V87.241V87.2413V87.2416V87.242V87.2423V87.2426V87.2429V87.2433V87.2436V87.2439V87.2443V87.2446V87.2449V87.2453V87.2456V87.2459V87.2463V87.2466V87.2469V87.2472V87.2476V87.2479V87.2482V87.2486V87.2489V87.2492V87.2496V87.2499V87.2502V87.2505V87.2509V87.2512V87.2515V87.2519V87.2522V87.2525V87.2528V87.2532V87.2535V87.2538V87.2542V87.2545V87.2548V87.2551V87.2555V87.2558V87.2561V87.2564V87.2568V87.2571V87.2574V87.2578V87.2581V87.2584V87.2587V87.2591V87.2594V87.2597V87.26V87.2604V87.2607V87.261V87.2613V87.2616V87.262V87.2623V87.2626V87.2629V87.2633V87.2636V87.2639V87.2642V87.2646V87.2649V87.2652V87.2655V87.2658V87.2662V87.2665V87.2668V87.2671V87.2674V87.2678V87.2681V87.2684V87.2687V87.269V87.2694V87.2697V87.27V87.2703V87.2706V87.2709V87.2713V87.2716V87.2719V87.2722V87.2725V87.2728V87.2732V87.2735V87.2738V87.2741V87.2744V87.2747V87.275V87.2754V87.2757V87.276V87.2763V87.2766V87.2769V87.2772V87.2775V87.2778V87.2782V87.2785V87.2788V87.2791V87.2794V87.2797V87.28V87.2803V87.2806V87.2809V87.2812V87.2815V87.2819V87.2822V87.2825V87.2828V87.2831V87.2834V87.2837V87.284V87.2843V87.2846V87.2849V87.2852V87.2855V87.2858V87.2861V87.2864V87.2867V87.287V87.2873V87.2876V87.2879V87.2882V87.2885V87.2888V87.2891V87.2894V87.2897V87.29V87.2903V87.2906V87.2909V87.2912V87.2915V87.2918V87.292V87.2923V87.2926V87.2929V87.2932V87.2935V87.2938V87.2941V87.2944V87.2947V87.295V87.2952V87.2955V87.2958V87.2961V87.2964V87.2967V87.297V87.2972V87.2975V87.2978V87.2981V87.2984V87.2987V87.2989V87.2992V87.2995V87.2998V87.3001V87.3004V87.3006V87.3009V87.3012V87.3015V87.3017V87.302V87.3023V87.3026V87.3029V87.3031V87.3034V87.3037V87.3039V87.3042V87.3045V87.3048V87.305V87.3053V87.3056V87.3058V87.3061V87.3064V87.3067V87.3069V87.3072V87.3075V87.3077V87.308V87.3083V87.3085V87.3088V87.309V87.3093V87.3096V87.3098V87.3101V87.3103V87.3106V87.3109V87.3111V87.3114V87.3116V87.3119V87.3122V87.3124V87.3127V87.3129V87.3132V87.3134V87.3137V87.3139V87.3142V87.3144V87.3147V87.3149V87.3152V87.3154V87.3157V87.3159V87.3162V87.3164V87.3167V87.3169V87.3172V87.3174V87.3176V87.3179V87.3181V87.3184V87.3186V87.3188V87.3191V87.3193V87.3196V87.3198V87.32V87.3203V87.3205V87.3207V87.321V87.3212V87.3214V87.3217V87.3219V87.3221V87.3224V87.3226V87.3228V87.323V87.3233V87.3235V87.3237V87.3239V87.3242V87.3244V87.3246V87.3248V87.3251V87.3253V87.3255V87.3257V87.3259V87.3261V87.3264V87.3266V87.3268V87.327V87.3272V87.3274V87.3276V87.3279V87.3281V87.3283V87.3285V87.3287V87.3289V87.3291V87.3293V87.3295V87.3297V87.3299V87.3301V87.3303V87.3305V87.3307V87.3309V87.3311V87.3313V87.3315V87.3317V87.3319V87.3321V87.3323V87.3325V87.3327V87.3329V87.3331V87.3333V87.3335V87.3337V87.3338V87.334V87.3342V87.3344V87.3346V87.3348V87.335V87.3351V87.3353V87.3355V87.3357V87.3359V87.336V87.3362V87.3364V87.3366V87.3367V87.3369V87.3371V87.3373V87.3374V87.3376V87.3378V87.3379V87.3381V87.3383V87.3385V87.3386V87.3388V87.3389V87.3391V87.3392C41.9792 87.3897 41.9817 87.4402 41.9842 87.4906C42.0661 89.1206 42.1449 90.6892 42.4857 92.0848Z" fill="#FEFEFE" stroke="#333333"/>
<path fill-rule="evenodd" clip-rule="evenodd" d="M35.5 89C33.2782 89 31.207 88.2577 29.4485 86.9766C28.6782 86.4158 27.9692 85.745 27.3328 84.9918C26.166 83.6062 25.2505 81.9182 24.6755 80.0433C24.2401 78.6082 24 77.0632 24 75.4577C24 74.8969 24.0279 74.3416 24.0837 73.7973C26.6964 73.5663 35.6228 73.055 38.5146 65C39.7148 67.9141 40.9709 69.4096 46.4194 71.1966C46.7934 72.5381 47 73.9677 47 75.4577C47 76.3375 46.9274 77.1952 46.7934 78.0254C46.3524 80.7141 45.2415 83.1278 43.6672 84.9918C42.9471 85.8495 42.1265 86.5918 41.2333 87.1966C39.5473 88.3457 37.5879 89 35.5 89Z" fill="#FEFEFE"/>
<path d="M46.3424 71C48.3147 77.6515 45.7825 84.8605 39.6625 87.9701C36.9654 89.3461 33.742 89.3405 31.0443 87.9701C25.8175 85.3143 23.5196 79.3144 24.0832 73.4943" stroke="#333333"/>
<path d="M19.1705 116.046L19.8282 112.954" stroke="#333333" stroke-linecap="round" stroke-linejoin="round"/>
<path fill-rule="evenodd" clip-rule="evenodd" d="M38.5389 65.1967C35.7137 73.1203 26.9759 73.6233 24.413 73.8505C24.2027 75.9112 23.9005 78.0146 24.5 80C16.5037 60.953 35.4242 57.4138 38.8067 61.5351C46.2712 60.953 50.6394 70.7383 46.9999 78C47.3586 75.766 46.8767 73.4745 46.2713 71.2922C40.9433 69.5344 39.7138 68.0633 38.5389 65.1967Z" fill="#AAAAAA" stroke="#333333" stroke-linejoin="round"/>
<mask id="path-15-outside-1_125_1507" maskUnits="userSpaceOnUse" x="33" y="93.8547" width="72" height="42" fill="black">
<rect fill="white" x="33" y="93.8547" width="72" height="42"/>
<path fill-rule="evenodd" clip-rule="evenodd" d="M77.8102 95.8547C81.5853 96.7011 88.0551 99.0047 92.8459 101.588C100.509 105.805 101.779 115.045 102.875 123.021C102.917 123.323 102.958 123.625 103 123.923C94.3613 129.233 84.9625 132.946 74.816 133.799C74.8018 132.687 74.7975 131.552 74.7933 130.403C74.7641 122.58 74.7324 114.061 71.5073 107.089C72.7833 104.049 73.1982 103.445 73.9642 102.331C74.658 101.321 75.6398 99.8925 77.8102 95.8547ZM66.306 107.466L62.7961 100.83C61.3065 99.5781 59.4346 98.8587 57.6858 98.1866C56.7886 97.8418 55.9238 97.5095 55.1597 97.124C50.5457 98.3935 44.4627 100.788 41.7388 103.257C37.1287 107.437 36.109 115.323 35.2865 121.683C35.1901 122.428 35.0964 123.153 35 123.848C40.2587 129.251 54.5324 133.419 63.1717 133.798C63.1717 132.921 63.1665 132.025 63.1612 131.115C63.1154 123.272 63.0635 114.393 66.306 107.466Z"/>
</mask>
<path fill-rule="evenodd" clip-rule="evenodd" d="M77.8102 95.8547C81.5853 96.7011 88.0551 99.0047 92.8459 101.588C100.509 105.805 101.779 115.045 102.875 123.021C102.917 123.323 102.958 123.625 103 123.923C94.3613 129.233 84.9625 132.946 74.816 133.799C74.8018 132.687 74.7975 131.552 74.7933 130.403C74.7641 122.58 74.7324 114.061 71.5073 107.089C72.7833 104.049 73.1982 103.445 73.9642 102.331C74.658 101.321 75.6398 99.8925 77.8102 95.8547ZM66.306 107.466L62.7961 100.83C61.3065 99.5781 59.4346 98.8587 57.6858 98.1866C56.7886 97.8418 55.9238 97.5095 55.1597 97.124C50.5457 98.3935 44.4627 100.788 41.7388 103.257C37.1287 107.437 36.109 115.323 35.2865 121.683C35.1901 122.428 35.0964 123.153 35 123.848C40.2587 129.251 54.5324 133.419 63.1717 133.798C63.1717 132.921 63.1665 132.025 63.1612 131.115C63.1154 123.272 63.0635 114.393 66.306 107.466Z" fill="#FEFEFE"/>
<path d="M92.8459 101.588L93.328 100.712L93.3206 100.708L92.8459 101.588ZM77.8102 95.8547L78.029 94.879L77.2886 94.713L76.9294 95.3813L77.8102 95.8547ZM102.875 123.021L103.866 122.884L103.866 122.884L102.875 123.021ZM103 123.923L103.524 124.775L104.08 124.433L103.99 123.786L103 123.923ZM74.816 133.799L73.8161 133.811L73.8299 134.885L74.8998 134.795L74.816 133.799ZM74.7933 130.403L73.7933 130.407L73.7933 130.407L74.7933 130.403ZM71.5073 107.089L70.5852 106.702L70.4146 107.109L70.5997 107.509L71.5073 107.089ZM73.9642 102.331L74.7883 102.897L74.7883 102.897L73.9642 102.331ZM62.7961 100.83L63.68 100.363L63.5888 100.19L63.4396 100.065L62.7961 100.83ZM66.306 107.466L67.2117 107.89L67.4229 107.438L67.19 106.998L66.306 107.466ZM57.6858 98.1866L58.0445 97.2532L58.0445 97.2532L57.6858 98.1866ZM55.1597 97.124L55.61 96.2312L55.266 96.0576L54.8944 96.1598L55.1597 97.124ZM41.7388 103.257L41.0672 102.516L41.0671 102.516L41.7388 103.257ZM35.2865 121.683L34.2948 121.555L35.2865 121.683ZM35 123.848L34.0095 123.711L33.9423 124.195L34.2834 124.545L35 123.848ZM63.1717 133.798L63.1279 134.797L64.1717 134.843V133.798H63.1717ZM63.1612 131.115L62.1612 131.121L62.1612 131.121L63.1612 131.115ZM93.3206 100.708C88.4493 98.0812 81.8935 95.7453 78.029 94.879L77.5915 96.8305C81.2772 97.6568 87.6608 99.9282 92.3712 102.469L93.3206 100.708ZM103.866 122.884C103.321 118.918 102.718 114.503 101.262 110.549C99.7959 106.57 97.4358 102.973 93.328 100.712L92.3638 102.465C95.9195 104.421 98.026 107.552 99.385 111.241C100.753 114.955 101.334 119.148 101.885 123.157L103.866 122.884ZM103.99 123.786C103.949 123.488 103.908 123.187 103.866 122.884L101.885 123.157C101.926 123.459 101.968 123.761 102.009 124.061L103.99 123.786ZM74.8998 134.795C85.2399 133.926 94.7881 130.145 103.524 124.775L102.476 123.072C93.9345 128.322 84.6852 131.965 74.7323 132.802L74.8998 134.795ZM73.7933 130.407C73.7975 131.555 73.8018 132.694 73.8161 133.811L75.8159 133.786C75.8017 132.679 75.7975 131.55 75.7932 130.4L73.7933 130.407ZM70.5997 107.509C73.7161 114.246 73.7639 122.53 73.7933 130.407L75.7932 130.4C75.7643 122.63 75.7486 113.876 72.4149 106.67L70.5997 107.509ZM73.1401 101.764C72.3295 102.944 71.8833 103.609 70.5852 106.702L72.4294 107.476C73.6833 104.489 74.0669 103.947 74.7883 102.897L73.1401 101.764ZM76.9294 95.3813C74.7765 99.3863 73.8138 100.784 73.1401 101.764L74.7883 102.897C75.5022 101.858 76.503 100.399 78.691 96.3282L76.9294 95.3813ZM61.9121 101.298L65.4221 107.933L67.19 106.998L63.68 100.363L61.9121 101.298ZM57.327 99.12C59.1049 99.8033 60.8131 100.47 62.1526 101.596L63.4396 100.065C61.8 98.6865 59.7643 97.9141 58.0445 97.2532L57.327 99.12ZM54.7093 98.0169C55.5267 98.4292 56.4409 98.7795 57.327 99.12L58.0445 97.2532C57.1363 96.9041 56.321 96.5898 55.61 96.2312L54.7093 98.0169ZM42.4105 103.998C43.6491 102.875 45.7293 101.711 48.1411 100.657C50.5307 99.612 53.1593 98.7115 55.425 98.0882L54.8944 96.1598C52.5461 96.806 49.8261 97.7373 47.3399 98.8243C44.8757 99.9017 42.5525 101.17 41.0672 102.516L42.4105 103.998ZM36.2783 121.811C36.6912 118.618 37.144 115.131 38.0543 111.926C38.9658 108.716 40.3054 105.907 42.4106 103.998L41.0671 102.516C38.5622 104.788 37.0868 108.012 36.1303 111.379C35.1726 114.752 34.7043 118.388 34.2948 121.555L36.2783 121.811ZM35.9905 123.985C36.0877 123.285 36.182 122.556 36.2783 121.811L34.2948 121.555C34.1983 122.301 34.1052 123.021 34.0095 123.711L35.9905 123.985ZM63.2155 132.799C59.008 132.615 53.3724 131.501 48.1338 129.758C42.8615 128.005 38.1715 125.673 35.7166 123.151L34.2834 124.545C37.0873 127.426 42.1634 129.88 47.5025 131.656C52.8752 133.443 58.6961 134.603 63.1279 134.797L63.2155 132.799ZM62.1612 131.121C62.1665 132.032 62.1717 132.924 62.1717 133.798H64.1717C64.1717 132.918 64.1665 132.019 64.1611 131.109L62.1612 131.121ZM65.4004 107.042C62.0437 114.213 62.1157 123.339 62.1612 131.121L64.1611 131.109C64.115 123.205 64.0833 114.573 67.2117 107.89L65.4004 107.042Z" fill="#333333" mask="url(#path-15-outside-1_125_1507)"/>
<path d="M59.7384 95.1187L59.6736 95.384L59.8619 95.5819C60.8368 96.6064 62.2375 97.3394 63.8063 97.8151C65.3798 98.2923 67.155 98.5206 68.9158 98.5125C70.6767 98.5043 72.4396 98.2594 73.989 97.7781C75.5325 97.2987 76.8995 96.5733 77.8284 95.5785L78.0319 95.3605L77.9369 95.0779C77.2421 93.0111 77.1944 90.8602 77.1719 88.617V88.617V88.6168V88.6166V88.6165V88.6163V88.6161V88.616V88.6158V88.6156V88.6154V88.6153V88.6151V88.6149V88.6147V88.6145V88.6143V88.6141V88.6139V88.6137V88.6135V88.6133V88.613V88.6128V88.6126V88.6124V88.6121V88.6119V88.6117V88.6114V88.6112V88.611V88.6107V88.6105V88.6102V88.61V88.6097V88.6094V88.6092V88.6089V88.6086V88.6084V88.6081V88.6078V88.6075V88.6073V88.607V88.6067V88.6064V88.6061V88.6058V88.6055V88.6052V88.6049V88.6046V88.6043V88.604V88.6037V88.6033V88.603V88.6027V88.6024V88.6021V88.6017V88.6014V88.6011V88.6007V88.6004V88.6V88.5997V88.5993V88.599V88.5986V88.5983V88.5979V88.5976V88.5972V88.5968V88.5965V88.5961V88.5957V88.5954V88.595V88.5946V88.5942V88.5938V88.5934V88.5931V88.5927V88.5923V88.5919V88.5915V88.5911V88.5907V88.5903V88.5899V88.5895V88.589V88.5886V88.5882V88.5878V88.5874V88.5869V88.5865V88.5861V88.5857V88.5852V88.5848V88.5844V88.5839V88.5835V88.583V88.5826V88.5821V88.5817V88.5812V88.5808V88.5803V88.5799V88.5794V88.5789V88.5785V88.578V88.5775V88.5771V88.5766V88.5761V88.5756V88.5752V88.5747V88.5742V88.5737V88.5732V88.5727V88.5722V88.5717V88.5712V88.5707V88.5702V88.5697V88.5692V88.5687V88.5682V88.5677V88.5672V88.5667V88.5662V88.5657V88.5651V88.5646V88.5641V88.5636V88.5631V88.5625V88.562V88.5615V88.5609V88.5604V88.5599V88.5593V88.5588V88.5582V88.5577V88.5572V88.5566V88.5561V88.5555V88.555V88.5544V88.5538V88.5533V88.5527V88.5522V88.5516V88.551V88.5505V88.5499V88.5493V88.5488V88.5482V88.5476V88.547V88.5465V88.5459V88.5453V88.5447V88.5441V88.5436V88.543V88.5424V88.5418V88.5412V88.5406V88.54V88.5394V88.5388V88.5382V88.5376V88.537V88.5364V88.5358V88.5352V88.5346V88.534V88.5334V88.5328V88.5322V88.5315V88.5309V88.5303V88.5297V88.5291V88.5285V88.5278V88.5272V88.5266V88.526V88.5253V88.5247V88.5241V88.5234V88.5228V88.5222V88.5215V88.5209V88.5203V88.5196V88.519V88.5184V88.5177V88.5171V88.5164V88.5158V88.5151V88.5145V88.5138V88.5132V88.5125V88.5119V88.5112V88.5106V88.5099V88.5093V88.5086V88.5079V88.5073V88.5066V88.506V88.5053V88.5046V88.504V88.5033V88.5026V88.502V88.5013V88.5006V88.5V88.4993V88.4986V88.4979V88.4973V88.4966V88.4959V88.4952V88.4946V88.4939V88.4932V88.4925V88.4918V88.4912V88.4905V88.4898V88.4891V88.4884V88.4877V88.487V88.4863V88.4857V88.485V88.4843V88.4836V88.4829V88.4822V88.4815V88.4808V88.4801V88.4794V88.4787V88.478V88.4773V88.4766V88.4759V88.4752V88.4745V88.4738V88.4731V88.4724V88.4717V88.471V88.4703V88.4696V88.4689V88.4682V88.4675V88.4668V88.4661V88.4654V88.4647V88.464V88.4632V88.4625V88.4618V88.4611V88.4604V88.4597V88.459V88.4583V88.4575V88.4568V88.4561V88.4554V88.4547V88.454V88.4533V88.4525V88.4518V88.4511V88.4504V88.4497V88.449V88.4482V88.4475V88.4468V88.4461V88.4454V88.4446V88.4439V88.4432V88.4425V88.4418V88.441V88.4403V88.4396V88.4389V88.4381V88.4374V88.4367V88.436V88.4353V88.4345V88.4338V88.4331V88.4324V88.4316V88.4309V88.4302V88.4295V88.4287V88.428V88.4273V88.4266V88.4258V88.4251V88.4244V88.4237V88.4229V88.4222V88.4215V88.4208V88.42V88.4193V88.4186V88.4179V88.4171V88.4164V88.4157V88.415V88.4142V88.4135V88.4128V88.4121V88.4113V88.4106V88.4099V88.4092V88.4084V88.4077V88.407V88.4063V88.4055V88.4048V88.4041V88.4034V88.4026V88.4019V88.4012V88.4005V88.3998V88.399V88.3983V88.3976V88.3969V88.3962V88.3954V88.3947V88.394V88.3933V88.3926V88.3918V88.3911V88.3904V88.3897V88.389V88.3882V88.3875V88.3868V88.3861V88.3854V88.3847V88.3839V88.3832V88.3825V88.3818V88.3811V88.3804V88.3797V88.379V88.3782V88.3775V88.3768V88.3761V88.3754V88.3747V88.374V88.3733V88.3726V88.3719V88.3712V88.3705V88.3697V88.369V88.3683V88.3676V88.3669V88.3662V88.3655V88.3648V88.3641V88.3634V88.3627V88.362V88.3613V88.3606V88.3599V88.3592V88.3586V88.3579V88.3572V88.3565V88.3558V88.3551V88.3544V88.3537V88.353V88.3523V88.3517V88.351V88.3503V88.3496V88.3489V88.3482V88.3475V88.3469V88.3462V88.3455V88.3448V88.3441V88.3435V88.3428V88.3421V88.3414V88.3408V88.3401V88.3394V88.3388V88.3381V88.3374V88.3368V88.3361V88.3354V88.3348V88.3341V88.3334V87.3365L76.3729 87.9327C74.0999 89.6289 71.4344 90.604 68.5823 90.604C65.9015 90.604 63.3804 89.7441 61.2035 88.2315L60.4182 87.6858V88.6421V88.6426V88.643V88.6434V88.6439V88.6443V88.6448V88.6452V88.6456V88.6461V88.6465V88.647V88.6474V88.6478V88.6483V88.6487V88.6492V88.6496V88.65V88.6505V88.6509V88.6514V88.6518V88.6522V88.6527V88.6531V88.6536V88.654V88.6545V88.6549V88.6553V88.6558V88.6562V88.6566V88.6571V88.6575V88.658V88.6584V88.6588V88.6593V88.6597V88.6602V88.6606V88.661V88.6615V88.6619V88.6624V88.6628V88.6632V88.6637V88.6641V88.6645V88.665V88.6654V88.6659V88.6663V88.6667V88.6672V88.6676V88.668V88.6685V88.6689V88.6693V88.6698V88.6702V88.6706V88.6711V88.6715V88.6719V88.6724V88.6728V88.6732V88.6737V88.6741V88.6745V88.675V88.6754V88.6758V88.6763V88.6767V88.6771V88.6776V88.678V88.6784V88.6789V88.6793V88.6797V88.6802V88.6806V88.681V88.6814V88.6819V88.6823V88.6827V88.6832V88.6836V88.684V88.6844V88.6849V88.6853V88.6857V88.6861V88.6866V88.687V88.6874V88.6878V88.6883V88.6887V88.6891V88.6895V88.69V88.6904V88.6908V88.6912V88.6917V88.6921V88.6925V88.6929V88.6933V88.6938V88.6942V88.6946V88.695V88.6954V88.6958V88.6963V88.6967V88.6971V88.6975V88.6979V88.6983V88.6988V88.6992V88.6996V88.7V88.7004V88.7008V88.7012V88.7017V88.7021V88.7025V88.7029V88.7033V88.7037V88.7041V88.7045V88.7049V88.7054V88.7058V88.7062V88.7066V88.707V88.7074V88.7078V88.7082V88.7086V88.709V88.7094V88.7098V88.7102V88.7106V88.711V88.7114V88.7118V88.7122V88.7126V88.713V88.7134V88.7138V88.7142V88.7146V88.715V88.7154V88.7158V88.7162V88.7166V88.717V88.7174V88.7178V88.7182V88.7186V88.719V88.7194V88.7197V88.7201V88.7205V88.7209V88.7213V88.7217V88.7221V88.7225V88.7228V88.7232V88.7236V88.724V88.7244V88.7248V88.7252V88.7255V88.7259V88.7263V88.7267V88.7271V88.7274V88.7278V88.7282V88.7286V88.7289V88.7293V88.7297V88.7301V88.7304V88.7308V88.7312V88.7316V88.7319V88.7323V88.7327V88.733V88.7334V88.7338V88.7342V88.7345V88.7349V88.7353V88.7356V88.736V88.7363V88.7367V88.7371V88.7374V88.7378V88.7381V88.7385V88.7389V88.7392V88.7396V88.7399V88.7403V88.7406V88.741V88.7414V88.7417V88.7421V88.7424V88.7428V88.7431V88.7435V88.7438V88.7442V88.7445V88.7449V88.7452V88.7455V88.7459V88.7462V88.7466V88.7469V88.7473V88.7476V88.7479V88.7483V88.7486V88.7489V88.7493V88.7496V88.75V88.7503V88.7506V88.7509V88.7513V88.7516V88.7519V88.7523V88.7526V88.7529V88.7532V88.7536V88.7539V88.7542V88.7545V88.7549V88.7552V88.7555V88.7558V88.7561V88.7565V88.7568V88.7571V88.7574V88.7577V88.758V88.7584V88.7587V88.759V88.7593V88.7596V88.7599V88.7602V88.7605V88.7608V88.7611V88.7614V88.7617V88.762V88.7623V88.7626V88.7629V88.7632V88.7635V88.7638V88.7641V88.7644V88.7647V88.765V88.7653V88.7656V88.7659V88.7662V88.7664V88.7667V88.767V88.7673V88.7676V88.7679V88.7681V88.7684V88.7687V88.769V88.7693V88.7695V88.7698V88.7701V88.7704V88.7706V88.7709V88.7712V88.7715V88.7717V88.772V88.7723V88.7725V88.7728V88.773V88.7733V88.7736V88.7738V88.7741V88.7743V88.7746V88.7749V88.7751V88.7754V88.7756V88.7759V88.7761V88.7764V88.7766V88.7769V88.7771V88.7774V88.7776V88.7779V88.7781V88.7783V88.7786V88.7788V88.7791V88.7793V88.7795V88.7798V88.78V88.7802V88.7805V88.7807V88.7809V88.7811V88.7814V88.7816V88.7818V88.782V88.7823V88.7825V88.7827V88.7829V88.7831V88.7834V88.7836V88.7838V88.784V88.7842V88.7844V88.7846V88.7848V88.785V88.7852V88.7855V88.7857V88.7859V88.7861V88.7863V88.7865V88.7867V88.7868V88.787V88.7872V88.7874V88.7876V88.7876C60.4146 88.8584 60.411 88.9291 60.4075 88.9998C60.2992 91.1564 60.194 93.2516 59.7384 95.1187Z" fill="#FEFEFE" stroke="#333333"/>
<path fill-rule="evenodd" clip-rule="evenodd" d="M68.5828 91.1034C78.9608 91.1034 84.7816 79.6502 83.8441 70.2867C80.3515 69.9705 68.4186 69.2703 64.553 58.2408C62.9485 62.231 61.2694 64.2788 53.9858 66.7256C51.2329 76.8398 56.694 91.1034 68.5828 91.1034Z" fill="#FEFEFE"/>
<path d="M79.016 103.064C78.9532 103.152 78.8898 103.243 78.8256 103.335C78.4959 103.808 78.1438 104.312 77.7335 104.73C77.2441 105.228 76.7557 105.514 76.2394 105.502L76.2394 105.502H76.2279C75.649 105.502 75.0874 105.249 74.5209 104.779C73.9517 104.307 73.412 103.646 72.888 102.896C72.4932 102.331 72.1211 101.738 71.7564 101.156C71.6365 100.965 71.5174 100.775 71.3985 100.587C70.9371 99.8602 70.4731 99.1633 70.0048 98.6633C69.8661 98.4645 69.7125 98.2658 69.5614 98.0704C69.5439 98.0478 69.5264 98.0252 69.509 98.0027C70.9945 97.8878 72.4558 97.6097 73.7662 97.1771C75.2224 96.6963 76.5218 96.0147 77.4544 95.1268C78.402 95.297 79.3654 95.6153 80.344 95.9837C80.7359 96.1312 81.1363 96.2894 81.5386 96.4483C82.0126 96.6354 82.4891 96.8236 82.9571 96.9966C82.2321 98.2618 81.4857 99.3914 80.6478 100.65L80.6475 100.65L80.5656 100.774C79.9991 101.627 79.5038 102.373 79.016 103.064ZM79.016 103.064L79.4241 103.352M79.016 103.064C79.0159 103.064 79.0158 103.064 79.0157 103.064L79.4241 103.352M79.4241 103.352C79.3653 103.436 79.3046 103.523 79.2421 103.612C78.5215 104.646 77.5552 106.032 76.2279 106.002C74.2034 106.002 72.6638 103.545 71.3276 101.413C70.724 100.45 70.1619 99.5535 69.6153 98.9792L80.9802 101.053C80.4152 101.904 79.9162 102.655 79.4241 103.352ZM57.019 101.303C56.0642 99.876 55.1285 98.4776 54.234 97.0269C54.5646 96.9138 54.9 96.7979 55.2381 96.6763C56.7012 96.2049 58.1786 95.7711 59.6646 95.5398C60.6464 96.4602 61.9911 97.102 63.4823 97.5073C64.8058 97.867 66.2683 98.0468 67.7453 98.062C67.6929 98.1295 67.6426 98.1974 67.5931 98.2667C67.1593 98.6222 66.7055 99.2194 66.1699 99.9632C66.0142 100.179 65.8492 100.412 65.6727 100.66C65.1931 101.336 64.6284 102.131 63.9325 103.051L63.7727 103.262L63.7732 103.263C63.6398 103.416 63.5108 103.57 63.3823 103.724C63.0892 104.075 62.7986 104.423 62.4641 104.739C61.9741 105.203 61.4957 105.488 60.9847 105.51L60.9832 105.51C60.5221 105.531 60.1017 105.325 59.4801 104.674C58.8977 104.044 58.2022 103.077 57.3757 101.836L57.3753 101.836C57.2562 101.658 57.1375 101.48 57.019 101.303Z" fill="#BDECFF" stroke="#333333"/>
<path fill-rule="evenodd" clip-rule="evenodd" d="M74.6349 133.829L74.5975 130.983C74.5041 127.189 74.3376 123.394 73.9856 119.615C73.8065 117.725 73.5677 115.805 73.2617 114.006L72.6871 111.28C72.3214 109.835 71.8886 108.517 71.3662 107.381L72.9557 103.609C68.4303 97.0411 69.3214 96.916 64.6199 103.308L65.5901 105.596L66.3811 107.268L66.1498 107.765C65.5154 109.12 65.0154 110.942 64.6199 112.967C63.3865 119.282 63.0527 125.922 63.0527 132.361C63.0527 132.437 63.03 133.829 63.0826 133.829C66.1766 133.889 70.3084 134.178 74.6349 133.829Z" fill="url(#paint0_linear_125_1507)"/>
<path fill-rule="evenodd" clip-rule="evenodd" d="M75.6405 134.753L74.7142 134.828C71.3236 135.101 68.031 134.989 65.3112 134.897C64.5098 134.87 63.7582 134.844 63.0684 134.831C62.4997 134.823 62.2463 134.376 62.2173 134.325L62.2164 134.323C62.1512 134.209 62.1234 134.107 62.1145 134.073C62.0923 133.99 62.0833 133.916 62.0797 133.885C62.0708 133.808 62.0662 133.722 62.0634 133.651C62.0573 133.499 62.0552 133.307 62.0548 133.126C62.054 132.813 62.0596 132.326 62.0596 132.361C62.0596 125.893 62.3942 119.18 63.6455 112.773C64.0467 110.719 64.5654 108.803 65.2512 107.338C65.2514 107.337 65.2515 107.337 65.2517 107.337L65.2822 107.271L64.685 106.01L63.4824 103.173L63.8224 102.711C64.1783 102.227 64.5072 101.773 64.8116 101.353C65.4878 100.42 66.0432 99.6539 66.5066 99.0931C66.846 98.6824 67.1879 98.3161 67.5445 98.0533C67.9103 97.7837 68.3683 97.567 68.9102 97.5981C69.4426 97.6285 69.8743 97.8883 70.2128 98.1787C70.5486 98.4667 70.8724 98.8539 71.1977 99.2877C71.5924 99.8143 72.0608 100.51 72.6195 101.34C72.9672 101.857 73.3498 102.425 73.7715 103.037L74.0847 103.491L72.4499 107.371C72.9231 108.478 73.3162 109.715 73.6497 111.033L73.6547 111.052L74.2376 113.817L74.2409 113.837C74.5519 115.666 74.7937 117.611 74.9746 119.519L74.9747 119.521C75.3297 123.333 75.497 127.152 75.5907 130.958L75.591 130.97L75.6405 134.753ZM71.3663 107.381L72.9559 103.609C70.6706 100.292 69.7666 98.6186 68.8261 98.5974C67.9042 98.5767 66.9473 100.144 64.62 103.308L65.5902 105.596L66.3812 107.268L66.1499 107.765C65.5156 109.12 65.0156 110.942 64.62 112.967C63.3866 119.282 63.0529 125.922 63.0529 132.361C63.0529 132.369 63.0526 132.395 63.0521 132.434C63.0487 132.736 63.0361 133.829 63.0827 133.829C63.7968 133.843 64.5661 133.869 65.3804 133.896C68.0942 133.988 71.3071 134.097 74.635 133.829L74.5977 130.983C74.5042 127.189 74.3378 123.394 73.9857 119.615C73.8066 117.725 73.5678 115.805 73.2619 114.006L72.6872 111.281C72.3216 109.835 71.8887 108.518 71.3663 107.381Z" fill="#333333"/>
<path fill-rule="evenodd" clip-rule="evenodd" d="M64.5525 58.2338C68.4107 69.2633 80.3436 69.9635 83.8436 70.2797C84.1308 73.1482 83.8712 76.0761 83.0525 78.8397C93.9727 52.3265 68.8061 47.4001 64.1868 53.1369C53.9928 52.3265 48.5224 65.9685 53.4928 76.0767C53.0028 72.967 53.1659 69.7564 53.9928 66.7186C61.2689 64.2718 62.948 62.224 64.5525 58.2338Z" fill="#EFEFEF" stroke="#333333" stroke-linejoin="round"/>
<path d="M54.157 66.7264C51.5277 75.8211 54.9034 85.678 63.062 89.9297C66.6576 91.8111 70.9548 91.8035 74.5512 89.9297C81.5191 86.2985 84.5824 78.0947 83.8312 70.1369" stroke="#333333"/>
<path d="M72.9384 104.621C70.309 111.442 66.9284 109.547 65.0503 105.378" stroke="#333333" stroke-linecap="round"/>
<path d="M77 35.5518H76.5V36.0518V36.052V36.0525V36.0544V36.0617L76.5 36.0905L76.5001 36.2011C76.5002 36.2596 76.5003 36.3342 76.5005 36.4227C76.5006 36.4798 76.5008 36.5426 76.5009 36.6107C76.5019 36.9581 76.5038 37.4422 76.5075 37.9887C76.515 39.0806 76.5301 40.4262 76.5603 41.4295C76.5812 42.1236 76.4413 42.6061 76.2402 42.9207C76.044 43.2276 75.7729 43.4033 75.4564 43.4696C74.801 43.6069 73.8409 43.2798 73.009 42.326L72.9951 42.31L72.9798 42.2952L67.6039 37.0968C67.5933 37.0844 67.579 37.0678 67.561 37.0475C67.5228 37.0042 67.468 36.9441 67.3985 36.8727C67.2601 36.7306 67.0605 36.5408 66.8146 36.35C66.3377 35.9798 65.6178 35.5518 64.7964 35.5518H45.3283C44.6044 35.5518 43.8959 35.3071 43.3745 34.838C42.8618 34.3768 42.5 33.6727 42.5 32.6835V3.36835C42.5 1.73831 43.8044 0.5 45.3283 0.5H96.5803C98.1446 0.5 99.5 1.71009 99.5 3.31363V32.6693C99.4585 33.3587 99.0914 34.0841 98.5275 34.6446C97.9593 35.2092 97.2473 35.5518 96.5803 35.5518H77Z" fill="url(#paint1_linear_125_1507)" stroke="#333333"/>
<path fill-rule="evenodd" clip-rule="evenodd" d="M72 8.3553V5.60794C72 4.79735 71 4.79735 71 5.60794V8.45572C71 9.15153 72 9.24478 72 8.3553ZM62.399 12.1062L60.4559 10.1631C59.8268 9.53398 60.5999 8.89283 61.092 9.38495L63.101 11.394C63.6794 11.9724 62.9723 12.6795 62.399 12.1062ZM78 19C78 16.3438 75.5073 13 71.5036 13C67.5 13 65 16.1875 65 19C65 23 68.9657 24.927 68.9657 24.8588V24.927V27.346C68.9657 28.8019 70.1042 30 71.5036 30C72.8959 30 74.0415 28.8095 74.0415 27.346V24.8588C74.0415 24.8588 78 23 78 19ZM57.6448 20H60.3928C61.2036 20 61.2036 19 60.3856 19H57.5444C56.8484 19 56.7552 20 57.6448 20ZM82.0793 10.1631L80.1361 12.1062C79.5628 12.6795 78.8557 11.9724 79.4341 11.394L81.4432 9.38495C81.9353 8.89283 82.7084 9.53398 82.0793 10.1631ZM84.3928 20H81.6448C80.7552 20 80.8484 19 81.5444 19H84.3856C85.2036 19 85.2036 20 84.3928 20Z" fill="white"/>
<defs>
<linearGradient id="paint0_linear_125_1507" x1="57.0395" y1="101.652" x2="71.0496" y2="123.082" gradientUnits="userSpaceOnUse">
<stop stop-color="#FFC671"/>
<stop offset="1" stop-color="#FF6F3D"/>
</linearGradient>
<linearGradient id="paint1_linear_125_1507" x1="37.5771" y1="-18.1218" x2="76.0159" y2="24.3209" gradientUnits="userSpaceOnUse">
<stop stop-color="#FFC671"/>
<stop offset="1" stop-color="#FF6F3D"/>
</linearGradient>
</defs>
</svg>
