<svg width="135" height="135" viewBox="0 0 135 135" fill="none" xmlns="http://www.w3.org/2000/svg">
<rect width="135" height="135" fill="white"/>
<g clip-path="url(#clip0)">
<path d="M81.5348 110.98H53.4023V118.795H81.5348V110.98Z" fill="#9ADAF3"/>
<path d="M14.7517 94.9603V95.4603H15.2517H122.311H122.811V94.9603V42.9283V35.087C122.811 31.6427 120.008 28.8179 116.577 28.8179H50.2959H46.4108H21.1574H20.9858C17.555 28.8179 14.7517 31.6427 14.7517 35.087V94.9603Z" fill="#FEFEFE" stroke="#333333"/>
<path d="M122.811 94.96V94.46H122.311H15.2517H14.7517V94.96V105.91C14.7517 109.21 17.5812 111.871 20.9858 111.871H54.5945H82.9451H116.577C119.981 111.871 122.811 109.218 122.811 105.91V94.96Z" fill="#BDECFF" stroke="#333333"/>
<path d="M82.0194 118.685H53.6585H46.301C44.0125 118.685 42.1028 120.466 42.1028 122.702C42.1028 124.938 44.0125 126.718 46.301 126.718H88.1363C90.4248 126.718 92.3346 124.938 92.3346 122.702C92.3346 120.474 90.4255 118.685 88.1363 118.685H82.0194Z" fill="#BDECFF" stroke="#333333"/>
<path d="M71.4384 103.017C71.4384 101.045 69.8392 99.4458 67.8673 99.4458L64.2962 103.018C64.2968 104.989 65.8958 106.588 67.8673 106.588C69.8392 106.588 71.4384 104.989 71.4384 103.017Z" fill="#9ADAF3" stroke="#333333"/>
<path d="M54.3244 111.371H53.543V119.185H54.3244V111.371Z" fill="#333333"/>
<path d="M82.457 111.371H81.6755V119.185H82.457V111.371Z" fill="#333333"/>
<path fill-rule="evenodd" clip-rule="evenodd" d="M24.6292 14.2698C24.6292 11.7901 26.635 9.78125 29.1031 9.78125H106.115C108.591 9.78125 110.589 11.7901 110.589 14.2698V84.2276C110.589 86.7074 108.584 88.7084 106.115 88.7084H29.1031C26.6271 88.7084 24.6292 86.6995 24.6292 84.2276V14.2698Z" fill="#EFEFEF"/>
<path fill-rule="evenodd" clip-rule="evenodd" d="M106.291 10.5627H28.7777C26.9468 10.5627 25.4574 12.2924 25.4574 14.2698L25.4106 84.2276C25.4106 86.2051 26.9468 87.9269 28.7777 87.9269H106.441C108.272 87.9269 109.808 86.2051 109.808 84.2276V14.47C109.815 12.4846 108.122 10.5627 106.291 10.5627ZM28.7777 9.78125H106.441C108.737 9.78125 110.589 11.7901 110.589 14.2698V84.2276C110.589 86.7074 108.729 88.7084 106.441 88.7084H28.7777C26.4818 88.7084 24.6292 86.6995 24.6292 84.2276V14.2698C24.6292 11.7901 26.4891 9.78125 28.7777 9.78125Z" fill="#333333"/>
<path fill-rule="evenodd" clip-rule="evenodd" d="M34.7881 23.2795C34.7881 21.8701 35.9755 20.7217 37.4501 20.7217H97.7685C99.2353 20.7217 100.43 21.8701 100.43 23.2795V36.9188C100.43 38.3282 99.243 39.4767 97.7685 39.4767H37.4501C35.9833 39.4767 34.7881 38.3282 34.7881 36.9188V23.2795Z" fill="white"/>
<path fill-rule="evenodd" clip-rule="evenodd" d="M42.2119 19.9404H37.4685C35.9915 19.9404 34.7881 21.1439 34.7881 22.6208V36.9137C34.7881 38.3906 35.9837 39.4769 37.4685 39.4769H98.5315C100.008 39.4769 101.212 38.3906 101.212 36.9137V22.6208C101.212 21.1439 100.016 19.9404 98.5315 19.9404H59.3649C58.646 19.9404 58.5835 20.7219 59.404 20.7219H98.5315C99.5162 20.7219 100.43 21.6831 100.43 22.6755V36.9137C100.43 37.8983 99.524 38.7032 98.5315 38.7032H37.4685C36.4838 38.7032 35.4963 37.9061 35.4963 36.9137V22.6208C35.4963 21.6362 36.476 20.7219 37.4685 20.7219H42.2354C42.9934 20.7219 42.9934 19.9404 42.2119 19.9404Z" fill="#333333"/>
<path fill-rule="evenodd" clip-rule="evenodd" d="M50.6673 29.3179C41.106 29.3179 38.5547 35.5695 38.5547 35.5695H63.1706C63.1706 35.5695 60.2285 29.3179 50.6673 29.3179Z" fill="url(#paint0_linear)"/>
<path fill-rule="evenodd" clip-rule="evenodd" d="M38.7724 34.4624L39.5596 34.7835H62.0562L62.8434 34.4624C62.9645 34.7015 62.9418 34.9885 62.7829 35.2071C62.6239 35.4326 62.3514 35.5692 62.0562 35.5692H39.5596C39.2644 35.5692 38.9919 35.4326 38.8329 35.2071C38.674 34.9885 38.6513 34.7015 38.7724 34.4624ZM61.5036 34.0046C61.8972 34.4692 62.0486 34.7835 62.0486 34.7835L62.8358 34.4556C62.8056 34.4282 62.851 34.4761 62.8358 34.4556C62.8131 34.4077 62.7299 34.2643 62.6769 34.1891C62.5785 34.0388 62.4347 33.827 62.2303 33.5878C61.8291 33.0959 61.2008 32.4537 60.2774 31.8183C58.4153 30.5406 55.4177 28.5361 50.8003 28.5361C46.1829 28.5361 43.1778 30.5406 41.3233 31.8183C40.3998 32.4537 39.7716 33.0959 39.3704 33.5878C39.166 33.8338 39.0222 34.0388 38.9238 34.1891C38.8784 34.2643 38.8405 34.3257 38.8102 34.3736C38.7951 34.3941 38.7875 34.4146 38.7799 34.4282L38.7724 34.4487L38.7648 34.4556C38.7648 34.4556 38.7648 34.4556 39.552 34.7835C39.552 34.7835 39.711 34.4692 40.1046 34.0046C41.2173 32.6723 44.2224 29.315 50.8003 29.315C57.3782 29.3219 60.3833 32.6723 61.5036 34.0046Z" fill="#333333"/>
<path fill-rule="evenodd" clip-rule="evenodd" d="M48.073 27.7549H53.5432V30.8239L50.8213 33.2251L48.073 30.8239V27.7549Z" fill="white"/>
<path fill-rule="evenodd" clip-rule="evenodd" d="M56.247 22.644C56.247 25.6057 53.8479 28.0048 50.8862 28.0048C47.9245 28.0048 45.5254 25.6057 45.5254 22.644C45.5254 19.6823 47.9245 17.2832 50.8862 17.2832C53.8479 17.291 56.247 19.6901 56.247 22.644Z" fill="white"/>
<path fill-rule="evenodd" clip-rule="evenodd" d="M50.808 26.9105C53.1478 26.9105 55.0433 25.015 55.0433 22.6826C55.0433 20.3428 53.1478 18.4472 50.808 18.4472C48.4682 18.4472 46.58 20.3428 46.58 22.6826C46.58 25.015 48.4756 26.9105 50.808 26.9105ZM50.808 27.7546C48.0017 27.7546 45.7285 25.4815 45.7285 22.6752C45.7285 19.8689 48.0017 17.5957 50.808 17.5957C53.6143 17.5957 55.8875 19.8689 55.8875 22.6752C55.8875 25.4815 53.6143 27.7546 50.808 27.7546Z" fill="#333333"/>
<path fill-rule="evenodd" clip-rule="evenodd" d="M50.9798 19.0617C51.8863 20.5464 53.2069 22.6599 55.4419 22.6599C55.7076 19.8857 52.8787 18.001 50.9798 18.001C48.4088 18.001 46.1738 19.9873 46.1738 22.9569C48.5104 22.5818 50.3937 20.9762 50.9798 19.0617Z" fill="#AAAAAA"/>
<path fill-rule="evenodd" clip-rule="evenodd" d="M50.3626 18.2131C48.3933 18.4398 46.8695 19.7604 46.5022 21.7219C46.4475 22.0188 46.4163 22.3236 46.4163 22.644C46.7288 22.5893 47.0258 22.519 47.3149 22.433C48.7763 21.9876 49.8937 21.0967 50.5502 19.8933C50.4564 20.1824 50.6908 19.6354 50.5502 19.8933C50.5736 19.8229 50.9487 18.9321 50.9721 18.8617C51.0112 18.9321 51.0581 19.0024 51.0972 19.0727C51.2457 19.3228 51.4019 19.5729 51.5739 19.8229C52.2694 20.8466 53.168 21.7219 54.4731 22.433C54.7544 22.5033 55.0279 22.644 55.3483 22.644C55.3483 22.3549 55.2858 21.6047 55.1608 21.2999C54.6294 19.9558 53.0664 18.6039 51.6286 18.26C51.4019 18.2053 51.1831 18.1741 50.9721 18.1741C50.769 18.1819 50.5658 18.1897 50.3626 18.2131ZM51.1128 20.706C50.1516 22.1908 48.5574 23.191 46.5725 23.527C46.3147 23.5739 46.049 23.4958 45.8458 23.3239C45.6426 23.1519 45.5254 22.9019 45.5254 22.644C45.5254 19.4322 47.9479 17.2832 50.9721 17.2832C52.2303 17.2832 53.5275 17.9943 54.4731 18.8617C55.4108 19.7135 56.2392 20.9326 56.2392 22.1986C56.2392 22.6909 55.8406 23.527 55.3483 23.527C53.3478 23.527 52.0271 21.9251 51.1128 20.706Z" fill="#333333"/>
<path fill-rule="evenodd" clip-rule="evenodd" d="M53.1525 27.3205C53.4391 27.3205 53.5432 27.1495 53.5432 27.3455V30.8125C53.5432 30.9105 53.5432 31.0804 53.376 31.1914L51.1624 33.1317C50.9634 33.2558 50.6528 33.2558 50.4538 33.1317L48.2402 31.1914C48.073 31.0477 48.073 30.9105 48.073 30.8125L48.073 27.3455C48.073 27.1495 48.2641 26.9731 48.5507 26.9731C48.8374 26.9731 48.9728 27.1495 48.9728 27.3455L48.9807 30.6427L50.8041 32.2476L52.6275 30.6427V27.6678C52.6355 27.4718 52.8658 27.3205 53.1525 27.3205Z" fill="#333333"/>
<path fill-rule="evenodd" clip-rule="evenodd" d="M66.8279 27.3639C66.8279 27.1445 67.0311 26.9731 67.2733 26.9731H91.3813C91.6313 26.9731 91.8345 27.1514 91.8345 27.3639C91.8345 27.5764 91.6313 27.7546 91.3813 27.7546H67.2733C67.0311 27.7546 66.8279 27.5764 66.8279 27.3639Z" fill="#333333"/>
<path fill-rule="evenodd" clip-rule="evenodd" d="M66.8279 30.4899C66.8279 30.2705 67.0299 30.0991 67.2864 30.0991H85.9058C86.1623 30.0991 86.3643 30.2773 86.3643 30.4899C86.3643 30.7092 86.1623 30.8806 85.9058 30.8806H67.2864C67.0299 30.8806 66.8279 30.7024 66.8279 30.4899Z" fill="#333333"/>
<path fill-rule="evenodd" clip-rule="evenodd" d="M35.5696 48.3924C35.5696 46.9243 36.7711 45.728 38.2633 45.728H99.2997C100.784 45.728 101.993 46.9243 101.993 48.3924V62.6C101.993 64.0682 100.792 65.2645 99.2997 65.2645H38.2633C36.779 65.2645 35.5696 64.0682 35.5696 62.6V48.3924Z" fill="white"/>
<path fill-rule="evenodd" clip-rule="evenodd" d="M42.5168 45.728H38.0415C36.6794 45.728 35.5696 46.8286 35.5696 48.1793V62.8132C35.5696 64.1639 36.6722 65.2644 38.0415 65.2644H99.5215C100.884 65.2644 101.993 64.1639 101.993 62.8132V48.1793C101.993 46.8286 100.891 45.728 99.5215 45.728H58.3713C57.5065 45.728 57.4921 46.5427 58.3858 46.5427L99.5215 46.5427C100.43 46.5427 101.172 47.2717 101.172 48.1793V62.8132C101.172 63.7137 100.437 64.4497 99.5215 64.4497H38.0415C37.1334 64.4497 36.3911 63.7208 36.3911 62.8132V48.1793C36.3911 47.2788 37.1262 46.5427 38.0415 46.5427H42.4807C43.2735 46.5427 43.2446 45.728 42.5168 45.728Z" fill="#333333"/>
<path fill-rule="evenodd" clip-rule="evenodd" d="M50.8079 55.8872C41.8635 55.8872 39.4768 62.1389 39.4768 62.1389H62.1391C62.1391 62.1389 59.7523 55.8872 50.8079 55.8872Z" fill="#BDECFF"/>
<path fill-rule="evenodd" clip-rule="evenodd" d="M38.4687 61.5763L39.2814 61.9435H62.5063L63.3191 61.5763C63.4441 61.8498 63.4206 62.178 63.2565 62.4281C63.0924 62.6859 62.8111 62.8344 62.5063 62.8344H39.2814C38.9767 62.8344 38.6953 62.6781 38.5312 62.4281C38.3671 62.1702 38.3437 61.8498 38.4687 61.5763ZM61.9359 61.0527C62.3422 61.5841 62.4985 61.9435 62.4985 61.9435L63.3112 61.5763C63.3269 61.5997 63.28 61.545 63.3112 61.5763C63.2878 61.5216 63.2018 61.3575 63.1471 61.2715C63.0455 61.0996 62.8971 60.8573 62.6861 60.576C62.2719 60.0133 61.6233 59.2788 60.6699 58.552C58.7475 57.0907 55.653 55.6919 50.8861 55.6919C46.1192 55.6919 43.0168 57.0907 41.1022 58.552C40.1489 59.2788 39.5002 60.0133 39.0861 60.576C38.8751 60.8573 38.7266 61.0918 38.625 61.2715C38.5781 61.3575 38.5391 61.4278 38.5078 61.4825C38.4922 61.5059 38.4844 61.5294 38.4765 61.545L38.4687 61.5684L38.4609 61.5763C38.4609 61.5763 38.4609 61.5763 39.2736 61.9435C39.2736 61.9435 39.4377 61.5841 39.8441 61.0527C40.9928 59.5288 44.0952 56.5828 50.8861 56.5828C57.6769 56.5828 60.7793 59.5288 61.9359 61.0527Z" fill="#333333"/>
<path fill-rule="evenodd" clip-rule="evenodd" d="M48.2136 53.9102H53.5666V57.4814L50.8862 59.7186L48.2136 57.4814V53.9102Z" fill="white"/>
<path fill-rule="evenodd" clip-rule="evenodd" d="M56.247 49.4404C56.247 52.4021 53.8479 54.8012 50.8862 54.8012C47.9245 54.8012 45.5254 52.4021 45.5254 49.4404C45.5254 46.4787 47.9245 44.0796 50.8862 44.0796C53.8479 44.0796 56.247 46.4787 56.247 49.4404Z" fill="white"/>
<path fill-rule="evenodd" clip-rule="evenodd" d="M50.8862 53.9103C53.3556 53.9103 55.3561 51.9098 55.3561 49.4482C55.3561 46.9788 53.3556 44.9861 50.8862 44.9861C48.4168 44.9861 46.4241 46.9866 46.4241 49.4482C46.4241 51.9098 48.4246 53.9103 50.8862 53.9103ZM50.8862 54.8012C47.9245 54.8012 45.5254 52.4021 45.5254 49.4404C45.5254 46.4787 47.9245 44.0796 50.8862 44.0796C53.8479 44.0796 56.247 46.4787 56.247 49.4404C56.247 52.4021 53.8479 54.8012 50.8862 54.8012Z" fill="#333333"/>
<path fill-rule="evenodd" clip-rule="evenodd" d="M50.9798 45.94C51.8863 47.4248 53.2069 49.4558 55.4419 49.4558C55.7076 46.6738 52.8787 44.939 50.9798 44.939C48.4088 44.939 46.1738 46.7832 46.1738 49.7527C48.5104 49.3776 50.3937 47.8546 50.9798 45.94Z" fill="#AAAAAA"/>
<path fill-rule="evenodd" clip-rule="evenodd" d="M50.3627 45.0093C48.3934 45.2359 46.8696 46.5566 46.5023 48.518C46.4476 48.815 46.4163 49.1198 46.4163 49.4402C46.7289 49.3855 47.0259 49.3151 47.315 49.2292C48.7763 48.7837 49.8938 47.8929 50.5502 46.6894C50.5737 46.6191 50.9488 45.7282 50.9722 45.6579C51.0113 45.7282 51.0582 45.7986 51.0972 45.8767C51.2457 46.1268 51.402 46.3769 51.5739 46.6269C52.2694 47.6506 53.1681 48.5259 54.4731 49.237C54.7545 49.3073 55.028 49.448 55.3484 49.448C55.3484 49.1588 55.2859 48.4086 55.1608 48.1039C54.6294 46.7598 53.0665 45.4078 51.6286 45.064C51.402 45.0093 51.1832 44.9859 50.9722 44.9859C50.769 44.978 50.5659 44.9859 50.3627 45.0093ZM51.1129 47.5022C50.1517 48.9869 48.5575 49.9872 46.5726 50.3232C46.3147 50.3701 46.049 50.292 45.8459 50.1278C45.6427 49.9559 45.687 49.6981 45.687 49.4402C45.687 46.2284 48.0886 44.2695 51.1129 44.2695C52.371 44.2695 53.5276 44.7983 54.4731 45.6657C55.4109 46.5175 56.2392 47.7366 56.2392 49.0025C56.2392 49.4949 55.8407 50.331 55.3484 50.331C53.3478 50.3232 52.0272 48.7212 51.1129 47.5022Z" fill="#333333"/>
<path fill-rule="evenodd" clip-rule="evenodd" d="M53.129 53.5937C53.4103 53.5937 53.5744 53.8047 53.5744 54.0313L53.5666 57.2704C53.5666 57.3876 53.5666 57.5908 53.4025 57.7236L51.2301 60.0445C51.0347 60.193 50.7299 60.193 50.5346 60.0445L48.3621 57.7236C48.198 57.5517 48.198 57.3876 48.198 57.2704L48.2058 54.0313C48.2058 53.8047 48.3934 53.5937 48.6747 53.5937C48.956 53.5937 49.0889 53.8047 49.0889 54.0313V57.0672L50.8784 59.035L52.6679 57.0672L52.6757 54.0313C52.6836 53.8047 52.8477 53.5937 53.129 53.5937Z" fill="#333333"/>
<path fill-rule="evenodd" clip-rule="evenodd" d="M66.8279 53.9336C66.8279 53.7143 67.0311 53.543 67.2733 53.543H91.3813C91.6313 53.543 91.8345 53.7143 91.8345 53.9336C91.8345 54.1461 91.6313 54.3242 91.3813 54.3242H67.2733C67.0311 54.3311 66.8279 54.1529 66.8279 53.9336Z" fill="#333333"/>
<path fill-rule="evenodd" clip-rule="evenodd" d="M66.8279 57.0592C66.8279 56.8398 67.0057 56.6685 67.2314 56.6685H83.6165C83.8421 56.6685 84.0199 56.8467 84.0199 57.0592C84.0199 57.2785 83.8421 57.4499 83.6165 57.4499H67.2314C67.0057 57.4499 66.8279 57.2717 66.8279 57.0592Z" fill="#333333"/>
<path fill-rule="evenodd" clip-rule="evenodd" d="M69.0314 76.5926V70.3835C69.0314 70.0004 68.8291 69.7449 68.5717 69.6294C68.4675 69.5868 68.3633 69.5625 68.253 69.5625C68.1427 69.5625 68.0324 69.5868 67.9343 69.6294C67.6707 69.7449 67.4685 69.9943 67.4685 70.3713V76.5926C67.4685 76.9635 67.6707 77.2068 67.9343 77.3163C68.0324 77.3588 68.1427 77.3771 68.2469 77.3771C68.3511 77.3771 68.4614 77.3588 68.5595 77.3163C68.823 77.2068 69.0314 76.9635 69.0314 76.5926ZM64.1801 77.5338C63.9002 77.2846 63.6202 77.0352 63.3401 76.7855C63.2645 76.72 63.175 76.6676 63.0924 76.6545C63.003 76.6218 62.9066 76.6087 62.8034 76.6087C62.7002 76.6087 62.597 76.6284 62.5006 76.6676C62.4043 76.7004 62.3148 76.7528 62.2391 76.8248L62.2047 76.8575C62.1359 76.923 62.0877 76.995 62.0533 77.0736C62.0189 77.1587 61.9983 77.2439 61.9983 77.329C61.9983 77.4076 62.0121 77.4927 62.0465 77.5713C62.074 77.6498 62.1222 77.7219 62.1841 77.7808L67.641 82.659L67.641 82.659C67.6823 82.6918 67.7235 82.7245 67.7717 82.7507C67.7878 82.7572 67.8038 82.7645 67.8199 82.7718C67.852 82.7863 67.8841 82.8009 67.9162 82.8096C67.9713 82.8227 68.0263 82.8358 68.0814 82.8423C68.1295 82.8489 68.1846 82.8489 68.2465 82.8423H68.2603C68.3153 82.8489 68.3704 82.8489 68.4254 82.8423C68.4805 82.8358 68.5355 82.8227 68.5906 82.8096L68.5906 82.8096C68.6387 82.79 68.6869 82.7703 68.7351 82.7441C68.7764 82.7179 68.8176 82.6852 68.8589 82.6525L68.8589 82.6525L74.3158 77.7742C74.3777 77.7153 74.419 77.6433 74.4534 77.5647C74.4878 77.4927 74.5016 77.4076 74.5016 77.3224C74.5016 77.2308 74.481 77.1456 74.4466 77.0671C74.4121 76.9885 74.3571 76.9165 74.2952 76.851L74.2608 76.8182C74.1851 76.7462 74.0956 76.6938 73.9993 76.6545C73.9029 76.6153 73.7997 76.5956 73.6965 76.5956C73.6001 76.5956 73.4969 76.6087 73.4075 76.6414C73.3111 76.6676 73.2286 76.72 73.1529 76.7855C72.7171 77.1758 72.2803 77.5651 71.8435 77.9545C70.6387 79.0286 69.4333 80.1031 68.2465 81.1988C66.9047 79.9601 65.544 78.7484 64.1801 77.5338Z" fill="#333333"/>
</g>
<defs>
<linearGradient id="paint0_linear" x1="50.8626" y1="29.3179" x2="50.8626" y2="35.5695" gradientUnits="userSpaceOnUse">
<stop stop-color="#FF8E3D"/>
<stop offset="1" stop-color="#FF6F3D"/>
</linearGradient>
<clipPath id="clip0">
<rect width="118" height="118" fill="white" transform="translate(9 9)"/>
</clipPath>
</defs>
</svg>
