<svg width="135" height="135" viewBox="0 0 135 135" fill="none" xmlns="http://www.w3.org/2000/svg">
<path d="M83.7267 117.012H51.2373V125.451H83.7267V117.012Z" fill="#EFEFEF"/>
<path fill-rule="evenodd" clip-rule="evenodd" d="M12.928 22.4937H12.7313C9.11943 22.4937 6.16016 25.4529 6.16016 29.0648V97.2622H128.849V37.9963V29.0648C128.849 25.4529 125.89 22.4937 122.278 22.4937H46.3204H41.8681H12.928Z" fill="#FEFEFE"/>
<path fill-rule="evenodd" clip-rule="evenodd" d="M128.849 97.2622H6.16016V110.44C6.16016 114.052 9.11943 117.012 12.7313 117.012H51.2466H83.736H122.278C125.89 117.012 128.849 114.061 128.849 110.44V97.2622ZM67.5092 103.601C69.4492 103.601 71.0227 105.174 71.0227 107.115C71.0227 109.055 69.4492 110.628 67.5092 110.628C65.5691 110.628 63.9956 109.055 63.9956 107.115C63.9866 105.174 65.5602 103.601 67.5092 103.601Z" fill="#BDECFF"/>
<path fill-rule="evenodd" clip-rule="evenodd" d="M6.78599 96.6367H128.214V29.0652C128.214 27.4291 127.544 25.945 126.471 24.8721C125.559 23.9602 124.352 23.3344 123.002 23.1735C121.822 23.0304 121.911 21.7966 122.984 21.9039C124.683 22.0738 126.212 22.8337 127.356 23.987C128.661 25.2923 129.475 27.0894 129.475 29.0741V110.45C129.475 112.434 128.661 114.231 127.356 115.537C126.051 116.842 124.254 117.656 122.269 117.656H12.7313C10.7555 117.656 8.94956 116.842 7.64426 115.546C6.33897 114.24 5.52539 112.434 5.52539 110.459V29.0652C5.52539 27.0804 6.33897 25.2834 7.63532 23.9781C8.77075 22.8427 10.2817 22.0827 11.9535 21.9039C13.1068 21.7788 13.1963 23.0125 11.9535 23.1735C10.6214 23.3433 9.43234 23.9602 8.52042 24.8721C7.44758 25.945 6.77705 27.438 6.77705 29.0652V96.6367H6.78599ZM128.214 97.8973H6.78599V110.45C6.78599 112.086 7.45652 113.57 8.52936 114.643C9.60221 115.716 11.0953 116.386 12.7224 116.386H122.269C123.905 116.386 125.389 115.716 126.462 114.643C127.535 113.57 128.206 112.077 128.206 110.45V97.8973H128.214Z" fill="#333333"/>
<path fill-rule="evenodd" clip-rule="evenodd" d="M83.7362 125.451H51.2379H42.8071C40.4736 125.451 38.5693 127.355 38.5693 129.689C38.5693 132.022 40.4736 133.927 42.8071 133.927H90.7455C93.0789 133.927 94.9832 132.022 94.9832 129.689C94.9832 127.364 93.0789 125.451 90.7455 125.451H83.7362Z" fill="#EFEFEF"/>
<path fill-rule="evenodd" clip-rule="evenodd" d="M67.5087 103.601C69.4488 103.601 71.0223 105.175 71.0223 107.115C71.0223 109.055 69.4488 110.628 67.5087 110.628C65.5687 110.628 63.9952 109.055 63.9952 107.115C63.9862 105.175 65.5597 103.601 67.5087 103.601Z" fill="#9ADAF3"/>
<path d="M51.8729 116.654H50.6123V125.872H51.8729V116.654Z" fill="#333333"/>
<path d="M84.3622 116.708H83.1016V125.8H84.3622V116.708Z" fill="#333333"/>
<path fill-rule="evenodd" clip-rule="evenodd" d="M42.8069 124.826H90.7453C92.0864 124.826 93.3023 125.371 94.1785 126.256C95.0636 127.141 95.6089 128.357 95.6089 129.689C95.6089 131.021 95.0636 132.237 94.1785 133.122C93.3023 134.007 92.0864 134.553 90.7453 134.553H42.8069C41.4659 134.553 40.25 134.007 39.3738 133.122C38.4887 132.237 37.9434 131.021 37.9434 129.689C37.9434 128.357 38.4887 127.141 39.3738 126.256C40.2589 125.371 41.4748 124.826 42.8069 124.826ZM90.7543 126.086H42.8069C41.8146 126.086 40.9116 126.489 40.2589 127.141C39.6063 127.794 39.204 128.697 39.204 129.689C39.204 130.682 39.6063 131.585 40.2589 132.237C40.9116 132.89 41.8146 133.292 42.8069 133.292H90.7453C91.7377 133.292 92.6407 132.89 93.2934 132.237C93.946 131.585 94.3483 130.682 94.3483 129.689C94.3483 128.697 93.946 127.794 93.2934 127.141C92.6407 126.489 91.7467 126.086 90.7543 126.086Z" fill="#333333"/>
<path fill-rule="evenodd" clip-rule="evenodd" d="M18.4531 5.56068C18.4531 2.73552 20.7419 0.446777 23.5581 0.446777H111.433C114.258 0.446777 116.538 2.73552 116.538 5.56068V85.2643C116.538 88.0895 114.249 90.3693 111.433 90.3693H23.5581C20.7329 90.3693 18.4531 88.0806 18.4531 85.2643V5.56068Z" fill="#EFEFEF"/>
<path fill-rule="evenodd" clip-rule="evenodd" d="M111.442 1.46598H23.5581C21.3051 1.46598 19.4723 3.29876 19.4723 5.55174V85.2554C19.4723 87.5084 21.3051 89.3411 23.5581 89.3411H111.433C113.686 89.3411 115.519 87.5084 115.519 85.2554V5.56068C115.528 3.29876 113.695 1.46598 111.442 1.46598ZM23.5581 0.446777H111.433C114.258 0.446777 116.538 2.73552 116.538 5.56068V85.2643C116.538 88.0895 114.249 90.3693 111.433 90.3693H23.5581C20.7329 90.3693 18.4531 88.0806 18.4531 85.2643V5.56068C18.4531 2.73552 20.7419 0.446777 23.5581 0.446777Z" fill="#333333"/>
<path fill-rule="evenodd" clip-rule="evenodd" d="M29.6914 14.1437C29.6914 12.454 31.0593 11.0771 32.758 11.0771H102.243C103.932 11.0771 105.309 12.454 105.309 14.1437V30.4957C105.309 32.1854 103.941 33.5622 102.243 33.5622H32.758C31.0682 33.5622 29.6914 32.1854 29.6914 30.4957V14.1437Z" fill="white"/>
<path fill-rule="evenodd" clip-rule="evenodd" d="M38.2116 11.0771H32.758C31.0682 11.0771 29.6914 12.454 29.6914 14.1437V30.4957C29.6914 32.1854 31.0593 33.5622 32.758 33.5622H102.243C103.932 33.5622 105.309 32.1854 105.309 30.4957V14.1437C105.309 12.454 103.941 11.0771 102.243 11.0771H57.809C56.9864 11.0771 56.9328 12.0964 57.8715 12.0964H102.243C103.369 12.0964 104.29 13.0083 104.29 14.1437V30.4957C104.29 31.6222 103.378 32.543 102.243 32.543H32.758C31.6315 32.543 30.7106 31.6311 30.7106 30.4957V14.1437C30.7106 13.0172 31.6225 12.0964 32.758 12.0964H38.2116C39.2666 12.0964 39.2666 11.0771 38.2116 11.0771Z" fill="#333333"/>
<path fill-rule="evenodd" clip-rule="evenodd" d="M48.0813 22.3149C37.5942 22.3149 34.7959 29.4673 34.7959 29.4673H61.3668C61.3668 29.4673 58.5684 22.3149 48.0813 22.3149Z" fill="#CCE9FF"/>
<path fill-rule="evenodd" clip-rule="evenodd" d="M33.8752 29.0471L34.805 29.4673H61.3759L62.3057 29.0471C62.4487 29.36 62.4219 29.7355 62.2341 30.0216C62.0464 30.3166 61.7245 30.4954 61.3759 30.4954H34.805C34.4563 30.4954 34.1345 30.3166 33.9467 30.0216C33.759 29.7355 33.7322 29.36 33.8752 29.0471ZM60.7232 28.4481C61.1881 29.056 61.3669 29.4673 61.3669 29.4673L62.2967 29.0381C62.3146 29.0649 62.261 29.0024 62.2967 29.0381C62.2699 28.9755 62.1716 28.7878 62.109 28.6894C61.9928 28.4928 61.8229 28.2156 61.5815 27.9027C61.1077 27.259 60.3656 26.4186 59.2749 25.5871C57.0755 23.9153 53.5351 22.3149 48.0815 22.3149C42.6279 22.3149 39.0785 23.9153 36.8881 25.5871C35.7974 26.4186 35.0553 27.259 34.5815 27.9027C34.3401 28.2245 34.1702 28.4928 34.054 28.6894C34.0004 28.7878 33.9557 28.8683 33.9199 28.9308C33.902 28.9577 33.8931 28.9845 33.8841 29.0024L33.8752 29.0292L33.8663 29.0381C33.8663 29.0381 33.8663 29.0381 34.7961 29.4673C34.7961 29.4673 34.9838 29.056 35.4487 28.4481C36.763 26.7047 40.3123 23.3341 48.0815 23.3341C55.8507 23.3431 59.4 26.7047 60.7232 28.4481Z" fill="#333333"/>
<path fill-rule="evenodd" clip-rule="evenodd" d="M45.0244 20.2764H51.1486V24.0381L48.1013 26.9814L45.0244 24.0381V20.2764Z" fill="white"/>
<path fill-rule="evenodd" clip-rule="evenodd" d="M54.2145 15.1629C54.2145 18.5513 51.4698 21.296 48.0814 21.296C44.6929 21.296 41.9482 18.5513 41.9482 15.1629C41.9482 11.7745 44.6929 9.02979 48.0814 9.02979C51.4698 9.03873 54.2145 11.7834 54.2145 15.1629Z" fill="white"/>
<path fill-rule="evenodd" clip-rule="evenodd" d="M48.0814 20.2768C50.9065 20.2768 53.1953 17.9881 53.1953 15.1718C53.1953 12.3467 50.9065 10.0579 48.0814 10.0579C45.2562 10.0579 42.9764 12.3467 42.9764 15.1718C42.9764 17.9881 45.2651 20.2768 48.0814 20.2768ZM48.0814 21.296C44.6929 21.296 41.9482 18.5513 41.9482 15.1629C41.9482 11.7745 44.6929 9.02979 48.0814 9.02979C51.4698 9.02979 54.2145 11.7745 54.2145 15.1629C54.2145 18.5513 51.4698 21.296 48.0814 21.296Z" fill="#333333"/>
<path fill-rule="evenodd" clip-rule="evenodd" d="M48.1888 11.0641C49.2259 12.7627 50.7368 15.1807 53.2937 15.1807C53.5977 12.0069 50.3613 9.85059 48.1888 9.85059C45.2474 9.85059 42.6904 12.1231 42.6904 15.5205C45.3636 15.0913 47.5182 13.2545 48.1888 11.0641Z" fill="#AAAAAA"/>
<path fill-rule="evenodd" clip-rule="evenodd" d="M47.4824 10.0937C45.2294 10.353 43.486 11.8639 43.0658 14.1079C43.0032 14.4477 42.9675 14.7963 42.9675 15.1629C43.3251 15.1003 43.6648 15.0199 43.9956 14.9215C45.6674 14.4119 46.9459 13.3927 47.6969 12.0159C47.5896 12.3467 47.8578 11.7208 47.6969 12.0159C47.7237 11.9354 48.1529 10.9162 48.1797 10.8357C48.2244 10.9162 48.278 10.9967 48.3227 11.0771C48.4926 11.3632 48.6714 11.6493 48.8681 11.9354C49.6638 13.1066 50.692 14.1079 52.185 14.9215C52.5069 15.002 52.8198 15.1629 53.1863 15.1629C53.1863 14.8321 53.1148 13.9738 52.9718 13.6251C52.3638 12.0874 50.5757 10.5407 48.9307 10.1473C48.6714 10.0848 48.4211 10.049 48.1797 10.049C47.9473 10.0579 47.7148 10.0669 47.4824 10.0937ZM48.3406 12.9457C47.241 14.6444 45.4171 15.7887 43.1463 16.1732C42.8512 16.2268 42.5473 16.1374 42.3148 15.9407C42.0824 15.744 41.9482 15.4579 41.9482 15.1629C41.9482 11.4884 44.7198 9.02979 48.1797 9.02979C49.6191 9.02979 51.1032 9.84336 52.185 10.8357C53.2578 11.8102 54.2055 13.2049 54.2055 14.6533C54.2055 15.2165 53.7496 16.1732 53.1863 16.1732C50.8976 16.1732 49.3867 14.3404 48.3406 12.9457Z" fill="#333333"/>
<path fill-rule="evenodd" clip-rule="evenodd" d="M50.6383 19.8262C50.9602 19.8262 51.1479 20.0676 51.1479 20.3358V24.1298C51.1479 24.2639 51.1479 24.4964 50.9602 24.6484L48.4747 27.3037C48.2512 27.4735 47.9026 27.4735 47.679 27.3037L45.1936 24.6484C45.0059 24.4517 45.0059 24.2639 45.0059 24.1298L45.0059 20.3358C45.0059 20.0676 45.2204 19.8262 45.5423 19.8262C45.8641 19.8262 46.0161 20.0676 46.0161 20.3358L46.0251 23.8974L48.0724 26.0937L50.1198 23.8974V20.3358C50.1287 20.0676 50.3165 19.8262 50.6383 19.8262Z" fill="#333333"/>
<path fill-rule="evenodd" clip-rule="evenodd" d="M66.4814 19.7669C66.4814 19.4808 66.7139 19.2573 66.991 19.2573H94.5722C94.8583 19.2573 95.0907 19.4898 95.0907 19.7669C95.0907 20.0441 94.8583 20.2765 94.5722 20.2765H66.991C66.7139 20.2765 66.4814 20.0441 66.4814 19.7669Z" fill="#333333"/>
<path fill-rule="evenodd" clip-rule="evenodd" d="M66.4814 23.8529C66.4814 23.5668 66.7139 23.3433 67.0089 23.3433H88.4301C88.7252 23.3433 88.9576 23.5757 88.9576 23.8529C88.9576 24.139 88.7252 24.3625 88.4301 24.3625H67.0089C66.7139 24.3625 66.4814 24.13 66.4814 23.8529Z" fill="#333333"/>
<path fill-rule="evenodd" clip-rule="evenodd" d="M29.6914 44.8C29.6914 43.1102 31.0593 41.7334 32.758 41.7334H102.243C103.932 41.7334 105.309 43.1102 105.309 44.8V61.1519C105.309 62.8417 103.941 64.2185 102.243 64.2185H32.758C31.0682 64.2185 29.6914 62.8417 29.6914 61.1519V44.8Z" fill="white"/>
<path fill-rule="evenodd" clip-rule="evenodd" d="M38.3099 41.7334H32.758C31.0682 41.7334 29.6914 43.1102 29.6914 44.8V61.1519C29.6914 62.8417 31.0593 64.2185 32.758 64.2185H102.243C103.932 64.2185 105.309 62.8417 105.309 61.1519V44.8C105.309 43.1102 103.941 41.7334 102.243 41.7334H57.9788C56.906 41.7334 56.8881 42.7526 57.9967 42.7526H102.243C103.369 42.7526 104.29 43.6645 104.29 44.8V61.1519C104.29 62.2784 103.378 63.1993 102.243 63.1993H32.758C31.6315 63.1993 30.7106 62.2874 30.7106 61.1519V44.8C30.7106 43.6735 31.6225 42.7526 32.758 42.7526H38.2652C39.2487 42.7526 39.2129 41.7334 38.3099 41.7334Z" fill="#333333"/>
<path fill-rule="evenodd" clip-rule="evenodd" d="M48.0813 52.9717C37.5942 52.9717 34.7959 60.124 34.7959 60.124H61.3668C61.3668 60.124 58.5684 52.9717 48.0813 52.9717Z" fill="#CCE9FF"/>
<path fill-rule="evenodd" clip-rule="evenodd" d="M33.8752 59.7038L34.805 60.124H61.3759L62.3057 59.7038C62.4487 60.0167 62.4219 60.3922 62.2341 60.6783C62.0464 60.9733 61.7245 61.1432 61.3759 61.1432H34.805C34.4563 61.1432 34.1345 60.9644 33.9467 60.6783C33.759 60.3833 33.7322 60.0167 33.8752 59.7038ZM60.7232 59.1048C61.1881 59.7127 61.3669 60.124 61.3669 60.124L62.2967 59.7038C62.3146 59.7306 62.261 59.668 62.2967 59.7038C62.2699 59.6412 62.1716 59.4535 62.109 59.3551C61.9928 59.1584 61.8229 58.8813 61.5815 58.5594C61.1077 57.9157 60.3656 57.0753 59.2749 56.2439C57.0755 54.572 53.5351 52.9717 48.0815 52.9717C42.6279 52.9717 39.0785 54.572 36.8881 56.2439C35.7974 57.0753 35.0553 57.9157 34.5815 58.5594C34.3401 58.8813 34.1702 59.1495 34.054 59.3551C34.0004 59.4535 33.9557 59.5339 33.9199 59.5965C33.902 59.6233 33.8931 59.6502 33.8841 59.668L33.8752 59.6949L33.8663 59.7038C33.8663 59.7038 33.8663 59.7038 34.7961 60.124C34.7961 60.124 34.9838 59.7127 35.4487 59.1048C36.763 57.3614 40.3123 53.9909 48.0815 53.9909C55.8507 53.9909 59.4 57.3614 60.7232 59.1048Z" fill="#333333"/>
<path fill-rule="evenodd" clip-rule="evenodd" d="M45.0244 50.9331H51.1486V55.0189L48.082 57.5783L45.0244 55.0189V50.9331Z" fill="white"/>
<path fill-rule="evenodd" clip-rule="evenodd" d="M54.2145 45.8191C54.2145 49.2076 51.4698 51.9523 48.0814 51.9523C44.6929 51.9523 41.9482 49.2076 41.9482 45.8191C41.9482 42.4307 44.6929 39.686 48.0814 39.686C51.4698 39.686 54.2145 42.4307 54.2145 45.8191Z" fill="white"/>
<path fill-rule="evenodd" clip-rule="evenodd" d="M48.0814 50.9331C50.9065 50.9331 53.1953 48.6443 53.1953 45.8281C53.1953 43.0029 50.9065 40.7231 48.0814 40.7231C45.2562 40.7231 42.9764 43.0119 42.9764 45.8281C42.9764 48.6443 45.2651 50.9331 48.0814 50.9331ZM48.0814 51.9523C44.6929 51.9523 41.9482 49.2076 41.9482 45.8191C41.9482 42.4307 44.6929 39.686 48.0814 39.686C51.4698 39.686 54.2145 42.4307 54.2145 45.8191C54.2145 49.2076 51.4698 51.9523 48.0814 51.9523Z" fill="#333333"/>
<path fill-rule="evenodd" clip-rule="evenodd" d="M48.1888 41.8147C49.2259 43.5134 50.7368 45.837 53.2937 45.837C53.5977 42.6542 50.3613 40.6694 48.1888 40.6694C45.2474 40.6694 42.6904 42.7794 42.6904 46.1767C45.3636 45.7476 47.5182 44.0051 48.1888 41.8147Z" fill="#AAAAAA"/>
<path fill-rule="evenodd" clip-rule="evenodd" d="M47.4829 40.7502C45.23 41.0094 43.4866 42.5204 43.0664 44.7644C43.0038 45.1041 42.968 45.4528 42.968 45.8194C43.3257 45.7568 43.6654 45.6763 43.9962 45.578C45.668 45.0684 46.9465 44.0492 47.6975 42.6723C47.7243 42.5919 48.1535 41.5727 48.1803 41.4922C48.225 41.5727 48.2786 41.6531 48.3233 41.7425C48.4932 42.0286 48.672 42.3147 48.8687 42.6008C49.6644 43.772 50.6925 44.7733 52.1856 45.5869C52.5074 45.6674 52.8204 45.8283 53.1869 45.8283C53.1869 45.4975 53.1154 44.6392 52.9723 44.2906C52.3644 42.7528 50.5763 41.2061 48.9313 40.8127C48.672 40.7502 48.4217 40.7233 48.1803 40.7233C47.9478 40.7144 47.7154 40.7233 47.4829 40.7502ZM48.3412 43.6021C47.2415 45.3008 45.4177 46.4452 43.1468 46.8296C42.8518 46.8833 42.5478 46.7939 42.3154 46.6061C42.0829 46.4094 42.1336 46.1145 42.1336 45.8194C42.1336 42.1449 44.8813 39.9038 48.3412 39.9038C49.7806 39.9038 51.1038 40.5088 52.1856 41.5011C53.2584 42.4757 54.2061 43.8704 54.2061 45.3187C54.2061 45.8819 53.7502 46.8386 53.1869 46.8386C50.8982 46.8296 49.3872 44.9968 48.3412 43.6021Z" fill="#333333"/>
<path fill-rule="evenodd" clip-rule="evenodd" d="M50.6473 50.5712C50.9691 50.5712 51.1569 50.8126 51.1569 51.0719L51.1479 54.7776C51.1479 54.9117 51.1479 55.1441 50.9602 55.2961L48.4747 57.9514C48.2512 58.1213 47.9026 58.1213 47.679 57.9514L45.1936 55.2961C45.0059 55.0994 45.0059 54.9117 45.0059 54.7776L45.0148 51.0719C45.0148 50.8126 45.2294 50.5712 45.5512 50.5712C45.8731 50.5712 46.0251 50.8126 46.0251 51.0719V54.5451L48.0724 56.7965L50.1198 54.5451L50.1287 51.0719C50.1377 50.8126 50.3254 50.5712 50.6473 50.5712Z" fill="#333333"/>
<path fill-rule="evenodd" clip-rule="evenodd" d="M66.4814 50.4149C66.4814 50.1288 66.7139 49.9053 66.991 49.9053H94.5722C94.8583 49.9053 95.0907 50.1288 95.0907 50.4149C95.0907 50.692 94.8583 50.9245 94.5722 50.9245H66.991C66.7139 50.9334 66.4814 50.701 66.4814 50.4149Z" fill="#333333"/>
<path fill-rule="evenodd" clip-rule="evenodd" d="M66.4814 54.5096C66.4814 54.2235 66.7139 54 67.0089 54H88.4301C88.7252 54 88.9576 54.2325 88.9576 54.5096C88.9576 54.7957 88.7252 55.0192 88.4301 55.0192H67.0089C66.7139 55.0192 66.4814 54.7868 66.4814 54.5096Z" fill="#333333"/>
<path fill-rule="evenodd" clip-rule="evenodd" d="M68.5914 68.6265V78.1301C68.5914 78.6397 68.3142 78.9705 67.9566 79.1225C67.8225 79.1762 67.6795 79.203 67.5364 79.203C67.3934 79.203 67.2503 79.1762 67.1162 79.1225C66.7586 78.9705 66.4814 78.6397 66.4814 78.1301V68.5997C66.4814 68.0811 66.7586 67.7414 67.1162 67.5894C67.2503 67.5268 67.4023 67.5 67.5454 67.5C67.6884 67.5 67.8404 67.5358 67.9745 67.5894C68.3142 67.7503 68.5914 68.0901 68.5914 68.6265Z" fill="url(#paint0_linear)"/>
<path fill-rule="evenodd" clip-rule="evenodd" d="M59.2928 76.0737C62.0464 78.6575 64.809 81.2144 67.5179 83.8429C70.2269 81.2144 72.9895 78.6575 75.7431 76.0737C75.8683 75.9575 76.0113 75.8681 76.1633 75.8144C76.3153 75.7608 76.4851 75.734 76.655 75.7429C76.8249 75.7429 77.0037 75.7787 77.1557 75.8502C77.3166 75.9128 77.4597 76.0111 77.5938 76.1363L77.6474 76.1899C77.7547 76.3062 77.8441 76.4313 77.8977 76.5744C77.9603 76.7174 77.9871 76.8694 77.9961 77.0214C77.9961 77.1644 77.9693 77.3164 77.9156 77.4505C77.862 77.5846 77.7815 77.7098 77.6832 77.8171L68.5371 86.3999C68.4746 86.4624 68.403 86.5161 68.3226 86.5608C68.2421 86.6055 68.1616 86.6412 68.0812 86.6681C67.9918 86.6949 67.9024 86.7128 67.804 86.7307C67.7146 86.7396 67.6252 86.7396 67.5269 86.7307H67.5C67.4017 86.7396 67.3123 86.7396 67.214 86.7307C67.1246 86.7217 67.0262 86.7038 66.9368 86.6681C66.8563 86.6412 66.7759 86.6055 66.7044 86.5608C66.6239 86.5161 66.5524 86.4624 66.4898 86.3999L57.3438 77.8171C57.2365 77.7098 57.156 77.5846 57.1113 77.4505C57.0577 77.3164 57.0308 77.1644 57.0398 77.0214C57.0398 76.8694 57.0755 76.7174 57.1381 76.5744C57.1918 76.4403 57.2812 76.3062 57.3885 76.1899L57.4421 76.1363C57.5673 76.0111 57.7193 75.9217 57.8712 75.8502C58.0322 75.7876 58.202 75.7518 58.3719 75.7429C58.5418 75.7429 58.7116 75.7608 58.8636 75.8144C59.0245 75.8681 59.1676 75.9575 59.2928 76.0737Z" fill="url(#paint1_linear)"/>
<defs>
<linearGradient id="paint0_linear" x1="62.7725" y1="68.1209" x2="68.2416" y2="74.145" gradientUnits="userSpaceOnUse">
<stop stop-color="#FFC671"/>
<stop offset="1" stop-color="#FF6F3D"/>
</linearGradient>
<linearGradient id="paint1_linear" x1="59.8259" y1="68.5433" x2="68.7528" y2="78.376" gradientUnits="userSpaceOnUse">
<stop stop-color="#FFC671"/>
<stop offset="1" stop-color="#FF6F3D"/>
</linearGradient>
</defs>
</svg>
