<svg width="135" height="135" viewBox="0 0 135 135" fill="none" xmlns="http://www.w3.org/2000/svg">
<path fill-rule="evenodd" clip-rule="evenodd" d="M89.2627 104.865C84.5015 104.62 76.7953 102.396 73.9368 99.5221C73.9898 99.1483 74.0412 98.7588 74.0942 98.358C74.5461 94.9385 75.1065 90.6987 77.6397 88.4511C79.1365 87.1234 84.2583 85.025 87.4121 84.1621C88.1054 84.5043 88.6227 84.8652 89.1611 85.2954C90.5038 84.7701 93.0382 84.4309 97.4599 84.1621C99.1252 84.58 103.34 85.8715 105.994 87.2961C110.241 89.6212 110.945 94.7157 111.553 99.1131C111.576 99.2801 111.599 99.4461 111.622 99.6109C105.556 103.908 98.7829 105.234 91.9083 105.809C90.6385 105.809 89.7976 105.462 89.2627 104.865Z" fill="#BDECFF"/>
<path d="M97.0615 105.048C102.29 104.174 107.06 102.949 111.499 99.9567C111.809 99.7479 111.968 99.3788 111.917 99.0086C111.312 94.6353 110.586 89.6027 106.373 87.2959C103.779 85.904 99.8257 84.2457 98.0926 83.7807C98.0133 83.7594 97.933 83.75 97.8509 83.75H87.7882C87.6539 83.75 87.5211 83.777 87.3975 83.8295L77.7281 87.9336" stroke="#333333" stroke-linecap="round"/>
<path d="M87.4296 83.6845L87.4049 83.7852L87.4222 83.8875C87.9429 86.9511 90.19 88.542 92.5307 88.542C94.8624 88.542 97.2057 86.9652 97.954 83.9231L97.9888 83.7816L97.9422 83.6436C97.5703 82.5437 97.5426 81.3936 97.5301 80.1542V80.1541V80.154V80.1539V80.1538V80.1537V80.1536V80.1535V80.1533V80.1532V80.1531V80.153V80.1529V80.1527V80.1526V80.1525V80.1524V80.1522V80.1521V80.152V80.1518V80.1517V80.1516V80.1514V80.1513V80.1511V80.151V80.1508V80.1507V80.1505V80.1504V80.1502V80.1501V80.1499V80.1498V80.1496V80.1495V80.1493V80.1491V80.149V80.1488V80.1486V80.1485V80.1483V80.1481V80.1479V80.1478V80.1476V80.1474V80.1472V80.1471V80.1469V80.1467V80.1465V80.1463V80.1461V80.1459V80.1458V80.1456V80.1454V80.1452V80.145V80.1448V80.1446V80.1444V80.1442V80.144V80.1438V80.1436V80.1434V80.1432V80.143V80.1427V80.1425V80.1423V80.1421V80.1419V80.1417V80.1415V80.1412V80.141V80.1408V80.1406V80.1403V80.1401V80.1399V80.1397V80.1394V80.1392V80.139V80.1387V80.1385V80.1383V80.138V80.1378V80.1375V80.1373V80.1371V80.1368V80.1366V80.1363V80.1361V80.1358V80.1356V80.1353V80.1351V80.1348V80.1346V80.1343V80.1341V80.1338V80.1335V80.1333V80.133V80.1328V80.1325V80.1322V80.132V80.1317V80.1314V80.1312V80.1309V80.1306V80.1304V80.1301V80.1298V80.1295V80.1293V80.129V80.1287V80.1284V80.1281V80.1279V80.1276V80.1273V80.127V80.1267V80.1264V80.1261V80.1259V80.1256V80.1253V80.125V80.1247V80.1244V80.1241V80.1238V80.1235V80.1232V80.1229V80.1226V80.1223V80.122V80.1217V80.1214V80.1211V80.1208V80.1205V80.1202V80.1199V80.1196V80.1193V80.1189V80.1186V80.1183V80.118V80.1177V80.1174V80.1171V80.1167V80.1164V80.1161V80.1158V80.1155V80.1151V80.1148V80.1145V80.1142V80.1138V80.1135V80.1132V80.1129V80.1125V80.1122V80.1119V80.1116V80.1112V80.1109V80.1106V80.1102V80.1099V80.1096V80.1092V80.1089V80.1085V80.1082V80.1079V80.1075V80.1072V80.1068V80.1065V80.1062V80.1058V80.1055V80.1051V80.1048V80.1044V80.1041V80.1037V80.1034V80.103V80.1027V80.1023V80.102V80.1016V80.1013V80.1009V80.1006V80.1002V80.0999V80.0995V80.0992V80.0988V80.0984V80.0981V80.0977V80.0974V80.097V80.0966V80.0963V80.0959V80.0956V80.0952V80.0948V80.0945V80.0941V80.0937V80.0934V80.093V80.0926V80.0923V80.0919V80.0915V80.0912V80.0908V80.0904V80.0901V80.0897V80.0893V80.0889V80.0886V80.0882V80.0878V80.0874V80.0871V80.0867V80.0863V80.0859V80.0856V80.0852V80.0848V80.0844V80.0841V80.0837V80.0833V80.0829V80.0825V80.0822V80.0818V80.0814V80.081V80.0806V80.0802V80.0799V80.0795V80.0791V80.0787V80.0783V80.0779V80.0776V80.0772V80.0768V80.0764V80.076V80.0756V80.0752V80.0748V80.0745V80.0741V80.0737V80.0733V80.0729V80.0725V80.0721V80.0717V80.0713V80.071V80.0706V80.0702V80.0698V80.0694V80.069V80.0686V80.0682V80.0678V80.0674V80.067V80.0666V80.0662V80.0658V80.0655V80.0651V80.0647V80.0643V80.0639V80.0635V80.0631V80.0627V80.0623V80.0619V80.0615V80.0611V80.0607V80.0603V80.0599V80.0595V80.0591V80.0587V80.0583V80.0579V80.0575V80.0571V80.0567V80.0563V80.0559V80.0555V80.0551V80.0547V80.0543V80.0539V80.0535V80.0531V80.0527V80.0523V80.0519V80.0515V80.0511V80.0507V80.0503V80.0499V80.0495V80.0491V80.0487V80.0483V80.0479V80.0475V80.0471V80.0467V80.0463V80.0459V80.0455V80.0452V80.0448V80.0444V80.044V80.0436V80.0432V80.0428V80.0424V80.042V80.0416V80.0412V80.0408V80.0404V80.04V80.0396V80.0392V80.0388V80.0384V80.038V80.0376V80.0372V80.0368V80.0364V80.036V80.0356V80.0352V80.0348V80.0344V80.034V80.0336V80.0332V80.0328V80.0324V80.032V80.0316V80.0312V80.0308V80.0304V80.03V80.0296V80.0292V80.0288V80.0284V80.028V80.0276V80.0273V80.0269V80.0265V80.0261V80.0257V80.0253V80.0249V80.0245V80.0241V80.0237V80.0233V80.0229V80.0225V80.0222V80.0218V80.0214V80.021V80.0206V80.0202V80.0198V80.0194V80.019V80.0186V80.0183V80.0179V80.0175V80.0171V80.0167V80.0163V80.0159V80.0156V80.0152V80.0148V80.0144V80.014V80.0136V80.0132V80.0129V80.0125V80.0121V80.0117V80.0113V80.011V80.0106V80.0102V80.0098V80.0094V80.0091V80.0087V80.0083V80.0079V80.0076V80.0072V80.0068V80.0064V80.006V80.0057V80.0053V80.0049V80.0046V80.0042V80.0038V80.0034V80.0031V80.0027V80.0023V80.002V80.0016V80.0012V80.0009V80.0005V80.0001V79.9998V79.9994V79.999V79.0054L96.7322 79.5975C95.5072 80.5065 94.0757 81.0259 92.5471 81.0259C91.1099 81.0259 89.7562 80.5678 88.584 79.7578L87.7998 79.2159V80.1691V80.1694V80.1696V80.1699V80.1701V80.1703V80.1706V80.1708V80.1711V80.1713V80.1716V80.1718V80.1721V80.1723V80.1725V80.1728V80.173V80.1733V80.1735V80.1738V80.174V80.1742V80.1745V80.1747V80.175V80.1752V80.1754V80.1757V80.1759V80.1762V80.1764V80.1767V80.1769V80.1771V80.1774V80.1776V80.1779V80.1781V80.1784V80.1786V80.1788V80.1791V80.1793V80.1796V80.1798V80.18V80.1803V80.1805V80.1808V80.181V80.1813V80.1815V80.1817V80.182V80.1822V80.1825V80.1827V80.1829V80.1832V80.1834V80.1837V80.1839V80.1841V80.1844V80.1846V80.1849V80.1851V80.1853V80.1856V80.1858V80.1861V80.1863V80.1865V80.1868V80.187V80.1872V80.1875V80.1877V80.188V80.1882V80.1884V80.1887V80.1889V80.1892V80.1894V80.1896V80.1899V80.1901V80.1903V80.1906V80.1908V80.191V80.1913V80.1915V80.1918V80.192V80.1922V80.1925V80.1927V80.1929V80.1932V80.1934V80.1936V80.1939V80.1941V80.1943V80.1946V80.1948V80.195V80.1953V80.1955V80.1957V80.196V80.1962V80.1964V80.1967V80.1969V80.1971V80.1974V80.1976V80.1978V80.1981V80.1983V80.1985V80.1987V80.199V80.1992V80.1994V80.1997V80.1999V80.2001V80.2004V80.2006V80.2008V80.201V80.2013V80.2015V80.2017V80.202V80.2022V80.2024V80.2026V80.2029V80.2031V80.2033V80.2035V80.2038V80.204V80.2042V80.2044V80.2047V80.2049V80.2051V80.2053V80.2056V80.2058V80.206V80.2062V80.2064V80.2067V80.2069V80.2071V80.2073V80.2076V80.2078V80.208V80.2082V80.2084V80.2087V80.2089V80.2091V80.2093V80.2095V80.2098V80.21V80.2102V80.2104V80.2106V80.2108V80.2111V80.2113V80.2115V80.2117V80.2119V80.2121V80.2123V80.2126V80.2128V80.213V80.2132V80.2134V80.2136V80.2138V80.2141V80.2143V80.2145V80.2147V80.2149V80.2151V80.2153V80.2155V80.2157V80.2159V80.2162V80.2164V80.2166V80.2168V80.217V80.2172V80.2174V80.2176V80.2178V80.218V80.2182V80.2184V80.2186V80.2188V80.219V80.2192V80.2195V80.2197V80.2199V80.2201V80.2203V80.2205V80.2207V80.2209V80.2211V80.2213V80.2215V80.2217V80.2219V80.2221V80.2223V80.2225V80.2227V80.2229V80.223V80.2232V80.2234V80.2236V80.2238V80.224V80.2242V80.2244V80.2246V80.2248V80.225V80.2252V80.2254V80.2256V80.2258V80.2259V80.2261V80.2263V80.2265V80.2267V80.2269V80.2271V80.2273V80.2275V80.2276V80.2278V80.228V80.2282V80.2284V80.2286V80.2287V80.2289V80.2291V80.2293V80.2295V80.2297V80.2298V80.23V80.2302V80.2304V80.2306V80.2307V80.2309V80.2311V80.2313V80.2315V80.2316V80.2318V80.232V80.2322V80.2323V80.2325V80.2327V80.2329V80.233V80.2332V80.2334V80.2335V80.2337V80.2339V80.234V80.2342V80.2344V80.2346V80.2347V80.2349V80.2351V80.2352V80.2354V80.2356V80.2357V80.2359V80.236V80.2362V80.2364V80.2365V80.2367V80.2369V80.237V80.2372V80.2373V80.2375V80.2377V80.2378V80.238V80.2381V80.2383V80.2384V80.2386V80.2387V80.2389V80.2391V80.2392V80.2394V80.2395V80.2397V80.2398V80.24V80.2401V80.2403V80.2404V80.2406V80.2407V80.2409V80.241V80.2411V80.2413V80.2414V80.2416V80.2417V80.2419V80.242V80.2422V80.2423V80.2424V80.2426V80.2427V80.2429V80.243V80.2431V80.2433V80.2434V80.2435V80.2436C87.7981 80.2773 87.7964 80.311 87.7947 80.3446C87.7342 81.5416 87.6768 82.677 87.4296 83.6845Z" fill="#FEFEFE" stroke="#333333"/>
<path fill-rule="evenodd" clip-rule="evenodd" d="M92.5481 81.5256C94.1941 81.5256 95.7284 80.9655 97.0312 79.9987C97.6019 79.5755 98.1271 79.0693 98.5986 78.5009C99.4629 77.4554 100.141 76.1816 100.567 74.7668C100.89 73.6839 101.068 72.518 101.068 71.3065C101.068 70.8833 101.047 70.4642 101.006 70.0535C99.07 69.8792 92.4571 69.4934 90.3149 63.415C89.4257 65.614 88.4952 66.7426 84.4588 68.091C84.1817 69.1034 84.0287 70.1821 84.0287 71.3065C84.0287 71.9703 84.0825 72.6176 84.1817 73.2441C84.5084 75.273 85.3314 77.0944 86.4977 78.5009C87.0312 79.1482 87.6391 79.7083 88.3008 80.1647C89.5498 81.0318 91.0014 81.5256 92.5481 81.5256Z" fill="#FEFEFE"/>
<path fill-rule="evenodd" clip-rule="evenodd" d="M90.3134 63.4113C92.4515 69.4897 99.0644 69.8755 101.004 70.0498C101.045 70.4605 101.066 70.8796 101.066 71.3028C101.066 72.5185 100.888 73.6843 100.566 74.7672C106.617 60.1558 92.6706 57.4409 90.1107 60.6024C84.4615 60.1558 81.4299 67.6739 84.1843 73.2445C84.0851 72.618 84.0313 71.9666 84.0313 71.3028C84.0313 70.1784 84.1843 69.0997 84.4614 68.0873C88.4937 66.7389 89.4242 65.6103 90.3134 63.4113Z" fill="#AAAAAA" stroke="#333333" stroke-linejoin="round"/>
<path d="M84.5535 68.0928C83.0964 73.1048 84.9671 78.5369 89.4884 80.88C91.481 81.9169 93.8624 81.9127 95.8555 80.88C99.7169 78.8789 101.414 74.3578 100.998 69.9723" stroke="#333333"/>
<path d="M104.644 101.625L104.196 99.2621" stroke="#333333" stroke-linecap="round" stroke-linejoin="round"/>
<path fill-rule="evenodd" clip-rule="evenodd" d="M45.1143 104.288C49.8756 104.043 57.5812 101.819 60.4396 98.9449C60.3866 98.5712 60.3351 98.1817 60.2821 97.7809C59.8302 94.3613 59.2699 90.1216 56.7366 87.874C55.2398 86.5463 50.118 84.4479 46.9642 83.585C46.271 83.9271 45.7537 84.288 45.2154 84.7181C43.8727 84.1928 41.3383 83.8537 36.9171 83.585C35.2518 84.0028 31.0374 85.2944 28.3825 86.719C24.1356 89.0441 23.4318 94.1386 22.8244 98.5359C22.8013 98.7029 22.7784 98.8689 22.7554 99.0338C28.8211 103.33 35.5941 104.657 42.4687 105.232C43.7385 105.232 44.5794 104.884 45.1143 104.288Z" fill="#BDECFF"/>
<path d="M37.543 104.865C32.8039 104.134 26.3121 102.347 22.4497 99.5056C22.166 99.2969 22.0292 98.9471 22.0795 98.5985C22.7136 94.2059 23.7772 89.0308 28.0037 86.7168C30.5978 85.3248 34.5507 83.6666 36.2839 83.2016C36.3631 83.1803 36.4435 83.1709 36.5256 83.1709H46.5883C46.7225 83.1709 46.8554 83.1979 46.979 83.2504L56.6483 87.3545" stroke="#333333" stroke-linecap="round"/>
<path d="M46.948 83.1054L46.9727 83.2061L46.9553 83.3084C46.4347 86.372 44.1876 87.9629 41.8469 87.9629C39.5151 87.9629 37.1719 86.3861 36.4235 83.344L36.3887 83.2025L36.4354 83.0645C36.8072 81.9646 36.8349 80.8145 36.8474 79.5751V79.575V79.5749V79.5748V79.5747V79.5746V79.5745V79.5744V79.5742V79.5741V79.574V79.5739V79.5738V79.5736V79.5735V79.5734V79.5733V79.5731V79.573V79.5729V79.5727V79.5726V79.5725V79.5723V79.5722V79.572V79.5719V79.5717V79.5716V79.5714V79.5713V79.5711V79.571V79.5708V79.5707V79.5705V79.5704V79.5702V79.57V79.5699V79.5697V79.5695V79.5694V79.5692V79.569V79.5688V79.5687V79.5685V79.5683V79.5681V79.568V79.5678V79.5676V79.5674V79.5672V79.567V79.5668V79.5667V79.5665V79.5663V79.5661V79.5659V79.5657V79.5655V79.5653V79.5651V79.5649V79.5647V79.5645V79.5643V79.5641V79.5639V79.5636V79.5634V79.5632V79.563V79.5628V79.5626V79.5623V79.5621V79.5619V79.5617V79.5615V79.5612V79.561V79.5608V79.5606V79.5603V79.5601V79.5599V79.5596V79.5594V79.5592V79.5589V79.5587V79.5584V79.5582V79.558V79.5577V79.5575V79.5572V79.557V79.5567V79.5565V79.5562V79.556V79.5557V79.5555V79.5552V79.555V79.5547V79.5544V79.5542V79.5539V79.5537V79.5534V79.5531V79.5529V79.5526V79.5523V79.5521V79.5518V79.5515V79.5513V79.551V79.5507V79.5504V79.5502V79.5499V79.5496V79.5493V79.549V79.5488V79.5485V79.5482V79.5479V79.5476V79.5473V79.547V79.5468V79.5465V79.5462V79.5459V79.5456V79.5453V79.545V79.5447V79.5444V79.5441V79.5438V79.5435V79.5432V79.5429V79.5426V79.5423V79.542V79.5417V79.5414V79.5411V79.5408V79.5405V79.5402V79.5398V79.5395V79.5392V79.5389V79.5386V79.5383V79.538V79.5376V79.5373V79.537V79.5367V79.5364V79.536V79.5357V79.5354V79.5351V79.5347V79.5344V79.5341V79.5338V79.5334V79.5331V79.5328V79.5324V79.5321V79.5318V79.5315V79.5311V79.5308V79.5304V79.5301V79.5298V79.5294V79.5291V79.5288V79.5284V79.5281V79.5277V79.5274V79.5271V79.5267V79.5264V79.526V79.5257V79.5253V79.525V79.5246V79.5243V79.5239V79.5236V79.5232V79.5229V79.5225V79.5222V79.5218V79.5215V79.5211V79.5208V79.5204V79.5201V79.5197V79.5193V79.519V79.5186V79.5183V79.5179V79.5175V79.5172V79.5168V79.5165V79.5161V79.5157V79.5154V79.515V79.5146V79.5143V79.5139V79.5135V79.5132V79.5128V79.5124V79.5121V79.5117V79.5113V79.511V79.5106V79.5102V79.5098V79.5095V79.5091V79.5087V79.5083V79.508V79.5076V79.5072V79.5068V79.5065V79.5061V79.5057V79.5053V79.505V79.5046V79.5042V79.5038V79.5034V79.5031V79.5027V79.5023V79.5019V79.5015V79.5011V79.5008V79.5004V79.5V79.4996V79.4992V79.4988V79.4985V79.4981V79.4977V79.4973V79.4969V79.4965V79.4961V79.4957V79.4954V79.495V79.4946V79.4942V79.4938V79.4934V79.493V79.4926V79.4922V79.4919V79.4915V79.4911V79.4907V79.4903V79.4899V79.4895V79.4891V79.4887V79.4883V79.4879V79.4875V79.4871V79.4867V79.4864V79.486V79.4856V79.4852V79.4848V79.4844V79.484V79.4836V79.4832V79.4828V79.4824V79.482V79.4816V79.4812V79.4808V79.4804V79.48V79.4796V79.4792V79.4788V79.4784V79.478V79.4776V79.4772V79.4768V79.4764V79.476V79.4756V79.4752V79.4748V79.4744V79.474V79.4736V79.4732V79.4728V79.4724V79.472V79.4716V79.4712V79.4708V79.4704V79.47V79.4696V79.4692V79.4688V79.4684V79.468V79.4676V79.4672V79.4668V79.4664V79.466V79.4656V79.4652V79.4648V79.4645V79.4641V79.4637V79.4633V79.4629V79.4625V79.4621V79.4617V79.4613V79.4609V79.4605V79.4601V79.4597V79.4593V79.4589V79.4585V79.4581V79.4577V79.4573V79.4569V79.4565V79.4561V79.4557V79.4553V79.4549V79.4545V79.4541V79.4537V79.4533V79.4529V79.4525V79.4521V79.4517V79.4513V79.4509V79.4505V79.4501V79.4497V79.4493V79.4489V79.4485V79.4482V79.4478V79.4474V79.447V79.4466V79.4462V79.4458V79.4454V79.445V79.4446V79.4442V79.4438V79.4434V79.4431V79.4427V79.4423V79.4419V79.4415V79.4411V79.4407V79.4403V79.4399V79.4395V79.4392V79.4388V79.4384V79.438V79.4376V79.4372V79.4368V79.4365V79.4361V79.4357V79.4353V79.4349V79.4345V79.4341V79.4338V79.4334V79.433V79.4326V79.4322V79.4319V79.4315V79.4311V79.4307V79.4303V79.43V79.4296V79.4292V79.4288V79.4285V79.4281V79.4277V79.4273V79.4269V79.4266V79.4262V79.4258V79.4255V79.4251V79.4247V79.4243V79.424V79.4236V79.4232V79.4229V79.4225V79.4221V79.4218V79.4214V79.421V79.4207V79.4203V79.4199V78.4263L37.6454 79.0184C38.8704 79.9274 40.3019 80.4468 41.8305 80.4468C43.2677 80.4468 44.6213 79.9887 45.7936 79.1787L46.5778 78.6368V79.59V79.5903V79.5905V79.5908V79.591V79.5912V79.5915V79.5917V79.592V79.5922V79.5925V79.5927V79.5929V79.5932V79.5934V79.5937V79.5939V79.5942V79.5944V79.5946V79.5949V79.5951V79.5954V79.5956V79.5959V79.5961V79.5963V79.5966V79.5968V79.5971V79.5973V79.5976V79.5978V79.598V79.5983V79.5985V79.5988V79.599V79.5993V79.5995V79.5997V79.6V79.6002V79.6005V79.6007V79.6009V79.6012V79.6014V79.6017V79.6019V79.6022V79.6024V79.6026V79.6029V79.6031V79.6034V79.6036V79.6038V79.6041V79.6043V79.6046V79.6048V79.605V79.6053V79.6055V79.6058V79.606V79.6062V79.6065V79.6067V79.607V79.6072V79.6074V79.6077V79.6079V79.6081V79.6084V79.6086V79.6089V79.6091V79.6093V79.6096V79.6098V79.6101V79.6103V79.6105V79.6108V79.611V79.6112V79.6115V79.6117V79.6119V79.6122V79.6124V79.6127V79.6129V79.6131V79.6134V79.6136V79.6138V79.6141V79.6143V79.6145V79.6148V79.615V79.6152V79.6155V79.6157V79.6159V79.6162V79.6164V79.6166V79.6169V79.6171V79.6173V79.6176V79.6178V79.618V79.6183V79.6185V79.6187V79.619V79.6192V79.6194V79.6196V79.6199V79.6201V79.6203V79.6206V79.6208V79.621V79.6213V79.6215V79.6217V79.6219V79.6222V79.6224V79.6226V79.6229V79.6231V79.6233V79.6235V79.6238V79.624V79.6242V79.6244V79.6247V79.6249V79.6251V79.6253V79.6256V79.6258V79.626V79.6262V79.6265V79.6267V79.6269V79.6271V79.6273V79.6276V79.6278V79.628V79.6282V79.6285V79.6287V79.6289V79.6291V79.6293V79.6296V79.6298V79.63V79.6302V79.6304V79.6306V79.6309V79.6311V79.6313V79.6315V79.6317V79.632V79.6322V79.6324V79.6326V79.6328V79.633V79.6332V79.6335V79.6337V79.6339V79.6341V79.6343V79.6345V79.6347V79.635V79.6352V79.6354V79.6356V79.6358V79.636V79.6362V79.6364V79.6366V79.6368V79.6371V79.6373V79.6375V79.6377V79.6379V79.6381V79.6383V79.6385V79.6387V79.6389V79.6391V79.6393V79.6395V79.6397V79.6399V79.6401V79.6404V79.6406V79.6408V79.641V79.6412V79.6414V79.6416V79.6418V79.642V79.6422V79.6424V79.6426V79.6428V79.643V79.6432V79.6434V79.6436V79.6437V79.6439V79.6441V79.6443V79.6445V79.6447V79.6449V79.6451V79.6453V79.6455V79.6457V79.6459V79.6461V79.6463V79.6465V79.6467V79.6468V79.647V79.6472V79.6474V79.6476V79.6478V79.648V79.6482V79.6484V79.6485V79.6487V79.6489V79.6491V79.6493V79.6495V79.6496V79.6498V79.65V79.6502V79.6504V79.6506V79.6507V79.6509V79.6511V79.6513V79.6515V79.6516V79.6518V79.652V79.6522V79.6524V79.6525V79.6527V79.6529V79.6531V79.6532V79.6534V79.6536V79.6537V79.6539V79.6541V79.6543V79.6544V79.6546V79.6548V79.6549V79.6551V79.6553V79.6555V79.6556V79.6558V79.656V79.6561V79.6563V79.6565V79.6566V79.6568V79.6569V79.6571V79.6573V79.6574V79.6576V79.6578V79.6579V79.6581V79.6582V79.6584V79.6586V79.6587V79.6589V79.659V79.6592V79.6593V79.6595V79.6596V79.6598V79.66V79.6601V79.6603V79.6604V79.6606V79.6607V79.6609V79.661V79.6612V79.6613V79.6615V79.6616V79.6618V79.6619V79.662V79.6622V79.6623V79.6625V79.6626V79.6628V79.6629V79.6631V79.6632V79.6633V79.6635V79.6636V79.6638V79.6639V79.664V79.6642V79.6643V79.6644V79.6645C46.5795 79.6982 46.5812 79.7319 46.5829 79.7655C46.6434 80.9625 46.7007 82.0979 46.948 83.1054Z" fill="#FEFEFE" stroke="#333333"/>
<path fill-rule="evenodd" clip-rule="evenodd" d="M41.8292 80.9465C40.1832 80.9465 38.6489 80.3864 37.3462 79.4196C36.7754 78.9964 36.2502 78.4902 35.7788 77.9218C34.9144 76.8763 34.2362 75.6025 33.8102 74.1877C33.4876 73.1048 33.3098 71.9389 33.3098 70.7274C33.3098 70.3042 33.3305 69.8851 33.3718 69.4744C35.3073 69.3001 41.9202 68.9143 44.0625 62.8359C44.9516 65.0349 45.8821 66.1635 49.9185 67.5119C50.1956 68.5243 50.3486 69.603 50.3486 70.7274C50.3486 71.3912 50.2949 72.0385 50.1956 72.665C49.8689 74.6939 49.0459 76.5153 47.8797 77.9218C47.3462 78.5691 46.7382 79.1292 46.0765 79.5856C44.8275 80.4527 43.3759 80.9465 41.8292 80.9465Z" fill="#FEFEFE"/>
<path fill-rule="evenodd" clip-rule="evenodd" d="M44.0623 62.8322C41.9241 68.9106 35.3112 69.2964 33.3716 69.4707C33.3303 69.8814 33.3096 70.3005 33.3096 70.7237C33.3096 71.9394 33.4874 73.1052 33.81 74.1881C27.7583 59.5767 41.705 56.8618 44.2649 60.0233C49.9142 59.5767 52.9458 67.0948 50.1913 72.6654C50.2905 72.0389 50.3443 71.3875 50.3443 70.7237C50.3443 69.5993 50.1913 68.5206 49.9142 67.5082C45.8819 66.1598 44.9514 65.0312 44.0623 62.8322Z" fill="#AAAAAA" stroke="#333333" stroke-linejoin="round"/>
<path d="M49.8231 67.5137C51.2802 72.5257 49.4095 77.9578 44.8882 80.3009C42.8956 81.3378 40.5142 81.3336 38.5211 80.3009C34.6597 78.2998 32.9621 73.7787 33.3784 69.3932" stroke="#333333"/>
<path d="M29.3327 101.477L29.8313 99.1241" stroke="#333333" stroke-linecap="round" stroke-linejoin="round"/>
<mask id="path-15-outside-1_125_2236" maskUnits="userSpaceOnUse" x="39.285" y="84.0479" width="55" height="32" fill="black">
<rect fill="white" x="39.285" y="84.0479" width="55" height="32"/>
<path fill-rule="evenodd" clip-rule="evenodd" d="M73.9619 86.0479C76.8434 86.6903 81.7817 88.4389 85.4385 90.4001C91.2879 93.601 92.2573 100.614 93.094 106.668C93.1257 106.898 93.1573 107.127 93.189 107.354C90.5301 108.979 87.8756 110.544 84.9693 111.697C83.5453 112.228 83.0155 112.411 81.8535 112.783C78.6807 113.748 75.117 114.562 71.6765 114.849C71.6656 114.005 71.6623 113.144 71.6591 112.272C71.6368 106.334 71.6126 99.8677 69.1509 94.5756C70.1249 92.2678 70.4416 91.8095 71.0263 90.9635C71.5558 90.1972 72.3052 89.1128 73.9619 86.0479ZM65.1807 94.8608L62.5015 89.8243C61.3646 88.8738 59.9358 88.3277 58.6009 87.8175C57.9161 87.5558 57.256 87.3036 56.6727 87.011C53.1509 87.9746 48.5078 89.7919 46.4287 91.6663C42.9099 94.8394 42.1315 100.825 41.5037 105.653C41.4302 106.218 41.3586 106.768 41.285 107.296C45.299 111.397 56.1939 114.561 62.7883 114.849C62.7883 114.183 62.7843 113.503 62.7802 112.812C62.7452 106.859 62.7057 100.119 65.1807 94.8608Z"/>
</mask>
<path fill-rule="evenodd" clip-rule="evenodd" d="M73.9619 86.0479C76.8434 86.6903 81.7817 88.4389 85.4385 90.4001C91.2879 93.601 92.2573 100.614 93.094 106.668C93.1257 106.898 93.1573 107.127 93.189 107.354C90.5301 108.979 87.8756 110.544 84.9693 111.697C83.5453 112.228 83.0155 112.411 81.8535 112.783C78.6807 113.748 75.117 114.562 71.6765 114.849C71.6656 114.005 71.6623 113.144 71.6591 112.272C71.6368 106.334 71.6126 99.8677 69.1509 94.5756C70.1249 92.2678 70.4416 91.8095 71.0263 90.9635C71.5558 90.1972 72.3052 89.1128 73.9619 86.0479ZM65.1807 94.8608L62.5015 89.8243C61.3646 88.8738 59.9358 88.3277 58.6009 87.8175C57.9161 87.5558 57.256 87.3036 56.6727 87.011C53.1509 87.9746 48.5078 89.7919 46.4287 91.6663C42.9099 94.8394 42.1315 100.825 41.5037 105.653C41.4302 106.218 41.3586 106.768 41.285 107.296C45.299 111.397 56.1939 114.561 62.7883 114.849C62.7883 114.183 62.7843 113.503 62.7802 112.812C62.7452 106.859 62.7057 100.119 65.1807 94.8608Z" fill="#FEFEFE"/>
<path d="M85.4385 90.4001L85.9186 89.5228L85.9112 89.5189L85.4385 90.4001ZM73.9619 86.0479L74.1795 85.0719L73.4416 84.9074L73.0822 85.5724L73.9619 86.0479ZM93.094 106.668L92.1034 106.805L92.1034 106.805L93.094 106.668ZM93.189 107.354L93.7105 108.207L94.27 107.865L94.1794 107.215L93.189 107.354ZM84.9693 111.697L85.319 112.634L85.3286 112.63L85.3381 112.626L84.9693 111.697ZM81.8535 112.783L82.1447 113.739L82.158 113.735L81.8535 112.783ZM71.6765 114.849L70.6765 114.862L70.6904 115.935L71.7598 115.846L71.6765 114.849ZM71.6591 112.272L70.6591 112.276L70.6591 112.276L71.6591 112.272ZM69.1509 94.5756L68.2296 94.1868L68.0572 94.5953L68.2442 94.9974L69.1509 94.5756ZM71.0263 90.9635L70.2036 90.3949L70.2036 90.3949L71.0263 90.9635ZM62.5015 89.8243L63.3844 89.3547L63.2927 89.1823L63.143 89.0571L62.5015 89.8243ZM65.1807 94.8608L66.0854 95.2867L66.2988 94.8335L66.0635 94.3912L65.1807 94.8608ZM58.6009 87.8175L58.2439 88.7516L58.2439 88.7516L58.6009 87.8175ZM56.6727 87.011L57.1211 86.1171L56.7785 85.9453L56.4088 86.0464L56.6727 87.011ZM46.4287 91.6663L45.7591 90.9236L45.759 90.9237L46.4287 91.6663ZM41.5037 105.653L42.4954 105.782L42.4954 105.782L41.5037 105.653ZM41.285 107.296L40.2946 107.158L40.2267 107.644L40.5704 107.995L41.285 107.296ZM62.7883 114.849L62.7447 115.848L63.7883 115.893V114.849H62.7883ZM62.7802 112.812L63.7802 112.806L63.7802 112.806L62.7802 112.812ZM85.9112 89.5189C82.1741 87.5146 77.1499 85.7341 74.1795 85.0719L73.7443 87.024C76.5368 87.6465 81.3893 89.3632 84.9659 91.2814L85.9112 89.5189ZM94.0845 106.531C93.6692 103.526 93.2064 100.148 92.0837 97.117C90.9516 94.0608 89.1192 91.2743 85.9186 89.5229L84.9585 91.2774C87.6073 92.7268 89.1842 95.0475 90.2083 97.8117C91.2418 100.602 91.682 103.757 92.1034 106.805L94.0845 106.531ZM94.1794 107.215C94.1478 106.989 94.1163 106.761 94.0845 106.531L92.1034 106.805C92.1351 107.035 92.1668 107.264 92.1986 107.492L94.1794 107.215ZM85.3381 112.626C88.3317 111.439 91.0504 109.833 93.7105 108.207L92.6674 106.5C90.0098 108.125 87.4195 109.649 84.6006 110.767L85.3381 112.626ZM82.158 113.735C83.3372 113.358 83.8821 113.17 85.319 112.634L84.6197 110.76C83.2085 111.287 82.6939 111.464 81.549 111.83L82.158 113.735ZM71.7598 115.846C75.2919 115.551 78.928 114.718 82.1447 113.739L81.5623 111.826C78.4334 112.778 74.942 113.573 71.5931 113.853L71.7598 115.846ZM70.6591 112.276C70.6623 113.147 70.6656 114.013 70.6765 114.862L72.6764 114.836C72.6655 113.998 72.6623 113.142 72.6591 112.268L70.6591 112.276ZM68.2442 94.9974C70.5962 100.054 70.6366 106.284 70.6591 112.276L72.6591 112.268C72.637 106.384 72.629 99.6817 70.0576 94.1539L68.2442 94.9974ZM70.2036 90.3949C69.5741 91.3059 69.2259 91.8261 68.2296 94.1868L70.0723 94.9644C71.0239 92.7094 71.3091 92.3131 71.8489 91.532L70.2036 90.3949ZM73.0822 85.5724C71.4432 88.6045 70.7129 89.6579 70.2036 90.3949L71.8489 91.532C72.3987 90.7365 73.1672 89.6211 74.8416 86.5234L73.0822 85.5724ZM61.6187 90.2939L64.2978 95.3305L66.0635 94.3912L63.3844 89.3547L61.6187 90.2939ZM58.2439 88.7516C59.6079 89.273 60.8732 89.7664 61.8601 90.5915L63.143 89.0571C61.8559 87.9811 60.2636 87.3825 58.9579 86.8834L58.2439 88.7516ZM56.2244 87.9048C56.8607 88.224 57.5701 88.4941 58.2439 88.7516L58.9579 86.8834C58.2621 86.6175 57.6513 86.3831 57.1211 86.1171L56.2244 87.9048ZM47.0983 92.4091C48.0144 91.5832 49.5736 90.712 51.4084 89.9142C53.2212 89.126 55.2169 88.4461 56.9367 87.9755L56.4088 86.0464C54.6068 86.5395 52.52 87.25 50.611 88.08C48.7241 88.9004 46.9221 89.8751 45.7591 90.9236L47.0983 92.4091ZM42.4954 105.782C42.811 103.355 43.1547 100.726 43.8436 98.3136C44.5338 95.8968 45.5396 93.8146 47.0984 92.409L45.759 90.9237C43.799 92.6911 42.6562 95.1883 41.9205 97.7644C41.1836 100.345 40.8243 103.123 40.5121 105.524L42.4954 105.782ZM42.2754 107.434C42.3498 106.901 42.4219 106.346 42.4954 105.782L40.5121 105.524C40.4384 106.09 40.3675 106.636 40.2946 107.158L42.2754 107.434ZM62.8318 113.85C59.6462 113.711 55.3661 112.871 51.3831 111.553C47.3663 110.224 43.8319 108.469 41.9997 106.596L40.5704 107.995C42.7521 110.225 46.6722 112.101 50.7549 113.452C54.8715 114.814 59.336 115.699 62.7447 115.848L62.8318 113.85ZM61.7802 112.818C61.7843 113.509 61.7883 114.186 61.7883 114.849H63.7883C63.7883 114.179 63.7842 113.496 63.7802 112.806L61.7802 112.818ZM64.2759 94.4349C61.6856 99.9379 61.7456 106.926 61.7802 112.818L63.7802 112.806C63.7449 106.791 63.7257 100.3 66.0854 95.2867L64.2759 94.4349Z" fill="#333333" mask="url(#path-15-outside-1_125_2236)"/>
<path d="M60.0524 85.46L59.987 85.7266L60.1767 85.9249C60.9398 86.7224 62.0297 87.2869 63.2386 87.6515C64.4524 88.0175 65.8191 88.192 67.1728 88.1858C68.5265 88.1795 69.8838 87.9924 71.0789 87.6232C72.2682 87.2558 73.3326 86.6969 74.0607 85.9215L74.2659 85.703L74.1699 85.4191C73.6467 83.8715 73.6096 82.2579 73.5924 80.5535V80.5535V80.5533V80.5532V80.5531V80.5529V80.5528V80.5526V80.5525V80.5524V80.5522V80.5521V80.5519V80.5517V80.5516V80.5514V80.5513V80.5511V80.5509V80.5508V80.5506V80.5504V80.5502V80.5501V80.5499V80.5497V80.5495V80.5493V80.5491V80.549V80.5488V80.5486V80.5484V80.5482V80.548V80.5478V80.5476V80.5473V80.5471V80.5469V80.5467V80.5465V80.5463V80.5461V80.5458V80.5456V80.5454V80.5452V80.5449V80.5447V80.5445V80.5442V80.544V80.5437V80.5435V80.5433V80.543V80.5428V80.5425V80.5423V80.542V80.5418V80.5415V80.5412V80.541V80.5407V80.5404V80.5402V80.5399V80.5396V80.5394V80.5391V80.5388V80.5385V80.5382V80.538V80.5377V80.5374V80.5371V80.5368V80.5365V80.5362V80.5359V80.5356V80.5353V80.535V80.5347V80.5344V80.5341V80.5338V80.5335V80.5332V80.5329V80.5326V80.5323V80.5319V80.5316V80.5313V80.531V80.5306V80.5303V80.53V80.5297V80.5293V80.529V80.5287V80.5283V80.528V80.5276V80.5273V80.527V80.5266V80.5263V80.5259V80.5256V80.5252V80.5249V80.5245V80.5242V80.5238V80.5234V80.5231V80.5227V80.5223V80.522V80.5216V80.5212V80.5209V80.5205V80.5201V80.5198V80.5194V80.519V80.5186V80.5182V80.5179V80.5175V80.5171V80.5167V80.5163V80.5159V80.5155V80.5151V80.5148V80.5144V80.514V80.5136V80.5132V80.5128V80.5124V80.512V80.5116V80.5111V80.5107V80.5103V80.5099V80.5095V80.5091V80.5087V80.5083V80.5078V80.5074V80.507V80.5066V80.5062V80.5057V80.5053V80.5049V80.5045V80.504V80.5036V80.5032V80.5027V80.5023V80.5019V80.5014V80.501V80.5006V80.5001V80.4997V80.4992V80.4988V80.4984V80.4979V80.4975V80.497V80.4966V80.4961V80.4957V80.4952V80.4948V80.4943V80.4939V80.4934V80.4929V80.4925V80.492V80.4916V80.4911V80.4906V80.4902V80.4897V80.4892V80.4888V80.4883V80.4878V80.4874V80.4869V80.4864V80.486V80.4855V80.485V80.4845V80.4841V80.4836V80.4831V80.4826V80.4821V80.4817V80.4812V80.4807V80.4802V80.4797V80.4792V80.4787V80.4783V80.4778V80.4773V80.4768V80.4763V80.4758V80.4753V80.4748V80.4743V80.4738V80.4733V80.4728V80.4723V80.4718V80.4713V80.4708V80.4703V80.4698V80.4693V80.4688V80.4683V80.4678V80.4673V80.4668V80.4663V80.4658V80.4653V80.4648V80.4642V80.4637V80.4632V80.4627V80.4622V80.4617V80.4612V80.4607V80.4601V80.4596V80.4591V80.4586V80.4581V80.4575V80.457V80.4565V80.456V80.4555V80.4549V80.4544V80.4539V80.4534V80.4528V80.4523V80.4518V80.4513V80.4507V80.4502V80.4497V80.4492V80.4486V80.4481V80.4476V80.447V80.4465V80.446V80.4454V80.4449V80.4444V80.4438V80.4433V80.4428V80.4422V80.4417V80.4412V80.4406V80.4401V80.4396V80.439V80.4385V80.4379V80.4374V80.4369V80.4363V80.4358V80.4352V80.4347V80.4342V80.4336V80.4331V80.4325V80.432V80.4314V80.4309V80.4304V80.4298V80.4293V80.4287V80.4282V80.4276V80.4271V80.4266V80.426V80.4255V80.4249V80.4244V80.4238V80.4233V80.4227V80.4222V80.4216V80.4211V80.4205V80.42V80.4194V80.4189V80.4183V80.4178V80.4172V80.4167V80.4162V80.4156V80.4151V80.4145V80.414V80.4134V80.4129V80.4123V80.4118V80.4112V80.4107V80.4101V80.4096V80.409V80.4085V80.4079V80.4074V80.4068V80.4063V80.4057V80.4052V80.4046V80.4041V80.4035V80.403V80.4024V80.4018V80.4013V80.4007V80.4002V80.3996V80.3991V80.3985V80.398V80.3974V80.3969V80.3963V80.3958V80.3952V80.3947V80.3941V80.3936V80.3931V80.3925V80.392V80.3914V80.3909V80.3903V80.3898V80.3892V80.3887V80.3881V80.3876V80.387V80.3865V80.3859V80.3854V80.3848V80.3843V80.3837V80.3832V80.3826V80.3821V80.3816V80.381V80.3805V80.3799V80.3794V80.3788V80.3783V80.3778V80.3772V80.3767V80.3761V80.3756V80.375V80.3745V80.374V80.3734V80.3729V80.3723V80.3718V80.3713V80.3707V80.3702V80.3696V80.3691V80.3686V80.368V80.3675V80.367V80.3664V80.3659V80.3654V80.3648V80.3643V80.3638V80.3632V80.3627V80.3622V80.3616V80.3611V80.3606V80.36V80.3595V80.359V80.3585V80.3579V80.3574V80.3569V80.3564V80.3558V80.3553V80.3548V80.3543V80.3537V80.3532V80.3527V80.3522V80.3517V80.3511V80.3506V80.3501V80.3496V80.3491V80.3485V80.348V80.3475V80.347V80.3465V80.346V80.3455V80.3449V80.3444V80.3439V80.3434V80.3429V80.3424V80.3419V80.3414V80.3409V80.3404V80.3399V80.3394V80.3389V79.3452L72.7945 79.9373C71.0779 81.2112 69.0675 81.9419 66.9177 81.9419C64.8969 81.9419 62.9955 81.2974 61.3519 80.1618L60.5677 79.6199V80.5732V80.5735V80.5738V80.5742V80.5745V80.5748V80.5752V80.5755V80.5758V80.5762V80.5765V80.5769V80.5772V80.5775V80.5779V80.5782V80.5785V80.5789V80.5792V80.5795V80.5799V80.5802V80.5805V80.5809V80.5812V80.5815V80.5819V80.5822V80.5825V80.5829V80.5832V80.5835V80.5839V80.5842V80.5845V80.5849V80.5852V80.5855V80.5859V80.5862V80.5865V80.5869V80.5872V80.5875V80.5879V80.5882V80.5885V80.5889V80.5892V80.5895V80.5899V80.5902V80.5905V80.5909V80.5912V80.5915V80.5919V80.5922V80.5925V80.5928V80.5932V80.5935V80.5938V80.5942V80.5945V80.5948V80.5952V80.5955V80.5958V80.5961V80.5965V80.5968V80.5971V80.5975V80.5978V80.5981V80.5984V80.5988V80.5991V80.5994V80.5998V80.6001V80.6004V80.6007V80.6011V80.6014V80.6017V80.602V80.6024V80.6027V80.603V80.6034V80.6037V80.604V80.6043V80.6046V80.605V80.6053V80.6056V80.6059V80.6063V80.6066V80.6069V80.6072V80.6076V80.6079V80.6082V80.6085V80.6088V80.6092V80.6095V80.6098V80.6101V80.6105V80.6108V80.6111V80.6114V80.6117V80.6121V80.6124V80.6127V80.613V80.6133V80.6136V80.614V80.6143V80.6146V80.6149V80.6152V80.6155V80.6159V80.6162V80.6165V80.6168V80.6171V80.6174V80.6177V80.6181V80.6184V80.6187V80.619V80.6193V80.6196V80.6199V80.6202V80.6206V80.6209V80.6212V80.6215V80.6218V80.6221V80.6224V80.6227V80.623V80.6233V80.6236V80.6239V80.6243V80.6246V80.6249V80.6252V80.6255V80.6258V80.6261V80.6264V80.6267V80.627V80.6273V80.6276V80.6279V80.6282V80.6285V80.6288V80.6291V80.6294V80.6297V80.63V80.6303V80.6306V80.6309V80.6312V80.6315V80.6318V80.6321V80.6324V80.6327V80.633V80.6333V80.6336V80.6339V80.6342V80.6345V80.6347V80.635V80.6353V80.6356V80.6359V80.6362V80.6365V80.6368V80.6371V80.6374V80.6376V80.6379V80.6382V80.6385V80.6388V80.6391V80.6394V80.6397V80.6399V80.6402V80.6405V80.6408V80.6411V80.6414V80.6416V80.6419V80.6422V80.6425V80.6428V80.643V80.6433V80.6436V80.6439V80.6441V80.6444V80.6447V80.645V80.6452V80.6455V80.6458V80.6461V80.6463V80.6466V80.6469V80.6472V80.6474V80.6477V80.648V80.6482V80.6485V80.6488V80.649V80.6493V80.6496V80.6498V80.6501V80.6504V80.6506V80.6509V80.6512V80.6514V80.6517V80.6519V80.6522V80.6525V80.6527V80.653V80.6532V80.6535V80.6537V80.654V80.6543V80.6545V80.6548V80.655V80.6553V80.6555V80.6558V80.656V80.6563V80.6565V80.6568V80.657V80.6573V80.6575V80.6578V80.658V80.6583V80.6585V80.6588V80.659V80.6592V80.6595V80.6597V80.66V80.6602V80.6605V80.6607V80.6609V80.6612V80.6614V80.6616V80.6619V80.6621V80.6623V80.6626V80.6628V80.663V80.6633V80.6635V80.6637V80.664V80.6642V80.6644V80.6647V80.6649V80.6651V80.6653V80.6656V80.6658V80.666V80.6662V80.6664V80.6667V80.6669V80.6671V80.6673V80.6675V80.6678V80.668V80.6682V80.6684V80.6686V80.6688V80.6691V80.6693V80.6695V80.6697V80.6699V80.6701V80.6703V80.6705V80.6707V80.6709V80.6711V80.6713V80.6715V80.6718V80.672V80.6722V80.6724V80.6726V80.6728V80.673V80.6732V80.6733V80.6735V80.6737V80.6739V80.6741V80.6743V80.6745V80.6747V80.6749V80.6751V80.6753V80.6755V80.6756V80.6758V80.676V80.6762V80.6764V80.6766V80.6768V80.6769V80.6771V80.6773V80.6775V80.6777V80.6778V80.678V80.6782V80.6784V80.6785V80.6787V80.6789V80.679V80.6792V80.6794V80.6796V80.6797V80.6799V80.6801V80.6802V80.6804V80.6805C60.5651 80.7314 60.5626 80.7823 60.56 80.8331C60.4771 82.4746 60.3973 84.0544 60.0524 85.46Z" fill="#FEFEFE" stroke="#333333"/>
<path fill-rule="evenodd" clip-rule="evenodd" d="M66.9179 82.4406C69.185 82.4406 71.2983 81.6691 73.0926 80.3376C73.8787 79.7547 74.6021 79.0575 75.2515 78.2746C76.442 76.8345 77.3762 75.0801 77.9629 73.1314C78.4072 71.6399 78.6521 70.0341 78.6521 68.3654C78.6521 67.7825 78.6237 67.2053 78.5667 66.6395C75.9009 66.3995 66.7926 65.8681 63.842 57.4961C62.6173 60.5249 61.3356 62.0793 55.7761 63.9365C55.3945 65.3309 55.1837 66.8167 55.1837 68.3654C55.1837 69.2797 55.2578 70.1712 55.3945 71.0341C55.8445 73.8286 56.978 76.3373 58.5844 78.2746C59.3192 79.1661 60.1565 79.9376 61.0679 80.5662C62.7882 81.7605 64.7875 82.4406 66.9179 82.4406Z" fill="#FEFEFE"/>
<path d="M75.9662 89.7129C75.5334 90.361 75.1562 90.9257 74.7849 91.4488L67.9891 87.9572C69.024 87.8867 70.0375 87.7133 70.9567 87.4367C72.0645 87.1033 73.0661 86.6106 73.7964 85.9389C74.2034 86.0086 74.6549 86.1047 75.1416 86.2248C75.7415 86.3742 76.4053 86.5626 77.0987 86.7846C77.1374 86.7988 77.1973 86.8206 77.2625 86.8378C77.4108 86.8851 77.5582 86.9343 77.7103 86.9854C77.1833 87.8888 76.6386 88.7082 76.0287 89.6193L76.0284 89.6197L75.9662 89.7129ZM58.7278 86.2248C59.2194 86.1035 59.6698 86.0041 60.0732 85.9369L65.8935 87.9603C65.6078 88.2435 65.3108 88.6379 64.9803 89.0944C64.8608 89.2595 64.7345 89.4364 64.5995 89.6254C64.2336 90.1376 63.8042 90.7388 63.2742 91.4358L63.151 91.5979C62.9333 91.8409 62.7107 92.0844 62.4861 92.3302L62.486 92.3301L62.4792 92.3379C62.3172 92.5226 62.1651 92.6759 62.023 92.7999C61.8809 92.9228 61.7556 93.02 61.6413 93.0888L61.6401 93.0894C61.55 93.144 61.4563 93.1872 61.3747 93.2133C61.2873 93.2372 61.2004 93.2519 61.1129 93.2556L61.1114 93.2557C60.958 93.2626 60.8129 93.2294 60.6634 93.1528C60.4924 93.0628 60.2931 92.9067 60.0547 92.6584C59.84 92.4273 59.6037 92.1379 59.3398 91.781L59.339 91.7799C59.0684 91.4162 58.7784 90.994 58.4608 90.5199L58.4604 90.5193C58.3696 90.3841 58.2789 90.2494 58.1886 90.115C57.4882 89.0741 56.8027 88.0553 56.1458 87.0025C56.3514 86.9322 56.5594 86.8601 56.7688 86.7852C57.463 86.5629 58.1274 86.3743 58.7278 86.2248Z" fill="#BDECFF" stroke="#333333"/>
<path d="M72.0378 115.332L71.5778 115.369C69.006 115.575 66.5135 115.491 64.4389 115.421C63.8235 115.4 63.2449 115.381 62.7119 115.371C62.7114 115.371 62.7109 115.371 62.7104 115.371L62.7201 114.871C62.7049 114.871 62.7023 114.733 62.7006 114.641C62.6998 114.595 62.6992 114.56 62.6973 114.56L72.0378 115.332ZM72.0378 115.332V114.871V113.791H72.038L72.0376 113.777L72.0092 112.698C72.0092 112.698 72.0092 112.698 72.0091 112.698C71.9863 111.777 71.9521 110.475 71.8777 108.961C71.8091 107.452 71.7004 105.747 71.54 104.035L71.54 104.034C71.4024 102.59 71.2186 101.12 70.9825 99.7397L70.9809 99.73L70.9788 99.7203L70.5402 97.6516L70.5381 97.6417L70.5357 97.632C70.2729 96.599 69.9626 95.6389 69.5885 94.7889L70.7165 92.1271L70.824 91.8736L70.6671 91.6473C70.3399 91.175 70.0458 90.7404 69.78 90.3478C69.3573 89.7233 69.0065 89.205 68.7086 88.8099C68.4635 88.4848 68.23 88.2092 67.9957 88.0093C67.7601 87.8083 67.4825 87.6485 67.1536 87.6297C66.8198 87.6107 66.5282 87.7421 66.2773 87.926C66.0311 88.1065 65.7864 88.3649 65.5313 88.6718C65.183 89.0909 64.767 89.6617 64.2544 90.3651C64.021 90.6853 63.7676 91.0329 63.4915 91.4063L63.3213 91.6364L63.4335 91.8997L64.174 93.6368L64.1781 93.6463L64.1825 93.6556L64.6849 94.7111L64.6088 94.8736C64.6087 94.8737 64.6087 94.8739 64.6086 94.874C64.0986 95.9576 63.7076 97.3873 63.4028 98.939C63.1719 100.115 62.9878 101.368 62.8442 102.636C62.7925 103.079 62.7466 103.523 62.7064 103.966C62.5459 105.646 62.443 107.345 62.3631 108.925L62.363 108.926C62.3549 109.095 62.3466 109.264 62.3383 109.433C62.2683 110.862 62.1973 112.312 62.1973 113.756V114.56V115.06H62.2548L72.0378 115.332Z" fill="url(#paint0_linear_125_2236)" stroke="#333333"/>
<path fill-rule="evenodd" clip-rule="evenodd" d="M63.8419 57.4908C66.7869 65.8628 75.8951 66.3943 78.5667 66.6343C78.6236 67.2 78.6521 67.7772 78.6521 68.3601C78.6521 70.0345 78.4072 71.6403 77.9629 73.1319C86.2982 53.0069 67.0887 49.2674 63.5628 53.622C55.7819 53.0069 51.6063 63.3619 55.4002 71.0346C55.2634 70.1717 55.1894 69.2745 55.1894 68.3601C55.1894 66.8114 55.4002 65.3256 55.7818 63.9313C61.3356 62.074 62.6173 60.5196 63.8419 57.4908Z" fill="#EFEFEF" stroke="#333333" stroke-linejoin="round"/>
<path d="M55.9063 63.9355C53.8993 70.8389 56.476 78.3208 62.7034 81.5481C65.4478 82.9762 68.7279 82.9704 71.473 81.5481C76.7915 78.7918 79.1297 72.5647 78.5563 66.5243" stroke="#333333"/>
<path d="M70.2426 92.7012C68.2356 97.8787 65.6552 96.4405 64.2217 93.2764" stroke="#333333" stroke-linecap="round"/>
<path fill-rule="evenodd" clip-rule="evenodd" d="M28.2901 19.1908C28.4609 19.4079 28.4234 19.7222 28.2064 19.893C13.4626 31.4939 4 49.4732 4 69.6572C4 104.641 32.4288 133.002 67.5 133.002C102.571 133.002 131 104.641 131 69.6572C131 49.4732 121.537 31.4939 106.794 19.893C106.577 19.7222 106.539 19.4079 106.71 19.1908C106.881 18.9738 107.195 18.9363 107.412 19.1071C122.386 30.8891 132 49.1531 132 69.6572C132 105.195 103.121 134.002 67.5 134.002C31.8788 134.002 3 105.195 3 69.6572C3 49.1531 12.6141 30.8891 27.588 19.1071C27.805 18.9363 28.1194 18.9738 28.2901 19.1908Z" fill="#333333"/>
<path d="M112 16L104.982 16.6552C104.398 16.7097 103.986 17.2528 104.091 17.8299L105.353 24.7645" stroke="#333333" stroke-linecap="round"/>
<path d="M23 16L30.0172 16.6638C30.6011 16.719 31.0123 17.2626 30.9066 17.8396L29.6363 24.7727" stroke="#333333" stroke-linecap="round"/>
<path d="M74 35.5518H73.5V36.0518V36.052V36.0525V36.0544V36.0617L73.5 36.0905L73.5001 36.2011C73.5002 36.2596 73.5003 36.3342 73.5005 36.4227C73.5006 36.4798 73.5008 36.5426 73.5009 36.6107C73.5019 36.9581 73.5038 37.4422 73.5075 37.9887C73.515 39.0806 73.5301 40.4262 73.5603 41.4295C73.5812 42.1236 73.4413 42.6061 73.2402 42.9207C73.044 43.2276 72.7729 43.4033 72.4564 43.4696C71.801 43.6069 70.8409 43.2798 70.009 42.326L69.9951 42.31L69.9798 42.2952L64.6039 37.0968C64.5933 37.0844 64.579 37.0678 64.561 37.0475C64.5228 37.0042 64.468 36.9441 64.3985 36.8727C64.2601 36.7306 64.0605 36.5408 63.8146 36.35C63.3377 35.9798 62.6178 35.5518 61.7964 35.5518H42.3283C41.6044 35.5518 40.8959 35.3071 40.3745 34.838C39.8618 34.3768 39.5 33.6727 39.5 32.6835V3.36835C39.5 1.73831 40.8044 0.5 42.3283 0.5H93.5803C95.1446 0.5 96.5 1.71009 96.5 3.31363V32.6693C96.4585 33.3587 96.0914 34.0841 95.5275 34.6446C94.9593 35.2092 94.2473 35.5518 93.5803 35.5518H74Z" fill="url(#paint1_linear_125_2236)" stroke="#333333"/>
<path fill-rule="evenodd" clip-rule="evenodd" d="M50 14C50 13.4474 50.4189 13 50.9363 13H84.0637C84.5811 13 85 13.4474 85 14C85 14.5526 84.5811 15 84.0637 15H50.9363C50.4189 15 50 14.5526 50 14Z" fill="white"/>
<path fill-rule="evenodd" clip-rule="evenodd" d="M50 21C50 20.4474 50.4189 20 50.9363 20H74.0637C74.5811 20 75 20.4474 75 21C75 21.5526 74.5811 22 74.0637 22H50.9363C50.4189 22 50 21.5526 50 21Z" fill="white"/>
<defs>
<linearGradient id="paint0_linear_125_2236" x1="58.1074" y1="90.4464" x2="68.718" y2="106.767" gradientUnits="userSpaceOnUse">
<stop stop-color="#FFC671"/>
<stop offset="1" stop-color="#FF6F3D"/>
</linearGradient>
<linearGradient id="paint1_linear_125_2236" x1="39.0001" y1="-1.71875" x2="80.9401" y2="55.7254" gradientUnits="userSpaceOnUse">
<stop stop-color="#FF8E3D"/>
<stop offset="1" stop-color="#FF6F3D"/>
</linearGradient>
</defs>
</svg>
