<svg width="135" height="135" viewBox="0 0 135 135" fill="none" xmlns="http://www.w3.org/2000/svg">
<g clip-path="url(#clip0_125_2347)">
<path fill-rule="evenodd" clip-rule="evenodd" d="M97 1H19.8943L1 19.6683V118H97V1Z" fill="white"/>
<path fill-rule="evenodd" clip-rule="evenodd" d="M98 0.5C98 0.223858 97.7761 0 97.5 0H19C18.8674 0 18.7402 0.0526784 18.6464 0.146447L0.146446 18.6464C0.052681 18.7402 0 18.8674 0 19V118.5C0 118.776 0.223854 119 0.5 119H39C39.2761 119 39.5 118.776 39.5 118.5C39.5 118.224 39.2761 118 39 118H1V19.2071L19.2071 1H97V50.5C97 50.7761 97.2239 51 97.5 51C97.7761 51 98 50.7761 98 50.5V0.5Z" fill="#333333"/>
<path d="M18.6464 0.646447C18.7894 0.503448 19.0045 0.46067 19.1913 0.53806C19.3782 0.615451 19.5 0.797769 19.5 1V19C19.5 19.2761 19.2761 19.5 19 19.5H1C0.79777 19.5 0.615452 19.3782 0.538061 19.1913C0.46067 19.0045 0.503448 18.7894 0.646446 18.6464L18.6464 0.646447Z" fill="url(#paint0_linear_125_2347)" stroke="#333333" stroke-linejoin="round"/>
<path fill-rule="evenodd" clip-rule="evenodd" d="M50 52.5C50 52.2239 49.7734 52 49.4939 52H17.5061C17.2266 52 17 52.2239 17 52.5C17 52.7761 17.2266 53 17.5061 53H49.4939C49.7734 53 50 52.7761 50 52.5Z" fill="#333333"/>
<path fill-rule="evenodd" clip-rule="evenodd" d="M41 86.5C41 86.2239 40.7745 86 40.4964 86H17.5036C17.2255 86 17 86.2239 17 86.5C17 86.7761 17.2255 87 17.5036 87H40.4964C40.7745 87 41 86.7761 41 86.5Z" fill="#333333"/>
<path fill-rule="evenodd" clip-rule="evenodd" d="M82 30.5C82 30.2239 81.7763 30 81.5004 30H31.4996C31.2237 30 31 30.2239 31 30.5C31 30.7761 31.2237 31 31.4996 31H81.5004C81.7763 31 82 30.7761 82 30.5Z" fill="#333333"/>
<path fill-rule="evenodd" clip-rule="evenodd" d="M17 64.5C17 64.2239 17.2239 64 17.5 64H67.5C67.7761 64 68 64.2239 68 64.5C68 64.7761 67.7761 65 67.5 65H17.5C17.2239 65 17 64.7761 17 64.5Z" fill="#333333"/>
<path fill-rule="evenodd" clip-rule="evenodd" d="M82 41.5C82 41.2239 81.7764 41 81.5007 41H17.4993C17.2236 41 17 41.2239 17 41.5C17 41.7761 17.2236 42 17.4993 42H81.5007C81.7764 42 82 41.7761 82 41.5Z" fill="#333333"/>
<path fill-rule="evenodd" clip-rule="evenodd" d="M17 75.5C17 75.2239 17.2216 75 17.495 75H50.505C50.7784 75 51 75.2239 51 75.5C51 75.7761 50.7784 76 50.505 76H17.495C17.2216 76 17 75.7761 17 75.5Z" fill="#333333"/>
<path fill-rule="evenodd" clip-rule="evenodd" d="M42 97.5C42 97.2239 41.7722 97 41.4911 97H17.5089C17.2278 97 17 97.2239 17 97.5C17 97.7761 17.2278 98 17.5089 98H41.4911C41.7722 98 42 97.7761 42 97.5Z" fill="#333333"/>
<path fill-rule="evenodd" clip-rule="evenodd" d="M82 52.5C82 52.2239 81.7716 52 81.4898 52H55.5102C55.2284 52 55 52.2239 55 52.5C55 52.7761 55.2284 53 55.5102 53H81.4898C81.7716 53 82 52.7761 82 52.5Z" fill="#333333"/>
<path fill-rule="evenodd" clip-rule="evenodd" d="M77 16C77 15.4477 76.5523 15 76 15H43C42.4477 15 42 15.4477 42 16C42 16.5523 42.4477 17 43 17H76C76.5523 17 77 16.5523 77 16Z" fill="url(#paint1_linear_125_2347)"/>
<path fill-rule="evenodd" clip-rule="evenodd" d="M97 57.9998C102.244 57.9998 106.999 60.1233 110.438 63.5623C113.876 67.0012 116 71.7555 116 76.9998C116 82.2442 113.868 86.9985 110.438 90.4374C106.999 93.8763 102.244 95.9998 97 95.9998C91.7557 95.9998 87.0014 93.8763 83.5624 90.4374C80.1235 86.9985 78 82.2442 78 76.9998C78 71.7555 80.1321 67.0012 83.5624 63.5623C87.0014 60.1319 91.7557 57.9998 97 57.9998Z" fill="#EFEFEF" stroke="#333333"/>
<path fill-rule="evenodd" clip-rule="evenodd" d="M97.9274 66.7811C99.7574 69.8714 104.065 73.4624 107.069 73.0308C107.095 72.72 107.112 72.4092 107.112 72.0985C107.112 66.8157 102.83 62.5428 97.5562 62.5428C92.2734 62.5428 88.0005 66.8243 88.0005 72.0985C88.0005 72.461 88.0178 72.8236 88.0609 73.1775C90.9268 73.1343 95.6571 71.2008 97.9274 66.7811Z" fill="#AAAAAA"/>
<path fill-rule="evenodd" clip-rule="evenodd" d="M107.069 73.0222C104.065 73.4538 99.7573 69.8715 97.9273 66.7726C95.6571 71.1922 90.9267 73.1344 88.0522 73.1603C88.5874 77.9339 92.6359 81.6456 97.5475 81.6456C102.52 81.6543 106.594 77.8648 107.069 73.0222Z" fill="white"/>
<path fill-rule="evenodd" clip-rule="evenodd" d="M101.639 86.2119L101.881 85.8925C101.993 85.7458 101.993 85.6767 101.993 85.3228V84.2956V79.2372C100.664 79.9364 99.162 80.3248 97.5564 80.3248C95.9508 80.3248 94.4488 79.9277 93.1195 79.2372V79.3839V84.2697V85.3142C93.1195 85.6681 93.1195 85.7371 93.2317 85.8839L93.4734 86.2033C94.5438 87.6189 95.7437 88.8533 96.8831 90.3898C97.1593 90.761 97.3492 90.9336 97.5564 90.8905C97.7722 90.9423 97.9535 90.761 98.2297 90.3898C99.3605 88.8619 100.569 87.6276 101.639 86.2119Z" fill="white"/>
<path d="M97.324 90.8214C96.7546 90.078 96.1714 89.4117 95.6077 88.7708C95.5847 88.7448 95.5618 88.7187 95.539 88.6928C94.9967 88.0765 94.475 87.4836 93.9828 86.8496L93.9818 86.8482L93.7451 86.5454L93.7447 86.5448C93.7439 86.5346 93.7433 86.5214 93.7427 86.5041C93.7413 86.458 93.7412 86.3998 93.7412 86.3131V85.3228V84.7296L93.1566 84.83C89.2828 85.4952 85.9033 86.8614 83.3636 88.8385L82.9512 89.1596L83.2903 89.5574C86.6906 93.5463 91.8135 96.2503 97.5869 96.2503C103.328 96.2503 108.467 93.5038 111.857 89.559L112.196 89.1639L111.788 88.8409C109.26 86.8428 105.878 85.5273 102.011 84.8467L101.424 84.7434V85.3391V86.3131H101.424L101.424 86.3254C101.426 86.4137 101.428 86.4731 101.427 86.5196C101.427 86.5349 101.427 86.547 101.426 86.5566L101.192 86.8564L101.192 86.8566C100.7 87.4859 100.179 88.0779 99.6385 88.6926C99.6144 88.72 99.5902 88.7474 99.566 88.7749C99.0021 89.4159 98.4193 90.0819 97.8502 90.8207L97.8499 90.8211C97.7864 90.9037 97.733 90.9689 97.6869 91.02C97.6575 91.0525 97.6338 91.0761 97.6152 91.093M97.324 90.8214C97.3241 90.8215 97.3242 90.8217 97.3243 90.8218L96.9276 91.1257L97.3238 90.8211C97.3239 90.8212 97.324 90.8213 97.324 90.8214ZM97.324 90.8214C97.3883 90.905 97.4415 90.9706 97.4875 91.0221C97.5163 91.0543 97.5393 91.0775 97.5573 91.0941M97.5573 91.0941L97.4737 91.1135C97.504 91.1065 97.5403 91.1072 97.5723 91.1165C97.5763 91.1176 97.5798 91.1188 97.5828 91.1199C97.5711 91.1284 97.5721 91.1257 97.585 91.1208C97.5882 91.1195 97.5922 91.1181 97.5969 91.1168C97.6283 91.1076 97.6676 91.1057 97.7045 91.1146L97.6152 91.093M97.5573 91.0941C97.5684 91.1045 97.5776 91.1122 97.585 91.1179C97.5851 91.118 97.5852 91.118 97.5852 91.1181C97.5859 91.1176 97.5867 91.117 97.5875 91.1164C97.595 91.1107 97.6042 91.103 97.6152 91.093M97.5573 91.0941L97.5892 91.0867L97.6152 91.093" fill="#BDECFF" stroke="#333333"/>
<path d="M93.6631 81.4127V86.1919M101.484 81.4127V86.1919" stroke="#333333" stroke-linecap="round" stroke-linejoin="round"/>
<path d="M97.5476 62.3865C100.224 62.3865 102.653 63.4698 104.41 65.2268C106.167 66.9838 107.251 69.4131 107.251 72.0896C107.251 74.7662 106.167 77.1955 104.41 78.9525C102.643 80.7111 100.222 81.8014 97.5476 81.8014C94.8721 81.8014 92.4425 80.7103 90.6847 78.9525C88.9267 77.1945 87.8358 74.7735 87.8358 72.0896C87.8358 69.4133 88.9189 66.9842 90.6757 65.2272C92.4418 63.4695 94.8714 62.3865 97.5476 62.3865Z" stroke="#333333"/>
<path d="M107.138 72.7198C105.567 72.9443 103.737 72.2364 102.045 71.0797C100.474 70.0094 98.9894 68.5333 97.9449 67.0745C96.9263 68.6887 95.5797 69.9317 94.1641 70.8467C92.0492 72.2105 89.7444 72.858 88.0353 72.8752" stroke="#333333" stroke-linejoin="round"/>
<path fill-rule="evenodd" clip-rule="evenodd" d="M74.4246 74.4344C81.187 74.4344 87.3175 77.1726 91.7519 81.607C96.1863 86.0414 98.9245 92.1719 98.9245 98.9344C98.9245 105.697 96.1752 111.827 91.7519 116.262C87.3175 120.696 81.187 123.434 74.4246 123.434C67.6621 123.434 61.5316 120.696 57.0972 116.262C52.6628 111.827 49.9246 105.697 49.9246 98.9344C49.9246 92.1719 52.6739 86.0414 57.0972 81.607C61.5316 77.1837 67.6621 74.4344 74.4246 74.4344Z" fill="#EFEFEF" stroke="#333333"/>
<path fill-rule="evenodd" clip-rule="evenodd" d="M74.8789 86.0081C77.2291 89.9769 82.761 94.5886 86.6189 94.0343C86.6522 93.6352 86.6743 93.2362 86.6743 92.8371C86.6743 86.0524 81.1757 80.5649 74.4022 80.5649C67.6176 80.5649 62.13 86.0635 62.13 92.8371C62.13 93.3027 62.1522 93.7683 62.2076 94.2228C65.8881 94.1674 71.9633 91.6841 74.8789 86.0081Z" fill="#AAAAAA"/>
<path fill-rule="evenodd" clip-rule="evenodd" d="M86.6199 94.023C82.762 94.5773 77.2301 89.9766 74.8799 85.9968C71.9643 91.6728 65.8891 94.1671 62.1975 94.2004C62.8848 100.331 68.0842 105.098 74.3921 105.098C80.7776 105.109 86.0102 100.242 86.6199 94.023Z" fill="white"/>
<path fill-rule="evenodd" clip-rule="evenodd" d="M79.646 110.962L79.9564 110.552C80.1005 110.364 80.1005 110.275 80.1005 109.821V108.501V102.005C78.3933 102.903 76.4643 103.402 74.4023 103.402C72.3403 103.402 70.4113 102.892 68.7041 102.005V102.193V108.468V109.81C68.7041 110.264 68.7041 110.353 68.8482 110.541L69.1586 110.951C70.5333 112.769 72.0742 114.355 73.5376 116.328C73.8923 116.805 74.1362 117.026 74.4023 116.971C74.6794 117.038 74.9123 116.805 75.267 116.328C76.7193 114.366 78.2713 112.781 79.646 110.962Z" fill="white"/>
<path d="M73.99 116.969C73.2619 116.019 72.516 115.166 71.7918 114.343C71.762 114.309 71.7323 114.276 71.7026 114.242C71.007 113.451 70.3344 112.687 69.6995 111.869L69.6985 111.868L69.3945 111.479L69.3929 111.477C69.3795 111.46 69.3723 111.45 69.3688 111.444C69.3665 111.431 69.3632 111.403 69.3613 111.343C69.3594 111.281 69.3594 111.203 69.3594 111.093V109.821V109.228L68.7747 109.328C63.817 110.18 59.5002 111.927 56.2611 114.448L55.8486 114.77L56.1877 115.167C60.5302 120.261 67.0712 123.713 74.4403 123.713C81.7681 123.713 88.3295 120.207 92.6591 115.169L92.9986 114.774L92.5899 114.451C89.368 111.904 85.0479 110.221 80.0971 109.35L79.5104 109.246V109.842V111.093H79.5103L79.5106 111.105C79.5133 111.218 79.5151 111.297 79.5145 111.359C79.514 111.416 79.5115 111.444 79.5096 111.458C79.5058 111.464 79.4991 111.473 79.4878 111.487L79.4862 111.489L79.1822 111.878L79.182 111.878C78.5482 112.69 77.8767 113.453 77.1828 114.242C77.1515 114.277 77.1202 114.313 77.0888 114.348C76.3645 115.172 75.6189 116.024 74.8911 116.969L74.8908 116.969C74.7187 117.193 74.6063 117.314 74.5275 117.375C74.5214 117.379 74.5161 117.383 74.5116 117.386M73.99 116.969C73.9901 116.97 73.9902 116.97 73.9903 116.97L73.5935 117.274L73.9898 116.969C73.9899 116.969 73.99 116.969 73.99 116.969ZM73.99 116.969C74.1644 117.196 74.2736 117.316 74.3511 117.376C74.3569 117.381 74.362 117.384 74.3663 117.387M74.3663 117.387L74.3272 117.396C74.3424 117.393 74.3643 117.393 74.3819 117.398C74.3852 117.399 74.3869 117.4 74.3869 117.4C74.3869 117.4 74.3803 117.397 74.3663 117.387ZM74.3663 117.387L74.4427 117.37L74.5116 117.386M74.5116 117.386C74.4972 117.396 74.4908 117.399 74.4908 117.399C74.4908 117.4 74.5172 117.388 74.5579 117.398L74.5116 117.386Z" fill="#BDECFF" stroke="#333333"/>
<path d="M69.4023 104.799V110.937M79.4462 104.799V110.937" stroke="#333333" stroke-linecap="round" stroke-linejoin="round"/>
<path d="M74.391 80.222C77.8675 80.222 81.0231 81.6292 83.3053 83.9113C85.5874 86.1935 86.9946 89.3491 86.9946 92.8257C86.9946 96.3018 85.5878 99.4571 83.3061 101.739C81.0112 104.023 77.8658 105.44 74.391 105.44C70.9155 105.44 67.7596 104.023 65.4766 101.74C63.1935 99.4569 61.7762 96.312 61.7762 92.8257C61.7762 89.3494 63.1832 86.1939 65.4651 83.9118C67.7589 81.6289 70.9148 80.222 74.391 80.222Z" stroke="#333333"/>
<path d="M86.7067 93.6348C84.6891 93.923 82.3388 93.0139 80.166 91.5284C78.1483 90.1538 76.2416 88.2581 74.9002 86.3845C73.592 88.4576 71.8626 90.054 70.0445 91.2291C67.3284 92.9807 64.3685 93.8121 62.1735 93.8343" stroke="#333333" stroke-linejoin="round"/>
<path fill-rule="evenodd" clip-rule="evenodd" d="M113.942 83.3447L124.382 93.784L87.6273 130.538L77.1879 120.099L113.942 83.3447Z" fill="url(#paint2_linear_125_2347)"/>
<path fill-rule="evenodd" clip-rule="evenodd" d="M132.303 85.4597C133.084 84.6787 133.084 83.4123 132.303 82.6313L125.082 75.4103C124.301 74.6292 123.035 74.6292 122.254 75.4103L114.288 83.3756L124.338 93.4252L132.303 85.4597Z" fill="white"/>
<path fill-rule="evenodd" clip-rule="evenodd" d="M75.6171 133.287C75.2743 133.376 74.9102 133.277 74.6598 133.026V133.026C74.4094 132.776 74.3101 132.412 74.3987 132.069L77.3536 120.635L87.051 130.332L75.6171 133.287Z" fill="white"/>
<path d="M131.818 81.5249L126.161 75.8681C124.794 74.5013 122.578 74.5013 121.211 75.8681L76.9971 120.082L74.0679 131.799C73.7932 132.898 74.7883 133.893 75.8869 133.618L87.6037 130.689L131.818 86.4747C133.185 85.1079 133.185 82.8918 131.818 81.5249Z" stroke="#333333"/>
<path d="M118.943 88.3533L81.7971 125.499" stroke="#333333"/>
<path d="M77.3543 120.634L87.0518 130.332" stroke="#333333" stroke-linecap="round"/>
<path d="M114.123 83.8652L123.82 93.5626" stroke="#333333" stroke-linecap="round"/>
<path d="M116.767 81.2212L126.464 90.9186" stroke="#333333" stroke-linecap="round"/>
<path fill-rule="evenodd" clip-rule="evenodd" d="M79.9126 132.622L75.0639 127.773L74.2557 132.622L75.0639 133.43L79.9126 132.622Z" fill="#333333"/>
</g>
<defs>
<linearGradient id="paint0_linear_125_2347" x1="19" y1="0.296875" x2="0.999967" y2="19" gradientUnits="userSpaceOnUse">
<stop stop-color="#FF8E3D"/>
<stop offset="1" stop-color="#FF6F3D"/>
</linearGradient>
<linearGradient id="paint1_linear_125_2347" x1="76.9999" y1="14.9219" x2="76.7805" y2="18.9127" gradientUnits="userSpaceOnUse">
<stop stop-color="#FF8E3D"/>
<stop offset="1" stop-color="#FF6F3D"/>
</linearGradient>
<linearGradient id="paint2_linear_125_2347" x1="93.0605" y1="98.1603" x2="105.232" y2="111.104" gradientUnits="userSpaceOnUse">
<stop stop-color="#FFC671"/>
<stop offset="1" stop-color="#FF6F3D"/>
</linearGradient>
<clipPath id="clip0_125_2347">
<rect width="135" height="135" fill="white"/>
</clipPath>
</defs>
</svg>
