<svg width="135" height="135" viewBox="0 0 135 135" fill="none" xmlns="http://www.w3.org/2000/svg">
<path d="M102 0.5H102.5V1V123.004V123.504H102H1H0.5V123.004V20.6346V20.4257L0.648636 20.2789L20.527 0.644272L20.6731 0.5H20.8784H102Z" fill="white" stroke="#333333"/>
<path d="M19.6464 0.646447C19.7894 0.503448 20.0045 0.46067 20.1913 0.53806C20.3782 0.615451 20.5 0.797769 20.5 1V20C20.5 20.2761 20.2761 20.5 20 20.5H1C0.79777 20.5 0.615452 20.3782 0.538061 20.1913C0.46067 20.0045 0.503448 19.7894 0.646446 19.6464L19.6464 0.646447Z" fill="#BDECFF" stroke="#333333" stroke-linejoin="round"/>
<path fill-rule="evenodd" clip-rule="evenodd" d="M116 12H34.8784L15 31.4661V134H116V12Z" fill="white"/>
<path fill-rule="evenodd" clip-rule="evenodd" d="M117 11.5C117 11.2239 116.776 11 116.5 11H35C34.8674 11 34.7402 11.0527 34.6464 11.1464L15.1464 30.6464C15.0527 30.7402 15 30.8674 15 31V134.5C15 134.776 15.2239 135 15.5 135H116.5C116.776 135 117 134.776 117 134.5V101.5C117 101.224 116.776 101 116.5 101C116.224 101 116 101.224 116 101.5V134H16V31.2071L35.2071 12H116V33.5C116 33.7761 116.224 34 116.5 34C116.776 34 117 33.7761 117 33.5V11.5Z" fill="#333333"/>
<path d="M34.6464 11.6464C34.7894 11.5034 35.0045 11.4607 35.1913 11.5381C35.3782 11.6155 35.5 11.7978 35.5 12V31C35.5 31.2761 35.2761 31.5 35 31.5H16C15.7978 31.5 15.6155 31.3782 15.5381 31.1913C15.4607 31.0045 15.5034 30.7894 15.6464 30.6464L34.6464 11.6464Z" fill="url(#paint0_linear_125_2459)" stroke="#333333" stroke-linejoin="round"/>
<path fill-rule="evenodd" clip-rule="evenodd" d="M33 65.5C33 65.7761 33.2239 66 33.5 66H59.5C59.7761 66 60 65.7761 60 65.5C60 65.2239 59.7761 65 59.5 65H33.5C33.2239 65 33 65.2239 33 65.5Z" fill="#333333"/>
<path fill-rule="evenodd" clip-rule="evenodd" d="M33 101.5C33 101.776 33.2239 102 33.5 102H50.5C50.7761 102 51 101.776 51 101.5C51 101.224 50.7761 101 50.5 101H33.5C33.2239 101 33 101.224 33 101.5Z" fill="#333333"/>
<path fill-rule="evenodd" clip-rule="evenodd" d="M48.0029 42.501C48.0029 42.7771 48.2268 43.001 48.5029 43.001H69.5029C69.7791 43.001 70.0029 42.7771 70.0029 42.501C70.0029 42.2248 69.7791 42.001 69.5029 42.001H48.5029C48.2268 42.001 48.0029 42.2248 48.0029 42.501Z" fill="#333333"/>
<path fill-rule="evenodd" clip-rule="evenodd" d="M33 78.5C33 78.7761 33.2239 79 33.5 79H61.5C61.7761 79 62 78.7761 62 78.5C62 78.2239 61.7761 78 61.5 78H33.5C33.2239 78 33 78.2239 33 78.5Z" fill="#333333"/>
<path fill-rule="evenodd" clip-rule="evenodd" d="M33.0029 54.5C33.0029 54.7761 33.2268 55 33.5029 55H60.5029C60.7791 55 61.0029 54.7761 61.0029 54.5C61.0029 54.2239 60.7791 54 60.5029 54H33.5029C33.2268 54 33.0029 54.2239 33.0029 54.5Z" fill="#333333"/>
<path fill-rule="evenodd" clip-rule="evenodd" d="M33 89.5C33 89.7761 33.2239 90 33.5 90H65.5C65.7761 90 66 89.7761 66 89.5C66 89.2239 65.7761 89 65.5 89H33.5C33.2239 89 33 89.2239 33 89.5Z" fill="#333333"/>
<path fill-rule="evenodd" clip-rule="evenodd" d="M33 112.501C33 112.777 33.2239 113.001 33.5 113.001L98.5 113.001C98.7761 113.001 99 112.777 99 112.501C99 112.225 98.7761 112.001 98.5 112.001L33.5 112.001C33.2239 112.001 33 112.225 33 112.501Z" fill="#333333"/>
<path d="M99.5029 65.4817H72.8865" stroke="#333333" stroke-linecap="round"/>
<path fill-rule="evenodd" clip-rule="evenodd" d="M58 101.5C58 101.776 58.2239 102 58.5 102H81.5C81.7761 102 82 101.776 82 101.5C82 101.224 81.7761 101 81.5 101H58.5C58.2239 101 58 101.224 58 101.5Z" fill="#333333"/>
<path d="M94 28H60" stroke="url(#paint1_linear_125_2459)" stroke-width="2" stroke-linecap="round"/>
<path fill-rule="evenodd" clip-rule="evenodd" d="M98 96C114.52 96 128 82.52 128 66C128 49.48 114.52 36 98 36C81.48 36 68 49.48 68 66C68 82.52 81.4698 96 98 96Z" fill="url(#paint2_linear_125_2459)"/>
<path fill-rule="evenodd" clip-rule="evenodd" d="M98 95C113.968 95 127 81.9677 127 66C127 50.0323 113.968 37 98 37C82.0323 37 69 50.0323 69 66C69 81.9679 82.0223 95 98 95ZM128 66C128 82.52 114.52 96 98 96C81.4698 96 68 82.52 68 66C68 49.48 81.48 36 98 36C114.52 36 128 49.48 128 66Z" fill="#333333"/>
<path fill-rule="evenodd" clip-rule="evenodd" d="M88.4519 61.0125C89.8066 61.0125 91.0464 61.5091 91.9989 62.3368L101.712 55.0284C101.318 54.267 101.096 53.4145 101.096 52.4958C101.096 49.4582 103.535 47 106.548 47C109.561 47 112 49.4582 112 52.4958C112 55.5333 109.553 57.9915 106.548 57.9915C105.21 57.9915 103.986 57.5032 103.034 56.6921L93.3044 64.0087C93.6821 64.7536 93.8955 65.6061 93.8955 66.5C93.8955 67.3939 93.6821 68.2381 93.3044 68.9913L103.034 76.3079C103.986 75.4968 105.21 75.0085 106.548 75.0085C109.561 75.0085 112 77.4667 112 80.5042C112 83.5418 109.561 86 106.548 86C103.535 86 101.096 83.5418 101.096 80.5042C101.096 79.5938 101.318 78.733 101.712 77.9716L91.9989 70.6632C91.0464 71.4909 89.8066 71.9875 88.4519 71.9875C85.4386 71.9875 83 69.5293 83 66.4917C83 63.4542 85.4386 61.0125 88.4519 61.0125Z" fill="white"/>
<defs>
<linearGradient id="paint0_linear_125_2459" x1="35" y1="11.2578" x2="16" y2="31" gradientUnits="userSpaceOnUse">
<stop stop-color="#FF8E3D"/>
<stop offset="1" stop-color="#FF6F3D"/>
</linearGradient>
<linearGradient id="paint1_linear_125_2459" x1="93.9999" y1="27.9609" x2="93.9433" y2="29.9608" gradientUnits="userSpaceOnUse">
<stop stop-color="#FF8E3D"/>
<stop offset="1" stop-color="#FF6F3D"/>
</linearGradient>
<linearGradient id="paint2_linear_125_2459" x1="68.0001" y1="33.6562" x2="128" y2="96" gradientUnits="userSpaceOnUse">
<stop stop-color="#FF8E3D"/>
<stop offset="1" stop-color="#FF6F3D"/>
</linearGradient>
</defs>
</svg>
