<svg width="135" height="135" viewBox="0 0 135 135" fill="none" xmlns="http://www.w3.org/2000/svg">
<g clip-path="url(#clip0_125_3062)">
<path fill-rule="evenodd" clip-rule="evenodd" d="M22 105.461V16.0139H8.60807C2.5 16.0139 4 15.5138 1.5 20.5133L1 74.7675V82.2701V91.0899V105.453C1 111.022 6.16229 116 11.9375 116C20 116 22 111.398 22 105.461Z" fill="#E0E0E0"/>
<path fill-rule="evenodd" clip-rule="evenodd" d="M124 106.838V8.56522C124 4.89343 121.302 1 117.313 1H28.8993C24.911 1 22.0118 4.89343 22.0118 8.56522L22.0299 106.493C22.0299 112.08 17.5044 117 12 117H113.996C119.501 116.992 124 112.425 124 106.838Z" fill="#FEFEFE"/>
<path fill-rule="evenodd" clip-rule="evenodd" d="M24.009 2.57507C25.4152 1.05628 27.3774 0 29.5628 0H118.156C120.341 0 121.303 1.05628 122.709 2.57507C124.113 4.09137 125 6.10737 125 8.09403V78.3267C125 78.6037 124.776 78.8283 124.499 78.8283C124.222 78.8283 123.997 78.6037 123.997 78.3267V8.09403C123.997 6.3957 123.232 4.61548 121.974 3.25683C120.718 1.90065 120.009 1.00322 118.156 1.00322H29.5628C27.7096 1.00322 26.0002 1.90065 24.7446 3.25683C23.4866 4.61548 23 6.3957 23 8.09403V106.241C22.9407 111.675 18.4018 117 12.5014 117C12.2245 117 12 116.775 12 116.498C12 116.221 12.2245 115.997 12.5014 115.997C17.7481 115.997 21.9441 111.234 22 106.241V8.09403C22 6.10737 22.6051 4.09137 24.009 2.57507ZM34.2634 117.498C34.2634 117.221 34.4879 116.997 34.7648 116.997H74.0882C74.3651 116.997 74.5896 117.221 74.5896 117.498C74.5896 117.775 74.3651 118 74.0882 118H34.7648C34.4879 118 34.2634 117.775 34.2634 117.498Z" fill="#333333"/>
<path fill-rule="evenodd" clip-rule="evenodd" d="M106.664 28.0001H43.3357C41.499 28.0001 40 29.5437 40 31.4375V67.5626C40 69.4643 41.4908 71.0001 43.3357 71.0001H106.664C108.501 71.0001 110 69.4564 110 67.5626V31.4375C110 29.5437 108.501 28.0001 106.664 28.0001Z" fill="#BDECFF"/>
<path fill-rule="evenodd" clip-rule="evenodd" d="M43.3309 27.0001H106.669C109.09 27.0001 111 29.022 111 31.427V67.5731C111 69.9781 109.09 72.0001 106.669 72.0001H43.3309C40.9014 72.0001 39 69.9859 39 67.5731V31.427C39 29.022 40.9097 27.0001 43.3309 27.0001ZM43.3309 27.9876H106.669C108.506 27.9876 110.005 29.5321 110.005 31.427V67.5731C110.005 69.468 108.506 71.0125 106.669 71.0125H43.3309C41.4857 71.0125 39.9947 69.4759 39.9947 67.5731V31.427C39.9947 29.5321 41.494 27.9876 43.3309 27.9876Z" fill="#333333"/>
<path fill-rule="evenodd" clip-rule="evenodd" d="M74.7637 32.0001C75.0399 32.0001 75.2637 32.2239 75.2637 32.5001V37.139C75.2637 37.4151 75.0399 37.639 74.7637 37.639C74.4876 37.639 74.2637 37.4151 74.2637 37.139V32.5001C74.2637 32.2239 74.4876 32.0001 74.7637 32.0001ZM89.3013 51.4991C89.3013 51.2229 89.5251 50.9991 89.8013 50.9991H94.4998C94.7759 50.9991 94.9998 51.2229 94.9998 51.4991C94.9998 51.7752 94.7759 51.9991 94.4998 51.9991H89.8013C89.5251 51.9991 89.3013 51.7752 89.3013 51.4991ZM55.5 50.9991C55.2239 50.9991 55 51.2229 55 51.4991C55 51.7752 55.2239 51.9991 55.5 51.9991H60.1985C60.4747 51.9991 60.6985 51.7752 60.6985 51.4991C60.6985 51.2229 60.4747 50.9991 60.1985 50.9991H55.5ZM85.7357 41.7343C85.5415 41.538 85.5415 41.2197 85.7357 41.0234L89.0724 37.6508C89.2667 37.4545 89.5815 37.4545 89.7758 37.6508C89.97 37.8471 89.97 38.1654 89.7758 38.3617L86.4391 41.7343C86.2448 41.9306 85.93 41.9306 85.7357 41.7343ZM60.1188 38.3624C59.9246 38.1661 59.9246 37.8478 60.1188 37.6515C60.313 37.4552 60.6279 37.4552 60.8221 37.6515L64.1588 41.0241C64.353 41.2204 64.353 41.5387 64.1588 41.735C63.9646 41.9313 63.6497 41.9313 63.4555 41.735L60.1188 38.3624Z" fill="#333333"/>
<path d="M78.3105 57.5898C78.3104 57.5899 78.3103 57.5899 78.3102 57.59L78.3102 57.59L78.3101 57.59C78.1327 57.6716 78.019 57.849 78.019 58.0443V61.4093C78.019 63.1225 76.6474 64.5001 75.005 64.5001C73.3545 64.5001 71.991 63.1141 71.991 61.4093V58.0443C71.991 57.7994 71.815 57.5957 71.5827 57.5527C71.5581 57.5422 71.5218 57.5259 71.4737 57.5025C71.3399 57.4374 71.1398 57.3301 70.8946 57.1796C70.4043 56.8787 69.7476 56.4134 69.0916 55.7842C67.7772 54.5234 66.5 52.6404 66.5 50.1177C66.5 46.5901 69.7363 42.5001 75.005 42.5001C80.2651 42.5001 83.5 46.7927 83.5 50.1177C83.5 52.6395 82.2262 54.4991 80.9147 55.7484C80.2599 56.3721 79.6035 56.8354 79.1109 57.1425C78.8651 57.2957 78.6613 57.4093 78.5206 57.4837C78.4503 57.521 78.3959 57.5484 78.36 57.566C78.342 57.5749 78.3287 57.5812 78.3203 57.5852L78.3116 57.5893L78.3105 57.5898ZM71.614 57.5651C71.614 57.5651 71.6134 57.5649 71.612 57.5644L71.614 57.5651Z" fill="white" stroke="#333333" stroke-linejoin="round"/>
<path fill-rule="evenodd" clip-rule="evenodd" d="M44 89.5C44 89.2239 44.2266 89 44.5061 89H72.4939C72.7734 89 73 89.2239 73 89.5C73 89.7761 72.7734 90 72.4939 90H44.5061C44.2266 90 44 89.7761 44 89.5Z" fill="#333333"/>
<path fill-rule="evenodd" clip-rule="evenodd" d="M44 81.5C44 81.2239 44.2266 81 44.5061 81H72.4939C72.7734 81 73 81.2239 73 81.5C73 81.7761 72.7734 82 72.4939 82H44.5061C44.2266 82 44 81.7761 44 81.5Z" fill="#333333"/>
<path fill-rule="evenodd" clip-rule="evenodd" d="M78 81.5C78 81.2239 78.2293 81 78.5121 81H85.4879C85.7707 81 86 81.2239 86 81.5C86 81.7761 85.7707 82 85.4879 82H78.5121C78.2293 82 78 81.7761 78 81.5Z" fill="#333333"/>
<path fill-rule="evenodd" clip-rule="evenodd" d="M44 97.5C44 97.2239 44.222 97 44.4959 97H71.5041C71.778 97 72 97.2239 72 97.5C72 97.7761 71.778 98 71.5041 98H44.4959C44.222 98 44 97.7761 44 97.5Z" fill="#333333"/>
<path fill-rule="evenodd" clip-rule="evenodd" d="M44 105.5C44 105.224 44.2254 105 44.5034 105H71.4966C71.7746 105 72 105.224 72 105.5C72 105.776 71.7746 106 71.4966 106H44.5034C44.2254 106 44 105.776 44 105.5Z" fill="#333333"/>
<path d="M59.1194 8.10081C59.6716 8.10081 60.1194 8.54853 60.1194 9.10081V19.3327C60.1194 19.885 59.6716 20.3327 59.1194 20.3327H58.1248C57.773 20.3327 57.447 20.1477 57.2664 19.8457L52.5619 11.9737V19.3327C52.5619 19.885 52.1141 20.3327 51.5619 20.3327H51C50.4477 20.3327 50 19.885 50 19.3327V9.10081C50 8.54853 50.4477 8.10081 51 8.10081H52.0003C52.3491 8.10081 52.6726 8.28249 52.8542 8.58025L57.566 16.3086V9.10081C57.566 8.54853 58.0138 8.10081 58.566 8.10081H59.1194Z" fill="#333333"/>
<path d="M70.6187 18.4341C71.1615 18.4341 71.6016 18.8741 71.6016 19.417C71.6016 19.9598 71.1615 20.3999 70.6187 20.3999H65.9664C65.4235 20.3999 64.9834 19.9598 64.9834 19.417C64.9834 18.8741 65.4235 18.4341 65.9664 18.4341H70.6187ZM65.8203 8.16802V20.3999H64.2584C63.7062 20.3999 63.2584 19.9522 63.2584 19.3999V9.16802C63.2584 8.61574 63.7062 8.16802 64.2584 8.16802H65.8203ZM69.7814 13.1498C70.3103 13.1498 70.7391 13.5786 70.7391 14.1075C70.7391 14.6365 70.3103 15.0653 69.7814 15.0653H65.9412C65.4122 15.0653 64.9834 14.6365 64.9834 14.1075C64.9834 13.5786 65.4122 13.1498 65.9412 13.1498H69.7814ZM70.6059 8.16802C71.1511 8.16802 71.593 8.60997 71.593 9.15514C71.593 9.70031 71.1511 10.1423 70.6059 10.1423H65.9706C65.4254 10.1423 64.9834 9.70031 64.9834 9.15514C64.9834 8.60997 65.4254 8.16802 65.9706 8.16802H70.6059Z" fill="#333333"/>
<path d="M77.1462 18.5912C77.1439 18.5036 77.1531 18.4161 77.1736 18.3309L79.4348 8.93406C79.543 8.48472 79.9449 8.16802 80.4071 8.16802H81.0026L81.2791 9.66804C81.3051 9.80892 81.3005 9.95373 81.2657 10.0927L78.8697 19.6432C78.7581 20.088 78.3583 20.3999 77.8997 20.3999H77.194L77.1462 18.5912ZM75.0498 8.16802C75.5268 8.16802 75.9374 8.5049 76.0306 8.97271L77.8907 18.3132C77.91 18.41 77.9148 18.5092 77.9051 18.6075L77.7267 20.3999H76.892C76.4244 20.3999 76.0193 20.076 75.9165 19.6199L73.6092 9.388C73.4682 8.76267 73.9437 8.16802 74.5847 8.16802H75.0498ZM83.5067 18.5539C83.4997 18.4632 83.5051 18.372 83.5227 18.2828L85.3608 8.9743C85.4533 8.50575 85.8643 8.16802 86.3419 8.16802H86.8065C87.4473 8.16802 87.9227 8.76219 87.7822 9.38735L85.482 19.6192C85.3794 20.0756 84.9741 20.3999 84.5064 20.3999H83.6499L83.5067 18.5539ZM80.9923 8.16802C81.4542 8.16802 81.856 8.48441 81.9644 8.93344L84.241 18.3679C84.2624 18.4564 84.2716 18.5474 84.2683 18.6384L84.2049 20.3999H83.4981C83.04 20.3999 82.6405 20.0887 82.5285 19.6445L80.1186 10.0927C80.0821 9.94834 80.0784 9.79767 80.1077 9.65168L80.4048 8.16802H80.9923Z" fill="#333333"/>
<path d="M96.9705 17.1991C96.9705 16.9807 96.9364 16.7847 96.868 16.611C96.8054 16.4318 96.6859 16.2694 96.5094 16.1238C96.3329 15.9726 96.0853 15.8241 95.7664 15.6785C95.4476 15.5329 95.0349 15.3817 94.5282 15.2249C93.9646 15.0457 93.4295 14.844 92.9228 14.62C92.4218 14.396 91.9777 14.1355 91.5906 13.8387C91.2092 13.5363 90.9074 13.1862 90.6854 12.7886C90.4691 12.3909 90.3609 11.9289 90.3609 11.4024C90.3609 10.8927 90.4748 10.4307 90.7025 10.0162C90.9302 9.59619 91.249 9.23775 91.6589 8.94091C92.0688 8.63848 92.5527 8.40605 93.1106 8.24363C93.6743 8.08121 94.2919 8 94.9637 8C95.8803 8 96.6802 8.16242 97.3633 8.48726C98.0465 8.8121 98.576 9.25735 98.9517 9.82302C99.1508 10.1183 99.298 10.4358 99.3931 10.7754C99.5422 11.3071 99.0761 11.7637 98.5238 11.7637H97.959C97.4178 11.7637 97.0171 11.2926 96.7485 10.8227C96.6005 10.5483 96.3727 10.3327 96.0653 10.1759C95.7636 10.019 95.3822 9.94063 94.921 9.94063C94.477 9.94063 94.1069 10.0078 93.8109 10.1423C93.5148 10.2711 93.2928 10.4475 93.1448 10.6715C92.9968 10.8899 92.9228 11.1364 92.9228 11.4108C92.9228 11.618 92.974 11.8057 93.0765 11.9737C93.1847 12.1417 93.3441 12.2985 93.5547 12.4441C93.7653 12.5898 94.0244 12.727 94.3318 12.8558C94.6392 12.9846 94.995 13.1106 95.3992 13.2338C96.0767 13.4355 96.4667 13.5867 96.9791 13.8387C97.4971 14.0907 98.1347 14.4492 98.482 14.7628C98.8293 15.0765 99.0912 15.4321 99.2677 15.8297C99.4441 16.2274 99.5324 16.6782 99.5324 17.1823C99.5324 17.7144 99.4271 18.1904 99.2164 18.6105C99.0058 19.0305 98.7012 19.3862 98.3027 19.6774C97.9042 19.9686 97.4288 20.1899 96.8766 20.3411C96.3244 20.4923 95.7067 20.5679 95.0235 20.5679C94.4087 20.5679 93.8023 20.4895 93.2046 20.3327C92.6068 20.1703 92.0631 19.9266 91.5735 19.6018C91.0896 19.277 90.7025 18.8625 90.4121 18.3585C90.2713 18.114 90.1647 17.8478 90.0921 17.5598C89.9573 17.0243 90.4243 16.569 90.9766 16.569H91.557C92.1038 16.569 92.5003 17.0373 92.7264 17.5352C92.8459 17.7984 93.0139 18.0112 93.2302 18.1736C93.4522 18.336 93.7141 18.4537 94.0158 18.5265C94.3233 18.5993 94.6591 18.6357 95.0235 18.6357C95.4676 18.6357 95.8319 18.5741 96.1166 18.4509C96.4069 18.3276 96.6204 18.1568 96.757 17.9384C96.8994 17.72 96.9705 17.4735 96.9705 17.1991Z" fill="#333333"/>
<path fill-rule="evenodd" clip-rule="evenodd" d="M3.54344 17.6109C2.59703 18.6515 1.99947 20.2053 1.99947 22.2353V105.589C1.99947 108.444 3.16272 111.048 5.04958 112.938C6.93662 114.829 9.52679 115.995 12.3862 115.995C15.2394 115.995 17.1264 114.889 19.0118 113C20.8623 111.137 22.003 108.3 22.003 105.392V95.6313C22.003 95.3539 21.9545 95.129 22.2305 95.129C22.5065 95.129 23 95.3539 23 95.6313V105.392C23 108.492 21.7382 111.612 19.6532 113.711L19.6524 113.711C17.5852 115.783 15.5117 117 12.3862 117C9.2501 117 6.40951 115.72 4.34389 113.65C2.27809 111.58 1 108.724 1 105.589V22.2353C1 20.0073 1.65856 18.1946 2.8057 16.9332C3.9554 15.669 5.55921 15 7.36165 15H15.3171C15.5931 15 15.8168 15.2249 15.8168 15.5022C15.8168 15.7796 15.5931 16.0045 15.3171 16.0045H7.36165C5.81443 16.0045 4.48728 16.5731 3.54344 17.6109Z" fill="#333333"/>
<path fill-rule="evenodd" clip-rule="evenodd" d="M105.995 133C121.422 133 134 120.424 134 105C134 89.576 121.422 77 105.995 77C90.5684 77 78 89.576 78 105C78 120.424 90.5782 133 105.995 133Z" fill="url(#paint0_linear_125_3062)"/>
<path fill-rule="evenodd" clip-rule="evenodd" d="M105.995 132C120.87 132 133 119.872 133 105C133 90.1285 120.87 78 105.995 78C91.121 78 79 90.128 79 105C79 119.872 91.1306 132 105.995 132ZM134 105C134 120.424 121.422 133 105.995 133C90.5782 133 78 120.424 78 105C78 89.576 90.5684 77 105.995 77C121.422 77 134 89.576 134 105Z" fill="#333333"/>
<path fill-rule="evenodd" clip-rule="evenodd" d="M96.6984 100.851C97.8657 100.851 98.9388 101.275 99.7581 101.97L108.133 95.7865C107.799 95.148 107.603 94.4163 107.603 93.6487C107.603 91.0804 109.706 89 112.302 89C114.897 89 117 91.0804 117 93.6487C117 96.217 114.897 98.2974 112.302 98.2974C111.149 98.2974 110.09 97.8885 109.271 97.1998L100.889 103.391C101.215 104.022 101.397 104.74 101.397 105.5C101.397 106.26 101.215 106.978 100.889 107.609L109.271 113.8C110.09 113.119 111.149 112.703 112.302 112.703C114.897 112.703 117 114.783 117 117.351C117 119.92 114.897 122 112.302 122C109.706 122 107.603 119.92 107.603 117.351C107.603 116.577 107.792 115.852 108.133 115.213L99.7581 109.03C98.9388 109.725 97.8657 110.149 96.6984 110.149C94.1027 110.149 92 108.068 92 105.5C92 102.932 94.1027 100.851 96.6984 100.851Z" fill="white"/>
</g>
<defs>
<linearGradient id="paint0_linear_125_3062" x1="78.0001" y1="74.8125" x2="134" y2="133" gradientUnits="userSpaceOnUse">
<stop stop-color="#FFC671"/>
<stop offset="0.59375" stop-color="#FF7541"/>
<stop offset="1" stop-color="#FF6F3D"/>
</linearGradient>
<clipPath id="clip0_125_3062">
<rect width="135" height="135" fill="white"/>
</clipPath>
</defs>
</svg>
