<svg width="135" height="135" viewBox="0 0 135 135" fill="none" xmlns="http://www.w3.org/2000/svg">
<path fill-rule="evenodd" clip-rule="evenodd" d="M55.1351 11.3903C56.8964 11.0595 58.7024 10.8002 60.5441 10.6304C62.3679 10.4605 64.1918 10.3711 66.0156 10.3711C79.4083 10.3711 91.755 14.9039 101.58 22.53C111.442 30.1741 118.773 40.9204 122.108 53.3029C122.412 54.4294 121.088 54.7244 120.811 53.6784C117.557 41.5731 110.387 31.0681 100.758 23.5939C91.156 16.1555 79.1043 11.7211 66.0156 11.7211C64.1918 11.7211 62.4037 11.8016 60.6692 11.9714C58.899 12.1413 57.1288 12.3916 55.3944 12.7135L55.1351 11.3903ZM123.422 59.5433C123.636 60.9201 123.797 62.2969 123.914 63.6916C124.039 65.2741 124.11 66.8655 124.11 68.4747L124.101 69.5834L124.083 70.1376C124.057 71.0138 122.716 70.9602 122.742 70.093L122.76 69.5565L122.769 68.4747C122.769 66.9012 122.707 65.3367 122.581 63.7989C122.474 62.44 122.313 61.0989 122.108 59.7757C121.947 58.7923 123.279 58.6045 123.422 59.5433ZM123.502 76.7982C123.422 77.3704 123.332 77.9158 123.243 78.4522C123.145 78.9886 123.046 79.534 122.939 80.0794C122.733 81.1165 121.419 80.7946 121.607 79.8559C121.714 79.3194 121.822 78.783 121.911 78.2287C122.009 77.6565 122.099 77.1022 122.179 76.5569C122.304 75.6807 123.645 75.788 123.502 76.7982ZM120.999 87.2406C118.853 93.5436 115.644 99.3549 111.594 104.478C107.499 109.654 102.546 114.107 96.9583 117.638L96.2431 116.503C101.715 113.052 106.551 108.698 110.548 103.646C114.499 98.6486 117.629 92.9714 119.729 86.8115L120.999 87.2406ZM79.7927 124.907C77.5576 125.452 75.2778 125.863 72.9623 126.14C70.6735 126.417 68.358 126.552 66.0067 126.552C52.0686 126.552 39.2749 121.643 29.2616 113.454C19.2305 105.256 11.9888 93.7582 9.19043 80.6247C8.97587 79.6234 10.2901 79.3552 10.5136 80.3655C13.2494 93.186 20.3212 104.397 30.1199 112.408C39.9007 120.401 52.3904 125.202 66.0067 125.202C68.3133 125.202 70.5841 125.067 72.8014 124.799C75.0722 124.531 77.2984 124.12 79.4709 123.592L79.7927 124.907ZM8.09077 72.936C8.04606 72.3191 8.0103 71.6843 7.97454 71.0406C7.93878 70.1645 7.9209 69.3062 7.9209 68.4658C7.9209 67.0353 7.97454 65.6049 8.07289 64.1833C8.16229 62.9317 8.2964 61.689 8.46626 60.4641C8.58249 59.6148 9.91461 59.8204 9.79838 60.6519C9.63745 61.8499 9.50335 63.0658 9.41394 64.2817C9.3156 65.6585 9.26196 67.0532 9.26196 68.4658C9.26196 69.333 9.27984 70.1734 9.3156 70.9781C9.34242 71.5949 9.37818 72.2297 9.43183 72.8734C9.51229 73.8479 8.17123 74.0088 8.09077 72.936ZM9.85202 53.58L10.0398 52.8648C10.1739 52.391 10.2901 51.9797 10.3974 51.6221L10.7371 50.5582L10.9159 50.0307C11.202 49.1814 12.4805 49.6105 12.1855 50.4867L12.0245 50.9694L11.7027 52.0155L11.354 53.2224L11.1752 53.8929C10.9338 54.7423 9.62852 54.4026 9.85202 53.58ZM13.5533 43.4684C16.6914 36.8973 21.0275 31.0145 26.2755 26.0883C31.5057 21.18 37.6567 17.2284 44.4245 14.5194L44.9252 15.7711C38.3093 18.4175 32.3103 22.2797 27.1964 27.0718C22.0735 31.8817 17.8358 37.6393 14.7692 44.0585L13.5533 43.4684Z" fill="#333333"/>
<path fill-rule="evenodd" clip-rule="evenodd" d="M64.2727 20.5898L57.9429 13.8487L56.0654 11.9087L57.9429 9.9686L64.2727 3.22754C64.4247 3.06661 64.4962 2.85204 64.4872 2.62853C64.4783 2.39608 64.3889 2.15469 64.219 1.97588L64.1833 1.94012C64.0223 1.78813 63.8257 1.70767 63.6468 1.69873C63.468 1.69873 63.2982 1.76131 63.1641 1.88648L54.4472 11.1756C54.3667 11.256 54.3131 11.3633 54.2773 11.4616C54.2415 11.5779 54.2237 11.712 54.2326 11.8371L54.2415 11.8908L54.2326 11.9444C54.2237 12.0696 54.2326 12.2037 54.2773 12.3199C54.3131 12.4272 54.3667 12.5256 54.4472 12.606L63.1641 21.8951C63.2982 22.0292 63.477 22.0918 63.6468 22.0828C63.8346 22.0828 64.0223 22.0024 64.1833 21.8504L64.219 21.8146C64.3889 21.6358 64.4783 21.3944 64.4872 21.162C64.4962 20.9653 64.4247 20.7507 64.2727 20.5898Z" fill="#333333"/>
<path fill-rule="evenodd" clip-rule="evenodd" d="M70.727 115.671L77.0568 122.412L78.9343 124.352L77.0568 126.292L70.727 133.033C70.575 133.194 70.5035 133.409 70.5125 133.632C70.5214 133.864 70.6108 134.106 70.7807 134.285L70.8164 134.32C70.9774 134.472 71.1651 134.544 71.3529 134.553C71.5317 134.553 71.7015 134.49 71.8356 134.365L80.5525 125.076C80.633 124.996 80.6866 124.888 80.7224 124.79C80.7582 124.674 80.776 124.54 80.7671 124.415L80.7582 124.361L80.7671 124.307C80.776 124.182 80.7671 124.048 80.7224 123.932C80.6866 123.824 80.633 123.726 80.5525 123.646L71.8356 114.357C71.7015 114.222 71.5227 114.16 71.3529 114.169C71.1651 114.169 70.9774 114.249 70.8164 114.401L70.7807 114.437C70.6108 114.616 70.5214 114.857 70.5125 115.09C70.5035 115.286 70.575 115.51 70.727 115.671Z" fill="#333333"/>
<path d="M84.4339 46.3114V68.6266V90.7899C84.4339 92.2083 83.2639 93.3743 81.8222 93.3743H44.2377C42.796 93.3743 41.626 92.2083 41.626 90.7899V51.4336H48.8106C50.8085 51.4336 52.2735 49.8529 52.2735 47.8954V40.7319H81.8222C83.2639 40.7319 84.4339 41.898 84.4339 43.3164V46.3114Z" fill="#FEFEFE" stroke="#333333"/>
<path fill-rule="evenodd" clip-rule="evenodd" d="M50.1463 78.6753H58.1913C59.2568 78.6753 59.3205 79.5693 58.1275 79.5693H50.1918C48.8167 79.5693 48.8622 78.6753 50.1463 78.6753Z" fill="#333333"/>
<path fill-rule="evenodd" clip-rule="evenodd" d="M50.1286 73.311H63.5703C64.6164 73.311 64.679 74.2051 63.5077 74.2051H50.1734C48.8231 74.2051 48.8679 73.311 50.1286 73.311Z" fill="#333333"/>
<path fill-rule="evenodd" clip-rule="evenodd" d="M50.0927 67.9473H69.0516C70.0585 67.9473 70.1187 68.8413 68.9914 68.8413H50.1357C48.8363 68.8413 48.8793 67.9473 50.0927 67.9473Z" fill="#333333"/>
<path d="M52.3545 42.02V40.8129L51.5009 41.6665L42.5605 50.6069L41.707 51.4604H42.9141H49.2798C50.9752 51.4604 52.3545 50.0701 52.3545 48.3836V42.02Z" fill="url(#paint0_linear)" stroke="#333333"/>
<path fill-rule="evenodd" clip-rule="evenodd" d="M50.1154 57.2188H60.8993C61.9309 57.2188 61.9926 58.1128 60.8375 58.1128H50.1594C48.828 58.1128 48.8721 57.2188 50.1154 57.2188Z" fill="#333333"/>
<path fill-rule="evenodd" clip-rule="evenodd" d="M89.0458 65.9443L83.0289 59.9453L63.7266 79.3102L69.8776 85.1572L89.0458 65.9443Z" fill="url(#paint1_linear)"/>
<path fill-rule="evenodd" clip-rule="evenodd" d="M87.5622 63.2356L68.0006 82.9224L67.4463 82.3591L87.0079 62.6724L87.5622 63.2356Z" fill="white"/>
<path fill-rule="evenodd" clip-rule="evenodd" d="M80.5796 74.4466L93.8829 61.0539C93.9455 60.9913 93.9992 60.9198 94.026 60.8394C94.0618 60.7589 94.0796 60.6695 94.0796 60.5801C94.0796 60.4907 94.0618 60.4013 94.026 60.3298C93.9902 60.2493 93.9455 60.1778 93.8829 60.1152L89.5916 55.797C89.529 55.7344 89.4575 55.6897 89.377 55.6539C89.2965 55.6182 89.2161 55.6092 89.1267 55.6092C89.0373 55.6092 88.9568 55.6271 88.8763 55.6539C88.7959 55.6897 88.7243 55.7344 88.6618 55.797L65.0949 79.5248L65.0412 79.5874L64.9518 79.7394L64.925 79.8198L63.2978 85.7652C63.28 85.8278 63.271 85.8903 63.271 85.944C63.271 86.0066 63.28 86.0692 63.2978 86.1228C63.3247 86.2301 63.3872 86.3374 63.4677 86.4178C63.5035 86.4625 63.5571 86.4983 63.6018 86.5251C63.6465 86.5519 63.7002 86.5788 63.7627 86.5877C63.8164 86.6056 63.879 86.6145 63.9326 86.6145C63.9863 86.6145 64.0488 86.6056 64.1025 86.5877L70.0121 84.9516L70.173 84.889L70.2445 84.8354L80.5796 74.4466ZM94.6965 61.8764L71.1296 85.5953C71.076 85.649 71.0134 85.7026 70.9508 85.7562C70.8882 85.8009 70.8257 85.8456 70.7541 85.8814C70.6916 85.9172 70.62 85.9529 70.5485 85.9887C70.477 86.0245 70.4055 86.0423 70.3339 86.0692L64.4243 87.7052C64.2634 87.7499 64.1025 87.7678 63.9505 87.7678C63.7896 87.7678 63.6286 87.7499 63.4766 87.7052C63.3247 87.6695 63.1816 87.6069 63.0475 87.5264C62.9134 87.446 62.7882 87.3476 62.672 87.2403C62.5647 87.1331 62.4664 87.0079 62.3859 86.8649C62.3055 86.7307 62.2429 86.5877 62.2071 86.4357C62.1624 86.2837 62.1445 86.1228 62.1445 85.9529C62.1445 85.792 62.1624 85.6311 62.2071 85.4701L63.8343 79.5158C63.8521 79.4354 63.879 79.3639 63.9058 79.2923L64.0131 79.0778L64.1382 78.8811C64.1919 78.8185 64.2366 78.7559 64.2902 78.7023L87.8661 54.9834C88.0359 54.8135 88.2416 54.6794 88.4472 54.599C88.6707 54.5095 88.9031 54.4648 89.1356 54.4648C89.368 54.4648 89.6005 54.5095 89.824 54.599C90.0386 54.6884 90.2353 54.8135 90.4051 54.9834L94.7055 59.3105C95.0541 59.6682 95.2329 60.1331 95.2329 60.598C95.2329 60.8304 95.1882 61.0718 95.0988 61.2953C95.0005 61.5009 94.8664 61.6976 94.6965 61.8764Z" fill="#333333"/>
<path fill-rule="evenodd" clip-rule="evenodd" d="M84.2187 59.5966L90.5038 65.7475L89.6992 66.579C87.5267 64.4512 85.3273 62.3502 83.1816 60.2045L83.9773 59.373L84.2187 59.5966Z" fill="#333333"/>
<path fill-rule="evenodd" clip-rule="evenodd" d="M85.6045 57.9027L91.8896 64.0537L91.0849 64.8852C88.9124 62.7573 86.7131 60.6563 84.5674 58.5106L85.3631 57.6792L85.6045 57.9027Z" fill="#333333"/>
<path fill-rule="evenodd" clip-rule="evenodd" d="M64.156 82.6004C65.2646 83.7537 66.3643 84.916 67.4729 86.0693L66.6504 86.8739L62.958 83.0117L63.7895 82.207L64.156 82.6004Z" fill="#333333"/>
<path fill-rule="evenodd" clip-rule="evenodd" d="M69.9856 85.2736L63.9688 79.6143L64.7466 78.7739C66.8923 80.7766 69.0201 82.7971 71.1568 84.7998L70.3701 85.6402L69.9856 85.2736Z" fill="#333333"/>
<path fill-rule="evenodd" clip-rule="evenodd" d="M38.8283 20.2319C38.4081 24.5233 35.8243 28.18 32.1856 30.0932V34.9836C37.2816 35.9134 41.6714 38.0055 44.9436 40.6697C48.4303 36.4856 50.5224 31.1124 50.5224 25.2475C50.5224 11.9263 39.7224 1.13525 26.4101 1.13525C13.0889 1.13525 2.29785 11.9263 2.29785 25.2475C2.29785 31.0766 4.36308 36.4141 7.7962 40.5803C11.0773 37.9429 15.4849 35.8687 20.581 34.9657V30.1021C16.9959 28.2157 14.43 24.6396 13.9561 20.4286C13.9025 19.9637 13.8757 19.4988 13.8757 19.016C13.8757 12.1051 19.4724 6.50843 26.3833 6.50843C33.2942 6.50843 38.8909 12.1051 38.8909 19.016C38.8909 19.4184 38.873 19.8296 38.8283 20.2319Z" fill="#EFEFEF"/>
<path fill-rule="evenodd" clip-rule="evenodd" d="M26.8745 12.0604C29.2705 16.1104 34.903 20.7952 38.8278 20.232C38.8636 19.8296 38.8814 19.4184 38.8814 19.0071C38.8814 12.0962 33.2848 6.49951 26.3738 6.49951C19.4718 6.49951 13.8662 12.0962 13.8662 19.0071C13.8662 19.481 13.893 19.9548 13.9467 20.4197C17.7195 20.375 23.9063 17.8449 26.8745 12.0604Z" fill="#AAAAAA"/>
<path fill-rule="evenodd" clip-rule="evenodd" d="M38.8282 20.2321C34.8945 20.7953 29.262 16.1105 26.8749 12.0605C23.9067 17.845 17.72 20.3751 13.9561 20.4198C14.6534 26.6602 19.9551 31.5149 26.3832 31.5149C32.8739 31.5149 38.2203 26.5619 38.8282 20.2321Z" fill="white"/>
<path fill-rule="evenodd" clip-rule="evenodd" d="M31.7297 37.4781L32.0426 37.0668C32.1857 36.8701 32.1857 36.7897 32.1857 36.3248V34.9837V28.3678C30.4513 29.2797 28.4754 29.7894 26.3834 29.7894C24.2913 29.7894 22.3155 29.2708 20.5811 28.3589V28.5556V34.948V36.3158C20.5811 36.7807 20.5811 36.8701 20.733 37.0579L21.046 37.4692C22.4496 39.3288 24.0231 40.938 25.5072 42.9407C25.8648 43.4324 26.1152 43.6559 26.3923 43.5933C26.6695 43.6559 26.9109 43.4235 27.2774 42.9407C28.7526 40.947 30.3261 39.3288 31.7297 37.4781Z" fill="white"/>
<path fill-rule="evenodd" clip-rule="evenodd" d="M32.0336 37.067L31.7207 37.4782C30.326 39.3378 28.7436 40.9471 27.2594 42.9497C26.8929 43.4415 26.6515 43.665 26.3743 43.6024C26.0972 43.665 25.8558 43.4415 25.4892 42.9497C24.0051 40.9471 22.4227 39.3289 21.028 37.4782L20.7151 37.067C20.572 36.8703 20.5631 36.7898 20.5631 36.3249V34.957C15.476 35.869 11.0684 37.9342 7.77832 40.5716C12.2038 45.9358 18.9002 49.3511 26.3922 49.3511C33.8396 49.3511 40.5002 45.9716 44.9257 40.661C41.6803 37.9968 37.2816 35.9047 32.1856 34.9749V36.316C32.1856 36.7898 32.1856 36.8703 32.0336 37.067Z" fill="#CCE9FF"/>
<path fill-rule="evenodd" clip-rule="evenodd" d="M26.3832 5.8291C30.022 5.8291 33.321 7.30427 35.7081 9.69135C38.0951 12.0784 39.5703 15.3685 39.5703 19.0072C39.5703 22.646 38.0951 25.945 35.7081 28.3321C33.321 30.7102 30.022 32.1854 26.3832 32.1854C22.7445 32.1854 19.4544 30.7102 17.0673 28.3231C14.6802 25.9361 13.2051 22.646 13.2051 19.0072C13.2051 15.3685 14.6802 12.0695 17.0673 9.69135C19.4544 7.30427 22.7445 5.8291 26.3832 5.8291ZM34.7514 10.639C32.6147 8.50228 29.6554 7.17016 26.3832 7.17016C23.111 7.17016 20.1518 8.49334 18.015 10.6301C15.8783 12.7758 14.5461 15.7351 14.5461 18.9983C14.5461 22.2705 15.8693 25.2208 18.015 27.3665C20.1518 29.5122 23.111 30.8354 26.3832 30.8354C29.6465 30.8354 32.6057 29.5122 34.7514 27.3665C36.8882 25.2298 38.2203 22.2705 38.2203 18.9983C38.2114 15.7351 36.8882 12.7847 34.7514 10.639Z" fill="#333333"/>
<path fill-rule="evenodd" clip-rule="evenodd" d="M13.9473 19.7402C15.932 19.7223 18.641 18.9534 21.1443 17.3352C23.1469 16.0389 25.0155 14.1971 26.2671 11.7475L26.8214 10.6567L27.4383 11.7117C28.681 13.8038 30.8178 16.0836 33.1244 17.6571C35.0555 18.9802 37.0761 19.7938 38.7211 19.5614L38.9089 20.8935C36.9062 21.1796 34.5549 20.2677 32.3645 18.7657C30.2456 17.3173 28.2608 15.3147 26.893 13.3567C25.5519 15.5471 23.7638 17.2279 21.8685 18.4617C19.1327 20.2319 16.1466 21.0634 13.9473 21.0902V19.7402Z" fill="#333333"/>
<path fill-rule="evenodd" clip-rule="evenodd" d="M21.2602 30.0845V36.3159L21.2691 36.6557L21.582 37.0669C22.2436 37.9431 22.941 38.7656 23.6472 39.5881C24.4429 40.5269 25.2565 41.4745 26.0522 42.5474C26.1774 42.7173 26.2757 42.8424 26.3651 42.9139H26.383L26.4188 42.9229C26.4992 42.8514 26.5976 42.7173 26.7317 42.5474C27.5274 41.4835 28.332 40.5269 29.1277 39.5971C29.834 38.7656 30.5313 37.952 31.1929 37.0759L31.4969 36.6557L31.5059 36.6646L31.5148 36.3249V30.0934H32.8648V36.3249C32.8648 36.5931 32.8648 36.754 32.829 36.9239C32.7843 37.1474 32.7128 37.2904 32.5787 37.4782L32.2658 37.8894C31.5953 38.7745 30.88 39.6149 30.1469 40.4732C29.3691 41.3941 28.5734 42.3239 27.8045 43.352C27.59 43.6381 27.4022 43.8616 27.2055 44.0136C26.9462 44.2192 26.678 44.3176 26.383 44.2818C26.088 44.3086 25.8287 44.2192 25.5605 44.0136C25.3638 43.8616 25.1761 43.6471 24.9615 43.352C24.1926 42.3239 23.3969 41.3851 22.6191 40.4732C21.886 39.6149 21.1708 38.7745 20.5002 37.8894L20.1873 37.4782C20.0532 37.2904 19.9727 37.1474 19.937 36.9239V36.9149C19.9102 36.754 19.9102 36.5931 19.9102 36.3249V30.0934H21.2602V30.0845ZM21.2602 36.6646V36.6735V36.6646ZM31.5059 36.6646C31.5059 36.6735 31.5059 36.6825 31.5059 36.6646V36.6646Z" fill="#333333"/>
<path fill-rule="evenodd" clip-rule="evenodd" d="M20.7507 35.6098C18.3099 36.0389 16.0391 36.7452 13.9738 37.6482C11.8013 38.5959 9.8702 39.776 8.22516 41.0992L7.38477 40.0532C9.1192 38.6585 11.1576 37.4158 13.4464 36.4144C15.6099 35.4668 17.9881 34.7336 20.5272 34.2866L20.7507 35.6098ZM44.5232 41.1797C42.8782 39.8386 40.947 38.6495 38.7834 37.6929C36.7182 36.781 34.4384 36.0658 31.9977 35.6277L32.2391 34.3045C34.7871 34.7605 37.1652 35.5115 39.3288 36.4681C41.6086 37.4873 43.647 38.73 45.3725 40.1426L44.5232 41.1797Z" fill="#333333"/>
<path fill-rule="evenodd" clip-rule="evenodd" d="M26.4099 0.446777C33.2493 0.446777 39.4539 3.2183 43.942 7.70638C48.4301 12.1945 51.2016 18.3902 51.2016 25.2385C51.2016 32.0868 48.4301 38.2825 43.942 42.7706C39.4539 47.2587 33.2582 50.0302 26.4099 50.0302C19.5615 50.0302 13.3658 47.2587 8.87777 42.7706C4.38969 38.2825 1.61816 32.0868 1.61816 25.2385C1.61816 18.3991 4.39863 12.1945 8.87777 7.70638C13.3658 3.2183 19.5705 0.446777 26.4099 0.446777ZM42.9854 8.663C38.7476 4.42525 32.8827 1.79678 26.4099 1.79678C19.937 1.79678 14.0721 4.42525 9.83439 8.663C5.59664 12.9008 2.96816 18.7657 2.96816 25.2385C2.96816 31.7113 5.59664 37.5762 9.83439 41.814C14.0721 46.0517 19.937 48.6802 26.4099 48.6802C32.8827 48.6802 38.7387 46.0517 42.9854 41.814C47.2321 37.5762 49.8516 31.7113 49.8516 25.2385C49.8516 18.7657 47.2231 12.9008 42.9854 8.663Z" fill="#333333"/>
<path d="M127.123 121.373C130.682 117.085 132.818 111.58 132.818 105.572C132.818 91.9194 121.784 80.8574 108.179 80.8574C94.5654 80.8574 83.54 91.9286 83.54 105.572C83.54 111.536 85.6504 117.017 89.1581 121.287C97.9881 132.036 117.208 134.06 127.123 121.373Z" fill="#EFEFEF" stroke="black"/>
<path fill-rule="evenodd" clip-rule="evenodd" d="M109.055 91.9789C111.451 96.0289 117.083 100.714 121.017 100.15C121.053 99.7481 121.08 99.3368 121.08 98.9256C121.08 92.0147 115.483 86.418 108.572 86.418C101.67 86.418 96.0645 92.0147 96.0645 98.9256C96.0645 99.3994 96.0913 99.8733 96.1449 100.338C99.8909 100.302 106.087 97.7633 109.055 91.9789Z" fill="#AAAAAA"/>
<path fill-rule="evenodd" clip-rule="evenodd" d="M121.008 100.151C117.074 100.714 111.442 96.029 109.046 91.979C106.078 97.7634 99.8909 100.303 96.127 100.338C96.8243 106.579 102.126 111.433 108.554 111.433C115.054 111.442 120.391 106.489 121.008 100.151Z" fill="white"/>
<path fill-rule="evenodd" clip-rule="evenodd" d="M113.894 117.405L114.211 116.994C114.356 116.797 114.366 116.717 114.366 116.252V114.911V108.295C112.607 109.207 110.604 109.716 108.483 109.716C106.361 109.716 104.358 109.198 102.6 108.295V108.492V114.884V116.252C102.6 116.717 102.6 116.806 102.754 116.994L103.071 117.405C104.494 119.265 106.089 120.874 107.594 122.877C107.957 123.368 108.211 123.592 108.492 123.529C108.773 123.592 109.017 123.368 109.389 122.877C110.885 120.865 112.48 119.256 113.894 117.405Z" fill="white"/>
<path fill-rule="evenodd" clip-rule="evenodd" d="M114.232 117.352L113.919 117.763C112.524 119.614 110.942 121.232 109.458 123.234C109.091 123.726 108.85 123.95 108.573 123.887C108.295 123.95 108.054 123.726 107.687 123.234C106.203 121.232 104.621 119.614 103.226 117.763L102.913 117.352C102.77 117.155 102.761 117.074 102.761 116.61V115.242C97.6742 116.154 93.2666 118.219 89.9766 120.856C94.4021 126.221 101.089 129.636 108.59 129.636C116.038 129.636 122.698 126.256 127.124 120.946C123.852 118.281 119.453 116.189 114.366 115.26V116.601C114.384 117.074 114.375 117.164 114.232 117.352Z" fill="#CCE9FF"/>
<path fill-rule="evenodd" clip-rule="evenodd" d="M108.563 85.7476C112.202 85.7476 115.492 87.2227 117.879 89.6098C120.266 91.9969 121.741 95.287 121.741 98.9257C121.741 102.564 120.266 105.863 117.879 108.251C115.492 110.638 112.202 112.113 108.563 112.113C104.924 112.113 101.625 110.638 99.2382 108.251C96.8511 105.863 95.376 102.564 95.376 98.9257C95.376 95.287 96.8511 91.988 99.2382 89.6098C101.625 87.2227 104.924 85.7476 108.563 85.7476ZM116.922 90.5664C114.786 88.4297 111.826 87.1065 108.554 87.1065C105.291 87.1065 102.332 88.4297 100.186 90.5754C98.0402 92.7121 96.717 95.6714 96.717 98.9436C96.717 102.207 98.0402 105.166 100.186 107.312C102.323 109.449 105.282 110.781 108.554 110.781C111.817 110.781 114.777 109.457 116.922 107.312C119.059 105.175 120.391 102.216 120.391 98.9436C120.391 95.6625 119.068 92.7032 116.922 90.5664Z" fill="#333333"/>
<path fill-rule="evenodd" clip-rule="evenodd" d="M96.127 99.6674C98.1117 99.6496 100.821 98.8807 103.324 97.2625C105.327 95.9661 107.195 94.1244 108.447 91.6747L109.001 90.584L109.618 91.63C110.861 93.7221 112.997 96.0019 115.304 97.5754C117.235 98.8986 119.265 99.7121 120.901 99.4797L121.089 100.812C119.086 101.098 116.735 100.186 114.544 98.684C112.425 97.2356 110.441 95.233 109.073 93.275C107.732 95.4654 105.944 97.1462 104.048 98.38C101.312 100.15 98.3263 100.982 96.127 101.008V99.6674Z" fill="#333333"/>
<path fill-rule="evenodd" clip-rule="evenodd" d="M102.832 110.02V116.583C103.483 117.459 108.213 123.279 108.213 123.279L113.531 117.038V110.021H114.398L114.492 116.252C114.492 116.511 114.527 116.649 114.492 116.819C114.448 117.052 114.53 117.209 114.398 117.396L114.09 117.808C113.43 118.693 112.726 119.542 112.013 120.391C111.238 121.312 110.454 122.242 109.706 123.279C109.495 123.565 109.31 123.789 109.116 123.941C108.861 124.146 108.597 124.245 108.306 124.209C108.016 124.236 107.761 124.146 107.496 123.941C107.303 123.789 107.118 123.565 106.907 123.279C106.15 122.251 105.366 121.312 104.6 120.391C103.887 119.533 103.174 118.693 102.522 117.808L102.214 117.396C102.082 117.209 102.003 117.066 101.968 116.842C101.941 116.681 101.933 116.52 101.933 116.252V110.021L102.832 110.02Z" fill="#333333"/>
<path fill-rule="evenodd" clip-rule="evenodd" d="M102.93 115.537C100.49 115.966 98.2189 116.672 96.1537 117.575C93.9812 118.523 92.05 119.703 90.405 121.026L89.5557 119.98C91.2901 118.585 93.3375 117.343 95.6173 116.341C97.7808 115.394 100.159 114.66 102.698 114.213L102.93 115.537ZM126.694 121.106C125.049 119.765 123.118 118.576 120.954 117.62C118.889 116.699 116.609 115.993 114.169 115.554L114.41 114.231C116.958 114.687 119.336 115.438 121.5 116.395C123.779 117.405 125.818 118.657 127.543 120.069L126.694 121.106Z" fill="#333333"/>
<path fill-rule="evenodd" clip-rule="evenodd" d="M87.0528 61.0004C86.4628 60.4014 85.8727 59.8114 85.2826 59.2124L84.5674 59.9365L87.0528 62.3683L89.8601 65.113L90.4949 64.4693C89.3505 63.316 88.1972 62.1627 87.0528 61.0004ZM87.0528 57.4332L88.671 55.7971C88.7336 55.7345 88.8051 55.6898 88.8856 55.6541C88.9661 55.6183 89.0465 55.6094 89.1359 55.6094C89.2253 55.6094 89.3058 55.6273 89.3863 55.6541C89.4667 55.6898 89.5383 55.7345 89.6008 55.7971L93.8922 60.1153C93.9548 60.1779 93.9995 60.2494 94.0353 60.3299C94.071 60.4104 94.0889 60.4998 94.0889 60.5802C94.0889 60.6696 94.071 60.7591 94.0353 60.8395C94.0085 60.92 93.9548 60.9915 93.8922 61.0541L91.3174 63.6468L87.0618 59.3554L86.1051 58.3898L87.0528 57.4332Z" fill="#FEFEFE"/>
<path fill-rule="evenodd" clip-rule="evenodd" d="M50.0976 62.583H75.214C76.2263 62.583 76.2868 63.477 75.1535 63.477H50.1409C48.8345 63.477 48.8777 62.583 50.0976 62.583Z" fill="#333333"/>
<defs>
<linearGradient id="paint0_linear" x1="47.1384" y1="46.2133" x2="50.4318" y2="49.8379" gradientUnits="userSpaceOnUse">
<stop stop-color="#FFC671"/>
<stop offset="1" stop-color="#FF6F3D"/>
</linearGradient>
<linearGradient id="paint1_linear" x1="72.9953" y1="68.8966" x2="78.8245" y2="75.3173" gradientUnits="userSpaceOnUse">
<stop stop-color="#FFC671"/>
<stop offset="1" stop-color="#FF6F3D"/>
</linearGradient>
</defs>
</svg>
