<svg width="135" height="135" viewBox="0 0 135 135" fill="none" xmlns="http://www.w3.org/2000/svg">
<rect width="135" height="135" fill="white"/>
<path fill-rule="evenodd" clip-rule="evenodd" d="M56.7721 17.2397C56.69 17.3461 56.6542 17.4809 56.6727 17.614C56.6912 17.747 56.7625 17.867 56.8705 17.9469L65.0364 23.9927C65.2583 24.1571 65.5715 24.1103 65.7358 23.8884C65.9001 23.6665 65.8534 23.3534 65.6314 23.189L58.4889 17.9009C61.6158 17.4083 64.4827 17.09 67.748 17.1642C88.2095 17.6286 105.772 29.3495 114.651 46.2776C114.779 46.5222 115.081 46.6164 115.326 46.4882C115.57 46.3599 115.664 46.0577 115.536 45.8131C106.495 28.576 88.6102 16.6374 67.7707 16.1644C64.4032 16.088 61.4568 16.4195 58.2805 16.9214L63.7696 9.80541C63.9383 9.58676 63.8978 9.27278 63.6791 9.10412C63.4605 8.93546 63.1465 8.97599 62.9778 9.19464L56.7721 17.2397ZM117.933 51.0245C117.83 50.7679 117.54 50.6427 117.283 50.7449C117.026 50.847 116.901 51.1378 117.003 51.3944C118.97 56.3329 120.231 61.6232 120.665 67.138C120.687 67.4133 120.927 67.6188 121.203 67.5972C121.478 67.5755 121.684 67.3348 121.662 67.0595C121.22 61.4431 119.935 56.0548 117.933 51.0245ZM121.819 72.7235C121.826 72.4474 121.607 72.2185 121.331 72.2123C121.055 72.206 120.826 72.4247 120.82 72.7008C120.756 75.5108 120.48 78.2658 120.007 80.9509C119.959 81.2229 120.141 81.4821 120.413 81.53C120.685 81.5778 120.944 81.3962 120.992 81.1242C121.473 78.3895 121.754 75.5842 121.819 72.7235Z" fill="#333333"/>
<path fill-rule="evenodd" clip-rule="evenodd" d="M74.0474 120.965C74.1294 120.859 74.1652 120.724 74.1467 120.591C74.1282 120.458 74.057 120.338 73.949 120.258L65.7831 114.212C65.5611 114.048 65.248 114.095 65.0837 114.317C64.9194 114.539 64.9661 114.852 65.188 115.016L72.3306 120.304C69.2037 120.797 66.3368 121.115 63.0715 121.041C42.6099 120.577 25.0477 108.856 16.1689 91.9275C16.0406 91.6829 15.7384 91.5886 15.4939 91.7169C15.2493 91.8452 15.1551 92.1474 15.2833 92.3919C24.3242 109.629 42.2092 121.568 63.0488 122.041C66.4162 122.117 69.3627 121.786 72.5389 121.284L67.0498 128.4C66.8812 128.618 66.9217 128.932 67.1403 129.101C67.359 129.27 67.673 129.229 67.8416 129.01L74.0474 120.965ZM12.887 87.1806C12.9891 87.4372 13.2799 87.5624 13.5364 87.4602C13.793 87.3581 13.9182 87.0673 13.816 86.8107C11.8498 81.8721 10.5887 76.5819 10.1545 71.0671C10.1328 70.7918 9.89206 70.5862 9.61677 70.6079C9.34147 70.6296 9.13588 70.8703 9.15756 71.1456C9.59982 76.762 10.8843 82.1503 12.887 87.1806ZM9.00009 65.4816C8.99382 65.7577 9.21254 65.9866 9.48862 65.9928C9.76469 65.9991 9.99357 65.7804 9.99983 65.5043C10.0636 62.6943 10.3396 59.9393 10.8122 57.2542C10.86 56.9822 10.6784 56.723 10.4064 56.6751C10.1344 56.6272 9.87515 56.8089 9.8273 57.0809C9.34604 59.8156 9.06502 62.6209 9.00009 65.4816Z" fill="#333333"/>
<path d="M56.7583 46.7388H79.3442C80.3924 46.7388 81.2414 47.5866 81.2414 48.6149V50.9222V68.1132V85.1871C81.2414 86.2154 80.3924 87.0633 79.3442 87.0633H50.3902C49.342 87.0633 48.493 86.2154 48.493 85.1871V54.9848L53.8459 55.0037H53.8477C55.4377 55.0037 56.7583 53.6772 56.7583 52.0931V46.7388Z" fill="#FEFEFE" stroke="#333333"/>
<path d="M90.9389 62.7723L85.7162 57.562L68.9681 74.3735L74.31 79.4451L90.9389 62.7723Z" fill="url(#paint0_linear)"/>
<path fill-rule="evenodd" clip-rule="evenodd" d="M85.5295 57.603L88.0731 60.5572L88.0879 60.5424L88.664 61.121L88.6566 61.1284L90.757 62.8741L91.8058 61.8133L91.7282 61.7354L86.5627 56.5699L85.5295 57.603Z" fill="#FEFEFE"/>
<path fill-rule="evenodd" clip-rule="evenodd" d="M86.5627 56.5699L91.9375 61.6576L92.0097 61.7353L94.6593 58.8654C94.8345 58.6768 94.9205 58.429 94.9205 58.1849C94.9205 57.9371 94.8345 57.693 94.6593 57.5044L90.9765 53.7481C90.8013 53.5632 90.5779 53.4707 90.3511 53.4707C90.1243 53.4707 89.4898 53.6302 89.318 53.8151L86.5627 56.5699Z" fill="#FEFEFE"/>
<path fill-rule="evenodd" clip-rule="evenodd" d="M73.7252 79.3217L94.1813 58.7314C94.4597 58.4513 94.4597 57.997 94.1813 57.7168L90.4603 53.9714C90.1819 53.6912 89.7306 53.6912 89.4523 53.9714L68.9962 74.5616C68.9088 74.6496 68.8457 74.7589 68.8129 74.8789L67.4031 80.0434C67.2566 80.5798 67.7463 81.0727 68.2793 80.9253L73.4101 79.5062C73.5293 79.4732 73.6379 79.4097 73.7252 79.3217ZM94.6853 59.2388C95.242 58.6784 95.242 57.7698 94.6853 57.2095L90.9643 53.4641C90.4076 52.9037 89.505 52.9037 88.9483 53.4641L68.4922 74.0543C68.3174 74.2302 68.1911 74.4489 68.1256 74.6888L66.7158 79.8533C66.4229 80.9262 67.4022 81.9119 68.4681 81.6171L73.5989 80.198C73.8373 80.1321 74.0545 80.0049 74.2293 79.829L94.6853 59.2388Z" fill="#333333"/>
<path d="M88.1172 60.4966L71.1275 77.5977L70.6425 77.1095L87.6322 60.0084L88.1172 60.4966Z" fill="white"/>
<path fill-rule="evenodd" clip-rule="evenodd" d="M68.7946 74.208L74.1518 79.2438L73.6653 79.7682L68.3081 74.7324L68.7946 74.208Z" fill="#333333"/>
<path fill-rule="evenodd" clip-rule="evenodd" d="M85.6896 57.562L90.9417 62.7038L90.4447 63.2182L85.1926 58.0764L85.6896 57.562Z" fill="#333333"/>
<path fill-rule="evenodd" clip-rule="evenodd" d="M67.9401 77.186L70.951 80.3366L70.4372 80.834L67.4264 77.6834L67.9401 77.186Z" fill="#333333"/>
<path fill-rule="evenodd" clip-rule="evenodd" d="M87.0164 56.2329L92.0165 61.2686L91.5123 61.7759L86.5122 56.7401L87.0164 56.2329Z" fill="#333333"/>
<mask id="path-12-outside-1" maskUnits="userSpaceOnUse" x="47.6823" y="45.9272" width="10" height="10" fill="black">
<rect fill="white" x="47.6823" y="45.9272" width="10" height="10"/>
<path fill-rule="evenodd" clip-rule="evenodd" d="M54.275 54.5034C55.3673 54.5034 56.2584 53.6058 56.2584 52.5183V46.9272L48.6823 54.5034H54.275Z"/>
</mask>
<path fill-rule="evenodd" clip-rule="evenodd" d="M54.275 54.5034C55.3673 54.5034 56.2584 53.6058 56.2584 52.5183V46.9272L48.6823 54.5034H54.275Z" fill="url(#paint1_linear)"/>
<path d="M56.2584 46.9272H57.2584C57.2584 46.5228 57.0148 46.1581 56.6411 46.0034C56.2674 45.8486 55.8373 45.9341 55.5513 46.2201L56.2584 46.9272ZM48.6823 54.5034L47.9751 53.7963C47.6891 54.0823 47.6036 54.5124 47.7584 54.8861C47.9132 55.2598 48.2778 55.5034 48.6823 55.5034V54.5034ZM54.275 55.5034C55.9222 55.5034 57.2584 54.1554 57.2584 52.5183H55.2584C55.2584 53.0562 54.8123 53.5034 54.275 53.5034V55.5034ZM57.2584 52.5183V46.9272H55.2584V52.5183H57.2584ZM55.5513 46.2201L47.9751 53.7963L49.3894 55.2105L56.9655 47.6344L55.5513 46.2201ZM48.6823 55.5034H54.275V53.5034H48.6823V55.5034Z" fill="#333333" mask="url(#path-12-outside-1)"/>
<path fill-rule="evenodd" clip-rule="evenodd" d="M54.9428 75.8545H61.1404C61.9612 75.8545 62.0103 76.5432 61.0913 76.5432H54.9779C53.9185 76.5432 53.9536 75.8545 54.9428 75.8545Z" fill="#333333"/>
<path fill-rule="evenodd" clip-rule="evenodd" d="M54.9292 71.7217H65.2842C66.0902 71.7217 66.1384 72.4104 65.236 72.4104H54.9636C53.9235 72.4104 53.9579 71.7217 54.9292 71.7217Z" fill="#333333"/>
<path fill-rule="evenodd" clip-rule="evenodd" d="M54.9015 67.5894H69.5069C70.2825 67.5894 70.329 68.2781 69.4605 68.2781H54.9346C53.9336 68.2781 53.9667 67.5894 54.9015 67.5894Z" fill="#333333"/>
<path fill-rule="evenodd" clip-rule="evenodd" d="M54.919 59.3247H63.2266C64.0213 59.3247 64.0689 60.0135 63.179 60.0135H54.9529C53.9272 60.0135 53.9612 59.3247 54.919 59.3247Z" fill="#333333"/>
<path fill-rule="evenodd" clip-rule="evenodd" d="M54.9053 63.457H74.2542C75.0341 63.457 75.0807 64.1458 74.2076 64.1458H54.9386C53.9322 64.1458 53.9655 63.457 54.9053 63.457Z" fill="#333333"/>
<path d="M113.643 111.575C116.401 108.252 118.056 103.985 118.056 99.3298C118.056 88.7493 109.505 80.1758 98.9603 80.1758C88.4089 80.1758 79.8643 88.7564 79.8643 99.3298C79.8643 103.952 81.4998 108.2 84.2184 111.509C91.0594 119.837 105.953 121.414 113.643 111.575Z" fill="#EFEFEF" stroke="#333333"/>
<path d="M103.34 107.901C103.345 108.043 103.364 108.166 103.378 108.245L103.205 108.472C103.204 108.472 103.204 108.473 103.203 108.474C102.691 109.134 102.127 109.775 101.541 110.44C101.512 110.473 101.483 110.506 101.454 110.539C100.84 111.236 100.205 111.961 99.6087 112.743C99.5418 112.83 99.4796 112.917 99.4259 112.992C99.417 113.004 99.4083 113.016 99.3999 113.028C99.3653 113.076 99.3355 113.117 99.3088 113.152C99.2821 113.117 99.2523 113.076 99.2177 113.028C99.2093 113.016 99.2006 113.004 99.1917 112.992C99.138 112.917 99.0757 112.83 99.0088 112.743C98.416 111.966 97.8127 111.245 97.2253 110.547C97.188 110.503 97.1507 110.458 97.1136 110.414C96.5687 109.767 96.0399 109.139 95.5365 108.491L95.2684 108.066C95.2751 108.009 95.278 107.948 95.278 107.881V106.848V106.301L94.7333 106.35C90.8023 106.703 86.5196 108.573 84.1699 110.602L83.7953 110.926L84.115 111.304C87.9909 115.884 92.9227 118.368 98.992 118.368C104.99 118.368 110.624 115.904 113.835 111.265L114.102 110.879L113.734 110.588C111.063 108.476 107.975 107.419 103.927 106.7L103.34 106.596V107.193V107.881V107.891L103.34 107.901ZM103.393 108.334C103.394 108.336 103.394 108.336 103.394 108.336L103.393 108.334Z" fill="#BDECFF" stroke="#333333"/>
<path d="M93.6645 108.602C93.7022 108.793 93.7875 108.922 93.8839 109.033L94.1382 109.342C94.1384 109.342 94.1386 109.343 94.1388 109.343C94.7017 110.032 95.2959 110.676 95.8871 111.316C95.9202 111.352 95.9532 111.388 95.9863 111.424C96.613 112.103 97.2368 112.785 97.8409 113.538C97.9938 113.732 98.1561 113.916 98.3349 114.044C98.5074 114.167 98.7216 114.254 98.9677 114.232C99.2145 114.254 99.4278 114.166 99.5994 114.043C99.7757 113.916 99.9379 113.732 100.092 113.54L100.092 113.54L100.095 113.537C100.695 112.781 101.317 112.098 101.942 111.418C101.986 111.371 102.029 111.324 102.072 111.277C102.651 110.648 103.233 110.016 103.782 109.343C103.782 109.342 103.782 109.342 103.783 109.342L104.041 109.028L104.041 109.028L104.048 109.019C104.13 108.915 104.213 108.791 104.252 108.606C104.282 108.467 104.282 108.306 104.282 108.148V108.14V107.111V103.404V102.606L103.563 102.955C102.19 103.621 100.623 103.996 98.9604 103.996C97.2987 103.996 95.7309 103.615 94.3559 102.954L93.6392 102.609V103.404V103.555V107.09V108.14C93.6392 108.152 93.6391 108.163 93.6391 108.175C93.639 108.319 93.6388 108.472 93.6645 108.602Z" fill="white" stroke="#333333"/>
<path d="M108.791 94.4508C108.791 99.8803 104.39 104.282 98.9603 104.282C93.5307 104.282 89.1292 99.8803 89.1292 94.4508C89.1292 89.0212 93.5307 84.6196 98.9603 84.6196C104.39 84.6196 108.791 89.0212 108.791 94.4508Z" fill="white" stroke="#333333"/>
<path d="M98.9935 89.6688C100.89 92.8722 104.286 95.6298 108.658 95.2934L109.094 95.2599L109.119 94.8242C109.484 88.6317 104.033 84.3081 98.9547 84.3081C93.5536 84.3081 88.4721 88.9991 88.8362 94.826L88.8627 95.2501L89.2855 95.2924C92.7234 95.6362 96.7327 93.7311 98.9935 89.6688Z" fill="#AAAAAA" stroke="#333333"/>
<path d="M50.2789 48.8988C53.0371 45.5761 54.6921 41.3093 54.6921 36.654C54.6921 26.0735 46.1403 17.5 35.596 17.5C25.0446 17.5 16.5 26.0807 16.5 36.654C16.5 41.2765 18.1356 45.5239 20.8541 48.8333C27.6951 57.1609 42.5882 58.7379 50.2789 48.8988Z" fill="#EFEFEF" stroke="#333333"/>
<path d="M35.6445 50.0671C35.0518 49.2901 34.4484 48.5692 33.861 47.8712C33.8237 47.8269 33.7864 47.7826 33.7493 47.7384C33.2044 47.0912 32.6756 46.4631 32.1722 45.8152L31.9041 45.39C31.9108 45.333 31.9138 45.2717 31.9138 45.2055V44.1724V43.6254L31.3691 43.6744C27.4381 44.0275 23.1554 45.8973 20.8057 47.9264L20.431 48.2499L20.7508 48.6278C24.6267 53.2084 29.5584 55.6922 35.6277 55.6922C41.6254 55.6922 47.2594 53.228 50.4707 48.5894L50.7377 48.2037L50.3698 47.9127C47.6992 45.8004 44.6109 44.7432 40.5627 44.0244L39.9753 43.9201V44.5167V45.2055V45.2152L39.9757 45.2249C39.9812 45.3671 39.9996 45.4905 40.0133 45.5691L39.8406 45.7961C39.8401 45.7967 39.8397 45.7973 39.8392 45.798C39.3266 46.4585 38.7626 47.0988 38.1762 47.7646C38.1475 47.7972 38.1187 47.83 38.0898 47.8627C37.4757 48.5601 36.8412 49.2851 36.2445 50.0672C36.1776 50.1545 36.1153 50.2412 36.0616 50.316C36.0527 50.3285 36.044 50.3406 36.0356 50.3523C36.001 50.4004 35.9712 50.4413 35.9445 50.4765C35.9179 50.4413 35.8881 50.4004 35.8535 50.3523C35.8451 50.3406 35.8364 50.3285 35.8275 50.316C35.7738 50.2412 35.7115 50.1544 35.6445 50.0671ZM35.6445 50.0671C35.6447 50.0673 35.6449 50.0675 35.645 50.0678L35.2476 50.371L35.6442 50.0666C35.6443 50.0668 35.6444 50.0669 35.6445 50.0671ZM40.0291 45.6583C40.0293 45.6599 40.0294 45.6607 40.0294 45.6607L40.0291 45.6583Z" fill="#BDECFF" stroke="#333333"/>
<path d="M30.3002 45.9262C30.3379 46.1168 30.4233 46.2464 30.5196 46.3575L30.774 46.6663C30.7742 46.6666 30.7744 46.6668 30.7746 46.6671C31.3375 47.3561 31.9317 48 32.5228 48.6406C32.5559 48.6765 32.589 48.7123 32.622 48.7482C33.2487 49.4276 33.8726 50.1088 34.4767 50.8618C34.6296 51.0559 34.7918 51.2405 34.9706 51.3679C35.1432 51.4909 35.3574 51.5784 35.6035 51.5564C35.8503 51.5785 36.0635 51.4902 36.2352 51.3668C36.4115 51.2401 36.5737 51.0561 36.7281 50.8646L36.7281 50.8647L36.7306 50.8615C37.3309 50.1051 37.9531 49.4221 38.5781 48.7425C38.6214 48.6954 38.6647 48.6483 38.708 48.6012C39.2868 47.9724 39.8683 47.3405 40.4177 46.6669C40.418 46.6666 40.4182 46.6663 40.4185 46.666L40.677 46.3521L40.6771 46.3522L40.6839 46.3435C40.7659 46.2393 40.8486 46.1155 40.8879 45.9302C40.9173 45.7912 40.9173 45.6306 40.9173 45.4721V45.4646V44.435V40.7285V39.9297L40.1988 40.2788C38.8261 40.9456 37.2591 41.3199 35.5961 41.3199C33.9344 41.3199 32.3666 40.9393 30.9916 40.2779L30.2749 39.9332V40.7285V40.8795V44.4144V45.4646C30.2749 45.476 30.2749 45.4874 30.2749 45.499C30.2747 45.6432 30.2745 45.7965 30.3002 45.9262Z" fill="white" stroke="#333333"/>
<circle cx="35.596" cy="31.775" r="9.83113" fill="white" stroke="#333333"/>
<path d="M35.6292 26.993C37.5259 30.1964 40.9214 32.954 45.2942 32.6176L45.7294 32.5841L45.755 32.1484C46.1193 25.956 40.6685 21.6323 35.5904 21.6323C30.1894 21.6323 25.1079 26.3234 25.472 32.1503L25.4985 32.5743L25.9213 32.6166C29.3591 32.9604 33.3685 31.0553 35.6292 26.993Z" fill="#AAAAAA" stroke="#333333"/>
<defs>
<linearGradient id="paint0_linear" x1="68.9682" y1="56.7072" x2="90.8477" y2="79.5325" gradientUnits="userSpaceOnUse">
<stop stop-color="#FFC671"/>
<stop offset="0.59375" stop-color="#FF7541"/>
<stop offset="1" stop-color="#FF6F3D"/>
</linearGradient>
<linearGradient id="paint1_linear" x1="52.4703" y1="46.9272" x2="52.4703" y2="54.5034" gradientUnits="userSpaceOnUse">
<stop stop-color="#FF8E3D"/>
<stop offset="1" stop-color="#FF6F3D"/>
</linearGradient>
</defs>
</svg>
