<svg width="135" height="135" viewBox="0 0 135 135" fill="none" xmlns="http://www.w3.org/2000/svg">
<g clip-path="url(#clip0_125_3138)">
<path fill-rule="evenodd" clip-rule="evenodd" d="M126 83.01V90.505C126 94.6317 122.619 97.9999 118.484 97.9999H109.718H8.51649C4 97.9999 1 95.5005 1 90.505V83.01H1.01178L1 13.6813C1 10.0119 4.01602 7.00049 7.6918 7.00049H37.3572H51.5184H119.308C122.996 7.00049 126 10.0119 126 13.6813V22.76V31.0469V42.4567V46.6057V83.01Z" fill="white"/>
<path d="M65 85.2068V77.1216" stroke="url(#paint0_linear_125_3138)" stroke-width="4" stroke-linecap="round" stroke-linejoin="round"/>
<path fill-rule="evenodd" clip-rule="evenodd" d="M17 74C18.1046 74 19 74.8881 19 75.9836V85.0164C19 86.1119 18.1046 87 17 87C15.8954 87 15 86.1119 15 85.0164V75.9836C15 74.8881 15.8954 74 17 74Z" fill="url(#paint1_linear_125_3138)"/>
<path fill-rule="evenodd" clip-rule="evenodd" d="M113 64.9999C111.895 64.9999 111 65.8954 111 66.9999V84.9999C111 86.1045 111.895 86.9999 113 86.9999C114.105 86.9999 115 86.1045 115 84.9999V66.9999C115 65.8954 114.105 64.9999 113 64.9999Z" fill="url(#paint2_linear_125_3138)"/>
<path fill-rule="evenodd" clip-rule="evenodd" d="M40 58C38.8954 58 38 58.9041 38 60.0194V84.9806C38 86.0959 38.8954 87 40 87C41.1046 87 42 86.0959 42 84.9806V60.0194C42 58.9041 41.1046 58 40 58Z" fill="url(#paint3_linear_125_3138)"/>
<path fill-rule="evenodd" clip-rule="evenodd" d="M51 70.9999C49.8954 70.9999 49 71.8954 49 72.9999V84.9999C49 86.1045 49.8954 86.9999 51 86.9999C52.1046 86.9999 53 86.1045 53 84.9999V72.9999C53 71.8954 52.1046 70.9999 51 70.9999Z" fill="url(#paint4_linear_125_3138)"/>
<path fill-rule="evenodd" clip-rule="evenodd" d="M101 59.9999C99.8954 59.9999 99 60.8954 99 61.9999V80.9999C99 82.1045 99.8954 82.9999 101 82.9999C102.105 82.9999 103 82.1045 103 80.9999V61.9999C103 60.8954 102.105 59.9999 101 59.9999Z" fill="url(#paint5_linear_125_3138)"/>
<path fill-rule="evenodd" clip-rule="evenodd" d="M90 66C88.8954 66 88 66.8954 88 68V87C88 88.1046 88.8954 89 90 89C91.1046 89 92 88.1046 92 87V68C92 66.8954 91.1046 66 90 66Z" fill="url(#paint6_linear_125_3138)"/>
<path fill-rule="evenodd" clip-rule="evenodd" d="M29 66C30.1046 66 31 66.9031 31 68.0172V84.9828C31 86.0969 30.1046 87 29 87C27.8954 87 27 86.0969 27 84.9828V68.0172C27 66.9031 27.8954 66 29 66Z" fill="url(#paint7_linear_125_3138)"/>
<path fill-rule="evenodd" clip-rule="evenodd" d="M40.6878 38L65.0083 54.8956L101.324 41.335C101.582 41.2388 101.87 41.3667 101.968 41.6206C102.065 41.8745 101.935 42.1583 101.678 42.2545L64.8664 56L40.6565 39.1812L13.7645 55.8639C13.5314 56.0085 13.2235 55.9395 13.0767 55.7097C12.93 55.4799 13 55.1764 13.2332 55.0318L40.6878 38Z" fill="#333333"/>
<path fill-rule="evenodd" clip-rule="evenodd" d="M1 29H127V13.7245C127 10.3135 124.076 7 120.371 7H7.74533C4.04015 7 1 9 1 13.932V29Z" fill="#BDECFF"/>
<path d="M118 13.5H66C64.6193 13.5 63.5 14.6193 63.5 16C63.5 17.3807 64.6193 18.5 66 18.5H118C119.381 18.5 120.5 17.3807 120.5 16C120.5 14.6193 119.381 13.5 118 13.5Z" fill="#FEFEFE" stroke="#333333"/>
<path d="M108 13.5H107.5V14L107.5 16.4128L107.5 17.5298L107.5 17.8733L107.5 17.9672L107.5 17.9916L107.5 17.9979V17.9995V17.9999V18L108 18L107.5 18L107.5 18.5H108H118C119.381 18.5 120.5 17.3807 120.5 16C120.5 14.6193 119.381 13.5 118 13.5H108Z" fill="url(#paint8_linear_125_3138)" stroke="#333333"/>
<path d="M120.5 24H7.5C7.22386 24 7 24.2239 7 24.5C7 24.7761 7.22386 25 7.5 25H120.5C120.776 25 121 24.7761 121 24.5C121 24.2239 120.776 24 120.5 24Z" fill="#333333"/>
<path d="M12.5 15C12.5 13.6222 11.3778 12.5 10 12.5C8.62216 12.5 7.5 13.6222 7.5 15C7.5 16.3765 8.61231 17.5 10 17.5C11.3765 17.5 12.5 16.3877 12.5 15Z" stroke="#333333"/>
<path d="M30.5 15C30.5 13.6222 29.3778 12.5 28 12.5C26.6222 12.5 25.5 13.6222 25.5 15C25.5 16.3765 26.6123 17.5 28 17.5C29.3765 17.5 30.5 16.3877 30.5 15Z" stroke="#333333"/>
<path d="M21.5 15C21.5 13.6222 20.3778 12.5 19 12.5C17.6222 12.5 16.5 13.6222 16.5 15C16.5 16.3765 17.6123 17.5 19 17.5C20.3765 17.5 21.5 16.3877 21.5 15Z" stroke="#333333"/>
<path d="M18.5 56.5054C18.5 54.2855 16.7034 52.5005 14.4951 52.5005C12.285 52.5005 10.5 54.2873 10.5 56.5054C10.5 58.7146 12.2859 60.5005 14.4951 60.5005C16.7132 60.5005 18.5 58.7155 18.5 56.5054Z" fill="url(#paint9_linear_125_3138)" stroke="#333333"/>
<path d="M68.5 55.5049C68.5 53.285 66.7034 51.5 64.4951 51.5C62.285 51.5 60.5 53.2868 60.5 55.5049C60.5 57.7141 62.2859 59.5 64.4951 59.5C66.7132 59.5 68.5 57.715 68.5 55.5049Z" fill="url(#paint10_linear_125_3138)" stroke="#333333"/>
<path d="M45.5 39.5054C45.5 37.2855 43.7034 35.5005 41.4951 35.5005C39.285 35.5005 37.5 37.2873 37.5 39.5054C37.5 41.7146 39.2859 43.5005 41.4951 43.5005C43.7132 43.5005 45.5 41.7155 45.5 39.5054Z" fill="url(#paint11_linear_125_3138)" stroke="#333333"/>
<path d="M107.5 42.5054C107.5 40.2855 105.703 38.5005 103.495 38.5005C101.285 38.5005 99.5 40.2873 99.5 42.5054C99.5 44.7146 101.286 46.5005 103.495 46.5005C105.713 46.5005 107.5 44.7155 107.5 42.5054Z" fill="url(#paint12_linear_125_3138)" stroke="#333333"/>
<path fill-rule="evenodd" clip-rule="evenodd" d="M1 13.2543C1 13.2543 1 13.2542 1 13.2543L1.01196 83.8452H1V90.9226C1 94.8077 4.18483 98 8.07663 98H54.0823C54.3584 98 54.5823 98.2239 54.5823 98.5C54.5823 98.7761 54.3584 99 54.0823 99H8.07663C3.63176 99 0 95.3592 0 90.9226V82.8452H0.0117908L0 13.2543C0 9.26907 3.26337 6 7.24533 6H119.755C123.749 6 127 9.26956 127 13.2543V86.3782C127 86.6543 126.776 86.8782 126.5 86.8782C126.224 86.8782 126 86.6543 126 86.3782V13.2543C126 9.81942 123.194 7 119.755 7H7.24533C3.81696 7 1.00005 9.82003 1 13.2543Z" fill="#333333"/>
<path fill-rule="evenodd" clip-rule="evenodd" d="M72.3678 81.2653C72.9896 81.1223 73.6288 81.0686 74.2721 81.1139C75.1244 81.176 75.9733 81.4108 76.7768 81.8353C79.8811 83.4844 81.0607 87.3475 79.4183 90.4634C77.7715 93.5825 73.9223 94.7721 70.8212 93.1275C67.7202 91.4828 66.5374 87.6152 68.1797 84.4993C68.753 83.4123 69.5915 82.5594 70.5751 81.9811C71.136 81.6515 71.7416 81.4115 72.3678 81.2653ZM55.5402 77.9299C54.6185 79.6172 55.8245 81.5719 58.1907 88.048C60.0071 93.0021 61.78 97.9336 63.5734 102.884L64.1192 104.382C64.3736 105.087 64.5887 105.215 65.7575 105.834L111.654 130.203C113.81 131.35 116.512 130.512 117.657 128.346L132.14 100.882C133.286 98.7158 132.455 96.005 130.299 94.8579L84.4054 70.4933C83.2333 69.8697 83.2771 70.0485 82.5551 70.2309L81.0133 70.6199C78.3495 71.2942 75.6921 71.9773 73.0359 72.6528C71.9139 72.938 70.7962 73.2201 69.6774 73.5098C68.3719 73.8412 67.0663 74.1726 65.7575 74.4996C59.0893 76.178 56.3764 76.399 55.5402 77.9299Z" fill="#BDECFF"/>
<path d="M72.7658 72.3678C75.422 71.6923 78.0794 71.0092 80.7432 70.335L82.285 69.946C83.007 69.7635 83.2333 69.8697 84.4055 70.4933L130.299 94.8579C132.455 96.005 133.286 98.7158 132.14 100.882L117.657 128.346C116.512 130.512 113.81 131.35 111.654 130.203L65.7575 105.834C64.5887 105.215 64.3736 105.087 64.1192 104.382L63.5734 102.884C61.78 97.9336 60.0071 93.0021 58.1907 88.048C55.8245 81.5719 54.3484 79.3322 55.27 77.645C56.1063 76.114 58.8192 75.893 65.4874 74.2146" stroke="#333333" stroke-linecap="round" stroke-linejoin="round"/>
<path d="M76.1404 81.8898C76.8782 82.2146 77.5588 82.6912 78.1396 83.3214C80.3802 85.7644 80.2151 89.5588 77.777 91.7982C75.3339 94.0392 71.5397 93.8743 69.3006 91.4363C67.0614 88.9982 67.225 85.1989 69.6631 82.9594" stroke="#333333" stroke-linecap="round" stroke-linejoin="round"/>
<path d="M74 85.9996L66.643 66.3305" stroke="#333333" stroke-linecap="round" stroke-linejoin="round"/>
<path fill-rule="evenodd" clip-rule="evenodd" d="M83.2132 104.26L92.7093 85.9974C93.1855 85.0857 94.307 84.7344 95.1994 85.2146L123.02 100.206C123.915 100.691 124.26 101.832 123.789 102.741L114.293 121.003C113.816 121.915 112.699 122.263 111.803 121.786L83.9822 106.795C83.0866 106.31 82.737 105.172 83.2132 104.26Z" fill="url(#paint13_linear_125_3138)"/>
<path d="M83.6568 104.491L83.6564 104.491C83.3063 105.162 83.5658 106.001 84.22 106.355C84.2201 106.355 84.2201 106.355 84.2202 106.355L112.037 121.345C112.038 121.345 112.038 121.345 112.038 121.345C112.687 121.689 113.5 121.44 113.849 120.772C113.849 120.772 113.849 120.772 113.849 120.772L123.345 102.51C123.692 101.841 123.435 100.999 122.783 100.646L83.6568 104.491ZM83.6568 104.491L93.1525 86.2289C93.1526 86.2287 93.1526 86.2286 93.1527 86.2284C93.5028 85.5587 94.3206 85.3097 94.9622 85.6548C94.9623 85.6548 94.9624 85.6549 94.9625 85.6549L122.782 100.646L83.6568 104.491Z" stroke="#333333"/>
<path fill-rule="evenodd" clip-rule="evenodd" d="M99.2452 110.517L100.083 109.075C99.3921 108.581 98.8842 108.099 98.5544 107.61C98.2263 107.127 98.0467 106.531 98.0045 105.831C97.9688 105.13 98.1445 104.393 98.5219 103.609L100.171 104.138C99.8366 104.977 99.702 105.663 99.7846 106.185C99.9005 106.925 100.237 107.486 100.785 107.864L103.415 103.333C102.892 102.848 102.416 102.257 101.982 101.567C101.66 101.056 101.499 100.502 101.507 99.9094C101.516 99.3172 101.685 98.7295 102.022 98.1508C102.617 97.1285 103.473 96.4996 104.591 96.264C105.337 96.1069 106.235 96.2512 107.27 96.6879L107.667 95.9996L108.547 96.4772L108.15 97.1655C108.961 97.7153 109.499 98.3304 109.766 99.0173C110.106 99.8926 110.075 100.826 109.679 101.816L108.025 101.221C108.268 100.6 108.34 100.065 108.241 99.6085C108.142 99.1521 107.877 98.7463 107.451 98.3831L105.042 102.54C105.677 103.13 106.089 103.544 106.272 103.777C106.619 104.228 106.852 104.669 106.982 105.111C107.111 105.552 107.141 106.007 107.066 106.483C106.997 106.957 106.829 107.424 106.567 107.875C105.986 108.874 105.179 109.53 104.139 109.846C103.098 110.161 102.051 110.056 100.981 109.542L100.134 111L99.2452 110.517ZM106.578 97.8834C105.955 97.6594 105.367 97.6342 104.829 97.8167C104.285 98.0009 103.874 98.3378 103.583 98.837C103.298 99.3283 103.198 99.8171 103.285 100.304C103.378 100.788 103.707 101.298 104.285 101.836L106.578 97.8834ZM101.67 108.334C102.285 108.58 102.904 108.59 103.523 108.379C104.136 108.17 104.629 107.751 104.985 107.141C105.29 106.618 105.402 106.126 105.32 105.658C105.241 105.196 104.853 104.649 104.179 104.016L101.67 108.334Z" fill="#FEFEFE"/>
</g>
<defs>
<linearGradient id="paint0_linear_125_3138" x1="65" y1="70.1054" x2="65" y2="85.8108" gradientUnits="userSpaceOnUse">
<stop stop-color="#FFC671"/>
<stop offset="0.59375" stop-color="#FF7541"/>
<stop offset="1" stop-color="#FF6F3D"/>
</linearGradient>
<linearGradient id="paint1_linear_125_3138" x1="17" y1="67.0429" x2="17" y2="85.6155" gradientUnits="userSpaceOnUse">
<stop stop-color="#FFC671"/>
<stop offset="0.59375" stop-color="#FF7541"/>
<stop offset="1" stop-color="#FF6F3D"/>
</linearGradient>
<linearGradient id="paint2_linear_125_3138" x1="113" y1="68.863" x2="113" y2="84.6054" gradientUnits="userSpaceOnUse">
<stop stop-color="#FFC671"/>
<stop offset="0.59375" stop-color="#FF7541"/>
<stop offset="1" stop-color="#FF6F3D"/>
</linearGradient>
<linearGradient id="paint3_linear_125_3138" x1="40" y1="67.9019" x2="40" y2="85.5905" gradientUnits="userSpaceOnUse">
<stop stop-color="#FFC671"/>
<stop offset="0.59375" stop-color="#FF7541"/>
<stop offset="1" stop-color="#FF6F3D"/>
</linearGradient>
<linearGradient id="paint4_linear_125_3138" x1="51" y1="76.7894" x2="51" y2="85.2932" gradientUnits="userSpaceOnUse">
<stop stop-color="#FFC671"/>
<stop offset="0.59375" stop-color="#FF7541"/>
<stop offset="1" stop-color="#FF6F3D"/>
</linearGradient>
<linearGradient id="paint5_linear_125_3138" x1="101" y1="64.3819" x2="101" y2="71.2363" gradientUnits="userSpaceOnUse">
<stop stop-color="#FFC671"/>
<stop offset="0.59375" stop-color="#FF7541"/>
<stop offset="1" stop-color="#FF6F3D"/>
</linearGradient>
<linearGradient id="paint6_linear_125_3138" x1="90" y1="70.382" x2="90" y2="77.2364" gradientUnits="userSpaceOnUse">
<stop stop-color="#FFC671"/>
<stop offset="0.59375" stop-color="#FF7541"/>
<stop offset="1" stop-color="#FF6F3D"/>
</linearGradient>
<linearGradient id="paint7_linear_125_3138" x1="29" y1="60.6126" x2="29" y2="85.592" gradientUnits="userSpaceOnUse">
<stop stop-color="#FFC671"/>
<stop offset="0.59375" stop-color="#FF7541"/>
<stop offset="1" stop-color="#FF6F3D"/>
</linearGradient>
<linearGradient id="paint8_linear_125_3138" x1="108" y1="13.8437" x2="110.329" y2="21.1026" gradientUnits="userSpaceOnUse">
<stop stop-color="#FF8E3D"/>
<stop offset="1" stop-color="#FF6F3D"/>
</linearGradient>
<linearGradient id="paint9_linear_125_3138" x1="11" y1="52.7271" x2="18" y2="60.0005" gradientUnits="userSpaceOnUse">
<stop stop-color="#FF8E3D"/>
<stop offset="1" stop-color="#FF6F3D"/>
</linearGradient>
<linearGradient id="paint10_linear_125_3138" x1="61" y1="51.7266" x2="68" y2="59" gradientUnits="userSpaceOnUse">
<stop stop-color="#FF8E3D"/>
<stop offset="1" stop-color="#FF6F3D"/>
</linearGradient>
<linearGradient id="paint11_linear_125_3138" x1="38" y1="35.7271" x2="45" y2="43.0005" gradientUnits="userSpaceOnUse">
<stop stop-color="#FF8E3D"/>
<stop offset="1" stop-color="#FF6F3D"/>
</linearGradient>
<linearGradient id="paint12_linear_125_3138" x1="100" y1="38.7271" x2="107" y2="46.0005" gradientUnits="userSpaceOnUse">
<stop stop-color="#FF8E3D"/>
<stop offset="1" stop-color="#FF6F3D"/>
</linearGradient>
<linearGradient id="paint13_linear_125_3138" x1="86.9771" y1="84.7047" x2="106.663" y2="105.703" gradientUnits="userSpaceOnUse">
<stop stop-color="#FFC671"/>
<stop offset="1" stop-color="#FF6F3D"/>
</linearGradient>
<clipPath id="clip0_125_3138">
<rect width="135" height="135" fill="white"/>
</clipPath>
</defs>
</svg>
