<svg width="135" height="135" viewBox="0 0 135 135" fill="none" xmlns="http://www.w3.org/2000/svg">
<path d="M70.9063 99.4443H41.6533V107.044H70.9063V99.4443Z" fill="#EFEFEF"/>
<path fill-rule="evenodd" clip-rule="evenodd" d="M7.15302 14.3493H6.97421C3.7199 14.3493 1.05566 17.0135 1.05566 20.2678V81.6705H83.8795H111.514V28.3052V20.2589C111.514 17.0046 108.85 14.3403 105.596 14.3403H37.2196H33.2143H7.15302V14.3493Z" fill="#FEFEFE"/>
<path fill-rule="evenodd" clip-rule="evenodd" d="M111.523 81.6616H1.06445V93.5255C1.06445 96.7798 3.72869 99.4441 6.983 99.4441H41.6539H70.9068H105.605C108.859 99.4441 111.523 96.7798 111.523 93.5255V81.6616ZM56.2982 87.3745C58.0505 87.3745 59.4631 88.7961 59.4631 90.5394C59.4631 92.2828 58.0416 93.7043 56.2982 93.7043C54.5459 93.7043 53.1333 92.2828 53.1333 90.5394C53.1333 88.7961 54.5459 87.3745 56.2982 87.3745Z" fill="#BDECFF"/>
<path fill-rule="evenodd" clip-rule="evenodd" d="M1.67225 81.0538H82.9494C84.3888 81.0538 84.3709 82.2786 82.9673 82.2786H1.67225V93.5256C1.67225 94.9829 2.27126 96.3061 3.22788 97.2716C4.1845 98.2283 5.51662 98.8273 6.97391 98.8273H83.1371C84.2994 98.8273 84.3173 100.052 83.1193 100.052H6.97391C5.17689 100.052 3.54973 99.319 2.36066 98.1299C1.18053 96.9408 0.438477 95.3137 0.438477 93.5167V20.2591C0.438477 18.462 1.17159 16.8349 2.35172 15.6458C3.54079 14.4567 5.16795 13.7236 6.96497 13.7236H105.586C107.384 13.7236 109.011 14.4567 110.2 15.6458C111.389 16.826 112.122 18.462 112.122 20.2591V25.4177H110.897V20.2591C110.897 18.8018 110.298 17.4786 109.341 16.513C108.385 15.5475 107.053 14.9574 105.595 14.9574H6.97391C5.51662 14.9574 4.1845 15.5564 3.22788 16.513C2.27126 17.4697 1.67225 18.8018 1.67225 20.2591V81.0538Z" fill="#333333"/>
<path fill-rule="evenodd" clip-rule="evenodd" d="M95.4476 41.752H127.687C131.129 41.752 133.936 44.5682 133.936 48.0013V114.393C133.936 117.835 131.12 120.642 127.687 120.642H95.4476C92.0055 120.642 89.1982 117.826 89.1982 114.393V48.0102C89.1982 44.5682 92.0145 41.752 95.4476 41.752Z" fill="#EBECEC"/>
<path fill-rule="evenodd" clip-rule="evenodd" d="M70.9069 107.043H41.6539H34.0635C31.9625 107.043 30.2549 108.76 30.2549 110.852C30.2549 112.953 31.9714 114.661 34.0635 114.661H77.2277C79.3287 114.661 81.0363 112.944 81.0363 110.852C81.0363 108.76 79.3198 107.043 77.2277 107.043H70.9069Z" fill="#EFEFEF"/>
<path d="M55.8772 88.1157C57.3326 88.1157 58.5063 89.2964 58.5063 90.7449C58.5063 92.1924 57.3247 93.374 55.8772 93.374C54.4217 93.374 53.248 92.1933 53.248 90.7449C53.248 89.2964 54.4217 88.1157 55.8772 88.1157Z" fill="#9ADAF3" stroke="#333333"/>
<path d="M42.2619 99.1221H41.0371V107.419H42.2619V99.1221Z" fill="#333333"/>
<path d="M71.5149 99.167H70.29V107.356H71.5149V99.167Z" fill="#333333"/>
<path fill-rule="evenodd" clip-rule="evenodd" d="M34.0632 106.427H77.2274C78.4433 106.427 79.5519 106.927 80.3566 107.723C81.1612 108.528 81.6529 109.627 81.6529 110.852C81.6529 112.068 81.1523 113.177 80.3566 113.981C79.5519 114.786 78.4433 115.278 77.2274 115.278H34.0632C32.8473 115.278 31.7387 114.777 30.9341 113.981C30.1294 113.177 29.6377 112.068 29.6377 110.852C29.6377 109.636 30.1384 108.528 30.9341 107.723C31.7387 106.927 32.8473 106.427 34.0632 106.427ZM77.2274 107.661H34.0632C33.187 107.661 32.3824 108.018 31.8013 108.599C31.2201 109.18 30.8625 109.976 30.8625 110.861C30.8625 111.737 31.2201 112.542 31.8013 113.123C32.3824 113.704 33.1781 114.062 34.0632 114.062H77.2274C78.1036 114.062 78.9082 113.704 79.4894 113.123C80.0705 112.542 80.4281 111.746 80.4281 110.861C80.4281 109.985 80.0705 109.18 79.4894 108.599C78.8993 108.018 78.1036 107.661 77.2274 107.661Z" fill="#333333"/>
<path fill-rule="evenodd" clip-rule="evenodd" d="M134.106 105.497H89.4043V113.785C89.4043 117.099 92.2183 119.801 95.6486 119.801H127.862C131.301 119.801 134.106 117.09 134.106 113.785V105.497Z" fill="#BDECFF"/>
<path d="M111.308 111.361C112.763 111.361 113.937 112.542 113.937 113.99C113.937 115.438 112.755 116.619 111.308 116.619C109.852 116.619 108.679 115.438 108.679 113.99C108.679 112.542 109.852 111.361 111.308 111.361Z" fill="#9ADAF3" stroke="#333333"/>
<path fill-rule="evenodd" clip-rule="evenodd" d="M126.897 42.02H127.296C129.167 42.02 130.869 42.7836 132.102 44.0266C133.334 45.2607 134.106 46.9654 134.106 48.8387V114.771C134.106 116.644 133.343 118.349 132.102 119.583C130.869 120.817 129.167 121.59 127.296 121.59H95.3199C93.4489 121.59 91.7464 120.826 90.5138 119.583C89.2812 118.349 88.5098 116.644 88.5098 114.771V76.9482C88.5098 75.9716 89.7246 75.9538 89.7246 76.966V114.762C89.7246 116.307 90.3542 117.701 91.3651 118.713C92.3848 119.725 93.777 120.355 95.3199 120.355H127.296C128.83 120.355 130.231 119.725 131.242 118.713C132.253 117.701 132.882 116.298 132.882 114.762V48.8387C132.882 47.3028 132.253 45.8999 131.242 44.8878C130.231 43.8756 128.83 43.2453 127.296 43.2453H126.932C125.602 43.2364 125.629 42.02 126.897 42.02Z" fill="#333333"/>
<path d="M133.936 105.184H89.1982V106.409H133.936V105.184Z" fill="#333333"/>
<path d="M15.3015 50.5664H65.1632C65.7168 50.5664 66.4791 50.7138 67.2046 50.9918C67.9381 51.2729 68.5586 51.6586 68.8929 52.0834C69.6487 53.0439 70.1297 54.3889 70.1297 55.8777C70.1297 57.3665 69.6487 58.7114 68.8929 59.6719C68.5586 60.0968 67.9381 60.4825 67.2046 60.7635C66.4791 61.0415 65.7169 61.1889 65.1632 61.1889H15.3015C14.7478 61.1889 13.9856 61.0415 13.26 60.7635C12.5265 60.4825 11.906 60.0968 11.5717 59.6719C10.816 58.7114 10.335 57.3665 10.335 55.8777C10.335 54.3894 10.8156 53.0449 11.5708 52.0845C11.9058 51.6641 12.5273 51.2782 13.2608 50.9958C13.9871 50.7161 14.7489 50.5664 15.3015 50.5664Z" fill="#EFEFEF" stroke="#333333"/>
<path d="M14.7024 34.4736H64.8682C65.7748 34.4736 66.8663 35.0283 67.7494 36.0138C68.6229 36.9888 69.2356 38.3263 69.2356 39.7849C69.2356 41.2435 68.6229 42.581 67.7494 43.5559C66.8663 44.5415 65.7748 45.0962 64.8682 45.0962H14.7024C13.7958 45.0962 12.7043 44.5415 11.8212 43.5559C10.9477 42.581 10.335 41.2435 10.335 39.7849C10.335 38.3263 10.9477 36.9888 11.8212 36.0138C12.7043 35.0283 13.7958 34.4736 14.7024 34.4736Z" fill="#EFEFEF" stroke="#333333"/>
<path fill-rule="evenodd" clip-rule="evenodd" d="M99.5426 82.6899H123.494C126.373 82.6899 128.724 85.0413 128.724 87.9201C128.724 90.7989 126.373 93.1591 123.494 93.1591H99.5426C96.6638 93.1591 94.3125 90.8078 94.3125 87.9201C94.3125 85.0502 96.6638 82.6899 99.5426 82.6899Z" fill="#FEFEFE"/>
<path fill-rule="evenodd" clip-rule="evenodd" d="M99.5433 82.082H123.495C125.095 82.082 126.561 82.7436 127.625 83.7986C128.689 84.8625 129.342 86.3287 129.342 87.9291C129.342 89.5383 128.68 90.9956 127.625 92.0595C126.561 93.1234 125.104 93.7761 123.495 93.7761H99.5433C97.934 93.7761 96.4768 93.1145 95.4128 92.0595C94.3579 90.9956 93.6963 89.5383 93.6963 87.9291C93.6963 86.3198 94.3579 84.8625 95.4128 83.7986C96.4768 82.7347 97.934 82.082 99.5433 82.082ZM123.495 83.3069H99.5433C98.2738 83.3069 97.1205 83.8254 96.2801 84.6658C95.4397 85.5062 94.9211 86.6595 94.9211 87.9291C94.9211 89.1986 95.4397 90.3608 96.2711 91.1923C97.1115 92.0327 98.2648 92.5512 99.5344 92.5512H123.486C124.755 92.5512 125.909 92.0327 126.749 91.1923C127.589 90.3519 128.108 89.1986 128.108 87.9291C128.108 86.6595 127.589 85.4973 126.749 84.6658C125.917 83.8254 124.764 83.3069 123.495 83.3069Z" fill="#333333"/>
<path fill-rule="evenodd" clip-rule="evenodd" d="M100.454 76.9231C96.02 68.3672 77.415 71.7645 77.415 30.8443C79.3104 31.0857 93.6955 31.5059 100.454 24.8096C107.213 31.5059 121.598 31.0857 123.494 30.8443C123.494 71.7645 104.889 68.3761 100.454 76.9231Z" fill="url(#paint0_linear)"/>
<path fill-rule="evenodd" clip-rule="evenodd" d="M98.1386 48.3768L98.1297 53.0794L98.0939 67.6523L101.259 65.6943L102.779 62.8244L101.509 61.8231L102.779 60.7681V58.8013L101.16 57.5585L102.779 56.1817V48.3678C105.693 47.4022 107.794 44.6486 107.794 41.4122C107.794 37.3622 104.513 34.0811 100.463 34.0811C96.6098 34.0811 93.4449 37.0582 93.1499 40.8311C93.132 41.0277 93.123 41.2155 93.123 41.4122C93.123 44.6575 95.224 47.4112 98.1386 48.3768ZM103.154 38.6138C103.154 40.1069 101.947 41.3138 100.454 41.3138C98.9611 41.3138 97.7542 40.1069 97.7542 38.6138C97.7542 37.1208 98.9611 35.9138 100.454 35.9138C101.947 35.9228 103.154 37.1297 103.154 38.6138Z" fill="white"/>
<path fill-rule="evenodd" clip-rule="evenodd" d="M100.455 33.4731C102.645 33.4731 104.639 34.3672 106.069 35.7977C107.509 37.2371 108.394 39.2218 108.394 41.4122C108.394 43.1377 107.84 44.747 106.901 46.0523C106.025 47.2771 104.8 48.2337 103.387 48.797V56.4679L102.127 57.5407L103.387 58.5063V61.0632L102.475 61.8142L103.548 62.6635L101.707 66.1324L97.4598 68.752L97.5135 48.8059C96.0919 48.2427 94.876 47.2771 93.9999 46.0612C93.0611 44.7559 92.5068 43.1556 92.5068 41.4212C92.5068 39.2308 93.4009 37.2371 94.8313 35.8066C96.2797 34.3672 98.2645 33.4731 100.455 33.4731ZM105.211 36.6738C103.995 35.4579 102.314 34.7069 100.464 34.7069C98.6042 34.7069 96.9234 35.4579 95.7075 36.6738C94.4916 37.8897 93.7406 39.5705 93.7406 41.4212C93.7406 42.8874 94.2055 44.2463 95.0012 45.346C95.8148 46.4814 96.977 47.3486 98.327 47.7957L98.7472 47.9387L98.6936 66.5526L100.786 65.2652L101.993 62.9943L100.535 61.841L102.162 60.491V59.1053L100.187 57.5854L102.162 55.9046V47.9298L102.583 47.7867C103.933 47.3397 105.095 46.4635 105.908 45.3371C106.704 44.2374 107.169 42.8784 107.169 41.4122C107.178 39.5705 106.427 37.8808 105.211 36.6738Z" fill="#333333"/>
<path fill-rule="evenodd" clip-rule="evenodd" d="M100.454 35.3057C101.366 35.3057 102.198 35.6722 102.797 36.2712C103.396 36.8702 103.762 37.7017 103.762 38.6136C103.762 39.5255 103.396 40.357 102.797 40.956C102.198 41.555 101.366 41.9216 100.454 41.9216C99.5425 41.9216 98.7111 41.555 98.121 40.956C97.522 40.357 97.1465 39.5255 97.1465 38.6136C97.1465 37.7017 97.513 36.8702 98.112 36.2712C98.72 35.6812 99.5425 35.3057 100.454 35.3057ZM101.93 37.1474C101.554 36.7719 101.036 36.5394 100.454 36.5394C99.8733 36.5394 99.3548 36.7719 98.9793 37.1474C98.6038 37.5229 98.3713 38.0504 98.3713 38.6226C98.3713 39.1947 98.6038 39.7222 98.9793 40.0977C99.3548 40.4732 99.8733 40.7057 100.454 40.7057C101.027 40.7057 101.554 40.4732 101.93 40.0977C102.305 39.7222 102.538 39.2037 102.538 38.6226C102.538 38.0414 102.305 37.5229 101.93 37.1474Z" fill="#333333"/>
<path fill-rule="evenodd" clip-rule="evenodd" d="M110.2 69.7707C110.128 69.8243 110.048 69.878 109.976 69.9316L109.172 70.4949C108.43 71.0045 107.643 71.5051 106.892 71.9879C104.326 73.6329 102.136 75.0277 101 77.2181L100.455 78.2641L99.9095 77.2181C98.783 75.0366 96.5836 73.6329 94.0177 71.9879C87.8846 68.0631 79.7042 61.2951 77.4154 41.1703L78.6313 41.0362C80.8485 60.5978 88.7518 67.178 94.6793 70.9598C97.0485 72.4796 99.1138 73.8028 100.455 75.7518C101.796 73.8028 103.861 72.4796 106.23 70.9598C106.937 70.5038 107.67 70.0389 108.474 69.4935L109.261 68.9482C109.333 68.8945 109.404 68.8409 109.485 68.7873C110.379 68.1257 111.139 69.0912 110.2 69.7707ZM77.4154 41.1703L78.6313 41.0362C78.6134 40.464 78.0681 34.1611 78.0502 33.571C78.0412 32.9363 78.0323 32.2479 78.0234 31.5058C80.1691 31.6399 85.8105 31.6399 91.2999 30.2005C94.6525 29.3243 97.9694 27.9028 100.455 25.6498C102.931 27.9028 106.248 29.3243 109.61 30.2005C115.099 31.6399 120.732 31.6399 122.886 31.5058C122.842 40.1512 121.956 46.7581 120.544 51.8899C119.113 57.1111 117.138 60.8124 114.965 63.575C114.357 64.3349 115.251 65.1753 115.931 64.3349C118.193 61.4651 120.24 57.6296 121.724 52.2207C123.199 46.8475 124.111 39.9277 124.111 30.8442V30.1469L123.423 30.2363C122.234 30.3883 116.011 30.6118 109.923 29.0204C106.552 28.1353 103.235 26.6959 100.893 24.3803L100.464 23.9512L100.035 24.3803C97.6922 26.6959 94.3754 28.1353 91.0048 29.0204C84.9164 30.6118 78.685 30.3972 77.5048 30.2363L76.8164 30.1469V30.8442C76.8164 31.7204 76.8253 32.6323 76.8432 33.5979C76.8522 34.2326 77.3975 40.5713 77.4154 41.1703Z" fill="#333333"/>
<path fill-rule="evenodd" clip-rule="evenodd" d="M28.1628 53.6426C29.396 53.6426 30.3979 54.6445 30.3979 55.8777C30.3979 57.1108 29.396 58.1128 28.1628 58.1128C26.9297 58.1128 25.9277 57.1108 25.9277 55.8777C25.9277 54.6445 26.9297 53.6426 28.1628 53.6426Z" fill="#333333"/>
<path fill-rule="evenodd" clip-rule="evenodd" d="M36.2087 53.6426C37.4419 53.6426 38.4438 54.6445 38.4438 55.8777C38.4438 57.1108 37.4419 58.1128 36.2087 58.1128C34.9756 58.1128 33.9736 57.1108 33.9736 55.8777C33.9736 54.6445 34.9756 53.6426 36.2087 53.6426Z" fill="#333333"/>
<path fill-rule="evenodd" clip-rule="evenodd" d="M44.2557 53.6426C45.4888 53.6426 46.4907 54.6445 46.4907 55.8777C46.4907 57.1108 45.4888 58.1128 44.2557 58.1128C43.0225 58.1128 42.0206 57.1108 42.0206 55.8777C42.0128 54.6445 43.0148 53.6426 44.2557 53.6426Z" fill="#333333"/>
<path fill-rule="evenodd" clip-rule="evenodd" d="M52.3015 53.6426C53.5347 53.6426 54.5366 54.6445 54.5366 55.8777C54.5366 57.1108 53.5347 58.1128 52.3015 58.1128C51.0683 58.1128 50.0664 57.1108 50.0664 55.8777C50.0664 54.6445 51.0683 53.6426 52.3015 53.6426Z" fill="#333333"/>
<path fill-rule="evenodd" clip-rule="evenodd" d="M99.7217 85.7026C100.902 85.7026 101.858 86.6593 101.858 87.8394C101.858 89.0195 100.902 89.9762 99.7217 89.9762C98.5416 89.9762 97.585 89.0195 97.585 87.8394C97.585 86.6593 98.5416 85.7026 99.7217 85.7026Z" fill="url(#paint1_linear)"/>
<path fill-rule="evenodd" clip-rule="evenodd" d="M107.679 85.7026C108.859 85.7026 109.815 86.6593 109.815 87.8394C109.815 89.0195 108.859 89.9762 107.679 89.9762C106.499 89.9762 105.542 89.0195 105.542 87.8394C105.551 86.6593 106.508 85.7026 107.679 85.7026Z" fill="url(#paint2_linear)"/>
<path fill-rule="evenodd" clip-rule="evenodd" d="M115.645 85.7026C116.825 85.7026 117.781 86.6593 117.781 87.8394C117.781 89.0195 116.825 89.9762 115.645 89.9762C114.464 89.9762 113.508 89.0195 113.508 87.8394C113.508 86.6593 114.464 85.7026 115.645 85.7026Z" fill="url(#paint3_linear)"/>
<path fill-rule="evenodd" clip-rule="evenodd" d="M123.602 85.7026C124.782 85.7026 125.738 86.6593 125.738 87.8394C125.738 89.0195 124.782 89.9762 123.602 89.9762C122.421 89.9762 121.465 89.0195 121.465 87.8394C121.474 86.6593 122.421 85.7026 123.602 85.7026Z" fill="url(#paint4_linear)"/>
<defs>
<linearGradient id="paint0_linear" x1="74.963" y1="14.9394" x2="104.859" y2="47.8687" gradientUnits="userSpaceOnUse">
<stop stop-color="#FFC671"/>
<stop offset="1" stop-color="#FF6F3D"/>
</linearGradient>
<linearGradient id="paint1_linear" x1="97.5235" y1="85.4156" x2="100.052" y2="88.2011" gradientUnits="userSpaceOnUse">
<stop stop-color="#FFC671"/>
<stop offset="1" stop-color="#FF6F3D"/>
</linearGradient>
<linearGradient id="paint2_linear" x1="105.484" y1="85.4156" x2="108.013" y2="88.2011" gradientUnits="userSpaceOnUse">
<stop stop-color="#FFC671"/>
<stop offset="1" stop-color="#FF6F3D"/>
</linearGradient>
<linearGradient id="paint3_linear" x1="113.444" y1="85.4156" x2="115.973" y2="88.2011" gradientUnits="userSpaceOnUse">
<stop stop-color="#FFC671"/>
<stop offset="1" stop-color="#FF6F3D"/>
</linearGradient>
<linearGradient id="paint4_linear" x1="121.405" y1="85.4156" x2="123.934" y2="88.2011" gradientUnits="userSpaceOnUse">
<stop stop-color="#FFC671"/>
<stop offset="1" stop-color="#FF6F3D"/>
</linearGradient>
</defs>
</svg>
