<svg width="135" height="135" viewBox="0 0 135 135" fill="none" xmlns="http://www.w3.org/2000/svg">
<rect width="135" height="135" fill="white"/>
<g clip-path="url(#clip0)">
<path d="M70.3972 96.8877H43.9071V104.338H70.3972V96.8877Z" fill="#9ADAF3"/>
<path d="M10.9939 17.7451V17.7625C7.85048 17.9359 5.32764 20.5417 5.32764 23.7109V80.3312V80.8312H5.82764H82.7957H108.477H108.977V80.3312V31.1224V23.7027C108.977 20.4221 106.273 17.7451 102.977 17.7451H39.4347H35.7126H11.4939H10.9939Z" fill="#FEFEFE" stroke="#333333"/>
<path d="M108.977 80.3311V79.8311H108.477H5.82764H5.32764V80.3311V91.3769C5.32764 94.6821 8.02648 97.3873 11.3277 97.3873H43.5473H70.7321H102.977C106.278 97.3873 108.977 94.6821 108.977 91.3769V80.3311Z" fill="#BDECFF" stroke="#333333"/>
<path d="M122.562 43.4072H92.7353C89.2833 43.4072 86.4535 46.2312 86.4535 49.6862V110.984C86.4535 114.431 89.2751 117.255 92.7353 117.255H122.562C126.013 117.255 128.844 114.44 128.844 110.984V49.6779C128.844 46.2312 126.023 43.4072 122.562 43.4072Z" fill="white" stroke="#333333"/>
<path d="M43.7373 104.838H70.9188H76.792C78.4359 104.838 79.8309 106.269 79.8309 108.063C79.8309 109.858 78.4435 111.288 76.792 111.288H36.6844C35.0398 111.288 33.6455 109.866 33.6455 108.063C33.6455 106.268 35.0329 104.838 36.6844 104.838H43.7373Z" fill="#BDECFF" stroke="#333333"/>
<path d="M56.7383 86.626C58.0654 86.626 59.1356 87.7025 59.1356 89.0233C59.1356 90.3432 58.0581 91.4207 56.7383 91.4207C55.4112 91.4207 54.3409 90.3441 54.3409 89.0233C54.3409 87.7025 55.4112 86.626 56.7383 86.626Z" fill="#9ADAF3" stroke="#333333"/>
<path d="M43.9072 96.8877H43.0793V104.338H43.9072V96.8877Z" fill="#333333"/>
<path d="M71.225 96.8877H70.3972V104.338H71.225V96.8877Z" fill="#333333"/>
<path d="M128.844 103.51V103.01H128.344H86.9535H86.4535V103.51V111.185C86.4535 114.547 89.3011 117.255 92.7353 117.255H122.562C126.006 117.255 128.844 114.538 128.844 111.185V103.51Z" fill="#BDECFF" stroke="#333333"/>
<path d="M108.063 108.149C109.39 108.149 110.46 109.225 110.46 110.546C110.46 111.866 109.383 112.944 108.063 112.944C106.736 112.944 105.665 111.867 105.665 110.546C105.665 109.225 106.736 108.149 108.063 108.149Z" fill="#9ADAF3" stroke="#333333"/>
<path d="M19.0727 36.957H64.6025C65.4407 36.957 66.5634 37.4753 67.494 38.3932C68.4145 39.3011 69.0694 40.5251 69.0694 41.8378C69.0694 43.1505 68.4145 44.3746 67.494 45.2825C66.5634 46.2003 65.4407 46.7186 64.6025 46.7186H19.0727C16.8868 46.7186 14.6058 44.5443 14.6058 41.8378C14.6058 39.1314 16.8868 36.957 19.0727 36.957Z" fill="#EFEFEF" stroke="#333333"/>
<path d="M19.0727 51.8579H64.6025C65.4407 51.8579 66.5634 52.3762 67.494 53.294C68.4145 54.202 69.0694 55.426 69.0694 56.7387C69.0694 58.0514 68.4145 59.2755 67.494 60.1834C66.5634 61.1012 65.4407 61.6195 64.6025 61.6195H19.0727C16.8868 61.6195 14.6058 59.4451 14.6058 56.7387C14.6058 54.0323 16.8868 51.8579 19.0727 51.8579Z" fill="#EFEFEF" stroke="#333333"/>
<path d="M117.768 81.4868H99.1849C96.3003 81.4868 93.9038 83.741 93.9038 86.5359C93.9038 89.3464 96.3003 91.5928 99.1849 91.5928H117.768C120.654 91.5928 123.049 89.3381 123.049 86.5359C123.049 83.7327 120.652 81.4868 117.768 81.4868Z" fill="#FEFEFE" stroke="#333333"/>
<path d="M97.5694 76.4556L98.0131 77.3116L98.4571 76.4557C99.414 74.6115 101.145 73.3873 103.349 71.9689C103.542 71.8449 103.738 71.7197 103.937 71.5926C105.986 70.2823 108.337 68.779 110.577 66.4825C115.521 61.4144 119.846 52.5788 119.846 33.5599V32.9922L119.283 33.0639C118.456 33.1693 114.734 33.3242 110.443 32.6805C106.139 32.0349 101.378 30.6018 98.3652 27.617L98.0133 27.2683L97.6614 27.617C94.6487 30.6018 89.8873 32.0349 85.584 32.6805C81.2931 33.3242 77.571 33.1693 76.7437 33.0639L76.1805 32.9922V33.5599C76.1805 52.5788 80.5054 61.4124 85.4493 66.4795C87.6881 68.7739 90.0377 70.2766 92.086 71.5865C92.2861 71.7145 92.4833 71.8406 92.6773 71.9654C94.8813 73.3841 96.6125 74.6093 97.5694 76.4556Z" fill="url(#paint0_linear)" stroke="#333333"/>
<path d="M100.689 59.4986L100.158 59.0722L100.699 58.6145L100.876 58.4648V58.233V56.6496V56.406L100.684 56.2558L99.8833 55.6294L100.703 54.9185L100.876 54.769V54.5408V50.7893C103.201 49.8481 104.838 47.5335 104.838 44.8422C104.838 41.3146 102.031 38.4404 98.5464 38.4404C95.2327 38.4404 92.5248 41.0463 92.2711 44.333C92.2559 44.5043 92.2482 44.6693 92.2482 44.8422C92.2482 47.5396 93.8835 49.8544 96.2091 50.7961L96.2031 52.7722L96.2031 52.7725L96.1749 63.7736L96.1725 64.6826L96.9415 64.1978L99.4416 62.6216L99.5562 62.5494L99.6186 62.4292L100.819 60.1189L101.008 59.7553L100.689 59.4986ZM100.172 42.5894C100.172 43.5242 99.4337 44.263 98.5393 44.263C97.6449 44.263 96.9065 43.5242 96.9065 42.5894C96.9065 41.6552 97.6441 40.9167 98.5378 40.9159C99.4356 40.9222 100.172 41.6641 100.172 42.5894Z" fill="white" stroke="#333333"/>
<path fill-rule="evenodd" clip-rule="evenodd" d="M31.9038 54.6689C33.0456 54.6689 33.9733 55.5967 33.9733 56.7385C33.9733 57.8803 33.0456 58.808 31.9038 58.808C30.762 58.808 29.8342 57.8803 29.8342 56.7385C29.8342 55.5967 30.762 54.6689 31.9038 54.6689Z" fill="#333333"/>
<path fill-rule="evenodd" clip-rule="evenodd" d="M38.5263 54.6689C39.6681 54.6689 40.5959 55.5967 40.5959 56.7385C40.5959 57.8803 39.6681 58.808 38.5263 58.808C37.3845 58.808 36.4568 57.8803 36.4568 56.7385C36.4568 55.5967 37.3845 54.6689 38.5263 54.6689Z" fill="#333333"/>
<path fill-rule="evenodd" clip-rule="evenodd" d="M45.1489 54.6689C46.2907 54.6689 47.2185 55.5967 47.2185 56.7385C47.2185 57.8803 46.2907 58.808 45.1489 58.808C44.0071 58.808 43.0794 57.8803 43.0794 56.7385C43.0723 55.5967 44 54.6689 45.1489 54.6689Z" fill="#333333"/>
<path fill-rule="evenodd" clip-rule="evenodd" d="M51.7713 54.6689C52.9131 54.6689 53.8409 55.5967 53.8409 56.7385C53.8409 57.8803 52.9131 58.808 51.7713 58.808C50.6295 58.808 49.7018 57.8803 49.7018 56.7385C49.7018 55.5967 50.6295 54.6689 51.7713 54.6689Z" fill="#333333"/>
<path fill-rule="evenodd" clip-rule="evenodd" d="M99.7846 84.4702C100.928 84.4702 101.854 85.3967 101.854 86.5398C101.854 87.6828 100.928 88.6093 99.7846 88.6093C98.6416 88.6093 97.7151 87.6828 97.7151 86.5398C97.7151 85.3967 98.6416 84.4702 99.7846 84.4702Z" fill="url(#paint1_linear)"/>
<path fill-rule="evenodd" clip-rule="evenodd" d="M105.579 84.4702C106.722 84.4702 107.649 85.3967 107.649 86.5398C107.649 87.6828 106.722 88.6093 105.579 88.6093C104.436 88.6093 103.51 87.6828 103.51 86.5398C103.518 85.3967 104.445 84.4702 105.579 84.4702Z" fill="url(#paint2_linear)"/>
<path fill-rule="evenodd" clip-rule="evenodd" d="M111.374 84.4702C112.517 84.4702 113.444 85.3967 113.444 86.5398C113.444 87.6828 112.517 88.6093 111.374 88.6093C110.231 88.6093 109.304 87.6828 109.304 86.5398C109.304 85.3967 110.231 84.4702 111.374 84.4702Z" fill="url(#paint3_linear)"/>
<path fill-rule="evenodd" clip-rule="evenodd" d="M117.169 84.4702C118.312 84.4702 119.238 85.3967 119.238 86.5398C119.238 87.6828 118.312 88.6093 117.169 88.6093C116.026 88.6093 115.099 87.6828 115.099 86.5398C115.108 85.3967 116.026 84.4702 117.169 84.4702Z" fill="url(#paint4_linear)"/>
</g>
<defs>
<linearGradient id="paint0_linear" x1="76.6806" y1="26.0873" x2="124.796" y2="70.2932" gradientUnits="userSpaceOnUse">
<stop stop-color="#FFC671"/>
<stop offset="0.59375" stop-color="#FF7541"/>
<stop offset="1" stop-color="#FF6F3D"/>
</linearGradient>
<linearGradient id="paint1_linear" x1="97.7151" y1="84.3085" x2="101.854" y2="88.6093" gradientUnits="userSpaceOnUse">
<stop stop-color="#FF8E3D"/>
<stop offset="1" stop-color="#FF6F3D"/>
</linearGradient>
<linearGradient id="paint2_linear" x1="103.51" y1="84.3085" x2="107.649" y2="88.6093" gradientUnits="userSpaceOnUse">
<stop stop-color="#FF8E3D"/>
<stop offset="1" stop-color="#FF6F3D"/>
</linearGradient>
<linearGradient id="paint3_linear" x1="109.304" y1="84.3085" x2="113.444" y2="88.6093" gradientUnits="userSpaceOnUse">
<stop stop-color="#FF8E3D"/>
<stop offset="1" stop-color="#FF6F3D"/>
</linearGradient>
<linearGradient id="paint4_linear" x1="115.099" y1="84.3085" x2="119.238" y2="88.6093" gradientUnits="userSpaceOnUse">
<stop stop-color="#FF8E3D"/>
<stop offset="1" stop-color="#FF6F3D"/>
</linearGradient>
<clipPath id="clip0">
<rect width="125" height="125" fill="white" transform="translate(5 5)"/>
</clipPath>
</defs>
</svg>
