<svg width="135" height="135" viewBox="0 0 135 135" fill="none" xmlns="http://www.w3.org/2000/svg">
<path fill-rule="evenodd" clip-rule="evenodd" d="M51.9525 21.3303C52.0463 21.59 51.9119 21.8766 51.6521 21.9704C39.1147 26.4997 29.0147 36.2425 23.9628 48.5776C23.8582 48.8331 23.5662 48.9554 23.3106 48.8508C23.0551 48.7461 22.9328 48.4541 23.0374 48.1986C28.1955 35.6041 38.5069 25.656 51.3124 21.0299C51.5721 20.9361 51.8587 21.0705 51.9525 21.3303ZM83.0477 21.3303C83.1416 21.0705 83.4282 20.9361 83.6879 21.0299C96.4933 25.656 106.805 35.6041 111.963 48.1986C112.067 48.4541 111.945 48.7461 111.69 48.8508C111.434 48.9554 111.142 48.8331 111.037 48.5776C105.986 36.2425 95.8856 26.4997 83.3481 21.9704C83.0884 21.8766 82.9539 21.59 83.0477 21.3303ZM25.671 89.2059C25.9126 89.0721 26.2169 89.1596 26.3506 89.4012C31.865 99.3618 40.8549 107.129 51.6521 111.03C51.9119 111.124 52.0463 111.41 51.9525 111.67C51.8587 111.93 51.5721 112.064 51.3124 111.97C40.2837 107.986 31.1055 100.055 25.4758 89.8855C25.342 89.6439 25.4294 89.3396 25.671 89.2059ZM109.326 89.2059C109.568 89.3397 109.655 89.644 109.522 89.8856C103.891 100.053 94.7122 107.983 83.688 111.968C83.4283 112.062 83.1417 111.928 83.0478 111.668C82.9539 111.408 83.0883 111.122 83.348 111.028C94.141 107.127 103.131 99.3601 108.647 89.4011C108.781 89.1595 109.085 89.0721 109.326 89.2059Z" fill="#333333"/>
<path fill-rule="evenodd" clip-rule="evenodd" d="M71.4326 27.2403C71.5174 27.1336 71.5269 27.0802 71.5269 26.8133V21C70.3511 21.625 69.2727 21.625 67.9995 21.625C66.7262 21.625 65.5284 21.5249 64.472 21L64.472 26.8133C64.472 27.0802 64.472 27.1336 64.5569 27.2403C65.4752 28.4096 66.5455 29.4503 67.4619 30.6207C67.6788 30.8965 67.8297 31.0299 67.9995 30.9943C68.1692 31.0299 68.3201 30.8965 68.5371 30.6207C69.4565 29.4554 70.5156 28.4079 71.4326 27.2403Z" fill="white"/>
<path fill-rule="evenodd" clip-rule="evenodd" d="M71.5269 26.8136C71.5269 27.0805 71.5175 27.1338 71.4326 27.2406C70.9699 27.8297 70.4711 28.3883 69.9722 28.9469C69.4824 29.4953 68.9926 30.0437 68.5371 30.621C68.3202 30.8968 68.1693 31.0302 67.9995 30.9946C67.8298 31.0302 67.6789 30.8968 67.4619 30.621C67.0012 30.0325 66.5016 29.4769 66.0019 28.9212C65.5078 28.3716 65.0136 27.822 64.557 27.2406C64.4721 27.1338 64.4721 27.0805 64.4721 26.8136V21.0003C64.7954 21.1609 65.132 21.2818 65.4799 21.3722C66.2688 21.5771 67.116 21.6253 67.9995 21.6253C68.9027 21.6253 69.7078 21.6253 70.5191 21.4022C70.8516 21.3108 71.1852 21.182 71.5269 21.0003V26.8136ZM63.7635 27.8572C63.6502 27.714 63.5369 27.5249 63.49 27.2598C63.4632 27.1081 63.4638 26.9392 63.4642 26.8417C63.4642 26.8315 63.4643 26.8221 63.4643 26.8136V19.3811L64.9234 20.1061C65.7587 20.5212 66.7563 20.6253 67.9995 20.6253C69.2922 20.6253 70.1262 20.6104 71.051 20.1188L72.5348 19.3301V26.8136C72.5348 26.818 72.5348 26.8226 72.5348 26.8272C72.5349 26.9381 72.535 27.1212 72.4971 27.2967C72.4405 27.5586 72.3215 27.7368 72.2257 27.8576C71.7451 28.4695 71.2306 29.0456 70.7401 29.5949L70.7366 29.5988C70.2399 30.1549 69.7675 30.6839 69.3311 31.2369C69.2174 31.3814 69.055 31.5776 68.8513 31.7275C68.6527 31.8738 68.3587 32.0154 67.9995 31.9995C67.6403 32.0154 67.3463 31.8738 67.1477 31.7275C66.9438 31.5774 66.7812 31.3809 66.6674 31.2363L66.666 31.2345C66.2323 30.6805 65.7586 30.1527 65.2581 29.5961L65.24 29.5759C64.753 29.0343 64.2405 28.4643 63.7635 27.8572Z" fill="#333333"/>
<ellipse cx="67.9932" cy="12.6515" rx="9.72713" ry="9.65153" fill="white" stroke="#333333"/>
<path fill-rule="evenodd" clip-rule="evenodd" d="M68.3794 7.3335C70.2379 10.4928 74.6187 14.1485 77.672 13.7127C78.3146 8.12681 73.6442 3 67.9932 3C62.1598 3 57.7645 8.22273 58.3264 13.858C61.259 13.8217 66.0622 11.8486 68.3794 7.3335Z" fill="#AAAAAA" stroke="#333333"/>
<path fill-rule="evenodd" clip-rule="evenodd" d="M72.5347 26.7892L68.6646 31.1182C68.4031 31.4974 68.2212 31.6632 68.0165 31.6159C67.8118 31.6632 67.6299 31.4855 67.3683 31.1182C66.2767 29.5897 64.499 28.2111 63.4642 26.7892V25C59.7344 25.6872 56.8044 27.2791 54.3937 29.2934C57.6345 33.3932 62.5355 36 68.0279 36C73.4861 36 78.3644 33.4169 81.6052 29.3645C79.2058 27.3384 76.2645 25.7109 72.5347 25V26.7892Z" fill="#BDECFF"/>
<path fill-rule="evenodd" clip-rule="evenodd" d="M68.6647 31.1186L72.5347 26.7896V25.0004C72.8773 25.0657 73.2131 25.1387 73.5426 25.2191C76.8002 26.0136 79.4262 27.5249 81.6052 29.365C78.3644 33.4173 73.4861 36.0004 68.0279 36.0004C62.5356 36.0004 57.6345 33.3937 54.3937 29.2939C56.583 27.4646 59.2005 25.9837 62.4564 25.2123C62.7857 25.1343 63.1216 25.0636 63.4642 25.0004V26.7896C63.9659 27.4789 64.6421 28.1581 65.3302 28.8491C66.0614 29.5834 66.8059 30.3311 67.3684 31.1186C67.6299 31.4859 67.8119 31.6637 68.0165 31.6163C68.2212 31.6637 68.4032 31.4978 68.6647 31.1186ZM64.4721 26.4545V23.7976L63.2802 24.0172C59.3561 24.7403 56.2697 26.419 53.7445 28.529L53 29.1511L53.6007 29.911C57.0177 34.2336 62.2026 37.0004 68.0279 37.0004C73.8177 37.0004 78.9781 34.2587 82.3947 29.9866L83 29.2297L82.2584 28.6034C79.7466 26.4823 76.6498 24.7665 72.7249 24.0184L71.5269 23.79V26.41L68.0298 30.3219C67.4546 29.5626 66.7513 28.8536 66.112 28.2114L66.0796 28.1789C65.4602 27.5567 64.9054 26.9995 64.4721 26.4545Z" fill="#333333"/>
<path d="M70.1118 122.79L70.1137 122.788L70.3 122.549C70.3684 122.462 70.4392 122.353 70.4737 122.192C70.4997 122.07 70.5 121.935 70.5 121.813V121V116V115.165L69.7639 115.559C68.7218 116.118 67.773 116.125 66.5 116.125C65.2516 116.125 64.1624 116.023 63.2239 115.553L62.5 115.19V116V121.03V121.813C62.5 121.822 62.5 121.831 62.5 121.84C62.4998 121.946 62.4997 122.068 62.518 122.173C62.5466 122.336 62.6134 122.451 62.6906 122.549L62.877 122.788L62.877 122.788L62.8789 122.79C63.291 123.313 63.7283 123.798 64.1603 124.278C64.1823 124.303 64.2043 124.327 64.2262 124.352C64.6829 124.859 65.1349 125.365 65.5717 125.927L65.5724 125.928C65.6827 126.07 65.809 126.219 65.9528 126.326C66.0915 126.429 66.2782 126.514 66.5 126.498C66.7218 126.514 66.9085 126.429 67.0472 126.326C67.1909 126.219 67.3172 126.07 67.4273 125.929C67.8652 125.369 68.3158 124.863 68.7703 124.354C68.7861 124.336 68.802 124.318 68.8178 124.3C69.2539 123.812 69.6946 123.319 70.1118 122.79Z" fill="white" stroke="#333333"/>
<circle cx="66.4938" cy="107.652" r="9.65153" fill="white" stroke="#333333"/>
<path fill-rule="evenodd" clip-rule="evenodd" d="M66.877 102.333C68.721 105.493 73.0678 109.148 76.0974 108.713C76.735 103.127 72.1009 98 66.4938 98C60.7057 98 56.3446 103.223 56.9021 108.858C59.8119 108.822 64.5778 106.849 66.877 102.333Z" fill="#AAAAAA" stroke="#333333"/>
<path d="M66.786 125.786L66.7652 125.81L66.7474 125.836C66.6875 125.923 66.6372 125.991 66.594 126.043C66.5711 126.071 66.5521 126.091 66.5368 126.107L66.5169 126.102L66.5012 126.106C66.4845 126.089 66.4637 126.067 66.4385 126.037C66.3942 125.984 66.343 125.916 66.2822 125.83L66.2818 125.829C65.7126 125.026 64.9712 124.271 64.2715 123.562C64.2549 123.546 64.2383 123.529 64.2218 123.512C63.5723 122.855 62.9643 122.239 62.5 121.625V120V119.399L61.9087 119.508C58.1115 120.214 55.1267 121.849 52.6779 123.911L52.3086 124.222L52.6066 124.602C55.9096 128.813 60.9134 131.5 66.5282 131.5C72.1085 131.5 77.0889 128.838 80.3917 124.675L80.692 124.297L80.3241 123.984C77.8876 121.91 74.8919 120.239 71.0943 119.509L70.5 119.395V120V121.599L66.786 125.786Z" fill="#BDECFF" stroke="#333333"/>
<path d="M123.112 74.7902L123.114 74.7878L123.3 74.5487C123.368 74.4618 123.439 74.3527 123.474 74.1916C123.5 74.0702 123.5 73.9346 123.5 73.8133V73.0001V68V67.1649L122.764 67.5593C121.722 68.1176 120.773 68.125 119.5 68.125C118.252 68.125 117.162 68.0229 116.224 67.5529L115.5 67.1904V68V73.0305V73.8133C115.5 73.8222 115.5 73.8312 115.5 73.8403C115.5 73.9463 115.5 74.0684 115.518 74.1732C115.547 74.3359 115.613 74.4505 115.691 74.5487L115.877 74.7878L115.877 74.7878L115.879 74.7902C116.291 75.3126 116.728 75.7984 117.16 76.2784C117.182 76.3028 117.204 76.3273 117.226 76.3517C117.683 76.8593 118.135 77.3652 118.572 77.9275L118.572 77.9284C118.683 78.0696 118.809 78.219 118.953 78.3258C119.091 78.4287 119.278 78.5144 119.5 78.4982C119.722 78.5144 119.909 78.4287 120.047 78.3258C120.191 78.2191 120.317 78.0698 120.427 77.9287C120.865 77.3694 121.316 76.8625 121.77 76.3537C121.786 76.3359 121.802 76.3182 121.818 76.3005C122.254 75.8123 122.695 75.319 123.112 74.7902Z" fill="white" stroke="#333333"/>
<circle cx="119.493" cy="59.6515" r="9.65153" fill="white" stroke="#333333"/>
<path fill-rule="evenodd" clip-rule="evenodd" d="M119.877 54.3335C121.721 57.4928 126.067 61.1485 129.097 60.7127C129.735 55.1268 125.1 50 119.493 50C113.705 50 109.344 55.2227 109.902 60.858C112.812 60.8217 117.577 58.8486 119.877 54.3335Z" fill="#AAAAAA" stroke="#333333"/>
<path d="M119.786 77.7864L119.765 77.8099L119.747 77.8358C119.688 77.9233 119.637 77.9911 119.594 78.0431C119.571 78.0707 119.552 78.0915 119.537 78.107L119.517 78.1024L119.501 78.1061C119.485 78.0893 119.464 78.0666 119.439 78.0366C119.394 77.9836 119.343 77.9158 119.282 77.8297L119.282 77.8291C118.713 77.026 117.971 76.2708 117.271 75.5623C117.255 75.5456 117.238 75.5288 117.222 75.5121C116.572 74.8546 115.964 74.2392 115.5 73.6246V72V71.3986L114.909 71.5084C111.112 72.2136 108.127 73.8488 105.678 75.911L105.309 76.2221L105.607 76.602C108.91 80.8132 113.913 83.5 119.528 83.5C125.109 83.5 130.089 80.8376 133.392 76.6753L133.692 76.2969L133.324 75.9838C130.888 73.9101 127.892 72.2385 124.094 71.509L123.5 71.3948V72V73.5994L119.786 77.7864Z" fill="url(#paint0_linear_125_3244)" stroke="#333333"/>
<path d="M19.6372 74.7893L19.6353 74.7917C19.2149 75.3204 18.7707 75.8137 18.3312 76.3019C18.3153 76.3196 18.2993 76.3374 18.2833 76.3551C17.8253 76.864 17.3711 77.3709 16.9298 77.9301L19.6372 74.7893ZM19.6372 74.7893L19.8249 74.5502C19.8938 74.4635 19.9654 74.3541 20.0003 74.1924C20.0266 74.0705 20.0269 73.9345 20.0269 73.8133V73.0001V68V67.168L19.2922 67.5585C18.2403 68.1176 17.2824 68.125 15.9995 68.125C14.7409 68.125 13.6418 68.0229 12.6945 67.5522L11.972 67.1933V68V73.0305L11.972 73.8133C11.972 73.8222 11.972 73.8312 11.972 73.8404C11.9719 73.9462 11.9717 74.0687 11.9903 74.1739C12.0192 74.3373 12.0868 74.4522 12.1645 74.5502L12.3523 74.7893L12.3523 74.7893L12.3542 74.7917C12.7696 75.314 13.2102 75.7999 13.6456 76.2799C13.6678 76.3043 13.69 76.3287 13.7121 76.3531C14.1724 76.8607 14.6279 77.3667 15.0682 77.929L15.0689 77.9299C15.1801 78.0712 15.3072 78.2204 15.4518 78.3269C15.5913 78.4296 15.778 78.5144 15.9995 78.4982L19.6372 74.7893Z" fill="white" stroke="#333333"/>
<ellipse cx="15.9928" cy="59.6515" rx="9.72713" ry="9.65153" fill="white" stroke="#333333"/>
<path fill-rule="evenodd" clip-rule="evenodd" d="M16.3789 54.3335C18.2375 57.4928 22.6183 61.1485 25.6716 60.7127C26.3142 55.1268 21.6438 50 15.9927 50C10.1594 50 5.76411 55.2227 6.32595 60.858C9.25857 60.8217 14.0618 58.8486 16.3789 54.3335Z" fill="#AAAAAA" stroke="#333333"/>
<path fill-rule="evenodd" clip-rule="evenodd" d="M20.5347 73.7892L16.6646 78.1182C16.4031 78.4974 16.2212 78.6632 16.0165 78.6159C15.8118 78.6632 15.6299 78.4855 15.3683 78.1182C14.2767 76.5897 12.499 75.2111 11.4642 73.7892V72C7.73439 72.6872 4.80439 74.2791 2.39368 76.2934C5.63449 80.3932 10.5355 83 16.0279 83C21.4861 83 26.3644 80.4169 29.6052 76.3645C27.2058 74.3384 24.2645 72.7109 20.5347 72V73.7892Z" fill="url(#paint1_linear_125_3244)"/>
<path fill-rule="evenodd" clip-rule="evenodd" d="M16.6647 78.1186L20.5347 73.7896V72.0004C20.8773 72.0657 21.2131 72.1387 21.5426 72.2191C24.8002 73.0136 27.4262 74.5249 29.6052 76.365C26.3644 80.4173 21.4861 83.0004 16.0279 83.0004C10.5356 83.0004 5.63454 80.3937 2.39373 76.2939C4.58299 74.4646 7.20052 72.9837 10.4564 72.2123C10.7857 72.1343 11.1216 72.0636 11.4642 72.0004V73.7896C11.9659 74.4789 12.6421 75.1581 13.3302 75.8491C14.0614 76.5834 14.8059 77.3311 15.3684 78.1186C15.6299 78.4859 15.8119 78.6637 16.0165 78.6163C16.2212 78.6637 16.4032 78.4978 16.6647 78.1186ZM12.4721 73.4545V70.7976L11.2802 71.0172C7.3561 71.7403 4.26968 73.419 1.74454 75.529L1 76.1511L1.60072 76.911C5.01767 81.2336 10.2026 84.0004 16.0279 84.0004C21.8177 84.0004 26.9781 81.2587 30.3947 76.9866L31 76.2297L30.2584 75.6034C27.7466 73.4823 24.6498 71.7665 20.7249 71.0184L19.5269 70.79V73.41L16.0298 77.3219C15.4546 76.5626 14.7513 75.8536 14.112 75.2114L14.0796 75.1789C13.4602 74.5567 12.9054 73.9995 12.4721 73.4545Z" fill="#333333"/>
<path fill-rule="evenodd" clip-rule="evenodd" d="M48.0972 53.6981L53.7235 48.0695C54.194 47.5988 54.9193 47.5203 55.478 47.8832L57.311 49.0599C58.1049 49.5698 59.0949 49.609 59.9673 49.2462C60.8396 48.8834 61.516 48.1577 61.712 47.236L62.1727 45.1081C62.3099 44.4609 62.8882 44 63.5449 44H71.4943C72.151 44 72.7293 44.4609 72.8665 45.1081L73.3272 47.236C73.5233 48.1577 74.1996 48.8834 75.0719 49.2462C75.9443 49.609 76.9343 49.5698 77.7283 49.0599L79.5612 47.8832C80.1199 47.5301 80.8453 47.6086 81.3158 48.0695L86.9322 53.6981C87.3929 54.1688 87.4811 54.8944 87.1185 55.4534L85.9422 57.2871C85.4325 58.0814 85.3933 59.0718 85.756 59.9445C86.1187 60.8074 86.844 61.4938 87.7654 61.69L89.8924 62.1508C90.5393 62.2881 91 62.8569 91 63.5237V71.4763C91 72.1333 90.5393 72.7119 89.8924 72.8492L87.7654 73.31C86.844 73.5062 86.1187 74.1828 85.756 75.0555C85.3933 75.9282 85.4325 76.9186 85.9422 77.7129L87.1185 79.5466C87.4713 80.1056 87.3929 80.8312 86.9322 81.3019L81.3059 86.9305C80.8355 87.4012 80.1101 87.4797 79.5514 87.1168L77.7185 85.9401C76.9245 85.4302 75.9345 85.391 75.0622 85.7538C74.1898 86.1166 73.5135 86.8423 73.3174 87.764L72.8567 89.8919C72.7195 90.5391 72.1412 91 71.4845 91H63.5057C62.849 91 62.2707 90.5391 62.1335 89.8919L61.6728 87.764C61.4767 86.8423 60.8004 86.1166 59.9281 85.7538C59.0557 85.391 58.0657 85.4302 57.2717 85.9401L55.4388 87.1168C54.8801 87.4699 54.1547 87.3914 53.6843 86.9305L48.0678 81.3019C47.6071 80.8312 47.5287 80.1056 47.8815 79.5466L49.0578 77.7129C49.5675 76.9186 49.6067 75.9282 49.244 75.0555C48.8813 74.1926 48.156 73.5062 47.2346 73.31L45.1076 72.8492C44.4607 72.7119 44 72.1333 44 71.4763L44.0098 63.5237C44.0098 62.8667 44.4705 62.2881 45.1174 62.1508L47.2444 61.69C48.1658 61.4938 48.8911 60.8172 49.2538 59.9445C49.6165 59.0718 49.5773 58.0814 49.0676 57.2871L47.8913 55.4534C47.5581 54.8944 47.6365 54.1688 48.0972 53.6981ZM67.5049 59.0718C62.8588 59.0718 59.0851 62.8471 59.0851 67.4951C59.0851 72.1431 62.8588 75.9184 67.4951 75.9184C72.1412 75.9184 75.9149 72.1431 75.9247 67.4951C75.9247 62.8569 72.151 59.0718 67.5049 59.0718Z" fill="#BDECFF"/>
<path fill-rule="evenodd" clip-rule="evenodd" d="M54.9378 48.7247L54.9334 48.7218C54.7729 48.6176 54.5692 48.6379 54.4307 48.7764L48.8093 54.4002C48.6761 54.5388 48.6473 54.7582 48.7444 54.9311L49.9092 56.747V56.747C50.6169 57.85 50.6499 59.1908 50.1772 60.3282C49.7073 61.459 48.7414 62.3931 47.4542 62.6677L47.4526 62.6681L45.325 63.1291C45.1465 63.1669 45.0098 63.3323 45.0098 63.5237V63.5249L45 71.4763V71.4763C45.0002 71.6675 45.1369 71.8331 45.3152 71.8709L45.3194 71.8718L47.4428 72.332L47.4446 72.3323C48.7358 72.6078 49.698 73.5547 50.1659 74.6681L50.1675 74.6718C50.6401 75.8092 50.6072 77.1498 49.8995 78.2528V78.2528L48.7271 80.0805L48.7257 80.0827C48.6229 80.2478 48.6456 80.4604 48.78 80.6L48.7824 80.6024L54.3869 86.219C54.5263 86.353 54.7379 86.3754 54.9024 86.2728L54.9046 86.2715L56.7314 85.0987V85.0987C57.8342 84.3905 59.1747 84.3575 60.3121 84.8305C61.4426 85.3007 62.376 86.2669 62.6505 87.554L62.6509 87.556L63.1117 89.6845C63.1497 89.8637 63.3153 90 63.5057 90H71.4845C71.6749 90 71.8405 89.8637 71.8785 89.6845L71.8794 89.6803L72.3393 87.556L72.3397 87.554C72.6142 86.2669 73.5476 85.3007 74.6781 84.8305C75.8155 84.3575 77.1559 84.3904 78.2587 85.0986V85.0986L80.096 86.2781C80.2565 86.3824 80.4602 86.3621 80.5987 86.2236L86.2176 80.6024L86.2201 80.5998C86.3544 80.4602 86.3771 80.2479 86.2744 80.0828L86.2729 80.0805L85.1006 78.253V78.253C84.3929 77.15 84.3599 75.8092 84.8326 74.6718C85.3025 73.541 86.2684 72.6069 87.5556 72.3323L87.5572 72.332L89.6848 71.8709C89.8633 71.8331 90 71.6677 90 71.4763V63.5237C90 63.3267 89.8674 63.1678 89.6848 63.1291L89.6806 63.1282L87.5572 62.6681L87.5556 62.6677C86.2643 62.3922 85.302 61.4453 84.8341 60.332L84.8326 60.3282C84.3599 59.1908 84.3928 57.8502 85.1005 56.7472V56.7472L86.2796 54.9091C86.3772 54.7587 86.3638 54.5492 86.22 54.4001L86.2176 54.3976L80.6131 48.7811C80.4737 48.647 80.2621 48.6246 80.0976 48.7272L80.0954 48.7286L78.2687 49.9013C77.1658 50.6096 75.8253 50.6426 74.6879 50.1695C73.5574 49.6993 72.624 48.7331 72.3495 47.446L72.3491 47.444L71.8883 45.3155C71.8503 45.1363 71.6847 45 71.4943 45H63.5449C63.3545 45 63.1889 45.1363 63.1509 45.3155L63.15 45.3197L62.6901 47.444L62.6897 47.446C62.4152 48.7331 61.4818 49.6993 60.3513 50.1695C59.214 50.6425 57.8735 50.6096 56.7707 49.9014V49.9014L54.9378 48.7247ZM57.311 49.0599L55.478 47.8832C54.9193 47.5203 54.194 47.5988 53.7235 48.0695L48.0972 53.6981C47.6365 54.1688 47.5581 54.8944 47.8913 55.4534L49.0676 57.2871C49.5773 58.0814 49.6165 59.0718 49.2538 59.9445C48.8911 60.8172 48.1658 61.4938 47.2444 61.69L45.1174 62.1508C44.4705 62.2881 44.0098 62.8667 44.0098 63.5237L44 71.4763C44 72.1333 44.4607 72.7119 45.1076 72.8492L47.2346 73.31C48.156 73.5062 48.8813 74.1926 49.244 75.0555C49.6067 75.9282 49.5675 76.9186 49.0578 77.7129L47.8815 79.5466C47.5287 80.1056 47.6071 80.8312 48.0678 81.3019L53.6843 86.9305C54.1547 87.3914 54.8801 87.4699 55.4388 87.1168L57.2717 85.9401C58.0657 85.4302 59.0557 85.391 59.9281 85.7538C60.8004 86.1166 61.4767 86.8423 61.6728 87.764L62.1335 89.8919C62.2707 90.5391 62.849 91 63.5057 91H71.4845C72.1412 91 72.7195 90.5391 72.8567 89.8919L73.3174 87.764C73.5135 86.8423 74.1898 86.1166 75.0622 85.7538C75.9345 85.391 76.9245 85.4302 77.7185 85.9401L79.5514 87.1168C80.1101 87.4797 80.8355 87.4012 81.3059 86.9305L86.9322 81.3019C87.3929 80.8312 87.4713 80.1056 87.1185 79.5466L85.9422 77.7129C85.4325 76.9186 85.3933 75.9282 85.756 75.0555C86.1187 74.1828 86.844 73.5062 87.7654 73.31L89.8924 72.8492C90.5393 72.7119 91 72.1333 91 71.4763V63.5237C91 62.8569 90.5393 62.2881 89.8924 62.1508L87.7654 61.69C86.844 61.4938 86.1187 60.8074 85.756 59.9445C85.3933 59.0718 85.4325 58.0814 85.9422 57.2871L87.1185 55.4534C87.4811 54.8944 87.3929 54.1688 86.9322 53.6981L81.3158 48.0695C80.8453 47.6086 80.1199 47.5301 79.5612 47.8832L77.7283 49.0599C76.9343 49.5698 75.9443 49.609 75.0719 49.2462C74.1996 48.8834 73.5233 48.1577 73.3272 47.236L72.8665 45.1081C72.7293 44.4609 72.151 44 71.4943 44H63.5449C62.8882 44 62.3099 44.4609 62.1727 45.1081L61.712 47.236C61.516 48.1577 60.8396 48.8834 59.9673 49.2462C59.0949 49.609 58.1049 49.5698 57.311 49.0599ZM76.9247 67.4951V67.4972C76.9137 72.6951 72.6943 76.9184 67.4951 76.9184C62.3054 76.9184 58.0851 72.6943 58.0851 67.4951C58.0851 62.2952 62.3061 58.0718 67.5049 58.0718C72.7044 58.0718 76.9247 62.3057 76.9247 67.4951ZM75.9247 67.4951C75.9149 72.1431 72.1412 75.9184 67.4951 75.9184C62.8588 75.9184 59.0851 72.1431 59.0851 67.4951C59.0851 62.8471 62.8588 59.0718 67.5049 59.0718C72.151 59.0718 75.9247 62.8569 75.9247 67.4951Z" fill="#333333"/>
<defs>
<linearGradient id="paint0_linear_125_3244" x1="106" y1="71.5703" x2="113.482" y2="90.6528" gradientUnits="userSpaceOnUse">
<stop stop-color="#FF8E3D"/>
<stop offset="1" stop-color="#FF6F3D"/>
</linearGradient>
<linearGradient id="paint1_linear_125_3244" x1="2.39373" y1="71.5703" x2="9.833" y2="90.6923" gradientUnits="userSpaceOnUse">
<stop stop-color="#FF8E3D"/>
<stop offset="1" stop-color="#FF6F3D"/>
</linearGradient>
</defs>
</svg>
