<svg width="135" height="135" viewBox="0 0 135 135" fill="none" xmlns="http://www.w3.org/2000/svg">
<path fill-rule="evenodd" clip-rule="evenodd" d="M122 5C122 2.79086 120.209 1 118 1H33.7388C33.4721 1 33.2164 1.10655 33.0286 1.29596L13.2898 21.2066C13.1042 21.3938 13 21.6469 13 21.9106V131C13 133.209 14.7909 135 17 135H118C120.209 135 122 133.209 122 131V5Z" fill="white"/>
<path fill-rule="evenodd" clip-rule="evenodd" d="M123 4.5C123 2.01472 119.985 0 117.5 0L34.0577 0C33.6588 0 33.2763 0.158914 32.9948 0.441599L12.4371 21.087C12.1572 21.3681 12 21.7486 12 22.1454L12 130.5C12 132.985 14.0147 135 16.5 135H117.5C119.985 135 123 132.985 123 130.5V75.993C123 75.7168 122.776 75.493 122.5 75.493C122.224 75.493 122 75.7168 122 75.993V130.5C122 132.433 119.433 134 117.5 134H16.5C14.567 134 13 132.433 13 130.5L13 22.1454C13 22.0131 13.0524 21.8863 13.1457 21.7926L33.7034 1.1472C33.7972 1.05297 33.9247 1 34.0577 1L117.5 1C119.433 1 122 2.567 122 4.5V17.25C122 17.5261 122.224 17.75 122.5 17.75C122.776 17.75 123 17.5261 123 17.25V4.5Z" fill="#333333"/>
<path d="M33.6464 0.646447C33.7894 0.503448 34.0045 0.46067 34.1913 0.53806C34.3782 0.615451 34.5 0.797769 34.5 1V19C34.5 20.933 32.933 22.5 31 22.5H13C12.7978 22.5 12.6155 22.3782 12.5381 22.1913C12.4607 22.0045 12.5034 21.7894 12.6464 21.6464L33.6464 0.646447Z" fill="url(#paint0_linear_125_3312)" stroke="#333333" stroke-linejoin="round"/>
<path fill-rule="evenodd" clip-rule="evenodd" d="M61 60.5C61 60.2239 60.7735 60 60.4941 60H31.5059C31.2265 60 31 60.2239 31 60.5C31 60.7761 31.2265 61 31.5059 61H60.4941C60.7735 61 61 60.7761 61 60.5Z" fill="#333333"/>
<path fill-rule="evenodd" clip-rule="evenodd" d="M40 32.502C40 32.7781 40.2255 33.002 40.5037 33.002H62.4963C62.7745 33.002 63 32.7781 63 32.502C63 32.2258 62.7745 32.002 62.4963 32.002H40.5037C40.2255 32.002 40 32.2258 40 32.502Z" fill="#333333"/>
<path fill-rule="evenodd" clip-rule="evenodd" d="M69 74.5C69 74.2239 68.7777 74 68.5034 74H31.4966C31.2223 74 31 74.2239 31 74.5C31 74.7761 31.2223 75 31.4966 75H68.5034C68.7777 75 69 74.7761 69 74.5Z" fill="#333333"/>
<path fill-rule="evenodd" clip-rule="evenodd" d="M63 46.5C63 46.2239 62.7716 46 62.4898 46H31.5102C31.2284 46 31 46.2239 31 46.5C31 46.7761 31.2284 47 31.5102 47H62.4898C62.7716 47 63 46.7761 63 46.5Z" fill="#333333"/>
<path fill-rule="evenodd" clip-rule="evenodd" d="M59 89.5C59 89.2239 58.7745 89 58.4963 89H31.5037C31.2255 89 31 89.2239 31 89.5C31 89.7761 31.2255 90 31.5037 90H58.4963C58.7745 90 59 89.7761 59 89.5Z" fill="#333333"/>
<path fill-rule="evenodd" clip-rule="evenodd" d="M71 117.498C71 117.222 70.7728 116.998 70.4925 116.998H31.5075C31.2272 116.998 31 117.222 31 117.498C31 117.774 31.2272 117.998 31.5075 117.998H70.4925C70.7728 117.998 71 117.774 71 117.498Z" fill="#333333"/>
<path fill-rule="evenodd" clip-rule="evenodd" d="M91.9985 103.5C91.9985 103.224 91.7725 103 91.4936 103H31.5035C31.2246 103 30.9985 103.224 30.9985 103.5C30.9985 103.776 31.2246 104 31.5035 104H91.4936C91.7725 104 91.9985 103.776 91.9985 103.5Z" fill="#333333"/>
<path fill-rule="evenodd" clip-rule="evenodd" d="M90 89.5C90 89.2239 89.7723 89 89.4913 89H68.5087C68.2277 89 68 89.2239 68 89.5C68 89.7761 68.2277 90 68.5087 90H89.4913C89.7723 90 90 89.7761 90 89.5Z" fill="#333333"/>
<path fill-rule="evenodd" clip-rule="evenodd" d="M77 17C77 16.4477 76.5523 16 76 16H51C50.4477 16 50 16.4477 50 17C50 17.5523 50.4477 18 51 18H76C76.5523 18 77 17.5523 77 17Z" fill="url(#paint1_linear_125_3312)"/>
<path d="M102 81.9659C119.897 81.9659 134.5 67.3628 134.5 49.4659C134.5 31.569 119.897 16.9659 102 16.9659C84.1032 16.9659 69.5 31.559 69.5 49.4659C69.5 67.3628 84.1031 81.9659 102 81.9659Z" fill="#EFEFEF" stroke="#333333"/>
<path fill-rule="evenodd" clip-rule="evenodd" d="M110.952 38.0694L130.304 44.4321C131.088 44.6855 131.104 45.6697 130.864 46.5002L123.998 67.0638C123.998 67.0638 123.02 68.066 122.401 67.9968L103.05 61.6341C102.265 61.3807 101.826 60.4939 102.065 59.6633L109.09 39.1111C109.343 38.2805 110.181 37.816 110.952 38.0694Z" fill="#B01B1B"/>
<path fill-rule="evenodd" clip-rule="evenodd" d="M110.139 37.1131L129.265 43.2419C129.266 43.2422 129.267 43.2425 129.268 43.2428C130.569 43.6541 131.285 45.0806 130.893 46.4089L130.891 46.4135L124.936 66.2104C124.936 66.2113 124.936 66.2122 124.936 66.213C124.537 67.556 123.154 68.2946 121.866 67.8894L121.861 67.8879L102.735 61.759C102.734 61.7587 102.733 61.7584 102.732 61.7581C101.431 61.3467 100.715 59.9202 101.107 58.592L101.109 58.5874L107.068 38.7755C107.48 37.456 108.85 36.7006 110.139 37.1131ZM123.994 65.914L129.95 46.1124C130.187 45.3122 129.753 44.4578 128.977 44.2137L109.847 38.0833C109.084 37.8392 108.256 38.2868 108.006 39.087L102.05 58.8885C101.813 59.6887 102.247 60.5431 103.023 60.7873L122.153 66.9176C122.929 67.1617 123.758 66.7142 123.994 65.914Z" fill="#333333"/>
<path fill-rule="evenodd" clip-rule="evenodd" d="M108.381 56.8949C108.499 56.5706 110.415 55.5241 110.681 55.4209C110.268 55.8778 108.986 56.8212 108.381 56.8949ZM120.158 55.9663C120.615 56.0547 121.19 56.2316 121.603 56.4232C121.971 56.6001 122.472 56.9096 122.502 57.2044C122.06 57.3813 120.394 56.2905 120.158 55.9663ZM113.496 54.4333C113.599 54.2565 113.982 53.9027 114.144 53.7258C114.793 53.0478 115.442 52.3845 116.031 51.6328C116.075 51.7065 116.193 52.2961 116.238 52.414C116.311 52.6793 116.4 52.9004 116.488 53.151C116.65 53.6227 117.122 54.227 117.225 54.5365C116.591 54.4039 115.943 54.4039 115.324 54.4039L113.496 54.4333ZM117.122 48.4343C117.063 48.0069 117.476 46.6066 117.756 46.076C117.77 46.0465 117.77 46.0318 117.8 46.0023C117.844 45.9433 117.815 45.9728 117.859 45.9433C118.021 46.4739 117.947 46.6656 117.874 47.2846C117.829 47.5794 117.313 48.228 117.122 48.4343ZM109.929 57.396C110.887 56.8801 112.42 55.1703 112.98 55.1703C114.469 55.1703 116.208 55.2735 117.711 55.4946C118.124 55.5536 118.036 55.4946 118.272 55.7599C118.876 56.4527 119.937 57.2634 120.807 57.6761C121.219 57.8677 121.794 58.074 122.207 57.9856C122.62 57.9119 122.856 57.5581 123.018 57.0423C123.534 55.4062 119.981 55.0524 118.891 54.7281C118.581 54.6397 117.815 53.3279 117.829 53.1952C117.549 52.8857 117.122 51.1169 117.063 50.6158C117.004 50.0557 117.063 50.2031 117.328 49.6872C117.638 49.0976 118.065 48.2574 118.154 47.6089C118.168 47.4468 118.522 47.0635 118.625 46.695C118.787 46.1202 118.625 45.9581 118.581 45.737C118.389 45.5011 118.286 45.3832 117.888 45.2653C116.812 44.9852 116.473 45.7664 116.208 46.7687C115.987 47.6384 115.884 48.5964 115.869 49.4808C115.869 49.7461 115.928 50.0409 115.766 50.262C114.69 51.6476 113.805 52.5909 112.582 53.7553L111.432 54.7429C111.211 54.6102 111.005 54.625 110.71 54.6839C110.474 54.7281 110.297 54.7576 110.062 54.8313C109.354 55.0377 108.293 55.5093 107.747 55.981C106.613 56.9833 107.851 58.5015 109.929 57.396Z" fill="#FEFEFE"/>
<path fill-rule="evenodd" clip-rule="evenodd" d="M75.9943 48.4878L96.5086 39.7499C97.3549 39.3976 98.3281 39.8061 98.6788 40.6513L107.272 61.6381C107.622 62.4833 107.212 63.4568 106.365 63.8091L85.4178 72.4032C84.5715 72.7555 83.5983 72.347 83.2476 71.5018L74.6549 50.515C74.3156 49.6603 75.1595 48.8306 75.9943 48.4878Z" fill="#006B45"/>
<path fill-rule="evenodd" clip-rule="evenodd" d="M89.761 58.1405L93.6717 61.7113L96.7656 60.6519L90.794 56.0435L91.7698 48.3742L88.8197 49.8371L88.7324 55.4281L85.0245 51.7211L82.3516 53.0566L87.6809 57.3807L86.9178 63.9947L89.6081 63.0792L89.761 58.1405Z" fill="white"/>
<path fill-rule="evenodd" clip-rule="evenodd" d="M75.7323 48.5741L95.8557 39.7593L95.8585 39.7581C97.2242 39.1535 98.7784 39.7647 99.3377 41.089L99.3397 41.0936L107.593 60.9026L107.594 60.9052C108.159 62.2452 107.494 63.8118 106.144 64.4111L106.139 64.4133L86.0156 73.2282L86.0125 73.2295C84.6468 73.8339 83.0928 73.2227 82.5335 71.8985L82.5315 71.8939L74.2718 52.0699C73.7343 50.7388 74.3767 49.1684 75.7323 48.5741ZM106.606 61.3411L98.3502 41.5274C98.0132 40.7296 97.0781 40.3671 96.2649 40.7282L76.1365 49.5452C75.3343 49.8969 74.9396 50.8392 75.2656 51.6464L83.5211 71.46C83.858 72.2579 84.7931 72.6203 85.6063 72.2593L105.735 63.4422C106.548 63.0812 106.943 62.1389 106.606 61.3411Z" fill="#333333"/>
<path fill-rule="evenodd" clip-rule="evenodd" d="M89.0001 27.9866L111.098 24.5973C112.005 24.465 112.848 25.1013 112.979 26.0069L116.12 48.466C116.251 49.3717 115.613 50.2136 114.706 50.3458L92.2841 53.4983C91.377 53.6306 90.5349 52.9943 90.4039 52.0887L87.2624 29.6296C87.1448 28.7176 88.1065 28.1125 89.0001 27.9866Z" fill="#4D76A1"/>
<path fill-rule="evenodd" clip-rule="evenodd" d="M104.871 41.2235L102.035 33.3228L99.8501 33.6313L99.2101 41.9513L96.748 33.7538L94.3634 33.8874L98.3935 45.4072L100.851 45.1461L101.214 36.851L104.1 44.802L106.588 44.551L107.529 32.2314L105.172 32.6934L104.871 41.2235Z" fill="white"/>
<path fill-rule="evenodd" clip-rule="evenodd" d="M88.9142 27.8465L110.624 24.4798L110.627 24.4793C112.102 24.2447 113.448 25.2336 113.649 26.657L113.65 26.6619L116.555 47.9241L116.555 47.9269C116.757 49.3667 115.714 50.7108 114.255 50.9444L114.25 50.9453L92.5399 54.3119L92.5365 54.3125C91.0616 54.5469 89.716 53.558 89.5145 52.1347L89.5138 52.1298L86.607 30.8515C86.4284 29.4272 87.4516 28.0737 88.9142 27.8465ZM115.488 48.095L112.582 26.8279C112.461 25.9703 111.65 25.3805 110.771 25.5212L89.0562 28.8887C88.1906 29.0231 87.5678 29.833 87.6762 30.6967L90.5815 51.9639C90.7029 52.8214 91.5139 53.4113 92.3925 53.2706L114.108 49.903C114.986 49.7623 115.609 48.9525 115.488 48.095Z" fill="#333333"/>
<defs>
<linearGradient id="paint0_linear_125_3312" x1="34" y1="0.179687" x2="13" y2="22" gradientUnits="userSpaceOnUse">
<stop stop-color="#FF8E3D"/>
<stop offset="1" stop-color="#FF6F3D"/>
</linearGradient>
<linearGradient id="paint1_linear_125_3312" x1="76.9999" y1="15.9219" x2="76.716" y2="19.9046" gradientUnits="userSpaceOnUse">
<stop stop-color="#FF8E3D"/>
<stop offset="1" stop-color="#FF6F3D"/>
</linearGradient>
</defs>
</svg>
