<svg width="120" height="40" viewBox="0 0 120 40" fill="none" xmlns="http://www.w3.org/2000/svg">
<path d="M120 20C120 31.0457 111.046 40 100 40C88.9543 40 80 31.0457 80 20C80 8.95431 88.9543 0 100 0C111.046 0 120 8.95431 120 20Z" fill="url(#paint0_linear)"/>
<path d="M98.0439 26.464C98.0439 25.92 98.2359 25.456 98.6199 25.072C99.0039 24.688 99.4679 24.496 100.012 24.496C100.556 24.496 101.02 24.688 101.404 25.072C101.788 25.456 101.98 25.92 101.98 26.464C101.98 27.008 101.788 27.464 101.404 27.832C101.02 28.184 100.556 28.36 100.012 28.36C99.4679 28.36 99.0039 28.184 98.6199 27.832C98.2359 27.464 98.0439 27.008 98.0439 26.464ZM99.6759 22.84C99.2919 20.952 98.9879 19.432 98.7639 18.28C98.5399 17.128 98.3719 16.216 98.2599 15.544C98.1479 14.856 98.0759 14.352 98.0439 14.032C98.0119 13.696 97.9959 13.408 97.9959 13.168C97.9959 12.592 98.1799 12.128 98.5479 11.776C98.9159 11.424 99.4039 11.248 100.012 11.248C100.62 11.248 101.108 11.424 101.476 11.776C101.844 12.128 102.028 12.592 102.028 13.168C102.028 13.408 102.012 13.696 101.98 14.032C101.948 14.352 101.876 14.856 101.764 15.544C101.652 16.216 101.484 17.128 101.26 18.28C101.036 19.432 100.732 20.952 100.348 22.84H99.6759Z" fill="white"/>
<path d="M40 20C40 31.0457 31.0457 40 20 40C8.95431 40 0 31.0457 0 20C0 8.95431 8.95431 0 20 0C31.0457 0 40 8.95431 40 20Z" fill="#8BB825"/>
<path d="M18.3826 23.3872C17.9926 23.7862 17.3516 23.7889 16.9583 23.3933L14.1513 20.5701C13.7603 20.1768 13.124 20.1768 12.733 20.5701L12.7019 20.6015C12.3137 20.9918 12.3141 21.6225 12.7027 22.0124L16.959 26.2831C17.3522 26.6776 17.992 26.6749 18.3817 26.277L28.3062 16.1452C28.6903 15.753 28.6865 15.1245 28.2976 14.737L28.273 14.7126C27.8791 14.3201 27.2408 14.3244 26.8521 14.722L18.3826 23.3872Z" fill="white"/>
<defs>
<linearGradient id="paint0_linear" x1="100" y1="0" x2="100" y2="40" gradientUnits="userSpaceOnUse">
<stop stop-color="#FF8E3D"/>
<stop offset="1" stop-color="#FF6F3D"/>
</linearGradient>
</defs>
</svg>
