<svg width="206" height="24" viewBox="0 0 206 24" fill="none" xmlns="http://www.w3.org/2000/svg">
<path fill-rule="evenodd" clip-rule="evenodd" d="M10.9721 23.7059L0.6589 18.7649C-0.219633 18.3335 -0.219633 17.6669 0.6589 17.2748L4.24943 15.5493L10.9339 18.7649C11.8125 19.1963 13.2257 19.1963 14.0661 18.7649L20.7506 15.5493L24.3411 17.2748C25.2196 17.7061 25.2196 18.3728 24.3411 18.7649L14.0279 23.7059C13.2257 24.0981 11.8125 24.0981 10.9721 23.7059Z" fill="#FF6F3D"/>
<path fill-rule="evenodd" clip-rule="evenodd" d="M10.9387 17.5916L0.656893 12.6448C-0.218964 12.213 -0.218964 11.5456 0.656893 11.153L4.16032 9.46478L10.9387 12.7234C11.8145 13.1552 13.2235 13.1552 14.0613 12.7234L20.8397 9.46478L24.3431 11.153C25.219 11.5848 25.219 12.2522 24.3431 12.6448L14.0613 17.5916C13.1855 18.0235 11.7765 18.0235 10.9387 17.5916Z" fill="#95C038"/>
<path fill-rule="evenodd" clip-rule="evenodd" d="M10.9387 11.5408L0.656893 6.66521C-0.218964 6.23956 -0.218964 5.58175 0.656893 5.1948L10.9387 0.319234C11.8145 -0.106411 13.2235 -0.106411 14.0613 0.319234L24.3431 5.1948C25.219 5.62044 25.219 6.27826 24.3431 6.66521L14.0613 11.5408C13.1855 11.9277 11.7765 11.9277 10.9387 11.5408Z" fill="#5DC0E8"/>
<path d="M31 12.9781C31 10.652 31.6789 8.89655 33.082 7.75549C34.4398 6.57053 36.0691 6 37.9248 6C39.7804 6 41.3645 6.57053 42.7223 7.75549C44.0801 8.94044 44.759 10.652 44.759 13.0219C44.759 15.348 44.0801 17.1034 42.7223 18.2445C41.3645 19.4295 39.7352 20 37.9248 20C36.0691 20 34.485 19.4295 33.082 18.2445C31.6789 17.0596 31 15.3041 31 12.9781ZM33.9872 12.9781C33.9872 14.6019 34.304 15.7429 34.8924 16.489C35.526 17.2351 36.2049 17.7179 36.9291 17.8934C37.1101 17.9373 37.2459 17.9812 37.4269 17.9812C37.5627 17.9812 37.7437 18.0251 37.8795 18.0251C38.0606 18.0251 38.1963 18.0251 38.3774 17.9812C38.5584 17.9812 38.6942 17.9373 38.8752 17.8934C39.5994 17.7179 40.2783 17.2351 40.8667 16.489C41.4551 15.7429 41.7719 14.558 41.7719 13.0219C41.7719 11.442 41.4551 10.3009 40.8667 9.55486C40.2783 8.80878 39.5994 8.32602 38.8752 8.15047C38.6942 8.10658 38.5132 8.0627 38.3774 8.0627C38.1963 8.0627 38.0606 8.01881 37.8795 8.01881C37.6985 8.01881 37.5627 8.01881 37.4269 8.0627C37.2911 8.0627 37.1101 8.10658 36.9291 8.15047C36.2049 8.32602 35.526 8.80878 34.8924 9.55486C34.304 10.2132 33.9872 11.3981 33.9872 12.9781Z" fill="#333333"/>
<path d="M46.8086 6H50.5566L55.493 14.7949L56.2243 16.7244H56.27L56.2243 14.2115V6H59.1039V20H55.3559L50.4195 10.8462L49.6882 9.27564H49.6425L49.6882 11.7436V20H46.8086V6Z" fill="#333333"/>
<path d="M61.7383 6H64.5984V17.6218H70.2279V20H61.7383V6Z" fill="#333333"/>
<path d="M69.0576 6H72.3623L75.2596 10.891L75.7123 11.8782H75.8028L76.2555 10.891L79.1981 6H82.2311L77.1157 14.3013V20H74.2637V14.2564L69.0576 6Z" fill="#333333"/>
<path d="M81.9375 12.9781C81.9375 10.652 82.6164 8.89655 84.0195 7.75549C85.3773 6.57053 87.0066 6 88.8623 6C90.718 6 92.3021 6.57053 93.6599 7.75549C95.0177 8.94044 95.6966 10.652 95.6966 13.0219C95.6966 15.348 95.0177 17.1034 93.6599 18.2445C92.3021 19.4295 90.6727 20 88.8623 20C87.0066 20 85.4225 19.4295 84.0195 18.2445C82.6617 17.0596 81.9375 15.3041 81.9375 12.9781ZM84.9247 12.9781C84.9247 14.6019 85.2415 15.7429 85.8299 16.489C86.4635 17.2351 87.0972 17.7179 87.8666 17.8934C88.0476 17.9373 88.1834 17.9812 88.3644 17.9812C88.5002 17.9812 88.6813 18.0251 88.8171 18.0251C88.9981 18.0251 89.1339 18.0251 89.3149 17.9812C89.4959 17.9812 89.6317 17.9373 89.8128 17.8934C90.5369 17.7179 91.2158 17.2351 91.8042 16.489C92.3926 15.7429 92.7094 14.558 92.7094 13.0219C92.7094 11.442 92.3926 10.3009 91.8042 9.55486C91.2158 8.80878 90.5369 8.32602 89.8128 8.15047C89.6317 8.10658 89.4507 8.0627 89.3149 8.0627C89.1339 8.0627 88.9981 8.01881 88.8171 8.01881C88.636 8.01881 88.5002 8.01881 88.3644 8.0627C88.2287 8.0627 88.0476 8.10658 87.8666 8.15047C87.1424 8.32602 86.4635 8.80878 85.8299 9.55486C85.2415 10.2132 84.9247 11.3981 84.9247 12.9781Z" fill="#333333"/>
<path d="M97.7451 6H105.649V8.28472H100.607V11.6239H105.422V13.9526H100.607V19.7083H97.7451V6Z" fill="#333333"/>
<path d="M107.699 6H115.603V8.28472H110.561V11.6239H115.376V13.9526H110.561V19.7083H107.699V6Z" fill="#333333"/>
<path d="M117.653 19.7083V6H120.581V19.7083H117.653Z" fill="#333333"/>
<path d="M133.753 6.35331V8.73817C133.25 8.56151 132.746 8.42902 132.197 8.34069C131.647 8.25237 131.006 8.2082 130.366 8.2082C128.855 8.2082 127.71 8.64984 126.886 9.57729C126.062 10.4606 125.65 11.6088 125.65 12.9779C125.65 14.3028 126.017 15.4069 126.795 16.2902C127.573 17.1735 128.672 17.6593 130.091 17.6593C130.594 17.6593 131.098 17.6151 131.693 17.571C132.288 17.4826 132.883 17.3502 133.524 17.0852L133.707 19.4259C133.616 19.47 133.479 19.5142 133.341 19.5584C133.158 19.6025 132.975 19.6467 132.746 19.6909C132.38 19.7792 131.922 19.8233 131.373 19.9117C130.823 19.9558 130.274 20 129.679 20C129.587 20 129.496 20 129.45 20C129.358 20 129.267 20 129.221 20C127.573 19.9117 126.062 19.2934 124.689 18.2334C123.316 17.1293 122.629 15.4069 122.629 13.1104C122.629 10.858 123.316 9.09148 124.643 7.85489C125.971 6.6183 127.802 6 130.045 6C130.64 6 131.19 6 131.647 6.04416C132.151 6.08833 132.609 6.17666 133.112 6.26498C133.204 6.30915 133.341 6.30915 133.433 6.35331C133.524 6.30915 133.616 6.35331 133.753 6.35331Z" fill="#333333"/>
<path d="M135.803 6H144V8.15291H138.608V11.58H143.474V13.689H138.608V17.5554H144V19.7083H135.803V6Z" fill="#333333"/>
<path d="M151.146 23V12.1644H152.327V13.1823C152.605 12.784 152.919 12.4865 153.269 12.2898C153.619 12.0882 154.044 11.9874 154.543 11.9874C155.195 11.9874 155.771 12.1595 156.269 12.5037C156.768 12.848 157.145 13.3348 157.399 13.9642C157.653 14.5887 157.78 15.2747 157.78 16.0222C157.78 16.8237 157.639 17.5466 157.356 18.1908C157.078 18.83 156.67 19.3218 156.133 19.666C155.6 20.0053 155.039 20.175 154.449 20.175C154.017 20.175 153.629 20.0815 153.283 19.8947C152.943 19.7078 152.662 19.4718 152.442 19.1866V23H151.146ZM152.319 16.1254C152.319 17.1335 152.518 17.8785 152.917 18.3604C153.315 18.8423 153.797 19.0833 154.363 19.0833C154.938 19.0833 155.43 18.835 155.838 18.3383C156.25 17.8367 156.457 17.0622 156.457 16.0148C156.457 15.0166 156.255 14.2691 155.852 13.7724C155.454 13.2758 154.977 13.0274 154.42 13.0274C153.869 13.0274 153.379 13.293 152.952 13.8241C152.53 14.3502 152.319 15.1174 152.319 16.1254Z" fill="#333333"/>
<path d="M164.58 17.4753L165.918 17.6449C165.707 18.4465 165.316 19.0685 164.745 19.5111C164.175 19.9537 163.446 20.175 162.558 20.175C161.44 20.175 160.553 19.8234 159.896 19.1202C159.244 18.4121 158.917 17.4212 158.917 16.1476C158.917 14.8297 159.248 13.8069 159.91 13.0791C160.572 12.3513 161.431 11.9874 162.486 11.9874C163.508 11.9874 164.343 12.3439 164.99 13.0569C165.638 13.77 165.961 14.7731 165.961 16.0664C165.961 16.1451 165.959 16.2631 165.954 16.4205H160.256C160.304 17.281 160.541 17.94 160.968 18.3973C161.395 18.8546 161.927 19.0833 162.565 19.0833C163.04 19.0833 163.446 18.9554 163.781 18.6997C164.117 18.444 164.383 18.0359 164.58 17.4753ZM160.328 15.3288H164.594C164.537 14.6699 164.374 14.1757 164.105 13.8462C163.693 13.3348 163.158 13.0791 162.501 13.0791C161.906 13.0791 161.404 13.2831 160.997 13.6913C160.594 14.0994 160.371 14.6453 160.328 15.3288Z" fill="#333333"/>
<path d="M167.537 19.9979V12.1644H168.703V13.352C169 12.7963 169.274 12.43 169.523 12.2529C169.777 12.0759 170.056 11.9874 170.358 11.9874C170.794 11.9874 171.238 12.13 171.689 12.4152L171.243 13.647C170.926 13.4553 170.61 13.3594 170.293 13.3594C170.01 13.3594 169.756 13.4479 169.53 13.6249C169.305 13.797 169.144 14.038 169.048 14.3478C168.904 14.8199 168.832 15.3362 168.832 15.8968V19.9979H167.537Z" fill="#333333"/>
<path d="M171.941 17.6597L173.221 17.4532C173.293 17.9793 173.492 18.3826 173.819 18.6628C174.15 18.9431 174.61 19.0833 175.2 19.0833C175.795 19.0833 176.236 18.9604 176.524 18.7145C176.812 18.4637 176.956 18.1711 176.956 17.8367C176.956 17.5367 176.829 17.3007 176.574 17.1286C176.397 17.0106 175.956 16.8606 175.251 16.6787C174.301 16.4328 173.641 16.2213 173.272 16.0443C172.907 15.8624 172.629 15.614 172.437 15.2993C172.25 14.9797 172.157 14.6281 172.157 14.2445C172.157 13.8954 172.233 13.5733 172.387 13.2782C172.545 12.9783 172.759 12.7299 173.027 12.5332C173.229 12.3808 173.502 12.2529 173.847 12.1497C174.198 12.0415 174.572 11.9874 174.97 11.9874C175.569 11.9874 176.095 12.0759 176.546 12.2529C177.001 12.43 177.337 12.6709 177.553 12.9758C177.769 13.2758 177.918 13.679 177.999 14.1855L176.733 14.3625C176.675 13.9593 176.507 13.6446 176.229 13.4184C175.956 13.1922 175.567 13.0791 175.063 13.0791C174.469 13.0791 174.044 13.1799 173.79 13.3815C173.536 13.5831 173.409 13.8192 173.409 14.0896C173.409 14.2617 173.461 14.4166 173.567 14.5543C173.672 14.6969 173.838 14.8149 174.063 14.9084C174.193 14.9575 174.574 15.0706 175.207 15.2477C176.124 15.4985 176.762 15.705 177.121 15.8673C177.486 16.0246 177.771 16.2558 177.977 16.5606C178.184 16.8655 178.287 17.2442 178.287 17.6966C178.287 18.1391 178.16 18.5571 177.906 18.9505C177.656 19.339 177.294 19.6414 176.819 19.8578C176.344 20.0692 175.807 20.175 175.207 20.175C174.214 20.175 173.456 19.9635 172.934 19.5406C172.416 19.1177 172.085 18.4907 171.941 17.6597Z" fill="#333333"/>
<path d="M179.345 16.0812C179.345 14.6305 179.738 13.5561 180.525 12.8578C181.182 12.2775 181.983 11.9874 182.928 11.9874C183.978 11.9874 184.837 12.3415 185.504 13.0496C186.17 13.7528 186.504 14.7264 186.504 15.9705C186.504 16.9786 186.355 17.7728 186.058 18.353C185.765 18.9284 185.336 19.3759 184.77 19.6955C184.209 20.0151 183.595 20.175 182.928 20.175C181.858 20.175 180.992 19.8234 180.33 19.1202C179.673 18.417 179.345 17.404 179.345 16.0812ZM180.676 16.0812C180.676 17.0843 180.889 17.8367 181.316 18.3383C181.743 18.835 182.28 19.0833 182.928 19.0833C183.571 19.0833 184.105 18.8325 184.532 18.3309C184.959 17.8293 185.173 17.0647 185.173 16.0369C185.173 15.0682 184.957 14.3355 184.525 13.8388C184.098 13.3372 183.566 13.0865 182.928 13.0865C182.28 13.0865 181.743 13.3348 181.316 13.8314C180.889 14.3281 180.676 15.078 180.676 16.0812Z" fill="#333333"/>
<path d="M188.029 19.9979V12.1644H189.195V13.2782C189.756 12.4177 190.567 11.9874 191.627 11.9874C192.087 11.9874 192.509 12.0735 192.893 12.2456C193.282 12.4128 193.572 12.634 193.764 12.9094C193.956 13.1848 194.09 13.5118 194.167 13.8905C194.215 14.1363 194.239 14.5666 194.239 15.1813V19.9979H192.944V15.2329C192.944 14.692 192.893 14.2888 192.792 14.0232C192.692 13.7528 192.512 13.5389 192.253 13.3815C191.999 13.2192 191.699 13.1381 191.353 13.1381C190.802 13.1381 190.325 13.3176 189.922 13.6765C189.523 14.0355 189.324 14.7166 189.324 15.7197V19.9979H188.029Z" fill="#333333"/>
<path d="M201.218 19.0317C200.738 19.4496 200.276 19.7447 199.829 19.9168C199.388 20.0889 198.913 20.175 198.405 20.175C197.565 20.175 196.92 19.966 196.469 19.548C196.018 19.1251 195.793 18.5866 195.793 17.9326C195.793 17.549 195.877 17.1999 196.045 16.8852C196.217 16.5656 196.44 16.3098 196.714 16.1181C196.992 15.9263 197.304 15.7812 197.649 15.6829C197.903 15.614 198.287 15.5476 198.8 15.4837C199.846 15.3559 200.616 15.2034 201.11 15.0264C201.115 14.8444 201.117 14.7289 201.117 14.6797C201.117 14.1388 200.995 13.7577 200.75 13.5364C200.419 13.2364 199.928 13.0865 199.275 13.0865C198.666 13.0865 198.215 13.1971 197.923 13.4184C197.635 13.6347 197.421 14.0208 197.282 14.5764L196.016 14.3994C196.131 13.8437 196.321 13.3963 196.584 13.0569C196.848 12.7127 197.23 12.4496 197.728 12.2677C198.227 12.0808 198.805 11.9874 199.462 11.9874C200.115 11.9874 200.645 12.0661 201.053 12.2234C201.46 12.3808 201.76 12.58 201.952 12.8209C202.144 13.0569 202.278 13.3569 202.355 13.7208C202.398 13.947 202.42 14.3552 202.42 14.9452V16.7155C202.42 17.9498 202.446 18.7317 202.499 19.0612C202.556 19.3857 202.667 19.698 202.83 19.9979H201.477C201.343 19.7226 201.256 19.4005 201.218 19.0317ZM201.11 16.0664C200.64 16.2631 199.935 16.4303 198.995 16.568C198.462 16.6467 198.086 16.7352 197.865 16.8336C197.644 16.9319 197.474 17.077 197.354 17.2687C197.234 17.4556 197.174 17.6646 197.174 17.8957C197.174 18.2498 197.304 18.5448 197.563 18.7809C197.827 19.0169 198.21 19.1349 198.714 19.1349C199.213 19.1349 199.657 19.0243 200.045 18.803C200.434 18.5768 200.719 18.2695 200.902 17.881C201.041 17.581 201.11 17.1384 201.11 16.5533V16.0664Z" fill="#333333"/>
<path d="M204.406 19.9979V9.18445H205.701V19.9979H204.406Z" fill="#333333"/>
</svg>
