<svg width="170" height="56" viewBox="0 0 170 56" fill="none" xmlns="http://www.w3.org/2000/svg">
<path d="M57.2674 12.6058C57.7607 12.5703 58.2557 12.6449 58.7167 12.8243C59.1777 13.0036 59.5933 13.2831 59.9333 13.6428C60.2734 14.0024 60.5295 14.4331 60.6832 14.9038C60.8369 15.3746 60.8844 15.8736 60.8222 16.3649C60.8222 18.7819 59.5178 20.1713 57.2674 20.1713H54.5386V12.6058H57.2674ZM55.712 19.1013H57.1363C57.4888 19.1224 57.8416 19.0646 58.1689 18.9319C58.4963 18.7993 58.79 18.5952 59.0286 18.3346C59.2673 18.0739 59.4449 17.7633 59.5485 17.4252C59.6522 17.0872 59.6793 16.7302 59.6278 16.3804C59.6755 16.0319 59.6457 15.6772 59.5405 15.3416C59.4352 15.006 59.2572 14.6979 59.0191 14.4393C58.781 14.1808 58.4887 13.9781 58.1632 13.846C57.8377 13.7138 57.487 13.6554 57.1363 13.6749H55.712V19.1013Z" fill="white"/>
<path d="M62.1476 17.3139C62.1118 16.9387 62.1546 16.5602 62.2734 16.2025C62.3923 15.8449 62.5844 15.516 62.8375 15.2371C63.0907 14.9582 63.3993 14.7353 63.7435 14.5828C64.0877 14.4303 64.4599 14.3516 64.8363 14.3516C65.2126 14.3516 65.5849 14.4303 65.9291 14.5828C66.2733 14.7353 66.5818 14.9582 66.835 15.2371C67.0881 15.516 67.2803 15.8449 67.3991 16.2025C67.5179 16.5602 67.5608 16.9387 67.5249 17.3139C67.5615 17.6895 67.5191 18.0686 67.4006 18.4268C67.2821 18.785 67.0901 19.1145 66.8369 19.3939C66.5836 19.6734 66.2748 19.8967 65.9303 20.0496C65.5858 20.2024 65.2131 20.2813 64.8363 20.2813C64.4594 20.2813 64.0868 20.2024 63.7422 20.0496C63.3977 19.8967 63.0889 19.6734 62.8357 19.3939C62.5825 19.1145 62.3904 18.785 62.2719 18.4268C62.1534 18.0686 62.1111 17.6895 62.1476 17.3139V17.3139ZM66.3676 17.3139C66.3676 16.0763 65.8124 15.3526 64.8381 15.3526C63.8601 15.3526 63.3099 16.0763 63.3099 17.3139C63.3099 18.5614 63.8601 19.2796 64.8381 19.2796C65.8125 19.2796 66.3676 18.5565 66.3676 17.3139H66.3676Z" fill="white"/>
<path d="M74.673 20.171H73.5058L72.3274 15.9661H72.2384L71.065 20.171H69.9089L68.3374 14.4617H69.4787L70.5 18.8183H70.584L71.7562 14.4617H72.8356L74.0078 18.8183H74.0968L75.1131 14.4617H76.2383L74.673 20.171Z" fill="white"/>
<path d="M77.5601 14.4615H78.6432V15.3685H78.7273C78.8699 15.0428 79.1105 14.7697 79.4154 14.5873C79.7204 14.405 80.0746 14.3225 80.4286 14.3513C80.706 14.3304 80.9846 14.3723 81.2436 14.4739C81.5027 14.5754 81.7356 14.7341 81.9251 14.938C82.1146 15.1419 82.2559 15.386 82.3384 15.652C82.421 15.918 82.4427 16.1993 82.402 16.4748V20.1708H81.2768V16.7578C81.2768 15.8403 80.8787 15.384 80.0466 15.384C79.8582 15.3752 79.6702 15.4073 79.4954 15.4781C79.3206 15.5489 79.1632 15.6567 79.0339 15.7941C78.9046 15.9315 78.8065 16.0953 78.7463 16.2743C78.6861 16.4532 78.6653 16.6431 78.6852 16.8308V20.1709H77.5601L77.5601 14.4615Z" fill="white"/>
<path d="M84.1948 12.2327H85.32V20.1708H84.1948V12.2327Z" fill="white"/>
<path d="M86.8841 17.3138C86.8483 16.9386 86.8912 16.56 87.0101 16.2023C87.1289 15.8447 87.3211 15.5158 87.5743 15.2369C87.8274 14.958 88.136 14.7351 88.4802 14.5826C88.8245 14.4301 89.1967 14.3513 89.5731 14.3513C89.9495 14.3513 90.3218 14.4301 90.666 14.5826C91.0102 14.7351 91.3188 14.958 91.572 15.2369C91.8252 15.5158 92.0173 15.8447 92.1362 16.2023C92.255 16.56 92.2979 16.9386 92.2621 17.3138C92.2986 17.6894 92.2562 18.0685 92.1376 18.4267C92.0191 18.7849 91.827 19.1143 91.5738 19.3938C91.3206 19.6733 91.0117 19.8966 90.6672 20.0494C90.3226 20.2022 89.95 20.2812 89.5731 20.2812C89.1963 20.2812 88.8236 20.2022 88.4791 20.0494C88.1345 19.8966 87.8257 19.6733 87.5724 19.3938C87.3192 19.1143 87.1271 18.7849 87.0086 18.4267C86.8901 18.0685 86.8477 17.6894 86.8841 17.3138V17.3138ZM91.1041 17.3138C91.1041 16.0762 90.549 15.3525 89.5747 15.3525C88.5966 15.3525 88.0465 16.0762 88.0465 17.3138C88.0465 18.5613 88.5967 19.2794 89.5747 19.2794C90.549 19.2794 91.1042 18.5563 91.1042 17.3138H91.1041Z" fill="white"/>
<path d="M93.4465 18.5563C93.4465 17.5285 94.2107 16.9361 95.567 16.8519L97.1114 16.7627V16.2699C97.1114 15.6669 96.7132 15.3264 95.9442 15.3264C95.3161 15.3264 94.8808 15.5573 94.7559 15.961H93.6666C93.7816 14.9803 94.7028 14.3513 95.9961 14.3513C97.4254 14.3513 98.2316 15.0639 98.2316 16.2699V20.1709H97.1485V19.3685H97.0594C96.8787 19.6563 96.625 19.891 96.3241 20.0485C96.0233 20.206 95.6861 20.2807 95.347 20.265C95.1076 20.2899 94.8657 20.2643 94.6368 20.1899C94.408 20.1155 94.1972 19.9938 94.0182 19.8329C93.8391 19.6719 93.6958 19.4751 93.5973 19.2552C93.4988 19.0353 93.4475 18.7972 93.4465 18.5563V18.5563ZM97.1114 18.0684V17.5911L95.7191 17.6802C94.934 17.7329 94.5779 18.0003 94.5779 18.5036C94.5779 19.0175 95.023 19.3165 95.6351 19.3165C95.8144 19.3347 95.9956 19.3166 96.1678 19.2632C96.34 19.2098 96.4997 19.1223 96.6374 19.0059C96.7752 18.8894 96.8881 18.7464 96.9695 18.5854C97.051 18.4243 97.0992 18.2485 97.1114 18.0684V18.0684Z" fill="white"/>
<path d="M99.7103 17.3137C99.7103 15.5096 100.636 14.3667 102.077 14.3667C102.433 14.3503 102.787 14.4358 103.096 14.6131C103.406 14.7905 103.659 15.0525 103.825 15.3684H103.909V12.2327H105.034V20.1708H103.956V19.2688H103.867C103.688 19.5826 103.426 19.8413 103.111 20.0169C102.795 20.1924 102.438 20.2782 102.077 20.2649C100.627 20.265 99.7103 19.1221 99.7103 17.3137ZM100.873 17.3137C100.873 18.5246 101.443 19.2533 102.396 19.2533C103.344 19.2533 103.93 18.5141 103.93 17.3186C103.93 16.1287 103.338 15.379 102.396 15.379C101.449 15.379 100.873 16.1126 100.873 17.3137H100.873Z" fill="white"/>
<path d="M109.826 12.7734C109.817 12.6274 109.852 12.4822 109.927 12.3566C110.002 12.231 110.112 12.1307 110.245 12.0688C110.377 12.0068 110.525 11.9861 110.669 12.0092C110.813 12.0323 110.947 12.0983 111.053 12.1985C111.159 12.2987 111.233 12.4285 111.265 12.5712C111.297 12.7139 111.285 12.8629 111.231 12.9988C111.177 13.1347 111.084 13.2514 110.963 13.3336C110.843 13.4158 110.7 13.4598 110.554 13.4599C110.461 13.4647 110.367 13.4505 110.28 13.4183C110.192 13.386 110.112 13.3363 110.044 13.2722C109.976 13.208 109.921 13.1308 109.884 13.0451C109.846 12.9593 109.827 12.8669 109.826 12.7734V12.7734ZM109.993 14.4617H111.114V20.171H109.993V14.4617Z" fill="white"/>
<path d="M112.929 14.4615H114.012V15.3685H114.097C114.239 15.0428 114.48 14.7697 114.785 14.5873C115.09 14.405 115.444 14.3225 115.798 14.3513C116.075 14.3304 116.354 14.3723 116.613 14.4739C116.872 14.5754 117.105 14.7341 117.294 14.938C117.484 15.1419 117.625 15.386 117.708 15.652C117.79 15.918 117.812 16.1993 117.771 16.4748V20.1708H116.646V16.7578C116.646 15.8403 116.248 15.384 115.416 15.384C115.227 15.3752 115.039 15.4073 114.865 15.4781C114.69 15.5489 114.532 15.6567 114.403 15.7941C114.274 15.9315 114.176 16.0953 114.116 16.2743C114.055 16.4532 114.035 16.6431 114.054 16.8308V20.1709H112.929V14.4615Z" fill="white"/>
<path d="M122.323 17.3137C122.323 15.5096 123.249 14.3667 124.689 14.3667C125.046 14.3503 125.399 14.4358 125.709 14.6131C126.018 14.7905 126.271 15.0525 126.438 15.3684H126.522V12.2327H127.647V20.1708H126.569V19.2688H126.48C126.3 19.5826 126.039 19.8413 125.723 20.0169C125.408 20.1924 125.05 20.2782 124.689 20.2649C123.239 20.265 122.323 19.1221 122.323 17.3137ZM123.485 17.3137C123.485 18.5246 124.055 19.2533 125.008 19.2533C125.957 19.2533 126.543 18.5141 126.543 17.3186C126.543 16.1287 125.95 15.379 125.008 15.379C124.061 15.379 123.485 16.1126 123.485 17.3137H123.485Z" fill="white"/>
<path d="M134.314 18.6294C134.161 19.1512 133.83 19.6026 133.378 19.9045C132.926 20.2065 132.383 20.3398 131.843 20.2812C131.468 20.2911 131.094 20.2191 130.749 20.07C130.404 19.921 130.096 19.6986 129.845 19.4182C129.595 19.1378 129.408 18.8062 129.298 18.4463C129.188 18.0865 129.158 17.707 129.21 17.3343C129.16 16.9604 129.19 16.5801 129.3 16.2191C129.409 15.8582 129.595 15.525 129.844 15.2422C130.094 14.9593 130.401 14.7334 130.745 14.5797C131.089 14.4261 131.462 14.3482 131.838 14.3514C133.425 14.3514 134.382 15.4368 134.382 17.2296V17.6228H130.356V17.6859C130.338 17.8954 130.364 18.1063 130.433 18.3051C130.502 18.5038 130.611 18.686 130.754 18.84C130.897 18.994 131.07 19.1164 131.263 19.1993C131.456 19.2823 131.664 19.3239 131.874 19.3215C132.143 19.3539 132.416 19.3054 132.658 19.1821C132.899 19.0589 133.099 18.8665 133.231 18.6294L134.314 18.6294ZM130.356 16.7894H133.235C133.25 16.5978 133.224 16.4054 133.159 16.2244C133.095 16.0434 132.993 15.878 132.861 15.7387C132.729 15.5994 132.569 15.4894 132.392 15.4156C132.215 15.3418 132.024 15.306 131.832 15.3104C131.637 15.308 131.444 15.3446 131.264 15.418C131.084 15.4915 130.92 15.6004 130.783 15.7382C130.645 15.876 130.536 16.0401 130.463 16.2206C130.39 16.4012 130.353 16.5946 130.356 16.7894H130.356Z" fill="white"/>
<path d="M40.7352 27.275C40.7489 26.2167 41.0296 25.179 41.5512 24.2586C42.0729 23.3381 42.8186 22.5648 43.7189 22.0105C43.147 21.1925 42.3924 20.5193 41.5152 20.0444C40.638 19.5695 39.6623 19.3059 38.6656 19.2747C36.5395 19.0512 34.4783 20.5487 33.3949 20.5487C32.2905 20.5487 30.6224 19.2969 28.8261 19.3339C27.6642 19.3715 26.5318 19.7098 25.5393 20.316C24.5469 20.9221 23.7281 21.7754 23.1628 22.7926C20.7141 27.0382 22.5406 33.2777 24.8862 36.7095C26.0598 38.3899 27.4314 40.267 29.2261 40.2005C30.9822 40.1275 31.6382 39.079 33.758 39.079C35.8582 39.079 36.4736 40.2005 38.3047 40.1581C40.1892 40.1275 41.3765 38.4702 42.5089 36.7739C43.3521 35.5765 44.0009 34.2531 44.4314 32.8528C43.3365 32.3891 42.4022 31.6129 41.745 30.621C41.0877 29.6291 40.7365 28.4654 40.7352 27.275V27.275Z" fill="white"/>
<path d="M37.2767 17.0179C38.3042 15.7827 38.8104 14.195 38.6878 12.592C37.118 12.7572 35.668 13.5085 34.6266 14.6963C34.1174 15.2766 33.7275 15.9517 33.479 16.683C33.2305 17.4143 33.1284 18.1875 33.1785 18.9583C33.9637 18.9664 34.7405 18.796 35.4503 18.4599C36.1602 18.1237 36.7847 17.6307 37.2767 17.0179Z" fill="white"/>
<path d="M62.9347 35.9466H56.9416L55.5024 40.2024H52.964L58.6405 24.4573H61.2779L66.9544 40.2024H64.3727L62.9347 35.9466ZM57.5623 33.9828H62.3128L59.971 27.0761H59.9055L57.5623 33.9828Z" fill="white"/>
<path d="M79.2139 34.4632C79.2139 38.0304 77.3072 40.3224 74.43 40.3224C73.7012 40.3605 72.9763 40.1924 72.3385 39.8372C71.7006 39.482 71.1755 38.9541 70.8233 38.314H70.7689V43.9998H68.4159V28.7228H70.6935V30.6321H70.7367C71.1051 29.995 71.6391 29.4699 72.2818 29.1125C72.9245 28.7552 73.652 28.579 74.3867 28.6027C77.2961 28.6027 79.2139 30.9058 79.2139 34.4632ZM76.7953 34.4632C76.7953 32.139 75.596 30.6111 73.766 30.6111C71.9682 30.6111 70.759 32.1712 70.759 34.4632C70.759 36.7761 71.9682 38.3251 73.766 38.3251C75.596 38.3251 76.7953 36.8083 76.7953 34.4632Z" fill="white"/>
<path d="M91.8305 34.4631C91.8305 38.0304 89.9239 40.3223 87.0467 40.3223C86.3179 40.3605 85.593 40.1924 84.9552 39.8372C84.3173 39.482 83.7922 38.9541 83.44 38.3139H83.3856V43.9998H81.0326V28.7228H83.3101V30.6321H83.3534C83.7218 29.995 84.2557 29.4699 84.8985 29.1125C85.5412 28.7552 86.2686 28.579 87.0034 28.6027C89.9128 28.6027 91.8305 30.9058 91.8305 34.4631ZM89.412 34.4631C89.412 32.139 88.2127 30.6111 86.3827 30.6111C84.5849 30.6111 83.3757 32.1712 83.3757 34.4631C83.3757 36.7761 84.5849 38.3251 86.3827 38.3251C88.2127 38.3251 89.4121 36.8083 89.4121 34.4631H89.412Z" fill="white"/>
<path d="M100.169 35.8155C100.343 37.3769 101.858 38.402 103.928 38.402C105.911 38.402 107.338 37.3768 107.338 35.969C107.338 34.7468 106.478 34.0151 104.44 33.5136L102.402 33.022C99.5151 32.3237 98.1747 30.9715 98.1747 28.7774C98.1747 26.0608 100.539 24.1948 103.896 24.1948C107.218 24.1948 109.496 26.0608 109.572 28.7774H107.197C107.055 27.2061 105.758 26.2577 103.862 26.2577C101.967 26.2577 100.67 27.2173 100.67 28.614C100.67 29.7271 101.498 30.3822 103.525 30.8836L105.257 31.3095C108.483 32.0735 109.823 33.3712 109.823 35.6742C109.823 38.6199 107.48 40.4648 103.754 40.4648C100.267 40.4648 97.9126 38.6632 97.7605 35.8154L100.169 35.8155Z" fill="white"/>
<path d="M114.901 26.0063V28.723H117.081V30.589H114.901V36.9174C114.901 37.9006 115.338 38.3587 116.296 38.3587C116.555 38.3542 116.813 38.336 117.07 38.3042V40.159C116.639 40.2396 116.201 40.2762 115.763 40.268C113.442 40.268 112.537 39.3951 112.537 37.1688V30.589H110.871V28.723H112.537V26.0063H114.901Z" fill="white"/>
<path d="M118.344 34.4633C118.344 30.8514 120.468 28.5818 123.78 28.5818C127.104 28.5818 129.218 30.8514 129.218 34.4633C129.218 38.085 127.115 40.3448 123.78 40.3448C120.447 40.3448 118.344 38.085 118.344 34.4633ZM126.821 34.4633C126.821 31.9856 125.687 30.5233 123.78 30.5233C121.874 30.5233 120.741 31.9968 120.741 34.4633C120.741 36.9508 121.874 38.402 123.78 38.402C125.687 38.402 126.821 36.9508 126.821 34.4633H126.821Z" fill="white"/>
<path d="M131.158 28.7232H133.402V30.6771H133.457C133.609 30.0668 133.966 29.5275 134.468 29.1498C134.97 28.7722 135.587 28.5791 136.214 28.6031C136.485 28.6021 136.756 28.6316 137.02 28.691V30.895C136.678 30.7902 136.321 30.7421 135.963 30.7526C135.621 30.7387 135.281 30.7991 134.964 30.9295C134.648 31.06 134.364 31.2574 134.131 31.5084C133.898 31.7593 133.722 32.0577 133.615 32.3831C133.508 32.7086 133.473 33.0533 133.511 33.3937V40.2026H131.158L131.158 28.7232Z" fill="white"/>
<path d="M147.869 36.8307C147.552 38.9146 145.526 40.3448 142.933 40.3448C139.598 40.3448 137.529 38.1073 137.529 34.5178C137.529 30.9171 139.61 28.5818 142.834 28.5818C146.006 28.5818 148 30.7635 148 34.2441V35.0514H139.904V35.1938C139.866 35.6163 139.919 36.0419 140.059 36.4423C140.198 36.8428 140.421 37.209 140.713 37.5165C141.005 37.824 141.358 38.0659 141.75 38.226C142.143 38.3862 142.564 38.4609 142.988 38.4453C143.544 38.4975 144.102 38.3686 144.578 38.0776C145.055 37.7867 145.426 37.3494 145.635 36.8307L147.869 36.8307ZM139.915 33.4046H145.646C145.667 33.0247 145.609 32.6446 145.477 32.2881C145.344 31.9315 145.14 31.6062 144.876 31.3327C144.612 31.0591 144.294 30.8431 143.943 30.6983C143.591 30.5535 143.214 30.4829 142.834 30.4911C142.451 30.4888 142.071 30.5625 141.717 30.708C141.362 30.8535 141.04 31.0679 140.768 31.3387C140.497 31.6096 140.282 31.9316 140.135 32.2862C139.989 32.6408 139.914 33.0209 139.915 33.4046V33.4046Z" fill="white"/>
<rect x="0.5" y="0.5" width="169" height="55" rx="2.5" stroke="white"/>
</svg>
