<svg width="170" height="56" viewBox="0 0 170 56" fill="none" xmlns="http://www.w3.org/2000/svg">
<path d="M127.509 38.6913H129.534V25.4772H127.509V38.6913ZM145.748 30.2372L143.427 35.9662H143.357L140.948 30.2372H138.767L142.38 38.2445L140.32 42.6985H142.433L148 30.2372H145.748ZM134.264 37.1905C133.6 37.1905 132.676 36.8676 132.676 36.0682C132.676 35.0483 133.828 34.6573 134.822 34.6573C135.713 34.6573 136.131 34.8443 136.673 35.0996C136.515 36.3234 135.433 37.1905 134.264 37.1905V37.1905ZM134.509 29.9482C133.043 29.9482 131.524 30.5774 130.896 31.9714L132.693 32.7022C133.077 31.9714 133.792 31.7332 134.543 31.7332C135.591 31.7332 136.655 32.3455 136.673 33.4335V33.5693C136.306 33.3653 135.521 33.0594 134.561 33.0594C132.624 33.0594 130.651 34.0961 130.651 36.0343C130.651 37.8024 132.239 38.9415 134.019 38.9415C135.381 38.9415 136.131 38.3465 136.603 37.6496H136.673V38.6695H138.627V33.6031C138.627 31.2575 136.83 29.9482 134.509 29.9482V29.9482ZM121.994 31.8458H119.114V27.3164H121.994C123.508 27.3164 124.367 28.5372 124.367 29.581C124.367 30.6051 123.508 31.8458 121.994 31.8458ZM121.942 25.4772H117.09V38.6913H119.114V33.685H121.942C124.186 33.685 126.392 32.1023 126.392 29.581C126.392 27.0599 124.186 25.4772 121.942 25.4772ZM95.4834 37.1929C94.0845 37.1929 92.9132 36.0521 92.9132 34.4851C92.9132 32.9017 94.0845 31.7435 95.4834 31.7435C96.8646 31.7435 97.9485 32.9017 97.9485 34.4851C97.9485 36.0521 96.8646 37.1929 95.4834 37.1929V37.1929ZM97.8086 30.9772H97.7386C97.2842 30.4494 96.4096 29.9726 95.3084 29.9726C93.0006 29.9726 90.8853 31.9478 90.8853 34.4851C90.8853 37.0055 93.0006 38.9639 95.3084 38.9639C96.4096 38.9639 97.2842 38.4869 97.7386 37.9423H97.8086V38.5893C97.8086 40.3096 96.8646 41.2291 95.3435 41.2291C94.1023 41.2291 93.333 40.3603 93.0179 39.6282L91.2524 40.3434C91.7594 41.5354 93.1057 43 95.3435 43C97.7212 43 99.7318 41.6374 99.7318 38.3168V30.2451H97.8086V30.9772ZM101.13 38.6913H103.158V25.4768H101.13V38.6913ZM106.148 34.332C106.096 32.5948 107.529 31.7096 108.561 31.7096C109.365 31.7096 110.047 32.101 110.274 32.6634L106.148 34.332ZM112.442 32.8335C112.058 31.8285 110.886 29.9726 108.491 29.9726C106.113 29.9726 104.138 31.7947 104.138 34.4682C104.138 36.9886 106.096 38.9639 108.718 38.9639C110.834 38.9639 112.058 37.7037 112.565 36.9716L110.991 35.9496C110.467 36.6991 109.75 37.1929 108.718 37.1929C107.686 37.1929 106.952 36.733 106.48 35.8307L112.651 33.3443L112.442 32.8335ZM63.2731 31.352V33.2592H67.9585C67.8186 34.332 67.4515 35.1152 66.8919 35.6602C66.2103 36.3246 65.1438 37.0567 63.2731 37.0567C60.3883 37.0567 58.1331 34.7919 58.1331 31.9821C58.1331 29.1723 60.3883 26.9072 63.2731 26.9072C64.8292 26.9072 65.9653 27.5034 66.8046 28.2697L68.1857 26.9245C67.0144 25.8344 65.4583 25 63.2731 25C59.3217 25 56 28.1335 56 31.9821C56 35.8307 59.3217 38.9639 63.2731 38.9639C65.4062 38.9639 67.0145 38.283 68.2731 37.0055C69.5669 35.7453 69.9691 33.9744 69.9691 32.5441C69.9691 32.101 69.9343 31.6927 69.864 31.352H63.2731ZM75.296 37.1929C73.8971 37.1929 72.6906 36.069 72.6906 34.4682C72.6906 32.8504 73.8971 31.7435 75.296 31.7435C76.6944 31.7435 77.9008 32.8504 77.9008 34.4682C77.9008 36.069 76.6944 37.1929 75.296 37.1929V37.1929ZM75.296 29.9726C72.7432 29.9726 70.6626 31.8627 70.6626 34.4682C70.6626 37.0567 72.7432 38.9639 75.296 38.9639C77.8483 38.9639 79.9289 37.0567 79.9289 34.4682C79.9289 31.8627 77.8483 29.9726 75.296 29.9726ZM85.4028 37.1929C84.0044 37.1929 82.7979 36.069 82.7979 34.4682C82.7979 32.8504 84.0044 31.7435 85.4028 31.7435C86.8013 31.7435 88.0077 32.8504 88.0077 34.4682C88.0077 36.069 86.8013 37.1929 85.4028 37.1929ZM85.4028 29.9726C82.8501 29.9726 80.7699 31.8627 80.7699 34.4682C80.7699 37.0567 82.8501 38.9639 85.4028 38.9639C87.9552 38.9639 90.0358 37.0567 90.0358 34.4682C90.0358 31.8627 87.9552 29.9726 85.4028 29.9726Z" fill="white"/>
<path fill-rule="evenodd" clip-rule="evenodd" d="M116.621 18.2587C116.159 17.7915 115.929 17.2036 115.928 16.4707C115.929 15.7377 116.16 15.1501 116.621 14.6829C117.086 14.2158 117.642 13.9867 118.315 13.9854C118.988 13.9867 119.545 14.2158 120.009 14.6829C120.472 15.1501 120.702 15.7377 120.703 16.4707C120.702 17.2036 120.472 17.7913 120.009 18.2584C119.545 18.7255 118.988 18.9546 118.315 18.9559C117.642 18.9546 117.086 18.7256 116.621 18.2587ZM121.776 16.4707C121.777 17.4438 121.444 18.2795 120.785 18.9533C120.125 19.6301 119.293 19.9713 118.315 19.9705C117.337 19.9713 116.505 19.6301 115.846 18.9533C115.186 18.2791 114.854 17.4438 114.855 16.4707C114.854 15.4976 115.186 14.6618 115.846 13.9876C116.505 13.3108 117.337 12.9693 118.315 12.9705C119.288 12.9693 120.118 13.3129 120.78 13.9923C121.443 14.6691 121.777 15.5031 121.776 16.4707ZM75.4615 14.0633H73.3065V19.9822H72.2746V14.0633H70.1105V13.1237H75.4615V14.0633ZM87.677 19.9851V13.1623H88.6998V16.6265L91.7497 13.1528H92.882L90.3252 16.133L93.0857 19.9851H91.926L89.6768 16.8068L88.6998 17.8603V19.9851H87.677ZM100.957 19.9757V13.1237H99.9254V15.9425H96.6563V13.1237H95.6336V19.9757H96.6563V16.8916H99.9254V19.9757H100.957ZM123.64 14.1378V16.1884H124.934C125.263 16.1872 125.508 16.0837 125.7 15.8715C125.898 15.6504 125.99 15.4208 125.991 15.1638C125.99 14.9068 125.898 14.6764 125.7 14.4561C125.508 14.2435 125.263 14.1395 124.934 14.1378H123.64ZM123.64 19.8623V17.2034H124.916C125.492 17.2043 126.002 17.0094 126.423 16.626C126.849 16.243 127.066 15.7458 127.065 15.1638C127.066 14.5813 126.849 14.0837 126.423 13.7003C126.002 13.3173 125.492 13.1228 124.916 13.1237H122.585V19.9706H123.531H123.64V19.8623ZM110.042 14.1593V19.8651V19.9756H109.933H108.986V14.1593H107.165V14.0488V13.1237H111.863V13.2342V14.1593H110.042ZM106.409 14.0489V13.2343V13.1238H102.385V19.9757H106.409V19.0506V18.9401H103.44V17.0587H106.117V16.1513V16.0408H103.44V14.1594H106.409V14.0489ZM86.6764 13.2437V14.0583V14.1688H83.7069V16.0502H86.3843V16.1607V17.0681H83.7069V18.9495H86.6764V19.06V19.9851H82.652V13.1332H86.6764V13.2437ZM57.7655 18.288L57.7653 18.2882C58.2306 18.7551 58.7869 18.9842 59.4597 18.9854C60.1327 18.9842 60.6898 18.7551 61.154 18.288C61.6164 17.8208 61.8469 17.2332 61.8478 16.5002C61.8469 15.7673 61.6164 15.1796 61.154 14.7125C60.6898 14.2454 60.1327 14.0163 59.4597 14.015C58.7868 14.0163 58.2304 14.2454 57.7651 14.7125H57.7655C57.3044 15.1796 57.0739 15.7673 57.073 16.5002C57.0739 17.2332 57.3044 17.8208 57.7655 18.288ZM61.9293 18.9829C62.5887 18.3091 62.9216 17.4733 62.9208 16.5002C62.9216 15.5326 62.5874 14.6986 61.9251 14.0218C61.2627 13.3424 60.4329 12.9988 59.4597 13C58.4814 12.9988 57.6496 13.3408 56.991 14.0176V14.0171C56.3308 14.6913 55.9987 15.5271 56 16.5002C55.9987 17.4733 56.3308 18.3091 56.991 18.9833V18.9829C57.6496 19.6597 58.4814 20.0009 59.4597 20C60.438 20.0009 61.2698 19.6597 61.9293 18.9829ZM65.0685 13.1454L68.0958 18.0627L68.0692 17.1307V13.1454H68.1779H69.1256V19.9852H69.0169H68.0815L64.9079 14.8188L64.9342 15.7504V19.9852H64.8255H63.9882H63.8795V13.1454H63.9882H65.0685ZM77.3253 14.1855V18.9524H78.3737C79.1066 18.9511 79.6692 18.7419 80.0874 18.3278C80.5032 17.9146 80.7142 17.3369 80.715 16.569C80.7142 15.8071 80.5036 15.2319 80.0871 14.8144C79.6692 14.3982 79.1061 14.1868 78.3737 14.1855H77.3253ZM76.3788 19.9851H78.3737C79.397 19.986 80.2326 19.6696 80.856 19.0337C81.4784 18.4006 81.7902 17.5698 81.7893 16.569C81.7902 15.5673 81.4784 14.7374 80.8565 14.1046C80.2326 13.4683 79.397 13.152 78.3737 13.1528H76.2701V19.9851H76.3788Z" fill="white"/>
<path d="M20 13.9854V41.9853L34 27.9854L20 13.9854Z" fill="url(#paint0_linear)"/>
<path d="M20 13.9854V41.9853L34 27.9854L20 13.9854Z" fill="url(#paint1_linear)"/>
<path d="M44.4845 27.0305L39.2 23.9854L35 27.9854L39.2 31.9854L44.4845 28.7337C44.7938 28.5789 45 28.2176 45 27.8563C45 27.495 44.7938 27.1854 44.4845 27.0305Z" fill="url(#paint2_linear)"/>
<path d="M44.4845 27.0305L39.2 23.9854L35 27.9854L39.2 31.9854L44.4845 28.7337C44.7938 28.5789 45 28.2176 45 27.8563C45 27.495 44.7938 27.1854 44.4845 27.0305Z" fill="url(#paint3_linear)"/>
<path d="M21 41.9854L38.6 32.4354L34.5 28.4854L21 41.9854Z" fill="url(#paint4_linear)"/>
<path d="M21 41.9854L38.6 32.4354L34.5 28.4854L21 41.9854Z" fill="url(#paint5_linear)"/>
<path d="M38.6 23.5353L33.05 20.2854L21 13.9854L34.5 27.4853L38.6 23.5353Z" fill="url(#paint6_linear)"/>
<path d="M38.6 23.5353L33.05 20.2854L21 13.9854L34.5 27.4853L38.6 23.5353Z" fill="url(#paint7_linear)"/>
<rect x="0.5" y="0.5" width="169" height="55" rx="2.5" stroke="white"/>
<defs>
<linearGradient id="paint0_linear" x1="27" y1="23.4854" x2="20" y2="31.9854" gradientUnits="userSpaceOnUse">
<stop stop-color="#00E2FF"/>
<stop offset="1" stop-color="#03C6F5"/>
</linearGradient>
<linearGradient id="paint1_linear" x1="32.8101" y1="40.7441" x2="13.8625" y2="22.5831" gradientUnits="userSpaceOnUse">
<stop stop-color="#00A0FF"/>
<stop offset="0.00657445" stop-color="#00A1FF"/>
<stop offset="0.2601" stop-color="#00BEFF"/>
<stop offset="0.5122" stop-color="#00D2FF"/>
<stop offset="0.7604" stop-color="#00DFFF"/>
<stop offset="1" stop-color="#00E3FF"/>
</linearGradient>
<linearGradient id="paint2_linear" x1="40" y1="23.9854" x2="29.5" y2="23.9854" gradientUnits="userSpaceOnUse">
<stop stop-color="#FFEA0D"/>
<stop offset="1" stop-color="#FFCF00"/>
</linearGradient>
<linearGradient id="paint3_linear" x1="45.759" y1="28.0548" x2="21.9536" y2="28.0548" gradientUnits="userSpaceOnUse">
<stop stop-color="#FFE000"/>
<stop offset="0.4087" stop-color="#FFBD00"/>
<stop offset="0.7754" stop-color="#FFA500"/>
<stop offset="1" stop-color="#FF9C00"/>
</linearGradient>
<linearGradient id="paint4_linear" x1="30" y1="27.9854" x2="18.5" y2="39.4854" gradientUnits="userSpaceOnUse">
<stop stop-color="#F73547"/>
<stop offset="1" stop-color="#E22652"/>
</linearGradient>
<linearGradient id="paint5_linear" x1="36.2636" y1="39.5759" x2="12.375" y2="15.4293" gradientUnits="userSpaceOnUse">
<stop stop-color="#FF3A44"/>
<stop offset="1" stop-color="#C31162"/>
</linearGradient>
<linearGradient id="paint6_linear" x1="36" y1="23.4854" x2="21" y2="13.9854" gradientUnits="userSpaceOnUse">
<stop stop-color="#2EF38F"/>
<stop offset="1" stop-color="#0EDE76"/>
</linearGradient>
<linearGradient id="paint7_linear" x1="17.598" y1="34.7962" x2="28.2656" y2="24.0306" gradientUnits="userSpaceOnUse">
<stop stop-color="#32A071"/>
<stop offset="0.0685" stop-color="#2DA771"/>
<stop offset="0.4762" stop-color="#15CF74"/>
<stop offset="0.8009" stop-color="#06E775"/>
<stop offset="1" stop-color="#00F076"/>
</linearGradient>
</defs>
</svg>
