<svg xmlns="http://www.w3.org/2000/svg" width="16" height="16" viewBox="0 0 16 16"><defs>
</defs>
<path fill="#83888d" d="M0,3V8H5Z"/>
<path fill="#83888d" d="M4,5.38A4,4,0,0,1,10.86,7h2.05A6,6,0,0,0,6,2.1"/>
<path fill="#83888d" d="M14,13V8H9Z"/>
<path fill="#83888d" d="M10,10.62A4,4,0,0,1,3.14,9H1.09a6,6,0,0,0,10.37,3"/>
<path fill="#83888d" d="M7,4a4,4,0,0,1,3.86,3h2.05A6,6,0,0,0,1,8H3A4,4,0,0,1,7,4Z"/>
<path fill="#83888d" d="M7,12A4,4,0,0,1,3.14,9H1.09A6,6,0,0,0,13,8H11A4,4,0,0,1,7,12Z"/>
</svg>