<svg width="32" height="32" viewBox="0 0 32 32" fill="none" xmlns="http://www.w3.org/2000/svg">
<path d="M3.00013 4.5H29.0001C30.3808 4.5 31.5001 5.61929 31.5001 7V26.3442C31.5001 27.5348 30.5349 28.5 29.3443 28.5H2.6558C1.46518 28.5 0.500127 27.5347 0.500127 26.3442V7C0.500127 5.61929 1.61941 4.5 3.00013 4.5Z" fill="white" stroke="#333333"/>
<path fill-rule="evenodd" clip-rule="evenodd" d="M1 12H31V6.66939C31 5.75614 30.2803 5 29.3902 5H2.60985C1.72917 5 1 5.74632 1 6.66939V12Z" fill="#BDECFF"/>
<path fill-rule="evenodd" clip-rule="evenodd" d="M22 8.98901V7H3.86407C3.38931 7 3 7.45055 3 8C3 8.54945 3.38931 9 3.86407 9H22V8.98901Z" fill="#FEFEFE"/>
<path fill-rule="evenodd" clip-rule="evenodd" d="M3 8.5C3 7.74547 3.54709 7 4.36407 7H23V10H4.36407C3.54709 10 3 9.25453 3 8.5ZM4.36407 8C4.23152 8 4 8.15563 4 8.5C4 8.84437 4.23152 9 4.36407 9H22V8H4.36407Z" fill="#333333"/>
<path d="M27.6382 9.5H20.5V7.5H27.6382C28.0967 7.5 28.5 7.89535 28.5 8.5C28.5 9.10855 28.1084 9.5 27.6382 9.5Z" fill="url(#paint0_linear_125_5429)" stroke="#333333"/>
<path fill-rule="evenodd" clip-rule="evenodd" d="M29 14.4996C29 14.2234 29.2239 13.9996 29.5001 13.9996V13.9996C29.7762 13.9997 30 14.2235 30 14.4996V18.4998C30 18.7759 29.7761 18.9998 29.5 18.9998V18.9998C29.2239 18.9998 29 18.7759 29 18.4998V14.4996Z" fill="#AAAAAA"/>
<path fill-rule="evenodd" clip-rule="evenodd" d="M11.6056 12H31V12.9998H11.6056C10.7981 12.9998 10.7981 12 11.6056 12Z" fill="#333333"/>
<path d="M5.96737 11.711L6.2842 11.4311L6.61289 11.697L9.38607 13.9403V3.99541C9.38607 3.81405 9.40961 3.64887 9.45312 3.5H9.45097H9.44545H9.43995H9.43447H9.42901H9.42357H9.41815H9.41275H9.40737H9.40201H9.39667H9.39135H9.38605H9.38078H9.37552H9.37029H9.36508H9.3599H9.35473H9.34959H9.34447H9.33938H9.3343H9.32926H9.32423H9.31923H9.31426H9.30931H9.30438H9.29948H9.2946H9.28975H9.28493H9.28013H9.27536H9.27061H9.26589H9.2612H9.25653H9.25189H9.24728H9.2427H9.23814H9.23362H9.22912H9.22465H9.2202H9.21579H9.21141H9.20705H9.20273H9.19843H9.19417H9.18993H9.18573H9.18155H9.17741H9.1733H9.16922H9.16517H9.16115H9.15717H9.15322H9.1493H9.14541H9.14155H9.13773H9.13394H9.13019H9.12647H9.12278H9.11913H9.11551H9.11193H9.10838H9.10486H9.10138H9.09794H9.09453H9.09116H9.08783H9.08453H9.08126H9.07804H9.07485H9.0717H9.06859H9.06551H9.06247H9.05947H9.05651H9.05359H9.0507H9.04786H9.04505H9.04228H9.03955H9.03687H9.03422H9.03161H9.02905H9.02652H9.02403H9.02159H9.01919H9.01683H9.01451H9.01223H9.01H9.00781H9.00566H9.00355H9.00149H8.99947H8.99749H8.99556H8.99367H8.99182H8.99002H3.78301C3.61139 3.5 3.5 3.6358 3.5 3.75238V13.891L5.96737 11.711Z" fill="url(#paint1_linear_125_5429)" stroke="#333333"/>
<mask id="path-9-inside-1_125_5429" fill="white">
<path fill-rule="evenodd" clip-rule="evenodd" d="M9 3C9 3 9.00015 3.45696 9.00015 4H12V3.4999C12 3.22127 11.7 3 11.2569 3H9Z"/>
</mask>
<path d="M9 3L8 3.00033C7.99991 2.73506 8.10523 2.48062 8.29278 2.29301C8.48032 2.1054 8.73473 2 9 2V3ZM9.00015 4V5C8.44787 5 8.00015 4.55228 8.00015 4H9.00015ZM12 4H13C13 4.55228 12.5523 5 12 5V4ZM9 3C10 2.99967 10 2.99967 10 2.99968C10 2.99968 10 2.99968 10 2.99969C10 2.99971 10 2.99973 10 2.99975C10 2.99981 10 2.99989 10 3.00001C10 3.00023 10 3.00056 10 3.001C10 3.00189 10 3.0032 10 3.00495C10 3.00843 10 3.01361 10 3.02039C10 3.03396 10 3.05394 10 3.07961C10 3.13096 10.0001 3.20507 10.0001 3.29615C10.0001 3.47832 10.0002 3.72839 10.0002 4H8.00015C8.00015 3.72857 8.00011 3.47864 8.00008 3.29657C8.00006 3.20553 8.00004 3.13147 8.00002 3.08016C8.00002 3.05451 8.00001 3.03455 8.00001 3.021C8 3.01423 8 3.00906 8 3.00558C8 3.00384 8 3.00253 8 3.00165C8 3.00121 8 3.00088 8 3.00066C8 3.00055 8 3.00047 8 3.00041C8 3.00038 8 3.00036 8 3.00035C8 3.00034 8 3.00034 8 3.00034C8 3.00033 8 3.00033 9 3ZM9.00015 3H12V5H9.00015V3ZM11 4V3.4999H13V4H11ZM11 3.4999C11 3.75554 11.146 3.91279 11.2259 3.96802C11.2973 4.01735 11.3218 4 11.2569 4V2C11.635 2 12.0311 2.09328 12.3633 2.3229C12.704 2.55842 13 2.96562 13 3.4999H11ZM11.2569 4H9V2H11.2569V4Z" fill="#333333" mask="url(#path-9-inside-1_125_5429)"/>
<path fill-rule="evenodd" clip-rule="evenodd" d="M6.60085 5.84131L7.0685 7.37098H8.59668L7.36077 8.31164L7.83676 9.84131L6.60085 8.89186L5.36495 9.84131L5.84094 8.31164L4.59668 7.37098H6.12486L6.60085 5.84131Z" fill="#FEFEFE"/>
<path fill-rule="evenodd" clip-rule="evenodd" d="M6.65212 14.7586L6.07031 14.2544L5.51758 14.7586H6.65212Z" fill="#FEFEFE"/>
<path fill-rule="evenodd" clip-rule="evenodd" d="M13 16.5C13 16.2239 13.2239 16 13.5 16H25.5C25.7761 16 26 16.2239 26 16.5V16.5C26 16.7761 25.7761 17 25.5 17H13.5C13.2239 17 13 16.7761 13 16.5V16.5Z" fill="#333333"/>
<path fill-rule="evenodd" clip-rule="evenodd" d="M4 22.5C4 22.2239 4.22386 22 4.5 22H15.5C15.7761 22 16 22.2239 16 22.5V22.5C16 22.7761 15.7761 23 15.5 23H4.5C4.22386 23 4 22.7761 4 22.5V22.5Z" fill="#333333"/>
<path fill-rule="evenodd" clip-rule="evenodd" d="M4 24.5C4 24.2239 4.22386 24 4.5 24H20.5C20.7761 24 21 24.2239 21 24.5V24.5C21 24.7761 20.7761 25 20.5 25H4.5C4.22386 25 4 24.7761 4 24.5V24.5Z" fill="#333333"/>
<path fill-rule="evenodd" clip-rule="evenodd" d="M18 22.5C18 22.2239 18.2239 22 18.5 22H23.5C23.7761 22 24 22.2239 24 22.5V22.5C24 22.7761 23.7761 23 23.5 23H18.5C18.2239 23 18 22.7761 18 22.5V22.5Z" fill="#333333"/>
<path fill-rule="evenodd" clip-rule="evenodd" d="M4 18.5C4 18.2239 4.22386 18 4.5 18H11.5C11.7761 18 12 18.2239 12 18.5V18.5C12 18.7761 11.7761 19 11.5 19H4.5C4.22386 19 4 18.7761 4 18.5V18.5Z" fill="#333333"/>
<path fill-rule="evenodd" clip-rule="evenodd" d="M14 18.5C14 18.2239 14.2239 18 14.5 18H23.5C23.7761 18 24 18.2239 24 18.5V18.5C24 18.7761 23.7761 19 23.5 19H14.5C14.2239 19 14 18.7761 14 18.5V18.5Z" fill="#333333"/>
<path fill-rule="evenodd" clip-rule="evenodd" d="M4 20.5C4 20.2239 4.22386 20 4.5 20H26.5C26.7761 20 27 20.2239 27 20.5V20.5C27 20.7761 26.7761 21 26.5 21H4.5C4.22386 21 4 20.7761 4 20.5V20.5Z" fill="#333333"/>
<defs>
<linearGradient id="paint0_linear_125_5429" x1="24.5" y1="7" x2="24.5" y2="10" gradientUnits="userSpaceOnUse">
<stop stop-color="#FF8E3D"/>
<stop offset="1" stop-color="#FF6F3D"/>
</linearGradient>
<linearGradient id="paint1_linear_125_5429" x1="13.6193" y1="1.48056" x2="5.70573" y2="10.4386" gradientUnits="userSpaceOnUse">
<stop stop-color="#FFC671"/>
<stop offset="1" stop-color="#FF6F3D"/>
</linearGradient>
</defs>
</svg>
