<svg width="150" height="150" viewBox="0 0 150 150" fill="none" xmlns="http://www.w3.org/2000/svg">
<path fill-rule="evenodd" clip-rule="evenodd" d="M149 49V119.469C149 127 146.5 127 141.074 127H8.92608C3 127 1 127 1 119.469V49H149Z" fill="#FEFEFE"/>
<path fill-rule="evenodd" clip-rule="evenodd" d="M7 23H143C146.314 23 149 25.6863 149 29V122C149 125.314 146.314 128 143 128H7C3.68629 128 1 125.314 1 122V29C1 25.6863 3.68629 23 7 23ZM7 24H143C145.761 24 148 26.2386 148 29V122C148 124.761 145.761 127 143 127H7C4.23857 127 2 124.761 2 122V29C2 26.2386 4.23858 24 7 24Z" fill="#333333"/>
<path fill-rule="evenodd" clip-rule="evenodd" d="M99 83.5C99 83.2239 99.2239 83 99.5 83H134.5C134.776 83 135 83.2239 135 83.5C135 83.7761 134.776 84 134.5 84H99.5C99.2239 84 99 83.7761 99 83.5Z" fill="#333333"/>
<path fill-rule="evenodd" clip-rule="evenodd" d="M54 83.5C54 83.2239 54.2239 83 54.5 83H86.5C86.7761 83 87 83.2239 87 83.5C87 83.7761 86.7761 84 86.5 84H54.5C54.2239 84 54 83.7761 54 83.5Z" fill="#333333"/>
<path fill-rule="evenodd" clip-rule="evenodd" d="M59 73.5C59 73.2239 59.2239 73 59.5 73H133.5C133.776 73 134 73.2239 134 73.5C134 73.7761 133.776 74 133.5 74H59.5C59.2239 74 59 73.7761 59 73.5Z" fill="#333333"/>
<path fill-rule="evenodd" clip-rule="evenodd" d="M28 93.5C28 93.2239 28.2239 93 28.5 93H118.5C118.776 93 119 93.2239 119 93.5C119 93.7761 118.776 94 118.5 94H28.5C28.2239 94 28 93.7761 28 93.5Z" fill="#333333"/>
<path fill-rule="evenodd" clip-rule="evenodd" d="M16 103.5C16 103.224 16.2239 103 16.5 103H55.5C55.7761 103 56 103.224 56 103.5C56 103.776 55.7761 104 55.5 104H16.5C16.2239 104 16 103.776 16 103.5Z" fill="#333333"/>
<path fill-rule="evenodd" clip-rule="evenodd" d="M134 113.5C134 113.224 133.776 113 133.5 113H94.5C94.2239 113 94 113.224 94 113.5C94 113.776 94.2239 114 94.5 114H133.5C133.776 114 134 113.776 134 113.5Z" fill="#333333"/>
<path fill-rule="evenodd" clip-rule="evenodd" d="M67 103.5C67 103.224 67.2239 103 67.5 103H133.5C133.776 103 134 103.224 134 103.5C134 103.776 133.776 104 133.5 104H67.5C67.2239 104 67 103.776 67 103.5Z" fill="#333333"/>
<path fill-rule="evenodd" clip-rule="evenodd" d="M83 113.5C83 113.224 82.7761 113 82.5 113H16.5C16.2239 113 16 113.224 16 113.5C16 113.776 16.2239 114 16.5 114H82.5C82.7761 114 83 113.776 83 113.5Z" fill="#333333"/>
<path fill-rule="evenodd" clip-rule="evenodd" d="M59 61C59 60.4477 59.452 60 60.0095 60H110.99C111.548 60 112 60.4477 112 61C112 61.5523 111.548 62 110.99 62H60.0095C59.452 62 59 61.5523 59 61Z" fill="url(#paint0_linear_125_6620)"/>
<path d="M2 29C2 26.2386 4.23858 24 7 24H143C145.761 24 148 26.2386 148 29V49H2V29Z" fill="#BDECFF"/>
<path fill-rule="evenodd" clip-rule="evenodd" d="M55 49.5C55 49.2239 55.2252 49 55.503 49H139.497C139.775 49 140 49.2239 140 49.5C140 49.7761 139.775 50 139.497 50H55.503C55.2252 50 55 49.7761 55 49.5Z" fill="#333333"/>
<path fill-rule="evenodd" clip-rule="evenodd" d="M134 40C136.209 40 138 38.2091 138 36C138 33.7909 136.209 32 134 32H18C15.7909 32 14 34.6164 14 36.8255C14 39.0346 15.7908 40 18 40H134Z" fill="#FEFEFE"/>
<path fill-rule="evenodd" clip-rule="evenodd" d="M18 31H134C136.761 31 139 33.2386 139 36C139 38.7614 136.761 41 134 41H18C16.7701 41 15.5406 40.7342 14.59 40.0547C13.5941 39.3427 13 38.2411 13 36.8255C13 35.473 13.5384 34.0548 14.3824 32.9702C15.2229 31.8901 16.4851 31 18 31ZM138 36C138 38.2091 136.209 40 134 40H18C15.7908 40 14 39.0346 14 36.8255C14 34.6164 15.7909 32 18 32H134C136.209 32 138 33.7909 138 36Z" fill="#333333"/>
<path fill-rule="evenodd" clip-rule="evenodd" d="M134 40C136.209 40 138 38.2091 138 36C138 33.7909 136.209 32 134 32H111C111 34.2014 111 40 111 40H134Z" fill="url(#paint1_linear_125_6620)"/>
<path fill-rule="evenodd" clip-rule="evenodd" d="M110 31H134C136.761 31 139 33.2386 139 36C139 38.7614 136.761 41 134 41H110L110 40L111 40H134C136.209 40 138 38.2091 138 36C138 33.7909 136.209 32 134 32H111L111 40L110 40L110 31Z" fill="#333333"/>
<path fill-rule="evenodd" clip-rule="evenodd" d="M17.2884 20H38.8533C40.8884 20 43.8925 20 45 20C43.6571 20.5917 44 22.5 44 24V80L28 67L12 80V23.7673C12 21.6963 14.3811 20 17.2884 20Z" fill="url(#paint2_linear_125_6620)"/>
<path fill-rule="evenodd" clip-rule="evenodd" d="M45.9785 19.794C46.076 20.2567 45.836 20.7244 45.4032 20.9151C45.2214 20.9952 45.0579 21.1625 44.9903 21.7699C44.9572 22.0674 44.9561 22.408 44.967 22.7974C44.9702 22.9115 44.9747 23.0343 44.9793 23.1612C44.9893 23.4367 45 23.7318 45 24V80C45 80.3858 44.7781 80.7371 44.4298 80.9029C44.0814 81.0687 43.6688 81.0194 43.3694 80.7761L28 68.2885L12.6306 80.7761C12.3312 81.0194 11.9186 81.0687 11.5702 80.9029C11.2219 80.7371 11 80.3858 11 80V23.7673C11 22.3209 11.832 21.1059 12.9738 20.2925C14.1191 19.4767 15.6489 19 17.2884 19H45C45.4729 19 45.8811 19.3312 45.9785 19.794ZM28 67L44 80V24C44 23.7497 43.9905 23.4881 43.9808 23.2231C43.9523 22.443 43.9228 21.6338 44.1326 21C44.2787 20.5587 44.5408 20.2024 45 20H17.2884C14.3811 20 12 21.6963 12 23.7673V80L28 67Z" fill="#333333"/>
<path fill-rule="evenodd" clip-rule="evenodd" d="M47.4958 20C48.9874 20 50.0741 21.3333 49.9961 22H45C45 20 45 20 45 20H47.4958Z" fill="#333333"/>
<path fill-rule="evenodd" clip-rule="evenodd" d="M50.8858 23L50.9892 22.1163C51.0413 21.6713 50.8963 21.2535 50.7345 20.9434C50.5618 20.6127 50.3132 20.2944 50.0152 20.0175C49.4225 19.4666 48.5446 19 47.4958 19H43.9999V23H50.8858ZM49.996 21.8554C50.0012 21.9062 50.0013 21.9547 49.996 22H44.9999V20H47.4958C48.3862 20 49.1323 20.4752 49.5725 21C49.8196 21.2945 49.9702 21.6047 49.996 21.8554Z" fill="#333333"/>
<path fill-rule="evenodd" clip-rule="evenodd" d="M28.5051 34L31.2074 42.4212L40 42.4006L32.8758 47.5891L35.6088 56L28.5051 50.7805L21.3912 56L24.1344 47.5891L17 42.4006L25.8028 42.4212L28.5051 34Z" fill="#FEFEFE"/>
<defs>
<linearGradient id="paint0_linear_125_6620" x1="57.494" y1="59" x2="136.733" y2="59" gradientUnits="userSpaceOnUse">
<stop stop-color="#FF8E3D"/>
<stop offset="1" stop-color="#FF6F3D"/>
</linearGradient>
<linearGradient id="paint1_linear_125_6620" x1="111" y1="31.6875" x2="115.223" y2="46.4952" gradientUnits="userSpaceOnUse">
<stop stop-color="#FF8E3D"/>
<stop offset="1" stop-color="#FF6F3D"/>
</linearGradient>
<linearGradient id="paint2_linear_125_6620" x1="-10.9253" y1="13.5712" x2="24.3537" y2="68.12" gradientUnits="userSpaceOnUse">
<stop stop-color="#FFC671"/>
<stop offset="1" stop-color="#FF6F3D"/>
</linearGradient>
</defs>
</svg>
