<svg width="16" height="16" viewBox="0 0 16 16" fill="none" xmlns="http://www.w3.org/2000/svg">
<path d="M15.5 13.0934V12.1868V9.8196V7.7848V6.22344V5.90614V4.90385V3.80586C15.5 3.12244 14.9757 2.5 14.251 2.5H6.65716H5.0704H1.74903C1.02432 2.5 0.5 3.12244 0.5 3.80586V12.1868V13.0934C0.5 13.8332 1.06959 14.5 1.84266 14.5H14.1573C14.9304 14.5 15.5 13.8332 15.5 13.0934Z" fill="#FEFEFE" stroke="#333333"/>
<path fill-rule="evenodd" clip-rule="evenodd" d="M1 5.5H15V3.74917C15 3.37685 14.6684 3 14.2588 3H1.74123C1.3316 3 1 3.37685 1 3.74917V5.5Z" fill="#BDECFF"/>
<path d="M15 5H1V6H15V5Z" fill="#333333"/>
<path fill-rule="evenodd" clip-rule="evenodd" d="M7 7.5C7 7.22386 7.22386 7 7.5 7H13.5C13.7761 7 14 7.22386 14 7.5V7.5C14 7.77614 13.7761 8 13.5 8H7.5C7.22386 8 7 7.77614 7 7.5V7.5Z" fill="#333333"/>
<path fill-rule="evenodd" clip-rule="evenodd" d="M2 11.5C2 11.2239 2.22386 11 2.5 11H11.5C11.7761 11 12 11.2239 12 11.5V11.5C12 11.7761 11.7761 12 11.5 12H2.5C2.22386 12 2 11.7761 2 11.5V11.5Z" fill="#333333"/>
<path fill-rule="evenodd" clip-rule="evenodd" d="M7 9.5C7 9.22386 7.22386 9 7.5 9H8.5C8.77614 9 9 9.22386 9 9.5V9.5C9 9.77614 8.77614 10 8.5 10H7.5C7.22386 10 7 9.77614 7 9.5V9.5Z" fill="#333333"/>
<path fill-rule="evenodd" clip-rule="evenodd" d="M10 9.5C10 9.22386 10.2239 9 10.5 9H12H13.5C13.7761 9 14 9.22386 14 9.5V9.5C14 9.77614 13.7761 10 13.5 10H10.5C10.2239 10 10 9.77614 10 9.5V9.5Z" fill="#333333"/>
<path fill-rule="evenodd" clip-rule="evenodd" d="M5.01172 1L5.01175 2H6.99966V1.51613C6.99966 1.22581 6.74197 1 6.41065 1H5.01172Z" fill="#333333"/>
<path d="M3.64645 7.64645L2.5 8.79289V2.12309C2.5 1.89779 2.59176 1.76334 2.72572 1.66822C2.8785 1.55974 3.09757 1.5 3.30447 1.5H5.48508V8.78647L4.35487 7.64777C4.26123 7.55342 4.13387 7.50025 4.00094 7.5C3.868 7.49975 3.74044 7.55245 3.64645 7.64645Z" fill="url(#paint0_linear_125_6298)" stroke="#333333" stroke-linejoin="round"/>
<defs>
<linearGradient id="paint0_linear_125_6298" x1="2.00001" y1="0.648437" x2="8.95503" y2="3.93257" gradientUnits="userSpaceOnUse">
<stop stop-color="#FFC671"/>
<stop offset="0.59375" stop-color="#FF7541"/>
<stop offset="1" stop-color="#FF6F3D"/>
</linearGradient>
</defs>
</svg>
