<svg width="16" height="16" viewBox="0 0 16 16" fill="none" xmlns="http://www.w3.org/2000/svg">
<g clip-path="url(#clip0_125_6113)">
<path fill-rule="evenodd" clip-rule="evenodd" d="M7.42488 1.74018C6.87572 3.01393 6.33604 4.29762 5.79635 5.57136C4.38559 5.73058 2.9843 5.87985 1.57354 6.03906C0.0964998 6.19828 0.257459 6.03906 1.36524 7.09388C2.3878 8.05914 3.4009 9.0244 4.42346 9.98966C4.12995 11.4525 3.83643 12.9153 3.53345 14.3681C3.24941 15.7613 3.06951 15.7016 4.24357 14.9851C5.50284 14.2388 6.75264 13.4725 8.00244 12.7163C9.25224 13.4725 10.502 14.2288 11.7518 14.9951C12.8596 15.6618 12.7555 15.821 12.4904 14.5174C12.1874 13.0148 11.8844 11.5022 11.5719 9.99961C12.5566 9.0642 13.5413 8.1288 14.5355 7.20334C15.6717 6.12862 15.9841 6.22814 14.4787 6.05897C13.0585 5.89975 11.6288 5.74053 10.2085 5.59126C9.65937 4.30757 9.11969 3.02388 8.57053 1.73023C7.88882 0.0783469 8.11606 0.0982491 7.42488 1.74018Z" fill="url(#paint0_linear_125_6113)" stroke="#333333"/>
</g>
<defs>
<linearGradient id="paint0_linear_125_6113" x1="0.568678" y1="0.597994" x2="9.75479" y2="10.2253" gradientUnits="userSpaceOnUse">
<stop stop-color="#FFC671"/>
<stop offset="1" stop-color="#FF6F3D"/>
</linearGradient>
<clipPath id="clip0_125_6113">
<rect width="16" height="16" fill="white"/>
</clipPath>
</defs>
</svg>
