<svg xmlns="http://www.w3.org/2000/svg" width="18" height="11" viewBox="0 0 18 11"><defs><style>.a{fill:#3b72a7;}</style></defs><g transform="translate(0 0)"><path class="a" d="M9,98.725c-3.439,0-6.558,1.929-8.859,5.062a.745.745,0,0,0,0,.872c2.3,3.137,5.42,5.066,8.859,5.066s6.558-1.929,8.859-5.062a.745.745,0,0,0,0-.872C15.558,100.654,12.439,98.725,9,98.725Zm.247,9.373a3.882,3.882,0,0,1-.493-7.746,3.882,3.882,0,0,1,.493,7.746Zm-.114-1.789a2.09,2.09,0,1,1,1.9-1.952A2.061,2.061,0,0,1,9.133,106.309Z" transform="translate(0 -98.725)" fill="#3b72a7"/></g></svg>