<svg width="105" height="34" viewBox="0 0 105 34" fill="none" xmlns="http://www.w3.org/2000/svg">
<g filter="url(#filter0_dd)">
<path d="M102 1H3C1.89543 1 1 1.71634 1 2.6V30.4C1 31.2837 1.89543 32 3 32H102C103.105 32 104 31.2837 104 30.4V2.6C104 1.71634 103.105 1 102 1Z" fill="white"/>
<path d="M52.6406 20.308C52.2806 20.7774 51.7816 21.1329 51.1436 21.3744C50.5055 21.6159 49.7809 21.7367 48.9697 21.7367C48.1357 21.7367 47.3975 21.5476 46.7549 21.1693C46.1123 20.7911 45.6156 20.251 45.2646 19.5492C44.9183 18.8428 44.7383 18.0202 44.7246 17.0814V16.3021C44.7246 14.7982 45.0846 13.6247 45.8047 12.7816C46.5247 11.934 47.5296 11.5101 48.8193 11.5101C49.9268 11.5101 50.8063 11.7836 51.458 12.3304C52.1097 12.8773 52.5016 13.6657 52.6338 14.6957H50.9385C50.7471 13.4971 50.0521 12.8978 48.8535 12.8978C48.0788 12.8978 47.4886 13.1781 47.083 13.7386C46.682 14.2946 46.4746 15.1127 46.4609 16.1927V16.9584C46.4609 18.0339 46.6865 18.8702 47.1377 19.4672C47.5934 20.0596 48.2246 20.3558 49.0312 20.3558C49.9154 20.3558 50.5443 20.1553 50.918 19.7543V17.806H48.8672V16.4935H52.6406V20.308ZM54.0693 17.8334C54.0693 17.1088 54.2129 16.4571 54.5 15.8783C54.7871 15.295 55.1904 14.8483 55.71 14.5385C56.2295 14.224 56.8265 14.0668 57.501 14.0668C58.499 14.0668 59.3079 14.3881 59.9277 15.0306C60.5521 15.6732 60.8893 16.5254 60.9395 17.5873L60.9463 17.9769C60.9463 18.7061 60.805 19.3578 60.5225 19.932C60.2445 20.5062 59.8434 20.9506 59.3193 21.265C58.7998 21.5795 58.1982 21.7367 57.5146 21.7367C56.471 21.7367 55.6348 21.3903 55.0059 20.6976C54.3815 20.0004 54.0693 19.073 54.0693 17.9154V17.8334ZM55.7305 17.9769C55.7305 18.738 55.8877 19.335 56.2021 19.7679C56.5166 20.1963 56.9541 20.4105 57.5146 20.4105C58.0752 20.4105 58.5104 20.1918 58.8203 19.7543C59.1348 19.3168 59.292 18.6765 59.292 17.8334C59.292 17.086 59.1302 16.4935 58.8066 16.056C58.4876 15.6185 58.0524 15.3998 57.501 15.3998C56.9587 15.3998 56.528 15.6163 56.209 16.0492C55.89 16.4776 55.7305 17.1202 55.7305 17.9769ZM62.04 17.8334C62.04 17.1088 62.1836 16.4571 62.4707 15.8783C62.7578 15.295 63.1611 14.8483 63.6807 14.5385C64.2002 14.224 64.7972 14.0668 65.4717 14.0668C66.4697 14.0668 67.2786 14.3881 67.8984 15.0306C68.5228 15.6732 68.86 16.5254 68.9102 17.5873L68.917 17.9769C68.917 18.7061 68.7757 19.3578 68.4932 19.932C68.2152 20.5062 67.8141 20.9506 67.29 21.265C66.7705 21.5795 66.1689 21.7367 65.4854 21.7367C64.4417 21.7367 63.6055 21.3903 62.9766 20.6976C62.3522 20.0004 62.04 19.073 62.04 17.9154V17.8334ZM63.7012 17.9769C63.7012 18.738 63.8584 19.335 64.1729 19.7679C64.4873 20.1963 64.9248 20.4105 65.4854 20.4105C66.0459 20.4105 66.4811 20.1918 66.791 19.7543C67.1055 19.3168 67.2627 18.6765 67.2627 17.8334C67.2627 17.086 67.1009 16.4935 66.7773 16.056C66.4583 15.6185 66.0231 15.3998 65.4717 15.3998C64.9294 15.3998 64.4987 15.6163 64.1797 16.0492C63.8607 16.4776 63.7012 17.1202 63.7012 17.9769ZM70.0312 17.847C70.0312 16.6986 70.3001 15.7826 70.8379 15.099C71.3802 14.4108 72.098 14.0668 72.9912 14.0668C73.8343 14.0668 74.4974 14.3607 74.9805 14.9486L75.0557 14.2035H76.5527V21.3744C76.5527 22.3451 76.2497 23.1107 75.6436 23.6713C75.042 24.2318 74.2285 24.5121 73.2031 24.5121C72.6608 24.5121 72.1299 24.3982 71.6104 24.1703C71.0954 23.947 70.7035 23.653 70.4346 23.2885L71.2207 22.2904C71.7311 22.8965 72.36 23.1996 73.1074 23.1996C73.6589 23.1996 74.0941 23.0492 74.4131 22.7484C74.7321 22.4522 74.8916 22.0147 74.8916 21.4359V20.9369C74.4131 21.4701 73.7751 21.7367 72.9775 21.7367C72.1117 21.7367 71.403 21.3926 70.8516 20.7045C70.3047 20.0163 70.0312 19.0638 70.0312 17.847ZM71.6855 17.9906C71.6855 18.7334 71.8359 19.3191 72.1367 19.7474C72.4421 20.1713 72.8636 20.3832 73.4014 20.3832C74.0713 20.3832 74.568 20.0961 74.8916 19.5219V16.2679C74.5771 15.7074 74.085 15.4271 73.415 15.4271C72.8682 15.4271 72.4421 15.6436 72.1367 16.0765C71.8359 16.5095 71.6855 17.1475 71.6855 17.9906ZM80.0322 21.6H78.3711V11.1H80.0322V21.6ZM85.1045 21.7367C84.0518 21.7367 83.1973 21.4063 82.541 20.7455C81.8893 20.0801 81.5635 19.196 81.5635 18.0931V17.8881C81.5635 17.1498 81.7048 16.4913 81.9873 15.9125C82.2744 15.3291 82.6755 14.8757 83.1904 14.5521C83.7054 14.2286 84.2796 14.0668 84.9131 14.0668C85.9202 14.0668 86.6973 14.3881 87.2441 15.0306C87.7956 15.6732 88.0713 16.5824 88.0713 17.7582V18.4281H83.2383C83.2884 19.0388 83.4912 19.5219 83.8467 19.8773C84.2067 20.2328 84.6579 20.4105 85.2002 20.4105C85.9613 20.4105 86.5811 20.1029 87.0596 19.4877L87.9551 20.3422C87.6589 20.7842 87.2624 21.1283 86.7656 21.3744C86.2734 21.6159 85.7197 21.7367 85.1045 21.7367ZM84.9062 15.3998C84.4505 15.3998 84.0814 15.5593 83.7988 15.8783C83.5208 16.1973 83.3431 16.6416 83.2656 17.2113H86.4307V17.0883C86.3942 16.5323 86.2461 16.113 85.9863 15.8304C85.7266 15.5433 85.3665 15.3998 84.9062 15.3998Z" fill="#666666"/>
<path d="M30.0002 17.2067C30.0002 16.5949 29.9496 15.9798 29.8416 15.3779H21.1807V18.8437H26.1404C25.9346 19.9614 25.2733 20.9502 24.3049 21.5786V23.8273H27.2639C29.0015 22.2598 30.0002 19.9449 30.0002 17.2067Z" fill="#4285F4"/>
<path d="M21.1807 26C23.6571 26 25.7456 25.203 27.2673 23.8273L24.3083 21.5786C23.4851 22.1275 22.4223 22.4384 21.184 22.4384C18.7885 22.4384 16.7574 20.8543 16.0286 18.7246H12.9752V21.0428C14.534 24.082 17.7089 26 21.1807 26Z" fill="#34A853"/>
<path d="M16.0252 18.7246C15.6406 17.6068 15.6406 16.3964 16.0252 15.2787V12.9604H12.9752C11.6728 15.5035 11.6728 18.4997 12.9752 21.0428L16.0252 18.7246Z" fill="#FBBC04"/>
<path d="M21.1806 11.5616C22.4897 11.5418 23.755 12.0246 24.703 12.9109L27.3246 10.3414C25.6646 8.81352 23.4614 7.97354 21.1806 8C17.7089 8 14.534 9.91806 12.9752 12.9605L16.0253 15.2787C16.7507 13.1457 18.7851 11.5616 21.1806 11.5616Z" fill="#EA4335"/>
</g>
<defs>
<filter id="filter0_dd" x="0" y="0" width="105" height="34" filterUnits="userSpaceOnUse" color-interpolation-filters="sRGB">
<feFlood flood-opacity="0" result="BackgroundImageFix"/>
<feColorMatrix in="SourceAlpha" type="matrix" values="0 0 0 0 0 0 0 0 0 0 0 0 0 0 0 0 0 0 127 0"/>
<feOffset dy="1"/>
<feGaussianBlur stdDeviation="0.5"/>
<feColorMatrix type="matrix" values="0 0 0 0 0 0 0 0 0 0 0 0 0 0 0 0 0 0 0.168 0"/>
<feBlend mode="normal" in2="BackgroundImageFix" result="effect1_dropShadow"/>
<feColorMatrix in="SourceAlpha" type="matrix" values="0 0 0 0 0 0 0 0 0 0 0 0 0 0 0 0 0 0 127 0"/>
<feOffset/>
<feGaussianBlur stdDeviation="0.5"/>
<feColorMatrix type="matrix" values="0 0 0 0 0 0 0 0 0 0 0 0 0 0 0 0 0 0 0.084 0"/>
<feBlend mode="normal" in2="effect1_dropShadow" result="effect2_dropShadow"/>
<feBlend mode="normal" in="SourceGraphic" in2="effect2_dropShadow" result="shape"/>
</filter>
</defs>
</svg>
