<svg width="12" height="12" viewBox="0 0 12 12" fill="none" xmlns="http://www.w3.org/2000/svg">
<rect x="1" y="1" width="10" height="10" fill="#E6A610"/>
<path d="M10 0H2C1.46957 0 0.960859 0.210714 0.585786 0.585786C0.210714 0.960859 0 1.46957 0 2L0 10C0 10.5304 0.210714 11.0391 0.585786 11.4142C0.960859 11.7893 1.46957 12 2 12H10C10.5304 12 11.0391 11.7893 11.4142 11.4142C11.7893 11.0391 12 10.5304 12 10V2C12 1.46957 11.7893 0.960859 11.4142 0.585786C11.0391 0.210714 10.5304 0 10 0V0ZM11 10C11 10.2652 10.8946 10.5196 10.7071 10.7071C10.5196 10.8946 10.2652 11 10 11H2C1.73478 11 1.48043 10.8946 1.29289 10.7071C1.10536 10.5196 1 10.2652 1 10V2C1 1.73478 1.10536 1.48043 1.29289 1.29289C1.48043 1.10536 1.73478 1 2 1H10C10.2652 1 10.5196 1.10536 10.7071 1.29289C10.8946 1.48043 11 1.73478 11 2V10Z" fill="#E29A0E"/>
<path fill-rule="evenodd" clip-rule="evenodd" d="M8.41422 8.41421C8.78929 8.03914 9 7.53043 9 7V5C9 4.46957 8.78929 3.96086 8.41422 3.58579C8.03914 3.21071 7.53043 3 7 3H5C4.46957 3 3.96086 3.21071 3.58579 3.58579C3.21071 3.96086 3 4.46957 3 5V7C3 7.53043 3.21071 8.03914 3.58579 8.41421C3.96086 8.78929 4.46957 9 5 9H7C7.53043 9 8.03914 8.78929 8.41422 8.41421ZM5 4H7C7.55228 4 8 4.44772 8 5V7C8 7.55228 7.55228 8 7 8H5C4.44772 8 4 7.55228 4 7V5C4 4.44772 4.44772 4 5 4Z" fill="white"/>
</svg>
