<svg xmlns="http://www.w3.org/2000/svg" width="16" height="16" viewBox="0 0 16 16"><defs></defs><title>Twitter_icon</title>
<path fill="#83888d" d="M2,16H14a2,2,0,0,0,2-2V2a2,2,0,0,0-2-2H2A2,2,0,0,0,0,2V14A2,2,0,0,0,2,16ZM4,9.12a2.06,2.06,0,0,0,.42,0A2.24,2.24,0,0,0,5,9.08,2.22,2.22,0,0,1,3.22,6.91v0a2.18,2.18,0,0,0,1,.28,2.21,2.21,0,0,1-1-1.84,2.18,2.18,0,0,1,.3-1.12A6.28,6.28,0,0,0,8.1,6.51,2.12,2.12,0,0,1,8,6a2.22,2.22,0,0,1,3.83-1.52A4.47,4.47,0,0,0,13.29,4a2.21,2.21,0,0,1-1,1.22,4.46,4.46,0,0,0,1.27-.35A4.56,4.56,0,0,1,12.48,6v.29a6.3,6.3,0,0,1-9.7,5.31,4,4,0,0,0,.53,0,4.45,4.45,0,0,0,2.75-1A2.22,2.22,0,0,1,4,9.12Z"/></svg>