<svg width="16" height="16" viewBox="0 0 16 16" fill="none" xmlns="http://www.w3.org/2000/svg">
<path fill-rule="evenodd" clip-rule="evenodd" d="M0 2C0 0.895386 0.895432 0 2 0H14C15.1046 0 16 0.895386 16 2V14C16 15.1046 15.1046 16 14 16H2C0.895432 16 0 15.1046 0 14V2ZM3.56 3.80005L3 3H3.97652H5.95758H6L8.70968 6.87097L8.8125 6.75L9.875 5.5L10.2944 5.00659L12 3H12.0942H13L12.5806 3.49341L12.15 4L10.875 5.5L10.4556 5.99341L9.41406 7.21875L9.39305 7.24341L9.16129 7.51611L12.44 12.2L13 13H12.0235H10.0436H10L7.51613 9.45166L7.26805 9.74341L6.625 10.5L6.20555 10.9934L4.5 13H4.31123H3.51558H3.5L3.91945 12.5066L4.35 12L5.625 10.5L6.04445 10.0066L6.55469 9.40625L6.6875 9.25L7.05849 8.81348L3.56 3.80005ZM4.53653 3.80005L10.4165 12.2H11.4635L5.58348 3.80005H4.53653Z" fill="#83888D" style="fill:#83888D;fill:color(display-p3 0.5137 0.5333 0.5529);fill-opacity:1;"/>
</svg>
