<svg width="12" height="13" viewBox="0 0 12 13" fill="none" xmlns="http://www.w3.org/2000/svg">
<path d="M0.947174 1.5C1.04808 2.00458 1.34961 2.00298 1.83701 2.00039C1.87273 2.0002 1.90945 2 1.94717 2C1.98488 2 2.02161 2.00019 2.05731 2.00038C2.54475 2.00294 2.84619 2.00452 2.9471 1.5C3.08517 0.809662 1.94717 0 1.94717 0C1.94717 0 0.809097 0.809647 0.947174 1.5Z" fill="#EE831A"/>
<path d="M1 3H3V5H5V3H7V5H9V3H11V5.26756C11.3804 5.48759 11.6815 5.82929 11.8503 6.23945L10.4472 6.94098L8.67085 6.05279C8.53009 5.9824 8.3644 5.9824 8.22363 6.05279L6.44724 6.94098L4.67085 6.05279C4.53009 5.9824 4.3644 5.9824 4.22363 6.05279L2.44724 6.94098L0.670853 6.05279C0.536514 5.98562 0.379471 5.98255 0.243073 6.04359C0.419281 5.72059 0.681961 5.45154 1 5.26756V3Z" fill="#EE831A"/>
<path d="M5.8371 2.00039C5.3497 2.00298 5.04808 2.00458 4.94717 1.5C4.8091 0.809647 5.94717 0 5.94717 0C5.94717 0 7.08517 0.809662 6.9471 1.5C6.84619 2.00452 6.54485 2.00294 6.05754 2.00038C6.02174 2.00019 5.985 2 5.94727 2C5.92973 2 5.9124 2.00005 5.89529 2.00011C5.87561 2.00018 5.85622 2.00029 5.8371 2.00039Z" fill="#EE831A"/>
<path d="M8.95889 1.5C9.0598 2.00452 9.35118 2.00298 9.83711 2.00039C9.87279 2.0002 9.9095 2 9.94727 2C9.98497 2 10.0217 2.00019 10.0576 2.00038C10.5463 2.00294 10.8579 2.00457 10.9588 1.5C11.0969 0.809662 9.95889 0 9.95889 0C9.95889 0 8.82082 0.809647 8.95889 1.5Z" fill="#EE831A"/>
<path d="M10.6709 7.94721L12 7.28263V9.1646L10.4472 9.94098L8.67085 9.05279C8.53009 8.9824 8.3644 8.9824 8.22363 9.05279L6.44724 9.94098L4.67085 9.05279C4.53009 8.9824 4.3644 8.9824 4.22363 9.05279L2.44724 9.94098L0.670853 9.05279C0.530075 8.9824 0.364395 8.9824 0.223633 9.05279L0 9.1646V7.28263L0.447235 7.05901L2.22363 7.94721C2.3644 8.01759 2.53008 8.01759 2.67085 7.94721L4.44724 7.05901L6.22363 7.94721C6.3644 8.01759 6.53009 8.01759 6.67085 7.94721L8.44724 7.05901L10.2236 7.94721C10.3644 8.01759 10.5301 8.01759 10.6709 7.94721Z" fill="#EE831A"/>
<path d="M10.6709 10.9472L12 10.2826V11C12 12.1046 11.1046 13 10 13H2C0.895432 13 0 12.1046 0 11V10.2826L0.447235 10.059L2.22363 10.9472C2.3644 11.0176 2.53008 11.0176 2.67085 10.9472L4.44724 10.059L6.22363 10.9472C6.3644 11.0176 6.53009 11.0176 6.67085 10.9472L8.44724 10.059L10.2236 10.9472C10.3644 11.0176 10.5301 11.0176 10.6709 10.9472Z" fill="#EE831A"/>
</svg>
