<svg width="100" height="100" viewBox="0 0 100 100" fill="none" xmlns="http://www.w3.org/2000/svg">
<g clip-path="url(#clip0_1_4365)">
<path fill-rule="evenodd" clip-rule="evenodd" d="M71.5819 8H23.409C20.4378 8 18.0005 10.4015 18.0005 13.3289V85.6711C18.0005 88.5985 20.4378 91 23.409 91H71.592C74.5631 91 77.0005 88.5985 77.0005 85.6711V13.3289C76.9904 10.3916 74.5631 8 71.5819 8Z" fill="#EFEFEF"/>
<path fill-rule="evenodd" clip-rule="evenodd" d="M78.0005 13.3255L78.0005 13.3289L78.0005 85.6711C78.0005 89.1647 75.1014 92 71.592 92H23.409C19.8996 92 17.0005 89.1647 17.0005 85.6711V13.3289C17.0005 9.83527 19.8996 7 23.409 7H71.5819C75.1021 7 77.9885 9.82529 78.0005 13.3255ZM77.0005 13.3289V85.6711C77.0005 88.5985 74.5631 91 71.592 91H23.409C20.4378 91 18.0005 88.5985 18.0005 85.6711V13.3289C18.0005 10.4015 20.4378 8 23.409 8H71.5819C74.5631 8 76.9904 10.3916 77.0005 13.3289Z" fill="#333333"/>
<path fill-rule="evenodd" clip-rule="evenodd" d="M70.5004 17.0005C70.5004 15.3436 69.1573 14.0005 67.5004 14.0005L27.5005 14.0003C25.8436 14.0003 24.5005 15.3434 24.5005 17.0003L24.5006 82.0001C24.5006 83.657 25.8437 85.0001 27.5006 85.0001H67.5004C69.1573 85.0001 70.5004 83.657 70.5004 82.0001V17.0005Z" fill="#FEFEFE"/>
<path fill-rule="evenodd" clip-rule="evenodd" d="M67.5004 15.0005L27.5005 15.0003C26.3959 15.0003 25.5005 15.8957 25.5005 17.0003L25.5006 82.0001C25.5006 83.1047 26.396 84.0001 27.5006 84.0001H67.5004C68.605 84.0001 69.5004 83.1047 69.5004 82.0001V17.0005C69.5004 15.8959 68.605 15.0005 67.5004 15.0005ZM67.5004 14.0005C69.1573 14.0005 70.5004 15.3436 70.5004 17.0005V82.0001C70.5004 83.657 69.1573 85.0001 67.5004 85.0001H27.5006C25.8437 85.0001 24.5006 83.657 24.5006 82.0001L24.5005 17.0003C24.5005 15.3434 25.8436 14.0003 27.5005 14.0003L67.5004 14.0005Z" fill="#333333"/>
<path fill-rule="evenodd" clip-rule="evenodd" d="M54.0197 33.4399C53.7997 35.7099 52.4397 37.6399 50.5097 38.6499V41.2299C53.1997 41.7199 55.5197 42.8299 57.2497 44.2299C59.0897 42.0199 60.1997 39.1799 60.1997 36.0799C60.1997 29.0499 54.4997 23.3499 47.4697 23.3499C40.4397 23.3499 34.7397 29.0499 34.7397 36.0799C34.7397 39.1599 35.8297 41.9799 37.6497 44.1799C39.3897 42.7899 41.7097 41.6899 44.3997 41.2099V38.6399C42.4997 37.6499 41.1497 35.7599 40.8997 33.5299C40.8697 33.2899 40.8597 33.0399 40.8597 32.7799C40.8597 29.1299 43.8197 26.1799 47.4597 26.1799C51.1097 26.1799 54.0597 29.1399 54.0597 32.7799C54.0597 33.0099 54.0397 33.2299 54.0197 33.4399Z" fill="#EFEFEF"/>
<path fill-rule="evenodd" clip-rule="evenodd" d="M47.7101 29.13C48.9701 31.27 51.9501 33.74 54.0201 33.45C54.0401 33.24 54.0501 33.02 54.0501 32.8C54.0501 29.15 51.0901 26.2 47.4501 26.2C43.8001 26.2 40.8501 29.16 40.8501 32.8C40.8501 33.05 40.8601 33.3 40.8901 33.55C42.8801 33.52 46.1401 32.18 47.7101 29.13Z" fill="#AAAAAA"/>
<path fill-rule="evenodd" clip-rule="evenodd" d="M54.0201 33.4399C51.9401 33.7399 48.9701 31.2599 47.7101 29.1199C46.1401 32.1699 42.8801 33.5099 40.8901 33.5299C41.2601 36.8299 44.0601 39.3899 47.4501 39.3899C50.8801 39.3999 53.7001 36.7899 54.0201 33.4399Z" fill="white"/>
<path fill-rule="evenodd" clip-rule="evenodd" d="M50.2701 42.55L50.4301 42.33C50.5101 42.23 50.5101 42.18 50.5101 41.94V41.23V37.74C49.5901 38.22 48.5501 38.49 47.4501 38.49C46.3401 38.49 45.3001 38.22 44.3901 37.74V37.84V41.22V41.94C44.3901 42.18 44.3901 42.23 44.4701 42.33L44.6301 42.55C45.3701 43.53 46.2001 44.38 46.9901 45.44C47.1801 45.7 47.3101 45.82 47.4601 45.78C47.6101 45.81 47.7301 45.69 47.9301 45.43C48.7001 44.38 49.5301 43.53 50.2701 42.55Z" fill="white"/>
<path fill-rule="evenodd" clip-rule="evenodd" d="M50.4401 42.3298C49.6558 43.4082 48.7205 44.3658 47.9301 45.4398C47.7401 45.6998 47.6101 45.8198 47.4601 45.7898C47.3101 45.8198 47.1801 45.6998 46.9901 45.4498C46.1985 44.374 45.2558 43.42 44.4701 42.3398C44.3901 42.2398 44.3901 42.1898 44.3901 41.9498V41.2298C41.7001 41.7098 39.3801 42.7998 37.6401 44.1998C39.9801 47.0298 43.5101 48.8398 47.4701 48.8398C51.4001 48.8398 54.9201 47.0498 57.2601 44.2498C55.5301 42.8398 53.2101 41.7398 50.5201 41.2498V41.9598C50.5201 42.1798 50.5101 42.2298 50.4401 42.3298Z" fill="#BDECFF"/>
<path fill-rule="evenodd" clip-rule="evenodd" d="M47.4501 25.7C49.4101 25.7 51.1901 26.5 52.4701 27.78C53.7501 29.06 54.5501 30.84 54.5501 32.8C54.5501 34.76 53.7501 36.54 52.4701 37.82C51.1901 39.11 49.4101 39.9 47.4501 39.9C45.4901 39.9 43.7101 39.11 42.4301 37.82C41.1501 36.54 40.3501 34.76 40.3501 32.8C40.3501 30.84 41.1501 29.06 42.4301 27.78C43.7201 26.49 45.4901 25.7 47.4501 25.7ZM51.7701 28.48C50.6701 27.37 49.1401 26.69 47.4501 26.69C45.7601 26.69 44.2401 27.37 43.1301 28.48C42.0301 29.59 41.3401 31.11 41.3401 32.8C41.3401 34.49 42.0201 36.01 43.1301 37.12C44.2301 38.22 45.7601 38.91 47.4501 38.91C49.1401 38.91 50.6601 38.23 51.7701 37.12C52.8801 36.01 53.5601 34.49 53.5601 32.8C53.5601 31.11 52.8801 29.58 51.7701 28.48Z" fill="#333333"/>
<path fill-rule="evenodd" clip-rule="evenodd" d="M40.8901 33.0499C41.9101 33.0399 43.3101 32.6399 44.6201 31.7999C45.6601 31.1299 46.6301 30.1699 47.2801 28.8999L47.6901 28.0999L48.1501 28.8699C48.7901 29.9599 49.9101 31.1399 51.1101 31.9699C52.1001 32.6499 53.1401 33.0699 53.9701 32.9499L54.1101 33.9299C53.0101 34.0899 51.7401 33.5899 50.5601 32.7899C49.4901 32.0599 48.4801 31.0599 47.7601 30.0699C47.0501 31.1599 46.1401 32.0099 45.1701 32.6299C43.7001 33.5799 42.1001 34.0299 40.9101 34.0399L40.8901 33.0499Z" fill="#333333"/>
<path fill-rule="evenodd" clip-rule="evenodd" d="M44.8799 38.6499V42.0699L45.0199 42.2599C45.3699 42.7199 45.7299 43.1499 46.0999 43.5799C46.5299 44.0799 46.9599 44.5999 47.3799 45.1499L47.4499 45.2399L47.5199 45.1499C47.9399 44.5799 48.3699 44.0799 48.7899 43.5799C49.1599 43.1499 49.5199 42.7199 49.8699 42.2599L50.0099 42.0699V38.6499H50.9999V41.9399C50.9999 42.0799 50.9999 42.1699 50.9799 42.2799C50.9499 42.4299 50.9099 42.5199 50.8199 42.6299L50.6599 42.8499C50.3099 43.3199 49.9299 43.7699 49.5399 44.2199C49.1299 44.6999 48.7099 45.1899 48.3099 45.7299C48.1899 45.8999 48.0799 46.0199 47.9699 46.1099C47.7999 46.2399 47.6399 46.2999 47.4499 46.2799C47.2599 46.2999 47.0999 46.2399 46.9299 46.1099C46.8199 46.0199 46.7099 45.8999 46.5899 45.7299C46.1799 45.1799 45.7599 44.6899 45.3599 44.2099C44.9699 43.7599 44.5899 43.3099 44.2399 42.8399L44.0799 42.6199C43.9899 42.4999 43.9499 42.4099 43.9199 42.2699C43.8999 42.1599 43.8999 42.0799 43.8999 41.9299V38.6399H44.8799V38.6499Z" fill="#333333"/>
<path fill-rule="evenodd" clip-rule="evenodd" d="M44.4998 41.7C43.2198 41.93 42.0298 42.29 40.9498 42.76C39.8198 43.26 38.7998 43.87 37.9398 44.56L37.3198 43.79C38.2498 43.05 39.3298 42.38 40.5498 41.85C41.6998 41.35 42.9698 40.95 44.3198 40.72L44.4998 41.7ZM56.9398 44.61C56.0798 43.91 55.0698 43.29 53.9398 42.79C52.8598 42.31 51.6698 41.94 50.3898 41.71L50.5598 40.74C51.9098 40.98 53.1798 41.38 54.3298 41.89C55.5498 42.43 56.6298 43.1 57.5498 43.85L56.9398 44.61Z" fill="#333333"/>
<path fill-rule="evenodd" clip-rule="evenodd" d="M47.4705 22.8602C51.1205 22.8602 54.4305 24.3402 56.8205 26.7402C59.2105 29.1302 60.6905 32.4402 60.6905 36.0902C60.6905 39.7402 59.2105 43.0502 56.8205 45.4402C54.4305 47.8302 51.1205 49.3102 47.4705 49.3102C43.8205 49.3102 40.5105 47.8302 38.1205 45.4402C35.7305 43.0502 34.2505 39.7402 34.2505 36.0902C34.2505 32.4402 35.7305 29.1302 38.1205 26.7402C40.5105 24.3402 43.8105 22.8602 47.4705 22.8602ZM56.1205 27.4302C53.9105 25.2202 50.8505 23.8502 47.4705 23.8502C44.0905 23.8502 41.0305 25.2202 38.8205 27.4302C36.6105 29.6402 35.2405 32.7002 35.2405 36.0802C35.2405 39.4602 36.6105 42.5202 38.8205 44.7302C41.0305 46.9402 44.0905 48.3102 47.4705 48.3102C50.8505 48.3102 53.9105 46.9402 56.1205 44.7302C58.3305 42.5202 59.7005 39.4602 59.7005 36.0802C59.7005 32.7102 58.3305 29.6502 56.1205 27.4302Z" fill="#333333"/>
<path d="M35.5005 66.4998L59.5005 66.4998" stroke="#333333" stroke-linecap="round"/>
<path d="M40.5005 71.4998L54.5005 71.4998" stroke="#333333" stroke-linecap="round"/>
<path d="M35.5005 61.4998L59.5005 61.4998" stroke="#333333" stroke-linecap="round"/>
<path d="M39.0005 55.9998L56.0005 55.9998" stroke="url(#paint0_linear_1_4365)" stroke-width="2" stroke-linecap="round"/>
<path fill-rule="evenodd" clip-rule="evenodd" d="M81.0005 85.0047C81.0005 77.9684 75.0529 71.9998 67.9956 71.9998C60.8172 71.9998 55.0005 77.8165 55.0005 84.9949C55.0102 92.1831 60.8269 97.9998 68.0054 97.9998C75.1838 97.9998 81.0005 92.1831 81.0005 85.0047Z" fill="url(#paint1_linear_1_4365)"/>
<path fill-rule="evenodd" clip-rule="evenodd" d="M54.0005 84.9963L54.0005 84.9949C54.0005 77.2642 60.2649 70.9998 67.9956 70.9998C75.6062 70.9998 82.0005 77.4171 82.0005 85.0047C82.0005 92.7354 75.7361 98.9998 68.0054 98.9998C60.2739 98.9998 54.011 92.735 54.0005 84.9963ZM67.9956 71.9998C75.0529 71.9998 81.0005 77.9684 81.0005 85.0047C81.0005 92.1831 75.1838 97.9998 68.0054 97.9998C60.8269 97.9998 55.0102 92.1831 55.0005 84.9949C55.0005 77.8165 60.8172 71.9998 67.9956 71.9998Z" fill="#333333"/>
<path d="M70.7059 77.7519C70.7059 78.7937 69.8203 79.6479 68.7859 79.6479C67.7419 79.6479 66.8899 78.7959 66.8899 77.7519C66.8899 76.7175 67.7441 75.8319 68.7859 75.8319C69.8181 75.8319 70.7059 76.7198 70.7059 77.7519ZM64.5859 90.2079C64.5859 89.9999 64.6019 89.7679 64.6339 89.5119C64.6659 89.2399 64.7139 88.9519 64.7779 88.6479L66.126 82.2841C66.2915 81.5028 66.9812 80.9439 67.7799 80.9439C68.8545 80.9439 69.6564 81.9334 69.4338 82.9847L68.1379 89.1039C68.1059 89.2479 68.0819 89.3839 68.0659 89.5119C68.0499 89.6239 68.0419 89.7439 68.0419 89.8719C68.0419 90.1919 68.1139 90.4239 68.2579 90.5679C68.4179 90.6959 68.6739 90.7599 69.0259 90.7599C69.4739 90.7599 69.8979 90.5679 70.2979 90.1839C70.6258 89.8561 70.8837 89.453 71.0718 88.9747C71.1472 88.7832 71.3264 88.6479 71.5322 88.6479C71.8554 88.6479 72.0816 88.9676 71.9572 89.266C71.4763 90.4202 70.8672 91.3182 70.1299 91.9599C69.2659 92.7119 68.2739 93.0879 67.1539 93.0879C66.3539 93.0879 65.7219 92.8399 65.2579 92.3439C64.8099 91.8319 64.5859 91.1199 64.5859 90.2079Z" fill="white"/>
<path d="M43.7101 4.50192H33.4529C32.391 4.50192 31.5005 5.34514 31.5005 6.42477V9.57715C31.5005 10.6445 32.3887 11.5 33.4529 11.5H61.5481C62.6123 11.5 63.5005 10.6445 63.5005 9.57715V6.42477C63.5005 5.35743 62.6123 4.50192 61.5481 4.50192H51.291C51.042 2.6609 49.4369 1.24541 47.5005 1.24541C45.5743 1.24541 43.9605 2.66017 43.7101 4.50192Z" fill="url(#paint2_linear_1_4365)" stroke="#333333"/>
</g>
<defs>
<linearGradient id="paint0_linear_1_4365" x1="36.0005" y1="55.87" x2="60.0005" y2="55.87" gradientUnits="userSpaceOnUse">
<stop stop-color="#FF8E3D"/>
<stop offset="1" stop-color="#FF6F3D"/>
</linearGradient>
<linearGradient id="paint1_linear_1_4365" x1="68.0005" y1="71.9998" x2="68.0005" y2="97.9998" gradientUnits="userSpaceOnUse">
<stop stop-color="#FF8E3D"/>
<stop offset="1" stop-color="#FF6F3D"/>
</linearGradient>
<linearGradient id="paint2_linear_1_4365" x1="33.3816" y1="-8.61803" x2="49.2713" y2="9.24716" gradientUnits="userSpaceOnUse">
<stop stop-color="#FFC671"/>
<stop offset="1" stop-color="#FF6F3D"/>
</linearGradient>
<clipPath id="clip0_1_4365">
<rect width="100" height="100" fill="white"/>
</clipPath>
</defs>
</svg>
