<svg width="24" height="24" viewBox="0 0 24 24" fill="none" xmlns="http://www.w3.org/2000/svg">
<path d="M9.36397 8.12141C9.75449 7.73089 9.75449 7.09772 9.36397 6.7072C8.97344 6.31668 8.34028 6.31668 7.94975 6.7072L3.55027 11.1067C3.09375 11.5586 3 11.6342 3 12.0001C3 12.3719 3.25 12.5547 3.55027 12.8935L7.94975 17.293C8.34028 17.6835 8.97344 17.6835 9.36397 17.293C9.75449 16.9025 9.75449 16.2693 9.36397 15.8788L6.48529 13.0001H20C20.5523 13.0001 21 12.5524 21 12.0001C21 11.4478 20.5523 11.0001 20 11.0001H6.48529L9.36397 8.12141Z" fill="#333333"/>
</svg>
