<svg width="24" height="24" viewBox="0 0 24 24" fill="none" xmlns="http://www.w3.org/2000/svg">
<g clip-path="url(#clip0)">
<mask id="path-1-outside-1" maskUnits="userSpaceOnUse" x="-1" y="-0.999512" width="26" height="26" fill="black">
<rect fill="white" x="-1" y="-0.999512" width="26" height="26"/>
<path fill-rule="evenodd" clip-rule="evenodd" d="M9.82853 0.000488281L11.3637 1.8386H12.6363L14.171 0.00102581L14.4183 0.0520559C15.3043 0.234854 16.1524 0.523243 16.9538 0.888999L17.1856 0.994755L17.365 3.39627L18.3949 4.15652L20.6957 3.58747L20.8663 3.77757C21.4646 4.44426 21.9893 5.18022 22.4318 5.96954L22.5572 6.19311L21.3148 8.24282L21.7076 9.47378L23.8968 10.3896L23.9248 10.6452C23.9734 11.0898 24 11.54 24 12C24 12.4599 23.9734 12.9101 23.9248 13.3547L23.8968 13.6103L21.7072 14.5263L21.3129 15.7553L22.555 17.8046L22.4297 18.0282C21.9872 18.8175 21.4625 19.5535 20.8641 20.2202L20.6935 20.4103L18.3928 19.8412L17.3628 20.6015L17.1835 23.002L16.953 23.1082C16.1522 23.4769 15.304 23.7629 14.4194 23.9477L14.1715 23.9994L12.6363 22.1613H11.3637L9.82853 23.9994L9.58065 23.9477C8.69604 23.7629 7.84781 23.4769 7.04701 23.1082L6.8165 23.002L6.63721 20.602L5.60556 19.8433L3.30434 20.4125L3.13373 20.2224C2.53539 19.5557 2.01068 18.8197 1.56817 18.0304L1.44283 17.8068L2.68522 15.7571L2.29237 14.5261L0.103176 13.6103L0.0752299 13.3547C0.0266278 12.9101 0 12.4599 0 12C0 11.54 0.0266278 11.0898 0.0752299 10.6452L0.103215 10.3892L2.2946 9.47565L2.68735 8.24499L1.44496 6.19528L1.5703 5.97171C2.01253 5.18289 2.53516 4.4466 3.1364 3.77915L3.30699 3.58977L5.60725 4.15869L6.63718 3.39844L6.8165 0.9979L7.04701 0.891764C7.84781 0.523029 8.69604 0.237041 9.58065 0.0522649L9.82853 0.000488281ZM14.4935 0.956708L13.0317 2.70691H10.9683L9.5069 0.957152C8.85849 1.10861 8.23105 1.31888 7.62982 1.57974L7.45911 3.86487L5.78939 5.09738L3.5992 4.55569C3.16698 5.05882 2.78 5.60287 2.43955 6.1807L3.62181 8.1312L2.9851 10.1263L0.899145 10.9959C0.869915 11.3273 0.854321 11.6612 0.854321 12C0.854321 12.3388 0.869926 12.6728 0.899176 13.0044L2.98306 13.8761L3.61967 15.8709L2.43744 17.8214C2.7779 18.3987 3.16603 18.9428 3.5975 19.4463L5.7868 18.9048L7.45908 20.1346L7.62982 22.4202C8.23105 22.681 8.85849 22.8913 9.5069 23.0428L10.9683 21.293H13.0317L14.4931 23.0428C15.1415 22.8913 15.769 22.681 16.3702 22.4202L16.5409 20.1351L18.2106 18.9025L20.4004 19.4441C20.8318 18.9406 21.22 18.3965 21.5604 17.8192L20.378 15.8684L21.0173 13.8759L23.1008 13.0044C23.1301 12.6728 23.1457 12.3388 23.1457 12C23.1457 11.6611 23.1301 11.3271 23.1008 10.9956L21.0169 10.1238L20.3803 8.12903L21.5626 6.17857C21.2221 5.60123 20.834 5.05714 20.4025 4.55362L18.2127 5.09521L16.543 3.8627L16.3724 1.57839C15.7688 1.31815 15.1411 1.10689 14.4935 0.956708Z"/>
</mask>
<path fill-rule="evenodd" clip-rule="evenodd" d="M9.82853 0.000488281L11.3637 1.8386H12.6363L14.171 0.00102581L14.4183 0.0520559C15.3043 0.234854 16.1524 0.523243 16.9538 0.888999L17.1856 0.994755L17.365 3.39627L18.3949 4.15652L20.6957 3.58747L20.8663 3.77757C21.4646 4.44426 21.9893 5.18022 22.4318 5.96954L22.5572 6.19311L21.3148 8.24282L21.7076 9.47378L23.8968 10.3896L23.9248 10.6452C23.9734 11.0898 24 11.54 24 12C24 12.4599 23.9734 12.9101 23.9248 13.3547L23.8968 13.6103L21.7072 14.5263L21.3129 15.7553L22.555 17.8046L22.4297 18.0282C21.9872 18.8175 21.4625 19.5535 20.8641 20.2202L20.6935 20.4103L18.3928 19.8412L17.3628 20.6015L17.1835 23.002L16.953 23.1082C16.1522 23.4769 15.304 23.7629 14.4194 23.9477L14.1715 23.9994L12.6363 22.1613H11.3637L9.82853 23.9994L9.58065 23.9477C8.69604 23.7629 7.84781 23.4769 7.04701 23.1082L6.8165 23.002L6.63721 20.602L5.60556 19.8433L3.30434 20.4125L3.13373 20.2224C2.53539 19.5557 2.01068 18.8197 1.56817 18.0304L1.44283 17.8068L2.68522 15.7571L2.29237 14.5261L0.103176 13.6103L0.0752299 13.3547C0.0266278 12.9101 0 12.4599 0 12C0 11.54 0.0266278 11.0898 0.0752299 10.6452L0.103215 10.3892L2.2946 9.47565L2.68735 8.24499L1.44496 6.19528L1.5703 5.97171C2.01253 5.18289 2.53516 4.4466 3.1364 3.77915L3.30699 3.58977L5.60725 4.15869L6.63718 3.39844L6.8165 0.9979L7.04701 0.891764C7.84781 0.523029 8.69604 0.237041 9.58065 0.0522649L9.82853 0.000488281ZM14.4935 0.956708L13.0317 2.70691H10.9683L9.5069 0.957152C8.85849 1.10861 8.23105 1.31888 7.62982 1.57974L7.45911 3.86487L5.78939 5.09738L3.5992 4.55569C3.16698 5.05882 2.78 5.60287 2.43955 6.1807L3.62181 8.1312L2.9851 10.1263L0.899145 10.9959C0.869915 11.3273 0.854321 11.6612 0.854321 12C0.854321 12.3388 0.869926 12.6728 0.899176 13.0044L2.98306 13.8761L3.61967 15.8709L2.43744 17.8214C2.7779 18.3987 3.16603 18.9428 3.5975 19.4463L5.7868 18.9048L7.45908 20.1346L7.62982 22.4202C8.23105 22.681 8.85849 22.8913 9.5069 23.0428L10.9683 21.293H13.0317L14.4931 23.0428C15.1415 22.8913 15.769 22.681 16.3702 22.4202L16.5409 20.1351L18.2106 18.9025L20.4004 19.4441C20.8318 18.9406 21.22 18.3965 21.5604 17.8192L20.378 15.8684L21.0173 13.8759L23.1008 13.0044C23.1301 12.6728 23.1457 12.3388 23.1457 12C23.1457 11.6611 23.1301 11.3271 23.1008 10.9956L21.0169 10.1238L20.3803 8.12903L21.5626 6.17857C21.2221 5.60123 20.834 5.05714 20.4025 4.55362L18.2127 5.09521L16.543 3.8627L16.3724 1.57839C15.7688 1.31815 15.1411 1.10689 14.4935 0.956708Z" fill="#2DA7DB"/>
<path fill-rule="evenodd" clip-rule="evenodd" d="M9.82853 0.000488281L11.3637 1.8386H12.6363L14.171 0.00102581L14.4183 0.0520559C15.3043 0.234854 16.1524 0.523243 16.9538 0.888999L17.1856 0.994755L17.365 3.39627L18.3949 4.15652L20.6957 3.58747L20.8663 3.77757C21.4646 4.44426 21.9893 5.18022 22.4318 5.96954L22.5572 6.19311L21.3148 8.24282L21.7076 9.47378L23.8968 10.3896L23.9248 10.6452C23.9734 11.0898 24 11.54 24 12C24 12.4599 23.9734 12.9101 23.9248 13.3547L23.8968 13.6103L21.7072 14.5263L21.3129 15.7553L22.555 17.8046L22.4297 18.0282C21.9872 18.8175 21.4625 19.5535 20.8641 20.2202L20.6935 20.4103L18.3928 19.8412L17.3628 20.6015L17.1835 23.002L16.953 23.1082C16.1522 23.4769 15.304 23.7629 14.4194 23.9477L14.1715 23.9994L12.6363 22.1613H11.3637L9.82853 23.9994L9.58065 23.9477C8.69604 23.7629 7.84781 23.4769 7.04701 23.1082L6.8165 23.002L6.63721 20.602L5.60556 19.8433L3.30434 20.4125L3.13373 20.2224C2.53539 19.5557 2.01068 18.8197 1.56817 18.0304L1.44283 17.8068L2.68522 15.7571L2.29237 14.5261L0.103176 13.6103L0.0752299 13.3547C0.0266278 12.9101 0 12.4599 0 12C0 11.54 0.0266278 11.0898 0.0752299 10.6452L0.103215 10.3892L2.2946 9.47565L2.68735 8.24499L1.44496 6.19528L1.5703 5.97171C2.01253 5.18289 2.53516 4.4466 3.1364 3.77915L3.30699 3.58977L5.60725 4.15869L6.63718 3.39844L6.8165 0.9979L7.04701 0.891764C7.84781 0.523029 8.69604 0.237041 9.58065 0.0522649L9.82853 0.000488281ZM14.4935 0.956708L13.0317 2.70691H10.9683L9.5069 0.957152C8.85849 1.10861 8.23105 1.31888 7.62982 1.57974L7.45911 3.86487L5.78939 5.09738L3.5992 4.55569C3.16698 5.05882 2.78 5.60287 2.43955 6.1807L3.62181 8.1312L2.9851 10.1263L0.899145 10.9959C0.869915 11.3273 0.854321 11.6612 0.854321 12C0.854321 12.3388 0.869926 12.6728 0.899176 13.0044L2.98306 13.8761L3.61967 15.8709L2.43744 17.8214C2.7779 18.3987 3.16603 18.9428 3.5975 19.4463L5.7868 18.9048L7.45908 20.1346L7.62982 22.4202C8.23105 22.681 8.85849 22.8913 9.5069 23.0428L10.9683 21.293H13.0317L14.4931 23.0428C15.1415 22.8913 15.769 22.681 16.3702 22.4202L16.5409 20.1351L18.2106 18.9025L20.4004 19.4441C20.8318 18.9406 21.22 18.3965 21.5604 17.8192L20.378 15.8684L21.0173 13.8759L23.1008 13.0044C23.1301 12.6728 23.1457 12.3388 23.1457 12C23.1457 11.6611 23.1301 11.3271 23.1008 10.9956L21.0169 10.1238L20.3803 8.12903L21.5626 6.17857C21.2221 5.60123 20.834 5.05714 20.4025 4.55362L18.2127 5.09521L16.543 3.8627L16.3724 1.57839C15.7688 1.31815 15.1411 1.10689 14.4935 0.956708Z" stroke="#2DA7DB" stroke-width="0.6" stroke-miterlimit="10" mask="url(#path-1-outside-1)"/>
<path d="M15.077 17.6876L15.2059 17.615L15.135 17.4851L14.7207 16.7258L14.6478 16.5923L14.5153 16.6669C14.2888 16.7946 14.0508 16.9041 13.8049 16.9966L13.6659 17.0488L13.7167 17.1883L14.0132 18.0026L14.0651 18.1451L14.207 18.0917C14.5035 17.9802 14.7952 17.8464 15.077 17.6876Z" fill="#2DA7DB" stroke="#2DA7DB" stroke-width="0.3" stroke-miterlimit="10"/>
<path d="M16.8862 16.1795L16.9801 16.0656L16.8678 15.9699L16.213 15.4122L16.097 15.3133L16 15.4309C15.8311 15.6357 15.647 15.8268 15.4495 16.0022L15.3391 16.1002L15.4353 16.2121L15.9975 16.866L16.0968 16.9816L16.2108 16.8804C16.4533 16.665 16.6792 16.4306 16.8862 16.1795Z" fill="#2DA7DB" stroke="#2DA7DB" stroke-width="0.3" stroke-miterlimit="10"/>
<path d="M17.457 15.0724L17.5908 15.144L17.6608 15.0094C17.7097 14.9153 17.7554 14.8213 17.7981 14.7276C17.8901 14.5268 17.9699 14.3262 18.0378 14.1258L18.0852 13.9856L17.9457 13.9362L17.139 13.6506L16.9967 13.6002L16.9472 13.7428C16.8898 13.9083 16.825 14.0735 16.7504 14.2371L16.8869 14.2993L16.7506 14.2367C16.7156 14.3131 16.6782 14.3898 16.6384 14.467L16.5707 14.5983L16.701 14.668L17.457 15.0724Z" fill="#2DA7DB" stroke="#2DA7DB" stroke-width="0.3" stroke-miterlimit="10"/>
<path d="M12.0014 9.11084H12.1514V8.96084V8.09253V7.94253H12.0014C9.79233 7.94253 8.00698 9.76064 8.00698 11.9999C8.00698 14.2392 9.79233 16.0573 12.0014 16.0573C14.2105 16.0573 15.9959 14.2392 15.9959 11.9999V11.8499H15.8459H14.9916H14.8416V11.9999C14.8416 13.5983 13.5665 14.889 12.0014 14.889C10.4344 14.889 9.1613 13.5986 9.1613 11.9999C9.1613 10.4013 10.4344 9.11084 12.0014 9.11084Z" fill="#2DA7DB" stroke="#2DA7DB" stroke-width="0.3" stroke-miterlimit="10"/>
<path d="M17.1406 11.5143L17.1601 11.6631L17.3087 11.6429L18.1555 11.528L18.3042 11.5079L18.2846 11.3591C17.8227 7.84106 14.6435 5.36777 11.1765 5.83806C7.70946 6.30835 5.27977 9.54245 5.74173 13.0605C6.20369 16.5786 9.38282 19.0519 12.8499 18.5816L12.9985 18.5614L12.979 18.4127L12.866 17.5521L12.8464 17.4033L12.6978 17.4235C9.86722 17.8074 7.26393 15.7848 6.88582 12.9053C6.50727 10.0225 8.49777 7.38017 11.3286 6.99618C14.1594 6.61219 16.762 8.63146 17.1406 11.5143Z" fill="#2DA7DB" stroke="#2DA7DB" stroke-width="0.3" stroke-miterlimit="10"/>
</g>
<defs>
<clipPath id="clip0">
<rect width="24" height="24" fill="white"/>
</clipPath>
</defs>
</svg>
