<svg width="24" height="24" viewBox="0 0 24 24" fill="none" xmlns="http://www.w3.org/2000/svg">
<path d="M12.446 8.15L12.53 8.222L16.455 12.147C16.5879 12.281 16.6654 12.4602 16.6721 12.6489C16.6787 12.8375 16.614 13.0217 16.4908 13.1648C16.3676 13.3078 16.195 13.3991 16.0074 13.4204C15.8199 13.4418 15.6312 13.3917 15.479 13.28L15.395 13.208L12.738 10.548L12.74 20.256C12.74 20.4549 12.6609 20.6457 12.5203 20.7863C12.3796 20.927 12.1889 21.006 11.99 21.006C11.791 21.006 11.6003 20.927 11.4596 20.7863C11.319 20.6457 11.24 20.4549 11.24 20.256V10.571L8.60495 13.208C8.47784 13.3349 8.30942 13.4119 8.13031 13.4251C7.95121 13.4383 7.77331 13.3868 7.62895 13.28L7.54495 13.208C7.41767 13.081 7.34028 12.9124 7.32688 12.7331C7.31348 12.5537 7.36497 12.3756 7.47195 12.231L7.54495 12.147L11.47 8.222C11.5969 8.09498 11.7653 8.01775 11.9444 8.00436C12.1235 7.99096 12.3015 8.04229 12.446 8.149V8.15ZM12 4C15.52 4 17.517 6.273 17.808 9.018H17.896C20.162 9.018 21.998 10.805 21.998 13.009C21.998 15.213 20.162 17 17.896 17H14.741L14.647 16.993C14.4684 16.9675 14.3051 16.8785 14.1869 16.7423C14.0687 16.6061 14.0037 16.4318 14.0037 16.2515C14.0037 16.0712 14.0687 15.8969 14.1869 15.7607C14.3051 15.6245 14.4684 15.5355 14.647 15.51L14.748 15.503H17.896L18.065 15.498C19.402 15.414 20.46 14.332 20.46 13.009C20.46 11.687 19.402 10.604 18.065 10.519L17.896 10.515H17.121L17.02 10.508C16.654 10.462 16.353 10.168 16.353 9.803C16.353 7.255 14.326 5.465 12 5.465C9.67395 5.465 7.64695 7.287 7.64695 9.803C7.64695 10.169 7.34695 10.462 6.97995 10.508L6.87995 10.515H6.10395L5.93495 10.52C4.65395 10.6 3.62895 11.598 3.54495 12.845L3.53995 13.009L3.54595 13.173C3.62895 14.42 4.65395 15.417 5.93595 15.498L6.10395 15.503L9.24195 15.504C9.42426 15.502 9.60106 15.5665 9.73928 15.6854C9.8775 15.8043 9.96768 15.9694 9.99295 16.15L9.99995 16.252C9.99971 16.4328 9.93407 16.6074 9.81515 16.7436C9.69624 16.8798 9.53207 16.9684 9.35295 16.993L9.24295 17H6.10295C3.83795 17 2.00195 15.213 2.00195 13.009C2.00195 10.805 3.83795 9.018 6.10395 9.018H6.19295C6.48495 6.255 8.47995 4 12 4Z" fill="#2DA7DB"/>
</svg>
