<svg width="24" height="24" viewBox="0 0 24 24" fill="none" xmlns="http://www.w3.org/2000/svg">
<path d="M11.2464 2.43009C13.1845 2.27729 15.1234 2.71656 16.8065 3.68979C18.4896 4.66302 19.8375 6.12434 20.6718 7.88038C21.5062 9.63641 21.7878 11.6044 21.4792 13.524C21.1707 15.4435 20.2866 17.2241 18.9439 18.6302C17.6012 20.0363 15.8633 21.0016 13.96 21.3984C12.0567 21.7951 10.0778 21.6047 8.28518 20.8522C6.49252 20.0996 4.97059 18.8206 3.92077 17.1842C2.87095 15.5478 2.34271 13.6313 2.40596 11.6881C2.40951 11.5699 2.4363 11.4536 2.4848 11.3457C2.53331 11.2379 2.60258 11.1407 2.68866 11.0596C2.77474 10.9785 2.87594 10.9152 2.98649 10.8733C3.09704 10.8313 3.21477 10.8115 3.33296 10.8151C3.45115 10.8186 3.56749 10.8454 3.67532 10.8939C3.78316 10.9424 3.88038 11.0117 3.96145 11.0978C4.04252 11.1839 4.10583 11.2851 4.14779 11.3956C4.18974 11.5062 4.20951 11.6239 4.20596 11.7421C4.14515 13.5815 4.73672 15.3832 5.87608 16.8286C7.01543 18.2739 8.62917 19.2698 10.4319 19.6402C12.2347 20.0106 14.1104 19.7316 15.7273 18.8525C17.3442 17.9735 18.5982 16.551 19.2676 14.8366C19.9369 13.1222 19.9785 11.2263 19.3849 9.48421C18.7913 7.74212 17.6009 6.26603 16.024 5.31695C14.4472 4.36787 12.5855 4.00693 10.7683 4.29797C8.95099 4.589 7.29516 5.51325 6.09356 6.90729L5.84876 7.20489H8.70356L8.82596 7.21449C9.04138 7.24413 9.23878 7.35076 9.38167 7.51466C9.52456 7.67856 9.60329 7.88865 9.60329 8.10609C9.60329 8.32354 9.52456 8.53363 9.38167 8.69753C9.23878 8.86143 9.04138 8.96806 8.82596 8.99769L8.70356 9.00609H3.90356L3.78116 8.99769C3.58658 8.97098 3.40608 8.88134 3.2672 8.74246C3.12832 8.60358 3.03868 8.42308 3.01196 8.22849L3.00356 8.10609V3.30609L3.01196 3.18369C3.03868 2.98911 3.12832 2.80861 3.2672 2.66973C3.40608 2.53085 3.58658 2.44121 3.78116 2.41449L3.90356 2.40609L4.02596 2.41449C4.22054 2.44121 4.40104 2.53085 4.53992 2.66973C4.67881 2.80861 4.76844 2.98911 4.79516 3.18369L4.80356 3.30609L4.80236 5.64969C6.44942 3.77883 8.76126 2.6242 11.2464 2.43129V2.43009ZM11.7 7.20489L11.8224 7.21329C12.0169 7.24001 12.1974 7.32965 12.3363 7.46853C12.4752 7.60741 12.5648 7.78791 12.5916 7.98249L12.6 8.10489V11.9989L14.7 12.0001L14.8224 12.0085C15.0387 12.0372 15.2372 12.1434 15.381 12.3076C15.5248 12.4717 15.6041 12.6825 15.6041 12.9007C15.6041 13.1189 15.5248 13.3297 15.381 13.4938C15.2372 13.6579 15.0387 13.7642 14.8224 13.7929L14.7 13.8001H11.7L11.5776 13.7929C11.3828 13.7661 11.2022 13.6763 11.0633 13.5372C10.9244 13.3981 10.8348 13.2173 10.8084 13.0225L10.8 12.9001V8.10489L10.8084 7.98249C10.8351 7.78791 10.9247 7.60741 11.0636 7.46853C11.2025 7.32965 11.383 7.24001 11.5776 7.21329L11.7 7.20489Z" fill="#2DA7DB"/>
</svg>
