<svg width="100" height="100" viewBox="0 0 100 100" fill="none" xmlns="http://www.w3.org/2000/svg">
<g clip-path="url(#clip0_1_4474)">
<path fill-rule="evenodd" clip-rule="evenodd" d="M83.0428 72C91.8529 72 99 64.0753 99 54.3093C99 44.5337 91.8529 36.6187 83.0428 36.6187C81.8252 36.6187 80.6275 36.7729 79.4891 37.0621C79.0733 37.1585 78.6774 37.2839 78.2616 37.4188C78.2616 36.904 78.2927 36.3915 78.2715 35.8763C77.8261 12.0445 40.6059 8.5546 35.884 31.3548C34.5836 30.8677 33.1937 30.6221 31.8057 30.6221C27.4105 30.6221 23.54 33.0612 21.2137 36.7825C19.917 36.4066 18.5608 36.2137 17.1552 36.2137C8.23616 36.2041 1 44.2155 1 54.0972C1 63.9886 8.22626 72 17.1453 72H83.0428Z" fill="url(#paint0_linear_1_4474)"/>
<path fill-rule="evenodd" clip-rule="evenodd" d="M80.4362 72.7779V72.7635H17.2952C7.63125 72.7635 0 64.2909 0 54.0951C0 43.8993 7.63125 35.4267 17.2952 35.4267C18.4351 35.4267 19.5592 35.5452 20.6469 35.7764C23.2149 32.3171 27.1683 30.0595 31.6645 30.0595C32.6857 30.0595 33.6733 30.1841 34.6246 30.4042C37.7416 19.5804 48.3928 15.1637 58.1752 16.1292C68.3117 17.1297 78.2568 23.976 78.6825 36.166C79.7246 35.9551 80.7977 35.8451 81.8921 35.8451C91.4557 35.8451 99 44.2317 99 54.3115C99 64.3914 91.4557 72.7779 81.8921 72.7779H80.4362ZM77.2362 36.5293C76.7769 14.1563 41.9054 10.4611 36.0251 30.8044C35.892 31.2647 35.7738 31.7374 35.6712 32.2224C35.2965 32.0925 34.9073 31.9626 34.5182 31.876C34.4354 31.8553 34.3525 31.8354 34.2692 31.8164C33.4249 31.623 32.5566 31.5153 31.6645 31.5153C27.3552 31.5153 23.5647 33.8527 21.2731 37.4308C20.0048 37.0702 18.6644 36.8826 17.2952 36.8826C8.54684 36.8826 1.45588 44.5871 1.45588 54.0951C1.45588 63.6031 8.54684 71.3076 17.2952 71.3076H81.8921V71.322C82.1102 71.322 82.3272 71.3172 82.5431 71.3076C82.8132 71.2956 83.0816 71.2761 83.348 71.2494C91.3123 70.4514 97.5441 63.1709 97.5441 54.3115C97.5441 44.919 90.5396 37.301 81.8921 37.301C80.8002 37.301 79.7324 37.4212 78.6995 37.6507C78.6007 37.6726 78.5024 37.6955 78.4043 37.7194C78.2025 37.7627 78.0007 37.8204 77.8134 37.8781C77.7966 37.8829 77.7797 37.8877 77.7629 37.8926C77.682 37.9158 77.6013 37.9391 77.5216 37.9637C77.4194 37.9952 77.319 38.0285 77.2225 38.0657C77.2225 38.008 77.2225 37.9502 77.2369 37.8926C77.2369 37.8005 77.2403 37.7085 77.2439 37.6147C77.2476 37.5174 77.2513 37.4183 77.2513 37.3154V37.2865C77.2513 37.0412 77.2513 36.8104 77.2369 36.5651C77.2366 36.5532 77.2364 36.5412 77.2362 36.5293Z" fill="#333333"/>
<path d="M47 74.5C45.6193 74.5 44.5 75.6193 44.5 77L44.5 87C44.5 88.3807 45.6193 89.5 47 89.5H81.0003C82.3811 89.5 83.5003 88.3807 83.5003 87V77C83.5003 75.6193 82.3811 74.5 81.0003 74.5L47 74.5Z" fill="#FEFEFE" stroke="#333333"/>
<circle cx="51" cy="82" r="2.5" fill="#BDECFF" stroke="#333333"/>
<circle cx="75.4473" cy="80.2964" r="1" fill="#FF6F3D"/>
<circle cx="77.4473" cy="83.7036" r="1" fill="#333333"/>
<circle cx="71.4473" cy="80.2964" r="1" fill="#FF6F3D"/>
<circle cx="73.4473" cy="83.7036" r="1" fill="#FF6F3D"/>
<circle cx="67.4473" cy="80.2964" r="1" fill="#333333"/>
<circle cx="69.4473" cy="83.7036" r="1" fill="#FF6F3D"/>
<circle cx="63.4473" cy="80.2964" r="1" fill="#FF6F3D"/>
<circle cx="65.4473" cy="83.7036" r="1" fill="#333333"/>
<path d="M47 59.5C45.6193 59.5 44.5 60.6193 44.5 62L44.5 72C44.5 73.3807 45.6193 74.5 47 74.5H81.0003C82.3811 74.5 83.5003 73.3807 83.5003 72V62C83.5003 60.6193 82.3811 59.5 81.0003 59.5L47 59.5Z" fill="#FEFEFE" stroke="#333333"/>
<circle cx="51" cy="67" r="2.5" fill="#BDECFF" stroke="#333333"/>
<circle cx="75.4473" cy="65.2964" r="1" fill="#FF6F3D"/>
<circle cx="77.4473" cy="68.7036" r="1" fill="#333333"/>
<circle cx="71.4473" cy="65.2964" r="1" fill="#FF6F3D"/>
<circle cx="73.4473" cy="68.7036" r="1" fill="#FF6F3D"/>
<circle cx="67.4473" cy="65.2964" r="1" fill="#333333"/>
<circle cx="69.4473" cy="68.7036" r="1" fill="#FF6F3D"/>
<circle cx="63.4473" cy="65.2964" r="1" fill="#FF6F3D"/>
<circle cx="65.4473" cy="68.7036" r="1" fill="#333333"/>
<path d="M47 44.5C45.6193 44.5 44.5 45.6193 44.5 47L44.5 57C44.5 58.3807 45.6193 59.5 47 59.5H81.0003C82.3811 59.5 83.5003 58.3807 83.5003 57V47C83.5003 45.6193 82.3811 44.5 81.0003 44.5L47 44.5Z" fill="#FEFEFE" stroke="#333333"/>
<circle cx="51" cy="52" r="2.5" fill="#BDECFF" stroke="#333333"/>
<circle cx="75.4473" cy="50.2964" r="1" fill="#FF6F3D"/>
<circle cx="77.4473" cy="53.7036" r="1" fill="#333333"/>
<circle cx="71.4473" cy="50.2964" r="1" fill="#FF6F3D"/>
<circle cx="73.4473" cy="53.7036" r="1" fill="#FF6F3D"/>
<circle cx="67.4473" cy="50.2964" r="1" fill="#333333"/>
<circle cx="69.4473" cy="53.7036" r="1" fill="#FF6F3D"/>
<circle cx="63.4473" cy="50.2964" r="1" fill="#FF6F3D"/>
<circle cx="65.4473" cy="53.7036" r="1" fill="#333333"/>
</g>
<defs>
<linearGradient id="paint0_linear_1_4474" x1="9.23329" y1="10.5164" x2="54.738" y2="61.9814" gradientUnits="userSpaceOnUse">
<stop stop-color="#FFC671"/>
<stop offset="1" stop-color="#FF6F3D"/>
</linearGradient>
<clipPath id="clip0_1_4474">
<rect width="100" height="100" fill="white"/>
</clipPath>
</defs>
</svg>
