<svg width="24" height="24" viewBox="0 0 24 24" fill="none" xmlns="http://www.w3.org/2000/svg">
<path fill-rule="evenodd" clip-rule="evenodd" d="M11.4027 14.6115L11.4401 14.5575L11.4054 14.5017C11.1448 14.0822 10.9201 13.6672 10.7009 13.2625C10.6631 13.1927 10.6255 13.1231 10.5878 13.054L10.5046 12.901L10.4144 13.05C9.49837 14.5633 8.49311 15.65 6.74999 15.65C4.73672 15.65 3.09999 14.0133 3.09999 12C3.09999 9.97547 4.72547 8.34999 6.74999 8.34999C7.93114 8.34999 8.67726 8.769 9.37348 9.49163C10.0741 10.2181 10.6689 11.2721 11.2791 12.3993L11.3786 12.5833C11.9558 13.6506 12.5612 14.7699 13.4276 15.678C14.3484 16.6438 15.6214 17.35 17.25 17.35C20.1965 17.35 22.6 14.9465 22.6 12C22.6 9.04977 20.2002 6.64999 17.25 6.64999C15.0194 6.64999 13.6421 7.84736 12.598 9.31708L12.5591 9.37177L12.595 9.42846C12.9014 9.91273 13.1816 10.3887 13.4355 10.8525L13.5179 11.003L13.6083 10.8571C14.5174 9.38864 15.5113 8.34999 17.25 8.34999C19.2633 8.34999 20.9 9.98672 20.9 12C20.9 14.0245 19.2745 15.65 17.25 15.65C16.6665 15.65 16.1958 15.5441 15.7861 15.3505C15.3758 15.1566 15.0215 14.8724 14.6741 14.5087C13.9784 13.7819 13.3813 12.7277 12.7673 11.6004L12.7055 11.4866C12.1137 10.3979 11.4894 9.24952 10.5953 8.32088C9.6656 7.35612 8.39272 6.64999 6.74999 6.64999C3.80352 6.64999 1.39999 9.05352 1.39999 12C1.39999 14.9502 3.79977 17.35 6.74999 17.35C8.99401 17.35 10.3622 16.1127 11.4027 14.6115ZM12.6795 9.375C12.6795 9.375 12.6795 9.375 12.6795 9.375ZM13.4679 10.704L13.5232 10.8045C13.5049 10.7711 13.4865 10.7376 13.4679 10.704ZM14.8693 14.8402C14.7789 14.7577 14.69 14.6701 14.6017 14.5778ZM10.5 13.1017C10.48 13.1348 10.4599 13.1677 10.4398 13.2004C9.66601 14.457 8.80466 15.4282 7.47207 15.6838C8.83933 15.4215 9.71051 14.406 10.5 13.1017ZM11.367 12.3517L11.4649 12.5326C11.4322 12.4722 11.3996 12.4119 11.367 12.3517Z" fill="#2DA7DB"/>
</svg>
