<svg width="24" height="24" viewBox="0 0 24 24" fill="none" xmlns="http://www.w3.org/2000/svg">
<path d="M5.25 4H18.75C19.5801 3.99995 20.3788 4.31755 20.9822 4.88767C21.5856 5.45779 21.948 6.23719 21.995 7.066L22 7.25V16.75C22.0001 17.5801 21.6824 18.3788 21.1123 18.9822C20.5422 19.5856 19.7628 19.948 18.934 19.995L18.75 20H5.25C4.41986 20.0001 3.62117 19.6824 3.01777 19.1123C2.41437 18.5422 2.052 17.7628 2.005 16.934L2 16.75V7.25C1.99995 6.41986 2.31755 5.62117 2.88767 5.01777C3.45779 4.41437 4.23719 4.052 5.066 4.005L5.25 4H18.75H5.25ZM20.5 9.373L12.35 13.663C12.258 13.7116 12.1568 13.7405 12.053 13.7479C11.9492 13.7553 11.845 13.7411 11.747 13.706L11.651 13.664L3.5 9.374V16.75C3.50002 17.1892 3.66517 17.6123 3.96268 17.9354C4.26019 18.2585 4.6683 18.4579 5.106 18.494L5.25 18.5H18.75C19.1893 18.5 19.6126 18.3347 19.9357 18.037C20.2588 17.7392 20.4581 17.3309 20.494 16.893L20.5 16.75V9.373ZM18.75 5.5H5.25C4.81081 5.50002 4.38768 5.66517 4.06461 5.96268C3.74154 6.26019 3.54214 6.6683 3.506 7.106L3.5 7.25V7.679L12 12.152L20.5 7.678V7.25C20.5 6.81065 20.3347 6.38739 20.037 6.06429C19.7392 5.74119 19.3309 5.5419 18.893 5.506L18.75 5.5Z" fill="#2DA7DB"/>
</svg>
