<svg width="24" height="24" viewBox="0 0 24 24" fill="none" xmlns="http://www.w3.org/2000/svg">
<path d="M12.744 12C13.3407 12 13.913 12.2371 14.335 12.659C14.7569 13.081 14.994 13.6533 14.994 14.25L14.9925 15.372C15.147 18.1275 13.0245 19.5015 9.09 19.5015C5.169 19.5 3 18.1455 3 15.4125V14.25C3 13.6533 3.23705 13.081 3.65901 12.659C4.08097 12.2371 4.65326 12 5.25 12H12.744ZM18.744 12C19.3407 12 19.913 12.2371 20.335 12.659C20.7569 13.081 20.994 13.6533 20.994 14.25V15.0405C21.129 17.511 19.254 18.75 15.828 18.75C15.363 18.75 14.925 18.7275 14.517 18.6825C14.952 18.2805 15.2775 17.802 15.4845 17.2455L15.828 17.25C18.504 17.25 19.5735 16.5435 19.494 15.081V14.25C19.494 14.0511 19.415 13.8603 19.2743 13.7197C19.1337 13.579 18.9429 13.5 18.744 13.5H15.6495C15.499 12.919 15.1776 12.3965 14.727 12H18.744ZM12.744 13.5H5.25C5.05109 13.5 4.86032 13.579 4.71967 13.7197C4.57902 13.8603 4.5 14.0511 4.5 14.25V15.4125C4.5 17.13 5.892 18 9.09 18C12.276 18 13.59 17.1495 13.494 15.4125V14.25C13.494 14.0511 13.415 13.8603 13.2743 13.7197C13.1337 13.579 12.9429 13.5 12.744 13.5ZM9 3C9.99456 3 10.9484 3.39509 11.6517 4.09835C12.3549 4.80161 12.75 5.75544 12.75 6.75C12.75 7.74456 12.3549 8.69839 11.6517 9.40165C10.9484 10.1049 9.99456 10.5 9 10.5C8.00544 10.5 7.05161 10.1049 6.34835 9.40165C5.64509 8.69839 5.25 7.74456 5.25 6.75C5.25 5.75544 5.64509 4.80161 6.34835 4.09835C7.05161 3.39509 8.00544 3 9 3ZM16.5 4.5C17.2956 4.5 18.0587 4.81607 18.6213 5.37868C19.1839 5.94129 19.5 6.70435 19.5 7.5C19.5 8.29565 19.1839 9.05871 18.6213 9.62132C18.0587 10.1839 17.2956 10.5 16.5 10.5C15.7044 10.5 14.9413 10.1839 14.3787 9.62132C13.8161 9.05871 13.5 8.29565 13.5 7.5C13.5 6.70435 13.8161 5.94129 14.3787 5.37868C14.9413 4.81607 15.7044 4.5 16.5 4.5ZM9 4.5C8.40326 4.5 7.83097 4.73705 7.40901 5.15901C6.98705 5.58097 6.75 6.15326 6.75 6.75C6.75 7.34674 6.98705 7.91903 7.40901 8.34099C7.83097 8.76295 8.40326 9 9 9C9.59674 9 10.169 8.76295 10.591 8.34099C11.0129 7.91903 11.25 7.34674 11.25 6.75C11.25 6.15326 11.0129 5.58097 10.591 5.15901C10.169 4.73705 9.59674 4.5 9 4.5ZM16.5 6C16.1022 6 15.7206 6.15804 15.4393 6.43934C15.158 6.72065 15 7.10218 15 7.5C15 7.89783 15.158 8.27936 15.4393 8.56066C15.7206 8.84197 16.1022 9 16.5 9C16.8978 9 17.2794 8.84197 17.5607 8.56066C17.842 8.27936 18 7.89783 18 7.5C18 7.10218 17.842 6.72065 17.5607 6.43934C17.2794 6.15804 16.8978 6 16.5 6Z" fill="#2DA7DB"/>
</svg>
