<svg width="20" height="20" viewBox="0 0 20 20" fill="none" xmlns="http://www.w3.org/2000/svg">
<path d="M0.736999 5.84391L0.73708 5.84408L0.74948 5.83787L8.97491 1.71686L8.97492 1.71688L8.97932 1.71463C9.24149 1.58002 9.61534 1.5 10.0114 1.5C10.4087 1.5 10.7705 1.58044 11.0126 1.71037L11.0125 1.71055L11.0251 1.71686L19.2461 5.83563C19.2468 5.83597 19.2474 5.83632 19.2481 5.83666C19.3786 5.90394 19.4481 5.96615 19.4805 6.00605C19.4856 6.01232 19.4895 6.01768 19.4925 6.02215C19.4908 6.02438 19.4889 6.02685 19.4866 6.02956C19.458 6.06335 19.3924 6.12022 19.263 6.18062L19.2629 6.18044L19.2505 6.18665L11.0318 10.3043C10.7654 10.4272 10.3878 10.5 9.98858 10.5C9.58645 10.5 9.21907 10.4262 8.97241 10.3064L0.751879 6.18786C0.621381 6.12058 0.551894 6.05837 0.51948 6.01847C0.514393 6.0122 0.510466 6.00684 0.507452 6.00237C0.509165 6.00014 0.511144 5.99768 0.513426 5.99497C0.541958 5.96118 0.607613 5.90431 0.736999 5.84391ZM19.5019 6.03919C19.5018 6.03921 19.5016 6.03871 19.5014 6.03769L19.5019 6.03919ZM0.498143 5.98533C0.49818 5.98533 0.498381 5.98583 0.498639 5.98683L0.498143 5.98533Z" stroke="#505050"/>
<path fill-rule="evenodd" clip-rule="evenodd" d="M3.39535 9.07151L2.27912 8.51227L0.525513 9.39084C-0.175171 9.71791 -0.175171 10.2739 0.525513 10.6337L8.75094 14.7547C9.42117 15.0818 10.5484 15.0818 11.2491 14.7547L19.4745 10.6337C20.1752 10.3066 20.1752 9.75061 19.4745 9.39084L17.7209 8.51227L16.6047 9.07151L18.4824 10.0123L10.8158 13.8533C10.6318 13.9364 10.3331 14 9.98858 14C9.63784 14 9.3522 13.9343 9.1932 13.8578L1.51763 10.0123L3.39535 9.07151Z" fill="#505050"/>
<path fill-rule="evenodd" clip-rule="evenodd" d="M3.39535 13.0715L2.27912 12.5123L0.525513 13.3908C-0.175171 13.7179 -0.175171 14.2739 0.525513 14.6337L8.75094 18.7547C9.42117 19.0818 10.5484 19.0818 11.2491 18.7547L19.4745 14.6337C20.1752 14.3066 20.1752 13.7506 19.4745 13.3908L17.7209 12.5123L16.6047 13.0715L18.4824 14.0123L10.8158 17.8533C10.6318 17.9364 10.3331 18 9.98858 18C9.63784 18 9.3522 17.9343 9.1932 17.8578L1.51763 14.0123L3.39535 13.0715Z" fill="#505050"/>
</svg>
