<svg width="24" height="24" viewBox="0 0 24 24" fill="none" xmlns="http://www.w3.org/2000/svg">
<path d="M5.444 5.16708L5.31724 5.13186V5.26343V6.52647V6.60475L5.39323 6.62354C7.57546 7.16331 9.81769 7.42221 12.0655 7.39396C13.3212 7.39228 14.5757 7.31942 15.8231 7.17575L16.0055 7.15474L15.8889 7.01291C15.613 6.67728 15.388 6.30292 15.2211 5.90184L15.1926 5.83339L15.1188 5.84077C14.2158 5.93107 13.1917 5.98531 12.0648 5.98528L12.0623 5.98534C9.82791 6.04103 7.59757 5.76528 5.444 5.16708Z" fill="#2DA7DB" stroke="#2DA7DB" stroke-width="0.2"/>
<path d="M19.9078 8.59077L19.8211 8.60239V8.68989V9.16397C19.8015 9.2006 19.7549 9.25281 19.665 9.31684C19.5659 9.38751 19.4258 9.46451 19.244 9.5445C18.8806 9.70429 18.3612 9.87141 17.6954 10.0231C16.3644 10.3264 14.4578 10.566 12.0649 10.566L12.0623 10.5661C9.82789 10.6231 7.5974 10.3473 5.44412 9.74781L5.3173 9.7125V9.84415V11.1011V11.1793L5.39315 11.1982C7.5749 11.7413 9.81733 12.0023 12.0655 11.9747C13.2775 11.9747 14.7819 11.902 16.2168 11.714C17.5778 11.5357 18.8853 11.2525 19.8211 10.8243V13.7689C19.8015 13.8056 19.7549 13.8578 19.665 13.9218C19.5659 13.9925 19.4258 14.0695 19.244 14.1495C18.8806 14.3093 18.3612 14.4764 17.6954 14.6281C16.3644 14.9314 14.4578 15.171 12.0649 15.171L12.0627 15.171C9.82704 15.2202 7.59653 14.9363 5.44448 14.3287L5.3173 14.2928V14.4249V15.6819V15.7601L5.39315 15.779C7.5749 16.3221 9.81733 16.5831 12.0655 16.5555C13.2775 16.5554 14.7819 16.4827 16.2168 16.2948C17.5778 16.1164 18.8853 15.8333 19.8211 15.4051V18.3063C19.8002 18.3437 19.752 18.3962 19.6615 18.46C19.5611 18.5308 19.4199 18.6079 19.2373 18.6879C18.8724 18.8477 18.3521 19.0149 17.6863 19.1666C16.3553 19.4699 14.4517 19.7095 12.0649 19.7095C9.67824 19.7095 7.76712 19.4638 6.43233 19.1568C5.76459 19.0032 5.24336 18.8347 4.8798 18.6752C4.6978 18.5953 4.55801 18.5188 4.45981 18.4492C4.3706 18.3859 4.32625 18.3356 4.30865 18.3021V4.71621C4.32628 4.68303 4.3702 4.63323 4.45806 4.57054C4.55508 4.50132 4.6932 4.42511 4.87329 4.34539C5.23304 4.18613 5.74969 4.01752 6.41434 3.86356C7.74299 3.5558 9.65405 3.30865 12.0649 3.30865C13.0891 3.30865 14.0229 3.35685 14.8604 3.42915L14.9498 3.43686L14.9671 3.34881C15.0455 2.95025 15.1787 2.56448 15.363 2.20249L15.4296 2.07158L15.2834 2.05758C14.144 1.94849 13.0108 1.9 12.0649 1.9C10.3781 1.9 8.10393 2.04069 6.24873 2.44773C5.32198 2.65106 4.49225 2.92241 3.8918 3.28065C3.29281 3.63802 2.9 4.09624 2.9 4.67716V18.3228C2.9 18.9024 3.29294 19.3598 3.89183 19.7168C4.49225 20.0747 5.32195 20.3463 6.24869 20.55C8.10388 20.9578 10.378 21.1 12.0649 21.1C13.7517 21.1 16.0258 20.9593 17.881 20.5523C18.8078 20.3489 19.6375 20.0776 20.238 19.7193C20.837 19.362 21.2298 18.9038 21.2298 18.3228V8.35146V8.19849L21.0896 8.25987C20.7131 8.42481 20.3153 8.53619 19.9078 8.59077Z" fill="#2DA7DB" stroke="#2DA7DB" stroke-width="0.2"/>
<rect x="18.9" y="0.9" width="1.2" height="7.2" fill="#2DA7DB" stroke="#2DA7DB" stroke-width="0.2"/>
<rect x="15.9" y="5.1" width="1.2" height="7.2" transform="rotate(-90 15.9 5.1)" fill="#2DA7DB" stroke="#2DA7DB" stroke-width="0.2"/>
</svg>
