<svg width="21" height="20" viewBox="0 0 21 20" fill="none" xmlns="http://www.w3.org/2000/svg">
<path fill-rule="evenodd" clip-rule="evenodd" d="M9.00336 13.4944C9.00336 13.2183 8.7795 12.9944 8.50336 12.9944H6.28596C5.23198 12.9951 4.21507 12.623 3.43603 11.951C2.65699 11.279 2.17136 10.3558 2.07441 9.36239C1.97746 8.36898 2.27619 7.37715 2.912 6.58148C3.54781 5.78581 4.47479 5.24375 5.51106 5.06165C5.94006 4.98626 6.27597 4.66899 6.35654 4.26308C6.53857 3.34593 7.0535 2.51782 7.81228 1.92197C8.57106 1.32612 9.52597 1 10.5119 1C11.4978 1 12.4527 1.32612 13.2115 1.92197C13.9703 2.51782 14.4852 3.34593 14.6672 4.26308C14.7475 4.66746 15.0812 4.98404 15.5083 5.06086C16.5412 5.24668 17.4639 5.79011 18.0964 6.58511C18.7288 7.38011 19.0257 8.36963 18.9289 9.3606C18.8322 10.3516 18.3489 11.2729 17.5733 11.9448C16.7981 12.6162 15.7866 12.9904 14.7359 12.9944H12.5034C12.2272 12.9944 12.0034 13.2183 12.0034 13.4944C12.0034 13.7706 12.2272 13.9944 12.5034 13.9944H14.7378C16.0519 13.99 17.3171 13.5222 18.2865 12.6825C19.256 11.8427 19.8601 10.6912 19.9809 9.45259C20.1018 8.214 19.7308 6.97721 18.9403 5.98357C18.1498 4.98992 16.9965 4.3107 15.7055 4.07845C15.478 2.93212 14.8344 1.89709 13.886 1.15235C12.9377 0.407614 11.7441 0 10.5119 0C9.27962 0 8.08609 0.407614 7.13772 1.15235C6.18934 1.89709 5.54574 2.93212 5.31822 4.07845C4.02288 4.30607 2.86415 4.98365 2.0694 5.97823C1.27464 6.97282 0.901219 8.21262 1.02241 9.45437C1.14359 10.6961 1.75064 11.8502 2.72443 12.6901C3.69823 13.5301 4.96848 13.9953 6.28596 13.9944H8.50336C8.7795 13.9944 9.00336 13.7706 9.00336 13.4944Z" fill="#505050"/>
<path d="M11.0034 8.99445C11.0034 8.7183 10.7795 8.49445 10.5034 8.49445C10.2272 8.49445 10.0034 8.7183 10.0034 8.99445L11.0034 8.99445ZM10.1498 19.348C10.3451 19.5433 10.6616 19.5433 10.8569 19.348L14.0389 16.166C14.2342 15.9708 14.2342 15.6542 14.0389 15.4589C13.8436 15.2637 13.527 15.2637 13.3318 15.4589L10.5034 18.2873L7.67493 15.4589C7.47967 15.2636 7.16308 15.2636 6.96782 15.4589C6.77256 15.6542 6.77256 15.9708 6.96782 16.166L10.1498 19.348ZM10.0034 8.99445L10.0034 18.9944L11.0034 18.9944L11.0034 8.99445L10.0034 8.99445Z" fill="#505050"/>
</svg>
