<svg width="170" height="56" viewBox="0 0 170 56" fill="none" xmlns="http://www.w3.org/2000/svg">
<path d="M40.9184 26.5938C40.9321 25.581 41.2156 24.5878 41.7423 23.7069C42.2691 22.8259 43.0221 22.0857 43.9312 21.5552C43.3537 20.7723 42.5918 20.128 41.706 19.6734C40.8202 19.2189 39.835 18.9667 38.8285 18.9368C36.6816 18.7229 34.6003 20.1562 33.5063 20.1562C32.3911 20.1562 30.7066 18.958 28.8928 18.9935C27.7195 19.0294 26.5761 19.3533 25.5739 19.9334C24.5717 20.5135 23.745 21.3302 23.1742 22.3038C20.7015 26.3672 22.5459 32.339 24.9145 35.6236C26.0995 37.2319 27.4845 39.0285 29.2967 38.9648C31.07 38.895 31.7324 37.8914 33.8729 37.8914C35.9937 37.8914 36.6151 38.9648 38.464 38.9243C40.3669 38.8949 41.5659 37.3088 42.7093 35.6852C43.5608 34.5392 44.216 33.2726 44.6506 31.9323C43.5451 31.4885 42.6017 30.7456 41.938 29.7963C41.2743 28.847 40.9197 27.7332 40.9184 26.5938V26.5938Z" fill="white"/>
<path d="M37.426 16.7767C38.4635 15.5945 38.9747 14.075 38.8509 12.5408C37.2658 12.6988 35.8016 13.4179 34.75 14.5548C34.2359 15.1101 33.8421 15.7563 33.5912 16.4562C33.3403 17.1561 33.2372 17.8961 33.2878 18.6339C34.0806 18.6416 34.865 18.4785 35.5818 18.1568C36.2986 17.8351 36.9292 17.3633 37.426 16.7767Z" fill="white"/>
<path d="M62.8816 35.9332H56.8963L55.459 40.1959H52.9238L58.593 24.425H61.2269L66.8961 40.1959H64.3178L62.8816 35.9332ZM57.5162 33.9662H62.2606L59.9218 27.0482H59.8563L57.5162 33.9662Z" fill="white"/>
<path d="M79.1397 34.4474C79.1397 38.0205 77.2355 40.3161 74.3621 40.3161C73.6341 40.3544 72.9102 40.186 72.2732 39.8302C71.6362 39.4744 71.1117 38.9457 70.76 38.3045H70.7056V43.9996H68.3557V28.6976H70.6303V30.6101H70.6736C71.0415 29.9719 71.5747 29.4459 72.2166 29.088C72.8585 28.73 73.585 28.5535 74.3188 28.5773C77.2244 28.5773 79.1397 30.8842 79.1397 34.4474ZM76.7243 34.4474C76.7243 32.1194 75.5265 30.589 73.6989 30.589C71.9035 30.589 70.6958 32.1517 70.6958 34.4474C70.6958 36.7641 71.9035 38.3156 73.6989 38.3156C75.5265 38.3156 76.7243 36.7964 76.7243 34.4474Z" fill="white"/>
<path d="M91.74 34.4473C91.74 38.0205 89.8359 40.3161 86.9624 40.3161C86.2345 40.3544 85.5106 40.186 84.8735 39.8302C84.2365 39.4744 83.7121 38.9456 83.3603 38.3044H83.306V43.9996H80.9561V28.6976H83.2306V30.6101H83.2739C83.6418 29.9719 84.175 29.4459 84.8169 29.088C85.4588 28.73 86.1853 28.5535 86.9191 28.5773C89.8248 28.5773 91.74 30.8841 91.74 34.4473ZM89.3247 34.4473C89.3247 32.1194 88.1268 30.589 86.2993 30.589C84.5038 30.589 83.2961 32.1517 83.2961 34.4473C83.2961 36.7641 84.5038 38.3156 86.2993 38.3156C88.1269 38.3156 89.3247 36.7963 89.3247 34.4473H89.3247Z" fill="white"/>
<path d="M100.068 35.8018C100.242 37.3657 101.755 38.3926 103.822 38.3926C105.803 38.3926 107.228 37.3657 107.228 35.9555C107.228 34.7314 106.368 33.9984 104.333 33.4961L102.298 33.0037C99.4147 32.3042 98.0761 30.9499 98.0761 28.7522C98.0761 26.0311 100.437 24.1621 103.79 24.1621C107.108 24.1621 109.382 26.0311 109.459 28.7522H107.087C106.945 27.1784 105.649 26.2283 103.756 26.2283C101.863 26.2283 100.568 27.1895 100.568 28.5885C100.568 29.7035 101.395 30.3596 103.419 30.8618L105.149 31.2885C108.371 32.0537 109.71 33.3535 109.71 35.6603C109.71 38.6108 107.369 40.4587 103.648 40.4587C100.165 40.4587 97.8142 38.6542 97.6624 35.8016L100.068 35.8018Z" fill="white"/>
<path d="M114.781 25.9768V28.6979H116.958V30.5669H114.781V36.9057C114.781 37.8905 115.217 38.3494 116.174 38.3494C116.432 38.3449 116.69 38.3266 116.947 38.2948V40.1526C116.517 40.2334 116.079 40.2699 115.642 40.2618C113.324 40.2618 112.42 39.3874 112.42 37.1575V30.5669H110.755V28.6979H112.42V25.9768H114.781Z" fill="white"/>
<path d="M118.219 34.4473C118.219 30.8295 120.34 28.5562 123.649 28.5562C126.968 28.5562 129.079 30.8295 129.079 34.4473C129.079 38.0749 126.979 40.3384 123.649 40.3384C120.319 40.3384 118.219 38.0749 118.219 34.4473ZM126.685 34.4473C126.685 31.9656 125.553 30.5008 123.649 30.5008C121.744 30.5008 120.613 31.9767 120.613 34.4473C120.613 36.9389 121.744 38.3924 123.649 38.3924C125.553 38.3924 126.685 36.9389 126.685 34.4473H126.685Z" fill="white"/>
<path d="M131.017 28.698H133.258V30.6551H133.312C133.464 30.0438 133.821 29.5037 134.322 29.1254C134.824 28.747 135.439 28.5536 136.066 28.5777C136.337 28.5767 136.607 28.6063 136.871 28.6657V30.8734C136.529 30.7684 136.173 30.7203 135.815 30.7307C135.474 30.7168 135.134 30.7773 134.818 30.9079C134.502 31.0386 134.218 31.2364 133.985 31.4877C133.753 31.739 133.577 32.0379 133.47 32.3639C133.363 32.6899 133.328 33.0352 133.367 33.3761V40.1962H131.017L131.017 28.698Z" fill="white"/>
<path d="M147.706 36.8186C147.39 38.9059 145.366 40.3384 142.776 40.3384C139.446 40.3384 137.379 38.0973 137.379 34.5018C137.379 30.8952 139.457 28.5562 142.678 28.5562C145.845 28.5562 147.837 30.7414 147.837 34.2277V35.0364H139.751V35.179C139.714 35.6022 139.766 36.0285 139.906 36.4296C140.045 36.8307 140.268 37.1974 140.559 37.5055C140.85 37.8135 141.203 38.0558 141.595 38.2162C141.987 38.3766 142.408 38.4515 142.831 38.4358C143.386 38.4881 143.943 38.3589 144.42 38.0675C144.896 37.7761 145.266 37.3381 145.474 36.8186L147.706 36.8186ZM139.762 33.3869H145.486C145.507 33.0064 145.449 32.6256 145.317 32.2685C145.184 31.9113 144.98 31.5855 144.716 31.3115C144.453 31.0375 144.135 30.8212 143.785 30.6761C143.434 30.5311 143.057 30.4604 142.678 30.4686C142.295 30.4663 141.916 30.5401 141.561 30.6859C141.207 30.8316 140.885 31.0463 140.614 31.3176C140.343 31.5889 140.128 31.9115 139.982 32.2666C139.836 32.6218 139.761 33.0025 139.762 33.3869V33.3869Z" fill="white"/>
<path d="M55.6466 15.3763H56.6506C56.8235 15.3978 56.9989 15.3833 57.1658 15.3337C57.3328 15.284 57.4876 15.2004 57.6206 15.0879C57.7536 14.9755 57.8619 14.8367 57.9386 14.6803C58.0153 14.5239 58.0588 14.3534 58.0663 14.1794C58.0663 13.4869 57.5452 13.0396 56.6617 13.0396C56.4846 13.0149 56.3044 13.0258 56.1316 13.0719C55.9589 13.118 55.7971 13.1982 55.6559 13.3078C55.5146 13.4174 55.3968 13.5542 55.3093 13.7102C55.2218 13.8661 55.1664 14.038 55.1465 14.2156H54.0441C54.0631 13.8931 54.1483 13.578 54.2943 13.2898C54.4404 13.0016 54.6442 12.7466 54.8931 12.5406C55.142 12.3346 55.4306 12.182 55.741 12.0924C56.0514 12.0028 56.3769 11.978 56.6973 12.0196C58.1756 12.0196 59.2165 12.8473 59.2165 14.0387C59.22 14.4378 59.0865 14.826 58.8382 15.1386C58.59 15.4511 58.242 15.6691 57.8525 15.756V15.8445C58.3143 15.865 58.7492 16.0675 59.0622 16.4077C59.3751 16.7479 59.5406 17.1982 59.5225 17.6602C59.4883 17.9922 59.3882 18.3141 59.228 18.607C59.0678 18.8999 58.8508 19.1578 58.5896 19.3657C58.3284 19.5737 58.0283 19.7273 57.707 19.8178C57.3857 19.9082 57.0495 19.9336 56.7182 19.8924C56.3862 19.9377 56.0486 19.9156 55.7253 19.8276C55.402 19.7396 55.0998 19.5873 54.8366 19.38C54.5734 19.1727 54.3547 18.9145 54.1934 18.6208C54.0321 18.3271 53.9317 18.004 53.8979 17.6706H55.0175C55.085 18.3889 55.745 18.8522 56.7182 18.8522C57.6915 18.8522 58.3268 18.3318 58.3268 17.5982C58.3268 16.8541 57.7283 16.3957 56.6826 16.3957H55.6466V15.3763Z" fill="white"/>
<path d="M60.7944 18.1081C60.7944 17.0881 61.5551 16.5001 62.9019 16.4165L64.4368 16.328V15.839C64.4368 15.2405 64.0423 14.9025 63.2768 14.9025C62.6525 14.9025 62.2212 15.1317 62.0958 15.5324H61.0132C61.1275 14.5591 62.0442 13.9348 63.3296 13.9348C64.7502 13.9348 65.5514 14.642 65.5514 15.839V19.7105H64.4737V18.9142H64.3852C64.2056 19.1999 63.9534 19.4327 63.6544 19.589C63.3554 19.7453 63.0203 19.8195 62.6832 19.8039C62.4453 19.8286 62.2049 19.8032 61.9775 19.7294C61.75 19.6555 61.5405 19.5348 61.3626 19.375C61.1846 19.2153 61.0421 19.02 60.9443 18.8017C60.8464 18.5835 60.7954 18.3472 60.7944 18.1081V18.1081ZM64.4368 17.6239V17.1502L63.0531 17.2386C62.2727 17.2909 61.9188 17.5563 61.9188 18.0558C61.9188 18.5658 62.3612 18.8626 62.9695 18.8626C63.1478 18.8806 63.3278 18.8626 63.499 18.8097C63.6701 18.7567 63.8289 18.6699 63.9658 18.5543C64.1027 18.4387 64.2149 18.2968 64.2958 18.137C64.3768 17.9771 64.4247 17.8026 64.4368 17.6239V17.6239Z" fill="white"/>
<path d="M68.519 14.9855V19.7105H67.4008V14.0442H71.1317V14.9854L68.519 14.9855Z" fill="white"/>
<path d="M77.909 16.875C77.909 18.6753 76.9984 19.804 75.568 19.804C75.2168 19.828 74.8662 19.7512 74.5572 19.5825C74.2483 19.4139 73.994 19.1605 73.8242 18.8522H73.7357V21.5945H72.6174V14.0443H73.6939V14.9807H73.7775C73.9503 14.6617 74.208 14.3966 74.522 14.2147C74.836 14.0329 75.1942 13.9414 75.5569 13.9503C76.9984 13.9503 77.909 15.0741 77.909 16.875ZM76.7587 16.875C76.7587 15.6781 76.1922 14.9549 75.2448 14.9549C74.3035 14.9549 73.7148 15.6934 73.7148 16.8799C73.7148 18.0609 74.3035 18.8 75.2399 18.8C76.1922 18.8 76.7587 18.0768 76.7587 16.875Z" fill="white"/>
<path d="M79.3983 21.74V20.7772C79.5193 20.7926 79.6412 20.7996 79.7632 20.7981C80.0015 20.8157 80.2378 20.7448 80.427 20.5988C80.6161 20.4529 80.7447 20.2422 80.7881 20.0073L80.8717 19.7314L78.8207 14.0442H80.0385L81.4591 18.5449H81.5476L82.9633 14.0442H84.1491L82.0367 19.9446C81.5525 21.3234 81.0167 21.7658 79.8616 21.7658C79.7682 21.7658 79.5028 21.7554 79.3983 21.74Z" fill="white"/>
<path d="M85.0204 18.1023H86.1338C86.2431 18.6019 86.7113 18.8624 87.3663 18.8624C88.111 18.8624 88.5682 18.5343 88.5682 18.0243C88.5682 17.4781 88.1577 17.2175 87.3663 17.2175H86.5184V16.3487H87.3516C88.0274 16.3487 88.3715 16.0888 88.3715 15.6151C88.3715 15.1991 88.0385 14.8815 87.3516 14.8815C86.7261 14.8815 86.2689 15.1469 86.1964 15.5942H85.1187C85.1993 15.0802 85.4783 14.6184 85.8959 14.308C86.3135 13.9977 86.8362 13.8636 87.3516 13.9346C88.6984 13.9346 89.4689 14.5435 89.4689 15.5008C89.4752 15.7674 89.3898 16.0281 89.2269 16.2392C89.0641 16.4504 88.8337 16.5992 88.5743 16.6609V16.7494C88.8832 16.7892 89.1666 16.941 89.371 17.1761C89.5753 17.4111 89.6862 17.7129 89.6827 18.0243C89.6827 19.1015 88.766 19.8142 87.3663 19.8142C86.1288 19.8141 85.1236 19.247 85.0204 18.1023Z" fill="white"/>
<path d="M91.2932 19.7105V14.0442H92.4017V17.9416H92.4901L95.1015 14.0442H96.2099V19.7105H95.1015V15.7923H95.0179L92.4017 19.7106L91.2932 19.7105Z" fill="white"/>
<path d="M102.316 14.9854H100.532V19.7105H99.4123V14.9854H97.6279V14.0442H102.316V14.9854Z" fill="white"/>
<path d="M108.34 18.1807C108.188 18.6985 107.858 19.1464 107.409 19.446C106.96 19.7456 106.42 19.878 105.884 19.82C105.51 19.8298 105.139 19.7583 104.796 19.6105C104.453 19.4626 104.147 19.2418 103.898 18.9635C103.649 18.6853 103.463 18.3561 103.354 17.999C103.245 17.6418 103.215 17.2652 103.266 16.8953C103.216 16.5242 103.247 16.1468 103.356 15.7885C103.465 15.4303 103.649 15.0997 103.897 14.819C104.145 14.5383 104.45 14.314 104.792 14.1615C105.134 14.009 105.504 13.9317 105.879 13.9349C107.455 13.9349 108.408 15.0121 108.408 16.7914V17.1816H104.407V17.2443C104.389 17.4523 104.415 17.6617 104.483 17.859C104.551 18.0563 104.659 18.2373 104.802 18.3902C104.944 18.543 105.116 18.6645 105.308 18.7467C105.5 18.8289 105.707 18.8701 105.916 18.8676C106.183 18.8995 106.454 18.8513 106.693 18.729C106.933 18.6067 107.131 18.4158 107.262 18.1806L108.34 18.1807ZM104.406 16.3546H107.267C107.281 16.1645 107.256 15.9736 107.192 15.794C107.128 15.6145 107.027 15.4504 106.895 15.3121C106.764 15.1739 106.606 15.0646 106.43 14.9914C106.254 14.9181 106.064 14.8824 105.874 14.8867C105.68 14.8841 105.488 14.9202 105.309 14.9931C105.13 15.0659 104.967 15.174 104.83 15.3108C104.693 15.4476 104.585 15.6105 104.513 15.7898C104.44 15.9691 104.404 16.1611 104.407 16.3546H104.406Z" fill="white"/>
<path d="M113.081 14.0442H115.636C116.744 14.0442 117.395 14.6058 117.395 15.485C117.396 15.764 117.302 16.0351 117.128 16.253C116.954 16.4709 116.71 16.6223 116.437 16.6819V16.7704C116.768 16.7913 117.078 16.9385 117.304 17.1816C117.529 17.4247 117.653 17.7452 117.649 18.0767C117.649 19.0653 116.905 19.7105 115.662 19.7105H113.081V14.0442ZM114.19 14.9026V16.3698H115.298C115.974 16.3698 116.297 16.1099 116.297 15.6307C116.297 15.1889 116.016 14.9025 115.422 14.9025L114.19 14.9026ZM114.19 17.192V18.8522H115.516C116.177 18.8522 116.531 18.5603 116.531 18.0245C116.531 17.4574 116.13 17.192 115.376 17.192L114.19 17.192Z" fill="white"/>
<rect x="0.5" y="0.5" width="169" height="55" rx="2.5" stroke="white"/>
</svg>
