<svg width="188" height="56" viewBox="0 0 188 56" fill="none" xmlns="http://www.w3.org/2000/svg">
<path fill-rule="evenodd" clip-rule="evenodd" d="M56 11H12V47H56V11ZM41.1127 15.645H30.3609C29.7906 15.645 29.2436 15.8285 28.8403 16.1552C28.4371 16.4819 28.2105 16.925 28.2105 17.387C28.2105 17.8489 28.4371 18.292 28.8403 18.6187C29.2436 18.9454 29.7906 19.1289 30.3609 19.1289H41.1127C41.6831 19.1289 42.2301 18.9454 42.6333 18.6187C43.0366 18.292 43.2632 17.8489 43.2632 17.387C43.2632 16.925 43.0366 16.4819 42.6333 16.1552C42.2301 15.8285 41.6831 15.645 41.1127 15.645Z" fill="#EFEFEF"/>
<g clip-path="url(#clip0)">
<path d="M52.201 36.6402H34.0007C29.933 36.6364 26.6322 39.8138 26.6282 43.7371C26.6269 44.9558 26.9507 46.1542 27.5684 47.2172L18.4683 32.1569C25.0964 23.8827 37.424 22.3577 46.0026 28.7507C48.7576 30.8038 50.8968 33.5267 52.201 36.6402Z" fill="#F44336"/>
<path d="M53.6414 43.7443C53.6324 54.2031 44.8442 62.6794 34.0007 62.6881C33.1795 62.6911 32.3591 62.6383 31.5457 62.5303L40.384 47.2963C42.4096 43.895 41.2021 39.5541 37.6834 37.5876C36.5693 36.9655 35.3044 36.6386 34.0171 36.6404H52.2011C53.1569 38.8951 53.6462 41.3084 53.6414 43.7443Z" fill="#FFC107"/>
<path d="M40.3839 47.2962L31.5456 62.5302H31.5293C20.7739 61.2195 13.1566 51.7474 14.5154 41.3736C14.9553 38.0159 16.3202 34.8332 18.4683 32.157L27.5684 47.2173L27.6175 47.2962C29.6469 50.6965 34.1498 51.8662 37.6751 49.9089C38.8012 49.2837 39.7358 48.3823 40.3839 47.2962Z" fill="#4CAF50"/>
<path d="M40.3839 47.2961C38.3545 50.6963 33.8516 51.866 30.3263 49.9088C29.2002 49.2835 28.2657 48.3822 27.6175 47.2961L27.5684 47.2171C25.5797 43.7946 26.8442 39.4651 30.3926 37.547C31.4948 36.9512 32.7373 36.639 34.0007 36.6401H34.017C35.3043 36.6384 36.5692 36.9652 37.6833 37.5873C41.2021 39.5539 42.4096 43.8948 40.3839 47.2961Z" fill="#F44336"/>
<path d="M40.3839 47.2961C38.3545 50.6963 33.8516 51.866 30.3263 49.9088C29.2002 49.2835 28.2657 48.3822 27.6175 47.2961L27.5684 47.2171C25.5797 43.7946 26.8442 39.4651 30.3926 37.547C31.4948 36.9512 32.7373 36.639 34.0007 36.6401H34.017C35.3043 36.6384 36.5692 36.9652 37.6833 37.5873C41.2021 39.5539 42.4096 43.8948 40.3839 47.2961Z" fill="#2196F3"/>
<path d="M33.9729 51.6373C32.546 51.6371 31.1443 51.2745 29.9089 50.5859C28.6632 49.891 27.6286 48.8926 26.9088 47.6907C24.649 43.9154 25.99 39.088 29.9042 36.9084C31.1496 36.2148 32.5626 35.8501 34.0007 35.8508C38.5204 35.8474 42.1872 39.3787 42.1907 43.738C42.1918 45.1256 41.8136 46.4889 41.0942 47.6907C39.6193 50.1364 36.9062 51.6399 33.9729 51.6373ZM34.0154 37.4295C31.6667 37.4174 29.4923 38.6231 28.3212 40.5868C26.5134 43.6104 27.5891 47.4751 30.7239 49.2188C33.8587 50.9626 37.8656 49.925 39.6735 46.9014C41.4814 43.8812 40.4085 40.0193 37.2772 38.2755C36.2858 37.7235 35.1617 37.4317 34.017 37.4295H34.0154V37.4295Z" fill="#FAFAFA"/>
</g>
<path d="M70.9647 40.9616C69.5616 40.9616 68.3744 40.4801 67.439 39.48C66.5037 38.517 66 37.2947 66 35.8131C66 34.3685 66.4677 33.1462 67.439 32.1461C68.3744 31.1831 69.5616 30.6646 70.9647 30.6646C72.4037 30.6646 73.555 31.1831 74.4544 32.2573L73.5909 33.1092C72.9434 32.2943 72.044 31.8498 70.9287 31.8498C69.8854 31.8498 69.022 32.2202 68.3025 32.924C67.5829 33.6277 67.2232 34.5908 67.2232 35.7761C67.2232 36.9613 67.5829 37.8873 68.3025 38.6281C69.022 39.3319 69.8854 39.7023 70.9287 39.7023C72.0799 39.7023 73.0513 39.2208 73.8428 38.2948L74.7062 39.1837C74.2745 39.7393 73.7348 40.1468 73.0513 40.4801C72.4757 40.8135 71.7562 40.9616 70.9647 40.9616Z" fill="#5F6368"/>
<path d="M77.0807 30.9255V34.0369L77.0448 34.9629H77.0807C77.2606 34.6295 77.5484 34.3703 77.9082 34.148C78.3039 33.9258 78.6996 33.8147 79.1314 33.8147C79.9228 33.8147 80.5704 34.0739 80.9661 34.5925C81.3978 35.1111 81.6137 35.7778 81.6137 36.6667V40.7782H80.3905V36.8149C80.3905 35.5555 79.8509 34.9629 78.7716 34.9629C78.2679 34.9629 77.8362 35.1851 77.5484 35.5926C77.2246 36 77.0807 36.4815 77.0807 37.0371V40.7411H75.8575V30.9255H77.0807Z" fill="#5F6368"/>
<path d="M84.2757 40.7413H83.0525V34.0371H84.2397V35.1483H84.2757C84.3836 34.7779 84.6714 34.4816 85.0312 34.2593C85.4269 34.0371 85.7867 33.8889 86.1464 33.8889C86.5062 33.8889 86.83 33.926 87.0818 34.0371L86.6141 35.2224C86.4702 35.1483 86.2543 35.1112 85.9665 35.1112C85.5348 35.1112 85.1391 35.2964 84.7793 35.6668C84.4556 36.0372 84.2757 36.5188 84.2757 37.0744V40.7413Z" fill="#5F6368"/>
<path d="M88.0894 34.8513C88.737 34.1846 89.5285 33.8142 90.4998 33.8142C91.4712 33.8142 92.2627 34.1476 92.9102 34.8513C93.5578 35.518 93.8456 36.37 93.8456 37.4071C93.8456 38.4442 93.5218 39.2961 92.9102 39.9628C92.2627 40.6296 91.4712 41 90.4998 41C89.5285 41 88.737 40.6666 88.0894 39.9628C87.4419 39.2961 87.1541 38.4442 87.1541 37.4071C87.1181 36.37 87.4419 35.518 88.0894 34.8513ZM88.9888 39.148C89.4206 39.5924 89.9242 39.8147 90.4998 39.8147C91.0755 39.8147 91.5791 39.5924 92.0108 39.148C92.4425 38.7035 92.6584 38.1108 92.6584 37.37C92.6584 36.6292 92.4425 36.0366 92.0108 35.5921C91.5791 35.1476 91.0755 34.9254 90.4998 34.9254C89.9242 34.9254 89.4206 35.1476 88.9888 35.5921C88.5571 36.0366 88.3413 36.6292 88.3413 37.37C88.3413 38.1108 88.5571 38.7035 88.9888 39.148Z" fill="#5F6368"/>
<path d="M94.8169 40.7407V34.0364H96.0041V34.9624H96.0401C96.22 34.6291 96.5078 34.3698 96.9035 34.1476C97.2992 33.9253 97.659 33.8142 98.0547 33.8142C99.0621 33.8142 99.7456 34.2587 100.105 35.1106C100.645 34.2587 101.401 33.8142 102.372 33.8142C103.127 33.8142 103.739 34.0735 104.099 34.592C104.494 35.1106 104.674 35.7773 104.674 36.6663V40.7777H103.451V36.8144C103.451 36.1477 103.343 35.6662 103.091 35.3699C102.84 35.0736 102.48 34.9624 102.012 34.9624C101.544 34.9624 101.149 35.1847 100.825 35.5921C100.501 35.9996 100.357 36.4811 100.357 37.0367V40.7407H99.134V36.8144C99.134 36.1477 99.0261 35.6662 98.7743 35.3699C98.5224 35.0736 98.1627 34.9624 97.695 34.9624C97.2273 34.9624 96.8316 35.1847 96.5078 35.5921C96.184 35.9996 96.0401 36.4811 96.0401 37.0367V40.7407H94.8169Z" fill="#5F6368"/>
<path d="M109.135 40.9644C108.164 40.9644 107.337 40.6311 106.725 39.9644C106.113 39.2976 105.79 38.4457 105.79 37.4086C105.79 36.4456 106.077 35.5937 106.689 34.8899C107.301 34.1861 108.056 33.8528 108.992 33.8528C109.963 33.8528 110.718 34.1861 111.33 34.8158C111.942 35.4455 112.193 36.3345 112.193 37.4086V37.6309H107.049C107.085 38.2976 107.301 38.8532 107.696 39.2236C108.092 39.631 108.56 39.8162 109.099 39.8162C109.963 39.8162 110.574 39.4458 110.898 38.668L111.978 39.1495C111.762 39.668 111.402 40.1125 110.934 40.4459C110.431 40.7792 109.819 40.9644 109.135 40.9644ZM110.862 36.5937C110.826 36.2233 110.682 35.8529 110.359 35.4825C110.035 35.1492 109.567 34.964 108.956 34.964C108.488 34.964 108.128 35.1121 107.768 35.4085C107.409 35.7048 107.193 36.0752 107.085 36.5937H110.862Z" fill="#5F6368"/>
<path d="M127.015 30.9255L124.461 40.7411H123.202L121.151 34.2591H121.115L119.065 40.7411H117.805L115.143 30.9255H116.438L118.453 38.6298H118.489L120.54 32.2219H121.691L123.741 38.6298H123.777L125.684 30.9255H127.015Z" fill="#5F6368"/>
<path d="M130.181 40.9644C129.21 40.9644 128.382 40.6311 127.771 39.9644C127.159 39.2976 126.835 38.4457 126.835 37.4086C126.835 36.4456 127.123 35.5937 127.735 34.8899C128.346 34.1861 129.102 33.8528 130.037 33.8528C131.009 33.8528 131.764 34.1861 132.376 34.8158C132.987 35.4455 133.239 36.3345 133.239 37.4086V37.6309H128.095C128.131 38.2976 128.346 38.8532 128.742 39.2236C129.138 39.631 129.606 39.8162 130.145 39.8162C131.009 39.8162 131.62 39.4458 131.944 38.668L133.023 39.1495C132.807 39.668 132.448 40.1125 131.98 40.4459C131.512 40.7792 130.901 40.9644 130.181 40.9644ZM131.944 36.5937C131.908 36.2233 131.764 35.8529 131.44 35.4825C131.117 35.1492 130.649 34.964 130.037 34.964C129.57 34.964 129.21 35.1121 128.85 35.4085C128.49 35.7048 128.274 36.0752 128.167 36.5937H131.944Z" fill="#5F6368"/>
<path d="M137.808 40.9634C137.305 40.9634 136.873 40.8522 136.477 40.63C136.081 40.4078 135.794 40.1485 135.578 39.8151H135.542V40.7411H134.355V30.9255H135.578V34.0369L135.542 34.9629H135.578C135.758 34.6295 136.081 34.3703 136.477 34.148C136.873 33.9258 137.305 33.8147 137.808 33.8147C138.636 33.8147 139.391 34.148 140.003 34.8518C140.614 35.5555 140.938 36.3704 140.938 37.4075C140.938 38.4076 140.614 39.2595 140.003 39.9633C139.391 40.63 138.672 40.9634 137.808 40.9634ZM137.628 39.8151C138.204 39.8151 138.672 39.5929 139.103 39.1484C139.535 38.7039 139.715 38.1113 139.715 37.3705C139.715 36.6297 139.499 36.0371 139.103 35.5926C138.708 35.1481 138.204 34.9259 137.628 34.9259C137.053 34.9259 136.549 35.1481 136.153 35.5926C135.758 36.0371 135.542 36.6297 135.542 37.3705C135.542 38.1113 135.758 38.7039 136.153 39.1484C136.549 39.5929 137.053 39.8151 137.628 39.8151Z" fill="#5F6368"/>
<path d="M147.45 40.9614C146.766 40.9614 146.083 40.7392 145.435 40.2577C144.788 39.7761 144.356 39.1465 144.14 38.2945L145.255 37.813C145.399 38.3686 145.651 38.8131 146.083 39.1835C146.514 39.5539 146.946 39.7391 147.486 39.7391C148.025 39.7391 148.457 39.5909 148.853 39.2946C149.213 38.9983 149.428 38.6279 149.428 38.1093C149.428 37.5537 149.249 37.1463 148.853 36.85C148.493 36.5537 147.881 36.2944 147.054 36.0351C146.227 35.7758 145.579 35.4054 145.147 34.9609C144.716 34.5165 144.5 33.9609 144.5 33.2941C144.5 32.5904 144.788 31.9607 145.327 31.4421C145.867 30.9236 146.586 30.6643 147.45 30.6643C148.241 30.6643 148.925 30.8865 149.428 31.294C149.932 31.7014 150.256 32.1459 150.4 32.6645L149.285 33.146C149.213 32.8497 148.997 32.5533 148.709 32.2941C148.385 32.0348 147.989 31.8866 147.486 31.8866C147.018 31.8866 146.622 32.0348 146.299 32.2941C145.975 32.5533 145.795 32.8867 145.795 33.2941C145.795 33.6645 145.939 33.9609 146.263 34.2201C146.586 34.4794 147.018 34.7017 147.63 34.8869C148.097 35.035 148.493 35.1832 148.817 35.3313C149.141 35.4795 149.464 35.6647 149.788 35.924C150.112 36.1833 150.364 36.4796 150.508 36.8129C150.688 37.1833 150.76 37.5908 150.76 38.0723C150.76 38.5538 150.652 38.9613 150.472 39.3317C150.292 39.7021 150.04 39.9984 149.716 40.2206C149.392 40.4429 149.069 40.591 148.709 40.7392C148.205 40.9244 147.845 40.9614 147.45 40.9614Z" fill="#5F6368"/>
<path d="M154.429 40.8533C153.746 40.8533 153.242 40.6681 152.882 40.2977C152.522 39.9273 152.342 39.4087 152.342 38.705V35.1862H151.191V34.0379H152.342V32.0007H153.566V34.0379H155.149V35.1862H153.566V38.5938C153.566 39.3346 153.853 39.705 154.429 39.705C154.645 39.705 154.825 39.668 155.005 39.5939L155.436 40.6681C155.149 40.8163 154.789 40.8533 154.429 40.8533Z" fill="#5F6368"/>
<path d="M156.804 34.8513C157.451 34.1846 158.243 33.8142 159.214 33.8142C160.185 33.8142 160.977 34.1476 161.624 34.8513C162.272 35.518 162.56 36.37 162.56 37.4071C162.56 38.4442 162.236 39.2961 161.624 39.9628C160.977 40.6296 160.185 41 159.214 41C158.243 41 157.451 40.6666 156.804 39.9628C156.156 39.2961 155.868 38.4442 155.868 37.4071C155.868 36.37 156.192 35.518 156.804 34.8513ZM157.739 39.148C158.171 39.5924 158.674 39.8147 159.25 39.8147C159.826 39.8147 160.329 39.5924 160.761 39.148C161.193 38.7035 161.409 38.1108 161.409 37.37C161.409 36.6292 161.193 36.0366 160.761 35.5921C160.329 35.1476 159.826 34.9254 159.25 34.9254C158.674 34.9254 158.171 35.1476 157.739 35.5921C157.307 36.0366 157.091 36.6292 157.091 37.37C157.091 38.1108 157.307 38.7035 157.739 39.148Z" fill="#5F6368"/>
<path d="M164.79 40.7413H163.567V34.0371H164.754V35.1483H164.79C164.898 34.7779 165.186 34.4816 165.545 34.2593C165.941 34.0371 166.301 33.8889 166.661 33.8889C167.021 33.8889 167.344 33.926 167.596 34.0371L167.128 35.2224C166.985 35.1483 166.769 35.1112 166.481 35.1112C166.049 35.1112 165.653 35.2964 165.294 35.6668C164.934 36.0372 164.79 36.5188 164.79 37.0744V40.7413Z" fill="#5F6368"/>
<path d="M170.942 40.9644C169.971 40.9644 169.143 40.6311 168.532 39.9644C167.92 39.2976 167.596 38.4457 167.596 37.4086C167.596 36.4456 167.884 35.5937 168.496 34.8899C169.107 34.1861 169.863 33.8528 170.798 33.8528C171.769 33.8528 172.525 34.1861 173.137 34.8158C173.748 35.4455 174 36.3345 174 37.4086V37.6309H168.855C168.891 38.2976 169.107 38.8532 169.503 39.2236C169.899 39.631 170.366 39.8162 170.906 39.8162C171.769 39.8162 172.381 39.4458 172.705 38.668L173.784 39.1495C173.568 39.668 173.209 40.1125 172.741 40.4459C172.273 40.7792 171.662 40.9644 170.942 40.9644ZM172.705 36.5937C172.669 36.2233 172.525 35.8529 172.201 35.4825C171.877 35.1492 171.41 34.964 170.798 34.964C170.33 34.964 169.971 35.1121 169.611 35.4085C169.251 35.7048 169.035 36.0752 168.927 36.5937H172.705Z" fill="#5F6368"/>
<path d="M73.7004 26.52H72.8904V25H67.6304V26.52H66.8204V24.19H67.4704C67.797 23.8633 68.0404 23.3333 68.2004 22.6C68.3604 21.8667 68.4404 21.07 68.4404 20.21V17.84H72.9404V24.19H73.7004V26.52ZM72.0904 24.19V18.65H69.2704V20.33C69.2704 21.1433 69.197 21.8833 69.0504 22.55C68.9104 23.21 68.7037 23.7567 68.4304 24.19H72.0904ZM77.0454 25.16C76.5454 25.16 76.0954 25.04 75.6954 24.8C75.2954 24.56 74.9821 24.2333 74.7554 23.82C74.5354 23.4067 74.4254 22.95 74.4254 22.45C74.4254 21.95 74.5354 21.4933 74.7554 21.08C74.9821 20.6667 75.2954 20.34 75.6954 20.1C76.0954 19.86 76.5454 19.74 77.0454 19.74C77.5454 19.74 77.9954 19.86 78.3954 20.1C78.7954 20.34 79.1054 20.6667 79.3254 21.08C79.5521 21.4933 79.6654 21.95 79.6654 22.45C79.6654 22.95 79.5521 23.4067 79.3254 23.82C79.1054 24.2333 78.7954 24.56 78.3954 24.8C77.9954 25.04 77.5454 25.16 77.0454 25.16ZM77.0454 24.39C77.3588 24.39 77.6488 24.3133 77.9154 24.16C78.1888 24 78.4054 23.7733 78.5654 23.48C78.7321 23.1867 78.8154 22.8433 78.8154 22.45C78.8154 22.0567 78.7321 21.7133 78.5654 21.42C78.4054 21.1267 78.1888 20.9033 77.9154 20.75C77.6488 20.59 77.3588 20.51 77.0454 20.51C76.7321 20.51 76.4388 20.59 76.1654 20.75C75.8921 20.9033 75.6721 21.1267 75.5054 21.42C75.3454 21.7133 75.2654 22.0567 75.2654 22.45C75.2654 22.8433 75.3454 23.1867 75.5054 23.48C75.6721 23.7733 75.8921 24 76.1654 24.16C76.4388 24.3133 76.7321 24.39 77.0454 24.39ZM82.9625 25.16C82.4691 25.16 82.0258 25.0433 81.6325 24.81C81.2391 24.57 80.9325 24.2467 80.7125 23.84C80.4925 23.4267 80.3825 22.9633 80.3825 22.45C80.3825 21.9367 80.4925 21.4733 80.7125 21.06C80.9325 20.6467 81.2391 20.3233 81.6325 20.09C82.0258 19.8567 82.4691 19.74 82.9625 19.74C83.5158 19.74 83.9791 19.87 84.3525 20.13C84.7325 20.3833 85.0025 20.7233 85.1625 21.15L84.3925 21.47C84.2658 21.1567 84.0758 20.92 83.8225 20.76C83.5758 20.5933 83.2758 20.51 82.9225 20.51C82.6225 20.51 82.3425 20.5933 82.0825 20.76C81.8225 20.92 81.6125 21.1467 81.4525 21.44C81.2991 21.7333 81.2225 22.07 81.2225 22.45C81.2225 22.83 81.2991 23.1667 81.4525 23.46C81.6125 23.7533 81.8225 23.9833 82.0825 24.15C82.3425 24.31 82.6225 24.39 82.9225 24.39C83.2825 24.39 83.5925 24.3067 83.8525 24.14C84.1125 23.9733 84.3058 23.7367 84.4325 23.43L85.1925 23.75C85.0191 24.17 84.7391 24.51 84.3525 24.77C83.9725 25.03 83.5091 25.16 82.9625 25.16ZM87.4214 20.67H85.7614V19.9H89.9314V20.67H88.2614V25H87.4214V20.67ZM92.3882 24.68L90.2782 19.9H91.1982L92.7982 23.69H92.8182L94.3582 19.9H95.2782L92.1282 27.16H91.2482L92.3882 24.68ZM95.9845 19.9H100.284V25H99.4345V20.67H96.8345V25H95.9845V19.9ZM101.541 19.9H102.391V22.04H105.171V19.9H106.011V25H105.171V22.83H102.391V25H101.541V19.9ZM109.575 25.16C109.075 25.16 108.625 25.04 108.225 24.8C107.825 24.56 107.511 24.2333 107.285 23.82C107.065 23.4067 106.955 22.95 106.955 22.45C106.955 21.95 107.065 21.4933 107.285 21.08C107.511 20.6667 107.825 20.34 108.225 20.1C108.625 19.86 109.075 19.74 109.575 19.74C110.075 19.74 110.525 19.86 110.925 20.1C111.325 20.34 111.635 20.6667 111.855 21.08C112.081 21.4933 112.195 21.95 112.195 22.45C112.195 22.95 112.081 23.4067 111.855 23.82C111.635 24.2333 111.325 24.56 110.925 24.8C110.525 25.04 110.075 25.16 109.575 25.16ZM109.575 24.39C109.888 24.39 110.178 24.3133 110.445 24.16C110.718 24 110.935 23.7733 111.095 23.48C111.261 23.1867 111.345 22.8433 111.345 22.45C111.345 22.0567 111.261 21.7133 111.095 21.42C110.935 21.1267 110.718 20.9033 110.445 20.75C110.178 20.59 109.888 20.51 109.575 20.51C109.261 20.51 108.968 20.59 108.695 20.75C108.421 20.9033 108.201 21.1267 108.035 21.42C107.875 21.7133 107.795 22.0567 107.795 22.45C107.795 22.8433 107.875 23.1867 108.035 23.48C108.201 23.7733 108.421 24 108.695 24.16C108.968 24.3133 109.261 24.39 109.575 24.39ZM115.506 19.9H117.956C118.236 19.9 118.493 19.96 118.726 20.08C118.959 20.1933 119.143 20.3533 119.276 20.56C119.409 20.7667 119.476 20.9933 119.476 21.24C119.476 21.4933 119.416 21.72 119.296 21.92C119.183 22.1133 119.029 22.26 118.836 22.36V22.4C119.083 22.5 119.279 22.6467 119.426 22.84C119.579 23.0333 119.656 23.26 119.656 23.52C119.656 23.8067 119.586 24.0633 119.446 24.29C119.306 24.51 119.116 24.6833 118.876 24.81C118.636 24.9367 118.376 25 118.096 25H115.506V19.9ZM117.916 22.05C118.123 22.05 118.293 21.9867 118.426 21.86C118.566 21.7267 118.636 21.56 118.636 21.36C118.636 21.16 118.566 20.9967 118.426 20.87C118.286 20.7367 118.113 20.67 117.906 20.67H116.356V22.05H117.916ZM118.026 24.23C118.239 24.23 118.419 24.16 118.566 24.02C118.719 23.8733 118.796 23.6933 118.796 23.48C118.796 23.2733 118.719 23.1 118.566 22.96C118.419 22.8133 118.239 22.74 118.026 22.74H116.356V24.23H118.026Z" fill="#5F6368"/>
<rect x="0.5" y="0.5" width="187" height="55" rx="2.5" stroke="#444444"/>
<defs>
<clipPath id="clip0">
<rect width="40" height="31" fill="white" transform="translate(14 16)"/>
</clipPath>
</defs>
</svg>
