<svg width="170" height="56" viewBox="0 0 170 56" fill="none" xmlns="http://www.w3.org/2000/svg">
<path d="M127.509 38.6913H129.534V25.4772H127.509V38.6913ZM145.748 30.2372L143.427 35.9662H143.357L140.948 30.2372H138.767L142.38 38.2445L140.32 42.6985H142.433L148 30.2372H145.748ZM134.264 37.1905C133.6 37.1905 132.676 36.8676 132.676 36.0682C132.676 35.0483 133.828 34.6573 134.822 34.6573C135.713 34.6573 136.131 34.8443 136.673 35.0996C136.515 36.3234 135.433 37.1905 134.264 37.1905V37.1905ZM134.509 29.9482C133.043 29.9482 131.524 30.5774 130.896 31.9714L132.693 32.7022C133.077 31.9714 133.792 31.7332 134.543 31.7332C135.591 31.7332 136.655 32.3455 136.673 33.4335V33.5693C136.306 33.3653 135.521 33.0594 134.561 33.0594C132.624 33.0594 130.651 34.0961 130.651 36.0343C130.651 37.8024 132.239 38.9415 134.019 38.9415C135.381 38.9415 136.131 38.3465 136.603 37.6496H136.673V38.6695H138.627V33.6031C138.627 31.2575 136.83 29.9482 134.509 29.9482V29.9482ZM121.994 31.8458H119.114V27.3164H121.994C123.508 27.3164 124.367 28.5372 124.367 29.581C124.367 30.6051 123.508 31.8458 121.994 31.8458ZM121.942 25.4772H117.09V38.6913H119.114V33.685H121.942C124.186 33.685 126.392 32.1023 126.392 29.581C126.392 27.0599 124.186 25.4772 121.942 25.4772ZM95.4834 37.1929C94.0845 37.1929 92.9132 36.0521 92.9132 34.4851C92.9132 32.9017 94.0845 31.7435 95.4834 31.7435C96.8646 31.7435 97.9485 32.9017 97.9485 34.4851C97.9485 36.0521 96.8646 37.1929 95.4834 37.1929V37.1929ZM97.8086 30.9772H97.7386C97.2842 30.4494 96.4096 29.9726 95.3084 29.9726C93.0006 29.9726 90.8853 31.9478 90.8853 34.4851C90.8853 37.0055 93.0006 38.9639 95.3084 38.9639C96.4096 38.9639 97.2842 38.4869 97.7386 37.9423H97.8086V38.5893C97.8086 40.3096 96.8646 41.2291 95.3435 41.2291C94.1023 41.2291 93.333 40.3603 93.0179 39.6282L91.2524 40.3434C91.7594 41.5354 93.1057 43 95.3435 43C97.7212 43 99.7318 41.6374 99.7318 38.3168V30.2451H97.8086V30.9772ZM101.13 38.6913H103.158V25.4768H101.13V38.6913ZM106.148 34.332C106.096 32.5948 107.529 31.7096 108.561 31.7096C109.365 31.7096 110.047 32.101 110.274 32.6634L106.148 34.332ZM112.442 32.8335C112.058 31.8285 110.886 29.9726 108.491 29.9726C106.113 29.9726 104.138 31.7947 104.138 34.4682C104.138 36.9886 106.096 38.9639 108.718 38.9639C110.834 38.9639 112.058 37.7037 112.565 36.9716L110.991 35.9496C110.467 36.6991 109.75 37.1929 108.718 37.1929C107.686 37.1929 106.952 36.733 106.48 35.8307L112.651 33.3443L112.442 32.8335ZM63.2731 31.352V33.2592H67.9585C67.8186 34.332 67.4515 35.1152 66.8919 35.6602C66.2103 36.3246 65.1438 37.0567 63.2731 37.0567C60.3883 37.0567 58.1331 34.7919 58.1331 31.9821C58.1331 29.1723 60.3883 26.9072 63.2731 26.9072C64.8292 26.9072 65.9653 27.5034 66.8046 28.2697L68.1857 26.9245C67.0144 25.8344 65.4583 25 63.2731 25C59.3217 25 56 28.1335 56 31.9821C56 35.8307 59.3217 38.9639 63.2731 38.9639C65.4062 38.9639 67.0145 38.283 68.2731 37.0055C69.5669 35.7453 69.9691 33.9744 69.9691 32.5441C69.9691 32.101 69.9343 31.6927 69.864 31.352H63.2731ZM75.296 37.1929C73.8971 37.1929 72.6906 36.069 72.6906 34.4682C72.6906 32.8504 73.8971 31.7435 75.296 31.7435C76.6944 31.7435 77.9008 32.8504 77.9008 34.4682C77.9008 36.069 76.6944 37.1929 75.296 37.1929V37.1929ZM75.296 29.9726C72.7432 29.9726 70.6626 31.8627 70.6626 34.4682C70.6626 37.0567 72.7432 38.9639 75.296 38.9639C77.8483 38.9639 79.9289 37.0567 79.9289 34.4682C79.9289 31.8627 77.8483 29.9726 75.296 29.9726ZM85.4028 37.1929C84.0044 37.1929 82.7979 36.069 82.7979 34.4682C82.7979 32.8504 84.0044 31.7435 85.4028 31.7435C86.8013 31.7435 88.0077 32.8504 88.0077 34.4682C88.0077 36.069 86.8013 37.1929 85.4028 37.1929ZM85.4028 29.9726C82.8501 29.9726 80.7699 31.8627 80.7699 34.4682C80.7699 37.0567 82.8501 38.9639 85.4028 38.9639C87.9552 38.9639 90.0358 37.0567 90.0358 34.4682C90.0358 31.8627 87.9552 29.9726 85.4028 29.9726Z" fill="white"/>
<path fill-rule="evenodd" clip-rule="evenodd" d="M59.5297 16.365V14.1268H61.9985V18.6756H58.9966C59.3542 18.0845 59.5306 17.3412 59.5306 16.4525L59.5297 16.365ZM57.7072 18.6756H57.109H57V21H57.9128H58.0219V20.8948V19.661H62.7662V20.8948V21H63.6794H63.7885V18.6756H63.0579V13.1414H58.4717V16.3667V16.3671L58.4721 16.4352C58.4717 17.5026 58.2085 18.2411 57.7072 18.6756ZM66.137 18.1385L66.1372 18.1383C65.6745 17.6843 65.4432 17.1133 65.442 16.4011C65.4432 15.6889 65.6745 15.1179 66.1372 14.664H66.1367C66.6036 14.2101 67.1611 13.9875 67.8367 13.9863C68.5118 13.9875 69.0707 14.2101 69.5362 14.664C70.0001 15.1179 70.231 15.6889 70.2322 16.4011C70.231 17.1133 70.0001 17.6843 69.5362 18.1383C69.0707 18.5921 68.5118 18.8148 67.8367 18.816C67.1612 18.8148 66.6037 18.5922 66.137 18.1385ZM71.3086 16.4011C71.3095 17.3467 70.9751 18.1588 70.314 18.8135C69.6525 19.4711 68.8177 19.8027 67.8367 19.8018C66.8553 19.8027 66.0204 19.4711 65.3602 18.8135V18.8139C64.6978 18.1588 64.3648 17.3467 64.3656 16.4011C64.3648 15.4556 64.6978 14.6435 65.3602 13.9884V13.9888C66.0204 13.3311 66.8553 12.9988 67.8367 13C68.813 12.9988 69.6452 13.3327 70.3098 13.9929C70.9743 14.6505 71.3095 15.4609 71.3086 16.4011ZM76.9478 19.4876C76.4828 19.6975 75.9749 19.8018 75.4315 19.8018C74.4441 19.8027 73.6028 19.4757 72.9328 18.8283C72.2594 18.1814 71.922 17.3639 71.9233 16.4011C71.922 15.4383 72.2594 14.6209 72.9328 13.9744C73.6028 13.3266 74.4441 12.9992 75.4315 13C76.4435 12.9988 77.2839 13.3578 77.9174 14.0676L77.9846 14.1427L77.9105 14.2118L77.2388 14.8391L77.1639 14.7486C76.7383 14.2385 76.1722 13.9879 75.4315 13.9863C74.7423 13.9875 74.1745 14.2069 73.7029 14.6525H73.7026C73.234 15.097 73.0005 15.6708 72.9997 16.4011C73.0005 17.1314 73.234 17.7061 73.7026 18.1498H73.7029C74.1745 18.5954 74.7423 18.8148 75.4315 18.816C76.1876 18.8148 76.8205 18.5277 77.3598 17.9358L77.4365 17.8511L77.5191 17.9308L78.1737 18.5626L78.1103 18.6361C77.8007 18.9951 77.413 19.2797 76.9478 19.4876ZM81.5358 14.1269V19.5559V19.6611H81.4268H80.4765V14.1269H78.6492V14.0217V13.1415H83.3632V13.2466V14.1269H81.5358ZM86.4397 16.6403L84.8775 13.1413H83.8185H83.649L85.9006 17.9074L85.6838 18.3666C85.5974 18.551 85.5045 18.6701 85.4227 18.7256C85.3431 18.7811 85.2148 18.8164 85.0334 18.816C84.9 18.816 84.7744 18.7835 84.6482 18.7149L84.5273 18.6492L84.2705 19.5271L84.244 19.6165L84.3331 19.6527C84.5754 19.7508 84.8059 19.8018 85.0249 19.8018C85.7476 19.8051 86.3031 19.3853 86.6503 18.611L86.6499 18.6118L89.1945 13.1413H89.0263H88.0389H87.9665L86.4397 16.6403ZM90.8182 19.6611H89.9782H89.8692V13.1415H94.8209V19.6611H94.7118H93.7616V14.1269H90.9272V19.6611H90.8182ZM97.0504 19.6611H96.21H96.101V13.1415H96.21H97.1595V15.8464H100.213V13.1415H100.322H101.272V19.6611H101.163H100.213V16.8145H97.1595V19.6611H97.0504ZM103.218 16.4011C103.22 17.1133 103.451 17.6843 103.913 18.1383C104.38 18.5921 104.938 18.8148 105.613 18.816C106.288 18.8148 106.847 18.5921 107.312 18.1383C107.776 17.6843 108.008 17.1133 108.009 16.4011C108.008 15.6889 107.776 15.1179 107.312 14.664C106.847 14.2101 106.288 13.9875 105.613 13.9863C104.938 13.9875 104.38 14.2101 103.913 14.664C103.451 15.1179 103.22 15.6889 103.218 16.4011ZM109.085 16.4011C109.086 17.3467 108.752 18.1588 108.09 18.8135C107.429 19.4711 106.594 19.8027 105.613 19.8018C104.632 19.8027 103.797 19.4711 103.136 18.8135V18.8139C102.474 18.1588 102.141 17.3467 102.142 16.4011C102.141 15.4556 102.474 14.6435 103.136 13.9884V13.9888C103.797 13.3311 104.632 12.9988 105.613 13C106.589 12.9988 107.422 13.3327 108.086 13.9929C108.751 14.6505 109.086 15.4609 109.085 16.4011ZM113.362 18.6757V16.8145H114.907C115.219 16.8157 115.454 16.9111 115.641 17.1029C115.833 17.3033 115.922 17.5099 115.923 17.7403C115.922 17.9724 115.835 18.182 115.649 18.384C115.467 18.5796 115.242 18.674 114.945 18.6757H113.362ZM113.362 15.8464V14.1269H114.817C115.097 14.1286 115.304 14.2148 115.47 14.3919L115.471 14.3926L115.47 14.3923C115.641 14.5763 115.721 14.7685 115.722 14.9825C115.721 15.1957 115.639 15.3887 115.462 15.5764V15.5769C115.29 15.7572 115.073 15.8451 114.78 15.8464H113.362ZM116.006 16.285C116.212 16.1664 116.385 16.0096 116.519 15.8167V15.8171C116.694 15.5703 116.781 15.2823 116.781 14.9649C116.782 14.446 116.579 14.0008 116.182 13.6574C115.79 13.3152 115.315 13.1406 114.78 13.1415H112.305V19.6611H112.414H114.907C115.468 19.6619 115.963 19.4803 116.374 19.1226C116.788 18.7656 117.001 18.301 117 17.7584C117.001 17.3974 116.888 17.0712 116.666 16.7952L116.665 16.7939L116.666 16.7948C116.488 16.5725 116.266 16.4011 116.006 16.285Z" fill="white"/>
<path d="M20 14V42L34 28L20 14Z" fill="url(#paint0_linear)"/>
<path d="M20 14V42L34 28L20 14Z" fill="url(#paint1_linear)"/>
<path d="M44.4845 27.0452L39.2 24L35 28L39.2 32L44.4845 28.7484C44.7938 28.5935 45 28.2323 45 27.871C45 27.5097 44.7938 27.2 44.4845 27.0452Z" fill="url(#paint2_linear)"/>
<path d="M44.4845 27.0452L39.2 24L35 28L39.2 32L44.4845 28.7484C44.7938 28.5935 45 28.2323 45 27.871C45 27.5097 44.7938 27.2 44.4845 27.0452Z" fill="url(#paint3_linear)"/>
<path d="M21 42L38.6 32.45L34.5 28.5L21 42Z" fill="url(#paint4_linear)"/>
<path d="M21 42L38.6 32.45L34.5 28.5L21 42Z" fill="url(#paint5_linear)"/>
<path d="M38.6 23.55L33.05 20.3L21 14L34.5 27.5L38.6 23.55Z" fill="url(#paint6_linear)"/>
<path d="M38.6 23.55L33.05 20.3L21 14L34.5 27.5L38.6 23.55Z" fill="url(#paint7_linear)"/>
<rect x="0.5" y="0.5" width="169" height="55" rx="2.5" stroke="white"/>
<defs>
<linearGradient id="paint0_linear" x1="27" y1="23.5" x2="20" y2="32" gradientUnits="userSpaceOnUse">
<stop stop-color="#00E2FF"/>
<stop offset="1" stop-color="#03C6F5"/>
</linearGradient>
<linearGradient id="paint1_linear" x1="32.8101" y1="40.7588" x2="13.8625" y2="22.5978" gradientUnits="userSpaceOnUse">
<stop stop-color="#00A0FF"/>
<stop offset="0.00657445" stop-color="#00A1FF"/>
<stop offset="0.2601" stop-color="#00BEFF"/>
<stop offset="0.5122" stop-color="#00D2FF"/>
<stop offset="0.7604" stop-color="#00DFFF"/>
<stop offset="1" stop-color="#00E3FF"/>
</linearGradient>
<linearGradient id="paint2_linear" x1="40" y1="24" x2="29.5" y2="24" gradientUnits="userSpaceOnUse">
<stop stop-color="#FFEA0D"/>
<stop offset="1" stop-color="#FFCF00"/>
</linearGradient>
<linearGradient id="paint3_linear" x1="45.759" y1="28.0695" x2="21.9536" y2="28.0695" gradientUnits="userSpaceOnUse">
<stop stop-color="#FFE000"/>
<stop offset="0.4087" stop-color="#FFBD00"/>
<stop offset="0.7754" stop-color="#FFA500"/>
<stop offset="1" stop-color="#FF9C00"/>
</linearGradient>
<linearGradient id="paint4_linear" x1="30" y1="28" x2="18.5" y2="39.5" gradientUnits="userSpaceOnUse">
<stop stop-color="#F73547"/>
<stop offset="1" stop-color="#E22652"/>
</linearGradient>
<linearGradient id="paint5_linear" x1="36.2636" y1="39.5906" x2="12.375" y2="15.4439" gradientUnits="userSpaceOnUse">
<stop stop-color="#FF3A44"/>
<stop offset="1" stop-color="#C31162"/>
</linearGradient>
<linearGradient id="paint6_linear" x1="36" y1="23.5" x2="21" y2="14" gradientUnits="userSpaceOnUse">
<stop stop-color="#2EF38F"/>
<stop offset="1" stop-color="#0EDE76"/>
</linearGradient>
<linearGradient id="paint7_linear" x1="17.598" y1="34.8109" x2="28.2656" y2="24.0452" gradientUnits="userSpaceOnUse">
<stop stop-color="#32A071"/>
<stop offset="0.0685" stop-color="#2DA771"/>
<stop offset="0.4762" stop-color="#15CF74"/>
<stop offset="0.8009" stop-color="#06E775"/>
<stop offset="1" stop-color="#00F076"/>
</linearGradient>
</defs>
</svg>
