<svg width="150" height="150" viewBox="0 0 150 150" fill="none" xmlns="http://www.w3.org/2000/svg">
<g clip-path="url(#clip0_125_6713)">
<path d="M1.99951 31C1.99951 28.2386 4.23809 26 6.99951 26H130C132.761 26 135 28.2386 135 31V122C135 124.761 132.761 127 130 127H6.99951C4.23808 127 1.99951 124.761 1.99951 122V31Z" fill="white"/>
<path fill-rule="evenodd" clip-rule="evenodd" d="M7.49951 26C5.01423 26 2.99951 28.0147 2.99951 30.5V122.5C2.99951 124.985 5.01423 127 7.49951 127H129.5C131.985 127 134 124.985 134 122.5V30.5C134 28.0147 131.985 26 129.5 26H111.5C111.223 26 111 25.7761 111 25.5C111 25.2239 111.223 25 111.5 25H129.5C132.537 25 135 27.4624 135 30.5V122.5C135 125.538 132.537 128 129.5 128H7.49951C4.46195 128 1.99951 125.538 1.99951 122.5V30.5C1.99951 27.4624 4.46195 25 7.49951 25H26.4995C26.7757 25 26.9995 25.2239 26.9995 25.5C26.9995 25.7761 26.7757 26 26.4995 26H7.49951Z" fill="#333333"/>
<path fill-rule="evenodd" clip-rule="evenodd" d="M16 46.2268C16 43.8896 17.885 42 20.2164 42H115.784C118.115 42 120 43.8896 120 46.2268V68.7732C120 71.1104 118.115 73 115.784 73H20.2164C17.885 73 16 71.1104 16 68.7732V46.2268Z" fill="white"/>
<path fill-rule="evenodd" clip-rule="evenodd" d="M15.9995 45.7268C15.9995 43.1147 18.1072 41 20.7159 41H28.0573C28.3334 41 28.5573 41.2239 28.5573 41.5C28.5573 41.7761 28.3334 42 28.0573 42H20.7159C18.6618 42 16.9995 43.6646 16.9995 45.7268V68.2732C16.9995 70.3354 18.6618 72 20.7159 72H116.283C118.337 72 120 70.3354 120 68.2732V45.7268C120 43.6646 118.337 42 116.283 42H55.4784C55.2023 42 54.9784 41.7761 54.9784 41.5C54.9784 41.2239 55.2023 41 55.4784 41H116.283C118.892 41 121 43.1147 121 45.7268V68.2732C121 70.8853 118.892 73 116.283 73H20.7159C18.1072 73 15.9995 70.8853 15.9995 68.2732V45.7268Z" fill="#333333"/>
<path fill-rule="evenodd" clip-rule="evenodd" d="M41.5 57C28.4756 57 25 66 25 66H58C58 65.9909 54.5244 57 41.5 57Z" fill="#BDECFF"/>
<path fill-rule="evenodd" clip-rule="evenodd" d="M24.0671 65.6398L25 66H58C58 65.9981 57.8512 65.6117 57.4998 65C56.153 62.6552 51.8296 57 41.5 57C31.1756 57 26.8514 62.6552 25.5022 65C25.1494 65.6132 25 66 25 66C24.0671 65.6398 24.0674 65.6391 24.0676 65.6385L24.0682 65.637L24.0696 65.6335L24.0733 65.624L24.085 65.5952C24.0945 65.5718 24.1078 65.5401 24.125 65.5005C24.1594 65.4214 24.2094 65.3109 24.2766 65.1736C24.411 64.8991 24.6144 64.5166 24.8995 64.0623C25.4692 63.1543 26.3679 61.9542 27.6964 60.7571C30.3705 58.3475 34.7319 56 41.5 56C48.2678 56 52.6291 58.345 55.3034 60.7535C56.632 61.9501 57.5308 63.15 58.1007 64.0587C58.3857 64.5133 58.5893 64.8964 58.7238 65.1719C58.7911 65.3096 58.8413 65.4209 58.8759 65.5012C58.8932 65.5413 58.9069 65.5741 58.917 65.5991L58.9304 65.6331L58.9376 65.6523C58.9388 65.6553 58.9417 65.6633 58.9452 65.6733C58.9464 65.6769 58.9487 65.684 58.9511 65.6913C58.9527 65.6961 58.9543 65.7011 58.9555 65.7051C58.9626 65.7289 58.9922 65.8754 59 66C59 66.5523 58.5523 67 58 67H25C24.6703 67 24.3618 66.8375 24.1753 66.5656C23.9888 66.2937 23.9484 65.9473 24.0671 65.6398ZM25.9317 66.3632C25.9315 66.3638 25.9315 66.3637 25.9317 66.3632Z" fill="#333333"/>
<path fill-rule="evenodd" clip-rule="evenodd" d="M37 53H45V59.6706L41 63L37 59.6706V53Z" fill="white"/>
<path fill-rule="evenodd" clip-rule="evenodd" d="M44 54H38V59.2019L41 61.6989L44 59.2019V54ZM45 59.6706L41 63L37 59.6706V53H45V59.6706Z" fill="#333333"/>
<path fill-rule="evenodd" clip-rule="evenodd" d="M49 47C49 51.4141 45.4141 55 41 55C36.5859 55 33 51.4141 33 47C33 42.5765 36.5859 39 41 39C45.4235 39 49 42.5859 49 47Z" fill="white"/>
<path fill-rule="evenodd" clip-rule="evenodd" d="M41 54C44.8618 54 48 50.8618 48 47C48 43.1374 44.8705 40 41 40C37.1374 40 34 43.1295 34 47C34 50.8618 37.1382 54 41 54ZM41 55C45.4141 55 49 51.4141 49 47C49 42.5859 45.4235 39 41 39C36.5859 39 33 42.5765 33 47C33 51.4141 36.5859 55 41 55Z" fill="#333333"/>
<path fill-rule="evenodd" clip-rule="evenodd" d="M41 42C42 45 44.6349 47 48 47C48 42.5 44.2564 40 41 40C37.1215 40 34 42.6881 34 47C37.5 47 40 45 41 42Z" fill="#AAAAAA"/>
<path fill-rule="evenodd" clip-rule="evenodd" d="M34.0584 45.9998C34.5028 42.2764 37.4309 40 41 40C44.0065 40 47.4284 42.1311 47.9358 45.9997C47.978 46.3212 48 46.6547 48 47C47.6588 47 47.325 46.9794 46.9997 46.9393C44.6025 46.6439 42.6643 45.288 41.5628 43.2892C41.3399 42.8846 41.1512 42.4537 41 42C40.8482 42.4554 40.6619 42.8877 40.4427 43.2935C39.3596 45.2989 37.4751 46.6563 35.0002 46.9433C34.6767 46.9808 34.3432 47 34 47C34 46.6561 34.0199 46.3225 34.0584 45.9998ZM41.007 44.3049C39.559 46.5731 37.1148 48 34 48C33.4477 48 33 47.5523 33 47C33 44.5907 33.8782 42.5733 35.3541 41.1606C36.8233 39.7543 38.829 39 41 39C44.6895 39 49 41.8356 49 47C49 47.5523 48.5523 48 48 48C44.9984 48 42.4887 46.578 41.007 44.3049Z" fill="#333333"/>
<path fill-rule="evenodd" clip-rule="evenodd" d="M65 53.5C65 53.2239 65.2239 53 65.5 53H98.5C98.7762 53 99 53.2239 99 53.5C99 53.7761 98.7762 54 98.5 54H65.5C65.2239 54 65 53.7761 65 53.5Z" fill="#333333"/>
<path fill-rule="evenodd" clip-rule="evenodd" d="M65 58.5C65 58.2239 65.2256 58 65.5038 58H90.4962C90.7744 58 91 58.2239 91 58.5C91 58.7761 90.7744 59 90.4962 59H65.5038C65.2256 59 65 58.7761 65 58.5Z" fill="#333333"/>
<path fill-rule="evenodd" clip-rule="evenodd" d="M15.9995 86.7268C15.9995 84.1113 18.1243 82 20.7465 82H28.1413C28.4174 82 28.6413 82.2239 28.6413 82.5C28.6413 82.7761 28.4174 83 28.1413 83H20.7465C18.6721 83 16.9995 84.668 16.9995 86.7268V109.273C16.9995 111.332 18.6721 113 20.7465 113H89.9608C90.2369 113 90.4608 113.224 90.4608 113.5C90.4608 113.776 90.2369 114 89.9608 114H20.7465C18.1243 114 15.9995 111.889 15.9995 109.273V86.7268ZM55.2618 82.5C55.2618 82.2239 55.4856 82 55.7618 82H96.4995C96.7757 82 96.9995 82.2239 96.9995 82.5C96.9995 82.7761 96.7757 83 96.4995 83H55.7618C55.4856 83 55.2618 82.7761 55.2618 82.5Z" fill="#333333"/>
<path fill-rule="evenodd" clip-rule="evenodd" d="M41.5 98C28.4756 98 25 107 25 107H58C58 106.991 54.5244 98 41.5 98Z" fill="#BDECFF"/>
<path fill-rule="evenodd" clip-rule="evenodd" d="M24.0671 106.64L25 107H58C58 106.998 57.8512 106.612 57.4998 106C56.153 103.655 51.8296 98 41.5 98C31.1756 98 26.8514 103.655 25.5022 106C25.1494 106.613 25 107 25 107C24.0671 106.64 24.0674 106.639 24.0676 106.639L24.0682 106.637L24.0696 106.634L24.0733 106.624L24.085 106.595C24.0945 106.572 24.1078 106.54 24.125 106.5C24.1594 106.421 24.2094 106.311 24.2766 106.174C24.411 105.899 24.6144 105.517 24.8995 105.062C25.4692 104.154 26.3679 102.954 27.6964 101.757C30.3705 99.3475 34.7319 97 41.5 97C48.2678 97 52.6291 99.345 55.3034 101.754C56.632 102.95 57.5308 104.15 58.1007 105.059C58.3857 105.513 58.5893 105.896 58.7238 106.172C58.7911 106.31 58.8413 106.421 58.8759 106.501C58.8932 106.541 58.9069 106.574 58.917 106.599L58.9304 106.633L58.9376 106.652C58.9388 106.655 58.9417 106.663 58.9452 106.673C58.9472 106.679 58.9524 106.695 58.9555 106.705C58.9626 106.729 58.9922 106.875 59 107C59 107.552 58.5523 108 58 108H25C24.6703 108 24.3618 107.837 24.1753 107.566C23.9888 107.294 23.9484 106.947 24.0671 106.64ZM25.9317 107.363C25.9315 107.364 25.9315 107.364 25.9317 107.363Z" fill="#333333"/>
<path fill-rule="evenodd" clip-rule="evenodd" d="M37 94H45V100.671L41 104L37 100.671V94Z" fill="white"/>
<path fill-rule="evenodd" clip-rule="evenodd" d="M44 95H38V100.202L41 102.699L44 100.202V95ZM45 100.671L41 104L37 100.671V94H45V100.671Z" fill="#333333"/>
<path fill-rule="evenodd" clip-rule="evenodd" d="M49 88C49 92.4141 45.4141 96 41 96C36.5859 96 33 92.4141 33 88C33 83.5765 36.5859 80 41 80C45.4235 80 49 83.5859 49 88Z" fill="white"/>
<path fill-rule="evenodd" clip-rule="evenodd" d="M41 95C44.8618 95 48 91.8618 48 88C48 84.1374 44.8705 81 41 81C37.1374 81 34 84.1295 34 88C34 91.8618 37.1382 95 41 95ZM41 96C45.4141 96 49 92.4141 49 88C49 83.5859 45.4235 80 41 80C36.5859 80 33 83.5765 33 88C33 92.4141 36.5859 96 41 96Z" fill="#333333"/>
<path fill-rule="evenodd" clip-rule="evenodd" d="M41 83C42 86 44.6349 88 48 88C48 83.5 44.2564 81 41 81C37.1215 81 34 83.6881 34 88C37.5 88 40 86 41 83Z" fill="#AAAAAA"/>
<path fill-rule="evenodd" clip-rule="evenodd" d="M34.0584 86.9998C34.5028 83.2764 37.4309 81 41 81C44.0065 81 47.4284 83.1311 47.9358 86.9997C47.978 87.3212 48 87.6547 48 88C47.6588 88 47.325 87.9794 46.9997 87.9393C44.6025 87.6439 42.6643 86.288 41.5628 84.2892C41.3399 83.8846 41.1512 83.4537 41 83C40.8482 83.4554 40.6619 83.8877 40.4427 84.2935C39.3596 86.2989 37.4751 87.6563 35.0002 87.9433C34.6767 87.9808 34.3432 88 34 88C34 87.6561 34.0199 87.3225 34.0584 86.9998ZM41.007 85.3049C39.559 87.5731 37.1148 89 34 89C33.4477 89 33 88.5523 33 88C33 85.5907 33.8782 83.5733 35.3541 82.1606C36.8233 80.7543 38.829 80 41 80C44.6895 80 49 82.8356 49 88C49 88.5523 48.5523 89 48 89C44.9984 89 42.4887 87.578 41.007 85.3049Z" fill="#333333"/>
<path fill-rule="evenodd" clip-rule="evenodd" d="M65 95.5C65 95.2239 65.223 95 65.498 95H94.502C94.777 95 95 95.2239 95 95.5C95 95.7761 94.777 96 94.502 96H65.498C65.223 96 65 95.7761 65 95.5Z" fill="#333333"/>
<path fill-rule="evenodd" clip-rule="evenodd" d="M65 100.5C65 100.224 65.225 100 65.5025 100H87.4975C87.775 100 88 100.224 88 100.5C88 100.776 87.775 101 87.4975 101H65.5025C65.225 101 65 100.776 65 100.5Z" fill="#333333"/>
<path fill-rule="evenodd" clip-rule="evenodd" d="M76.4855 17C76.4855 13.1376 73.1091 10 68.9435 10C64.7779 10 61.4015 13.1376 61.4015 17H38.7755C36.6977 17 34.9995 18.564 34.9995 20.5V27.5C34.9995 29.436 36.6877 31 38.7755 31H97.2235C99.3013 31 101 29.436 101 27.5V20.5C101 18.564 99.3113 17 97.2235 17H76.4855Z" fill="url(#paint0_linear_125_6713)"/>
<path fill-rule="evenodd" clip-rule="evenodd" d="M76.4855 18C75.9332 18 75.4855 17.5523 75.4855 17C75.4855 13.7585 72.628 11 68.9435 11C65.259 11 62.4015 13.7585 62.4015 17C62.4015 17.5523 61.9538 18 61.4015 18H38.7755C37.1752 18 35.9995 19.1882 35.9995 20.5V27.5C35.9995 28.8134 37.167 30 38.7755 30H97.2235C98.8238 30 99.9995 28.8118 99.9995 27.5V20.5C99.9995 19.1866 98.832 18 97.2235 18H76.4855ZM76.4855 17C76.4855 13.1376 73.1091 10 68.9435 10C64.7779 10 61.4015 13.1376 61.4015 17H38.7755C36.6977 17 34.9995 18.564 34.9995 20.5V27.5C34.9995 29.436 36.6877 31 38.7755 31H97.2235C99.3013 31 101 29.436 101 27.5V20.5C101 18.564 99.3113 17 97.2235 17H76.4855Z" fill="#333333"/>
<path fill-rule="evenodd" clip-rule="evenodd" d="M125.782 82.9259C130.41 82.9259 134.041 87.097 134.041 91.7894V96.7409C135.685 96.7409 137.388 96.604 139 97V90.7458C139 83.736 133.342 78 126.429 78H117.57C110.657 78 105 83.736 105 90.7458V97C106.613 96.6075 108.312 96.7409 109.958 96.7409V91.7894C109.958 87.097 113.517 82.9259 118.145 82.9259H125.782Z" fill="#EFEFEF"/>
<path fill-rule="evenodd" clip-rule="evenodd" d="M133.041 97.4723V91.5978C133.041 87.424 129.773 83.8362 125.782 83.8362H118.145C114.164 83.8362 110.958 87.4121 110.958 91.5978V97.4723H109.958C109.586 97.4723 109.226 97.4668 108.876 97.4614C107.566 97.4415 106.387 97.4235 105.236 97.7L104 97.997V90.5678C104 83.1165 110.091 77 117.57 77H126.429C133.908 77 140 83.1165 140 90.5678V98L138.761 97.6995C137.616 97.4217 136.441 97.4403 135.136 97.4609C134.781 97.4665 134.417 97.4723 134.041 97.4723H133.041ZM105 90.5678C105 83.6487 110.657 77.987 117.57 77.987H126.429C133.342 77.987 139 83.6487 139 90.5678V96.741C138.67 96.6609 138.336 96.6029 138 96.5613C137.028 96.4411 136.035 96.4576 135.052 96.474C135.048 96.474 135.045 96.4741 135.041 96.4742C134.706 96.4797 134.373 96.4852 134.041 96.4852V91.5978C134.041 86.9662 130.41 82.8492 125.782 82.8492H118.145C113.517 82.8492 109.958 86.9662 109.958 91.5978V96.4852C109.626 96.4852 109.293 96.4799 108.958 96.4745C108.957 96.4745 108.957 96.4745 108.956 96.4745C107.97 96.4587 106.975 96.4427 106 96.5627C105.663 96.6041 105.33 96.6617 105 96.741V90.5678Z" fill="#333333"/>
<path fill-rule="evenodd" clip-rule="evenodd" d="M106.828 96H137.171C142.576 96 147 104.5 147 105.567V128.433C147 133.694 142.576 138 137.171 138H106.828C100.5 138 97 135 96.9995 128.433V105.56C96.9995 100.298 101.423 96 106.828 96Z" fill="url(#paint1_linear_125_6713)"/>
<path fill-rule="evenodd" clip-rule="evenodd" d="M106.328 97C101.186 97 97 101.088 97 106.06V128.933C97 133.906 101.186 138 106.328 138H136.672C141.814 138 146 133.906 146 128.933V106.067C146 101.094 141.814 97 136.672 97H106.328ZM96 106.06C96 100.509 100.66 96 106.328 96H136.672C142.34 96 147 100.517 147 106.067V128.933C147 134.483 142.34 139 136.672 139H106.328C100.66 139 96 134.483 96 128.933V106.06Z" fill="#333333"/>
<path fill-rule="evenodd" clip-rule="evenodd" d="M125.914 126L123.939 115.875C125.17 115.16 126 113.782 126 112.2C126 112.186 126 112.177 126 112.163C125.981 109.861 124.196 108 122 108C119.803 108 118.018 109.861 118 112.163C118 112.177 118 112.186 118 112.2C118 113.782 118.834 115.16 120.06 115.875L118.085 126H125.914Z" fill="white"/>
</g>
<defs>
<linearGradient id="paint0_linear_125_6713" x1="41.1443" y1="-4.23651" x2="70.4848" y2="29.615" gradientUnits="userSpaceOnUse">
<stop stop-color="#FFC671"/>
<stop offset="1" stop-color="#FF6F3D"/>
</linearGradient>
<linearGradient id="paint1_linear_125_6713" x1="122" y1="96" x2="122" y2="138" gradientUnits="userSpaceOnUse">
<stop stop-color="#FF8E3D"/>
<stop offset="1" stop-color="#FF6F3D"/>
</linearGradient>
<clipPath id="clip0_125_6713">
<rect width="150" height="150" fill="white"/>
</clipPath>
</defs>
</svg>
