<svg width="150" height="150" viewBox="0 0 150 150" fill="none" xmlns="http://www.w3.org/2000/svg">
<g clip-path="url(#clip0_125_6436)">
<path fill-rule="evenodd" clip-rule="evenodd" d="M25 131.905V25.0002H9.69494C2.5 25.0002 1 25.0002 1 30.48V95.2206V104.187V114.728V131.895C1 138.55 6.89975 144.5 13.5 144.5C21 144.5 25 139 25 131.905Z" fill="#E0E0E0"/>
<path fill-rule="evenodd" clip-rule="evenodd" d="M149 132.911V72.7316V53.7565V16.0002C149 11.6321 145.748 7.00024 140.94 7.00024H34.3696C29.5624 7.00024 26.0678 11.6321 26.0678 16.0002V26.1445L26 132.5C26 137 20.6348 145 14 145H27.5204H41.0407H68.0814H92.4057H136.942C145.5 145 149 139.557 149 132.911Z" fill="#FEFEFE"/>
<path fill-rule="evenodd" clip-rule="evenodd" d="M28 9.00024C29.6654 7.20905 32.3063 6.00024 34.885 6.00024H140.725C143.304 6.00024 145.624 7.24157 147.289 9.03277C148.952 10.8215 150 13.1972 150 15.5329V132.867C150 139.836 144.368 145.99 137.455 146H41.0996C40.8225 146 40.5978 145.776 40.5978 145.5C40.5978 145.224 40.8225 145 41.0996 145H137.453C143.858 144.991 148.996 139.24 148.996 132.867V15.5329C148.996 13.4846 148.07 11.3439 146.553 9.71234C145.038 8.08323 142.972 7.00024 140.725 7.00024H34.885C32.6387 7.00024 30.5147 7.87113 29 9.50024C27.483 11.1318 26.0037 13.452 26.0037 15.5002V132.264L26.0037 132.27C25.9332 138.693 21.4878 145 14.5018 145C14.2247 145 14 144.776 14 144.5C14 144.224 14.2247 144 14.5018 144C20.8335 144 24.933 138.244 25 132.261V15.5002C25 13.1646 26.3369 10.789 28 9.00024Z" fill="#333333"/>
<path fill-rule="evenodd" clip-rule="evenodd" d="M126.997 39.0002H51.0028C48.7988 39.0002 47 40.867 47 43.1572V86.8433C47 89.1431 48.7889 91.0002 51.0028 91.0002H126.997C129.201 91.0002 131 89.1335 131 86.8433V43.1572C131 40.867 129.201 39.0002 126.997 39.0002Z" fill="#BDECFF"/>
<path fill-rule="evenodd" clip-rule="evenodd" d="M51.0028 38.0002H126.997C129.789 38.0002 132 40.3505 132 43.1572V86.8433C132 89.65 129.789 92.0002 126.997 92.0002H51.0028C48.2015 92.0002 46 89.6595 46 86.8433V43.1572C46 40.3505 48.2114 38.0002 51.0028 38.0002ZM51.0028 39.0002H126.997C129.201 39.0002 131 40.867 131 43.1572V86.8433C131 89.1335 129.201 91.0002 126.997 91.0002H51.0028C48.7889 91.0002 47 89.1431 47 86.8433V43.1572C47 40.867 48.7988 39.0002 51.0028 39.0002Z" fill="#333333"/>
<path fill-rule="evenodd" clip-rule="evenodd" d="M51.0025 90.9993C49.2064 90.9993 48.322 88.8126 49.6124 87.5623L73 64.0002L88.5 80.0002L113 46.0002L131 71.0002V85.9993C131 88.7607 128.763 90.9993 126.004 90.9993H51.0025Z" fill="white"/>
<path fill-rule="evenodd" clip-rule="evenodd" d="M72.9087 63.4315L88.6665 79.3829L113.012 45.0002L132 71.6397V85.9641C132 89.2978 129.316 92.0002 126.005 92.0002H51.0037C48.3096 92.0002 46.983 88.7004 48.9187 86.8138L72.9087 63.4315ZM88.7929 80.9375L72.8954 64.8446L49.6137 87.5366C48.3232 88.7944 49.2076 90.9942 51.0037 90.9942H126.005C128.764 90.9942 131.001 88.7422 131.001 85.9641V71.9634L113.015 46.7295L88.7929 80.9375Z" fill="#333333"/>
<path fill-rule="evenodd" clip-rule="evenodd" d="M59.5 58.0002C63.0964 58.0002 66 55.094 66 51.4954C66 47.8967 63.0862 45.0002 59.5 45.0002C55.9036 45.0002 53 47.9065 53 51.4954C53 55.0843 55.9036 58.0002 59.5 58.0002Z" fill="url(#paint0_linear_125_6436)"/>
<path fill-rule="evenodd" clip-rule="evenodd" d="M59.5 57.0002C62.5434 57.0002 65 54.5425 65 51.4954C65 48.4512 62.5362 46.0002 59.5 46.0002C56.4557 46.0002 54 48.459 54 51.4954C54 54.5337 56.4576 57.0002 59.5 57.0002ZM66 51.4954C66 55.094 63.0964 58.0002 59.5 58.0002C55.9036 58.0002 53 55.0843 53 51.4954C53 47.9065 55.9036 45.0002 59.5 45.0002C63.0862 45.0002 66 47.8967 66 51.4954Z" fill="#333333"/>
<path fill-rule="evenodd" clip-rule="evenodd" d="M52 112.5C52 112.224 52.2239 112 52.5 112H85.5C85.7761 112 86 112.224 86 112.5C86 112.776 85.7761 113 85.5 113H52.5C52.2239 113 52 112.776 52 112.5Z" fill="#333333"/>
<path fill-rule="evenodd" clip-rule="evenodd" d="M92 112.5C92 112.224 92.2306 112 92.5152 112H125.485C125.769 112 126 112.224 126 112.5C126 112.776 125.769 113 125.485 113H92.5152C92.2306 113 92 112.776 92 112.5Z" fill="#333333"/>
<path fill-rule="evenodd" clip-rule="evenodd" d="M52 103.5C52 103.224 52.2239 103 52.5 103H85.5C85.7761 103 86 103.224 86 103.5C86 103.776 85.7761 104 85.5 104H52.5C52.2239 104 52 103.776 52 103.5Z" fill="#333333"/>
<path fill-rule="evenodd" clip-rule="evenodd" d="M92 103.5C92 103.224 92.2306 103 92.5152 103H125.485C125.769 103 126 103.224 126 103.5C126 103.776 125.769 104 125.485 104H92.5152C92.2306 104 92 103.776 92 103.5Z" fill="#333333"/>
<path fill-rule="evenodd" clip-rule="evenodd" d="M52 121.5C52 121.224 52.2272 121 52.5075 121H85.4925C85.7728 121 86 121.224 86 121.5C86 121.776 85.7728 122 85.4925 122H52.5075C52.2272 122 52 121.776 52 121.5Z" fill="#333333"/>
<path fill-rule="evenodd" clip-rule="evenodd" d="M92 121.5C92 121.224 92.2306 121 92.5152 121H125.485C125.769 121 126 121.224 126 121.5C126 121.776 125.769 122 125.485 122H92.5152C92.2306 122 92 121.776 92 121.5Z" fill="#333333"/>
<path fill-rule="evenodd" clip-rule="evenodd" d="M52 130.5C52 130.224 52.2306 130 52.5152 130H85.4848C85.7694 130 86 130.224 86 130.5C86 130.776 85.7694 131 85.4848 131H52.5152C52.2306 131 52 130.776 52 130.5Z" fill="#333333"/>
<path fill-rule="evenodd" clip-rule="evenodd" d="M92 130.5C92 130.224 92.2306 130 92.5152 130H125.485C125.769 130 126 130.224 126 130.5C126 130.776 125.769 131 125.485 131H92.5152C92.2306 131 92 130.776 92 130.5Z" fill="#333333"/>
<path d="M70.0556 15.1204C70.6068 15.1204 71.0536 15.5676 71.0536 16.1192V28.7025C71.0536 29.2541 70.6067 29.7012 70.0556 29.7012H68.5682C68.2171 29.7012 67.8917 29.5165 67.7116 29.2148L62.0515 19.737V28.7025C62.0515 29.2541 61.6047 29.7012 61.0535 29.7012H59.998C59.4468 29.7012 59 29.2541 59 28.7025V16.1192C59 15.5676 59.4468 15.1204 59.998 15.1204H61.4911C61.8392 15.1204 62.1621 15.3019 62.3433 15.5993L68.0122 24.9044V16.1192C68.0122 15.5676 68.459 15.1204 69.0102 15.1204H70.0556Z" fill="#333333"/>
<path d="M83.7325 27.438C84.2837 27.438 84.7305 27.8852 84.7305 28.4368V28.7826C84.7305 29.3342 84.2837 29.7813 83.7325 29.7813H77.8454C77.2942 29.7813 76.8474 29.3342 76.8474 28.7826V28.4368C76.8474 27.8852 77.2942 27.438 77.8454 27.438H83.7325ZM77.8442 15.2005V29.7813H75.7907C75.2395 29.7813 74.7927 29.3342 74.7927 28.7826V16.1993C74.7927 15.6477 75.2395 15.2005 75.7907 15.2005H77.8442ZM82.7051 21.139C83.2563 21.139 83.7032 21.5862 83.7032 22.1378V22.4235C83.7032 22.9751 83.2563 23.4223 82.7051 23.4223H77.8454C77.2942 23.4223 76.8474 22.9751 76.8474 22.4235V22.1378C76.8474 21.5862 77.2942 21.139 77.8454 21.139H82.7051ZM83.7223 15.2005C84.2735 15.2005 84.7203 15.6477 84.7203 16.1993V16.5551C84.7203 17.1067 84.2735 17.5539 83.7223 17.5539H77.8454C77.2942 17.5539 76.8474 17.1067 76.8474 16.5551V16.1993C76.8474 15.6477 77.2942 15.2005 77.8454 15.2005H83.7223Z" fill="#333333"/>
<path d="M91.3343 27.5999C91.332 27.5124 91.3411 27.4249 91.3616 27.3398L94.0966 15.9656C94.2045 15.5168 94.6057 15.2005 95.0669 15.2005H95.9284L96.2655 17.0299C96.2914 17.1706 96.2868 17.3153 96.252 17.454L93.3512 29.0256C93.2398 29.4698 92.8408 29.7813 92.3831 29.7813H91.3918L91.3343 27.5999ZM88.9963 15.2005C89.4724 15.2005 89.8821 15.537 89.9751 16.0042L92.2274 27.3221C92.2466 27.4189 92.2514 27.5179 92.2417 27.6161L92.0264 29.7813H90.8777C90.4111 29.7813 90.0067 29.4578 89.9041 29.0023L87.0687 16.419C86.928 15.7944 87.4025 15.2005 88.0423 15.2005H88.9963ZM98.9092 27.5544C98.9021 27.4639 98.9075 27.3728 98.9251 27.2837L101.15 16.0058C101.243 15.5378 101.653 15.2005 102.13 15.2005H103.083C103.723 15.2005 104.197 15.794 104.057 16.4183L101.23 29.0016C101.128 29.4575 100.723 29.7813 100.256 29.7813H99.0817L98.9092 27.5544ZM96.0682 15.2005C96.5292 15.2005 96.9303 15.5165 97.0384 15.965L99.7921 27.3849C99.8134 27.4733 99.8226 27.5642 99.8193 27.6551L99.7429 29.7813H98.7504C98.2933 29.7813 97.8946 29.4705 97.7828 29.0269L94.8647 17.4524C94.8284 17.3083 94.8247 17.1578 94.8539 17.012L95.2164 15.2005H96.0682Z" fill="#333333"/>
<path d="M113.514 24.1533C111.849 23.392 110.032 23.1049 108.54 21.9602C107.178 20.879 106.608 18.9962 107.482 17.4037C108.455 15.6088 110.65 15.0002 112.558 15.0002C114.903 15.0002 117.326 16.2228 117.875 18.4964C118.004 19.0326 117.543 19.4866 116.992 19.4866H115.957C115.405 19.4866 114.992 19.0165 114.761 18.5156C114.738 18.4641 114.712 18.414 114.684 18.365C114.065 17.2165 112.286 17.0536 111.185 17.5539C110.373 17.9073 109.796 18.8939 110.31 19.737C111.233 21.1724 113.553 21.2682 114.959 21.9602C116.632 22.7747 118 23.9198 118 25.9459C118 27.8486 116.81 29.1705 114.837 29.7112C112.768 30.2782 110.319 30.0246 108.52 28.83C107.578 28.1971 106.96 27.2692 106.725 26.2059C106.605 25.6674 107.065 25.2148 107.616 25.2148H108.681C109.233 25.2148 109.644 25.6773 109.826 26.1981C109.846 26.2563 109.869 26.3124 109.893 26.3665C110.622 27.9717 113.741 28.3717 114.694 26.8472C115.41 25.7473 114.545 24.6243 113.514 24.1533Z" fill="#333333"/>
<path fill-rule="evenodd" clip-rule="evenodd" d="M2.83326 26.4758C1.71664 27.4742 1 30.0717 1 32.5002V131.538C1 138.321 6.72467 144 13.5 144C20.3933 144 25 138.281 25 131.538C25 131.262 25.2239 131.038 25.5 131.038C25.7761 131.038 26 131.262 26 131.538C26 138.714 21.0574 145 13.5 145C6.17678 145 0 138.878 0 131.538V32.5002C0 29.8696 0.783357 26.9672 2.16674 25.7303C3.53991 24.5026 5.42715 24.0002 7.5 24.0002H17C17.2761 24.0002 17.5 24.2241 17.5 24.5002C17.5 24.7764 17.2761 25.0002 17 25.0002H7.5C5.57285 25.0002 3.96009 25.4683 2.83326 26.4758Z" fill="#333333"/>
</g>
<defs>
<linearGradient id="paint0_linear_125_6436" x1="53" y1="44.4924" x2="66" y2="58.0002" gradientUnits="userSpaceOnUse">
<stop stop-color="#FF8E3D"/>
<stop offset="1" stop-color="#FF6F3D"/>
</linearGradient>
<clipPath id="clip0_125_6436">
<rect width="150" height="150" fill="white"/>
</clipPath>
</defs>
</svg>
