<svg width="150" height="150" viewBox="0 0 150 150" fill="none" xmlns="http://www.w3.org/2000/svg">
<path fill-rule="evenodd" clip-rule="evenodd" d="M136.96 103.47V117.823C136.958 119.716 136.202 121.531 134.857 122.874C133.511 124.218 131.685 124.982 129.775 125H9.22488C4 125 2.0108 121.757 2 117.833V29.157C2.00784 27.2612 2.77154 25.4453 4.12478 24.1048C5.47801 22.7643 7.31113 22.0078 9.22488 22H129.775C131.689 22.0078 133.522 22.7643 134.875 24.1048C136.228 25.4453 136.992 27.2612 137 29.157V103.47H136.96Z" fill="#FEFEFE"/>
<path fill-rule="evenodd" clip-rule="evenodd" d="M9.6693 21L9.67136 21L129.331 21C132.988 21.0151 137.984 24.7831 138 28.7245V72.5C138 72.7761 137.776 73 137.5 73C137.224 73 137 72.7761 137 72.5V28.7285C136.986 25.3345 132.455 22.0134 129.328 22H9.67241C7.90634 22.0076 6.21394 22.7178 4.96394 23.9775C3.71381 25.2372 3.00751 26.9444 3 28.7275V118.263C3.00764 122.533 4.73913 125.016 9.08773 125.001C9.27668 125 9.47108 124.999 9.67157 125L9.67343 125L88.5 125C88.7761 125 89 125.224 89 125.5C89 125.776 88.7761 126 88.5 126H9.67136L9.66929 126C9.47452 125.999 9.2801 126.001 9.08608 126.002C4.18676 126.035 2.00862 123.052 2 118.265L2 118.264V28.7245C2.00831 26.6796 2.81808 24.7202 4.25413 23.2731C5.69031 21.8258 7.6366 21.0084 9.6693 21Z" fill="#333333"/>
<path fill-rule="evenodd" clip-rule="evenodd" d="M117.99 79C122.937 78.9981 127.773 80.4637 131.886 83.2113C136 85.9588 139.205 89.8649 141.098 94.4352C142.99 99.0054 143.485 104.034 142.518 108.886C141.551 113.737 139.167 118.192 135.667 121.688C132.168 125.184 127.709 127.563 122.857 128.524C118.005 129.485 112.976 128.985 108.408 127.087C103.84 125.189 99.9379 121.979 97.1951 117.862C94.4523 113.746 92.9924 108.908 93 103.961C93.0077 97.3385 95.644 90.9896 100.33 86.3092C105.016 81.6289 111.368 79 117.99 79Z" fill="#BDECFF"/>
<path fill-rule="evenodd" clip-rule="evenodd" d="M139.067 90.76C134.636 83.5292 126.524 78.9967 117.993 79C109.473 79 101.35 83.5486 96.9333 90.7599C96.7888 90.9958 96.4792 91.0707 96.2418 90.9271C96.0043 90.7836 95.9289 90.476 96.0734 90.2401C100.672 82.731 109.121 78 117.992 78C126.875 77.9966 135.313 82.7112 139.927 90.24C140.071 90.4759 139.996 90.7835 139.758 90.9271C139.521 91.0707 139.211 90.9959 139.067 90.76ZM96.7815 117.946C97.0129 117.793 97.3253 117.855 97.4794 118.085C100.185 122.119 104.034 125.265 108.541 127.125C113.047 128.985 118.007 129.475 122.793 128.533C129.326 127.248 134.76 123.318 138.738 118.062C138.905 117.841 139.22 117.796 139.442 117.962C139.665 118.128 139.709 118.442 139.542 118.663C135.447 124.074 129.812 128.172 122.989 129.514C118.007 130.494 112.844 129.984 108.154 128.049C103.464 126.113 99.4578 122.838 96.6418 118.639C96.4877 118.41 96.5502 118.099 96.7815 117.946Z" fill="#333333"/>
<path fill-rule="evenodd" clip-rule="evenodd" d="M129.658 116.027C129.92 116.117 130.062 116.411 129.974 116.683C129.218 119.035 128.17 121.721 126.686 124.069C125.203 126.416 123.261 128.462 120.704 129.472C117.992 130.543 115.193 129.968 112.7 127.902C109.12 124.936 107.374 120.935 106.025 116.681C105.939 116.409 106.082 116.116 106.344 116.026C106.606 115.937 106.889 116.085 106.975 116.357C108.306 120.555 109.977 124.318 113.325 127.092C115.583 128.963 118.014 129.425 120.348 128.503C122.638 127.598 124.433 125.743 125.85 123.501C127.266 121.26 128.282 118.669 129.026 116.355C129.113 116.083 129.396 115.936 129.658 116.027Z" fill="#333333"/>
<path fill-rule="evenodd" clip-rule="evenodd" d="M106.342 91.9733C106.08 91.8827 105.938 91.5891 106.026 91.3174C106.782 88.9647 107.83 86.2786 109.314 83.9307C110.797 81.5839 112.739 79.5381 115.296 78.5282C118.008 77.457 120.807 78.0324 123.3 80.0977C126.88 83.0639 128.626 87.0654 129.975 91.3194C130.061 91.5914 129.918 91.8845 129.656 91.9739C129.394 92.0634 129.111 91.9154 129.025 91.6433C127.694 87.4454 126.023 83.6818 122.675 80.9079C120.417 79.037 117.986 78.5753 115.652 79.4973C113.362 80.4017 111.567 82.2569 110.15 84.4992C108.734 86.7404 107.718 89.3315 106.974 91.6453C106.887 91.917 106.604 92.0638 106.342 91.9733Z" fill="#333333"/>
<path fill-rule="evenodd" clip-rule="evenodd" d="M134.828 85.4466C134.958 85.6746 135.119 85.7403 134.868 85.8594L134.632 85.4466C134.868 85.8594 134.868 85.8594 134.868 85.8594L134.865 85.861L134.857 85.8647L134.828 85.8786C134.802 85.8907 134.764 85.9083 134.715 85.9307C134.617 85.9755 134.475 86.0399 134.294 86.1188C133.934 86.2766 133.421 86.493 132.809 86.7289C131.589 87.199 129.96 87.753 128.354 88.0682C123.627 88.9957 118.432 89.2371 113.422 88.764C108.448 88.2943 103.804 87.2984 101.147 85.846C100.905 85.7136 101.002 85.5218 101.147 85.3012C101.293 85.0807 101.431 84.9148 101.673 85.0472C104.128 86.3895 108.584 87.3705 113.528 87.8374C118.435 88.3008 123.522 88.0635 128.139 87.1575C129.655 86.8599 131.218 86.3307 132.411 85.8709C133.005 85.6418 133.503 85.4316 133.852 85.279C134.026 85.2027 134.163 85.1409 134.256 85.0984C134.302 85.0771 134.338 85.0607 134.361 85.0497L134.387 85.0374L134.394 85.0345L134.395 85.0338" fill="#333333"/>
<path fill-rule="evenodd" clip-rule="evenodd" d="M135.974 122.098C136.062 121.817 135.919 121.513 135.653 121.42C124.62 117.534 111.128 116.019 100.273 121.989C100.025 122.125 99.9281 122.449 100.057 122.711C100.187 122.974 100.493 123.076 100.742 122.939C111.24 117.165 124.407 118.589 135.332 122.437C135.598 122.53 135.885 122.378 135.974 122.098Z" fill="#333333"/>
<path d="M119 91.5V78.5C119 78.2239 118.776 78 118.5 78C118.224 78 118 78.2239 118 78.5V91.5C118 91.7761 118.224 92 118.5 92C118.776 92 119 91.7761 119 91.5Z" fill="#333333"/>
<path d="M119 129.5V116.5C119 116.224 118.776 116 118.5 116C118.224 116 118 116.224 118 116.5V129.5C118 129.776 118.224 130 118.5 130C118.776 130 119 129.776 119 129.5Z" fill="#333333"/>
<path d="M141 95.5H95C93.067 95.5 91.5 97.067 91.5 99V109C91.5 110.933 93.067 112.5 95 112.5H141C142.933 112.5 144.5 110.933 144.5 109V99C144.5 97.067 142.933 95.5 141 95.5Z" fill="url(#paint0_linear_125_6472)" stroke="#333333"/>
<path d="M105.172 99.0802C105.724 99.0802 106.172 99.5279 106.172 100.08V107.813C106.172 108.365 105.724 108.813 105.172 108.813H104.666C104.317 108.813 103.992 108.63 103.811 108.331L100.069 102.162V107.813C100.069 108.365 99.6211 108.813 99.0688 108.813H99C98.4477 108.813 98 108.365 98 107.813V100.08C98 99.5279 98.4477 99.0802 99 99.0802H99.5117C99.858 99.0802 100.18 99.2595 100.362 99.554L104.11 105.611V100.08C104.11 99.5279 104.558 99.0802 105.11 99.0802H105.172Z" fill="white"/>
<path d="M114.662 107.302C115.094 107.302 115.444 107.652 115.444 108.084V108.084C115.444 108.516 115.094 108.866 114.662 108.866H110.882C110.45 108.866 110.1 108.516 110.1 108.084V108.084C110.1 107.652 110.45 107.302 110.882 107.302H114.662ZM110.776 99.1337V108.866H109.707C109.155 108.866 108.707 108.419 108.707 107.866V100.134C108.707 99.5814 109.155 99.1337 109.707 99.1337H110.776ZM113.986 103.098C114.407 103.098 114.748 103.439 114.748 103.86V103.86C114.748 104.28 114.407 104.622 113.986 104.622H110.862C110.441 104.622 110.1 104.28 110.1 103.86V103.86C110.1 103.439 110.441 103.098 110.862 103.098H113.986ZM114.652 99.1337C115.086 99.1337 115.438 99.4853 115.438 99.9191V99.9191C115.438 100.353 115.086 100.705 114.652 100.705H110.885C110.452 100.705 110.1 100.353 110.1 99.9191V99.9191C110.1 99.4853 110.452 99.1337 110.885 99.1337H114.652Z" fill="white"/>
<path d="M119.923 107.456C119.92 107.367 119.93 107.278 119.951 107.192L121.733 99.8964C121.842 99.4487 122.243 99.1337 122.704 99.1337H123.036L123.251 100.28C123.278 100.423 123.273 100.57 123.237 100.711L121.352 108.113C121.239 108.556 120.84 108.866 120.383 108.866H119.961L119.923 107.456ZM118.083 99.1337C118.554 99.1337 118.959 99.4651 119.052 99.926L120.517 107.174C120.537 107.272 120.542 107.373 120.532 107.473L120.391 108.866H119.868C119.402 108.866 118.997 108.544 118.893 108.089L117.12 100.342C116.978 99.7235 117.449 99.1337 118.083 99.1337V99.1337ZM125.061 107.427C125.054 107.335 125.059 107.243 125.077 107.152L126.525 99.9274C126.618 99.4659 127.023 99.1337 127.494 99.1337V99.1337C128.128 99.1337 128.598 99.7229 128.457 100.341L126.689 108.089C126.585 108.544 126.181 108.866 125.714 108.866H125.174L125.061 107.427ZM122.879 99.1337C123.34 99.1337 123.741 99.4484 123.85 99.8958L125.644 107.22C125.666 107.31 125.676 107.402 125.672 107.495L125.622 108.866H125.199C124.742 108.866 124.343 108.557 124.23 108.114L122.335 100.713C122.297 100.567 122.293 100.414 122.323 100.266L122.553 99.1337H122.879Z" fill="white"/>
<path d="M135.848 105.852C135.613 105.188 134.574 104.936 133.959 104.749C133.053 104.465 132.215 104.12 131.587 103.646C130.972 103.166 130.594 102.547 130.594 101.707C130.594 100.892 130.983 100.219 131.642 99.7487C132.307 99.2651 133.231 99 134.311 99C135.538 99 136.831 99.4127 137.531 100.451C137.653 100.628 137.75 100.816 137.824 101.014C138.017 101.532 137.545 101.995 136.993 101.995H136.719C136.288 101.995 135.968 101.619 135.752 101.246V101.246C135.515 100.812 135.026 100.544 134.276 100.544C133.561 100.544 133.082 100.768 132.842 101.126C132.49 101.637 132.691 102.208 133.173 102.536C133.993 103.095 135.048 103.214 135.938 103.646C136.356 103.846 136.871 104.131 137.152 104.381C137.713 104.88 138 105.504 138 106.306C138 107.153 137.651 107.828 137.007 108.291C136.363 108.755 135.462 109 134.359 109C133.365 109 132.363 108.748 131.573 108.231C131.182 107.973 130.869 107.643 130.635 107.242C130.554 107.104 130.488 106.957 130.435 106.802C130.257 106.279 130.731 105.818 131.283 105.818H131.571C132.006 105.818 132.322 106.192 132.504 106.587V106.587C132.698 107.009 133.062 107.261 133.545 107.376C134.076 107.5 134.732 107.533 135.242 107.316C135.834 107.068 136.077 106.423 135.848 105.852Z" fill="white"/>
<path fill-rule="evenodd" clip-rule="evenodd" d="M68 80.7663V43.9683C67.9973 42.9167 67.7456 41.7436 67 41C66.2544 40.2564 65.0755 40.0027 64.021 40H25.8046L12 54V105.032C12.5 106 12.7609 106.757 13.5 107.5C14.2391 108.243 15 108.5 15.9485 109H64.021C65.0755 108.997 66.086 108.578 66.8316 107.835C67.5772 107.091 67.9973 106.083 68 105.032V80.7663Z" fill="#BDECFF"/>
<path fill-rule="evenodd" clip-rule="evenodd" d="M25.9486 39.1489C26.0425 39.0536 26.1708 39 26.3046 39H31.5C31.7761 39 32 39.2239 32 39.5C32 39.7761 31.7761 40 31.5 40H26.5138L13 53.7051V104.531C13.0024 105.445 13.3659 106.322 14.012 106.971C14.6578 107.62 15.5341 107.99 16.4514 108H64.5198C65.4425 107.998 66.3265 107.631 66.9785 106.981C67.6306 106.33 67.9977 105.449 68 104.53V43.4696C67.9977 42.5505 67.6306 41.6695 66.9785 41.0193C66.3266 40.3691 65.4429 40.0025 64.5204 40H50C49.7239 40 49.5 39.7761 49.5 39.5C49.5 39.2239 49.7239 39 50 39H64.5223C65.7085 39.003 66.8455 39.4743 67.6847 40.3112C68.5239 41.1482 68.997 42.2828 69 43.467V104.533C68.997 105.717 68.5239 106.852 67.6847 107.689C66.8455 108.526 65.7085 108.997 64.5223 109H16.4485L16.4434 109C15.2632 108.988 14.1349 108.513 13.3031 107.677C12.4713 106.841 12.0029 105.711 12 104.533L12 104.532V53.5C12 53.3686 12.0517 53.2425 12.144 53.1489L25.9486 39.1489Z" fill="#333333"/>
<path fill-rule="evenodd" clip-rule="evenodd" d="M23.5 53C24.532 52.9974 25.2703 52.7297 26 52C26.7297 51.2703 26.9974 50.532 27 49.5V40L14 53H23.5Z" fill="url(#paint1_linear_125_6472)"/>
<path fill-rule="evenodd" clip-rule="evenodd" d="M23.5026 54L23.5 54L14 54C13.5956 54 13.2309 53.7564 13.0761 53.3827C12.9214 53.009 13.0069 52.5789 13.2929 52.2929L26.2929 39.2929C26.5789 39.0069 27.009 38.9214 27.3827 39.0761C27.7564 39.2309 28 39.5956 28 40V49.5026C27.9985 50.1048 27.9194 50.6772 27.7039 51.2279C27.4867 51.7826 27.1517 52.2625 26.7071 52.7071C26.2625 53.1517 25.7826 53.4867 25.2279 53.7039C24.6772 53.9194 24.1048 53.9985 23.5026 54ZM27 49.5C26.9974 50.532 26.7297 51.2703 26 52C25.2703 52.7297 24.532 52.9974 23.5 53H14L27 40V49.5Z" fill="#333333"/>
<path fill-rule="evenodd" clip-rule="evenodd" d="M33 56.5C33 56.2239 33.2239 56 33.5 56H58.5C58.7761 56 59 56.2239 59 56.5C59 56.7761 58.7761 57 58.5 57H33.5C33.2239 57 33 56.7761 33 56.5Z" fill="#333333"/>
<path fill-rule="evenodd" clip-rule="evenodd" d="M37 49C37 48.4477 37.4356 48 37.973 48H54.027C54.5644 48 55 48.4477 55 49C55 49.5523 54.5644 50 54.027 50H37.973C37.4356 50 37 49.5523 37 49Z" fill="url(#paint2_linear_125_6472)"/>
<path fill-rule="evenodd" clip-rule="evenodd" d="M23 64.5C23 64.2239 23.227 64 23.507 64H58.493C58.773 64 59 64.2239 59 64.5C59 64.7761 58.773 65 58.493 65H23.507C23.227 65 23 64.7761 23 64.5Z" fill="#333333"/>
<path fill-rule="evenodd" clip-rule="evenodd" d="M23 72.5C23 72.2239 23.2171 72 23.4848 72H38.5152C38.7829 72 39 72.2239 39 72.5C39 72.7761 38.7829 73 38.5152 73H23.4848C23.2171 73 23 72.7761 23 72.5Z" fill="#333333"/>
<path fill-rule="evenodd" clip-rule="evenodd" d="M43 72.5C43 72.2239 43.2388 72 43.5333 72H58.4667C58.7612 72 59 72.2239 59 72.5C59 72.7761 58.7612 73 58.4667 73H43.5333C43.2388 73 43 72.7761 43 72.5Z" fill="#333333"/>
<path fill-rule="evenodd" clip-rule="evenodd" d="M23 80.5C23 80.2239 23.227 80 23.507 80H58.493C58.773 80 59 80.2239 59 80.5C59 80.7761 58.773 81 58.493 81H23.507C23.227 81 23 80.7761 23 80.5Z" fill="#333333"/>
<path fill-rule="evenodd" clip-rule="evenodd" d="M23 88.5C23 88.2239 23.2239 88 23.5 88H38.5C38.7761 88 39 88.2239 39 88.5C39 88.7761 38.7761 89 38.5 89H23.5C23.2239 89 23 88.7761 23 88.5Z" fill="#333333"/>
<path fill-rule="evenodd" clip-rule="evenodd" d="M43 88.5C43 88.2239 43.2311 88 43.5161 88H58.4839C58.7689 88 59 88.2239 59 88.5C59 88.7761 58.7689 89 58.4839 89H43.5161C43.2311 89 43 88.7761 43 88.5Z" fill="#333333"/>
<path fill-rule="evenodd" clip-rule="evenodd" d="M23 96.5C23 96.2239 23.2187 96 23.4884 96H43.5116C43.7813 96 44 96.2239 44 96.5C44 96.7761 43.7813 97 43.5116 97H23.4884C23.2187 97 23 96.7761 23 96.5Z" fill="#333333"/>
<path fill-rule="evenodd" clip-rule="evenodd" d="M38.7654 33.0127C37.5469 33.1555 36.7123 34.4322 37.0929 35.6145C37.3353 36.3676 38.0454 36.9311 38.8339 36.9962C40.0717 37.0984 41.1255 35.9957 40.9879 34.7765C40.858 33.6995 39.8529 32.8879 38.7654 33.0127Z" fill="url(#paint3_linear_125_6472)"/>
<path fill-rule="evenodd" clip-rule="evenodd" d="M41.0516 36L43.8207 40.6214C43.8832 40.7037 43.9312 40.8013 43.9618 40.9079C43.9924 41.0145 44.0048 41.1279 43.9983 41.2408C43.9918 41.3537 43.9666 41.4637 43.9241 41.5638C43.8817 41.664 43.823 41.752 43.7517 41.8225C43.6805 41.8929 43.5983 41.9442 43.5102 41.973C43.4222 42.0019 43.3304 42.0077 43.2405 41.99C43.1506 41.9724 43.0646 41.9318 42.988 41.8707C42.9114 41.8096 42.8458 41.7293 42.7954 41.6351L40 36.9701L41.0516 36Z" fill="#333333"/>
<path fill-rule="evenodd" clip-rule="evenodd" d="M81.8686 37.4226L114.134 33.0186C114.703 32.9439 115.278 33.0962 115.735 33.4424C116.193 33.7887 116.495 34.301 116.578 34.8686L120.982 67.1343C121.056 67.7045 120.902 68.2811 120.554 68.7386C120.206 69.1961 119.691 69.4977 119.121 69.5776L86.8659 73.9816C86.2957 74.0561 85.7191 73.9025 85.2616 73.5541C84.804 73.2058 84.5025 72.6909 84.4226 72.1215L80.0186 39.8659C79.9439 39.2972 80.0962 38.722 80.4424 38.2647C80.7887 37.8074 81.301 37.5049 81.8686 37.4226Z" fill="white"/>
<path fill-rule="evenodd" clip-rule="evenodd" d="M39.7361 33.5832C39.304 33.419 38.8001 33.4599 38.3931 33.6738C37.841 33.9637 37.5099 34.581 37.5892 35.1726C37.7118 35.9781 38.5035 36.5787 39.3678 36.4739C40.1176 36.3767 40.3125 35.7113 40.9465 35.5137C41.1485 35.4508 41.3669 35.4531 41.5674 35.5203C41.7689 35.6063 41.9232 35.78 41.9778 35.9823C42.0324 36.1846 41.9849 36.4068 41.8515 36.5733C41.6639 36.8493 41.4333 37.0971 41.1674 37.3084C40.7176 37.6604 40.0623 37.9839 39.4625 37.9839C38.6326 38.0646 37.8025 37.832 37.1537 37.3369C36.505 36.8418 36.0902 36.1244 36 35.3415C36 34.5087 36.1092 33.7755 36.6855 33.1027C37.5394 32.1057 39.0066 31.7468 40.2729 32.1825C40.6731 32.3301 41.1903 32.5283 41.285 32.9715C41.3317 33.1895 41.2675 33.4237 41.1148 33.5931C40.9631 33.7256 40.7688 33.8064 40.5628 33.8226C40.2356 33.8483 40.028 33.6613 39.7361 33.5832Z" fill="#333333"/>
<path fill-rule="evenodd" clip-rule="evenodd" d="M113.7 34.0258L113.696 34.0262L106.9 35.0185C106.623 35.0589 106.367 34.8675 106.326 34.591C106.286 34.3145 106.477 34.0576 106.754 34.0172L113.565 33.0229C114.265 32.9309 114.973 33.1185 115.536 33.5449C116.1 33.9714 116.472 34.6024 116.574 35.3015L116.574 35.3057L120.977 67.5649C121.069 68.2671 120.88 68.9772 120.451 69.5407C120.022 70.1042 119.388 70.4756 118.686 70.574L118.685 70.5743L86.4383 74.977L86.4353 74.9774C85.7331 75.0691 85.023 74.8799 84.4595 74.4509C83.896 74.0219 83.5247 73.3878 83.4262 72.6865L83.4259 72.6846L79.0229 40.4357C78.9309 39.7353 79.1185 39.0269 79.5449 38.4637C79.9712 37.9008 80.6019 37.5282 81.3007 37.4267V37.4267L94.1043 35.5352C94.3808 35.4944 94.6379 35.6853 94.6788 35.9618C94.7196 36.2382 94.5286 36.4954 94.2522 36.5362L81.448 38.4278L81.4467 38.428C81.0109 38.4912 80.6174 38.7235 80.3516 39.0746C80.086 39.4254 79.969 39.8665 80.026 40.3028L80.0262 40.304L84.4282 72.5458V72.5458C84.4898 72.9827 84.7214 73.3785 85.0725 73.6458C85.4235 73.913 85.8657 74.031 86.3031 73.9742L86.3043 73.974L118.546 69.572V69.572C118.983 69.5104 119.378 69.2789 119.646 68.9277C119.913 68.5768 120.031 68.1346 119.974 67.6972L119.974 67.6959L115.572 35.4467L115.572 35.4446C115.508 35.0096 115.276 34.6171 114.926 34.3516C114.575 34.0865 114.135 33.9695 113.7 34.0258Z" fill="#333333"/>
<path fill-rule="evenodd" clip-rule="evenodd" d="M105.866 43.0094C105.94 43.5566 105.557 44.0606 105.01 44.1351L89.1558 46.2931C88.6086 46.3676 88.1046 45.9844 88.0301 45.4371C87.9556 44.8899 88.3388 44.3859 88.8861 44.3114L104.74 42.1534C105.287 42.0789 105.791 42.4621 105.866 43.0094Z" fill="url(#paint4_linear_125_6472)"/>
<path fill-rule="evenodd" clip-rule="evenodd" d="M107.933 61.5046C107.97 61.7782 107.778 62.0302 107.505 62.0674L91.6508 64.2254C91.3772 64.2627 91.1251 64.0711 91.0879 63.7975C91.0507 63.5238 91.2423 63.2718 91.5159 63.2346L107.37 61.0766C107.643 61.0393 107.895 61.2309 107.933 61.5046Z" fill="#333333"/>
<path fill-rule="evenodd" clip-rule="evenodd" d="M112.933 55.5046C112.97 55.7782 112.778 56.0302 112.505 56.0674L90.7056 59.0347C90.432 59.0719 90.18 58.8803 90.1427 58.6067C90.1055 58.3331 90.2971 58.0811 90.5707 58.0438L112.37 55.0766C112.643 55.0393 112.895 55.2309 112.933 55.5046Z" fill="#333333"/>
<path fill-rule="evenodd" clip-rule="evenodd" d="M111.933 49.5055C111.97 49.7792 111.778 50.0312 111.505 50.0684L89.7056 53.0357C89.432 53.0729 89.18 52.8813 89.1427 52.6077C89.1055 52.3341 89.2971 52.0821 89.5707 52.0448L111.37 49.0776C111.643 49.0403 111.895 49.2319 111.933 49.5055Z" fill="#333333"/>
<path fill-rule="evenodd" clip-rule="evenodd" d="M101.704 29.0212C102.933 28.8376 104.057 29.8712 103.998 31.0982C103.96 31.8894 103.42 32.6191 102.675 32.8866C101.506 33.3065 100.202 32.5122 100.021 31.2972C99.8606 30.2185 100.627 29.1823 101.704 29.0212Z" fill="url(#paint5_linear_125_6472)"/>
<path fill-rule="evenodd" clip-rule="evenodd" d="M101 33.5459L99.2476 38.5085C99.118 38.8886 98.7085 39.0974 98.3714 38.9551C98.0581 38.7833 97.9112 38.3212 98.056 37.9626L99.8084 33L101 33.5459Z" fill="#333333"/>
<path fill-rule="evenodd" clip-rule="evenodd" d="M99.6366 28.6593C100.257 28.2102 101.045 27.9724 101.838 28.0025C102.461 28.0262 103.065 28.2102 103.578 28.5332C104.091 28.8561 104.493 29.3048 104.737 29.827C104.981 30.3493 105.057 30.9237 104.957 31.4838C104.856 32.0438 104.583 32.5663 104.169 32.9908C103.754 33.4153 103.216 33.7243 102.617 33.8819C102.017 34.0395 101.38 34.0394 100.781 33.8814C100.181 33.7234 99.6435 33.4141 99.2295 32.9893C98.8927 32.6711 98.9303 32.1251 99.3176 31.8493C99.7081 31.6597 100.226 31.746 100.517 32.0493C100.898 32.4013 101.454 32.5836 101.991 32.5093C102.427 32.4519 102.83 32.232 103.091 31.9093C103.494 31.4328 103.523 30.7329 103.183 30.2173C102.956 29.874 102.575 29.6231 102.148 29.5268C101.672 29.4196 101.104 29.5044 100.726 29.7993C100.544 29.9111 100.329 29.9708 100.11 29.9708C99.89 29.9708 99.6755 29.9111 99.4936 29.7993C99.3352 29.6375 99.2578 29.4154 99.2848 29.2003C99.3118 28.9851 99.4422 28.7845 99.6366 28.6593Z" fill="#333333"/>
<defs>
<linearGradient id="paint0_linear_125_6472" x1="92.0001" y1="95.375" x2="100.719" y2="124.817" gradientUnits="userSpaceOnUse">
<stop stop-color="#FF8E3D"/>
<stop offset="1" stop-color="#FF6F3D"/>
</linearGradient>
<linearGradient id="paint1_linear_125_6472" x1="14" y1="39.4922" x2="27" y2="53" gradientUnits="userSpaceOnUse">
<stop stop-color="#FF8E3D"/>
<stop offset="1" stop-color="#FF6F3D"/>
</linearGradient>
<linearGradient id="paint2_linear_125_6472" x1="37.4865" y1="48" x2="55" y2="48" gradientUnits="userSpaceOnUse">
<stop stop-color="#FF8E3D"/>
<stop offset="1" stop-color="#FF6F3D"/>
</linearGradient>
<linearGradient id="paint3_linear_125_6472" x1="37" y1="32.8436" x2="41.0029" y2="37" gradientUnits="userSpaceOnUse">
<stop stop-color="#FF8E3D"/>
<stop offset="1" stop-color="#FF6F3D"/>
</linearGradient>
<linearGradient id="paint4_linear_125_6472" x1="88.8861" y1="44.3114" x2="105.235" y2="42.086" gradientUnits="userSpaceOnUse">
<stop stop-color="#FF8E3D"/>
<stop offset="1" stop-color="#FF6F3D"/>
</linearGradient>
<linearGradient id="paint5_linear_125_6472" x1="100" y1="28.8437" x2="104" y2="33" gradientUnits="userSpaceOnUse">
<stop stop-color="#FF8E3D"/>
<stop offset="1" stop-color="#FF6F3D"/>
</linearGradient>
</defs>
</svg>
