<svg width="150" height="150" viewBox="0 0 150 150" fill="none" xmlns="http://www.w3.org/2000/svg">
<g clip-path="url(#clip0_125_6544)">
<path fill-rule="evenodd" clip-rule="evenodd" d="M148 136.828V117.955V14.8372C147.995 11.9681 146.855 9.21762 144.83 7.18695C142.805 5.15627 140.059 4.0105 137.193 4H12.8269C9.95707 4.00525 7.20624 5.14872 5.17693 7.17996C3.14762 9.2112 2.00525 11.9646 2 14.8372V136.163C2.00525 139.035 3.14762 141.789 5.17693 143.82C7.20624 145.851 9.95707 146.995 12.8269 147H137.193C139.948 146.995 142.598 145.942 144.605 144.052C146.612 142.163 147.826 139.581 148 136.828Z" fill="#FEFEFE"/>
<path fill-rule="evenodd" clip-rule="evenodd" d="M147 136.796V14.8391C146.995 12.2339 145.96 9.73663 144.122 7.89307C142.284 6.04996 139.792 5.00999 137.191 5H12.8279C10.2232 5.005 7.72646 6.04289 5.88438 7.88673C4.04226 9.7306 3.005 12.2302 3 14.8382V136.162C3.005 138.77 4.04226 141.269 5.88438 143.113C7.72667 144.957 10.2238 145.995 12.8288 146H137.191C139.692 145.996 142.098 145.039 143.92 143.324C145.735 141.616 146.835 139.283 147 136.796ZM148 136.828C147.826 139.581 146.612 142.163 144.605 144.052C142.598 145.942 139.948 146.995 137.193 147H12.8269C9.95707 146.995 7.20624 145.851 5.17693 143.82C3.14762 141.789 2.00525 139.035 2 136.163V14.8372C2.00525 11.9646 3.14762 9.2112 5.17693 7.17996C7.20624 5.14872 9.95707 4.00525 12.8269 4H137.193C140.059 4.0105 142.805 5.15627 144.83 7.18695C146.855 9.21762 147.995 11.9681 148 14.8372V136.828Z" fill="#333333"/>
<path fill-rule="evenodd" clip-rule="evenodd" d="M122 32.6011V111.399C122 113.133 121.25 114.841 119.95 116.067C118.65 117.293 116.838 118 115 118C113.161 118 111.35 117.293 110.05 116.067C108.75 114.841 108 113.133 108 111.399V32.6011C108 30.8674 108.75 29.1594 110.05 27.9334C111.35 26.7075 113.161 26 115 26C116.838 26 118.65 26.7075 119.95 27.9334C121.25 29.1594 122 30.8674 122 32.6011ZM66 59.1892V110.811C66 114.646 62.8916 118 59 118C55.1084 118 52 114.646 52 110.811V59.1892C52 55.3543 55.1084 52 59 52C62.8916 52 66 55.3543 66 59.1892ZM39 85.9351V111.025C38.9787 112.882 38.225 114.656 36.9022 115.962C35.5795 117.268 33.7944 118 31.9344 118C30.1105 117.997 28.3148 117.251 27.027 115.962C25.7391 114.672 24.9975 112.876 25.0001 111.055V85.9654C24.9895 84.1398 25.7279 82.3372 27.0168 81.0425C28.3057 79.7479 30.1064 79 31.9344 79C33.7875 78.9997 35.5666 79.7265 36.8882 81.0237C38.2098 82.321 38.9682 84.0848 39 85.9351ZM94 111.044V62.9559C93.9787 61.1037 93.225 59.3346 91.9022 58.0324C90.5794 56.7302 88.7944 55.9999 86.9344 56C85.1061 56.0053 83.3072 56.7542 82.0191 58.0463C80.731 59.3384 79.9921 61.1352 80.0001 62.9559V111.044C79.9921 112.865 80.731 114.662 82.0191 115.954C83.3072 117.246 85.1061 117.995 86.9344 118C88.7944 118 90.5794 117.27 91.9022 115.968C93.225 114.665 93.9787 112.896 94 111.044Z" fill="url(#paint0_linear_125_6544)"/>
<rect x="21" y="128" width="22" height="2" rx="1" fill="#333333"/>
<rect x="76" y="128" width="22" height="2" rx="1" fill="#333333"/>
<rect x="48" y="128" width="22" height="2" rx="1" fill="#333333"/>
<rect x="104" y="128" width="22" height="2" rx="1" fill="#333333"/>
</g>
<defs>
<linearGradient id="paint0_linear_125_6544" x1="25.0002" y1="22.4062" x2="116.686" y2="122.851" gradientUnits="userSpaceOnUse">
<stop stop-color="#FFC671"/>
<stop offset="0.59375" stop-color="#FF7541"/>
<stop offset="1" stop-color="#FF6F3D"/>
</linearGradient>
<clipPath id="clip0_125_6544">
<rect width="150" height="150" fill="white"/>
</clipPath>
</defs>
</svg>
