<svg width="150" height="150" viewBox="0 0 150 150" fill="none" xmlns="http://www.w3.org/2000/svg">
<path fill-rule="evenodd" clip-rule="evenodd" d="M63.9265 104.916C56.7958 116.963 35.0214 109.976 36.4811 95.7782L30.2092 94C26.9424 116.014 62.8923 126.652 71 105.657L64.5395 103.83C64.3509 104.077 64.1622 104.521 63.9265 104.916Z" fill="#BDECFF"/>
<path fill-rule="evenodd" clip-rule="evenodd" d="M29.798 93.3633L37.0212 95.4112L36.9783 95.8289C36.2802 102.619 41.1289 107.745 47.1379 109.713C53.1498 111.683 60.0892 110.417 63.496 104.661L63.4969 104.66C63.5865 104.509 63.6682 104.352 63.753 104.189C63.771 104.155 63.7891 104.12 63.8075 104.085C63.9048 103.899 64.0176 103.688 64.142 103.526L64.3483 103.255L71.6639 105.325L71.4662 105.837C67.2844 116.666 55.9372 119.266 46.1995 116.437C36.4645 113.608 28.0312 105.269 29.7145 93.9261L29.798 93.3633ZM30.6283 94.6381C29.4011 105.025 37.1959 112.779 46.4785 115.476C55.766 118.175 66.2463 115.728 70.3283 105.986L64.7658 104.413C64.7432 104.454 64.7192 104.5 64.6934 104.549C64.6776 104.579 64.6612 104.611 64.6443 104.643C64.5595 104.806 64.4619 104.994 64.3561 105.171C60.632 111.462 53.1193 112.725 46.8265 110.663C40.65 108.64 35.4237 103.34 35.9467 96.146L30.6283 94.6381Z" fill="#333333"/>
<path fill-rule="evenodd" clip-rule="evenodd" d="M112 57V93C121.382 93 128 84.6686 128 74.9724C128 65.2762 120.823 57 112 57Z" fill="url(#paint0_linear_125_6407)"/>
<path fill-rule="evenodd" clip-rule="evenodd" d="M113 92.9681C112.67 92.9893 112.337 93 112 93V57C112.336 57 112.669 57.012 113 57.0356C121.359 57.6321 128 65.6453 128 74.9724C128 84.3204 121.849 92.3998 113 92.9681ZM113 58.0387V91.9655C121.171 91.3979 127 83.9051 127 74.9724C127 66.0892 120.709 58.637 113 58.0387Z" fill="#333333"/>
<path fill-rule="evenodd" clip-rule="evenodd" d="M136 73.5C136 73.2239 136.224 73 136.5 73H146.5C146.776 73 147 73.2239 147 73.5C147 73.7761 146.776 74 146.5 74H136.5C136.224 74 136 73.7761 136 73.5Z" fill="#333333"/>
<path fill-rule="evenodd" clip-rule="evenodd" d="M133.354 62.3536C133.158 62.1583 133.158 61.8417 133.354 61.6464L140.425 54.5754C140.62 54.3801 140.936 54.3801 141.132 54.5754C141.327 54.7706 141.327 55.0872 141.132 55.2825L134.061 62.3536C133.865 62.5488 133.549 62.5488 133.354 62.3536Z" fill="#333333"/>
<path fill-rule="evenodd" clip-rule="evenodd" d="M133.354 83.6464C133.158 83.8417 133.158 84.1583 133.354 84.3536L140.425 91.4246C140.62 91.6199 140.936 91.6199 141.132 91.4246C141.327 91.2294 141.327 90.9128 141.132 90.7175L134.061 83.6464C133.865 83.4512 133.549 83.4512 133.354 83.6464Z" fill="#333333"/>
<path fill-rule="evenodd" clip-rule="evenodd" d="M100 37L8 58.5027V91.4973L100 113V37Z" fill="url(#paint1_linear_125_6407)"/>
<path fill-rule="evenodd" clip-rule="evenodd" d="M9 59.2959V90.7041L99 111.739V38.2607L9 59.2959ZM8 58.5027V91.4973L100 113V37L8 58.5027Z" fill="#333333"/>
<path fill-rule="evenodd" clip-rule="evenodd" d="M76 74.5C76 84.165 68.165 92 58.5 92C48.835 92 41 84.165 41 74.5C41 64.835 48.835 57 58.5 57C68.165 57 76 64.835 76 74.5ZM58.5 91C67.6127 91 75 83.6127 75 74.5C75 65.3873 67.6127 58 58.5 58C49.3873 58 42 65.3873 42 74.5C42 83.6127 49.3873 91 58.5 91Z" fill="white"/>
<path d="M54.7457 70.7095C53.7696 68.9884 53.6622 66.8261 54.9627 65.2407C56.3198 63.5864 59.6823 63.5864 61.0393 65.2407C62.3362 66.8217 62.2306 68.9544 61.2563 70.6723C60.0086 73.5285 59.5067 75.0251 58.2904 77.5177H57.7116C56.4956 75.0251 55.9937 73.5285 54.7457 70.7095ZM58.0372 86C56.1713 86 54.7095 84.398 54.7095 82.5773C54.7095 80.7433 56.1454 79.1174 58.0372 79.1174C59.9436 79.1174 61.401 80.717 61.401 82.5773C61.401 84.4241 59.9175 86 58.0372 86Z" fill="white"/>
<path fill-rule="evenodd" clip-rule="evenodd" d="M105.5 26C109.071 26 112 28.5694 112 33.0653V117.009C112 121.505 109.071 124 105.5 124C101.929 124 99.0004 121.505 99.0004 117.009V33.0653C98.9603 28.5694 101.889 26 105.5 26Z" fill="#BDECFF"/>
<path fill-rule="evenodd" clip-rule="evenodd" d="M110.804 27.1473C112.19 28.564 113 30.5938 113 33.0653V117.009C113 119.481 112.19 121.496 110.798 122.895C109.411 124.291 107.521 125 105.5 125C103.48 125 101.589 124.291 100.202 122.895C98.8108 121.496 98.0004 119.481 98.0004 117.009V33.0697C97.9794 30.5981 98.7781 28.5659 100.166 27.1473C101.552 25.7312 103.454 25 105.5 25C107.529 25 109.42 25.7334 110.804 27.1473ZM99.0004 33.0653V117.009C99.0004 121.505 101.929 124 105.5 124C109.071 124 112 121.505 112 117.009V33.0653C112 28.5694 109.071 26 105.5 26C101.889 26 98.9603 28.5694 99.0004 33.0653Z" fill="#333333"/>
<path fill-rule="evenodd" clip-rule="evenodd" d="M1.67391 53H5.5C8.51304 53 11 55.5638 11 58.6699V93.3301C11 96.4362 8.51304 99 5.5 99H1.53043C0.669565 99 0 98.3098 0 97.4223V54.7256C0 53.7395 0.717391 53 1.67391 53Z" fill="#BDECFF"/>
<path fill-rule="evenodd" clip-rule="evenodd" d="M5.5 54H1.67391C1.29813 54 1 54.2629 1 54.7256V97.4223C1 97.7864 1.25031 98 1.53043 98H5.5C7.9323 98 10 95.9128 10 93.3301V58.6699C10 56.0872 7.9323 54 5.5 54ZM5.5 53H1.67391C0.717391 53 0 53.7395 0 54.7256V97.4223C0 98.3098 0.669565 99 1.53043 99H5.5C8.51304 99 11 96.4362 11 93.3301V58.6699C11 55.5638 8.51304 53 5.5 53Z" fill="#333333"/>
<defs>
<linearGradient id="paint0_linear_125_6407" x1="112" y1="55.5937" x2="139.426" y2="68.259" gradientUnits="userSpaceOnUse">
<stop stop-color="#FF8E3D"/>
<stop offset="1" stop-color="#FF6F3D"/>
</linearGradient>
<linearGradient id="paint1_linear_125_6407" x1="8.00018" y1="34.0312" x2="82.0982" y2="127.233" gradientUnits="userSpaceOnUse">
<stop stop-color="#FF8E3D"/>
<stop offset="1" stop-color="#FF6F3D"/>
</linearGradient>
</defs>
</svg>
