<svg width="150" height="150" viewBox="0 0 150 150" fill="none" xmlns="http://www.w3.org/2000/svg">
<g clip-path="url(#clip0_125_6518)">
<path fill-rule="evenodd" clip-rule="evenodd" d="M130 8.7111C130 4.47196 126.479 1 122.18 1H47.121L20 28.0171V127.289C20.5005 131.526 23.5005 134.504 27.8201 135H122.17C126.5 134.504 130 131.03 129.99 127.289L130 8.7111Z" fill="#FEFEFE"/>
<path fill-rule="evenodd" clip-rule="evenodd" d="M46.9534 1H122.078C126.638 1 129.966 4.21034 129.966 8.76589V71.4471L129.969 73.7426C129.971 75.2076 129.974 77.3047 129.977 79.8333C129.983 84.8906 129.99 91.6737 129.995 98.5773C130.004 112.379 130.004 126.676 129.966 128.61C129.925 130.706 128.822 132.67 127.229 134.038C125.634 135.407 123.662 136.27 121.5 136C121.226 135.966 120.87 135.664 120.904 135.39C120.938 135.116 121.226 134.966 121.5 135C123.334 135.229 125.157 134.498 126.578 133.279C128 132.059 128.933 130.348 128.968 128.59C129.005 126.67 129.005 112.39 128.996 98.578C128.991 91.6746 128.984 84.8916 128.978 79.8345C128.975 77.3059 128.972 75.2088 128.971 73.7439L128.967 71.4485L128.967 71.4467C128.967 71.4467 128.967 71.4461 129.467 71.4454L128.967 71.4467V8.76589C128.967 4.78292 126.107 1.99965 122.078 1.99965H47.3675L20.999 28.416V127.7C21.0018 129.97 21.7165 131.771 22.9565 133.006C24.1969 134.242 26.0099 134.993 28.3099 135L90.4316 134.967C90.7075 134.967 90.9311 135.191 90.9311 135.467C90.9311 135.743 90.7075 135.966 90.4316 135.966L28.3099 136C25.8007 135.993 23.7137 135.171 22.2518 133.715C20.7897 132.259 20.0031 130.184 20 127.701L20 28.0022L46.9534 1Z" fill="#333333"/>
<path fill-rule="evenodd" clip-rule="evenodd" d="M39.2143 28C43.4942 28 46.9995 24.4947 46.9995 20.2148V1L19.9995 28H39.2143Z" fill="url(#paint0_linear_125_6518)"/>
<path fill-rule="evenodd" clip-rule="evenodd" d="M39.2143 27C42.9419 27 45.9995 23.9424 45.9995 20.2148V3.41421L22.4137 27H39.2143ZM19.9995 28L46.9995 1V20.2148C46.9995 24.4947 43.4942 28 39.2143 28H19.9995Z" fill="#333333"/>
<path fill-rule="evenodd" clip-rule="evenodd" d="M107.008 141.64C122.856 157.05 115.559 141.948 113.729 123.01C111.9 124.5 109.564 125.405 107.008 125.405C104.453 125.405 102.107 124.5 100.268 123C100.248 123 100.228 123 100.198 123C98.4285 141.978 91.1708 157.041 107.008 141.64Z" fill="#BDECFF"/>
<path fill-rule="evenodd" clip-rule="evenodd" d="M101.142 123.593C102.826 124.708 104.842 125.359 107.008 125.359C109.145 125.359 111.129 124.725 112.791 123.644C113.116 123.433 113.429 123.204 113.729 122.96C113.767 123.352 113.807 123.743 113.849 124.131C114.336 128.613 115.1 132.846 115.754 136.467C117.785 147.722 118.75 153.066 107.008 141.625C95.2751 153.058 96.2189 147.735 98.2153 136.476C98.8599 132.841 99.6143 128.586 100.087 124.077C100.123 123.735 100.157 123.391 100.19 123.046C100.193 123.014 100.196 122.982 100.199 122.95H100.268C100.271 122.952 100.274 122.954 100.277 122.957C100.554 123.183 100.843 123.395 101.142 123.593ZM107.008 143.018C108.692 144.632 110.113 145.892 111.306 146.825C112.638 147.866 113.768 148.566 114.713 148.851C115.196 148.996 115.707 149.057 116.203 148.931C116.725 148.799 117.13 148.485 117.411 148.068C117.913 147.321 118.016 146.25 117.998 145.181C117.961 143.061 117.401 139.955 116.752 136.361C116.722 136.2 116.693 136.037 116.664 135.874C115.97 132.027 115.178 127.561 114.725 122.863L114.545 121L113.096 122.183C111.437 123.537 109.322 124.357 107.008 124.357C104.694 124.357 102.569 123.537 100.901 122.173L100.625 121.947H99.2869L99.2023 122.857C98.7642 127.564 97.9858 132.035 97.3039 135.884C97.2747 136.049 97.2457 136.212 97.2169 136.374C96.5794 139.969 96.0288 143.073 96.0007 145.191C95.9865 146.259 96.0936 147.331 96.6013 148.076C96.8843 148.491 97.2902 148.803 97.8129 148.933C98.3082 149.057 98.8191 148.996 99.3031 148.85C100.249 148.565 101.38 147.864 102.712 146.823C103.905 145.89 105.326 144.631 107.008 143.018Z" fill="#333333"/>
<path d="M95.4995 115.994V115.995C95.4995 122.356 100.655 127.5 107.005 127.5C113.355 127.5 118.5 122.344 118.5 115.995C118.5 109.645 113.355 104.5 107.005 104.5C100.654 104.5 95.5103 109.655 95.4995 115.994Z" fill="url(#paint1_linear_125_6518)" stroke="#333333"/>
<path fill-rule="evenodd" clip-rule="evenodd" d="M37.4997 40C37.2237 40 37 40.2239 37 40.5C37 40.7761 37.2237 41 37.4997 41H112.5C112.776 41 113 40.7761 113 40.5C113 40.2239 112.776 40 112.5 40H37.4997ZM37 50.5C37 50.2239 37.2237 50 37.4997 50H59.6449H82.1121C82.388 50 82.6117 50.2239 82.6117 50.5C82.6117 50.7761 82.388 51 82.1121 51H59.6449H37.4997C37.2237 51 37 50.7761 37 50.5ZM37 60.5C37 60.2239 37.2237 60 37.4997 60H111.949C112.225 60 112.449 60.2239 112.449 60.5C112.449 60.7761 112.225 61 111.949 61H37.4997C37.2237 61 37 60.7761 37 60.5ZM37.4997 91C37.2237 91 37 91.2239 37 91.5C37 91.7761 37.2237 92 37.4997 92H94.1037C94.3797 92 94.6034 91.7761 94.6034 91.5C94.6034 91.2239 94.3797 91 94.1037 91H37.4997ZM37 70.5C37 70.2239 37.2237 70 37.4997 70H62.1758H79.2592C79.5352 70 79.7589 70.2239 79.7589 70.5C79.7589 70.7761 79.5352 71 79.2592 71H62.1758H37.4997C37.2237 71 37 70.7761 37 70.5ZM37.4997 101C37.2237 101 37 101.224 37 101.5C37 101.776 37.2237 102 37.4997 102H62.9715C63.2474 102 63.4712 101.776 63.4712 101.5C63.4712 101.224 63.2474 101 62.9715 101H37.4997ZM37 111.5C37 111.224 37.2237 111 37.4997 111H55.4243C55.7002 111 55.9239 111.224 55.9239 111.5C55.9239 111.776 55.7002 112 55.4243 112H37.4997C37.2237 112 37 111.776 37 111.5ZM37.7999 80H37.4997C37.2237 80 37 80.2239 37 80.5C37 80.7762 37.2237 81 37.4997 81H79.2592C79.5352 81 79.7589 80.7762 79.7589 80.5C79.7589 80.2239 79.5352 80 79.2592 80H62.4896C62.4874 80 62.4851 80 62.4828 80H37.8067C37.8044 80 37.8022 80 37.7999 80Z" fill="#333333"/>
<path fill-rule="evenodd" clip-rule="evenodd" d="M62.7989 20H84.9742H107.149C109.605 20 109.639 24 107.116 24H62.7989C60.3997 23.9905 60.3997 20 62.7989 20Z" fill="url(#paint2_linear_125_6518)"/>
<path fill-rule="evenodd" clip-rule="evenodd" d="M71.9118 114.58C72.5892 113.08 73.6303 110.775 73.4923 109.226C73.2919 107.021 70.0448 107.643 68.7383 108.433C67.5644 109.139 66.9133 110.389 67.0324 111.754C67.1626 113.246 68.0609 114.381 68.9767 115.484C70.0805 116.835 71.6484 118.731 72.5766 120.565C73.5675 120.02 74.1822 119.363 74.5585 118.954C74.9724 118.496 75.2233 118.223 75.6748 118.446C76.2267 118.719 76.2769 119.772 76.3271 120.85C76.3647 121.68 76.4023 122.548 76.4651 122.585C76.5529 122.622 76.9292 121.99 77.895 120.02C77.8052 119.458 78.0671 118.785 78.4218 118.359C79.0992 117.504 79.6511 117.455 79.5883 118.619C79.5569 119.085 79.2876 119.532 79.0866 119.945C79.2622 119.809 79.6761 119.264 80.1152 118.619C80.7292 117.745 81.2757 116.81 81.7584 115.856C82.5235 110.441 83.6524 105.001 85.283 104.183C85.9604 103.848 86.4119 103.985 86.6753 104.493C87.453 106.029 83.8029 113.973 83.0754 115.559L82.7618 116.215C82.5611 117.653 82.3981 119.103 82.235 120.453C83.0334 119.612 84.0631 119.179 85.0949 118.694C87.453 117.603 88.1805 116.897 89.9993 115.261C89.2091 118.136 88.3185 118.347 85.5339 119.636C84.0485 120.316 82.7415 121.15 81.9841 122.647L81.8462 123.935C81.5827 126.364 81.4071 128 80.8552 128C80.4413 128 80.2406 127.219 80.2281 125.423C80.2155 124.506 80.4915 123.39 80.9807 122.362C81.1061 121.197 81.2566 119.921 81.4197 118.582C81.2817 118.805 81.1312 119.016 80.9932 119.227C80.5823 119.819 79.5313 121.398 78.5974 120.937C77.3682 123.204 76.5779 123.787 76.026 123.527C75.3989 123.229 75.3487 122.052 75.2985 120.912L75.2483 119.772C74.8093 120.243 74.1194 120.961 73.0282 121.531C73.555 122.907 73.5926 124.171 72.6644 125.051C71.3975 126.253 69.7042 126.315 68.4499 125.844C67.3518 125.44 66.1215 124.276 66.8568 123.031C67.7775 121.411 70.1071 121.548 71.6735 120.999C70.7829 119.326 69.2526 117.455 68.1864 116.153C67.1314 114.869 66.1856 113.573 66.0164 111.854C65.872 110.093 66.7173 108.492 68.2115 107.566C70.2311 106.336 74.2817 106.032 74.5585 109.14C74.7968 111.854 73.3794 114.604 71.3223 116.253L71.9118 114.58ZM71.9118 124.307C72.4763 123.774 72.4512 122.919 72.0749 121.94C70.7982 122.418 68.4746 122.251 67.7349 123.539C67.3977 124.168 68.3245 124.695 68.7885 124.865C69.7167 125.224 70.9836 125.187 71.9118 124.307ZM83.3263 112.436C83.7392 111.491 85.8146 105.09 85.7471 105.112C84.7687 105.608 83.966 108.694 83.3263 112.436Z" fill="#333333"/>
</g>
<defs>
<linearGradient id="paint0_linear_125_6518" x1="29.8822" y1="10.5142" x2="39.8223" y2="21.463" gradientUnits="userSpaceOnUse">
<stop stop-color="#FFC671"/>
<stop offset="1" stop-color="#FF6F3D"/>
</linearGradient>
<linearGradient id="paint1_linear_125_6518" x1="95.6748" y1="103.522" x2="108.714" y2="117.884" gradientUnits="userSpaceOnUse">
<stop stop-color="#FFC671"/>
<stop offset="1" stop-color="#FF6F3D"/>
</linearGradient>
<linearGradient id="paint2_linear_125_6518" x1="60.9996" y1="19.8437" x2="61.6376" y2="27.7985" gradientUnits="userSpaceOnUse">
<stop stop-color="#FF8E3D"/>
<stop offset="1" stop-color="#FF6F3D"/>
</linearGradient>
<clipPath id="clip0_125_6518">
<rect width="150" height="150" fill="white"/>
</clipPath>
</defs>
</svg>
