<svg width="32" height="32" viewBox="0 0 32 32" fill="none" xmlns="http://www.w3.org/2000/svg">
<path d="M29.9822 2.02456C30.3065 2.35596 30.4934 2.80567 30.5 3.27867V28.8437C30.4663 29.2915 30.2706 29.7086 29.9538 30.0142C29.6343 30.3224 29.215 30.4947 28.7799 30.5H3.23024C2.7769 30.4933 2.34172 30.3064 2.01779 29.9754C1.69346 29.644 1.50659 29.1943 1.5 28.7213V3.27867C1.50659 2.80567 1.69346 2.35596 2.01779 2.02456C2.34172 1.69356 2.77691 1.50665 3.23026 1.5H28.7697C29.2231 1.50665 29.6583 1.69356 29.9822 2.02456Z" fill="#FEFEFE" stroke="#333333"/>
<path fill-rule="evenodd" clip-rule="evenodd" d="M25 6.53325V22.4563C25 22.8657 24.8414 23.2584 24.5592 23.5479C24.2769 23.8374 23.8941 24 23.4949 24C23.2978 24 23.1025 23.96 22.9205 23.8823C22.7385 23.8046 22.5732 23.6907 22.4343 23.5472C22.2953 23.4038 22.1854 23.2335 22.1109 23.0463C22.0364 22.859 21.9987 22.6585 22 22.4563V6.53325C22 6.1266 22.1575 5.73662 22.4379 5.44908C22.7182 5.16154 23.0985 5 23.4949 5C23.8923 4.99999 24.2736 5.16119 24.5556 5.44844C24.8376 5.73568 24.9973 6.12565 25 6.53325ZM20 14.5332V22.4563C20 22.8657 19.8414 23.2584 19.5592 23.5479C19.2769 23.8374 18.8941 24 18.4949 24C18.2978 24 18.1025 23.96 17.9205 23.8823C17.7385 23.8046 17.5732 23.6907 17.4343 23.5472C17.2953 23.4038 17.1854 23.2335 17.1109 23.0463C17.0364 22.859 16.9987 22.6585 17 22.4563V14.5332C17 14.1266 17.1575 13.7366 17.4379 13.4491C17.7182 13.1615 18.0985 13 18.4949 13C18.8923 13 19.2736 13.1612 19.5556 13.4484C19.8376 13.7357 19.9973 14.1256 20 14.5332ZM10 22.4563V19.5332C9.99731 19.1256 9.83756 18.7357 9.5556 18.4484C9.27363 18.1612 8.89235 18 8.49493 18C8.09846 18 7.71823 18.1615 7.43788 18.4491C7.15753 18.7366 7.00003 19.1266 7.00003 19.5332V22.4563C6.99869 22.6585 7.03637 22.859 7.1109 23.0463C7.18542 23.2335 7.29532 23.4038 7.43427 23.5472C7.57322 23.6907 7.73847 23.8046 7.9205 23.8823C8.10254 23.96 8.29776 24 8.49493 24C8.8941 24 9.27692 23.8374 9.55918 23.5479C9.84143 23.2584 10 22.8657 10 22.4563ZM15 16.9948V22.4563C15 22.8657 14.8414 23.2584 14.5592 23.5479C14.2769 23.8374 13.8941 24 13.4949 24C13.2978 24 13.1025 23.96 12.9205 23.8823C12.7385 23.8046 12.5732 23.6907 12.4343 23.5472C12.2953 23.4038 12.1854 23.2335 12.1109 23.0463C12.0364 22.859 11.9987 22.6585 12 22.4563V11.5332C12 11.1266 12.1575 10.7366 12.4379 10.4491C12.7182 10.1615 13.0985 10 13.4949 10C13.8923 9.99999 14.2736 10.1612 14.5556 10.4484C14.8376 10.7357 14.9973 11.1256 15 11.5332V16.9948Z" fill="url(#paint0_linear_125_5072)"/>
<path fill-rule="evenodd" clip-rule="evenodd" d="M6.49993 26.002H10.5145C11.1599 26.002 11.1638 26.9992 10.5145 26.9992H6.48913C5.8101 26.9992 5.86093 26.002 6.49993 26.002Z" fill="#333333"/>
<path fill-rule="evenodd" clip-rule="evenodd" d="M12.4996 26.002H20.5148C21.1598 26.002 21.1637 26.9992 20.5148 26.9992H12.4888C11.8102 26.9992 11.861 26.002 12.4996 26.002Z" fill="#333333"/>
<path fill-rule="evenodd" clip-rule="evenodd" d="M22.4999 26.002H26.5145C27.1599 26.002 27.1638 26.9992 26.5145 26.9992H22.4891C21.8101 26.9992 21.8609 26.002 22.4999 26.002Z" fill="#333333"/>
<defs>
<linearGradient id="paint0_linear_125_5072" x1="7.00003" y1="4.25781" x2="26.0116" y2="22.9724" gradientUnits="userSpaceOnUse">
<stop stop-color="#FFC671"/>
<stop offset="0.59375" stop-color="#FF7541"/>
<stop offset="1" stop-color="#FF6F3D"/>
</linearGradient>
</defs>
</svg>
