<svg width="32" height="32" viewBox="0 0 32 32" fill="none" xmlns="http://www.w3.org/2000/svg">
<path d="M3.99951 6.5H6.49951V27.4697C6.49951 28.5847 5.54385 29.5 4.535 29.5C3.56793 29.5 2.49951 28.7853 2.49951 27.4697V8C2.49951 7.62125 2.68643 7.24538 2.99312 6.95409C3.30339 6.65941 3.6853 6.5 3.99951 6.5Z" fill="#E0E0E0" stroke="#333333"/>
<path d="M5.60712 29.5014C5.85858 29.121 6.02984 28.6306 6.02984 28.0301V3.98929C6.02984 3.09846 6.69152 2.50146 7.55239 2.50146H28.9967C29.7623 2.50146 30.5 3.20768 30.5 3.96749V27.4102C30.5 28.589 29.7077 29.5014 28.6461 29.5014H5.60712Z" fill="#FEFEFE" stroke="#333333" stroke-linejoin="round"/>
<path d="M26.1452 13.5H10.8538C10.087 13.5 9.49951 14.1291 9.49951 14.8777V24.1223C9.49951 24.8747 10.1007 25.5 10.8538 25.5H26.1452C26.912 25.5 27.4995 24.8709 27.4995 24.1223V14.8777C27.4995 14.1253 26.8984 13.5 26.1452 13.5Z" fill="#BDECFF" stroke="#333333"/>
<path d="M11.6283 24.6651C11.4959 24.8118 11.4624 25.0226 11.5426 25.2031C11.6229 25.3837 11.8019 25.5 11.9995 25.5H19.9995H23.9995H25.9429C26.2537 25.5 26.5339 25.4531 26.773 25.3364C27.023 25.2144 27.1989 25.0302 27.3119 24.8107C27.4189 24.603 27.4611 24.3805 27.4806 24.1837C27.4995 23.9918 27.4995 23.7885 27.4995 23.6081V23.5957V21.3567C27.4995 21.2243 27.447 21.0973 27.3535 21.0035L24.0046 17.6469C23.9041 17.5462 23.7655 17.493 23.6235 17.5007C23.4815 17.5084 23.3495 17.5763 23.2605 17.6872L19.4354 22.4574L16.5934 19.9061C16.3883 19.7219 16.0728 19.7385 15.8881 19.9432L11.6283 24.6651Z" fill="white" stroke="#333333" stroke-linejoin="round"/>
<path fill-rule="evenodd" clip-rule="evenodd" d="M12.4995 18C13.3267 18 13.9995 17.3239 13.9995 16.5C13.9995 15.6761 13.3267 15 12.4995 15C11.6723 15 10.9995 15.6761 10.9995 16.5C10.9995 17.3239 11.6723 18 12.4995 18Z" fill="url(#paint0_linear_125_5039)"/>
<path fill-rule="evenodd" clip-rule="evenodd" d="M12.6447 10.9995C12.6078 10.9995 12.571 11.0151 12.5342 11.0151H12.3133C12.2397 11.0151 12.1783 11.0151 12.1293 10.9995C12.0802 10.9839 12.0311 10.9683 11.982 10.9214C11.9329 10.8901 11.8838 10.8433 11.8347 10.7808C11.7857 10.7183 11.7366 10.6401 11.6875 10.5308L10.129 7.73389C10.0431 7.59326 9.96946 7.43701 9.88355 7.28076C9.79765 7.12451 9.72402 6.96826 9.65039 6.81201H9.63812C9.63812 6.99951 9.65039 7.18701 9.65039 7.37451C9.65039 7.56201 9.65039 7.74951 9.65039 7.93701V10.9058C9.65039 10.9214 9.65039 10.937 9.63812 10.9526C9.62585 10.9683 9.60131 10.9839 9.57676 10.9839C9.55222 10.9995 9.51541 10.9995 9.47859 10.9995C9.42951 10.9995 9.38042 11.0151 9.31906 11.0151C9.2577 11.0151 9.19634 11.0151 9.15953 10.9995C9.11044 10.9995 9.0859 10.9839 9.06136 10.9839C9.03681 10.9683 9.01227 10.9683 9.01227 10.9526C9 10.937 9 10.9214 9 10.9058V6.37451C9 6.28076 9.02454 6.20264 9.0859 6.15576C9.14726 6.10889 9.20862 6.09326 9.28225 6.09326H9.61358C9.68721 6.09326 9.76084 6.09326 9.80993 6.10889C9.85901 6.12451 9.9081 6.14014 9.95718 6.17139C9.994 6.20264 10.0431 6.23389 10.0799 6.29639C10.1167 6.34326 10.1658 6.40576 10.2026 6.49951L11.3807 8.64014C11.4543 8.76514 11.5279 8.90576 11.5893 9.03076C11.6629 9.15576 11.7243 9.28076 11.7857 9.40576C11.847 9.53076 11.9084 9.64014 11.9697 9.76514C12.0311 9.87451 12.0924 9.99951 12.1538 10.1245C12.1538 9.92139 12.1415 9.71826 12.1415 9.49951C12.1415 9.28076 12.1415 9.07764 12.1415 8.87451V6.20264C12.1415 6.18701 12.1415 6.17139 12.1538 6.15576C12.1661 6.14014 12.1906 6.12451 12.2152 6.10889C12.2397 6.09326 12.2765 6.09326 12.3133 6.07764C12.3624 6.07764 12.4115 6.06201 12.4851 6.06201C12.5465 6.06201 12.5956 6.06201 12.6447 6.07764C12.6938 6.07764 12.7183 6.09326 12.7428 6.10889C12.7674 6.12451 12.7919 6.14014 12.7919 6.15576C12.8042 6.17139 12.8042 6.18701 12.8042 6.20264V10.7339C12.8042 10.9019 12.7135 10.9703 12.6447 10.9995ZM17.0134 10.7339C17.0134 10.7808 17.0134 10.8276 17.0011 10.8589C17.0011 10.8901 16.9888 10.9214 16.9765 10.937C16.9643 10.9526 16.952 10.9683 16.9275 10.9839C16.9152 10.9995 16.8906 10.9995 16.8661 10.9995H14.424C14.3627 10.9995 14.3013 10.9839 14.2522 10.937C14.2032 10.8901 14.1663 10.8276 14.1663 10.7339V6.35889C14.1663 6.26514 14.1909 6.18701 14.2522 6.15576C14.3013 6.12451 14.3627 6.09326 14.424 6.09326H16.8416C16.8661 6.09326 16.8784 6.09326 16.9029 6.10889C16.9152 6.12451 16.9275 6.14014 16.9397 6.15576C16.952 6.17139 16.9643 6.20264 16.9643 6.23389C16.9765 6.26514 16.9765 6.31201 16.9765 6.35889C16.9765 6.40576 16.9765 6.43701 16.9643 6.48389C16.9643 6.51514 16.9643 6.54639 16.952 6.56201C16.9397 6.57764 16.9275 6.59326 16.9152 6.60889C16.9029 6.62451 16.8784 6.62451 16.8538 6.62451H14.8658V8.17139H16.5716C16.5961 8.17139 16.6084 8.17139 16.6329 8.18701C16.6452 8.20264 16.6575 8.21826 16.6697 8.23389C16.682 8.24951 16.6943 8.28076 16.6943 8.31201C16.6943 8.34326 16.7066 8.39014 16.7066 8.43701C16.7066 8.48389 16.7066 8.51514 16.6943 8.56201C16.6943 8.59326 16.682 8.62451 16.6697 8.64014C16.6575 8.65576 16.6452 8.67139 16.6329 8.68701C16.6084 8.70264 16.5838 8.70264 16.5716 8.70264H14.8658V10.4683H16.8784C16.9029 10.4683 16.9152 10.4683 16.9397 10.4839C16.952 10.4995 16.9765 10.5151 16.9888 10.5308C17.0011 10.5464 17.0134 10.5776 17.0134 10.6089C17.0134 10.6401 17.0134 10.687 17.0134 10.7339ZM22.9774 10.8589C22.9651 10.8901 22.9528 10.9214 22.9283 10.937C22.9037 10.9526 22.8792 10.9683 22.8424 10.9839C22.8055 10.9995 22.7565 10.9995 22.7074 11.0151C22.6583 11.0151 22.5847 11.0308 22.511 11.0308C22.4251 11.0308 22.3638 11.0308 22.3024 11.0151C22.2411 11.0151 22.2042 10.9995 22.1674 10.9839C22.1306 10.9683 22.1061 10.9526 22.0815 10.937C22.057 10.9214 22.0447 10.8901 22.0324 10.8589L20.9771 7.14014H20.9648L19.9831 10.8589C19.9831 10.8901 19.9708 10.9214 19.9463 10.9526C19.9217 10.9683 19.8972 10.9839 19.8726 10.9995C19.8358 11.0151 19.799 11.0151 19.7376 11.0308C19.6886 11.0308 19.6149 11.0464 19.529 11.0464C19.4431 11.0464 19.3695 11.0464 19.3081 11.0308C19.2468 11.0308 19.1977 11.0151 19.1732 10.9995C19.1363 10.9839 19.1118 10.9683 19.0873 10.9526C19.0627 10.937 19.0504 10.9058 19.0504 10.8745L17.7128 6.32764C17.7006 6.26514 17.6883 6.21826 17.6883 6.18701C17.6883 6.15576 17.7006 6.12451 17.7251 6.10889C17.7496 6.09326 17.7865 6.07764 17.8356 6.07764C17.8846 6.07764 17.9583 6.06201 18.0319 6.06201C18.1178 6.06201 18.1792 6.06201 18.2282 6.06201C18.2773 6.06201 18.3141 6.07764 18.3387 6.07764C18.3632 6.09326 18.3755 6.10889 18.3878 6.12451C18.4 6.14014 18.4 6.17139 18.4123 6.18701L19.5536 10.312L20.6335 6.20264C20.6457 6.17139 20.6457 6.15576 20.658 6.14014C20.6703 6.12451 20.6948 6.10889 20.7194 6.09326C20.7439 6.07764 20.7807 6.07764 20.8298 6.07764C20.8789 6.07764 20.9403 6.06201 21.0139 6.06201C21.0875 6.06201 21.1489 6.06201 21.1857 6.07764C21.2348 6.07764 21.2593 6.09326 21.2961 6.09326C21.3207 6.10889 21.3452 6.12451 21.3575 6.14014C21.3698 6.15576 21.382 6.18701 21.382 6.20264L22.5478 10.312H22.5601L23.6768 6.20264C23.6891 6.17139 23.6891 6.15576 23.7014 6.14014C23.7136 6.12451 23.7259 6.10889 23.7505 6.09326C23.775 6.07764 23.8118 6.07764 23.8609 6.07764C23.91 6.07764 23.9713 6.06201 24.045 6.06201C24.1186 6.06201 24.18 6.06201 24.2291 6.07764C24.2781 6.07764 24.3027 6.09326 24.3272 6.10889C24.3518 6.12451 24.364 6.15576 24.3518 6.18701C24.3518 6.21826 24.3395 6.26514 24.3272 6.32764L22.9774 10.8589ZM27.9719 9.62451C27.9719 9.85889 27.9228 10.062 27.8369 10.2339C27.751 10.4058 27.6283 10.562 27.4688 10.687C27.3092 10.812 27.1251 10.9058 26.9165 10.9683C26.7079 11.0308 26.4748 11.062 26.2293 11.062C26.0575 11.062 25.898 11.0464 25.7507 11.0151C25.6157 10.9995 25.493 10.9683 25.3703 10.9214C25.2599 10.8745 25.1617 10.8433 25.0881 10.7964C25.0144 10.7495 24.9531 10.7183 24.9285 10.687C24.8917 10.6558 24.8794 10.6245 24.8549 10.5776C24.8426 10.5308 24.8304 10.4683 24.8304 10.3901C24.8304 10.3276 24.8304 10.2808 24.8426 10.2495C24.8426 10.2183 24.8549 10.187 24.8672 10.1558C24.8794 10.1401 24.8917 10.1245 24.904 10.1089C24.9163 10.0933 24.9408 10.0933 24.9531 10.0933C24.9899 10.0933 25.039 10.1089 25.1126 10.1558C25.174 10.2026 25.2599 10.2495 25.3703 10.2964C25.4808 10.3433 25.6035 10.3901 25.7507 10.437C25.898 10.4839 26.0698 10.4995 26.2661 10.4995C26.4134 10.4995 26.5484 10.4839 26.6711 10.437C26.7938 10.4058 26.892 10.3433 26.9902 10.2808C27.0761 10.2183 27.1497 10.1245 27.1988 10.0308C27.2479 9.93701 27.2724 9.81201 27.2724 9.68701C27.2724 9.54639 27.2356 9.42139 27.1742 9.32764C27.1129 9.23389 27.027 9.14014 26.9165 9.06201C26.8061 8.98389 26.6834 8.92139 26.5484 8.85889C26.4134 8.79639 26.2661 8.73389 26.1312 8.67139C25.9839 8.60889 25.8489 8.53076 25.7139 8.45264C25.5789 8.37451 25.4562 8.28076 25.3458 8.17139C25.2353 8.06201 25.1494 7.93701 25.0881 7.79639C25.0267 7.65576 24.9899 7.48389 24.9899 7.28076C24.9899 7.07764 25.0267 6.89014 25.1003 6.73389C25.174 6.57764 25.2844 6.43701 25.4194 6.32764C25.5544 6.21826 25.7262 6.14014 25.9103 6.07764C26.1066 6.01514 26.303 5.99951 26.5238 5.99951C26.6343 5.99951 26.7447 6.01514 26.8674 6.03076C26.9779 6.04639 27.0883 6.07764 27.1865 6.10889C27.2847 6.14014 27.3829 6.17139 27.4565 6.21826C27.5301 6.24951 27.5915 6.29639 27.616 6.31201C27.6406 6.34326 27.6528 6.35889 27.6651 6.37451C27.6774 6.39014 27.6774 6.40576 27.6896 6.42139C27.6896 6.43701 27.7019 6.46826 27.7019 6.49951C27.7019 6.53076 27.7019 6.56201 27.7019 6.62451C27.7019 6.67139 27.7019 6.70264 27.7019 6.74951C27.7019 6.78076 27.6896 6.81201 27.6774 6.84326C27.6651 6.85889 27.6528 6.89014 27.6406 6.89014C27.6283 6.90576 27.6037 6.90576 27.5915 6.90576C27.5669 6.90576 27.5178 6.89014 27.4565 6.85889C27.3951 6.82764 27.3215 6.78076 27.2356 6.73389C27.1497 6.68701 27.0392 6.65576 26.9165 6.60889C26.7938 6.57764 26.6588 6.54639 26.5116 6.54639C26.3766 6.54639 26.2416 6.56201 26.1434 6.59326C26.033 6.62451 25.9471 6.67139 25.8857 6.73389C25.8244 6.79639 25.763 6.85889 25.7385 6.95264C25.7016 7.03076 25.6894 7.12451 25.6894 7.21826C25.6894 7.35889 25.7262 7.46826 25.7875 7.57764C25.8489 7.67139 25.9348 7.76514 26.0452 7.84326C26.1557 7.92139 26.2784 7.98389 26.4134 8.04639C26.5484 8.10889 26.6956 8.17139 26.8429 8.23389C26.9902 8.29639 27.1252 8.37451 27.2724 8.45264C27.4074 8.53076 27.5301 8.62451 27.6406 8.73389C27.751 8.84326 27.8369 8.96826 27.8983 9.10889C27.9351 9.26514 27.9719 9.42139 27.9719 9.62451Z" fill="#333333"/>
<defs>
<linearGradient id="paint0_linear_125_5039" x1="10.9995" y1="14.8828" x2="13.9995" y2="18" gradientUnits="userSpaceOnUse">
<stop stop-color="#FF8E3D"/>
<stop offset="1" stop-color="#FF6F3D"/>
</linearGradient>
</defs>
</svg>
