<svg width="32" height="32" viewBox="0 0 32 32" fill="none" xmlns="http://www.w3.org/2000/svg">
<path fill-rule="evenodd" clip-rule="evenodd" d="M29 2.96497C29 1.95837 27.9484 1 27.0096 1L11.8597 1L5 8.21633V27.8809C5 28.799 6.10397 30.0001 7.04274 30.0001H27.0986C28.0374 30.0001 29 29.171 29 28.2529V2.96497Z" fill="#FEFEFE"/>
<path fill-rule="evenodd" clip-rule="evenodd" d="M11.7837 1L27.0098 1.01187C28.1579 1.01207 29 1.92812 29 3.00101V27.9783C29 28.5532 28.8495 30.0767 28.4728 30.4545C28.0958 30.8326 27.5708 30.9859 26.9888 30.9859V29.9869C27.4049 29.9869 27.6356 29.8789 27.7648 29.7494C27.8943 29.6195 28.0005 28.389 28.0005 27.9783V3.00101C28.0005 2.45678 27.5834 2.01083 27.0098 2.01083L12.1977 1.99928L5.99951 8.20105V27.8928C5.99951 28.5014 6.50679 30.001 7.20301 30.001H16.9883V31H7.20301C6.02259 31 5 29.1186 5 27.8928V7.78759L11.7837 1Z" fill="#333333"/>
<path fill-rule="evenodd" clip-rule="evenodd" d="M10.3428 8C11.3429 8 12 7.43134 12 6.46291L12 2L6 8H10.3428Z" fill="url(#paint0_linear_125_5052)"/>
<path fill-rule="evenodd" clip-rule="evenodd" d="M13 1.99805V6.36413C13 7.83622 11.802 8.99805 10.3472 8.99805H6V7.99842H10.3472C11.2655 7.99842 12.0022 7.26969 12.0022 6.36413V1.99805H13Z" fill="#333333"/>
<path d="M22.8639 29.6175L22.5043 29.2451L22.1446 29.6175C21.5557 30.2271 21.084 30.6759 20.7096 30.9872C20.3829 31.2588 20.16 31.4 20.0195 31.4628C20.0059 31.3794 19.9984 31.2657 20.0003 31.1167C20.0082 30.509 20.1638 29.5762 20.3644 28.3745C20.37 28.341 20.3756 28.3072 20.3813 28.2733C20.5489 27.2684 20.7394 26.1097 20.8769 24.8771C21.3682 25.1325 21.9187 25.2735 22.5043 25.2735C23.0806 25.2735 23.6236 25.1368 24.106 24.8923C24.2464 26.1187 24.4396 27.2729 24.6098 28.2747C24.6158 28.3103 24.6218 28.3456 24.6278 28.3807C24.8311 29.5774 24.9892 30.5078 24.9995 31.1149C25.002 31.2625 24.9951 31.3756 24.9822 31.459C24.8422 31.3957 24.6212 31.2551 24.2983 30.9866C23.9243 30.6757 23.4528 30.2271 22.8639 29.6175Z" fill="#BDECFF" stroke="#333333"/>
<path fill-rule="evenodd" clip-rule="evenodd" d="M13.5217 9L24.5508 9.00003C25.1875 9.00003 25.1108 10 24.5508 10L13.5214 10C12.8098 10 12.8427 9 13.5217 9Z" fill="#333333"/>
<path fill-rule="evenodd" clip-rule="evenodd" d="M8.52171 12L23.5508 12C24.1875 12 24.1108 13 23.5508 13L8.52138 13C7.80984 13 7.84266 12 8.52171 12Z" fill="#333333"/>
<path fill-rule="evenodd" clip-rule="evenodd" d="M8.52171 15L24.5508 15C25.1875 15 25.1108 16 24.5508 16L8.52138 16C7.80984 16 7.84266 15 8.52171 15Z" fill="#333333"/>
<path d="M22.5 19.5C24.1581 19.5 25.5 20.8419 25.5 22.5C25.5 24.1581 24.1581 25.5 22.5 25.5C20.8419 25.5 19.5 24.1581 19.5 22.5C19.5 20.8419 20.8419 19.5 22.5 19.5Z" fill="url(#paint1_linear_125_5052)" stroke="#333333"/>
<path fill-rule="evenodd" clip-rule="evenodd" d="M16.4734 5H23.5311C24.1578 5 24.1578 6 23.5223 6H16.4734C15.8622 6 15.8225 5 16.4734 5Z" fill="url(#paint2_linear_125_5052)"/>
<path fill-rule="evenodd" clip-rule="evenodd" d="M10.2918 22.2285C10.5719 21.6217 10.9687 20.7114 10.922 20.0812C10.8986 19.6844 10.6186 19.4277 9.91835 19.4977C9.59158 19.521 9.28815 19.6144 9.05475 19.7778C8.82134 19.9178 8.63462 20.1046 8.51791 20.338C8.40121 20.5714 8.35453 20.8281 8.37787 21.1082C8.40121 21.3883 8.51791 21.7151 8.70464 22.0418C8.77466 22.1585 8.93804 22.3452 9.12477 22.602C9.56824 23.1388 10.1751 23.9091 10.5485 24.6326C10.9453 24.4226 11.1787 24.1425 11.3421 23.9791C11.5055 23.7924 11.5989 23.6757 11.7856 23.769C11.9957 23.8857 12.019 24.3059 12.0423 24.726C12.0657 25.0527 12.0657 25.4029 12.089 25.4262C12.1124 25.4495 12.2757 25.1928 12.6492 24.3992C12.6258 24.3058 12.6492 24.2125 12.6725 24.0958C12.7192 23.9557 12.7892 23.8157 12.8592 23.7223C13.116 23.3722 13.3494 23.3489 13.3261 23.839C13.3261 23.9091 13.2794 24.0491 13.186 24.2592L13.1393 24.3992C13.2094 24.3525 13.3727 24.1191 13.5595 23.8624C13.8162 23.4889 14.073 23.0221 14.213 22.7654C14.5164 20.5947 14.9599 18.4007 15.6134 18.0739C15.8935 17.9339 16.0569 18.0039 16.1736 18.1906C16.477 18.7975 15.0299 21.9951 14.7498 22.6253L14.6331 22.8821C14.5631 23.4656 14.4931 24.0491 14.4231 24.5859C14.5631 24.4225 14.7265 24.2825 14.9132 24.1891C15.1233 24.0724 15.3567 23.9791 15.5668 23.8624C16.5004 23.4189 16.7805 23.1388 17.504 22.4853C17.2006 23.6523 16.8271 23.7223 15.7301 24.2358C15.5201 24.3292 15.31 24.4226 15.0999 24.5393C14.7965 24.7026 14.5631 25.0061 14.3764 25.3562L14.3297 25.4495L14.283 25.963C14.1897 26.9433 14.1196 27.5969 13.8862 27.5969C13.7228 27.5969 13.6295 27.2934 13.6295 26.5699C13.6295 26.1964 13.7462 25.753 13.9329 25.3328C13.9796 24.866 14.0496 24.3525 14.0963 23.8157C14.0496 23.9091 13.9796 24.0024 13.9329 24.0724C13.6061 24.5393 13.2794 24.8894 12.9993 24.7727C12.5091 25.6829 12.2057 25.9163 11.9723 25.823C11.7156 25.7063 11.6922 25.2395 11.6922 24.7727L11.6689 24.3058C11.4822 24.4926 11.2254 24.7727 10.7819 25.0061C10.992 25.5662 11.0153 26.0564 10.6419 26.4298C10.1518 26.92 9.47487 26.9433 8.96138 26.7566C8.70464 26.6632 8.49457 26.4999 8.37787 26.3131C8.23783 26.1031 8.19115 25.8463 8.33119 25.6129C8.49457 25.3328 8.9147 25.0761 9.73162 24.936C9.91835 24.9127 10.0817 24.866 10.2451 24.796C9.895 24.1191 9.28815 23.3722 8.86802 22.8587C8.65796 22.602 8.47123 22.3919 8.40121 22.2519C8.16781 21.8551 8.02776 21.4816 8.00442 21.1315C7.98108 20.7581 8.0511 20.4313 8.19115 20.1279C8.35453 19.8245 8.58794 19.5911 8.86802 19.4043C9.17145 19.2176 9.52156 19.1009 9.91835 19.0776C10.9453 18.9842 11.3188 19.4277 11.3888 20.0345C11.4822 21.1315 10.922 22.2285 10.1051 22.8821L10.2918 22.2285ZM10.2918 26.1497C10.5252 25.9397 10.5019 25.5896 10.3618 25.1928C10.1751 25.2628 9.96502 25.3095 9.75496 25.3562C9.07808 25.4729 8.75132 25.6596 8.65796 25.8463C8.61128 25.9397 8.63462 26.0097 8.6813 26.1031C8.75132 26.2198 8.89136 26.3131 9.07809 26.3832C9.42819 26.5232 9.91835 26.4999 10.2918 26.1497ZM11.5989 24.1658C11.5522 24.1425 11.5755 24.1658 11.5989 24.1891V24.1658ZM14.8199 21.3649C15.31 20.2446 15.9402 18.6574 15.7768 18.354C15.7535 18.3307 15.8002 18.4007 15.7768 18.424C15.4034 18.6341 15.0766 19.8712 14.8199 21.3649Z" fill="#333333"/>
<defs>
<linearGradient id="paint0_linear_125_5052" x1="6.00001" y1="1.76562" x2="12" y2="8" gradientUnits="userSpaceOnUse">
<stop stop-color="#FF8E3D"/>
<stop offset="1" stop-color="#FF6F3D"/>
</linearGradient>
<linearGradient id="paint1_linear_125_5052" x1="18.8971" y1="18.5273" x2="23.045" y2="23.0961" gradientUnits="userSpaceOnUse">
<stop stop-color="#FFC671"/>
<stop offset="1" stop-color="#FF6F3D"/>
</linearGradient>
<linearGradient id="paint2_linear_125_5052" x1="17.182" y1="1.58289" x2="21.2576" y2="5.13825" gradientUnits="userSpaceOnUse">
<stop stop-color="#FFC671"/>
<stop offset="1" stop-color="#FF6F3D"/>
</linearGradient>
</defs>
</svg>
