<svg width="32" height="32" viewBox="0 0 32 32" fill="none" xmlns="http://www.w3.org/2000/svg">
<g clip-path="url(#clip0_125_5020)">
<path fill-rule="evenodd" clip-rule="evenodd" d="M25.0005 12V19C26.7597 19 28.0005 17.38 28.0005 15.4946C28.0005 13.6093 26.6548 12 25.0005 12Z" fill="#333333"/>
<path fill-rule="evenodd" clip-rule="evenodd" d="M29.5161 15H31.5208C31.7861 15 32.0043 15.266 32.0043 15.4998C32.0043 15.7337 31.7861 16 31.5208 16H29.5161C29.2184 16 29.0005 15.778 29.0005 15.5C29.0005 15.2169 29.2138 15 29.5161 15Z" fill="#333333"/>
<path fill-rule="evenodd" clip-rule="evenodd" d="M28.3646 12.8444L29.7821 11.4269C29.9697 11.2393 30.3121 11.273 30.4775 11.4384C30.6428 11.6037 30.6768 11.9464 30.4892 12.134L29.0717 13.5515C28.8612 13.762 28.5501 13.7591 28.3536 13.5625C28.1533 13.3623 28.1509 13.0581 28.3646 12.8444Z" fill="#333333"/>
<path fill-rule="evenodd" clip-rule="evenodd" d="M28.3646 18.1556L29.7821 19.5731C29.9697 19.7607 30.3121 19.727 30.4775 19.5616C30.6428 19.3963 30.6768 19.0536 30.4892 18.866L29.0717 17.4485C28.8612 17.238 28.5501 17.2409 28.3536 17.4375C28.1533 17.6377 28.1509 17.9419 28.3646 18.1556Z" fill="#333333"/>
<path fill-rule="evenodd" clip-rule="evenodd" d="M12.9707 23.143C12.3695 24.1127 11.0216 24.5976 9.66402 24.2485C8.18039 23.8606 7.19129 22.6097 7.32705 21.3491L6.03736 21C5.74645 22.8715 7.1816 24.7818 9.4022 25.3636C11.5743 25.9261 13.7271 25.0145 14.4252 23.2885L13.0968 22.9297C13.058 22.9782 13.0192 23.0655 12.9707 23.143Z" fill="#333333"/>
<path d="M3.50049 18.3602V12.6398L20.5005 8.6316V22.3684L3.50049 18.3602Z" fill="url(#paint0_linear_125_5020)" stroke="#333333"/>
<path d="M23.5005 7.36981C23.5005 6.85153 23.3665 6.39277 23.1014 6.05137C22.831 5.70315 22.4386 5.5 22.0005 5.5C21.5612 5.5 21.1666 5.7016 20.895 6.05137C20.6292 6.39368 20.4972 6.85328 20.5006 7.37149V23.6446C20.5006 24.1629 20.6346 24.6198 20.9019 24.9588C21.1749 25.3048 21.5676 25.5 22.0005 25.5C22.4334 25.5 22.8262 25.3048 23.0991 24.9588C23.3665 24.6198 23.5005 24.1629 23.5005 23.6446V7.36981Z" fill="#BDECFF" stroke="#333333"/>
<path d="M2.50049 10.5H2.15266C1.80101 10.5 1.63718 10.7822 1.58813 10.891C1.524 11.0333 1.50049 11.1923 1.50049 11.3376V19.6913C1.50049 19.8294 1.52368 19.9805 1.58487 20.1162C1.6282 20.2124 1.78724 20.5 2.13962 20.5H2.50049C2.7318 20.5 2.91427 20.3923 3.03788 20.2753C3.1593 20.1603 3.2465 20.0175 3.30904 19.8787C3.4347 19.5999 3.50049 19.2498 3.50049 18.8907V12.1093C3.50049 11.7502 3.4347 11.4001 3.30904 11.1213C3.2465 10.9825 3.1593 10.8397 3.03788 10.7247C2.91427 10.6077 2.7318 10.5 2.50049 10.5Z" fill="#BDECFF" stroke="#333333"/>
</g>
<defs>
<linearGradient id="paint0_linear_125_5020" x1="3.00052" y1="7.41406" x2="17.6534" y2="25.6844" gradientUnits="userSpaceOnUse">
<stop stop-color="#FF8E3D"/>
<stop offset="1" stop-color="#FF6F3D"/>
</linearGradient>
<clipPath id="clip0_125_5020">
<rect width="32" height="32" fill="white"/>
</clipPath>
</defs>
</svg>
