<svg width="100" height="100" viewBox="0 0 100 100" fill="none" xmlns="http://www.w3.org/2000/svg">
<g clip-path="url(#clip0_1_4399)">
<path fill-rule="evenodd" clip-rule="evenodd" d="M32 70.3346V93.6628C32 96.3192 34.1243 98.5 36.7314 98.5H93.7717C96.37 98.5 98.5031 96.3282 98.5031 93.6628V36.2051V17.5976C98.5031 14.9322 96.9024 13.0033 93.7717 13.0033H48.3976L32 30.2641V70.3346Z" fill="#EFEFEF"/>
<path fill-rule="evenodd" clip-rule="evenodd" d="M55.0274 29H73.4474V25.8565C73.4474 24.9324 74.7541 24.5389 75.4474 25.1517C77.9279 27.3696 80.4084 29.5875 82.8889 31.7956C87.9866 36.3578 88.6604 35.1613 83.1135 39.9959C80.5353 42.243 78.164 44.3224 75.6152 46.6084C74.9218 47.231 73.4351 47.3585 73.4351 45.1515V43H55.0274C53.3672 43 52 41.4842 52 39.8208V32.1555C52.0098 30.5116 53.3672 29 55.0274 29Z" fill="url(#paint0_linear_1_4399)"/>
<path fill-rule="evenodd" clip-rule="evenodd" d="M74.4474 30H55.0274C53.9811 30 53.0084 31.0006 53 32.1588V39.8208C53 40.9953 53.9807 42 55.0274 42H74.4351V45.1515C74.4351 45.6007 74.5121 45.834 74.5653 45.9361C74.5854 45.9749 74.6008 45.9935 74.6091 46.0014C74.6199 46.0033 74.6546 46.0066 74.7173 45.9894C74.8013 45.9664 74.8868 45.9184 74.9471 45.8643C77.5011 43.5737 79.877 41.4903 82.4564 39.2421C82.8297 38.9168 83.1702 38.6226 83.4804 38.3545C84.3503 37.6029 84.9818 37.0572 85.4273 36.6105C85.8672 36.1693 85.9703 35.9671 85.9936 35.9096C85.9803 35.8824 85.9497 35.8296 85.8831 35.7466C85.7502 35.5812 85.5353 35.3703 85.1972 35.0753C84.9808 34.8865 84.6969 34.6503 84.3645 34.3737C83.7698 33.8788 83.0198 33.2548 82.2233 32.5419C79.7439 30.3348 77.2647 28.118 74.7864 25.9022L74.7852 25.901C74.7848 25.9007 74.7845 25.9004 74.7841 25.9001C74.7695 25.8875 74.74 25.8696 74.6859 25.861C74.6279 25.8518 74.5612 25.8573 74.5026 25.8768C74.4778 25.885 74.4598 25.8939 74.4474 25.9012V30ZM75.4474 25.1517C74.7541 24.5389 73.4474 24.9324 73.4474 25.8565V29H55.0274C53.3672 29 52.0098 30.5116 52 32.1555V39.8208C52 41.4842 53.3672 43 55.0274 43H73.4351V45.1515C73.4351 47.3585 74.9218 47.231 75.6152 46.6084C78.164 44.3224 80.5353 42.243 83.1135 39.9959C85.8183 37.6384 87.044 36.715 86.9988 35.8587C86.9513 34.9589 85.5008 34.1332 82.8889 31.7956C80.41 29.5889 77.931 27.3724 75.4521 25.1559L75.4474 25.1517ZM74.616 46.0065C74.6159 46.0068 74.6141 46.0059 74.6107 46.0029C74.6143 46.0047 74.616 46.0062 74.616 46.0065Z" fill="#333333"/>
<path d="M99 27.9697C99 27.565 98.8364 27.1774 98.5465 26.895L84.2006 12.9253C83.9205 12.6526 83.5451 12.5 83.1541 12.5H74.7027C73.3282 12.5 72.6639 14.1992 73.6911 15.1247C80.7404 21.4763 92.1902 32.2384 96.472 36.2739C97.4327 37.1794 99 36.4899 99 35.1785V27.9697Z" fill="#BDECFF" stroke="#333333"/>
<path fill-rule="evenodd" clip-rule="evenodd" d="M41.0049 52.5C41.0049 52.2239 41.2287 52 41.5049 52H58.5037C58.7799 52 59.0037 52.2239 59.0037 52.5C59.0037 52.7761 58.7799 53 58.5037 53H41.5049C41.2287 53 41.0049 52.7761 41.0049 52.5ZM72.5003 52.5C72.5003 52.2239 72.7241 52 73.0003 52H87.5036C87.7798 52 88.0036 52.2239 88.0036 52.5C88.0036 52.7761 87.7798 53 87.5036 53H73.0003C72.7241 53 72.5003 52.7761 72.5003 52.5ZM73.0001 61C72.724 61 72.5001 61.2239 72.5001 61.5C72.5001 61.7761 72.724 62 73.0001 62H87.503C87.7791 62 88.003 61.7761 88.003 61.5C88.003 61.2239 87.7791 61 87.503 61H73.0001ZM41.5049 70C41.2287 70 41.0049 70.2239 41.0049 70.5C41.0049 70.7761 41.2287 71 41.5049 71H57.5042C57.7804 71 58.0042 70.7761 58.0042 70.5C58.0042 70.2239 57.7804 70 57.5042 70H41.5049ZM72.9521 70C72.676 70 72.4521 70.2239 72.4521 70.5C72.4521 70.7761 72.676 71 72.9521 71H87.5031C87.7792 71 88.0031 70.7761 88.0031 70.5C88.0031 70.2239 87.7792 70 87.5031 70H72.9521ZM68.0041 80.5C68.0041 80.2239 67.7802 80 67.5041 80H41.5052C41.229 80 41.0052 80.2239 41.0052 80.5C41.0052 80.7761 41.229 81 41.5052 81H67.5041C67.7802 81 68.0041 80.7761 68.0041 80.5ZM88.0004 80.5C88.0004 80.2239 87.7765 80 87.5004 80H72.9305C72.6543 80 72.4305 80.2239 72.4305 80.5C72.4305 80.7761 72.6543 81 72.9305 81H87.5004C87.7765 81 88.0004 80.7761 88.0004 80.5Z" fill="#333333"/>
<path d="M89 12.5H94.0002C96.7616 12.5 99.0002 14.7386 99.0002 17.5V22M32.4971 89.9513V93.5C32.4971 96.2614 34.7356 98.5 37.4971 98.5H94.0002C96.7616 98.5 99.0002 96.2614 99.0002 93.5V40.677" stroke="#333333" stroke-linecap="round"/>
<mask id="path-7-outside-1_1_4399" maskUnits="userSpaceOnUse" x="31.9932" y="13.5" width="18" height="18" fill="black">
<rect fill="white" x="31.9932" y="13.5" width="18" height="18"/>
<path fill-rule="evenodd" clip-rule="evenodd" d="M45.8745 30.5C47.5314 30.5 48.8745 29.1569 48.8745 27.5V14.5L32.9932 30.5H45.8745Z"/>
</mask>
<path fill-rule="evenodd" clip-rule="evenodd" d="M45.8745 30.5C47.5314 30.5 48.8745 29.1569 48.8745 27.5V14.5L32.9932 30.5H45.8745Z" fill="#BDECFF"/>
<path d="M48.8745 14.5H49.8745C49.8745 14.0949 49.6301 13.7298 49.2555 13.5754C48.8809 13.4211 48.4502 13.508 48.1648 13.7955L48.8745 14.5ZM32.9932 30.5L32.2834 29.7955C31.999 30.0821 31.9148 30.5116 32.07 30.8844C32.2252 31.2572 32.5894 31.5 32.9932 31.5V30.5ZM49.8745 27.5V14.5H47.8745V27.5H49.8745ZM48.1648 13.7955L32.2834 29.7955L33.7029 31.2045L49.5842 15.2045L48.1648 13.7955ZM32.9932 31.5H45.8745V29.5H32.9932V31.5ZM47.8745 27.5C47.8745 28.6046 46.9791 29.5 45.8745 29.5V31.5C48.0837 31.5 49.8745 29.7091 49.8745 27.5H47.8745Z" fill="#333333" mask="url(#path-7-outside-1_1_4399)"/>
<path fill-rule="evenodd" clip-rule="evenodd" d="M0 57.2662V80.0616C0 82.7736 2.25003 85 5.01143 85H62.647C67.7179 85 67.6584 79.985 67.6584 76.3235V25.1802V6.93839C67.6584 4.2264 65.4084 2 62.647 2H17.4613L0 19.603V57.2662Z" fill="#FEFEFE"/>
<path d="M68.1565 48V80.5C68.1565 83.2614 65.9179 85.5 63.1565 85.5H5.49805C2.73662 85.5 0.498047 83.2614 0.498047 80.5V57.7662V20.103L17.9593 2.5L63.1565 2.5001C65.9179 2.5001 68.1565 4.73867 68.1565 7.50009V23.2501" stroke="#333333" stroke-linecap="round" stroke-linejoin="round"/>
<path d="M18.4092 3C18.4092 2.79754 18.2871 2.61506 18.1 2.53782C17.9129 2.46058 17.6976 2.50382 17.5548 2.64734L0.640186 19.6473C0.49771 19.7905 0.455393 20.0054 0.53293 20.1919C0.610468 20.3785 0.792627 20.5 0.994629 20.5H14.9092C16.8422 20.5 18.4092 18.933 18.4092 17V3Z" fill="url(#paint1_linear_1_4399)" stroke="#333333" stroke-linejoin="round"/>
<path fill-rule="evenodd" clip-rule="evenodd" d="M9.48389 29.5C9.48389 29.2239 9.70774 29 9.98389 29H56.2214C56.4976 29 56.7214 29.2239 56.7214 29.5C56.7214 29.7761 56.4976 30 56.2214 30H9.98389C9.70774 30 9.48389 29.7761 9.48389 29.5ZM9.96037 39C9.68423 39 9.46037 39.2239 9.46037 39.5C9.46037 39.7761 9.68423 40 9.96037 40H37.471C37.7471 40 37.971 39.7761 37.971 39.5C37.971 39.2239 37.7471 39 37.471 39H9.96037ZM42.5454 39C42.2692 39 42.0454 39.2239 42.0454 39.5C42.0454 39.7761 42.2692 40 42.5454 40H56.2014C56.4775 40 56.7014 39.7761 56.7014 39.5C56.7014 39.2239 56.4775 39 56.2014 39H42.5454ZM9.45752 48C9.18138 48 8.95752 48.2239 8.95752 48.5C8.95752 48.7761 9.18138 49 9.45752 49H55.6983C55.9744 49 56.1983 48.7761 56.1983 48.5C56.1983 48.2239 55.9744 48 55.6983 48H9.45752ZM9.95559 57C9.67945 57 9.45559 57.2239 9.45559 57.5C9.45559 57.7761 9.67945 58 9.95559 58H25.0366C25.3128 58 25.5366 57.7761 25.5366 57.5C25.5366 57.2239 25.3128 57 25.0366 57H9.95559ZM29.6783 57C29.4021 57 29.1783 57.2239 29.1783 57.5C29.1783 57.7761 29.4021 58 29.6783 58H55.2001C55.4762 58 55.7001 57.7761 55.7001 57.5C55.7001 57.2239 55.4762 57 55.2001 57H29.6783ZM35.9733 67.5C35.9733 67.2239 35.7494 67 35.4733 67H9.95577C9.67963 67 9.45577 67.2239 9.45577 67.5C9.45577 67.7761 9.67963 68 9.95577 68H35.4733C35.7494 68 35.9733 67.7761 35.9733 67.5ZM55.6912 67.5C55.6912 67.2239 55.4673 67 55.1912 67H40.1126C39.8365 67 39.6126 67.2239 39.6126 67.5C39.6126 67.7761 39.8365 68 40.1126 68H55.1912C55.4673 68 55.6912 67.7761 55.6912 67.5Z" fill="#333333"/>
<path d="M30 18L56 18" stroke="url(#paint2_linear_1_4399)" stroke-width="2" stroke-linecap="round"/>
</g>
<defs>
<linearGradient id="paint0_linear_1_4399" x1="44.3936" y1="23.1053" x2="76.7688" y2="40.456" gradientUnits="userSpaceOnUse">
<stop stop-color="#FFC671"/>
<stop offset="1" stop-color="#FF6F3D"/>
</linearGradient>
<linearGradient id="paint1_linear_1_4399" x1="6.79379" y1="8.39474" x2="13.4038" y2="15.5123" gradientUnits="userSpaceOnUse">
<stop stop-color="#FFC671"/>
<stop offset="1" stop-color="#FF6F3D"/>
</linearGradient>
<linearGradient id="paint2_linear_1_4399" x1="30.0001" y1="18" x2="56" y2="18" gradientUnits="userSpaceOnUse">
<stop stop-color="#FF8E3D"/>
<stop offset="1" stop-color="#FF6F3D"/>
</linearGradient>
<clipPath id="clip0_1_4399">
<rect width="100" height="100" fill="white"/>
</clipPath>
</defs>
</svg>
