<svg version="1.1" xmlns="http://www.w3.org/2000/svg" width="16" height="16" viewBox="0 0 16 16">
<path fill="#83888d" d="M13 10.51v-1.51c0.44-0.213 0.787-0.56 0.995-0.987l0.005-0.013v-3c-0.261-1.038-1.104-1.824-2.154-1.998l-0.016-0.002h-0.67c-0.249 0.014-0.477 0.087-0.677 0.204l0.007-0.004v4.3c-0.042 0.57-0.417 1.043-0.93 1.227l-0.010 0.003c0.12 0.125 0.272 0.219 0.443 0.268l0.007 0.002v1c1.12 0.51 3.5 2 3.5 2.57v1.43h2.5v-1c0-0.84-3-2.49-3-2.49z"></path>
<path fill="#83888d" d="M9 10v-1.5c0.459-0.185 0.815-0.541 0.996-0.988l0.004-0.012v-3c0-1-1-2.5-2-2.5h-2c-1 0-2 1.5-2 2.5v3c0.185 0.459 0.541 0.815 0.988 0.996l0.012 0.004v1.5s-4 2-4 3v1h12v-1c0-1-4-3-4-3z"></path>
</svg>
