<svg version="1.1" xmlns="http://www.w3.org/2000/svg" width="16" height="16" viewBox="0 0 16 16">
<path fill="#83888d" d="M10.25 7.25h-1.5v-2.25c0-0.414-0.336-0.75-0.75-0.75s-0.75 0.336-0.75 0.75v0 3c0 0.414 0.336 0.75 0.75 0.75v0h2.25c0.414 0 0.75-0.336 0.75-0.75s-0.336-0.75-0.75-0.75v0z"></path>
<path fill="#83888d" d="M8 1c-3.866 0-7 3.134-7 7s3.134 7 7 7c3.866 0 7-3.134 7-7v0c0-3.866-3.134-7-7-7v0zM8 13c-2.761 0-5-2.239-5-5s2.239-5 5-5c2.761 0 5 2.239 5 5v0c0 2.761-2.239 5-5 5v0z"></path>
</svg>
