<svg version="1.1" xmlns="http://www.w3.org/2000/svg" width="16" height="16" viewBox="0 0 16 16">
<path fill="#83888d" d="M12.17 3v0.25c0.028-0.002 0.060-0.004 0.093-0.004 0.232 0 0.448 0.065 0.633 0.177l-0.005-0.003c0.117 0.1 0.19 0.247 0.19 0.411 0 0.007-0 0.013-0 0.019l0-0.001c-0.001 0.146-0.019 0.287-0.053 0.422l0.003-0.012c-0.099 0.34-0.197 0.616-0.31 0.884l0.020-0.054-1.5 3.91-1.66-4.31c-0.127-0.287-0.231-0.622-0.296-0.971l-0.004-0.029c-0-0.001-0-0.002-0-0.003 0-0.093 0.030-0.178 0.081-0.248l-0.001 0.001c0.054-0.075 0.129-0.131 0.217-0.159l0.003-0.001c0.176-0.045 0.377-0.071 0.585-0.071 0.030 0 0.060 0.001 0.089 0.002l-0.004-0v-0.21h-4.43v0.25c0.025-0.002 0.055-0.002 0.084-0.002 0.201 0 0.392 0.041 0.565 0.116l-0.009-0.004c0.164 0.090 0.296 0.219 0.387 0.375l0.003 0.005c0.168 0.297 0.33 0.646 0.464 1.010l0.016 0.050 0.38 1-1.44 3.45-1.79-4.44c-0.151-0.313-0.266-0.676-0.327-1.057l-0.003-0.023c-0-0.001-0-0.003-0-0.005 0-0.132 0.062-0.249 0.159-0.324l0.001-0.001c0.158-0.090 0.347-0.144 0.549-0.144 0.032 0 0.064 0.001 0.095 0.004l-0.004-0v-0.26h-3.95v0.25c0.243 0.004 0.46 0.111 0.609 0.279l0.001 0.001c0.233 0.387 0.449 0.835 0.622 1.305l0.018 0.055 3 7.46h0.25l2.5-5.89 2.26 5.89h0.26l2.86-7.54q0.38-1 0.42-1c0.074-0.15 0.179-0.274 0.307-0.368l0.003-0.002c0.122-0.081 0.269-0.132 0.428-0.14l0.002-0v-0.3z"></path>
</svg>
