<svg width="150" height="150" viewBox="0 0 150 150" fill="none" xmlns="http://www.w3.org/2000/svg">
<g clip-path="url(#clip0_125_10199)">
<path fill-rule="evenodd" clip-rule="evenodd" d="M147 117.138C115.186 114.029 74 116.963 74 130H140.296C142.072 129.995 143.774 129.306 145.03 128.085C146.287 126.864 146.995 125.209 147 123.482V117.138Z" fill="#BDECFF"/>
<path fill-rule="evenodd" clip-rule="evenodd" d="M74 130C74 129.66 74.028 129.327 74.0832 129C76.1431 116.814 116.016 114.111 147 117.138V123.482C146.995 125.209 146.287 126.864 145.03 128.085C143.774 129.306 142.072 129.995 140.296 130H74ZM140.294 129C141.815 128.995 143.266 128.406 144.333 127.368C145.399 126.332 145.995 124.934 146 123.481C146 123.48 146 123.479 146 123.479L146 118.047C130.366 116.584 112.615 116.581 98.7068 118.505C91.6085 119.487 85.5828 120.961 81.3597 122.957C77.628 124.721 75.5676 126.755 75.1021 129H140.294Z" fill="#333333"/>
<path fill-rule="evenodd" clip-rule="evenodd" d="M74 129C74 116.894 33.378 114.17 2 117.057V122.947C2.0052 124.551 2.70356 126.088 3.94254 127.222C5.18153 128.356 6.86046 128.995 8.61265 129H74Z" fill="#BDECFF"/>
<path fill-rule="evenodd" clip-rule="evenodd" d="M75 130H8.60994C6.62056 129.995 4.69855 129.27 3.26736 127.96C1.83325 126.647 1.00616 124.848 1.00001 122.95L1 122.947L1.00001 116.145L1.9084 116.061C17.6508 114.613 35.7273 114.569 49.8959 116.415C56.9703 117.336 63.1401 118.737 67.5691 120.707C71.9209 122.644 75 125.326 75 129V130ZM2.00001 122.947V117.057C32.4948 114.251 71.7206 116.745 73.9046 128C73.9678 128.326 74 128.659 74 129H8.61265C6.86047 128.995 5.18153 128.356 3.94255 127.222C2.70356 126.088 2.0052 124.551 2.00001 122.947Z" fill="#333333"/>
<path fill-rule="evenodd" clip-rule="evenodd" d="M14.8114 22.0291H6.93151C4.46575 22.0291 2 24.5 2 28.5V77.652V116.821C33.378 113.636 74 116.642 74 130V36.1638C74 21.9594 33.654 21.8599 14.8114 22.0291Z" fill="white"/>
<path fill-rule="evenodd" clip-rule="evenodd" d="M2 28.5001C2 24.5001 4.46575 22.0292 6.93151 22.0292H14.8114C33.654 21.8599 74 21.9595 74 36.1638V130C74 128.766 73.6536 127.621 73 126.561C66.6511 116.261 31.3187 113.983 3 116.722C2.66567 116.754 2.33232 116.787 2 116.821V28.5001ZM73 130H74H75V36.1638C75 32.037 72.0427 29.1063 67.8427 27.0416C63.6233 24.9674 57.8668 23.6108 51.6132 22.7165C39.0884 20.9253 24.2226 20.9446 14.8069 21.0292H6.93151C3.74438 21.0292 1 24.1336 1 28.5001V117.928L2.10099 117.816C17.7312 116.229 35.6468 116.188 49.6245 118.197C56.6232 119.202 62.5614 120.712 66.7218 122.755C70.9249 124.819 73 127.256 73 130Z" fill="#333333"/>
<path fill-rule="evenodd" clip-rule="evenodd" d="M75 36.1864V130C75 116.645 115.622 113.64 147 116.824V28.7824C146.995 27.013 146.296 25.3176 145.057 24.0665C143.818 22.8153 142.14 22.1101 140.387 22.1049C129.084 22.1049 75 19.8558 75 36.1864Z" fill="white"/>
<path fill-rule="evenodd" clip-rule="evenodd" d="M148 117.931L146.899 117.819C131.269 116.233 113.353 116.191 99.3755 118.2C92.3768 119.205 86.4386 120.715 82.2781 122.757C78.0749 124.82 76 127.256 76 130H75C75 128.767 75.3464 127.622 76 126.562C82.3489 116.264 117.681 113.986 146 116.725C146.334 116.757 146.668 116.79 147 116.824V28.7825C146.995 27.0131 146.296 25.3177 145.057 24.0666C143.818 22.8155 142.14 22.1102 140.387 22.105C139.409 22.105 138.11 22.0881 136.553 22.068C120.126 21.8549 75 21.2695 75 36.1865V130H74V36.1865C74 31.4337 77.9508 28.277 83.2578 26.1675C88.6375 24.0292 95.8635 22.7687 103.356 22.0267C115.77 20.7972 129.163 20.9715 136.588 21.0681C138.134 21.0882 139.422 21.105 140.387 21.105H140.39C142.41 21.1111 144.343 21.9239 145.768 23.3629C147.193 24.8016 147.994 26.7491 148 28.7796L148 28.7825L148 117.931Z" fill="#333333"/>
<path fill-rule="evenodd" clip-rule="evenodd" d="M18.0693 69.4072H23.4733V73.0132L20.7713 74.8112L18.0693 73.0132V69.4072Z" fill="white"/>
<path d="M20.7716 70.3109C23.7562 70.3109 26.1756 67.8914 26.1756 64.9069C26.1756 61.9224 23.7562 59.5029 20.7716 59.5029C17.7871 59.5029 15.3677 61.9224 15.3677 64.9069C15.3677 67.8914 17.7871 70.3109 20.7716 70.3109Z" fill="white"/>
<path fill-rule="evenodd" clip-rule="evenodd" d="M34 69.4945C34.0026 69.3623 34.0515 69.2366 34.1362 69.1442C34.2209 69.0517 34.3348 69 34.4533 69H58.5467C58.6652 69 58.7791 69.0517 58.8638 69.1442C58.9485 69.2366 58.9974 69.3623 59 69.4945C58.9975 69.6277 58.9489 69.7546 58.8644 69.8488C58.78 69.943 58.6661 69.9972 58.5467 70H34.4533C34.3339 69.9972 34.22 69.943 34.1355 69.8488C34.0511 69.7546 34.0025 69.6277 34 69.4945V69.4945Z" fill="#333333"/>
<path fill-rule="evenodd" clip-rule="evenodd" d="M34 73.5054C34.0026 73.3704 34.0535 73.2418 34.1416 73.1473C34.2298 73.0529 34.3483 73 34.4716 73H53.5384C53.66 73.0028 53.7759 73.057 53.862 73.1511C53.948 73.2453 53.9974 73.3723 54 73.5054C53.9974 73.6376 53.9476 73.7633 53.8613 73.8557C53.775 73.9482 53.6591 73.9999 53.5384 73.9999H34.4716C34.411 74.0013 34.3507 73.9897 34.2942 73.9656C34.2377 73.9416 34.1861 73.9056 34.1423 73.8596C34.0985 73.8137 34.0634 73.7588 34.0389 73.698C34.0145 73.6373 34.0013 73.5718 34 73.5054V73.5054Z" fill="#333333"/>
<path fill-rule="evenodd" clip-rule="evenodd" d="M18.3938 75.1954C16.2007 75.558 14.4175 76.398 13 77.461C14.9056 79.6244 17.7873 81 21.0167 81C24.2261 81 27.0944 79.6369 29 77.4985C27.5892 76.4293 25.9715 75.5705 23.7784 75.1954C22.9049 75.0462 20.5251 74.8428 18.3938 75.1954Z" fill="#BDECFF"/>
<path fill-rule="evenodd" clip-rule="evenodd" d="M13.8055 76.8911C15.0753 76.1012 16.5935 75.4904 18.3838 75.1954C20.5227 74.8427 22.911 75.0462 23.7876 75.1954C25.5734 75.4997 26.979 76.1225 28.2021 76.9178C28.4864 77.1026 28.7608 77.2968 29.0279 77.4985C28.8039 77.749 28.5666 77.9889 28.317 78.2171C26.4364 79.9376 23.8596 81 21.0161 81C18.1525 81 15.5613 79.9261 13.6776 78.1837C13.4294 77.9541 13.1934 77.7129 12.9708 77.461C13.2361 77.2627 13.5143 77.0722 13.8055 76.8911ZM18.2201 74.2088C20.4985 73.8331 23.0036 74.0475 23.9566 74.2096L23.9569 74.2097C26.3475 74.6172 28.1176 75.5563 29.6341 76.7015L30.5 77.3555L29.7771 78.1638C27.6743 80.5152 24.5231 82 21.0161 82C17.488 82 14.3212 80.5017 12.2177 78.1219L11.5 77.31L12.3687 76.6609C13.9149 75.5056 15.8538 74.5987 18.22 74.2088" fill="#333333"/>
<path fill-rule="evenodd" clip-rule="evenodd" d="M23 74.6V71C22.3333 71.3 21.7219 71.6 21 71.6C20.2781 71.6 19.5989 71.2519 19 71V74.6L21 77L23 74.6Z" fill="white"/>
<path fill-rule="evenodd" clip-rule="evenodd" d="M24 74.9455L21 78L18 74.9455V70.0334L19.3308 70.5084C19.4349 70.5456 19.534 70.5817 19.6289 70.6164C20.1674 70.813 20.5704 70.9602 21 70.9602C21.4864 70.9602 21.9025 70.8011 22.5753 70.544C22.5995 70.5348 22.624 70.5254 22.6489 70.5159L24 70V74.9455ZM20 71.8176C20.3209 71.9111 20.6556 71.9783 21 71.9783C21.3533 71.9783 21.6802 71.9174 22 71.8252C22.2901 71.7417 22.5744 71.6325 22.8674 71.52C22.9114 71.5032 22.9556 71.4862 23 71.4692V74.5237L21 76.5601L19 74.5237V71.4692C19.0857 71.4998 19.173 71.5321 19.2619 71.5649C19.4978 71.652 19.7445 71.7431 20 71.8176Z" fill="#333333"/>
<circle cx="21" cy="67.5" r="4.5" fill="white" stroke="#333333"/>
<path fill-rule="evenodd" clip-rule="evenodd" d="M21.176 64.9955C22.0363 66.4504 24.0643 68.1338 25.4777 67.9331C25.4944 67.7882 25.5 67.6433 25.5 67.4928C25.5 65.0123 23.4833 63 20.9972 63C18.2969 63 16.2623 65.405 16.5224 68C17.8799 67.9833 20.1034 67.0747 21.176 64.9955Z" fill="#AAAAAA" stroke="#333333"/>
<path fill-rule="evenodd" clip-rule="evenodd" d="M34 94.4945C34.0026 94.3623 34.0515 94.2366 34.1362 94.1442C34.2209 94.0517 34.3348 94 34.4533 94H58.5467C58.6652 94 58.7791 94.0517 58.8638 94.1442C58.9485 94.2366 58.9974 94.3623 59 94.4945C58.9975 94.6277 58.9489 94.7546 58.8644 94.8488C58.78 94.943 58.6661 94.9972 58.5467 95H34.4533C34.3339 94.9972 34.22 94.943 34.1355 94.8488C34.0511 94.7546 34.0025 94.6277 34 94.4945V94.4945Z" fill="#333333"/>
<path fill-rule="evenodd" clip-rule="evenodd" d="M34 98.5054C34.0026 98.3704 34.0535 98.2418 34.1416 98.1473C34.2298 98.0529 34.3483 98 34.4716 98H53.5384C53.66 98.0028 53.7759 98.057 53.862 98.1511C53.948 98.2453 53.9974 98.3723 54 98.5054C53.9974 98.6376 53.9476 98.7633 53.8613 98.8557C53.775 98.9482 53.6591 98.9999 53.5384 98.9999H34.4716C34.411 99.0013 34.3507 98.9897 34.2942 98.9656C34.2377 98.9416 34.1861 98.9056 34.1423 98.8596C34.0985 98.8137 34.0634 98.7588 34.0389 98.698C34.0145 98.6373 34.0013 98.5718 34 98.5054V98.5054Z" fill="#333333"/>
<path fill-rule="evenodd" clip-rule="evenodd" d="M18.3938 100.195C16.2007 100.558 14.4175 101.398 13 102.461C14.9056 104.624 17.7873 106 21.0167 106C24.2261 106 27.0944 104.637 29 102.499C27.5892 101.429 25.9715 100.571 23.7784 100.195C22.9049 100.046 20.5251 99.8428 18.3938 100.195Z" fill="url(#paint0_linear_125_10199)"/>
<path fill-rule="evenodd" clip-rule="evenodd" d="M13.8055 101.891C15.0753 101.101 16.5935 100.49 18.3838 100.195C20.5227 99.8427 22.911 100.046 23.7876 100.195C25.5734 100.5 26.979 101.123 28.2021 101.918C28.4864 102.103 28.7608 102.297 29.0279 102.498C28.8039 102.749 28.5666 102.989 28.317 103.217C26.4364 104.938 23.8596 106 21.0161 106C18.1525 106 15.5613 104.926 13.6776 103.184C13.4294 102.954 13.1934 102.713 12.9708 102.461C13.2361 102.263 13.5143 102.072 13.8055 101.891ZM18.2201 99.2088C20.4985 98.8331 23.0036 99.0475 23.9566 99.2096L23.9569 99.2097C26.3475 99.6172 28.1176 100.556 29.6341 101.702L30.5 102.355L29.7771 103.164C27.6743 105.515 24.5231 107 21.0161 107C17.488 107 14.3212 105.502 12.2177 103.122L11.5 102.31L12.3687 101.661C13.9149 100.506 15.8538 99.5987 18.22 99.2088" fill="#333333"/>
<path d="M23.3536 99.8536L23.5 99.7071V99.5V96.5V95.7785L22.8244 96.0318C22.7868 96.0459 22.7497 96.0599 22.7131 96.0737C22.076 96.3133 21.5796 96.5 21 96.5C20.4764 96.5 19.9818 96.3216 19.4459 96.1283C19.3537 96.0951 19.2604 96.0614 19.1654 96.0281L18.5 95.7949V96.5V99.5V99.7071L18.6464 99.8536L20.6464 101.854L21 102.207L21.3536 101.854L23.3536 99.8536Z" fill="white" stroke="#333333"/>
<circle cx="20.8545" cy="92.5" r="4.5" fill="white" stroke="#333333"/>
<path fill-rule="evenodd" clip-rule="evenodd" d="M21.0337 89.9955C21.8936 91.4504 23.9203 93.1338 25.3329 92.9331C25.6302 90.3609 23.4695 88 20.855 88C18.1563 88 16.1228 90.405 16.3828 93C17.7395 92.9833 19.9617 92.0747 21.0337 89.9955Z" fill="#AAAAAA" stroke="#333333"/>
<path fill-rule="evenodd" clip-rule="evenodd" d="M107 69.4945C107.003 69.3623 107.051 69.2366 107.136 69.1442C107.221 69.0517 107.335 69 107.453 69H131.547C131.665 69 131.779 69.0517 131.864 69.1442C131.949 69.2366 131.997 69.3623 132 69.4945C131.997 69.6277 131.949 69.7546 131.864 69.8488C131.78 69.943 131.666 69.9972 131.547 70H107.453C107.334 69.9972 107.22 69.943 107.136 69.8488C107.051 69.7546 107.003 69.6277 107 69.4945V69.4945Z" fill="#333333"/>
<path fill-rule="evenodd" clip-rule="evenodd" d="M107 73.5054C107.003 73.3704 107.053 73.2418 107.142 73.1473C107.23 73.0529 107.348 73 107.472 73H126.538C126.66 73.0028 126.776 73.057 126.862 73.1511C126.948 73.2453 126.997 73.3723 127 73.5054C126.997 73.6376 126.948 73.7633 126.861 73.8557C126.775 73.9482 126.659 73.9999 126.538 73.9999H107.472C107.411 74.0013 107.351 73.9897 107.294 73.9656C107.238 73.9416 107.186 73.9056 107.142 73.8596C107.098 73.8137 107.063 73.7588 107.039 73.698C107.015 73.6373 107.001 73.5718 107 73.5054V73.5054Z" fill="#333333"/>
<path d="M85.7 77.061L85.2672 77.3855L85.6248 77.7915C87.6256 80.0631 90.6442 81.5 94.0167 81.5C97.3687 81.5 100.373 80.0761 102.373 77.8311L102.733 77.427L102.302 77.1C100.841 75.9928 99.1503 75.0939 96.8627 74.7025L96.8626 74.7025C95.951 74.5468 93.513 74.338 91.3122 74.7021C89.0368 75.0783 87.1791 75.9518 85.7 77.061Z" fill="url(#paint1_linear_125_10199)" stroke="#333333"/>
<path d="M96.3536 74.8536L96.5 74.7071V74.5V71.5V70.7785L95.8244 71.0318C95.7868 71.0459 95.7497 71.0599 95.7131 71.0737C95.076 71.3133 94.5796 71.5 94 71.5C93.4764 71.5 92.9818 71.3216 92.4459 71.1283C92.3537 71.0951 92.2604 71.0614 92.1654 71.0281L91.5 70.7949V71.5V74.5V74.7071L91.6464 74.8536L93.6464 76.8536L94 77.2071L94.3536 76.8536L96.3536 74.8536Z" fill="white" stroke="#333333"/>
<circle cx="93.8545" cy="67.5" r="4.5" fill="white" stroke="#333333"/>
<path fill-rule="evenodd" clip-rule="evenodd" d="M94.0332 64.9955C94.893 66.4504 96.9196 68.1338 98.3322 67.9331C98.3489 67.7882 98.3545 67.6433 98.3545 67.4928C98.3545 65.0123 96.339 63 93.8545 63C91.37 63 89.3545 65.0123 89.3545 67.4928C89.3545 67.6655 89.3657 67.8328 89.3824 68C90.7391 67.9833 92.9612 67.0747 94.0332 64.9955Z" fill="#AAAAAA" stroke="#333333"/>
<path fill-rule="evenodd" clip-rule="evenodd" d="M120.507 141.999C136.809 141.999 149.72 126.494 146.506 110.322C144.438 99.9179 136.087 91.563 125.685 89.4912C109.697 86.3069 94.0062 98.9915 94 115.48C94.0216 129.912 106.077 141.972 120.507 141.999Z" fill="url(#paint2_linear_125_10199)"/>
<path fill-rule="evenodd" clip-rule="evenodd" d="M120.507 143.999H120.504C104.971 143.97 92.0233 131.017 92 115.483L92 115.48C92.0067 97.7204 108.86 84.1015 126.075 87.5302C137.271 89.76 146.242 98.7352 148.468 109.932C151.93 127.351 138.06 143.999 120.507 143.999ZM146.506 110.322C149.72 126.494 136.809 141.999 120.507 141.999C106.077 141.972 94.0216 129.912 94 115.48C94.0062 98.9919 109.697 86.3074 125.685 89.4916C136.087 91.5635 144.438 99.9184 146.506 110.322Z" fill="#333333"/>
<path d="M120.499 141.5H120.5C125.642 141.5 130.668 139.975 134.944 137.119C139.219 134.262 142.552 130.202 144.52 125.452C146.488 120.702 147.004 115.474 146.001 110.431C144.999 105.388 142.523 100.755 138.888 97.1187C135.253 93.4821 130.621 91.0051 125.578 90.0008C120.535 88.9965 115.308 89.51 110.557 91.4763C105.806 93.4427 101.745 96.7737 98.8865 101.048C96.0284 105.322 94.5019 110.348 94.5 115.49L94.5 115.491C94.5103 122.384 97.2525 128.992 102.126 133.867C106.999 138.742 113.606 141.487 120.499 141.5ZM95 115.49H94.9995H95Z" stroke="white"/>
<path fill-rule="evenodd" clip-rule="evenodd" d="M120 124.502C120 124.003 120 114.084 120 114.084L109.528 104.041C108.202 102.779 109.653 101.287 110.822 102.378L122.997 114.084L122.998 124.502C123.04 125.281 122.307 126.023 121.5 126C120.385 125.968 120 125.001 120 124.502Z" fill="white"/>
<path fill-rule="evenodd" clip-rule="evenodd" d="M121.992 94.0083V97.0241C121.992 98.3314 120.005 98.3192 120.005 97.0241V93.9839C119.991 93.8586 120.006 93.732 120.051 93.6124C120.095 93.4928 120.167 93.383 120.262 93.29C120.357 93.1971 120.474 93.1232 120.603 93.0733C120.733 93.0233 120.873 92.9983 121.014 93.0001C121.155 93.0018 121.294 93.0302 121.422 93.0833C121.55 93.1365 121.664 93.2132 121.756 93.3084C121.848 93.4037 121.917 93.5153 121.958 93.6359C121.998 93.7565 122.01 93.8835 121.992 94.0083Z" fill="white"/>
<path fill-rule="evenodd" clip-rule="evenodd" d="M121.992 134.008V137.024C121.992 138.331 120.005 138.319 120.005 137.024V133.984C119.991 133.859 120.006 133.732 120.051 133.612C120.095 133.493 120.167 133.383 120.262 133.29C120.357 133.197 120.474 133.123 120.603 133.073C120.733 133.023 120.873 132.998 121.014 133C121.155 133.002 121.294 133.03 121.422 133.083C121.55 133.136 121.664 133.213 121.756 133.308C121.848 133.404 121.917 133.515 121.958 133.636C121.998 133.757 122.01 133.883 121.992 134.008Z" fill="white"/>
<path fill-rule="evenodd" clip-rule="evenodd" d="M141.992 115.991L138.976 115.991C137.669 115.991 137.681 114.004 138.976 114.004L142.016 114.004C142.141 113.99 142.268 114.005 142.388 114.05C142.507 114.094 142.617 114.166 142.71 114.261C142.803 114.357 142.877 114.473 142.927 114.602C142.977 114.732 143.002 114.872 143 115.013C142.998 115.154 142.97 115.293 142.917 115.421C142.864 115.549 142.787 115.663 142.692 115.755C142.596 115.847 142.485 115.916 142.364 115.957C142.243 115.997 142.117 116.009 141.992 115.991Z" fill="white"/>
<path fill-rule="evenodd" clip-rule="evenodd" d="M101.992 115.991L98.9759 115.991C97.6686 115.991 97.6808 114.004 98.9759 114.004L102.016 114.004C102.141 113.99 102.268 114.005 102.388 114.05C102.507 114.094 102.617 114.166 102.71 114.261C102.803 114.357 102.877 114.473 102.927 114.602C102.977 114.732 103.002 114.872 103 115.013C102.998 115.154 102.97 115.293 102.917 115.421C102.864 115.549 102.787 115.663 102.692 115.755C102.596 115.847 102.485 115.916 102.364 115.957C102.243 115.997 102.117 116.009 101.992 115.991Z" fill="white"/>
<path fill-rule="evenodd" clip-rule="evenodd" d="M40.8304 20H19.2304H16V53H44V23.0103C44.0001 22.2201 43.6678 21.4615 43.0748 20.8983C42.4818 20.3351 41.6756 20.0124 40.8304 20Z" fill="#BDECFF"/>
<path fill-rule="evenodd" clip-rule="evenodd" d="M40.8377 19L40.8451 19.0001C41.9322 19.0161 42.9816 19.4306 43.7634 20.1732C44.5474 20.9178 45.0001 21.9353 45 23.0103C45 23.0104 45 23.0103 45 23.0103V54H15V19H40.8377ZM44 23.0103C44.0001 22.2201 43.6678 21.4615 43.0748 20.8983C42.4818 20.3351 41.6756 20.0124 40.8304 20H16V53H44V23.0103Z" fill="#333333"/>
<path fill-rule="evenodd" clip-rule="evenodd" d="M21.4196 43.5089L29.9895 43.5092L29.9895 45.7648C29.9895 46.5874 30.9145 47.3635 31.5016 46.8176C34.4519 44.0614 37.5452 41.6615 40.4593 38.8658C41.1802 38.095 41.1803 36.8919 40.4594 36.1806C37.641 33.3379 33.9214 30.2744 31.5018 28.1689C30.9147 27.6156 29.9895 28.5293 29.9895 29.3593L29.9895 31.4772L21.4196 31.4772C20.0091 31.4772 19 32.7795 19 33.8838L19 41.1028C19 42.3455 20.0091 43.5089 21.4196 43.5089Z" fill="white"/>
<path fill-rule="evenodd" clip-rule="evenodd" d="M21.4196 42.5062C20.6088 42.5062 20.0082 41.8355 20.0082 41.1028L20.0082 33.8838C20.0082 33.6169 20.141 33.2501 20.4231 32.945C20.6941 32.6518 21.0423 32.4798 21.4196 32.4798L30.9977 32.4798L30.9977 29.3593C30.9977 29.3322 31.007 29.2704 31.0477 29.1882C31.0574 29.1686 31.0678 29.15 31.0787 29.1325C31.5573 29.547 32.0769 29.9919 32.6234 30.4598C34.8717 32.3848 37.5742 34.6986 39.7414 36.8846L39.7493 36.8925C40.0531 37.1922 40.0961 37.7646 39.7365 38.1661C38.3089 39.5342 36.8341 40.81 35.335 42.0977C35.2309 42.1872 35.1266 42.2767 35.0222 42.3664C33.696 43.505 32.352 44.6589 31.0326 45.881C31.0041 45.8266 30.9977 45.7848 30.9977 45.7648L30.9977 42.5066L21.4196 42.5062ZM31.5016 46.8176C30.9145 47.3635 29.9895 46.5874 29.9895 45.7648L29.9895 43.5092L21.4196 43.5089C20.0091 43.5089 19 42.3455 19 41.1028L19 33.8838C19 32.7795 20.0091 31.4772 21.4196 31.4772L29.9895 31.4772L29.9895 29.3593C29.9895 28.5293 30.9147 27.6156 31.5018 28.1689C32.0331 28.6312 32.627 29.1397 33.2604 29.6819C35.5114 31.6091 38.2598 33.9621 40.4594 36.1806C41.1803 36.8919 41.1802 38.095 40.4593 38.8658C38.9023 40.3595 37.2942 41.7402 35.6841 43.1226C34.2806 44.3277 32.8756 45.534 31.5016 46.8176Z" fill="#333333"/>
<path fill-rule="evenodd" clip-rule="evenodd" d="M107.17 20H132V53H104V23.0103C104 22.2201 104.332 21.4615 104.925 20.8983C105.518 20.3351 106.324 20.0124 107.17 20Z" fill="#BDECFF"/>
<path fill-rule="evenodd" clip-rule="evenodd" d="M107.162 19L107.155 19.0001C106.068 19.0161 105.018 19.4306 104.237 20.1732C103.453 20.9178 103 21.9353 103 23.0103C103 23.0104 103 23.0103 103 23.0103V54H133V19H107.162ZM104 23.0103C104 22.2201 104.332 21.4615 104.925 20.8983C105.518 20.3351 106.324 20.0124 107.17 20H132V53H104V23.0103Z" fill="#333333"/>
<path fill-rule="evenodd" clip-rule="evenodd" d="M126.58 43.5089L118.01 43.5092L118.01 45.7648C118.01 46.5874 117.086 47.3635 116.498 46.8176C113.548 44.0614 110.455 41.6615 107.541 38.8658C106.82 38.095 106.82 36.8919 107.541 36.1806C110.359 33.3379 114.079 30.2744 116.498 28.1689C117.085 27.6156 118.01 28.5293 118.01 29.3593L118.01 31.4772L126.58 31.4772C127.991 31.4772 129 32.7795 129 33.8838L129 41.1028C129 42.3455 127.991 43.5089 126.58 43.5089Z" fill="white"/>
<path fill-rule="evenodd" clip-rule="evenodd" d="M126.58 42.5062C127.391 42.5062 127.992 41.8355 127.992 41.1028L127.992 33.8838C127.992 33.1677 127.294 32.4798 126.58 32.4798L117.002 32.4798L117.002 29.3593C117.002 29.2796 116.963 29.1992 116.921 29.1325C116.443 29.547 115.923 29.9919 115.377 30.4598C113.128 32.3848 110.426 34.6986 108.259 36.8846L108.251 36.8925C107.947 37.1922 107.904 37.7646 108.263 38.1661C111.064 40.8495 114.123 43.2462 116.967 45.881C116.996 45.8266 117.002 45.7848 117.002 45.7648L117.002 42.5066L126.58 42.5062ZM116.498 46.8176C117.086 47.3635 118.01 46.5874 118.01 45.7648L118.01 43.5092L126.58 43.5089C127.991 43.5089 129 42.3455 129 41.1028L129 33.8838C129 32.7795 127.991 31.4772 126.58 31.4772L118.01 31.4772L118.01 29.3593C118.01 28.5293 117.085 27.6156 116.498 28.1689C115.967 28.6312 115.373 29.1397 114.74 29.6819C112.489 31.6091 109.74 33.9621 107.541 36.1806C106.82 36.8919 106.82 38.095 107.541 38.8658C110.455 41.6615 113.548 44.0614 116.498 46.8176Z" fill="#333333"/>
</g>
<defs>
<linearGradient id="paint0_linear_125_10199" x1="13" y1="99.7656" x2="16.8346" y2="110.391" gradientUnits="userSpaceOnUse">
<stop stop-color="#FF8E3D"/>
<stop offset="1" stop-color="#FF6F3D"/>
</linearGradient>
<linearGradient id="paint1_linear_125_10199" x1="86" y1="74.7656" x2="89.8346" y2="85.3905" gradientUnits="userSpaceOnUse">
<stop stop-color="#FF8E3D"/>
<stop offset="1" stop-color="#FF6F3D"/>
</linearGradient>
<linearGradient id="paint2_linear_125_10199" x1="94.0001" y1="86.9287" x2="147" y2="141.999" gradientUnits="userSpaceOnUse">
<stop stop-color="#FFC671"/>
<stop offset="0.59375" stop-color="#FF7541"/>
<stop offset="1" stop-color="#FF6F3D"/>
</linearGradient>
<clipPath id="clip0_125_10199">
<rect width="150" height="150" fill="white"/>
</clipPath>
</defs>
</svg>
