<svg width="33" height="32" viewBox="0 0 33 32" fill="none" xmlns="http://www.w3.org/2000/svg">
<g clip-path="url(#clip0_2_2522)">
<path fill-rule="evenodd" clip-rule="evenodd" d="M17 31.0002C3.64394 25.5954 3.94212 9.02476 3.5 6.45976C12.4225 -0.795792 21.5855 -0.329494 30.347 6.97357C29.9048 9.53857 29.8947 25.7405 17 31.0002Z" fill="#FEFEFE"/>
<path d="M12.8575 12.5H20.1425C21.1331 12.5 22 13.3761 22 14.5037V20.4963C22 21.6239 21.1331 22.5 20.1425 22.5H12.8575C11.8669 22.5 11 21.6239 11 20.4963V14.5037C11 13.3761 11.8669 12.5 12.8575 12.5Z" fill="#BDECFF" stroke="#333333"/>
<path d="M19.9999 12.9999V11.051C19.9999 8.96235 18.5698 7.58154 16.5014 7.58154C14.433 7.58154 13.0752 9.1043 13.0752 10.8888V13.0002" stroke="#333333"/>
<path d="M16.3387 31.4733L16.5034 31.5294L16.6674 31.4711C23.7216 28.9646 27.0562 23.5079 28.621 18.4203C30.0602 13.7411 30.0178 9.32757 30.0024 7.72194C30.0011 7.58576 30 7.46978 30 7.37555V7.14787L29.8282 6.9984C25.5581 3.28173 20.9653 1.46527 16.3818 1.5005C11.7998 1.53572 7.28641 3.42094 3.17191 6.99822L2.99997 7.14771L2.99997 7.37555C2.99998 7.48388 2.99745 7.62804 2.99436 7.80483C2.96605 9.42242 2.88996 13.7709 4.26217 18.3799C5.78859 23.5069 9.12536 29.0158 16.3387 31.4733ZM16.5 4.53422C20.0865 4.53422 23.7021 5.97376 27.067 8.90579C27.0373 9.16524 27.011 9.49646 26.9813 9.87239C26.9788 9.90403 26.9763 9.93599 26.9737 9.96825C26.927 10.5568 26.8685 11.2803 26.7743 12.1021C26.5858 13.7461 26.2552 15.7743 25.5974 17.8606C24.2966 21.9857 21.7361 26.2861 16.5084 28.3348C6.82646 24.1995 6.25083 14.1993 6.01371 10.0799C5.98635 9.60456 5.96349 9.20754 5.93168 8.90686C9.29698 5.97411 12.9131 4.53422 16.5 4.53422Z" fill="url(#paint0_linear_2_2522)" stroke="#333333"/>
<path fill-rule="evenodd" clip-rule="evenodd" d="M17.475 20L16.9813 17.7493C17.2875 17.5918 17.5 17.2828 17.5 16.9329V16.9271C17.4938 16.414 17.05 16 16.5 16C15.95 16 15.5 16.414 15.5 16.9271V16.9329C15.5 17.2828 15.7062 17.5918 16.0187 17.7493L15.5125 20H16.4937H17.475Z" fill="#333333"/>
</g>
<defs>
<linearGradient id="paint0_linear_2_2522" x1="3.48345" y1="0.867187" x2="32.4338" y2="27.8604" gradientUnits="userSpaceOnUse">
<stop stop-color="#FF8E3D"/>
<stop offset="1" stop-color="#FF6F3D"/>
</linearGradient>
<clipPath id="clip0_2_2522">
<rect width="32" height="32" fill="white" transform="translate(0.5)"/>
</clipPath>
</defs>
</svg>
