<svg width="33" height="32" viewBox="0 0 33 32" fill="none" xmlns="http://www.w3.org/2000/svg">
<path d="M9.01228 16L9.01226 15.5H8.51228H5.51445C5.13164 15.5 4.61703 15.2602 4.27868 14.9174C4.11333 14.7499 4.03125 14.5983 4.00758 14.4927C3.98971 14.413 4.0008 14.3605 4.06024 14.2967C5.36658 12.9052 6.67546 11.5161 7.9847 10.1266L7.98481 10.1265C9.29398 8.73701 10.6035 7.34718 11.9106 5.95492C12.7536 5.05975 13.4564 4.25652 14.0296 3.60143C14.3616 3.2219 14.6502 2.89209 14.8973 2.62294C15.2505 2.23834 15.5314 1.96181 15.7754 1.7756C16.0177 1.59067 16.1905 1.52084 16.3272 1.50424C16.5891 1.47245 16.9587 1.61134 17.7203 2.33432C18.2666 2.85293 18.9347 3.58911 19.8306 4.57621C20.1436 4.921 20.4843 5.2964 20.8573 5.70383L20.8573 5.70388C22.7578 7.77927 24.7007 9.8224 26.6404 11.8623C27.4125 12.6742 28.1841 13.4857 28.9523 14.2985L28.9527 14.2988C29.0022 14.3511 29.0109 14.3869 28.989 14.4619C28.9578 14.5687 28.8596 14.7256 28.6692 14.8995C28.2821 15.2531 27.7139 15.5 27.3181 15.5H24.5033H24.0033V16V28C24.0033 29.5474 22.7404 30.5 21.5051 30.5H11.5109C10.7996 30.5 10.1777 30.2566 9.73715 29.8373C9.30042 29.4218 9.01269 28.8061 9.01269 28L9.01228 16Z" fill="url(#paint0_linear_2_2602)" stroke="#333333"/>
<defs>
<linearGradient id="paint0_linear_2_2602" x1="3.50005" y1="-0.171875" x2="33.358" y2="26.7159" gradientUnits="userSpaceOnUse">
<stop stop-color="#FF8E3D"/>
<stop offset="1" stop-color="#FF6F3D"/>
</linearGradient>
</defs>
</svg>
