<svg width="100" height="100" viewBox="0 0 100 100" fill="none" xmlns="http://www.w3.org/2000/svg">
<g clip-path="url(#clip0_2_10584)">
<path fill-rule="evenodd" clip-rule="evenodd" d="M49.995 88.9999C74.2282 88.9999 94 69.2381 94 45.0049C93.99 20.7617 74.2282 0.999878 49.995 0.999878C25.7618 0.999878 6 20.7617 6 45.0049C6 69.2381 25.7618 88.9999 49.995 88.9999Z" fill="#BDECFF"/>
<path d="M11.7144 66.6505C8.07867 60.2534 6 52.8643 6 45.0049C6 20.7617 25.7618 0.999878 49.995 0.999878C74.2282 0.999878 93.99 20.7617 94 45.0049C94 52.8643 91.9203 60.2534 88.2831 66.6505" stroke="#333333" stroke-linecap="round" stroke-linejoin="round"/>
<path fill-rule="evenodd" clip-rule="evenodd" d="M75.0495 62.2376C73.7426 61.5346 72.3763 60.8812 71.0792 60.297C69.2476 59.4752 67.5545 58.802 66.3565 58.3762C65.4555 60.0297 64.5446 61.4356 63.5149 63.0099C62.8614 64.0099 62.2971 64.8812 61.7327 65.6831C61.208 66.4356 60.7426 67.0495 60.3169 67.5049C59.9604 67.8911 59.6139 68.1881 59.2674 68.3663C58.9505 68.5346 58.6238 68.6138 58.2773 68.6039C58.0891 68.594 57.901 68.5643 57.7327 68.5049C57.5545 68.4455 57.3763 68.3564 57.1882 68.2475C56.9802 68.1188 56.7624 67.9505 56.5446 67.7525C56.3268 67.5544 56.0891 67.3069 55.8317 67.0198C55.406 66.5445 54.9802 66.0693 54.5545 65.594C54.4456 65.4455 54.3367 65.297 54.2278 65.1683C54.3268 65.3168 54.4357 65.4752 54.5446 65.6237L54.208 66.4059C54.1882 66.4653 54.1585 66.5247 54.1386 66.5742L52.7921 69.7426C53.3664 70.9802 53.8515 72.4257 54.2476 74L54.8812 76.9802C55.2278 78.9406 55.4852 81.0396 55.6832 83.1089C55.9208 85.5544 56.0693 88 56.1684 90.1683C56.2674 92.3465 56.3169 94.2079 56.3565 95.5346L56.3961 97.0891V98.7128C61.7426 98.198 66.5644 97.3465 71.1486 95.9604C72.8218 95.4257 73.5941 95.1584 75.6535 94.396C79.2278 92.9802 82.7228 91.1881 86.2971 88.8911L87.5446 88.1287L86.802 82.8416C86.3565 80.2673 85.3466 75.8911 83.8812 72.0792C83.2476 70.5346 82.5149 69.0099 81.6535 67.495C81.1684 66.7426 80.6535 66.1089 80.1188 65.6237C78.7921 64.4851 77.0396 63.3267 75.0495 62.2376Z" fill="#FEFEFE"/>
<path fill-rule="evenodd" clip-rule="evenodd" d="M43.8514 90.1584C43.9604 87.891 44.1089 85.4554 44.3465 83.0495C44.4059 82.4158 44.4752 81.7722 44.5445 81.1485C44.7524 79.3366 45.0198 77.5544 45.3465 75.8811C45.7821 73.6633 46.3366 71.6732 47.0297 70.1881L47.2871 69.6435L46.4059 67.8118L45.396 65.7128C45.3465 65.7623 45.297 65.8217 45.2475 65.8712C44.9009 66.2574 44.5643 66.6435 44.2178 67.0297C43.9703 67.3069 43.7227 67.5544 43.495 67.7623C43.2772 67.9604 43.0594 68.1287 42.8514 68.2574C42.6732 68.3663 42.495 68.4554 42.3069 68.5148C42.1287 68.5643 41.9505 68.6039 41.7623 68.6039C41.4158 68.6138 41.0891 68.5346 40.7722 68.3663C40.4356 68.1881 40.0891 67.891 39.7128 67.5049C39.3861 67.1485 39.0297 66.693 38.6435 66.1683C38.2475 65.6237 37.8316 65 37.3762 64.3069C36.0891 62.3366 34.8118 60.4158 33.6138 58.396C28.4158 60.2079 22.9208 62.8811 19.9208 65.5841C16.4257 68.7227 13.9901 78.4059 13.2277 82.8118L12.4851 88.099L13.7326 88.8613C17.3069 91.1485 20.792 92.9505 24.3762 94.3663C26.4356 95.1287 27.198 95.396 28.8811 95.9306C33.4653 97.3168 38.2772 98.1683 43.6336 98.693V97.0891C43.6435 96.8613 43.6435 96.6237 43.6534 96.3861L43.6732 95.5742C43.6732 95.5049 43.6732 95.4257 43.6831 95.3465C43.7029 93.792 43.7623 92.0297 43.8514 90.1584Z" fill="#FEFEFE"/>
<path fill-rule="evenodd" clip-rule="evenodd" d="M40.4851 56.4851C44.4356 60.6039 55.7524 60.4554 59.5049 56.4851C58.7029 54.1386 58.6534 51.693 58.6336 49.2475C58.6336 49.2277 58.6336 49.0594 58.6336 48.9307C56.0396 50.8515 52.9901 51.9604 49.7128 51.9604C46.6336 51.9604 43.7425 50.9802 41.2574 49.2673C41.2574 49.3564 41.2574 49.4257 41.2574 49.4356C41.1386 51.8713 41.0297 54.3168 40.4851 56.4851Z" fill="#FEFEFE"/>
<path fill-rule="evenodd" clip-rule="evenodd" d="M49.7128 51.9604C52.9901 51.9604 56.0396 50.8514 58.6336 48.9306C59.7722 48.0891 60.8217 47.0891 61.7524 45.9604C63.4752 43.8811 64.8217 41.3663 65.6732 38.5544C66.3168 36.4059 66.6732 34.099 66.6732 31.6831C66.6732 30.8415 66.6336 30.0099 66.5445 29.198C62.693 28.8514 49.5247 28.0891 45.2673 16.0297C43.495 20.3861 41.6435 22.6336 33.6138 25.3069C33.0594 27.3168 32.7623 29.4554 32.7623 31.6831C32.7623 33 32.8712 34.2871 33.0693 35.5346C33.7128 39.5643 35.3564 43.1683 37.6732 45.9604C38.7326 47.2475 39.9405 48.3564 41.2574 49.2673C43.7425 50.9802 46.6336 51.9604 49.7128 51.9604Z" fill="#FEFEFE"/>
<path fill-rule="evenodd" clip-rule="evenodd" d="M33.604 58.4059C34.802 60.4257 36.0793 62.3465 37.3664 64.3168C37.8218 65.0098 38.2377 65.6336 38.6337 66.1781C39.0198 66.7128 39.3763 67.1583 39.703 67.5148C40.0693 67.9108 40.4159 68.1979 40.7624 68.3762C41.0792 68.5445 41.406 68.6237 41.7525 68.6138C41.9406 68.6039 42.1189 68.5742 42.2971 68.5247C42.4852 68.4653 42.6634 68.3762 42.8416 68.2673C43.0495 68.1286 43.2674 67.9702 43.4852 67.7722C43.7129 67.5643 43.9505 67.3168 44.1981 67.0296C44.5446 66.6435 44.8911 66.2574 45.2278 65.8712C45.2773 65.8217 45.3268 65.7623 45.3763 65.7128L45.3664 65.693C47.4357 62.9009 48.4753 61.1187 49.307 60.4653C49.3961 60.3366 49.4852 60.2079 49.5842 60.0791H50.5149C50.7228 60.3465 50.9109 60.6039 51.0991 60.8613C51.8119 61.6237 52.7426 63.0494 54.208 65.1782C54.3169 65.3168 54.4258 65.4554 54.5347 65.6039C54.9604 66.0791 55.3862 66.5544 55.8119 67.0296C56.0693 67.3168 56.307 67.5643 56.5248 67.7623C56.7426 67.9603 56.9604 68.1286 57.1684 68.2574C57.3466 68.3663 57.5248 68.4554 57.703 68.5148C57.8812 68.5742 58.0595 68.6039 58.2476 68.6138C58.604 68.6237 58.9307 68.5445 59.2377 68.3762C59.5842 68.188 59.9307 67.9009 60.2872 67.5148C60.7129 67.0593 61.1783 66.4455 61.703 65.693C62.2575 64.891 62.8317 64.0197 63.4852 63.0197C64.5149 61.4455 65.4258 60.0395 66.3268 58.3861C66.1684 58.3267 66 58.2673 65.8416 58.2178C65.505 58.0989 65.1783 57.99 64.8515 57.8811C64.7822 57.8613 64.7228 57.8415 64.6535 57.8217C63.6436 57.495 62.6832 57.2079 61.8119 56.99C60.9604 56.7722 60.1783 56.6138 59.4951 56.5049C55.7426 60.4752 44.4258 60.6237 40.4753 56.5049C39.7822 56.6039 39 56.7722 38.1585 56.99C37.2872 57.2079 36.3268 57.495 35.3169 57.8217C34.7525 58.0098 34.1783 58.2079 33.604 58.4059Z" fill="#BDECFF"/>
<path fill-rule="evenodd" clip-rule="evenodd" d="M56.3862 98.7426V97.1188L56.3466 95.5643C56.3169 94.2376 56.2575 92.3762 56.1584 90.198C56.0594 88.0297 55.901 85.5842 55.6733 83.1386C55.4753 81.0693 55.2179 78.9703 54.8713 77.0099L54.2377 74.0297C53.8416 72.4554 53.3565 71.0099 52.7822 69.7723L54.5347 65.6436C49.2377 58.0297 50.5644 58.703 45.3763 65.6931L46.406 67.8119L47.2872 69.6436L47.0297 70.1881C46.3367 71.6733 45.7822 73.6535 45.3466 75.8812C45.0198 77.5544 44.7525 79.3465 44.5446 81.1485C44.4753 81.7822 44.406 82.4158 44.3466 83.0495C44.1188 85.4554 43.9604 87.8911 43.8515 90.1584C43.7624 92.0297 43.703 93.7921 43.6634 95.3366C43.6634 95.4158 43.6634 95.495 43.6535 95.5643L43.6337 96.3762C43.6238 96.6139 43.6238 96.8515 43.6139 97.0792V98.6832C43.6238 98.6832 43.6337 98.6832 43.6436 98.6832C43.9604 98.7129 44.2674 98.7426 44.5842 98.7723C48.2377 99.099 52.2575 99.099 56.3862 98.7426Z" fill="url(#paint0_linear_2_10584)"/>
<path fill-rule="evenodd" clip-rule="evenodd" d="M45.2674 16.0296C49.5248 28.089 62.6931 28.8514 66.5446 29.1979C66.6238 30.0098 66.6733 30.8415 66.6733 31.6831C66.6733 34.089 66.3169 36.4058 65.6733 38.5544C77.3763 8.17812 49.4951 4.55436 44.8614 10.4553C33.6634 10.3068 27.7921 24.089 33.0594 35.5346C32.8614 34.287 32.7525 32.9999 32.7525 31.6831C32.7525 29.4553 33.0495 27.3068 33.604 25.3068C41.6436 22.6336 43.4951 20.3959 45.2674 16.0296Z" fill="#EFEFEF"/>
<path fill-rule="evenodd" clip-rule="evenodd" d="M41.7525 49.0197C41.7525 49.2177 41.7426 49.4256 41.7327 49.6237C41.6139 52.0296 41.5049 54.4355 40.9604 56.6138L40 56.3761C40.5149 54.2969 40.6337 51.9306 40.7426 49.5742L40.7624 48.9999L41.7525 49.0197ZM59.0396 56.6435C58.6238 55.4355 58.4059 54.1979 58.2871 52.9504C58.1683 51.7227 58.1485 50.485 58.1386 49.2573V48.8019H59.1188V49.2573C59.1287 50.4652 59.1485 51.6831 59.2574 52.8712C59.3663 54.0395 59.5743 55.2078 59.9604 56.3464L59.0396 56.6435Z" fill="#333333"/>
<path fill-rule="evenodd" clip-rule="evenodd" d="M67.0198 28.9901C67.0693 29.4356 67.1089 29.8812 67.1287 30.3366C67.1584 30.7921 67.1683 31.2475 67.1683 31.6831C67.1683 34.4653 66.703 37.1287 65.8713 39.5643C65 42.0891 63.7228 44.3762 62.1386 46.2772C60.5248 48.2178 58.604 49.7822 56.4555 50.8515C54.3862 51.8812 52.1089 52.4554 49.7129 52.4554C47.3268 52.4554 45.0495 51.8812 42.9703 50.8515C40.8218 49.7822 38.901 48.2178 37.2871 46.2772C35.703 44.3663 34.4258 42.0891 33.5545 39.5643C32.7228 37.1386 32.2574 34.4752 32.2574 31.6831C32.2574 30.5445 32.3367 29.4059 32.4852 28.3069C32.6436 27.1782 32.8713 26.0792 33.1683 25.0198L34.1188 25.2871C33.8317 26.3069 33.604 27.3564 33.4555 28.4356C33.307 29.4851 33.2376 30.5742 33.2376 31.6831C33.2376 34.3564 33.6832 36.9109 34.4852 39.2376C35.3169 41.6534 36.5347 43.8218 38.0396 45.6435C39.5644 47.4752 41.3763 48.9604 43.406 49.9604C45.3466 50.9307 47.4753 51.4554 49.703 51.4554C51.9307 51.4554 54.0594 50.9208 56 49.9604C58.0198 48.9505 59.8416 47.4752 61.3664 45.6435C62.8713 43.8218 64.0891 41.6534 64.9208 39.2376C65.7228 36.9109 66.1683 34.3564 66.1683 31.6831C66.1683 31.2376 66.1584 30.802 66.1386 30.3861C66.1188 29.9505 66.0792 29.5247 66.0297 29.099L67.0198 28.9901Z" fill="#333333"/>
<path fill-rule="evenodd" clip-rule="evenodd" d="M67.0297 29.1485C67.0693 29.5643 67.1089 29.99 67.1287 30.4158C67.1485 30.8514 67.1584 31.2772 67.1584 31.693L67.1485 32.1782C68.7623 25.3168 67.9901 20.2079 65.9802 16.5346C64.6039 14.0297 62.6435 12.1881 60.4554 10.9108C58.2673 9.62371 55.8515 8.91084 53.5742 8.67322C49.8515 8.27718 46.5445 9.11876 45.2475 10.7623L45.099 10.9504H44.8515C42.9703 10.9207 41.2475 11.3069 39.7128 12.0099C37.2277 13.1584 35.2277 15.1584 33.8317 17.6534C32.4257 20.1683 31.6336 23.198 31.594 26.3762C31.5742 28.1683 31.7822 30.0098 32.2574 31.8415V31.6831C32.2574 30.5643 32.3366 29.4653 32.4752 28.3762C32.6237 27.2772 32.8416 26.2079 33.1287 25.1683L33.198 24.9207L33.4455 24.8415C37.396 23.5247 39.8119 22.3267 41.4554 20.9306C43.0693 19.5544 43.9406 17.9603 44.802 15.8514L45.2871 14.6534L45.7227 15.8811C49.7425 27.2772 62.0198 28.3267 66.198 28.6831L66.9802 28.7524L67.0297 29.1485ZM66.1485 30.4554C66.1386 30.1881 66.1188 29.9108 66.0891 29.6435C61.8515 29.2772 49.8416 28.2178 45.2376 17.3267C44.4554 19.0396 43.5544 20.4257 42.099 21.6633C40.396 23.1089 37.9406 24.3465 34.0099 25.6732C33.7722 26.5841 33.5841 27.5346 33.4455 28.5049C33.3069 29.5346 33.2376 30.594 33.2376 31.6732C33.2376 32.3168 33.2673 32.9504 33.3168 33.5742C33.3663 34.2178 33.4455 34.8415 33.5346 35.4455L34.099 38.99L32.594 35.7326C31.1881 32.6732 30.5544 29.4455 30.594 26.3564C30.6435 23.0099 31.4653 19.8217 32.9505 17.1683C34.4455 14.4851 36.6039 12.3465 39.2871 11.1089C40.8812 10.3762 42.6732 9.96035 44.6138 9.95045C46.198 8.17817 49.7425 7.26728 53.6534 7.68312C56.0594 7.94054 58.6138 8.69302 60.9406 10.0495C63.2673 11.4059 65.3564 13.3762 66.8317 16.0495C69.5445 20.9801 70.1188 28.3267 66.1089 38.7227L65.1782 38.4059C65.495 37.3465 65.7425 36.2376 65.9109 35.099C66.0693 33.99 66.1584 32.8415 66.1584 31.6732C66.1782 31.2574 66.1683 30.8514 66.1485 30.4554Z" fill="#333333"/>
<path fill-rule="evenodd" clip-rule="evenodd" d="M46.1881 66.2376L46.8416 67.594C48.3861 70.8316 49.5841 71.6831 50.5742 71.1881C51.703 70.6336 52.7327 68.594 53.7426 66.2277L54.6435 66.6138C53.5643 69.1683 52.4059 71.3762 51.0099 72.0692C49.4752 72.8217 47.8218 71.9108 45.9505 68.0197L45.2871 66.6633L46.1881 66.2376Z" fill="#333333"/>
<path fill-rule="evenodd" clip-rule="evenodd" d="M40.3169 57.0098C40.0496 57.0494 39.7822 57.1088 39.505 57.1583C39.1288 57.2376 38.7228 57.3366 38.2872 57.4455C37.8416 57.5544 37.3961 57.6831 36.9505 57.8118C36.4951 57.9504 36.0001 58.0989 35.4753 58.2673L34.3367 58.6633C35.2872 60.2277 36.2872 61.7524 37.2971 63.297L37.7822 64.0395C38.0001 64.3762 38.2179 64.7029 38.4357 65.0197C38.6535 65.3366 38.8515 65.6237 39.0397 65.8811C39.2278 66.1484 39.4159 66.3861 39.5842 66.6039C39.7525 66.8217 39.9208 67.0098 40.0694 67.1781C40.2377 67.3564 40.3961 67.5148 40.5644 67.6435C40.7129 67.7722 40.8614 67.8712 41 67.9405C41.1189 67.9999 41.2377 68.0494 41.3664 68.0791C41.4951 68.1088 41.6238 68.1187 41.7525 68.1187C41.8119 68.1187 41.8812 68.1088 41.9505 68.0989C42.0298 68.089 42.0991 68.0692 42.1684 68.0494C42.2278 68.0296 42.2971 67.9999 42.3763 67.9702C42.4555 67.9306 42.5248 67.891 42.604 67.8514C42.6931 67.8019 42.7822 67.7326 42.8812 67.6534C42.9703 67.5841 43.0694 67.495 43.1783 67.4059C43.2872 67.3069 43.3961 67.198 43.505 67.089C43.6139 66.9801 43.7327 66.8514 43.8614 66.7029L45.4258 64.9504C46.0199 64.297 46.5842 63.6732 47.1288 62.9603C47.505 62.4752 47.8218 61.9405 48.1387 61.4158C48.4258 60.9405 48.7129 60.4554 49.0595 59.99C45.6337 59.8415 42.307 58.8712 40.3763 57.0494L40.3169 57.0098ZM39.307 56.1979C39.703 56.1187 40.0793 56.0494 40.4159 55.9999L40.6634 55.9603L41.0298 56.3366C42.9604 58.1682 46.5248 59.0494 50.0694 59.0296C53.6139 59.0098 57.1288 58.0989 58.9604 56.3267L59.3169 55.9603L59.5644 55.9999C59.901 56.0494 60.2773 56.1187 60.6733 56.1979C61.0892 56.2871 61.5149 56.3861 61.9307 56.4851C62.3565 56.594 62.8119 56.7227 63.307 56.8712C63.7921 57.0098 64.2872 57.1682 64.7921 57.3366C65.5446 57.5643 66.2971 57.8415 67.0298 58.1088L66.7525 58.6138C66.2971 59.4554 65.8416 60.2277 65.3664 60.99C64.8812 61.7623 64.406 62.5049 63.8911 63.2871L62.9703 64.7029C62.6634 65.1583 62.3763 65.5841 62.109 65.9801C61.8416 66.3663 61.5842 66.7128 61.3466 67.0197C61.0991 67.3366 60.8713 67.6138 60.6535 67.8514C60.4555 68.0593 60.2674 68.2475 60.0793 68.4059C59.8812 68.5643 59.6832 68.7029 59.4753 68.8118C59.2773 68.9207 59.0793 68.99 58.8812 69.0395C58.6733 69.089 58.4654 69.1088 58.2476 69.0989C58.1288 69.0989 58.01 69.089 57.9109 69.0692C57.7921 69.0494 57.6832 69.0197 57.5743 68.99C57.4555 68.9504 57.3466 68.9108 57.2476 68.8613C57.1387 68.8118 57.0298 68.7524 56.9208 68.6831C56.802 68.6138 56.6832 68.5247 56.5644 68.4356C56.4555 68.3465 56.3367 68.2475 56.208 68.1385C56.0892 68.0296 55.9604 67.9108 55.8416 67.7821C55.7228 67.6633 55.5941 67.5247 55.4555 67.3663C55.0793 66.9405 54.4456 66.3267 54.1387 65.891C53.9307 65.594 53.703 65.3267 53.4753 65.0593C53.2278 64.7722 52.9802 64.4851 52.7525 64.1583C52.2872 63.5346 51.901 62.9504 51.5248 62.3663C51.1387 61.7722 50.7624 61.188 50.2872 60.5643H49.8416C49.5248 60.9999 49.2476 61.4554 48.9703 61.9207C48.6436 62.4653 48.307 63.0197 47.901 63.5544C47.3466 64.2772 46.7624 64.9306 46.1486 65.6039L44.5842 67.3564C44.4555 67.495 44.3268 67.6336 44.1981 67.7722C44.0694 67.9009 43.9505 68.0197 43.8317 68.1286C43.7129 68.2376 43.5941 68.3366 43.4753 68.4257C43.3565 68.5148 43.2377 68.594 43.109 68.6732C43.01 68.7326 42.901 68.792 42.7921 68.8415C42.6931 68.891 42.5743 68.9306 42.4654 68.9702H42.4555C42.3466 68.9999 42.2278 69.0296 42.1189 69.0494C42.01 69.0692 41.901 69.0791 41.7822 69.0791C41.5644 69.089 41.3466 69.0593 41.1486 69.0197C40.9406 68.9702 40.7426 68.891 40.5446 68.792C40.3367 68.6831 40.1387 68.5445 39.9406 68.3861C39.7525 68.2277 39.5545 68.0494 39.3565 67.8316C39.1783 67.6435 39.0001 67.4257 38.8119 67.198C38.6238 66.9603 38.4357 66.7128 38.2377 66.4455C38.0298 66.1484 37.8218 65.8613 37.6139 65.5544L36.4654 63.8217C35.3466 62.1088 34.2278 60.4158 33.1783 58.6336L32.8713 58.1187C33.6337 57.8514 34.4258 57.6039 35.1684 57.3168C35.6634 57.1583 36.1684 56.9999 36.6733 56.8514C37.1684 56.7029 37.6238 56.5841 38.0397 56.4752C38.4753 56.3861 38.8911 56.2871 39.307 56.1979ZM51.0694 59.99C51.5644 60.6435 51.9505 61.2376 52.3466 61.8415C52.703 62.396 53.0694 62.9603 53.5446 63.5841L53.5545 63.594C53.7624 63.891 53.9901 64.1583 54.2179 64.4257C54.4654 64.7128 54.7129 64.9999 54.9406 65.3168L56.1981 66.7128C56.3169 66.8415 56.4357 66.9702 56.5545 67.0989C56.6733 67.2177 56.7822 67.3267 56.8713 67.4059C56.9703 67.495 57.0694 67.5742 57.1684 67.6534C57.2674 67.7227 57.3565 67.792 57.4456 67.8514C57.5149 67.9009 57.5941 67.9405 57.6733 67.9702C57.7426 68.0098 57.8119 68.0296 57.8713 68.0494C57.9406 68.0692 58.01 68.089 58.0793 68.0989C58.1486 68.1088 58.2179 68.1187 58.2872 68.1187C58.4159 68.1187 58.5446 68.1088 58.6733 68.0791C58.802 68.0494 58.9208 67.9999 59.0397 67.9405C59.1783 67.8613 59.3268 67.7623 59.4753 67.6435C59.6337 67.5148 59.7921 67.3564 59.9604 67.1781C60.1684 66.9603 60.3763 66.7029 60.604 66.4059C60.8317 66.1088 61.0793 65.7722 61.3268 65.4059C61.6139 64.99 61.8911 64.5742 62.1783 64.1484L63.0991 62.7425C63.6238 61.9504 64.109 61.198 64.5644 60.4653C64.9307 59.8712 65.2872 59.2772 65.6436 58.6435L64.7228 58.3366L64.5149 58.2772C64.01 58.1088 63.5149 57.9603 63.0496 57.8217C62.604 57.693 62.1486 57.5643 61.7129 57.4554C61.2674 57.3465 60.8614 57.2475 60.4951 57.1682C60.2179 57.1088 59.9505 57.0593 59.6832 57.0197L59.6535 57.0494C57.802 58.8118 54.505 59.8118 51.0694 59.99Z" fill="#333333"/>
<path fill-rule="evenodd" clip-rule="evenodd" d="M33.7722 58.8713C31.0594 59.8119 28.2673 60.9901 25.8019 62.2871C23.594 63.4455 21.6336 64.703 20.2376 65.9505C18.8712 67.1782 17.6633 69.4752 16.6633 72.0693C15.1782 75.8812 14.1485 80.3069 13.7029 82.8911L13.0099 87.8515L13.9901 88.4455C15.7623 89.5842 17.5148 90.5941 19.2673 91.5049C21.0099 92.4059 22.7623 93.2079 24.5445 93.9109C25.5643 94.2871 26.2673 94.5446 26.9108 94.7723C27.5841 95.0099 28.1881 95.2079 29 95.4653C31.2871 96.1584 33.6237 96.7129 36.0495 97.1584C38.3168 97.5743 40.6633 97.901 43.1188 98.1485C43.1188 96.3861 43.1881 94.6238 43.2475 92.8614C43.2772 91.9802 43.3168 91.0693 43.3564 90.1485C43.4158 88.9901 43.4752 87.8119 43.5544 86.6337C43.6336 85.4653 43.7326 84.2475 43.8514 83.0099L43.9504 82.0396L44.0495 81.099C44.1584 80.1485 44.2871 79.2178 44.4158 78.3069C44.5445 77.4455 44.693 76.604 44.8514 75.7822C45.0792 74.6238 45.3465 73.5149 45.6435 72.505C45.9207 71.5644 46.2376 70.7129 46.5841 69.9703L46.7425 69.6337L45.9702 68.0099L44.8118 65.6238L44.99 65.3861C45.7524 64.3663 46.3564 63.495 46.8613 62.7723C48.2673 60.7525 49.0099 59.6931 49.9901 59.6832C51.0495 59.6733 51.9405 60.9703 53.8019 63.6832L55.099 65.5644L53.3267 69.7426C53.5841 70.3168 53.8217 70.9406 54.0495 71.5941C54.297 72.3267 54.5247 73.099 54.7227 73.8911C54.9108 74.8911 55.1485 75.9109 55.3663 76.9109C55.5247 77.8416 55.6732 78.8218 55.8118 79.8317C55.9504 80.901 56.0693 81.9901 56.1782 83.0693C56.297 84.3267 56.396 85.5544 56.4752 86.7228C56.5544 87.8911 56.6138 89.0495 56.6732 90.1584C56.7227 91.2376 56.7623 92.2475 56.792 93.1683C56.8217 94.0594 56.8415 94.8614 56.8613 95.5346C56.891 96.7624 56.9009 97.9505 56.9009 99.1782L56.4455 99.2178C54.3762 99.396 52.3366 99.4851 50.3366 99.4851C48.3267 99.4951 46.396 99.4158 44.5544 99.2475L43.1584 99.1188C40.6237 98.8614 38.2079 98.5347 35.8811 98.099C33.4059 97.6436 31.0297 97.0792 28.7227 96.3861H28.7128C27.8514 96.1089 27.2277 95.9109 26.594 95.6832C25.9306 95.4554 25.2178 95.198 24.1881 94.8119H24.1782C22.3762 94.099 20.594 93.2871 18.8118 92.3663C17.0297 91.4455 15.2475 90.4158 13.4554 89.2673L11.9406 88.3465C12.198 86.4851 12.5049 84.5842 12.7326 82.7228C13.1881 80.099 14.2277 75.604 15.7425 71.7129C16.8019 68.9901 18.0891 66.5545 19.5742 65.2178C21.0297 63.9109 23.0495 62.6139 25.3366 61.4158C27.8514 60.099 30.6831 58.901 33.4356 57.9406L33.7722 58.8713ZM44.1089 98.2376L44.6336 98.2871C46.4653 98.4455 48.3762 98.5248 50.3267 98.5248C52.1287 98.5248 53.99 98.4455 55.9009 98.297V97.1287L55.8613 95.5842L55.792 93.2277C55.7623 92.3366 55.7227 91.3267 55.6732 90.2277C55.6237 89.1683 55.5643 88.0198 55.4752 86.8119C55.396 85.604 55.297 84.3762 55.1782 83.1881C55.0792 82.1188 54.9603 81.0495 54.8217 79.9802C54.693 79.0198 54.5544 78.0495 54.3861 77.099L53.7623 74.1584C53.5643 73.3762 53.3465 72.6337 53.1089 71.9406C52.8712 71.2475 52.6138 70.5941 52.3366 69.9901L52.2475 69.7921L53.9801 65.7129L52.99 64.2673C51.3267 61.8317 50.5346 60.6832 49.9901 60.6931C49.5247 60.6931 48.8811 61.6139 47.6633 63.3564C47.1782 64.0495 46.6138 64.8515 45.9504 65.7624L46.8514 67.6139L47.8316 69.6535L47.4752 70.4059C47.1485 71.0891 46.8613 71.901 46.594 72.7921C46.3069 73.7624 46.0495 74.8317 45.8316 75.9802C45.6732 76.7822 45.5346 77.6139 45.4059 78.4554C45.2673 79.3663 45.1485 80.2871 45.0396 81.2079L44.9405 82.1386L44.8415 83.099C44.7326 84.2673 44.6336 85.4752 44.5544 86.6931C44.4752 87.901 44.4059 89.0693 44.3564 90.1881C44.3168 91.1386 44.2772 92.0396 44.2475 92.8911C44.198 94.2871 44.1584 95.6832 44.1188 97.0792L44.1089 98.2376ZM84.5148 75.3762C84.0792 74.0099 83.5742 72.6436 82.9702 71.2871C82.3762 69.9307 81.693 68.5842 80.9108 67.2574C80.1782 66.0198 78.2871 64.6436 76.0495 63.3465C72.6732 61.396 68.5049 59.6634 66.1881 58.8416L66.5247 57.9109C68.8613 58.7426 73.0891 60.5049 76.5346 62.495C78.9108 63.8614 80.9306 65.3564 81.7623 66.7525C82.5742 68.1287 83.2772 69.5049 83.8811 70.8812C84.4851 72.2574 85.0098 73.6535 85.4554 75.0693L84.5148 75.3762Z" fill="#333333"/>
<path fill-rule="evenodd" clip-rule="evenodd" d="M66.5544 58C69.3069 58.9604 72.1386 60.1584 74.6534 61.4752C76.9406 62.6733 78.9604 63.9802 80.4158 65.2871C81.901 66.6238 83.198 69.0594 84.2475 71.7822C85.7623 75.6733 86.8019 80.1683 87.2574 82.7921C87.4752 84.6535 87.7821 86.5545 88.0495 88.4158L86.5346 89.3366C84.7425 90.4852 82.9604 91.5149 81.1782 92.4356C79.396 93.3564 77.6039 94.1683 75.8118 94.8812H75.8019C74.7722 95.2673 74.0594 95.5248 73.396 95.7525C72.7524 95.9802 72.1386 96.1782 71.2772 96.4554H71.2673C68.9604 97.1485 66.5841 97.7129 64.1089 98.1683C61.6435 98.6238 59.0891 98.9703 56.3861 99.2277L56.297 98.2475C58.9604 97.9901 61.495 97.6535 63.9307 97.198C66.3564 96.7525 68.693 96.198 70.9802 95.505C71.792 95.2475 72.396 95.0495 73.0693 94.8119C73.7227 94.5842 74.4257 94.3267 75.4455 93.9505C77.2277 93.2475 78.9802 92.4554 80.7227 91.5446C82.4752 90.6436 84.2277 89.6238 86 88.4852L86.9802 87.8911L86.2871 82.9307C85.8415 80.3465 84.8118 75.9208 83.3267 72.1089C82.3168 69.5248 81.1089 67.2178 79.7524 65.9901C78.3564 64.7327 76.4059 63.4851 74.1881 62.3168C71.7227 61.0198 68.9307 59.8416 66.2178 58.901L66.5544 58Z" fill="#333333"/>
</g>
<defs>
<linearGradient id="paint0_linear_2_10584" x1="32.7042" y1="63.6336" x2="52.3248" y2="85.245" gradientUnits="userSpaceOnUse">
<stop stop-color="#FFC671"/>
<stop offset="1" stop-color="#FF6F3D"/>
</linearGradient>
<clipPath id="clip0_2_10584">
<rect width="100" height="100" fill="white"/>
</clipPath>
</defs>
</svg>
