<svg width="100" height="100" viewBox="0 0 100 100" fill="none" xmlns="http://www.w3.org/2000/svg">
<path fill-rule="evenodd" clip-rule="evenodd" d="M9 13C6.23858 13 4 15.2113 4 17.939V88.061C4 90.7887 6.23858 93 9 93H91C93.7614 93 96 90.7887 96 88.061V17.939C96 15.2113 93.7614 13 91 13H9Z" fill="white"/>
<path d="M5 17C5 14.0412 7.74005 13 9 13L91 13C93.9843 13 95.0002 15.0847 95.0002 17V29H5V17Z" fill="#CCE9FF"/>
<path fill-rule="evenodd" clip-rule="evenodd" d="M62.991 12.0001H35.9915V13.0001H62.991V12.0001ZM74.0036 13L91 13.0001C93.2091 13.0001 95 14.7909 95 17.0001V89C95 91.2092 93.2091 93 91 93H9C6.79086 93 5 91.2092 5 89V17.0001C5 14.7909 6.79086 13.0001 9 13.0001H25.0159V12.0001H9C6.23858 12.0001 4 14.2386 4 17.0001V89C4 91.7615 6.23858 94 9 94H91C93.7614 94 96 91.7615 96 89V17.0001C96 14.2386 93.7614 12.0001 91 12.0001L74.0036 12V13Z" fill="#333333"/>
<path fill-rule="evenodd" clip-rule="evenodd" d="M67 6.54135C67 6.24237 66.7761 6 66.5 6C66.2239 6 66 6.24237 66 6.54135V12V17.4586C66 17.7576 66.2239 18 66.5 18C66.7761 18 67 17.7576 67 17.4586V6.54135ZM71 6.54135C71 6.24237 70.7761 6 70.5 6C70.2239 6 70 6.24237 70 6.54135V12V17.4586C70 17.7576 70.2239 18 70.5 18C70.7761 18 71 17.7576 71 17.4586V6.54135Z" fill="#333333"/>
<path fill-rule="evenodd" clip-rule="evenodd" d="M29 6.54135C29 6.24237 28.7761 6 28.5 6C28.2239 6 28 6.24237 28 6.54135V12V17.4586C28 17.7576 28.2239 18 28.5 18C28.7761 18 29 17.7576 29 17.4586V6.54135ZM33 6.54135C33 6.24237 32.7761 6 32.5 6C32.2239 6 32 6.24237 32 6.54135V12V17.4586C32 17.7576 32.2239 18 32.5 18C32.7761 18 33 17.7576 33 17.4586V6.54135Z" fill="#333333"/>
<path fill-rule="evenodd" clip-rule="evenodd" d="M12.0001 24.5C12.0001 24.2239 12 24 12 24H88.0002V25H12.0002C12.0002 25 12.0001 24.7761 12.0001 24.5Z" fill="#333333"/>
<path d="M50 49C48.3431 49 47 50.3431 47 52C47 53.6569 48.3431 55 50 55C51.6569 55 53 53.6569 53 52C53 50.3431 51.6569 49 50 49Z" fill="#EFEFEF"/>
<path fill-rule="evenodd" clip-rule="evenodd" d="M50 50C48.8954 50 48 50.8954 48 52C48 53.1046 48.8954 54 50 54C51.1046 54 52 53.1046 52 52C52 50.8954 51.1046 50 50 50ZM47 52C47 50.3431 48.3431 49 50 49C51.6569 49 53 50.3431 53 52C53 53.6569 51.6569 55 50 55C48.3431 55 47 53.6569 47 52Z" fill="#333333"/>
<path d="M59.999 49C58.3422 49 56.999 50.3431 56.999 52C56.999 53.6569 58.3422 55 59.999 55C61.6559 55 62.999 53.6569 62.999 52C62.999 50.3431 61.6559 49 59.999 49Z" fill="#EFEFEF"/>
<path fill-rule="evenodd" clip-rule="evenodd" d="M59.999 50C58.8945 50 57.999 50.8954 57.999 52C57.999 53.1046 58.8945 54 59.999 54C61.1036 54 61.999 53.1046 61.999 52C61.999 50.8954 61.1036 50 59.999 50ZM56.999 52C56.999 50.3431 58.3422 49 59.999 49C61.6559 49 62.999 50.3431 62.999 52C62.999 53.6569 61.6559 55 59.999 55C58.3422 55 56.999 53.6569 56.999 52Z" fill="#333333"/>
<path d="M20 49C18.3431 49 17 50.3431 17 52C17 53.6569 18.3431 55 20 55C21.6569 55 23 53.6569 23 52C23 50.3431 21.6569 49 20 49Z" fill="#EFEFEF"/>
<path fill-rule="evenodd" clip-rule="evenodd" d="M20 50C18.8954 50 18 50.8954 18 52C18 53.1046 18.8954 54 20 54C21.1046 54 22 53.1046 22 52C22 50.8954 21.1046 50 20 50ZM17 52C17 50.3431 18.3431 49 20 49C21.6569 49 23 50.3431 23 52C23 53.6569 21.6569 55 20 55C18.3431 55 17 53.6569 17 52Z" fill="#333333"/>
<path d="M29.999 49C28.3422 49 26.999 50.3431 26.999 52C26.999 53.6569 28.3422 55 29.999 55C31.6559 55 32.999 53.6569 32.999 52C32.999 50.3431 31.6559 49 29.999 49Z" fill="#EFEFEF"/>
<path fill-rule="evenodd" clip-rule="evenodd" d="M29.999 50C28.8945 50 27.999 50.8954 27.999 52C27.999 53.1046 28.8945 54 29.999 54C31.1036 54 31.999 53.1046 31.999 52C31.999 50.8954 31.1036 50 29.999 50ZM26.999 52C26.999 50.3431 28.3422 49 29.999 49C31.6559 49 32.999 50.3431 32.999 52C32.999 53.6569 31.6559 55 29.999 55C28.3422 55 26.999 53.6569 26.999 52Z" fill="#333333"/>
<path d="M69.998 49C68.3412 49 66.998 50.3431 66.998 52C66.998 53.6569 68.3412 55 69.998 55C71.6549 55 72.998 53.6569 72.998 52C72.998 50.3431 71.6549 49 69.998 49Z" fill="#EFEFEF"/>
<path fill-rule="evenodd" clip-rule="evenodd" d="M69.998 50C68.8935 50 67.998 50.8954 67.998 52C67.998 53.1046 68.8935 54 69.998 54C71.1026 54 71.998 53.1046 71.998 52C71.998 50.8954 71.1026 50 69.998 50ZM66.998 52C66.998 50.3431 68.3412 49 69.998 49C71.6549 49 72.998 50.3431 72.998 52C72.998 53.6569 71.6549 55 69.998 55C68.3412 55 66.998 53.6569 66.998 52Z" fill="#333333"/>
<path d="M80.001 49C78.3441 49 77.001 50.3431 77.001 52C77.001 53.6569 78.3441 55 80.001 55C81.6578 55 83.001 53.6569 83.001 52C83.001 50.3431 81.6578 49 80.001 49Z" fill="#EFEFEF"/>
<path fill-rule="evenodd" clip-rule="evenodd" d="M80.001 50C78.8964 50 78.001 50.8954 78.001 52C78.001 53.1046 78.8964 54 80.001 54C81.1055 54 82.001 53.1046 82.001 52C82.001 50.8954 81.1055 50 80.001 50ZM77.001 52C77.001 50.3431 78.3441 49 80.001 49C81.6578 49 83.001 50.3431 83.001 52C83.001 53.6569 81.6578 55 80.001 55C78.3441 55 77.001 53.6569 77.001 52Z" fill="#333333"/>
<path d="M50 39C48.3431 39 47 40.3431 47 42C47 43.6569 48.3431 45 50 45C51.6569 45 53 43.6569 53 42C53 40.3431 51.6569 39 50 39Z" fill="#EFEFEF"/>
<path fill-rule="evenodd" clip-rule="evenodd" d="M50 40C48.8954 40 48 40.8954 48 42C48 43.1046 48.8954 44 50 44C51.1046 44 52 43.1046 52 42C52 40.8954 51.1046 40 50 40ZM47 42C47 40.3431 48.3431 39 50 39C51.6569 39 53 40.3431 53 42C53 43.6569 51.6569 45 50 45C48.3431 45 47 43.6569 47 42Z" fill="#333333"/>
<path d="M59.999 39C58.3422 39 56.999 40.3431 56.999 42C56.999 43.6569 58.3422 45 59.999 45C61.6559 45 62.999 43.6569 62.999 42C62.999 40.3431 61.6559 39 59.999 39Z" fill="#EFEFEF"/>
<path fill-rule="evenodd" clip-rule="evenodd" d="M59.999 40C58.8945 40 57.999 40.8954 57.999 42C57.999 43.1046 58.8945 44 59.999 44C61.1036 44 61.999 43.1046 61.999 42C61.999 40.8954 61.1036 40 59.999 40ZM56.999 42C56.999 40.3431 58.3422 39 59.999 39C61.6559 39 62.999 40.3431 62.999 42C62.999 43.6569 61.6559 45 59.999 45C58.3422 45 56.999 43.6569 56.999 42Z" fill="#333333"/>
<path d="M69.998 39C68.3412 39 66.998 40.3431 66.998 42C66.998 43.6569 68.3412 45 69.998 45C71.6549 45 72.998 43.6569 72.998 42C72.998 40.3431 71.6549 39 69.998 39Z" fill="#EFEFEF"/>
<path fill-rule="evenodd" clip-rule="evenodd" d="M69.998 40C68.8935 40 67.998 40.8954 67.998 42C67.998 43.1046 68.8935 44 69.998 44C71.1026 44 71.998 43.1046 71.998 42C71.998 40.8954 71.1026 40 69.998 40ZM66.998 42C66.998 40.3431 68.3412 39 69.998 39C71.6549 39 72.998 40.3431 72.998 42C72.998 43.6569 71.6549 45 69.998 45C68.3412 45 66.998 43.6569 66.998 42Z" fill="#333333"/>
<path d="M80.001 39C78.3441 39 77.001 40.3431 77.001 42C77.001 43.6569 78.3441 45 80.001 45C81.6578 45 83.001 43.6569 83.001 42C83.001 40.3431 81.6578 39 80.001 39Z" fill="#EFEFEF"/>
<path fill-rule="evenodd" clip-rule="evenodd" d="M80.001 40C78.8964 40 78.001 40.8954 78.001 42C78.001 43.1046 78.8964 44 80.001 44C81.1055 44 82.001 43.1046 82.001 42C82.001 40.8954 81.1055 40 80.001 40ZM77.001 42C77.001 40.3431 78.3441 39 80.001 39C81.6578 39 83.001 40.3431 83.001 42C83.001 43.6569 81.6578 45 80.001 45C78.3441 45 77.001 43.6569 77.001 42Z" fill="#333333"/>
<path d="M50 58C48.3431 58 47 59.3431 47 61C47 62.6569 48.3431 64 50 64C51.6569 64 53 62.6569 53 61C53 59.3431 51.6569 58 50 58Z" fill="#EFEFEF"/>
<path fill-rule="evenodd" clip-rule="evenodd" d="M50 59C48.8954 59 48 59.8954 48 61C48 62.1046 48.8954 63 50 63C51.1046 63 52 62.1046 52 61C52 59.8954 51.1046 59 50 59ZM47 61C47 59.3431 48.3431 58 50 58C51.6569 58 53 59.3431 53 61C53 62.6569 51.6569 64 50 64C48.3431 64 47 62.6569 47 61Z" fill="#333333"/>
<path d="M59.999 58C58.3422 58 56.999 59.3431 56.999 61C56.999 62.6569 58.3422 64 59.999 64C61.6559 64 62.999 62.6569 62.999 61C62.999 59.3431 61.6559 58 59.999 58Z" fill="#EFEFEF"/>
<path fill-rule="evenodd" clip-rule="evenodd" d="M59.999 59C58.8945 59 57.999 59.8954 57.999 61C57.999 62.1046 58.8945 63 59.999 63C61.1036 63 61.999 62.1046 61.999 61C61.999 59.8954 61.1036 59 59.999 59ZM56.999 61C56.999 59.3431 58.3422 58 59.999 58C61.6559 58 62.999 59.3431 62.999 61C62.999 62.6569 61.6559 64 59.999 64C58.3422 64 56.999 62.6569 56.999 61Z" fill="#333333"/>
<path d="M69.998 58C68.3412 58 66.998 59.3431 66.998 61C66.998 62.6569 68.3412 64 69.998 64C71.6549 64 72.998 62.6569 72.998 61C72.998 59.3431 71.6549 58 69.998 58Z" fill="#EFEFEF"/>
<path fill-rule="evenodd" clip-rule="evenodd" d="M69.998 59C68.8935 59 67.998 59.8954 67.998 61C67.998 62.1046 68.8935 63 69.998 63C71.1026 63 71.998 62.1046 71.998 61C71.998 59.8954 71.1026 59 69.998 59ZM66.998 61C66.998 59.3431 68.3412 58 69.998 58C71.6549 58 72.998 59.3431 72.998 61C72.998 62.6569 71.6549 64 69.998 64C68.3412 64 66.998 62.6569 66.998 61Z" fill="#333333"/>
<path d="M80.001 58C78.3441 58 77.001 59.3431 77.001 61C77.001 62.6569 78.3441 64 80.001 64C81.6578 64 83.001 62.6569 83.001 61C83.001 59.3431 81.6578 58 80.001 58Z" fill="#EFEFEF"/>
<path fill-rule="evenodd" clip-rule="evenodd" d="M80.001 59C78.8964 59 78.001 59.8954 78.001 61C78.001 62.1046 78.8964 63 80.001 63C81.1055 63 82.001 62.1046 82.001 61C82.001 59.8954 81.1055 59 80.001 59ZM77.001 61C77.001 59.3431 78.3441 58 80.001 58C81.6578 58 83.001 59.3431 83.001 61C83.001 62.6569 81.6578 64 80.001 64C78.3441 64 77.001 62.6569 77.001 61Z" fill="#333333"/>
<path d="M50 67C48.3431 67 47 68.3431 47 70C47 71.6569 48.3431 73 50 73C51.6569 73 53 71.6569 53 70C53 68.3431 51.6569 67 50 67Z" fill="#EFEFEF"/>
<path fill-rule="evenodd" clip-rule="evenodd" d="M50 68C48.8954 68 48 68.8954 48 70C48 71.1046 48.8954 72 50 72C51.1046 72 52 71.1046 52 70C52 68.8954 51.1046 68 50 68ZM47 70C47 68.3431 48.3431 67 50 67C51.6569 67 53 68.3431 53 70C53 71.6569 51.6569 73 50 73C48.3431 73 47 71.6569 47 70Z" fill="#333333"/>
<path d="M59.999 67C58.3422 67 56.999 68.3431 56.999 70C56.999 71.6569 58.3422 73 59.999 73C61.6559 73 62.999 71.6569 62.999 70C62.999 68.3431 61.6559 67 59.999 67Z" fill="#EFEFEF"/>
<path fill-rule="evenodd" clip-rule="evenodd" d="M59.999 68C58.8945 68 57.999 68.8954 57.999 70C57.999 71.1046 58.8945 72 59.999 72C61.1036 72 61.999 71.1046 61.999 70C61.999 68.8954 61.1036 68 59.999 68ZM56.999 70C56.999 68.3431 58.3422 67 59.999 67C61.6559 67 62.999 68.3431 62.999 70C62.999 71.6569 61.6559 73 59.999 73C58.3422 73 56.999 71.6569 56.999 70Z" fill="#333333"/>
<path d="M69.998 67C68.3412 67 66.998 68.3431 66.998 70C66.998 71.6569 68.3412 73 69.998 73C71.6549 73 72.998 71.6569 72.998 70C72.998 68.3431 71.6549 67 69.998 67Z" fill="#EFEFEF"/>
<path fill-rule="evenodd" clip-rule="evenodd" d="M69.998 68C68.8935 68 67.998 68.8954 67.998 70C67.998 71.1046 68.8935 72 69.998 72C71.1026 72 71.998 71.1046 71.998 70C71.998 68.8954 71.1026 68 69.998 68ZM66.998 70C66.998 68.3431 68.3412 67 69.998 67C71.6549 67 72.998 68.3431 72.998 70C72.998 71.6569 71.6549 73 69.998 73C68.3412 73 66.998 71.6569 66.998 70Z" fill="#333333"/>
<path d="M80.001 67C78.3441 67 77.001 68.3431 77.001 70C77.001 71.6569 78.3441 73 80.001 73C81.6578 73 83.001 71.6569 83.001 70C83.001 68.3431 81.6578 67 80.001 67Z" fill="#EFEFEF"/>
<path fill-rule="evenodd" clip-rule="evenodd" d="M80.001 68C78.8964 68 78.001 68.8954 78.001 70C78.001 71.1046 78.8964 72 80.001 72C81.1055 72 82.001 71.1046 82.001 70C82.001 68.8954 81.1055 68 80.001 68ZM77.001 70C77.001 68.3431 78.3441 67 80.001 67C81.6578 67 83.001 68.3431 83.001 70C83.001 71.6569 81.6578 73 80.001 73C78.3441 73 77.001 71.6569 77.001 70Z" fill="#333333"/>
<path d="M50 76C48.3431 76 47 77.3431 47 79C47 80.6569 48.3431 82 50 82C51.6569 82 53 80.6569 53 79C53 77.3431 51.6569 76 50 76Z" fill="#EFEFEF"/>
<path fill-rule="evenodd" clip-rule="evenodd" d="M50 77C48.8954 77 48 77.8954 48 79C48 80.1046 48.8954 81 50 81C51.1046 81 52 80.1046 52 79C52 77.8954 51.1046 77 50 77ZM47 79C47 77.3431 48.3431 76 50 76C51.6569 76 53 77.3431 53 79C53 80.6569 51.6569 82 50 82C48.3431 82 47 80.6569 47 79Z" fill="#333333"/>
<path d="M59.999 76C58.3422 76 56.999 77.3431 56.999 79C56.999 80.6569 58.3422 82 59.999 82C61.6559 82 62.999 80.6569 62.999 79C62.999 77.3431 61.6559 76 59.999 76Z" fill="#EFEFEF"/>
<path fill-rule="evenodd" clip-rule="evenodd" d="M59.999 77C58.8945 77 57.999 77.8954 57.999 79C57.999 80.1046 58.8945 81 59.999 81C61.1036 81 61.999 80.1046 61.999 79C61.999 77.8954 61.1036 77 59.999 77ZM56.999 79C56.999 77.3431 58.3422 76 59.999 76C61.6559 76 62.999 77.3431 62.999 79C62.999 80.6569 61.6559 82 59.999 82C58.3422 82 56.999 80.6569 56.999 79Z" fill="#333333"/>
<path d="M20 58C18.3431 58 17 59.3431 17 61C17 62.6569 18.3431 64 20 64C21.6569 64 23 62.6569 23 61C23 59.3431 21.6569 58 20 58Z" fill="#EFEFEF"/>
<path fill-rule="evenodd" clip-rule="evenodd" d="M20 59C18.8954 59 18 59.8954 18 61C18 62.1046 18.8954 63 20 63C21.1046 63 22 62.1046 22 61C22 59.8954 21.1046 59 20 59ZM17 61C17 59.3431 18.3431 58 20 58C21.6569 58 23 59.3431 23 61C23 62.6569 21.6569 64 20 64C18.3431 64 17 62.6569 17 61Z" fill="#333333"/>
<path d="M29.999 58C28.3422 58 26.999 59.3431 26.999 61C26.999 62.6569 28.3422 64 29.999 64C31.6559 64 32.999 62.6569 32.999 61C32.999 59.3431 31.6559 58 29.999 58Z" fill="#EFEFEF"/>
<path fill-rule="evenodd" clip-rule="evenodd" d="M29.999 59C28.8945 59 27.999 59.8954 27.999 61C27.999 62.1046 28.8945 63 29.999 63C31.1036 63 31.999 62.1046 31.999 61C31.999 59.8954 31.1036 59 29.999 59ZM26.999 61C26.999 59.3431 28.3422 58 29.999 58C31.6559 58 32.999 59.3431 32.999 61C32.999 62.6569 31.6559 64 29.999 64C28.3422 64 26.999 62.6569 26.999 61Z" fill="#333333"/>
<path d="M39.998 58C38.3412 58 36.998 59.3431 36.998 61C36.998 62.6569 38.3412 64 39.998 64C41.6549 64 42.998 62.6569 42.998 61C42.998 59.3431 41.6549 58 39.998 58Z" fill="#EFEFEF"/>
<path fill-rule="evenodd" clip-rule="evenodd" d="M39.998 59C38.8935 59 37.998 59.8954 37.998 61C37.998 62.1046 38.8935 63 39.998 63C41.1026 63 41.998 62.1046 41.998 61C41.998 59.8954 41.1026 59 39.998 59ZM36.998 61C36.998 59.3431 38.3412 58 39.998 58C41.6549 58 42.998 59.3431 42.998 61C42.998 62.6569 41.6549 64 39.998 64C38.3412 64 36.998 62.6569 36.998 61Z" fill="#333333"/>
<path d="M20 67C18.3431 67 17 68.3431 17 70C17 71.6569 18.3431 73 20 73C21.6569 73 23 71.6569 23 70C23 68.3431 21.6569 67 20 67Z" fill="#EFEFEF"/>
<path fill-rule="evenodd" clip-rule="evenodd" d="M20 68C18.8954 68 18 68.8954 18 70C18 71.1046 18.8954 72 20 72C21.1046 72 22 71.1046 22 70C22 68.8954 21.1046 68 20 68ZM17 70C17 68.3431 18.3431 67 20 67C21.6569 67 23 68.3431 23 70C23 71.6569 21.6569 73 20 73C18.3431 73 17 71.6569 17 70Z" fill="#333333"/>
<path d="M29.999 67C28.3422 67 26.999 68.3431 26.999 70C26.999 71.6569 28.3422 73 29.999 73C31.6559 73 32.999 71.6569 32.999 70C32.999 68.3431 31.6559 67 29.999 67Z" fill="#EFEFEF"/>
<path fill-rule="evenodd" clip-rule="evenodd" d="M29.999 68C28.8945 68 27.999 68.8954 27.999 70C27.999 71.1046 28.8945 72 29.999 72C31.1036 72 31.999 71.1046 31.999 70C31.999 68.8954 31.1036 68 29.999 68ZM26.999 70C26.999 68.3431 28.3422 67 29.999 67C31.6559 67 32.999 68.3431 32.999 70C32.999 71.6569 31.6559 73 29.999 73C28.3422 73 26.999 71.6569 26.999 70Z" fill="#333333"/>
<path d="M39.998 67C38.3412 67 36.998 68.3431 36.998 70C36.998 71.6569 38.3412 73 39.998 73C41.6549 73 42.998 71.6569 42.998 70C42.998 68.3431 41.6549 67 39.998 67Z" fill="#EFEFEF"/>
<path fill-rule="evenodd" clip-rule="evenodd" d="M39.998 68C38.8935 68 37.998 68.8954 37.998 70C37.998 71.1046 38.8935 72 39.998 72C41.1026 72 41.998 71.1046 41.998 70C41.998 68.8954 41.1026 68 39.998 68ZM36.998 70C36.998 68.3431 38.3412 67 39.998 67C41.6549 67 42.998 68.3431 42.998 70C42.998 71.6569 41.6549 73 39.998 73C38.3412 73 36.998 71.6569 36.998 70Z" fill="#333333"/>
<path d="M20 76C18.3431 76 17 77.3431 17 79C17 80.6569 18.3431 82 20 82C21.6569 82 23 80.6569 23 79C23 77.3431 21.6569 76 20 76Z" fill="#EFEFEF"/>
<path fill-rule="evenodd" clip-rule="evenodd" d="M20 77C18.8954 77 18 77.8954 18 79C18 80.1046 18.8954 81 20 81C21.1046 81 22 80.1046 22 79C22 77.8954 21.1046 77 20 77ZM17 79C17 77.3431 18.3431 76 20 76C21.6569 76 23 77.3431 23 79C23 80.6569 21.6569 82 20 82C18.3431 82 17 80.6569 17 79Z" fill="#333333"/>
<path d="M29.999 76C28.3422 76 26.999 77.3431 26.999 79C26.999 80.6569 28.3422 82 29.999 82C31.6559 82 32.999 80.6569 32.999 79C32.999 77.3431 31.6559 76 29.999 76Z" fill="#EFEFEF"/>
<path fill-rule="evenodd" clip-rule="evenodd" d="M29.999 77C28.8945 77 27.999 77.8954 27.999 79C27.999 80.1046 28.8945 81 29.999 81C31.1036 81 31.999 80.1046 31.999 79C31.999 77.8954 31.1036 77 29.999 77ZM26.999 79C26.999 77.3431 28.3422 76 29.999 76C31.6559 76 32.999 77.3431 32.999 79C32.999 80.6569 31.6559 82 29.999 82C28.3422 82 26.999 80.6569 26.999 79Z" fill="#333333"/>
<path d="M39.999 76C38.3422 76 36.999 77.3431 36.999 79C36.999 80.6569 38.3422 82 39.999 82C41.6559 82 42.999 80.6569 42.999 79C42.999 77.3431 41.6559 76 39.999 76Z" fill="#EFEFEF"/>
<path fill-rule="evenodd" clip-rule="evenodd" d="M39.999 77C38.8945 77 37.999 77.8954 37.999 79C37.999 80.1046 38.8945 81 39.999 81C41.1036 81 41.999 80.1046 41.999 79C41.999 77.8954 41.1036 77 39.999 77ZM36.999 79C36.999 77.3431 38.3422 76 39.999 76C41.6559 76 42.999 77.3431 42.999 79C42.999 80.6569 41.6559 82 39.999 82C38.3422 82 36.999 80.6569 36.999 79Z" fill="#333333"/>
<path d="M37.001 52C37.001 50.3431 38.3441 49 40.001 49C41.6578 49 43.001 50.3431 43.001 52C43.001 53.6569 41.6578 55 40.001 55C38.3441 55 37.001 53.6569 37.001 52Z" fill="url(#paint0_linear_18147_130365)"/>
<defs>
<linearGradient id="paint0_linear_18147_130365" x1="37.001" y1="48.7656" x2="43.001" y2="55" gradientUnits="userSpaceOnUse">
<stop stop-color="#FFC671"/>
<stop offset="0.59375" stop-color="#FF7541"/>
<stop offset="1" stop-color="#FF6F3D"/>
</linearGradient>
</defs>
</svg>
