<svg width="100" height="100" viewBox="0 0 100 100" fill="none" xmlns="http://www.w3.org/2000/svg">
<path d="M0 55.5329C0 73.6718 20.7444 94 48.9426 94C77.1408 94 100 94.1015 100 64.9115C100 51.2125 93.6556 47.3981 82.1752 40.205C75.4072 35.9645 78.9273 29.8971 76.1329 21.4405C74.5627 16.6886 67.1707 8.16751 48.9426 7.05446C28.3988 5.80002 0 26.3428 0 55.5329Z" fill="#F1F9FF"/>
<path d="M87.5 24.6276V79.6261C87.5 81.0676 86.3263 82.2368 84.8775 82.2368H15.1225C13.6737 82.2368 12.5 81.0676 12.5 79.6261V24.6276C12.5 23.1854 13.6737 22.0169 15.1225 22.0169H19.2305V25.6718C19.2305 27.3995 20.9307 28.8042 23.0197 28.8042C25.1087 28.8042 26.8088 27.3987 26.8088 25.6718V22.0169H37.2177V25.6718C37.2177 27.3995 38.9178 28.8042 41.0068 28.8042C43.0958 28.8042 44.7959 27.3987 44.7959 25.6718V22.0169H55.2048V25.6718C55.2048 27.3995 56.905 28.8042 58.994 28.8042C61.083 28.8042 62.7831 27.3987 62.7831 25.6718V22.0169H73.192V25.6718C73.192 27.3995 74.8921 28.8042 76.9811 28.8042C79.0701 28.8042 80.7702 27.3987 80.7702 25.6718V22.0169H84.8783C86.3263 22.0169 87.5 23.1854 87.5 24.6276ZM81.2063 41.5099C81.2063 40.0684 80.0325 38.8991 78.5838 38.8991C75.8922 38.8991 24.0834 38.8991 21.4154 38.8991C19.9675 38.8991 18.7929 40.0676 18.7929 41.5099V72.6644C18.7929 74.1058 19.9667 75.2751 21.4154 75.2751H78.5838C80.0317 75.2751 81.2063 74.1066 81.2063 72.6644V41.5099Z" fill="#7DD5FD"/>
<path d="M36.7604 44.3678H40.3626C40.7082 44.3678 40.9895 44.6478 40.9895 44.992V48.578C40.9895 48.9222 40.7082 49.2022 40.3626 49.2022H36.7604C36.4147 49.2022 36.1335 48.9222 36.1335 48.578V44.992C36.1335 44.6478 36.4147 44.3678 36.7604 44.3678Z" fill="#576D91"/>
<path d="M48.1404 64.8549H51.7425C52.0882 64.8549 52.3694 65.1349 52.3694 65.479V69.0651C52.3694 69.4092 52.0882 69.6892 51.7425 69.6892H48.1404C47.7947 69.6892 47.5134 69.4092 47.5134 69.0651V65.479C47.5134 65.1349 47.7947 64.8549 48.1404 64.8549Z" fill="#576D91"/>
<path d="M48.1404 54.6114H51.7425C52.0882 54.6114 52.3694 54.8914 52.3694 55.2355V58.8215C52.3694 59.1657 52.0882 59.4457 51.7425 59.4457H48.1404C47.7947 59.4457 47.5134 59.1657 47.5134 58.8215V55.2355C47.5134 54.8914 47.7947 54.6114 48.1404 54.6114Z" fill="#576D91"/>
<path d="M59.5211 44.3678H63.1232C63.4689 44.3678 63.7502 44.6478 63.7502 44.992V48.578C63.7502 48.9222 63.4689 49.2022 63.1232 49.2022H59.5211C59.1754 49.2022 58.8942 48.9222 58.8942 48.578V44.992C58.8942 44.6478 59.1754 44.3678 59.5211 44.3678Z" fill="#576D91"/>
<path d="M36.7604 54.6114H40.3626C40.7082 54.6114 40.9895 54.8914 40.9895 55.2355V58.8215C40.9895 59.1657 40.7082 59.4457 40.3626 59.4457H36.7604C36.4147 59.4457 36.1335 59.1657 36.1335 58.8215V55.2355C36.1335 54.8914 36.4147 54.6114 36.7604 54.6114Z" fill="#576D91"/>
<path d="M48.1404 44.3678H51.7425C52.0882 44.3678 52.3694 44.6478 52.3694 44.992V48.578C52.3694 48.9222 52.0882 49.2022 51.7425 49.2022H48.1404C47.7947 49.2022 47.5134 48.9222 47.5134 48.578V44.992C47.5134 44.6478 47.7947 44.3678 48.1404 44.3678Z" fill="#576D91"/>
<path d="M59.5211 54.6114H63.1232C63.4689 54.6114 63.7502 54.8914 63.7502 55.2355V58.8215C63.7502 59.1657 63.4689 59.4457 63.1232 59.4457H59.5211C59.1754 59.4457 58.8942 59.1657 58.8942 58.8215V55.2355C58.8942 54.8914 59.1754 54.6114 59.5211 54.6114Z" fill="#576D91"/>
<path d="M59.5211 64.8549H63.1232C63.4689 64.8549 63.7502 65.1349 63.7502 65.479V69.0651C63.7502 69.4092 63.4689 69.6892 63.1232 69.6892H59.5211C59.1754 69.6892 58.8942 69.4092 58.8942 69.0651V65.479C58.8942 65.1349 59.1754 64.8549 59.5211 64.8549Z" fill="#576D91"/>
<path d="M25.3797 64.8549H28.9818C29.3275 64.8549 29.6088 65.1349 29.6088 65.479V69.0651C29.6088 69.4092 29.3275 69.6892 28.9818 69.6892H25.3797C25.034 69.6892 24.7527 69.4092 24.7527 69.0651V65.479C24.7527 65.1349 25.034 64.8549 25.3797 64.8549Z" fill="#576D91"/>
<path d="M70.901 44.3678H74.5032C74.8489 44.3678 75.1301 44.6478 75.1301 44.992V48.578C75.1301 48.9222 74.8489 49.2022 74.5032 49.2022H70.901C70.5553 49.2022 70.2741 48.9222 70.2741 48.578V44.992C70.2741 44.6478 70.5553 44.3678 70.901 44.3678Z" fill="#576D91"/>
<path d="M36.7604 64.8549H40.3626C40.7082 64.8549 40.9895 65.1349 40.9895 65.479V69.0651C40.9895 69.4092 40.7082 69.6892 40.3626 69.6892H36.7604C36.4147 69.6892 36.1335 69.4092 36.1335 69.0651V65.479C36.1335 65.1349 36.4147 64.8549 36.7604 64.8549Z" fill="#576D91"/>
<path d="M70.901 54.6114H74.5032C74.8489 54.6114 75.1301 54.8914 75.1301 55.2355V58.8215C75.1301 59.1657 74.8489 59.4457 74.5032 59.4457H70.901C70.5553 59.4457 70.2741 59.1657 70.2741 58.8215V55.2355C70.2741 54.8914 70.5553 54.6114 70.901 54.6114Z" fill="#576D91"/>
<path d="M25.3797 54.6114H28.9818C29.3275 54.6114 29.6088 54.8914 29.6088 55.2355V58.8215C29.6088 59.1657 29.3275 59.4457 28.9818 59.4457H25.3797C25.034 59.4457 24.7527 59.1657 24.7527 58.8215V55.2355C24.7527 54.8914 25.034 54.6114 25.3797 54.6114Z" fill="#576D91"/>
<path d="M26.8559 49.7066C27.4499 48.6992 31.4063 41.9823 32.0584 40.8756L31.0434 40.2929C30.5885 41.0625 27.3964 46.46 26.8559 47.3735L25.3373 44.8621L24.3222 45.4456L26.8559 49.7066Z" fill="#FF507D"/>
<path d="M30.9577 45.049L31.7536 43.6983C32.3554 44.579 32.7081 45.6419 32.7081 46.7854C32.7081 49.8192 30.2287 52.2876 27.1796 52.2876C24.1376 52.2876 21.6534 49.8224 21.6534 46.7854C21.6534 43.0624 25.3349 40.3696 28.93 41.567L28.2166 42.7738C25.8896 42.1802 23.5924 43.6608 23.1116 45.9258C22.6528 48.0876 23.9671 50.1696 26.02 50.7625C29.4572 51.755 32.4434 48.2472 30.9577 45.049Z" fill="#FF507D"/>
<path d="M43.4336 25.6718C43.4336 26.615 42.3385 27.412 41.0429 27.412C39.7474 27.412 38.6522 26.615 38.6522 25.6718V18.1876C38.6522 17.2444 39.7474 16.4474 41.0429 16.4474C42.3385 16.4474 43.4328 17.2444 43.4336 18.1876V25.6718Z" fill="#576D91"/>
<path d="M61.42 25.6718C61.42 26.615 60.3248 27.412 59.0293 27.412C57.7338 27.412 56.6394 26.615 56.6386 25.6718V18.1876C56.6386 17.2444 57.7338 16.4474 59.0293 16.4474C60.3256 16.4474 61.42 17.2444 61.42 18.1876V25.6718Z" fill="#576D91"/>
<path d="M79.4071 25.6718C79.4071 26.615 78.312 27.412 77.0164 27.412C75.7209 27.412 74.6258 26.615 74.6258 25.6718V18.1876C74.6258 17.2444 75.7209 16.4474 77.0164 16.4474C78.312 16.4474 79.4071 17.2444 79.4071 18.1876V25.6718Z" fill="#576D91"/>
<path d="M25.4465 25.6718C25.4465 26.615 24.3513 27.412 23.0558 27.412C21.7603 27.412 20.6651 26.615 20.6651 25.6718V18.1876C20.6651 17.2444 21.7603 16.4474 23.0558 16.4474C24.3513 16.4474 25.4465 17.2444 25.4465 18.1876V25.6718Z" fill="#576D91"/>
</svg>
