<svg width="100" height="100" viewBox="0 0 100 100" fill="none" xmlns="http://www.w3.org/2000/svg">
<path fill-rule="evenodd" clip-rule="evenodd" d="M9 13C6.23858 13 4 15.2113 4 17.939V88.061C4 90.7887 6.23858 93 9 93H91C93.7614 93 96 90.7887 96 88.061V17.939C96 15.2113 93.7614 13 91 13H9Z" fill="white"/>
<path d="M5 17C5 14.0412 7.74005 13 9 13L91 13C93.9843 13 95.0002 15.0847 95.0002 17V29H5V17Z" fill="#CCE9FF"/>
<path fill-rule="evenodd" clip-rule="evenodd" d="M62.991 12.0001H35.9915V13.0001H62.991V12.0001ZM74.0036 13L91 13.0001C93.2091 13.0001 95 14.7909 95 17.0001V89C95 91.2092 93.2091 93 91 93H9C6.79086 93 5 91.2092 5 89V17.0001C5 14.7909 6.79086 13.0001 9 13.0001H25.0159V12.0001H9C6.23858 12.0001 4 14.2386 4 17.0001V89C4 91.7615 6.23858 94 9 94H91C93.7614 94 96 91.7615 96 89V17.0001C96 14.2386 93.7614 12.0001 91 12.0001L74.0036 12V13Z" fill="#333333"/>
<path fill-rule="evenodd" clip-rule="evenodd" d="M67 6.54135C67 6.24237 66.7761 6 66.5 6C66.2239 6 66 6.24237 66 6.54135V12V17.4586C66 17.7576 66.2239 18 66.5 18C66.7761 18 67 17.7576 67 17.4586V6.54135ZM71 6.54135C71 6.24237 70.7761 6 70.5 6C70.2239 6 70 6.24237 70 6.54135V12V17.4586C70 17.7576 70.2239 18 70.5 18C70.7761 18 71 17.7576 71 17.4586V6.54135Z" fill="#333333"/>
<path fill-rule="evenodd" clip-rule="evenodd" d="M29 6.54135C29 6.24237 28.7761 6 28.5 6C28.2239 6 28 6.24237 28 6.54135V12V17.4586C28 17.7576 28.2239 18 28.5 18C28.7761 18 29 17.7576 29 17.4586V6.54135ZM33 6.54135C33 6.24237 32.7761 6 32.5 6C32.2239 6 32 6.24237 32 6.54135V12V17.4586C32 17.7576 32.2239 18 32.5 18C32.7761 18 33 17.7576 33 17.4586V6.54135Z" fill="#333333"/>
<path fill-rule="evenodd" clip-rule="evenodd" d="M12.0001 24.5C12.0001 24.2239 12 24 12 24H88.0002V25H12.0002C12.0002 25 12.0001 24.7761 12.0001 24.5Z" fill="#333333"/>
<path d="M49.9995 49.0001C48.3427 49.0001 46.9995 50.3433 46.9995 52.0001C46.9995 53.657 48.3427 55.0001 49.9995 55.0001C51.6564 55.0001 52.9995 53.657 52.9995 52.0001C52.9995 50.3433 51.6564 49.0001 49.9995 49.0001Z" fill="#EFEFEF"/>
<path fill-rule="evenodd" clip-rule="evenodd" d="M49.9995 50.0001C48.8949 50.0001 47.9995 50.8956 47.9995 52.0001C47.9995 53.1047 48.8949 54.0001 49.9995 54.0001C51.1041 54.0001 51.9995 53.1047 51.9995 52.0001C51.9995 50.8956 51.1041 50.0001 49.9995 50.0001ZM46.9995 52.0001C46.9995 50.3433 48.3427 49.0001 49.9995 49.0001C51.6564 49.0001 52.9995 50.3433 52.9995 52.0001C52.9995 53.657 51.6564 55.0001 49.9995 55.0001C48.3427 55.0001 46.9995 53.657 46.9995 52.0001Z" fill="#333333"/>
<path d="M59.9985 49.0001C58.3417 49.0001 56.9985 50.3433 56.9985 52.0001C56.9985 53.657 58.3417 55.0001 59.9985 55.0001C61.6554 55.0001 62.9985 53.657 62.9985 52.0001C62.9985 50.3433 61.6554 49.0001 59.9985 49.0001Z" fill="#EFEFEF"/>
<path fill-rule="evenodd" clip-rule="evenodd" d="M59.9985 50.0001C58.894 50.0001 57.9985 50.8956 57.9985 52.0001C57.9985 53.1047 58.894 54.0001 59.9985 54.0001C61.1031 54.0001 61.9985 53.1047 61.9985 52.0001C61.9985 50.8956 61.1031 50.0001 59.9985 50.0001ZM56.9985 52.0001C56.9985 50.3433 58.3417 49.0001 59.9985 49.0001C61.6554 49.0001 62.9985 50.3433 62.9985 52.0001C62.9985 53.657 61.6554 55.0001 59.9985 55.0001C58.3417 55.0001 56.9985 53.657 56.9985 52.0001Z" fill="#333333"/>
<path d="M19.9995 49.0001C18.3427 49.0001 16.9995 50.3433 16.9995 52.0001C16.9995 53.657 18.3427 55.0001 19.9995 55.0001C21.6564 55.0001 22.9995 53.657 22.9995 52.0001C22.9995 50.3433 21.6564 49.0001 19.9995 49.0001Z" fill="#EFEFEF"/>
<path fill-rule="evenodd" clip-rule="evenodd" d="M19.9995 50.0001C18.8949 50.0001 17.9995 50.8956 17.9995 52.0001C17.9995 53.1047 18.8949 54.0001 19.9995 54.0001C21.1041 54.0001 21.9995 53.1047 21.9995 52.0001C21.9995 50.8956 21.1041 50.0001 19.9995 50.0001ZM16.9995 52.0001C16.9995 50.3433 18.3427 49.0001 19.9995 49.0001C21.6564 49.0001 22.9995 50.3433 22.9995 52.0001C22.9995 53.657 21.6564 55.0001 19.9995 55.0001C18.3427 55.0001 16.9995 53.657 16.9995 52.0001Z" fill="#333333"/>
<path d="M29.9985 49.0001C28.3417 49.0001 26.9985 50.3433 26.9985 52.0001C26.9985 53.657 28.3417 55.0001 29.9985 55.0001C31.6554 55.0001 32.9985 53.657 32.9985 52.0001C32.9985 50.3433 31.6554 49.0001 29.9985 49.0001Z" fill="#EFEFEF"/>
<path fill-rule="evenodd" clip-rule="evenodd" d="M29.9985 50.0001C28.894 50.0001 27.9985 50.8956 27.9985 52.0001C27.9985 53.1047 28.894 54.0001 29.9985 54.0001C31.1031 54.0001 31.9985 53.1047 31.9985 52.0001C31.9985 50.8956 31.1031 50.0001 29.9985 50.0001ZM26.9985 52.0001C26.9985 50.3433 28.3417 49.0001 29.9985 49.0001C31.6554 49.0001 32.9985 50.3433 32.9985 52.0001C32.9985 53.657 31.6554 55.0001 29.9985 55.0001C28.3417 55.0001 26.9985 53.657 26.9985 52.0001Z" fill="#333333"/>
<path d="M69.9976 49.0001C68.3407 49.0001 66.9976 50.3433 66.9976 52.0001C66.9976 53.657 68.3407 55.0001 69.9976 55.0001C71.6544 55.0001 72.9976 53.657 72.9976 52.0001C72.9976 50.3433 71.6544 49.0001 69.9976 49.0001Z" fill="#EFEFEF"/>
<path fill-rule="evenodd" clip-rule="evenodd" d="M69.9976 50.0001C68.893 50.0001 67.9976 50.8956 67.9976 52.0001C67.9976 53.1047 68.893 54.0001 69.9976 54.0001C71.1021 54.0001 71.9976 53.1047 71.9976 52.0001C71.9976 50.8956 71.1021 50.0001 69.9976 50.0001ZM66.9976 52.0001C66.9976 50.3433 68.3407 49.0001 69.9976 49.0001C71.6544 49.0001 72.9976 50.3433 72.9976 52.0001C72.9976 53.657 71.6544 55.0001 69.9976 55.0001C68.3407 55.0001 66.9976 53.657 66.9976 52.0001Z" fill="#333333"/>
<path d="M80.0005 49.0001C78.3436 49.0001 77.0005 50.3433 77.0005 52.0001C77.0005 53.657 78.3436 55.0001 80.0005 55.0001C81.6573 55.0001 83.0005 53.657 83.0005 52.0001C83.0005 50.3433 81.6573 49.0001 80.0005 49.0001Z" fill="#EFEFEF"/>
<path fill-rule="evenodd" clip-rule="evenodd" d="M80.0005 50.0001C78.8959 50.0001 78.0005 50.8956 78.0005 52.0001C78.0005 53.1047 78.8959 54.0001 80.0005 54.0001C81.1051 54.0001 82.0005 53.1047 82.0005 52.0001C82.0005 50.8956 81.1051 50.0001 80.0005 50.0001ZM77.0005 52.0001C77.0005 50.3433 78.3436 49.0001 80.0005 49.0001C81.6573 49.0001 83.0005 50.3433 83.0005 52.0001C83.0005 53.657 81.6573 55.0001 80.0005 55.0001C78.3436 55.0001 77.0005 53.657 77.0005 52.0001Z" fill="#333333"/>
<path d="M49.9995 39.0001C48.3427 39.0001 46.9995 40.3433 46.9995 42.0001C46.9995 43.657 48.3427 45.0001 49.9995 45.0001C51.6564 45.0001 52.9995 43.657 52.9995 42.0001C52.9995 40.3433 51.6564 39.0001 49.9995 39.0001Z" fill="#EFEFEF"/>
<path fill-rule="evenodd" clip-rule="evenodd" d="M49.9995 40.0001C48.8949 40.0001 47.9995 40.8956 47.9995 42.0001C47.9995 43.1047 48.8949 44.0001 49.9995 44.0001C51.1041 44.0001 51.9995 43.1047 51.9995 42.0001C51.9995 40.8956 51.1041 40.0001 49.9995 40.0001ZM46.9995 42.0001C46.9995 40.3433 48.3427 39.0001 49.9995 39.0001C51.6564 39.0001 52.9995 40.3433 52.9995 42.0001C52.9995 43.657 51.6564 45.0001 49.9995 45.0001C48.3427 45.0001 46.9995 43.657 46.9995 42.0001Z" fill="#333333"/>
<path d="M59.9985 39.0001C58.3417 39.0001 56.9985 40.3433 56.9985 42.0001C56.9985 43.657 58.3417 45.0001 59.9985 45.0001C61.6554 45.0001 62.9985 43.657 62.9985 42.0001C62.9985 40.3433 61.6554 39.0001 59.9985 39.0001Z" fill="#EFEFEF"/>
<path fill-rule="evenodd" clip-rule="evenodd" d="M59.9985 40.0001C58.894 40.0001 57.9985 40.8956 57.9985 42.0001C57.9985 43.1047 58.894 44.0001 59.9985 44.0001C61.1031 44.0001 61.9985 43.1047 61.9985 42.0001C61.9985 40.8956 61.1031 40.0001 59.9985 40.0001ZM56.9985 42.0001C56.9985 40.3433 58.3417 39.0001 59.9985 39.0001C61.6554 39.0001 62.9985 40.3433 62.9985 42.0001C62.9985 43.657 61.6554 45.0001 59.9985 45.0001C58.3417 45.0001 56.9985 43.657 56.9985 42.0001Z" fill="#333333"/>
<path d="M69.9976 39.0001C68.3407 39.0001 66.9976 40.3433 66.9976 42.0001C66.9976 43.657 68.3407 45.0001 69.9976 45.0001C71.6544 45.0001 72.9976 43.657 72.9976 42.0001C72.9976 40.3433 71.6544 39.0001 69.9976 39.0001Z" fill="#EFEFEF"/>
<path fill-rule="evenodd" clip-rule="evenodd" d="M69.9976 40.0001C68.893 40.0001 67.9976 40.8956 67.9976 42.0001C67.9976 43.1047 68.893 44.0001 69.9976 44.0001C71.1021 44.0001 71.9976 43.1047 71.9976 42.0001C71.9976 40.8956 71.1021 40.0001 69.9976 40.0001ZM66.9976 42.0001C66.9976 40.3433 68.3407 39.0001 69.9976 39.0001C71.6544 39.0001 72.9976 40.3433 72.9976 42.0001C72.9976 43.657 71.6544 45.0001 69.9976 45.0001C68.3407 45.0001 66.9976 43.657 66.9976 42.0001Z" fill="#333333"/>
<path d="M80.0005 39.0001C78.3436 39.0001 77.0005 40.3433 77.0005 42.0001C77.0005 43.657 78.3436 45.0001 80.0005 45.0001C81.6573 45.0001 83.0005 43.657 83.0005 42.0001C83.0005 40.3433 81.6573 39.0001 80.0005 39.0001Z" fill="#EFEFEF"/>
<path fill-rule="evenodd" clip-rule="evenodd" d="M80.0005 40.0001C78.8959 40.0001 78.0005 40.8956 78.0005 42.0001C78.0005 43.1047 78.8959 44.0001 80.0005 44.0001C81.1051 44.0001 82.0005 43.1047 82.0005 42.0001C82.0005 40.8956 81.1051 40.0001 80.0005 40.0001ZM77.0005 42.0001C77.0005 40.3433 78.3436 39.0001 80.0005 39.0001C81.6573 39.0001 83.0005 40.3433 83.0005 42.0001C83.0005 43.657 81.6573 45.0001 80.0005 45.0001C78.3436 45.0001 77.0005 43.657 77.0005 42.0001Z" fill="#333333"/>
<path d="M49.9995 58.0001C48.3427 58.0001 46.9995 59.3433 46.9995 61.0001C46.9995 62.657 48.3427 64.0001 49.9995 64.0001C51.6564 64.0001 52.9995 62.657 52.9995 61.0001C52.9995 59.3433 51.6564 58.0001 49.9995 58.0001Z" fill="#EFEFEF"/>
<path fill-rule="evenodd" clip-rule="evenodd" d="M49.9995 59.0001C48.8949 59.0001 47.9995 59.8956 47.9995 61.0001C47.9995 62.1047 48.8949 63.0001 49.9995 63.0001C51.1041 63.0001 51.9995 62.1047 51.9995 61.0001C51.9995 59.8956 51.1041 59.0001 49.9995 59.0001ZM46.9995 61.0001C46.9995 59.3433 48.3427 58.0001 49.9995 58.0001C51.6564 58.0001 52.9995 59.3433 52.9995 61.0001C52.9995 62.657 51.6564 64.0001 49.9995 64.0001C48.3427 64.0001 46.9995 62.657 46.9995 61.0001Z" fill="#333333"/>
<path d="M59.9985 58.0001C58.3417 58.0001 56.9985 59.3433 56.9985 61.0001C56.9985 62.657 58.3417 64.0001 59.9985 64.0001C61.6554 64.0001 62.9985 62.657 62.9985 61.0001C62.9985 59.3433 61.6554 58.0001 59.9985 58.0001Z" fill="#EFEFEF"/>
<path fill-rule="evenodd" clip-rule="evenodd" d="M59.9985 59.0001C58.894 59.0001 57.9985 59.8956 57.9985 61.0001C57.9985 62.1047 58.894 63.0001 59.9985 63.0001C61.1031 63.0001 61.9985 62.1047 61.9985 61.0001C61.9985 59.8956 61.1031 59.0001 59.9985 59.0001ZM56.9985 61.0001C56.9985 59.3433 58.3417 58.0001 59.9985 58.0001C61.6554 58.0001 62.9985 59.3433 62.9985 61.0001C62.9985 62.657 61.6554 64.0001 59.9985 64.0001C58.3417 64.0001 56.9985 62.657 56.9985 61.0001Z" fill="#333333"/>
<path d="M69.9976 58.0001C68.3407 58.0001 66.9976 59.3433 66.9976 61.0001C66.9976 62.657 68.3407 64.0001 69.9976 64.0001C71.6544 64.0001 72.9976 62.657 72.9976 61.0001C72.9976 59.3433 71.6544 58.0001 69.9976 58.0001Z" fill="#EFEFEF"/>
<path fill-rule="evenodd" clip-rule="evenodd" d="M69.9976 59.0001C68.893 59.0001 67.9976 59.8956 67.9976 61.0001C67.9976 62.1047 68.893 63.0001 69.9976 63.0001C71.1021 63.0001 71.9976 62.1047 71.9976 61.0001C71.9976 59.8956 71.1021 59.0001 69.9976 59.0001ZM66.9976 61.0001C66.9976 59.3433 68.3407 58.0001 69.9976 58.0001C71.6544 58.0001 72.9976 59.3433 72.9976 61.0001C72.9976 62.657 71.6544 64.0001 69.9976 64.0001C68.3407 64.0001 66.9976 62.657 66.9976 61.0001Z" fill="#333333"/>
<path d="M80.0005 58.0001C78.3436 58.0001 77.0005 59.3433 77.0005 61.0001C77.0005 62.657 78.3436 64.0001 80.0005 64.0001C81.6573 64.0001 83.0005 62.657 83.0005 61.0001C83.0005 59.3433 81.6573 58.0001 80.0005 58.0001Z" fill="#EFEFEF"/>
<path fill-rule="evenodd" clip-rule="evenodd" d="M80.0005 59.0001C78.8959 59.0001 78.0005 59.8956 78.0005 61.0001C78.0005 62.1047 78.8959 63.0001 80.0005 63.0001C81.1051 63.0001 82.0005 62.1047 82.0005 61.0001C82.0005 59.8956 81.1051 59.0001 80.0005 59.0001ZM77.0005 61.0001C77.0005 59.3433 78.3436 58.0001 80.0005 58.0001C81.6573 58.0001 83.0005 59.3433 83.0005 61.0001C83.0005 62.657 81.6573 64.0001 80.0005 64.0001C78.3436 64.0001 77.0005 62.657 77.0005 61.0001Z" fill="#333333"/>
<path d="M49.9995 67.0001C48.3427 67.0001 46.9995 68.3433 46.9995 70.0001C46.9995 71.657 48.3427 73.0001 49.9995 73.0001C51.6564 73.0001 52.9995 71.657 52.9995 70.0001C52.9995 68.3433 51.6564 67.0001 49.9995 67.0001Z" fill="#EFEFEF"/>
<path fill-rule="evenodd" clip-rule="evenodd" d="M49.9995 68.0001C48.8949 68.0001 47.9995 68.8956 47.9995 70.0001C47.9995 71.1047 48.8949 72.0001 49.9995 72.0001C51.1041 72.0001 51.9995 71.1047 51.9995 70.0001C51.9995 68.8956 51.1041 68.0001 49.9995 68.0001ZM46.9995 70.0001C46.9995 68.3433 48.3427 67.0001 49.9995 67.0001C51.6564 67.0001 52.9995 68.3433 52.9995 70.0001C52.9995 71.657 51.6564 73.0001 49.9995 73.0001C48.3427 73.0001 46.9995 71.657 46.9995 70.0001Z" fill="#333333"/>
<path d="M59.9985 67.0001C58.3417 67.0001 56.9985 68.3433 56.9985 70.0001C56.9985 71.657 58.3417 73.0001 59.9985 73.0001C61.6554 73.0001 62.9985 71.657 62.9985 70.0001C62.9985 68.3433 61.6554 67.0001 59.9985 67.0001Z" fill="#EFEFEF"/>
<path fill-rule="evenodd" clip-rule="evenodd" d="M59.9985 68.0001C58.894 68.0001 57.9985 68.8956 57.9985 70.0001C57.9985 71.1047 58.894 72.0001 59.9985 72.0001C61.1031 72.0001 61.9985 71.1047 61.9985 70.0001C61.9985 68.8956 61.1031 68.0001 59.9985 68.0001ZM56.9985 70.0001C56.9985 68.3433 58.3417 67.0001 59.9985 67.0001C61.6554 67.0001 62.9985 68.3433 62.9985 70.0001C62.9985 71.657 61.6554 73.0001 59.9985 73.0001C58.3417 73.0001 56.9985 71.657 56.9985 70.0001Z" fill="#333333"/>
<path d="M69.9976 67.0001C68.3407 67.0001 66.9976 68.3433 66.9976 70.0001C66.9976 71.657 68.3407 73.0001 69.9976 73.0001C71.6544 73.0001 72.9976 71.657 72.9976 70.0001C72.9976 68.3433 71.6544 67.0001 69.9976 67.0001Z" fill="#EFEFEF"/>
<path fill-rule="evenodd" clip-rule="evenodd" d="M69.9976 68.0001C68.893 68.0001 67.9976 68.8956 67.9976 70.0001C67.9976 71.1047 68.893 72.0001 69.9976 72.0001C71.1021 72.0001 71.9976 71.1047 71.9976 70.0001C71.9976 68.8956 71.1021 68.0001 69.9976 68.0001ZM66.9976 70.0001C66.9976 68.3433 68.3407 67.0001 69.9976 67.0001C71.6544 67.0001 72.9976 68.3433 72.9976 70.0001C72.9976 71.657 71.6544 73.0001 69.9976 73.0001C68.3407 73.0001 66.9976 71.657 66.9976 70.0001Z" fill="#333333"/>
<path d="M80.0005 67.0001C78.3436 67.0001 77.0005 68.3433 77.0005 70.0001C77.0005 71.657 78.3436 73.0001 80.0005 73.0001C81.6573 73.0001 83.0005 71.657 83.0005 70.0001C83.0005 68.3433 81.6573 67.0001 80.0005 67.0001Z" fill="#EFEFEF"/>
<path fill-rule="evenodd" clip-rule="evenodd" d="M80.0005 68.0001C78.8959 68.0001 78.0005 68.8956 78.0005 70.0001C78.0005 71.1047 78.8959 72.0001 80.0005 72.0001C81.1051 72.0001 82.0005 71.1047 82.0005 70.0001C82.0005 68.8956 81.1051 68.0001 80.0005 68.0001ZM77.0005 70.0001C77.0005 68.3433 78.3436 67.0001 80.0005 67.0001C81.6573 67.0001 83.0005 68.3433 83.0005 70.0001C83.0005 71.657 81.6573 73.0001 80.0005 73.0001C78.3436 73.0001 77.0005 71.657 77.0005 70.0001Z" fill="#333333"/>
<path d="M49.9995 76.0001C48.3427 76.0001 46.9995 77.3433 46.9995 79.0001C46.9995 80.657 48.3427 82.0001 49.9995 82.0001C51.6564 82.0001 52.9995 80.657 52.9995 79.0001C52.9995 77.3433 51.6564 76.0001 49.9995 76.0001Z" fill="#EFEFEF"/>
<path fill-rule="evenodd" clip-rule="evenodd" d="M49.9995 77.0001C48.8949 77.0001 47.9995 77.8956 47.9995 79.0001C47.9995 80.1047 48.8949 81.0001 49.9995 81.0001C51.1041 81.0001 51.9995 80.1047 51.9995 79.0001C51.9995 77.8956 51.1041 77.0001 49.9995 77.0001ZM46.9995 79.0001C46.9995 77.3433 48.3427 76.0001 49.9995 76.0001C51.6564 76.0001 52.9995 77.3433 52.9995 79.0001C52.9995 80.657 51.6564 82.0001 49.9995 82.0001C48.3427 82.0001 46.9995 80.657 46.9995 79.0001Z" fill="#333333"/>
<path d="M59.9985 76.0001C58.3417 76.0001 56.9985 77.3433 56.9985 79.0001C56.9985 80.657 58.3417 82.0001 59.9985 82.0001C61.6554 82.0001 62.9985 80.657 62.9985 79.0001C62.9985 77.3433 61.6554 76.0001 59.9985 76.0001Z" fill="#EFEFEF"/>
<path fill-rule="evenodd" clip-rule="evenodd" d="M59.9985 77.0001C58.894 77.0001 57.9985 77.8956 57.9985 79.0001C57.9985 80.1047 58.894 81.0001 59.9985 81.0001C61.1031 81.0001 61.9985 80.1047 61.9985 79.0001C61.9985 77.8956 61.1031 77.0001 59.9985 77.0001ZM56.9985 79.0001C56.9985 77.3433 58.3417 76.0001 59.9985 76.0001C61.6554 76.0001 62.9985 77.3433 62.9985 79.0001C62.9985 80.657 61.6554 82.0001 59.9985 82.0001C58.3417 82.0001 56.9985 80.657 56.9985 79.0001Z" fill="#333333"/>
<path d="M19.9995 58.0001C18.3427 58.0001 16.9995 59.3433 16.9995 61.0001C16.9995 62.657 18.3427 64.0001 19.9995 64.0001C21.6564 64.0001 22.9995 62.657 22.9995 61.0001C22.9995 59.3433 21.6564 58.0001 19.9995 58.0001Z" fill="#EFEFEF"/>
<path fill-rule="evenodd" clip-rule="evenodd" d="M19.9995 59.0001C18.8949 59.0001 17.9995 59.8956 17.9995 61.0001C17.9995 62.1047 18.8949 63.0001 19.9995 63.0001C21.1041 63.0001 21.9995 62.1047 21.9995 61.0001C21.9995 59.8956 21.1041 59.0001 19.9995 59.0001ZM16.9995 61.0001C16.9995 59.3433 18.3427 58.0001 19.9995 58.0001C21.6564 58.0001 22.9995 59.3433 22.9995 61.0001C22.9995 62.657 21.6564 64.0001 19.9995 64.0001C18.3427 64.0001 16.9995 62.657 16.9995 61.0001Z" fill="#333333"/>
<path d="M29.9985 58.0001C28.3417 58.0001 26.9985 59.3433 26.9985 61.0001C26.9985 62.657 28.3417 64.0001 29.9985 64.0001C31.6554 64.0001 32.9985 62.657 32.9985 61.0001C32.9985 59.3433 31.6554 58.0001 29.9985 58.0001Z" fill="#EFEFEF"/>
<path fill-rule="evenodd" clip-rule="evenodd" d="M29.9985 59.0001C28.894 59.0001 27.9985 59.8956 27.9985 61.0001C27.9985 62.1047 28.894 63.0001 29.9985 63.0001C31.1031 63.0001 31.9985 62.1047 31.9985 61.0001C31.9985 59.8956 31.1031 59.0001 29.9985 59.0001ZM26.9985 61.0001C26.9985 59.3433 28.3417 58.0001 29.9985 58.0001C31.6554 58.0001 32.9985 59.3433 32.9985 61.0001C32.9985 62.657 31.6554 64.0001 29.9985 64.0001C28.3417 64.0001 26.9985 62.657 26.9985 61.0001Z" fill="#333333"/>
<path d="M39.9976 58.0001C38.3407 58.0001 36.9976 59.3433 36.9976 61.0001C36.9976 62.657 38.3407 64.0001 39.9976 64.0001C41.6544 64.0001 42.9976 62.657 42.9976 61.0001C42.9976 59.3433 41.6544 58.0001 39.9976 58.0001Z" fill="#EFEFEF"/>
<path fill-rule="evenodd" clip-rule="evenodd" d="M39.9976 59.0001C38.893 59.0001 37.9976 59.8956 37.9976 61.0001C37.9976 62.1047 38.893 63.0001 39.9976 63.0001C41.1021 63.0001 41.9976 62.1047 41.9976 61.0001C41.9976 59.8956 41.1021 59.0001 39.9976 59.0001ZM36.9976 61.0001C36.9976 59.3433 38.3407 58.0001 39.9976 58.0001C41.6544 58.0001 42.9976 59.3433 42.9976 61.0001C42.9976 62.657 41.6544 64.0001 39.9976 64.0001C38.3407 64.0001 36.9976 62.657 36.9976 61.0001Z" fill="#333333"/>
<path d="M19.9995 67.0001C18.3427 67.0001 16.9995 68.3433 16.9995 70.0001C16.9995 71.657 18.3427 73.0001 19.9995 73.0001C21.6564 73.0001 22.9995 71.657 22.9995 70.0001C22.9995 68.3433 21.6564 67.0001 19.9995 67.0001Z" fill="#EFEFEF"/>
<path fill-rule="evenodd" clip-rule="evenodd" d="M19.9995 68.0001C18.8949 68.0001 17.9995 68.8956 17.9995 70.0001C17.9995 71.1047 18.8949 72.0001 19.9995 72.0001C21.1041 72.0001 21.9995 71.1047 21.9995 70.0001C21.9995 68.8956 21.1041 68.0001 19.9995 68.0001ZM16.9995 70.0001C16.9995 68.3433 18.3427 67.0001 19.9995 67.0001C21.6564 67.0001 22.9995 68.3433 22.9995 70.0001C22.9995 71.657 21.6564 73.0001 19.9995 73.0001C18.3427 73.0001 16.9995 71.657 16.9995 70.0001Z" fill="#333333"/>
<path d="M29.9985 67.0001C28.3417 67.0001 26.9985 68.3433 26.9985 70.0001C26.9985 71.657 28.3417 73.0001 29.9985 73.0001C31.6554 73.0001 32.9985 71.657 32.9985 70.0001C32.9985 68.3433 31.6554 67.0001 29.9985 67.0001Z" fill="#EFEFEF"/>
<path fill-rule="evenodd" clip-rule="evenodd" d="M29.9985 68.0001C28.894 68.0001 27.9985 68.8956 27.9985 70.0001C27.9985 71.1047 28.894 72.0001 29.9985 72.0001C31.1031 72.0001 31.9985 71.1047 31.9985 70.0001C31.9985 68.8956 31.1031 68.0001 29.9985 68.0001ZM26.9985 70.0001C26.9985 68.3433 28.3417 67.0001 29.9985 67.0001C31.6554 67.0001 32.9985 68.3433 32.9985 70.0001C32.9985 71.657 31.6554 73.0001 29.9985 73.0001C28.3417 73.0001 26.9985 71.657 26.9985 70.0001Z" fill="#333333"/>
<path d="M39.9976 67.0001C38.3407 67.0001 36.9976 68.3433 36.9976 70.0001C36.9976 71.657 38.3407 73.0001 39.9976 73.0001C41.6544 73.0001 42.9976 71.657 42.9976 70.0001C42.9976 68.3433 41.6544 67.0001 39.9976 67.0001Z" fill="#EFEFEF"/>
<path fill-rule="evenodd" clip-rule="evenodd" d="M39.9976 68.0001C38.893 68.0001 37.9976 68.8956 37.9976 70.0001C37.9976 71.1047 38.893 72.0001 39.9976 72.0001C41.1021 72.0001 41.9976 71.1047 41.9976 70.0001C41.9976 68.8956 41.1021 68.0001 39.9976 68.0001ZM36.9976 70.0001C36.9976 68.3433 38.3407 67.0001 39.9976 67.0001C41.6544 67.0001 42.9976 68.3433 42.9976 70.0001C42.9976 71.657 41.6544 73.0001 39.9976 73.0001C38.3407 73.0001 36.9976 71.657 36.9976 70.0001Z" fill="#333333"/>
<path d="M19.9995 76.0001C18.3427 76.0001 16.9995 77.3433 16.9995 79.0001C16.9995 80.657 18.3427 82.0001 19.9995 82.0001C21.6564 82.0001 22.9995 80.657 22.9995 79.0001C22.9995 77.3433 21.6564 76.0001 19.9995 76.0001Z" fill="#EFEFEF"/>
<path fill-rule="evenodd" clip-rule="evenodd" d="M19.9995 77.0001C18.8949 77.0001 17.9995 77.8956 17.9995 79.0001C17.9995 80.1047 18.8949 81.0001 19.9995 81.0001C21.1041 81.0001 21.9995 80.1047 21.9995 79.0001C21.9995 77.8956 21.1041 77.0001 19.9995 77.0001ZM16.9995 79.0001C16.9995 77.3433 18.3427 76.0001 19.9995 76.0001C21.6564 76.0001 22.9995 77.3433 22.9995 79.0001C22.9995 80.657 21.6564 82.0001 19.9995 82.0001C18.3427 82.0001 16.9995 80.657 16.9995 79.0001Z" fill="#333333"/>
<path d="M29.9985 76.0001C28.3417 76.0001 26.9985 77.3433 26.9985 79.0001C26.9985 80.657 28.3417 82.0001 29.9985 82.0001C31.6554 82.0001 32.9985 80.657 32.9985 79.0001C32.9985 77.3433 31.6554 76.0001 29.9985 76.0001Z" fill="#EFEFEF"/>
<path fill-rule="evenodd" clip-rule="evenodd" d="M29.9985 77.0001C28.894 77.0001 27.9985 77.8956 27.9985 79.0001C27.9985 80.1047 28.894 81.0001 29.9985 81.0001C31.1031 81.0001 31.9985 80.1047 31.9985 79.0001C31.9985 77.8956 31.1031 77.0001 29.9985 77.0001ZM26.9985 79.0001C26.9985 77.3433 28.3417 76.0001 29.9985 76.0001C31.6554 76.0001 32.9985 77.3433 32.9985 79.0001C32.9985 80.657 31.6554 82.0001 29.9985 82.0001C28.3417 82.0001 26.9985 80.657 26.9985 79.0001Z" fill="#333333"/>
<path d="M39.9985 76.0001C38.3417 76.0001 36.9985 77.3433 36.9985 79.0001C36.9985 80.657 38.3417 82.0001 39.9985 82.0001C41.6554 82.0001 42.9985 80.657 42.9985 79.0001C42.9985 77.3433 41.6554 76.0001 39.9985 76.0001Z" fill="#EFEFEF"/>
<path fill-rule="evenodd" clip-rule="evenodd" d="M39.9985 77.0001C38.894 77.0001 37.9985 77.8956 37.9985 79.0001C37.9985 80.1047 38.894 81.0001 39.9985 81.0001C41.1031 81.0001 41.9985 80.1047 41.9985 79.0001C41.9985 77.8956 41.1031 77.0001 39.9985 77.0001ZM36.9985 79.0001C36.9985 77.3433 38.3417 76.0001 39.9985 76.0001C41.6554 76.0001 42.9985 77.3433 42.9985 79.0001C42.9985 80.657 41.6554 82.0001 39.9985 82.0001C38.3417 82.0001 36.9985 80.657 36.9985 79.0001Z" fill="#333333"/>
<path d="M37.0005 52C37.0005 50.3431 38.3436 49 40.0005 49C41.6573 49 43.0005 50.3431 43.0005 52C43.0005 53.6569 41.6573 55 40.0005 55C38.3436 55 37.0005 53.6569 37.0005 52Z" fill="url(#paint0_linear)"/>
<defs>
<linearGradient id="paint0_linear" x1="37.0005" y1="48.7656" x2="43.0005" y2="55" gradientUnits="userSpaceOnUse">
<stop stop-color="#FFC671"/>
<stop offset="0.59375" stop-color="#FF7541"/>
<stop offset="1" stop-color="#FF6F3D"/>
</linearGradient>
</defs>
</svg>
