<svg width="32" height="32" viewBox="0 0 32 32" fill="none" xmlns="http://www.w3.org/2000/svg">
<g clip-path="url(#clip0_125_5597)">
<path fill-rule="evenodd" clip-rule="evenodd" d="M24 2.96497C24 1.95837 22.9484 1 22.0096 1L6.85971 1L0 8.21633V27.8809C0 28.799 1.10397 30.0001 2.04274 30.0001H21.8454C22.7842 30.0001 24 28.6954 24 27.7773V2.96497Z" fill="#FEFEFE"/>
<path fill-rule="evenodd" clip-rule="evenodd" d="M6.63715 1.14649C6.73099 1.05261 6.85834 0.999897 6.99112 1L22.0098 1.01171C23.1579 1.01191 25 1.92796 25 3.00086V12.2421C25 12.518 24.7763 12.7416 24.5002 12.7416C24.2242 12.7416 24.0005 12.518 24.0005 12.2421V3.00086C24.0005 2.45663 22.5834 2.01067 22.0098 2.01067L7.19774 1.99913L0.999512 8.20092V27.8928C0.999512 28.5013 1.50663 29.0009 2.20269 29.001L21.5258 28.9869C22.674 28.9869 23.9829 28.8085 23.9829 27.4403V23.9762C23.9829 23.7004 24.2067 23.4767 24.4827 23.4767C24.7587 23.4767 24.9824 23.7004 24.9824 23.9762V27.4403C24.9824 29.3838 23.2456 29.9857 21.5265 29.9859M21.5265 29.9859L2.20337 30C1.02296 30 0 29.1185 0 27.8928V7.9942C0 7.86182 0.0525758 7.73486 0.146177 7.64121L6.63715 1.14649" fill="#333333"/>
<path fill-rule="evenodd" clip-rule="evenodd" d="M5.34278 8C6.34292 8 7 7.43134 7 6.46291L7 2L1 8H5.34278Z" fill="url(#paint0_linear_125_5597)"/>
<path fill-rule="evenodd" clip-rule="evenodd" d="M8 1.99609V6.36218C8 7.83426 6.80205 8.99609 5.3472 8.99609H1V7.99646H5.3472C6.26553 7.99646 7.00224 7.26774 7.00224 6.36218V1.99609H8Z" fill="#333333"/>
<path fill-rule="evenodd" clip-rule="evenodd" d="M8.52171 9L19.5508 9.00003C20.1875 9.00003 20.1108 10 19.5508 10L8.52138 10C7.80984 10 7.84266 9 8.52171 9Z" fill="#333333"/>
<path fill-rule="evenodd" clip-rule="evenodd" d="M3.52171 12L18.5508 12C19.1875 12 19.1108 13 18.5508 13L3.52138 13C2.80984 13 2.84266 12 3.52171 12Z" fill="#333333"/>
<path fill-rule="evenodd" clip-rule="evenodd" d="M3.39129 21L14.6631 21C15.1406 21 15.0831 22 14.6631 22L3.39103 22C2.85738 22 2.882 21 3.39129 21Z" fill="#333333"/>
<path fill-rule="evenodd" clip-rule="evenodd" d="M3.52171 15L15.5508 15C16.1875 15 16.1108 16 15.5508 16L3.52138 16C2.80984 16 2.84266 15 3.52171 15Z" fill="#333333"/>
<path fill-rule="evenodd" clip-rule="evenodd" d="M3.52171 24L19.5508 24C20.1875 24 20.1108 25 19.5508 25L3.52138 25C2.80984 25 2.84266 24 3.52171 24Z" fill="#333333"/>
<path fill-rule="evenodd" clip-rule="evenodd" d="M3.52171 18L13.5508 18C14.1875 18 14.1108 19 13.5508 19L3.52138 19C2.80984 19 2.84266 18 3.52171 18Z" fill="#333333"/>
<path fill-rule="evenodd" clip-rule="evenodd" d="M11.4734 5H18.5311C19.1578 5 19.1578 6 18.5223 6H11.4734C10.8622 6 10.8225 5 11.4734 5Z" fill="url(#paint1_linear_125_5597)"/>
<path d="M19.9452 15.5524L19.9452 15.5524C19.69 15.5524 19.5172 15.6413 19.4069 15.7573C19.2928 15.8771 19.2169 16.0563 19.2169 16.28L19.2169 20.3719C19.2169 20.7405 19.4995 21.0995 19.9452 21.0995L24.8585 21.0995L25.3585 21.0995L25.3585 21.5995L25.3585 22.752C25.3585 22.7759 25.3673 22.8323 25.4019 22.9105C25.4278 22.9692 25.4615 23.0246 25.4967 23.0699C25.78 22.8017 26.0633 22.5323 26.3471 22.2624C27.1831 21.4675 28.0227 20.6691 28.8746 19.8889L28.8747 19.8889C29.0466 19.7315 29.2034 19.5892 29.3461 19.4597C29.746 19.0967 30.0354 18.8341 30.2395 18.619C30.4423 18.4053 30.4878 18.3093 30.4976 18.2828C30.4919 18.2704 30.4784 18.2453 30.4477 18.2051C30.388 18.1268 30.2907 18.0262 30.1358 17.884C30.0378 17.794 29.9079 17.6802 29.7555 17.5468C29.4816 17.3069 29.1348 17.0032 28.769 16.6587M19.9452 15.5524L29.1115 16.2945M19.9452 15.5524L24.8585 15.5522L25.3585 15.5522L25.3585 15.0522L25.3585 13.8248C25.3585 13.8045 25.3659 13.7566 25.397 13.6907C25.4196 13.6427 25.4486 13.5982 25.4788 13.5621M19.9452 15.5524L25.6958 13.0799M28.769 16.6587C28.7689 16.6586 28.7688 16.6585 28.7687 16.6584L29.1115 16.2945M28.769 16.6587C28.7691 16.6588 28.7692 16.6589 28.7693 16.659L29.1115 16.2945M28.769 16.6587C28.1989 16.1235 27.6298 15.5872 27.0611 15.0514L27.0608 15.0511C26.5334 14.5543 26.0065 14.0577 25.4788 13.5621M29.1115 16.2945C28.5416 15.7594 27.9726 15.2233 27.4036 14.6872C26.8347 14.1511 26.2657 13.615 25.6958 13.0799M25.4788 13.5621C25.4888 13.55 25.499 13.5389 25.5091 13.529C25.5386 13.4998 25.5552 13.4919 25.5552 13.4917C25.5551 13.4916 25.5503 13.4937 25.5402 13.4959C25.5212 13.5002 25.4873 13.5035 25.4457 13.493C25.4029 13.4821 25.3718 13.4615 25.3544 13.4453L25.6958 13.0799M25.4788 13.5621C25.437 13.5229 25.3953 13.4836 25.3535 13.4444L25.6958 13.0799" fill="url(#paint2_linear_125_5597)" stroke="#333333"/>
</g>
<defs>
<linearGradient id="paint0_linear_125_5597" x1="1.00001" y1="1.76562" x2="7.00001" y2="8" gradientUnits="userSpaceOnUse">
<stop stop-color="#FF8E3D"/>
<stop offset="1" stop-color="#FF6F3D"/>
</linearGradient>
<linearGradient id="paint1_linear_125_5597" x1="12.182" y1="1.58289" x2="16.2576" y2="5.13825" gradientUnits="userSpaceOnUse">
<stop stop-color="#FFC671"/>
<stop offset="1" stop-color="#FF6F3D"/>
</linearGradient>
<linearGradient id="paint2_linear_125_5597" x1="31.4798" y1="13" x2="20.471" y2="25.225" gradientUnits="userSpaceOnUse">
<stop stop-color="#FF8E3D"/>
<stop offset="1" stop-color="#FF6F3D"/>
</linearGradient>
<clipPath id="clip0_125_5597">
<rect width="32" height="32" fill="white"/>
</clipPath>
</defs>
</svg>
