<svg width="16" height="16" viewBox="0 0 16 16" fill="none" xmlns="http://www.w3.org/2000/svg">
<path d="M15 8.15935C15 7.66313 14.9532 7.18558 14.8698 6.72746H8.14244V9.43569H11.9867C11.8208 10.3107 11.3177 11.0519 10.5614 11.5481V13.3044H12.87C14.2199 12.0856 15 10.2905 15 8.15935Z" fill="#4285F4"/>
<path d="M8.14246 15C10.0709 15 11.6875 14.3731 12.87 13.3037L10.5614 11.5474C9.92173 11.9674 9.10352 12.2148 8.14246 12.2148C6.28224 12.2148 4.70773 10.9843 4.14585 9.32921H1.76027V11.143C2.93481 13.4312 5.35055 15 8.14246 15Z" fill="#34A853"/>
<path d="M4.14586 9.32992C4.00301 8.90992 3.92206 8.46192 3.92206 7.99992C3.92206 7.53869 4.0038 7.08992 4.14586 6.66991V4.85613H1.76028C1.27618 5.80113 1 6.87058 1 7.99992C1 9.12925 1.27618 10.1979 1.76028 11.1437L4.14586 9.32992Z" fill="#FBBC05"/>
<path d="M8.14246 3.78445C9.19081 3.78445 10.1328 4.13756 10.8725 4.83134L12.9208 2.82389C11.6843 1.69378 10.0677 1 8.14246 1C5.35055 1 2.93481 2.56878 1.76027 4.85623L4.14585 6.67001C4.70773 5.01568 6.28224 3.78445 8.14246 3.78445Z" fill="#EA4335"/>
</svg>
