<svg width="32" height="32" viewBox="0 0 32 32" fill="none" xmlns="http://www.w3.org/2000/svg">
<path fill-rule="evenodd" clip-rule="evenodd" d="M3.20542 7H28.7946C30 7 30 7 30 8.18415V16.2308V21.8159C30 22.4685 29.459 23 28.7946 23H27.779H17.2529H3.20542C2 23 2 23 2 21.8159V8.18415C2 7 2 7 3.20542 7Z" fill="#BDECFF"/>
<path fill-rule="evenodd" clip-rule="evenodd" d="M4.56382 9H27.4362C27.7463 9 28 9.23461 28 9.52136V20.4786C28 20.7654 27.7463 21 27.4362 21H4.56382C4.25372 21 4 20.7654 4 20.4786V9.52136C4 9.23461 4.25372 9 4.56382 9Z" fill="#FEFEFE"/>
<path fill-rule="evenodd" clip-rule="evenodd" d="M5 10V20H27V10H5ZM27.4362 9H4.56382C4.25372 9 4 9.23461 4 9.52136V20.4786C4 20.7654 4.25372 21 4.56382 21H27.4362C27.7463 21 28 20.7654 28 20.4786V9.52136C28 9.23461 27.7463 9 27.4362 9Z" fill="#333333"/>
<path fill-rule="evenodd" clip-rule="evenodd" d="M6.5 11C6.78049 11 7 11.2294 7 11.5225V18.4775C7 18.7706 6.78049 19 6.5 19C6.21951 19 6 18.7706 6 18.4775V11.5225C6 11.2294 6.23171 11 6.5 11Z" fill="#333333"/>
<path fill-rule="evenodd" clip-rule="evenodd" d="M30.2149 16.6438C27.3344 17.877 24.4538 18.3988 21.5733 17.0802C21.5733 16.6912 21.5733 16.3118 21.5733 15.9229C21.5733 15.458 21.0727 14.7655 20.7327 15.0786C19.5049 16.1885 18.2772 17.2984 17.0399 18.3988C14.5088 20.6755 14.1783 20.0779 16.9266 22.4969C18.2111 23.6257 19.4577 24.7831 20.7233 25.9214C21.0633 26.2345 21.5638 25.542 21.5638 25.0771C21.5638 24.6882 21.5638 24.3088 21.5638 23.9198C28.4205 22.7151 30.4605 19.8502 30.8949 17.9719C30.9611 17.6683 31.0838 16.6912 30.9138 16.4636C30.8288 16.3403 30.6211 16.4731 30.2149 16.6438Z" fill="url(#paint0_linear_125_5693)"/>
<path fill-rule="evenodd" clip-rule="evenodd" d="M21.6573 14.8801C21.8868 15.1431 22.0734 15.5451 22.0734 15.9227V16.7515C24.6739 17.8239 27.2985 17.3485 30.0183 16.1841L30.0213 16.1828C30.0748 16.1602 30.1353 16.1335 30.197 16.1062C30.3145 16.0541 30.4361 16.0002 30.5217 15.9707C30.593 15.9461 30.7162 15.9083 30.8554 15.9165C31.0281 15.9266 31.2019 16.0066 31.3191 16.1704C31.3921 16.2705 31.4284 16.3778 31.4485 16.4552C31.4706 16.5399 31.4829 16.6273 31.4901 16.7084C31.5044 16.8706 31.5018 17.0503 31.4922 17.2176C31.4732 17.5512 31.4229 17.8977 31.3836 18.0782L31.3822 18.0845C30.896 20.1868 28.7109 23.0692 22.0639 24.3365V25.077C22.0639 25.4547 21.8774 25.8567 21.6479 26.1196C21.5312 26.2534 21.3611 26.4006 21.1406 26.4661C20.8871 26.5415 20.6083 26.4933 20.3874 26.2916C19.921 25.8721 19.4598 25.4524 18.9997 25.0337C18.203 24.3088 17.4093 23.5866 16.5966 22.8723C16.4277 22.7236 16.268 22.5843 16.1188 22.4541C15.6756 22.0676 15.3219 21.759 15.0734 21.5075C14.7689 21.1994 14.4462 20.8153 14.5076 20.3315C14.5375 20.0956 14.6518 19.9023 14.7763 19.7463C14.8999 19.5913 15.0619 19.4383 15.2382 19.2835C15.3895 19.1508 15.5463 19.02 15.7194 18.8756C15.993 18.6474 16.3075 18.3851 16.7057 18.0269L16.7078 18.0251C17.9428 16.9266 19.1686 15.8185 20.3962 14.7088C20.6172 14.5065 20.8963 14.4583 21.1501 14.5337C21.3706 14.5992 21.5406 14.7464 21.6573 14.8801ZM20.9319 15.5725C19.75 16.6409 18.5662 17.7104 17.3734 18.7713C16.9799 19.1252 16.6077 19.4367 16.3126 19.6837C16.1466 19.8226 16.005 19.941 15.8979 20.0351C15.7302 20.1823 15.6239 20.2874 15.5581 20.3698C15.5244 20.4121 15.5093 20.4387 15.503 20.4521C15.5138 20.4799 15.5637 20.581 15.7847 20.8046C16.0051 21.0276 16.3172 21.2999 16.7468 21.6748C16.9012 21.8095 17.0709 21.9576 17.2569 22.1213M20.9319 15.5725C20.9675 15.62 21.0018 15.6792 21.0283 15.743C21.0628 15.8257 21.0734 15.8898 21.0734 15.9227V17.4011L21.3653 17.5347C24.4299 18.9375 27.4713 18.362 30.4103 17.104C30.4406 17.0913 30.47 17.0787 30.4982 17.0664C30.4971 17.0969 30.4957 17.1284 30.4939 17.1607C30.4776 17.4462 30.434 17.7376 30.4071 17.8624C30.0327 19.4742 28.2158 22.2433 21.4774 23.4272L21.0639 23.4999V25.077C21.0639 25.11 21.0533 25.1741 21.0189 25.2568C20.9923 25.3207 20.9579 25.38 20.9223 25.4276C20.5098 25.0557 20.097 24.6802 19.6831 24.3035C18.8812 23.5739 18.0747 22.8401 17.2569 22.1213" fill="#333333"/>
<path fill-rule="evenodd" clip-rule="evenodd" d="M1.5548 6.55465C1.89733 6.21218 2.37293 6 2.89021 6H29.1098C29.6271 6 30.1027 6.21218 30.4452 6.55465C30.7877 6.89711 31 7.37266 31 7.88994V13.9842C31 14.2603 30.7761 14.4842 30.5 14.4842C30.2239 14.4842 30 14.2603 30 13.9842V7.88994C30 7.64906 29.9012 7.42478 29.7382 7.26182C29.5752 7.09886 29.3508 7 29.1098 7H2.89021C2.6492 7 2.42483 7.09886 2.26183 7.26182C2.09884 7.42478 2 7.64907 2 7.88994V22.1003C2 22.3412 2.09884 22.5655 2.26183 22.7285C2.42483 22.8914 2.6492 22.9903 2.89021 22.9903H7.10086L14.1016 23C14.3777 23.0004 14.6012 23.2246 14.6009 23.5007C14.6005 23.7768 14.3763 24.0004 14.1002 24L7.10086 23.9903H2.89021C2.37293 23.9903 1.89733 23.7781 1.5548 23.4356C1.21226 23.0932 1 22.6176 1 22.1003V7.88994C1 7.37266 1.21226 6.89711 1.5548 6.55465Z" fill="#333333"/>
<defs>
<linearGradient id="paint0_linear_125_5693" x1="18.3806" y1="13.5102" x2="24.3086" y2="20.0109" gradientUnits="userSpaceOnUse">
<stop stop-color="#FFC671"/>
<stop offset="1" stop-color="#FF6F3D"/>
</linearGradient>
</defs>
</svg>
