<svg width="16" height="16" viewBox="0 0 16 16" fill="none" xmlns="http://www.w3.org/2000/svg">
<path d="M10.0006 4V6.9281L11.1087 7.57242C11.1379 7.58029 11.2012 7.58086 11.2304 7.57242L15.9994 4.60327C15.9994 4.25188 15.6444 4 15.4441 4H10.0006Z" fill="#0072C6"/>
<path d="M10.0006 8.02052L11.0119 8.66203C11.1543 8.75873 11.326 8.66203 11.326 8.66203C11.1549 8.75873 16 5.78677 16 5.78677V11.1685C16 11.7543 15.5939 12 15.1373 12H10L10.0006 8.02052Z" fill="#0072C6"/>
<path d="M3.62225 9.51694C3.42245 9.16877 3.32254 8.66246 3.32254 7.998C3.32254 7.3309 3.42245 6.82458 3.62225 6.47907C3.82208 6.1309 4.11862 5.95681 4.5119 5.95681C5.28577 5.95681 5.6727 6.63721 5.6727 7.998C5.6727 9.3588 5.28259 10.0392 4.50238 10.0392C4.11545 10.0392 3.82208 9.86512 3.62225 9.51694Z" fill="#0072C6"/>
<path fill-rule="evenodd" clip-rule="evenodd" d="M9 16L0 14V2L9 0V16ZM6.353 10.2226C6.78433 9.70432 7 8.96279 7 7.998C7 7.03322 6.78592 6.29302 6.35776 5.77741C5.9296 5.25914 5.3143 5 4.5119 5C3.69998 5 3.07834 5.25781 2.647 5.77342C2.21567 6.28638 2 7.02525 2 7.99003C2 8.96279 2.21567 9.70831 2.647 10.2266C3.07834 10.7422 3.69681 11 4.50238 11C5.30478 11 5.92166 10.7409 6.353 10.2226Z" fill="#0072C6"/>
</svg>
