<svg width="16" height="17" viewBox="0 0 16 17" fill="none" xmlns="http://www.w3.org/2000/svg">
<path d="M11.7079 3.06233C10.8858 2.49407 9.83453 2.31013 9.25432 2.24588C8.63334 2.17718 8.094 2.1893 7.61962 2.26297C7.57943 2.26243 7.53946 2.26076 7.49904 2.26076C7.4682 2.26076 7.43782 2.26213 7.40681 2.26249C7.41956 2.246 7.42841 2.2358 7.42841 2.2358C7.42841 2.2358 7.40346 2.23994 7.35448 2.26339C7.20046 2.26603 7.04717 2.27167 6.89615 2.28259C7.10653 2.03854 7.27886 1.91063 7.27886 1.91063C7.27886 1.91063 7.07433 1.94231 6.70108 2.30035C6.52353 2.31763 6.34842 2.34055 6.17625 2.36904C6.56843 1.80738 6.97869 1.57089 6.97869 1.57089C6.97869 1.57089 6.48141 1.46374 5.70278 2.29177C5.63764 2.36106 5.57721 2.43312 5.51877 2.50607C3.24943 3.08723 1.62528 4.63812 1.62528 6.46078C1.62528 6.81822 1.52159 7.21136 1.63339 7.6039C1.58871 8.23101 1.68384 9.94215 1.68384 9.94215C1.68384 9.94215 2.29818 13.4607 4.6606 14.0725C4.69813 14.0819 4.16701 13.1954 3.93209 12.1261C4.38951 12.6186 4.93464 13.008 5.54649 13.0755C5.6216 13.0837 5.197 12.5571 4.82511 11.9216L10.1935 13.8357C13.0013 12.5594 12.6744 12.6744 13.2772 11.9834C14.6053 10.462 14.7913 9.59868 14.4567 7.04986C14.2303 5.3293 13.0304 3.62525 11.7079 3.06233Z" fill="url(#paint0_linear)"/>
<path d="M2.28612 4.66919L1.48447 9.49291L1.92897 10.9504L10.8022 14.0725L12.4478 6.66787L2.28612 4.66919Z" fill="#FBFBFB"/>
<path d="M2.31111 4.83321C2.35561 4.93454 2.34251 4.95854 2.31479 4.95854C2.30232 4.95854 2.2869 4.95368 2.27245 4.94888C2.25799 4.94402 2.24444 4.93922 2.23571 4.93922C2.21116 4.93922 2.225 4.97756 2.364 5.1624C2.5606 5.42673 5.44785 10.0395 5.60561 10.0395C5.60646 10.0395 5.6072 10.0393 5.60788 10.0391C6.95199 9.53227 12.6682 7.45589 12.6682 7.45589L12.0833 6.55425L2.31111 4.83321Z" fill="#999999"/>
<path d="M2.39496 4.71989C2.39496 4.71989 2.43804 4.95578 2.63765 5.21687C2.83606 5.48036 5.50103 9.75064 5.63476 9.71303C7.38051 9.22252 13.7144 6.61292 13.7144 6.61292L2.39496 4.71989Z" fill="#F8F8F8"/>
<path d="M10.4853 13.9613L2.05256 10.9941L2.08238 11.2026L10.5791 14.1923L10.4853 13.9613Z" fill="#999999"/>
<path d="M4.27122 4.52034C4.27122 4.52034 1.20307 5.47124 2.6109 8.78186C2.6109 8.78186 1.96537 8.15637 1.58102 7.35659C1.56373 7.32078 2.22167 4.84712 2.22167 4.84712L4.27122 4.52034Z" fill="url(#paint1_linear)"/>
<path d="M2.61089 8.78186C2.34405 8.777 1.91536 8.54404 1.77631 8.26201C1.6025 11.3276 2.78436 13.1178 4.66066 14.0726C4.04757 13.9982 1 12.2962 1 8.20064C1 4.7182 3.61112 1.60543 7.6974 1.46283C7.72246 1.65805 5.67155 2.1476 5.60596 2.37779C5.50415 2.73607 5.27013 3.12609 5.07274 3.43872C4.80528 3.86233 5.44445 4.22457 4.97472 4.33868C4.26792 4.51032 3.32517 4.41529 2.62999 5.37171C1.58498 6.80945 2.28232 8.45411 2.61089 8.78186Z" fill="url(#paint2_radial)"/>
<path d="M8.76914 1.57491C6.12276 1.36001 4.7608 2.48063 3.88648 3.78369C3.56805 4.258 3.60292 4.69355 3.71256 5.21975C3.75966 5.44437 3.80728 5.552 3.74991 5.78099C3.71828 5.90734 3.72355 6.02529 3.68427 6.0998C3.6299 6.20281 3.56068 6.31542 3.5375 6.50038C3.47956 6.96227 3.63404 7.10937 3.73058 7.26475C3.86811 7.12023 4.13676 6.78007 4.62117 6.57687C5.10559 6.37367 5.42429 6.0683 6.03138 5.7405C6.86086 5.29277 7.83308 5.97201 9.67651 5.33278C10.2437 5.13606 11.5474 3.09238 11.8568 3.01391C10.995 2.0053 9.52878 1.63652 8.76914 1.57491Z" fill="url(#paint3_linear)"/>
<path d="M7.02083 0.934959C7.02083 0.934959 6.54832 1.17649 6.34254 1.61295C6.81765 1.35947 7.09345 1.22101 7.22383 1.20451C7.22383 1.20451 7.09895 1.26852 6.94407 1.61667C7.21788 1.52386 7.31216 1.46536 7.38733 1.46446C7.38733 1.46446 7.3655 1.50106 7.34555 1.84854C6.92508 1.70432 6.11578 1.87236 5.68528 2.15769C5.53925 1.33368 7.02083 0.934959 7.02083 0.934959Z" fill="#3F6499"/>
<path d="M8.90136 1.45077C8.09019 1.33955 7.41213 1.36144 6.83565 1.47897C7.01694 1.29509 7.22669 1.2045 7.22669 1.2045C6.95487 1.22994 6.61553 1.41772 6.32437 1.61654C6.17766 1.66609 6.03786 1.722 5.90543 1.78446C5.9865 1.67137 6.08083 1.55054 6.17301 1.45779C6.51535 1.11325 7.02369 0.93495 7.02369 0.93495C6.58979 0.901233 5.13775 1.29461 4.26399 3.16749C4.12079 3.35209 3.98718 3.54155 3.85985 3.73131C3.53117 4.22109 3.56722 4.67069 3.6806 5.21405C3.7289 5.44604 3.7378 5.81638 3.69012 6.0557C3.6806 6.10363 3.55617 6.22746 3.52425 6.56132C3.49012 6.91558 3.60957 7.0895 3.72731 7.23343C4.14568 6.58598 4.55844 6.45765 4.55844 6.45765C5.14404 6.20376 5.3878 5.93259 6.01467 5.59417C6.87114 5.13168 9.8661 6.64105 11.7693 5.981C12.355 5.77799 11.5439 3.13977 11.8636 3.05878C10.9736 2.01729 9.6814 1.55774 8.90136 1.45077Z" fill="url(#paint4_linear)"/>
<path d="M14.8422 7.12965C14.373 4.53571 12.1156 2.17586 10.3004 2.04508C9.49477 1.987 9.74216 2.42417 9.23808 2.59066C7.06574 3.30812 7.03252 3.72699 7.03252 3.72699C11.6386 3.95611 11.7085 8.77029 10.4749 9.98828C10.822 9.90261 11.1984 9.4535 11.544 8.74845C11.5025 9.04428 11.4669 9.40718 11.4151 9.81208C11.2571 11.0476 11.4618 13.6285 8.10695 15.3558C8.10695 15.3558 9.9421 15.197 10.8521 14.1129C10.4821 15.0135 9.46659 15.5 9.46659 15.5C10.2139 15.3843 12.1769 14.7713 13.4274 13.1163C14.8427 11.243 15.2683 9.48559 14.8422 7.12965Z" fill="url(#paint5_linear)"/>
<path d="M10.3533 11.8651C10.3533 11.8651 11.8497 11.4224 12.332 10.5673C12.2735 11.5643 11.4189 12.5868 11.4189 12.5868C11.4189 12.5868 12.6682 12.3192 13.201 11.3888C13.1316 12.2284 12.1697 13.363 12.1697 13.363C13.153 13.1763 15.6238 11.5245 14.8422 7.12965C14.3807 4.53421 12.1157 2.17586 10.3004 2.04508C9.49482 1.987 9.74222 2.42417 9.23813 2.59066C7.06579 3.30812 7.03257 3.72699 7.03257 3.72699C11.6387 3.95611 12.8627 6.50733 10.475 9.92019C10.8221 9.83445 10.9613 9.63258 11.222 9.30219C11.2219 9.30219 11.3402 10.6089 10.3533 11.8651Z" fill="url(#paint6_linear)"/>
<path d="M4.43589 6.0665C4.43589 6.0665 4.16837 6.26454 3.97466 6.21408C3.74535 6.15451 3.70652 5.91933 3.70652 5.91933C3.70147 5.96751 3.69563 6.014 3.68719 6.0557C3.67766 6.10363 3.55323 6.22746 3.52131 6.56133C3.48719 6.91559 3.61287 7.12076 3.73061 7.26469C4.14904 6.61724 4.55556 6.45766 4.55556 6.45766C4.39632 6.39874 4.43589 6.0665 4.43589 6.0665Z" fill="url(#paint7_linear)"/>
<mask id="mask0" mask-type="alpha" maskUnits="userSpaceOnUse" x="6" y="0" width="6" height="7">
<path d="M11.8452 0.5H6.17543V6.09973H11.8452V0.5Z" fill="url(#paint8_radial)"/>
</mask>
<g mask="url(#mask0)">
<g opacity="0.6">
<g opacity="0.2">
<path opacity="0.2" d="M10.2695 2.03896C10.3322 2.02174 10.5882 2.0512 10.7561 2.13093C10.9241 2.21066 11.2138 2.35165 10.9821 2.41296C10.7503 2.47427 10.6171 2.37618 10.5012 2.27191C10.3854 2.16765 10.1131 2.08185 10.2695 2.03896Z" fill="url(#paint9_linear)"/>
</g>
</g>
<path d="M4.46095 6.02774C4.46095 6.02774 5.92853 3.4683 7.25529 2.77759C7.37848 2.71202 5.41827 3.329 4.62943 4.25044C4.16056 4.79812 4.40886 5.87038 4.46095 6.02774Z" fill="url(#paint10_linear)"/>
<path opacity="0.1" d="M4.46092 6.02774C4.46228 6.02684 4.46376 6.02594 4.46517 6.02504C4.84465 5.77691 5.49499 5.63401 5.70463 5.18424C6.51172 3.45228 7.25532 2.7776 7.25532 2.7776C5.9285 3.4683 4.46092 6.02774 4.46092 6.02774Z" fill="#F2F2F2"/>
</g>
<path d="M4.78258 5.21795C4.81815 5.21795 4.84698 5.18744 4.84698 5.1498C4.84698 5.11216 4.81815 5.08165 4.78258 5.08165C4.74701 5.08165 4.71818 5.11216 4.71818 5.1498C4.71818 5.18744 4.74701 5.21795 4.78258 5.21795Z" fill="white"/>
<path d="M13.9538 4.83321C12.9492 3.21483 12.1533 2.80357 12.1533 2.80357C12.1533 2.80357 12.1899 3.98245 12.7477 4.55106C12.8114 4.61604 12.0802 4.0452 12.0802 4.0452C12.0802 4.0452 11.9239 4.5897 12.2821 5.21567C12.178 5.06935 12.1092 5.01392 12.1092 5.01392C12.1092 5.01392 11.4341 5.34334 11.2348 5.80037C11.132 5.59483 11.0548 5.47377 11.0548 5.47377C11.0548 5.47377 10.5879 6.45988 10.6466 7.60324C10.742 9.46231 10.3176 10.1472 10.3176 10.1472C10.3176 10.1472 11.4546 9.68555 11.9999 8.19933C12.2252 8.83124 11.9931 9.49633 11.9931 9.49633C11.9931 9.49633 12.9118 8.76987 13.1093 7.44575C13.3283 7.81951 13.2639 8.56547 13.2639 8.56547C13.2639 8.56547 13.8503 7.70145 13.8646 6.76051C14.1364 6.96106 14.1614 7.74434 14.1614 7.74434C14.1614 7.74434 15.0308 6.56811 13.9538 4.83321Z" fill="url(#paint11_linear)"/>
<path d="M12.9775 3.70222C12.7149 3.18447 12.2517 2.85451 11.8445 2.58742C10.8292 1.92119 10.1763 1.8276 10.1763 1.8276C10.1763 1.8276 9.23929 2.01202 9.40024 2.28787C9.40851 2.30203 9.42784 2.31997 9.45511 2.34048C8.63323 1.93985 8.16701 2.86105 8.16701 2.86105C7.6974 2.83087 7.12557 3.07552 6.95885 3.73089C6.94156 3.79893 7.16922 3.76065 7.28634 3.78759C7.97109 3.94513 8.61571 4.28673 8.91191 4.45555C9.60092 4.84839 10.0097 5.5025 10.2457 5.99313C10.5312 6.5867 10.6479 7.63119 10.6479 7.63119C10.6479 7.63119 11.3992 6.53901 11.2196 5.97825C11.5172 6.17383 11.5759 6.87161 11.5759 6.87161C11.5759 6.87161 12.0768 6.04142 11.9287 5.31832C12.315 5.56747 12.3279 6.0743 12.3279 6.0743C12.3279 6.0743 12.7213 5.4965 12.5435 4.54884C12.9323 4.87599 13.0136 5.29978 13.0136 5.29978C13.0136 5.29978 13.3314 4.4003 12.9775 3.70222Z" fill="url(#paint12_linear)"/>
<defs>
<linearGradient id="paint0_linear" x1="12.3114" y1="13.0461" x2="2.73656" y2="3.99862" gradientUnits="userSpaceOnUse">
<stop stop-color="#130036"/>
<stop offset="0.2297" stop-color="#18023B"/>
<stop offset="0.5122" stop-color="#26094A"/>
<stop offset="0.8211" stop-color="#3D1563"/>
<stop offset="1" stop-color="#4E1D75"/>
</linearGradient>
<linearGradient id="paint1_linear" x1="1.58067" y1="6.65109" x2="4.27121" y2="6.65109" gradientUnits="userSpaceOnUse">
<stop stop-color="#3156A8"/>
<stop offset="0.2474" stop-color="#3351A4"/>
<stop offset="0.5365" stop-color="#3B4397"/>
<stop offset="0.8453" stop-color="#472C82"/>
<stop offset="1" stop-color="#4E1D75"/>
</linearGradient>
<radialGradient id="paint2_radial" cx="0" cy="0" r="1" gradientUnits="userSpaceOnUse" gradientTransform="translate(4.34883 7.76768) scale(4.83258 7.41565)">
<stop offset="0.1654" stop-color="#14CDDA"/>
<stop offset="0.5478" stop-color="#2061BD"/>
<stop offset="0.6546" stop-color="#2658AC"/>
<stop offset="0.864" stop-color="#373F81"/>
<stop offset="1" stop-color="#432D62"/>
</radialGradient>
<linearGradient id="paint3_linear" x1="3.52484" y1="4.40651" x2="11.8568" y2="4.40651" gradientUnits="userSpaceOnUse">
<stop stop-color="#2061BD"/>
<stop offset="0.1846" stop-color="#2B51AC"/>
<stop offset="0.6826" stop-color="#442C84"/>
<stop offset="0.9409" stop-color="#4E1D75"/>
</linearGradient>
<linearGradient id="paint4_linear" x1="4.75138" y1="2.32522" x2="10.7591" y2="7.26005" gradientUnits="userSpaceOnUse">
<stop offset="0.0202" stop-color="#48A8E0"/>
<stop offset="0.3883" stop-color="#2061BD"/>
<stop offset="0.4968" stop-color="#2B51AC"/>
<stop offset="0.7892" stop-color="#442C84"/>
<stop offset="0.9409" stop-color="#4E1D75"/>
</linearGradient>
<linearGradient id="paint5_linear" x1="2.1154" y1="21.1757" x2="14.2417" y2="4.18787" gradientUnits="userSpaceOnUse">
<stop offset="0.3787" stop-color="#3156A8"/>
<stop offset="1" stop-color="#4E1D75"/>
</linearGradient>
<linearGradient id="paint6_linear" x1="6.4844" y1="17.65" x2="13.3058" y2="3.17268" gradientUnits="userSpaceOnUse">
<stop stop-color="#29ABE2"/>
<stop offset="0.7733" stop-color="#385AA6"/>
<stop offset="0.8575" stop-color="#414293"/>
<stop offset="1" stop-color="#4E1D75"/>
</linearGradient>
<linearGradient id="paint7_linear" x1="3.73631" y1="6.45446" x2="4.08417" y2="6.64347" gradientUnits="userSpaceOnUse">
<stop stop-color="#B0DCD6"/>
<stop offset="1" stop-color="#53ACE0"/>
</linearGradient>
<radialGradient id="paint8_radial" cx="0" cy="0" r="1" gradientUnits="userSpaceOnUse" gradientTransform="translate(9.75191 5.0125) scale(2.94601 3.11771)">
<stop offset="0.868" stop-color="white"/>
<stop offset="1"/>
</radialGradient>
<linearGradient id="paint9_linear" x1="10.9895" y1="2.318" x2="10.3076" y2="2.18186" gradientUnits="userSpaceOnUse">
<stop stop-color="#3092B9"/>
<stop offset="0.2199" stop-color="#258DB6"/>
<stop offset="0.6564" stop-color="#1685B1"/>
<stop offset="1" stop-color="#1082AF"/>
</linearGradient>
<linearGradient id="paint10_linear" x1="5.57959" y1="3.2143" x2="6.20081" y2="5.56866" gradientUnits="userSpaceOnUse">
<stop offset="0.0074" stop-color="#1398D1" stop-opacity="0"/>
<stop offset="0.2482" stop-color="#1187C2" stop-opacity="0.6197"/>
<stop offset="0.6422" stop-color="#3F6499" stop-opacity="0.71"/>
<stop offset="1" stop-color="#2F4282" stop-opacity="0.5"/>
</linearGradient>
<linearGradient id="paint11_linear" x1="12.69" y1="8.74054" x2="10.4002" y2="3.88076" gradientUnits="userSpaceOnUse">
<stop stop-color="#409EC3"/>
<stop offset="0.62" stop-color="#2061BD"/>
</linearGradient>
<linearGradient id="paint12_linear" x1="11.0204" y1="7.11603" x2="9.36621" y2="2.30522" gradientUnits="userSpaceOnUse">
<stop stop-color="#14B2DA"/>
<stop offset="0.4028" stop-color="#297CCC"/>
<stop offset="0.5077" stop-color="#256FC5"/>
<stop offset="0.6492" stop-color="#2164BF"/>
<stop offset="0.8162" stop-color="#2061BD"/>
<stop offset="0.9835" stop-color="#2061BD"/>
</linearGradient>
</defs>
</svg>
