<svg width="170" height="56" viewBox="0 0 170 56" fill="none" xmlns="http://www.w3.org/2000/svg">
<path d="M40.7619 27.275C40.7755 26.2167 41.0566 25.179 41.579 24.2586C42.1015 23.3381 42.8482 22.5648 43.7498 22.0105C43.1771 21.1925 42.4214 20.5193 41.543 20.0444C40.6645 19.5695 39.6875 19.3059 38.6893 19.2747C36.5602 19.0512 34.4961 20.5487 33.4111 20.5487C32.3051 20.5487 30.6346 19.2969 28.8358 19.3339C27.6722 19.3715 26.5383 19.7098 25.5444 20.316C24.5505 20.9221 23.7305 21.7754 23.1645 22.7926C20.7123 27.0382 22.5414 33.2777 24.8904 36.7095C26.0656 38.3899 27.4391 40.267 29.2363 40.2005C30.995 40.1275 31.6519 39.079 33.7747 39.079C35.8779 39.079 36.4942 40.2005 38.3279 40.1581C40.215 40.1275 41.404 38.4702 42.538 36.7739C43.3824 35.5765 44.0322 34.2531 44.4633 32.8528C43.3669 32.3891 42.4313 31.6129 41.773 30.621C41.1148 29.6291 40.7632 28.4654 40.7619 27.275V27.275Z" fill="white"/>
<path d="M37.2984 17.0179C38.3274 15.7827 38.8343 14.195 38.7115 12.592C37.1395 12.7572 35.6874 13.5085 34.6446 14.6963C34.1347 15.2766 33.7442 15.9517 33.4953 16.683C33.2465 17.4143 33.1443 18.1875 33.1944 18.9583C33.9807 18.9664 34.7586 18.796 35.4695 18.4599C36.1803 18.1237 36.8057 17.6307 37.2984 17.0179Z" fill="white"/>
<path d="M62.993 35.9466H56.9914L55.5501 40.2024H53.0081L58.6927 24.4573H61.3338L67.0184 40.2024H64.433L62.993 35.9466ZM57.6129 33.9828H62.3702L60.025 27.0761H59.9594L57.6129 33.9828Z" fill="white"/>
<path d="M79.2952 34.4632C79.2952 38.0304 77.3859 40.3224 74.5046 40.3224C73.7747 40.3605 73.0488 40.1924 72.4101 39.8372C71.7713 39.482 71.2455 38.9541 70.8928 38.314H70.8382V43.9998H68.4819V28.7228H70.7628V30.6321H70.8061C71.175 29.995 71.7097 29.4699 72.3534 29.1125C72.997 28.7552 73.7255 28.579 74.4613 28.6027C77.3747 28.6027 79.2952 30.9058 79.2952 34.4632ZM76.8733 34.4632C76.8733 32.139 75.6722 30.6111 73.8397 30.6111C72.0393 30.6111 70.8284 32.1712 70.8284 34.4632C70.8284 36.7761 72.0393 38.3251 73.8397 38.3251C75.6722 38.3251 76.8733 36.8083 76.8733 34.4632Z" fill="white"/>
<path d="M91.9299 34.4631C91.9299 38.0304 90.0206 40.3223 87.1393 40.3223C86.4094 40.3605 85.6835 40.1924 85.0447 39.8372C84.4059 39.482 83.8801 38.9541 83.5274 38.3139H83.4729V43.9998H81.1166V28.7228H83.3973V30.6321H83.4407C83.8096 29.995 84.3443 29.4699 84.988 29.1125C85.6316 28.7552 86.3601 28.579 87.0959 28.6027C90.0094 28.6027 91.9299 30.9058 91.9299 34.4631ZM89.5079 34.4631C89.5079 32.139 88.3069 30.6111 86.4743 30.6111C84.674 30.6111 83.463 32.1712 83.463 34.4631C83.463 36.7761 84.674 38.3251 86.4743 38.3251C88.3069 38.3251 89.508 36.8083 89.508 34.4631H89.5079Z" fill="white"/>
<path d="M100.28 35.8155C100.455 37.3769 101.972 38.402 104.045 38.402C106.031 38.402 107.459 37.3768 107.459 35.969C107.459 34.7468 106.598 34.0151 104.557 33.5136L102.517 33.022C99.6254 32.3237 98.2831 30.9715 98.2831 28.7774C98.2831 26.0608 100.651 24.1948 104.012 24.1948C107.339 24.1948 109.62 26.0608 109.697 28.7774H107.318C107.176 27.2061 105.877 26.2577 103.979 26.2577C102.081 26.2577 100.782 27.2173 100.782 28.614C100.782 29.7271 101.611 30.3822 103.641 30.8836L105.376 31.3095C108.606 32.0735 109.948 33.3712 109.948 35.6742C109.948 38.6199 107.602 40.4648 103.87 40.4648C100.378 40.4648 98.0206 38.6632 97.8683 35.8154L100.28 35.8155Z" fill="white"/>
<path d="M115.034 26.0063V28.723H117.217V30.589H115.034V36.9174C115.034 37.9006 115.471 38.3587 116.43 38.3587C116.689 38.3542 116.948 38.336 117.205 38.3042V40.159C116.774 40.2396 116.335 40.2762 115.897 40.268C113.573 40.268 112.666 39.3951 112.666 37.1688V30.589H110.997V28.723H112.666V26.0063H115.034Z" fill="white"/>
<path d="M118.481 34.4633C118.481 30.8514 120.608 28.5818 123.925 28.5818C127.254 28.5818 129.371 30.8514 129.371 34.4633C129.371 38.085 127.265 40.3448 123.925 40.3448C120.587 40.3448 118.481 38.085 118.481 34.4633ZM126.97 34.4633C126.97 31.9856 125.835 30.5233 123.925 30.5233C122.016 30.5233 120.882 31.9968 120.882 34.4633C120.882 36.9508 122.016 38.402 123.925 38.402C125.835 38.402 126.97 36.9508 126.97 34.4633H126.97Z" fill="white"/>
<path d="M131.314 28.7232H133.561V30.6771H133.615C133.768 30.0668 134.125 29.5275 134.628 29.1498C135.131 28.7722 135.748 28.5791 136.377 28.6031C136.648 28.6021 136.919 28.6316 137.184 28.691V30.895C136.841 30.7902 136.484 30.7421 136.125 30.7526C135.783 30.7387 135.442 30.7991 135.125 30.9295C134.808 31.06 134.523 31.2574 134.29 31.5084C134.057 31.7593 133.881 32.0577 133.774 32.3831C133.667 32.7086 133.631 33.0533 133.67 33.3937V40.2026H131.314L131.314 28.7232Z" fill="white"/>
<path d="M148.048 36.8307C147.731 38.9146 145.702 40.3448 143.105 40.3448C139.766 40.3448 137.693 38.1073 137.693 34.5178C137.693 30.9171 139.777 28.5818 143.006 28.5818C146.182 28.5818 148.179 30.7635 148.179 34.2441V35.0514H140.071V35.1938C140.034 35.6163 140.087 36.0419 140.227 36.4423C140.366 36.8428 140.59 37.209 140.882 37.5165C141.174 37.824 141.528 38.0659 141.921 38.226C142.313 38.3862 142.736 38.4609 143.16 38.4453C143.716 38.4975 144.275 38.3686 144.753 38.0776C145.23 37.7867 145.601 37.3494 145.811 36.8307L148.048 36.8307ZM140.083 33.4046H145.822C145.843 33.0247 145.785 32.6446 145.653 32.2881C145.52 31.9315 145.315 31.6062 145.05 31.3327C144.786 31.0591 144.468 30.8431 144.116 30.6983C143.764 30.5535 143.386 30.4829 143.006 30.4911C142.622 30.4888 142.242 30.5625 141.887 30.708C141.532 30.8535 141.209 31.0679 140.937 31.3387C140.665 31.6096 140.45 31.9316 140.303 32.2862C140.157 32.6408 140.082 33.0209 140.083 33.4046V33.4046Z" fill="white"/>
<path d="M54.5848 20.1709V12.6055H57.6259C59.0473 12.6055 59.9017 13.3286 59.9017 14.4925C59.902 14.8748 59.7702 15.2456 59.5285 15.5418C59.2868 15.8381 58.9502 16.0418 58.5756 16.1183V16.2074C59.0404 16.2294 59.4783 16.4317 59.7964 16.7713C60.1145 17.1109 60.2878 17.5611 60.2794 18.0263C60.2794 19.358 59.3098 20.1709 57.694 20.1709L54.5848 20.1709ZM55.7599 15.8087H57.1541C58.193 15.8087 58.7328 15.426 58.7328 14.7079C58.7328 14.0102 58.2239 13.6016 57.3535 13.6016H55.7599V15.8087ZM57.4587 19.1747C58.5174 19.1747 59.0783 18.7444 59.0783 17.9427C59.0783 17.1509 58.4963 16.7367 57.3906 16.7367H55.7599V19.1747H57.4587Z" fill="white"/>
<path d="M61.4866 18.5563C61.4866 17.5285 62.2518 16.9361 63.6101 16.8519L65.1566 16.7627V16.2699C65.1566 15.6669 64.7579 15.3264 63.9878 15.3264C63.3588 15.3264 62.9229 15.5573 62.7978 15.961H61.707C61.8221 14.9803 62.7446 14.3513 64.0398 14.3513C65.4711 14.3513 66.2784 15.0639 66.2784 16.2699V20.1709H65.1938V19.3685H65.1046C64.9237 19.6563 64.6696 19.891 64.3683 20.0485C64.067 20.206 63.7293 20.2807 63.3897 20.265C63.15 20.2899 62.9078 20.2643 62.6786 20.1899C62.4494 20.1155 62.2383 19.9938 62.059 19.8329C61.8797 19.6719 61.7361 19.4751 61.6375 19.2552C61.5389 19.0353 61.4875 18.7972 61.4866 18.5563V18.5563ZM65.1566 18.0684V17.5911L63.7624 17.6802C62.9761 17.7329 62.6195 18.0003 62.6195 18.5036C62.6195 19.0175 63.0653 19.3165 63.6782 19.3165C63.8578 19.3347 64.0393 19.3166 64.2117 19.2632C64.3841 19.2098 64.5441 19.1223 64.682 19.0059C64.82 18.8894 64.9331 18.7464 65.0146 18.5854C65.0961 18.4243 65.1444 18.2485 65.1566 18.0684V18.0684Z" fill="white"/>
<path d="M67.8956 12.7734C67.8869 12.6274 67.9222 12.4822 67.997 12.3566C68.0718 12.231 68.1825 12.1307 68.315 12.0688C68.4474 12.0068 68.5954 11.9861 68.7397 12.0092C68.8841 12.0323 69.0182 12.0983 69.1246 12.1985C69.2311 12.2987 69.305 12.4285 69.3368 12.5712C69.3686 12.7139 69.3568 12.8629 69.3029 12.9988C69.2491 13.1347 69.1557 13.2514 69.0348 13.3336C68.9139 13.4158 68.7711 13.4598 68.6249 13.4599C68.5314 13.4647 68.438 13.4505 68.3502 13.4183C68.2624 13.386 68.182 13.3363 68.1138 13.2722C68.0457 13.208 67.9913 13.1308 67.9538 13.0451C67.9162 12.9593 67.8965 12.8669 67.8956 12.7734V12.7734ZM68.0627 14.4617H69.1858V20.171H68.0627L68.0627 14.4617Z" fill="white"/>
<path d="M73.0527 18.1472L71.8046 20.171H70.5676L72.4608 17.3294L70.5515 14.4617H71.8677L73.0948 16.475H73.1839L74.3999 14.4617H75.6529L73.7709 17.2823L75.674 20.171H74.38L73.1369 18.1472H73.0527Z" fill="white"/>
<path d="M76.6683 18.5563C76.6683 17.5285 77.4336 16.9361 78.7919 16.8519L80.3384 16.7627V16.2699C80.3384 15.6669 79.9397 15.3264 79.1695 15.3264C78.5405 15.3264 78.1047 15.5573 77.9796 15.961H76.8887C77.0039 14.9803 77.9264 14.3513 79.2215 14.3513C80.6529 14.3513 81.4602 15.0639 81.4602 16.2699V20.1709H80.3755V19.3685H80.2864C80.1054 19.6563 79.8513 19.891 79.55 20.0485C79.2488 20.206 78.9111 20.2807 78.5715 20.265C78.3318 20.2899 78.0895 20.2643 77.8603 20.1899C77.6312 20.1155 77.4201 19.9938 77.2408 19.8329C77.0615 19.6719 76.9179 19.4751 76.8193 19.2552C76.7207 19.0353 76.6693 18.7972 76.6683 18.5563V18.5563ZM80.3384 18.0684V17.5911L78.9442 17.6802C78.1579 17.7329 77.8013 18.0003 77.8013 18.5036C77.8013 19.0175 78.247 19.3165 78.86 19.3165C79.0396 19.3347 79.221 19.3166 79.3935 19.2632C79.5659 19.2098 79.7259 19.1223 79.8638 19.0059C80.0017 18.8894 80.1148 18.7464 80.1963 18.5854C80.2779 18.4243 80.3262 18.2485 80.3384 18.0684V18.0684Z" fill="white"/>
<path d="M83.2246 14.4618H84.3093V15.3372H84.3935C84.5149 15.0333 84.7295 14.7757 85.0065 14.6014C85.2835 14.4271 85.6085 14.345 85.9351 14.367C86.1038 14.3648 86.2724 14.3805 86.4378 14.4141V15.5261C86.231 15.4819 86.0202 15.459 85.8088 15.4579C85.6229 15.4413 85.4356 15.4636 85.259 15.5236C85.0823 15.5836 84.9201 15.6799 84.7828 15.8063C84.6456 15.9327 84.5363 16.0865 84.462 16.2576C84.3877 16.4288 84.35 16.6136 84.3514 16.8002V20.1712H83.2246L83.2246 14.4618Z" fill="white"/>
<path d="M90.7802 14.4615H91.8655V15.3685H91.9497C92.0925 15.0428 92.3334 14.7697 92.6389 14.5873C92.9443 14.405 93.2989 14.3225 93.6535 14.3513C93.9313 14.3304 94.2102 14.3723 94.4696 14.4739C94.729 14.5754 94.9623 14.7341 95.1521 14.938C95.3419 15.1419 95.4833 15.386 95.566 15.652C95.6487 15.918 95.6704 16.1993 95.6297 16.4748V20.1708H94.5029V16.7578C94.5029 15.8403 94.1042 15.384 93.2709 15.384C93.0823 15.3752 92.894 15.4073 92.7189 15.4781C92.5439 15.5489 92.3862 15.6567 92.2567 15.7941C92.1272 15.9315 92.029 16.0953 91.9687 16.2743C91.9085 16.4532 91.8876 16.6431 91.9076 16.8308V20.1709H90.7802L90.7802 14.4615Z" fill="white"/>
<path d="M97.0474 18.5563C97.0474 17.5285 97.8126 16.9361 99.1709 16.8519L100.717 16.7627V16.2699C100.717 15.6669 100.319 15.3264 99.5486 15.3264C98.9195 15.3264 98.4837 15.5573 98.3586 15.961H97.2678C97.3829 14.9803 98.3054 14.3513 99.6005 14.3513C101.032 14.3513 101.839 15.0639 101.839 16.2699V20.1709H100.755V19.3685H100.665C100.484 19.6563 100.23 19.891 99.9291 20.0485C99.6278 20.206 99.2901 20.2807 98.9505 20.265C98.7108 20.2899 98.4686 20.2643 98.2394 20.1899C98.0102 20.1155 97.7991 19.9938 97.6198 19.8329C97.4405 19.6719 97.2969 19.4751 97.1983 19.2552C97.0997 19.0353 97.0483 18.7972 97.0474 18.5563V18.5563ZM100.717 18.0684V17.5911L99.3232 17.6802C98.5369 17.7329 98.1803 18.0003 98.1803 18.5036C98.1803 19.0175 98.6261 19.3165 99.239 19.3165C99.4186 19.3347 99.6 19.3166 99.7725 19.2632C99.9449 19.2098 100.105 19.1223 100.243 19.0059C100.381 18.8894 100.494 18.7464 100.575 18.5854C100.657 18.4243 100.705 18.2485 100.717 18.0684H100.717Z" fill="white"/>
<rect x="0.5" y="0.5" width="169" height="55" rx="2.5" stroke="white"/>
</svg>
