<svg width="188" height="56" viewBox="0 0 188 56" fill="none" xmlns="http://www.w3.org/2000/svg">
<path fill-rule="evenodd" clip-rule="evenodd" d="M56 11H12V47H56V11ZM41.1127 15.645H30.3609C29.7906 15.645 29.2436 15.8285 28.8403 16.1552C28.4371 16.4819 28.2105 16.925 28.2105 17.387C28.2105 17.8489 28.4371 18.292 28.8403 18.6187C29.2436 18.9454 29.7906 19.1289 30.3609 19.1289H41.1127C41.6831 19.1289 42.2301 18.9454 42.6333 18.6187C43.0366 18.292 43.2632 17.8489 43.2632 17.387C43.2632 16.925 43.0366 16.4819 42.6333 16.1552C42.2301 15.8285 41.6831 15.645 41.1127 15.645Z" fill="#EFEFEF"/>
<g clip-path="url(#clip0)">
<path d="M52.201 36.6402H34.0007C29.933 36.6364 26.6322 39.8138 26.6282 43.7371C26.6269 44.9558 26.9507 46.1542 27.5684 47.2172L18.4683 32.1569C25.0964 23.8827 37.424 22.3577 46.0026 28.7507C48.7576 30.8038 50.8968 33.5267 52.201 36.6402Z" fill="#F44336"/>
<path d="M53.6414 43.7443C53.6324 54.2031 44.8442 62.6794 34.0007 62.6881C33.1795 62.6911 32.3591 62.6383 31.5457 62.5303L40.384 47.2963C42.4096 43.895 41.2021 39.5541 37.6834 37.5876C36.5693 36.9655 35.3044 36.6386 34.0171 36.6404H52.2011C53.1569 38.8951 53.6462 41.3084 53.6414 43.7443Z" fill="#FFC107"/>
<path d="M40.3839 47.2962L31.5456 62.5302H31.5293C20.7739 61.2195 13.1566 51.7474 14.5154 41.3736C14.9553 38.0159 16.3202 34.8332 18.4683 32.157L27.5684 47.2173L27.6175 47.2962C29.6469 50.6965 34.1498 51.8662 37.6751 49.9089C38.8012 49.2837 39.7358 48.3823 40.3839 47.2962Z" fill="#4CAF50"/>
<path d="M40.3839 47.2961C38.3545 50.6963 33.8516 51.866 30.3263 49.9088C29.2002 49.2835 28.2657 48.3822 27.6175 47.2961L27.5684 47.2171C25.5797 43.7946 26.8442 39.4651 30.3926 37.547C31.4948 36.9512 32.7373 36.639 34.0007 36.6401H34.017C35.3043 36.6384 36.5692 36.9652 37.6833 37.5873C41.2021 39.5539 42.4096 43.8948 40.3839 47.2961Z" fill="#F44336"/>
<path d="M40.3839 47.2961C38.3545 50.6963 33.8516 51.866 30.3263 49.9088C29.2002 49.2835 28.2657 48.3822 27.6175 47.2961L27.5684 47.2171C25.5797 43.7946 26.8442 39.4651 30.3926 37.547C31.4948 36.9512 32.7373 36.639 34.0007 36.6401H34.017C35.3043 36.6384 36.5692 36.9652 37.6833 37.5873C41.2021 39.5539 42.4096 43.8948 40.3839 47.2961Z" fill="#2196F3"/>
<path d="M33.9729 51.6373C32.546 51.6371 31.1443 51.2745 29.9089 50.5859C28.6632 49.891 27.6286 48.8926 26.9088 47.6907C24.649 43.9154 25.99 39.088 29.9042 36.9084C31.1496 36.2148 32.5626 35.8501 34.0007 35.8508C38.5204 35.8474 42.1872 39.3787 42.1907 43.738C42.1918 45.1256 41.8136 46.4889 41.0942 47.6907C39.6193 50.1364 36.9062 51.6399 33.9729 51.6373ZM34.0154 37.4295C31.6667 37.4174 29.4923 38.6231 28.3212 40.5868C26.5134 43.6104 27.5891 47.4751 30.7239 49.2188C33.8587 50.9626 37.8656 49.925 39.6735 46.9014C41.4814 43.8812 40.4085 40.0193 37.2772 38.2755C36.2858 37.7235 35.1617 37.4317 34.017 37.4295H34.0154V37.4295Z" fill="#FAFAFA"/>
</g>
<path d="M70.9647 40.9616C69.5616 40.9616 68.3744 40.4801 67.439 39.48C66.5037 38.517 66 37.2947 66 35.8131C66 34.3685 66.4677 33.1462 67.439 32.1461C68.3744 31.1831 69.5616 30.6646 70.9647 30.6646C72.4037 30.6646 73.555 31.1831 74.4544 32.2573L73.5909 33.1092C72.9434 32.2943 72.044 31.8498 70.9287 31.8498C69.8854 31.8498 69.022 32.2202 68.3025 32.924C67.5829 33.6277 67.2232 34.5908 67.2232 35.7761C67.2232 36.9613 67.5829 37.8873 68.3025 38.6281C69.022 39.3319 69.8854 39.7023 70.9287 39.7023C72.0799 39.7023 73.0513 39.2208 73.8428 38.2948L74.7062 39.1837C74.2745 39.7393 73.7348 40.1468 73.0513 40.4801C72.4757 40.8135 71.7562 40.9616 70.9647 40.9616Z" fill="#5F6368"/>
<path d="M77.0807 30.9255V34.0369L77.0448 34.9629H77.0807C77.2606 34.6295 77.5484 34.3703 77.9082 34.148C78.3039 33.9258 78.6996 33.8147 79.1314 33.8147C79.9228 33.8147 80.5704 34.0739 80.9661 34.5925C81.3978 35.1111 81.6137 35.7778 81.6137 36.6667V40.7782H80.3905V36.8149C80.3905 35.5555 79.8509 34.9629 78.7716 34.9629C78.2679 34.9629 77.8362 35.1851 77.5484 35.5926C77.2246 36 77.0807 36.4815 77.0807 37.0371V40.7411H75.8575V30.9255H77.0807Z" fill="#5F6368"/>
<path d="M84.2757 40.7413H83.0525V34.0371H84.2397V35.1483H84.2757C84.3836 34.7779 84.6714 34.4816 85.0312 34.2593C85.4269 34.0371 85.7867 33.8889 86.1464 33.8889C86.5062 33.8889 86.83 33.926 87.0818 34.0371L86.6141 35.2224C86.4702 35.1483 86.2543 35.1112 85.9665 35.1112C85.5348 35.1112 85.1391 35.2964 84.7793 35.6668C84.4556 36.0372 84.2757 36.5188 84.2757 37.0744V40.7413Z" fill="#5F6368"/>
<path d="M88.0894 34.8513C88.737 34.1846 89.5285 33.8142 90.4998 33.8142C91.4712 33.8142 92.2627 34.1476 92.9102 34.8513C93.5578 35.518 93.8456 36.37 93.8456 37.4071C93.8456 38.4442 93.5218 39.2961 92.9102 39.9628C92.2627 40.6296 91.4712 41 90.4998 41C89.5285 41 88.737 40.6666 88.0894 39.9628C87.4419 39.2961 87.1541 38.4442 87.1541 37.4071C87.1181 36.37 87.4419 35.518 88.0894 34.8513ZM88.9888 39.148C89.4206 39.5924 89.9242 39.8147 90.4998 39.8147C91.0755 39.8147 91.5791 39.5924 92.0108 39.148C92.4425 38.7035 92.6584 38.1108 92.6584 37.37C92.6584 36.6292 92.4425 36.0366 92.0108 35.5921C91.5791 35.1476 91.0755 34.9254 90.4998 34.9254C89.9242 34.9254 89.4206 35.1476 88.9888 35.5921C88.5571 36.0366 88.3413 36.6292 88.3413 37.37C88.3413 38.1108 88.5571 38.7035 88.9888 39.148Z" fill="#5F6368"/>
<path d="M94.8169 40.7407V34.0364H96.0041V34.9624H96.0401C96.22 34.6291 96.5078 34.3698 96.9035 34.1476C97.2992 33.9253 97.659 33.8142 98.0547 33.8142C99.0621 33.8142 99.7456 34.2587 100.105 35.1106C100.645 34.2587 101.401 33.8142 102.372 33.8142C103.127 33.8142 103.739 34.0735 104.099 34.592C104.494 35.1106 104.674 35.7773 104.674 36.6663V40.7777H103.451V36.8144C103.451 36.1477 103.343 35.6662 103.091 35.3699C102.84 35.0736 102.48 34.9624 102.012 34.9624C101.544 34.9624 101.149 35.1847 100.825 35.5921C100.501 35.9996 100.357 36.4811 100.357 37.0367V40.7407H99.134V36.8144C99.134 36.1477 99.0261 35.6662 98.7743 35.3699C98.5224 35.0736 98.1627 34.9624 97.695 34.9624C97.2273 34.9624 96.8316 35.1847 96.5078 35.5921C96.184 35.9996 96.0401 36.4811 96.0401 37.0367V40.7407H94.8169Z" fill="#5F6368"/>
<path d="M109.135 40.9644C108.164 40.9644 107.337 40.6311 106.725 39.9644C106.113 39.2976 105.79 38.4457 105.79 37.4086C105.79 36.4456 106.077 35.5937 106.689 34.8899C107.301 34.1861 108.056 33.8528 108.992 33.8528C109.963 33.8528 110.718 34.1861 111.33 34.8158C111.942 35.4455 112.193 36.3345 112.193 37.4086V37.6309H107.049C107.085 38.2976 107.301 38.8532 107.696 39.2236C108.092 39.631 108.56 39.8162 109.099 39.8162C109.963 39.8162 110.574 39.4458 110.898 38.668L111.978 39.1495C111.762 39.668 111.402 40.1125 110.934 40.4459C110.431 40.7792 109.819 40.9644 109.135 40.9644ZM110.862 36.5937C110.826 36.2233 110.682 35.8529 110.359 35.4825C110.035 35.1492 109.567 34.964 108.956 34.964C108.488 34.964 108.128 35.1121 107.768 35.4085C107.409 35.7048 107.193 36.0752 107.085 36.5937H110.862Z" fill="#5F6368"/>
<path d="M127.015 30.9255L124.461 40.7411H123.202L121.151 34.2591H121.115L119.065 40.7411H117.805L115.143 30.9255H116.438L118.453 38.6298H118.489L120.54 32.2219H121.691L123.741 38.6298H123.777L125.684 30.9255H127.015Z" fill="#5F6368"/>
<path d="M130.181 40.9644C129.21 40.9644 128.382 40.6311 127.771 39.9644C127.159 39.2976 126.835 38.4457 126.835 37.4086C126.835 36.4456 127.123 35.5937 127.735 34.8899C128.346 34.1861 129.102 33.8528 130.037 33.8528C131.009 33.8528 131.764 34.1861 132.376 34.8158C132.987 35.4455 133.239 36.3345 133.239 37.4086V37.6309H128.095C128.131 38.2976 128.346 38.8532 128.742 39.2236C129.138 39.631 129.606 39.8162 130.145 39.8162C131.009 39.8162 131.62 39.4458 131.944 38.668L133.023 39.1495C132.807 39.668 132.448 40.1125 131.98 40.4459C131.512 40.7792 130.901 40.9644 130.181 40.9644ZM131.944 36.5937C131.908 36.2233 131.764 35.8529 131.44 35.4825C131.117 35.1492 130.649 34.964 130.037 34.964C129.57 34.964 129.21 35.1121 128.85 35.4085C128.49 35.7048 128.274 36.0752 128.167 36.5937H131.944Z" fill="#5F6368"/>
<path d="M137.808 40.9634C137.305 40.9634 136.873 40.8522 136.477 40.63C136.081 40.4078 135.794 40.1485 135.578 39.8151H135.542V40.7411H134.355V30.9255H135.578V34.0369L135.542 34.9629H135.578C135.758 34.6295 136.081 34.3703 136.477 34.148C136.873 33.9258 137.305 33.8147 137.808 33.8147C138.636 33.8147 139.391 34.148 140.003 34.8518C140.614 35.5555 140.938 36.3704 140.938 37.4075C140.938 38.4076 140.614 39.2595 140.003 39.9633C139.391 40.63 138.672 40.9634 137.808 40.9634ZM137.628 39.8151C138.204 39.8151 138.672 39.5929 139.103 39.1484C139.535 38.7039 139.715 38.1113 139.715 37.3705C139.715 36.6297 139.499 36.0371 139.103 35.5926C138.708 35.1481 138.204 34.9259 137.628 34.9259C137.053 34.9259 136.549 35.1481 136.153 35.5926C135.758 36.0371 135.542 36.6297 135.542 37.3705C135.542 38.1113 135.758 38.7039 136.153 39.1484C136.549 39.5929 137.053 39.8151 137.628 39.8151Z" fill="#5F6368"/>
<path d="M147.45 40.9614C146.766 40.9614 146.083 40.7392 145.435 40.2577C144.788 39.7761 144.356 39.1465 144.14 38.2945L145.255 37.813C145.399 38.3686 145.651 38.8131 146.083 39.1835C146.514 39.5539 146.946 39.7391 147.486 39.7391C148.025 39.7391 148.457 39.5909 148.853 39.2946C149.213 38.9983 149.428 38.6279 149.428 38.1093C149.428 37.5537 149.249 37.1463 148.853 36.85C148.493 36.5537 147.881 36.2944 147.054 36.0351C146.227 35.7758 145.579 35.4054 145.147 34.9609C144.716 34.5165 144.5 33.9609 144.5 33.2941C144.5 32.5904 144.788 31.9607 145.327 31.4421C145.867 30.9236 146.586 30.6643 147.45 30.6643C148.241 30.6643 148.925 30.8865 149.428 31.294C149.932 31.7014 150.256 32.1459 150.4 32.6645L149.285 33.146C149.213 32.8497 148.997 32.5533 148.709 32.2941C148.385 32.0348 147.989 31.8866 147.486 31.8866C147.018 31.8866 146.622 32.0348 146.299 32.2941C145.975 32.5533 145.795 32.8867 145.795 33.2941C145.795 33.6645 145.939 33.9609 146.263 34.2201C146.586 34.4794 147.018 34.7017 147.63 34.8869C148.097 35.035 148.493 35.1832 148.817 35.3313C149.141 35.4795 149.464 35.6647 149.788 35.924C150.112 36.1833 150.364 36.4796 150.508 36.8129C150.688 37.1833 150.76 37.5908 150.76 38.0723C150.76 38.5538 150.652 38.9613 150.472 39.3317C150.292 39.7021 150.04 39.9984 149.716 40.2206C149.392 40.4429 149.069 40.591 148.709 40.7392C148.205 40.9244 147.845 40.9614 147.45 40.9614Z" fill="#5F6368"/>
<path d="M154.429 40.8533C153.746 40.8533 153.242 40.6681 152.882 40.2977C152.522 39.9273 152.342 39.4087 152.342 38.705V35.1862H151.191V34.0379H152.342V32.0007H153.566V34.0379H155.149V35.1862H153.566V38.5938C153.566 39.3346 153.853 39.705 154.429 39.705C154.645 39.705 154.825 39.668 155.005 39.5939L155.436 40.6681C155.149 40.8163 154.789 40.8533 154.429 40.8533Z" fill="#5F6368"/>
<path d="M156.804 34.8513C157.451 34.1846 158.243 33.8142 159.214 33.8142C160.185 33.8142 160.977 34.1476 161.624 34.8513C162.272 35.518 162.56 36.37 162.56 37.4071C162.56 38.4442 162.236 39.2961 161.624 39.9628C160.977 40.6296 160.185 41 159.214 41C158.243 41 157.451 40.6666 156.804 39.9628C156.156 39.2961 155.868 38.4442 155.868 37.4071C155.868 36.37 156.192 35.518 156.804 34.8513ZM157.739 39.148C158.171 39.5924 158.674 39.8147 159.25 39.8147C159.826 39.8147 160.329 39.5924 160.761 39.148C161.193 38.7035 161.409 38.1108 161.409 37.37C161.409 36.6292 161.193 36.0366 160.761 35.5921C160.329 35.1476 159.826 34.9254 159.25 34.9254C158.674 34.9254 158.171 35.1476 157.739 35.5921C157.307 36.0366 157.091 36.6292 157.091 37.37C157.091 38.1108 157.307 38.7035 157.739 39.148Z" fill="#5F6368"/>
<path d="M164.79 40.7413H163.567V34.0371H164.754V35.1483H164.79C164.898 34.7779 165.186 34.4816 165.545 34.2593C165.941 34.0371 166.301 33.8889 166.661 33.8889C167.021 33.8889 167.344 33.926 167.596 34.0371L167.128 35.2224C166.985 35.1483 166.769 35.1112 166.481 35.1112C166.049 35.1112 165.653 35.2964 165.294 35.6668C164.934 36.0372 164.79 36.5188 164.79 37.0744V40.7413Z" fill="#5F6368"/>
<path d="M170.942 40.9644C169.971 40.9644 169.143 40.6311 168.532 39.9644C167.92 39.2976 167.596 38.4457 167.596 37.4086C167.596 36.4456 167.884 35.5937 168.496 34.8899C169.107 34.1861 169.863 33.8528 170.798 33.8528C171.769 33.8528 172.525 34.1861 173.137 34.8158C173.748 35.4455 174 36.3345 174 37.4086V37.6309H168.855C168.891 38.2976 169.107 38.8532 169.503 39.2236C169.899 39.631 170.366 39.8162 170.906 39.8162C171.769 39.8162 172.381 39.4458 172.705 38.668L173.784 39.1495C173.568 39.668 173.209 40.1125 172.741 40.4459C172.273 40.7792 171.662 40.9644 170.942 40.9644ZM172.705 36.5937C172.669 36.2233 172.525 35.8529 172.201 35.4825C171.877 35.1492 171.41 34.964 170.798 34.964C170.33 34.964 169.971 35.1121 169.611 35.4085C169.251 35.7048 169.035 36.0752 168.927 36.5937H172.705Z" fill="#5F6368"/>
<path d="M65.8 17.84H67.96C68.6933 17.84 69.3333 17.9933 69.88 18.3C70.4267 18.6 70.8467 19.02 71.14 19.56C71.4333 20.1 71.58 20.72 71.58 21.42C71.58 22.12 71.4333 22.74 71.14 23.28C70.8467 23.82 70.4267 24.2433 69.88 24.55C69.3333 24.85 68.6933 25 67.96 25H65.8V17.84ZM67.96 24.19C68.8067 24.19 69.4767 23.9467 69.97 23.46C70.47 22.9733 70.72 22.2933 70.72 21.42C70.72 20.5467 70.47 19.8667 69.97 19.38C69.4767 18.8933 68.8067 18.65 67.96 18.65H66.64V24.19H67.96ZM73.1613 18.96C72.9946 18.96 72.8513 18.9 72.7313 18.78C72.6113 18.66 72.5513 18.5167 72.5513 18.35C72.5513 18.1833 72.6113 18.0433 72.7313 17.93C72.8513 17.81 72.9946 17.75 73.1613 17.75C73.3279 17.75 73.4713 17.81 73.5913 17.93C73.7113 18.0433 73.7713 18.1833 73.7713 18.35C73.7713 18.5167 73.7113 18.66 73.5913 18.78C73.4779 18.9 73.3346 18.96 73.1613 18.96ZM72.7413 19.9H73.5813V25H72.7413V19.9ZM76.6971 25.16C76.1504 25.16 75.6938 25.0333 75.3271 24.78C74.9604 24.52 74.7004 24.19 74.5471 23.79L75.3071 23.45C75.4338 23.7567 75.6204 23.9933 75.8671 24.16C76.1204 24.3267 76.3971 24.41 76.6971 24.41C77.0171 24.41 77.2904 24.3467 77.5171 24.22C77.7438 24.0867 77.8571 23.9 77.8571 23.66C77.8571 23.4467 77.7671 23.2767 77.5871 23.15C77.4071 23.0167 77.1238 22.9033 76.7371 22.81L76.1171 22.65C75.7104 22.55 75.3771 22.38 75.1171 22.14C74.8571 21.9 74.7271 21.59 74.7271 21.21C74.7271 20.9167 74.8138 20.66 74.9871 20.44C75.1671 20.2133 75.4038 20.04 75.6971 19.92C75.9904 19.8 76.3071 19.74 76.6471 19.74C77.0938 19.74 77.4904 19.8367 77.8371 20.03C78.1904 20.2233 78.4404 20.4933 78.5871 20.84L77.8471 21.18C77.6204 20.7267 77.2171 20.5 76.6371 20.5C76.3571 20.5 76.1104 20.5667 75.8971 20.7C75.6904 20.8267 75.5871 20.99 75.5871 21.19C75.5871 21.3767 75.6604 21.53 75.8071 21.65C75.9538 21.7633 76.1738 21.8567 76.4671 21.93L77.2071 22.12C77.7071 22.2467 78.0838 22.4367 78.3371 22.69C78.5904 22.9367 78.7171 23.24 78.7171 23.6C78.7171 23.9133 78.6271 24.19 78.4471 24.43C78.2671 24.6633 78.0238 24.8433 77.7171 24.97C77.4104 25.0967 77.0704 25.16 76.6971 25.16ZM79.5548 19.9H80.3648V20.66H80.4048C80.5582 20.4 80.7882 20.1833 81.0948 20.01C81.4082 19.83 81.7582 19.74 82.1448 19.74C82.5982 19.74 83.0115 19.8567 83.3848 20.09C83.7582 20.3233 84.0515 20.6467 84.2648 21.06C84.4782 21.4733 84.5848 21.9367 84.5848 22.45C84.5848 22.97 84.4782 23.4367 84.2648 23.85C84.0515 24.2567 83.7582 24.5767 83.3848 24.81C83.0115 25.0433 82.5982 25.16 82.1448 25.16C81.7582 25.16 81.4082 25.0733 81.0948 24.9C80.7882 24.72 80.5582 24.5033 80.4048 24.25H80.3648L80.4048 24.95V27.16H79.5548V19.9ZM82.0448 24.39C82.3382 24.39 82.6148 24.31 82.8748 24.15C83.1348 23.99 83.3415 23.7633 83.4948 23.47C83.6548 23.17 83.7348 22.83 83.7348 22.45C83.7348 22.07 83.6548 21.7333 83.4948 21.44C83.3415 21.14 83.1348 20.91 82.8748 20.75C82.6148 20.59 82.3382 20.51 82.0448 20.51C81.7515 20.51 81.4748 20.59 81.2148 20.75C80.9548 20.91 80.7482 21.1367 80.5948 21.43C80.4415 21.7233 80.3648 22.0633 80.3648 22.45C80.3648 22.8367 80.4415 23.1767 80.5948 23.47C80.7482 23.7633 80.9548 23.99 81.2148 24.15C81.4748 24.31 81.7515 24.39 82.0448 24.39ZM87.9214 25.16C87.4214 25.16 86.9714 25.04 86.5714 24.8C86.1714 24.56 85.8581 24.2333 85.6314 23.82C85.4114 23.4067 85.3014 22.95 85.3014 22.45C85.3014 21.95 85.4114 21.4933 85.6314 21.08C85.8581 20.6667 86.1714 20.34 86.5714 20.1C86.9714 19.86 87.4214 19.74 87.9214 19.74C88.4214 19.74 88.8714 19.86 89.2714 20.1C89.6714 20.34 89.9814 20.6667 90.2014 21.08C90.4281 21.4933 90.5414 21.95 90.5414 22.45C90.5414 22.95 90.4281 23.4067 90.2014 23.82C89.9814 24.2333 89.6714 24.56 89.2714 24.8C88.8714 25.04 88.4214 25.16 87.9214 25.16ZM87.9214 24.39C88.2347 24.39 88.5247 24.3133 88.7914 24.16C89.0647 24 89.2814 23.7733 89.4414 23.48C89.6081 23.1867 89.6914 22.8433 89.6914 22.45C89.6914 22.0567 89.6081 21.7133 89.4414 21.42C89.2814 21.1267 89.0647 20.9033 88.7914 20.75C88.5247 20.59 88.2347 20.51 87.9214 20.51C87.6081 20.51 87.3147 20.59 87.0414 20.75C86.7681 20.9033 86.5481 21.1267 86.3814 21.42C86.2214 21.7133 86.1414 22.0567 86.1414 22.45C86.1414 22.8433 86.2214 23.1867 86.3814 23.48C86.5481 23.7733 86.7681 24 87.0414 24.16C87.3147 24.3133 87.6081 24.39 87.9214 24.39ZM91.4308 19.9H92.2408V20.65H92.2808C92.4208 20.3967 92.6441 20.1833 92.9508 20.01C93.2574 19.83 93.5841 19.74 93.9308 19.74C94.5441 19.74 95.0108 19.92 95.3308 20.28C95.6574 20.6333 95.8208 21.1167 95.8208 21.73V25H94.9708V21.86C94.9708 21.3867 94.8574 21.0433 94.6308 20.83C94.4041 20.6167 94.0941 20.51 93.7008 20.51C93.4274 20.51 93.1808 20.5867 92.9608 20.74C92.7474 20.8933 92.5808 21.0967 92.4608 21.35C92.3408 21.5967 92.2808 21.8567 92.2808 22.13V25H91.4308V19.9ZM97.1163 19.9H97.9563V25H97.1163V19.9ZM97.6863 17.64H98.6163L97.9063 18.91H97.1663L97.6863 17.64ZM98.7321 19.9H99.6421L101.222 24H101.242L102.842 19.9H103.732L101.652 25H100.792L98.7321 19.9ZM106.552 25.16C106.066 25.16 105.629 25.0433 105.242 24.81C104.856 24.5767 104.552 24.2567 104.332 23.85C104.119 23.4367 104.012 22.9733 104.012 22.46C104.012 21.9667 104.112 21.5133 104.312 21.1C104.519 20.6867 104.809 20.3567 105.182 20.11C105.556 19.8633 105.989 19.74 106.482 19.74C106.982 19.74 107.416 19.8533 107.782 20.08C108.149 20.3 108.429 20.6067 108.622 21C108.822 21.3933 108.922 21.8433 108.922 22.35C108.922 22.45 108.912 22.5367 108.892 22.61H104.862C104.882 22.9967 104.976 23.3233 105.142 23.59C105.309 23.8567 105.519 24.0567 105.772 24.19C106.032 24.3233 106.302 24.39 106.582 24.39C107.236 24.39 107.739 24.0833 108.092 23.47L108.812 23.82C108.592 24.2333 108.292 24.56 107.912 24.8C107.539 25.04 107.086 25.16 106.552 25.16ZM108.022 21.91C108.009 21.6967 107.949 21.4833 107.842 21.27C107.736 21.0567 107.566 20.8767 107.332 20.73C107.106 20.5833 106.819 20.51 106.472 20.51C106.072 20.51 105.732 20.64 105.452 20.9C105.179 21.1533 104.999 21.49 104.912 21.91H108.022ZM109.917 17.84H110.767V25H109.917V17.84ZM114.351 19.9H115.161V20.65H115.201C115.341 20.3967 115.564 20.1833 115.871 20.01C116.177 19.83 116.504 19.74 116.851 19.74C117.464 19.74 117.931 19.92 118.251 20.28C118.577 20.6333 118.741 21.1167 118.741 21.73V25H117.891V21.86C117.891 21.3867 117.777 21.0433 117.551 20.83C117.324 20.6167 117.014 20.51 116.621 20.51C116.347 20.51 116.101 20.5867 115.881 20.74C115.667 20.8933 115.501 21.0967 115.381 21.35C115.261 21.5967 115.201 21.8567 115.201 22.13V25H114.351V19.9ZM121.537 25.16C121.164 25.16 120.831 25.0867 120.537 24.94C120.244 24.7933 120.017 24.5933 119.857 24.34C119.697 24.08 119.617 23.7867 119.617 23.46C119.617 22.92 119.821 22.5 120.227 22.2C120.634 21.8933 121.147 21.74 121.767 21.74C122.074 21.74 122.357 21.7733 122.617 21.84C122.884 21.9067 123.087 21.9833 123.227 22.07V21.76C123.227 21.38 123.094 21.0767 122.827 20.85C122.561 20.6167 122.224 20.5 121.817 20.5C121.531 20.5 121.267 20.5633 121.027 20.69C120.787 20.81 120.597 20.98 120.457 21.2L119.817 20.72C120.017 20.4133 120.291 20.1733 120.637 20C120.991 19.8267 121.381 19.74 121.807 19.74C122.501 19.74 123.044 19.9233 123.437 20.29C123.837 20.65 124.037 21.1433 124.037 21.77V25H123.227V24.27H123.187C123.041 24.5167 122.821 24.7267 122.527 24.9C122.234 25.0733 121.904 25.16 121.537 25.16ZM121.617 24.41C121.904 24.41 122.171 24.3367 122.417 24.19C122.664 24.0433 122.861 23.8467 123.007 23.6C123.154 23.3533 123.227 23.0833 123.227 22.79C123.067 22.6833 122.871 22.5967 122.637 22.53C122.404 22.4633 122.157 22.43 121.897 22.43C121.431 22.43 121.077 22.5267 120.837 22.72C120.604 22.9133 120.487 23.1633 120.487 23.47C120.487 23.75 120.594 23.9767 120.807 24.15C121.021 24.3233 121.291 24.41 121.617 24.41Z" fill="#5F6368"/>
<rect x="0.5" y="0.5" width="187" height="55" rx="2.5" stroke="#444444"/>
<defs>
<clipPath id="clip0">
<rect width="40" height="31" fill="white" transform="translate(14 16)"/>
</clipPath>
</defs>
</svg>
