<svg width="170" height="56" viewBox="0 0 170 56" fill="none" xmlns="http://www.w3.org/2000/svg">
<path d="M127.509 38.6913H129.534V25.4772H127.509V38.6913ZM145.748 30.2372L143.427 35.9662H143.357L140.948 30.2372H138.767L142.38 38.2445L140.32 42.6985H142.433L148 30.2372H145.748ZM134.264 37.1905C133.6 37.1905 132.676 36.8676 132.676 36.0682C132.676 35.0483 133.828 34.6573 134.822 34.6573C135.713 34.6573 136.131 34.8443 136.673 35.0996C136.515 36.3234 135.433 37.1905 134.264 37.1905ZM134.509 29.9482C133.043 29.9482 131.524 30.5774 130.896 31.9714L132.693 32.7022C133.077 31.9714 133.792 31.7332 134.543 31.7332C135.591 31.7332 136.655 32.3455 136.673 33.4335V33.5693C136.306 33.3653 135.521 33.0594 134.561 33.0594C132.624 33.0594 130.651 34.0961 130.651 36.0343C130.651 37.8024 132.239 38.9415 134.019 38.9415C135.381 38.9415 136.131 38.3465 136.603 37.6496H136.673V38.6695H138.627V33.6031C138.627 31.2575 136.83 29.9482 134.509 29.9482ZM121.994 31.8458H119.114V27.3164H121.994C123.508 27.3164 124.367 28.5372 124.367 29.581C124.367 30.6051 123.508 31.8458 121.994 31.8458ZM121.942 25.4772H117.09V38.6913H119.114V33.685H121.942C124.186 33.685 126.392 32.1023 126.392 29.581C126.392 27.0599 124.186 25.4772 121.942 25.4772ZM95.4834 37.1929C94.0845 37.1929 92.9132 36.0521 92.9132 34.4851C92.9132 32.9017 94.0845 31.7435 95.4834 31.7435C96.8646 31.7435 97.9485 32.9017 97.9485 34.4851C97.9485 36.0521 96.8646 37.1929 95.4834 37.1929ZM97.8086 30.9772H97.7386C97.2842 30.4494 96.4096 29.9726 95.3084 29.9726C93.0006 29.9726 90.8853 31.9478 90.8853 34.4851C90.8853 37.0055 93.0006 38.9639 95.3084 38.9639C96.4096 38.9639 97.2842 38.4869 97.7386 37.9423H97.8086V38.5893C97.8086 40.3096 96.8646 41.2291 95.3435 41.2291C94.1023 41.2291 93.333 40.3603 93.0179 39.6282L91.2524 40.3434C91.7594 41.5354 93.1057 43 95.3435 43C97.7212 43 99.7318 41.6374 99.7318 38.3168V30.2451H97.8086V30.9772ZM101.13 38.6913H103.158V25.4768H101.13V38.6913ZM106.148 34.332C106.096 32.5948 107.529 31.7096 108.561 31.7096C109.365 31.7096 110.047 32.101 110.274 32.6634L106.148 34.332ZM112.442 32.8335C112.058 31.8285 110.886 29.9726 108.491 29.9726C106.113 29.9726 104.138 31.7947 104.138 34.4682C104.138 36.9886 106.096 38.9639 108.718 38.9639C110.834 38.9639 112.058 37.7037 112.565 36.9716L110.991 35.9496C110.467 36.6991 109.75 37.1929 108.718 37.1929C107.686 37.1929 106.952 36.733 106.48 35.8307L112.651 33.3443L112.442 32.8335ZM63.2731 31.352V33.2592H67.9585C67.8186 34.332 67.4515 35.1152 66.8919 35.6602C66.2103 36.3246 65.1438 37.0567 63.2731 37.0567C60.3883 37.0567 58.1331 34.7919 58.1331 31.9821C58.1331 29.1723 60.3883 26.9072 63.2731 26.9072C64.8292 26.9072 65.9653 27.5034 66.8046 28.2697L68.1857 26.9245C67.0144 25.8344 65.4583 25 63.2731 25C59.3217 25 56 28.1335 56 31.9821C56 35.8307 59.3217 38.9639 63.2731 38.9639C65.4062 38.9639 67.0145 38.283 68.2731 37.0055C69.5669 35.7453 69.9691 33.9744 69.9691 32.5441C69.9691 32.101 69.9343 31.6927 69.864 31.352H63.2731ZM75.296 37.1929C73.8971 37.1929 72.6906 36.069 72.6906 34.4682C72.6906 32.8504 73.8971 31.7435 75.296 31.7435C76.6944 31.7435 77.9008 32.8504 77.9008 34.4682C77.9008 36.069 76.6944 37.1929 75.296 37.1929ZM75.296 29.9726C72.7432 29.9726 70.6626 31.8627 70.6626 34.4682C70.6626 37.0567 72.7432 38.9639 75.296 38.9639C77.8483 38.9639 79.9289 37.0567 79.9289 34.4682C79.9289 31.8627 77.8483 29.9726 75.296 29.9726ZM85.4028 37.1929C84.0044 37.1929 82.7979 36.069 82.7979 34.4682C82.7979 32.8504 84.0044 31.7435 85.4028 31.7435C86.8013 31.7435 88.0077 32.8504 88.0077 34.4682C88.0077 36.069 86.8013 37.1929 85.4028 37.1929ZM85.4028 29.9726C82.8501 29.9726 80.7699 31.8627 80.7699 34.4682C80.7699 37.0567 82.8501 38.9639 85.4028 38.9639C87.9552 38.9639 90.0358 37.0567 90.0358 34.4682C90.0358 31.8627 87.9552 29.9726 85.4028 29.9726Z" fill="white"/>
<path fill-rule="evenodd" clip-rule="evenodd" d="M67.462 19.8754C67.2042 19.9585 66.9405 20 66.6714 20C66.1777 20 65.6954 19.8281 65.2329 19.4921C64.762 19.1519 64.4502 18.6667 64.3079 18.0556L64.2851 17.9591L64.3719 17.9221L65.2455 17.5476L65.2762 17.6744C65.3617 18.0302 65.5328 18.3243 65.7973 18.5689C66.0627 18.8117 66.347 18.9278 66.6714 18.9287C67.0139 18.9283 67.2974 18.835 67.5336 18.6497C67.7641 18.4663 67.8715 18.2377 67.8731 17.9226C67.8715 17.5659 67.7606 17.3156 67.5323 17.1276C67.2943 16.9344 66.8984 16.7433 66.3512 16.5665H66.3508H66.3503C65.767 16.3719 65.3179 16.1179 65.0059 15.7974C64.6899 15.4742 64.5286 15.0498 64.5298 14.5521C64.5286 14.0294 64.7304 13.5656 65.1158 13.1857C65.5046 12.8001 66.016 12.6076 66.6259 12.6085C67.192 12.6081 67.6651 12.7598 68.0306 13.0692C68.3857 13.37 68.6246 13.7058 68.735 14.0776L68.7644 14.1771L68.6734 14.2172L67.8015 14.6021L67.7695 14.4762C67.7219 14.2882 67.6048 14.1066 67.4035 13.9316L67.4048 13.9329L67.4035 13.932C67.2114 13.7664 66.9637 13.6807 66.644 13.6803C66.3445 13.6807 66.0993 13.7664 65.8934 13.9378V13.9383C65.6882 14.1115 65.5972 14.3048 65.5951 14.5521C65.5968 14.7735 65.6794 14.9485 65.8664 15.1091L65.8655 15.1087L65.866 15.1091C66.0593 15.2716 66.3541 15.4264 66.7501 15.5636H66.7493C67.0711 15.6734 67.3411 15.7791 67.561 15.8844C67.7826 15.9898 68.0058 16.13 68.2299 16.3031V16.3027C68.4637 16.4822 68.6423 16.7098 68.7611 16.9789C68.8807 17.2491 68.9388 17.5584 68.9388 17.9034C68.9388 18.2511 68.871 18.5676 68.7328 18.847C68.596 19.1247 68.4106 19.3474 68.1819 19.5112L68.1815 19.5116C67.959 19.6706 67.7194 19.7924 67.462 19.8754ZM57.0467 18.7762V13.8331H58.0867C58.8134 13.8345 59.3715 14.0536 59.7864 14.4852V14.4848C60.1992 14.9177 60.4086 15.5146 60.4094 16.3046C60.4086 17.101 60.1987 17.7 59.7864 18.1285C59.3719 18.5579 58.8134 18.7748 58.0867 18.7762H57.0467ZM58.0867 19.847H56.1078H56V12.7623H58.0867C59.1015 12.7613 59.9309 13.0894 60.5492 13.7492C61.1668 14.4053 61.4755 15.2659 61.4746 16.3046C61.4755 17.3424 61.1668 18.2039 60.5492 18.8605C59.9309 19.5199 59.1015 19.8479 58.0867 19.847ZM63.3647 19.847H62.5336H62.4258V12.7623H62.5336H63.4726V19.847H63.3647ZM70.9628 15.9984V13.8331H72.2472C72.5731 13.8349 72.8158 13.9447 73.0071 14.1692C73.2029 14.4018 73.2948 14.6451 73.2956 14.9165C73.2948 15.1879 73.2033 15.4302 73.0071 15.6637C72.8162 15.8878 72.5731 15.9971 72.2472 15.9984H70.9628ZM70.9628 17.0701V19.7327V19.847H70.855H69.9165V12.7623H72.2295C72.8007 12.7613 73.3065 12.9667 73.7244 13.3711C74.1469 13.7759 74.3625 14.3014 74.3608 14.9165C74.3625 15.531 74.1469 16.056 73.7244 16.4604C73.3065 16.8652 72.8007 17.071 72.2295 17.0701H70.9628ZM80.5918 18.8467L80.6691 18.926C81.3229 18.2145 81.6535 17.332 81.6528 16.3045C81.6535 15.2828 81.3216 14.4021 80.6649 13.6875C80.0079 12.9701 79.1848 12.6073 78.2193 12.6085C77.2488 12.6073 76.4231 12.9684 75.7703 13.683V13.6826C75.1153 14.3945 74.7859 15.277 74.7868 16.3045C74.7859 17.332 75.1153 18.2145 75.7703 18.9264V18.926C76.4231 19.6406 77.2488 20.0009 78.2193 20C79.1894 20.0009 80.015 19.6406 80.6688 18.926L80.5918 18.8467ZM75.8512 16.3045C75.8521 17.0785 76.0808 17.6989 76.5382 18.1922C76.9998 18.6854 77.5512 18.9273 78.2193 18.9287C78.8869 18.9273 79.4396 18.6854 79.9 18.1922C80.3583 17.6989 80.5871 17.0785 80.5879 16.3045C80.5871 15.5305 80.3583 14.9101 79.9 14.4168C79.4396 13.9236 78.8869 13.6817 78.2193 13.6803C77.5512 13.6817 76.9998 13.9236 76.5382 14.4168C76.0808 14.9101 75.8521 15.5305 75.8512 16.3045ZM86.7862 17.856L83.7832 12.7623H82.7117H82.6039V19.847H82.7117H83.5423H83.6502V15.4605L83.6241 14.4957L86.7723 19.847H87.6999H87.8077V12.7623H86.8679H86.7601V16.8903L86.7862 17.856ZM90.7938 11L90.0524 12.3963L90.0217 12.4548H89.9589H89.0748L89.6332 11H89.7057H90.7938ZM90.0124 19.847H89.1817H89.0739V12.7623H89.1817H90.1202V19.847H90.0124ZM93.5292 18.144L91.8157 12.7623H90.8169H90.6649L93.0174 19.847H93.0936H93.9614H94.0368L96.4648 12.7623H95.3893H95.3126L93.5292 18.144ZM101.136 12.8765V13.7188V13.8331H98.1901V15.7784H100.847V15.8927V16.8309H98.1901V18.7762H101.136V18.8905V19.847H97.1433V12.7623H101.136V12.8765ZM106.07 19.847H102.33H102.222V12.7623H102.33H103.269V18.7762H106.07V18.8905V19.847ZM113.254 17.8551L110.251 12.7623H109.18H109.072V19.847H109.18H110.01H110.118V15.4605L110.092 14.4964L113.24 19.847H114.168H114.276V12.7623H113.336H113.228V16.8903L113.254 17.8551ZM116.199 16.3045C116.2 17.0785 116.428 17.6989 116.885 18.1922C117.347 18.6854 117.899 18.9273 118.567 18.9287C119.234 18.9273 119.787 18.6854 120.248 18.1922C120.706 17.6989 120.935 17.0785 120.936 16.3045C120.935 15.5305 120.706 14.9101 120.248 14.4168H120.247C119.787 13.9236 119.234 13.6817 118.567 13.6803C117.899 13.6817 117.347 13.9236 116.885 14.4168C116.428 14.9101 116.2 15.5305 116.199 16.3045ZM122 16.3045C122.001 17.332 121.67 18.2145 121.017 18.926C120.362 19.6406 119.537 20.0009 118.567 20C117.596 20.0009 116.77 19.6406 116.118 18.926V18.9264C115.462 18.2145 115.133 17.332 115.134 16.3045C115.133 15.277 115.462 14.3945 116.118 13.6826V13.683C116.77 12.9684 117.596 12.6073 118.567 12.6085C119.532 12.6073 120.356 12.9701 121.012 13.6875C121.669 14.4021 122.001 15.2828 122 16.3045Z" fill="white"/>
<path d="M20 13V41L34 27L20 13Z" fill="url(#paint0_linear)"/>
<path d="M20 13V41L34 27L20 13Z" fill="url(#paint1_linear)"/>
<path d="M44.4845 26.0452L39.2 23L35 27L39.2 31L44.4845 27.7484C44.7938 27.5935 45 27.2323 45 26.871C45 26.5097 44.7938 26.2 44.4845 26.0452Z" fill="url(#paint2_linear)"/>
<path d="M44.4845 26.0452L39.2 23L35 27L39.2 31L44.4845 27.7484C44.7938 27.5935 45 27.2323 45 26.871C45 26.5097 44.7938 26.2 44.4845 26.0452Z" fill="url(#paint3_linear)"/>
<path d="M21 41L38.6 31.45L34.5 27.5L21 41Z" fill="url(#paint4_linear)"/>
<path d="M21 41L38.6 31.45L34.5 27.5L21 41Z" fill="url(#paint5_linear)"/>
<path d="M38.6 22.55L33.05 19.3L21 13L34.5 26.5L38.6 22.55Z" fill="url(#paint6_linear)"/>
<path d="M38.6 22.55L33.05 19.3L21 13L34.5 26.5L38.6 22.55Z" fill="url(#paint7_linear)"/>
<rect x="0.5" y="0.5" width="169" height="55" rx="2.5" stroke="white"/>
<defs>
<linearGradient id="paint0_linear" x1="27" y1="22.5" x2="20" y2="31" gradientUnits="userSpaceOnUse">
<stop stop-color="#00E2FF"/>
<stop offset="1" stop-color="#03C6F5"/>
</linearGradient>
<linearGradient id="paint1_linear" x1="32.8101" y1="39.7588" x2="13.8625" y2="21.5978" gradientUnits="userSpaceOnUse">
<stop stop-color="#00A0FF"/>
<stop offset="0.00657445" stop-color="#00A1FF"/>
<stop offset="0.2601" stop-color="#00BEFF"/>
<stop offset="0.5122" stop-color="#00D2FF"/>
<stop offset="0.7604" stop-color="#00DFFF"/>
<stop offset="1" stop-color="#00E3FF"/>
</linearGradient>
<linearGradient id="paint2_linear" x1="40" y1="23" x2="29.5" y2="23" gradientUnits="userSpaceOnUse">
<stop stop-color="#FFEA0D"/>
<stop offset="1" stop-color="#FFCF00"/>
</linearGradient>
<linearGradient id="paint3_linear" x1="45.759" y1="27.0695" x2="21.9536" y2="27.0695" gradientUnits="userSpaceOnUse">
<stop stop-color="#FFE000"/>
<stop offset="0.4087" stop-color="#FFBD00"/>
<stop offset="0.7754" stop-color="#FFA500"/>
<stop offset="1" stop-color="#FF9C00"/>
</linearGradient>
<linearGradient id="paint4_linear" x1="30" y1="27" x2="18.5" y2="38.5" gradientUnits="userSpaceOnUse">
<stop stop-color="#F73547"/>
<stop offset="1" stop-color="#E22652"/>
</linearGradient>
<linearGradient id="paint5_linear" x1="36.2636" y1="38.5906" x2="12.375" y2="14.4439" gradientUnits="userSpaceOnUse">
<stop stop-color="#FF3A44"/>
<stop offset="1" stop-color="#C31162"/>
</linearGradient>
<linearGradient id="paint6_linear" x1="36" y1="22.5" x2="21" y2="13" gradientUnits="userSpaceOnUse">
<stop stop-color="#2EF38F"/>
<stop offset="1" stop-color="#0EDE76"/>
</linearGradient>
<linearGradient id="paint7_linear" x1="17.598" y1="33.8109" x2="28.2656" y2="23.0452" gradientUnits="userSpaceOnUse">
<stop stop-color="#32A071"/>
<stop offset="0.0685" stop-color="#2DA771"/>
<stop offset="0.4762" stop-color="#15CF74"/>
<stop offset="0.8009" stop-color="#06E775"/>
<stop offset="1" stop-color="#00F076"/>
</linearGradient>
</defs>
</svg>
