<?xml version="1.0" encoding="UTF-8"?>
<!DOCTYPE svg PUBLIC "-//W3C//DTD SVG 1.1//EN" "http://www.w3.org/Graphics/SVG/1.1/DTD/svg11.dtd">
<!-- Creator: CorelDRAW -->
<svg xmlns="http://www.w3.org/2000/svg" xml:space="preserve" width="50mm" height="50mm" style="shape-rendering:geometricPrecision; text-rendering:geometricPrecision; image-rendering:optimizeQuality; fill-rule:evenodd; clip-rule:evenodd"
viewBox="0 0 50 50"
 xmlns:xlink="http://www.w3.org/1999/xlink">
 <defs>
  <style type="text/css">
   <![CDATA[
    .fil0 {fill:url(#id0);fill-rule:nonzero}
   ]]>
  </style>
  <linearGradient id="id0" gradientUnits="userSpaceOnUse" x1="39.3875" y1="19.9182" x2="39.3875" y2="11.1554">
   <stop offset="0" style="stop-color:#424242"/>
   <stop offset="1" style="stop-color:#848484"/>
  </linearGradient>
 </defs>
 <g id="Слой_x0020_1">
  <metadata id="CorelCorpID_0Corel-Layer"/>
  <path class="fil0" d="M38.3769 11.1554l1.8452 0c0.2276,0 0.4351,0.0935 0.5862,0.244l0.0005 0.0005 0.0006 0.0006c0.1505,0.151 0.244,0.3587 0.244,0.5861l0 0.7319 2.2475 0c0.2334,0 0.4241,0.1908 0.4241,0.4242l-0.0001 3.3945c0,0.0546 -0.0212,0.1045 -0.0574,0.1407 -0.0362,0.0363 -0.0861,0.0588 -0.1409,0.0588l-3.3886 0 0 -0.0856c0,-0.151 -0.1237,-0.2747 -0.2747,-0.2747l-0.9517 0c-0.151,0 -0.2747,0.1237 -0.2747,0.2747l0 0.0856 -3.4022 0c-0.0545,0 -0.1044,-0.0225 -0.1406,-0.0588 -0.0188,-0.0187 -0.0339,-0.0413 -0.0442,-0.0662l0 -3.469c0,-0.2334 0.1908,-0.4242 0.4242,-0.4242l2.0716 0 0 -0.7319c0,-0.2281 0.0935,-0.4356 0.2439,-0.5862l0.0011 -0.0011c0.1505,-0.1503 0.3581,-0.2439 0.5862,-0.2439zm5.3481 5.9767l0 2.3621c0,0.2332 -0.1907,0.424 -0.4241,0.424l-7.8268 0c-0.2334,0 -0.4242,-0.1908 -0.4242,-0.424l0 -2.3432c0.0585,0.0178 0.1206,0.0273 0.1848,0.0273l3.4022 0 0 0.1155c0,0.1511 0.1237,0.2748 0.2747,0.2748l0.9517 0c0.151,0 0.2747,-0.1237 0.2747,-0.2748l0 -0.1155 3.3485 0c0.0842,0 0.1647,-0.0163 0.2385,-0.0462zm-3.5029 -5.4247l-1.8452 0c-0.0768,0 -0.1468,0.0314 -0.1975,0.0817 -0.0502,0.0507 -0.0817,0.1207 -0.0817,0.1975l0 0.6883 2.4036 0 0 -0.6883c0,-0.0769 -0.0312,-0.1468 -0.0812,-0.1968l-0.0011 -0.0011c-0.05,-0.05 -0.1198,-0.0813 -0.1969,-0.0813z"/>
 </g>
</svg>
