<?xml version="1.0" encoding="UTF-8"?>
<!DOCTYPE svg PUBLIC "-//W3C//DTD SVG 1.1//EN" "http://www.w3.org/Graphics/SVG/1.1/DTD/svg11.dtd">
<!-- Creator: CorelDRAW -->
<svg xmlns="http://www.w3.org/2000/svg" xml:space="preserve" width="10mm" height="10mm" style="shape-rendering:geometricPrecision; text-rendering:geometricPrecision; image-rendering:optimizeQuality; fill-rule:evenodd; clip-rule:evenodd"
viewBox="0 0 10 10"
 xmlns:xlink="http://www.w3.org/1999/xlink">
 <defs>
  <style type="text/css">
   <![CDATA[
    .str3 {stroke:#006633;stroke-width:0.0762}
    .str2 {stroke:#B3AFAE;stroke-width:0.0762}
    .str4 {stroke:black;stroke-width:0.2}
    .str0 {stroke:#B3AFAE;stroke-width:0.2}
    .str1 {stroke:#C7C4C3;stroke-width:0.2}
    .fil5 {fill:none}
    .fil7 {fill:#357715}
    .fil9 {fill:#B3AFAE}
    .fil10 {fill:#CCCCCC}
    .fil8 {fill:white}
    .fil3 {fill:url(#id6)}
    .fil2 {fill:url(#id7)}
    .fil4 {fill:url(#id8)}
    .fil1 {fill:url(#id9)}
    .fil0 {fill:url(#id10)}
    .fil6 {fill:url(#id11)}
   ]]>
  </style>
   <mask id="id0">
  <linearGradient id="id1" gradientUnits="userSpaceOnUse" x1="2.0007" y1="6.1919" x2="6.5319" y2="1.8031">
   <stop offset="0" style="stop-opacity:1; stop-color:white"/>
   <stop offset="1" style="stop-opacity:0; stop-color:white"/>
  </linearGradient>
    <rect style="fill:url(#id1)" x="1.859" y="1.0081" width="4.8145" height="5.9788"/>
   </mask>
    <mask id="id2">
  <linearGradient id="id3" gradientUnits="userSpaceOnUse" x1="5.1387" y1="9.0749" x2="1.0257" y2="9.0749">
   <stop offset="0" style="stop-opacity:1; stop-color:white"/>
   <stop offset="1" style="stop-opacity:0; stop-color:white"/>
  </linearGradient>
     <rect style="fill:url(#id3)" x="0.7469" y="8.6282" width="4.6706" height="0.8935"/>
    </mask>
    <mask id="id4">
  <linearGradient id="id5" gradientUnits="userSpaceOnUse" x1="5.5349" y1="9.0749" x2="9.5585" y2="9.0749">
   <stop offset="0" style="stop-opacity:1; stop-color:white"/>
   <stop offset="1" style="stop-opacity:0; stop-color:white"/>
  </linearGradient>
     <rect style="fill:url(#id5)" x="5.2114" y="8.6282" width="4.6707" height="0.8935"/>
    </mask>
  <linearGradient id="id6" gradientUnits="userSpaceOnUse" x1="8.6682" y1="4.7931" x2="1.297" y2="5.7146">
   <stop offset="0" style="stop-color:#32606E"/>
   <stop offset="1" style="stop-color:#22728B"/>
  </linearGradient>
  <linearGradient id="id7" gradientUnits="userSpaceOnUse" x1="4.9659" y1="5.8564" x2="4.9659" y2="2.2625">
   <stop offset="0" style="stop-color:#45B4D0"/>
   <stop offset="1" style="stop-color:#6FD2EB"/>
  </linearGradient>
  <linearGradient id="id8" gradientUnits="userSpaceOnUse" x1="4.9992" y1="6.5886" x2="4.9992" y2="5.2907">
   <stop offset="0" style="stop-color:#7BB372"/>
   <stop offset="1" style="stop-color:#89C180"/>
  </linearGradient>
  <linearGradient id="id9" gradientUnits="userSpaceOnUse" x1="4.9992" y1="7.0211" x2="4.9992" y2="1.7966">
   <stop offset="0" style="stop-color:#D0CECF"/>
   <stop offset="1" style="stop-color:#FEFEFE"/>
  </linearGradient>
  <linearGradient id="id10" gradientUnits="userSpaceOnUse" xlink:href="#id9" x1="4.9992" y1="8.0356" x2="4.9992" y2="0.7821">
  </linearGradient>
  <radialGradient id="id11" gradientUnits="userSpaceOnUse" cx="2.8937" cy="3.2645" r="0.7917" fx="2.8937" fy="3.2645">
   <stop offset="0" style="stop-color:#FFDD0D"/>
   <stop offset="0.0117647" style="stop-color:#FEE109"/>
   <stop offset="1" style="stop-color:#FFBB2F"/>
  </radialGradient>
 </defs>
 <g id="Слой_x0020_1">
  <metadata id="CorelCorpID_0Corel-Layer"/>
  <polygon class="fil0 str0" points="0.2847,2.9209 8.3589,0.7821 9.7138,5.8968 1.6395,8.0357 "/>
  <polygon class="fil1 str1" points="0.8754,1.7966 9.1231,1.7966 9.1231,7.0212 0.8754,7.0212 "/>
  <polygon class="fil2" points="8.6099,2.2957 1.322,2.2625 1.322,5.8232 2.4535,5.324 6.4801,5.324 8.6099,5.8564 "/>
  <polygon class="fil3" points="8.6099,5.8564 8.6431,5.4238 6.9127,4.8914 3.4851,4.9247 2.52,4.5919 1.322,5.0911 1.322,5.9157 2.477,5.3401 6.5133,5.2907 "/>
  <polygon class="fil4" points="8.6431,5.8232 8.6099,6.5886 1.3553,6.5886 1.3553,5.8564 2.4868,5.324 6.4801,5.2907 "/>
  <polygon class="fil5 str2" points="1.329,2.3033 8.6204,2.3033 8.6204,6.5962 1.329,6.5962 "/>
  <path class="fil6" d="M2.9618 2.8424c0.376,0 0.6808,0.3049 0.6808,0.6808 0,0.3759 -0.3048,0.6807 -0.6808,0.6807 -0.3759,0 -0.6807,-0.3048 -0.6807,-0.6807 0,-0.3759 0.3048,-0.6808 0.6807,-0.6808z"/>
  <polygon class="fil7 str3" points="5.8811,5.8897 5.4485,4.9247 5.8811,4.9247 5.4485,4.0595 5.8478,4.0595 5.3167,2.9945 4.7856,4.0595 5.1849,4.0595 4.7523,4.9247 5.1849,4.9247 4.7523,5.8897 "/>
  <polygon class="fil7 str3" points="7.1605,5.9095 6.8282,5.1683 7.1605,5.1683 6.8282,4.5037 7.135,4.5037 6.727,3.6858 6.3191,4.5037 6.6258,4.5037 6.2936,5.1683 6.6258,5.1683 6.2936,5.9095 "/>
  <polygon class="fil8" style="mask:url(#id0)" points="6.5735,1.1081 5.1702,1.5465 1.959,6.877 3.1841,6.8869 "/>
  <path class="fil5 str4" d="M6.962 0.8798l0.2998 0c0.17,0 0.3091,0.139 0.3091,0.309l0 1.3975c0,0.17 -0.1391,0.309 -0.3091,0.309l-0.2998 0c-0.17,0 -0.309,-0.139 -0.309,-0.309l0 -1.3975c0,-0.17 0.139,-0.309 0.309,-0.309z"/>
  <polygon class="fil9" points="1.3989,7.1289 4.7007,7.1289 4.7007,7.2919 1.3989,7.2919 "/>
  <g id="_389161248">
   <path id="_389161944" class="fil10" style="mask:url(#id2)" d="M5.3175 8.7282l0 0.6935c-2.4691,0 -4.4706,-0.1553 -4.4706,-0.3468 0,-0.1915 2.0015,-0.3467 4.4706,-0.3467z"/>
   <path id="_389161416" class="fil10" style="mask:url(#id4)" d="M5.3114 8.7282l0 0.6935c2.469,0 4.4706,-0.1553 4.4706,-0.3468 0,-0.1915 -2.0016,-0.3467 -4.4706,-0.3467z"/>
  </g>
 </g>
</svg>
