<?xml version="1.0" encoding="UTF-8"?>
<!DOCTYPE svg PUBLIC "-//W3C//DTD SVG 1.1//EN" "http://www.w3.org/Graphics/SVG/1.1/DTD/svg11.dtd">
<!-- Creator: CorelDRAW -->
<svg xmlns="http://www.w3.org/2000/svg" xml:space="preserve" width="10mm" height="10mm" style="shape-rendering:geometricPrecision; text-rendering:geometricPrecision; image-rendering:optimizeQuality; fill-rule:evenodd; clip-rule:evenodd"
viewBox="0 0 10 10"
 xmlns:xlink="http://www.w3.org/1999/xlink">
 <defs>
  <style type="text/css">
   <![CDATA[
    .str3 {stroke:#595F61;stroke-width:0.0762}
    .str1 {stroke:#6C7779;stroke-width:0.2}
    .str2 {stroke:#636768;stroke-width:0.25}
    .str0 {stroke:#D9D9D9;stroke-width:0.25}
    .fil7 {fill:none}
    .fil8 {fill:#6C7779}
    .fil6 {fill:#7F7F7F}
    .fil12 {fill:#999999}
    .fil10 {fill:#B3B3B3}
    .fil4 {fill:#CCCCCC}
    .fil11 {fill:#D0E8E5}
    .fil5 {fill:black;fill-rule:nonzero}
    .fil3 {fill:url(#id2)}
    .fil1 {fill:url(#id3)}
    .fil2 {fill:url(#id4)}
    .fil9 {fill:url(#id5)}
    .fil0 {fill:url(#id6)}
   ]]>
  </style>
   <mask id="id0">
  <linearGradient id="id1" gradientUnits="userSpaceOnUse" x1="8.9944" y1="6.2343" x2="9.012" y2="4.9445">
   <stop offset="0" style="stop-opacity:1; stop-color:white"/>
   <stop offset="1" style="stop-opacity:0; stop-color:white"/>
  </linearGradient>
    <rect style="fill:url(#id1)" x="8.62" y="3.3432" width="0.7664" height="4.4924"/>
   </mask>
  <linearGradient id="id2" gradientUnits="userSpaceOnUse" x1="1.0579" y1="4.5834" x2="8.1027" y2="4.5834">
   <stop offset="0" style="stop-color:#CCCCCC"/>
   <stop offset="0.568627" style="stop-color:#D9D9D9"/>
   <stop offset="1" style="stop-color:#CECECE"/>
  </linearGradient>
  <linearGradient id="id3" gradientUnits="userSpaceOnUse" x1="5.0583" y1="7.9463" x2="5.0583" y2="1.597">
   <stop offset="0" style="stop-color:#E6E6E6"/>
   <stop offset="1" style="stop-color:#FEFEFE"/>
  </linearGradient>
  <linearGradient id="id4" gradientUnits="userSpaceOnUse" x1="9.1731" y1="7.8696" x2="9.1731" y2="3.5459">
   <stop offset="0" style="stop-color:#CCCCCC"/>
   <stop offset="1" style="stop-color:#FEFEFE"/>
  </linearGradient>
  <linearGradient id="id5" gradientUnits="userSpaceOnUse" x1="5.0355" y1="6.2833" x2="3.2082" y2="8.3391">
   <stop offset="0" style="stop-color:#C9D4D8"/>
   <stop offset="1" style="stop-color:#AEB7BC"/>
  </linearGradient>
  <radialGradient id="id6" gradientUnits="userSpaceOnUse" cx="5.3237" cy="8.6602" r="23.9007" fx="5.3237" fy="8.6602">
   <stop offset="0" style="stop-color:#CCCCCC"/>
   <stop offset="0.431373" style="stop-color:#DADBDB"/>
   <stop offset="1" style="stop-color:#E8E9EA"/>
  </radialGradient>
 </defs>
 <g id="Слой_x0020_1">
  <metadata id="CorelCorpID_0Corel-Layer"/>
  <ellipse class="fil0" cx="5.32374" cy="8.66018" rx="4.36175" ry="0.312719"/>
  <path class="fil1 str0" d="M0.4803 1.597l8.1231 0c0,1.767 0,3.534 0,5.301 0.0025,0.383 0.0878,0.845 0.6603,0.9647 0.3726,0.0836 -6.7332,-0.0065 -8.7834,-0.0136l0 -6.2521z"/>
  <path class="fil2 str0" d="M8.6125 6.9323c0.0097,0.3767 0.061,0.8161 0.6455,0.9218 0.3349,0.0155 0.4774,-0.1486 0.4678,-0.5053l-0.0072 -3.7937 -1.1056 -0.0092c-0.0022,1.1349 0.0017,2.2515 -0.0005,3.3864z"/>
  <polygon class="fil3" points="1.0579,4.4478 8.1027,4.4478 8.1027,4.7192 1.0579,4.7192 "/>
  <polygon class="fil3" points="1.0579,5.0828 8.1027,5.0828 8.1027,5.3542 1.0579,5.3542 "/>
  <polygon class="fil3" points="1.0579,5.7178 8.1027,5.7178 8.1027,5.9892 1.0579,5.9892 "/>
  <polygon class="fil3" points="1.0579,6.3653 8.1027,6.3653 8.1027,6.6367 1.0579,6.6367 "/>
  <polygon class="fil4" points="1.0579,7.0252 8.1027,7.0252 8.1027,7.2966 1.0579,7.2966 "/>
  <path class="fil5" d="M1.4258 3.6536l0 -1.0261 0.1563 0 0 0.1458c0.0756,-0.1127 0.1844,-0.1691 0.3265,-0.1691 0.062,0 0.1187,0.0112 0.1705,0.0333 0.0522,0.0224 0.0907,0.0514 0.1164,0.0877 0.026,0.036 0.0439,0.0788 0.0544,0.1283 0.0063,0.0323 0.0096,0.0887 0.0096,0.1692l0 0.6309 -0.1742 0 0 -0.6243c0,-0.0706 -0.0065,-0.1237 -0.02,-0.1589 -0.0136,-0.035 -0.0377,-0.0631 -0.072,-0.0838 -0.0346,-0.0211 -0.0748,-0.0317 -0.1213,-0.0317 -0.0742,0 -0.1378,0.0237 -0.192,0.0705 -0.0537,0.0472 -0.0804,0.1362 -0.0804,0.2679l0 0.5603 -0.1738 0zm1.8026 -0.3305l0.1798 0.0221c-0.0283,0.1052 -0.0808,0.1867 -0.1573,0.2448 -0.0769,0.0577 -0.1748,0.0867 -0.2939,0.0867 -0.15,0 -0.2691,-0.0462 -0.3568,-0.1385 -0.0881,-0.0924 -0.1319,-0.222 -0.1319,-0.3889 0,-0.1728 0.0445,-0.3067 0.1332,-0.402 0.0891,-0.0953 0.2042,-0.1431 0.3459,-0.1431 0.1373,0 0.2494,0.0468 0.3362,0.1401 0.0871,0.0934 0.1305,0.2249 0.1305,0.3942 0,0.0105 -0.0003,0.026 -0.0009,0.0464l-0.7652 0c0.0062,0.1129 0.0383,0.1992 0.0957,0.2589 0.0573,0.0601 0.1286,0.0901 0.2143,0.0901 0.0637,0 0.1181,-0.0169 0.1633,-0.0505 0.0451,-0.0333 0.0807,-0.0867 0.1071,-0.1603zm-0.5708 -0.2813l0.5728 0c-0.0075,-0.0861 -0.0296,-0.151 -0.0656,-0.1939 -0.0554,-0.067 -0.1273,-0.1006 -0.2153,-0.1006 -0.0798,0 -0.1471,0.0267 -0.2015,0.0802 -0.0545,0.0534 -0.0845,0.1249 -0.0904,0.2143zm1.1585 0.6118l-0.3139 -1.0261 0.1797 0 0.1633 0.5924 0.0607 0.2203c0.0026,-0.0112 0.0204,-0.0817 0.0531,-0.2117l0.1632 -0.601 0.1788 0 0.1537 0.595 0.0514 0.1963 0.0588 -0.1983 0.1757 -0.593 0.1692 0 -0.3209 1.0261 -0.1804 0 -0.1632 -0.6145 -0.0399 -0.175 -0.2075 0.7895 -0.1818 0zm1.1701 -0.3064l0.1719 -0.0271c0.0095,0.069 0.0366,0.1218 0.0808,0.1587 0.0438,0.0366 0.1056,0.0551 0.1851,0.0551 0.0797,0 0.1391,-0.0165 0.1777,-0.0488 0.0386,-0.0327 0.0581,-0.0709 0.0581,-0.1145 0,-0.0395 -0.0172,-0.0702 -0.0515,-0.093 -0.0238,-0.0154 -0.0831,-0.035 -0.1778,-0.0587 -0.1273,-0.0323 -0.216,-0.06 -0.2652,-0.0837 -0.0491,-0.0235 -0.0867,-0.0562 -0.1121,-0.0977 -0.0253,-0.0415 -0.0382,-0.0874 -0.0382,-0.1375 0,-0.0459 0.0105,-0.0881 0.0317,-0.127 0.0207,-0.0392 0.0494,-0.0715 0.0853,-0.0973 0.027,-0.0198 0.064,-0.0369 0.1106,-0.0507 0.0468,-0.0139 0.0969,-0.0208 0.1503,-0.0208 0.0805,0 0.1511,0.0118 0.2121,0.0349 0.061,0.0231 0.1059,0.0544 0.1349,0.0941 0.029,0.0398 0.0488,0.0926 0.0597,0.1589l-0.1699 0.0234c-0.0079,-0.0528 -0.0303,-0.094 -0.0673,-0.1236 -0.0369,-0.0297 -0.0893,-0.0446 -0.157,-0.0446 -0.0798,0 -0.1368,0.0131 -0.1708,0.0395 -0.0343,0.0265 -0.0515,0.0574 -0.0515,0.0928 0,0.0227 0.0074,0.0428 0.0215,0.061 0.0142,0.0188 0.0362,0.0339 0.0666,0.0464 0.0175,0.0063 0.0686,0.0212 0.1537,0.0443 0.123,0.0329 0.2087,0.0597 0.2572,0.0808 0.0489,0.0207 0.0871,0.0514 0.1149,0.0913 0.0276,0.04 0.0415,0.0894 0.0415,0.1488 0,0.058 -0.0172,0.1124 -0.0508,0.1638 -0.034,0.0511 -0.0828,0.0908 -0.1465,0.1188 -0.0636,0.028 -0.1358,0.0419 -0.2163,0.0419 -0.1336,0 -0.2352,-0.0278 -0.305,-0.0832 -0.0699,-0.0553 -0.1145,-0.1374 -0.1337,-0.2463z"/>
  <path class="fil6" d="M2.0522 7.7137c2.2278,0 4.4554,0 6.6832,0 0.0785,0.1112 0.3209,0.2335 0.5895,0.2595l-7.2727 0.0119 0 -0.2714z"/>
  <path class="fil7 str1" d="M1.2933 6.2146c0.6056,0 1.0966,0.491 1.0966,1.0966 0,0.6056 -0.491,1.0965 -1.0966,1.0965 -0.6056,0 -1.0965,-0.4909 -1.0965,-1.0965 0,-0.6056 0.4909,-1.0966 1.0965,-1.0966z"/>
  <path class="fil7 str1" d="M4.1219 6.2146c0.6055,0 1.0965,0.491 1.0965,1.0966 0,0.6056 -0.491,1.0965 -1.0965,1.0965 -0.6056,0 -1.0966,-0.4909 -1.0966,-1.0965 0,-0.6056 0.491,-1.0966 1.0966,-1.0966z"/>
  <polygon class="fil8" points="2.4087,7.0635 2.9947,7.0635 2.9947,7.2617 2.4087,7.2617 "/>
  <path class="fil7 str2" d="M5.2512 7.0383c0.5416,-0.0497 0.8772,0.2266 0.9199,0.9667"/>
  <path class="fil9 str3" d="M4.1219 6.3172c0.5489,0 0.994,0.445 0.994,0.994 0,0.549 -0.4451,0.994 -0.994,0.994 -0.549,0 -0.9941,-0.445 -0.9941,-0.994 0,-0.549 0.4451,-0.994 0.9941,-0.994z"/>
  <path class="fil10" d="M3.2048 7.0339c0.6109,-0.0029 1.2217,-0.0058 1.8326,-0.0087 0.0245,0.0904 0.0445,0.1809 0.0441,0.2714 -0.6404,0 -1.2809,0 -1.9213,0 0.0058,-0.092 0.0219,-0.179 0.0446,-0.2627z"/>
  <path class="fil9 str3" d="M1.2951 6.3172c0.549,0 0.994,0.445 0.994,0.994 0,0.549 -0.445,0.994 -0.994,0.994 -0.549,0 -0.9941,-0.445 -0.9941,-0.994 0,-0.549 0.4451,-0.994 0.9941,-0.994z"/>
  <path class="fil10" d="M1.0997 7.0284c0.3732,0 0.737,-0.0032 1.1102,-0.0032 0.028,0.0947 0.0411,0.1847 0.044,0.2714l-1.1548 0 0.0006 -0.2682z"/>
  <path class="fil10" d="M1.0965 6.374c0.1333,-0.011 0.2575,-0.0237 0.3823,-0.0095 0.2069,0.0418 0.3619,0.1356 0.4984,0.2714l-0.8781 0 -0.0026 -0.2619z"/>
  <path class="fil10" d="M4.7908 6.6359c-0.4525,0 -0.905,0 -1.3575,0 0.3952,-0.3603 0.9692,-0.3865 1.3575,0z"/>
  <path class="fil11" d="M1.1001 6.5829c0.4622,0.0901 0.8334,0.3548 0.9765,0.9766 0.0546,-0.5748 -0.296,-1.0905 -0.9765,-0.9766z"/>
  <path class="fil11" d="M3.9136 6.5829c0.4623,0.0901 0.8334,0.3548 0.9766,0.9766 0.0546,-0.5748 -0.296,-1.0905 -0.9766,-0.9766z"/>
  <path class="fil6" style="mask:url(#id0)" d="M9.2864 7.7356c-0.1596,-0.0826 -0.2605,-0.154 -0.2613,-0.3291l0 -3.9633 -0.2987 0 0 0.0234 -0.0036 -0.0087c0.0086,1.2958 -0.0387,3.7207 0.0739,3.9197 0.058,0.1576 0.187,0.3069 0.4897,0.358z"/>
  <path class="fil12" d="M3.2489 7.7121c0.5875,-0.0029 1.1594,0.0036 1.7469,0.0006 -0.0432,0.0948 -0.0981,0.1757 -0.1748,0.262 -0.4684,0 -0.9243,0 -1.3927,0 -0.0767,-0.092 -0.1363,-0.1791 -0.1794,-0.2626z"/>
  <path class="fil6" d="M3.2331 7.0374c-0.0425,0.5237 0.2945,1.0793 1.02,1.2042 -0.5753,0.1027 -1.2382,-0.4621 -1.02,-1.2042z"/>
  <path class="fil11" d="M3.8618 6.675c0.1055,0 0.191,0.0788 0.191,0.176 0,0.0972 -0.0855,0.176 -0.191,0.176 -0.1056,0 -0.1911,-0.0788 -0.1911,-0.176 0,-0.0972 0.0855,-0.176 0.1911,-0.176z"/>
  <path class="fil11" d="M0.9848 6.6449c0.1055,0 0.191,0.0788 0.191,0.176 0,0.0972 -0.0855,0.176 -0.191,0.176 -0.1055,0 -0.1911,-0.0788 -0.1911,-0.176 0,-0.0972 0.0856,-0.176 0.1911,-0.176z"/>
  <path class="fil12" d="M0.4192 7.7121c0.5875,-0.0029 1.1567,0.0036 1.7442,0.0006 -0.0432,0.0948 -0.0981,0.1757 -0.1748,0.262 -0.4684,0 -0.9202,-0.0006 -1.3886,-0.0006 -0.0836,-0.0875 -0.1419,-0.1757 -0.1808,-0.262z"/>
  <path class="fil12" d="M0.3772 7.5962c0,-0.3732 -0.0026,-0.1837 -0.0026,-0.5569 0.0257,-0.094 0.1483,-0.3775 0.2178,-0.3805 -0.011,0.4262 -0.0162,0.8524 -0.0272,1.2785 -0.0852,-0.1015 -0.1533,-0.2143 -0.188,-0.3411z"/>
  <path class="fil6" d="M0.4011 7.0374c-0.0425,0.5237 0.2945,1.0793 1.02,1.2042 -0.5753,0.1027 -1.2382,-0.4621 -1.02,-1.2042z"/>
 </g>
</svg>
