<?xml version="1.0" encoding="UTF-8"?>
<!DOCTYPE svg PUBLIC "-//W3C//DTD SVG 1.1//EN" "http://www.w3.org/Graphics/SVG/1.1/DTD/svg11.dtd">
<!-- Creator: CorelDRAW -->
<svg xmlns="http://www.w3.org/2000/svg" xml:space="preserve" width="10mm" height="10mm" style="shape-rendering:geometricPrecision; text-rendering:geometricPrecision; image-rendering:optimizeQuality; fill-rule:evenodd; clip-rule:evenodd"
viewBox="0 0 10 10"
 xmlns:xlink="http://www.w3.org/1999/xlink">
 <defs>
  <style type="text/css">
   <![CDATA[
    .str0 {stroke:#999999;stroke-width:0.25}
    .fil5 {fill:#999999}
    .fil9 {fill:#E0702A}
    .fil8 {fill:white}
    .fil1 {fill:url(#id2)}
    .fil7 {fill:url(#id3)}
    .fil4 {fill:url(#id4)}
    .fil2 {fill:url(#id5)}
    .fil3 {fill:url(#id6)}
    .fil0 {fill:url(#id7)}
    .fil6 {fill:url(#id8)}
    .fil10 {fill:url(#id9)}
    .fil11 {fill:url(#id10)}
   ]]>
  </style>
   <mask id="id0">
  <linearGradient id="id1" gradientUnits="userSpaceOnUse" x1="2.1229" y1="4.8672" x2="3.4809" y2="3.196">
   <stop offset="0" style="stop-opacity:1; stop-color:white"/>
   <stop offset="1" style="stop-opacity:0; stop-color:white"/>
  </linearGradient>
    <rect style="fill:url(#id1)" x="0.9414" y="1.0266" width="3.7209" height="6.01"/>
   </mask>
  <linearGradient id="id2" gradientUnits="userSpaceOnUse" x1="1.0619" y1="6.9602" x2="8.7791" y2="6.9602">
   <stop offset="0" style="stop-color:#CCCCCC"/>
   <stop offset="0.568627" style="stop-color:#D9D9D9"/>
   <stop offset="1" style="stop-color:#CECECE"/>
  </linearGradient>
  <linearGradient id="id3" gradientUnits="userSpaceOnUse" x1="6.0078" y1="1.9355" x2="9.1514" y2="1.9355">
   <stop offset="0" style="stop-color:#BDEFFC"/>
   <stop offset="0.219608" style="stop-color:white"/>
   <stop offset="0.819608" style="stop-color:white"/>
   <stop offset="1" style="stop-color:#BEEFFC"/>
  </linearGradient>
  <linearGradient id="id4" gradientUnits="userSpaceOnUse" xlink:href="#id3" x1="4.2833" y1="1.9355" x2="5.6665" y2="1.9355">
  </linearGradient>
  <linearGradient id="id5" gradientUnits="userSpaceOnUse" x1="4.957" y1="2.9223" x2="4.957" y2="1.1439">
   <stop offset="0" style="stop-color:#067C9A"/>
   <stop offset="1" style="stop-color:#24A3C3"/>
  </linearGradient>
  <linearGradient id="id6" gradientUnits="userSpaceOnUse" x1="4.9661" y1="2.6667" x2="4.9661" y2="1.3604">
   <stop offset="0" style="stop-color:#5EBACF"/>
   <stop offset="1" style="stop-color:#65BDD3"/>
  </linearGradient>
  <linearGradient id="id7" gradientUnits="userSpaceOnUse" x1="4.9499" y1="8.0239" x2="4.9499" y2="2.9223">
   <stop offset="0" style="stop-color:#F0F0F0"/>
   <stop offset="1" style="stop-color:#FEFEFE"/>
  </linearGradient>
  <linearGradient id="id8" gradientUnits="userSpaceOnUse" x1="2.4869" y1="6.6767" x2="2.4869" y2="0.7667">
   <stop offset="0" style="stop-color:#AD3502"/>
   <stop offset="0.788235" style="stop-color:#E65C20"/>
   <stop offset="1" style="stop-color:#E14604"/>
  </linearGradient>
  <linearGradient id="id9" gradientUnits="userSpaceOnUse" x1="2.5028" y1="3.483" x2="2.5028" y2="0.7876">
   <stop offset="0" style="stop-color:#D75016"/>
   <stop offset="0.45098" style="stop-color:#DD4303"/>
   <stop offset="1" style="stop-color:#D24102"/>
  </linearGradient>
  <radialGradient id="id10" gradientUnits="userSpaceOnUse" cx="5.0432" cy="8.9397" r="23.9007" fx="5.0432" fy="8.9397">
   <stop offset="0" style="stop-color:#CCCCCC"/>
   <stop offset="0.431373" style="stop-color:#DADBDB"/>
   <stop offset="1" style="stop-color:#E8E9EA"/>
  </radialGradient>
 </defs>
 <g id="Слой_x0020_1">
  <metadata id="CorelCorpID_0Corel-Layer"/>
  <path class="fil0 str0" d="M0.2236 2.9223l9.4526 0.0004 -0.0002 4.724c0,0.2073 -0.1659,0.3772 -0.3682,0.3772l-8.7156 0c-0.2024,0 -0.3682,-0.1697 -0.3682,-0.3772l-0.0004 -4.7244z"/>
  <polygon class="fil1" points="1.0619,6.8116 8.7791,6.8116 8.7791,7.1089 1.0619,7.1089 "/>
  <polygon class="fil1" points="1.0619,6.0768 8.7791,6.0768 8.7791,6.3741 1.0619,6.3741 "/>
  <polygon class="fil1" points="1.0619,5.357 8.7791,5.357 8.7791,5.6543 1.0619,5.6543 "/>
  <polygon class="fil1" points="1.0619,4.6672 8.7791,4.6672 8.7791,4.9645 1.0619,4.9645 "/>
  <polygon class="fil1" points="1.0619,3.9624 8.7791,3.9624 8.7791,4.2597 1.0619,4.2597 "/>
  <path class="fil2" d="M9.7981 2.9223l-9.6822 0 -0.0001 -1.3652c0,-0.2273 0.1859,-0.4132 0.4132,-0.4132l8.8559 0c0.2273,0 0.4132,0.1861 0.4132,0.4132l0 1.3652z"/>
  <path class="fil3" d="M9.5674 2.6667l-9.2026 0 -0.0001 -1.0028c0,-0.1669 0.1767,-0.3035 0.3927,-0.3035l8.4173 0c0.216,0 0.3927,0.1367 0.3927,0.3035l0 1.0028z"/>
  <polygon class="fil4" points="5.6665,1.5852 4.2833,1.5852 4.2833,2.2858 5.6665,2.2858 "/>
  <polygon class="fil5" style="mask:url(#id0)" points="1.0414,1.1266 4.5623,1.1266 4.5623,6.9366 2.8148,5.3995 1.0414,6.9366 "/>
  <polygon class="fil6" points="0.7265,0.7667 4.2474,0.7667 4.2474,6.6767 2.4999,5.0396 0.7265,6.6767 "/>
  <polygon class="fil7" points="9.1514,1.5852 6.0078,1.5852 6.0078,2.2858 9.1514,2.2858 "/>
  <path class="fil8" d="M0.502 7.612l8.9106 0c0.0792,0 0.144,0.0647 0.144,0.144l0 0c0,0.0791 -0.0648,0.144 -0.144,0.144l-8.9106 0c-0.0792,0 -0.144,-0.0649 -0.144,-0.144l0 0c0,-0.0793 0.0648,-0.144 0.144,-0.144z"/>
  <polygon class="fil9" points="4.246,0.7849 3.9917,0.7849 3.9917,6.4361 4.246,6.6755 "/>
  <polygon class="fil9" points="0.7341,0.7849 0.9884,0.7849 0.9884,6.4361 0.7341,6.6755 "/>
  <polygon class="fil10" points="0.998,0.7876 4.0077,0.7876 4.0077,3.4831 0.998,3.4831 "/>
  <ellipse class="fil11" cx="5.0432" cy="8.93967" rx="4.5068" ry="0.342568"/>
 </g>
</svg>
