<?xml version="1.0" encoding="UTF-8"?>
<!DOCTYPE svg PUBLIC "-//W3C//DTD SVG 1.1//EN" "http://www.w3.org/Graphics/SVG/1.1/DTD/svg11.dtd">
<!-- Creator: CorelDRAW -->
<svg xmlns="http://www.w3.org/2000/svg" xml:space="preserve" width="10mm" height="10mm" style="shape-rendering:geometricPrecision; text-rendering:geometricPrecision; image-rendering:optimizeQuality; fill-rule:evenodd; clip-rule:evenodd"
viewBox="0 0 10 10"
 xmlns:xlink="http://www.w3.org/1999/xlink">
 <defs>
  <style type="text/css">
   <![CDATA[
    .fil0 {fill:url(#id0)}
   ]]>
  </style>
  <linearGradient id="id0" gradientUnits="userSpaceOnUse" x1="4.9954" y1="8.8119" x2="4.9954" y2="1.4089">
   <stop offset="0" style="stop-color:#424242"/>
   <stop offset="1" style="stop-color:#848484"/>
  </linearGradient>
 </defs>
 <g id="Слой_x0020_1">
  <metadata id="CorelCorpID_0Corel-Layer"/>
  <path class="fil0" d="M9.8365 3.7103l-5.4113 0 0 0.0002 5.4042 0.0002 -0.0002 4.724c0,0.2073 -0.1698,0.3772 -0.3768,0.3772l-8.9185 0c-0.2071,0 -0.3768,-0.1697 -0.3768,-0.3772l-0.0004 -4.7244 -0.0024 0 -0.0001 -1.3652c0,-0.2273 0.1859,-0.4132 0.4132,-0.4132l0.0369 0 0 -0.373 0 -0.15 0.15 0 3.5209 0 0.15 0 0 0.15 0 0.373 4.9981 0c0.2273,0 0.4132,0.1861 0.4132,0.4132l0 1.3652zm-5.4113 0.2448l0 0.6341 4.3923 0 0 -0.6341 -4.3923 0zm0 1.6706l0 0.6341 4.3923 0 0 -0.6341 -4.3923 0zm0 1.6371l0 0.2061 0 0.3455 -0.2525 -0.2365 -0.3364 -0.3151 -2.638 0 -0.098 0.0905 0 0.5436 7.7172 0 0 -0.6341 -4.3923 0zm-1.6595 -1.003l-0.2387 -0.2236 -0.2422 0.2236 0.4809 0zm1.3595 -4.5509l-3.2209 0 0 5.4177 1.522 -1.405 0.1021 -0.0943 0.1018 0.0955 1.495 1.4006 0 -5.4145zm-3.5209 2.0014l-0.4476 0 0.4476 0z"/>
 </g>
</svg>
