<?xml version="1.0" encoding="UTF-8"?>
<!DOCTYPE svg PUBLIC "-//W3C//DTD SVG 1.1//EN" "http://www.w3.org/Graphics/SVG/1.1/DTD/svg11.dtd">
<!-- Creator: CorelDRAW -->
<svg xmlns="http://www.w3.org/2000/svg" xml:space="preserve" width="50mm" height="50mm" style="shape-rendering:geometricPrecision; text-rendering:geometricPrecision; image-rendering:optimizeQuality; fill-rule:evenodd; clip-rule:evenodd"
viewBox="0 0 50 50"
 xmlns:xlink="http://www.w3.org/1999/xlink">
 <defs>
  <style type="text/css">
   <![CDATA[
    .fil0 {fill:url(#id0)}
   ]]>
  </style>
  <linearGradient id="id0" gradientUnits="userSpaceOnUse" x1="25.1355" y1="20.5973" x2="25.1355" y2="12.2685">
   <stop offset="0" style="stop-color:#424242"/>
   <stop offset="1" style="stop-color:#848484"/>
  </linearGradient>
 </defs>
 <g id="Слой_x0020_1">
  <metadata id="CorelCorpID_0Corel-Layer"/>
  <path class="fil0" d="M28.3077 12.2685l-6.3444 0c-0.5458,0 -0.9922,0.4464 -0.9922,0.9922l0 6.3444c0,0.5458 0.4464,0.9922 0.9922,0.9922l6.3444 0c0.5458,0 0.9922,-0.4464 0.9922,-0.9922l0 -6.3444c0,-0.5458 -0.4464,-0.9922 -0.9922,-0.9922zm-0.6721 6.9237c-0.042,-3.284 -2.7513,-5.3286 -5.3055,-5.3056 0,0.3537 0,0.7074 0,1.0611 2.0453,0.0288 4.1319,1.4574 4.2751,4.2445 0.3435,0 0.687,0 1.0304,0zm-1.7993 0c-0.0759,-2.1782 -1.7435,-3.5172 -3.4909,-3.4756l0.0006 3.4756c0.3434,0 3.1469,0 3.4903,0z"/>
 </g>
</svg>
