<?xml version="1.0" encoding="UTF-8"?>
<!DOCTYPE svg PUBLIC "-//W3C//DTD SVG 1.1//EN" "http://www.w3.org/Graphics/SVG/1.1/DTD/svg11.dtd">
<!-- Creator: CorelDRAW -->
<svg xmlns="http://www.w3.org/2000/svg" xml:space="preserve" width="50mm" height="50mm" style="shape-rendering:geometricPrecision; text-rendering:geometricPrecision; image-rendering:optimizeQuality; fill-rule:evenodd; clip-rule:evenodd"
viewBox="0 0 50 50"
 xmlns:xlink="http://www.w3.org/1999/xlink">
 <defs>
  <style type="text/css">
   <![CDATA[
    .fil21 {fill:#26A0C8}
    .fil14 {fill:#2B8542}
    .fil22 {fill:#3F758C}
    .fil31 {fill:#6B993A}
    .fil30 {fill:#6E6B6A}
    .fil0 {fill:#78613A}
    .fil15 {fill:#8AB44B}
    .fil6 {fill:#B3B3B3}
    .fil16 {fill:#E6E6E6}
    .fil1 {fill:#F7B72D}
    .fil19 {fill:white}
    .fil8 {fill:url(#id8)}
    .fil7 {fill:url(#id9)}
    .fil17 {fill:url(#id10)}
    .fil13 {fill:url(#id11)}
    .fil2 {fill:url(#id12)}
    .fil4 {fill:url(#id13)}
    .fil9 {fill:url(#id14)}
    .fil24 {fill:url(#id15)}
    .fil25 {fill:url(#id16)}
    .fil5 {fill:url(#id17)}
    .fil10 {fill:url(#id18)}
    .fil28 {fill:url(#id19)}
    .fil23 {fill:url(#id20)}
    .fil27 {fill:url(#id21)}
    .fil20 {fill:url(#id22)}
    .fil11 {fill:url(#id23)}
    .fil26 {fill:url(#id24)}
    .fil18 {fill:url(#id25)}
    .fil3 {fill:url(#id26)}
    .fil12 {fill:url(#id27)}
    .fil29 {fill:url(#id28)}
   ]]>
  </style>
   <mask id="id0">
  <linearGradient id="id1" gradientUnits="userSpaceOnUse" x1="23.371" y1="17.7303" x2="25.7682" y2="18.6591">
   <stop offset="0" style="stop-opacity:1; stop-color:white"/>
   <stop offset="1" style="stop-opacity:0; stop-color:white"/>
  </linearGradient>
    <rect style="fill:url(#id1)" x="17.5574" y="10.5225" width="14.0244" height="15.3444"/>
   </mask>
   <mask id="id2">
  <linearGradient id="id3" gradientUnits="userSpaceOnUse" x1="24.1777" y1="31.8483" x2="25.3435" y2="41.9789">
   <stop offset="0" style="stop-opacity:1; stop-color:white"/>
   <stop offset="1" style="stop-opacity:0; stop-color:white"/>
  </linearGradient>
    <rect style="fill:url(#id3)" x="3.4674" y="33.1427" width="42.5864" height="7.5418"/>
   </mask>
   <mask id="id4">
  <linearGradient id="id5" gradientUnits="userSpaceOnUse" x1="42.5423" y1="31.8173" x2="41.0379" y2="34.0739">
   <stop offset="0" style="stop-opacity:1; stop-color:white"/>
   <stop offset="1" style="stop-opacity:0; stop-color:white"/>
  </linearGradient>
    <rect style="fill:url(#id5)" x="39.0443" y="28.7887" width="5.4917" height="8.3139"/>
   </mask>
   <mask id="id6">
  <linearGradient id="id7" gradientUnits="userSpaceOnUse" x1="6.5257" y1="32.0146" x2="7.9103" y2="33.8766">
   <stop offset="0" style="stop-opacity:1; stop-color:white"/>
   <stop offset="1" style="stop-opacity:0; stop-color:white"/>
  </linearGradient>
    <rect style="fill:url(#id7)" x="4.4721" y="28.7887" width="5.4917" height="8.3139"/>
   </mask>
  <linearGradient id="id8" gradientUnits="userSpaceOnUse" x1="29.6317" y1="27.0682" x2="37.06" y2="27.0682">
   <stop offset="0" style="stop-color:#D0B86F"/>
   <stop offset="0.678431" style="stop-color:#F0DEAF"/>
   <stop offset="1" style="stop-color:#F5D482"/>
  </linearGradient>
  <linearGradient id="id9" gradientUnits="userSpaceOnUse" x1="20.3788" y1="25.0709" x2="28.6258" y2="25.0709">
   <stop offset="0" style="stop-color:#D2C08B"/>
   <stop offset="0.4" style="stop-color:#EDDDAD"/>
   <stop offset="1" style="stop-color:#CBBB89"/>
  </linearGradient>
  <linearGradient id="id10" gradientUnits="userSpaceOnUse" x1="3.7546" y1="36.8196" x2="45.907" y2="36.8196">
   <stop offset="0" style="stop-color:#F7B72D"/>
   <stop offset="0.34902" style="stop-color:#644D19"/>
   <stop offset="0.701961" style="stop-color:#534214"/>
   <stop offset="1" style="stop-color:#F7B72D"/>
  </linearGradient>
  <linearGradient id="id11" gradientUnits="userSpaceOnUse" xlink:href="#id10" x1="3.5674" y1="36.9136" x2="45.9538" y2="36.9136">
  </linearGradient>
  <linearGradient id="id12" gradientUnits="userSpaceOnUse" x1="0.599" y1="41.8834" x2="49.2771" y2="41.8834">
   <stop offset="0" style="stop-color:#DC9B41"/>
   <stop offset="0.168627" style="stop-color:#F0C282"/>
   <stop offset="0.301961" style="stop-color:#E6B46E"/>
   <stop offset="0.709804" style="stop-color:#CC9547"/>
   <stop offset="0.85098" style="stop-color:#B37B32"/>
   <stop offset="1" style="stop-color:#D9973D"/>
  </linearGradient>
  <linearGradient id="id13" gradientUnits="userSpaceOnUse" x1="11.6739" y1="26.4418" x2="19.0431" y2="26.4418">
   <stop offset="0" style="stop-color:#D4BC77"/>
   <stop offset="0.25098" style="stop-color:#A58F58"/>
   <stop offset="1" style="stop-color:#AE975D"/>
  </linearGradient>
  <linearGradient id="id14" gradientUnits="userSpaceOnUse" x1="29.5333" y1="26.4418" x2="37.0874" y2="26.4418">
   <stop offset="0" style="stop-color:#D4BC77"/>
   <stop offset="0.25098" style="stop-color:#A58F58"/>
   <stop offset="0.768627" style="stop-color:#A58F58"/>
   <stop offset="1" style="stop-color:#F4D585"/>
  </linearGradient>
  <linearGradient id="id15" gradientUnits="userSpaceOnUse" x1="24.555" y1="37.567" x2="24.555" y2="27.432">
   <stop offset="0" style="stop-color:#025BA9"/>
   <stop offset="1" style="stop-color:#2086CA"/>
  </linearGradient>
  <linearGradient id="id16" gradientUnits="userSpaceOnUse" x1="24.5811" y1="39.2462" x2="24.5811" y2="26.0842">
   <stop offset="0" style="stop-color:#B2B2B2"/>
   <stop offset="1" style="stop-color:#45413F"/>
  </linearGradient>
  <linearGradient id="id17" gradientUnits="userSpaceOnUse" x1="15.4092" y1="26.9109" x2="15.4092" y2="16.3684">
   <stop offset="0" style="stop-color:#E3DBC1"/>
   <stop offset="1" style="stop-color:#B9A260"/>
  </linearGradient>
  <linearGradient id="id18" gradientUnits="userSpaceOnUse" x1="33.2963" y1="27.0338" x2="33.2963" y2="15.2697">
   <stop offset="0" style="stop-color:#F4EBC1"/>
   <stop offset="1" style="stop-color:#F9CB50"/>
  </linearGradient>
  <linearGradient id="id19" gradientUnits="userSpaceOnUse" x1="24.5695" y1="27.2615" x2="24.5695" y2="11.4933">
   <stop offset="0" style="stop-color:#F9E9B9"/>
   <stop offset="1" style="stop-color:#E8CF88"/>
  </linearGradient>
  <linearGradient id="id20" gradientUnits="userSpaceOnUse" x1="24.5285" y1="37.4613" x2="24.5285" y2="25.2375">
   <stop offset="0" style="stop-color:#CCCCCC"/>
   <stop offset="0.870588" style="stop-color:#FAFAFA"/>
   <stop offset="1" style="stop-color:#B3B3B3"/>
  </linearGradient>
  <linearGradient id="id21" gradientUnits="userSpaceOnUse" x1="31.4605" y1="39.4462" x2="31.4605" y2="26.7238">
   <stop offset="0" style="stop-color:#7E7C7C"/>
   <stop offset="1" style="stop-color:#2A2D30"/>
  </linearGradient>
  <linearGradient id="id22" gradientUnits="userSpaceOnUse" x1="45.2347" y1="37.3512" x2="35.1145" y2="28.3154">
   <stop offset="0" style="stop-color:#9BCBE5"/>
   <stop offset="1" style="stop-color:#399FC4"/>
  </linearGradient>
  <linearGradient id="id23" gradientUnits="userSpaceOnUse" x1="24.5696" y1="25.6155" x2="24.5696" y2="10.7739">
   <stop offset="0" style="stop-color:#C9B887"/>
   <stop offset="1" style="stop-color:#B3A26E"/>
  </linearGradient>
  <linearGradient id="id24" gradientUnits="userSpaceOnUse" xlink:href="#id21" x1="17.2395" y1="39.1768" x2="17.2395" y2="26.7122">
  </linearGradient>
  <linearGradient id="id25" gradientUnits="userSpaceOnUse" x1="6.4617" y1="27.5162" x2="11.6385" y2="38.1742">
   <stop offset="0" style="stop-color:#628C3B"/>
   <stop offset="0.490196" style="stop-color:#7CAC44"/>
   <stop offset="1" style="stop-color:#96CC4E"/>
  </linearGradient>
  <linearGradient id="id26" gradientUnits="userSpaceOnUse" x1="11.6967" y1="27.0153" x2="19.039" y2="27.0153">
   <stop offset="0" style="stop-color:#C3AF75"/>
   <stop offset="0.188235" style="stop-color:#E0C98B"/>
   <stop offset="0.439216" style="stop-color:#B6A169"/>
   <stop offset="1" style="stop-color:#A38D56"/>
  </linearGradient>
  <linearGradient id="id27" gradientUnits="userSpaceOnUse" x1="33.4951" y1="20.454" x2="33.4951" y2="11.44">
   <stop offset="0" style="stop-color:#84482F"/>
   <stop offset="1" style="stop-color:#BA9077"/>
  </linearGradient>
  <linearGradient id="id28" gradientUnits="userSpaceOnUse" x1="24.4678" y1="17.9237" x2="24.4678" y2="7.2645">
   <stop offset="0" style="stop-color:#353C45"/>
   <stop offset="0.568627" style="stop-color:#555B62"/>
   <stop offset="1" style="stop-color:#757B80"/>
  </linearGradient>
 </defs>
 <g id="Слой_x0020_1">
  <metadata id="CorelCorpID_0Corel-Layer"/>
  <polygon class="fil0" points="21.1947,25.3962 20.2422,21.9566 18.3372,24.4967 18.5489,27.46 "/>
  <path class="fil1" d="M24.9381 33.7538c13.4051,0 24.272,1.6904 24.272,3.7756 0,2.0851 -10.8669,3.7755 -24.272,3.7755 -13.4051,0 -24.272,-1.6904 -24.272,-3.7755 0,-2.0852 10.8669,-3.7756 24.272,-3.7756z"/>
  <path class="fil2" d="M0.599 37.5085c2.7444,4.0644 42.782,5.574 48.6781,0 0,1.4304 0,2.8608 0,4.2912 -3.8264,4.0791 -43.6448,4.4587 -48.6781,0 0,-1.4304 0,-2.8608 0,-4.2912z"/>
  <path class="fil3" d="M15.283 29.5296c0.3098,0 0.7095,0 1.1093,0 0.8594,-0.7376 2.1953,-1.528 3.0547,-2.2656 0,-0.9387 -0.4763,-1.6656 -0.4763,-2.6043 -2.0372,2.1877 -5.0162,2.4722 -7.3754,-0.1588 0,0.9387 -0.3065,1.9731 -0.3065,2.9118 0.8595,0.7376 2.0255,1.3793 2.8849,2.1169 0.3998,0 0.7995,0 1.1093,0z"/>
  <path class="fil4" d="M11.7674 25.1859c-0.0312,-0.1745 -0.0623,-0.3491 -0.0935,-0.5236 3.5799,2.1192 3.5129,3.2877 7.3051,0.2106 -0.0062,0.1371 0.0641,0.2553 0.0579,0.3924 -2.2067,2.6409 -4.6135,2.9559 -7.2695,-0.0794z"/>
  <path class="fil0" d="M10.9029 16.6265c-0.1946,1.5806 -0.9845,2.2431 -0.8889,3.969 -0.1227,-0.0929 2.4792,2.8156 2.1763,4.9792 -0.1888,1.3495 -2.2546,3.3363 -6.1364,-0.6715 0.3985,-0.6114 0.7219,-0.6228 1.1134,-0.6332 2.6235,-0.07 2.1077,-2.714 1.8671,-7.5385 -0.0305,-0.907 0.1393,-1.8686 0.9796,-2.7756 0.6939,-1.0574 0.504,-0.2558 1.6318,-0.761 4.4934,-4.4104 10.2939,-0.8485 9.2659,3.7378 -0.1259,1.8161 -0.0889,2.6473 -0.5063,3.8805 -0.0907,-0.0726 -0.1814,-0.1451 -0.2721,-0.2177 0.0956,-1.7259 -0.9551,-0.5711 -1.1497,-2.1517 -0.8206,1.2076 -7.0407,-0.4046 -8.0807,-1.8173z"/>
  <path class="fil5" d="M20.8554 21.6195c0.2308,-2.0285 0.2878,-3.001 0.0078,-5.0295 -1.5147,2.4504 -3.4642,3.3412 -9.2601,-0.0318 -0.146,-0.085 -0.5413,-0.1898 -0.6887,0.0433 -0.9487,1.3123 -1.2392,4.3647 -0.9834,5.4149 0.7912,3.0511 3.1378,3.7259 4.6474,4.6064 0.738,0.2321 1.1718,0.2881 1.8969,-0.0096 2.0559,-1.2432 3.6927,-1.9735 4.3801,-4.9937z"/>
  <polygon class="fil6" points="29.926,23.5971 28.2855,21.6921 28.3914,25.7667 30.0318,27.0896 "/>
  <path class="fil7" d="M24.5023 27.5852c0.3464,0 0.7934,0 1.2404,0 1.0415,-0.4958 1.9826,-1.2933 2.8831,-2.2127 0,-0.9387 0,-1.8773 0,-2.816 -0.8716,0.8183 -1.7432,1.5062 -2.6149,2.1455 -0.4917,0.0447 -0.9834,0.0894 -1.5086,0.1341 -0.5252,-0.0447 -1.0169,-0.0894 -1.5086,-0.1341 -0.8717,-0.6393 -1.7433,-1.3272 -2.6149,-2.1455 0,0.9387 0,1.8773 0,2.816 0.961,0.7376 1.9221,1.4751 2.8831,2.2127 0.447,0 0.894,0 1.2404,0z"/>
  <path class="fil8" d="M33.3194 29.5296c0.3098,0 0.7095,0 1.1093,0 0.8594,-0.7376 1.719,-1.4751 2.5784,-2.2127 0,-0.9387 0.0529,-1.7715 0.0529,-2.7102 -0.7794,0.8183 -1.6119,1.4004 -2.3914,2.0397 -0.4398,0.0447 -0.8265,0.1423 -1.2962,0.187 -0.4697,-0.0447 -0.9624,-0.1423 -1.4022,-0.187 -0.7795,-0.6393 -1.559,-1.2214 -2.3385,-2.0397 0,0.9387 0,1.7715 0,2.7102 0.8594,0.7376 1.719,1.4751 2.5784,2.2127 0.3998,0 0.7995,0 1.1093,0z"/>
  <path class="fil9" d="M29.6268 25.1859c-0.0312,-0.1745 -0.0623,-0.3491 -0.0935,-0.5236 3.5799,2.1192 3.7619,3.0771 7.5541,0 -0.0062,0.1371 -0.0125,0.2743 -0.0187,0.4114 -2.2067,2.6409 -4.7859,3.1475 -7.4419,0.1122z"/>
  <path class="fil10" d="M34.5414 26.738c2.3275,-1.4016 3.5268,-3.2037 4.151,-5.3831 0.2308,-2.0285 0.28,-4.0566 0,-6.0852 -1.7881,0 -3.5762,0 -5.3961,0 -1.8197,0 -3.6079,0 -5.396,0 -0.28,2.0286 -0.2308,4.0567 0,6.0852 0.6243,2.1794 1.8235,3.9815 4.151,5.3831 0.8399,0.2958 1.5998,0.2473 2.4901,0z"/>
  <path class="fil11" style="mask:url(#id0)" d="M26.1254 25.333c1.0191,-0.6137 1.8651,-1.3032 2.5678,-2.0569 0.1928,0.6688 1.5354,2.1032 1.3495,1.7552 -1.3933,-2.6092 0.6428,-4.2298 1.0759,-6.492 0.2884,-2.5348 0.5435,-5.1174 0.1936,-7.6521 -2.2343,0 -4.4687,0 -6.7427,0 -2.2739,0 -3.8026,-0.2647 -6.037,-0.2647 -0.3984,2.5267 -1.2154,5.8734 -0.2742,8.517 0.7252,1.3801 1.7601,3.6356 1.0913,5.3643 -0.149,0.3854 0.7657,-0.8846 1.0409,-1.3834 0.7278,0.8411 1.3648,1.4087 2.5079,2.0971 0.8393,0.2994 1.9975,0.4011 3.227,0.1155z"/>
  <path class="fil12" d="M30.5893 15.8511c-1.5546,-0.3869 -0.8114,-0.1421 -1.7722,-0.6773 -0.1946,1.5806 -0.2588,3.2265 -0.1632,4.9524 -0.0907,0.0726 -0.1814,0.1451 -0.2722,0.2177 -0.4173,-1.2332 -0.5815,-2.2656 -0.7074,-4.0817 -0.0305,-0.907 0.1393,-1.8686 0.9796,-2.7756 0.6939,-1.0574 1.3756,-1.1273 2.5035,-1.6326 1.706,-0.9148 5.0061,-0.542 6.093,0.5894 0.7638,0.7952 1.3573,0.7542 1.8417,2.4093 0.2013,1.3252 0.2542,4.8689 -0.1632,6.1021 -0.0907,-0.0726 -0.0343,-0.4103 -0.1251,-0.4828 0.003,-1.202 0.0311,-1.8516 -0.275,-2.579 -1.3068,1.2336 -7.3362,-1.0165 -7.9395,-2.0419z"/>
  <path class="fil13" style="mask:url(#id2)" d="M24.6283 33.2632c7.3327,0.4389 14.5761,0.3147 21.2787,2.4801 -1.9951,1.4054 -4.0969,3.1237 -9.2138,2.9708 -3.7229,2.5194 -18.7841,2.4871 -23.9712,-0.0581 -6.7721,-0.5302 -7.5153,-1.6413 -8.9674,-2.8035 5.496,-1.6834 12.1322,-2.7616 20.8737,-2.5893z"/>
  <path class="fil14" d="M11.5849 27.5221c-0.5316,-0.5282 0.3432,-0.8355 0.5846,-1.7817 0.0316,-0.1259 -0.028,-0.1848 -0.5264,-0.1515 -0.8059,0.1726 -1.6725,1.3451 -0.0582,1.9332z"/>
  <polygon class="fil15" points="10.6764,26.6256 13.1429,28.1763 13.2347,30.3706 12.474,31.4425 10.4227,29.1659 "/>
  <polygon class="fil16" points="12.9924,28.0351 14.1294,29.4188 13.1327,30.467 "/>
  <path class="fil17" d="M24.6283 33.2616c7.3327,0.4005 14.5761,0.2872 21.2787,2.2632 -1.9951,1.2825 -4.0969,2.8505 -9.2138,2.711 -3.7229,2.299 -18.7841,2.2696 -23.9712,-0.053 -6.7721,-0.4839 -7.5153,-1.4978 -8.9674,-2.5583 5.496,-1.5362 12.1322,-2.5201 20.8737,-2.3629z"/>
  <path class="fil18" d="M10.4788 29.1532c0.0706,-0.4498 0.0224,-0.8759 0.093,-1.3257 -3.8457,1.3138 -5.5874,4.0599 -6.2578,7.7022 2.2099,1.6004 5.3572,2.3331 9.4721,2.1696 -1.6119,-0.5002 -2.7185,-0.8757 -2.7782,-1.5875 0.1549,-1.7042 0.7796,-3.4245 1.6425,-4.7747 -0.6438,-0.6791 -1.5278,-1.5048 -2.1716,-2.1839z"/>
  <polygon class="fil19" points="36.6704,27.5773 34.9518,29.0432 36.0267,30.3648 "/>
  <path class="fil20" d="M38.693 29.1532c-0.0706,-0.4498 -0.2999,-0.8996 -0.3705,-1.3494 3.8457,1.3138 5.9707,3.9778 6.6411,7.6201 -2.2099,1.6004 -5.463,2.4389 -9.5779,2.2754 1.6119,-0.5002 2.7185,-0.8757 2.7782,-1.5875 -0.1549,-1.7042 -0.9608,-3.4307 -1.8237,-4.7809 0.6438,-0.6791 1.709,-1.4986 2.3528,-2.1777z"/>
  <path class="fil21" d="M36.5614 31.2757c0.6099,-0.6194 1.5284,-1.4524 2.1383,-2.0718 -0.2203,-0.9476 -0.4162,-2.1412 -0.6365,-3.0888 -0.4641,0.442 -1.4242,1.4545 -1.912,1.8608 0.038,0.5743 -0.2355,1.7029 -0.1978,2.277 0.0362,0.5504 0.5715,0.4721 0.608,1.0228z"/>
  <path class="fil22" d="M36.9566 27.2675c0.0176,-0.5821 0.0426,-1.1304 0.0602,-1.7125 1.45,0.2996 1.3978,0.6748 -0.0602,1.7125z"/>
  <path class="fil23" d="M24.5285 37.4613c-2.4993,-3.1891 -4.0112,-7.1461 -5.2388,-11.3242 0.3704,-0.2999 0.7408,-0.5997 1.1112,-0.8996 0.8609,0.9589 1.8543,1.6535 2.8575,2.3283 0.441,0 0.882,0 1.2701,0 0.3881,0 0.8291,0 1.2701,0 1.1285,-0.7175 2.1528,-1.4696 2.8575,-2.3283 0.3704,0.2999 0.7408,0.5997 1.1112,0.8996 -1.2276,4.1781 -2.7395,8.1351 -5.2388,11.3242z"/>
  <path class="fil24" d="M24.555 37.5671c-0.5926,-0.8803 -1.2529,-1.7195 -1.7199,-2.7517 0.4323,-1.9225 0.7302,-3.6226 0.8801,-5.5451 -0.1588,0 -0.5404,-0.0334 -0.6992,-0.0334 -0.014,-0.4619 0.1576,-1.0368 0.2755,-1.4706 0.0477,-0.1759 0.0446,-0.0695 0.1811,-0.2005 0.1394,-0.1338 1.9113,-0.1222 2.1282,0 0.1931,0.1088 0.0936,0.0724 0.2168,0.2324 0.2834,0.3682 0.1349,0.9872 0.1648,1.4053 -0.1588,0 -0.4957,0.078 -0.6545,0.078 0.1499,1.9225 0.5146,3.6114 0.9469,5.5339 -0.467,1.0322 -1.1273,1.8714 -1.7198,2.7517z"/>
  <path class="fil6" d="M25.9154 29.1004c0.0948,-0.2395 0.0726,-0.4567 0.0696,-0.6962l1.983 2.2308c-0.8782,-0.4939 -1.7565,-0.8541 -2.6347,-1.348 0.2001,0.0076 0.418,-0.0505 0.5821,-0.1866z"/>
  <path class="fil6" d="M23.1525 29.1004c-0.1161,-0.1577 -0.0537,-0.4381 -0.0361,-0.685l-2.0276 2.2196c0.8819,-0.4939 1.7639,-0.8875 2.6458,-1.3814 -0.2377,0.0407 -0.4336,-0.075 -0.5821,-0.1532z"/>
  <path class="fil25" d="M24.5659 37.536c-2.1323,-3.219 -3.9373,-6.8216 -5.2233,-11.4518 -1.0054,0.4762 -2.1167,1.3229 -3.0162,2.3812 -0.0273,1.4052 0.6974,2.2462 1.7991,2.8046 -0.4673,0.6704 -0.6261,1.3935 -0.5291,2.0637 0.7871,1.9053 3.0215,3.5117 5.8945,5.2303 0.1413,0.0845 -0.6096,0.5605 -0.4531,0.6185 0.1721,0.0637 1.4724,-0.0087 1.6802,0.0098 3.3573,-1.912 6.2156,-3.9874 6.9535,-5.9644 0.097,-0.6702 -0.1676,-1.2875 -0.6349,-1.9579 1.1017,-0.5584 1.8264,-1.3994 1.7991,-2.8046 -0.8995,-1.0583 -2.0682,-1.8858 -3.0736,-2.362 -1.286,4.6302 -3.064,8.2136 -5.1962,11.4326z"/>
  <path class="fil26" d="M18.2314 31.2171c-2.0603,2.3657 1.2359,4.8732 5.3716,7.3679l-0.4984 0.5991c-5.6248,0.1199 -10.4346,-0.7452 -12.2286,-2.8341 0.5292,-5.1363 3.5166,-8.5837 7.5815,-9.765 -2.316,1.3943 -2.7076,3.0967 -0.2261,4.6321z"/>
  <path class="fil27" d="M30.9268 31.2363c2.2254,2.5553 -1.7057,5.2211 -6.2925,7.9183 6.1408,0.2916 11.7219,-0.5567 13.6525,-2.8046 -0.5292,-5.1363 -3.4875,-8.4449 -7.5524,-9.6262 2.316,1.3943 2.6739,2.9771 0.1924,4.5125z"/>
  <path class="fil28" d="M30.753 18.4664c0.2644,-2.3245 0.3208,-4.6486 0,-6.9731 -2.0491,0 -4.0981,0 -6.1835,0 -2.0853,0 -4.1343,0 -6.1834,0 -0.3208,2.3245 -0.2644,4.6486 0,6.9731 2.3147,8.0814 9.8477,8.7951 12.3669,0z"/>
  <path class="fil29" d="M18.6215 12.6842c-0.3463,1.1202 -0.3985,3.6562 -0.22,5.6767 -0.1118,0.0894 -0.2236,0.3813 -0.3354,0.4707 -0.5142,-1.5193 -0.4767,-3.4756 -0.6318,-5.7131 -0.0376,-1.1175 -0.1694,-2.5864 0.8659,-3.7038 1.1458,-2.0417 2.2626,-1.2753 2.6565,-2.0114 0.796,-1.1539 6.388,-1.0681 7.5819,0.1426 0.8335,1.5195 1.7673,0.343 2.2287,1.8688 0.8648,1.1174 0.9034,2.359 0.8658,3.4765 -0.1551,2.2375 -0.1427,4.5284 -0.6569,6.0477 -0.1118,-0.0894 -0.1728,-0.5329 -0.2846,-0.6223 0.0982,-1.7724 0.3324,-4.4196 -0.3973,-5.5743 -0.339,-0.5363 -0.5161,-0.5473 -0.8784,-0.4293 -3.0439,0.9913 -6.2049,1.7148 -9.9165,-0.0273 -0.3523,0.0317 -0.435,-0.1171 -0.8779,0.3985z"/>
  <path class="fil30" d="M14.7035 28.5924c-0.7183,0.0707 -1.0068,-0.1605 -1.6337,-0.4563 0.3923,0.398 0.5163,0.7384 0.9086,1.1364 0.2672,-0.2331 0.4579,-0.447 0.7251,-0.6801z"/>
  <path class="fil30" d="M34.2666 28.4601c0.7183,0.0707 1.3175,-0.1988 1.9444,-0.4946 -0.3923,0.398 -0.7846,0.7959 -1.1769,1.1939 -0.2672,-0.2331 -0.5003,-0.4662 -0.7675,-0.6993z"/>
  <path class="fil21" style="mask:url(#id4)" d="M41.261 37.0026c0.4097,-3.4016 -0.6426,-5.8896 -2.1167,-8.1139 2.0576,0.8928 3.9402,2.6028 5.2917,6.791 -1.1803,0.6849 -2.2299,1.1083 -3.175,1.3229z"/>
  <path class="fil31" style="mask:url(#id6)" d="M7.7471 37.0026c-0.4097,-3.4016 0.6426,-5.8896 2.1167,-8.1139 -2.0576,0.8928 -3.9402,2.6028 -5.2917,6.791 1.1803,0.6849 2.2299,1.1083 3.175,1.3229z"/>
 </g>
</svg>
