<?xml version="1.0" encoding="UTF-8"?>
<!DOCTYPE svg PUBLIC "-//W3C//DTD SVG 1.1//EN" "http://www.w3.org/Graphics/SVG/1.1/DTD/svg11.dtd">
<!-- Creator: CorelDRAW -->
<svg xmlns="http://www.w3.org/2000/svg" xml:space="preserve" width="50mm" height="50mm" style="shape-rendering:geometricPrecision; text-rendering:geometricPrecision; image-rendering:optimizeQuality; fill-rule:evenodd; clip-rule:evenodd"
viewBox="0 0 50 50"
 xmlns:xlink="http://www.w3.org/1999/xlink">
 <defs>
  <style type="text/css">
   <![CDATA[
    .str8 {stroke:gray;stroke-width:0.2}
    .str6 {stroke:#87B7C8;stroke-width:0.2}
    .str0 {stroke:#B3B3B3;stroke-width:0.2}
    .str4 {stroke:#D4D499;stroke-width:0.2}
    .str7 {stroke:#D5AE6C;stroke-width:0.2}
    .str3 {stroke:#B3B3B3;stroke-width:0.35}
    .str5 {stroke:#005998;stroke-width:0.75}
    .str1 {stroke:#75983E;stroke-width:0.75}
    .str2 {stroke:#CCCCCC;stroke-width:0.75}
    .fil3 {fill:none}
    .fil8 {fill:#005998}
    .fil17 {fill:#33B0E7}
    .fil9 {fill:#75983E}
    .fil26 {fill:#999191}
    .fil37 {fill:#A47E5C}
    .fil11 {fill:#CADCE1}
    .fil13 {fill:#CCCCCC}
    .fil1 {fill:#CDD0D3}
    .fil10 {fill:#D68514}
    .fil38 {fill:#E09F3D}
    .fil18 {fill:#EDC38B}
    .fil22 {fill:#EDCD9A}
    .fil19 {fill:#F5CD9A}
    .fil20 {fill:#FAE9C8}
    .fil23 {fill:#FFF6E3}
    .fil14 {fill:#666666;fill-rule:nonzero}
    .fil6 {fill:url(#id0)}
    .fil33 {fill:url(#id1)}
    .fil2 {fill:url(#id2)}
    .fil4 {fill:url(#id3)}
    .fil39 {fill:url(#id4)}
    .fil15 {fill:url(#id5)}
    .fil5 {fill:url(#id6)}
    .fil7 {fill:url(#id7)}
    .fil12 {fill:url(#id8)}
    .fil24 {fill:url(#id9)}
    .fil25 {fill:url(#id10)}
    .fil31 {fill:url(#id11)}
    .fil35 {fill:url(#id12)}
    .fil16 {fill:url(#id13)}
    .fil36 {fill:url(#id14)}
    .fil27 {fill:url(#id15)}
    .fil28 {fill:url(#id16)}
    .fil0 {fill:url(#id17)}
    .fil21 {fill:url(#id18)}
    .fil32 {fill:url(#id19)}
    .fil34 {fill:url(#id20)}
    .fil30 {fill:url(#id21)}
    .fil29 {fill:url(#id22)}
   ]]>
  </style>
  <linearGradient id="id0" gradientUnits="userSpaceOnUse" x1="39.3465" y1="23.4355" x2="41.6114" y2="23.4355">
   <stop offset="0" style="stop-color:#A5AB7C"/>
   <stop offset="1" style="stop-color:#C6C795"/>
  </linearGradient>
  <linearGradient id="id1" gradientUnits="userSpaceOnUse" x1="12.5551" y1="39.3315" x2="23.7618" y2="39.3315">
   <stop offset="0" style="stop-color:#E0B072"/>
   <stop offset="1" style="stop-color:#ECC68D"/>
  </linearGradient>
  <linearGradient id="id2" gradientUnits="userSpaceOnUse" x1="39.3187" y1="26.1063" x2="49.1288" y2="26.1063">
   <stop offset="0" style="stop-color:#B8B8B9"/>
   <stop offset="0.188235" style="stop-color:#D8D8D8"/>
   <stop offset="1" style="stop-color:#F9F8F8"/>
  </linearGradient>
  <linearGradient id="id3" gradientUnits="userSpaceOnUse" x1="37.2823" y1="15.8258" x2="45.6176" y2="15.8258">
   <stop offset="0" style="stop-color:#991600"/>
   <stop offset="1" style="stop-color:#DE3200"/>
  </linearGradient>
  <linearGradient id="id4" gradientUnits="userSpaceOnUse" x1="28.5056" y1="39.9076" x2="28.5056" y2="35.859">
   <stop offset="0" style="stop-color:#E9BA75"/>
   <stop offset="1" style="stop-color:#F7D7A1"/>
  </linearGradient>
  <linearGradient id="id5" gradientUnits="userSpaceOnUse" x1="20.9" y1="44.3832" x2="20.9" y2="33.67">
   <stop offset="0" style="stop-color:#F5CC85"/>
   <stop offset="1" style="stop-color:#F8DCAD"/>
  </linearGradient>
  <linearGradient id="id6" gradientUnits="userSpaceOnUse" x1="41.273" y1="31.0401" x2="41.273" y2="20.9219">
   <stop offset="0" style="stop-color:#6094A7"/>
   <stop offset="1" style="stop-color:#9BC9D9"/>
  </linearGradient>
  <linearGradient id="id7" gradientUnits="userSpaceOnUse" x1="24.8041" y1="43.3444" x2="24.8041" y2="5.6804">
   <stop offset="0" style="stop-color:#EBEDEE"/>
   <stop offset="1" style="stop-color:#FEFEFE"/>
  </linearGradient>
  <linearGradient id="id8" gradientUnits="userSpaceOnUse" x1="40.3455" y1="31.0083" x2="40.3455" y2="27.4128">
   <stop offset="0" style="stop-color:#9ABDCA"/>
   <stop offset="1" style="stop-color:#58876C"/>
  </linearGradient>
  <linearGradient id="id9" gradientUnits="userSpaceOnUse" x1="30.8008" y1="39.3262" x2="30.8008" y2="36.8839">
   <stop offset="0" style="stop-color:#F5CD9A"/>
   <stop offset="1" style="stop-color:#FAE9C8"/>
  </linearGradient>
  <linearGradient id="id10" gradientUnits="userSpaceOnUse" x1="8.3077" y1="42.8542" x2="8.3077" y2="33.3559">
   <stop offset="0" style="stop-color:#A1A1A1"/>
   <stop offset="1" style="stop-color:#E6E6E6"/>
  </linearGradient>
  <linearGradient id="id11" gradientUnits="userSpaceOnUse" x1="5.3995" y1="45.1623" x2="5.3995" y2="33.2475">
   <stop offset="0" style="stop-color:#0C6087"/>
   <stop offset="1" style="stop-color:#3AA5C9"/>
  </linearGradient>
  <linearGradient id="id12" gradientUnits="userSpaceOnUse" x1="10.6908" y1="42.634" x2="10.6908" y2="34.2513">
   <stop offset="0" style="stop-color:#B8732E"/>
   <stop offset="1" style="stop-color:#F1D9B1"/>
  </linearGradient>
  <linearGradient id="id13" gradientUnits="userSpaceOnUse" x1="8.6193" y1="44.1082" x2="8.6193" y2="33.3298">
   <stop offset="0" style="stop-color:#C0BABB"/>
   <stop offset="1" style="stop-color:#FEFEFE"/>
  </linearGradient>
  <linearGradient id="id14" gradientUnits="userSpaceOnUse" x1="8.6604" y1="45.1477" x2="8.6604" y2="44.085">
   <stop offset="0" style="stop-color:#013147"/>
   <stop offset="1" style="stop-color:#33B0E7"/>
  </linearGradient>
  <linearGradient id="id15" gradientUnits="userSpaceOnUse" x1="11.878" y1="41.4634" x2="11.878" y2="34.1344">
   <stop offset="0" style="stop-color:#D39F5D"/>
   <stop offset="1" style="stop-color:#F7E4C2"/>
  </linearGradient>
  <linearGradient id="id16" gradientUnits="userSpaceOnUse" x1="11.7641" y1="45.879" x2="29.7469" y2="35.2018">
   <stop offset="0" style="stop-color:#D1934B"/>
   <stop offset="0.701961" style="stop-color:#DFA75C"/>
   <stop offset="1" style="stop-color:#EDBC6D"/>
  </linearGradient>
  <linearGradient id="id17" gradientUnits="userSpaceOnUse" x1="10.3918" y1="21.1354" x2="0.6296" y2="20.5776">
   <stop offset="0" style="stop-color:#E6E6E6"/>
   <stop offset="0.278431" style="stop-color:#F2F2F2"/>
   <stop offset="1" style="stop-color:#FEFEFE"/>
  </linearGradient>
  <linearGradient id="id18" gradientUnits="userSpaceOnUse" x1="8.9355" y1="38.7623" x2="11.7319" y2="38.7623">
   <stop offset="0" style="stop-color:#545755"/>
   <stop offset="1" style="stop-color:#74818B"/>
  </linearGradient>
  <linearGradient id="id19" gradientUnits="userSpaceOnUse" x1="12.1222" y1="40.389" x2="15.4871" y2="35.5434">
   <stop offset="0" style="stop-color:#E4B05F"/>
   <stop offset="0.411765" style="stop-color:#EDC37F"/>
   <stop offset="1" style="stop-color:#F7D69F"/>
  </linearGradient>
  <linearGradient id="id20" gradientUnits="userSpaceOnUse" x1="10.1201" y1="41.6391" x2="10.1201" y2="34.4719">
   <stop offset="0" style="stop-color:#A37C5B"/>
   <stop offset="1" style="stop-color:#F7E4C2"/>
  </linearGradient>
  <linearGradient id="id21" gradientUnits="userSpaceOnUse" x1="18.0064" y1="43.375" x2="23.3997" y2="36.9378">
   <stop offset="0" style="stop-color:#987153"/>
   <stop offset="0.8" style="stop-color:#C39D72"/>
   <stop offset="1" style="stop-color:#EECA92"/>
  </linearGradient>
  <linearGradient id="id22" gradientUnits="userSpaceOnUse" x1="18.3153" y1="44.4353" x2="23.3123" y2="33.9153">
   <stop offset="0" style="stop-color:#E3AC54"/>
   <stop offset="1" style="stop-color:#EBC083"/>
  </linearGradient>
 </defs>
 <g id="Слой_x0020_1">
  <metadata id="CorelCorpID_0Corel-Layer"/>
  <polygon class="fil0 str0" points="10.242,33.2795 10.242,8.4335 0.7795,11.2003 7.0326,33.2795 "/>
  <path class="fil1" d="M10.2723 32.5279c0,-2.7347 -0.0324,-5.0804 -0.0324,-7.8152 -1.7448,1.9922 -2.1641,5.2147 0.0324,7.8152z"/>
  <polygon class="fil2 str0" points="39.3187,43.3416 39.3343,8.8533 49.1288,11.3988 40.7553,43.3593 "/>
  <path class="fil3 str1" d="M5.0562 12.8302l5.5374 -1.5671c0.3808,-0.1078 0.7803,0.1155 0.888,0.4963l1.5672 5.5375c0.1078,0.3808 -0.1155,0.7802 -0.4963,0.888l-5.5375 1.5672c-0.3807,0.1077 -0.7803,-0.1156 -0.888,-0.4964l-1.5672 -5.5374c-0.1077,-0.3808 0.1156,-0.7804 0.4964,-0.8881z"/>
  <path class="fil4 str2" d="M39.3315 11.7356l5.6441 1.1258c0.3879,0.0774 0.642,0.4581 0.5646,0.846l-1.1258 5.6441c-0.0773,0.3879 -0.4581,0.642 -0.846,0.5646l-5.644 -1.1258c-0.388,-0.0774 -0.6421,-0.4581 -0.5647,-0.846l1.1258 -5.644c0.0774,-0.388 0.4581,-0.6421 0.846,-0.5647z"/>
  <path class="fil3 str3" d="M38.5493 17.5933c1.7021,0.624 4.3785,-3.2465 3.3911,-4.2639 -1.4876,0.3822 -0.2976,5.2958 1.7027,4.593 0.1941,-1.3362 -4.5681,-1.7636 -5.0938,-0.3291z"/>
  <polygon class="fil5" points="39.4434,30.7855 39.4434,20.9218 43.1026,21.59 40.589,31.0401 "/>
  <path class="fil6 str4" d="M39.3466 25.281l-0.0001 -3.691c1.5141,0.3505 2.2649,2.8116 0.0001,3.691z"/>
  <polygon class="fil7 str0" points="10.2408,5.6804 39.3675,5.6804 39.3675,43.3445 10.2408,43.3445 "/>
  <path class="fil3 str5" d="M14.7834 10.2395l5.755 0c0.3957,0 0.7193,0.3236 0.7193,0.7193l0 5.755c0,0.3957 -0.3236,0.7193 -0.7193,0.7193l-5.755 0c-0.3957,0 -0.7193,-0.3236 -0.7193,-0.7193l0 -5.755c0,-0.3957 0.3236,-0.7193 0.7193,-0.7193z"/>
  <polygon class="fil8" points="17.3305,11.901 18.518,11.9074 18.518,14.0449 19.3478,12.5602 18.9684,12.5602 18.9684,11.9074 20.7975,11.9074 20.7975,12.5525 20.4685,12.5525 18.4877,16.2836 17.2988,16.2836 17.2988,14.5356 16.287,16.2583 14.9666,16.2583 14.9666,12.5525 14.6756,12.5525 14.6756,11.9327 16.3579,11.9327 16.3579,12.5195 16.0164,12.5195 16.0164,14.2599 "/>
  <polygon class="fil9" points="7.7954,15.9871 5.8679,14.394 7.8793,13.8878 8.5428,14.512 8.8967,13.627 10.1359,13.2729 10.1359,14.571 9.7622,15.4561 10.1555,15.7904 10.1555,17.7966 8.9916,16.8665 8.6805,17.6785 6.7726,18.1702 "/>
  <path class="fil10" d="M10.2105 31.3176c0,-1.8516 -0.0219,-3.7031 -0.0219,-5.5546 -0.9728,1.2965 -1.2052,3.7292 0.0219,5.5546z"/>
  <path class="fil11" d="M43.1102 21.6186c-0.4455,-0.0955 -1.088,-0.1909 -1.5335,-0.2863 0.5489,0.4304 1.2102,1.344 0.635,2.8667 -0.4647,1.5906 -1.1686,2.3444 -2.4819,1.8137 0.6594,0.2717 1.4207,0.5834 1.7335,1.7214 0.594,-2.0365 1.1165,-3.9838 1.6469,-6.1155z"/>
  <path class="fil12" d="M40.589 31.0083c0.2227,-0.8909 0.4454,-1.7819 0.6681,-2.6728 -0.6046,-0.6677 -1.2092,-0.7753 -1.8137,-0.9227 0.0106,0.1803 0.0213,0.3606 0.0319,0.5409 0.868,0.2272 1.4231,0.5678 1.5273,1.3046 -0.2761,0.0103 -0.5181,0.2088 -0.5051,0.5091 -0.006,0.2177 0.0352,0.423 0.1828,0.6517 -0.3912,0.2862 -0.7388,0.1512 -1.1493,0.1524 -0.0971,0.0002 -0.0544,0.1971 0.0246,0.2178 0.4458,0.0924 0.6907,0.1039 1.0334,0.219z"/>
  <polyline class="fil3 str6" points="39.4556,20.8805 43.0617,21.6442 40.6011,31.1048 39.4132,30.8078 "/>
  <path class="fil13" d="M24.5802 40.9825c-2.333,1.0172 -6.059,-1.3475 -9.0915,-0.9438 2.8552,-0.4359 7.169,1.8897 9.1028,0.9041 0.3557,-1.357 1.2579,-3.1781 0.3934,-3.8666 -2.2845,-0.8607 -3.2727,-0.6619 -5.1393,-1.0016 -1.8899,-1.1376 -4.3949,-3.008 -7.6963,-2.6662 -1.514,0.0667 -1.9958,2.5238 -1.9673,5.1023 0.0118,1.6968 0.4206,3.955 1.2649,4.261 0.4603,-0.1027 1.495,0.1292 2.6568,0.4747l11.0933 0.0314c2.3462,-1.5377 5.3282,-3.6781 7.7569,-5.4804 -0.7308,-1.8042 -2.9958,-3.0389 -4.9098,-1.7359 -0.944,0.6367 -1.7459,1.097 -2.6899,1.7336 -0.0474,1.2125 -0.2723,2.7368 -0.774,3.1874z"/>
  <g id="_251475112">
   <path id="_77869608" class="fil14" d="M15.4773 23.4507c-0.0533,0.0452 -0.1045,0.077 -0.1534,0.0958 -0.0493,0.0185 -0.1021,0.0277 -0.1584,0.0277 -0.0931,0 -0.1644,-0.0225 -0.2144,-0.068 -0.0498,-0.0454 -0.0749,-0.1036 -0.0749,-0.1741 0,-0.0417 0.0093,-0.0795 0.0283,-0.1138 0.0188,-0.0342 0.0436,-0.0617 0.0741,-0.0824 0.0307,-0.0207 0.065,-0.0365 0.1034,-0.0471 0.028,-0.0073 0.0704,-0.0147 0.1273,-0.0215 0.1159,-0.0139 0.2014,-0.0302 0.256,-0.0495 0.0006,-0.0196 0.0009,-0.0321 0.0009,-0.0373 0,-0.0585 -0.0136,-0.0998 -0.0409,-0.1235 -0.0364,-0.0327 -0.0911,-0.0487 -0.1632,-0.0487 -0.0675,0 -0.1173,0.0117 -0.1497,0.0354 -0.0321,0.0236 -0.0558,0.0655 -0.0713,0.1257l-0.1401 -0.0194c0.0128,-0.0598 0.0337,-0.1085 0.0629,-0.1453 0.0291,-0.037 0.0715,-0.0655 0.1268,-0.0854 0.0552,-0.0199 0.1191,-0.0299 0.1921,-0.0299 0.0723,0 0.1308,0.0087 0.176,0.0256 0.0452,0.0171 0.0784,0.0383 0.0999,0.0642 0.0212,0.0258 0.0359,0.0582 0.0446,0.0977 0.0046,0.0244 0.0071,0.0685 0.0071,0.1322l0 0.1913c0,0.1336 0.003,0.2179 0.0092,0.253 0.006,0.0354 0.0183,0.0694 0.0362,0.1018l-0.1499 0c-0.0147,-0.0297 -0.0245,-0.0645 -0.0286,-0.1045zm-0.012 -0.3205c-0.0522,0.0215 -0.1303,0.0394 -0.2342,0.0544 -0.0591,0.0084 -0.101,0.018 -0.1252,0.0286 -0.0245,0.0106 -0.0435,0.0261 -0.0566,0.0468 -0.0133,0.0204 -0.0201,0.043 -0.0201,0.068 0,0.0384 0.0147,0.0702 0.0435,0.0958 0.0288,0.0253 0.0713,0.0381 0.1271,0.0381 0.0552,0 0.1045,-0.012 0.1475,-0.0362 0.0429,-0.0242 0.0748,-0.0574 0.0949,-0.0993 0.0155,-0.0324 0.0231,-0.0803 0.0231,-0.1434l0 -0.0528zm0.3677 0.425l0 -0.8465 0.1289 0 0 0.1203c0.0623,-0.0931 0.1521,-0.1396 0.2694,-0.1396 0.0512,0 0.098,0.0092 0.1407,0.0275 0.043,0.0185 0.0748,0.0424 0.096,0.0723 0.0215,0.0297 0.0362,0.0651 0.0449,0.1059 0.0052,0.0267 0.0079,0.0732 0.0079,0.1396l0 0.5205 -0.1436 0 0 -0.5151c0,-0.0582 -0.0055,-0.102 -0.0166,-0.1311 -0.0112,-0.0289 -0.0311,-0.052 -0.0594,-0.0692 -0.0285,-0.0174 -0.0617,-0.0261 -0.1001,-0.0261 -0.0612,0 -0.1137,0.0196 -0.1584,0.0583 -0.0443,0.0389 -0.0664,0.1123 -0.0664,0.2209l0 0.4623 -0.1433 0zm1.457 0l0 -0.1069c-0.0536,0.084 -0.1325,0.1259 -0.2367,0.1259 -0.0675,0 -0.1295,-0.0185 -0.1861,-0.0557 -0.0566,-0.037 -0.1004,-0.089 -0.1317,-0.1559 -0.031,-0.0667 -0.0465,-0.1432 -0.0465,-0.23 0,-0.0843 0.0141,-0.1611 0.0422,-0.2299 0.0283,-0.0688 0.0704,-0.1216 0.1268,-0.1581 0.0563,-0.0367 0.1194,-0.0552 0.1891,-0.0552 0.0508,0 0.0963,0.0109 0.136,0.0324 0.04,0.0215 0.0724,0.0495 0.0974,0.084l0 -0.4193 0.1426 0 0 1.1687 -0.1331 0zm-0.4535 -0.4226c0,0.1086 0.0228,0.1897 0.0685,0.2433 0.0457,0.0536 0.0996,0.0805 0.1619,0.0805 0.0626,0 0.1159,-0.0258 0.1598,-0.077 0.0438,-0.0511 0.0658,-0.1295 0.0658,-0.2348 0,-0.1159 -0.0223,-0.2008 -0.0669,-0.255 -0.0447,-0.0544 -0.0996,-0.0813 -0.1652,-0.0813 -0.0637,0 -0.117,0.0261 -0.1597,0.0781 -0.0427,0.0519 -0.0642,0.1341 -0.0642,0.2462zm1.2086 0.1698l0.1418 -0.0223c0.0079,0.0569 0.0302,0.1004 0.0667,0.1309 0.0362,0.0302 0.087,0.0454 0.1526,0.0454 0.0659,0 0.1148,-0.0136 0.1467,-0.0402 0.0318,-0.027 0.0479,-0.0585 0.0479,-0.0945 0,-0.0326 -0.0142,-0.0579 -0.0425,-0.0767 -0.0196,-0.0128 -0.0686,-0.0288 -0.1466,-0.0484 -0.1051,-0.0267 -0.1783,-0.0495 -0.2188,-0.0691 -0.0406,-0.0194 -0.0716,-0.0463 -0.0925,-0.0806 -0.021,-0.0343 -0.0316,-0.0721 -0.0316,-0.1134 0,-0.0379 0.0087,-0.0727 0.0261,-0.1048 0.0172,-0.0324 0.0408,-0.0591 0.0705,-0.0803 0.0223,-0.0163 0.0528,-0.0305 0.0912,-0.0419 0.0386,-0.0114 0.08,-0.0171 0.124,-0.0171 0.0664,0 0.1247,0.0098 0.175,0.0288 0.0503,0.0191 0.0873,0.0449 0.1113,0.0776 0.0239,0.0329 0.0403,0.0764 0.0492,0.1311l-0.1401 0.0193c-0.0065,-0.0435 -0.025,-0.0775 -0.0555,-0.102 -0.0305,-0.0245 -0.0737,-0.0367 -0.1295,-0.0367 -0.0659,0 -0.1129,0.0109 -0.141,0.0326 -0.0283,0.0218 -0.0424,0.0474 -0.0424,0.0765 0,0.0188 0.006,0.0354 0.0177,0.0503 0.0117,0.0155 0.0299,0.028 0.0549,0.0384 0.0145,0.0052 0.0566,0.0174 0.1268,0.0364 0.1015,0.0273 0.1723,0.0493 0.2123,0.0667 0.0402,0.0172 0.0718,0.0425 0.0947,0.0754 0.0228,0.0329 0.0342,0.0737 0.0342,0.1227 0,0.0479 -0.0141,0.0928 -0.0419,0.1352 -0.028,0.0422 -0.0683,0.0749 -0.1208,0.098 -0.0525,0.0231 -0.1121,0.0345 -0.1785,0.0345 -0.1102,0 -0.194,-0.0228 -0.2517,-0.0685 -0.0576,-0.0457 -0.0944,-0.1135 -0.1102,-0.2033zm0.8738 0.2528l0 -1.1687 0.1433 0 0 0.4193c0.067,-0.0775 0.1516,-0.1164 0.2536,-0.1164 0.0626,0 0.117,0.0125 0.1633,0.0373 0.0463,0.0244 0.0795,0.0587 0.0993,0.1023 0.0199,0.0435 0.03,0.1069 0.03,0.1896l0 0.5366 -0.1437 0 0 -0.5366c0,-0.0715 -0.0155,-0.1238 -0.0465,-0.1564 -0.0311,-0.0327 -0.0751,-0.0493 -0.132,-0.0493 -0.0425,0 -0.0825,0.0112 -0.12,0.0332 -0.0376,0.022 -0.0642,0.052 -0.08,0.0898 -0.0161,0.0376 -0.024,0.0898 -0.024,0.1562l0 0.4631 -0.1433 0zm1.4603 -0.1045c-0.0533,0.0452 -0.1045,0.077 -0.1534,0.0958 -0.0493,0.0185 -0.1021,0.0277 -0.1584,0.0277 -0.0931,0 -0.1644,-0.0225 -0.2144,-0.068 -0.0498,-0.0454 -0.0749,-0.1036 -0.0749,-0.1741 0,-0.0417 0.0093,-0.0795 0.0283,-0.1138 0.0188,-0.0342 0.0436,-0.0617 0.0741,-0.0824 0.0307,-0.0207 0.065,-0.0365 0.1034,-0.0471 0.028,-0.0073 0.0704,-0.0147 0.1273,-0.0215 0.1159,-0.0139 0.2014,-0.0302 0.256,-0.0495 0.0006,-0.0196 0.0009,-0.0321 0.0009,-0.0373 0,-0.0585 -0.0136,-0.0998 -0.0409,-0.1235 -0.0364,-0.0327 -0.0911,-0.0487 -0.1632,-0.0487 -0.0675,0 -0.1173,0.0117 -0.1497,0.0354 -0.0321,0.0236 -0.0558,0.0655 -0.0713,0.1257l-0.1401 -0.0194c0.0128,-0.0598 0.0337,-0.1085 0.0629,-0.1453 0.0291,-0.037 0.0715,-0.0655 0.1268,-0.0854 0.0552,-0.0199 0.1191,-0.0299 0.1921,-0.0299 0.0723,0 0.1308,0.0087 0.176,0.0256 0.0452,0.0171 0.0784,0.0383 0.0999,0.0642 0.0212,0.0258 0.0359,0.0582 0.0446,0.0977 0.0046,0.0244 0.0071,0.0685 0.0071,0.1322l0 0.1913c0,0.1336 0.003,0.2179 0.0092,0.253 0.006,0.0354 0.0183,0.0694 0.0362,0.1018l-0.1499 0c-0.0147,-0.0297 -0.0245,-0.0645 -0.0286,-0.1045zm-0.012 -0.3205c-0.0522,0.0215 -0.1303,0.0394 -0.2342,0.0544 -0.0591,0.0084 -0.101,0.018 -0.1252,0.0286 -0.0245,0.0106 -0.0435,0.0261 -0.0566,0.0468 -0.0133,0.0204 -0.0201,0.043 -0.0201,0.068 0,0.0384 0.0147,0.0702 0.0435,0.0958 0.0288,0.0253 0.0713,0.0381 0.1271,0.0381 0.0552,0 0.1045,-0.012 0.1475,-0.0362 0.0429,-0.0242 0.0748,-0.0574 0.0949,-0.0993 0.0155,-0.0324 0.0231,-0.0803 0.0231,-0.1434l0 -0.0528zm0.366 0.425l0 -0.8465 0.129 0 0 0.1282c0.0329,-0.0599 0.0634,-0.0996 0.0914,-0.1187 0.0278,-0.019 0.0585,-0.0288 0.092,-0.0288 0.0484,0 0.0974,0.0155 0.1475,0.0462l-0.0496 0.1334c-0.0348,-0.021 -0.0699,-0.0313 -0.105,-0.0313 -0.0315,0 -0.0596,0.0095 -0.0846,0.0283 -0.025,0.019 -0.0427,0.0451 -0.0533,0.0786 -0.0161,0.0509 -0.024,0.1067 -0.024,0.1673l0 0.4433 -0.1434 0zm1.1247 -0.2726l0.1482 0.0182c-0.0234,0.0868 -0.0666,0.154 -0.1297,0.2019 -0.0634,0.0476 -0.1443,0.0715 -0.2425,0.0715 -0.1238,0 -0.222,-0.038 -0.2944,-0.1142 -0.0726,-0.0762 -0.1088,-0.1832 -0.1088,-0.3208 0,-0.1426 0.0367,-0.2531 0.1099,-0.3317 0.0735,-0.0787 0.1684,-0.1181 0.2854,-0.1181 0.1132,0 0.2057,0.0386 0.2773,0.1156 0.0718,0.077 0.1077,0.1856 0.1077,0.3252 0,0.0087 -0.0002,0.0215 -0.0008,0.0383l-0.6312 0c0.0051,0.0931 0.0315,0.1644 0.0789,0.2136 0.0473,0.0496 0.1061,0.0743 0.1768,0.0743 0.0525,0 0.0974,-0.0138 0.1347,-0.0416 0.0373,-0.0275 0.0667,-0.0716 0.0885,-0.1322zm-0.4711 -0.2321l0.4727 0c-0.0063,-0.0711 -0.0245,-0.1247 -0.0542,-0.16 -0.0457,-0.0553 -0.105,-0.083 -0.1776,-0.083 -0.0659,0 -0.1214,0.022 -0.1663,0.0661 -0.0449,0.0441 -0.0697,0.1031 -0.0746,0.1769zm1.8024 0.5047l0 -0.1069c-0.0536,0.084 -0.1325,0.1259 -0.2367,0.1259 -0.0675,0 -0.1295,-0.0185 -0.1861,-0.0557 -0.0566,-0.037 -0.1004,-0.089 -0.1317,-0.1559 -0.031,-0.0667 -0.0465,-0.1432 -0.0465,-0.23 0,-0.0843 0.0141,-0.1611 0.0422,-0.2299 0.0283,-0.0688 0.0704,-0.1216 0.1268,-0.1581 0.0563,-0.0367 0.1194,-0.0552 0.1891,-0.0552 0.0508,0 0.0963,0.0109 0.136,0.0324 0.04,0.0215 0.0724,0.0495 0.0974,0.084l0 -0.4193 0.1426 0 0 1.1687 -0.1331 0zm-0.4535 -0.4226c0,0.1086 0.0228,0.1897 0.0685,0.2433 0.0457,0.0536 0.0996,0.0805 0.1619,0.0805 0.0626,0 0.1159,-0.0258 0.1598,-0.077 0.0438,-0.0511 0.0658,-0.1295 0.0658,-0.2348 0,-0.1159 -0.0223,-0.2008 -0.0669,-0.255 -0.0447,-0.0544 -0.0996,-0.0813 -0.1652,-0.0813 -0.0637,0 -0.117,0.0261 -0.1597,0.0781 -0.0427,0.0519 -0.0642,0.1341 -0.0642,0.2462zm1.3648 0.3181c-0.0533,0.0452 -0.1045,0.077 -0.1534,0.0958 -0.0493,0.0185 -0.1021,0.0277 -0.1584,0.0277 -0.0931,0 -0.1644,-0.0225 -0.2144,-0.068 -0.0498,-0.0454 -0.0749,-0.1036 -0.0749,-0.1741 0,-0.0417 0.0093,-0.0795 0.0283,-0.1138 0.0188,-0.0342 0.0436,-0.0617 0.0741,-0.0824 0.0307,-0.0207 0.065,-0.0365 0.1034,-0.0471 0.028,-0.0073 0.0704,-0.0147 0.1273,-0.0215 0.1159,-0.0139 0.2014,-0.0302 0.256,-0.0495 0.0006,-0.0196 0.0009,-0.0321 0.0009,-0.0373 0,-0.0585 -0.0136,-0.0998 -0.0409,-0.1235 -0.0364,-0.0327 -0.0911,-0.0487 -0.1632,-0.0487 -0.0675,0 -0.1173,0.0117 -0.1497,0.0354 -0.0321,0.0236 -0.0558,0.0655 -0.0713,0.1257l-0.1401 -0.0194c0.0128,-0.0598 0.0337,-0.1085 0.0629,-0.1453 0.0291,-0.037 0.0715,-0.0655 0.1268,-0.0854 0.0552,-0.0199 0.1191,-0.0299 0.1921,-0.0299 0.0723,0 0.1308,0.0087 0.176,0.0256 0.0452,0.0171 0.0784,0.0383 0.0999,0.0642 0.0212,0.0258 0.0359,0.0582 0.0446,0.0977 0.0046,0.0244 0.0071,0.0685 0.0071,0.1322l0 0.1913c0,0.1336 0.003,0.2179 0.0092,0.253 0.006,0.0354 0.0183,0.0694 0.0362,0.1018l-0.1499 0c-0.0147,-0.0297 -0.0245,-0.0645 -0.0286,-0.1045zm-0.012 -0.3205c-0.0522,0.0215 -0.1303,0.0394 -0.2342,0.0544 -0.0591,0.0084 -0.101,0.018 -0.1252,0.0286 -0.0245,0.0106 -0.0435,0.0261 -0.0566,0.0468 -0.0133,0.0204 -0.0201,0.043 -0.0201,0.068 0,0.0384 0.0147,0.0702 0.0435,0.0958 0.0288,0.0253 0.0713,0.0381 0.1271,0.0381 0.0552,0 0.1045,-0.012 0.1475,-0.0362 0.0429,-0.0242 0.0748,-0.0574 0.0949,-0.0993 0.0155,-0.0324 0.0231,-0.0803 0.0231,-0.1434l0 -0.0528zm0.6808 0.2966l0.0207 0.1268c-0.0403,0.0084 -0.0764,0.0128 -0.1083,0.0128 -0.0522,0 -0.0925,-0.0082 -0.1213,-0.0248 -0.0286,-0.0163 -0.0487,-0.0381 -0.0604,-0.065 -0.0117,-0.0267 -0.0177,-0.0833 -0.0177,-0.1693l0 -0.487 -0.1053 0 0 -0.1116 0.1053 0 0 -0.2098 0.1428 -0.086 0 0.2958 0.1442 0 0 0.1116 -0.1442 0 0 0.4949c0,0.0411 0.0025,0.0672 0.0074,0.0789 0.0051,0.0117 0.0133,0.021 0.0247,0.028 0.0115,0.0068 0.0278,0.0104 0.049,0.0104 0.0161,0 0.037,-0.0019 0.0631,-0.0057zm0.6928 0.0239c-0.0533,0.0452 -0.1045,0.077 -0.1534,0.0958 -0.0493,0.0185 -0.1021,0.0277 -0.1584,0.0277 -0.0931,0 -0.1644,-0.0225 -0.2144,-0.068 -0.0498,-0.0454 -0.0749,-0.1036 -0.0749,-0.1741 0,-0.0417 0.0093,-0.0795 0.0283,-0.1138 0.0188,-0.0342 0.0436,-0.0617 0.0741,-0.0824 0.0307,-0.0207 0.065,-0.0365 0.1034,-0.0471 0.028,-0.0073 0.0704,-0.0147 0.1273,-0.0215 0.1159,-0.0139 0.2014,-0.0302 0.256,-0.0495 0.0006,-0.0196 0.0009,-0.0321 0.0009,-0.0373 0,-0.0585 -0.0136,-0.0998 -0.0409,-0.1235 -0.0364,-0.0327 -0.0911,-0.0487 -0.1632,-0.0487 -0.0675,0 -0.1173,0.0117 -0.1497,0.0354 -0.0321,0.0236 -0.0558,0.0655 -0.0713,0.1257l-0.1401 -0.0194c0.0128,-0.0598 0.0337,-0.1085 0.0629,-0.1453 0.0291,-0.037 0.0715,-0.0655 0.1268,-0.0854 0.0552,-0.0199 0.1191,-0.0299 0.1921,-0.0299 0.0723,0 0.1308,0.0087 0.176,0.0256 0.0452,0.0171 0.0784,0.0383 0.0999,0.0642 0.0212,0.0258 0.0359,0.0582 0.0446,0.0977 0.0046,0.0244 0.0071,0.0685 0.0071,0.1322l0 0.1913c0,0.1336 0.003,0.2179 0.0092,0.253 0.006,0.0354 0.0183,0.0694 0.0362,0.1018l-0.1499 0c-0.0147,-0.0297 -0.0245,-0.0645 -0.0286,-0.1045zm-0.012 -0.3205c-0.0522,0.0215 -0.1303,0.0394 -0.2342,0.0544 -0.0591,0.0084 -0.101,0.018 -0.1252,0.0286 -0.0245,0.0106 -0.0435,0.0261 -0.0566,0.0468 -0.0133,0.0204 -0.0201,0.043 -0.0201,0.068 0,0.0384 0.0147,0.0702 0.0435,0.0958 0.0288,0.0253 0.0713,0.0381 0.1271,0.0381 0.0552,0 0.1045,-0.012 0.1475,-0.0362 0.0429,-0.0242 0.0748,-0.0574 0.0949,-0.0993 0.0155,-0.0324 0.0231,-0.0803 0.0231,-0.1434l0 -0.0528zm0.9774 0.425l-0.259 -0.8465 0.1483 0 0.1347 0.4887 0.05 0.1818c0.0022,-0.0093 0.0169,-0.0675 0.0439,-0.1747l0.1346 -0.4958 0.1475 0 0.1268 0.4909 0.0425 0.1619 0.0484 -0.1636 0.145 -0.4892 0.1396 0 -0.2647 0.8465 -0.1489 0 -0.1347 -0.5069 -0.0329 -0.1445 -0.1711 0.6514 -0.15 0zm1.0234 -1.0035l0 -0.1652 0.1437 0 0 0.1652 -0.1437 0zm0 1.0035l0 -0.8465 0.1437 0 0 0.8465 -0.1437 0zm0.6753 -0.1284l0.0207 0.1268c-0.0403,0.0084 -0.0764,0.0128 -0.1083,0.0128 -0.0522,0 -0.0925,-0.0082 -0.1213,-0.0248 -0.0286,-0.0163 -0.0487,-0.0381 -0.0604,-0.065 -0.0117,-0.0267 -0.0177,-0.0833 -0.0177,-0.1693l0 -0.487 -0.1053 0 0 -0.1116 0.1053 0 0 -0.2098 0.1428 -0.086 0 0.2958 0.1442 0 0 0.1116 -0.1442 0 0 0.4949c0,0.0411 0.0025,0.0672 0.0074,0.0789 0.0051,0.0117 0.0133,0.021 0.0247,0.028 0.0115,0.0068 0.0278,0.0104 0.049,0.0104 0.0161,0 0.037,-0.0019 0.0631,-0.0057zm0.1405 0.1284l0 -1.1687 0.1433 0 0 0.4193c0.067,-0.0775 0.1516,-0.1164 0.2536,-0.1164 0.0626,0 0.117,0.0125 0.1633,0.0373 0.0463,0.0244 0.0795,0.0587 0.0993,0.1023 0.0199,0.0435 0.03,0.1069 0.03,0.1896l0 0.5366 -0.1437 0 0 -0.5366c0,-0.0715 -0.0155,-0.1238 -0.0465,-0.1564 -0.0311,-0.0327 -0.0751,-0.0493 -0.132,-0.0493 -0.0425,0 -0.0825,0.0112 -0.12,0.0332 -0.0376,0.022 -0.0642,0.052 -0.08,0.0898 -0.0161,0.0376 -0.024,0.0898 -0.024,0.1562l0 0.4631 -0.1433 0zm1.355 0.326l-0.016 -0.1347c0.0315,0.0084 0.0587,0.0128 0.0821,0.0128 0.0319,0 0.0575,-0.0055 0.0765,-0.0161 0.0193,-0.0106 0.0348,-0.0253 0.0471,-0.0446 0.0092,-0.0142 0.0236,-0.0498 0.0438,-0.1067 0.0027,-0.0081 0.0071,-0.0196 0.0128,-0.0351l-0.3211 -0.8481 0.1545 0 0.1764 0.49c0.0226,0.0624 0.0432,0.1277 0.0612,0.1962 0.0166,-0.0658 0.0362,-0.13 0.059,-0.1929l0.181 -0.4933 0.1434 0 -0.3219 0.8609c-0.0346,0.0931 -0.0615,0.157 -0.0806,0.1921 -0.0255,0.0474 -0.0546,0.0819 -0.0876,0.104 -0.0332,0.022 -0.0724,0.0332 -0.1181,0.0332 -0.0277,0 -0.0585,-0.006 -0.0925,-0.0177zm0.7692 -0.7494c0,-0.1567 0.0436,-0.2729 0.1309,-0.3483 0.0727,-0.0626 0.1614,-0.0941 0.2661,-0.0941 0.1165,0 0.2117,0.0381 0.2855,0.1145 0.074,0.0762 0.1107,0.1815 0.1107,0.3159 0,0.1092 -0.0163,0.1949 -0.049,0.2572 -0.0326,0.0626 -0.0802,0.111 -0.1425,0.1455 -0.0626,0.0346 -0.1306,0.0517 -0.2047,0.0517 -0.1183,0 -0.2141,-0.0378 -0.2873,-0.114 -0.0732,-0.0759 -0.1097,-0.1853 -0.1097,-0.3284zm0.1475 0c0,0.1086 0.0237,0.1897 0.071,0.2435 0.0474,0.0542 0.107,0.0811 0.1785,0.0811 0.0713,0 0.1306,-0.0272 0.178,-0.0813 0.0471,-0.0542 0.0707,-0.1369 0.0707,-0.2479 0,-0.1048 -0.0236,-0.1842 -0.0712,-0.2381 -0.0477,-0.0539 -0.1067,-0.0808 -0.1775,-0.0808 -0.0715,0 -0.1311,0.0269 -0.1785,0.0805 -0.0473,0.0536 -0.071,0.1347 -0.071,0.243zm1.369 0.4234l0 -0.1243c-0.0662,0.0957 -0.1557,0.1433 -0.2689,0.1433 -0.0498,0 -0.0966,-0.0095 -0.1398,-0.0285 -0.0433,-0.0191 -0.0754,-0.0433 -0.0964,-0.0721 -0.0212,-0.0291 -0.0359,-0.0645 -0.0443,-0.1064 -0.0057,-0.0283 -0.0087,-0.0729 -0.0087,-0.1342l0 -0.5243 0.1434 0 0 0.4694c0,0.0751 0.003,0.1254 0.0087,0.1515 0.0092,0.0379 0.0283,0.0672 0.0574,0.089 0.0294,0.0215 0.0656,0.0321 0.1086,0.0321 0.043,0 0.0832,-0.0109 0.1211,-0.0329 0.0378,-0.0221 0.0644,-0.0523 0.08,-0.0901 0.0157,-0.0381 0.0236,-0.0933 0.0236,-0.1654l0 -0.4536 0.1434 0 0 0.8465 -0.1281 0zm0.3515 0l0 -0.8465 0.129 0 0 0.1282c0.0329,-0.0599 0.0634,-0.0996 0.0914,-0.1187 0.0278,-0.019 0.0585,-0.0288 0.092,-0.0288 0.0484,0 0.0974,0.0155 0.1475,0.0462l-0.0496 0.1334c-0.0348,-0.021 -0.0699,-0.0313 -0.105,-0.0313 -0.0315,0 -0.0596,0.0095 -0.0846,0.0283 -0.025,0.019 -0.0427,0.0451 -0.0533,0.0786 -0.0161,0.0509 -0.024,0.1067 -0.024,0.1673l0 0.4433 -0.1434 0zm-16.7816 3.9543l0.141 0.0185c-0.0153,0.0971 -0.0547,0.1733 -0.1184,0.2283 -0.0634,0.055 -0.1415,0.0824 -0.234,0.0824 -0.1156,0 -0.209,-0.0378 -0.2792,-0.1134 -0.0705,-0.0757 -0.1058,-0.1842 -0.1058,-0.3257 0,-0.0914 0.0152,-0.1714 0.0454,-0.24 0.0305,-0.0686 0.0765,-0.12 0.1385,-0.1543 0.0618,-0.0343 0.1293,-0.0514 0.2019,-0.0514 0.092,0 0.1674,0.0234 0.2256,0.0699 0.0585,0.0465 0.096,0.1124 0.1126,0.1981l-0.1396 0.0215c-0.0133,-0.0569 -0.0367,-0.0996 -0.0704,-0.1284 -0.0338,-0.0286 -0.0746,-0.043 -0.1225,-0.043 -0.0724,0 -0.1311,0.0258 -0.1763,0.0778 -0.0452,0.0517 -0.0678,0.1336 -0.0678,0.2457 0,0.1137 0.0218,0.1965 0.0656,0.2482 0.0436,0.0514 0.1004,0.0772 0.1706,0.0772 0.0564,0 0.1032,-0.0174 0.141,-0.0519 0.0378,-0.0346 0.0617,-0.0877 0.0718,-0.1595zm0.2103 -0.1132c0,-0.1567 0.0436,-0.2729 0.1309,-0.3483 0.0727,-0.0626 0.1614,-0.0941 0.2661,-0.0941 0.1165,0 0.2117,0.0381 0.2855,0.1145 0.074,0.0762 0.1107,0.1815 0.1107,0.3159 0,0.1092 -0.0163,0.1949 -0.049,0.2572 -0.0326,0.0626 -0.0802,0.111 -0.1425,0.1455 -0.0626,0.0346 -0.1306,0.0517 -0.2047,0.0517 -0.1183,0 -0.2141,-0.0378 -0.2873,-0.114 -0.0732,-0.0759 -0.1097,-0.1853 -0.1097,-0.3284zm0.1475 0c0,0.1086 0.0237,0.1897 0.071,0.2435 0.0474,0.0542 0.107,0.0811 0.1785,0.0811 0.0713,0 0.1306,-0.0272 0.178,-0.0813 0.0471,-0.0542 0.0707,-0.1369 0.0707,-0.2479 0,-0.1048 -0.0236,-0.1842 -0.0712,-0.2381 -0.0477,-0.0539 -0.1067,-0.0808 -0.1775,-0.0808 -0.0715,0 -0.1311,0.0269 -0.1785,0.0805 -0.0473,0.0536 -0.071,0.1347 -0.071,0.243zm0.8109 0.4234l0 -1.1687 0.1434 0 0 1.1687 -0.1434 0zm0.3627 0l0 -1.1687 0.1434 0 0 1.1687 -0.1434 0zm0.9453 -0.2726l0.1482 0.0182c-0.0234,0.0868 -0.0666,0.154 -0.1297,0.2019 -0.0634,0.0476 -0.1443,0.0715 -0.2425,0.0715 -0.1238,0 -0.222,-0.038 -0.2944,-0.1142 -0.0726,-0.0762 -0.1088,-0.1832 -0.1088,-0.3208 0,-0.1426 0.0367,-0.2531 0.1099,-0.3317 0.0735,-0.0787 0.1684,-0.1181 0.2854,-0.1181 0.1132,0 0.2057,0.0386 0.2773,0.1156 0.0718,0.077 0.1077,0.1856 0.1077,0.3252 0,0.0087 -0.0002,0.0215 -0.0008,0.0383l-0.6312 0c0.0051,0.0931 0.0315,0.1644 0.0789,0.2136 0.0473,0.0496 0.1061,0.0743 0.1768,0.0743 0.0525,0 0.0974,-0.0138 0.1347,-0.0416 0.0373,-0.0275 0.0667,-0.0716 0.0885,-0.1322zm-0.4711 -0.2321l0.4727 0c-0.0063,-0.0711 -0.0245,-0.1247 -0.0542,-0.16 -0.0457,-0.0553 -0.105,-0.083 -0.1776,-0.083 -0.0659,0 -0.1214,0.022 -0.1663,0.0661 -0.0449,0.0441 -0.0697,0.1031 -0.0746,0.1769zm1.3521 0.4002c-0.0533,0.0452 -0.1045,0.077 -0.1534,0.0958 -0.0493,0.0185 -0.1021,0.0277 -0.1584,0.0277 -0.0931,0 -0.1644,-0.0225 -0.2144,-0.068 -0.0498,-0.0454 -0.0749,-0.1036 -0.0749,-0.1741 0,-0.0417 0.0093,-0.0795 0.0283,-0.1138 0.0188,-0.0342 0.0436,-0.0617 0.0741,-0.0824 0.0307,-0.0207 0.065,-0.0365 0.1034,-0.0471 0.028,-0.0073 0.0704,-0.0147 0.1273,-0.0215 0.1159,-0.0139 0.2014,-0.0302 0.256,-0.0495 0.0006,-0.0196 0.0009,-0.0321 0.0009,-0.0373 0,-0.0585 -0.0136,-0.0998 -0.0409,-0.1235 -0.0364,-0.0327 -0.0911,-0.0487 -0.1632,-0.0487 -0.0675,0 -0.1173,0.0117 -0.1497,0.0354 -0.0321,0.0236 -0.0558,0.0655 -0.0713,0.1257l-0.1401 -0.0194c0.0128,-0.0598 0.0337,-0.1085 0.0629,-0.1453 0.0291,-0.037 0.0715,-0.0655 0.1268,-0.0854 0.0552,-0.0199 0.1191,-0.0299 0.1921,-0.0299 0.0723,0 0.1308,0.0087 0.176,0.0256 0.0452,0.0171 0.0784,0.0383 0.0999,0.0642 0.0212,0.0258 0.0359,0.0582 0.0446,0.0977 0.0046,0.0244 0.0071,0.0685 0.0071,0.1322l0 0.1913c0,0.1336 0.003,0.2179 0.0092,0.253 0.006,0.0354 0.0183,0.0694 0.0362,0.1018l-0.1499 0c-0.0147,-0.0297 -0.0245,-0.0645 -0.0286,-0.1045zm-0.012 -0.3205c-0.0522,0.0215 -0.1303,0.0394 -0.2342,0.0544 -0.0591,0.0084 -0.101,0.018 -0.1252,0.0286 -0.0245,0.0106 -0.0435,0.0261 -0.0566,0.0468 -0.0133,0.0204 -0.0201,0.043 -0.0201,0.068 0,0.0384 0.0147,0.0702 0.0435,0.0958 0.0288,0.0253 0.0713,0.0381 0.1271,0.0381 0.0552,0 0.1045,-0.012 0.1475,-0.0362 0.0429,-0.0242 0.0748,-0.0574 0.0949,-0.0993 0.0155,-0.0324 0.0231,-0.0803 0.0231,-0.1434l0 -0.0528zm0.3413 0.4952l0.1395 0.0207c0.0058,0.043 0.0221,0.0743 0.0485,0.0941 0.0356,0.0264 0.0843,0.0398 0.1458,0.0398 0.0667,0 0.1178,-0.0134 0.154,-0.0398 0.0362,-0.0266 0.0604,-0.0639 0.0732,-0.1115 0.0076,-0.0294 0.0109,-0.0906 0.0104,-0.1842 -0.0626,0.0737 -0.1407,0.1107 -0.2343,0.1107 -0.1165,0 -0.2065,-0.0419 -0.2702,-0.126 -0.0637,-0.0838 -0.0958,-0.1847 -0.0958,-0.302 0,-0.0808 0.0147,-0.1554 0.0438,-0.2237 0.0294,-0.0683 0.0719,-0.1211 0.1274,-0.1583 0.0555,-0.037 0.1208,-0.0558 0.1956,-0.0558 0.0999,0 0.1823,0.0405 0.2471,0.1213l0 -0.102 0.1325 0 0 0.7317c0,0.1317 -0.0136,0.2253 -0.0403,0.2802 -0.0269,0.055 -0.0694,0.0985 -0.1276,0.1304 -0.0582,0.0318 -0.1298,0.0479 -0.215,0.0479 -0.1009,0 -0.1825,-0.0229 -0.2446,-0.0683 -0.0623,-0.0455 -0.0922,-0.1138 -0.09,-0.2052zm0.1186 -0.5086c0,0.1111 0.022,0.1921 0.0664,0.243 0.0441,0.0512 0.0993,0.0765 0.1657,0.0765 0.0658,0 0.1211,-0.0253 0.1657,-0.0759 0.0446,-0.0509 0.0669,-0.1304 0.0669,-0.2389 0,-0.1037 -0.0228,-0.1818 -0.0688,-0.2343 -0.046,-0.0525 -0.1015,-0.0789 -0.1663,-0.0789 -0.0636,0 -0.1178,0.0258 -0.1627,0.0778 -0.0446,0.0517 -0.0669,0.1287 -0.0669,0.2307zm1.3706 0.4384l0 -0.1243c-0.0662,0.0957 -0.1557,0.1433 -0.2689,0.1433 -0.0498,0 -0.0966,-0.0095 -0.1398,-0.0285 -0.0433,-0.0191 -0.0754,-0.0433 -0.0964,-0.0721 -0.0212,-0.0291 -0.0359,-0.0645 -0.0443,-0.1064 -0.0057,-0.0283 -0.0087,-0.0729 -0.0087,-0.1342l0 -0.5243 0.1434 0 0 0.4694c0,0.0751 0.003,0.1254 0.0087,0.1515 0.0092,0.0379 0.0283,0.0672 0.0574,0.089 0.0294,0.0215 0.0656,0.0321 0.1086,0.0321 0.043,0 0.0832,-0.0109 0.1211,-0.0329 0.0378,-0.0221 0.0644,-0.0523 0.08,-0.0901 0.0157,-0.0381 0.0236,-0.0933 0.0236,-0.1654l0 -0.4536 0.1434 0 0 0.8465 -0.1281 0zm0.9325 -0.2726l0.1482 0.0182c-0.0234,0.0868 -0.0666,0.154 -0.1297,0.2019 -0.0634,0.0476 -0.1443,0.0715 -0.2425,0.0715 -0.1238,0 -0.222,-0.038 -0.2944,-0.1142 -0.0726,-0.0762 -0.1088,-0.1832 -0.1088,-0.3208 0,-0.1426 0.0367,-0.2531 0.1099,-0.3317 0.0735,-0.0787 0.1684,-0.1181 0.2854,-0.1181 0.1132,0 0.2057,0.0386 0.2773,0.1156 0.0718,0.077 0.1077,0.1856 0.1077,0.3252 0,0.0087 -0.0002,0.0215 -0.0008,0.0383l-0.6312 0c0.0051,0.0931 0.0315,0.1644 0.0789,0.2136 0.0473,0.0496 0.1061,0.0743 0.1768,0.0743 0.0525,0 0.0974,-0.0138 0.1347,-0.0416 0.0373,-0.0275 0.0667,-0.0716 0.0885,-0.1322zm-0.4711 -0.2321l0.4727 0c-0.0063,-0.0711 -0.0245,-0.1247 -0.0542,-0.16 -0.0457,-0.0553 -0.105,-0.083 -0.1776,-0.083 -0.0659,0 -0.1214,0.022 -0.1663,0.0661 -0.0449,0.0441 -0.0697,0.1031 -0.0746,0.1769zm0.7423 0.2519l0.1418 -0.0223c0.0079,0.0569 0.0302,0.1004 0.0667,0.1309 0.0362,0.0302 0.087,0.0454 0.1526,0.0454 0.0659,0 0.1148,-0.0136 0.1467,-0.0402 0.0318,-0.027 0.0479,-0.0585 0.0479,-0.0945 0,-0.0326 -0.0142,-0.0579 -0.0425,-0.0767 -0.0196,-0.0128 -0.0686,-0.0288 -0.1466,-0.0484 -0.1051,-0.0267 -0.1783,-0.0495 -0.2188,-0.0691 -0.0406,-0.0194 -0.0716,-0.0463 -0.0925,-0.0806 -0.021,-0.0343 -0.0316,-0.0721 -0.0316,-0.1134 0,-0.0379 0.0087,-0.0727 0.0261,-0.1048 0.0172,-0.0324 0.0408,-0.0591 0.0705,-0.0803 0.0223,-0.0163 0.0528,-0.0305 0.0912,-0.0419 0.0386,-0.0114 0.08,-0.0171 0.124,-0.0171 0.0664,0 0.1247,0.0098 0.175,0.0288 0.0503,0.0191 0.0873,0.0449 0.1113,0.0776 0.0239,0.0329 0.0403,0.0764 0.0492,0.1311l-0.1401 0.0193c-0.0065,-0.0435 -0.025,-0.0775 -0.0555,-0.102 -0.0305,-0.0245 -0.0737,-0.0367 -0.1295,-0.0367 -0.0659,0 -0.1129,0.0109 -0.141,0.0326 -0.0283,0.0218 -0.0424,0.0474 -0.0424,0.0765 0,0.0188 0.006,0.0354 0.0177,0.0503 0.0117,0.0155 0.0299,0.028 0.0549,0.0384 0.0145,0.0052 0.0566,0.0174 0.1268,0.0364 0.1015,0.0273 0.1723,0.0493 0.2123,0.0667 0.0402,0.0172 0.0718,0.0425 0.0947,0.0754 0.0228,0.0329 0.0342,0.0737 0.0342,0.1227 0,0.0479 -0.0141,0.0928 -0.0419,0.1352 -0.028,0.0422 -0.0683,0.0749 -0.1208,0.098 -0.0525,0.0231 -0.1121,0.0345 -0.1785,0.0345 -0.1102,0 -0.194,-0.0228 -0.2517,-0.0685 -0.0576,-0.0457 -0.0944,-0.1135 -0.1102,-0.2033zm1.3257 0.2528l0 -0.8465 0.129 0 0 0.1282c0.0329,-0.0599 0.0634,-0.0996 0.0914,-0.1187 0.0278,-0.019 0.0585,-0.0288 0.092,-0.0288 0.0484,0 0.0974,0.0155 0.1475,0.0462l-0.0496 0.1334c-0.0348,-0.021 -0.0699,-0.0313 -0.105,-0.0313 -0.0315,0 -0.0596,0.0095 -0.0846,0.0283 -0.025,0.019 -0.0427,0.0451 -0.0533,0.0786 -0.0161,0.0509 -0.024,0.1067 -0.024,0.1673l0 0.4433 -0.1434 0zm0.5459 -1.0035l0 -0.1652 0.1437 0 0 0.1652 -0.1437 0zm0 1.0035l0 -0.8465 0.1437 0 0 0.8465 -0.1437 0z"/>
   <path id="_77869704" class="fil14" d="M24.0646 27.8899l0.1395 0.0207c0.0058,0.043 0.0221,0.0743 0.0485,0.0941 0.0356,0.0264 0.0843,0.0398 0.1458,0.0398 0.0667,0 0.1178,-0.0134 0.154,-0.0398 0.0362,-0.0266 0.0604,-0.0639 0.0732,-0.1115 0.0076,-0.0294 0.0109,-0.0906 0.0104,-0.1842 -0.0626,0.0737 -0.1407,0.1107 -0.2343,0.1107 -0.1165,0 -0.2065,-0.0419 -0.2702,-0.126 -0.0637,-0.0838 -0.0958,-0.1847 -0.0958,-0.302 0,-0.0808 0.0147,-0.1554 0.0438,-0.2237 0.0294,-0.0683 0.0719,-0.1211 0.1274,-0.1583 0.0555,-0.037 0.1208,-0.0558 0.1956,-0.0558 0.0999,0 0.1823,0.0405 0.2471,0.1213l0 -0.102 0.1325 0 0 0.7317c0,0.1317 -0.0136,0.2253 -0.0403,0.2802 -0.0269,0.055 -0.0694,0.0985 -0.1276,0.1304 -0.0582,0.0318 -0.1298,0.0479 -0.215,0.0479 -0.1009,0 -0.1825,-0.0229 -0.2446,-0.0683 -0.0623,-0.0455 -0.0922,-0.1138 -0.09,-0.2052zm0.1186 -0.5086c0,0.1111 0.022,0.1921 0.0664,0.243 0.0441,0.0512 0.0993,0.0765 0.1657,0.0765 0.0658,0 0.1211,-0.0253 0.1657,-0.0759 0.0446,-0.0509 0.0669,-0.1304 0.0669,-0.2389 0,-0.1037 -0.0228,-0.1818 -0.0688,-0.2343 -0.046,-0.0525 -0.1015,-0.0789 -0.1663,-0.0789 -0.0636,0 -0.1178,0.0258 -0.1627,0.0778 -0.0446,0.0517 -0.0669,0.1287 -0.0669,0.2307zm0.8158 0.4384l0 -1.1687 0.1433 0 0 0.4193c0.067,-0.0775 0.1516,-0.1164 0.2536,-0.1164 0.0626,0 0.117,0.0125 0.1633,0.0373 0.0463,0.0244 0.0795,0.0587 0.0993,0.1023 0.0199,0.0435 0.03,0.1069 0.03,0.1896l0 0.5366 -0.1437 0 0 -0.5366c0,-0.0715 -0.0155,-0.1238 -0.0465,-0.1564 -0.0311,-0.0327 -0.0751,-0.0493 -0.132,-0.0493 -0.0425,0 -0.0825,0.0112 -0.12,0.0332 -0.0376,0.022 -0.0642,0.052 -0.08,0.0898 -0.0161,0.0376 -0.024,0.0898 -0.024,0.1562l0 0.4631 -0.1433 0zm1.2211 -0.1284l0.0207 0.1268c-0.0403,0.0084 -0.0764,0.0128 -0.1083,0.0128 -0.0522,0 -0.0925,-0.0082 -0.1213,-0.0248 -0.0286,-0.0163 -0.0487,-0.0381 -0.0604,-0.065 -0.0117,-0.0267 -0.0177,-0.0833 -0.0177,-0.1693l0 -0.487 -0.1053 0 0 -0.1116 0.1053 0 0 -0.2098 0.1428 -0.086 0 0.2958 0.1442 0 0 0.1116 -0.1442 0 0 0.4949c0,0.0411 0.0025,0.0672 0.0074,0.0789 0.0051,0.0117 0.0133,0.021 0.0247,0.028 0.0115,0.0068 0.0278,0.0104 0.049,0.0104 0.0161,0 0.037,-0.0019 0.0631,-0.0057zm0.5404 -0.295c0,-0.1567 0.0436,-0.2729 0.1309,-0.3483 0.0727,-0.0626 0.1614,-0.0941 0.2661,-0.0941 0.1165,0 0.2117,0.0381 0.2855,0.1145 0.074,0.0762 0.1107,0.1815 0.1107,0.3159 0,0.1092 -0.0163,0.1949 -0.049,0.2572 -0.0326,0.0626 -0.0802,0.111 -0.1425,0.1455 -0.0626,0.0346 -0.1306,0.0517 -0.2047,0.0517 -0.1183,0 -0.2141,-0.0378 -0.2873,-0.114 -0.0732,-0.0759 -0.1097,-0.1853 -0.1097,-0.3284zm0.1475 0c0,0.1086 0.0237,0.1897 0.071,0.2435 0.0474,0.0542 0.107,0.0811 0.1785,0.0811 0.0713,0 0.1306,-0.0272 0.178,-0.0813 0.0471,-0.0542 0.0707,-0.1369 0.0707,-0.2479 0,-0.1048 -0.0236,-0.1842 -0.0712,-0.2381 -0.0477,-0.0539 -0.1067,-0.0808 -0.1775,-0.0808 -0.0715,0 -0.1311,0.0269 -0.1785,0.0805 -0.0473,0.0536 -0.071,0.1347 -0.071,0.243zm0.8142 0.4234l0 -0.8465 0.1289 0 0 0.1203c0.0623,-0.0931 0.1521,-0.1396 0.2694,-0.1396 0.0512,0 0.098,0.0092 0.1407,0.0275 0.043,0.0185 0.0748,0.0424 0.096,0.0723 0.0215,0.0297 0.0362,0.0651 0.0449,0.1059 0.0052,0.0267 0.0079,0.0732 0.0079,0.1396l0 0.5205 -0.1436 0 0 -0.5151c0,-0.0582 -0.0055,-0.102 -0.0166,-0.1311 -0.0112,-0.0289 -0.0311,-0.052 -0.0594,-0.0692 -0.0285,-0.0174 -0.0617,-0.0261 -0.1001,-0.0261 -0.0612,0 -0.1137,0.0196 -0.1584,0.0583 -0.0443,0.0389 -0.0664,0.1123 -0.0664,0.2209l0 0.4623 -0.1433 0zm1.6747 -0.1284l0.0207 0.1268c-0.0403,0.0084 -0.0764,0.0128 -0.1083,0.0128 -0.0522,0 -0.0925,-0.0082 -0.1213,-0.0248 -0.0286,-0.0163 -0.0487,-0.0381 -0.0604,-0.065 -0.0117,-0.0267 -0.0177,-0.0833 -0.0177,-0.1693l0 -0.487 -0.1053 0 0 -0.1116 0.1053 0 0 -0.2098 0.1428 -0.086 0 0.2958 0.1442 0 0 0.1116 -0.1442 0 0 0.4949c0,0.0411 0.0025,0.0672 0.0074,0.0789 0.0051,0.0117 0.0133,0.021 0.0247,0.028 0.0115,0.0068 0.0278,0.0104 0.049,0.0104 0.0161,0 0.037,-0.0019 0.0631,-0.0057zm0.1405 0.1284l0 -1.1687 0.1433 0 0 0.4193c0.067,-0.0775 0.1516,-0.1164 0.2536,-0.1164 0.0626,0 0.117,0.0125 0.1633,0.0373 0.0463,0.0244 0.0795,0.0587 0.0993,0.1023 0.0199,0.0435 0.03,0.1069 0.03,0.1896l0 0.5366 -0.1437 0 0 -0.5366c0,-0.0715 -0.0155,-0.1238 -0.0465,-0.1564 -0.0311,-0.0327 -0.0751,-0.0493 -0.132,-0.0493 -0.0425,0 -0.0825,0.0112 -0.12,0.0332 -0.0376,0.022 -0.0642,0.052 -0.08,0.0898 -0.0161,0.0376 -0.024,0.0898 -0.024,0.1562l0 0.4631 -0.1433 0zm1.4873 -0.2726l0.1482 0.0182c-0.0234,0.0868 -0.0666,0.154 -0.1297,0.2019 -0.0634,0.0476 -0.1443,0.0715 -0.2425,0.0715 -0.1238,0 -0.222,-0.038 -0.2944,-0.1142 -0.0726,-0.0762 -0.1088,-0.1832 -0.1088,-0.3208 0,-0.1426 0.0367,-0.2531 0.1099,-0.3317 0.0735,-0.0787 0.1684,-0.1181 0.2854,-0.1181 0.1132,0 0.2057,0.0386 0.2773,0.1156 0.0718,0.077 0.1077,0.1856 0.1077,0.3252 0,0.0087 -0.0002,0.0215 -0.0008,0.0383l-0.6312 0c0.0051,0.0931 0.0315,0.1644 0.0789,0.2136 0.0473,0.0496 0.1061,0.0743 0.1768,0.0743 0.0525,0 0.0974,-0.0138 0.1347,-0.0416 0.0373,-0.0275 0.0667,-0.0716 0.0885,-0.1322zm-0.4711 -0.2321l0.4727 0c-0.0063,-0.0711 -0.0245,-0.1247 -0.0542,-0.16 -0.0457,-0.0553 -0.105,-0.083 -0.1776,-0.083 -0.0659,0 -0.1214,0.022 -0.1663,0.0661 -0.0449,0.0441 -0.0697,0.1031 -0.0746,0.1769zm1.2534 0.829l0 -1.1708 0.1306 0 0 0.1099c0.0307,-0.043 0.0655,-0.0753 0.1044,-0.0968 0.0387,-0.0215 0.0858,-0.0324 0.141,-0.0324 0.0724,0 0.136,0.0188 0.1913,0.0558 0.0555,0.0372 0.0971,0.0898 0.1251,0.1575 0.0283,0.0678 0.0425,0.142 0.0425,0.2229 0,0.0865 -0.0155,0.1646 -0.0468,0.234 -0.031,0.0693 -0.0762,0.1224 -0.1355,0.1594 -0.0593,0.0367 -0.1216,0.0552 -0.1869,0.0552 -0.0479,0 -0.0907,-0.01 -0.1287,-0.0302 -0.0381,-0.0201 -0.0692,-0.0457 -0.0937,-0.0764l0 0.4119 -0.1433 0zm0.1297 -0.7428c0,0.1089 0.0221,0.1894 0.0662,0.2416 0.044,0.052 0.0976,0.0781 0.1602,0.0781 0.0637,0 0.1184,-0.0269 0.1638,-0.0811 0.0455,-0.0538 0.0683,-0.1374 0.0683,-0.2506 0,-0.108 -0.0223,-0.1885 -0.0666,-0.2424 -0.0444,-0.0536 -0.0974,-0.0805 -0.1589,-0.0805 -0.0613,0 -0.1154,0.0285 -0.1625,0.0857 -0.0471,0.0571 -0.0705,0.1404 -0.0705,0.2492zm0.7246 -0.0049c0,-0.1567 0.0436,-0.2729 0.1309,-0.3483 0.0727,-0.0626 0.1614,-0.0941 0.2661,-0.0941 0.1165,0 0.2117,0.0381 0.2855,0.1145 0.074,0.0762 0.1107,0.1815 0.1107,0.3159 0,0.1092 -0.0163,0.1949 -0.049,0.2572 -0.0326,0.0626 -0.0802,0.111 -0.1425,0.1455 -0.0626,0.0346 -0.1306,0.0517 -0.2047,0.0517 -0.1183,0 -0.2141,-0.0378 -0.2873,-0.114 -0.0732,-0.0759 -0.1097,-0.1853 -0.1097,-0.3284zm0.1475 0c0,0.1086 0.0237,0.1897 0.071,0.2435 0.0474,0.0542 0.107,0.0811 0.1785,0.0811 0.0713,0 0.1306,-0.0272 0.178,-0.0813 0.0471,-0.0542 0.0707,-0.1369 0.0707,-0.2479 0,-0.1048 -0.0236,-0.1842 -0.0712,-0.2381 -0.0477,-0.0539 -0.1067,-0.0808 -0.1775,-0.0808 -0.0715,0 -0.1311,0.0269 -0.1785,0.0805 -0.0473,0.0536 -0.071,0.1347 -0.071,0.243zm0.8125 0.4234l0 -0.8465 0.129 0 0 0.1282c0.0329,-0.0599 0.0634,-0.0996 0.0914,-0.1187 0.0278,-0.019 0.0585,-0.0288 0.092,-0.0288 0.0484,0 0.0974,0.0155 0.1475,0.0462l-0.0496 0.1334c-0.0348,-0.021 -0.0699,-0.0313 -0.105,-0.0313 -0.0315,0 -0.0596,0.0095 -0.0846,0.0283 -0.025,0.019 -0.0427,0.0451 -0.0533,0.0786 -0.0161,0.0509 -0.024,0.1067 -0.024,0.1673l0 0.4433 -0.1434 0zm0.8585 -0.1284l0.0207 0.1268c-0.0403,0.0084 -0.0764,0.0128 -0.1083,0.0128 -0.0522,0 -0.0925,-0.0082 -0.1213,-0.0248 -0.0286,-0.0163 -0.0487,-0.0381 -0.0604,-0.065 -0.0117,-0.0267 -0.0177,-0.0833 -0.0177,-0.1693l0 -0.487 -0.1053 0 0 -0.1116 0.1053 0 0 -0.2098 0.1428 -0.086 0 0.2958 0.1442 0 0 0.1116 -0.1442 0 0 0.4949c0,0.0411 0.0025,0.0672 0.0074,0.0789 0.0051,0.0117 0.0133,0.021 0.0247,0.028 0.0115,0.0068 0.0278,0.0104 0.049,0.0104 0.0161,0 0.037,-0.0019 0.0631,-0.0057zm0.6928 0.0239c-0.0533,0.0452 -0.1045,0.077 -0.1534,0.0958 -0.0493,0.0185 -0.1021,0.0277 -0.1584,0.0277 -0.0931,0 -0.1644,-0.0225 -0.2144,-0.068 -0.0498,-0.0454 -0.0749,-0.1036 -0.0749,-0.1741 0,-0.0417 0.0093,-0.0795 0.0283,-0.1138 0.0188,-0.0342 0.0436,-0.0617 0.0741,-0.0824 0.0307,-0.0207 0.065,-0.0365 0.1034,-0.0471 0.028,-0.0073 0.0704,-0.0147 0.1273,-0.0215 0.1159,-0.0139 0.2014,-0.0302 0.256,-0.0495 0.0006,-0.0196 0.0009,-0.0321 0.0009,-0.0373 0,-0.0585 -0.0136,-0.0998 -0.0409,-0.1235 -0.0364,-0.0327 -0.0911,-0.0487 -0.1632,-0.0487 -0.0675,0 -0.1173,0.0117 -0.1497,0.0354 -0.0321,0.0236 -0.0558,0.0655 -0.0713,0.1257l-0.1401 -0.0194c0.0128,-0.0598 0.0337,-0.1085 0.0629,-0.1453 0.0291,-0.037 0.0715,-0.0655 0.1268,-0.0854 0.0552,-0.0199 0.1191,-0.0299 0.1921,-0.0299 0.0723,0 0.1308,0.0087 0.176,0.0256 0.0452,0.0171 0.0784,0.0383 0.0999,0.0642 0.0212,0.0258 0.0359,0.0582 0.0446,0.0977 0.0046,0.0244 0.0071,0.0685 0.0071,0.1322l0 0.1913c0,0.1336 0.003,0.2179 0.0092,0.253 0.006,0.0354 0.0183,0.0694 0.0362,0.1018l-0.1499 0c-0.0147,-0.0297 -0.0245,-0.0645 -0.0286,-0.1045zm-0.012 -0.3205c-0.0522,0.0215 -0.1303,0.0394 -0.2342,0.0544 -0.0591,0.0084 -0.101,0.018 -0.1252,0.0286 -0.0245,0.0106 -0.0435,0.0261 -0.0566,0.0468 -0.0133,0.0204 -0.0201,0.043 -0.0201,0.068 0,0.0384 0.0147,0.0702 0.0435,0.0958 0.0288,0.0253 0.0713,0.0381 0.1271,0.0381 0.0552,0 0.1045,-0.012 0.1475,-0.0362 0.0429,-0.0242 0.0748,-0.0574 0.0949,-0.0993 0.0155,-0.0324 0.0231,-0.0803 0.0231,-0.1434l0 -0.0528zm0.3644 0.425l0 -1.1687 0.1434 0 0 1.1687 -0.1434 0zm-20.4439 4.2645l-0.259 -0.8465 0.1483 0 0.1347 0.4887 0.05 0.1818c0.0022,-0.0093 0.0169,-0.0675 0.0439,-0.1747l0.1346 -0.4958 0.1475 0 0.1268 0.4909 0.0425 0.1619 0.0484 -0.1636 0.145 -0.4892 0.1396 0 -0.2647 0.8465 -0.1489 0 -0.1347 -0.5069 -0.0329 -0.1445 -0.1711 0.6514 -0.15 0zm1.0234 -1.0035l0 -0.1652 0.1437 0 0 0.1652 -0.1437 0zm0 1.0035l0 -0.8465 0.1437 0 0 0.8465 -0.1437 0zm0.6753 -0.1284l0.0207 0.1268c-0.0403,0.0084 -0.0764,0.0128 -0.1083,0.0128 -0.0522,0 -0.0925,-0.0082 -0.1213,-0.0248 -0.0286,-0.0163 -0.0487,-0.0381 -0.0604,-0.065 -0.0117,-0.0267 -0.0177,-0.0833 -0.0177,-0.1693l0 -0.487 -0.1053 0 0 -0.1116 0.1053 0 0 -0.2098 0.1428 -0.086 0 0.2958 0.1442 0 0 0.1116 -0.1442 0 0 0.4949c0,0.0411 0.0025,0.0672 0.0074,0.0789 0.0051,0.0117 0.0133,0.021 0.0247,0.028 0.0115,0.0068 0.0278,0.0104 0.049,0.0104 0.0161,0 0.037,-0.0019 0.0631,-0.0057zm0.1405 0.1284l0 -1.1687 0.1433 0 0 0.4193c0.067,-0.0775 0.1516,-0.1164 0.2536,-0.1164 0.0626,0 0.117,0.0125 0.1633,0.0373 0.0463,0.0244 0.0795,0.0587 0.0993,0.1023 0.0199,0.0435 0.03,0.1069 0.03,0.1896l0 0.5366 -0.1437 0 0 -0.5366c0,-0.0715 -0.0155,-0.1238 -0.0465,-0.1564 -0.0311,-0.0327 -0.0751,-0.0493 -0.132,-0.0493 -0.0425,0 -0.0825,0.0112 -0.12,0.0332 -0.0376,0.022 -0.0642,0.052 -0.08,0.0898 -0.0161,0.0376 -0.024,0.0898 -0.024,0.1562l0 0.4631 -0.1433 0zm1.3616 0l0 -0.8465 0.1289 0 0 0.1203c0.0623,-0.0931 0.1521,-0.1396 0.2694,-0.1396 0.0512,0 0.098,0.0092 0.1407,0.0275 0.043,0.0185 0.0748,0.0424 0.096,0.0723 0.0215,0.0297 0.0362,0.0651 0.0449,0.1059 0.0052,0.0267 0.0079,0.0732 0.0079,0.1396l0 0.5205 -0.1436 0 0 -0.5151c0,-0.0582 -0.0055,-0.102 -0.0166,-0.1311 -0.0112,-0.0289 -0.0311,-0.052 -0.0594,-0.0692 -0.0285,-0.0174 -0.0617,-0.0261 -0.1001,-0.0261 -0.0612,0 -0.1137,0.0196 -0.1584,0.0583 -0.0443,0.0389 -0.0664,0.1123 -0.0664,0.2209l0 0.4623 -0.1433 0zm0.8543 -0.4234c0,-0.1567 0.0436,-0.2729 0.1309,-0.3483 0.0727,-0.0626 0.1614,-0.0941 0.2661,-0.0941 0.1165,0 0.2117,0.0381 0.2855,0.1145 0.074,0.0762 0.1107,0.1815 0.1107,0.3159 0,0.1092 -0.0163,0.1949 -0.049,0.2572 -0.0326,0.0626 -0.0802,0.111 -0.1425,0.1455 -0.0626,0.0346 -0.1306,0.0517 -0.2047,0.0517 -0.1183,0 -0.2141,-0.0378 -0.2873,-0.114 -0.0732,-0.0759 -0.1097,-0.1853 -0.1097,-0.3284zm0.1475 0c0,0.1086 0.0237,0.1897 0.071,0.2435 0.0474,0.0542 0.107,0.0811 0.1785,0.0811 0.0713,0 0.1306,-0.0272 0.178,-0.0813 0.0471,-0.0542 0.0707,-0.1369 0.0707,-0.2479 0,-0.1048 -0.0236,-0.1842 -0.0712,-0.2381 -0.0477,-0.0539 -0.1067,-0.0808 -0.1775,-0.0808 -0.0715,0 -0.1311,0.0269 -0.1785,0.0805 -0.0473,0.0536 -0.071,0.1347 -0.071,0.243zm1.2103 0.1706l0.1418 -0.0223c0.0079,0.0569 0.0302,0.1004 0.0667,0.1309 0.0362,0.0302 0.087,0.0454 0.1526,0.0454 0.0659,0 0.1148,-0.0136 0.1467,-0.0402 0.0318,-0.027 0.0479,-0.0585 0.0479,-0.0945 0,-0.0326 -0.0142,-0.0579 -0.0425,-0.0767 -0.0196,-0.0128 -0.0686,-0.0288 -0.1466,-0.0484 -0.1051,-0.0267 -0.1783,-0.0495 -0.2188,-0.0691 -0.0406,-0.0194 -0.0716,-0.0463 -0.0925,-0.0806 -0.021,-0.0343 -0.0316,-0.0721 -0.0316,-0.1134 0,-0.0379 0.0087,-0.0727 0.0261,-0.1048 0.0172,-0.0324 0.0408,-0.0591 0.0705,-0.0803 0.0223,-0.0163 0.0528,-0.0305 0.0912,-0.0419 0.0386,-0.0114 0.08,-0.0171 0.124,-0.0171 0.0664,0 0.1247,0.0098 0.175,0.0288 0.0503,0.0191 0.0873,0.0449 0.1113,0.0776 0.0239,0.0329 0.0403,0.0764 0.0492,0.1311l-0.1401 0.0193c-0.0065,-0.0435 -0.025,-0.0775 -0.0555,-0.102 -0.0305,-0.0245 -0.0737,-0.0367 -0.1295,-0.0367 -0.0659,0 -0.1129,0.0109 -0.141,0.0326 -0.0283,0.0218 -0.0424,0.0474 -0.0424,0.0765 0,0.0188 0.006,0.0354 0.0177,0.0503 0.0117,0.0155 0.0299,0.028 0.0549,0.0384 0.0145,0.0052 0.0566,0.0174 0.1268,0.0364 0.1015,0.0273 0.1723,0.0493 0.2123,0.0667 0.0402,0.0172 0.0718,0.0425 0.0947,0.0754 0.0228,0.0329 0.0342,0.0737 0.0342,0.1227 0,0.0479 -0.0141,0.0928 -0.0419,0.1352 -0.028,0.0422 -0.0683,0.0749 -0.1208,0.098 -0.0525,0.0231 -0.1121,0.0345 -0.1785,0.0345 -0.1102,0 -0.194,-0.0228 -0.2517,-0.0685 -0.0576,-0.0457 -0.0944,-0.1135 -0.1102,-0.2033zm0.8201 -0.1706c0,-0.1567 0.0436,-0.2729 0.1309,-0.3483 0.0727,-0.0626 0.1614,-0.0941 0.2661,-0.0941 0.1165,0 0.2117,0.0381 0.2855,0.1145 0.074,0.0762 0.1107,0.1815 0.1107,0.3159 0,0.1092 -0.0163,0.1949 -0.049,0.2572 -0.0326,0.0626 -0.0802,0.111 -0.1425,0.1455 -0.0626,0.0346 -0.1306,0.0517 -0.2047,0.0517 -0.1183,0 -0.2141,-0.0378 -0.2873,-0.114 -0.0732,-0.0759 -0.1097,-0.1853 -0.1097,-0.3284zm0.1475 0c0,0.1086 0.0237,0.1897 0.071,0.2435 0.0474,0.0542 0.107,0.0811 0.1785,0.0811 0.0713,0 0.1306,-0.0272 0.178,-0.0813 0.0471,-0.0542 0.0707,-0.1369 0.0707,-0.2479 0,-0.1048 -0.0236,-0.1842 -0.0712,-0.2381 -0.0477,-0.0539 -0.1067,-0.0808 -0.1775,-0.0808 -0.0715,0 -0.1311,0.0269 -0.1785,0.0805 -0.0473,0.0536 -0.071,0.1347 -0.071,0.243zm0.8482 0.4234l0 -0.7349 -0.1266 0 0 -0.1116 0.1266 0 0 -0.0901c0,-0.0568 0.0051,-0.0993 0.0152,-0.1268 0.0139,-0.0372 0.0381,-0.0674 0.0729,-0.0906 0.0349,-0.0231 0.0836,-0.0345 0.1464,-0.0345 0.0403,0 0.0849,0.0046 0.1339,0.0144l-0.0215 0.1252c-0.0297,-0.0055 -0.058,-0.0082 -0.0846,-0.0082 -0.0436,0 -0.0743,0.0092 -0.0923,0.028 -0.0182,0.0185 -0.0272,0.0533 -0.0272,0.1045l0 0.0781 0.1649 0 0 0.1116 -0.1649 0 0 0.7349 -0.1428 0zm0.7327 -0.1284l0.0207 0.1268c-0.0403,0.0084 -0.0764,0.0128 -0.1083,0.0128 -0.0522,0 -0.0925,-0.0082 -0.1213,-0.0248 -0.0286,-0.0163 -0.0487,-0.0381 -0.0604,-0.065 -0.0117,-0.0267 -0.0177,-0.0833 -0.0177,-0.1693l0 -0.487 -0.1053 0 0 -0.1116 0.1053 0 0 -0.2098 0.1428 -0.086 0 0.2958 0.1442 0 0 0.1116 -0.1442 0 0 0.4949c0,0.0411 0.0025,0.0672 0.0074,0.0789 0.0051,0.0117 0.0133,0.021 0.0247,0.028 0.0115,0.0068 0.0278,0.0104 0.049,0.0104 0.0161,0 0.037,-0.0019 0.0631,-0.0057zm0.2966 0.1284l-0.259 -0.8465 0.1483 0 0.1347 0.4887 0.05 0.1818c0.0022,-0.0093 0.0169,-0.0675 0.0439,-0.1747l0.1346 -0.4958 0.1475 0 0.1268 0.4909 0.0425 0.1619 0.0484 -0.1636 0.145 -0.4892 0.1396 0 -0.2647 0.8465 -0.1489 0 -0.1347 -0.5069 -0.0329 -0.1445 -0.1711 0.6514 -0.15 0zm1.5752 -0.1045c-0.0533,0.0452 -0.1045,0.077 -0.1534,0.0958 -0.0493,0.0185 -0.1021,0.0277 -0.1584,0.0277 -0.0931,0 -0.1644,-0.0225 -0.2144,-0.068 -0.0498,-0.0454 -0.0749,-0.1036 -0.0749,-0.1741 0,-0.0417 0.0093,-0.0795 0.0283,-0.1138 0.0188,-0.0342 0.0436,-0.0617 0.0741,-0.0824 0.0307,-0.0207 0.065,-0.0365 0.1034,-0.0471 0.028,-0.0073 0.0704,-0.0147 0.1273,-0.0215 0.1159,-0.0139 0.2014,-0.0302 0.256,-0.0495 0.0006,-0.0196 0.0009,-0.0321 0.0009,-0.0373 0,-0.0585 -0.0136,-0.0998 -0.0409,-0.1235 -0.0364,-0.0327 -0.0911,-0.0487 -0.1632,-0.0487 -0.0675,0 -0.1173,0.0117 -0.1497,0.0354 -0.0321,0.0236 -0.0558,0.0655 -0.0713,0.1257l-0.1401 -0.0194c0.0128,-0.0598 0.0337,-0.1085 0.0629,-0.1453 0.0291,-0.037 0.0715,-0.0655 0.1268,-0.0854 0.0552,-0.0199 0.1191,-0.0299 0.1921,-0.0299 0.0723,0 0.1308,0.0087 0.176,0.0256 0.0452,0.0171 0.0784,0.0383 0.0999,0.0642 0.0212,0.0258 0.0359,0.0582 0.0446,0.0977 0.0046,0.0244 0.0071,0.0685 0.0071,0.1322l0 0.1913c0,0.1336 0.003,0.2179 0.0092,0.253 0.006,0.0354 0.0183,0.0694 0.0362,0.1018l-0.1499 0c-0.0147,-0.0297 -0.0245,-0.0645 -0.0286,-0.1045zm-0.012 -0.3205c-0.0522,0.0215 -0.1303,0.0394 -0.2342,0.0544 -0.0591,0.0084 -0.101,0.018 -0.1252,0.0286 -0.0245,0.0106 -0.0435,0.0261 -0.0566,0.0468 -0.0133,0.0204 -0.0201,0.043 -0.0201,0.068 0,0.0384 0.0147,0.0702 0.0435,0.0958 0.0288,0.0253 0.0713,0.0381 0.1271,0.0381 0.0552,0 0.1045,-0.012 0.1475,-0.0362 0.0429,-0.0242 0.0748,-0.0574 0.0949,-0.0993 0.0155,-0.0324 0.0231,-0.0803 0.0231,-0.1434l0 -0.0528zm0.366 0.425l0 -0.8465 0.129 0 0 0.1282c0.0329,-0.0599 0.0634,-0.0996 0.0914,-0.1187 0.0278,-0.019 0.0585,-0.0288 0.092,-0.0288 0.0484,0 0.0974,0.0155 0.1475,0.0462l-0.0496 0.1334c-0.0348,-0.021 -0.0699,-0.0313 -0.105,-0.0313 -0.0315,0 -0.0596,0.0095 -0.0846,0.0283 -0.025,0.019 -0.0427,0.0451 -0.0533,0.0786 -0.0161,0.0509 -0.024,0.1067 -0.024,0.1673l0 0.4433 -0.1434 0zm1.1247 -0.2726l0.1482 0.0182c-0.0234,0.0868 -0.0666,0.154 -0.1297,0.2019 -0.0634,0.0476 -0.1443,0.0715 -0.2425,0.0715 -0.1238,0 -0.222,-0.038 -0.2944,-0.1142 -0.0726,-0.0762 -0.1088,-0.1832 -0.1088,-0.3208 0,-0.1426 0.0367,-0.2531 0.1099,-0.3317 0.0735,-0.0787 0.1684,-0.1181 0.2854,-0.1181 0.1132,0 0.2057,0.0386 0.2773,0.1156 0.0718,0.077 0.1077,0.1856 0.1077,0.3252 0,0.0087 -0.0002,0.0215 -0.0008,0.0383l-0.6312 0c0.0051,0.0931 0.0315,0.1644 0.0789,0.2136 0.0473,0.0496 0.1061,0.0743 0.1768,0.0743 0.0525,0 0.0974,-0.0138 0.1347,-0.0416 0.0373,-0.0275 0.0667,-0.0716 0.0885,-0.1322zm-0.4711 -0.2321l0.4727 0c-0.0063,-0.0711 -0.0245,-0.1247 -0.0542,-0.16 -0.0457,-0.0553 -0.105,-0.083 -0.1776,-0.083 -0.0659,0 -0.1214,0.022 -0.1663,0.0661 -0.0449,0.0441 -0.0697,0.1031 -0.0746,0.1769zm1.2539 -0.4988l0 -0.1652 0.1437 0 0 0.1652 -0.1437 0zm0 1.0035l0 -0.8465 0.1437 0 0 0.8465 -0.1437 0zm0.3622 0l0 -0.8465 0.1289 0 0 0.1203c0.0623,-0.0931 0.1521,-0.1396 0.2694,-0.1396 0.0512,0 0.098,0.0092 0.1407,0.0275 0.043,0.0185 0.0748,0.0424 0.096,0.0723 0.0215,0.0297 0.0362,0.0651 0.0449,0.1059 0.0052,0.0267 0.0079,0.0732 0.0079,0.1396l0 0.5205 -0.1436 0 0 -0.5151c0,-0.0582 -0.0055,-0.102 -0.0166,-0.1311 -0.0112,-0.0289 -0.0311,-0.052 -0.0594,-0.0692 -0.0285,-0.0174 -0.0617,-0.0261 -0.1001,-0.0261 -0.0612,0 -0.1137,0.0196 -0.1584,0.0583 -0.0443,0.0389 -0.0664,0.1123 -0.0664,0.2209l0 0.4623 -0.1433 0zm0.8505 -0.2528l0.1418 -0.0223c0.0079,0.0569 0.0302,0.1004 0.0667,0.1309 0.0362,0.0302 0.087,0.0454 0.1526,0.0454 0.0659,0 0.1148,-0.0136 0.1467,-0.0402 0.0318,-0.027 0.0479,-0.0585 0.0479,-0.0945 0,-0.0326 -0.0142,-0.0579 -0.0425,-0.0767 -0.0196,-0.0128 -0.0686,-0.0288 -0.1466,-0.0484 -0.1051,-0.0267 -0.1783,-0.0495 -0.2188,-0.0691 -0.0406,-0.0194 -0.0716,-0.0463 -0.0925,-0.0806 -0.021,-0.0343 -0.0316,-0.0721 -0.0316,-0.1134 0,-0.0379 0.0087,-0.0727 0.0261,-0.1048 0.0172,-0.0324 0.0408,-0.0591 0.0705,-0.0803 0.0223,-0.0163 0.0528,-0.0305 0.0912,-0.0419 0.0386,-0.0114 0.08,-0.0171 0.124,-0.0171 0.0664,0 0.1247,0.0098 0.175,0.0288 0.0503,0.0191 0.0873,0.0449 0.1113,0.0776 0.0239,0.0329 0.0403,0.0764 0.0492,0.1311l-0.1401 0.0193c-0.0065,-0.0435 -0.025,-0.0775 -0.0555,-0.102 -0.0305,-0.0245 -0.0737,-0.0367 -0.1295,-0.0367 -0.0659,0 -0.1129,0.0109 -0.141,0.0326 -0.0283,0.0218 -0.0424,0.0474 -0.0424,0.0765 0,0.0188 0.006,0.0354 0.0177,0.0503 0.0117,0.0155 0.0299,0.028 0.0549,0.0384 0.0145,0.0052 0.0566,0.0174 0.1268,0.0364 0.1015,0.0273 0.1723,0.0493 0.2123,0.0667 0.0402,0.0172 0.0718,0.0425 0.0947,0.0754 0.0228,0.0329 0.0342,0.0737 0.0342,0.1227 0,0.0479 -0.0141,0.0928 -0.0419,0.1352 -0.028,0.0422 -0.0683,0.0749 -0.1208,0.098 -0.0525,0.0231 -0.1121,0.0345 -0.1785,0.0345 -0.1102,0 -0.194,-0.0228 -0.2517,-0.0685 -0.0576,-0.0457 -0.0944,-0.1135 -0.1102,-0.2033zm1.1869 0.1244l0.0207 0.1268c-0.0403,0.0084 -0.0764,0.0128 -0.1083,0.0128 -0.0522,0 -0.0925,-0.0082 -0.1213,-0.0248 -0.0286,-0.0163 -0.0487,-0.0381 -0.0604,-0.065 -0.0117,-0.0267 -0.0177,-0.0833 -0.0177,-0.1693l0 -0.487 -0.1053 0 0 -0.1116 0.1053 0 0 -0.2098 0.1428 -0.086 0 0.2958 0.1442 0 0 0.1116 -0.1442 0 0 0.4949c0,0.0411 0.0025,0.0672 0.0074,0.0789 0.0051,0.0117 0.0133,0.021 0.0247,0.028 0.0115,0.0068 0.0278,0.0104 0.049,0.0104 0.0161,0 0.037,-0.0019 0.0631,-0.0057zm0.6928 0.0239c-0.0533,0.0452 -0.1045,0.077 -0.1534,0.0958 -0.0493,0.0185 -0.1021,0.0277 -0.1584,0.0277 -0.0931,0 -0.1644,-0.0225 -0.2144,-0.068 -0.0498,-0.0454 -0.0749,-0.1036 -0.0749,-0.1741 0,-0.0417 0.0093,-0.0795 0.0283,-0.1138 0.0188,-0.0342 0.0436,-0.0617 0.0741,-0.0824 0.0307,-0.0207 0.065,-0.0365 0.1034,-0.0471 0.028,-0.0073 0.0704,-0.0147 0.1273,-0.0215 0.1159,-0.0139 0.2014,-0.0302 0.256,-0.0495 0.0006,-0.0196 0.0009,-0.0321 0.0009,-0.0373 0,-0.0585 -0.0136,-0.0998 -0.0409,-0.1235 -0.0364,-0.0327 -0.0911,-0.0487 -0.1632,-0.0487 -0.0675,0 -0.1173,0.0117 -0.1497,0.0354 -0.0321,0.0236 -0.0558,0.0655 -0.0713,0.1257l-0.1401 -0.0194c0.0128,-0.0598 0.0337,-0.1085 0.0629,-0.1453 0.0291,-0.037 0.0715,-0.0655 0.1268,-0.0854 0.0552,-0.0199 0.1191,-0.0299 0.1921,-0.0299 0.0723,0 0.1308,0.0087 0.176,0.0256 0.0452,0.0171 0.0784,0.0383 0.0999,0.0642 0.0212,0.0258 0.0359,0.0582 0.0446,0.0977 0.0046,0.0244 0.0071,0.0685 0.0071,0.1322l0 0.1913c0,0.1336 0.003,0.2179 0.0092,0.253 0.006,0.0354 0.0183,0.0694 0.0362,0.1018l-0.1499 0c-0.0147,-0.0297 -0.0245,-0.0645 -0.0286,-0.1045zm-0.012 -0.3205c-0.0522,0.0215 -0.1303,0.0394 -0.2342,0.0544 -0.0591,0.0084 -0.101,0.018 -0.1252,0.0286 -0.0245,0.0106 -0.0435,0.0261 -0.0566,0.0468 -0.0133,0.0204 -0.0201,0.043 -0.0201,0.068 0,0.0384 0.0147,0.0702 0.0435,0.0958 0.0288,0.0253 0.0713,0.0381 0.1271,0.0381 0.0552,0 0.1045,-0.012 0.1475,-0.0362 0.0429,-0.0242 0.0748,-0.0574 0.0949,-0.0993 0.0155,-0.0324 0.0231,-0.0803 0.0231,-0.1434l0 -0.0528zm0.3644 0.425l0 -1.1687 0.1434 0 0 1.1687 -0.1434 0zm0.3627 0l0 -1.1687 0.1434 0 0 1.1687 -0.1434 0zm0.9183 -0.1045c-0.0533,0.0452 -0.1045,0.077 -0.1534,0.0958 -0.0493,0.0185 -0.1021,0.0277 -0.1584,0.0277 -0.0931,0 -0.1644,-0.0225 -0.2144,-0.068 -0.0498,-0.0454 -0.0749,-0.1036 -0.0749,-0.1741 0,-0.0417 0.0093,-0.0795 0.0283,-0.1138 0.0188,-0.0342 0.0436,-0.0617 0.0741,-0.0824 0.0307,-0.0207 0.065,-0.0365 0.1034,-0.0471 0.028,-0.0073 0.0704,-0.0147 0.1273,-0.0215 0.1159,-0.0139 0.2014,-0.0302 0.256,-0.0495 0.0006,-0.0196 0.0009,-0.0321 0.0009,-0.0373 0,-0.0585 -0.0136,-0.0998 -0.0409,-0.1235 -0.0364,-0.0327 -0.0911,-0.0487 -0.1632,-0.0487 -0.0675,0 -0.1173,0.0117 -0.1497,0.0354 -0.0321,0.0236 -0.0558,0.0655 -0.0713,0.1257l-0.1401 -0.0194c0.0128,-0.0598 0.0337,-0.1085 0.0629,-0.1453 0.0291,-0.037 0.0715,-0.0655 0.1268,-0.0854 0.0552,-0.0199 0.1191,-0.0299 0.1921,-0.0299 0.0723,0 0.1308,0.0087 0.176,0.0256 0.0452,0.0171 0.0784,0.0383 0.0999,0.0642 0.0212,0.0258 0.0359,0.0582 0.0446,0.0977 0.0046,0.0244 0.0071,0.0685 0.0071,0.1322l0 0.1913c0,0.1336 0.003,0.2179 0.0092,0.253 0.006,0.0354 0.0183,0.0694 0.0362,0.1018l-0.1499 0c-0.0147,-0.0297 -0.0245,-0.0645 -0.0286,-0.1045zm-0.012 -0.3205c-0.0522,0.0215 -0.1303,0.0394 -0.2342,0.0544 -0.0591,0.0084 -0.101,0.018 -0.1252,0.0286 -0.0245,0.0106 -0.0435,0.0261 -0.0566,0.0468 -0.0133,0.0204 -0.0201,0.043 -0.0201,0.068 0,0.0384 0.0147,0.0702 0.0435,0.0958 0.0288,0.0253 0.0713,0.0381 0.1271,0.0381 0.0552,0 0.1045,-0.012 0.1475,-0.0362 0.0429,-0.0242 0.0748,-0.0574 0.0949,-0.0993 0.0155,-0.0324 0.0231,-0.0803 0.0231,-0.1434l0 -0.0528zm0.6808 0.2966l0.0207 0.1268c-0.0403,0.0084 -0.0764,0.0128 -0.1083,0.0128 -0.0522,0 -0.0925,-0.0082 -0.1213,-0.0248 -0.0286,-0.0163 -0.0487,-0.0381 -0.0604,-0.065 -0.0117,-0.0267 -0.0177,-0.0833 -0.0177,-0.1693l0 -0.487 -0.1053 0 0 -0.1116 0.1053 0 0 -0.2098 0.1428 -0.086 0 0.2958 0.1442 0 0 0.1116 -0.1442 0 0 0.4949c0,0.0411 0.0025,0.0672 0.0074,0.0789 0.0051,0.0117 0.0133,0.021 0.0247,0.028 0.0115,0.0068 0.0278,0.0104 0.049,0.0104 0.0161,0 0.037,-0.0019 0.0631,-0.0057zm0.141 -0.8751l0 -0.1652 0.1437 0 0 0.1652 -0.1437 0zm0 1.0035l0 -0.8465 0.1437 0 0 0.8465 -0.1437 0z"/>
   <path id="_77869728" class="fil14" d="M33.0199 31.6608c0,-0.1567 0.0436,-0.2729 0.1309,-0.3483 0.0727,-0.0626 0.1614,-0.0941 0.2661,-0.0941 0.1165,0 0.2117,0.0381 0.2855,0.1145 0.074,0.0762 0.1107,0.1815 0.1107,0.3159 0,0.1092 -0.0163,0.1949 -0.049,0.2572 -0.0326,0.0626 -0.0802,0.111 -0.1425,0.1455 -0.0626,0.0346 -0.1306,0.0517 -0.2047,0.0517 -0.1183,0 -0.2141,-0.0378 -0.2873,-0.114 -0.0732,-0.0759 -0.1097,-0.1853 -0.1097,-0.3284zm0.1475 0c0,0.1086 0.0237,0.1897 0.071,0.2435 0.0474,0.0542 0.107,0.0811 0.1785,0.0811 0.0713,0 0.1306,-0.0272 0.178,-0.0813 0.0471,-0.0542 0.0707,-0.1369 0.0707,-0.2479 0,-0.1048 -0.0236,-0.1842 -0.0712,-0.2381 -0.0477,-0.0539 -0.1067,-0.0808 -0.1775,-0.0808 -0.0715,0 -0.1311,0.0269 -0.1785,0.0805 -0.0473,0.0536 -0.071,0.1347 -0.071,0.243zm0.8142 0.4234l0 -0.8465 0.1289 0 0 0.1203c0.0623,-0.0931 0.1521,-0.1396 0.2694,-0.1396 0.0512,0 0.098,0.0092 0.1407,0.0275 0.043,0.0185 0.0748,0.0424 0.096,0.0723 0.0215,0.0297 0.0362,0.0651 0.0449,0.1059 0.0052,0.0267 0.0079,0.0732 0.0079,0.1396l0 0.5205 -0.1436 0 0 -0.5151c0,-0.0582 -0.0055,-0.102 -0.0166,-0.1311 -0.0112,-0.0289 -0.0311,-0.052 -0.0594,-0.0692 -0.0285,-0.0174 -0.0617,-0.0261 -0.1001,-0.0261 -0.0612,0 -0.1137,0.0196 -0.1584,0.0583 -0.0443,0.0389 -0.0664,0.1123 -0.0664,0.2209l0 0.4623 -0.1433 0z"/>
  </g>
  <path class="fil15" d="M24.0666 40.7019c-2.333,0.9518 -6.059,-1.2608 -9.0914,-0.883 2.8551,-0.408 7.1689,1.7681 9.1028,0.8459 1.293,-1.0542 1.3653,-2.808 0.2732,-3.4306 -2.2045,-0.6555 -3.1925,-0.5069 -5.0592,-0.8248 -1.8899,-1.0644 -4.3148,-2.7395 -7.6162,-2.4197 -1.514,0.0624 -2.0359,1.9867 -2.0074,4.3993 0.0119,1.5877 0.4206,3.7007 1.2649,3.987 1.2538,-0.2615 6.7708,1.799 7.5063,2.0072 0.5109,-0.0285 4.2091,-0.943 6.4341,-1.6773 2.3462,-1.4388 4.8576,-3.3728 7.2863,-5.0592 -0.7308,-1.6882 -2.5953,-1.9066 -4.5093,-0.6874 -0.944,0.5957 -1.5855,1.0265 -2.5295,1.6223 -0.0474,1.1344 -0.5529,1.6987 -1.0546,2.1203z"/>
  <path class="fil16" d="M9.5035 38.939c0.2655,2.3388 0.5645,4.4692 1.7147,5.112 0.0085,0.0287 -0.0114,0.0572 -0.0397,0.0572 -1.0441,0 -2.0883,0 -3.1323,0 -1.1039,-2.6368 -2.0343,-8.6338 0.33,-10.7784 0.8803,0.0272 1.7605,0.0546 2.6408,0.0818 0.0344,0.0008 0.0279,-0.0004 0.001,0.0172 -1.1374,0.7537 -1.6047,2.5887 -1.5145,5.5102z"/>
  <path class="fil17" d="M8.0851 44.0621c-0.925,-1.6864 -1.9493,-8.3159 0.2833,-10.7381 0.0339,-0.0353 -0.022,-0.0326 -0.0673,-0.0135 -1.4797,0.6298 -2.2142,3.1773 -1.9592,6.5969 0.1599,1.8799 0.7688,4.9632 1.9021,5.2299 0.5973,0.0005 0.8816,-0.373 1.0376,-1.0178 -0.3988,-0.0255 -0.7977,-0.0319 -1.1965,-0.0574z"/>
  <path class="fil18" d="M23.7583 40.8325c-2.6354,0.4443 -4.905,-1.1017 -8.1143,-1.167 2.8636,-0.0314 5.6223,1.0946 7.7615,0.787 1.1473,-0.3741 1.4669,-1.2268 1.6011,-2.1168 0.17,0.8616 0.0582,1.6807 -1.2483,2.4968z"/>
  <path class="fil19 str7" d="M21.2344 38.0372c0.4425,-1.5616 2.0164,-0.8784 3.3922,-0.6512 0.0371,0.9153 -0.0457,1.7624 -0.5155,2.3881 -2.4715,0.1902 -3.093,-0.606 -2.8767,-1.7369z"/>
  <path class="fil20" d="M21.1394 38.8377c-0.1628,-0.847 0.0996,-1.4232 0.7327,-1.7639 -1.2156,0.1337 -2.3123,0.0292 -3.3108,-0.2714 -2.5388,-1.3877 -4.5623,-2.0225 -6.1603,-2.0353 1.8477,0.5705 3.7336,1.4461 5.7261,3.1751 0.8759,0.3838 1.9189,0.6565 3.0123,0.8955z"/>
  <path class="fil21" d="M11.5249 33.9898c-2.7801,1.7162 -2.1005,7.62 0.36,8.3962 0.0376,0.6053 -0.1527,1.8012 -0.6767,1.7642 -1.0228,-0.3083 -1.7279,-3.7279 -1.8072,-5.3431 -0.2276,-1.995 0.669,-4.7941 1.2847,-5.341 0.2923,-0.1287 0.6935,-0.0077 0.8392,0.5237z"/>
  <path class="fil22" d="M19.0744 36.6593c-0.415,0.5881 -0.6683,1.2165 -0.8322,1.8669 -0.0361,0.1431 -0.0121,0.0017 -0.0068,-0.0634 0.0917,-1.1022 -0.1391,-1.0795 0.8007,-1.8015 0.0615,-0.0472 0.1078,-0.1001 0.0383,-0.002z"/>
  <polygon class="fil23" points="22.1978,37.2366 22.0893,37.4537 24.5859,37.7251 24.6131,37.508 "/>
  <path class="fil24 str7" d="M31.6147 36.8838c-0.5971,0.4342 -1.1941,0.8684 -1.7912,1.3026 -0.2267,0.3455 -0.2979,0.722 -0.1628,1.1398l2.4153 -1.6826 -0.4613 -0.7598z"/>
  <path class="fil25" d="M8.3574 33.3559c0.5157,0.009 1.0313,0.0181 1.5469,0.0271 -2.6706,1.9312 -3.0739,5.2967 -2.1981,9.4712 -0.8686,-2.4335 -0.9952,-4.8668 -0.4885,-7.3002 0.1606,-0.8423 0.5447,-1.5728 1.1397,-2.1981z"/>
  <path class="fil26 str8" d="M8.9545 42.6642c0.2697,0 0.4884,0.2673 0.4884,0.597 0,0.3297 -0.2187,0.5971 -0.4884,0.5971 -0.2698,0 -0.4885,-0.2674 -0.4885,-0.5971 0,-0.3297 0.2187,-0.597 0.4885,-0.597z"/>
  <path class="fil27" d="M11.3969 34.0072c1.2012,-0.1067 2.227,-0.038 3.0666,0.2171 -3.4245,-0.0397 -4.3255,3.2413 -4.2023,7.473 -0.9687,-3.413 -0.8929,-7.1192 1.1357,-7.6901z"/>
  <path class="fil28" d="M10.7617 42.5521c-0.8655,-0.2927 -0.5967,-1.9642 -0.4382,-3.061 0.8655,1.6321 4.9826,2.9014 8.2217,3.6303 3.2254,-0.2339 5.5812,-1.409 6.2118,-1.5427 2.4498,-1.3941 4.2894,-3.6481 6.5248,-5.0121 0.1176,0.0633 0.2153,0.2268 0.3329,0.2901 -0.5971,0.4522 -1.1941,0.9046 -1.7912,1.3569 -0.2967,0.3681 -0.3274,0.7808 -0.1899,1.2212 -1.6238,1.169 -3.1674,2.2413 -4.6677,3.2253 -2.0293,0.7434 -4.2612,1.1946 -6.5685,1.854 -2.738,-0.8977 -5.2682,-2.0706 -6.3445,-2.0723 -0.996,-0.0014 -1.0182,0.1898 -1.2912,0.1103z"/>
  <path class="fil29" d="M10.3114 39.5976c0.0058,-0.7559 0.0562,-1.4513 0.2795,-2.0625 0.8136,1.3297 2.0437,2.3536 4.5239,2.3068 2.4474,-0.532 6.2243,1.5898 8.9012,0.8955 0.6412,-0.5075 1.0415,-1.2833 1.2484,-2.2253 1.9565,-1.2027 3.9309,-3.302 6.0518,-1.954 -2.3122,1.7327 -4.7175,4.2239 -6.8116,5.102 -1.6385,0.7668 -3.7418,1.2927 -6.0317,1.4805 -3.9178,-0.9613 -7.1759,-1.9245 -8.1615,-3.543z"/>
  <path class="fil30" d="M25.191 38.5663c0.407,-0.2714 0.6162,-0.434 1.0232,-0.7054 0.1315,0.8363 -0.2942,2.2121 -1.3569,2.9579 -2.568,1.6331 -6.3663,-0.4593 -9.7968,-0.8956 1.8046,-0.9843 7.3028,2.4254 9.4249,0.4071 0.3876,-0.3925 0.5983,-1.0099 0.7056,-1.764z"/>
  <path class="fil31" d="M6.3655 38.9874c-0.1262,-2.5775 0.4716,-4.7546 1.9377,-5.74 -1.2484,0 -2.4967,0 -3.7451,0 -2.0621,1.4295 -1.8369,10.0225 0.1629,11.9134 1.1703,0 2.3408,0 3.5112,0 0.059,0 0.0451,0.0015 -0.0009,-0.0215 -1.0945,-0.5511 -1.6248,-2.3583 -1.8658,-6.1519z"/>
  <path class="fil17" d="M7.299 33.2745c-2.0744,2.7142 -1.7729,7.272 -0.3551,11.6604 0.0139,0.043 0.0525,0.1396 0.004,0.0371 -2.0787,-4.3513 -2.0895,-7.6093 -0.7072,-11.6975 0.3528,0 0.7056,0 1.0583,0z"/>
  <path class="fil32" d="M10.6722 35.9464c-0.0384,0.5395 -0.077,1.0788 -0.1155,1.6182 0.8277,1.9021 2.4933,2.4214 4.5541,2.2887 0.6473,-0.0386 1.2946,-0.0771 1.9419,-0.1156 -3.0383,-0.3865 -5.1302,-1.6783 -6.3805,-3.7913z"/>
  <path class="fil33" d="M23.6806 40.2143c-0.9774,0.9672 -5.5906,-1.511 -8.8563,-0.3053 -0.0938,0.0345 -2.2692,-0.3224 -1.8039,-0.4246 0.1187,-0.0261 -0.0556,0.0102 0.0172,-0.0165 2.214,-1.9865 7.0333,0.3919 10.6438,0.7294 0.0804,0.0015 0.0548,-0.0381 -0.0008,0.017z"/>
  <path class="fil34" d="M11.042 36.4668c-1.2418,2.5029 -0.7308,4.6109 -0.3649,5.8548 -1.0649,-1.0961 -1.4788,-5.4698 -0.7133,-6.9132 0.8585,-1.6191 0.376,0.1692 1.0782,1.0584z"/>
  <path class="fil35" d="M10.5002 42.5568c-1.3881,-3.0963 -1.268,-6.9446 0.4333,-8.3055 0.2757,0.4741 1.0605,0.0848 1.3362,0.5589 -2.0784,1.2656 -1.9504,5.7323 -0.6336,7.7041 -0.2976,-0.0772 -0.8382,0.1197 -1.1359,0.0425z"/>
  <path class="fil36" d="M8.2232 45.1585c-0.1912,-0.424 -0.1668,-0.8265 -0.0922,-1.0844 0.437,0.019 0.7645,0.038 1.1577,0.057 -0.1912,0.6755 -0.5191,1.0055 -1.0655,1.0274z"/>
  <path class="fil37" d="M15.9865 40.6233c-0.1308,-0.3889 -0.8911,-0.5008 -1.6259,-0.2854 0.1754,-0.4393 0.9612,-0.6175 2.1185,-0.5612 -0.3434,0.2572 -0.6178,0.5393 -0.4926,0.8466z"/>
  <path class="fil20" d="M15.9131 40.502c-0.3795,-0.1987 -1.1407,-0.1726 -1.6835,-0.1355 0.3232,-0.328 1.6011,-0.2193 1.6835,0.1355z"/>
  <path class="fil38" d="M10.8993 41.2304c-0.0628,-0.5497 -0.1257,-1.0994 -0.1885,-1.6492 2.4817,0.9895 4.9632,2.2082 7.4449,3.1977 2.246,-0.2002 4.492,-0.7665 6.7381,-1.5956 1.8848,-1.4764 3.7695,-2.9529 5.6543,-4.4293 0.267,-0.0314 0.5741,-0.163 0.8412,-0.1943 -2.0261,1.7748 -4.0924,3.6498 -6.1186,5.4246 -2.3716,0.9793 -4.7434,1.4239 -7.115,1.6492 -2.491,-0.6568 -4.8914,-1.4947 -7.2564,-2.4031z"/>
  <path class="fil39" d="M27.9249 36.7433c-0.7676,0.5007 -1.0346,0.741 -1.8022,1.2417 -0.0534,0.3805 -0.087,1.4419 -0.4007,1.9226 1.7881,-1.0957 4.2263,-3.484 5.5673,-3.3043 -0.6176,-0.7443 -2.2981,-0.5062 -3.3644,0.14z"/>
  <g id="_77876736">
   <path id="_77864928" class="fil14" d="M23.526 11.0484l0 -1.0307 -0.385 0 0 -0.138 0.9262 0 0 0.138 -0.3867 0 0 1.0307 -0.1545 0zm0.6816 0l0 -1.1687 0.1433 0 0 0.4193c0.067,-0.0775 0.1516,-0.1164 0.2536,-0.1164 0.0626,0 0.117,0.0125 0.1633,0.0373 0.0463,0.0244 0.0795,0.0587 0.0993,0.1023 0.0199,0.0435 0.03,0.1069 0.03,0.1896l0 0.5366 -0.1437 0 0 -0.5366c0,-0.0715 -0.0155,-0.1238 -0.0465,-0.1564 -0.0311,-0.0327 -0.0751,-0.0493 -0.132,-0.0493 -0.0425,0 -0.0825,0.0112 -0.12,0.0332 -0.0376,0.022 -0.0642,0.052 -0.08,0.0898 -0.0161,0.0376 -0.024,0.0898 -0.024,0.1562l0 0.4631 -0.1433 0zm1.4873 -0.2726l0.1482 0.0182c-0.0234,0.0868 -0.0666,0.154 -0.1297,0.2019 -0.0634,0.0476 -0.1443,0.0715 -0.2425,0.0715 -0.1238,0 -0.222,-0.038 -0.2944,-0.1142 -0.0726,-0.0762 -0.1088,-0.1832 -0.1088,-0.3208 0,-0.1426 0.0367,-0.2531 0.1099,-0.3317 0.0735,-0.0787 0.1684,-0.1181 0.2854,-0.1181 0.1132,0 0.2057,0.0386 0.2773,0.1156 0.0718,0.077 0.1077,0.1856 0.1077,0.3252 0,0.0087 -0.0002,0.0215 -0.0008,0.0383l-0.6312 0c0.0051,0.0931 0.0315,0.1644 0.0789,0.2136 0.0473,0.0496 0.1061,0.0743 0.1768,0.0743 0.0525,0 0.0974,-0.0138 0.1347,-0.0416 0.0373,-0.0275 0.0667,-0.0716 0.0885,-0.1322zm-0.4711 -0.2321l0.4727 0c-0.0063,-0.0711 -0.0245,-0.1247 -0.0542,-0.16 -0.0457,-0.0553 -0.105,-0.083 -0.1776,-0.083 -0.0659,0 -0.1214,0.022 -0.1663,0.0661 -0.0449,0.0441 -0.0697,0.1031 -0.0746,0.1769zm1.2716 0.5047l0 -1.1687 0.4024 0c0.0909,0 0.1603,0.0057 0.2082,0.0169 0.0669,0.0152 0.1241,0.0433 0.1714,0.0835 0.0615,0.0523 0.1077,0.1187 0.1382,0.1998 0.0308,0.081 0.046,0.1736 0.046,0.2778 0,0.0887 -0.0103,0.1673 -0.0313,0.2359 -0.0207,0.0686 -0.0471,0.1254 -0.0797,0.1703 -0.0324,0.0449 -0.0678,0.0803 -0.1064,0.1059 -0.0384,0.0258 -0.0849,0.0454 -0.1393,0.0587 -0.0547,0.0134 -0.1173,0.0199 -0.1878,0.0199l-0.4217 0zm0.1545 -0.138l0.2496 0c0.077,0 0.1376,-0.007 0.1814,-0.0215 0.0438,-0.0144 0.0787,-0.0345 0.1048,-0.0606 0.0367,-0.0365 0.0653,-0.086 0.0857,-0.1478 0.0204,-0.062 0.0308,-0.1368 0.0308,-0.2253 0,-0.1222 -0.0202,-0.216 -0.0602,-0.2816 -0.0402,-0.0658 -0.089,-0.1097 -0.1464,-0.132 -0.0413,-0.016 -0.1083,-0.0239 -0.2,-0.0239l-0.2457 0 0 0.8927zm0.9526 -0.2854c0,-0.1567 0.0436,-0.2729 0.1309,-0.3483 0.0727,-0.0626 0.1614,-0.0941 0.2661,-0.0941 0.1165,0 0.2117,0.0381 0.2855,0.1145 0.074,0.0762 0.1107,0.1815 0.1107,0.3159 0,0.1092 -0.0163,0.1949 -0.049,0.2572 -0.0326,0.0626 -0.0802,0.111 -0.1425,0.1455 -0.0626,0.0346 -0.1306,0.0517 -0.2047,0.0517 -0.1183,0 -0.2141,-0.0378 -0.2873,-0.114 -0.0732,-0.0759 -0.1097,-0.1853 -0.1097,-0.3284zm0.1475 0c0,0.1086 0.0237,0.1897 0.071,0.2435 0.0474,0.0542 0.107,0.0811 0.1785,0.0811 0.0713,0 0.1306,-0.0272 0.178,-0.0813 0.0471,-0.0542 0.0707,-0.1369 0.0707,-0.2479 0,-0.1048 -0.0236,-0.1842 -0.0712,-0.2381 -0.0477,-0.0539 -0.1067,-0.0808 -0.1775,-0.0808 -0.0715,0 -0.1311,0.0269 -0.1785,0.0805 -0.0473,0.0536 -0.071,0.1347 -0.071,0.243zm1.3665 0.1132l0.141 0.0185c-0.0153,0.0971 -0.0547,0.1733 -0.1184,0.2283 -0.0634,0.055 -0.1415,0.0824 -0.234,0.0824 -0.1156,0 -0.209,-0.0378 -0.2792,-0.1134 -0.0705,-0.0757 -0.1058,-0.1842 -0.1058,-0.3257 0,-0.0914 0.0152,-0.1714 0.0454,-0.24 0.0305,-0.0686 0.0765,-0.12 0.1385,-0.1543 0.0618,-0.0343 0.1293,-0.0514 0.2019,-0.0514 0.092,0 0.1674,0.0234 0.2256,0.0699 0.0585,0.0465 0.096,0.1124 0.1126,0.1981l-0.1396 0.0215c-0.0133,-0.0569 -0.0367,-0.0996 -0.0704,-0.1284 -0.0338,-0.0286 -0.0746,-0.043 -0.1225,-0.043 -0.0724,0 -0.1311,0.0258 -0.1763,0.0778 -0.0452,0.0517 -0.0678,0.1336 -0.0678,0.2457 0,0.1137 0.0218,0.1965 0.0656,0.2482 0.0436,0.0514 0.1004,0.0772 0.1706,0.0772 0.0564,0 0.1032,-0.0174 0.141,-0.0519 0.0378,-0.0346 0.0617,-0.0877 0.0718,-0.1595zm0.8188 0.3102l0 -0.1243c-0.0662,0.0957 -0.1557,0.1433 -0.2689,0.1433 -0.0498,0 -0.0966,-0.0095 -0.1398,-0.0285 -0.0433,-0.0191 -0.0754,-0.0433 -0.0964,-0.0721 -0.0212,-0.0291 -0.0359,-0.0645 -0.0443,-0.1064 -0.0057,-0.0283 -0.0087,-0.0729 -0.0087,-0.1342l0 -0.5243 0.1434 0 0 0.4694c0,0.0751 0.003,0.1254 0.0087,0.1515 0.0092,0.0379 0.0283,0.0672 0.0574,0.089 0.0294,0.0215 0.0656,0.0321 0.1086,0.0321 0.043,0 0.0832,-0.0109 0.1211,-0.0329 0.0378,-0.0221 0.0644,-0.0523 0.08,-0.0901 0.0157,-0.0381 0.0236,-0.0933 0.0236,-0.1654l0 -0.4536 0.1434 0 0 0.8465 -0.1281 0zm0.3532 0l0 -0.8465 0.1281 0 0 0.1186c0.0267,-0.0413 0.062,-0.0748 0.1061,-0.0998 0.0441,-0.0253 0.0944,-0.0381 0.1508,-0.0381 0.0626,0 0.114,0.013 0.154,0.0392 0.0403,0.0261 0.0686,0.0623 0.0849,0.1091 0.0672,-0.0988 0.1543,-0.1483 0.2615,-0.1483 0.084,0 0.1485,0.0234 0.1937,0.0699 0.0452,0.0465 0.0678,0.1181 0.0678,0.2147l0 0.5812 -0.1426 0 0 -0.5333c0,-0.0574 -0.0047,-0.0988 -0.0139,-0.1241 -0.0095,-0.025 -0.0264,-0.0454 -0.0506,-0.0609 -0.0245,-0.0153 -0.0533,-0.0232 -0.0863,-0.0232 -0.0596,0 -0.1088,0.0199 -0.1483,0.0596 -0.0391,0.0395 -0.059,0.1029 -0.059,0.1899l0 0.492 -0.1434 0 0 -0.5499c0,-0.064 -0.0117,-0.1118 -0.0351,-0.1437 -0.0234,-0.0318 -0.0615,-0.0479 -0.1148,-0.0479 -0.0403,0 -0.0776,0.0106 -0.1119,0.0321 -0.0343,0.0213 -0.0593,0.0523 -0.0745,0.0931 -0.0155,0.0411 -0.0232,0.1001 -0.0232,0.1771l0 0.4392 -0.1433 0zm1.9393 -0.2726l0.1482 0.0182c-0.0234,0.0868 -0.0666,0.154 -0.1297,0.2019 -0.0634,0.0476 -0.1443,0.0715 -0.2425,0.0715 -0.1238,0 -0.222,-0.038 -0.2944,-0.1142 -0.0726,-0.0762 -0.1088,-0.1832 -0.1088,-0.3208 0,-0.1426 0.0367,-0.2531 0.1099,-0.3317 0.0735,-0.0787 0.1684,-0.1181 0.2854,-0.1181 0.1132,0 0.2057,0.0386 0.2773,0.1156 0.0718,0.077 0.1077,0.1856 0.1077,0.3252 0,0.0087 -0.0002,0.0215 -0.0008,0.0383l-0.6312 0c0.0051,0.0931 0.0315,0.1644 0.0789,0.2136 0.0473,0.0496 0.1061,0.0743 0.1768,0.0743 0.0525,0 0.0974,-0.0138 0.1347,-0.0416 0.0373,-0.0275 0.0667,-0.0716 0.0885,-0.1322zm-0.4711 -0.2321l0.4727 0c-0.0063,-0.0711 -0.0245,-0.1247 -0.0542,-0.16 -0.0457,-0.0553 -0.105,-0.083 -0.1776,-0.083 -0.0659,0 -0.1214,0.022 -0.1663,0.0661 -0.0449,0.0441 -0.0697,0.1031 -0.0746,0.1769zm0.7998 0.5047l0 -0.8465 0.1289 0 0 0.1203c0.0623,-0.0931 0.1521,-0.1396 0.2694,-0.1396 0.0512,0 0.098,0.0092 0.1407,0.0275 0.043,0.0185 0.0748,0.0424 0.096,0.0723 0.0215,0.0297 0.0362,0.0651 0.0449,0.1059 0.0052,0.0267 0.0079,0.0732 0.0079,0.1396l0 0.5205 -0.1436 0 0 -0.5151c0,-0.0582 -0.0055,-0.102 -0.0166,-0.1311 -0.0112,-0.0289 -0.0311,-0.052 -0.0594,-0.0692 -0.0285,-0.0174 -0.0617,-0.0261 -0.1001,-0.0261 -0.0612,0 -0.1137,0.0196 -0.1584,0.0583 -0.0443,0.0389 -0.0664,0.1123 -0.0664,0.2209l0 0.4623 -0.1433 0zm1.2211 -0.1284l0.0207 0.1268c-0.0403,0.0084 -0.0764,0.0128 -0.1083,0.0128 -0.0522,0 -0.0925,-0.0082 -0.1213,-0.0248 -0.0286,-0.0163 -0.0487,-0.0381 -0.0604,-0.065 -0.0117,-0.0267 -0.0177,-0.0833 -0.0177,-0.1693l0 -0.487 -0.1053 0 0 -0.1116 0.1053 0 0 -0.2098 0.1428 -0.086 0 0.2958 0.1442 0 0 0.1116 -0.1442 0 0 0.4949c0,0.0411 0.0025,0.0672 0.0074,0.0789 0.0051,0.0117 0.0133,0.021 0.0247,0.028 0.0115,0.0068 0.0278,0.0104 0.049,0.0104 0.0161,0 0.037,-0.0019 0.0631,-0.0057zm0.083 -0.1244l0.1418 -0.0223c0.0079,0.0569 0.0302,0.1004 0.0667,0.1309 0.0362,0.0302 0.087,0.0454 0.1526,0.0454 0.0659,0 0.1148,-0.0136 0.1467,-0.0402 0.0318,-0.027 0.0479,-0.0585 0.0479,-0.0945 0,-0.0326 -0.0142,-0.0579 -0.0425,-0.0767 -0.0196,-0.0128 -0.0686,-0.0288 -0.1466,-0.0484 -0.1051,-0.0267 -0.1783,-0.0495 -0.2188,-0.0691 -0.0406,-0.0194 -0.0716,-0.0463 -0.0925,-0.0806 -0.021,-0.0343 -0.0316,-0.0721 -0.0316,-0.1134 0,-0.0379 0.0087,-0.0727 0.0261,-0.1048 0.0172,-0.0324 0.0408,-0.0591 0.0705,-0.0803 0.0223,-0.0163 0.0528,-0.0305 0.0912,-0.0419 0.0386,-0.0114 0.08,-0.0171 0.124,-0.0171 0.0664,0 0.1247,0.0098 0.175,0.0288 0.0503,0.0191 0.0873,0.0449 0.1113,0.0776 0.0239,0.0329 0.0403,0.0764 0.0492,0.1311l-0.1401 0.0193c-0.0065,-0.0435 -0.025,-0.0775 -0.0555,-0.102 -0.0305,-0.0245 -0.0737,-0.0367 -0.1295,-0.0367 -0.0659,0 -0.1129,0.0109 -0.141,0.0326 -0.0283,0.0218 -0.0424,0.0474 -0.0424,0.0765 0,0.0188 0.006,0.0354 0.0177,0.0503 0.0117,0.0155 0.0299,0.028 0.0549,0.0384 0.0145,0.0052 0.0566,0.0174 0.1268,0.0364 0.1015,0.0273 0.1723,0.0493 0.2123,0.0667 0.0402,0.0172 0.0718,0.0425 0.0947,0.0754 0.0228,0.0329 0.0342,0.0737 0.0342,0.1227 0,0.0479 -0.0141,0.0928 -0.0419,0.1352 -0.028,0.0422 -0.0683,0.0749 -0.1208,0.098 -0.0525,0.0231 -0.1121,0.0345 -0.1785,0.0345 -0.1102,0 -0.194,-0.0228 -0.2517,-0.0685 -0.0576,-0.0457 -0.0944,-0.1135 -0.1102,-0.2033zm-10.6502 4.3019l0 -0.8465 0.1281 0 0 0.1186c0.0267,-0.0413 0.062,-0.0748 0.1061,-0.0998 0.0441,-0.0253 0.0944,-0.0381 0.1508,-0.0381 0.0626,0 0.114,0.013 0.154,0.0392 0.0403,0.0261 0.0686,0.0623 0.0849,0.1091 0.0672,-0.0988 0.1543,-0.1483 0.2615,-0.1483 0.084,0 0.1485,0.0234 0.1937,0.0699 0.0452,0.0465 0.0678,0.1181 0.0678,0.2147l0 0.5812 -0.1426 0 0 -0.5333c0,-0.0574 -0.0047,-0.0988 -0.0139,-0.1241 -0.0095,-0.025 -0.0264,-0.0454 -0.0506,-0.0609 -0.0245,-0.0153 -0.0533,-0.0232 -0.0863,-0.0232 -0.0596,0 -0.1088,0.0199 -0.1483,0.0596 -0.0391,0.0395 -0.059,0.1029 -0.059,0.1899l0 0.492 -0.1434 0 0 -0.5499c0,-0.064 -0.0117,-0.1118 -0.0351,-0.1437 -0.0234,-0.0318 -0.0615,-0.0479 -0.1148,-0.0479 -0.0403,0 -0.0776,0.0106 -0.1119,0.0321 -0.0343,0.0213 -0.0593,0.0523 -0.0745,0.0931 -0.0155,0.0411 -0.0232,0.1001 -0.0232,0.1771l0 0.4392 -0.1433 0zm1.3063 -0.4234c0,-0.1567 0.0436,-0.2729 0.1309,-0.3483 0.0727,-0.0626 0.1614,-0.0941 0.2661,-0.0941 0.1165,0 0.2117,0.0381 0.2855,0.1145 0.074,0.0762 0.1107,0.1815 0.1107,0.3159 0,0.1092 -0.0163,0.1949 -0.049,0.2572 -0.0326,0.0626 -0.0802,0.111 -0.1425,0.1455 -0.0626,0.0346 -0.1306,0.0517 -0.2047,0.0517 -0.1183,0 -0.2141,-0.0378 -0.2873,-0.114 -0.0732,-0.0759 -0.1097,-0.1853 -0.1097,-0.3284zm0.1475 0c0,0.1086 0.0237,0.1897 0.071,0.2435 0.0474,0.0542 0.107,0.0811 0.1785,0.0811 0.0713,0 0.1306,-0.0272 0.178,-0.0813 0.0471,-0.0542 0.0707,-0.1369 0.0707,-0.2479 0,-0.1048 -0.0236,-0.1842 -0.0712,-0.2381 -0.0477,-0.0539 -0.1067,-0.0808 -0.1775,-0.0808 -0.0715,0 -0.1311,0.0269 -0.1785,0.0805 -0.0473,0.0536 -0.071,0.1347 -0.071,0.243zm1.3632 0.4234l0 -0.1069c-0.0536,0.084 -0.1325,0.1259 -0.2367,0.1259 -0.0675,0 -0.1295,-0.0185 -0.1861,-0.0557 -0.0566,-0.037 -0.1004,-0.089 -0.1317,-0.1559 -0.031,-0.0667 -0.0465,-0.1432 -0.0465,-0.23 0,-0.0843 0.0141,-0.1611 0.0422,-0.2299 0.0283,-0.0688 0.0704,-0.1216 0.1268,-0.1581 0.0563,-0.0367 0.1194,-0.0552 0.1891,-0.0552 0.0508,0 0.0963,0.0109 0.136,0.0324 0.04,0.0215 0.0724,0.0495 0.0974,0.084l0 -0.4193 0.1426 0 0 1.1687 -0.1331 0zm-0.4535 -0.4226c0,0.1086 0.0228,0.1897 0.0685,0.2433 0.0457,0.0536 0.0996,0.0805 0.1619,0.0805 0.0626,0 0.1159,-0.0258 0.1598,-0.077 0.0438,-0.0511 0.0658,-0.1295 0.0658,-0.2348 0,-0.1159 -0.0223,-0.2008 -0.0669,-0.255 -0.0447,-0.0544 -0.0996,-0.0813 -0.1652,-0.0813 -0.0637,0 -0.117,0.0261 -0.1597,0.0781 -0.0427,0.0519 -0.0642,0.1341 -0.0642,0.2462zm1.3673 0.4226l0 -0.1243c-0.0662,0.0957 -0.1557,0.1433 -0.2689,0.1433 -0.0498,0 -0.0966,-0.0095 -0.1398,-0.0285 -0.0433,-0.0191 -0.0754,-0.0433 -0.0964,-0.0721 -0.0212,-0.0291 -0.0359,-0.0645 -0.0443,-0.1064 -0.0057,-0.0283 -0.0087,-0.0729 -0.0087,-0.1342l0 -0.5243 0.1434 0 0 0.4694c0,0.0751 0.003,0.1254 0.0087,0.1515 0.0092,0.0379 0.0283,0.0672 0.0574,0.089 0.0294,0.0215 0.0656,0.0321 0.1086,0.0321 0.043,0 0.0832,-0.0109 0.1211,-0.0329 0.0378,-0.0221 0.0644,-0.0523 0.08,-0.0901 0.0157,-0.0381 0.0236,-0.0933 0.0236,-0.1654l0 -0.4536 0.1434 0 0 0.8465 -0.1281 0zm0.3499 0l0 -1.1687 0.1434 0 0 1.1687 -0.1434 0zm0.9453 -0.2726l0.1482 0.0182c-0.0234,0.0868 -0.0666,0.154 -0.1297,0.2019 -0.0634,0.0476 -0.1443,0.0715 -0.2425,0.0715 -0.1238,0 -0.222,-0.038 -0.2944,-0.1142 -0.0726,-0.0762 -0.1088,-0.1832 -0.1088,-0.3208 0,-0.1426 0.0367,-0.2531 0.1099,-0.3317 0.0735,-0.0787 0.1684,-0.1181 0.2854,-0.1181 0.1132,0 0.2057,0.0386 0.2773,0.1156 0.0718,0.077 0.1077,0.1856 0.1077,0.3252 0,0.0087 -0.0002,0.0215 -0.0008,0.0383l-0.6312 0c0.0051,0.0931 0.0315,0.1644 0.0789,0.2136 0.0473,0.0496 0.1061,0.0743 0.1768,0.0743 0.0525,0 0.0974,-0.0138 0.1347,-0.0416 0.0373,-0.0275 0.0667,-0.0716 0.0885,-0.1322zm-0.4711 -0.2321l0.4727 0c-0.0063,-0.0711 -0.0245,-0.1247 -0.0542,-0.16 -0.0457,-0.0553 -0.105,-0.083 -0.1776,-0.083 -0.0659,0 -0.1214,0.022 -0.1663,0.0661 -0.0449,0.0441 -0.0697,0.1031 -0.0746,0.1769zm1.2501 0.5047l0 -1.1687 0.1434 0 0 1.1687 -0.1434 0zm0.9453 -0.2726l0.1482 0.0182c-0.0234,0.0868 -0.0666,0.154 -0.1297,0.2019 -0.0634,0.0476 -0.1443,0.0715 -0.2425,0.0715 -0.1238,0 -0.222,-0.038 -0.2944,-0.1142 -0.0726,-0.0762 -0.1088,-0.1832 -0.1088,-0.3208 0,-0.1426 0.0367,-0.2531 0.1099,-0.3317 0.0735,-0.0787 0.1684,-0.1181 0.2854,-0.1181 0.1132,0 0.2057,0.0386 0.2773,0.1156 0.0718,0.077 0.1077,0.1856 0.1077,0.3252 0,0.0087 -0.0002,0.0215 -0.0008,0.0383l-0.6312 0c0.0051,0.0931 0.0315,0.1644 0.0789,0.2136 0.0473,0.0496 0.1061,0.0743 0.1768,0.0743 0.0525,0 0.0974,-0.0138 0.1347,-0.0416 0.0373,-0.0275 0.0667,-0.0716 0.0885,-0.1322zm-0.4711 -0.2321l0.4727 0c-0.0063,-0.0711 -0.0245,-0.1247 -0.0542,-0.16 -0.0457,-0.0553 -0.105,-0.083 -0.1776,-0.083 -0.0659,0 -0.1214,0.022 -0.1663,0.0661 -0.0449,0.0441 -0.0697,0.1031 -0.0746,0.1769zm1.1129 0.3763l0.0207 0.1268c-0.0403,0.0084 -0.0764,0.0128 -0.1083,0.0128 -0.0522,0 -0.0925,-0.0082 -0.1213,-0.0248 -0.0286,-0.0163 -0.0487,-0.0381 -0.0604,-0.065 -0.0117,-0.0267 -0.0177,-0.0833 -0.0177,-0.1693l0 -0.487 -0.1053 0 0 -0.1116 0.1053 0 0 -0.2098 0.1428 -0.086 0 0.2958 0.1442 0 0 0.1116 -0.1442 0 0 0.4949c0,0.0411 0.0025,0.0672 0.0074,0.0789 0.0051,0.0117 0.0133,0.021 0.0247,0.028 0.0115,0.0068 0.0278,0.0104 0.049,0.0104 0.0161,0 0.037,-0.0019 0.0631,-0.0057zm0.083 -0.1244l0.1418 -0.0223c0.0079,0.0569 0.0302,0.1004 0.0667,0.1309 0.0362,0.0302 0.087,0.0454 0.1526,0.0454 0.0659,0 0.1148,-0.0136 0.1467,-0.0402 0.0318,-0.027 0.0479,-0.0585 0.0479,-0.0945 0,-0.0326 -0.0142,-0.0579 -0.0425,-0.0767 -0.0196,-0.0128 -0.0686,-0.0288 -0.1466,-0.0484 -0.1051,-0.0267 -0.1783,-0.0495 -0.2188,-0.0691 -0.0406,-0.0194 -0.0716,-0.0463 -0.0925,-0.0806 -0.021,-0.0343 -0.0316,-0.0721 -0.0316,-0.1134 0,-0.0379 0.0087,-0.0727 0.0261,-0.1048 0.0172,-0.0324 0.0408,-0.0591 0.0705,-0.0803 0.0223,-0.0163 0.0528,-0.0305 0.0912,-0.0419 0.0386,-0.0114 0.08,-0.0171 0.124,-0.0171 0.0664,0 0.1247,0.0098 0.175,0.0288 0.0503,0.0191 0.0873,0.0449 0.1113,0.0776 0.0239,0.0329 0.0403,0.0764 0.0492,0.1311l-0.1401 0.0193c-0.0065,-0.0435 -0.025,-0.0775 -0.0555,-0.102 -0.0305,-0.0245 -0.0737,-0.0367 -0.1295,-0.0367 -0.0659,0 -0.1129,0.0109 -0.141,0.0326 -0.0283,0.0218 -0.0424,0.0474 -0.0424,0.0765 0,0.0188 0.006,0.0354 0.0177,0.0503 0.0117,0.0155 0.0299,0.028 0.0549,0.0384 0.0145,0.0052 0.0566,0.0174 0.1268,0.0364 0.1015,0.0273 0.1723,0.0493 0.2123,0.0667 0.0402,0.0172 0.0718,0.0425 0.0947,0.0754 0.0228,0.0329 0.0342,0.0737 0.0342,0.1227 0,0.0479 -0.0141,0.0928 -0.0419,0.1352 -0.028,0.0422 -0.0683,0.0749 -0.1208,0.098 -0.0525,0.0231 -0.1121,0.0345 -0.1785,0.0345 -0.1102,0 -0.194,-0.0228 -0.2517,-0.0685 -0.0576,-0.0457 -0.0944,-0.1135 -0.1102,-0.2033zm1.3208 0.5788l-0.016 -0.1347c0.0315,0.0084 0.0587,0.0128 0.0821,0.0128 0.0319,0 0.0575,-0.0055 0.0765,-0.0161 0.0193,-0.0106 0.0348,-0.0253 0.0471,-0.0446 0.0092,-0.0142 0.0236,-0.0498 0.0438,-0.1067 0.0027,-0.0081 0.0071,-0.0196 0.0128,-0.0351l-0.3211 -0.8481 0.1545 0 0.1764 0.49c0.0226,0.0624 0.0432,0.1277 0.0612,0.1962 0.0166,-0.0658 0.0362,-0.13 0.059,-0.1929l0.181 -0.4933 0.1434 0 -0.3219 0.8609c-0.0346,0.0931 -0.0615,0.157 -0.0806,0.1921 -0.0255,0.0474 -0.0546,0.0819 -0.0876,0.104 -0.0332,0.022 -0.0724,0.0332 -0.1181,0.0332 -0.0277,0 -0.0585,-0.006 -0.0925,-0.0177zm0.7692 -0.7494c0,-0.1567 0.0436,-0.2729 0.1309,-0.3483 0.0727,-0.0626 0.1614,-0.0941 0.2661,-0.0941 0.1165,0 0.2117,0.0381 0.2855,0.1145 0.074,0.0762 0.1107,0.1815 0.1107,0.3159 0,0.1092 -0.0163,0.1949 -0.049,0.2572 -0.0326,0.0626 -0.0802,0.111 -0.1425,0.1455 -0.0626,0.0346 -0.1306,0.0517 -0.2047,0.0517 -0.1183,0 -0.2141,-0.0378 -0.2873,-0.114 -0.0732,-0.0759 -0.1097,-0.1853 -0.1097,-0.3284zm0.1475 0c0,0.1086 0.0237,0.1897 0.071,0.2435 0.0474,0.0542 0.107,0.0811 0.1785,0.0811 0.0713,0 0.1306,-0.0272 0.178,-0.0813 0.0471,-0.0542 0.0707,-0.1369 0.0707,-0.2479 0,-0.1048 -0.0236,-0.1842 -0.0712,-0.2381 -0.0477,-0.0539 -0.1067,-0.0808 -0.1775,-0.0808 -0.0715,0 -0.1311,0.0269 -0.1785,0.0805 -0.0473,0.0536 -0.071,0.1347 -0.071,0.243zm1.369 0.4234l0 -0.1243c-0.0662,0.0957 -0.1557,0.1433 -0.2689,0.1433 -0.0498,0 -0.0966,-0.0095 -0.1398,-0.0285 -0.0433,-0.0191 -0.0754,-0.0433 -0.0964,-0.0721 -0.0212,-0.0291 -0.0359,-0.0645 -0.0443,-0.1064 -0.0057,-0.0283 -0.0087,-0.0729 -0.0087,-0.1342l0 -0.5243 0.1434 0 0 0.4694c0,0.0751 0.003,0.1254 0.0087,0.1515 0.0092,0.0379 0.0283,0.0672 0.0574,0.089 0.0294,0.0215 0.0656,0.0321 0.1086,0.0321 0.043,0 0.0832,-0.0109 0.1211,-0.0329 0.0378,-0.0221 0.0644,-0.0523 0.08,-0.0901 0.0157,-0.0381 0.0236,-0.0933 0.0236,-0.1654l0 -0.4536 0.1434 0 0 0.8465 -0.1281 0zm-10.5293 3.7389l0.141 0.0185c-0.0153,0.0971 -0.0547,0.1733 -0.1184,0.2283 -0.0634,0.055 -0.1415,0.0824 -0.234,0.0824 -0.1156,0 -0.209,-0.0378 -0.2792,-0.1134 -0.0705,-0.0757 -0.1058,-0.1842 -0.1058,-0.3257 0,-0.0914 0.0152,-0.1714 0.0454,-0.24 0.0305,-0.0686 0.0765,-0.12 0.1385,-0.1543 0.0618,-0.0343 0.1293,-0.0514 0.2019,-0.0514 0.092,0 0.1674,0.0234 0.2256,0.0699 0.0585,0.0465 0.096,0.1124 0.1126,0.1981l-0.1396 0.0215c-0.0133,-0.0569 -0.0367,-0.0996 -0.0704,-0.1284 -0.0338,-0.0286 -0.0746,-0.043 -0.1225,-0.043 -0.0724,0 -0.1311,0.0258 -0.1763,0.0778 -0.0452,0.0517 -0.0678,0.1336 -0.0678,0.2457 0,0.1137 0.0218,0.1965 0.0656,0.2482 0.0436,0.0514 0.1004,0.0772 0.1706,0.0772 0.0564,0 0.1032,-0.0174 0.141,-0.0519 0.0378,-0.0346 0.0617,-0.0877 0.0718,-0.1595zm0.2623 0.3102l0 -0.8465 0.129 0 0 0.1282c0.0329,-0.0599 0.0634,-0.0996 0.0914,-0.1187 0.0278,-0.019 0.0585,-0.0288 0.092,-0.0288 0.0484,0 0.0974,0.0155 0.1475,0.0462l-0.0496 0.1334c-0.0348,-0.021 -0.0699,-0.0313 -0.105,-0.0313 -0.0315,0 -0.0596,0.0095 -0.0846,0.0283 -0.025,0.019 -0.0427,0.0451 -0.0533,0.0786 -0.0161,0.0509 -0.024,0.1067 -0.024,0.1673l0 0.4433 -0.1434 0zm1.1247 -0.2726l0.1482 0.0182c-0.0234,0.0868 -0.0666,0.154 -0.1297,0.2019 -0.0634,0.0476 -0.1443,0.0715 -0.2425,0.0715 -0.1238,0 -0.222,-0.038 -0.2944,-0.1142 -0.0726,-0.0762 -0.1088,-0.1832 -0.1088,-0.3208 0,-0.1426 0.0367,-0.2531 0.1099,-0.3317 0.0735,-0.0787 0.1684,-0.1181 0.2854,-0.1181 0.1132,0 0.2057,0.0386 0.2773,0.1156 0.0718,0.077 0.1077,0.1856 0.1077,0.3252 0,0.0087 -0.0002,0.0215 -0.0008,0.0383l-0.6312 0c0.0051,0.0931 0.0315,0.1644 0.0789,0.2136 0.0473,0.0496 0.1061,0.0743 0.1768,0.0743 0.0525,0 0.0974,-0.0138 0.1347,-0.0416 0.0373,-0.0275 0.0667,-0.0716 0.0885,-0.1322zm-0.4711 -0.2321l0.4727 0c-0.0063,-0.0711 -0.0245,-0.1247 -0.0542,-0.16 -0.0457,-0.0553 -0.105,-0.083 -0.1776,-0.083 -0.0659,0 -0.1214,0.022 -0.1663,0.0661 -0.0449,0.0441 -0.0697,0.1031 -0.0746,0.1769zm1.3521 0.4002c-0.0533,0.0452 -0.1045,0.077 -0.1534,0.0958 -0.0493,0.0185 -0.1021,0.0277 -0.1584,0.0277 -0.0931,0 -0.1644,-0.0225 -0.2144,-0.068 -0.0498,-0.0454 -0.0749,-0.1036 -0.0749,-0.1741 0,-0.0417 0.0093,-0.0795 0.0283,-0.1138 0.0188,-0.0342 0.0436,-0.0617 0.0741,-0.0824 0.0307,-0.0207 0.065,-0.0365 0.1034,-0.0471 0.028,-0.0073 0.0704,-0.0147 0.1273,-0.0215 0.1159,-0.0139 0.2014,-0.0302 0.256,-0.0495 0.0006,-0.0196 0.0009,-0.0321 0.0009,-0.0373 0,-0.0585 -0.0136,-0.0998 -0.0409,-0.1235 -0.0364,-0.0327 -0.0911,-0.0487 -0.1632,-0.0487 -0.0675,0 -0.1173,0.0117 -0.1497,0.0354 -0.0321,0.0236 -0.0558,0.0655 -0.0713,0.1257l-0.1401 -0.0194c0.0128,-0.0598 0.0337,-0.1085 0.0629,-0.1453 0.0291,-0.037 0.0715,-0.0655 0.1268,-0.0854 0.0552,-0.0199 0.1191,-0.0299 0.1921,-0.0299 0.0723,0 0.1308,0.0087 0.176,0.0256 0.0452,0.0171 0.0784,0.0383 0.0999,0.0642 0.0212,0.0258 0.0359,0.0582 0.0446,0.0977 0.0046,0.0244 0.0071,0.0685 0.0071,0.1322l0 0.1913c0,0.1336 0.003,0.2179 0.0092,0.253 0.006,0.0354 0.0183,0.0694 0.0362,0.1018l-0.1499 0c-0.0147,-0.0297 -0.0245,-0.0645 -0.0286,-0.1045zm-0.012 -0.3205c-0.0522,0.0215 -0.1303,0.0394 -0.2342,0.0544 -0.0591,0.0084 -0.101,0.018 -0.1252,0.0286 -0.0245,0.0106 -0.0435,0.0261 -0.0566,0.0468 -0.0133,0.0204 -0.0201,0.043 -0.0201,0.068 0,0.0384 0.0147,0.0702 0.0435,0.0958 0.0288,0.0253 0.0713,0.0381 0.1271,0.0381 0.0552,0 0.1045,-0.012 0.1475,-0.0362 0.0429,-0.0242 0.0748,-0.0574 0.0949,-0.0993 0.0155,-0.0324 0.0231,-0.0803 0.0231,-0.1434l0 -0.0528zm0.6808 0.2966l0.0207 0.1268c-0.0403,0.0084 -0.0764,0.0128 -0.1083,0.0128 -0.0522,0 -0.0925,-0.0082 -0.1213,-0.0248 -0.0286,-0.0163 -0.0487,-0.0381 -0.0604,-0.065 -0.0117,-0.0267 -0.0177,-0.0833 -0.0177,-0.1693l0 -0.487 -0.1053 0 0 -0.1116 0.1053 0 0 -0.2098 0.1428 -0.086 0 0.2958 0.1442 0 0 0.1116 -0.1442 0 0 0.4949c0,0.0411 0.0025,0.0672 0.0074,0.0789 0.0051,0.0117 0.0133,0.021 0.0247,0.028 0.0115,0.0068 0.0278,0.0104 0.049,0.0104 0.0161,0 0.037,-0.0019 0.0631,-0.0057zm0.7198 -0.1442l0.1482 0.0182c-0.0234,0.0868 -0.0666,0.154 -0.1297,0.2019 -0.0634,0.0476 -0.1443,0.0715 -0.2425,0.0715 -0.1238,0 -0.222,-0.038 -0.2944,-0.1142 -0.0726,-0.0762 -0.1088,-0.1832 -0.1088,-0.3208 0,-0.1426 0.0367,-0.2531 0.1099,-0.3317 0.0735,-0.0787 0.1684,-0.1181 0.2854,-0.1181 0.1132,0 0.2057,0.0386 0.2773,0.1156 0.0718,0.077 0.1077,0.1856 0.1077,0.3252 0,0.0087 -0.0002,0.0215 -0.0008,0.0383l-0.6312 0c0.0051,0.0931 0.0315,0.1644 0.0789,0.2136 0.0473,0.0496 0.1061,0.0743 0.1768,0.0743 0.0525,0 0.0974,-0.0138 0.1347,-0.0416 0.0373,-0.0275 0.0667,-0.0716 0.0885,-0.1322zm-0.4711 -0.2321l0.4727 0c-0.0063,-0.0711 -0.0245,-0.1247 -0.0542,-0.16 -0.0457,-0.0553 -0.105,-0.083 -0.1776,-0.083 -0.0659,0 -0.1214,0.022 -0.1663,0.0661 -0.0449,0.0441 -0.0697,0.1031 -0.0746,0.1769zm0.837 0.5047l0 -0.1635 0.1636 0 0 0.1635c0,0.0601 -0.0107,0.1086 -0.0319,0.1456 -0.0215,0.0367 -0.0552,0.0653 -0.1012,0.0857l-0.04 -0.0615c0.0302,-0.0133 0.0525,-0.0329 0.0669,-0.0585 0.0145,-0.0259 0.0224,-0.0629 0.024,-0.1113l-0.0814 0zm1.4493 -0.2726l0.1482 0.0182c-0.0234,0.0868 -0.0666,0.154 -0.1297,0.2019 -0.0634,0.0476 -0.1443,0.0715 -0.2425,0.0715 -0.1238,0 -0.222,-0.038 -0.2944,-0.1142 -0.0726,-0.0762 -0.1088,-0.1832 -0.1088,-0.3208 0,-0.1426 0.0367,-0.2531 0.1099,-0.3317 0.0735,-0.0787 0.1684,-0.1181 0.2854,-0.1181 0.1132,0 0.2057,0.0386 0.2773,0.1156 0.0718,0.077 0.1077,0.1856 0.1077,0.3252 0,0.0087 -0.0002,0.0215 -0.0008,0.0383l-0.6312 0c0.0051,0.0931 0.0315,0.1644 0.0789,0.2136 0.0473,0.0496 0.1061,0.0743 0.1768,0.0743 0.0525,0 0.0974,-0.0138 0.1347,-0.0416 0.0373,-0.0275 0.0667,-0.0716 0.0885,-0.1322zm-0.4711 -0.2321l0.4727 0c-0.0063,-0.0711 -0.0245,-0.1247 -0.0542,-0.16 -0.0457,-0.0553 -0.105,-0.083 -0.1776,-0.083 -0.0659,0 -0.1214,0.022 -0.1663,0.0661 -0.0449,0.0441 -0.0697,0.1031 -0.0746,0.1769zm1.3488 0.5047l0 -0.1069c-0.0536,0.084 -0.1325,0.1259 -0.2367,0.1259 -0.0675,0 -0.1295,-0.0185 -0.1861,-0.0557 -0.0566,-0.037 -0.1004,-0.089 -0.1317,-0.1559 -0.031,-0.0667 -0.0465,-0.1432 -0.0465,-0.23 0,-0.0843 0.0141,-0.1611 0.0422,-0.2299 0.0283,-0.0688 0.0704,-0.1216 0.1268,-0.1581 0.0563,-0.0367 0.1194,-0.0552 0.1891,-0.0552 0.0508,0 0.0963,0.0109 0.136,0.0324 0.04,0.0215 0.0724,0.0495 0.0974,0.084l0 -0.4193 0.1426 0 0 1.1687 -0.1331 0zm-0.4535 -0.4226c0,0.1086 0.0228,0.1897 0.0685,0.2433 0.0457,0.0536 0.0996,0.0805 0.1619,0.0805 0.0626,0 0.1159,-0.0258 0.1598,-0.077 0.0438,-0.0511 0.0658,-0.1295 0.0658,-0.2348 0,-0.1159 -0.0223,-0.2008 -0.0669,-0.255 -0.0447,-0.0544 -0.0996,-0.0813 -0.1652,-0.0813 -0.0637,0 -0.117,0.0261 -0.1597,0.0781 -0.0427,0.0519 -0.0642,0.1341 -0.0642,0.2462zm0.813 -0.5809l0 -0.1652 0.1437 0 0 0.1652 -0.1437 0zm0 1.0035l0 -0.8465 0.1437 0 0 0.8465 -0.1437 0zm0.6753 -0.1284l0.0207 0.1268c-0.0403,0.0084 -0.0764,0.0128 -0.1083,0.0128 -0.0522,0 -0.0925,-0.0082 -0.1213,-0.0248 -0.0286,-0.0163 -0.0487,-0.0381 -0.0604,-0.065 -0.0117,-0.0267 -0.0177,-0.0833 -0.0177,-0.1693l0 -0.487 -0.1053 0 0 -0.1116 0.1053 0 0 -0.2098 0.1428 -0.086 0 0.2958 0.1442 0 0 0.1116 -0.1442 0 0 0.4949c0,0.0411 0.0025,0.0672 0.0074,0.0789 0.0051,0.0117 0.0133,0.021 0.0247,0.028 0.0115,0.0068 0.0278,0.0104 0.049,0.0104 0.0161,0 0.037,-0.0019 0.0631,-0.0057zm0.1777 0.1284l0 -0.1635 0.1636 0 0 0.1635c0,0.0601 -0.0107,0.1086 -0.0319,0.1456 -0.0215,0.0367 -0.0552,0.0653 -0.1012,0.0857l-0.04 -0.0615c0.0302,-0.0133 0.0525,-0.0329 0.0669,-0.0585 0.0145,-0.0259 0.0224,-0.0629 0.024,-0.1113l-0.0814 0z"/>
   <path id="_77866224" class="fil14" d="M32.1372 18.8938l0.1418 -0.0223c0.0079,0.0569 0.0302,0.1004 0.0667,0.1309 0.0362,0.0302 0.087,0.0454 0.1526,0.0454 0.0659,0 0.1148,-0.0136 0.1467,-0.0402 0.0318,-0.027 0.0479,-0.0585 0.0479,-0.0945 0,-0.0326 -0.0142,-0.0579 -0.0425,-0.0767 -0.0196,-0.0128 -0.0686,-0.0288 -0.1466,-0.0484 -0.1051,-0.0267 -0.1783,-0.0495 -0.2188,-0.0691 -0.0406,-0.0194 -0.0716,-0.0463 -0.0925,-0.0806 -0.021,-0.0343 -0.0316,-0.0721 -0.0316,-0.1134 0,-0.0379 0.0087,-0.0727 0.0261,-0.1048 0.0172,-0.0324 0.0408,-0.0591 0.0705,-0.0803 0.0223,-0.0163 0.0528,-0.0305 0.0912,-0.0419 0.0386,-0.0114 0.08,-0.0171 0.124,-0.0171 0.0664,0 0.1247,0.0098 0.175,0.0288 0.0503,0.0191 0.0873,0.0449 0.1113,0.0776 0.0239,0.0329 0.0403,0.0764 0.0492,0.1311l-0.1401 0.0193c-0.0065,-0.0435 -0.025,-0.0775 -0.0555,-0.102 -0.0305,-0.0245 -0.0737,-0.0367 -0.1295,-0.0367 -0.0659,0 -0.1129,0.0109 -0.141,0.0326 -0.0283,0.0218 -0.0424,0.0474 -0.0424,0.0765 0,0.0188 0.006,0.0354 0.0177,0.0503 0.0117,0.0155 0.0299,0.028 0.0549,0.0384 0.0145,0.0052 0.0566,0.0174 0.1268,0.0364 0.1015,0.0273 0.1723,0.0493 0.2123,0.0667 0.0402,0.0172 0.0718,0.0425 0.0947,0.0754 0.0228,0.0329 0.0342,0.0737 0.0342,0.1227 0,0.0479 -0.0141,0.0928 -0.0419,0.1352 -0.028,0.0422 -0.0683,0.0749 -0.1208,0.098 -0.0525,0.0231 -0.1121,0.0345 -0.1785,0.0345 -0.1102,0 -0.194,-0.0228 -0.2517,-0.0685 -0.0576,-0.0457 -0.0944,-0.1135 -0.1102,-0.2033zm1.1869 0.1244l0.0207 0.1268c-0.0403,0.0084 -0.0764,0.0128 -0.1083,0.0128 -0.0522,0 -0.0925,-0.0082 -0.1213,-0.0248 -0.0286,-0.0163 -0.0487,-0.0381 -0.0604,-0.065 -0.0117,-0.0267 -0.0177,-0.0833 -0.0177,-0.1693l0 -0.487 -0.1053 0 0 -0.1116 0.1053 0 0 -0.2098 0.1428 -0.086 0 0.2958 0.1442 0 0 0.1116 -0.1442 0 0 0.4949c0,0.0411 0.0025,0.0672 0.0074,0.0789 0.0051,0.0117 0.0133,0.021 0.0247,0.028 0.0115,0.0068 0.0278,0.0104 0.049,0.0104 0.0161,0 0.037,-0.0019 0.0631,-0.0057zm0.0868 -0.295c0,-0.1567 0.0436,-0.2729 0.1309,-0.3483 0.0727,-0.0626 0.1614,-0.0941 0.2661,-0.0941 0.1165,0 0.2117,0.0381 0.2855,0.1145 0.074,0.0762 0.1107,0.1815 0.1107,0.3159 0,0.1092 -0.0163,0.1949 -0.049,0.2572 -0.0326,0.0626 -0.0802,0.111 -0.1425,0.1455 -0.0626,0.0346 -0.1306,0.0517 -0.2047,0.0517 -0.1183,0 -0.2141,-0.0378 -0.2873,-0.114 -0.0732,-0.0759 -0.1097,-0.1853 -0.1097,-0.3284zm0.1475 0c0,0.1086 0.0237,0.1897 0.071,0.2435 0.0474,0.0542 0.107,0.0811 0.1785,0.0811 0.0713,0 0.1306,-0.0272 0.178,-0.0813 0.0471,-0.0542 0.0707,-0.1369 0.0707,-0.2479 0,-0.1048 -0.0236,-0.1842 -0.0712,-0.2381 -0.0477,-0.0539 -0.1067,-0.0808 -0.1775,-0.0808 -0.0715,0 -0.1311,0.0269 -0.1785,0.0805 -0.0473,0.0536 -0.071,0.1347 -0.071,0.243zm0.8125 0.4234l0 -0.8465 0.129 0 0 0.1282c0.0329,-0.0599 0.0634,-0.0996 0.0914,-0.1187 0.0278,-0.019 0.0585,-0.0288 0.092,-0.0288 0.0484,0 0.0974,0.0155 0.1475,0.0462l-0.0496 0.1334c-0.0348,-0.021 -0.0699,-0.0313 -0.105,-0.0313 -0.0315,0 -0.0596,0.0095 -0.0846,0.0283 -0.025,0.019 -0.0427,0.0451 -0.0533,0.0786 -0.0161,0.0509 -0.024,0.1067 -0.024,0.1673l0 0.4433 -0.1434 0zm1.1247 -0.2726l0.1482 0.0182c-0.0234,0.0868 -0.0666,0.154 -0.1297,0.2019 -0.0634,0.0476 -0.1443,0.0715 -0.2425,0.0715 -0.1238,0 -0.222,-0.038 -0.2944,-0.1142 -0.0726,-0.0762 -0.1088,-0.1832 -0.1088,-0.3208 0,-0.1426 0.0367,-0.2531 0.1099,-0.3317 0.0735,-0.0787 0.1684,-0.1181 0.2854,-0.1181 0.1132,0 0.2057,0.0386 0.2773,0.1156 0.0718,0.077 0.1077,0.1856 0.1077,0.3252 0,0.0087 -0.0002,0.0215 -0.0008,0.0383l-0.6312 0c0.0051,0.0931 0.0315,0.1644 0.0789,0.2136 0.0473,0.0496 0.1061,0.0743 0.1768,0.0743 0.0525,0 0.0974,-0.0138 0.1347,-0.0416 0.0373,-0.0275 0.0667,-0.0716 0.0885,-0.1322zm-0.4711 -0.2321l0.4727 0c-0.0063,-0.0711 -0.0245,-0.1247 -0.0542,-0.16 -0.0457,-0.0553 -0.105,-0.083 -0.1776,-0.083 -0.0659,0 -0.1214,0.022 -0.1663,0.0661 -0.0449,0.0441 -0.0697,0.1031 -0.0746,0.1769z"/>
  </g>
 </g>
</svg>
