<?xml version="1.0" encoding="UTF-8"?>
<!DOCTYPE svg PUBLIC "-//W3C//DTD SVG 1.1//EN" "http://www.w3.org/Graphics/SVG/1.1/DTD/svg11.dtd">
<!-- Creator: CorelDRAW -->
<svg xmlns="http://www.w3.org/2000/svg" xml:space="preserve" width="10mm" height="10mm" style="shape-rendering:geometricPrecision; text-rendering:geometricPrecision; image-rendering:optimizeQuality; fill-rule:evenodd; clip-rule:evenodd"
viewBox="0 0 10 10"
 xmlns:xlink="http://www.w3.org/1999/xlink">
 <defs>
  <style type="text/css">
   <![CDATA[
    .fil6 {fill:#C5DEA4}
    .fil5 {fill:#FED464}
    .fil1 {fill:white;fill-rule:nonzero}
    .fil0 {fill:url(#id0)}
    .fil3 {fill:url(#id1)}
    .fil7 {fill:url(#id2)}
    .fil2 {fill:url(#id3);fill-rule:nonzero}
    .fil4 {fill:url(#id4);fill-rule:nonzero}
   ]]>
  </style>
  <linearGradient id="id0" gradientUnits="userSpaceOnUse" x1="3.4156" y1="6.715" x2="3.4156" y2="0.8942">
   <stop offset="0" style="stop-color:#82A139"/>
   <stop offset="1" style="stop-color:#B3D38A"/>
  </linearGradient>
  <linearGradient id="id1" gradientUnits="userSpaceOnUse" x1="6.5905" y1="8.468" x2="6.5905" y2="2.614">
   <stop offset="0" style="stop-color:#F38C16"/>
   <stop offset="0.65098" style="stop-color:#F8AC3B"/>
   <stop offset="1" style="stop-color:#FDCD61"/>
  </linearGradient>
  <radialGradient id="id2" gradientUnits="userSpaceOnUse" cx="4.9232" cy="8.9524" r="23.9007" fx="4.9232" fy="8.9524">
   <stop offset="0" style="stop-color:#CCCCCC"/>
   <stop offset="0.431373" style="stop-color:#DADBDB"/>
   <stop offset="1" style="stop-color:#E8E9EA"/>
  </radialGradient>
  <linearGradient id="id3" gradientUnits="userSpaceOnUse" x1="3.4156" y1="6.9697" x2="3.4156" y2="0.7941">
   <stop offset="0" style="stop-color:#739131"/>
   <stop offset="1" style="stop-color:#ADC788"/>
  </linearGradient>
  <linearGradient id="id4" gradientUnits="userSpaceOnUse" x1="6.5906" y1="8.7863" x2="6.5906" y2="2.4889">
   <stop offset="0" style="stop-color:#D77711"/>
   <stop offset="1" style="stop-color:#F1BE59"/>
  </linearGradient>
 </defs>
 <g id="Слой_x0020_1">
  <metadata id="CorelCorpID_0Corel-Layer"/>
  <path class="fil0" d="M2.0761 0.8942l2.6791 0c1.0186,0 1.852,0.8334 1.852,1.852l0 0.5955c0,1.0186 -0.8334,1.852 -1.852,1.852l-1.8017 0 -1.4066 1.5214 0 -1.5991c-0.7629,-0.2291 -1.3228,-0.9394 -1.3228,-1.7743l0 -0.5955c0,-1.0186 0.8334,-1.852 1.852,-1.852z"/>
  <path class="fil1" d="M1.0827 2.6796l0.1341 0 0 -0.0689c0,-0.0766 0.0082,-0.1341 0.0246,-0.1719 0.0164,-0.0378 0.0463,-0.0686 0.09,-0.0924 0.044,-0.0237 0.0995,-0.0355 0.1663,-0.0355 0.0689,0 0.1361,0.0103 0.2021,0.0308l-0.0326 0.1687c-0.0384,-0.0094 -0.0753,-0.0138 -0.1108,-0.0138 -0.0352,0 -0.0601,0.0079 -0.0754,0.0243 -0.0152,0.0165 -0.0226,0.0478 -0.0226,0.0942l0 0.0645 0.1804 0 0 0.1897 -0.1804 0 0 0.7227 -0.2416 0 0 -0.7227 -0.1341 0 0 -0.1897zm0.6359 0.4431c0,-0.08 0.0199,-0.1577 0.0592,-0.2328 0.0396,-0.0748 0.0956,-0.1323 0.1681,-0.1716 0.0724,-0.0396 0.1534,-0.0595 0.2428,-0.0595 0.1379,0 0.2511,0.0448 0.3394,0.1346 0.0882,0.0897 0.1322,0.2029 0.1322,0.3399 0,0.1378 -0.0446,0.2522 -0.1334,0.3431 -0.0892,0.091 -0.2012,0.1361 -0.3364,0.1361 -0.0839,0 -0.1634,-0.0187 -0.2393,-0.0566 -0.076,-0.0378 -0.1338,-0.0932 -0.1734,-0.1663 -0.0393,-0.073 -0.0592,-0.1619 -0.0592,-0.2669zm0.2475 0.013c0,0.0906 0.0214,0.1598 0.0645,0.2079 0.0429,0.0481 0.0959,0.0721 0.159,0.0721 0.0631,0 0.1158,-0.024 0.1584,-0.0721 0.0428,-0.0481 0.0642,-0.1179 0.0642,-0.2097 0,-0.0892 -0.0214,-0.1581 -0.0642,-0.2062 -0.0426,-0.0481 -0.0953,-0.0721 -0.1584,-0.0721 -0.0631,0 -0.1161,0.024 -0.159,0.0721 -0.0431,0.0481 -0.0645,0.1176 -0.0645,0.208zm1.1145 0.4563l-0.2414 0 0 -0.9124 0.2241 0 0 0.1296c0.0384,-0.0613 0.073,-0.1017 0.1035,-0.1211 0.0308,-0.0194 0.0654,-0.0293 0.1044,-0.0293 0.0552,0 0.108,0.0152 0.159,0.0457l-0.0748 0.2103c-0.0405,-0.0261 -0.0783,-0.0393 -0.1132,-0.0393 -0.034,0 -0.0625,0.0091 -0.0859,0.0279 -0.0238,0.0184 -0.042,0.0522 -0.0555,0.1009 -0.0134,0.0486 -0.0202,0.1507 -0.0202,0.3059l0 0.2818zm1.0543 0l0 -0.1367c-0.0334,0.0487 -0.0771,0.0871 -0.131,0.1153 -0.0543,0.0279 -0.1115,0.0419 -0.1716,0.0419 -0.0613,0 -0.1162,-0.0135 -0.1648,-0.0401 -0.0487,-0.027 -0.0839,-0.0649 -0.1059,-0.1136 -0.0217,-0.0486 -0.0326,-0.1161 -0.0326,-0.202l0 -0.5772 0.2414 0 0 0.4191c0,0.1285 0.0044,0.2071 0.0135,0.2361 0.0088,0.0287 0.0249,0.0516 0.0484,0.0686 0.0234,0.017 0.0534,0.0252 0.0894,0.0252 0.0414,0 0.0783,-0.0111 0.1109,-0.0337 0.0325,-0.0229 0.0548,-0.0507 0.0669,-0.0842 0.012,-0.0337 0.0181,-0.1158 0.0181,-0.2463l0 -0.3848 0.2414 0 0 0.9124 -0.2241 0zm0.4561 -0.9124l0.2226 0 0 0.1243c0.0795,-0.0967 0.1745,-0.1451 0.2845,-0.1451 0.0584,0 0.1091,0.012 0.1519,0.036 0.0431,0.0241 0.0783,0.0605 0.1059,0.1091 0.0399,-0.0486 0.0833,-0.085 0.1296,-0.1091 0.0464,-0.024 0.0959,-0.036 0.1487,-0.036 0.0669,0 0.1238,0.0138 0.1701,0.041 0.0464,0.027 0.081,0.0672 0.1039,0.1197 0.0167,0.039 0.0249,0.1021 0.0249,0.1892l0 0.5833 -0.2414 0 0 -0.5215c0,-0.0906 -0.0082,-0.1489 -0.0249,-0.1753 -0.0223,-0.0344 -0.0566,-0.0517 -0.103,-0.0517 -0.034,0 -0.0657,0.0103 -0.0956,0.0311 -0.0296,0.0206 -0.051,0.0508 -0.0642,0.0907 -0.0132,0.0398 -0.0199,0.1026 -0.0199,0.1885l0 0.4382 -0.2414 0 0 -0.5c0,-0.0889 -0.0044,-0.1461 -0.0129,-0.1719 -0.0085,-0.0258 -0.022,-0.0449 -0.0399,-0.0575 -0.0182,-0.0126 -0.0425,-0.0191 -0.0736,-0.0191 -0.0373,0 -0.0707,0.01 -0.1003,0.0302 -0.0299,0.02 -0.0513,0.049 -0.0642,0.0869 -0.013,0.0378 -0.0194,0.1003 -0.0194,0.188l0 0.4434 -0.2414 0 0 -0.9124z"/>
  <path class="fil2" d="M2.0761 0.7941l2.6791 0c0.5368,0 1.025,0.2196 1.3787,0.5733l0 0.0004c0.3536,0.3537 0.5733,0.8417 0.5733,1.3783l0 0.5955c0,0.5366 -0.2197,1.0246 -0.5733,1.3783l-0.0004 0.0004c-0.3537,0.3536 -0.8417,0.5733 -1.3783,0.5733l-1.7587 0 -1.3766 1.489 -0.173 0.1872 0 -0.2548 0 -1.5264c-0.3769,-0.1293 -0.7027,-0.3712 -0.9364,-0.6845l0 -0.0004c-0.2424,-0.3252 -0.3864,-0.7279 -0.3864,-1.1621l0 -0.5955c0,-0.5368 0.2196,-1.025 0.5733,-1.3787 0.3537,-0.3537 0.8419,-0.5733 1.3787,-0.5733zm2.6791 0.2l-2.6791 0c-0.4817,0 -0.9198,0.1972 -1.2373,0.5147 -0.3175,0.3175 -0.5147,0.7556 -0.5147,1.2373l0 0.5955c0,0.39 0.1291,0.7514 0.3464,1.043l0.0002 -0.0001c0.2233,0.2994 0.5397,0.5261 0.9047,0.6357l0.0715 0.0215 0 0.0742 0 1.3444 1.2336 -1.3343 0.03 -0.0324 0.043 0 1.8017 0c0.4818,0 0.9199,-0.1971 1.2375,-0.5145 0.3174,-0.3176 0.5145,-0.7557 0.5145,-1.2375l0 -0.5955c0,-0.4818 -0.1971,-0.9199 -0.5145,-1.2375l-0.0002 0.0002c-0.3175,-0.3175 -0.7556,-0.5147 -1.2373,-0.5147z"/>
  <path class="fil3" d="M5.251 2.614l2.6791 0c1.0186,0 1.852,0.8334 1.852,1.852l0 0.5955c0,0.847 -0.5763,1.5658 -1.356,1.784l0 1.6225 -1.4372 -1.5545 -1.7379 0c-1.0186,0 -1.852,-0.8334 -1.852,-1.852l0 -0.5955c0,-1.0186 0.8334,-1.852 1.852,-1.852z"/>
  <path class="fil1" d="M4.1558 4.3918l0.1341 0 0 -0.0689c0,-0.0766 0.0082,-0.1341 0.0246,-0.1719 0.0164,-0.0378 0.0463,-0.0686 0.09,-0.0924 0.044,-0.0237 0.0995,-0.0355 0.1663,-0.0355 0.0689,0 0.1361,0.0103 0.2021,0.0308l-0.0326 0.1687c-0.0384,-0.0094 -0.0753,-0.0138 -0.1108,-0.0138 -0.0352,0 -0.0601,0.0079 -0.0754,0.0243 -0.0152,0.0165 -0.0226,0.0478 -0.0226,0.0942l0 0.0645 0.1804 0 0 0.1897 -0.1804 0 0 0.7227 -0.2416 0 0 -0.7227 -0.1341 0 0 -0.1897zm0.6359 0.4431c0,-0.08 0.0199,-0.1577 0.0592,-0.2328 0.0396,-0.0748 0.0956,-0.1323 0.1681,-0.1716 0.0724,-0.0396 0.1534,-0.0595 0.2428,-0.0595 0.1379,0 0.2511,0.0448 0.3394,0.1346 0.0882,0.0897 0.1322,0.2029 0.1322,0.3399 0,0.1378 -0.0446,0.2522 -0.1334,0.3431 -0.0892,0.091 -0.2012,0.1361 -0.3364,0.1361 -0.0839,0 -0.1634,-0.0187 -0.2393,-0.0566 -0.076,-0.0378 -0.1338,-0.0932 -0.1734,-0.1663 -0.0393,-0.073 -0.0592,-0.1619 -0.0592,-0.2669zm0.2475 0.013c0,0.0906 0.0214,0.1598 0.0645,0.2079 0.0429,0.0481 0.0959,0.0721 0.159,0.0721 0.0631,0 0.1158,-0.024 0.1584,-0.0721 0.0428,-0.0481 0.0642,-0.1179 0.0642,-0.2097 0,-0.0892 -0.0214,-0.1581 -0.0642,-0.2062 -0.0426,-0.0481 -0.0953,-0.0721 -0.1584,-0.0721 -0.0631,0 -0.1161,0.024 -0.159,0.0721 -0.0431,0.0481 -0.0645,0.1176 -0.0645,0.208zm1.1145 0.4563l-0.2414 0 0 -0.9124 0.2241 0 0 0.1296c0.0384,-0.0613 0.073,-0.1017 0.1035,-0.1211 0.0308,-0.0194 0.0654,-0.0293 0.1044,-0.0293 0.0552,0 0.108,0.0152 0.159,0.0457l-0.0748 0.2103c-0.0405,-0.0261 -0.0783,-0.0393 -0.1132,-0.0393 -0.034,0 -0.0625,0.0091 -0.0859,0.0279 -0.0238,0.0184 -0.042,0.0522 -0.0555,0.1009 -0.0134,0.0486 -0.0202,0.1507 -0.0202,0.3059l0 0.2818zm1.0543 0l0 -0.1367c-0.0334,0.0487 -0.0771,0.0871 -0.131,0.1153 -0.0543,0.0279 -0.1115,0.0419 -0.1716,0.0419 -0.0613,0 -0.1162,-0.0135 -0.1648,-0.0401 -0.0487,-0.027 -0.0839,-0.0649 -0.1059,-0.1136 -0.0217,-0.0486 -0.0326,-0.1161 -0.0326,-0.202l0 -0.5772 0.2414 0 0 0.4191c0,0.1285 0.0044,0.2071 0.0135,0.2361 0.0088,0.0287 0.0249,0.0516 0.0484,0.0686 0.0234,0.017 0.0534,0.0252 0.0894,0.0252 0.0414,0 0.0783,-0.0111 0.1109,-0.0337 0.0325,-0.0229 0.0548,-0.0507 0.0669,-0.0842 0.012,-0.0337 0.0181,-0.1158 0.0181,-0.2463l0 -0.3848 0.2414 0 0 0.9124 -0.2241 0zm0.4561 -0.9124l0.2226 0 0 0.1243c0.0795,-0.0967 0.1745,-0.1451 0.2845,-0.1451 0.0584,0 0.1091,0.012 0.1519,0.036 0.0431,0.0241 0.0783,0.0605 0.1059,0.1091 0.0399,-0.0486 0.0833,-0.085 0.1296,-0.1091 0.0464,-0.024 0.0959,-0.036 0.1487,-0.036 0.0669,0 0.1238,0.0138 0.1701,0.041 0.0464,0.027 0.081,0.0672 0.1039,0.1197 0.0167,0.039 0.0249,0.1021 0.0249,0.1892l0 0.5833 -0.2414 0 0 -0.5215c0,-0.0906 -0.0082,-0.1489 -0.0249,-0.1753 -0.0223,-0.0344 -0.0566,-0.0517 -0.103,-0.0517 -0.034,0 -0.0657,0.0103 -0.0956,0.0311 -0.0296,0.0206 -0.051,0.0508 -0.0642,0.0907 -0.0132,0.0398 -0.0199,0.1026 -0.0199,0.1885l0 0.4382 -0.2414 0 0 -0.5c0,-0.0889 -0.0044,-0.1461 -0.0129,-0.1719 -0.0085,-0.0258 -0.022,-0.0449 -0.0399,-0.0575 -0.0182,-0.0126 -0.0425,-0.0191 -0.0736,-0.0191 -0.0373,0 -0.0707,0.01 -0.1003,0.0302 -0.0299,0.02 -0.0513,0.049 -0.0642,0.0869 -0.013,0.0378 -0.0194,0.1003 -0.0194,0.188l0 0.4434 -0.2414 0 0 -0.9124z"/>
  <path class="fil4" d="M5.2511 2.4889l2.6791 0c0.5438,0 1.0382,0.2224 1.3964,0.5806l0 0.0005c0.3581,0.3582 0.5806,0.8525 0.5806,1.3959l0 0.5955c0,0.4462 -0.1504,0.8595 -0.4029,1.1918 -0.2393,0.3148 -0.5708,0.5565 -0.9531,0.6841l0 1.5306 0 0.3185 -0.2163 -0.234 -1.3998 -1.514 -1.684 0c-0.5434,0 -1.0377,-0.2225 -1.3959,-0.5806l-0.0005 0c-0.3582,-0.3582 -0.5806,-0.8526 -0.5806,-1.3964l0 -0.5955c0,-0.5438 0.2224,-1.0382 0.5806,-1.3964 0.3582,-0.3582 0.8526,-0.5806 1.3964,-0.5806zm2.6791 0.25l-2.6791 0c-0.4747,0 -0.9065,0.1943 -1.2196,0.5074 -0.3131,0.3131 -0.5074,0.7449 -0.5074,1.2196l0 0.5955c0,0.4747 0.1943,0.9065 0.5074,1.2196l-0.0002 0.0002c0.313,0.3128 0.7449,0.5072 1.2198,0.5072l1.7379 0 0.0539 0 0.0374 0.0405 1.2209 1.3205 0 -1.304 0 -0.0944 0.0918 -0.0257c0.3678,-0.1029 0.6874,-0.3255 0.9131,-0.6225 0.22,-0.2895 0.3511,-0.6507 0.3511,-1.0414l0 -0.5955c0,-0.4749 -0.1944,-0.9068 -0.5072,-1.2198l-0.0002 0.0002c-0.3131,-0.3131 -0.7449,-0.5074 -1.2196,-0.5074z"/>
  <path class="fil5" d="M8.7983 2.9744l-4.4195 0c0.2451,-0.1487 0.2698,-0.1703 0.6237,-0.2328 1.0763,0.0003 1.9052,0.0008 3.031,0.0011 0.1683,-0.0064 0.5795,0.1007 0.7648,0.2317z"/>
  <path class="fil6" d="M5.5791 1.2546l-4.4195 0c0.2451,-0.1487 0.2698,-0.1703 0.6237,-0.2328 1.0763,0.0003 1.9052,0.0008 3.031,0.0011 0.1683,-0.0064 0.5795,0.1007 0.7648,0.2317z"/>
  <ellipse class="fil7" cx="4.9232" cy="8.95237" rx="3.5707" ry="0.342568"/>
 </g>
</svg>
