<?xml version="1.0" encoding="UTF-8"?>
<!DOCTYPE svg PUBLIC "-//W3C//DTD SVG 1.1//EN" "http://www.w3.org/Graphics/SVG/1.1/DTD/svg11.dtd">
<!-- Creator: CorelDRAW -->
<svg xmlns="http://www.w3.org/2000/svg" xml:space="preserve" width="50mm" height="50mm" style="shape-rendering:geometricPrecision; text-rendering:geometricPrecision; image-rendering:optimizeQuality; fill-rule:evenodd; clip-rule:evenodd"
viewBox="0 0 50 50"
 xmlns:xlink="http://www.w3.org/1999/xlink">
 <defs>
  <style type="text/css">
   <![CDATA[
    .str0 {stroke:#666666;stroke-width:0.25}
    .str1 {stroke:#C7C7C7;stroke-width:0.25}
    .str2 {stroke:#C7C7C7;stroke-width:0.3}
    .fil7 {fill:#4D4D4D}
    .fil8 {fill:#999999}
    .fil6 {fill:#4D4D4D;fill-rule:nonzero}
    .fil4 {fill:url(#id0)}
    .fil1 {fill:url(#id1)}
    .fil2 {fill:url(#id2)}
    .fil3 {fill:url(#id3)}
    .fil0 {fill:url(#id4);fill-rule:nonzero}
    .fil5 {fill:url(#id5);fill-rule:nonzero}
   ]]>
  </style>
  <linearGradient id="id0" gradientUnits="userSpaceOnUse" x1="12.0723" y1="9.6013" x2="38.8049" y2="40.3843">
   <stop offset="0" style="stop-color:#1B4659"/>
   <stop offset="0.678431" style="stop-color:#163949"/>
   <stop offset="1" style="stop-color:#112B38"/>
  </linearGradient>
  <linearGradient id="id1" gradientUnits="userSpaceOnUse" x1="5.5285" y1="25.5816" x2="45.2811" y2="25.5816">
   <stop offset="0" style="stop-color:#E6E6E6"/>
   <stop offset="0.0705882" style="stop-color:white"/>
   <stop offset="0.909804" style="stop-color:white"/>
   <stop offset="1" style="stop-color:#E6E6E6"/>
  </linearGradient>
  <linearGradient id="id2" gradientUnits="userSpaceOnUse" x1="25.4048" y1="45.0673" x2="25.4048" y2="6.0959">
   <stop offset="0" style="stop-color:#E6E6E6"/>
   <stop offset="0.0392157" style="stop-color:white"/>
   <stop offset="0.94902" style="stop-color:white"/>
   <stop offset="1" style="stop-color:#E6E6E6"/>
  </linearGradient>
  <linearGradient id="id3" gradientUnits="userSpaceOnUse" x1="10.2227" y1="6.6041" x2="40.5868" y2="44.5592">
   <stop offset="0" style="stop-color:#EAEAEA"/>
   <stop offset="0.301961" style="stop-color:white"/>
   <stop offset="0.54902" style="stop-color:#FCFCFC"/>
   <stop offset="1" style="stop-color:#D5D5D7"/>
  </linearGradient>
  <linearGradient id="id4" gradientUnits="userSpaceOnUse" x1="15.2343" y1="5.5626" x2="15.8299" y2="5.5626">
   <stop offset="0" style="stop-color:gray"/>
   <stop offset="1" style="stop-color:#333333"/>
  </linearGradient>
  <linearGradient id="id5" gradientUnits="userSpaceOnUse" x1="10.5174" y1="7.9296" x2="14.867" y2="7.9296">
   <stop offset="0" style="stop-color:gray"/>
   <stop offset="0.74902" style="stop-color:#666666"/>
   <stop offset="1" style="stop-color:#7B7B7B"/>
  </linearGradient>
 </defs>
 <g id="Слой_x0020_1">
  <metadata id="CorelCorpID_0Corel-Layer"/>
  <polygon class="fil0 str0" points="15.8299,4.03 15.8299,7.0953 15.2343,7.0953 15.2343,4.03 "/>
  <polygon class="fil1 str1" points="7.3802,6.6966 45.2811,8.6564 43.4294,44.4667 5.5285,42.5069 "/>
  <polygon class="fil2 str1" points="4.9658,9.3404 42.7784,6.096 45.8438,41.8229 8.0312,45.0673 "/>
  <rect class="fil3 str2" x="6.42901" y="7.65255" width="37.9516" height="35.8582"/>
  <path class="fil4" d="M11.6292 39.6614c-0.0001,0.1126 -0.0003,0.2252 -0.0004,0.3378 9.2065,0 18.413,0 27.6195,0 0,-0.4276 0,-0.8554 0,-1.2831 -1.5976,-0.8043 -5.494,-1.5042 -5.8075,-1.9583 -1.0681,-0.5899 -1.783,-1.5028 -2.5293,-2.4986 -0.2723,-0.8386 -0.1493,-2.9263 -0.1719,-4.3894 0.5251,-0.5296 0.7847,-1.4704 0.9619,-2.7651 0.2695,0.1037 0.609,0.0528 0.9481,-0.0521 0.9167,-1.3899 1.8734,-4.9729 1.5295,-5.2921 -0.0925,-0.5448 -0.8893,-0.2027 -1.2166,-0.3041 2.3214,-7.5229 -4.089,-11.4701 -8.4549,-11.3488 -3.5924,0.226 -6.3364,2.9051 -7.2213,6.2915 -0.2356,1.2752 -0.2653,2.9077 -0.0522,4.2318 -1.6042,0.0208 -1.8759,1.4297 -0.9256,3.0347 0.1256,0.255 0.121,0.5438 0.2027,0.8442 0.3333,1.2248 0.9476,2.1021 1.6849,2.1984 0.295,1.2373 0.6366,2.4884 1.2104,3.3076 0.3004,1.8972 0.4039,3.7944 0.2173,5.6917 -2.514,1.7707 -5.2023,3.018 -7.9946,3.9539z"/>
  <path class="fil5 str0" d="M12.0273 5.42c0,3.7576 -0.0005,2.9328 -0.0003,3.3733 0.0009,2.643 0.0019,0.727 0.0019,3.3732l-0.0011 0.0114c-0.0155,0.479 0.2583,0.8038 0.6156,0.9574 0.1626,0.07 0.3406,0.1067 0.517,0.1087 0.1771,0.0021 0.3529,-0.0297 0.5107,-0.0964 0.3393,-0.1436 0.5968,-0.4639 0.5859,-0.9748l-0.0011 -0.0063c0,-4.2115 0.0002,-4.2772 0.0003,-4.1235 -0.001,-3.1436 -0.0019,-2.4682 -0.0019,-4.0972l0.0011 0c-0.0012,-0.6279 -0.3877,-1.0329 -0.8846,-1.2154 -0.2124,-0.078 -0.4439,-0.1172 -0.6757,-0.1176 -0.2311,-0.0005 -0.4636,0.0381 -0.6785,0.1152 -0.5034,0.1807 -0.8979,0.5827 -0.9035,1.1993l0.0011 0 0 2.8753 -0.5968 0 0 -2.8753 0.0011 -0.0025c0.0069,-0.9464 0.5801,-1.5519 1.3115,-1.8145 0.272,-0.0976 0.5684,-0.1463 0.8651,-0.1457 0.2961,0.0005 0.5924,0.0508 0.8645,0.1507 0.7247,0.2662 1.2884,0.874 1.2904,1.8305l0.0011 0c0,4.5871 -0.0005,3.5839 -0.0003,4.1104 0.0008,3.1588 0.0019,1.0642 0.0019,4.1103l-0.0011 0c0.0154,0.8284 -0.4081,1.35 -0.966,1.586 -0.2286,0.0966 -0.4795,0.1427 -0.7298,0.1397 -0.251,-0.0029 -0.5019,-0.0542 -0.7293,-0.152 -0.5744,-0.2471 -1.0148,-0.7792 -0.9935,-1.5737l-0.0009 0c0,-3.4943 0.0002,-3.5318 0.0003,-3.3925 -0.001,-2.6202 -0.0019,-1.9411 -0.0019,-3.354l0.5968 0z"/>
  <path class="fil6" d="M13.1247 2.1508c0.2251,0.0006 0.4505,0.05 0.6575,0.1484 0.5511,0.262 0.9799,0.8602 0.9813,1.8016l0.0009 0c0,4.5151 -0.0004,3.5277 -0.0002,4.0458 0.0006,3.1092 0.0015,1.0475 0.0015,4.0457l-0.0009 0c0.0117,0.8155 -0.4286,1.2496 -0.8529,1.4819 -0.1739,0.0951 -0.3647,0.1404 -0.5551,0.1375 -0.1908,-0.0029 -0.3816,-0.0534 -0.5546,-0.1496 0.4526,0.0812 1.6247,-0.3086 1.6698,-1.4635l-0.0008 -0.0063c0,-4.1452 0.0001,-4.2099 0.0002,-4.0587 -0.0008,-3.0941 -0.0015,-2.4293 -0.0015,-4.0328l0.0009 0c-0.0158,-1.5373 -0.9682,-1.7704 -1.3461,-1.95z"/>
  <path class="fil6" d="M11.83 2.2049c-0.5034,0.1773 -1.1215,1.1776 -1.1271,1.7826l0.0011 0 0 2.7476 -0.1866 0 0 -2.7476 0.0011 -0.0025c0.0069,-0.9284 0.5801,-1.5225 1.3115,-1.7801zm0.5965 11.4094c-0.5744,-0.2424 -1.0148,-0.7644 -0.9935,-1.5439l-0.0009 0c0,-3.428 0.0002,-3.4648 0.0003,-3.3282 -0.001,-2.5705 -0.0019,-1.8808 -0.0019,-3.2669l0.1866 0c0,3.6863 -0.0005,2.8538 -0.0003,3.2859 0.0009,2.5929 0.002,0.7132 0.002,3.3092l-0.0012 0.0112c-0.0154,0.4699 0.4517,1.382 0.8089,1.5327z"/>
  <rect class="fil7" x="15.5601" y="4.09744" width="0.169067" height="2.92731"/>
  <path class="fil8" d="M10.8397 6.736c-0.0819,-0.0117 -0.036,0.0062 -0.1119,-0.0055 0.028,-1.3623 -0.0823,-3.0119 0.0886,-3.2948 -0.0086,1.045 0.015,2.0966 0.0233,3.3003z"/>
  <path class="fil8" d="M11.72 5.4718c-0.0818,0.0117 -0.0359,-0.0061 -0.1118,0.0056 0.028,1.3623 -0.0824,6.813 0.0886,7.0959 -0.0086,-1.045 0.015,-5.8978 0.0232,-7.1015z"/>
  <path class="fil8" d="M14.4285 3.5478c0.2253,0.3727 0.0661,8.8869 0.0047,8.9885 0.0246,-2.9848 0.0199,-6.0019 -0.0047,-8.9885z"/>
 </g>
</svg>
