<?xml version="1.0" encoding="UTF-8"?>
<!DOCTYPE svg PUBLIC "-//W3C//DTD SVG 1.1//EN" "http://www.w3.org/Graphics/SVG/1.1/DTD/svg11.dtd">
<!-- Creator: CorelDRAW -->
<svg xmlns="http://www.w3.org/2000/svg" xml:space="preserve" width="10mm" height="10mm" style="shape-rendering:geometricPrecision; text-rendering:geometricPrecision; image-rendering:optimizeQuality; fill-rule:evenodd; clip-rule:evenodd"
viewBox="0 0 10 10"
 xmlns:xlink="http://www.w3.org/1999/xlink">
 <defs>
  <style type="text/css">
   <![CDATA[
    .str0 {stroke:#1385A0;stroke-width:0.2}
    .fil0 {fill:url(#id0)}
    .fil2 {fill:url(#id1)}
    .fil1 {fill:url(#id2);fill-rule:nonzero}
   ]]>
  </style>
  <linearGradient id="id0" gradientUnits="userSpaceOnUse" x1="5.3942" y1="8.5951" x2="5.3942" y2="0.2661">
   <stop offset="0" style="stop-color:#098BAF"/>
   <stop offset="1" style="stop-color:#4AB2CF"/>
  </linearGradient>
  <radialGradient id="id1" gradientUnits="userSpaceOnUse" cx="5.2961" cy="9.4549" r="23.9007" fx="5.2961" fy="9.4549">
   <stop offset="0" style="stop-color:#CCCCCC"/>
   <stop offset="0.431373" style="stop-color:#DADBDB"/>
   <stop offset="1" style="stop-color:#E8E9EA"/>
  </radialGradient>
  <linearGradient id="id2" gradientUnits="userSpaceOnUse" x1="6.9795" y1="8.6845" x2="6.9795" y2="2.2322">
   <stop offset="0" style="stop-color:#E6E6E6"/>
   <stop offset="1" style="stop-color:#FEFEFE"/>
  </linearGradient>
 </defs>
 <g id="Слой_x0020_1">
  <metadata id="CorelCorpID_0Corel-Layer"/>
  <path class="fil0 str0" d="M7.3268 2.3263l-2.2981 0c-0.2086,-0.036 -0.2292,-0.3131 -0.0642,-0.4111 0.3392,-0.1568 0.5653,-0.4378 0.5653,-0.7586 0,-0.4918 -0.5317,-0.8905 -1.1875,-0.8905 -0.6557,0 -1.1874,0.3987 -1.1874,0.8905 0,0.3259 0.2334,0.6108 0.5816,0.766 0.1934,0.0915 0.1606,0.3608 -0.017,0.4037l-2.3222 0 0 2.4948c0.0505,0.1687 0.3139,0.1948 0.4042,0.005 0.1557,-0.3482 0.4417,-0.5816 0.7687,-0.5816 0.4938,0 0.894,0.5317 0.894,1.1875 0,0.6557 -0.4002,1.1874 -0.894,1.1874 -0.3219,0 -0.604,-0.2261 -0.7614,-0.5653 -0.1029,-0.1727 -0.3982,-0.1419 -0.4115,0.0945l0 2.4465 2.2989 0c0.1984,-0.0232 0.2421,-0.3083 0.0403,-0.4038 -0.3482,-0.1553 -0.5816,-0.4401 -0.5816,-0.7661 0,-0.4918 0.5317,-0.8905 1.1874,-0.8905 0.6558,0 1.1875,0.3987 1.1875,0.8905 0,0.3208 -0.2261,0.6019 -0.5653,0.7586 -0.1658,0.0985 -0.1429,0.3772 0.0684,0.4113l2.2939 0 0 -2.4911c0.0468,-0.195 0.3195,-0.2111 0.4152,-0.0499 0.1568,0.3392 0.4378,0.5653 0.7586,0.5653 0.4918,0 0.8905,-0.5317 0.8905,-1.1874 0,-0.6558 -0.3987,-1.1875 -0.8905,-1.1875 -0.3259,0 -0.6108,0.2334 -0.766,0.5816 -0.0879,0.1856 -0.3481,0.1647 -0.4078,0.0059l0 -2.5057z"/>
  <path class="fil1" d="M4.7634 6.6915c-0.1792,-0.3813 -0.2778,-0.7966 -0.2778,-1.2308 0,-0.7449 0.2926,-1.4335 0.787,-1.9931 0.4758,-0.5387 1.1392,-0.9579 1.9075,-1.1909 0.051,-0.0338 0.1902,-0.0445 0.2333,-0.0375l0.0013 0.3414c-0.0314,0.0185 -0.0565,0.0297 -0.087,0.0495 -0.4058,0.2649 -0.7507,0.6599 -0.9976,1.133 -0.0365,0.0699 -0.0707,0.1416 -0.1028,0.2148l1.191 0 0 0.2214 -1.2794 0c-0.1247,0.3451 -0.2007,0.7187 -0.2168,1.1055l2.4845 0c0,-0.3808 0,-0.7615 0,-1.1422 0.0738,-0.0102 0.1477,-0.012 0.2215,0l0 1.1422 0.8454 0 0 0.2214 -0.8454 0c-0.0012,0.3931 -0.0022,0.7861 -0.0034,1.1792 -0.0738,0.0046 -0.1476,0.0041 -0.2214,0l0.0033 -1.1792 -2.4871 0c0.0081,0.4183 0.0928,0.8243 0.2361,1.198l1.2625 -0.0017 0 0.2214 -1.1691 0.0017c0.0267,0.0579 0.0549,0.115 0.0844,0.171 0.2718,0.5155 0.6444,0.9493 1.0834,1.2215l-0.0017 0.3461c-0.0285,0.0003 -0.1586,-0.0087 -0.1868,-0.022 -0.7199,-0.2081 -1.3486,-0.5785 -1.8213,-1.0576 0.038,-0.0711 0.0439,-0.1735 0.0286,-0.2938 0.4277,0.4858 1.019,0.8684 1.7076,1.0938 -0.4014,-0.2915 -0.7509,-0.7027 -1.0054,-1.1851 -0.0468,-0.0889 -0.0906,-0.1803 -0.1308,-0.2739l-0.7821 0.0045c-0.1061,-0.1181 -0.3518,-0.2475 -0.4615,-0.2586zm0.2639 0.0327l0.8925 0c-0.135,-0.3762 -0.2143,-0.7815 -0.2218,-1.198l-0.9902 0c0.0105,0.425 0.1235,0.8296 0.3195,1.198zm-0.3156 -1.4194l0.9888 0c0.0152,-0.3847 0.0866,-0.7577 0.2045,-1.1055l-0.8763 0c-0.1826,0.3415 -0.2936,0.7143 -0.317,1.1055zm0.4481 -1.3269l0.8279 0c0.0445,-0.1088 0.0935,-0.2144 0.1469,-0.3168 0.2338,-0.4483 0.5508,-0.8316 0.9238,-1.1118 -0.6501,0.2293 -1.2102,0.5999 -1.6205,1.0644 -0.1023,0.1158 -0.1953,0.2375 -0.2781,0.3642z"/>
  <ellipse class="fil2" cx="5.29607" cy="9.45487" rx="3.99167" ry="0.303412"/>
 </g>
</svg>
