<?xml version="1.0" encoding="UTF-8"?>
<!DOCTYPE svg PUBLIC "-//W3C//DTD SVG 1.1//EN" "http://www.w3.org/Graphics/SVG/1.1/DTD/svg11.dtd">
<!-- Creator: CorelDRAW -->
<svg xmlns="http://www.w3.org/2000/svg" xml:space="preserve" width="10mm" height="10mm" style="shape-rendering:geometricPrecision; text-rendering:geometricPrecision; image-rendering:optimizeQuality; fill-rule:evenodd; clip-rule:evenodd"
viewBox="0 0 10 10"
 xmlns:xlink="http://www.w3.org/1999/xlink">
 <defs>
  <style type="text/css">
   <![CDATA[
    .str2 {stroke:#B3B3B3;stroke-width:0.2}
    .str0 {stroke:#D2D2D2;stroke-width:0.2}
    .str1 {stroke:#D7D7D7;stroke-width:0.2}
    .fil11 {fill:none}
    .fil10 {fill:black}
    .fil6 {fill:#A7A39D}
    .fil13 {fill:#B3B3B3}
    .fil5 {fill:#CABBA3}
    .fil1 {fill:#CCCCCC}
    .fil7 {fill:#D1C5AE}
    .fil18 {fill:#DBA7A9}
    .fil15 {fill:#E3BDBF}
    .fil8 {fill:#E5D7BF}
    .fil14 {fill:#E6E6E6}
    .fil12 {fill:#EA9D06}
    .fil16 {fill:#F0C5C6}
    .fil9 {fill:#FFCF61}
    .fil4 {fill:white}
    .fil17 {fill:#DBA7A9;fill-rule:nonzero}
    .fil2 {fill:url(#id2)}
    .fil0 {fill:url(#id3)}
    .fil3 {fill:url(#id4)}
    .fil19 {fill:url(#id5)}
   ]]>
  </style>
   <mask id="id0">
  <linearGradient id="id1" gradientUnits="userSpaceOnUse" x1="0.9762" y1="2.2661" x2="1.134" y2="2.0939">
   <stop offset="0" style="stop-opacity:1; stop-color:white"/>
   <stop offset="1" style="stop-opacity:0; stop-color:white"/>
  </linearGradient>
    <rect style="fill:url(#id1)" x="0.4378" y="1.5641" width="1.2345" height="1.2318"/>
   </mask>
  <linearGradient id="id2" gradientUnits="userSpaceOnUse" x1="0.5493" y1="7.0928" x2="6.755" y2="0.8871">
   <stop offset="0" style="stop-color:#EBA31D"/>
   <stop offset="0.588235" style="stop-color:#F4B626"/>
   <stop offset="1" style="stop-color:#FECA2F"/>
  </linearGradient>
  <linearGradient id="id3" gradientUnits="userSpaceOnUse" x1="9.0671" y1="0.6213" x2="2.2218" y2="8.2963">
   <stop offset="0" style="stop-color:#E5E5E5"/>
   <stop offset="1" style="stop-color:#FEFEFE"/>
  </linearGradient>
  <linearGradient id="id4" gradientUnits="userSpaceOnUse" x1="0.6631" y1="2.7462" x2="2.1963" y2="0.8325">
   <stop offset="0" style="stop-color:#B3B3B3"/>
   <stop offset="0.478431" style="stop-color:#D8D8D8"/>
   <stop offset="1" style="stop-color:#FEFEFE"/>
  </linearGradient>
  <radialGradient id="id5" gradientUnits="userSpaceOnUse" cx="5.1488" cy="9.4515" r="23.9007" fx="5.1488" fy="9.4515">
   <stop offset="0" style="stop-color:#CCCCCC"/>
   <stop offset="0.431373" style="stop-color:#DADBDB"/>
   <stop offset="1" style="stop-color:#E8E9EA"/>
  </radialGradient>
 </defs>
 <g id="Слой_x0020_1">
  <metadata id="CorelCorpID_0Corel-Layer"/>
  <polygon class="fil0 str0" points="2.363,0.3548 6.8182,0.3548 6.8183,2.4308 8.9261,2.4628 8.9261,8.5628 2.363,8.5628 "/>
  <polygon class="fil1" points="2.9698,1.6005 6.6905,1.6005 6.6905,1.8879 2.9698,1.8879 "/>
  <polygon class="fil1" points="2.9698,2.2552 6.6905,2.2552 6.6905,2.5426 2.9698,2.5426 "/>
  <polygon class="fil1" points="2.9698,2.9737 8.3033,2.9737 8.3033,3.2611 2.9698,3.2611 "/>
  <polygon class="fil1" points="2.9698,3.6604 8.3033,3.6604 8.3033,3.9479 2.9698,3.9479 "/>
  <polygon class="fil1" points="2.9698,4.3471 8.3033,4.3471 8.3033,4.6345 2.9698,4.6345 "/>
  <polygon class="fil1" points="2.9698,5.0177 8.3033,5.0177 8.3033,5.3052 2.9698,5.3052 "/>
  <polygon class="fil1" points="2.9698,5.6884 8.3033,5.6884 8.3033,5.9758 2.9698,5.9758 "/>
  <polygon class="fil1" points="2.9698,6.3911 8.3033,6.3911 8.3033,6.6785 2.9698,6.6785 "/>
  <polygon class="fil1" points="2.9698,7.0777 8.3033,7.0777 8.3033,7.3651 2.9698,7.3651 "/>
  <polygon class="fil1" points="2.9698,7.7651 8.3033,7.7651 8.3033,8.0525 2.9698,8.0525 "/>
  <polygon class="fil2" points="6.1112,7.0904 5.6113,6.9754 0.547,2.021 1.6509,0.8893 6.7447,5.878 6.7573,6.3337 6.4258,6.3017 6.3999,6.6593 6.0792,6.7222 "/>
  <polygon class="fil3" points="1.6426,0.882 2.3274,1.5499 1.2215,2.6968 0.5319,2.0278 "/>
  <polygon class="fil4 str1" points="6.8422,2.4165 8.8197,2.4317 8.8645,2.3691 6.9089,0.3535 6.8422,0.3837 "/>
  <polygon class="fil5" points="6.7615,6.3242 6.7678,5.896 7.9359,8.2274 5.6159,6.9838 6.111,7.0388 6.0803,6.7007 6.391,6.6829 6.4061,6.292 "/>
  <polygon class="fil6" points="5.6215,6.9915 7.948,8.2278 6.0792,7.0432 "/>
  <polygon class="fil7" points="6.7425,5.8607 7.9691,8.2423 6.7594,6.3459 "/>
  <polygon class="fil8" points="6.7466,6.3258 7.9646,8.2445 6.3796,6.6762 6.3995,6.3032 "/>
  <polygon class="fil9" points="6.7437,5.8753 6.7633,6.3258 2.0834,1.8042 2.3313,1.5573 "/>
  <polygon class="fil10" points="7.948,8.2112 7.5475,7.4436 7.2139,7.8273 "/>
  <polyline class="fil11 str2" points="6.624,0.4429 6.624,2.6209 8.8433,2.6268 "/>
  <polygon class="fil12" points="5.6455,7.0029 6.1059,7.043 1.4487,2.4657 1.2292,2.7006 "/>
  <polygon class="fil13" style="mask:url(#id0)" points="1.5723,2.3182 0.9007,1.6641 0.5378,2.0352 1.222,2.6959 "/>
  <polygon class="fil14" points="2.3248,1.5485 1.6424,0.8938 1.3939,1.158 2.0785,1.8019 "/>
  <path class="fil15" d="M1.6415 0.8876c-0.3594,0.3853 -0.7393,0.7604 -1.0987,1.1457 -0.0841,-0.1585 -0.1461,-0.324 -0.2075,-0.4824 0.113,-0.5171 0.3195,-0.7185 0.7798,-0.8155 0.1728,0.0734 0.3537,0.0788 0.5264,0.1522z"/>
  <path class="fil16" d="M1.2389 1.2719l0.3981 -0.3902c-0.1106,-0.0408 -0.3633,-0.1128 -0.5391,-0.1527 -0.1587,0.0536 -0.2088,0.0421 -0.3238,0.1351l0.4648 0.4078z"/>
  <polygon class="fil17" points="0.5113,1.9591 1.554,0.8566 1.6374,0.8922 0.5457,2.0286 "/>
  <path class="fil18" d="M0.9153 1.6275l-0.3696 0.3957c-0.0721,-0.1466 -0.1645,-0.3392 -0.2139,-0.4972 0.0451,-0.1613 0.0571,-0.2249 0.1363,-0.356l0.4472 0.4575z"/>
  <ellipse class="fil19" cx="5.14884" cy="9.45154" rx="3.92916" ry="0.331195"/>
 </g>
</svg>
