<?xml version="1.0" encoding="UTF-8"?>
<!DOCTYPE svg PUBLIC "-//W3C//DTD SVG 1.1//EN" "http://www.w3.org/Graphics/SVG/1.1/DTD/svg11.dtd">
<!-- Creator: CorelDRAW -->
<svg xmlns="http://www.w3.org/2000/svg" xml:space="preserve" width="10mm" height="10mm" style="shape-rendering:geometricPrecision; text-rendering:geometricPrecision; image-rendering:optimizeQuality; fill-rule:evenodd; clip-rule:evenodd"
viewBox="0 0 10 10"
 xmlns:xlink="http://www.w3.org/1999/xlink">
 <defs>
  <style type="text/css">
   <![CDATA[
    .fil0 {fill:url(#id0)}
   ]]>
  </style>
  <linearGradient id="id0" gradientUnits="userSpaceOnUse" x1="4.9314" y1="8.956" x2="4.9314" y2="1.1342">
   <stop offset="0" style="stop-color:#424242"/>
   <stop offset="1" style="stop-color:#848484"/>
  </linearGradient>
 </defs>
 <g id="Слой_x0020_1">
  <metadata id="CorelCorpID_0Corel-Layer"/>
  <path class="fil0" d="M0.6206 1.1342l8.6217 0 0.15 0 0 0.15 0 7.5219 0 0.15 -0.15 0 -8.6217 0 -0.1499 0 -0.0001 -0.15 0 -7.5219 0.0001 -0.15 0.1499 0zm1.2469 6.0384l6.2618 0 0 0.6341 -6.2618 0 0 -0.6341zm-0.0667 -5.0023l2.8889 0 0 2.5204 -2.8889 0 0 -2.5204zm4.1209 0.2398l2.2076 0 0 0.6341 -2.2076 0 0 -0.6341zm0 1.4993l2.2076 0 0 0.6341 -2.2076 0 0 -0.6341zm-4.0542 1.6757l6.2618 0 0 0.6341 -6.2618 0 0 -0.6341z"/>
 </g>
</svg>
