<?xml version="1.0" encoding="UTF-8"?>
<!DOCTYPE svg PUBLIC "-//W3C//DTD SVG 1.1//EN" "http://www.w3.org/Graphics/SVG/1.1/DTD/svg11.dtd">
<!-- Creator: CorelDRAW -->
<svg xmlns="http://www.w3.org/2000/svg" xml:space="preserve" width="50mm" height="50mm" style="shape-rendering:geometricPrecision; text-rendering:geometricPrecision; image-rendering:optimizeQuality; fill-rule:evenodd; clip-rule:evenodd"
viewBox="0 0 50 50"
 xmlns:xlink="http://www.w3.org/1999/xlink">
 <defs>
  <style type="text/css">
   <![CDATA[
    .str1 {stroke:#957239;stroke-width:0.2}
    .str0 {stroke:#B3B3B3;stroke-width:0.2}
    .str4 {stroke:#B9582B;stroke-width:0.2}
    .str2 {stroke:#CFA25D;stroke-width:0.2}
    .str3 {stroke:#E6E6E6;stroke-width:0.2}
    .fil7 {fill:none}
    .fil16 {fill:#876C3D}
    .fil14 {fill:#C08C3E}
    .fil15 {fill:#D6B076}
    .fil17 {fill:#E2C59B}
    .fil31 {fill:#1D4865;fill-rule:nonzero}
    .fil30 {fill:#1E4968;fill-rule:nonzero}
    .fil10 {fill:#666666;fill-rule:nonzero}
    .fil8 {fill:#999999;fill-rule:nonzero}
    .fil32 {fill:white;fill-rule:nonzero}
    .fil28 {fill:url(#id0)}
    .fil20 {fill:url(#id1)}
    .fil3 {fill:url(#id2)}
    .fil27 {fill:url(#id3)}
    .fil1 {fill:url(#id4)}
    .fil25 {fill:url(#id5)}
    .fil11 {fill:url(#id6)}
    .fil4 {fill:url(#id7)}
    .fil5 {fill:url(#id8)}
    .fil33 {fill:url(#id9)}
    .fil2 {fill:url(#id10)}
    .fil6 {fill:url(#id11)}
    .fil18 {fill:url(#id12)}
    .fil19 {fill:url(#id13)}
    .fil21 {fill:url(#id14)}
    .fil34 {fill:url(#id15)}
    .fil26 {fill:url(#id16)}
    .fil35 {fill:url(#id17)}
    .fil22 {fill:url(#id18)}
    .fil23 {fill:url(#id19)}
    .fil29 {fill:url(#id20)}
    .fil24 {fill:url(#id21)}
    .fil12 {fill:url(#id22)}
    .fil0 {fill:url(#id23)}
    .fil13 {fill:url(#id24);fill-rule:nonzero}
    .fil9 {fill:url(#id25);fill-rule:nonzero}
   ]]>
  </style>
  <linearGradient id="id0" gradientUnits="userSpaceOnUse" x1="30.1757" y1="24.77" x2="29.3801" y2="39.3562">
   <stop offset="0" style="stop-color:#235375"/>
   <stop offset="1" style="stop-color:#22465E"/>
  </linearGradient>
  <linearGradient id="id1" gradientUnits="userSpaceOnUse" x1="30.7658" y1="36.8311" x2="30.7178" y2="40.4863">
   <stop offset="0" style="stop-color:#876C3D"/>
   <stop offset="0.439216" style="stop-color:#AB8B56"/>
   <stop offset="1" style="stop-color:#CFAB70"/>
  </linearGradient>
  <linearGradient id="id2" gradientUnits="userSpaceOnUse" x1="28.6063" y1="30.8223" x2="33.464" y2="30.8223">
   <stop offset="0" style="stop-color:#CCCCCC"/>
   <stop offset="0.701961" style="stop-color:#E5E5E5"/>
   <stop offset="1" style="stop-color:#FEFEFE"/>
  </linearGradient>
  <linearGradient id="id3" gradientUnits="userSpaceOnUse" x1="2.0245" y1="31.9882" x2="3.8868" y2="31.9882">
   <stop offset="0" style="stop-color:#2E658B"/>
   <stop offset="0.509804" style="stop-color:#5F8DAE"/>
   <stop offset="1" style="stop-color:#377099"/>
  </linearGradient>
  <linearGradient id="id4" gradientUnits="userSpaceOnUse" x1="14.975" y1="4.8004" x2="35.8101" y2="4.8004">
   <stop offset="0" style="stop-color:#FCFCFC"/>
   <stop offset="0.270588" style="stop-color:#CCCCCC"/>
   <stop offset="0.74902" style="stop-color:#CDCDCD"/>
   <stop offset="1" style="stop-color:#FCFCFC"/>
  </linearGradient>
  <linearGradient id="id5" gradientUnits="userSpaceOnUse" x1="2.333" y1="24.8485" x2="2.333" y2="21.8068">
   <stop offset="0" style="stop-color:#1C3B50"/>
   <stop offset="0.478431" style="stop-color:#1F455B"/>
   <stop offset="1" style="stop-color:#224F66"/>
  </linearGradient>
  <linearGradient id="id6" gradientUnits="userSpaceOnUse" x1="25.3496" y1="36.7135" x2="25.3496" y2="35.2955">
   <stop offset="0" style="stop-color:#AA7B31"/>
   <stop offset="1" style="stop-color:#C9A164"/>
  </linearGradient>
  <linearGradient id="id7" gradientUnits="userSpaceOnUse" x1="25.2973" y1="3.2755" x2="25.2973" y2="0.9617">
   <stop offset="0" style="stop-color:#E4BB7C"/>
   <stop offset="1" style="stop-color:#D5A761"/>
  </linearGradient>
  <linearGradient id="id8" gradientUnits="userSpaceOnUse" x1="25.2974" y1="5.0373" x2="25.2974" y2="2.8827">
   <stop offset="0" style="stop-color:#B18D56"/>
   <stop offset="0.521569" style="stop-color:#C99341"/>
   <stop offset="1" style="stop-color:#DFC399"/>
  </linearGradient>
  <linearGradient id="id9" gradientUnits="userSpaceOnUse" x1="29.6321" y1="39.3436" x2="29.1305" y2="24.7995">
   <stop offset="0" style="stop-color:#265D85"/>
   <stop offset="0.34902" style="stop-color:#447091"/>
   <stop offset="0.690196" style="stop-color:#4A7694"/>
   <stop offset="1" style="stop-color:#204661"/>
  </linearGradient>
  <linearGradient id="id10" gradientUnits="userSpaceOnUse" x1="25.3227" y1="36.7882" x2="25.3227" y2="45.5208">
   <stop offset="0" style="stop-color:#957442"/>
   <stop offset="1" style="stop-color:#E0B97B"/>
  </linearGradient>
  <linearGradient id="id11" gradientUnits="userSpaceOnUse" xlink:href="#id10" x1="18.8546" y1="36.6389" x2="18.8546" y2="47.3121">
  </linearGradient>
  <linearGradient id="id12" gradientUnits="userSpaceOnUse" x1="14.5656" y1="46.6948" x2="20.4478" y2="37.8714">
   <stop offset="0" style="stop-color:#F0CB90"/>
   <stop offset="1" style="stop-color:#9A7946"/>
  </linearGradient>
  <linearGradient id="id13" gradientUnits="userSpaceOnUse" xlink:href="#id12" x1="30.3525" y1="46.6948" x2="36.2347" y2="37.8714">
  </linearGradient>
  <linearGradient id="id14" gradientUnits="userSpaceOnUse" x1="25.3453" y1="39.3474" x2="25.3261" y2="40.8712">
   <stop offset="0" style="stop-color:#957239"/>
   <stop offset="1" style="stop-color:#B8945D"/>
  </linearGradient>
  <linearGradient id="id15" gradientUnits="userSpaceOnUse" x1="3.3869" y1="24.2819" x2="29.6421" y2="24.2819">
   <stop offset="0" style="stop-color:#286189"/>
   <stop offset="1" style="stop-color:#225274"/>
  </linearGradient>
  <linearGradient id="id16" gradientUnits="userSpaceOnUse" x1="2.5281" y1="31.1183" x2="1.5755" y2="31.1067">
   <stop offset="0" style="stop-color:#2E658B"/>
   <stop offset="0.639216" style="stop-color:#2E658B"/>
   <stop offset="1" style="stop-color:#2E658B"/>
  </linearGradient>
  <linearGradient id="id17" gradientUnits="userSpaceOnUse" x1="4.8784" y1="38.4752" x2="28.1285" y2="38.4752">
   <stop offset="0" style="stop-color:#314E61"/>
   <stop offset="1" style="stop-color:#112635"/>
  </linearGradient>
  <linearGradient id="id18" gradientUnits="userSpaceOnUse" x1="19.9342" y1="39.6194" x2="19.952" y2="40.541">
   <stop offset="0" style="stop-color:#957239"/>
   <stop offset="1" style="stop-color:#B38F58"/>
  </linearGradient>
  <linearGradient id="id19" gradientUnits="userSpaceOnUse" x1="29.7508" y1="35.989" x2="31.54" y2="35.989">
   <stop offset="0" style="stop-color:#957239"/>
   <stop offset="1" style="stop-color:#BA8E4B"/>
  </linearGradient>
  <linearGradient id="id20" gradientUnits="userSpaceOnUse" x1="28.9534" y1="31.024" x2="28.741" y2="33.077">
   <stop offset="0" style="stop-color:#25587D"/>
   <stop offset="0.501961" style="stop-color:#25567A"/>
   <stop offset="1" style="stop-color:#275C81"/>
  </linearGradient>
  <radialGradient id="id21" gradientUnits="userSpaceOnUse" cx="10.2528" cy="28.6369" r="18.055" fx="10.2528" fy="28.6369">
   <stop offset="0" style="stop-color:#3F7BA6"/>
   <stop offset="0.478431" style="stop-color:#316890"/>
   <stop offset="1" style="stop-color:#23567A"/>
  </radialGradient>
  <radialGradient id="id22" gradientUnits="userSpaceOnUse" cx="16.8431" cy="25.7045" r="1.5388" fx="16.8431" fy="25.7045">
   <stop offset="0" style="stop-color:#E35B1C"/>
   <stop offset="0.580392" style="stop-color:#DD5112"/>
   <stop offset="1" style="stop-color:#B84310"/>
  </radialGradient>
  <radialGradient id="id23" gradientUnits="userSpaceOnUse" cx="26.1502" cy="13.7597" r="22.093" fx="26.1502" fy="13.7597">
   <stop offset="0" style="stop-color:#FEFEFE"/>
   <stop offset="0.529412" style="stop-color:white"/>
   <stop offset="1" style="stop-color:#EDEDED"/>
  </radialGradient>
  <linearGradient id="id24" gradientUnits="userSpaceOnUse" x1="25.2783" y1="5.1431" x2="25.2783" y2="2.7389">
   <stop offset="0" style="stop-color:#957239"/>
   <stop offset="1" style="stop-color:#D7B37C"/>
  </linearGradient>
  <radialGradient id="id25" gradientUnits="userSpaceOnUse" cx="25.6875" cy="20.5997" r="18.2305" fx="25.6875" fy="20.5997">
   <stop offset="0" style="stop-color:#E35B1C"/>
   <stop offset="0.458824" style="stop-color:#C13D02"/>
   <stop offset="1" style="stop-color:#B84310"/>
  </radialGradient>
 </defs>
 <g id="Слой_x0020_1">
  <metadata id="CorelCorpID_0Corel-Layer"/>
  <polygon class="fil0 str0" points="3.1736,3.2178 47.3595,3.2178 47.3595,35.1631 3.1736,35.1631 "/>
  <path class="fil1" d="M35.7778 3.3491l-20.7679 -0.0233c-0.0183,0.2537 -0.0349,0.6818 -0.0349,1.4862l0 0.0002c0,0.8047 0.7031,1.4629 1.5626,1.4629l17.7099 0c0.8596,0 1.5626,-0.6582 1.5626,-1.4629l0 -0.0002c0,-0.8047 -0.0021,-0.9994 -0.0323,-1.4629z"/>
  <polygon class="fil2 str1" points="23.9793,36.7882 26.6662,36.7882 26.6662,45.5209 23.9793,45.5209 "/>
  <polygon class="fil3" points="28.6063,32.0034 30.7522,26.5562 33.464,26.5562 30.6821,32.2201 31.7837,35.0885 29.7763,35.0885 "/>
  <polygon class="fil4 str2" points="24.0285,3.2755 26.5662,3.2755 26.5662,0.9617 24.0285,0.9617 "/>
  <path class="fil5 str1" d="M33.4821 2.8997l-16.3674 -0.017c-0.0144,0.1854 -0.0275,0.4981 -0.0275,1.0858l0 0.0001c0,0.5879 0.5541,1.0688 1.2315,1.0688l13.9574 0c0.6774,0 1.2315,-0.4809 1.2315,-1.0688l0 -0.0001c0,-0.5879 -0.0017,-0.7301 -0.0255,-1.0688z"/>
  <polygon class="fil6 str1" points="19.9742,36.6388 22.8851,36.6388 17.8843,47.3121 14.8241,47.3121 "/>
  <polygon class="fil6 str1" points="30.7953,36.6388 27.959,36.6388 32.9598,47.3121 36.02,47.3121 "/>
  <line class="fil7 str3" x1="6.8154" y1="12.922" x2="42.4924" y2= "12.922" />
  <line class="fil7 str3" x1="6.8154" y1="27.8555" x2="42.4924" y2= "27.8555" />
  <line class="fil7 str3" x1="6.8154" y1="22.8787" x2="42.4924" y2= "22.8787" />
  <line class="fil7 str3" x1="6.8154" y1="17.9018" x2="42.4924" y2= "17.9018" />
  <line class="fil7 str3" x1="11.6922" y1="32.8982" x2="11.6922" y2= "6.5567" />
  <line class="fil7 str3" x1="16.6125" y1="32.8982" x2="16.6125" y2= "6.5567" />
  <line class="fil7 str3" x1="21.6567" y1="32.8982" x2="21.6567" y2= "6.5567" />
  <line class="fil7 str3" x1="26.5458" y1="32.8982" x2="26.5458" y2= "6.5567" />
  <line class="fil7 str3" x1="31.6212" y1="32.8982" x2="31.6212" y2= "6.5567" />
  <g>
   <path class="fil8" d="M6.4983 6.4136l0.3356 0.0001 1.0232 1.5784 -0.3356 0.2176 -1.0232 -1.5784 0.3356 0.0001 -0.3356 -0.2178zm0 0l0.1679 -0.2587 0.1677 0.2588 -0.3356 -0.0001zm-0.8562 1.6873l-0.1678 -0.1089 1.024 -1.5784 0.3356 0.2178 -1.024 1.5784 -0.1678 -0.1089zm0.824 24.6807l0 -25.9487 0.4 0 0 25.9487 -0.2 0.2 -0.2 -0.2zm0.2 0.2l-0.2 0 0 -0.2 0.2 0.2zm37.5921 0l-37.5921 0 0 -0.4 37.5921 0 0 0.4zm0.4193 -0.0322l-0.2178 -0.3356 0.0001 0.3356 -1.5784 -1.0232 0.2176 -0.3356 1.5784 1.0232 0.0001 0.3356zm0 0l-0.0001 -0.3356 0.2588 0.1677 -0.2587 0.1679zm-1.6873 0.8562l-0.1089 -0.1678 1.5784 -1.024 0.2178 0.3356 -1.5784 1.024 -0.1089 -0.1678z"/>
  </g>
  <line class="fil7 str3" x1="36.6712" y1="32.5722" x2="36.6712" y2= "6.5567" />
  <path class="fil9" d="M7.457 30.1725l7.7697 -4.559c0.0471,-0.8441 0.7463,-1.5139 1.6021,-1.5139 0.8188,0 1.4943,0.6131 1.5924,1.4053l2.1816 1.1748c0.2848,-0.2582 0.6628,-0.4156 1.0775,-0.4156 0.2439,0 0.475,0.0545 0.682,0.1518l4.9362 -4.9866c-0.0375,-0.136 -0.0576,-0.2793 -0.0576,-0.4272 0,-0.8863 0.7184,-1.6047 1.6047,-1.6047 0.6173,0 1.153,0.3486 1.4214,0.8595l3.914 0.8997c0.2793,-0.4722 0.7936,-0.7889 1.382,-0.7889 0.0878,0 0.1739,0.0071 0.2578,0.0207l6.8374 -10.6505 1.2598 0.8086 -6.9001 10.7482c0.096,0.2059 0.1498,0.4355 0.1498,0.6777 0,0.8863 -0.7184,1.6047 -1.6047,1.6047 -0.6328,0 -1.1799,-0.3662 -1.4412,-0.8983l-3.8767 -0.8912c-0.275,0.4889 -0.7986,0.8192 -1.3995,0.8192 -0.1828,0 -0.3585,-0.0306 -0.5221,-0.0869l-5.0565 5.1081c0.0118,0.0785 0.018,0.159 0.018,0.2408 0,0.8863 -0.7184,1.6047 -1.6047,1.6047 -0.8059,0 -1.473,-0.594 -1.5873,-1.3682l-2.2108 -1.1905c-0.2818,0.2455 -0.6503,0.3942 -1.0534,0.3942 -0.3671,0 -0.7052,-0.1233 -0.9756,-0.3307l-7.6404 4.4832 -0.7558 -1.289z"/>
  <path class="fil10" d="M5.3005 33.4679c0,-0.107 0.0109,-0.1932 0.033,-0.2583 0.0219,-0.0653 0.0548,-0.1156 0.0982,-0.151 0.0434,-0.0354 0.098,-0.0531 0.1637,-0.0531 0.0487,0 0.0912,0.0099 0.1279,0.0295 0.0366,0.0194 0.0667,0.0476 0.0908,0.0845 0.0238,0.0368 0.0425,0.0817 0.056,0.1346 0.0137,0.0529 0.0204,0.1241 0.0204,0.2138 0,0.1062 -0.0109,0.1917 -0.0326,0.257 -0.0219,0.0653 -0.0546,0.1157 -0.098,0.1513 -0.0434,0.0356 -0.0982,0.0533 -0.1645,0.0533 -0.0872,0 -0.1557,-0.0312 -0.2054,-0.0938 -0.0596,-0.0752 -0.0895,-0.198 -0.0895,-0.3678zm0.1141 0c0,0.1485 0.0175,0.2473 0.0523,0.2966 0.0347,0.0491 0.0775,0.0738 0.1285,0.0738 0.0512,0 0.0939,-0.0249 0.1287,-0.0742 0.0348,-0.0493 0.0523,-0.1481 0.0523,-0.2962 0,-0.1489 -0.0175,-0.2479 -0.0523,-0.2968 -0.0348,-0.0491 -0.0779,-0.0735 -0.1298,-0.0735 -0.0512,0 -0.0918,0.0217 -0.1224,0.0648 -0.0381,0.055 -0.0573,0.157 -0.0573,0.3055z"/>
  <polygon class="fil11 str1" points="48.1889,36.7135 2.5103,36.7135 2.5103,35.2954 48.1889,35.2954 "/>
  <path class="fil10" d="M5.2961 28.2513l-0.111 0 0 -0.7078c-0.0267,0.0255 -0.0617,0.0509 -0.1051,0.0764 -0.0436,0.0255 -0.0826,0.0447 -0.1171,0.0573l0 -0.1072c0.0621,-0.0293 0.1165,-0.0647 0.163,-0.1062 0.0464,-0.0417 0.0794,-0.0819 0.0988,-0.1211l0.0714 0 0 0.9086zm0.2847 -0.4462c0,-0.107 0.0109,-0.1932 0.033,-0.2583 0.0219,-0.0653 0.0548,-0.1156 0.0982,-0.151 0.0434,-0.0354 0.098,-0.0531 0.1637,-0.0531 0.0487,0 0.0912,0.0099 0.1279,0.0295 0.0366,0.0194 0.0667,0.0476 0.0908,0.0845 0.0238,0.0368 0.0425,0.0817 0.056,0.1346 0.0137,0.0529 0.0204,0.1241 0.0204,0.2138 0,0.1062 -0.0109,0.1917 -0.0326,0.257 -0.0219,0.0653 -0.0546,0.1157 -0.098,0.1513 -0.0434,0.0356 -0.0982,0.0533 -0.1645,0.0533 -0.0872,0 -0.1557,-0.0312 -0.2054,-0.0938 -0.0596,-0.0752 -0.0895,-0.198 -0.0895,-0.3678zm0.1141 0c0,0.1485 0.0175,0.2473 0.0523,0.2966 0.0347,0.0491 0.0775,0.0738 0.1285,0.0738 0.0512,0 0.0939,-0.0249 0.1287,-0.0742 0.0348,-0.0493 0.0523,-0.1481 0.0523,-0.2962 0,-0.1489 -0.0175,-0.2479 -0.0523,-0.2968 -0.0348,-0.0491 -0.0779,-0.0735 -0.1298,-0.0735 -0.0512,0 -0.0918,0.0217 -0.1224,0.0648 -0.0381,0.055 -0.0573,0.157 -0.0573,0.3055z"/>
  <path class="fil10" d="M5.4356 23.2437l0 0.1068 -0.5981 0c-0.0008,-0.0268 0.0034,-0.0525 0.0129,-0.0771 0.0152,-0.0409 0.0396,-0.0809 0.0731,-0.1205 0.0337,-0.0394 0.0822,-0.0851 0.1454,-0.1369 0.0983,-0.0807 0.1649,-0.1446 0.1995,-0.1917 0.0345,-0.047 0.0518,-0.0917 0.0518,-0.1336 0,-0.044 -0.0158,-0.0811 -0.0472,-0.1115 -0.0316,-0.0301 -0.0727,-0.0452 -0.1233,-0.0452 -0.0535,0 -0.0962,0.016 -0.1282,0.0482 -0.0323,0.032 -0.0485,0.0765 -0.0489,0.1331l-0.1142 -0.0115c0.0078,-0.0854 0.0373,-0.1503 0.0883,-0.1949 0.0509,-0.0447 0.1196,-0.067 0.2056,-0.067 0.0868,0 0.1554,0.0242 0.206,0.0723 0.0508,0.0482 0.0761,0.1078 0.0761,0.179 0,0.0363 -0.0074,0.0719 -0.0224,0.1068 -0.0147,0.035 -0.0394,0.0719 -0.0737,0.1104 -0.0343,0.0388 -0.0914,0.0919 -0.1713,0.1593 -0.0665,0.056 -0.1093,0.0939 -0.1283,0.114 -0.0189,0.0198 -0.0345,0.0398 -0.047,0.06l0.4439 0zm0.1191 -0.3394c0,-0.107 0.0109,-0.1932 0.033,-0.2583 0.0219,-0.0653 0.0548,-0.1156 0.0982,-0.151 0.0434,-0.0354 0.098,-0.0531 0.1637,-0.0531 0.0487,0 0.0912,0.0099 0.1279,0.0295 0.0366,0.0194 0.0667,0.0476 0.0908,0.0845 0.0238,0.0368 0.0425,0.0817 0.056,0.1346 0.0137,0.0529 0.0204,0.1241 0.0204,0.2138 0,0.1062 -0.0109,0.1917 -0.0326,0.257 -0.0219,0.0653 -0.0546,0.1157 -0.098,0.1513 -0.0434,0.0356 -0.0982,0.0533 -0.1645,0.0533 -0.0872,0 -0.1557,-0.0312 -0.2054,-0.0938 -0.0596,-0.0752 -0.0895,-0.198 -0.0895,-0.3678zm0.1141 0c0,0.1485 0.0175,0.2473 0.0523,0.2966 0.0347,0.0491 0.0775,0.0738 0.1285,0.0738 0.0512,0 0.0939,-0.0249 0.1287,-0.0742 0.0348,-0.0493 0.0523,-0.1481 0.0523,-0.2962 0,-0.1489 -0.0175,-0.2479 -0.0523,-0.2968 -0.0348,-0.0491 -0.0779,-0.0735 -0.1298,-0.0735 -0.0512,0 -0.0918,0.0217 -0.1224,0.0648 -0.0381,0.055 -0.0573,0.157 -0.0573,0.3055z"/>
  <path class="fil10" d="M4.8523 18.1108l0.111 -0.0147c0.0129,0.0629 0.0346,0.1082 0.0651,0.136 0.0308,0.0279 0.0681,0.0418 0.1121,0.0418 0.0522,0 0.0965,-0.0182 0.1325,-0.0544 0.0358,-0.0362 0.0539,-0.0811 0.0539,-0.1346 0,-0.051 -0.0166,-0.0931 -0.0499,-0.1262 -0.0335,-0.0331 -0.0758,-0.0497 -0.1273,-0.0497 -0.021,0 -0.0471,0.0042 -0.0783,0.0124l0.0124 -0.0975c0.0074,0.0008 0.0133,0.0012 0.0179,0.0012 0.0472,0 0.0898,-0.0124 0.1277,-0.037 0.0379,-0.0247 0.0569,-0.0628 0.0569,-0.1142 0,-0.0407 -0.0139,-0.0746 -0.0415,-0.1011 -0.0276,-0.0268 -0.0632,-0.0403 -0.1068,-0.0403 -0.0432,0 -0.0793,0.0137 -0.1079,0.0407 -0.0289,0.0272 -0.0474,0.068 -0.0556,0.1224l-0.111 -0.0198c0.0134,-0.0746 0.0444,-0.1323 0.0924,-0.1732 0.0483,-0.0409 0.1081,-0.0615 0.1797,-0.0615 0.0493,0 0.0948,0.0107 0.1363,0.0318 0.0415,0.0213 0.0733,0.0501 0.0955,0.0868 0.0219,0.0367 0.033,0.0754 0.033,0.1167 0,0.039 -0.0105,0.0746 -0.0316,0.1068 -0.021,0.032 -0.052,0.0575 -0.0931,0.0765 0.0535,0.0122 0.095,0.0379 0.1247,0.0769 0.0295,0.0387 0.0443,0.0874 0.0443,0.1458 0,0.079 -0.0287,0.146 -0.0864,0.2009 -0.0575,0.055 -0.1304,0.0824 -0.2185,0.0824 -0.0794,0 -0.1453,-0.0236 -0.1978,-0.071 -0.0524,-0.0472 -0.0823,-0.1085 -0.0897,-0.1839zm0.7024 -0.2073c0,-0.107 0.0109,-0.1932 0.033,-0.2583 0.0219,-0.0653 0.0548,-0.1156 0.0982,-0.151 0.0434,-0.0354 0.098,-0.0531 0.1637,-0.0531 0.0487,0 0.0912,0.0099 0.1279,0.0295 0.0366,0.0194 0.0667,0.0476 0.0908,0.0845 0.0238,0.0368 0.0425,0.0817 0.056,0.1346 0.0137,0.0529 0.0204,0.1241 0.0204,0.2138 0,0.1062 -0.0109,0.1917 -0.0326,0.257 -0.0219,0.0653 -0.0546,0.1157 -0.098,0.1513 -0.0434,0.0356 -0.0982,0.0533 -0.1645,0.0533 -0.0872,0 -0.1557,-0.0312 -0.2054,-0.0938 -0.0596,-0.0752 -0.0895,-0.198 -0.0895,-0.3678zm0.1141 0c0,0.1485 0.0175,0.2473 0.0523,0.2966 0.0347,0.0491 0.0775,0.0738 0.1285,0.0738 0.0512,0 0.0939,-0.0249 0.1287,-0.0742 0.0348,-0.0493 0.0523,-0.1481 0.0523,-0.2962 0,-0.1489 -0.0175,-0.2479 -0.0523,-0.2968 -0.0348,-0.0491 -0.0779,-0.0735 -0.1298,-0.0735 -0.0512,0 -0.0918,0.0217 -0.1224,0.0648 -0.0381,0.055 -0.0573,0.157 -0.0573,0.3055z"/>
  <path class="fil10" d="M5.2077 13.3489l0 -0.2166 -0.3925 0 0 -0.1019 0.4129 -0.5863 0.0908 0 0 0.5863 0.1222 0 0 0.1019 -0.1222 0 0 0.2166 -0.1112 0zm0 -0.3185l0 -0.4079 -0.2832 0.4079 0.2832 0zm0.347 -0.1277c0,-0.107 0.0109,-0.1932 0.033,-0.2583 0.0219,-0.0653 0.0548,-0.1156 0.0982,-0.151 0.0434,-0.0354 0.098,-0.0531 0.1637,-0.0531 0.0487,0 0.0912,0.0099 0.1279,0.0295 0.0366,0.0194 0.0667,0.0476 0.0908,0.0845 0.0238,0.0368 0.0425,0.0817 0.056,0.1346 0.0137,0.0529 0.0204,0.1241 0.0204,0.2138 0,0.1062 -0.0109,0.1917 -0.0326,0.257 -0.0219,0.0653 -0.0546,0.1157 -0.098,0.1513 -0.0434,0.0356 -0.0982,0.0533 -0.1645,0.0533 -0.0872,0 -0.1557,-0.0312 -0.2054,-0.0938 -0.0596,-0.0752 -0.0895,-0.198 -0.0895,-0.3678zm0.1141 0c0,0.1485 0.0175,0.2473 0.0523,0.2966 0.0347,0.0491 0.0775,0.0738 0.1285,0.0738 0.0512,0 0.0939,-0.0249 0.1287,-0.0742 0.0348,-0.0493 0.0523,-0.1481 0.0523,-0.2962 0,-0.1489 -0.0175,-0.2479 -0.0523,-0.2968 -0.0348,-0.0491 -0.0779,-0.0735 -0.1298,-0.0735 -0.0512,0 -0.0918,0.0217 -0.1224,0.0648 -0.0381,0.055 -0.0573,0.157 -0.0573,0.3055z"/>
  <path class="fil10" d="M11.1178 34.2971l-0.111 0 0 -0.7078c-0.0267,0.0255 -0.0617,0.0509 -0.1051,0.0764 -0.0436,0.0255 -0.0826,0.0447 -0.1171,0.0573l0 -0.1072c0.0621,-0.0293 0.1165,-0.0647 0.163,-0.1062 0.0464,-0.0417 0.0794,-0.0819 0.0988,-0.1211l0.0714 0 0 0.9086zm0.2847 -0.4462c0,-0.107 0.0109,-0.1932 0.033,-0.2583 0.0219,-0.0653 0.0548,-0.1156 0.0982,-0.151 0.0434,-0.0354 0.098,-0.0531 0.1637,-0.0531 0.0487,0 0.0912,0.0099 0.1279,0.0295 0.0366,0.0194 0.0667,0.0476 0.0908,0.0845 0.0238,0.0368 0.0425,0.0817 0.056,0.1346 0.0137,0.0529 0.0204,0.1241 0.0204,0.2138 0,0.1062 -0.0109,0.1917 -0.0326,0.257 -0.0219,0.0653 -0.0546,0.1157 -0.098,0.1513 -0.0434,0.0356 -0.0982,0.0533 -0.1645,0.0533 -0.0872,0 -0.1557,-0.0312 -0.2054,-0.0938 -0.0596,-0.0752 -0.0895,-0.198 -0.0895,-0.3678zm0.1141 0c0,0.1485 0.0175,0.2473 0.0523,0.2966 0.0347,0.0491 0.0775,0.0738 0.1285,0.0738 0.0512,0 0.0939,-0.0249 0.1287,-0.0742 0.0348,-0.0493 0.0523,-0.1481 0.0523,-0.2962 0,-0.1489 -0.0175,-0.2479 -0.0523,-0.2968 -0.0348,-0.0491 -0.0779,-0.0735 -0.1298,-0.0735 -0.0512,0 -0.0918,0.0217 -0.1224,0.0648 -0.0381,0.055 -0.0573,0.157 -0.0573,0.3055zm0.5889 0c0,-0.107 0.0109,-0.1932 0.033,-0.2583 0.0219,-0.0653 0.0548,-0.1156 0.0982,-0.151 0.0434,-0.0354 0.098,-0.0531 0.1637,-0.0531 0.0487,0 0.0912,0.0099 0.1279,0.0295 0.0366,0.0194 0.0667,0.0476 0.0908,0.0845 0.0238,0.0368 0.0425,0.0817 0.056,0.1346 0.0137,0.0529 0.0204,0.1241 0.0204,0.2138 0,0.1062 -0.0109,0.1917 -0.0326,0.257 -0.0219,0.0653 -0.0546,0.1157 -0.098,0.1513 -0.0434,0.0356 -0.0982,0.0533 -0.1645,0.0533 -0.0872,0 -0.1557,-0.0312 -0.2054,-0.0938 -0.0596,-0.0752 -0.0895,-0.198 -0.0895,-0.3678zm0.1141 0c0,0.1485 0.0175,0.2473 0.0523,0.2966 0.0347,0.0491 0.0775,0.0738 0.1285,0.0738 0.0512,0 0.0939,-0.0249 0.1287,-0.0742 0.0348,-0.0493 0.0523,-0.1481 0.0523,-0.2962 0,-0.1489 -0.0175,-0.2479 -0.0523,-0.2968 -0.0348,-0.0491 -0.0779,-0.0735 -0.1298,-0.0735 -0.0512,0 -0.0918,0.0217 -0.1224,0.0648 -0.0381,0.055 -0.0573,0.157 -0.0573,0.3055z"/>
  <path class="fil10" d="M16.2052 34.1663l0 0.1068 -0.5981 0c-0.0008,-0.0268 0.0034,-0.0525 0.0129,-0.0771 0.0152,-0.0409 0.0396,-0.0809 0.0731,-0.1205 0.0337,-0.0394 0.0822,-0.0851 0.1454,-0.1369 0.0983,-0.0807 0.1649,-0.1446 0.1995,-0.1917 0.0345,-0.047 0.0518,-0.0917 0.0518,-0.1336 0,-0.044 -0.0158,-0.0811 -0.0472,-0.1115 -0.0316,-0.0301 -0.0727,-0.0452 -0.1233,-0.0452 -0.0535,0 -0.0962,0.016 -0.1282,0.0482 -0.0323,0.032 -0.0485,0.0765 -0.0489,0.1331l-0.1142 -0.0115c0.0078,-0.0854 0.0373,-0.1503 0.0883,-0.1949 0.0509,-0.0447 0.1196,-0.067 0.2056,-0.067 0.0868,0 0.1554,0.0242 0.206,0.0723 0.0508,0.0482 0.0761,0.1078 0.0761,0.179 0,0.0363 -0.0074,0.0719 -0.0224,0.1068 -0.0147,0.035 -0.0394,0.0719 -0.0737,0.1104 -0.0343,0.0388 -0.0914,0.0919 -0.1713,0.1593 -0.0665,0.056 -0.1093,0.0939 -0.1283,0.114 -0.0189,0.0198 -0.0345,0.0398 -0.047,0.06l0.4439 0zm0.1191 -0.3394c0,-0.107 0.0109,-0.1932 0.033,-0.2583 0.0219,-0.0653 0.0548,-0.1156 0.0982,-0.151 0.0434,-0.0354 0.098,-0.0531 0.1637,-0.0531 0.0487,0 0.0912,0.0099 0.1279,0.0295 0.0366,0.0194 0.0667,0.0476 0.0908,0.0845 0.0238,0.0368 0.0425,0.0817 0.056,0.1346 0.0137,0.0529 0.0204,0.1241 0.0204,0.2138 0,0.1062 -0.0109,0.1917 -0.0326,0.257 -0.0219,0.0653 -0.0546,0.1157 -0.098,0.1513 -0.0434,0.0356 -0.0982,0.0533 -0.1645,0.0533 -0.0872,0 -0.1557,-0.0312 -0.2054,-0.0938 -0.0596,-0.0752 -0.0895,-0.198 -0.0895,-0.3678zm0.1141 0c0,0.1485 0.0175,0.2473 0.0523,0.2966 0.0347,0.0491 0.0775,0.0738 0.1285,0.0738 0.0512,0 0.0939,-0.0249 0.1287,-0.0742 0.0348,-0.0493 0.0523,-0.1481 0.0523,-0.2962 0,-0.1489 -0.0175,-0.2479 -0.0523,-0.2968 -0.0348,-0.0491 -0.0779,-0.0735 -0.1298,-0.0735 -0.0512,0 -0.0918,0.0217 -0.1224,0.0648 -0.0381,0.055 -0.0573,0.157 -0.0573,0.3055zm0.5889 0c0,-0.107 0.0109,-0.1932 0.033,-0.2583 0.0219,-0.0653 0.0548,-0.1156 0.0982,-0.151 0.0434,-0.0354 0.098,-0.0531 0.1637,-0.0531 0.0487,0 0.0912,0.0099 0.1279,0.0295 0.0366,0.0194 0.0667,0.0476 0.0908,0.0845 0.0238,0.0368 0.0425,0.0817 0.056,0.1346 0.0137,0.0529 0.0204,0.1241 0.0204,0.2138 0,0.1062 -0.0109,0.1917 -0.0326,0.257 -0.0219,0.0653 -0.0546,0.1157 -0.098,0.1513 -0.0434,0.0356 -0.0982,0.0533 -0.1645,0.0533 -0.0872,0 -0.1557,-0.0312 -0.2054,-0.0938 -0.0596,-0.0752 -0.0895,-0.198 -0.0895,-0.3678zm0.1141 0c0,0.1485 0.0175,0.2473 0.0523,0.2966 0.0347,0.0491 0.0775,0.0738 0.1285,0.0738 0.0512,0 0.0939,-0.0249 0.1287,-0.0742 0.0348,-0.0493 0.0523,-0.1481 0.0523,-0.2962 0,-0.1489 -0.0175,-0.2479 -0.0523,-0.2968 -0.0348,-0.0491 -0.0779,-0.0735 -0.1298,-0.0735 -0.0512,0 -0.0918,0.0217 -0.1224,0.0648 -0.0381,0.055 -0.0573,0.157 -0.0573,0.3055z"/>
  <path class="fil10" d="M20.627 34.0582l0.111 -0.0147c0.0129,0.0629 0.0346,0.1082 0.0651,0.136 0.0308,0.0279 0.0681,0.0418 0.1121,0.0418 0.0522,0 0.0965,-0.0182 0.1325,-0.0544 0.0358,-0.0362 0.0539,-0.0811 0.0539,-0.1346 0,-0.051 -0.0166,-0.0931 -0.0499,-0.1262 -0.0335,-0.0331 -0.0758,-0.0497 -0.1273,-0.0497 -0.021,0 -0.0471,0.0042 -0.0783,0.0124l0.0124 -0.0975c0.0074,0.0008 0.0133,0.0012 0.0179,0.0012 0.0472,0 0.0898,-0.0124 0.1277,-0.037 0.0379,-0.0247 0.0569,-0.0628 0.0569,-0.1142 0,-0.0407 -0.0139,-0.0746 -0.0415,-0.1011 -0.0276,-0.0268 -0.0632,-0.0403 -0.1068,-0.0403 -0.0432,0 -0.0793,0.0137 -0.1079,0.0407 -0.0289,0.0272 -0.0474,0.068 -0.0556,0.1224l-0.111 -0.0198c0.0134,-0.0746 0.0444,-0.1323 0.0924,-0.1732 0.0483,-0.0409 0.1081,-0.0615 0.1797,-0.0615 0.0493,0 0.0948,0.0107 0.1363,0.0318 0.0415,0.0213 0.0733,0.0501 0.0955,0.0868 0.0219,0.0367 0.033,0.0754 0.033,0.1167 0,0.039 -0.0105,0.0746 -0.0316,0.1068 -0.021,0.032 -0.052,0.0575 -0.0931,0.0765 0.0535,0.0122 0.095,0.0379 0.1247,0.0769 0.0295,0.0387 0.0443,0.0874 0.0443,0.1458 0,0.079 -0.0287,0.146 -0.0864,0.2009 -0.0575,0.055 -0.1304,0.0824 -0.2185,0.0824 -0.0794,0 -0.1453,-0.0236 -0.1978,-0.071 -0.0524,-0.0472 -0.0823,-0.1085 -0.0897,-0.1839zm0.7024 -0.2073c0,-0.107 0.0109,-0.1932 0.033,-0.2583 0.0219,-0.0653 0.0548,-0.1156 0.0982,-0.151 0.0434,-0.0354 0.098,-0.0531 0.1637,-0.0531 0.0487,0 0.0912,0.0099 0.1279,0.0295 0.0366,0.0194 0.0667,0.0476 0.0908,0.0845 0.0238,0.0368 0.0425,0.0817 0.056,0.1346 0.0137,0.0529 0.0204,0.1241 0.0204,0.2138 0,0.1062 -0.0109,0.1917 -0.0326,0.257 -0.0219,0.0653 -0.0546,0.1157 -0.098,0.1513 -0.0434,0.0356 -0.0982,0.0533 -0.1645,0.0533 -0.0872,0 -0.1557,-0.0312 -0.2054,-0.0938 -0.0596,-0.0752 -0.0895,-0.198 -0.0895,-0.3678zm0.1141 0c0,0.1485 0.0175,0.2473 0.0523,0.2966 0.0347,0.0491 0.0775,0.0738 0.1285,0.0738 0.0512,0 0.0939,-0.0249 0.1287,-0.0742 0.0348,-0.0493 0.0523,-0.1481 0.0523,-0.2962 0,-0.1489 -0.0175,-0.2479 -0.0523,-0.2968 -0.0348,-0.0491 -0.0779,-0.0735 -0.1298,-0.0735 -0.0512,0 -0.0918,0.0217 -0.1224,0.0648 -0.0381,0.055 -0.0573,0.157 -0.0573,0.3055zm0.5889 0c0,-0.107 0.0109,-0.1932 0.033,-0.2583 0.0219,-0.0653 0.0548,-0.1156 0.0982,-0.151 0.0434,-0.0354 0.098,-0.0531 0.1637,-0.0531 0.0487,0 0.0912,0.0099 0.1279,0.0295 0.0366,0.0194 0.0667,0.0476 0.0908,0.0845 0.0238,0.0368 0.0425,0.0817 0.056,0.1346 0.0137,0.0529 0.0204,0.1241 0.0204,0.2138 0,0.1062 -0.0109,0.1917 -0.0326,0.257 -0.0219,0.0653 -0.0546,0.1157 -0.098,0.1513 -0.0434,0.0356 -0.0982,0.0533 -0.1645,0.0533 -0.0872,0 -0.1557,-0.0312 -0.2054,-0.0938 -0.0596,-0.0752 -0.0895,-0.198 -0.0895,-0.3678zm0.1141 0c0,0.1485 0.0175,0.2473 0.0523,0.2966 0.0347,0.0491 0.0775,0.0738 0.1285,0.0738 0.0512,0 0.0939,-0.0249 0.1287,-0.0742 0.0348,-0.0493 0.0523,-0.1481 0.0523,-0.2962 0,-0.1489 -0.0175,-0.2479 -0.0523,-0.2968 -0.0348,-0.0491 -0.0779,-0.0735 -0.1298,-0.0735 -0.0512,0 -0.0918,0.0217 -0.1224,0.0648 -0.0381,0.055 -0.0573,0.157 -0.0573,0.3055z"/>
  <path class="fil10" d="M25.8339 34.2971l0 -0.2166 -0.3925 0 0 -0.1019 0.4129 -0.5863 0.0908 0 0 0.5863 0.1222 0 0 0.1019 -0.1222 0 0 0.2166 -0.1112 0zm0 -0.3185l0 -0.4079 -0.2832 0.4079 0.2832 0zm0.347 -0.1277c0,-0.107 0.0109,-0.1932 0.033,-0.2583 0.0219,-0.0653 0.0548,-0.1156 0.0982,-0.151 0.0434,-0.0354 0.098,-0.0531 0.1637,-0.0531 0.0487,0 0.0912,0.0099 0.1279,0.0295 0.0366,0.0194 0.0667,0.0476 0.0908,0.0845 0.0238,0.0368 0.0425,0.0817 0.056,0.1346 0.0137,0.0529 0.0204,0.1241 0.0204,0.2138 0,0.1062 -0.0109,0.1917 -0.0326,0.257 -0.0219,0.0653 -0.0546,0.1157 -0.098,0.1513 -0.0434,0.0356 -0.0982,0.0533 -0.1645,0.0533 -0.0872,0 -0.1557,-0.0312 -0.2054,-0.0938 -0.0596,-0.0752 -0.0895,-0.198 -0.0895,-0.3678zm0.1141 0c0,0.1485 0.0175,0.2473 0.0523,0.2966 0.0347,0.0491 0.0775,0.0738 0.1285,0.0738 0.0512,0 0.0939,-0.0249 0.1287,-0.0742 0.0348,-0.0493 0.0523,-0.1481 0.0523,-0.2962 0,-0.1489 -0.0175,-0.2479 -0.0523,-0.2968 -0.0348,-0.0491 -0.0779,-0.0735 -0.1298,-0.0735 -0.0512,0 -0.0918,0.0217 -0.1224,0.0648 -0.0381,0.055 -0.0573,0.157 -0.0573,0.3055zm0.5889 0c0,-0.107 0.0109,-0.1932 0.033,-0.2583 0.0219,-0.0653 0.0548,-0.1156 0.0982,-0.151 0.0434,-0.0354 0.098,-0.0531 0.1637,-0.0531 0.0487,0 0.0912,0.0099 0.1279,0.0295 0.0366,0.0194 0.0667,0.0476 0.0908,0.0845 0.0238,0.0368 0.0425,0.0817 0.056,0.1346 0.0137,0.0529 0.0204,0.1241 0.0204,0.2138 0,0.1062 -0.0109,0.1917 -0.0326,0.257 -0.0219,0.0653 -0.0546,0.1157 -0.098,0.1513 -0.0434,0.0356 -0.0982,0.0533 -0.1645,0.0533 -0.0872,0 -0.1557,-0.0312 -0.2054,-0.0938 -0.0596,-0.0752 -0.0895,-0.198 -0.0895,-0.3678zm0.1141 0c0,0.1485 0.0175,0.2473 0.0523,0.2966 0.0347,0.0491 0.0775,0.0738 0.1285,0.0738 0.0512,0 0.0939,-0.0249 0.1287,-0.0742 0.0348,-0.0493 0.0523,-0.1481 0.0523,-0.2962 0,-0.1489 -0.0175,-0.2479 -0.0523,-0.2968 -0.0348,-0.0491 -0.0779,-0.0735 -0.1298,-0.0735 -0.0512,0 -0.0918,0.0217 -0.1224,0.0648 -0.0381,0.055 -0.0573,0.157 -0.0573,0.3055z"/>
  <path class="fil10" d="M30.6279 34.0601l0.1167 -0.0099c0.0086,0.0569 0.0286,0.0994 0.06,0.1281 0.0316,0.0286 0.0695,0.043 0.114,0.043 0.0535,0 0.0988,-0.0203 0.1356,-0.0605 0.0371,-0.0404 0.0557,-0.094 0.0557,-0.1605 0,-0.0634 -0.0177,-0.1134 -0.0533,-0.15 -0.0356,-0.0367 -0.0822,-0.055 -0.1399,-0.055 -0.0358,0 -0.0681,0.0082 -0.0969,0.0244 -0.0289,0.0163 -0.0514,0.0373 -0.0679,0.0632l-0.1042 -0.0135 0.0876 -0.4647 0.45 0 0 0.1062 -0.3611 0 -0.0489 0.2431c0.0544,-0.0379 0.1115,-0.0569 0.1711,-0.0569 0.079,0 0.1456,0.0274 0.1999,0.0822 0.0544,0.0548 0.0815,0.1251 0.0815,0.2111 0,0.0819 -0.024,0.1527 -0.0716,0.2123 -0.0581,0.0731 -0.1373,0.1098 -0.2376,0.1098 -0.0824,0 -0.1496,-0.023 -0.2016,-0.0691 -0.0521,-0.0462 -0.0818,-0.1072 -0.0891,-0.1833zm0.703 -0.2092c0,-0.107 0.0109,-0.1932 0.033,-0.2583 0.0219,-0.0653 0.0548,-0.1156 0.0982,-0.151 0.0434,-0.0354 0.098,-0.0531 0.1637,-0.0531 0.0487,0 0.0912,0.0099 0.1279,0.0295 0.0366,0.0194 0.0667,0.0476 0.0908,0.0845 0.0238,0.0368 0.0425,0.0817 0.056,0.1346 0.0137,0.0529 0.0204,0.1241 0.0204,0.2138 0,0.1062 -0.0109,0.1917 -0.0326,0.257 -0.0219,0.0653 -0.0546,0.1157 -0.098,0.1513 -0.0434,0.0356 -0.0982,0.0533 -0.1645,0.0533 -0.0872,0 -0.1557,-0.0312 -0.2054,-0.0938 -0.0596,-0.0752 -0.0895,-0.198 -0.0895,-0.3678zm0.1141 0c0,0.1485 0.0175,0.2473 0.0523,0.2966 0.0347,0.0491 0.0775,0.0738 0.1285,0.0738 0.0512,0 0.0939,-0.0249 0.1287,-0.0742 0.0348,-0.0493 0.0523,-0.1481 0.0523,-0.2962 0,-0.1489 -0.0175,-0.2479 -0.0523,-0.2968 -0.0348,-0.0491 -0.0779,-0.0735 -0.1298,-0.0735 -0.0512,0 -0.0918,0.0217 -0.1224,0.0648 -0.0381,0.055 -0.0573,0.157 -0.0573,0.3055zm0.5889 0c0,-0.107 0.0109,-0.1932 0.033,-0.2583 0.0219,-0.0653 0.0548,-0.1156 0.0982,-0.151 0.0434,-0.0354 0.098,-0.0531 0.1637,-0.0531 0.0487,0 0.0912,0.0099 0.1279,0.0295 0.0366,0.0194 0.0667,0.0476 0.0908,0.0845 0.0238,0.0368 0.0425,0.0817 0.056,0.1346 0.0137,0.0529 0.0204,0.1241 0.0204,0.2138 0,0.1062 -0.0109,0.1917 -0.0326,0.257 -0.0219,0.0653 -0.0546,0.1157 -0.098,0.1513 -0.0434,0.0356 -0.0982,0.0533 -0.1645,0.0533 -0.0872,0 -0.1557,-0.0312 -0.2054,-0.0938 -0.0596,-0.0752 -0.0895,-0.198 -0.0895,-0.3678zm0.1141 0c0,0.1485 0.0175,0.2473 0.0523,0.2966 0.0347,0.0491 0.0775,0.0738 0.1285,0.0738 0.0512,0 0.0939,-0.0249 0.1287,-0.0742 0.0348,-0.0493 0.0523,-0.1481 0.0523,-0.2962 0,-0.1489 -0.0175,-0.2479 -0.0523,-0.2968 -0.0348,-0.0491 -0.0779,-0.0735 -0.1298,-0.0735 -0.0512,0 -0.0918,0.0217 -0.1224,0.0648 -0.0381,0.055 -0.0573,0.157 -0.0573,0.3055z"/>
  <path class="fil10" d="M36.2796 33.6139l-0.1103 0.0086c-0.01,-0.0436 -0.0239,-0.0754 -0.042,-0.095 -0.0301,-0.0318 -0.0672,-0.0476 -0.1112,-0.0476 -0.0354,0 -0.0664,0.0099 -0.0931,0.0297 -0.035,0.0255 -0.0626,0.0628 -0.0828,0.1117 -0.02,0.0489 -0.0306,0.1186 -0.0314,0.2092 0.0268,-0.0407 0.0594,-0.071 0.0982,-0.0908 0.0385,-0.0196 0.0792,-0.0295 0.1215,-0.0295 0.0742,0 0.1372,0.0272 0.1892,0.0817 0.052,0.0546 0.0782,0.1249 0.0782,0.2113 0,0.0569 -0.0125,0.1096 -0.0369,0.1584 -0.0244,0.0487 -0.0581,0.0862 -0.1009,0.1121 -0.0428,0.0259 -0.0912,0.0388 -0.1456,0.0388 -0.0927,0 -0.1681,-0.0339 -0.2265,-0.1022 -0.0585,-0.068 -0.0876,-0.1803 -0.0876,-0.3366 0,-0.1749 0.0322,-0.3019 0.0969,-0.3813 0.0563,-0.0691 0.1321,-0.1039 0.2277,-0.1039 0.071,0 0.1294,0.02 0.1749,0.06 0.0455,0.0399 0.0727,0.095 0.0817,0.1654zm-0.4535 0.39c0,0.0383 0.0082,0.0749 0.0244,0.1099 0.0162,0.035 0.039,0.0615 0.0681,0.0799 0.0292,0.0183 0.06,0.0276 0.092,0.0276 0.047,0 0.0872,-0.019 0.1209,-0.0569 0.0337,-0.0379 0.0506,-0.0893 0.0506,-0.1542 0,-0.0626 -0.0166,-0.1119 -0.0499,-0.1479 -0.0333,-0.036 -0.0752,-0.0539 -0.1258,-0.0539 -0.0503,0 -0.0929,0.0179 -0.1279,0.0539 -0.0349,0.036 -0.0524,0.0832 -0.0524,0.1416zm0.5802 -0.153c0,-0.107 0.0109,-0.1932 0.033,-0.2583 0.0219,-0.0653 0.0548,-0.1156 0.0982,-0.151 0.0434,-0.0354 0.098,-0.0531 0.1637,-0.0531 0.0487,0 0.0912,0.0099 0.1279,0.0295 0.0366,0.0194 0.0667,0.0476 0.0908,0.0845 0.0238,0.0368 0.0425,0.0817 0.056,0.1346 0.0137,0.0529 0.0204,0.1241 0.0204,0.2138 0,0.1062 -0.0109,0.1917 -0.0326,0.257 -0.0219,0.0653 -0.0546,0.1157 -0.098,0.1513 -0.0434,0.0356 -0.0982,0.0533 -0.1645,0.0533 -0.0872,0 -0.1557,-0.0312 -0.2054,-0.0938 -0.0596,-0.0752 -0.0895,-0.198 -0.0895,-0.3678zm0.1141 0c0,0.1485 0.0175,0.2473 0.0523,0.2966 0.0347,0.0491 0.0775,0.0738 0.1285,0.0738 0.0512,0 0.0939,-0.0249 0.1287,-0.0742 0.0348,-0.0493 0.0523,-0.1481 0.0523,-0.2962 0,-0.1489 -0.0175,-0.2479 -0.0523,-0.2968 -0.0348,-0.0491 -0.0779,-0.0735 -0.1298,-0.0735 -0.0512,0 -0.0918,0.0217 -0.1224,0.0648 -0.0381,0.055 -0.0573,0.157 -0.0573,0.3055zm0.5889 0c0,-0.107 0.0109,-0.1932 0.033,-0.2583 0.0219,-0.0653 0.0548,-0.1156 0.0982,-0.151 0.0434,-0.0354 0.098,-0.0531 0.1637,-0.0531 0.0487,0 0.0912,0.0099 0.1279,0.0295 0.0366,0.0194 0.0667,0.0476 0.0908,0.0845 0.0238,0.0368 0.0425,0.0817 0.056,0.1346 0.0137,0.0529 0.0204,0.1241 0.0204,0.2138 0,0.1062 -0.0109,0.1917 -0.0326,0.257 -0.0219,0.0653 -0.0546,0.1157 -0.098,0.1513 -0.0434,0.0356 -0.0982,0.0533 -0.1645,0.0533 -0.0872,0 -0.1557,-0.0312 -0.2054,-0.0938 -0.0596,-0.0752 -0.0895,-0.198 -0.0895,-0.3678zm0.1141 0c0,0.1485 0.0175,0.2473 0.0523,0.2966 0.0347,0.0491 0.0775,0.0738 0.1285,0.0738 0.0512,0 0.0939,-0.0249 0.1287,-0.0742 0.0348,-0.0493 0.0523,-0.1481 0.0523,-0.2962 0,-0.1489 -0.0175,-0.2479 -0.0523,-0.2968 -0.0348,-0.0491 -0.0779,-0.0735 -0.1298,-0.0735 -0.0512,0 -0.0918,0.0217 -0.1224,0.0648 -0.0381,0.055 -0.0573,0.157 -0.0573,0.3055z"/>
  <path class="fil12 str4" d="M16.8431 24.1657c0.8499,0 1.5388,0.6889 1.5388,1.5388 0,0.8499 -0.6889,1.5388 -1.5388,1.5388 -0.8499,0 -1.5388,-0.6889 -1.5388,-1.5388 0,-0.8499 0.6889,-1.5388 1.5388,-1.5388z"/>
  <path class="fil12 str4" d="M21.6708 26.3381c0.8499,0 1.5388,0.6889 1.5388,1.5388 0,0.8499 -0.6889,1.5388 -1.5388,1.5388 -0.8499,0 -1.5388,-0.6889 -1.5388,-1.5388 0,-0.8499 0.6889,-1.5388 1.5388,-1.5388z"/>
  <path class="fil12 str4" d="M28.8916 19.4587c0.8499,0 1.5388,0.6889 1.5388,1.5388 0,0.8499 -0.6889,1.5388 -1.5388,1.5388 -0.8499,0 -1.5388,-0.6889 -1.5388,-1.5388 0,-0.8499 0.6889,-1.5388 1.5388,-1.5388z"/>
  <path class="fil12 str4" d="M35.59 20.4242c0.8499,0 1.5388,0.6889 1.5388,1.5388 0,0.8499 -0.6889,1.5388 -1.5388,1.5388 -0.8499,0 -1.5388,-0.6889 -1.5388,-1.5388 0,-0.8499 0.6889,-1.5388 1.5388,-1.5388z"/>
  <path class="fil13" d="M33.3463 3.0049l-16.134 -0.0168c-0.0043,0.075 -0.0083,0.164 -0.0113,0.2708 -0.0047,0.1643 -0.0079,0.3866 -0.0079,0.6904l0 0.0001c0,0.2563 0.1219,0.4903 0.3182,0.6607 0.2012,0.1746 0.4803,0.2831 0.7883,0.2831l13.9574 0c0.308,0 0.5871,-0.1085 0.7883,-0.2831 0.1963,-0.1704 0.3182,-0.4044 0.3182,-0.6607l0 -0.0001c0,-0.3067 -0.0004,-0.4942 -0.0033,-0.6255 -0.0024,-0.1096 -0.0067,-0.2047 -0.0139,-0.3189zm-16.2507 -0.2659l16.3674 0.017 0.1163 0.0002 0.0082 0.116c0.0117,0.1672 0.0182,0.2888 0.0217,0.4468 0.0038,0.1711 0.0043,0.349 0.0043,0.6303l0 0.0001c0,0.3315 -0.1553,0.6322 -0.4052,0.8491 -0.245,0.2126 -0.5819,0.3447 -0.9513,0.3447l-13.9574 0c-0.3694,0 -0.7063,-0.1321 -0.9513,-0.3447 -0.2499,-0.2169 -0.4052,-0.5176 -0.4052,-0.8491l0 -0.0001c0,-0.2839 0.0035,-0.5121 0.0089,-0.6972 0.0052,-0.1818 0.0121,-0.3072 0.0191,-0.3979l0.0089 -0.1153 0.1156 0.0001z"/>
  <rect class="fil14" x="2.6136" y="36.0557" width="45.4765" height="0.6046"/>
  <rect class="fil15" x="2.6136" y="35.3147" width="45.4765" height="0.1837"/>
  <polygon class="fil16" points="23.8985,36.8589 26.7423,36.8589 26.7423,37.388 23.8985,37.388 "/>
  <polygon class="fil16" points="22.87,36.8479 19.7779,36.8479 19.5159,37.3717 22.628,37.377 "/>
  <rect class="fil17" x="17.1792" y="2.9011" width="16.1966" height="0.3626"/>
  <polygon class="fil18" points="20.053,37.3427 19.7893,37.3427 14.9604,47.2235 15.2647,47.183 "/>
  <polygon class="fil19" points="30.7473,37.3427 31.011,37.3427 35.8399,47.2235 35.5356,47.183 "/>
  <polygon class="fil20" points="30.4518,36.8508 32.2677,40.4199 29.857,40.4667 29.216,39.0816 29.9438,39.0804 29.3651,36.8836 "/>
  <polygon class="fil21" points="24.0995,39.3011 26.572,39.3146 26.5436,40.9175 24.1077,40.7905 "/>
  <polygon class="fil22" points="18.8048,39.3012 21.5331,39.2878 20.9822,40.417 18.3531,40.8726 18.405,40.123 "/>
  <polygon class="fil23" points="28.7007,35.2816 29.2666,36.6965 32.5902,36.656 31.905,35.2818 "/>
  <path class="fil24" d="M3.1176 24.8546c9.3682,-0.0441 18.9527,0.0288 28.3209,-0.0152 -0.8813,2.4147 -1.9373,4.796 -2.8185,7.2108 0.8636,2.4147 1.9115,4.8295 2.7752,7.2442 -9.3064,0 -18.7972,0 -28.1036,0 -1.3299,-0.1114 -1.6314,-0.858 -1.6921,-1.9564 0,-4.7125 0,-9.4248 0,-14.1373 0,-0.0541 0.0018,-0.0169 0.005,0.0126 0.0844,0.7606 0.2386,1.4105 1.5131,1.6413z"/>
  <path class="fil25" d="M3.0618 21.8068c-0.6557,0.0924 -1.3625,0.4689 -1.4576,1.3346 0.055,1.0962 0.5832,1.6142 1.4576,1.7071 0,-1.0309 0,-2.0108 0,-3.0417z"/>
  <path class="fil26" d="M1.5952 23.1436c0.025,0.6911 0.2898,1.2729 0.9134,1.5814 0,4.7646 0,9.5919 0,14.3564 -0.4618,-0.1459 -0.7854,-0.5918 -0.9134,-1.4613 0,-4.8255 0,-9.651 0,-14.4765z"/>
  <path class="fil27" d="M2.038 24.5556c0.3666,0.2235 0.5747,0.3402 1.8488,0.3123 0,4.7793 0,9.6066 0,14.3858 -0.8578,0.167 -1.5129,-0.1718 -1.8623,-0.4876 0,-4.7931 0.0135,-9.4173 0.0135,-14.2105z"/>
  <polygon class="fil28" points="31.428,24.8384 30.9963,24.8398 28.1279,32.0404 30.9531,39.2879 31.4137,39.2879 28.6192,32.0711 "/>
  <polygon class="fil29" points="30.7606,24.8384 30.0918,24.8398 26.9338,32.0151 30.0366,39.2374 30.7475,39.2627 27.728,32.0459 "/>
  <path class="fil30" d="M8.6304 30.1535l0.4532 0.1147c-0.0948,0.3712 -0.266,0.6548 -0.5122,0.8507 -0.2469,0.1952 -0.548,0.2923 -0.9049,0.2923 -0.3688,0 -0.6683,-0.0748 -0.8993,-0.2246 -0.231,-0.1505 -0.407,-0.368 -0.5273,-0.6524 -0.1203,-0.2851 -0.1808,-0.591 -0.1808,-0.9176 0,-0.3561 0.0677,-0.6667 0.2039,-0.932 0.1362,-0.2653 0.3298,-0.4668 0.5815,-0.6046 0.2509,-0.1378 0.5273,-0.2063 0.8292,-0.2063 0.3425,0 0.6301,0.0868 0.8635,0.2613 0.2334,0.1744 0.3959,0.419 0.4875,0.7352l-0.4453 0.1051c-0.0796,-0.2493 -0.1944,-0.4301 -0.3457,-0.544 -0.1506,-0.1139 -0.3401,-0.1705 -0.5695,-0.1705 -0.2629,0 -0.482,0.063 -0.6588,0.1888 -0.1768,0.1267 -0.3011,0.2955 -0.372,0.5082 -0.0717,0.2119 -0.1075,0.431 -0.1075,0.6564 0,0.2915 0.0422,0.5448 0.1266,0.7623 0.0852,0.2167 0.2167,0.3792 0.3959,0.4867 0.1792,0.1075 0.3728,0.1609 0.5815,0.1609 0.2533,0 0.4676,-0.0733 0.6436,-0.219 0.1761,-0.1466 0.2948,-0.3641 0.3569,-0.6516zm0.873 -0.4668c0,-0.568 0.1521,-1.0125 0.4572,-1.3335 0.3051,-0.321 0.6986,-0.4819 1.1813,-0.4819 0.3155,0 0.6007,0.0757 0.854,0.2262 0.2533,0.1514 0.4468,0.3617 0.5799,0.6317 0.133,0.2692 0.1991,0.5759 0.1991,0.9177 0,0.3473 -0.0693,0.6579 -0.2095,0.9311 -0.1402,0.2741 -0.3385,0.4812 -0.595,0.6222 -0.2573,0.141 -0.5337,0.211 -0.8308,0.211 -0.3227,0 -0.6102,-0.0772 -0.8635,-0.2333 -0.2541,-0.1554 -0.4461,-0.3681 -0.5767,-0.6373 -0.1307,-0.2684 -0.196,-0.5536 -0.196,-0.8539zm0.4668 0.0072c0,0.4126 0.1107,0.7368 0.3322,0.9742 0.2222,0.2373 0.5002,0.356 0.8348,0.356 0.3409,0 0.6213,-0.1195 0.8411,-0.3592 0.2199,-0.2398 0.3306,-0.5799 0.3306,-1.0204 0,-0.278 -0.0478,-0.521 -0.1418,-0.7289 -0.094,-0.2079 -0.2318,-0.3688 -0.4126,-0.4835 -0.1816,-0.1139 -0.3847,-0.1713 -0.6102,-0.1713 -0.321,0 -0.5966,0.11 -0.8276,0.3306 -0.231,0.2199 -0.3465,0.5879 -0.3465,1.1025zm3.3743 1.6592l0 -3.4213 0.6818 0 0.8093 2.4224c0.0749,0.2254 0.1299,0.3943 0.1633,0.5066 0.0391,-0.1242 0.0996,-0.3075 0.1825,-0.5488l0.8188 -2.3802 0.6094 0 0 3.4213 -0.4365 0 0 -2.8637 -0.9941 2.8637 -0.4087 0 -0.9893 -2.9122 0 2.9122 -0.4365 0zm4.0728 0l0 -3.4213 0.4524 0 0 3.4213 -0.4524 0zm1.2458 0l0 -3.4213 0.4644 0 1.7971 2.6861 0 -2.6861 0.4341 0 0 3.4213 -0.4644 0 -1.797 -2.6884 0 2.6884 -0.4342 0zm5.0574 -1.3422l0 -0.4007 1.449 -0.0024 0 1.269c-0.2223,0.1776 -0.4517,0.3106 -0.6883,0.4006 -0.2365,0.0892 -0.4795,0.1338 -0.728,0.1338 -0.3362,0 -0.6421,-0.0716 -0.9161,-0.2158 -0.2748,-0.1434 -0.4819,-0.3521 -0.6221,-0.6237 -0.1402,-0.2725 -0.2103,-0.5767 -0.2103,-0.9129 0,-0.333 0.0701,-0.6436 0.2095,-0.932 0.1386,-0.2891 0.3393,-0.5034 0.6006,-0.6436 0.2613,-0.1394 0.5624,-0.2095 0.9033,-0.2095 0.247,0 0.4708,0.0398 0.6707,0.1203 0.2,0.0796 0.3569,0.1912 0.47,0.3345 0.1139,0.1434 0.1999,0.3298 0.2597,0.56l-0.4087 0.1123c-0.0517,-0.1744 -0.1155,-0.3114 -0.1911,-0.411 -0.0765,-0.0996 -0.1856,-0.1792 -0.3274,-0.239 -0.141,-0.0597 -0.2987,-0.09 -0.4708,-0.09 -0.2071,0 -0.3863,0.0319 -0.5369,0.0948 -0.1513,0.0629 -0.2724,0.1458 -0.3656,0.2485 -0.0924,0.1028 -0.1641,0.2151 -0.2159,0.3386 -0.0868,0.2111 -0.1306,0.4405 -0.1306,0.6882 0,0.3051 0.0526,0.56 0.1577,0.7655 0.1052,0.2055 0.2581,0.3577 0.4588,0.4573 0.2008,0.0995 0.4135,0.1497 0.6389,0.1497 0.1967,0 0.3879,-0.0382 0.5743,-0.1139 0.1872,-0.0749 0.3282,-0.1553 0.4246,-0.2414l0 -0.6372 -1.0053 0z"/>
  <path class="fil31" d="M8.769 35.2806l0.4269 -0.0374c0.0199,0.1713 0.0669,0.3115 0.141,0.4214 0.0741,0.1099 0.1888,0.1983 0.3441,0.266 0.1554,0.0677 0.3306,0.1012 0.525,0.1012 0.1728,0 0.325,-0.0255 0.4572,-0.0765 0.1322,-0.0517 0.231,-0.1218 0.2955,-0.2111 0.0646,-0.09 0.0972,-0.1872 0.0972,-0.2931 0,-0.1075 -0.0311,-0.2007 -0.094,-0.2812 -0.0621,-0.0804 -0.1649,-0.1473 -0.3075,-0.2015 -0.0924,-0.0359 -0.2947,-0.0916 -0.6093,-0.1673 -0.3139,-0.0757 -0.5345,-0.1466 -0.6604,-0.2135 -0.1633,-0.0852 -0.2852,-0.1919 -0.3656,-0.3186 -0.0797,-0.1267 -0.1195,-0.2684 -0.1195,-0.4262 0,-0.172 0.0486,-0.3337 0.1466,-0.4835 0.098,-0.1505 0.2413,-0.2644 0.4293,-0.3425 0.1888,-0.0773 0.3975,-0.1163 0.6277,-0.1163 0.2541,0 0.4772,0.0406 0.6715,0.1227 0.1936,0.0812 0.3426,0.2015 0.4469,0.36 0.1036,0.1585 0.1601,0.3386 0.1681,0.5393l-0.4342 0.0327c-0.0238,-0.2159 -0.1027,-0.38 -0.2373,-0.4899 -0.1346,-0.1108 -0.333,-0.1657 -0.5959,-0.1657 -0.274,0 -0.4731,0.0502 -0.599,0.1505 -0.125,0.1004 -0.188,0.2215 -0.188,0.3625 0,0.1234 0.0446,0.2246 0.1331,0.3035 0.0876,0.0796 0.3146,0.1609 0.6826,0.2437 0.368,0.0836 0.6205,0.1561 0.7576,0.2183 0.1991,0.0924 0.3465,0.2087 0.4412,0.3489 0.0948,0.141 0.1418,0.3035 0.1418,0.4867 0,0.1824 -0.0517,0.3536 -0.1561,0.5145 -0.1043,0.161 -0.2541,0.286 -0.4493,0.376 -0.1951,0.0892 -0.415,0.1338 -0.6587,0.1338 -0.3099,0 -0.5696,-0.0446 -0.7783,-0.1354 -0.2095,-0.09 -0.3735,-0.2254 -0.493,-0.407 -0.1187,-0.1808 -0.1817,-0.3863 -0.1872,-0.615zm3.2038 -0.5671c0,-0.568 0.1521,-1.0125 0.4572,-1.3335 0.3051,-0.321 0.6986,-0.4819 1.1813,-0.4819 0.3155,0 0.6007,0.0757 0.854,0.2262 0.2533,0.1514 0.4468,0.3617 0.5799,0.6317 0.133,0.2692 0.1991,0.5759 0.1991,0.9177 0,0.3473 -0.0693,0.6579 -0.2095,0.9311 -0.1402,0.2741 -0.3385,0.4812 -0.595,0.6222 -0.2573,0.141 -0.5337,0.211 -0.8308,0.211 -0.3227,0 -0.6102,-0.0772 -0.8635,-0.2333 -0.2541,-0.1554 -0.4461,-0.3681 -0.5767,-0.6373 -0.1307,-0.2684 -0.196,-0.5536 -0.196,-0.8539zm0.4668 0.0072c0,0.4126 0.1107,0.7368 0.3322,0.9742 0.2222,0.2373 0.5002,0.356 0.8348,0.356 0.3409,0 0.6213,-0.1195 0.8411,-0.3592 0.2199,-0.2398 0.3306,-0.5799 0.3306,-1.0204 0,-0.278 -0.0478,-0.521 -0.1418,-0.7289 -0.094,-0.2079 -0.2318,-0.3688 -0.4126,-0.4835 -0.1816,-0.1139 -0.3847,-0.1713 -0.6102,-0.1713 -0.321,0 -0.5966,0.11 -0.8276,0.3306 -0.231,0.2199 -0.3465,0.5879 -0.3465,1.1025zm3.2508 -0.0072c0,-0.568 0.1521,-1.0125 0.4572,-1.3335 0.3051,-0.321 0.6986,-0.4819 1.1813,-0.4819 0.3155,0 0.6007,0.0757 0.854,0.2262 0.2533,0.1514 0.4468,0.3617 0.5799,0.6317 0.133,0.2692 0.1991,0.5759 0.1991,0.9177 0,0.3473 -0.0693,0.6579 -0.2095,0.9311 -0.1402,0.2741 -0.3385,0.4812 -0.595,0.6222 -0.2573,0.141 -0.5337,0.211 -0.8308,0.211 -0.3227,0 -0.6102,-0.0772 -0.8635,-0.2333 -0.2541,-0.1554 -0.4461,-0.3681 -0.5767,-0.6373 -0.1307,-0.2684 -0.196,-0.5536 -0.196,-0.8539zm0.4668 0.0072c0,0.4126 0.1107,0.7368 0.3322,0.9742 0.2222,0.2373 0.5002,0.356 0.8348,0.356 0.3409,0 0.6213,-0.1195 0.8411,-0.3592 0.2199,-0.2398 0.3306,-0.5799 0.3306,-1.0204 0,-0.278 -0.0478,-0.521 -0.1418,-0.7289 -0.094,-0.2079 -0.2318,-0.3688 -0.4126,-0.4835 -0.1816,-0.1139 -0.3847,-0.1713 -0.6102,-0.1713 -0.321,0 -0.5966,0.11 -0.8276,0.3306 -0.231,0.2199 -0.3465,0.5879 -0.3465,1.1025zm3.3838 1.6592l0 -3.4213 0.4644 0 1.7971 2.6861 0 -2.6861 0.4341 0 0 3.4213 -0.4644 0 -1.797 -2.6884 0 2.6884 -0.4342 0z"/>
  <path class="fil32" d="M8.769 35.6318l0.4269 -0.0374c0.0199,0.1713 0.0669,0.3115 0.141,0.4214 0.0741,0.1099 0.1888,0.1983 0.3441,0.266 0.1554,0.0677 0.3306,0.1012 0.525,0.1012 0.1728,0 0.325,-0.0255 0.4572,-0.0765 0.1322,-0.0517 0.231,-0.1218 0.2955,-0.2111 0.0646,-0.09 0.0972,-0.1872 0.0972,-0.2931 0,-0.1075 -0.0311,-0.2007 -0.094,-0.2812 -0.0621,-0.0804 -0.1649,-0.1473 -0.3075,-0.2015 -0.0924,-0.0359 -0.2947,-0.0916 -0.6093,-0.1673 -0.3139,-0.0757 -0.5345,-0.1466 -0.6604,-0.2135 -0.1633,-0.0852 -0.2852,-0.1919 -0.3656,-0.3186 -0.0797,-0.1267 -0.1195,-0.2684 -0.1195,-0.4262 0,-0.172 0.0486,-0.3337 0.1466,-0.4835 0.098,-0.1505 0.2413,-0.2644 0.4293,-0.3425 0.1888,-0.0773 0.3975,-0.1163 0.6277,-0.1163 0.2541,0 0.4772,0.0406 0.6715,0.1227 0.1936,0.0812 0.3426,0.2015 0.4469,0.36 0.1036,0.1585 0.1601,0.3386 0.1681,0.5393l-0.4342 0.0327c-0.0238,-0.2159 -0.1027,-0.38 -0.2373,-0.4899 -0.1346,-0.1108 -0.333,-0.1657 -0.5959,-0.1657 -0.274,0 -0.4731,0.0502 -0.599,0.1505 -0.125,0.1004 -0.188,0.2215 -0.188,0.3625 0,0.1234 0.0446,0.2246 0.1331,0.3035 0.0876,0.0796 0.3146,0.1609 0.6826,0.2437 0.368,0.0836 0.6205,0.1561 0.7576,0.2183 0.1991,0.0924 0.3465,0.2087 0.4412,0.3489 0.0948,0.141 0.1418,0.3035 0.1418,0.4867 0,0.1824 -0.0517,0.3536 -0.1561,0.5145 -0.1043,0.161 -0.2541,0.286 -0.4493,0.376 -0.1951,0.0892 -0.415,0.1338 -0.6587,0.1338 -0.3099,0 -0.5696,-0.0446 -0.7783,-0.1354 -0.2095,-0.09 -0.3735,-0.2254 -0.493,-0.407 -0.1187,-0.1808 -0.1817,-0.3863 -0.1872,-0.615zm3.2038 -0.5671c0,-0.568 0.1521,-1.0125 0.4572,-1.3335 0.3051,-0.321 0.6986,-0.4819 1.1813,-0.4819 0.3155,0 0.6007,0.0757 0.854,0.2262 0.2533,0.1514 0.4468,0.3617 0.5799,0.6317 0.133,0.2692 0.1991,0.5759 0.1991,0.9177 0,0.3473 -0.0693,0.6579 -0.2095,0.9311 -0.1402,0.2741 -0.3385,0.4812 -0.595,0.6222 -0.2573,0.141 -0.5337,0.211 -0.8308,0.211 -0.3227,0 -0.6102,-0.0772 -0.8635,-0.2333 -0.2541,-0.1554 -0.4461,-0.3681 -0.5767,-0.6373 -0.1307,-0.2684 -0.196,-0.5536 -0.196,-0.8539zm0.4668 0.0072c0,0.4126 0.1107,0.7368 0.3322,0.9742 0.2222,0.2373 0.5002,0.356 0.8348,0.356 0.3409,0 0.6213,-0.1195 0.8411,-0.3592 0.2199,-0.2398 0.3306,-0.5799 0.3306,-1.0204 0,-0.278 -0.0478,-0.521 -0.1418,-0.7289 -0.094,-0.2079 -0.2318,-0.3688 -0.4126,-0.4835 -0.1816,-0.1139 -0.3847,-0.1713 -0.6102,-0.1713 -0.321,0 -0.5966,0.11 -0.8276,0.3306 -0.231,0.2199 -0.3465,0.5879 -0.3465,1.1025zm3.2508 -0.0072c0,-0.568 0.1521,-1.0125 0.4572,-1.3335 0.3051,-0.321 0.6986,-0.4819 1.1813,-0.4819 0.3155,0 0.6007,0.0757 0.854,0.2262 0.2533,0.1514 0.4468,0.3617 0.5799,0.6317 0.133,0.2692 0.1991,0.5759 0.1991,0.9177 0,0.3473 -0.0693,0.6579 -0.2095,0.9311 -0.1402,0.2741 -0.3385,0.4812 -0.595,0.6222 -0.2573,0.141 -0.5337,0.211 -0.8308,0.211 -0.3227,0 -0.6102,-0.0772 -0.8635,-0.2333 -0.2541,-0.1554 -0.4461,-0.3681 -0.5767,-0.6373 -0.1307,-0.2684 -0.196,-0.5536 -0.196,-0.8539zm0.4668 0.0072c0,0.4126 0.1107,0.7368 0.3322,0.9742 0.2222,0.2373 0.5002,0.356 0.8348,0.356 0.3409,0 0.6213,-0.1195 0.8411,-0.3592 0.2199,-0.2398 0.3306,-0.5799 0.3306,-1.0204 0,-0.278 -0.0478,-0.521 -0.1418,-0.7289 -0.094,-0.2079 -0.2318,-0.3688 -0.4126,-0.4835 -0.1816,-0.1139 -0.3847,-0.1713 -0.6102,-0.1713 -0.321,0 -0.5966,0.11 -0.8276,0.3306 -0.231,0.2199 -0.3465,0.5879 -0.3465,1.1025zm3.3838 1.6592l0 -3.4213 0.4644 0 1.7971 2.6861 0 -2.6861 0.4341 0 0 3.4213 -0.4644 0 -1.797 -2.6884 0 2.6884 -0.4342 0z"/>
  <path class="fil32" d="M8.6304 30.5394l0.4532 0.1147c-0.0948,0.3712 -0.266,0.6548 -0.5122,0.8507 -0.2469,0.1952 -0.548,0.2923 -0.9049,0.2923 -0.3688,0 -0.6683,-0.0748 -0.8993,-0.2246 -0.231,-0.1505 -0.407,-0.368 -0.5273,-0.6524 -0.1203,-0.2851 -0.1808,-0.591 -0.1808,-0.9176 0,-0.3561 0.0677,-0.6667 0.2039,-0.932 0.1362,-0.2653 0.3298,-0.4668 0.5815,-0.6046 0.2509,-0.1378 0.5273,-0.2063 0.8292,-0.2063 0.3425,0 0.6301,0.0868 0.8635,0.2613 0.2334,0.1744 0.3959,0.419 0.4875,0.7352l-0.4453 0.1051c-0.0796,-0.2493 -0.1944,-0.4301 -0.3457,-0.544 -0.1506,-0.1139 -0.3401,-0.1705 -0.5695,-0.1705 -0.2629,0 -0.482,0.063 -0.6588,0.1888 -0.1768,0.1267 -0.3011,0.2955 -0.372,0.5082 -0.0717,0.2119 -0.1075,0.431 -0.1075,0.6564 0,0.2915 0.0422,0.5448 0.1266,0.7623 0.0852,0.2167 0.2167,0.3792 0.3959,0.4867 0.1792,0.1075 0.3728,0.1609 0.5815,0.1609 0.2533,0 0.4676,-0.0733 0.6436,-0.219 0.1761,-0.1466 0.2948,-0.3641 0.3569,-0.6516zm0.873 -0.4668c0,-0.568 0.1521,-1.0125 0.4572,-1.3335 0.3051,-0.321 0.6986,-0.4819 1.1813,-0.4819 0.3155,0 0.6007,0.0757 0.854,0.2262 0.2533,0.1514 0.4468,0.3617 0.5799,0.6317 0.133,0.2692 0.1991,0.5759 0.1991,0.9177 0,0.3473 -0.0693,0.6579 -0.2095,0.9311 -0.1402,0.2741 -0.3385,0.4812 -0.595,0.6222 -0.2573,0.141 -0.5337,0.211 -0.8308,0.211 -0.3227,0 -0.6102,-0.0772 -0.8635,-0.2333 -0.2541,-0.1554 -0.4461,-0.3681 -0.5767,-0.6373 -0.1307,-0.2684 -0.196,-0.5536 -0.196,-0.8539zm0.4668 0.0072c0,0.4126 0.1107,0.7368 0.3322,0.9742 0.2222,0.2373 0.5002,0.356 0.8348,0.356 0.3409,0 0.6213,-0.1195 0.8411,-0.3592 0.2199,-0.2398 0.3306,-0.5799 0.3306,-1.0204 0,-0.278 -0.0478,-0.521 -0.1418,-0.7289 -0.094,-0.2079 -0.2318,-0.3688 -0.4126,-0.4835 -0.1816,-0.1139 -0.3847,-0.1713 -0.6102,-0.1713 -0.321,0 -0.5966,0.11 -0.8276,0.3306 -0.231,0.2199 -0.3465,0.5879 -0.3465,1.1025zm3.3743 1.6592l0 -3.4213 0.6818 0 0.8093 2.4224c0.0749,0.2254 0.1299,0.3943 0.1633,0.5066 0.0391,-0.1242 0.0996,-0.3075 0.1825,-0.5488l0.8188 -2.3802 0.6094 0 0 3.4213 -0.4365 0 0 -2.8637 -0.9941 2.8637 -0.4087 0 -0.9893 -2.9122 0 2.9122 -0.4365 0zm4.0728 0l0 -3.4213 0.4524 0 0 3.4213 -0.4524 0zm1.2458 0l0 -3.4213 0.4644 0 1.7971 2.6861 0 -2.6861 0.4341 0 0 3.4213 -0.4644 0 -1.797 -2.6884 0 2.6884 -0.4342 0zm5.0574 -1.3422l0 -0.4007 1.449 -0.0024 0 1.269c-0.2223,0.1776 -0.4517,0.3106 -0.6883,0.4006 -0.2365,0.0892 -0.4795,0.1338 -0.728,0.1338 -0.3362,0 -0.6421,-0.0716 -0.9161,-0.2158 -0.2748,-0.1434 -0.4819,-0.3521 -0.6221,-0.6237 -0.1402,-0.2725 -0.2103,-0.5767 -0.2103,-0.9129 0,-0.333 0.0701,-0.6436 0.2095,-0.932 0.1386,-0.2891 0.3393,-0.5034 0.6006,-0.6436 0.2613,-0.1394 0.5624,-0.2095 0.9033,-0.2095 0.247,0 0.4708,0.0398 0.6707,0.1203 0.2,0.0796 0.3569,0.1912 0.47,0.3345 0.1139,0.1434 0.1999,0.3298 0.2597,0.56l-0.4087 0.1123c-0.0517,-0.1744 -0.1155,-0.3114 -0.1911,-0.411 -0.0765,-0.0996 -0.1856,-0.1792 -0.3274,-0.239 -0.141,-0.0597 -0.2987,-0.09 -0.4708,-0.09 -0.2071,0 -0.3863,0.0319 -0.5369,0.0948 -0.1513,0.0629 -0.2724,0.1458 -0.3656,0.2485 -0.0924,0.1028 -0.1641,0.2151 -0.2159,0.3386 -0.0868,0.2111 -0.1306,0.4405 -0.1306,0.6882 0,0.3051 0.0526,0.56 0.1577,0.7655 0.1052,0.2055 0.2581,0.3577 0.4588,0.4573 0.2008,0.0995 0.4135,0.1497 0.6389,0.1497 0.1967,0 0.3879,-0.0382 0.5743,-0.1139 0.1872,-0.0749 0.3282,-0.1553 0.4246,-0.2414l0 -0.6372 -1.0053 0z"/>
  <polygon class="fil33" points="31.0042,24.8468 30.7346,24.8752 27.7584,32.0488 30.7723,39.2694 30.9577,39.2963 28.1689,32.0796 "/>
  <path class="fil34" d="M3.0649 24.8649l28.3673 -0.022 -0.1797 0.4215c-9.5517,-0.0028 -28.0682,-0.0426 -28.4418,-0.1566 -1.0896,-0.3937 -1.175,-1.071 -1.2139,-1.8084 0.0667,0.5098 0.1938,1.3894 1.4681,1.5655z"/>
  <path class="fil35" d="M3.5297 39.2984l27.8777 0 -0.1535 -0.4173c-9.5833,0.0197 -22.0981,0.1957 -27.9497,0.0666 -0.4142,0.0357 -1.6057,-0.4316 -1.7046,-1.2956 0.1115,0.7683 0.3187,0.9968 0.5827,1.2571 0.2996,0.2409 0.733,0.3881 1.3474,0.3892z"/>
 </g>
</svg>
