<?xml version="1.0" encoding="UTF-8"?>
<!DOCTYPE svg PUBLIC "-//W3C//DTD SVG 1.1//EN" "http://www.w3.org/Graphics/SVG/1.1/DTD/svg11.dtd">
<!-- Creator: CorelDRAW -->
<svg xmlns="http://www.w3.org/2000/svg" xml:space="preserve" width="50mm" height="50mm" style="shape-rendering:geometricPrecision; text-rendering:geometricPrecision; image-rendering:optimizeQuality; fill-rule:evenodd; clip-rule:evenodd"
viewBox="0 0 50 50"
 xmlns:xlink="http://www.w3.org/1999/xlink">
 <defs>
  <style type="text/css">
   <![CDATA[
    .str0 {stroke:#85AA57;stroke-width:0.2}
    .str1 {stroke:#D5D7DB;stroke-width:0.2}
    .fil6 {fill:url(#id0)}
    .fil2 {fill:url(#id1)}
    .fil3 {fill:url(#id2)}
    .fil1 {fill:url(#id3)}
    .fil4 {fill:url(#id4)}
    .fil5 {fill:url(#id5)}
    .fil0 {fill:url(#id6)}
   ]]>
  </style>
  <linearGradient id="id0" gradientUnits="userSpaceOnUse" x1="43.9543" y1="29.0127" x2="43.9543" y2="18.6473">
   <stop offset="0" style="stop-color:#9BB460"/>
   <stop offset="1" style="stop-color:#9EB95E"/>
  </linearGradient>
  <linearGradient id="id1" gradientUnits="userSpaceOnUse" x1="22.042" y1="29.7575" x2="22.042" y2="13.3103">
   <stop offset="0" style="stop-color:#3D3F40"/>
   <stop offset="1" style="stop-color:#446A7D"/>
  </linearGradient>
  <linearGradient id="id2" gradientUnits="userSpaceOnUse" x1="21.6899" y1="42.4481" x2="21.6899" y2="26.7505">
   <stop offset="0" style="stop-color:#D0D1D4"/>
   <stop offset="1" style="stop-color:#E3E4E6"/>
  </linearGradient>
  <linearGradient id="id3" gradientUnits="userSpaceOnUse" x1="21.9108" y1="42.4026" x2="21.9108" y2="8.6974">
   <stop offset="0" style="stop-color:#D4D6DA"/>
   <stop offset="1" style="stop-color:#FAFDFF"/>
  </linearGradient>
  <linearGradient id="id4" gradientUnits="userSpaceOnUse" x1="36.3889" y1="44.9292" x2="34.8649" y2="30.4512">
   <stop offset="0" style="stop-color:#ADD15E"/>
   <stop offset="0.501961" style="stop-color:#9AB35F"/>
   <stop offset="0.85098" style="stop-color:#9FB764"/>
   <stop offset="1" style="stop-color:#94AD5A"/>
  </linearGradient>
  <linearGradient id="id5" gradientUnits="userSpaceOnUse" x1="23.2264" y1="18.5469" x2="39.7768" y2="38.5215">
   <stop offset="0" style="stop-color:#6D8F48"/>
   <stop offset="1" style="stop-color:#9AB460"/>
  </linearGradient>
  <radialGradient id="id6" gradientUnits="userSpaceOnUse" cx="31.7597" cy="31.3109" r="19.5061" fx="31.7597" fy="31.3109">
   <stop offset="0" style="stop-color:#83A34B"/>
   <stop offset="1" style="stop-color:#ADC170"/>
  </radialGradient>
 </defs>
 <g id="Слой_x0020_1">
  <metadata id="CorelCorpID_0Corel-Layer"/>
  <path class="fil0 str0" d="M37.5694 17.7935l-11.6195 0c-5.4098,0 -9.8359,4.4261 -9.8359,9.8359l0 2.27c0,5.4098 4.4261,9.8359 9.8359,9.8359l9.1876 0 7.6237 5.093 -0.183 -6.473c2.8844,-1.7193 4.8271,-4.8718 4.8271,-8.4559l0 -2.27c0,-5.4098 -4.4261,-9.8359 -9.8359,-9.8359z"/>
  <path class="fil1 str1" d="M14.6676 8.6974l14.4865 0c6.7446,0 12.2628,5.5182 12.2628,12.2628l0 2.8301c0,6.7446 -5.5182,12.2628 -12.2628,12.2628l-11.4545 0 -9.5048 6.3496 0.2282 -8.0701c-3.5961,-2.1436 -6.0182,-6.0739 -6.0182,-10.5423l0 -2.8301c0,-6.7446 5.5182,-12.2628 12.2628,-12.2628z"/>
  <path class="fil2" d="M22.042 29.7576c-2.2384,0 -5.0508,0 -7.4627,0 0.0009,-2.821 5.2758,-2.2622 5.1531,-4.272 -0.7912,-0.5351 -1.3129,-1.3143 -1.602,-3.2842 -0.152,-0.0581 -0.3902,-0.0392 -0.5445,-0.2265 -0.3577,-0.4344 -0.8616,-1.9367 -0.5166,-2.9181 0.0501,-0.1427 0.31,-0.207 0.4737,-0.273 -0.0849,-0.921 -0.1019,-2.452 0.1068,-3.204 1.0021,-1.573 2.3889,-2.2629 4.3922,-2.2695 2.0033,0.0066 3.3901,0.6965 4.3922,2.2695 0.2087,0.752 0.1917,2.283 0.1068,3.204 0.1637,0.066 0.4236,0.1303 0.4737,0.273 0.345,0.9814 -0.1589,2.4837 -0.5166,2.9181 -0.1543,0.1873 -0.3925,0.1684 -0.5445,0.2265 -0.2891,1.9699 -0.8108,2.7491 -1.602,3.2842 -0.1227,2.0098 5.1523,1.3453 5.1531,4.272 -2.4119,0 -5.2243,0 -7.4627,0z"/>
  <path class="fil3" d="M8.4238 34.3418c-3.2884,-1.9317 -4.5139,-4.0873 -5.3133,-7.5913 2.317,2.4231 3.9593,4.1753 9.7349,5.1349 6.1248,0.3678 12.2495,0.2873 18.3743,0 3.5394,-0.2519 6.0344,-1.3917 9.0496,-4.2636 -0.3833,1.4759 -3.9386,7.0758 -10.3741,7.9678 -3.4189,0.222 -7.3012,0.1182 -11.7512,0.019 -3.1115,2.1289 -6.8052,4.7106 -9.9167,6.8395 0.0655,-2.7021 0.131,-5.4042 0.1965,-8.1063z"/>
  <path class="fil4" d="M23.9253 39.4331c14.4697,0.4164 19.8495,-3.3604 23.4031,-8.8284 -0.3772,4.0968 -2.5937,6.2517 -4.8245,7.7643 0.0655,2.1452 0.1744,4.2616 0.2399,6.4068 -2.571,-1.6867 -5.0406,-3.4397 -7.6116,-5.1264 -0.9793,0.0593 -3.7219,0.0299 -7.2996,0.0118 -1.5716,-0.0181 -2.5377,0.0284 -3.9073,-0.2281z"/>
  <path class="fil5" d="M18.1922 36.1387c1.5797,1.2293 1.0949,2.0772 6.1954,2.2271 6.6515,0.1954 14.8729,-2.0246 17.3162,-6.8012 3.1071,-5.8289 2.0458,-10.5724 1.0609,-12.0797 -0.7526,-0.7095 -1.0901,-0.505 -1.3724,-0.9777 1.531,11.3094 -3.9788,17.0751 -11.5205,17.621 -3.247,0.235 -7.2447,-0.0205 -11.6796,0.0105z"/>
  <path class="fil6" d="M46.487 23.7811c-1.1398,-2.7725 -3.0779,-4.0626 -5.1339,-5.1338 1.4351,1.9193 2.6528,5.5649 1.6104,10.3654 2.0278,-1.3092 3.592,-2.7432 3.5235,-5.2316z"/>
 </g>
</svg>
