<?xml version="1.0" encoding="UTF-8"?>
<!DOCTYPE svg PUBLIC "-//W3C//DTD SVG 1.1//EN" "http://www.w3.org/Graphics/SVG/1.1/DTD/svg11.dtd">
<!-- Creator: CorelDRAW -->
<svg xmlns="http://www.w3.org/2000/svg" xml:space="preserve" width="50mm" height="50mm" style="shape-rendering:geometricPrecision; text-rendering:geometricPrecision; image-rendering:optimizeQuality; fill-rule:evenodd; clip-rule:evenodd"
viewBox="0 0 50 50"
 xmlns:xlink="http://www.w3.org/1999/xlink">
 <defs>
  <style type="text/css">
   <![CDATA[
    .str1 {stroke:#957239;stroke-width:0.2}
    .str0 {stroke:#B3B3B3;stroke-width:0.2}
    .str4 {stroke:#B9582B;stroke-width:0.2}
    .str2 {stroke:#CFA25D;stroke-width:0.2}
    .str3 {stroke:#E6E6E6;stroke-width:0.2}
    .fil6 {fill:none}
    .fil15 {fill:#876C3D}
    .fil13 {fill:#C08C3E}
    .fil14 {fill:#D6B076}
    .fil16 {fill:#E2C59B}
    .fil9 {fill:#666666;fill-rule:nonzero}
    .fil7 {fill:#999999;fill-rule:nonzero}
    .fil1 {fill:url(#id0)}
    .fil10 {fill:url(#id1)}
    .fil3 {fill:url(#id2)}
    .fil4 {fill:url(#id3)}
    .fil2 {fill:url(#id4)}
    .fil5 {fill:url(#id5)}
    .fil17 {fill:url(#id6)}
    .fil18 {fill:url(#id7)}
    .fil11 {fill:url(#id8)}
    .fil0 {fill:url(#id9)}
    .fil12 {fill:url(#id10);fill-rule:nonzero}
    .fil8 {fill:url(#id11);fill-rule:nonzero}
   ]]>
  </style>
  <linearGradient id="id0" gradientUnits="userSpaceOnUse" x1="15.6344" y1="6.7605" x2="34.5225" y2="6.7605">
   <stop offset="0" style="stop-color:#FCFCFC"/>
   <stop offset="0.270588" style="stop-color:#CCCCCC"/>
   <stop offset="0.74902" style="stop-color:#CDCDCD"/>
   <stop offset="1" style="stop-color:#FCFCFC"/>
  </linearGradient>
  <linearGradient id="id1" gradientUnits="userSpaceOnUse" x1="25.0395" y1="35.6913" x2="25.0395" y2="34.4058">
   <stop offset="0" style="stop-color:#AA7B31"/>
   <stop offset="1" style="stop-color:#C9A164"/>
  </linearGradient>
  <linearGradient id="id2" gradientUnits="userSpaceOnUse" x1="24.9921" y1="5.3781" x2="24.9921" y2="3.2805">
   <stop offset="0" style="stop-color:#E4BB7C"/>
   <stop offset="1" style="stop-color:#D5A761"/>
  </linearGradient>
  <linearGradient id="id3" gradientUnits="userSpaceOnUse" x1="24.9921" y1="6.9752" x2="24.9921" y2="5.022">
   <stop offset="0" style="stop-color:#B18D56"/>
   <stop offset="0.521569" style="stop-color:#C99341"/>
   <stop offset="1" style="stop-color:#DFC399"/>
  </linearGradient>
  <linearGradient id="id4" gradientUnits="userSpaceOnUse" x1="25.0151" y1="35.759" x2="25.0151" y2="43.6756">
   <stop offset="0" style="stop-color:#957442"/>
   <stop offset="1" style="stop-color:#E0B97B"/>
  </linearGradient>
  <linearGradient id="id5" gradientUnits="userSpaceOnUse" xlink:href="#id4" x1="19.1514" y1="35.6237" x2="19.1514" y2="45.2995">
  </linearGradient>
  <linearGradient id="id6" gradientUnits="userSpaceOnUse" x1="15.2632" y1="44.7399" x2="20.5957" y2="36.741">
   <stop offset="0" style="stop-color:#F0CB90"/>
   <stop offset="1" style="stop-color:#9A7946"/>
  </linearGradient>
  <linearGradient id="id7" gradientUnits="userSpaceOnUse" xlink:href="#id6" x1="29.5748" y1="44.7399" x2="34.9074" y2="36.741">
  </linearGradient>
  <radialGradient id="id8" gradientUnits="userSpaceOnUse" cx="17.3279" cy="25.7111" r="1.5388" fx="17.3279" fy="25.7111">
   <stop offset="0" style="stop-color:#E35B1C"/>
   <stop offset="0.580392" style="stop-color:#DD5112"/>
   <stop offset="1" style="stop-color:#B84310"/>
  </radialGradient>
  <radialGradient id="id9" gradientUnits="userSpaceOnUse" cx="25.7652" cy="14.8825" r="22.093" fx="25.7652" fy="14.8825">
   <stop offset="0" style="stop-color:#FEFEFE"/>
   <stop offset="0.529412" style="stop-color:white"/>
   <stop offset="1" style="stop-color:#EDEDED"/>
  </radialGradient>
  <linearGradient id="id10" gradientUnits="userSpaceOnUse" x1="24.9748" y1="7.0712" x2="24.9748" y2="4.8916">
   <stop offset="0" style="stop-color:#957239"/>
   <stop offset="1" style="stop-color:#D7B37C"/>
  </linearGradient>
  <radialGradient id="id11" gradientUnits="userSpaceOnUse" cx="25.3458" cy="21.0833" r="18.2305" fx="25.3458" fy="21.0833">
   <stop offset="0" style="stop-color:#E35B1C"/>
   <stop offset="0.458824" style="stop-color:#C13D02"/>
   <stop offset="1" style="stop-color:#B84310"/>
  </radialGradient>
 </defs>
 <g id="Слой_x0020_1">
  <metadata id="CorelCorpID_0Corel-Layer"/>
  <polygon class="fil0 str0" points="4.9358,5.3258 44.9926,5.3258 44.9926,34.2858 4.9358,34.2858 "/>
  <path class="fil1" d="M34.4931 5.4448l-18.8271 -0.0211c-0.0166,0.23 -0.0316,0.618 -0.0316,1.3473l0 0.0001c0,0.7295 0.6373,1.3263 1.4165,1.3263l16.055 0c0.7792,0 1.4166,-0.5968 1.4166,-1.3263l0 -0.0001c0,-0.7295 -0.002,-0.906 -0.0294,-1.3262z"/>
  <polygon class="fil2 str1" points="23.7972,35.759 26.233,35.759 26.233,43.6757 23.7972,43.6757 "/>
  <polygon class="fil3 str2" points="23.8418,5.3781 26.1424,5.3781 26.1424,3.2805 23.8418,3.2805 "/>
  <path class="fil4 str1" d="M32.412 5.0374l-14.8379 -0.0154c-0.013,0.168 -0.0249,0.4515 -0.0249,0.9843l0 0.0001c0,0.533 0.5023,0.9689 1.1164,0.9689l12.6531 0c0.6141,0 1.1164,-0.4359 1.1164,-0.9689l0 -0.0001c0,-0.5329 -0.0015,-0.6619 -0.0231,-0.9689z"/>
  <polygon class="fil5 str1" points="20.1664,35.6236 22.8053,35.6236 18.2718,45.2995 15.4976,45.2995 "/>
  <polygon class="fil5 str1" points="29.9763,35.6236 27.405,35.6236 31.9385,45.2995 34.7127,45.2995 "/>
  <line class="fil6 str3" x1="8.2373" y1="14.1231" x2="40.5803" y2= "14.1231" />
  <line class="fil6 str3" x1="8.2373" y1="27.6611" x2="40.5803" y2= "27.6611" />
  <line class="fil6 str3" x1="8.2373" y1="23.1494" x2="40.5803" y2= "23.1494" />
  <line class="fil6 str3" x1="8.2373" y1="18.6376" x2="40.5803" y2= "18.6376" />
  <line class="fil6 str3" x1="12.6583" y1="32.2326" x2="12.6583" y2= "8.3527" />
  <line class="fil6 str3" x1="17.1188" y1="32.2326" x2="17.1188" y2= "8.3527" />
  <line class="fil6 str3" x1="21.6917" y1="32.2326" x2="21.6917" y2= "8.3527" />
  <line class="fil6 str3" x1="26.1239" y1="32.2326" x2="26.1239" y2= "8.3527" />
  <line class="fil6 str3" x1="30.725" y1="32.2326" x2="30.725" y2= "8.3527" />
  <g>
   <path class="fil7" d="M7.9341 8.235l0.3356 0.0001 1.0232 1.5784 -0.3356 0.2176 -1.0232 -1.5784 0.3356 0.0001 -0.3356 -0.2178zm0 0l0.1679 -0.2587 0.1677 0.2588 -0.3356 -0.0001zm-0.8562 1.6873l-0.1678 -0.1089 1.024 -1.5784 0.3356 0.2178 -1.024 1.5784 -0.1678 -0.1089zm0.824 22.2045l0 -23.4725 0.4 0 0 23.4725 -0.2 0.2 -0.2 -0.2zm0.2 0.2l-0.2 0 0 -0.2 0.2 0.2zm34.028 0l-34.028 0 0 -0.4 34.028 0 0 0.4zm0.4193 -0.0322l-0.2178 -0.3356 0.0001 0.3356 -1.5784 -1.0232 0.2176 -0.3356 1.5784 1.0232 0.0001 0.3356zm0 0l-0.0001 -0.3356 0.2588 0.1677 -0.2587 0.1679zm-1.6873 0.8562l-0.1089 -0.1678 1.5784 -1.024 0.2178 0.3356 -1.5784 1.024 -0.1089 -0.1678z"/>
  </g>
  <line class="fil6 str3" x1="35.3031" y1="31.937" x2="35.3031" y2= "8.3527" />
  <path class="fil8" d="M8.8189 29.7616l7.0436 -4.133c0.0427,-0.7652 0.6766,-1.3724 1.4524,-1.3724 0.7423,0 1.3547,0.5558 1.4436,1.274l1.9777 1.065c0.2582,-0.2341 0.6009,-0.3768 0.9769,-0.3768 0.2211,0 0.4306,0.0494 0.6182,0.1376l4.4749 -4.5206c-0.034,-0.1233 -0.0522,-0.2532 -0.0522,-0.3873 0,-0.8034 0.6513,-1.4547 1.4548,-1.4547 0.5596,0 1.0452,0.316 1.2885,0.7792l3.5483 0.8156c0.2532,-0.4281 0.7194,-0.7152 1.2528,-0.7152 0.0796,0 0.1577,0.0065 0.2337,0.0188l6.1985 -9.6552 1.1421 0.733 -6.2553 9.7438c0.087,0.1867 0.1358,0.3948 0.1358,0.6144 0,0.8034 -0.6513,1.4547 -1.4548,1.4547 -0.5736,0 -1.0696,-0.332 -1.3065,-0.8143l-3.5144 -0.808c-0.2493,0.4433 -0.724,0.7427 -1.2687,0.7427 -0.1658,0 -0.325,-0.0278 -0.4733,-0.0788l-4.584 4.6308c0.0107,0.0711 0.0163,0.1441 0.0163,0.2183 0,0.8034 -0.6513,1.4547 -1.4547,1.4547 -0.7306,0 -1.3354,-0.5385 -1.439,-1.2403l-2.0042 -1.0793c-0.2555,0.2226 -0.5895,0.3574 -0.955,0.3574 -0.3328,0 -0.6393,-0.1118 -0.8844,-0.2998l-6.9264 4.0642 -0.6852 -1.1685z"/>
  <path class="fil9" d="M6.8639 32.749c0,-0.097 0.0099,-0.1751 0.0299,-0.2341 0.0199,-0.0592 0.0497,-0.1048 0.0891,-0.1369 0.0393,-0.0321 0.0888,-0.0482 0.1484,-0.0482 0.0441,0 0.0827,0.009 0.1159,0.0268 0.0332,0.0176 0.0605,0.0431 0.0823,0.0766 0.0216,0.0333 0.0386,0.074 0.0508,0.122 0.0124,0.048 0.0185,0.1125 0.0185,0.1938 0,0.0963 -0.0099,0.1738 -0.0296,0.233 -0.0198,0.0592 -0.0495,0.1049 -0.0888,0.1372 -0.0393,0.0322 -0.089,0.0483 -0.1491,0.0483 -0.0791,0 -0.1412,-0.0283 -0.1862,-0.085 -0.0541,-0.0682 -0.0812,-0.1795 -0.0812,-0.3335zm0.1035 0c0,0.1346 0.0158,0.2242 0.0474,0.2689 0.0314,0.0445 0.0702,0.0669 0.1165,0.0669 0.0464,0 0.0851,-0.0226 0.1166,-0.0673 0.0316,-0.0446 0.0475,-0.1342 0.0475,-0.2685 0,-0.135 -0.0159,-0.2247 -0.0475,-0.269 -0.0315,-0.0445 -0.0706,-0.0667 -0.1176,-0.0667 -0.0464,0 -0.0832,0.0197 -0.111,0.0588 -0.0345,0.0498 -0.0519,0.1423 -0.0519,0.2769z"/>
  <polygon class="fil10 str1" points="45.7445,35.6913 4.3345,35.6913 4.3345,34.4057 45.7445,34.4057 "/>
  <path class="fil9" d="M6.8599 28.0199l-0.1006 0 0 -0.6416c-0.0242,0.0231 -0.0559,0.0461 -0.0953,0.0692 -0.0395,0.0231 -0.0748,0.0405 -0.1061,0.052l0 -0.0972c0.0563,-0.0266 0.1056,-0.0587 0.1477,-0.0963 0.0421,-0.0378 0.072,-0.0742 0.0896,-0.1098l0.0647 0 0 0.8237zm0.2581 -0.4045c0,-0.097 0.0099,-0.1751 0.03,-0.2342 0.0198,-0.0592 0.0496,-0.1048 0.089,-0.1368 0.0393,-0.0321 0.0888,-0.0482 0.1484,-0.0482 0.0441,0 0.0827,0.009 0.1159,0.0268 0.0332,0.0176 0.0605,0.0431 0.0823,0.0766 0.0216,0.0333 0.0386,0.074 0.0508,0.122 0.0124,0.0479 0.0185,0.1125 0.0185,0.1938 0,0.0963 -0.0099,0.1738 -0.0295,0.233 -0.0199,0.0592 -0.0495,0.1049 -0.0889,0.1372 -0.0393,0.0322 -0.089,0.0483 -0.1491,0.0483 -0.0791,0 -0.1412,-0.0283 -0.1862,-0.0851 -0.0541,-0.0681 -0.0812,-0.1795 -0.0812,-0.3334zm0.1035 0c0,0.1346 0.0158,0.2242 0.0474,0.2689 0.0314,0.0445 0.0702,0.0669 0.1165,0.0669 0.0464,0 0.0851,-0.0226 0.1167,-0.0673 0.0315,-0.0447 0.0474,-0.1342 0.0474,-0.2685 0,-0.135 -0.0159,-0.2247 -0.0474,-0.2691 -0.0316,-0.0445 -0.0707,-0.0666 -0.1177,-0.0666 -0.0464,0 -0.0832,0.0197 -0.111,0.0588 -0.0345,0.0498 -0.0519,0.1423 -0.0519,0.2769z"/>
  <path class="fil9" d="M6.9864 23.4803l0 0.0968 -0.5422 0c-0.0007,-0.0243 0.0031,-0.0476 0.0117,-0.0699 0.0138,-0.0371 0.0359,-0.0733 0.0663,-0.1092 0.0305,-0.0358 0.0745,-0.0772 0.1318,-0.1242 0.0891,-0.0731 0.1495,-0.131 0.1808,-0.1737 0.0313,-0.0426 0.047,-0.0832 0.047,-0.1212 0,-0.0398 -0.0143,-0.0735 -0.0428,-0.101 -0.0286,-0.0273 -0.0659,-0.041 -0.1118,-0.041 -0.0485,0 -0.0872,0.0145 -0.1162,0.0437 -0.0293,0.029 -0.044,0.0693 -0.0443,0.1206l-0.1036 -0.0104c0.0071,-0.0774 0.0339,-0.1362 0.0801,-0.1767 0.0461,-0.0405 0.1084,-0.0607 0.1864,-0.0607 0.0787,0 0.1409,0.0219 0.1867,0.0655 0.0461,0.0437 0.069,0.0978 0.069,0.1623 0,0.0329 -0.0067,0.0652 -0.0203,0.0968 -0.0133,0.0318 -0.0357,0.0652 -0.0668,0.1001 -0.0311,0.0352 -0.0829,0.0833 -0.1553,0.1444 -0.0603,0.0508 -0.0991,0.0852 -0.1163,0.1034 -0.0171,0.0179 -0.0313,0.0361 -0.0426,0.0544l0.4024 0zm0.108 -0.3077c0,-0.097 0.0099,-0.1752 0.0299,-0.2342 0.0198,-0.0592 0.0497,-0.1048 0.089,-0.1369 0.0394,-0.0321 0.0889,-0.0481 0.1484,-0.0481 0.0442,0 0.0827,0.009 0.116,0.0267 0.0331,0.0176 0.0604,0.0432 0.0823,0.0766 0.0216,0.0334 0.0385,0.0741 0.0507,0.1221 0.0125,0.0479 0.0185,0.1125 0.0185,0.1938 0,0.0963 -0.0098,0.1738 -0.0295,0.233 -0.0199,0.0592 -0.0495,0.1049 -0.0889,0.1371 -0.0393,0.0323 -0.089,0.0483 -0.1491,0.0483 -0.079,0 -0.1411,-0.0282 -0.1862,-0.085 -0.054,-0.0682 -0.0811,-0.1795 -0.0811,-0.3334zm0.1034 0c0,0.1346 0.0159,0.2242 0.0474,0.2689 0.0315,0.0445 0.0703,0.0669 0.1165,0.0669 0.0464,0 0.0851,-0.0226 0.1167,-0.0673 0.0315,-0.0447 0.0474,-0.1343 0.0474,-0.2685 0,-0.135 -0.0159,-0.2247 -0.0474,-0.2691 -0.0316,-0.0445 -0.0706,-0.0666 -0.1177,-0.0666 -0.0464,0 -0.0832,0.0197 -0.1109,0.0587 -0.0346,0.0499 -0.052,0.1424 -0.052,0.277z"/>
  <path class="fil9" d="M6.4576 18.827l0.1006 -0.0133c0.0117,0.057 0.0314,0.0981 0.0591,0.1233 0.0279,0.0253 0.0617,0.0379 0.1016,0.0379 0.0473,0 0.0875,-0.0165 0.1201,-0.0493 0.0325,-0.0328 0.0489,-0.0735 0.0489,-0.122 0,-0.0463 -0.0151,-0.0844 -0.0453,-0.1145 -0.0303,-0.03 -0.0687,-0.045 -0.1154,-0.045 -0.019,0 -0.0427,0.0038 -0.071,0.0112l0.0113 -0.0884c0.0067,0.0008 0.012,0.0011 0.0162,0.0011 0.0428,0 0.0814,-0.0112 0.1158,-0.0335 0.0343,-0.0224 0.0516,-0.0569 0.0516,-0.1035 0,-0.0369 -0.0126,-0.0677 -0.0377,-0.0917 -0.025,-0.0243 -0.0573,-0.0365 -0.0968,-0.0365 -0.0391,0 -0.0719,0.0124 -0.0978,0.0369 -0.0262,0.0246 -0.043,0.0616 -0.0504,0.1109l-0.1006 -0.0179c0.0121,-0.0676 0.0402,-0.12 0.0837,-0.157 0.0438,-0.0371 0.098,-0.0558 0.1629,-0.0558 0.0447,0 0.086,0.0097 0.1236,0.0288 0.0376,0.0194 0.0665,0.0455 0.0866,0.0787 0.0198,0.0333 0.0299,0.0684 0.0299,0.1058 0,0.0354 -0.0095,0.0677 -0.0286,0.0968 -0.0191,0.0291 -0.0472,0.0522 -0.0844,0.0694 0.0485,0.0111 0.0861,0.0344 0.113,0.0697 0.0267,0.0351 0.0402,0.0792 0.0402,0.1322 0,0.0716 -0.0261,0.1323 -0.0784,0.1821 -0.0521,0.0499 -0.1182,0.0747 -0.1981,0.0747 -0.0719,0 -0.1317,-0.0214 -0.1793,-0.0644 -0.0475,-0.0427 -0.0746,-0.0983 -0.0813,-0.1667zm0.6368 -0.1879c0,-0.097 0.0099,-0.1751 0.0299,-0.2342 0.0198,-0.0592 0.0497,-0.1048 0.089,-0.1368 0.0394,-0.0321 0.0889,-0.0482 0.1484,-0.0482 0.0442,0 0.0827,0.009 0.116,0.0268 0.0331,0.0175 0.0604,0.0431 0.0823,0.0766 0.0216,0.0333 0.0385,0.074 0.0507,0.122 0.0125,0.0479 0.0185,0.1125 0.0185,0.1938 0,0.0963 -0.0098,0.1738 -0.0295,0.233 -0.0199,0.0592 -0.0495,0.1049 -0.0889,0.1371 -0.0393,0.0323 -0.089,0.0484 -0.1491,0.0484 -0.079,0 -0.1411,-0.0283 -0.1862,-0.0851 -0.054,-0.0681 -0.0811,-0.1795 -0.0811,-0.3334zm0.1034 0c0,0.1346 0.0159,0.2242 0.0474,0.2689 0.0315,0.0445 0.0703,0.0669 0.1165,0.0669 0.0464,0 0.0851,-0.0226 0.1167,-0.0673 0.0315,-0.0447 0.0474,-0.1342 0.0474,-0.2685 0,-0.135 -0.0159,-0.2247 -0.0474,-0.2691 -0.0316,-0.0445 -0.0706,-0.0666 -0.1177,-0.0666 -0.0464,0 -0.0832,0.0197 -0.1109,0.0588 -0.0346,0.0498 -0.052,0.1423 -0.052,0.2769z"/>
  <path class="fil9" d="M6.7798 14.5101l0 -0.1963 -0.3558 0 0 -0.0924 0.3743 -0.5315 0.0823 0 0 0.5315 0.1108 0 0 0.0924 -0.1108 0 0 0.1963 -0.1008 0zm0 -0.2887l0 -0.3698 -0.2567 0.3698 0.2567 0zm0.3146 -0.1158c0,-0.097 0.0099,-0.1751 0.0299,-0.2341 0.0198,-0.0592 0.0497,-0.1048 0.089,-0.1369 0.0394,-0.0321 0.0889,-0.0482 0.1484,-0.0482 0.0442,0 0.0827,0.009 0.116,0.0268 0.0331,0.0176 0.0604,0.0431 0.0823,0.0766 0.0216,0.0333 0.0385,0.074 0.0507,0.122 0.0125,0.048 0.0185,0.1125 0.0185,0.1938 0,0.0963 -0.0098,0.1738 -0.0295,0.233 -0.0199,0.0592 -0.0495,0.1049 -0.0889,0.1372 -0.0393,0.0322 -0.089,0.0483 -0.1491,0.0483 -0.079,0 -0.1411,-0.0283 -0.1862,-0.085 -0.054,-0.0682 -0.0811,-0.1795 -0.0811,-0.3335zm0.1034 0c0,0.1346 0.0159,0.2242 0.0474,0.2689 0.0315,0.0445 0.0703,0.0669 0.1165,0.0669 0.0464,0 0.0851,-0.0226 0.1167,-0.0673 0.0315,-0.0446 0.0474,-0.1342 0.0474,-0.2685 0,-0.135 -0.0159,-0.2247 -0.0474,-0.269 -0.0316,-0.0446 -0.0706,-0.0667 -0.1177,-0.0667 -0.0464,0 -0.0832,0.0197 -0.1109,0.0588 -0.0346,0.0498 -0.052,0.1423 -0.052,0.2769z"/>
  <path class="fil9" d="M12.1376 33.5007l-0.1006 0 0 -0.6416c-0.0242,0.0231 -0.0559,0.0461 -0.0953,0.0692 -0.0395,0.0232 -0.0749,0.0406 -0.1062,0.052l0 -0.0972c0.0563,-0.0266 0.1057,-0.0586 0.1478,-0.0963 0.0421,-0.0378 0.072,-0.0742 0.0896,-0.1098l0.0647 0 0 0.8237zm0.2581 -0.4045c0,-0.097 0.0099,-0.1751 0.0299,-0.2341 0.0199,-0.0592 0.0497,-0.1048 0.089,-0.1369 0.0394,-0.0321 0.0889,-0.0482 0.1484,-0.0482 0.0442,0 0.0827,0.009 0.116,0.0268 0.0332,0.0176 0.0605,0.0431 0.0823,0.0766 0.0216,0.0334 0.0385,0.0741 0.0508,0.122 0.0124,0.048 0.0185,0.1125 0.0185,0.1938 0,0.0963 -0.0099,0.1738 -0.0296,0.233 -0.0198,0.0592 -0.0495,0.1049 -0.0888,0.1372 -0.0394,0.0323 -0.089,0.0483 -0.1492,0.0483 -0.079,0 -0.1411,-0.0283 -0.1862,-0.085 -0.054,-0.0682 -0.0811,-0.1795 -0.0811,-0.3335zm0.1034 0c0,0.1347 0.0159,0.2242 0.0475,0.2689 0.0314,0.0445 0.0702,0.0669 0.1164,0.0669 0.0465,0 0.0852,-0.0226 0.1167,-0.0672 0.0316,-0.0447 0.0474,-0.1343 0.0474,-0.2686 0,-0.135 -0.0158,-0.2247 -0.0474,-0.269 -0.0315,-0.0445 -0.0706,-0.0667 -0.1176,-0.0667 -0.0465,0 -0.0833,0.0197 -0.111,0.0588 -0.0345,0.0498 -0.052,0.1423 -0.052,0.2769zm0.5339 0c0,-0.097 0.0099,-0.1751 0.0299,-0.2341 0.0199,-0.0592 0.0497,-0.1048 0.0891,-0.1369 0.0393,-0.0321 0.0888,-0.0482 0.1484,-0.0482 0.0441,0 0.0826,0.009 0.1159,0.0268 0.0332,0.0176 0.0605,0.0431 0.0823,0.0766 0.0216,0.0334 0.0385,0.0741 0.0508,0.122 0.0124,0.048 0.0185,0.1125 0.0185,0.1938 0,0.0963 -0.0099,0.1738 -0.0296,0.233 -0.0198,0.0592 -0.0495,0.1049 -0.0888,0.1372 -0.0394,0.0323 -0.089,0.0483 -0.1491,0.0483 -0.0791,0 -0.1412,-0.0283 -0.1863,-0.085 -0.054,-0.0682 -0.0811,-0.1795 -0.0811,-0.3335zm0.1034 0c0,0.1347 0.0159,0.2242 0.0475,0.2689 0.0314,0.0445 0.0702,0.0669 0.1165,0.0669 0.0464,0 0.0851,-0.0226 0.1166,-0.0672 0.0316,-0.0447 0.0474,-0.1343 0.0474,-0.2686 0,-0.135 -0.0158,-0.2247 -0.0474,-0.269 -0.0315,-0.0445 -0.0706,-0.0667 -0.1176,-0.0667 -0.0465,0 -0.0833,0.0197 -0.111,0.0588 -0.0345,0.0498 -0.052,0.1423 -0.052,0.2769z"/>
  <path class="fil9" d="M16.7496 33.3822l0 0.0968 -0.5422 0c-0.0007,-0.0243 0.0031,-0.0476 0.0117,-0.0699 0.0138,-0.0371 0.0359,-0.0734 0.0663,-0.1093 0.0305,-0.0357 0.0745,-0.0771 0.1318,-0.1241 0.0891,-0.0731 0.1495,-0.131 0.1808,-0.1737 0.0313,-0.0427 0.047,-0.0832 0.047,-0.1212 0,-0.0398 -0.0143,-0.0735 -0.0428,-0.101 -0.0287,-0.0273 -0.0659,-0.041 -0.1118,-0.041 -0.0485,0 -0.0872,0.0145 -0.1162,0.0437 -0.0293,0.029 -0.044,0.0693 -0.0443,0.1206l-0.1036 -0.0104c0.0071,-0.0774 0.0339,-0.1362 0.0801,-0.1767 0.0461,-0.0405 0.1084,-0.0607 0.1864,-0.0607 0.0787,0 0.1409,0.0219 0.1867,0.0655 0.0461,0.0437 0.069,0.0978 0.069,0.1623 0,0.0329 -0.0067,0.0652 -0.0203,0.0968 -0.0133,0.0318 -0.0357,0.0652 -0.0668,0.1001 -0.0311,0.0352 -0.0829,0.0833 -0.1553,0.1444 -0.0603,0.0508 -0.0991,0.0851 -0.1163,0.1034 -0.0171,0.0179 -0.0313,0.036 -0.0426,0.0544l0.4024 0zm0.108 -0.3077c0,-0.097 0.0099,-0.1752 0.0299,-0.2342 0.0198,-0.0592 0.0497,-0.1048 0.089,-0.1369 0.0394,-0.0321 0.0889,-0.0481 0.1484,-0.0481 0.0442,0 0.0827,0.009 0.116,0.0267 0.0331,0.0176 0.0604,0.0432 0.0823,0.0766 0.0216,0.0334 0.0385,0.0741 0.0507,0.1221 0.0125,0.0479 0.0185,0.1125 0.0185,0.1938 0,0.0963 -0.0098,0.1738 -0.0295,0.233 -0.0199,0.0592 -0.0495,0.1048 -0.0889,0.1371 -0.0393,0.0323 -0.089,0.0483 -0.1491,0.0483 -0.079,0 -0.1411,-0.0282 -0.1862,-0.085 -0.054,-0.0682 -0.0811,-0.1795 -0.0811,-0.3334zm0.1034 0c0,0.1346 0.0159,0.2242 0.0474,0.2689 0.0315,0.0445 0.0703,0.0669 0.1165,0.0669 0.0464,0 0.0851,-0.0226 0.1167,-0.0673 0.0315,-0.0447 0.0474,-0.1343 0.0474,-0.2685 0,-0.135 -0.0159,-0.2248 -0.0474,-0.2691 -0.0316,-0.0445 -0.0706,-0.0666 -0.1177,-0.0666 -0.0464,0 -0.0832,0.0197 -0.1109,0.0587 -0.0346,0.0499 -0.052,0.1424 -0.052,0.277zm0.5339 0c0,-0.097 0.0099,-0.1752 0.0299,-0.2342 0.0198,-0.0592 0.0497,-0.1048 0.089,-0.1369 0.0394,-0.0321 0.0889,-0.0481 0.1484,-0.0481 0.0442,0 0.0827,0.009 0.116,0.0267 0.0331,0.0176 0.0604,0.0432 0.0823,0.0766 0.0216,0.0334 0.0385,0.0741 0.0507,0.1221 0.0125,0.0479 0.0185,0.1125 0.0185,0.1938 0,0.0963 -0.0098,0.1738 -0.0295,0.233 -0.0199,0.0592 -0.0495,0.1048 -0.0889,0.1371 -0.0393,0.0323 -0.089,0.0483 -0.1491,0.0483 -0.079,0 -0.1411,-0.0282 -0.1862,-0.085 -0.054,-0.0682 -0.0811,-0.1795 -0.0811,-0.3334zm0.1034 0c0,0.1346 0.0159,0.2242 0.0474,0.2689 0.0315,0.0445 0.0703,0.0669 0.1165,0.0669 0.0464,0 0.0851,-0.0226 0.1167,-0.0673 0.0315,-0.0447 0.0474,-0.1343 0.0474,-0.2685 0,-0.135 -0.0159,-0.2248 -0.0474,-0.2691 -0.0316,-0.0445 -0.0706,-0.0666 -0.1177,-0.0666 -0.0464,0 -0.0832,0.0197 -0.1109,0.0587 -0.0346,0.0499 -0.052,0.1424 -0.052,0.277z"/>
  <path class="fil9" d="M20.7582 33.2842l0.1006 -0.0134c0.0117,0.0571 0.0314,0.0981 0.059,0.1233 0.028,0.0253 0.0618,0.0379 0.1017,0.0379 0.0473,0 0.0874,-0.0165 0.1201,-0.0493 0.0324,-0.0328 0.0488,-0.0735 0.0488,-0.122 0,-0.0463 -0.015,-0.0844 -0.0452,-0.1144 -0.0304,-0.03 -0.0687,-0.0451 -0.1154,-0.0451 -0.019,0 -0.0427,0.0038 -0.071,0.0113l0.0113 -0.0884c0.0067,0.0007 0.012,0.0011 0.0162,0.0011 0.0428,0 0.0814,-0.0113 0.1157,-0.0336 0.0344,-0.0224 0.0516,-0.0569 0.0516,-0.1035 0,-0.0369 -0.0126,-0.0676 -0.0376,-0.0917 -0.025,-0.0243 -0.0573,-0.0365 -0.0968,-0.0365 -0.0392,0 -0.0719,0.0124 -0.0978,0.0369 -0.0262,0.0247 -0.043,0.0616 -0.0504,0.111l-0.1007 -0.018c0.0122,-0.0676 0.0403,-0.1199 0.0838,-0.157 0.0438,-0.0371 0.098,-0.0558 0.1629,-0.0558 0.0447,0 0.086,0.0097 0.1236,0.0289 0.0376,0.0193 0.0664,0.0454 0.0866,0.0787 0.0198,0.0332 0.0299,0.0683 0.0299,0.1058 0,0.0353 -0.0096,0.0676 -0.0287,0.0968 -0.019,0.029 -0.0471,0.0521 -0.0844,0.0693 0.0485,0.0111 0.0861,0.0344 0.1131,0.0697 0.0267,0.0351 0.0401,0.0793 0.0401,0.1322 0,0.0716 -0.026,0.1324 -0.0783,0.1821 -0.0521,0.0499 -0.1182,0.0747 -0.1981,0.0747 -0.072,0 -0.1317,-0.0214 -0.1793,-0.0643 -0.0475,-0.0428 -0.0746,-0.0984 -0.0813,-0.1667zm0.6367 -0.188c0,-0.097 0.0099,-0.1751 0.03,-0.2341 0.0198,-0.0592 0.0496,-0.1048 0.089,-0.1369 0.0393,-0.0321 0.0888,-0.0482 0.1484,-0.0482 0.0441,0 0.0827,0.009 0.1159,0.0268 0.0332,0.0176 0.0605,0.0431 0.0824,0.0766 0.0215,0.0334 0.0385,0.0741 0.0507,0.122 0.0124,0.048 0.0185,0.1125 0.0185,0.1938 0,0.0963 -0.0099,0.1738 -0.0295,0.233 -0.0199,0.0592 -0.0495,0.1049 -0.0889,0.1372 -0.0393,0.0323 -0.089,0.0483 -0.1491,0.0483 -0.0791,0 -0.1412,-0.0283 -0.1862,-0.085 -0.054,-0.0682 -0.0812,-0.1795 -0.0812,-0.3335zm0.1035 0c0,0.1347 0.0159,0.2242 0.0474,0.2689 0.0315,0.0445 0.0703,0.0669 0.1165,0.0669 0.0464,0 0.0851,-0.0226 0.1167,-0.0672 0.0315,-0.0447 0.0474,-0.1343 0.0474,-0.2686 0,-0.135 -0.0159,-0.2247 -0.0474,-0.269 -0.0316,-0.0445 -0.0707,-0.0667 -0.1177,-0.0667 -0.0464,0 -0.0832,0.0197 -0.111,0.0588 -0.0345,0.0498 -0.0519,0.1423 -0.0519,0.2769zm0.5339 0c0,-0.097 0.0098,-0.1751 0.0299,-0.2341 0.0198,-0.0592 0.0496,-0.1048 0.089,-0.1369 0.0393,-0.0321 0.0888,-0.0482 0.1484,-0.0482 0.0441,0 0.0827,0.009 0.1159,0.0268 0.0332,0.0176 0.0605,0.0431 0.0824,0.0766 0.0215,0.0334 0.0385,0.0741 0.0507,0.122 0.0124,0.048 0.0185,0.1125 0.0185,0.1938 0,0.0963 -0.0099,0.1738 -0.0295,0.233 -0.0199,0.0592 -0.0495,0.1049 -0.0889,0.1372 -0.0393,0.0323 -0.089,0.0483 -0.1491,0.0483 -0.0791,0 -0.1412,-0.0283 -0.1862,-0.085 -0.054,-0.0682 -0.0811,-0.1795 -0.0811,-0.3335zm0.1034 0c0,0.1347 0.0159,0.2242 0.0474,0.2689 0.0315,0.0445 0.0703,0.0669 0.1165,0.0669 0.0464,0 0.0851,-0.0226 0.1167,-0.0672 0.0315,-0.0447 0.0474,-0.1343 0.0474,-0.2686 0,-0.135 -0.0159,-0.2247 -0.0474,-0.269 -0.0316,-0.0445 -0.0707,-0.0667 -0.1177,-0.0667 -0.0464,0 -0.0832,0.0197 -0.111,0.0588 -0.0345,0.0498 -0.0519,0.1423 -0.0519,0.2769z"/>
  <path class="fil9" d="M25.4785 33.5007l0 -0.1963 -0.3558 0 0 -0.0924 0.3743 -0.5315 0.0823 0 0 0.5315 0.1108 0 0 0.0924 -0.1108 0 0 0.1963 -0.1008 0zm0 -0.2887l0 -0.3698 -0.2567 0.3698 0.2567 0zm0.3146 -0.1158c0,-0.097 0.0099,-0.1751 0.0299,-0.2341 0.0199,-0.0592 0.0497,-0.1048 0.089,-0.1369 0.0394,-0.0321 0.0889,-0.0482 0.1484,-0.0482 0.0442,0 0.0827,0.009 0.116,0.0268 0.0332,0.0176 0.0604,0.0431 0.0823,0.0766 0.0216,0.0334 0.0385,0.0741 0.0508,0.122 0.0124,0.048 0.0184,0.1125 0.0184,0.1938 0,0.0963 -0.0098,0.1738 -0.0295,0.233 -0.0199,0.0592 -0.0495,0.1049 -0.0888,0.1372 -0.0394,0.0323 -0.0891,0.0483 -0.1492,0.0483 -0.079,0 -0.1411,-0.0283 -0.1862,-0.085 -0.054,-0.0682 -0.0811,-0.1795 -0.0811,-0.3335zm0.1034 0c0,0.1347 0.0159,0.2242 0.0474,0.2689 0.0315,0.0445 0.0703,0.0669 0.1165,0.0669 0.0464,0 0.0851,-0.0226 0.1167,-0.0672 0.0315,-0.0447 0.0474,-0.1343 0.0474,-0.2686 0,-0.135 -0.0159,-0.2247 -0.0474,-0.269 -0.0316,-0.0445 -0.0706,-0.0667 -0.1177,-0.0667 -0.0464,0 -0.0832,0.0197 -0.1109,0.0588 -0.0346,0.0498 -0.052,0.1423 -0.052,0.2769zm0.5339 0c0,-0.097 0.0099,-0.1751 0.0299,-0.2341 0.0199,-0.0592 0.0497,-0.1048 0.089,-0.1369 0.0394,-0.0321 0.0889,-0.0482 0.1484,-0.0482 0.0442,0 0.0827,0.009 0.116,0.0268 0.0332,0.0176 0.0604,0.0431 0.0823,0.0766 0.0216,0.0334 0.0385,0.0741 0.0508,0.122 0.0124,0.048 0.0185,0.1125 0.0185,0.1938 0,0.0963 -0.0099,0.1738 -0.0296,0.233 -0.0199,0.0592 -0.0495,0.1049 -0.0888,0.1372 -0.0394,0.0323 -0.0891,0.0483 -0.1492,0.0483 -0.079,0 -0.1411,-0.0283 -0.1862,-0.085 -0.054,-0.0682 -0.0811,-0.1795 -0.0811,-0.3335zm0.1034 0c0,0.1347 0.0159,0.2242 0.0474,0.2689 0.0315,0.0445 0.0703,0.0669 0.1165,0.0669 0.0464,0 0.0852,-0.0226 0.1167,-0.0672 0.0315,-0.0447 0.0474,-0.1343 0.0474,-0.2686 0,-0.135 -0.0159,-0.2247 -0.0474,-0.269 -0.0315,-0.0445 -0.0706,-0.0667 -0.1177,-0.0667 -0.0464,0 -0.0832,0.0197 -0.1109,0.0588 -0.0346,0.0498 -0.052,0.1423 -0.052,0.2769z"/>
  <path class="fil9" d="M29.8245 33.2859l0.1058 -0.009c0.0078,0.0516 0.0259,0.0901 0.0544,0.1161 0.0286,0.026 0.063,0.039 0.1033,0.039 0.0485,0 0.0896,-0.0184 0.123,-0.0548 0.0336,-0.0366 0.0505,-0.0852 0.0505,-0.1455 0,-0.0575 -0.0161,-0.1028 -0.0483,-0.136 -0.0323,-0.0333 -0.0746,-0.0499 -0.1269,-0.0499 -0.0324,0 -0.0617,0.0075 -0.0878,0.0222 -0.0262,0.0147 -0.0466,0.0338 -0.0616,0.0572l-0.0944 -0.0122 0.0794 -0.4213 0.4079 0 0 0.0963 -0.3273 0 -0.0444 0.2204c0.0494,-0.0344 0.1011,-0.0516 0.1551,-0.0516 0.0717,0 0.132,0.0248 0.1813,0.0745 0.0493,0.0497 0.0739,0.1134 0.0739,0.1914 0,0.0742 -0.0218,0.1384 -0.065,0.1925 -0.0526,0.0662 -0.1244,0.0995 -0.2154,0.0995 -0.0747,0 -0.1356,-0.0209 -0.1827,-0.0626 -0.0472,-0.0419 -0.0742,-0.0972 -0.0808,-0.1662zm0.6373 -0.1897c0,-0.097 0.0099,-0.1751 0.0299,-0.2341 0.0199,-0.0592 0.0497,-0.1048 0.0891,-0.1369 0.0393,-0.0321 0.0888,-0.0482 0.1484,-0.0482 0.0441,0 0.0826,0.009 0.1159,0.0268 0.0332,0.0176 0.0605,0.0431 0.0823,0.0766 0.0216,0.0334 0.0386,0.0741 0.0508,0.122 0.0124,0.048 0.0185,0.1125 0.0185,0.1938 0,0.0963 -0.0099,0.1738 -0.0296,0.233 -0.0198,0.0592 -0.0495,0.1049 -0.0888,0.1372 -0.0394,0.0323 -0.089,0.0483 -0.1491,0.0483 -0.0791,0 -0.1412,-0.0283 -0.1862,-0.085 -0.0541,-0.0682 -0.0812,-0.1795 -0.0812,-0.3335zm0.1035 0c0,0.1347 0.0158,0.2242 0.0474,0.2689 0.0314,0.0445 0.0702,0.0669 0.1165,0.0669 0.0464,0 0.0851,-0.0226 0.1166,-0.0672 0.0316,-0.0447 0.0474,-0.1343 0.0474,-0.2686 0,-0.135 -0.0158,-0.2247 -0.0474,-0.269 -0.0315,-0.0445 -0.0706,-0.0667 -0.1176,-0.0667 -0.0465,0 -0.0833,0.0197 -0.111,0.0588 -0.0345,0.0498 -0.0519,0.1423 -0.0519,0.2769zm0.5338 0c0,-0.097 0.0099,-0.1751 0.0299,-0.2341 0.0199,-0.0592 0.0497,-0.1048 0.0891,-0.1369 0.0393,-0.0321 0.0888,-0.0482 0.1484,-0.0482 0.0441,0 0.0826,0.009 0.1159,0.0268 0.0332,0.0176 0.0605,0.0431 0.0823,0.0766 0.0216,0.0334 0.0386,0.0741 0.0508,0.122 0.0124,0.048 0.0185,0.1125 0.0185,0.1938 0,0.0963 -0.0099,0.1738 -0.0296,0.233 -0.0198,0.0592 -0.0495,0.1049 -0.0888,0.1372 -0.0394,0.0323 -0.089,0.0483 -0.1491,0.0483 -0.0791,0 -0.1412,-0.0283 -0.1862,-0.085 -0.0541,-0.0682 -0.0812,-0.1795 -0.0812,-0.3335zm0.1035 0c0,0.1347 0.0158,0.2242 0.0474,0.2689 0.0314,0.0445 0.0702,0.0669 0.1165,0.0669 0.0464,0 0.0851,-0.0226 0.1166,-0.0672 0.0316,-0.0447 0.0475,-0.1343 0.0475,-0.2686 0,-0.135 -0.0159,-0.2247 -0.0475,-0.269 -0.0315,-0.0445 -0.0706,-0.0667 -0.1176,-0.0667 -0.0464,0 -0.0833,0.0197 -0.111,0.0588 -0.0345,0.0498 -0.0519,0.1423 -0.0519,0.2769z"/>
  <path class="fil9" d="M34.9481 32.8814l-0.1 0.0078c-0.0091,-0.0395 -0.0217,-0.0684 -0.0381,-0.0861 -0.0273,-0.0289 -0.0609,-0.0432 -0.1008,-0.0432 -0.0321,0 -0.0602,0.009 -0.0844,0.0269 -0.0317,0.0231 -0.0568,0.057 -0.0751,0.1013 -0.0181,0.0443 -0.0277,0.1075 -0.0284,0.1896 0.0243,-0.0369 0.0538,-0.0643 0.089,-0.0823 0.0349,-0.0177 0.0718,-0.0267 0.1101,-0.0267 0.0673,0 0.1244,0.0246 0.1716,0.074 0.0471,0.0495 0.0708,0.1133 0.0708,0.1916 0,0.0516 -0.0113,0.0994 -0.0334,0.1436 -0.0221,0.0441 -0.0527,0.0781 -0.0915,0.1016 -0.0388,0.0235 -0.0827,0.0352 -0.132,0.0352 -0.084,0 -0.1524,-0.0307 -0.2053,-0.0927 -0.053,-0.0616 -0.0794,-0.1634 -0.0794,-0.3051 0,-0.1586 0.0292,-0.2737 0.0878,-0.3457 0.0511,-0.0626 0.1198,-0.0942 0.2064,-0.0942 0.0644,0 0.1174,0.0182 0.1586,0.0544 0.0413,0.0362 0.0659,0.0862 0.0741,0.15zm-0.4112 0.3535c0,0.0348 0.0075,0.0679 0.0222,0.0997 0.0147,0.0317 0.0353,0.0557 0.0617,0.0724 0.0265,0.0166 0.0544,0.025 0.0834,0.025 0.0426,0 0.0791,-0.0172 0.1096,-0.0516 0.0306,-0.0343 0.0459,-0.0809 0.0459,-0.1398 0,-0.0567 -0.0151,-0.1014 -0.0453,-0.134 -0.0301,-0.0327 -0.0681,-0.0489 -0.114,-0.0489 -0.0456,0 -0.0842,0.0162 -0.116,0.0489 -0.0316,0.0326 -0.0475,0.0754 -0.0475,0.1283zm0.526 -0.1387c0,-0.097 0.0099,-0.1751 0.0299,-0.2341 0.0199,-0.0592 0.0497,-0.1048 0.0891,-0.1369 0.0393,-0.0321 0.0888,-0.0482 0.1484,-0.0482 0.0441,0 0.0826,0.009 0.1159,0.0268 0.0332,0.0176 0.0605,0.0431 0.0823,0.0766 0.0216,0.0334 0.0386,0.0741 0.0508,0.122 0.0124,0.048 0.0185,0.1125 0.0185,0.1938 0,0.0963 -0.0099,0.1738 -0.0296,0.233 -0.0198,0.0592 -0.0495,0.1049 -0.0888,0.1372 -0.0393,0.0323 -0.089,0.0483 -0.1491,0.0483 -0.0791,0 -0.1412,-0.0283 -0.1862,-0.085 -0.0541,-0.0682 -0.0812,-0.1795 -0.0812,-0.3335zm0.1035 0c0,0.1347 0.0158,0.2242 0.0474,0.2689 0.0314,0.0445 0.0702,0.0669 0.1165,0.0669 0.0464,0 0.0851,-0.0226 0.1166,-0.0672 0.0316,-0.0447 0.0475,-0.1343 0.0475,-0.2686 0,-0.135 -0.0159,-0.2247 -0.0475,-0.269 -0.0315,-0.0445 -0.0706,-0.0667 -0.1176,-0.0667 -0.0464,0 -0.0832,0.0197 -0.111,0.0588 -0.0345,0.0498 -0.0519,0.1423 -0.0519,0.2769zm0.5338 0c0,-0.097 0.0099,-0.1751 0.0299,-0.2341 0.0199,-0.0592 0.0497,-0.1048 0.0891,-0.1369 0.0393,-0.0321 0.0888,-0.0482 0.1484,-0.0482 0.0441,0 0.0827,0.009 0.1159,0.0268 0.0332,0.0176 0.0605,0.0431 0.0823,0.0766 0.0216,0.0334 0.0386,0.0741 0.0508,0.122 0.0124,0.048 0.0185,0.1125 0.0185,0.1938 0,0.0963 -0.0099,0.1738 -0.0296,0.233 -0.0198,0.0592 -0.0495,0.1049 -0.0888,0.1372 -0.0393,0.0323 -0.089,0.0483 -0.1491,0.0483 -0.0791,0 -0.1412,-0.0283 -0.1862,-0.085 -0.0541,-0.0682 -0.0812,-0.1795 -0.0812,-0.3335zm0.1035 0c0,0.1347 0.0158,0.2242 0.0474,0.2689 0.0314,0.0445 0.0702,0.0669 0.1165,0.0669 0.0464,0 0.0851,-0.0226 0.1166,-0.0672 0.0316,-0.0447 0.0475,-0.1343 0.0475,-0.2686 0,-0.135 -0.0159,-0.2247 -0.0475,-0.269 -0.0315,-0.0445 -0.0706,-0.0667 -0.1176,-0.0667 -0.0464,0 -0.0832,0.0197 -0.111,0.0588 -0.0345,0.0498 -0.0519,0.1423 -0.0519,0.2769z"/>
  <path class="fil11 str4" d="M17.3279 24.3161c0.7705,0 1.395,0.6245 1.395,1.395 0,0.7705 -0.6245,1.395 -1.395,1.395 -0.7705,0 -1.395,-0.6245 -1.395,-1.395 0,-0.7705 0.6245,-1.395 1.395,-1.395z"/>
  <path class="fil11 str4" d="M21.7044 26.2855c0.7705,0 1.395,0.6245 1.395,1.395 0,0.7705 -0.6245,1.395 -1.395,1.395 -0.7704,0 -1.395,-0.6245 -1.395,-1.395 0,-0.7705 0.6246,-1.395 1.395,-1.395z"/>
  <path class="fil11 str4" d="M28.2505 20.049c0.7704,0 1.395,0.6245 1.395,1.395 0,0.7705 -0.6246,1.395 -1.395,1.395 -0.7705,0 -1.395,-0.6245 -1.395,-1.395 0,-0.7705 0.6245,-1.395 1.395,-1.395z"/>
  <path class="fil11 str4" d="M34.3229 20.9242c0.7705,0 1.395,0.6246 1.395,1.395 0,0.7705 -0.6245,1.395 -1.395,1.395 -0.7705,0 -1.395,-0.6245 -1.395,-1.395 0,-0.7704 0.6245,-1.395 1.395,-1.395z"/>
  <path class="fil12" d="M32.2889 5.1328l-14.6263 -0.0153c-0.0039,0.068 -0.0075,0.1487 -0.0103,0.2455 -0.0042,0.149 -0.0071,0.3505 -0.0071,0.6259l0 0.0001c0,0.2323 0.1105,0.4445 0.2884,0.599 0.1824,0.1582 0.4355,0.2566 0.7147,0.2566l12.6531 0c0.2792,0 0.5322,-0.0984 0.7146,-0.2566 0.178,-0.1545 0.2885,-0.3667 0.2885,-0.599l0 -0.0001c0,-0.278 -0.0004,-0.448 -0.003,-0.567 -0.0022,-0.0994 -0.0061,-0.1856 -0.0126,-0.2891zm-14.7321 -0.2411l14.8379 0.0154 0.1054 0.0002 0.0074 0.1052c0.0106,0.1515 0.0165,0.2618 0.0197,0.405 0.0035,0.1551 0.0039,0.3164 0.0039,0.5714l0 0.0001c0,0.3005 -0.1408,0.5731 -0.3673,0.7698 -0.2221,0.1927 -0.5275,0.3124 -0.8624,0.3124l-12.6531 0c-0.3349,0 -0.6403,-0.1197 -0.8624,-0.3124 -0.2266,-0.1967 -0.3674,-0.4693 -0.3674,-0.7698l0 -0.0001c0,-0.2574 0.0032,-0.4642 0.0081,-0.632 0.0047,-0.1648 0.011,-0.2785 0.0173,-0.3608l0.0081 -0.1045 0.1048 0.0001z"/>
  <rect class="fil13" x="4.42812" y="35.095" width="41.2268" height="0.548101"/>
  <rect class="fil14" x="4.42812" y="34.4233" width="41.2268" height="0.166533"/>
  <rect class="fil15" x="23.724" y="35.8231" width="2.57805" height="0.479656"/>
  <polygon class="fil15" points="27.4065,35.8132 30.1495,35.8132 30.387,36.288 27.6259,36.2928 "/>
  <polygon class="fil15" points="22.7916,35.8132 19.9884,35.8132 19.7509,36.288 22.5722,36.2928 "/>
  <rect class="fil16" x="17.6326" y="5.03866" width="14.683" height="0.328715"/>
  <polygon class="fil17" points="20.2378,36.2617 19.9988,36.2617 15.6211,45.2192 15.897,45.1825 "/>
  <polygon class="fil18" points="29.9328,36.2617 30.1718,36.2617 34.5495,45.2192 34.2736,45.1825 "/>
 </g>
</svg>
