<?xml version="1.0" encoding="UTF-8"?>
<!DOCTYPE svg PUBLIC "-//W3C//DTD SVG 1.1//EN" "http://www.w3.org/Graphics/SVG/1.1/DTD/svg11.dtd">
<!-- Creator: CorelDRAW -->
<svg xmlns="http://www.w3.org/2000/svg" xml:space="preserve" width="10mm" height="10mm" style="shape-rendering:geometricPrecision; text-rendering:geometricPrecision; image-rendering:optimizeQuality; fill-rule:evenodd; clip-rule:evenodd"
viewBox="0 0 10 10"
 xmlns:xlink="http://www.w3.org/1999/xlink">
 <defs>
  <style type="text/css">
   <![CDATA[
    .fil2 {fill:white;fill-rule:nonzero}
    .fil0 {fill:url(#id0)}
    .fil4 {fill:url(#id1)}
    .fil1 {fill:url(#id2);fill-rule:nonzero}
    .fil3 {fill:url(#id3);fill-rule:nonzero}
   ]]>
  </style>
  <linearGradient id="id0" gradientUnits="userSpaceOnUse" x1="0.804" y1="0.3152" x2="9.208" y2="8.7192">
   <stop offset="0" style="stop-color:#FFC33F"/>
   <stop offset="0.411765" style="stop-color:#FFC13D"/>
   <stop offset="0.611765" style="stop-color:#FF920C"/>
   <stop offset="1" style="stop-color:#FB890F"/>
  </linearGradient>
  <radialGradient id="id1" gradientUnits="userSpaceOnUse" cx="5.0643" cy="9.5457" r="23.9007" fx="5.0643" fy="9.5457">
   <stop offset="0" style="stop-color:#CCCCCC"/>
   <stop offset="0.431373" style="stop-color:#DADBDB"/>
   <stop offset="1" style="stop-color:#E8E9EA"/>
  </radialGradient>
  <linearGradient id="id2" gradientUnits="userSpaceOnUse" x1="8.7507" y1="9.1074" x2="1.2613" y2="-0.073">
   <stop offset="0" style="stop-color:#E37514"/>
   <stop offset="1" style="stop-color:#FBCD6F"/>
  </linearGradient>
  <linearGradient id="id3" gradientUnits="userSpaceOnUse" x1="8.4522" y1="8.7416" x2="1.5598" y2="0.2929">
   <stop offset="0" style="stop-color:#FD991C"/>
   <stop offset="0.678431" style="stop-color:#FEC476"/>
   <stop offset="1" style="stop-color:#FFF0D1"/>
  </linearGradient>
 </defs>
 <g id="Слой_x0020_1">
  <metadata id="CorelCorpID_0Corel-Layer"/>
  <path class="fil0" d="M5.006 0.3066c0.7058,0.1698 0.611,0.5258 1.1209,0.7128 0.5795,0.1591 0.7285,-0.3105 1.354,0.0914 0.4712,0.5522 0.1853,0.7844 0.4879,1.2355 0.3752,0.4693 0.7718,0.177 1.0417,0.8698 0.0566,0.7237 -0.3112,0.7435 -0.3315,1.2864 0.0277,0.6002 0.5204,0.5967 0.3315,1.3159 -0.3795,0.6187 -0.6887,0.4186 -1.0243,0.8458 -0.3303,0.5019 0.0702,0.7888 -0.5053,1.2595 -0.6707,0.2775 -0.8033,-0.0662 -1.3259,0.0822 -0.5622,0.2119 -0.4068,0.6794 -1.149,0.7219 -0.7058,-0.1697 -0.611,-0.5257 -1.121,-0.7127 -0.5795,-0.1591 -0.7284,0.3105 -1.354,-0.0914 -0.4712,-0.5522 -0.1852,-0.7844 -0.4879,-1.2355 -0.3752,-0.4694 -0.7718,-0.177 -1.0416,-0.8698 -0.0567,-0.7237 0.3111,-0.7436 0.3315,-1.2864 -0.0277,-0.6002 -0.5204,-0.5968 -0.3315,-1.3159 0.3795,-0.6187 0.6887,-0.4187 1.0242,-0.8459 0.3304,-0.5019 -0.0702,-0.7887 0.5053,-1.2594 0.6708,-0.2776 0.8033,0.0661 1.3259,-0.0822 0.5623,-0.2119 0.4068,-0.6794 1.1491,-0.722z"/>
  <path class="fil1" d="M5.0348 0.1855c0.4323,0.104 0.5894,0.2718 0.7421,0.435 0.0988,0.1055 0.1958,0.2091 0.3918,0.2813 0.2095,0.0552 0.3596,0.0136 0.5025,-0.0258 0.2438,-0.0673 0.4721,-0.1304 0.8771,0.1298l0.0153 0.0099 0.012 0.014c0.2888,0.3386 0.3175,0.5667 0.3451,0.7884 0.0178,0.1436 0.0356,0.2845 0.1496,0.4559 0.1371,0.169 0.2835,0.2239 0.4229,0.2762 0.2368,0.0888 0.4586,0.1719 0.6335,0.621l0.0069 0.0178 0.0014 0.0178c0.0346,0.4427 -0.0763,0.6439 -0.1842,0.8394 -0.0699,0.1266 -0.1384,0.2507 -0.1471,0.4554 0.0111,0.2187 0.0977,0.3495 0.1799,0.474 0.1394,0.211 0.2698,0.4084 0.1475,0.8745l-0.0046 0.0176 -0.0096 0.0156c-0.2324,0.3789 -0.4407,0.4766 -0.6431,0.5714 -0.1308,0.0613 -0.2593,0.1216 -0.388,0.2847 -0.1178,0.1825 -0.1248,0.3382 -0.1314,0.4866 -0.0111,0.2529 -0.0218,0.4897 -0.3944,0.7944l-0.0133 0.0109 -0.0184 0.0076c-0.4109,0.17 -0.6363,0.1267 -0.8554,0.0845 -0.1419,-0.0273 -0.281,-0.054 -0.4795,0.0013 -0.2038,0.0783 -0.3013,0.2006 -0.3941,0.3171 -0.1576,0.1979 -0.3052,0.3829 -0.7865,0.4105l-0.0173 0.001 -0.0183 -0.0044c-0.432,-0.1039 -0.5893,-0.2716 -0.7419,-0.4347l-0.0002 0.0002c-0.0992,-0.1059 -0.1964,-0.2097 -0.392,-0.2817 -0.2095,-0.0551 -0.3595,-0.0136 -0.5024,0.0258 -0.2438,0.0673 -0.4721,0.1304 -0.8771,-0.1298l-0.0152 -0.0098 -0.0121 -0.0141c-0.289,-0.3387 -0.3175,-0.5667 -0.345,-0.7883 -0.0179,-0.1437 -0.0356,-0.2845 -0.1497,-0.456 -0.1372,-0.1691 -0.2835,-0.224 -0.4229,-0.2762 -0.2368,-0.0888 -0.4585,-0.172 -0.6334,-0.621l-0.0068 -0.0177 -0.0015 -0.0179c-0.0346,-0.4427 0.0763,-0.644 0.1842,-0.8395 0.0699,-0.1266 0.1383,-0.2507 0.1471,-0.4553 -0.0111,-0.2186 -0.0977,-0.3495 -0.1799,-0.4741 -0.1394,-0.211 -0.2698,-0.4085 -0.1475,-0.8744l0.0047 -0.0175 0.0095 -0.0157c0.2324,-0.3789 0.4406,-0.4766 0.6431,-0.5715 0.1308,-0.0613 0.2591,-0.1215 0.3879,-0.2847 0.1178,-0.1825 0.1249,-0.3382 0.1314,-0.4866 0.0112,-0.253 0.0219,-0.4896 0.3944,-0.7943l0.0134 -0.0108 0.0183 -0.0077c0.411,-0.1701 0.6364,-0.1267 0.8555,-0.0845 0.1418,0.0272 0.2809,0.054 0.4794,-0.0013 0.2039,-0.0784 0.3014,-0.2006 0.3942,-0.3171 0.1576,-0.1979 0.3052,-0.383 0.7865,-0.4106l0.0174 -0.0009 0.0182 0.0043zm0.5605 0.605c-0.1253,-0.1339 -0.2541,-0.2715 -0.5998,-0.3583 -0.3554,0.0245 -0.4677,0.1654 -0.5874,0.3157 -0.1146,0.1437 -0.2349,0.2947 -0.5073,0.3974l-0.0102 0.0034c-0.2577,0.0731 -0.4262,0.0406 -0.5983,0.0076 -0.1801,-0.0347 -0.3654,-0.0704 -0.6953,0.0621 -0.2738,0.2293 -0.2819,0.4089 -0.2905,0.6008 -0.0081,0.1836 -0.0168,0.3763 -0.1768,0.6194l-0.0059 0.0087c-0.1651,0.2102 -0.3212,0.2835 -0.4802,0.358 -0.166,0.0778 -0.3367,0.1579 -0.526,0.46 -0.0862,0.3454 0.013,0.4957 0.1188,0.6559 0.1013,0.1534 0.2078,0.3145 0.2211,0.6054l0 0.0098c-0.0101,0.2687 -0.0929,0.4189 -0.1775,0.572 -0.0887,0.1608 -0.1799,0.3261 -0.1554,0.6826 0.1331,0.3293 0.3015,0.3926 0.4811,0.4599 0.1721,0.0644 0.3529,0.1323 0.5346,0.3597l0.0063 0.0083c0.1497,0.2232 0.171,0.3935 0.1927,0.5674 0.0226,0.182 0.046,0.369 0.2744,0.6421 0.3021,0.1889 0.4756,0.1409 0.6606,0.0899 0.177,-0.0489 0.363,-0.1002 0.6434,-0.0233l0.0103 0.0029c0.2513,0.0921 0.3688,0.2177 0.4887,0.3457l0 0.0004c0.1253,0.134 0.2542,0.2715 0.5998,0.3582 0.3554,-0.0245 0.4677,-0.1653 0.5874,-0.3156 0.1145,-0.1438 0.2349,-0.2948 0.5072,-0.3974l0.0102 -0.0034c0.2576,-0.0731 0.4263,-0.0408 0.5984,-0.0076 0.1801,0.0347 0.3653,0.0703 0.6952,-0.0621 0.2739,-0.2294 0.282,-0.409 0.2905,-0.6009 0.0082,-0.1836 0.0169,-0.3764 0.1768,-0.6194l0.0059 -0.0087c0.1651,-0.2102 0.3212,-0.2834 0.4803,-0.358 0.1659,-0.0777 0.3367,-0.1578 0.526,-0.4599 0.0862,-0.3455 -0.013,-0.4958 -0.1188,-0.656 -0.1013,-0.1533 -0.2077,-0.3143 -0.2211,-0.6053l0 -0.0098c0.01,-0.2687 0.0929,-0.4189 0.1775,-0.5721 0.0886,-0.1607 0.18,-0.326 0.1554,-0.6826 -0.1331,-0.3294 -0.3016,-0.3925 -0.4812,-0.4598 -0.172,-0.0645 -0.3528,-0.1323 -0.5346,-0.3597l-0.0063 -0.0083c-0.1496,-0.223 -0.171,-0.3935 -0.1926,-0.5673 -0.0227,-0.182 -0.0462,-0.3692 -0.2745,-0.6422 -0.3021,-0.1889 -0.4756,-0.1409 -0.6606,-0.0899 -0.177,0.0489 -0.363,0.1002 -0.6434,0.0233l-0.0103 -0.0029c-0.2506,-0.0919 -0.3685,-0.2178 -0.4886,-0.3461z"/>
  <path class="fil2" d="M3.6041 5.5734l-0.456 0 0 -0.8799c0,-0.1861 -0.01,-0.3064 -0.0294,-0.3612 -0.0193,-0.0543 -0.0515,-0.097 -0.0953,-0.1274 -0.0437,-0.03 -0.0964,-0.0455 -0.1579,-0.0455 -0.0792,0 -0.1501,0.0216 -0.2127,0.0648 -0.0626,0.0438 -0.1058,0.1009 -0.1291,0.1724 -0.0233,0.0714 -0.0349,0.2033 -0.0349,0.3961l0 0.7807 -0.456 0 0 -1.7237 0.4233 0 0 0.2532c0.1507,-0.195 0.3402,-0.2925 0.5685,-0.2925 0.1002,0 0.1928,0.0182 0.2759,0.0543 0.0831,0.0365 0.1463,0.0825 0.1889,0.139 0.0427,0.0565 0.0726,0.1203 0.0892,0.1917 0.0172,0.0715 0.0255,0.1735 0.0255,0.3064l0 1.0716zm1.4606 -0.5485l0.4549 0.0759c-0.0588,0.1668 -0.1507,0.2936 -0.2771,0.3806 -0.1257,0.0876 -0.2836,0.1308 -0.4731,0.1308 -0.2998,0 -0.5214,-0.0975 -0.6655,-0.2937 -0.1136,-0.1568 -0.1706,-0.3551 -0.1706,-0.5939 0,-0.2859 0.0748,-0.5098 0.2244,-0.6716 0.149,-0.1617 0.338,-0.2426 0.5662,-0.2426 0.2566,0 0.4588,0.0847 0.6073,0.2543 0.1479,0.1695 0.2188,0.4288 0.2127,0.7784l-1.143 0c0.0033,0.1352 0.0399,0.2405 0.1103,0.3153 0.0703,0.0754 0.1584,0.113 0.2631,0.113 0.0715,0 0.1314,-0.0194 0.1801,-0.0581 0.0488,-0.0394 0.0859,-0.102 0.1103,-0.1884zm0.026 -0.461c-0.0033,-0.1324 -0.0371,-0.2327 -0.1019,-0.3014 -0.0649,-0.0687 -0.1441,-0.1031 -0.2372,-0.1031 -0.0997,0 -0.1817,0.0366 -0.2465,0.1092 -0.0649,0.072 -0.097,0.1706 -0.0959,0.2953l0.6815 0zm1.1464 1.0095l-0.5458 -1.7237 0.4433 0 0.323 1.1297 0.297 -1.1297 0.4399 0 0.2875 1.1297 0.3297 -1.1297 0.4494 0 -0.5535 1.7237 -0.4383 0 -0.297 -1.1087 -0.292 1.1087 -0.4432 0z"/>
  <path class="fil3" d="M5.0325 0.5308c0.3978,0.0957 0.5424,0.2501 0.683,0.4003 0.0909,0.0971 0.1802,0.1924 0.3605,0.2589 0.1928,0.0508 0.331,0.0125 0.4625,-0.0238 0.2243,-0.0619 0.4345,-0.12 0.8072,0.1195l0.0141 0.0091 0.011 0.0129c0.2658,0.3116 0.2922,0.5215 0.3176,0.7255 0.0164,0.1322 0.0328,0.2619 0.1377,0.4196 0.1261,0.1555 0.2609,0.2061 0.3892,0.2542 0.2179,0.0817 0.422,0.1582 0.583,0.5715l0.0063 0.0164 0.0013 0.0164c0.0318,0.4074 -0.0702,0.5925 -0.1695,0.7724 -0.0643,0.1166 -0.1274,0.2308 -0.1354,0.4192 0.0102,0.2012 0.0899,0.3216 0.1656,0.4362 0.1283,0.1942 0.2483,0.3758 0.1357,0.8048l-0.0042 0.0162 -0.0089 0.0143c-0.2138,0.3487 -0.4055,0.4386 -0.5918,0.5259 -0.1204,0.0564 -0.2386,0.1119 -0.3571,0.262 -0.1084,0.1679 -0.1148,0.3112 -0.1209,0.4478 -0.0102,0.2328 -0.0201,0.4507 -0.363,0.7311l-0.0122 0.01 -0.0169 0.007c-0.3782,0.1565 -0.5856,0.1166 -0.7873,0.0778 -0.1305,-0.0251 -0.2586,-0.0497 -0.4412,0.0012 -0.1876,0.072 -0.2773,0.1846 -0.3627,0.2918 -0.1451,0.1821 -0.2809,0.3524 -0.7238,0.3778l-0.016 0.0009 -0.0168 -0.004c-0.3976,-0.0957 -0.5423,-0.25 -0.6828,-0.4001l-0.0002 0.0002c-0.0913,-0.0975 -0.1807,-0.193 -0.3607,-0.2593 -0.1928,-0.0507 -0.3309,-0.0125 -0.4624,0.0238 -0.2243,0.0619 -0.4344,0.12 -0.8072,-0.1195l-0.014 -0.009 -0.0111 -0.013c-0.266,-0.3117 -0.2922,-0.5215 -0.3175,-0.7254 -0.0165,-0.1323 -0.0328,-0.2619 -0.1378,-0.4197 -0.1262,-0.1556 -0.2609,-0.2061 -0.3892,-0.2542 -0.2179,-0.0817 -0.4219,-0.1583 -0.5829,-0.5715l-0.0062 -0.0163 -0.0014 -0.0164c-0.0318,-0.4075 0.0702,-0.5927 0.1695,-0.7726 0.0643,-0.1165 0.1273,-0.2308 0.1354,-0.419 -0.0102,-0.2012 -0.0899,-0.3217 -0.1656,-0.4364 -0.1283,-0.1941 -0.2483,-0.3759 -0.1357,-0.8047l0.0043 -0.0161 0.0088 -0.0144c0.2138,-0.3487 0.4054,-0.4386 0.5918,-0.526 0.1204,-0.0564 0.2384,-0.1118 0.357,-0.262 0.1084,-0.1679 0.1149,-0.3112 0.1209,-0.4478 0.0103,-0.2328 0.0202,-0.4506 0.363,-0.731l0.0123 -0.0099 0.0168 -0.0071c0.3783,-0.1566 0.5857,-0.1166 0.7874,-0.0778 0.1305,0.0251 0.2585,0.0497 0.4411,-0.0012 0.1877,-0.0721 0.2774,-0.1846 0.3628,-0.2918 0.1451,-0.1821 0.2809,-0.3525 0.7238,-0.3779l0.0161 -0.0008 0.0167 0.004zm0.5158 0.5567c-0.1153,-0.1232 -0.2338,-0.2498 -0.552,-0.3297 -0.327,0.0225 -0.4304,0.1522 -0.5405,0.2905 -0.1055,0.1323 -0.2162,0.2712 -0.4669,0.3658l-0.0094 0.0031c-0.2372,0.0673 -0.3922,0.0374 -0.5506,0.007 -0.1658,-0.032 -0.3363,-0.0648 -0.6399,0.0571 -0.252,0.2111 -0.2594,0.3763 -0.2673,0.5529 -0.0075,0.169 -0.0155,0.3464 -0.1628,0.5701l-0.0054 0.008c-0.1519,0.1934 -0.2956,0.2609 -0.4419,0.3295 -0.1528,0.0716 -0.3099,0.1453 -0.4841,0.4233 -0.0793,0.3179 0.012,0.4562 0.1093,0.6036 0.0933,0.1412 0.1913,0.2894 0.2035,0.5572l0 0.009c-0.0093,0.2473 -0.0855,0.3855 -0.1633,0.5264 -0.0817,0.148 -0.1656,0.3001 -0.143,0.6282 0.1225,0.303 0.2774,0.3613 0.4427,0.4232 0.1584,0.0593 0.3248,0.1218 0.492,0.3311l0.0058 0.0076c0.1378,0.2054 0.1574,0.3621 0.1773,0.5222 0.0208,0.1675 0.0424,0.3396 0.2526,0.5909 0.278,0.1738 0.4377,0.1297 0.6079,0.0827 0.1629,-0.045 0.3341,-0.0922 0.5921,-0.0214l0.0095 0.0027c0.2313,0.0847 0.3394,0.2003 0.4498,0.3181l0 0.0004c0.1153,0.1233 0.2339,0.2498 0.552,0.3296 0.327,-0.0225 0.4304,-0.1521 0.5405,-0.2904 0.1054,-0.1324 0.2162,-0.2713 0.4668,-0.3658l0.0094 -0.0031c0.2371,-0.0673 0.3923,-0.0375 0.5507,-0.007 0.1658,0.032 0.3362,0.0647 0.6398,-0.0571 0.2521,-0.2111 0.2595,-0.3764 0.2673,-0.553 0.0076,-0.169 0.0156,-0.3464 0.1628,-0.5701l0.0054 -0.008c0.1519,-0.1934 0.2956,-0.2608 0.442,-0.3294 0.1527,-0.0715 0.3099,-0.1453 0.4841,-0.4233 0.0793,-0.3179 -0.012,-0.4563 -0.1093,-0.6037 -0.0933,-0.1411 -0.1912,-0.2892 -0.2035,-0.5571l0 -0.009c0.0092,-0.2473 0.0855,-0.3855 0.1633,-0.5265 0.0816,-0.1479 0.1657,-0.3 0.143,-0.6282 -0.1225,-0.3031 -0.2775,-0.3612 -0.4428,-0.4231 -0.1583,-0.0594 -0.3247,-0.1218 -0.492,-0.331l-0.0058 -0.0077c-0.1377,-0.2052 -0.1574,-0.3621 -0.1772,-0.5221 -0.0209,-0.1675 -0.0426,-0.3397 -0.2527,-0.591 -0.278,-0.1738 -0.4377,-0.1297 -0.6079,-0.0827 -0.1629,0.045 -0.3341,0.0922 -0.5921,0.0214l-0.0095 -0.0026c-0.2306,-0.0846 -0.3391,-0.2005 -0.4497,-0.3186z"/>
  <ellipse class="fil4" cx="5.0643" cy="9.54567" rx="3.691" ry="0.342568"/>
 </g>
</svg>
