<svg width="135" height="135" viewBox="0 0 135 135" fill="none" xmlns="http://www.w3.org/2000/svg">
<path fill-rule="evenodd" clip-rule="evenodd" d="M67 86H84V124.915C84 129.359 80.1747 133 75.5051 133C70.8354 133 67.0102 129.359 67.0102 124.915V86H67Z" fill="#EFEFEF"/>
<path fill-rule="evenodd" clip-rule="evenodd" d="M67.0103 86V124.915C67.0103 129.359 70.8355 133 75.5052 133C80.1748 133 84.0001 129.359 84.0001 124.915V86H67.0103ZM83.0001 87H68.0103V124.915C68.0103 128.761 71.3406 132 75.5052 132C79.6697 132 83.0001 128.761 83.0001 124.915V87Z" fill="#333333"/>
<path d="M53 10.5C68.6232 10.5 81.5 24.7117 81.5 42.1808V79.5H24.5V42.171C24.5 36.3501 24.9912 30.9438 27.407 26.317C32.3545 16.8664 42.5069 10.5 53 10.5Z" fill="#AAAAAA" stroke="#333333"/>
<path fill-rule="evenodd" clip-rule="evenodd" d="M17.6 45H62.4C63.4 45 64.31 45.4302 64.96 46.1243C65.6 46.7989 66 47.7277 66 48.7444V76.2556C66 77.2724 65.6 78.2011 64.96 78.8757C64.31 79.5698 63.4 80 62.4 80H17.6C16.6 80 15.69 79.5698 15.04 78.8757C14.4 78.2011 14 77.2724 14 76.2556V48.7444C14 47.7277 14.4 46.7989 15.04 46.1243C15.69 45.4302 16.6 45 17.6 45Z" fill="white"/>
<path fill-rule="evenodd" clip-rule="evenodd" d="M46 62.5L64.5 78.5C64.5 78.5 63.7788 79 62.7711 79H17.4657C16.4221 79 16.0115 78.9241 15.5 78L34.5 61.5L37.5 59C38.7891 57.9814 40.6291 58.4184 42 59.5L46 62.5Z" fill="#E2E2E2"/>
<path d="M64.5 78.5L44.9195 61.1813L44.7203 61L42.2506 62.9138C40.9162 63.9513 38.805 63.9916 37.5403 63.0246L34.951 61.0201L15.5 78.5" stroke="#333333" stroke-linecap="round"/>
<path fill-rule="evenodd" clip-rule="evenodd" d="M44.6672 63.1583L45.8644 62.2132L64 47.8948L64.5 47.5C64.5 47.5 64.6923 47.2847 64.5 47C64.2074 46.5668 63.3744 46 62.375 46H17.4452C16.4103 46 15.5073 46.6195 15 47.5436L34.6226 63.1058L34.7139 63.1793L37.3519 65.2689C38.6303 66.2875 40.7914 66.235 42.151 65.1534L44.6672 63.1583Z" fill="#BDECFF"/>
<path d="M65 47L45 63.1405L42.151 65.2583C40.7914 66.377 38.2784 66.1531 37 65.0996L34.7139 63.2165L34.6226 63.1405L15 47.0449" stroke="#333333" stroke-linecap="round"/>
<path d="M64.595 46.4661L64.5973 46.4684C65.1521 47.0532 65.5 47.8599 65.5 48.7444V76.2556C65.5 77.1401 65.1521 77.9468 64.5973 78.5316L64.595 78.5339C64.0335 79.1336 63.2531 79.5 62.4 79.5H17.6C16.7469 79.5 15.9665 79.1336 15.405 78.5339L15.4027 78.5316C14.8479 77.9468 14.5 77.1401 14.5 76.2556V48.7444C14.5 47.8599 14.8479 47.0532 15.4027 46.4684L15.4027 46.4684L15.405 46.4661C15.9665 45.8664 16.7469 45.5 17.6 45.5H62.4C63.2531 45.5 64.0335 45.8664 64.595 46.4661Z" stroke="#333333"/>
<path fill-rule="evenodd" clip-rule="evenodd" d="M31.6 17H76.4C77.4 17 78.31 17.4302 78.96 18.1243C79.6 18.7989 80 19.7277 80 20.7444V48.2556C80 49.2724 79.6 50.2011 78.96 50.8757C78.31 51.5698 77.4 52 76.4 52H31.6C30.6 52 29.69 51.5698 29.04 50.8757C28.4 50.2011 28 49.2724 28 48.2556V20.7444C28 19.7277 28.4 18.7989 29.04 18.1243C29.69 17.4302 30.6 17 31.6 17Z" fill="white"/>
<path fill-rule="evenodd" clip-rule="evenodd" d="M60 34.5L78.5 50.5C78.5 50.5 77.7788 51 76.7711 51H31.4657C30.4221 51 30.0115 50.9241 29.5 50L48.5 33.5L51.5 31C52.7891 29.9814 54.6291 30.4184 56 31.5L60 34.5Z" fill="#E2E2E2"/>
<path d="M78.5 50.5L58.9195 33.1813L58.7203 33L56.2506 34.9138C54.9162 35.9513 52.805 35.9916 51.5403 35.0246L48.951 33.0201L29.5 50.5" stroke="#333333" stroke-linecap="round"/>
<path fill-rule="evenodd" clip-rule="evenodd" d="M58.6672 35.1583L59.8644 34.2132L78 19.8948L78.5 19.5C78.5 19.5 78.6923 19.2847 78.5 19C78.2074 18.5668 77.3744 18 76.375 18H31.4452C30.4103 18 29.5073 18.6195 29 19.5436L48.6226 35.1058L48.7139 35.1793L51.3519 37.2689C52.6303 38.2875 54.7914 38.235 56.151 37.1534L58.6672 35.1583Z" fill="#BDECFF"/>
<path d="M79 19L59 35.1405L56.151 37.2583C54.7914 38.377 52.2784 38.1531 51 37.0996L48.7139 35.2165L48.6226 35.1405L29 19.0449" stroke="#333333" stroke-linecap="round"/>
<path d="M78.595 18.4661L78.5973 18.4684C79.1521 19.0532 79.5 19.8599 79.5 20.7444V48.2556C79.5 49.1401 79.1521 49.9468 78.5973 50.5316L78.595 50.5339C78.0335 51.1336 77.2531 51.5 76.4 51.5H31.6C30.7469 51.5 29.9665 51.1336 29.405 50.5339L29.4027 50.5316C28.8479 49.9468 28.5 49.1401 28.5 48.2556V20.7444C28.5 19.8599 28.8479 19.0532 29.4027 18.4684L29.4027 18.4684L29.405 18.4661C29.9665 17.8664 30.7469 17.5 31.6 17.5H76.4C77.2531 17.5 78.0335 17.8664 78.595 18.4661Z" stroke="#333333"/>
<path fill-rule="evenodd" clip-rule="evenodd" d="M42.6 45H87.4C88.4 45 89.31 45.4302 89.96 46.1243C90.6 46.7989 91 47.7277 91 48.7444V76.2556C91 77.2724 90.6 78.2011 89.96 78.8757C89.31 79.5698 88.4 80 87.4 80H42.6C41.6 80 40.69 79.5698 40.04 78.8757C39.4 78.2011 39 77.2724 39 76.2556V48.7444C39 47.7277 39.4 46.7989 40.04 46.1243C40.69 45.4302 41.6 45 42.6 45Z" fill="white"/>
<path fill-rule="evenodd" clip-rule="evenodd" d="M71 62.5L89.5 78.5C89.5 78.5 88.7788 79 87.7711 79H42.4657C41.4221 79 41.0115 78.9241 40.5 78L59.5 61.5L62.5 59C63.7891 57.9814 65.6291 58.4184 67 59.5L71 62.5Z" fill="#E2E2E2"/>
<path d="M89.5 78.5L69.9195 61.1813L69.7203 61L67.2506 62.9138C65.9162 63.9513 63.805 63.9916 62.5403 63.0246L59.951 61.0201L40.5 78.5" stroke="#333333" stroke-linecap="round"/>
<path fill-rule="evenodd" clip-rule="evenodd" d="M69.6672 63.1583L70.8644 62.2132L89 47.8948L89.5 47.5C89.5 47.5 89.6923 47.2847 89.5 47C89.2074 46.5668 88.3744 46 87.375 46H42.4452C41.4103 46 40.5073 46.6195 40 47.5436L59.6226 63.1058L59.7139 63.1793L62.3519 65.2689C63.6303 66.2875 65.7914 66.235 67.151 65.1534L69.6672 63.1583Z" fill="#BDECFF"/>
<path d="M90 47L70 63.1405L67.151 65.2583C65.7914 66.377 63.2784 66.1531 62 65.0996L59.7139 63.2165L59.6226 63.1405L40 47.0449" stroke="#333333" stroke-linecap="round"/>
<path d="M89.595 46.4661L89.5973 46.4684C90.1521 47.0532 90.5 47.8599 90.5 48.7444V76.2556C90.5 77.1401 90.1521 77.9468 89.5973 78.5316L89.595 78.5339C89.0335 79.1336 88.2531 79.5 87.4 79.5H42.6C41.7469 79.5 40.9665 79.1336 40.405 78.5339L40.4027 78.5316C39.8479 77.9468 39.5 77.1401 39.5 76.2556V48.7444C39.5 47.8599 39.8479 47.0532 40.4027 46.4684L40.4027 46.4684L40.405 46.4661C40.9665 45.8664 41.7469 45.5 42.6 45.5H87.4C88.2531 45.5 89.0335 45.8664 89.595 46.4661Z" stroke="#333333"/>
<path fill-rule="evenodd" clip-rule="evenodd" d="M129 41.5959C129 23.9476 116.626 10 100.59 10H52C68.0362 10 81.6335 23.9377 81.6335 41.5959V86H129V41.5959Z" fill="#FEFEFE"/>
<path fill-rule="evenodd" clip-rule="evenodd" d="M81 86H9.12209C7.40644 86 6 84.6507 6 83.0048C6 81.3493 7.40644 80 9.12209 80H80.99V86H81Z" fill="url(#paint0_linear_125_1346)"/>
<path fill-rule="evenodd" clip-rule="evenodd" d="M82 86C82 86.5523 81.5523 87 81 87H9.12209C6.89366 87 5 85.2417 5 83.0048C5 80.7603 6.89154 79 9.12209 79H80.99C81.5423 79 81.99 79.4477 81.99 80V85.8582C81.9966 85.9045 82 85.9519 82 86ZM80.99 86V80H9.12209C7.40644 80 6 81.3493 6 83.0048C6 84.6507 7.40644 86 9.12209 86H80.99Z" fill="#333333"/>
<path fill-rule="evenodd" clip-rule="evenodd" d="M129 42.0959C129 24.4476 116.787 10.5 100.959 10.5H53C68.8279 10.5 81.5329 24.4377 81.5329 42.0959V79.8251V86.5H83.3752H129V42.0959Z" stroke="#333333" stroke-linejoin="round"/>
<path d="M120.5 4.42926C120.5 2.24596 118.656 0.5 116.435 0.5H92.384C90.1712 0.5 88.5 2.2776 88.5 4.42926V8.37195V45.7451C88.5 47.8526 90.4015 49.5 92.5 49.5H94.5C96.5985 49.5 98.5 47.8526 98.5 45.7451V12.5H116.435C118.67 12.5 120.5 10.6702 120.5 8.5V4.42926Z" fill="url(#paint1_linear_125_1346)" stroke="#333333"/>
<defs>
<linearGradient id="paint0_linear_125_1346" x1="16.7269" y1="53.7889" x2="47.1419" y2="88.7091" gradientUnits="userSpaceOnUse">
<stop stop-color="#FFC671"/>
<stop offset="1" stop-color="#FF6F3D"/>
</linearGradient>
<linearGradient id="paint1_linear_125_1346" x1="78.8511" y1="-2.12431" x2="101.495" y2="23.8063" gradientUnits="userSpaceOnUse">
<stop stop-color="#FFC671"/>
<stop offset="1" stop-color="#FF6F3D"/>
</linearGradient>
</defs>
</svg>
