<svg width="135" height="135" viewBox="0 0 135 135" fill="none" xmlns="http://www.w3.org/2000/svg">
<path fill-rule="evenodd" clip-rule="evenodd" d="M36.5 34H92.5C93.75 34 94.8875 34.5408 95.7 35.4134C96.5 36.2615 97 37.4291 97 38.7073V73.2929C97 74.5711 96.5 75.7387 95.7 76.5868C94.8875 77.4594 93.75 78.0002 92.5 78.0002H36.5C35.25 78.0002 34.1125 77.4594 33.3 76.5868C32.5 75.7387 32 74.5711 32 73.2929V38.7073C32 37.4291 32.5 36.2615 33.3 35.4134C34.1125 34.5408 35.25 34 36.5 34Z" fill="white"/>
<path fill-rule="evenodd" clip-rule="evenodd" d="M72.5918 56.1502L96 76.3682C96 76.3682 95.0875 77 93.8124 77H36.4872C35.1667 77 34.6473 76.9041 34 75.7364L58.0408 54.8865L61.8367 51.7275C63.4678 50.4404 65.7959 50.9926 67.5306 52.3593L72.5918 56.1502Z" fill="#E2E2E2"/>
<path fill-rule="evenodd" clip-rule="evenodd" d="M70.4552 54L71.0155 54.5027L71.0209 54.5074L95.8299 76.1312C96.0384 76.313 96.0579 76.6269 95.8735 76.8324C95.6891 77.0378 95.3705 77.0571 95.162 76.8753L70.404 55.2959L67.608 57.431C67.388 57.599 67.0714 57.5595 66.9009 57.3426C66.7304 57.1258 66.7705 56.8138 66.9906 56.6458L70.4552 54ZM54.1729 58.1868C54.3578 58.3919 54.3391 58.7058 54.131 58.8881L33.7331 76.8746C33.525 77.0568 33.5801 76.7051 33.3952 76.5C33.2103 76.2949 32.8553 76.3142 33.0634 76.132L53.4613 58.1455C53.6694 57.9633 53.988 57.9818 54.1729 58.1868Z" fill="#333333"/>
<path fill-rule="evenodd" clip-rule="evenodd" d="M70.045 56.4478L71.54 55.2665L95.1843 37.3685L95.8086 36.875C95.8086 36.875 96.1554 36.3559 95.9153 36C95.55 35.4585 94.4031 35 93.1552 35H36.0533C34.761 35 33.6335 35.7744 33 36.9295L57.5024 56.3822L57.6164 56.4741L60.9105 59.0862C62.5068 60.3594 65.2054 60.2938 66.903 58.9418L70.045 56.4478Z" fill="#BDECFF"/>
<path fill-rule="evenodd" clip-rule="evenodd" d="M96.8899 36.1833C97.0622 36.3949 97.0286 36.7047 96.815 36.8753L76.8786 51.9981C76.665 52.1687 76.3522 52.1354 76.18 51.9238C76.0078 51.7122 76.0413 51.4024 76.2549 51.2318L96.1913 36.109C96.405 35.9384 96.7177 35.9717 96.8899 36.1833ZM33.1142 36.402C33.2892 36.1926 33.6024 36.1634 33.8137 36.3368L55.503 54.1288C55.7144 54.3021 55.7438 54.6124 55.5688 54.8217C55.3938 55.0311 55.0806 55.0603 54.8693 54.8869L33.18 37.0949C32.9686 36.9216 32.9392 36.6113 33.1142 36.402Z" fill="#333333"/>
<path d="M96.3167 35.7569L96.3189 35.7593C97.0455 36.5178 97.5 37.5628 97.5 38.7073V73.2929C97.5 74.4374 97.0455 75.4823 96.3189 76.2409L96.3167 76.2433C95.5806 77.0218 94.5547 77.5002 93.4308 77.5002H36.5692C35.4453 77.5002 34.4194 77.0218 33.6833 76.2433L33.6811 76.2409C32.9545 75.4823 32.5 74.4374 32.5 73.2929V38.7073C32.5 37.5628 32.9545 36.5178 33.6811 35.7593L33.6811 35.7593L33.6833 35.7569C34.4194 34.9784 35.4453 34.5 36.5692 34.5H93.4308C94.5547 34.5 95.5806 34.9784 96.3167 35.7569Z" stroke="#333333"/>
<path fill-rule="evenodd" clip-rule="evenodd" d="M62.2231 55H114.777C115.95 55 117.017 55.5039 117.78 56.317C118.531 57.1073 119 58.1952 119 59.3863V91.6137C119 92.8048 118.531 93.8927 117.78 94.683C117.017 95.4961 115.95 96 114.777 96H62.2231C61.05 96 59.9825 95.4961 59.22 94.683C58.4692 93.8927 58 92.8048 58 91.6137V59.3863C58 58.1952 58.4692 57.1073 59.22 56.317C59.9825 55.5039 61.05 55 62.2231 55Z" fill="white"/>
<path fill-rule="evenodd" clip-rule="evenodd" d="M95.4796 75.754L117 94.4168C117 94.4168 116.161 95 114.989 95H62.2866C61.0726 95 60.5951 94.9114 60 93.8336L82.102 74.5876L85.5918 71.6715C87.0914 70.4834 89.2318 70.9931 90.8265 72.2547L95.4796 75.754Z" fill="#E2E2E2"/>
<path fill-rule="evenodd" clip-rule="evenodd" d="M95.2489 75.1748C95.43 74.9629 95.7457 74.9405 95.954 75.1248L116.81 93.5811C117.019 93.7654 117.071 94.1365 116.889 94.3484C116.708 94.5603 116.363 94.5327 116.154 94.3484L95.2979 75.8921C95.0897 75.7078 95.0677 75.3867 95.2489 75.1748ZM80.5028 75.1676C80.6878 75.376 80.6718 75.6975 80.467 75.8858L59.7318 94.9463C59.527 95.1345 59.5826 94.7839 59.3976 94.5755C59.2125 94.3672 58.8568 94.38 59.0617 94.1917L79.7968 75.1312C80.0017 74.9429 80.3177 74.9592 80.5028 75.1676Z" fill="#333333"/>
<path fill-rule="evenodd" clip-rule="evenodd" d="M94.3 76.5899L95.7245 75.4558L117.303 58.2737L117.898 57.8C117.898 57.8 118.127 57.5417 117.898 57.2C117.55 56.6802 116.559 56 115.37 56H61.9095C60.6781 56 59.6036 56.7435 59 57.8523L59.5 57.8523L82.3482 76.5269L82.4569 76.6151L85.5957 79.1227C87.1168 80.345 89.6883 80.282 91.306 78.9841L94.3 76.5899Z" fill="url(#paint0_linear_125_1212)"/>
<path fill-rule="evenodd" clip-rule="evenodd" d="M59.1131 57.1881C59.2888 56.9697 59.6064 56.9367 59.8224 57.1144L85.361 78.9508C87.0401 80.3324 89.4503 80.3221 91.1179 78.9264L117.174 57.1171C117.389 56.9375 117.707 56.9679 117.884 57.1848C118.062 57.4018 118.032 57.7232 117.817 57.9028L91.7608 79.7121C89.7227 81.418 86.7769 81.4305 84.7246 79.7419L59.186 57.9055C58.97 57.7278 58.9374 57.4066 59.1131 57.1881Z" fill="#333333"/>
<path d="M117.415 56.6591L117.418 56.6614C118.083 57.3619 118.5 58.3277 118.5 59.3863V91.6137C118.5 92.6723 118.083 93.6381 117.418 94.3386L117.415 94.3409C116.741 95.0597 115.803 95.5 114.777 95.5H62.2231C61.1967 95.5 60.2587 95.0597 59.5847 94.3409L59.5825 94.3386C58.917 93.6381 58.5 92.6723 58.5 91.6137V59.3863C58.5 58.3277 58.917 57.3619 59.5825 56.6614L59.5825 56.6614L59.5847 56.6591C60.2587 55.9403 61.1967 55.5 62.2231 55.5H114.777C115.803 55.5 116.741 55.9403 117.415 56.6591Z" stroke="#333333"/>
<path fill-rule="evenodd" clip-rule="evenodd" d="M11.6909 18.723C12.0902 18.3414 12.1045 17.7084 11.723 17.3091C11.3414 16.9098 10.7084 16.8955 10.3091 17.277C9.52646 18.0249 8.74606 18.7731 7.96628 19.5207C5.43024 21.952 2.90068 24.3771 0.320562 26.7663C0.116181 26.9555 0 27.2215 0 27.5C0 27.7786 0.116181 28.0445 0.320562 28.2337C2.88392 30.6074 5.39035 33.0102 7.91177 35.4274C8.70866 36.1913 9.50706 36.9567 10.3092 37.7231C10.7086 38.1046 11.3416 38.0901 11.7231 37.6908C12.1046 37.2914 12.0901 36.6584 11.6908 36.2769C10.8943 35.516 10.0995 34.7541 9.30475 33.9922L9.30468 33.9921L9.30434 33.9918L9.304 33.9914C7.03833 31.8195 4.77306 29.6478 2.46911 27.5C4.79106 25.3354 7.07801 23.1429 9.35844 20.9567L9.35865 20.9565L9.35881 20.9563L9.35888 20.9562C10.1366 20.2106 10.9135 19.4658 11.6909 18.723ZM10 27C9.44771 27 9 27.4477 9 28C9 28.5523 9.44771 29 10 29H30.7342C31.2865 29 31.7342 28.5523 31.7342 28C31.7342 27.4477 31.2865 27 30.7342 27H10ZM36.1646 27C35.6123 27 35.1646 27.4477 35.1646 28C35.1646 28.5523 35.6123 29 36.1646 29H49C49.5523 29 50 28.5523 50 28C50 27.4477 49.5523 27 49 27H36.1646ZM17 21C17 20.4477 17.4477 20 18 20H35C35.5523 20 36 20.4477 36 21C36 21.5523 35.5523 22 35 22H18C17.4477 22 17 21.5523 17 21ZM18 33C17.4477 33 17 33.4477 17 34C17 34.5523 17.4477 35 18 35H27.2571C27.8094 35 28.2571 34.5523 28.2571 34C28.2571 33.4477 27.8094 33 27.2571 33H18Z" fill="#333333"/>
<path fill-rule="evenodd" clip-rule="evenodd" d="M123.277 91.3091C122.895 91.7084 122.91 92.3414 123.309 92.723C124.086 93.4658 124.863 94.2106 125.641 94.9562L125.641 94.9563L125.641 94.9565C127.922 97.1428 130.209 99.3354 132.531 101.5C130.227 103.648 127.961 105.82 125.696 107.992L125.695 107.992L125.695 107.992C124.901 108.754 124.106 109.516 123.309 110.277C122.91 110.658 122.895 111.291 123.277 111.691C123.658 112.09 124.291 112.105 124.691 111.723C125.493 110.957 126.291 110.191 127.088 109.427C129.61 107.01 132.116 104.607 134.679 102.234C134.884 102.044 135 101.779 135 101.5C135 101.221 134.884 100.956 134.679 100.766C132.099 98.3771 129.57 95.952 127.034 93.5207C126.254 92.7731 125.474 92.0249 124.691 91.277C124.292 90.8955 123.659 90.9098 123.277 91.3091ZM126 102C126 101.448 125.552 101 125 101H104.266C103.714 101 103.266 101.448 103.266 102C103.266 102.552 103.714 103 104.266 103H125C125.552 103 126 102.552 126 102ZM99.8354 102C99.8354 101.448 99.3877 101 98.8354 101H86C85.4477 101 85 101.448 85 102C85 102.552 85.4477 103 86 103H98.8354C99.3877 103 99.8354 102.552 99.8354 102ZM117 107C117.552 107 118 107.448 118 108C118 108.552 117.552 109 117 109H107.743C107.191 109 106.743 108.552 106.743 108C106.743 107.448 107.191 107 107.743 107H117ZM101.057 107C101.609 107 102.057 107.448 102.057 108C102.057 108.552 101.609 109 101.057 109H99C98.4477 109 98 108.552 98 108C98 107.448 98.4477 107 99 107H101.057Z" fill="#333333"/>
<defs>
<linearGradient id="paint0_linear_125_1212" x1="59.0001" y1="55.0625" x2="75.3062" y2="96.7141" gradientUnits="userSpaceOnUse">
<stop stop-color="#FF8E3D"/>
<stop offset="1" stop-color="#FF6F3D"/>
</linearGradient>
</defs>
</svg>
