<svg width="135" height="135" viewBox="0 0 135 135" fill="none" xmlns="http://www.w3.org/2000/svg">
<g clip-path="url(#clip0_125_3104)">
<path fill-rule="evenodd" clip-rule="evenodd" d="M53.1025 85.9788L2.21099 47.1914C1.6464 47.9417 1 49.799 1 51.2999V124.645C1 126.808 1.96927 129.121 3.28179 130.504L53.3408 86.1566L53.1025 85.9788Z" fill="#EFEFEF"/>
<path fill-rule="evenodd" clip-rule="evenodd" d="M1.72351 48.0735C1.32959 48.9758 1.00017 50.2289 1.00017 51.3004V124.646C1.00017 126.444 1.67037 128.347 2.65084 129.732C2.77498 129.907 2.9041 130.074 3.03746 130.232C3.11748 130.326 3.19904 130.418 3.28196 130.505L53.3409 86.157L53.1026 85.9793L2.21115 47.1919C2.04962 47.4065 1.88138 47.7118 1.72351 48.0735ZM53.7027 85.1835L2.8195 46.4023C2.60739 46.2406 2.33905 46.1701 2.07434 46.2064C1.80963 46.2428 1.57055 46.383 1.41043 46.5958C1.03046 47.1007 0.686306 47.8745 0.438532 48.6704C0.186144 49.481 0 50.4227 0 51.3004V124.646C0 127.06 1.06541 129.618 2.5546 131.188C2.92603 131.579 3.5431 131.606 3.94719 131.248L54.0062 86.8999C54.2302 86.7014 54.3528 86.4133 54.3402 86.1152C54.3276 85.817 54.181 85.5403 53.941 85.3612L53.711 85.1897L53.7027 85.1835Z" fill="#333333"/>
<path fill-rule="evenodd" clip-rule="evenodd" d="M79.1441 86.1174L130.415 132.046C132.421 130.868 134 127.746 134 124.952V51.4342C134 49.0418 132.811 46.8912 131.872 45.9377L131.704 46.0562C114.172 59.3951 96.6671 72.7679 79.1441 86.1174Z" fill="#EFEFEF"/>
<path fill-rule="evenodd" clip-rule="evenodd" d="M78.1447 86.0783C78.1565 85.7829 78.2999 85.508 78.5359 85.3282C85.6633 79.8983 92.7885 74.464 99.914 69.0295C110.305 61.1046 120.696 53.1792 131.096 45.2665C131.106 45.2588 131.116 45.2513 131.127 45.2439L131.296 45.1254C131.696 44.844 132.244 44.8934 132.587 45.2421C133.688 46.3609 135 48.7544 135 51.4347V124.952C135 126.525 134.559 128.156 133.853 129.552C133.153 130.939 132.143 132.187 130.924 132.903C130.548 133.125 130.071 133.077 129.746 132.786L78.4747 86.8571C78.2538 86.6592 78.1329 86.3738 78.1447 86.0783ZM131.872 45.9381C132.811 46.8916 134 49.0423 134 51.4347V124.952C134 127.747 132.421 130.868 130.415 132.047L79.1441 86.1179C79.4133 85.9128 79.6825 85.7077 79.9517 85.5026C86.8109 80.2766 93.6676 75.0472 100.524 69.8177C110.914 61.8934 121.304 53.9691 131.704 46.0566L131.872 45.9381Z" fill="#333333"/>
<path fill-rule="evenodd" clip-rule="evenodd" d="M131.149 132.756L80.2914 86.6746L77.9487 84.7441L72.9285 89.1379C69.3896 91.8791 63.8274 92.2505 60.4785 89.6705L54.2534 85.3432L2.55142 131.143C3.62491 132.717 6.21712 134 8.28649 134H126.98C128.46 134 129.989 133.572 131.149 132.756Z" fill="#FEFEFE"/>
<path fill-rule="evenodd" clip-rule="evenodd" d="M73.5892 89.8847C73.5742 89.8979 73.5588 89.9106 73.543 89.9228C71.5969 91.4302 69.12 92.2709 66.6826 92.3932C64.2564 92.5149 61.7866 91.9273 59.886 90.4724L54.3284 86.6089L3.95215 131.234C4.36215 131.612 4.89019 131.972 5.49263 132.272C6.42933 132.737 7.44158 133.005 8.28649 133.005H126.98C127.825 133.005 128.676 132.845 129.434 132.548L79.6352 87.4257L77.9683 86.0521L73.5892 89.8847ZM77.9487 84.7441L80.2914 86.6746L131.149 132.756C130.867 132.954 130.563 133.13 130.244 133.281C129.249 133.755 128.1 134 126.98 134H8.28649C6.21712 134 3.62491 132.717 2.55142 131.143L54.2534 85.3432L60.4785 89.6705C63.8274 92.2505 69.3896 91.8791 72.9285 89.1379L77.9487 84.7441Z" fill="#333333"/>
<path fill-rule="evenodd" clip-rule="evenodd" d="M79.154 86.1175L82.2516 83.7575L131.713 46.0662L131.882 45.9477C131.279 45.077 128.547 43.5119 126.403 43.5119L8.43059 43.512C5.75 43.512 3.52165 44.9108 2.22107 47.2116L53.1126 85.9892L53.3509 86.1768L60.1814 91.3807C63.5073 93.9086 69.0968 93.7901 72.6213 91.1042L79.154 86.1175Z" fill="#FEFEFE"/>
<path d="M95.1674 43H89.9433M112.656 43L126.408 43C128.554 43 131.602 44.6599 132.206 45.5306L132.037 45.6491L82.2875 83.7575L79.1885 86.1175L72.6529 91.1042C69.1269 93.7901 63.5346 93.9086 60.2072 91.3807L53.3736 86.1767L53.1353 85.9891L2.18399 46.3831C3.33403 44.9032 5.72677 43.0198 8.40856 43.0198L37.9147 43.0198" stroke="#333333" stroke-linecap="round" stroke-linejoin="round"/>
<path fill-rule="evenodd" clip-rule="evenodd" d="M82.2767 29.2241L72.7498 46.2778C72.2721 47.1791 71.1482 47.527 70.2544 47.0531L44.3908 33.2581C43.4938 32.7797 43.1488 31.6516 43.6221 30.7536L53.1489 13.6999C53.6266 12.7986 54.7506 12.4507 55.6444 12.9246L81.5047 26.7152C82.405 27.198 82.7544 28.3228 82.2767 29.2241ZM89.2231 51.164C86.1189 49.5149 84.9393 45.6517 86.5817 42.5359C88.2285 39.4168 92.0777 38.2271 95.1788 39.8718C98.2798 41.5165 99.4626 45.3841 97.8202 48.4999C96.1948 51.5819 92.2613 52.7687 89.2231 51.164ZM110.73 55.3543C111.652 53.6671 110.176 51.4274 107.809 44.9513C105.993 39.9972 104.22 35.0657 102.427 30.1152L101.881 28.6174C101.626 27.9127 101.411 27.7847 100.242 27.1655L54.3457 2.79642C52.1896 1.64939 49.4885 2.48703 48.3431 4.65345L33.8598 32.117C32.7144 34.2834 33.5449 36.9943 35.701 38.1413L81.5945 62.506C82.7666 63.1296 82.993 63.2357 83.715 63.0533L85.2568 62.6643C87.9206 61.9901 90.578 61.3069 93.2342 60.6315C95.664 60.0137 98.0808 59.3922 100.513 58.7847C107.181 57.1063 109.894 56.8852 110.73 55.3543Z" fill="#BDECFF"/>
<path d="M91.7279 51.8854C90.8756 51.8232 90.0267 51.5884 89.2232 51.164C86.1189 49.5149 84.9393 45.6517 86.5817 42.5359C88.2285 39.4168 92.0777 38.2271 95.1788 39.8718C98.2798 41.5165 99.4626 45.3841 97.8203 48.4999M93.2342 60.6315C90.578 61.3069 87.9206 61.9901 85.2568 62.6643L83.715 63.0533C82.993 63.2357 82.7667 63.1296 81.5945 62.506L35.701 38.1413C33.5449 36.9943 32.7144 34.2834 33.8598 32.117L48.3431 4.65345C49.4885 2.48703 52.1896 1.64939 54.3457 2.79642L100.242 27.1655C101.411 27.7847 101.626 27.9127 101.881 28.6174L102.427 30.1152C104.22 35.0657 105.993 39.9972 107.809 44.9513C110.176 51.4274 111.652 53.6671 110.73 55.3543C109.894 56.8852 107.181 57.1063 100.513 58.7847" stroke="#333333"/>
<path d="M91.0817 51.5159C87.5824 50.8801 85.3421 47.5821 86.0713 44.152C86.8038 40.7175 90.2328 38.4512 93.7232 39.0806C97.2225 39.7163 99.4663 43.01 98.7337 46.4445C98.479 47.6412 97.8992 48.6956 97.1001 49.5338" stroke="#333333" stroke-linecap="round"/>
<path fill-rule="evenodd" clip-rule="evenodd" d="M92.8248 46.5314C93.0835 46.4346 93.3716 46.5659 93.4683 46.8245L100.825 66.4936C100.922 66.7523 100.791 67.0404 100.532 67.1371C100.274 67.2339 99.9854 67.1026 99.8887 66.844L92.5317 47.1748C92.4349 46.9162 92.5662 46.6281 92.8248 46.5314Z" fill="#333333"/>
<path fill-rule="evenodd" clip-rule="evenodd" d="M83.8633 29.4656L79.0896 38.4994L74.3159 47.5332C73.8372 48.4352 72.7087 48.7823 71.8105 48.3066L43.8085 33.4588C42.907 32.9787 42.5592 31.8487 43.0335 30.9499L52.5809 12.8824C53.0596 11.9804 54.1836 11.6365 55.0863 12.1089L83.0883 26.9568C83.9898 27.4368 84.342 28.5636 83.8633 29.4656Z" fill="url(#paint0_linear_125_3104)"/>
<path d="M83.4212 29.232L83.4216 29.2312C83.7693 28.5762 83.5146 27.7505 82.8536 27.3983C82.8535 27.3982 82.8534 27.3981 82.8533 27.3981L54.8545 12.5519C54.8541 12.5517 54.8537 12.5515 54.8533 12.5513C54.1933 12.2067 53.3719 12.4593 53.0229 13.1162C53.0228 13.1164 53.0226 13.1166 53.0225 13.1168L43.4757 31.1833C43.1307 31.8371 43.3838 32.6656 44.0427 33.017L83.4212 29.232ZM83.4212 29.232L78.6475 38.2658L73.8743 47.2988C73.5244 47.9579 72.6981 48.2107 72.0447 47.8649L83.4212 29.232ZM72.0445 47.8648L44.0435 33.0174L72.0445 47.8648Z" stroke="#333333"/>
<path fill-rule="evenodd" clip-rule="evenodd" d="M76.7202 29.8898C76.5959 30.1295 76.2999 30.2185 76.0593 30.0886L55.5767 19.0336C55.336 18.9037 55.2417 18.6041 55.3661 18.3644C55.4904 18.1247 55.7863 18.0357 56.027 18.1656L76.5096 29.2206C76.7502 29.3505 76.8446 29.6501 76.7202 29.8898Z" fill="white"/>
<path fill-rule="evenodd" clip-rule="evenodd" d="M63.0137 36.4139C62.9024 36.6541 62.6145 36.7399 62.3706 36.6056L49.8268 29.6983C49.5829 29.564 49.4754 29.2605 49.5867 29.0203C49.6979 28.7801 49.9858 28.6943 50.2297 28.8286L62.7736 35.7359C63.0175 35.8702 63.125 36.1738 63.0137 36.4139Z" fill="white"/>
<path fill-rule="evenodd" clip-rule="evenodd" d="M74.3026 35.6991C74.1739 35.9474 73.8684 36.0448 73.6201 35.9165L65.4308 31.6856C65.1826 31.5574 65.0857 31.2521 65.2144 31.0038C65.3431 30.7556 65.6486 30.6582 65.8968 30.7865L74.0861 35.0174C74.3344 35.1456 74.4313 35.4508 74.3026 35.6991ZM60.6538 28.6477C60.5251 28.896 60.2195 28.9933 59.9713 28.865L51.782 24.6342C51.5338 24.5059 51.4369 24.2007 51.5656 23.9524C51.6943 23.7041 51.9998 23.6068 52.248 23.735L60.4373 27.9659C60.6855 28.0941 60.7824 28.3994 60.6538 28.6477Z" fill="white"/>
</g>
<defs>
<linearGradient id="paint0_linear_125_3104" x1="76.6919" y1="7.61352" x2="64.4555" y2="34.9581" gradientUnits="userSpaceOnUse">
<stop stop-color="#FFC671"/>
<stop offset="1" stop-color="#FF6F3D"/>
</linearGradient>
<clipPath id="clip0_125_3104">
<rect width="135" height="135" fill="white"/>
</clipPath>
</defs>
</svg>
