<svg width="135" height="135" viewBox="0 0 135 135" fill="none" xmlns="http://www.w3.org/2000/svg">
<path fill-rule="evenodd" clip-rule="evenodd" d="M8.86154 22H119.138C124.096 22 128 26.3687 128 31.2006V98.7995C128 103.631 124.096 108 119.138 108H8.86154C3.90439 108 0 103.631 0 98.7995V31.2006C0 26.3687 3.90439 22 8.86154 22Z" fill="white"/>
<path fill-rule="evenodd" clip-rule="evenodd" d="M78.3163 66.1022L124 105.761C124 105.761 122.219 107 119.731 107H7.85396C5.27702 107 4.26321 106.812 3 104.521L49.9184 63.6236L57.3265 57.4269C60.5098 54.9022 65.0534 55.9854 68.4388 58.6663L78.3163 66.1022Z" fill="#F2F2F2"/>
<path d="M124 105L75.1563 63L69.0577 67.5932C65.7624 70.0832 60.549 70.1799 57.4259 67.8591L51.0321 63.0484L3 105" stroke="#333333" stroke-linecap="round"/>
<path fill-rule="evenodd" clip-rule="evenodd" d="M126.5 27C126.5 27 125.095 23 118.834 23L8.80196 23C4 23 2 27.1058 2 27.1058L60.3887 73.986C62.5819 75.7469 65.7041 75.748 67.8985 73.9884L126.5 27Z" fill="#BDECFF"/>
<path d="M126 27.1573L69.017 72.9642C66.086 75.3203 61.9097 75.317 58.9825 72.9562L2 27" stroke="#333333" stroke-linecap="round"/>
<path d="M8.86154 22.5H119.138C123.791 22.5 127.5 26.6157 127.5 31.2006V98.7994C127.5 103.384 123.791 107.5 119.138 107.5H8.86154C4.20883 107.5 0.5 103.384 0.5 98.7994V31.2006C0.5 26.6157 4.20884 22.5 8.86154 22.5Z" stroke="#333333"/>
<path fill-rule="evenodd" clip-rule="evenodd" d="M121.949 122.989C128.601 122.989 134 117.191 134 110.041C134 102.891 128.601 97.0934 121.949 97.0934C121.023 97.0934 120.131 97.2051 119.261 97.4174C118.945 97.4844 118.651 97.5738 118.335 97.6855C118.335 97.3057 118.359 96.9253 118.335 96.546C117.996 79.1073 89.8959 76.549 86.3269 93.2392C85.3329 92.8989 84.3091 92.703 83.2549 92.703C79.9344 92.703 77.0092 94.4905 75.2585 97.2051C74.2759 96.937 73.2482 96.7918 72.1978 96.7918C65.4664 96.7918 60 102.657 60 109.896C60 117.135 65.4551 123 72.1978 123L121.949 122.989Z" fill="url(#paint0_linear_125_3214)"/>
<path fill-rule="evenodd" clip-rule="evenodd" d="M86.5687 92.2653C86.4786 92.5823 86.3979 92.9069 86.3268 93.2391C86.0332 93.1386 85.7395 93.0492 85.4459 92.971C85.4194 92.9643 85.3929 92.9577 85.3664 92.9512C84.6901 92.7857 83.9829 92.7029 83.2548 92.7029C79.9342 92.7029 77.009 94.4904 75.2583 97.205C74.2757 96.9369 73.2479 96.7917 72.1976 96.7917C65.4661 96.7917 59.9996 102.657 59.9996 109.896C59.9996 117.135 65.4548 123 72.1976 123H121.949V122.989C128.602 122.989 134 117.191 134 110.041C134 102.891 128.602 97.0933 121.949 97.0933C121.051 97.0933 120.184 97.1985 119.339 97.3987C119.313 97.4048 119.287 97.411 119.261 97.4173C119.132 97.4447 119.01 97.4795 118.884 97.5157C118.856 97.5238 118.827 97.532 118.798 97.5402C118.785 97.5439 118.772 97.5476 118.759 97.5513C118.615 97.5924 118.48 97.6342 118.335 97.6854V97.5513C118.335 97.4787 118.338 97.4061 118.341 97.3335C118.344 97.2609 118.346 97.1883 118.346 97.1157V97.0933C118.346 96.9431 118.346 96.785 118.34 96.6323C118.338 96.6033 118.337 96.5744 118.335 96.5459C118.003 79.4543 91.0036 76.6567 86.5687 92.2653ZM85.6098 91.9812C87.9534 83.7328 96.1241 80.3656 103.639 81.0989C111.431 81.8592 119.069 87.0779 119.331 96.375C120.18 96.1902 121.05 96.0933 121.949 96.0933C129.22 96.0933 135 102.407 135 110.041C135 117.321 129.742 123.401 122.949 123.949V124H72.1976C64.8366 124 59 117.619 59 109.896C59 102.172 64.8485 95.7917 72.1976 95.7917C73.0943 95.7917 73.9746 95.889 74.8267 96.0713C76.7741 93.4319 79.811 91.7029 83.2548 91.7029C84.0608 91.7029 84.85 91.7948 85.6098 91.9812Z" fill="#333333"/>
<path fill-rule="evenodd" clip-rule="evenodd" d="M92.7105 109.187C92.3219 108.795 91.6887 108.792 91.2963 109.18C90.9039 109.569 90.9009 110.202 91.2895 110.595C91.8413 111.152 92.3931 111.707 92.9442 112.262C94.7353 114.064 96.5199 115.86 98.2785 117.692C98.4671 117.889 98.7277 118 99 118C99.2723 118 99.5329 117.889 99.7215 117.692C101.469 115.872 103.237 114.093 105.017 112.3C105.581 111.734 106.145 111.166 106.711 110.595C107.099 110.202 107.096 109.569 106.704 109.18C106.311 108.792 105.678 108.795 105.289 109.187C104.729 109.753 104.169 110.317 103.607 110.882L103.607 110.882L103.607 110.882C102.067 112.432 100.526 113.984 99 115.559C97.4618 113.971 95.9053 112.404 94.3546 110.844L94.3544 110.843L94.3536 110.843C93.8048 110.29 93.2568 109.739 92.7105 109.187ZM98 108.876C98 109.428 98.4477 109.876 99 109.876C99.5523 109.876 100 109.428 100 108.876L100 99.9471C100 99.3948 99.5523 98.9471 99 98.9471C98.4477 98.9471 98 99.3948 98 99.9471V108.876ZM98 95.4827C98 96.035 98.4477 96.4827 99 96.4827C99.5523 96.4827 100 96.035 100 95.4827V90.0027C100 89.4504 99.5523 89.0027 99 89.0027C98.4477 89.0027 98 89.4504 98 90.0027V95.4827ZM94 104.797C93.4477 104.797 93 104.349 93 103.797V96.486C93 95.9337 93.4477 95.486 94 95.486C94.5523 95.486 95 95.9337 95 96.486V103.797C95 104.349 94.5523 104.797 94 104.797ZM103 103.797C103 104.349 103.448 104.797 104 104.797C104.552 104.797 105 104.349 105 103.797L105 97.9935C105 97.4412 104.552 96.9935 104 96.9935C103.448 96.9935 103 97.4412 103 97.9935L103 103.797ZM103 93.3508C103 93.9031 103.448 94.3508 104 94.3508C104.552 94.3508 105 93.9031 105 93.3508V91.6098C105 91.0575 104.552 90.6098 104 90.6098C103.448 90.6098 103 91.0575 103 91.6098V93.3508Z" fill="white"/>
<defs>
<linearGradient id="paint0_linear_125_3214" x1="79.2449" y1="82.9009" x2="101.356" y2="117.396" gradientUnits="userSpaceOnUse">
<stop stop-color="#FFC671"/>
<stop offset="1" stop-color="#FF6F3D"/>
</linearGradient>
</defs>
</svg>
