<svg width="170" height="56" viewBox="0 0 170 56" fill="none" xmlns="http://www.w3.org/2000/svg">
<path d="M66.8456 23.1606H61.146L59.7772 27.2023H57.363L62.7617 12.2493H65.27L70.6686 27.2022H68.2132L66.8456 23.1606ZM61.7362 21.2956H66.2542L64.027 14.7363H63.9647L61.7362 21.2956Z" fill="white"/>
<path d="M82.3278 21.7519C82.3278 25.1397 80.5145 27.3163 77.7781 27.3163C77.085 27.3526 76.3956 27.1929 75.789 26.8556C75.1823 26.5182 74.6829 26.0169 74.348 25.409H74.2962V30.8088H72.0585V16.3003H74.2245V18.1136H74.2657C74.616 17.5086 75.1239 17.0099 75.7351 16.6705C76.3464 16.3311 77.0382 16.1638 77.737 16.1863C80.5039 16.1863 82.3278 18.3735 82.3278 21.7519ZM80.0277 21.7519C80.0277 19.5446 78.887 18.0936 77.1467 18.0936C75.4369 18.0936 74.2869 19.5753 74.2869 21.7519C74.2869 23.9485 75.4369 25.4195 77.1467 25.4195C78.8871 25.4195 80.0277 23.979 80.0277 21.7519H80.0277Z" fill="white"/>
<path d="M94.3274 21.7519C94.3274 25.1397 92.5135 27.3163 89.7771 27.3163C89.084 27.3526 88.3946 27.1929 87.788 26.8556C87.1813 26.5182 86.682 26.0169 86.347 25.409H86.2953V30.8088H84.0575V16.3003H86.2235V18.1136H86.2647C86.6151 17.5086 87.1229 17.0099 87.7341 16.6705C88.3454 16.3311 89.0372 16.1638 89.736 16.1863C92.5029 16.1863 94.3274 18.3735 94.3274 21.7519ZM92.0267 21.7519C92.0267 19.5446 90.886 18.0936 89.1457 18.0936C87.4359 18.0936 86.2858 19.5753 86.2858 21.7519C86.2858 23.9485 87.4359 25.4195 89.1457 25.4195C90.886 25.4195 92.0267 23.979 92.0267 21.7519H92.0267Z" fill="white"/>
<path d="M102.257 23.036C102.422 24.5188 103.863 25.4925 105.831 25.4925C107.718 25.4925 109.075 24.5188 109.075 23.1818C109.075 22.0212 108.256 21.3263 106.318 20.8499L104.38 20.3831C101.635 19.7199 100.36 18.4358 100.36 16.3521C100.36 13.772 102.608 12 105.8 12C108.961 12 111.127 13.7721 111.199 16.3521H108.941C108.805 14.8598 107.572 13.9591 105.769 13.9591C103.966 13.9591 102.733 14.8705 102.733 16.1969C102.733 17.2541 103.521 17.8761 105.448 18.3524L107.096 18.7569C110.164 19.4824 111.437 20.7148 111.437 22.902C111.437 25.6995 109.21 27.4516 105.666 27.4516C102.35 27.4516 100.111 25.7406 99.9659 23.036L102.257 23.036Z" fill="white"/>
<path d="M116.269 13.7206V16.3006H118.342V18.0727H116.269V24.0828C116.269 25.0165 116.684 25.4516 117.595 25.4516C117.841 25.4473 118.087 25.43 118.331 25.3998V27.1614C117.922 27.2379 117.505 27.2726 117.088 27.2648C114.881 27.2648 114.02 26.4358 114.02 24.3215V18.0726H112.435V16.3005H114.02V13.7205L116.269 13.7206Z" fill="white"/>
<path d="M119.541 21.7521C119.541 18.322 121.562 16.1665 124.712 16.1665C127.873 16.1665 129.884 18.322 129.884 21.7521C129.884 25.1917 127.883 27.3377 124.712 27.3377C121.542 27.3377 119.541 25.1917 119.541 21.7521ZM127.603 21.7521C127.603 19.3991 126.525 18.0103 124.712 18.0103C122.899 18.0103 121.82 19.4097 121.82 21.7521C121.82 24.1145 122.899 25.4927 124.712 25.4927C126.525 25.4927 127.603 24.1145 127.603 21.7521Z" fill="white"/>
<path d="M131.729 16.3003H133.863V18.1559H133.915C134.059 17.5764 134.399 17.0642 134.876 16.7055C135.354 16.3468 135.94 16.1634 136.537 16.1862C136.795 16.1853 137.052 16.2133 137.304 16.2697V18.3628C136.978 18.2634 136.638 18.2177 136.298 18.2276C135.973 18.2144 135.649 18.2717 135.348 18.3956C135.047 18.5195 134.777 18.7071 134.555 18.9453C134.334 19.1836 134.166 19.4671 134.065 19.7761C133.963 20.0852 133.929 20.4126 133.966 20.7359V27.2023H131.729V16.3003Z" fill="white"/>
<path d="M147.621 24.0005C147.375 25.0307 146.764 25.9367 145.901 26.5505C145.037 27.1642 143.981 27.4439 142.927 27.3377C139.755 27.3377 137.787 25.2128 137.787 21.8038C137.787 18.3843 139.766 16.1665 142.833 16.1665C145.849 16.1665 147.746 18.2385 147.746 21.544V22.3107H140.046V22.4459C140.01 22.8471 140.061 23.2513 140.193 23.6316C140.326 24.0119 140.538 24.3597 140.815 24.6517C141.093 24.9438 141.429 25.1735 141.802 25.3256C142.175 25.4777 142.576 25.5487 142.979 25.5339C143.507 25.5834 144.038 25.4609 144.492 25.1847C144.945 24.9084 145.298 24.4931 145.496 24.0005L147.621 24.0005ZM140.056 20.7467H145.507C145.527 20.3859 145.472 20.0249 145.346 19.6863C145.22 19.3477 145.025 19.0388 144.774 18.779C144.523 18.5192 144.221 18.314 143.887 18.1765C143.553 18.039 143.194 17.972 142.833 17.9798C142.468 17.9776 142.107 18.0476 141.77 18.1858C141.433 18.3239 141.126 18.5275 140.868 18.7848C140.61 19.042 140.405 19.3478 140.266 19.6846C140.127 20.0213 140.055 20.3823 140.056 20.7467V20.7467Z" fill="white"/>
<path d="M57.3658 33.6912H67.8624V34.7888H62.8727V36.3412C63.5878 36.6723 64.3075 37.0373 65.0317 37.4362C65.7557 37.8346 66.4882 38.2623 67.2291 38.7193L66.5827 39.7277C65.8202 39.2414 65.1352 38.8127 64.5275 38.4418C63.9196 38.0709 63.368 37.7627 62.8727 37.5172V44.0002H61.7606V34.7889H57.3659L57.3658 33.6912Z" fill="white"/>
<path d="M70.7687 34.0208H72.9661V33.1347H74.0522V34.0208H76.0882V35.0292H74.0522V35.8878H76.6184C76.6013 35.466 76.5841 35.0255 76.5669 34.5662C76.5491 34.1073 76.5404 33.626 76.5408 33.1223H77.6199C77.6199 33.6347 77.6275 34.1183 77.6426 34.5731C77.6577 35.0278 77.674 35.466 77.6914 35.8878H80.5482V36.9099H77.7429C77.7772 37.3839 77.8214 37.8166 77.8755 38.2081C77.929 38.6011 77.9778 38.9514 78.0211 39.2618C78.0542 39.3648 78.0802 39.4699 78.0987 39.5764C78.1159 39.6767 78.1331 39.7797 78.1502 39.8828C78.3325 39.4892 78.4922 39.0856 78.6283 38.6738C78.7705 38.2479 78.8999 37.7914 79.0164 37.3041L80.0056 37.7561C79.7087 39.0263 79.232 40.2476 78.5899 41.383C78.6242 41.4682 78.662 41.556 78.7032 41.644C78.7437 41.7319 78.7856 41.8171 78.8289 41.8995C79.1002 42.4381 79.3157 42.7073 79.4753 42.7073C79.5831 42.7073 79.7082 42.1409 79.8503 41.008L80.8003 41.5121C80.529 43.0852 80.1283 43.8714 79.5982 43.871C79.1971 43.871 78.7424 43.5174 78.234 42.8104C78.1301 42.6511 78.0415 42.4823 77.9696 42.3062C77.4204 42.9858 76.7521 43.5598 75.9975 44.0001L75.3841 43.1154C76.2342 42.6407 76.9534 41.9629 77.4778 41.1426C77.4002 40.8884 77.3216 40.6269 77.2422 40.3581C77.1625 40.0889 77.0945 39.8077 77.0382 39.5146C76.8511 38.6567 76.7281 37.786 76.67 36.9099H70.1547V35.8878H72.9662V35.0291H70.7688L70.7687 34.0208ZM76.0881 41.46V42.4299C75.8038 42.4643 75.5162 42.4963 75.2254 42.5261C74.9348 42.5563 74.6402 42.5893 74.3433 42.6236V43.9617H73.2573V42.7596C72.8479 42.794 72.4319 42.826 72.0092 42.8558C71.5874 42.886 71.1581 42.9259 70.7233 42.9726L70.5811 41.9257C71.0592 41.9079 71.5181 41.8832 71.9577 41.8516C72.3973 41.8186 72.8305 41.7893 73.2573 41.7636V40.8912H71.0985L70.8718 40.0051C71.1738 39.6166 71.4359 39.1987 71.6542 38.7577H70.5167V37.7685H72.0869C72.1426 37.6466 72.1881 37.5202 72.2229 37.3907C72.2573 37.2644 72.3003 37.1297 72.3521 36.9868L73.412 37.1751C73.3694 37.2946 73.335 37.4017 73.3089 37.4952C73.2821 37.5899 73.2452 37.6816 73.199 37.7686H76.1397V38.7577H72.8047C72.6886 38.9912 72.5712 39.2069 72.4524 39.4048C72.3335 39.6027 72.2225 39.7946 72.1192 39.9804H73.2574V39.1973H74.3434V39.9804H76.0236V40.8912H74.3434V41.6468C74.6401 41.6221 74.9348 41.5918 75.2254 41.5602C75.516 41.5273 75.8035 41.4938 76.0881 41.46ZM77.9819 33.7803L78.8028 33.2253C79.2978 33.7756 79.7578 34.3565 80.18 34.9646L79.3461 35.5581C79.1778 35.2915 78.9807 35.0085 78.7547 34.709C78.528 34.4096 78.2704 34.1 77.9819 33.7804L77.9819 33.7803Z" fill="white"/>
<path d="M44.1496 28.2436C44.165 27.1113 44.4818 26.001 45.0707 25.0162C45.6596 24.0313 46.5014 23.2038 47.5178 22.6107C46.8721 21.7355 46.0203 21.0152 45.0301 20.507C44.0398 19.9989 42.9384 19.7169 41.8133 19.6835C39.4132 19.4444 37.0864 21.0467 35.8633 21.0467C34.6166 21.0467 32.7335 19.7073 30.7057 19.7469C29.3941 19.7871 28.1158 20.1491 26.9954 20.7977C25.8751 21.4462 24.9508 22.3592 24.3126 23.4476C21.5484 27.9902 23.6103 34.6664 26.2582 38.3383C27.583 40.1363 29.1313 42.1448 31.1572 42.0736C33.1398 41.9955 33.8802 40.8736 36.2732 40.8736C38.6441 40.8736 39.3387 42.0736 41.4058 42.0283C43.5331 41.9955 44.8734 40.2222 46.1518 38.4072C47.1036 37.126 47.8361 35.7101 48.322 34.2117C47.0861 33.7156 46.0314 32.8851 45.2894 31.8238C44.5474 30.7625 44.151 29.5173 44.1496 28.2436V28.2436Z" fill="white"/>
<path d="M40.2454 17.2687C41.4053 15.9471 41.9767 14.2483 41.8383 12.5332C40.0663 12.7099 38.4294 13.5138 37.2538 14.7847C36.679 15.4056 36.2388 16.1279 35.9583 16.9104C35.6778 17.6929 35.5625 18.5202 35.6191 19.3449C36.5054 19.3536 37.3823 19.1712 38.1837 18.8116C38.985 18.452 39.6899 17.9245 40.2454 17.2687Z" fill="white"/>
<rect x="0.5" y="0.5" width="169" height="55" rx="2.5" stroke="white"/>
</svg>
