<svg width="170" height="56" viewBox="0 0 170 56" fill="none" xmlns="http://www.w3.org/2000/svg">
<path d="M127.509 38.6913H129.534V25.4772H127.509V38.6913ZM145.748 30.2372L143.427 35.9662H143.357L140.948 30.2372H138.767L142.38 38.2445L140.32 42.6985H142.433L148 30.2372H145.748ZM134.264 37.1905C133.6 37.1905 132.676 36.8676 132.676 36.0682C132.676 35.0483 133.828 34.6573 134.822 34.6573C135.713 34.6573 136.131 34.8443 136.673 35.0996C136.515 36.3234 135.433 37.1905 134.264 37.1905V37.1905ZM134.509 29.9482C133.043 29.9482 131.524 30.5774 130.896 31.9714L132.693 32.7022C133.077 31.9714 133.792 31.7332 134.543 31.7332C135.591 31.7332 136.655 32.3455 136.673 33.4335V33.5693C136.306 33.3653 135.521 33.0594 134.561 33.0594C132.624 33.0594 130.651 34.0961 130.651 36.0343C130.651 37.8024 132.239 38.9415 134.019 38.9415C135.381 38.9415 136.131 38.3465 136.603 37.6496H136.673V38.6695H138.627V33.6031C138.627 31.2575 136.83 29.9482 134.509 29.9482V29.9482ZM121.994 31.8458H119.114V27.3164H121.994C123.508 27.3164 124.367 28.5372 124.367 29.581C124.367 30.6051 123.508 31.8458 121.994 31.8458ZM121.942 25.4772H117.09V38.6913H119.114V33.685H121.942C124.186 33.685 126.392 32.1023 126.392 29.581C126.392 27.0599 124.186 25.4772 121.942 25.4772ZM95.4834 37.1929C94.0845 37.1929 92.9132 36.0521 92.9132 34.4851C92.9132 32.9017 94.0845 31.7435 95.4834 31.7435C96.8646 31.7435 97.9485 32.9017 97.9485 34.4851C97.9485 36.0521 96.8646 37.1929 95.4834 37.1929V37.1929ZM97.8086 30.9772H97.7386C97.2842 30.4494 96.4096 29.9726 95.3084 29.9726C93.0006 29.9726 90.8853 31.9478 90.8853 34.4851C90.8853 37.0055 93.0006 38.9639 95.3084 38.9639C96.4096 38.9639 97.2842 38.4869 97.7386 37.9423H97.8086V38.5893C97.8086 40.3096 96.8646 41.2291 95.3435 41.2291C94.1023 41.2291 93.333 40.3603 93.0179 39.6282L91.2524 40.3434C91.7594 41.5354 93.1057 43 95.3435 43C97.7212 43 99.7318 41.6374 99.7318 38.3168V30.2451H97.8086V30.9772ZM101.13 38.6913H103.158V25.4768H101.13V38.6913ZM106.148 34.332C106.096 32.5948 107.529 31.7096 108.561 31.7096C109.365 31.7096 110.047 32.101 110.274 32.6634L106.148 34.332ZM112.442 32.8335C112.058 31.8285 110.886 29.9726 108.491 29.9726C106.113 29.9726 104.138 31.7947 104.138 34.4682C104.138 36.9886 106.096 38.9639 108.718 38.9639C110.834 38.9639 112.058 37.7037 112.565 36.9716L110.991 35.9496C110.467 36.6991 109.75 37.1929 108.718 37.1929C107.686 37.1929 106.952 36.733 106.48 35.8307L112.651 33.3443L112.442 32.8335ZM63.2731 31.352V33.2592H67.9585C67.8186 34.332 67.4515 35.1152 66.8919 35.6602C66.2103 36.3246 65.1438 37.0567 63.2731 37.0567C60.3883 37.0567 58.1331 34.7919 58.1331 31.9821C58.1331 29.1723 60.3883 26.9072 63.2731 26.9072C64.8292 26.9072 65.9653 27.5034 66.8046 28.2697L68.1857 26.9245C67.0144 25.8344 65.4583 25 63.2731 25C59.3217 25 56 28.1335 56 31.9821C56 35.8307 59.3217 38.9639 63.2731 38.9639C65.4062 38.9639 67.0145 38.283 68.2731 37.0055C69.5669 35.7453 69.9691 33.9744 69.9691 32.5441C69.9691 32.101 69.9343 31.6927 69.864 31.352H63.2731ZM75.296 37.1929C73.8971 37.1929 72.6906 36.069 72.6906 34.4682C72.6906 32.8504 73.8971 31.7435 75.296 31.7435C76.6944 31.7435 77.9008 32.8504 77.9008 34.4682C77.9008 36.069 76.6944 37.1929 75.296 37.1929V37.1929ZM75.296 29.9726C72.7432 29.9726 70.6626 31.8627 70.6626 34.4682C70.6626 37.0567 72.7432 38.9639 75.296 38.9639C77.8483 38.9639 79.9289 37.0567 79.9289 34.4682C79.9289 31.8627 77.8483 29.9726 75.296 29.9726ZM85.4028 37.1929C84.0044 37.1929 82.7979 36.069 82.7979 34.4682C82.7979 32.8504 84.0044 31.7435 85.4028 31.7435C86.8013 31.7435 88.0077 32.8504 88.0077 34.4682C88.0077 36.069 86.8013 37.1929 85.4028 37.1929ZM85.4028 29.9726C82.8501 29.9726 80.7699 31.8627 80.7699 34.4682C80.7699 37.0567 82.8501 38.9639 85.4028 38.9639C87.9552 38.9639 90.0358 37.0567 90.0358 34.4682C90.0358 31.8627 87.9552 29.9726 85.4028 29.9726Z" fill="white"/>
<path fill-rule="evenodd" clip-rule="evenodd" d="M89.1038 18.3526C89.0277 18.7868 88.732 19.0919 88.1988 19.3257L88.0993 19.3683L88.1409 19.4715L88.3137 19.9025L88.3526 20L88.4488 19.9648C89.3037 19.6544 89.8771 18.942 89.8754 18.0134C89.875 17.7139 89.8142 17.4574 89.6837 17.2681C89.5541 17.0778 89.3468 16.9655 89.1019 16.9671C88.9199 16.9671 88.7454 17.0246 88.6132 17.1443C88.4807 17.2633 88.398 17.4456 88.3988 17.6642C88.398 17.8819 88.4781 18.063 88.609 18.1801C88.7395 18.2982 88.9122 18.353 89.0935 18.353H89.0968L89.1038 18.3526ZM76.5186 17.2755L75.97 17.4383L75.8529 17.4731L75.8344 17.3477C75.727 16.6107 75.4456 15.4652 75.1876 14.5918L75.1553 14.4813L75.2627 14.4512L75.8868 14.2775L75.9179 14.3789C76.1859 15.2536 76.4759 16.3847 76.595 17.151L76.6101 17.2485L76.5186 17.2755ZM75.0257 17.6622L74.4853 17.8894L74.3658 17.9399L74.3398 17.8088C74.1939 17.0735 73.818 15.9197 73.4987 15.0537L73.4609 14.9518L73.5583 14.9105L74.159 14.6576L74.1997 14.7608C74.5466 15.6441 74.9225 16.7753 75.0898 17.5336L75.1104 17.6264L75.0257 17.6622ZM77.0523 18.5447H78.9797H79.0871V18.6561V19.3448H73.0688V19.2334V18.5447H76.21C76.9387 17.3141 77.5199 15.698 77.8178 14.3393L77.8451 14.217L77.9587 14.2592L78.6655 14.5222L78.6371 14.6227C78.2749 15.913 77.7265 17.3205 77.0523 18.5447ZM75.4471 13.1141H72.3871V15.4374C72.3884 16.5789 72.3292 18.1676 71.7495 19.287L71.6945 19.3936L71.8015 19.4416C71.9102 19.4882 72.1921 19.6679 72.2596 19.7485L72.3611 19.8621L72.4324 19.7258C73.0835 18.478 73.1803 16.6638 73.1821 15.4374V13.9144H78.9856V13.2256V13.1141H76.336C76.2236 12.8212 76.0297 12.4008 75.8457 12.0722L75.8051 12L75.1628 12.1663L75.0299 12.2007L75.0937 12.3266C75.2153 12.565 75.3484 12.8616 75.4471 13.1141ZM70.6743 13.4793L70.2432 13.7962L70.1499 13.865L70.09 13.7645C69.9222 13.4833 69.5086 13.0352 69.1625 12.7248L69.0543 12.6273L69.1751 12.5467L69.6541 12.2276L69.7142 12.276C70.0753 12.5689 70.5078 13.006 70.7033 13.3296L70.7566 13.4184L70.6743 13.4793ZM64.7579 15.9217L64.7441 15.95L64.7441 15.9501C64.6558 16.1306 64.5868 16.2718 64.5461 16.3346L64.5444 16.3367L64.5431 16.3394C64.4253 16.5562 64.2969 16.6959 64.2533 16.6933L64.1153 16.722L64.1791 16.8531C64.2416 16.9803 64.3213 17.2658 64.3514 17.3838L64.3963 17.5584L64.5264 17.4387C64.5277 17.4334 64.5952 17.4003 64.6934 17.3838C64.7928 17.3651 64.9266 17.3533 65.0822 17.3533H65.9929V17.9443C65.225 18.0134 64.5336 18.0751 64.0008 18.1139L63.8888 18.1222L63.9647 18.7992L63.9769 18.9094L64.083 18.8972C64.4764 18.8516 64.9389 18.8024 65.4411 18.7489C65.6204 18.7299 65.8048 18.7103 65.9929 18.6901V19.5829V19.6944H66.6481H66.7555V18.6185L66.7656 18.6175C67.2 18.5724 67.6356 18.5272 68.071 18.4745L68.1164 18.4688C67.8918 18.7169 67.6507 18.9381 67.3935 19.1258L67.2711 19.2154L67.3923 19.3069C67.5211 19.4036 67.6914 19.5803 67.7766 19.6987L67.8428 19.7898L67.9288 19.7192C68.307 19.4084 68.6521 19.0516 68.9657 18.6551C69.2532 19.2648 69.6459 19.6527 70.1726 19.6539C70.4642 19.66 70.7084 19.5376 70.8464 19.2608C70.9864 18.9882 71.0544 18.5846 71.103 17.9742L71.1094 17.8914L71.0347 17.8614C70.9063 17.8105 70.7184 17.6986 70.6215 17.5823L70.447 17.3768L70.4336 17.6502C70.4109 18.123 70.379 18.4452 70.3325 18.636L70.2615 18.8189L70.2201 18.8454C70.0942 18.8449 69.9684 18.7744 69.837 18.6051C69.7137 18.4443 69.5957 18.2001 69.4925 17.8824C69.9944 17.053 70.3881 16.101 70.6596 15.1093L70.689 15.0022L70.5858 14.9718L70.0615 14.8172L69.9567 14.7863L69.9285 14.896C69.7611 15.5476 69.5184 16.1949 69.2265 16.7886C69.1189 16.1682 69.035 15.4363 68.9871 14.6214H71.0086V14.0223V13.9108H68.9447C68.9297 13.5152 68.9226 13.1006 68.9226 12.6721C68.9226 12.5197 68.9234 12.366 68.9251 12.2107L68.9264 12.0979H68.2464H68.139V12.2093C68.139 12.7875 68.1525 13.3658 68.1798 13.9108H66.4816V13.4423H67.7522H67.8596V12.8432V12.7317H66.4816V12.1932V12.0817H65.8184H65.711V12.7317H64.3305H64.2231V13.3308V13.4423H65.711V13.9108H63.8233V14.5099V14.6214H65.2927C65.2296 14.8185 65.1548 15.0151 65.0744 15.2034H64.0482H63.9408V15.8103V15.9217H64.7579ZM68.6535 17.7811C68.5011 18.0057 68.3385 18.2175 68.1659 18.4134V18.3634V17.8588V17.7356L68.0475 17.7482C67.6241 17.7929 67.1816 17.8379 66.7555 17.8759V17.3533H67.8852H67.9926V16.7216V16.6101H66.7555V16.0628V15.9514H66.1002H65.9929V16.6101H65.2121C65.3365 16.3967 65.4629 16.1623 65.5856 15.9217H68.1575V15.3149V15.2034H65.9158C65.9838 15.0473 66.0472 14.8882 66.1062 14.7288L66.1462 14.6214H68.215C68.2867 15.8437 68.43 16.9309 68.6535 17.7811ZM59.8257 14.5929V13.4999H63.1312V12.7872V12.6757H56V13.3885V13.4999H58.9917V19.7111H59.7183H59.8257V15.5103C60.6767 15.9925 61.635 16.6078 62.1249 17.027L62.21 17.1001L62.6849 16.4645L62.7512 16.3757L62.6647 16.3077C62.0342 15.8109 60.8052 15.0804 59.8664 14.6132L59.8257 14.5929ZM85.9084 16.4469H84.016V15.3207H85.9084V16.4469ZM85.9084 13.4512V14.5291H84.016V13.4512H85.9084ZM81.5641 13.4512H83.2211V14.5291H81.5641V13.4512ZM81.5412 16.4469C81.5588 16.1833 81.5641 15.924 81.5641 15.689V15.3207H83.2211V16.4469H81.5412ZM81.4642 17.2472H83.2211V19.6458H83.9086H84.016V17.2472H85.9084V18.7868L85.8949 18.8656L85.8004 18.886C85.7791 18.886 85.75 18.8862 85.7142 18.8865C85.6517 18.8871 85.5688 18.8877 85.4708 18.8877C85.2355 18.8877 84.9133 18.8847 84.5865 18.8699L84.4041 18.862L84.4858 19.0314C84.5601 19.1829 84.6528 19.4437 84.6717 19.583L84.6851 19.6775L84.7769 19.6784C84.9058 19.6797 85.0262 19.6805 85.1386 19.6805C85.6701 19.6797 86.0224 19.6636 86.2708 19.5739L86.2728 19.573L86.275 19.5721C86.5648 19.4599 86.7041 19.1986 86.6944 18.7941V12.6509H80.7776V15.689C80.7793 16.8144 80.6946 18.2163 79.8652 19.1838L79.7772 19.2874L79.8929 19.3549C79.9977 19.4137 80.2386 19.6239 80.3062 19.7223L80.3845 19.8325L80.4722 19.7301C81.0669 19.0387 81.3385 18.1311 81.4642 17.2472ZM98.8461 17.805H96.6173V17.3701H98.8461V17.805ZM96.6173 16.3208H98.8461V16.7235H96.6173V16.3208ZM99.6167 15.6263V18.9322C99.6162 19.0941 99.6015 19.2265 99.5478 19.3405C99.4941 19.4556 99.3977 19.5387 99.276 19.5883L99.2747 19.5892L99.2736 19.5896C99.0621 19.6714 98.7911 19.6881 98.3972 19.6888C98.3066 19.6888 98.2097 19.6876 98.1057 19.6863L98.0159 19.6845L98.0012 19.5926C97.9819 19.4668 97.9051 19.2478 97.838 19.102L97.7625 18.9357L97.9396 18.9431C98.1753 18.9527 98.4031 18.9566 98.5679 18.9566C98.6799 18.9566 98.7651 18.9544 98.7961 18.9518L98.8003 18.9513H98.8045L98.8442 18.9477L98.8461 18.9248V18.4668H96.6173V19.7189H96.5099H95.8543V18.1177L95.7923 18.1672C94.4839 19.2147 94.2803 19.3972 94.1814 19.5303L94.0673 19.6801L93.9977 19.5034C93.9515 19.3841 93.8005 19.1276 93.7108 19.0214L93.6256 18.9196L93.738 18.8521C93.8584 18.7811 94.0547 18.5647 94.0521 18.2578V15.4182H92.8852V15.3068V14.6184H94.8311V17.9708L95.4587 17.4859L95.5883 17.3857L95.6273 17.5481C95.6609 17.6917 95.762 17.9203 95.8195 18.0235L95.8543 18.0862V15.6263H99.6167ZM98.1212 14.6994H100.12H100.228V14.8109V15.3856H95.2972V15.2741V14.6994H97.3338V14.3537H95.721V14.2422V13.6915H97.3338V13.4024H95.533V13.291V12.7158H97.3338V12.0819H97.4412H98.1212V12.1933V12.7158H100V12.8273V13.4024H98.1212V13.6915H99.7656V13.803V14.3537H98.1212V14.6994ZM95.1374 13.6454L94.7376 14.0677L94.6478 14.1625L94.5736 14.0547C94.3505 13.729 93.8336 13.1987 93.4302 12.8207L93.3429 12.7385L93.4297 12.6558L93.8747 12.2317L93.9473 12.2952C94.3571 12.6566 94.8899 13.1587 95.1454 13.499L95.2028 13.5762L95.1374 13.6454ZM107.138 18.886C107.115 18.886 107.084 18.8863 107.047 18.8866C106.987 18.8871 106.909 18.8878 106.818 18.8878C106.596 18.8878 106.298 18.8848 105.995 18.87L105.82 18.8616L105.893 19.0271C105.965 19.1939 106.052 19.4794 106.08 19.6292L106.097 19.7189H106.185C106.822 19.7171 107.284 19.715 107.577 19.6061L107.578 19.6057L107.58 19.6052C107.724 19.5478 107.841 19.4533 107.909 19.3149C107.977 19.1774 108 19.0097 108 18.7942V12.3009H107.893H107.329H107.222V18.7942L107.216 18.8613L107.212 18.8721L107.204 18.876L107.138 18.886ZM101.784 14.7673C101.965 14.3485 102.15 13.8248 102.288 13.3698H101.05V13.2583V12.6105H105.259V12.722V13.3698H103.157L103.151 13.3844C102.985 13.8192 102.798 14.3085 102.613 14.7327C102.697 14.7291 102.783 14.7254 102.869 14.7217C103.245 14.7057 103.641 14.6888 104.042 14.6688C103.879 14.4355 103.705 14.2069 103.542 14.0045L103.459 13.9017L103.572 13.8361L104.003 13.584L104.079 13.5395L104.137 13.6079C104.605 14.1685 105.147 14.9106 105.382 15.4276V13.0493H105.489H106.152V17.6317V17.7431H106.045H105.382V15.5687L105.348 15.5893L104.795 15.9355L104.743 15.8284C104.68 15.6993 104.605 15.551 104.514 15.3899C104.056 15.4231 103.594 15.4529 103.15 15.4801H103.551V15.5915V16.447H105.024V16.5584V17.2228H104.916H103.551V18.334L105.153 18.1149L105.271 18.0989L105.274 18.2221L105.293 18.8664L105.198 18.8803C104.354 19.0074 103.487 19.1345 102.706 19.2489C102.138 19.3322 101.616 19.4088 101.18 19.4738L101.076 19.4894L101.059 19.3815L100.947 18.6644L101.059 18.6514C101.529 18.5969 102.121 18.5206 102.772 18.4359V17.2228H101.277V17.1114V16.447H101.384H102.772V15.5029C102.578 15.5145 102.388 15.5256 102.205 15.5363C101.837 15.5579 101.495 15.578 101.195 15.5971L101.09 15.6037L101.081 15.4952L101.024 14.8022L101.136 14.797L101.784 14.7673Z" fill="white"/>
<path d="M20 13.5V41.5L34 27.5L20 13.5Z" fill="url(#paint0_linear)"/>
<path d="M20 13.5V41.5L34 27.5L20 13.5Z" fill="url(#paint1_linear)"/>
<path d="M44.4845 26.5452L39.2 23.5L35 27.5L39.2 31.5L44.4845 28.2484C44.7938 28.0935 45 27.7323 45 27.371C45 27.0097 44.7938 26.7 44.4845 26.5452Z" fill="url(#paint2_linear)"/>
<path d="M44.4845 26.5452L39.2 23.5L35 27.5L39.2 31.5L44.4845 28.2484C44.7938 28.0935 45 27.7323 45 27.371C45 27.0097 44.7938 26.7 44.4845 26.5452Z" fill="url(#paint3_linear)"/>
<path d="M21 41.5L38.6 31.95L34.5 28L21 41.5Z" fill="url(#paint4_linear)"/>
<path d="M21 41.5L38.6 31.95L34.5 28L21 41.5Z" fill="url(#paint5_linear)"/>
<path d="M38.6 23.05L33.05 19.8L21 13.5L34.5 27L38.6 23.05Z" fill="url(#paint6_linear)"/>
<path d="M38.6 23.05L33.05 19.8L21 13.5L34.5 27L38.6 23.05Z" fill="url(#paint7_linear)"/>
<rect x="0.5" y="0.5" width="169" height="55" rx="2.5" stroke="white"/>
<defs>
<linearGradient id="paint0_linear" x1="27" y1="23" x2="20" y2="31.5" gradientUnits="userSpaceOnUse">
<stop stop-color="#00E2FF"/>
<stop offset="1" stop-color="#03C6F5"/>
</linearGradient>
<linearGradient id="paint1_linear" x1="32.8101" y1="40.2588" x2="13.8625" y2="22.0978" gradientUnits="userSpaceOnUse">
<stop stop-color="#00A0FF"/>
<stop offset="0.00657445" stop-color="#00A1FF"/>
<stop offset="0.2601" stop-color="#00BEFF"/>
<stop offset="0.5122" stop-color="#00D2FF"/>
<stop offset="0.7604" stop-color="#00DFFF"/>
<stop offset="1" stop-color="#00E3FF"/>
</linearGradient>
<linearGradient id="paint2_linear" x1="40" y1="23.5" x2="29.5" y2="23.5" gradientUnits="userSpaceOnUse">
<stop stop-color="#FFEA0D"/>
<stop offset="1" stop-color="#FFCF00"/>
</linearGradient>
<linearGradient id="paint3_linear" x1="45.759" y1="27.5695" x2="21.9536" y2="27.5695" gradientUnits="userSpaceOnUse">
<stop stop-color="#FFE000"/>
<stop offset="0.4087" stop-color="#FFBD00"/>
<stop offset="0.7754" stop-color="#FFA500"/>
<stop offset="1" stop-color="#FF9C00"/>
</linearGradient>
<linearGradient id="paint4_linear" x1="30" y1="27.5" x2="18.5" y2="39" gradientUnits="userSpaceOnUse">
<stop stop-color="#F73547"/>
<stop offset="1" stop-color="#E22652"/>
</linearGradient>
<linearGradient id="paint5_linear" x1="36.2636" y1="39.0906" x2="12.375" y2="14.9439" gradientUnits="userSpaceOnUse">
<stop stop-color="#FF3A44"/>
<stop offset="1" stop-color="#C31162"/>
</linearGradient>
<linearGradient id="paint6_linear" x1="36" y1="23" x2="21" y2="13.5" gradientUnits="userSpaceOnUse">
<stop stop-color="#2EF38F"/>
<stop offset="1" stop-color="#0EDE76"/>
</linearGradient>
<linearGradient id="paint7_linear" x1="17.598" y1="34.3109" x2="28.2656" y2="23.5452" gradientUnits="userSpaceOnUse">
<stop stop-color="#32A071"/>
<stop offset="0.0685" stop-color="#2DA771"/>
<stop offset="0.4762" stop-color="#15CF74"/>
<stop offset="0.8009" stop-color="#06E775"/>
<stop offset="1" stop-color="#00F076"/>
</linearGradient>
</defs>
</svg>
