<svg width="32" height="32" viewBox="0 0 32 32" fill="none" xmlns="http://www.w3.org/2000/svg">
<g clip-path="url(#clip0_125_5083)">
<rect x="0.5" y="4.5" width="28" height="19" rx="1.5" fill="white" stroke="#333333"/>
<path d="M27.6817 22.2993L17.3899 13.3279L17.3882 13.3263L17.2837 13.2336C17.106 13.0757 16.8417 13.0648 16.6516 13.2075L15.3213 14.2057C15.321 14.206 15.3207 14.2062 15.3204 14.2064C15.0526 14.4049 14.6909 14.5196 14.3201 14.5282C13.9472 14.5368 13.6106 14.4375 13.3811 14.2645L13.3796 14.2634L11.9797 13.2164C11.7911 13.0754 11.5297 13.0851 11.352 13.2396L1.11811 22.1432C1.01608 22.2319 0.954363 22.3582 0.947026 22.4933C0.939688 22.6283 0.987358 22.7605 1.07916 22.8598C1.43618 23.246 1.9521 23.5014 2.52761 23.5014H26.6256C27.0328 23.5014 27.4078 23.3726 27.723 23.1632C27.8591 23.0728 27.9424 22.9216 27.9462 22.7582C27.9499 22.5949 27.8736 22.44 27.7418 22.3434L27.6817 22.2993Z" fill="#EFEFEF" stroke="#333333" stroke-linejoin="round"/>
<path d="M0.918549 6.19204L11.3677 14.1986L11.4121 14.2341L11.4121 14.2342L11.4205 14.2407L12.8251 15.3159C12.8254 15.3161 12.8256 15.3163 12.8259 15.3165C13.2743 15.6621 13.8514 15.8074 14.4029 15.7944C14.9562 15.7814 15.5309 15.6084 15.9858 15.258C15.9859 15.258 15.9859 15.258 15.986 15.2579L17.3209 14.2325L17.3236 14.2305L17.961 13.7476L17.9631 13.746L28.1255 5.95931C28.143 5.94597 28.1595 5.93149 28.175 5.91598L28.2041 5.88689C28.3885 5.70247 28.4002 5.40729 28.231 5.20886C27.8638 4.77835 27.3315 4.5 26.7257 4.5H2.52205C1.76816 4.5 1.12494 4.93644 0.784737 5.55385C0.665412 5.7704 0.722286 6.04165 0.918549 6.19204Z" fill="#BDECFF" stroke="#333333" stroke-linejoin="round"/>
<path d="M18.5 20.0013V20C18.5 16.4182 21.4182 13.5 25 13.5C28.5818 13.5 31.5 16.4182 31.5 20C31.5 23.5818 28.5818 26.5 25 26.5C21.417 26.5 18.4908 23.5809 18.5 20.0013Z" fill="url(#paint0_linear_125_5083)" stroke="#333333"/>
<path fill-rule="evenodd" clip-rule="evenodd" d="M21.2086 19H24.0074L24.0076 16.2002C24.0076 16.0918 24.0994 16 24.2078 16H25.8399C25.9484 16 26.0022 16.0918 26.0022 16.2002V19H28.7938C28.9022 19 29 19.0821 29 19.1906V20.8038C29 20.9122 28.9022 21.004 28.7938 21.004H26.0022V23.7998C26.0022 23.9082 25.9401 24 25.8316 24H24.1995C24.091 24 23.9992 23.9082 23.9992 23.7998L23.9991 21.004H21.2003C21.0918 21.004 21 20.9122 21 20.8038L21 19.1906C21.0083 19.0738 21.1001 19 21.2086 19Z" fill="white"/>
</g>
<defs>
<linearGradient id="paint0_linear_125_5083" x1="18" y1="12.4531" x2="32" y2="27" gradientUnits="userSpaceOnUse">
<stop stop-color="#FF8E3D"/>
<stop offset="1" stop-color="#FF6F3D"/>
</linearGradient>
<clipPath id="clip0_125_5083">
<rect width="32" height="32" fill="white"/>
</clipPath>
</defs>
</svg>
