<svg width="140" height="140" viewBox="0 0 140 140" fill="none" xmlns="http://www.w3.org/2000/svg">
<g clip-path="url(#clip0_125_277)">
<path fill-rule="evenodd" clip-rule="evenodd" d="M0.502092 59.5005C0.502092 56.0667 3.67938 53.0005 7.20352 53.0005H113.623C117.147 53.0005 120 55.7897 120 59.2235V120.5C120 123.934 117.499 126 113.975 126H6.0251C2.50096 126 0 123.934 0 120.5L0.502092 59.5005Z" fill="white"/>
<path fill-rule="evenodd" clip-rule="evenodd" d="M72.2987 86C57.088 96.8531 58.5 96.4795 46.1861 87.0077L3 124.913C3.51663 126.066 5.90204 125.969 7.5 125.922H111C115.181 125.957 117.39 126.384 119 124.795L72.2987 86Z" fill="#EFEFEF"/>
<path fill-rule="evenodd" clip-rule="evenodd" d="M71.7822 86.1844C71.9568 85.9698 72.2718 85.9379 72.4857 86.113L81.1243 93.1851C81.3382 93.3602 81.3701 93.6761 81.1955 93.8906C81.0209 94.1051 80.7059 94.1371 80.492 93.962L71.8533 86.8899C71.6394 86.7148 71.6076 86.3989 71.7822 86.1844ZM47.1784 86.5702C47.3591 86.7796 47.3364 87.0963 47.1277 87.2775L3.8273 124.878C3.61853 125.059 3.30277 125.036 3.12201 124.827C2.94125 124.617 2.96396 124.301 3.17272 124.119L46.4731 86.5193C46.6818 86.3381 46.9976 86.3608 47.1784 86.5702ZM91.939 102.686C92.1136 102.471 92.4286 102.439 92.6425 102.614L98.4016 107.329C98.6155 107.504 98.6474 107.82 98.4727 108.035C98.2981 108.249 97.9832 108.281 97.7692 108.106L92.0101 103.391C91.7962 103.216 91.7644 102.9 91.939 102.686ZM112.098 119.185C112.274 118.971 112.589 118.941 112.802 119.118L118.819 124.112C119.032 124.289 119.061 124.605 118.885 124.818C118.709 125.032 118.394 125.061 118.181 124.885L112.164 119.891C111.952 119.714 111.922 119.398 112.098 119.185Z" fill="#333333"/>
<path fill-rule="evenodd" clip-rule="evenodd" d="M97 39V70L119 55L97 39Z" fill="#BDECFF"/>
<path fill-rule="evenodd" clip-rule="evenodd" d="M53.2929 17.1613C52.1414 17.8225 54.666 18 56.0013 18H65.0668C66.4022 18 68.8523 17.6506 67.7007 16.9894L63.876 14.1801C62 12.5814 59.5047 12.6323 57.2041 14.1799L53.2929 17.1613Z" fill="#BDECFF"/>
<path fill-rule="evenodd" clip-rule="evenodd" d="M23 40V71L2 55.4633L23 40Z" fill="#BDECFF"/>
<path fill-rule="evenodd" clip-rule="evenodd" d="M57.309 15.1427L3.4558 54.7283C1.94146 55.7925 1 57.6489 1 59.4461V120.5C1 123.538 3.46244 126 6.50001 126H77.5084C77.7845 126 78.0084 126.224 78.0084 126.5C78.0084 126.776 77.7845 127 77.5084 127H6.50001C2.91016 127 0 124.09 0 120.5V59.4461C0 57.3283 1.09545 55.167 2.87629 53.9132L56.7293 14.3278C59.1156 12.648 62.065 12.4702 64.7678 14.3244L64.7754 14.3296L118.177 53.9143C119.94 55.165 121 57.1912 121 59.3135V74.1103C121 74.3864 120.776 74.6103 120.5 74.6103C120.224 74.6103 120 74.3864 120 74.1103V59.3135C120 57.5209 119.102 55.7943 117.594 54.7272L117.585 54.7209L64.1947 15.1439C61.8538 13.542 59.3646 13.6979 57.309 15.1427ZM120.5 111.203C120.776 111.203 121 111.427 121 111.703V120.5C121 124.09 118.09 127 114.5 127H106.504C106.228 127 106.004 126.776 106.004 126.5C106.004 126.224 106.228 126 106.504 126H114.5C117.538 126 120 123.538 120 120.5V111.703C120 111.427 120.224 111.203 120.5 111.203Z" fill="#333333"/>
<path d="M71.977 86.2632L118.5 55M46.6896 87.2812L2 55.5" stroke="#333333"/>
<path d="M61.7033 93.3436L61.7119 93.3382L61.7203 93.3325L96.2805 69.9139L96.5 69.7652V69.5V19.2633C96.5 18.294 95.7296 17.5 94.7711 17.5H36.3226H36.1139L35.9671 17.6483L21.6446 32.1245L21.5 32.2706V32.4762V69.0392V69.2941L21.7063 69.4439L54.1786 93.0134L54.1785 93.0135L54.1875 93.0197C55.2643 93.7659 56.3729 94.3416 57.6169 94.4721C58.8738 94.604 60.201 94.2752 61.7033 93.3436Z" fill="white" stroke="#333333"/>
<path fill-rule="evenodd" clip-rule="evenodd" d="M74 51.2622C74 53.1225 73.7218 54.8302 73.1653 56.3753C72.6088 57.9103 71.8238 59.1098 70.8003 59.9636C69.7966 60.8175 68.634 61.2546 67.3024 61.2546C66.3187 61.2546 65.474 60.9802 64.7585 60.4312C64.0431 59.8823 63.5562 59.1403 63.3077 58.2051H63.0891C62.4829 59.2216 61.7377 59.984 60.8433 60.4922C59.949 61.0005 58.9453 61.2546 57.8324 61.2546C55.8152 61.2546 54.2153 60.5735 53.0527 59.2012C51.9 57.8391 51.3236 55.9891 51.3236 53.6612C51.3236 50.9776 52.0888 48.8124 53.629 47.1453C55.1693 45.4681 57.2262 44.6244 59.8198 44.6244C60.7638 44.6244 61.8072 44.7159 62.9401 44.8988C64.0928 45.0716 65.1163 45.3054 66.0106 45.6206L65.6032 54.6981V55.1657C65.6032 57.2495 66.2491 58.2864 67.5409 58.2864C68.5247 58.2864 69.2998 57.6256 69.8662 56.294C70.4525 54.9624 70.7406 53.2749 70.7406 51.2216C70.7406 48.9954 70.3034 47.0437 69.4389 45.3664C68.5744 43.679 67.3422 42.3779 65.7423 41.463C64.1424 40.5583 62.3041 40.1009 60.2372 40.1009C57.5939 40.1009 55.2985 40.6701 53.3408 41.8188C51.3932 42.9675 49.9026 44.604 48.8791 46.7387C47.8456 48.8633 47.3389 51.3232 47.3389 54.1288C47.3389 57.9001 48.3028 60.8073 50.2206 62.8302C52.1385 64.8633 54.901 65.8798 58.4982 65.8798C61.2408 65.8798 64.0927 65.2902 67.0739 64.1212V67.3232C64.4704 68.4414 61.6383 69.0005 58.5777 69.0005C53.9867 69.0005 50.4194 67.7095 47.8457 65.1174C45.2819 62.5151 44 58.8963 44 54.2508C44 50.8556 44.6956 47.8366 46.0868 45.1936C47.478 42.5405 49.3958 40.5075 51.8503 39.1047C54.3147 37.7019 57.107 37.0005 60.2173 37.0005C62.9102 37.0005 65.2951 37.5901 67.3919 38.7591C69.4985 39.9281 71.1282 41.6053 72.2809 43.7705C73.4237 45.9255 74 48.4262 74 51.2622ZM54.8811 53.7324C54.8811 56.7616 56.0139 58.2762 58.2796 58.2762C60.6744 58.2762 61.9762 56.3753 62.2047 52.5634L62.4233 47.8976C61.6383 47.6739 60.8036 47.5621 59.9093 47.5621C58.3193 47.5621 57.0871 48.111 56.1928 49.219C55.3283 50.3372 54.8811 51.8315 54.8811 53.7324Z" fill="url(#paint0_linear_125_277)"/>
<path d="M36.5 18C36.5 17.7978 36.3782 17.6155 36.1913 17.5381C36.0045 17.4607 35.7894 17.5034 35.6464 17.6464L21.6464 31.6464C21.5034 31.7894 21.4607 32.0045 21.5381 32.1913C21.6155 32.3782 21.7978 32.5 22 32.5H36C36.2761 32.5 36.5 32.2761 36.5 32V18Z" fill="url(#paint1_linear_125_277)" stroke="#333333" stroke-linejoin="round"/>
<path fill-rule="evenodd" clip-rule="evenodd" d="M96.2006 91.444C96.3213 91.3535 96.452 91.263 96.5727 91.1725C100.223 88.588 104.688 87.0695 109.495 87.0695C115.147 87.0695 120.315 89.1612 124.258 92.6105L110.43 103.049L110.169 103.24L109.455 103.783L89.2216 119.058L89.0707 118.727C87.7936 115.911 87.0897 112.793 87.0897 109.495C87.0897 102.365 90.4183 96.0196 95.6073 91.9066C95.7984 91.7558 95.9995 91.5949 96.2006 91.444ZM129.939 100.263L127.727 101.933L117.902 109.344L117.711 109.485L116.927 110.078L106.85 117.681L97.1962 124.961L94.9838 126.57C98.8957 129.899 103.964 131.91 109.505 131.91C121.884 131.91 131.92 121.874 131.92 109.495C131.92 106.207 131.216 103.079 129.939 100.263ZM90.1669 87.2103C83.942 92.6206 80 100.595 80 109.495C80 112.713 80.5129 115.82 81.4682 118.727C85.3399 130.502 96.4319 139 109.495 139C125.786 139 139 125.786 139 109.495C139 100.485 134.967 92.4295 128.602 87.0192C123.453 82.6347 116.786 80 109.495 80C102.536 80 96.1302 82.4135 91.082 86.4461C90.9513 86.5567 90.8205 86.6572 90.6898 86.7678C90.5188 86.9086 90.3479 87.0595 90.1669 87.2103Z" fill="url(#paint2_linear_125_277)"/>
<path fill-rule="evenodd" clip-rule="evenodd" d="M110.169 103.241L110.43 103.05L124.255 92.6136C123.996 92.3871 123.732 92.1665 123.463 91.9519C119.633 88.8993 114.774 87.0737 109.495 87.0737C104.689 87.0737 100.225 88.5919 96.5751 91.1759C96.5147 91.2211 96.4519 91.2664 96.3891 91.3116C96.3262 91.3569 96.2634 91.4021 96.2031 91.4473C96.0366 91.5722 95.8701 91.704 95.7093 91.8312C95.6759 91.8577 95.6427 91.8839 95.6099 91.9098C90.4218 96.0221 87.0938 102.366 87.0938 109.495C87.0938 112.555 87.6999 115.46 88.8077 118.112C88.8936 118.318 88.9826 118.522 89.0745 118.725L89.2253 119.057L109.455 103.784L110.169 103.241ZM108.846 102.984L108.849 102.982L109.568 102.435L109.83 102.243L122.633 92.5783C119.007 89.7587 114.446 88.0791 109.495 88.0791C104.908 88.0791 100.65 89.526 97.1667 91.9889C97.1023 92.037 97.0371 92.084 96.9799 92.1251L96.9766 92.1275C96.9123 92.1738 96.8575 92.2133 96.8063 92.2517C96.6512 92.368 96.4969 92.4901 96.3364 92.6171C96.3025 92.6439 96.2684 92.671 96.2339 92.6982C91.2757 96.6285 88.0992 102.687 88.0992 109.495C88.0992 112.329 88.6426 115.02 89.6374 117.486L108.846 102.984ZM97.1984 124.959L94.9865 126.567C95.2505 126.792 95.5198 127.011 95.7942 127.223C99.584 130.158 104.339 131.906 109.505 131.906C121.882 131.906 131.916 121.872 131.916 109.495C131.916 106.574 131.361 103.78 130.341 101.218C130.213 100.897 130.078 100.579 129.936 100.265L117.9 109.344L117.709 109.485L116.925 110.078L97.1984 124.959ZM118.311 110.291L117.532 110.88L107.456 118.482L97.7969 125.767L96.6427 126.606C100.224 129.302 104.676 130.901 109.505 130.901C121.327 130.901 130.911 121.317 130.911 109.495C130.911 106.8 130.416 104.221 129.508 101.848L128.329 102.737L118.497 110.154L118.311 110.291ZM89.5187 86.4487L89.5268 86.442C89.5796 86.398 89.6572 86.3318 89.7402 86.2611C89.8486 86.1686 89.9661 86.0685 90.0489 86.0002C90.1213 85.939 90.1924 85.8816 90.2541 85.8318L90.2576 85.829C90.3243 85.7751 90.3808 85.7294 90.4359 85.6828L90.4468 85.6736L90.4579 85.6647C95.6768 81.4958 102.301 79 109.495 79C117.031 79 123.926 81.7243 129.249 86.2573M90.6933 86.772C90.6011 86.8479 90.509 86.9267 90.4153 87.0068C90.3352 87.0754 90.2539 87.1449 90.1704 87.2144C83.9468 92.6237 80.0054 100.597 80.0054 109.495C80.0054 112.712 80.5182 115.819 81.4734 118.725C85.3443 130.499 96.4343 138.995 109.495 138.995C125.783 138.995 138.995 125.783 138.995 109.495C138.995 100.486 134.963 92.4327 128.598 87.0234C123.45 82.6397 116.784 80.0054 109.495 80.0054C102.537 80.0054 96.1327 82.4185 91.0854 86.4503C91.02 86.5056 90.9547 86.5584 90.8893 86.6112C90.824 86.6639 90.7586 86.7167 90.6933 86.772ZM129.249 86.2573C135.829 91.8495 140 100.179 140 109.495C140 126.338 126.338 140 109.495 140C95.9876 140 84.5209 131.213 80.5182 119.039C79.5299 116.032 79 112.82 79 109.495C79 100.293 83.0772 92.0473 89.5109 86.4556L89.5187 86.4487" fill="#333333"/>
</g>
<defs>
<linearGradient id="paint0_linear_125_277" x1="48.6726" y1="36.7199" x2="62.4494" y2="57.502" gradientUnits="userSpaceOnUse">
<stop stop-color="#FFC671"/>
<stop offset="1" stop-color="#FF6F3D"/>
</linearGradient>
<linearGradient id="paint1_linear_125_277" x1="26.8465" y1="22.6148" x2="32.9959" y2="29.3536" gradientUnits="userSpaceOnUse">
<stop stop-color="#FFC671"/>
<stop offset="1" stop-color="#FF6F3D"/>
</linearGradient>
<linearGradient id="paint2_linear_125_277" x1="89.752" y1="79.0147" x2="114.787" y2="117.646" gradientUnits="userSpaceOnUse">
<stop stop-color="#FFC671"/>
<stop offset="1" stop-color="#FF6F3D"/>
</linearGradient>
<clipPath id="clip0_125_277">
<rect width="140" height="140" fill="white"/>
</clipPath>
</defs>
</svg>
