<svg width="140" height="140" viewBox="0 0 140 140" fill="none" xmlns="http://www.w3.org/2000/svg">
<g clip-path="url(#clip0_125_174)">
<path fill-rule="evenodd" clip-rule="evenodd" d="M0 60.0419C0 56.6082 3.19064 53.001 6.72959 53.001H113.596C117.135 53.001 120 55.7902 120 59.224V119.778C120 123.212 117.135 126.001 113.596 126.001H6.71755C3.1786 126.001 0 122.832 0 119.399V60.0419Z" fill="white"/>
<path fill-rule="evenodd" clip-rule="evenodd" d="M71.7991 87C56.5879 98.0378 58.1309 95.6674 46.1878 87L3 124.062C3.51665 125.236 5.5 126 7.80608 125.99H110.921C115.102 126.026 116 125.99 118 125.493L71.7991 87Z" fill="#EFEFEF"/>
<path fill-rule="evenodd" clip-rule="evenodd" d="M70.7454 86.1848C70.9206 85.9689 71.2355 85.9376 71.4487 86.1151L82.8175 95.5754C83.0307 95.7528 83.0616 96.0717 82.8864 96.2877C82.7112 96.5036 82.3963 96.5348 82.1831 96.3574L70.8143 86.8971C70.601 86.7197 70.5702 86.4008 70.7454 86.1848ZM46.1567 86.5773C46.3363 86.7895 46.3122 87.109 46.1027 87.2909L2.82501 124.878C2.61551 125.06 2.30004 125.036 2.12039 124.823C1.94073 124.611 1.96492 124.292 2.17442 124.11L45.4521 86.5226C45.6616 86.3406 45.977 86.3651 46.1567 86.5773Z" fill="#333333"/>
<path fill-rule="evenodd" clip-rule="evenodd" d="M97 39V69L118 55H119L97 39Z" fill="#BDECFF"/>
<path fill-rule="evenodd" clip-rule="evenodd" d="M53.3125 18.1293C52.0841 18.8158 54.7771 19 56.2014 19H65.8713C67.2956 19 69.9091 18.6373 68.6808 17.9508L64.6011 15.0343C62.8833 13.9034 59.9383 13.4275 57.4844 15.0342L53.3125 18.1293Z" fill="#BDECFF"/>
<path fill-rule="evenodd" clip-rule="evenodd" d="M23 39V71L2 54.9621L23 39Z" fill="#BDECFF"/>
<path fill-rule="evenodd" clip-rule="evenodd" d="M57.3112 15.142L3.4598 54.7276C1.94604 55.7915 1.00415 57.648 1.00415 59.4461V120.335C1.00415 123.395 4.07381 126 7.36059 126H85.4547C85.732 126 85.9568 126.224 85.9568 126.5C85.9568 126.776 85.732 127 85.4547 127H7.36059C3.64572 127 0 124.066 0 120.335V59.4461C0 57.3292 1.09495 55.1679 2.87627 53.9137L56.7274 14.3283C59.1146 12.6479 62.0657 12.47 64.7697 14.325L64.7773 14.3302L118.177 53.9149C119.941 55.166 121 57.1921 121 59.3134V89.8244C121 90.1005 120.775 90.3243 120.498 90.3243C120.221 90.3243 119.996 90.1005 119.996 89.8244V59.3134C119.996 57.52 119.097 55.7933 117.59 54.7266L117.581 54.7202L64.1926 15.1433C61.8529 13.5422 59.3657 13.698 57.3112 15.142Z" fill="#333333"/>
<path d="M71.355 86.2632L118.106 54.8239M46.2929 87.2812L2.14844 55.2785" stroke="#333333"/>
<path d="M61.7033 93.3436L61.7136 93.3372L61.7236 93.3303L96.2838 69.5027L96.5 69.3536V69.091V19.2633C96.5 18.294 95.7296 17.5 94.7711 17.5H36.3226H36.1139L35.9671 17.6483L21.6446 32.1245L21.5 32.2706V32.4762V69.0392V69.2941L21.7063 69.4439L54.1786 93.0134L54.1785 93.0135L54.1875 93.0197C55.2643 93.7659 56.3729 94.3416 57.6169 94.4721C58.8738 94.604 60.201 94.2752 61.7033 93.3436Z" fill="white" stroke="#333333"/>
<path fill-rule="evenodd" clip-rule="evenodd" d="M74 51.2618C74 53.122 73.7218 54.8297 73.1653 56.3748C72.6088 57.9098 71.8238 59.1093 70.8003 59.9631C69.7966 60.817 68.634 61.2541 67.3024 61.2541C66.3187 61.2541 65.474 60.9797 64.7585 60.4307C64.0431 59.8818 63.5562 59.1398 63.3077 58.2046H63.0891C62.4829 59.2211 61.7377 59.9835 60.8433 60.4917C59.949 61 58.9453 61.2541 57.8324 61.2541C55.8152 61.2541 54.2153 60.5731 53.0527 59.2008C51.9 57.8386 51.3236 55.9886 51.3236 53.6607C51.3236 50.9771 52.0888 48.8119 53.629 47.1449C55.1693 45.4676 57.2262 44.6239 59.8198 44.6239C60.7638 44.6239 61.8072 44.7154 62.9401 44.8983C64.0928 45.0712 65.1163 45.305 66.0106 45.6201L65.6032 54.6976V55.1652C65.6032 57.249 66.2491 58.2859 67.5409 58.2859C68.5247 58.2859 69.2998 57.6252 69.8662 56.2935C70.4525 54.9619 70.7406 53.2745 70.7406 51.2211C70.7406 48.9949 70.3034 47.0432 69.4389 45.3659C68.5744 43.6785 67.3422 42.3774 65.7423 41.4625C64.1424 40.5578 62.3041 40.1004 60.2372 40.1004C57.5939 40.1004 55.2985 40.6696 53.3408 41.8183C51.3932 42.967 49.9026 44.6036 48.8791 46.7382C47.8456 48.8628 47.3389 51.3227 47.3389 54.1283C47.3389 57.8996 48.3028 60.8069 50.2206 62.8297C52.1385 64.8628 54.901 65.8793 58.4982 65.8793C61.2408 65.8793 64.0927 65.2897 67.0739 64.1207V67.3227C64.4704 68.4409 61.6383 69 58.5777 69C53.9867 69 50.4194 67.709 47.8457 65.1169C45.2819 62.5146 44 58.8958 44 54.2503C44 50.8551 44.6956 47.8361 46.0868 45.1931C47.478 42.54 49.3958 40.507 51.8503 39.1042C54.3147 37.7014 57.107 37 60.2173 37C62.9102 37 65.2951 37.5896 67.3919 38.7586C69.4985 39.9276 71.1282 41.6048 72.2809 43.77C73.4237 45.925 74 48.4257 74 51.2618ZM54.8811 53.7319C54.8811 56.7611 56.0139 58.2757 58.2796 58.2757C60.6744 58.2757 61.9762 56.3748 62.2047 52.5629L62.4233 47.8971C61.6383 47.6734 60.8036 47.5616 59.9093 47.5616C58.3193 47.5616 57.0871 48.1105 56.1928 49.2185C55.3283 50.3367 54.8811 51.831 54.8811 53.7319Z" fill="url(#paint0_linear_125_174)"/>
<path d="M36.5 18C36.5 17.7978 36.3782 17.6155 36.1913 17.5381C36.0045 17.4607 35.7894 17.5034 35.6464 17.6464L21.6464 31.6464C21.5034 31.7894 21.4607 32.0045 21.5381 32.1913C21.6155 32.3782 21.7978 32.5 22 32.5H36C36.2761 32.5 36.5 32.2761 36.5 32V18Z" fill="url(#paint1_linear_125_174)" stroke="#333333" stroke-linejoin="round"/>
<path fill-rule="evenodd" clip-rule="evenodd" d="M133.441 128.975L109 128.975L109 134.975C109 137.095 106.338 138.91 104.747 137.503C96.7495 130.399 88.3647 124.213 80.4656 117.007C78.5116 115.021 78.5113 111.92 80.4655 110.086C88.1051 102.759 98.1874 94.863 104.746 89.436C106.338 88.0097 109 90.3593 109 92.4987L109 97.9631L133.441 97.9632C137.265 97.9632 140 101.32 140 104.166L140 122.773C140 125.976 137.265 128.975 133.441 128.975Z" fill="#BDECFF"/>
<path fill-rule="evenodd" clip-rule="evenodd" d="M108 127.975L133.441 127.975C136.722 127.975 139 125.415 139 122.773L139 104.166C139 103.046 138.45 101.735 137.437 100.694C136.438 99.6657 135.048 98.9626 133.441 98.9626L108 98.9626L108 92.4987C108 91.8059 107.537 90.9518 106.853 90.4171C106.155 89.8708 105.677 89.9439 105.414 90.1801L105.399 90.1932L105.384 90.2058C103.932 91.4074 102.313 92.7254 100.59 94.1281C94.4907 99.0933 87.0872 105.121 81.1579 110.807L81.1499 110.815C79.6385 112.233 79.5914 114.674 81.1607 116.288C85.0812 119.863 89.1254 123.19 93.2022 126.52C93.483 126.749 93.764 126.978 94.0451 127.208C97.8459 130.311 101.669 133.433 105.41 136.755C105.764 137.068 106.311 137.11 106.938 136.715C107.573 136.316 108 135.624 108 134.975L108 127.975ZM104.747 137.503C106.338 138.91 109 137.095 109 134.975L109 128.975L133.441 128.975C137.265 128.975 140 125.976 140 122.773L140 104.166C140 101.32 137.265 97.9632 133.441 97.9632L109 97.9631L109 92.4987C109 90.3593 106.338 88.0097 104.746 89.436C103.306 90.6276 101.696 91.9383 99.9793 93.3358C93.8776 98.3031 86.4277 104.368 80.4655 110.086C78.5113 111.92 78.5116 115.021 80.4656 117.007C84.686 120.857 89.0449 124.416 93.4094 127.979C97.2137 131.085 101.022 134.195 104.747 137.503Z" fill="#333333"/>
</g>
<defs>
<linearGradient id="paint0_linear_125_174" x1="48.6726" y1="36.7194" x2="62.4494" y2="57.5016" gradientUnits="userSpaceOnUse">
<stop stop-color="#FFC671"/>
<stop offset="1" stop-color="#FF6F3D"/>
</linearGradient>
<linearGradient id="paint1_linear_125_174" x1="26.8465" y1="22.6148" x2="32.9959" y2="29.3536" gradientUnits="userSpaceOnUse">
<stop stop-color="#FFC671"/>
<stop offset="1" stop-color="#FF6F3D"/>
</linearGradient>
<clipPath id="clip0_125_174">
<rect width="140" height="140" fill="white"/>
</clipPath>
</defs>
</svg>
