<svg width="140" height="140" viewBox="0 0 140 140" fill="none" xmlns="http://www.w3.org/2000/svg">
<path d="M28 76.5H28.5V76V46V45.5H28H20.5C18.0909 45.5 16.0894 46.5828 14.6973 48.0658C13.3133 49.5402 12.5 51.4441 12.5 53.144V76V76.5H13H28Z" fill="#BDECFF" stroke="#333333"/>
<path d="M110 44.5H109.5V45V65V65.5H110H125H125.5V65V51.512C125.5 47.1762 121.893 44.5 118.333 44.5H110Z" fill="#BDECFF" stroke="#333333"/>
<path d="M101 9.5H101.5V10V77V77.5013L100.999 77.5L20.9988 77.3006L20.4987 77.2994L20.5 76.7993L20.6369 24.9553L20.6374 24.7502L20.7818 24.6046L35.609 9.64799L35.7557 9.5H35.964H101Z" fill="white" stroke="#333333"/>
<path d="M35.6478 9.64515C35.791 9.50291 36.0058 9.46081 36.1922 9.53841C36.3786 9.61602 36.5 9.7981 36.5 10V25C36.5 25.1332 36.4468 25.261 36.3523 25.3548C36.2577 25.4487 36.1296 25.501 35.9963 25.5L20.9963 25.3899C20.7944 25.3884 20.6132 25.2657 20.537 25.0787C20.4608 24.8918 20.5045 24.6773 20.6478 24.5351L35.6478 9.64515Z" fill="url(#paint0_linear_125_513)" stroke="#333333" stroke-linejoin="round"/>
<path d="M116 23.5L116.5 23.5V24V90.9999V91.4999H116H35H34.5V90.9999V38.9589V38.7502L34.6484 38.6035L49.7693 23.6444L49.9154 23.4999L50.1209 23.4999L116 23.5Z" fill="white" stroke="#333333"/>
<path d="M49.6464 23.6463C49.7894 23.5033 50.0045 23.4605 50.1913 23.5379C50.3782 23.6153 50.5 23.7977 50.5 23.9999L50.4995 38.9999C50.4995 39.276 50.2756 39.4999 49.9995 39.4999H35C34.7978 39.4999 34.6155 39.3781 34.5381 39.1912C34.4607 39.0044 34.5034 38.7893 34.6464 38.6463L49.6464 23.6463Z" fill="#BDECFF" stroke="#333333" stroke-linejoin="round"/>
<path fill-rule="evenodd" clip-rule="evenodd" d="M107 67.4999C107 67.2237 106.774 66.9999 106.494 66.9999H46.5056C46.2263 66.9999 46 67.2237 46 67.4999C46 67.776 46.2263 67.9999 46.5056 67.9999H106.494C106.774 67.9999 107 67.776 107 67.4999Z" fill="#333333"/>
<path fill-rule="evenodd" clip-rule="evenodd" d="M108.003 49.4999C108.003 49.2237 107.777 48.9999 107.499 48.9999H59.5067C59.2285 48.9999 59.0029 49.2237 59.0029 49.4999C59.0029 49.776 59.2285 49.9999 59.5067 49.9999H107.499C107.777 49.9999 108.003 49.776 108.003 49.4999Z" fill="#333333"/>
<path fill-rule="evenodd" clip-rule="evenodd" d="M108.003 58.4999C108.003 58.2237 107.779 57.9999 107.503 57.9999H46.5028C46.2267 57.9999 46.0028 58.2237 46.0028 58.4999C46.0028 58.776 46.2267 58.9999 46.5028 58.9999H107.503C107.779 58.9999 108.003 58.776 108.003 58.4999Z" fill="#333333"/>
<path d="M107.085 67.4999H82.8521" stroke="#333333" stroke-linecap="round"/>
<path fill-rule="evenodd" clip-rule="evenodd" d="M94 36.9999C94 36.4476 93.5481 35.9999 92.9906 35.9999H65.0094C64.4519 35.9999 64 36.4476 64 36.9999C64 37.5522 64.4519 37.9999 65.0094 37.9999H92.9906C93.5481 37.9999 94 37.5522 94 36.9999Z" fill="url(#paint1_linear_125_513)"/>
<path fill-rule="evenodd" clip-rule="evenodd" d="M66.0888 67.3196L58.3778 76.0851H14.3936C10.7535 76.0851 7.63635 79.2142 8.03436 81.897L15.1294 125.497C15.5357 128.18 18.3757 131 22.0158 131H119.468C123.108 131 125.104 128.612 125.311 125.92L131.959 69.1614C132.291 67.471 130.581 65 127.605 65H71.2589C69.2771 65 67.5067 65.8731 66.0888 67.3196Z" fill="url(#paint2_linear_125_513)" stroke="#333333"/>
<path fill-rule="evenodd" clip-rule="evenodd" d="M61 82V88.7467C61 89.6452 60.6359 90.4586 60.0473 91.0472C59.4586 91.6359 58.6452 92 57.7467 92H51V90.9543H57.7467C58.3509 90.9543 58.9086 90.7064 59.3036 90.3036C59.7064 89.9009 59.9543 89.3509 59.9543 88.7467V82H61V82Z" fill="white"/>
<path fill-rule="evenodd" clip-rule="evenodd" d="M88.9335 84.3041C88.9335 83.7129 88.7472 83.1692 88.3219 82.7474C87.9377 82.3661 87.4044 82.112 86.8398 82.0722H60.3509L51.09 91.4603L53.3092 119.624C53.364 120.284 53.6307 120.879 54.0463 121.3C54.4305 121.689 54.9559 121.936 55.5519 121.936H84.4168C85.0127 121.936 85.546 121.689 85.9381 121.292C86.3537 120.871 86.6203 120.284 86.6595 119.632L88.9335 84.3041ZM90 84.177L87.7181 119.696C87.6554 120.609 87.279 121.443 86.6908 122.047C86.1106 122.635 85.3186 123 84.4246 123H55.5519C54.6579 123 53.8816 122.635 53.3013 122.055C52.7132 121.459 52.329 120.617 52.2584 119.712L50 91.0552L59.9196 81L86.9104 81.0079C87.7338 81.0635 88.5022 81.4289 89.0668 81.9849C89.6314 82.5567 90 83.3192 90 84.177Z" fill="white"/>
<defs>
<linearGradient id="paint0_linear_125_513" x1="39.2545" y1="9.19725" x2="30.8123" y2="22.9462" gradientUnits="userSpaceOnUse">
<stop stop-color="#FFC671"/>
<stop offset="1" stop-color="#FF6F3D"/>
</linearGradient>
<linearGradient id="paint1_linear_125_513" x1="93.9999" y1="35.9218" x2="93.7442" y2="39.9083" gradientUnits="userSpaceOnUse">
<stop stop-color="#FF8E3D"/>
<stop offset="1" stop-color="#FF6F3D"/>
</linearGradient>
<linearGradient id="paint2_linear_125_513" x1="39.0947" y1="43.3584" x2="84.7555" y2="112.829" gradientUnits="userSpaceOnUse">
<stop stop-color="#FFC671"/>
<stop offset="1" stop-color="#FF6F3D"/>
</linearGradient>
</defs>
</svg>
