<svg width="140" height="140" viewBox="0 0 140 140" fill="none" xmlns="http://www.w3.org/2000/svg">
<g clip-path="url(#clip0_125_206)">
<path fill-rule="evenodd" clip-rule="evenodd" d="M1 60.041C1 54 4.16405 53 7.67351 53H113.65C117.159 53 120 55.7892 120 59.223V119.777C120 123.211 117.159 126 113.65 126H7.66157C3 126 1 126 1 119.398V60.041Z" fill="white"/>
<path fill-rule="evenodd" clip-rule="evenodd" d="M71.5 87C56.4866 97.5012 57.7878 95.2461 46 87L3 124.164C3.50993 125.28 5.5 126 7.74358 125.997H109.517C113.644 126.031 115.411 125.758 117 124.221L71.5 87Z" fill="#EFEFEF"/>
<path d="M71.488 87L77.1607 91.7317L79.9971 94.0975M46.1859 87.4008L2.99707 125" stroke="#333333" stroke-linecap="round" stroke-linejoin="round"/>
<path fill-rule="evenodd" clip-rule="evenodd" d="M97 39V69L119 55L97 39Z" fill="#BDECFF"/>
<path fill-rule="evenodd" clip-rule="evenodd" d="M53.2929 18.1293C52.1414 18.8158 54.666 19 56.0013 19H65.0668C66.4022 19 68.8523 18.6373 67.7007 17.9508L63.876 15.0343C62.2656 13.9034 59.5047 13.4275 57.2041 15.0342L53.2929 18.1293Z" fill="#BDECFF"/>
<path fill-rule="evenodd" clip-rule="evenodd" d="M23 40V71L2 55.4633L23 40Z" fill="#BDECFF"/>
<path fill-rule="evenodd" clip-rule="evenodd" d="M57.0743 15.142L3.4455 54.7276C1.938 55.7915 1 57.648 1 59.4461V120.335C1 123.395 4.05698 126 7.33017 126H73.1015C73.3777 126 73.6015 126.224 73.6015 126.5C73.6015 126.776 73.3777 127 73.1015 127H7.33017C3.63066 127 0 124.066 0 120.335V59.4461C0 57.3292 1.09043 55.1679 2.86438 53.9137L56.4929 14.3283C58.8703 12.6479 61.8092 12.47 64.502 14.325L64.5091 14.3298L118.184 54.0817C118.185 54.0826 118.187 54.0836 118.188 54.0846C119.945 55.3356 121 57.3619 121 59.4835V87.9946C121 88.2707 120.776 88.4945 120.5 88.4945C120.224 88.4945 120 88.2707 120 87.9946V59.4835C120 57.69 119.105 55.9634 117.604 54.8966L117.597 54.891L63.9277 15.1436C61.5976 13.5422 59.1205 13.6979 57.0743 15.142Z" fill="#333333"/>
<path d="M71.8286 85.9963L119 55M46.5412 87L2 55.4482" stroke="#333333"/>
<path d="M61.7033 93.3436L61.7136 93.3372L61.7236 93.3303L96.2838 69.5027L96.5 69.3536V69.091V19.2633C96.5 18.294 95.7296 17.5 94.7711 17.5H36.3226H36.1139L35.9671 17.6483L21.6446 32.1245L21.5 32.2706V32.4762V69.0392V69.2941L21.7063 69.4439L54.1786 93.0134L54.1785 93.0135L54.1875 93.0197C55.2643 93.7659 56.3729 94.3416 57.6169 94.4721C58.8738 94.604 60.201 94.2752 61.7033 93.3436Z" fill="white" stroke="#333333"/>
<path fill-rule="evenodd" clip-rule="evenodd" d="M74 51.2618C74 53.122 73.7218 54.8297 73.1653 56.3748C72.6088 57.9098 71.8238 59.1093 70.8003 59.9631C69.7966 60.817 68.634 61.2541 67.3024 61.2541C66.3187 61.2541 65.474 60.9797 64.7585 60.4307C64.0431 59.8818 63.5562 59.1398 63.3077 58.2046H63.0891C62.4829 59.2211 61.7377 59.9835 60.8433 60.4917C59.949 61 58.9453 61.2541 57.8324 61.2541C55.8152 61.2541 54.2153 60.5731 53.0527 59.2008C51.9 57.8386 51.3236 55.9886 51.3236 53.6607C51.3236 50.9771 52.0888 48.8119 53.629 47.1449C55.1693 45.4676 57.2262 44.6239 59.8198 44.6239C60.7638 44.6239 61.8072 44.7154 62.9401 44.8983C64.0928 45.0712 65.1163 45.305 66.0106 45.6201L65.6032 54.6976V55.1652C65.6032 57.249 66.2491 58.2859 67.5409 58.2859C68.5247 58.2859 69.2998 57.6252 69.8662 56.2935C70.4525 54.9619 70.7406 53.2745 70.7406 51.2211C70.7406 48.9949 70.3034 47.0432 69.4389 45.3659C68.5744 43.6785 67.3422 42.3774 65.7423 41.4625C64.1424 40.5578 62.3041 40.1004 60.2372 40.1004C57.5939 40.1004 55.2985 40.6696 53.3408 41.8183C51.3932 42.967 49.9026 44.6036 48.8791 46.7382C47.8456 48.8628 47.3389 51.3227 47.3389 54.1283C47.3389 57.8996 48.3028 60.8069 50.2206 62.8297C52.1385 64.8628 54.901 65.8793 58.4982 65.8793C61.2408 65.8793 64.0927 65.2897 67.0739 64.1207V67.3227C64.4704 68.4409 61.6383 69 58.5777 69C53.9867 69 50.4194 67.709 47.8457 65.1169C45.2819 62.5146 44 58.8958 44 54.2503C44 50.8551 44.6956 47.8361 46.0868 45.1931C47.478 42.54 49.3958 40.507 51.8503 39.1042C54.3147 37.7014 57.107 37 60.2173 37C62.9102 37 65.2951 37.5896 67.3919 38.7586C69.4985 39.9276 71.1282 41.6048 72.2809 43.77C73.4237 45.925 74 48.4257 74 51.2618ZM54.8811 53.7319C54.8811 56.7611 56.0139 58.2757 58.2796 58.2757C60.6744 58.2757 61.9762 56.3748 62.2047 52.5629L62.4233 47.8971C61.6383 47.6734 60.8036 47.5616 59.9093 47.5616C58.3193 47.5616 57.0871 48.1105 56.1928 49.2185C55.3283 50.3367 54.8811 51.831 54.8811 53.7319Z" fill="url(#paint0_linear_125_206)"/>
<path d="M36.5 18C36.5 17.7978 36.3782 17.6155 36.1913 17.5381C36.0045 17.4607 35.7894 17.5034 35.6464 17.6464L21.6464 31.6464C21.5034 31.7894 21.4607 32.0045 21.5381 32.1913C21.6155 32.3782 21.7978 32.5 22 32.5H36C36.2761 32.5 36.5 32.2761 36.5 32V18Z" fill="url(#paint1_linear_125_206)" stroke="#333333" stroke-linejoin="round"/>
<path d="M110.5 128.975V128.475H110H85.5588C82.0066 128.475 79.5 125.695 79.5 122.773L79.5 104.166C79.5 102.895 80.1171 101.464 81.2041 100.346C82.2847 99.2344 83.7996 98.4632 85.5588 98.4632L110 98.4632H110.5V97.9632V92.4987C110.5 91.6177 111.064 90.6296 111.838 90.024C112.62 89.4126 113.39 89.3336 113.92 89.8083L113.928 89.8149L113.935 89.8212C115.381 91.0178 116.996 92.3321 118.716 93.7322C124.816 98.6985 132.243 104.745 138.188 110.447L138.192 110.451C139.925 112.076 139.949 114.847 138.187 116.647C134.252 120.236 130.194 123.574 126.114 126.906C125.834 127.135 125.553 127.364 125.273 127.593C121.47 130.698 117.654 133.813 113.922 137.129C113.347 137.637 112.542 137.607 111.796 137.138C111.046 136.667 110.5 135.829 110.5 134.975V128.975Z" fill="url(#paint2_linear_125_206)" stroke="#333333"/>
</g>
<defs>
<linearGradient id="paint0_linear_125_206" x1="48.6726" y1="36.7194" x2="62.4494" y2="57.5016" gradientUnits="userSpaceOnUse">
<stop stop-color="#FFC671"/>
<stop offset="1" stop-color="#FF6F3D"/>
</linearGradient>
<linearGradient id="paint1_linear_125_206" x1="26.8465" y1="22.6148" x2="32.9959" y2="29.3536" gradientUnits="userSpaceOnUse">
<stop stop-color="#FFC671"/>
<stop offset="1" stop-color="#FF6F3D"/>
</linearGradient>
<linearGradient id="paint2_linear_125_206" x1="79.0001" y1="87.0859" x2="126.456" y2="148.471" gradientUnits="userSpaceOnUse">
<stop stop-color="#FF8E3D"/>
<stop offset="1" stop-color="#FF6F3D"/>
</linearGradient>
<clipPath id="clip0_125_206">
<rect width="140" height="140" fill="white"/>
</clipPath>
</defs>
</svg>
