<svg width="140" height="140" viewBox="0 0 140 140" fill="none" xmlns="http://www.w3.org/2000/svg">
<path d="M126.5 35.781V35.7801C126.489 29.5677 121.377 24.5 115.144 24.5H14.8556C8.61271 24.5 3.5 29.5779 3.5 35.7909V92.209C3.5 98.422 8.6127 103.5 14.8556 103.5H115.144C121.387 103.5 126.5 98.422 126.5 92.209V35.781Z" fill="#FEFEFE" stroke="#333333"/>
<path d="M105.903 42.5H25.0968C22.5084 42.5 20.5 44.9192 20.5 47.7149V54.285C20.5 57.0799 22.4974 59.5 25.0968 59.5H105.903C108.491 59.5 110.5 57.0934 110.5 54.285V47.7149C110.5 44.92 108.503 42.5 105.903 42.5Z" fill="#BDECFF" stroke="#333333"/>
<path fill-rule="evenodd" clip-rule="evenodd" d="M32.3016 49.0903C31.6129 51.0887 30.9242 53.0984 30.2242 55.0968C30.1452 55.3226 30.0548 55.4919 29.9306 55.6274C29.8064 55.7629 29.6597 55.8532 29.479 55.9097C29.2984 55.9661 29.0839 56 28.8242 56C28.7564 56 28.7 56 28.6323 56C28.6323 55.6952 28.6323 55.3903 28.6323 55.0742C28.7 55.0742 28.7564 55.0742 28.8242 55.0742C29.0048 55.0742 29.1403 55.0403 29.2532 54.9725C29.3548 54.9048 29.4452 54.7807 29.5242 54.6C29.5919 54.3742 29.6823 54.1145 29.7613 53.8887C29.9081 53.4371 30.0435 53.0081 30.1903 52.5565C30.5629 51.4162 30.9468 50.2532 31.3193 49.0903C31.6581 49.0903 31.9855 49.0903 32.3016 49.0903ZM77.0676 50.8177V53.9565C76.7515 53.9565 76.4354 53.9565 76.108 53.9565C76.108 52.3307 76.108 50.7049 76.108 49.0903C76.4241 49.0903 76.7402 49.0903 77.0676 49.0903V49.7451C77.2031 49.5419 77.3725 49.3838 77.5644 49.2597C77.8015 49.1016 78.0725 49.0226 78.366 49.0226C78.8967 49.0226 79.3031 49.1919 79.5967 49.5419C79.8902 49.8919 80.0257 50.3774 80.0257 51.0097C80.0257 51.992 80.0257 52.9855 80.0257 53.9678C79.7096 53.9678 79.3934 53.9678 79.066 53.9678C79.066 52.9855 79.066 52.0032 79.066 51.0209C79.066 50.6709 78.9757 50.4113 78.7951 50.2194C78.6144 50.0274 78.366 49.9371 78.0499 49.9371C77.7338 49.9371 77.4967 50.0161 77.3273 50.1855C77.1918 50.3097 77.1128 50.479 77.0789 50.6935V50.7048L77.0676 50.8177V50.8742V50.8177ZM101.127 49.9823C101.116 49.9597 101.116 49.9484 101.105 49.9258C100.98 49.6323 100.789 49.4064 100.551 49.2484C100.314 49.0903 100.021 49.0113 99.6821 49.0113C99.3886 49.0113 99.1176 49.0903 98.8805 49.2484C98.6434 49.4064 98.5418 49.4629 98.395 49.7564C98.395 50.129 98.395 50.5016 98.395 50.8629C98.395 50.5581 98.4853 50.3323 98.6547 50.1629C98.824 49.9936 99.0611 49.9145 99.3773 49.9145C99.6821 49.9145 99.9305 50.0048 100.1 50.1968C100.269 50.3887 100.348 50.6484 100.348 50.9984C100.348 51.9807 100.348 52.9629 100.348 53.9452C100.664 53.9452 100.98 53.9452 101.308 53.9452C101.308 52.9629 101.308 51.9807 101.308 50.9871C101.297 50.8065 101.319 50.6145 101.398 50.4339C101.443 50.3436 101.489 50.2532 101.556 50.1855C101.714 50.0048 101.951 49.9145 102.245 49.9145C102.572 49.9145 102.821 50.0048 103.001 50.1968C103.182 50.3887 103.272 50.6484 103.272 50.9984C103.272 51.9807 103.272 52.9629 103.272 53.9452C103.589 53.9452 103.916 53.9452 104.232 53.9452C104.232 52.9629 104.232 51.9807 104.232 50.9871C104.232 50.5694 104.164 50.2081 104.04 49.9145C103.905 49.621 103.724 49.3952 103.476 49.2371C103.227 49.0791 102.922 49 102.572 49C102.268 49 101.997 49.0903 101.737 49.271C101.466 49.4516 101.274 49.6887 101.127 49.9823ZM82.5886 53.8774C82.6451 54.0355 82.7015 54.1935 82.7692 54.3516C82.1257 52.6016 81.4709 50.8403 80.8273 49.079C81.1547 49.079 81.4821 49.079 81.7983 49.079C82.2047 50.2307 82.6112 51.3936 83.0176 52.5452C82.8821 52.9968 82.7354 53.4371 82.5886 53.8774ZM28 49.0903C28.5871 50.671 29.1855 52.2968 29.7613 53.8774L30.1903 52.5452C29.7839 51.3936 29.3661 50.2307 28.971 49.079C28.6435 49.0903 28.3161 49.0903 28 49.0903ZM34.921 54.0242C34.4919 54.0242 34.1419 53.9451 33.8371 53.7758C33.5322 53.6064 33.3064 53.3694 33.1484 53.0532C32.9903 52.7371 32.9113 52.3532 32.9113 51.9016C32.9113 51.6419 32.9113 51.371 32.9113 51.1113C32.9113 50.671 32.9903 50.2871 33.1484 49.9823C33.3064 49.6661 33.5322 49.429 33.8371 49.2597C34.1419 49.0903 34.4919 49.0113 34.921 49.0113C35.3387 49.0113 35.7 49.0903 36.0048 49.2597C36.3097 49.4177 36.5355 49.6661 36.6935 49.9823C36.8516 50.2984 36.9306 50.671 36.9306 51.1113C36.9306 51.3822 36.9306 51.6532 36.9306 51.9129C36.9306 52.3532 36.8516 52.7371 36.6935 53.0532C36.5355 53.3694 36.3097 53.6064 36.0048 53.7758C35.7113 53.9451 35.35 54.0242 34.921 54.0242ZM34.921 53.121C35.2597 53.121 35.508 53.0193 35.7 52.8048C35.8806 52.5903 35.971 52.2968 35.971 51.9242C35.971 51.6533 35.971 51.3823 35.971 51.1226C35.971 50.75 35.8806 50.4564 35.7 50.2419C35.5193 50.0387 35.2597 49.9258 34.921 49.9258C34.5822 49.9258 34.3226 50.0274 34.1419 50.2419C33.9613 50.4451 33.871 50.7387 33.871 51.1226C33.871 51.3935 33.871 51.6645 33.871 51.9242C33.871 52.3081 33.9613 52.5903 34.1419 52.8048C34.3339 53.0193 34.5935 53.121 34.921 53.121ZM41.108 49.0903C41.4242 49.0903 41.7403 49.0903 42.0564 49.0903C42.0564 50.7161 42.0564 52.3419 42.0564 53.9565C41.7403 53.9565 41.4242 53.9565 41.108 53.9565C41.108 52.3419 41.108 50.7161 41.108 49.0903ZM39.1322 52.0484C39.1322 51.0661 39.1322 50.0726 39.1322 49.0903C38.8161 49.0903 38.5 49.0903 38.1726 49.0903C38.1726 50.0726 38.1726 51.0661 38.1726 52.0484C38.1726 52.6807 38.3193 53.1661 38.6129 53.5048C38.9064 53.8548 39.3242 54.0242 39.8548 54.0242C40.1822 54.0242 40.4532 53.9451 40.6903 53.7758C40.8709 53.6516 41.0177 53.4822 41.108 53.3016V52.15C41.108 52.4548 41.0177 52.6919 40.8484 52.8613C40.679 53.0306 40.4306 53.1097 40.1258 53.1097C39.8097 53.1097 39.5613 53.0194 39.3919 52.8274C39.2226 52.6581 39.1322 52.3871 39.1322 52.0484ZM43.5129 49.0903C43.829 49.0903 44.1564 49.0903 44.4725 49.0903C44.4725 50.7161 44.4725 52.3419 44.4725 53.9565C44.1564 53.9565 43.8403 53.9565 43.5129 53.9565C43.5129 52.3419 43.5129 50.7161 43.5129 49.0903ZM46.2 50.2419C46.4032 49.9596 46.6177 49.6774 46.8209 49.3951C46.6854 49.2709 46.5274 49.1806 46.3467 49.1129C46.1661 49.0451 45.9629 49.0113 45.7484 49.0113C45.4661 49.0113 45.1951 49.0903 44.958 49.2484C44.7774 49.3725 44.608 49.5532 44.4725 49.7564V50.8629C44.4725 50.5694 44.5516 50.3323 44.7209 50.1629C44.8903 49.9936 45.1274 49.9145 45.4209 49.9145C45.5903 49.9145 45.7371 49.9484 45.8725 49.9936C46.008 50.0613 46.1096 50.1403 46.2 50.2419ZM49.4854 54.0242C49.0451 54.0242 48.6612 53.9451 48.3451 53.7758C48.029 53.6064 47.7919 53.3694 47.6225 53.0532C47.4532 52.7371 47.3742 52.3532 47.3742 51.9129C47.3742 51.6419 47.3742 51.3822 47.3742 51.1113C47.3742 50.671 47.4532 50.2984 47.6225 49.9823C47.7919 49.6661 48.029 49.429 48.3451 49.271C48.6612 49.1016 49.0338 49.0226 49.4854 49.0226C49.7451 49.0226 49.9709 49.0564 50.1967 49.1129C50.4225 49.1693 50.6258 49.2597 50.7951 49.3839C50.9758 49.4968 51.1225 49.6436 51.2354 49.8016C51.0096 50.0049 50.7725 50.2194 50.5467 50.4226C50.4112 50.2645 50.2532 50.1516 50.0612 50.0613C49.8806 49.9823 49.6887 49.9371 49.4854 49.9371C49.1129 49.9371 48.8306 50.0387 48.6274 50.2532C48.4242 50.4564 48.3225 50.75 48.3225 51.1226C48.3225 51.3935 48.3225 51.6533 48.3225 51.9242C48.3225 52.3081 48.4242 52.6016 48.6274 52.8161C48.8306 53.0306 49.1129 53.1322 49.4854 53.1322C49.6887 53.1322 49.8806 53.0871 50.0612 52.9967C50.2419 52.9064 50.4112 52.7823 50.5354 52.6129C50.7612 52.8387 50.9983 53.0532 51.2241 53.279C51.1 53.4371 50.9532 53.5838 50.7725 53.6967C50.5919 53.8096 50.3887 53.9 50.1742 53.9565C49.9822 54.0016 49.7451 54.0242 49.4854 54.0242ZM54.1709 54.0242C53.7532 54.0242 53.3919 53.9451 53.087 53.7758C52.7822 53.6064 52.5564 53.3694 52.3983 53.0532C52.2403 52.7371 52.1612 52.3532 52.1612 51.9016C52.1612 51.6419 52.1612 51.371 52.1612 51.1113C52.1612 50.671 52.2403 50.2871 52.3983 49.9823C52.5564 49.6661 52.7822 49.429 53.087 49.2597C53.3919 49.0903 53.7532 49.0113 54.1709 49.0113C54.5887 49.0113 54.9499 49.0903 55.2548 49.2597C55.5596 49.4177 55.7854 49.6661 55.9435 49.9823C56.1016 50.2984 56.1806 50.671 56.1806 51.1113C56.1806 51.3822 56.1806 51.6532 56.1806 51.9129C56.1806 52.3532 56.1016 52.7371 55.9435 53.0532C55.7854 53.3694 55.5596 53.6064 55.2548 53.7758C54.9612 53.9451 54.5999 54.0242 54.1709 54.0242ZM54.1709 53.121C54.5096 53.121 54.758 53.0193 54.9499 52.8048C55.1306 52.5903 55.2209 52.2968 55.2209 51.9242C55.2209 51.6533 55.2209 51.3823 55.2209 51.1226C55.2209 50.75 55.1306 50.4564 54.9499 50.2419C54.7693 50.0387 54.5096 49.9258 54.1709 49.9258C53.8322 49.9258 53.5725 50.0274 53.3919 50.2419C53.2112 50.4451 53.1209 50.7387 53.1209 51.1226C53.1209 51.3935 53.1209 51.6645 53.1209 51.9242C53.1209 52.3081 53.2112 52.5903 53.3919 52.8048C53.5838 53.0193 53.8435 53.121 54.1709 53.121ZM63.3612 51.0097C63.3612 50.6597 63.2709 50.4 63.0903 50.2081C62.9096 50.0161 62.6612 49.9258 62.3338 49.9258C62.0403 49.9258 61.8032 50.0161 61.6451 50.1968C61.487 50.3774 61.408 50.6258 61.408 50.9307V50.9419V50.9532V50.9871C61.408 51.9694 61.408 52.9629 61.408 53.9452C61.0919 53.9452 60.7645 53.9452 60.4483 53.9452C60.4483 52.9629 60.4483 51.9807 60.4483 50.9984C60.4483 50.6484 60.358 50.3887 60.1999 50.1968C60.0306 50.0048 59.7935 49.9145 59.4886 49.9145C59.1725 49.9145 58.9354 49.9936 58.7661 50.1629C58.5967 50.3323 58.5064 50.5581 58.5064 50.8629V49.7564C58.6419 49.5532 58.8112 49.3725 59.0032 49.2484C59.2403 49.0903 59.5112 49.0113 59.8048 49.0113C60.1435 49.0113 60.437 49.0903 60.6741 49.2484C60.9112 49.4064 61.1032 49.6323 61.2274 49.9258L61.2499 49.9823C61.3967 49.6887 61.5999 49.4516 61.837 49.2823C62.0854 49.1016 62.3677 49.0113 62.6725 49.0113C63.0225 49.0113 63.3274 49.0903 63.5757 49.2484C63.8241 49.4064 64.0161 49.6323 64.1403 49.9258C64.2757 50.2194 64.3322 50.5807 64.3322 50.9984C64.3322 51.9807 64.3322 52.9742 64.3322 53.9565C64.0161 53.9565 63.6999 53.9565 63.3725 53.9565C63.3612 52.9742 63.3612 51.992 63.3612 51.0097ZM57.5467 49.0903C57.5467 50.7161 57.5467 52.3419 57.5467 53.9565C57.8628 53.9565 58.179 53.9565 58.5064 53.9565C58.5064 52.3307 58.5064 50.7049 58.5064 49.0903C58.179 49.0903 57.8628 49.0903 57.5467 49.0903ZM65.7773 49.0903C66.0935 49.0903 66.4096 49.0903 66.737 49.0903C66.737 51.371 66.737 53.6516 66.737 55.9436C66.4209 55.9436 66.0935 55.9436 65.7773 55.9436C65.7773 53.6516 65.7773 51.371 65.7773 49.0903ZM67.9564 54.0242C68.3064 54.0242 68.6112 53.9451 68.8709 53.7871C69.1193 53.629 69.3225 53.4032 69.4467 53.1097C69.5822 52.8161 69.6386 52.4661 69.6386 52.0484C69.6386 51.6984 69.6386 51.3371 69.6386 50.9871C69.6386 50.5694 69.5709 50.2081 69.4467 49.9145C69.3225 49.621 69.1306 49.3952 68.8822 49.2371C68.6338 49.0791 68.3402 49 68.0015 49C67.708 49 67.4483 49.0791 67.2112 49.2371C67.0306 49.3613 66.8612 49.5307 66.737 49.7226V50.829C66.737 50.6258 66.7709 50.4564 66.8499 50.3096C66.929 50.1629 67.0306 50.05 67.1773 49.9823C67.3241 49.9145 67.4935 49.8694 67.6967 49.8694C68.0128 49.8694 68.2612 49.971 68.4306 50.1629C68.5999 50.3549 68.6902 50.6371 68.6902 50.9871C68.6902 51.3371 68.6902 51.6871 68.6902 52.0371C68.6902 52.3871 68.5999 52.658 68.4306 52.85C68.2499 53.0419 68.0128 53.1435 67.6967 53.1435C67.4935 53.1435 67.3241 53.0984 67.1773 53.0306C67.0306 52.9516 66.929 52.8387 66.8499 52.692C66.7709 52.5452 66.737 52.3645 66.737 52.1613V53.3242C66.8386 53.5161 66.9854 53.6855 67.166 53.7984C67.3919 53.9564 67.6515 54.0242 67.9564 54.0242ZM73.7483 50.8742C73.7483 50.558 73.658 50.3097 73.4886 50.129C73.3193 49.9484 73.0822 49.8581 72.766 49.8581C72.5741 49.8581 72.3822 49.892 72.2015 49.9484C72.0209 50.0049 71.8515 50.0952 71.7048 50.1968C71.4677 50.0387 71.2418 49.8807 71.0047 49.7226C71.1854 49.4968 71.4338 49.3274 71.7386 49.2032C72.0435 49.079 72.3709 49.0226 72.7435 49.0226C73.1499 49.0226 73.4886 49.0903 73.7822 49.2371C74.0644 49.3839 74.2902 49.5871 74.437 49.8581C74.5838 50.129 74.6628 50.4565 74.6628 50.8403C74.6628 51.879 74.6628 52.9291 74.6628 53.9678C74.358 53.9678 74.0531 53.9678 73.7483 53.9678V51.8565V51.0887V50.8742ZM72.5515 54.0242C72.7547 54.0242 72.9354 54.0016 73.1047 53.9565C73.2628 53.9113 73.4096 53.8548 73.5338 53.7645C73.6241 53.6967 73.7031 53.629 73.7483 53.5726V52.7597C73.7483 52.929 73.658 53.042 73.4773 53.121C73.2967 53.2 73.0257 53.2339 72.6644 53.2339C72.3257 53.2339 72.0773 53.1774 71.9193 53.0532C71.7499 52.9403 71.6709 52.7484 71.6709 52.5C71.6709 52.2742 71.7273 52.1049 71.8515 51.992C71.9757 51.8791 72.1564 51.8226 72.416 51.8226H73.7483V51.0548H72.4047C71.8515 51.0548 71.4451 51.179 71.1741 51.4161C70.9031 51.6532 70.7677 52.0145 70.7677 52.5C70.7677 53.008 70.9144 53.3806 71.2193 53.629C71.5128 53.9 71.9531 54.0242 72.5515 54.0242ZM85.1289 49.0903C84.8015 49.0903 84.4741 49.0903 84.1467 49.0903C83.7741 50.242 83.3902 51.4049 83.0176 52.5565C82.8709 52.9968 82.7241 53.4371 82.5886 53.8887C82.5096 54.1258 82.4305 54.3629 82.3515 54.6C82.2725 54.7694 82.1821 54.8935 82.0805 54.9725C81.9789 55.0403 81.8321 55.0742 81.6515 55.0742C81.5838 55.0742 81.5273 55.0742 81.4596 55.0742C81.4596 55.379 81.4596 55.6839 81.4596 56C81.5273 56 81.5838 56 81.6515 56C81.9112 56 82.1257 55.9661 82.3063 55.9097C82.487 55.8532 82.6338 55.7629 82.758 55.6274C82.8821 55.4919 82.9725 55.3226 83.0515 55.0968C83.7515 53.0984 84.4402 51.0887 85.1289 49.0903ZM85.2531 52.9516C85.5918 52.9516 85.9192 52.9516 86.2579 52.9516C86.2579 53.2903 86.2579 53.6177 86.2579 53.9565C85.9192 53.9565 85.5918 53.9565 85.2531 53.9565C85.2531 53.629 85.2531 53.2903 85.2531 52.9516ZM89.3741 54.0242C88.9337 54.0242 88.5499 53.9451 88.2337 53.7758C87.9176 53.6064 87.6805 53.3694 87.5112 53.0532C87.3418 52.7371 87.2628 52.3532 87.2628 51.9129C87.2628 51.6419 87.2628 51.3822 87.2628 51.1113C87.2628 50.671 87.3418 50.2984 87.5112 49.9823C87.6805 49.6661 87.9176 49.429 88.2337 49.271C88.5499 49.1016 88.9225 49.0226 89.3741 49.0226C89.6337 49.0226 89.8596 49.0564 90.0854 49.1129C90.3112 49.1693 90.5144 49.2597 90.6837 49.3839C90.8644 49.4968 91.0112 49.6436 91.1354 49.8016C90.9095 50.0049 90.6725 50.2194 90.4466 50.4226C90.3112 50.2645 90.1531 50.1516 89.9612 50.0613C89.7805 49.9823 89.5886 49.9371 89.3854 49.9371C89.0128 49.9371 88.7305 50.0387 88.5273 50.2532C88.3241 50.4564 88.2225 50.75 88.2225 51.1226C88.2225 51.3935 88.2225 51.6533 88.2225 51.9242C88.2225 52.3081 88.3241 52.6016 88.5273 52.8161C88.7305 53.0306 89.0128 53.1322 89.3854 53.1322C89.5886 53.1322 89.7805 53.0871 89.9725 52.9967C90.1531 52.9064 90.3225 52.7823 90.4466 52.6129C90.6725 52.8387 90.9095 53.0532 91.1354 53.279C91.0112 53.4371 90.8644 53.5838 90.6837 53.6967C90.5031 53.8096 90.2999 53.9 90.0854 53.9565C89.8596 54.0016 89.6225 54.0242 89.3741 54.0242ZM94.0595 54.0242C93.6418 54.0242 93.2805 53.9451 92.9757 53.7758C92.6708 53.6064 92.445 53.3694 92.287 53.0532C92.1289 52.7371 92.0499 52.3532 92.0499 51.9016C92.0499 51.6419 92.0499 51.371 92.0499 51.1113C92.0499 50.671 92.1289 50.2871 92.287 49.9823C92.445 49.6661 92.6708 49.429 92.9757 49.2597C93.2805 49.0903 93.6305 49.0113 94.0595 49.0113C94.4886 49.0113 94.8386 49.0903 95.1434 49.2597C95.437 49.4177 95.6741 49.6661 95.8321 49.9823C95.9902 50.2984 96.0692 50.671 96.0692 51.1113C96.0692 51.3822 96.0692 51.6532 96.0692 51.9129C96.0692 52.3532 95.9902 52.7371 95.8321 53.0532C95.6741 53.3694 95.4483 53.6064 95.1434 53.7758C94.8386 53.9451 94.4773 54.0242 94.0595 54.0242ZM94.0595 53.121C94.3982 53.121 94.6579 53.0193 94.8386 52.8048C95.0192 52.5903 95.1095 52.2968 95.1095 51.9242C95.1095 51.6533 95.1095 51.3823 95.1095 51.1226C95.1095 50.75 95.0192 50.4564 94.8386 50.2419C94.6579 50.0387 94.3982 49.9258 94.0595 49.9258C93.7208 49.9258 93.4612 50.0274 93.2805 50.2419C93.0999 50.4451 93.0095 50.7387 93.0095 51.1226C93.0095 51.3935 93.0095 51.6645 93.0095 51.9242C93.0095 52.3081 93.0999 52.5903 93.2805 52.8048C93.4612 53.0193 93.7208 53.121 94.0595 53.121ZM97.424 49.0903C97.7402 49.0903 98.0676 49.0903 98.3837 49.0903C98.3837 50.7161 98.3837 52.3419 98.3837 53.9565C98.0676 53.9565 97.7515 53.9565 97.424 53.9565C97.424 52.3419 97.424 50.7161 97.424 49.0903Z" fill="#333333"/>
<path fill-rule="evenodd" clip-rule="evenodd" d="M97.3193 78.4346C95.5193 78.4346 94.0693 79.8946 94.0693 81.6846C94.0693 83.4846 95.5293 84.9346 97.3193 84.9346C99.1193 84.9346 100.569 83.4746 100.569 81.6846C100.569 79.8946 99.1193 78.4346 97.3193 78.4346Z" fill="#EFEFEF"/>
<path fill-rule="evenodd" clip-rule="evenodd" d="M97.3193 79.5246C96.1193 79.5246 95.1493 80.4946 95.1493 81.6946C95.1493 82.8946 96.1193 83.8646 97.3193 83.8646C98.5193 83.8646 99.4893 82.8946 99.4893 81.6946C99.4893 80.4946 98.5193 79.5246 97.3193 79.5246ZM94.0693 81.6846C94.0693 79.8946 95.5293 78.4346 97.3193 78.4346C99.1193 78.4346 100.569 79.8946 100.569 81.6846C100.569 83.4846 99.1093 84.9346 97.3193 84.9346C95.5193 84.9346 94.0693 83.4846 94.0693 81.6846Z" fill="#333333"/>
<path fill-rule="evenodd" clip-rule="evenodd" d="M108.16 78.4346C106.36 78.4346 104.91 79.8946 104.91 81.6846C104.91 83.4846 106.37 84.9346 108.16 84.9346C109.95 84.9346 111.41 83.4746 111.41 81.6846C111.41 79.8946 109.96 78.4346 108.16 78.4346Z" fill="#EFEFEF"/>
<path fill-rule="evenodd" clip-rule="evenodd" d="M108.16 79.5246C106.96 79.5246 105.99 80.4946 105.99 81.6946C105.99 82.8946 106.96 83.8646 108.16 83.8646C109.36 83.8646 110.33 82.8946 110.33 81.6946C110.33 80.4946 109.36 79.5246 108.16 79.5246ZM104.91 81.6846C104.91 79.8946 106.37 78.4346 108.16 78.4346C109.95 78.4346 111.41 79.8946 111.41 81.6846C111.41 83.4846 109.95 84.9346 108.16 84.9346C106.37 84.9346 104.91 83.4846 104.91 81.6846Z" fill="#333333"/>
<path fill-rule="evenodd" clip-rule="evenodd" d="M86.4795 88.1948C84.6795 88.1948 83.2295 89.6548 83.2295 91.4448C83.2295 93.2348 84.6895 94.6948 86.4795 94.6948C88.2795 94.6948 89.7295 93.2348 89.7295 91.4448C89.7295 89.6548 88.2795 88.1948 86.4795 88.1948Z" fill="#EFEFEF"/>
<path fill-rule="evenodd" clip-rule="evenodd" d="M86.4795 89.2748C85.2795 89.2748 84.3095 90.2448 84.3095 91.4448C84.3095 92.6448 85.2795 93.6149 86.4795 93.6149C87.6795 93.6149 88.6495 92.6448 88.6495 91.4448C88.6495 90.2448 87.6795 89.2748 86.4795 89.2748ZM83.2295 91.4448C83.2295 89.6448 84.6895 88.1948 86.4795 88.1948C88.2795 88.1948 89.7295 89.6548 89.7295 91.4448C89.7295 93.2348 88.2695 94.6948 86.4795 94.6948C84.6895 94.6948 83.2295 93.2348 83.2295 91.4448Z" fill="#333333"/>
<path fill-rule="evenodd" clip-rule="evenodd" d="M97.3193 88.1948C95.5193 88.1948 94.0693 89.6548 94.0693 91.4448C94.0693 93.2348 95.5293 94.6948 97.3193 94.6948C99.1193 94.6948 100.569 93.2348 100.569 91.4448C100.569 89.6548 99.1193 88.1948 97.3193 88.1948Z" fill="#EFEFEF"/>
<path fill-rule="evenodd" clip-rule="evenodd" d="M97.3193 89.2748C96.1193 89.2748 95.1493 90.2448 95.1493 91.4448C95.1493 92.6448 96.1193 93.6149 97.3193 93.6149C98.5193 93.6149 99.4893 92.6448 99.4893 91.4448C99.4893 90.2448 98.5193 89.2748 97.3193 89.2748ZM94.0693 91.4448C94.0693 89.6448 95.5293 88.1948 97.3193 88.1948C99.1193 88.1948 100.569 89.6548 100.569 91.4448C100.569 93.2348 99.1093 94.6948 97.3193 94.6948C95.5193 94.6948 94.0693 93.2348 94.0693 91.4448Z" fill="#333333"/>
<path fill-rule="evenodd" clip-rule="evenodd" d="M108.16 88.1948C106.36 88.1948 104.91 89.6548 104.91 91.4448C104.91 93.2348 106.37 94.6948 108.16 94.6948C109.95 94.6948 111.41 93.2348 111.41 91.4448C111.41 89.6548 109.96 88.1948 108.16 88.1948Z" fill="#EFEFEF"/>
<path fill-rule="evenodd" clip-rule="evenodd" d="M108.16 89.2748C106.96 89.2748 105.99 90.2448 105.99 91.4448C105.99 92.6448 106.96 93.6149 108.16 93.6149C109.36 93.6149 110.33 92.6448 110.33 91.4448C110.33 90.2448 109.36 89.2748 108.16 89.2748ZM104.91 91.4448C104.91 89.6448 106.37 88.1948 108.16 88.1948C109.95 88.1948 111.41 89.6548 111.41 91.4448C111.41 93.2348 109.95 94.6948 108.16 94.6948C106.37 94.6948 104.91 93.2348 104.91 91.4448Z" fill="#333333"/>
<path fill-rule="evenodd" clip-rule="evenodd" d="M86.4795 97.9448C84.6795 97.9448 83.2295 99.4048 83.2295 101.195C83.2295 102.995 84.6895 104.445 86.4795 104.445C88.2795 104.445 89.7295 102.985 89.7295 101.195C89.7395 99.3948 88.2795 97.9448 86.4795 97.9448Z" fill="#EFEFEF"/>
<path fill-rule="evenodd" clip-rule="evenodd" d="M86.4795 99.0248C85.2795 99.0248 84.3095 99.9948 84.3095 101.195C84.3095 102.395 85.2795 103.365 86.4795 103.365C87.6795 103.365 88.6495 102.395 88.6495 101.195C88.6495 99.9948 87.6795 99.0248 86.4795 99.0248ZM83.2295 101.195C83.2295 99.3948 84.6895 97.9448 86.4795 97.9448C88.2795 97.9448 89.7295 99.4048 89.7295 101.195C89.7295 102.995 88.2695 104.445 86.4795 104.445C84.6895 104.445 83.2295 102.995 83.2295 101.195Z" fill="#333333"/>
<path d="M105 126.5C119.082 126.5 130.5 115.082 130.5 101C130.5 87.2001 118.915 75.5 104.991 75.5C90.9083 75.5 79.5 86.9183 79.5 101C79.5 115.082 90.918 126.5 105 126.5Z" fill="url(#paint0_linear_125_489)" stroke="#333333"/>
<path fill-rule="evenodd" clip-rule="evenodd" d="M134.68 71.5876C136.095 72.5886 136.423 74.551 135.417 75.9485L108.282 113.69C107.744 114.434 106.907 114.909 105.981 114.989C105.064 115.068 104.148 114.731 103.5 114.087L90.919 101.569C89.6937 100.35 89.6937 98.3675 90.919 97.1386C92.1442 95.9195 94.1365 95.9195 95.3718 97.1386L105.323 107.04L130.297 72.3111C131.303 70.9037 133.265 70.5766 134.68 71.5876Z" fill="white"/>
<path fill-rule="evenodd" clip-rule="evenodd" d="M95.3689 97.1402L105.322 107.045L130.3 72.3032C131.306 70.8953 133.269 70.568 134.683 71.5794C136.098 72.5808 136.427 74.544 135.421 75.942L108.281 113.698C107.743 114.442 106.906 114.918 105.98 114.997C105.063 115.076 104.146 114.739 103.499 114.095L90.9154 101.572C89.6899 100.353 89.6899 98.3696 90.9154 97.1402C92.1409 95.9207 94.1335 95.9207 95.3689 97.1402ZM106.065 115.985C104.853 116.09 103.648 115.645 102.794 114.796L90.2109 102.273C88.5948 100.665 88.5989 98.0564 90.2081 96.4419L90.2109 96.4391C91.827 94.8308 94.4483 94.8349 96.0706 96.4363L96.0734 96.4391L105.196 105.517L129.488 71.7285C129.488 71.7282 129.488 71.7278 129.488 71.7275C130.814 69.8735 133.4 69.4427 135.263 70.7727C137.124 72.092 137.558 74.6747 136.231 76.5194L109.09 114.278C108.382 115.255 107.281 115.881 106.065 115.985Z" fill="#333333"/>
<defs>
<linearGradient id="paint0_linear_125_489" x1="80.0001" y1="74.0469" x2="130" y2="126" gradientUnits="userSpaceOnUse">
<stop stop-color="#FFC671"/>
<stop offset="0.59375" stop-color="#FF7541"/>
<stop offset="1" stop-color="#FF6F3D"/>
</linearGradient>
</defs>
</svg>
