<svg width="140" height="140" viewBox="0 0 140 140" fill="none" xmlns="http://www.w3.org/2000/svg">
<g clip-path="url(#clip0_125_399)">
<path fill-rule="evenodd" clip-rule="evenodd" d="M1.04612 60.041C0.546074 56 4.20895 53 7.71704 53H113.652C117.16 53 120 55.7892 120 59.223V119.777C120 123.211 117.16 126 113.652 126H7.70511C4.19701 126 0.546074 125.5 1.04612 119.398V60.041Z" fill="white"/>
<path fill-rule="evenodd" clip-rule="evenodd" d="M71.3013 87C56.2223 97.4632 57.5292 95.7144 45.69 87.4982L2 124.364C2.51216 125.476 5.24881 126.501 7 126H109.5C113.645 126.034 115.404 125.618 117 124.086L71.3013 87Z" fill="#EFEFEF"/>
<path fill-rule="evenodd" clip-rule="evenodd" d="M70.9365 86.1857C71.1116 85.9696 71.4272 85.9374 71.6416 86.1138L80.2993 93.2369C80.5137 93.4133 80.5456 93.7315 80.3706 93.9476C80.1956 94.1637 79.8799 94.1958 79.6655 94.0194L71.0079 86.8964C70.7935 86.72 70.7615 86.4018 70.9365 86.1857ZM46.2801 86.5761C46.4603 86.7879 46.436 87.1067 46.2259 87.2883L2.82731 124.8C2.61723 124.982 2.30088 124.957 2.12072 124.745C1.94057 124.534 1.96483 124.215 2.17491 124.033L45.5735 86.5215C45.7836 86.3399 46.1 86.3644 46.2801 86.5761ZM91.1377 102.806C91.3127 102.59 91.6284 102.558 91.8428 102.734L97.6146 107.483C97.829 107.659 97.8609 107.978 97.6859 108.194C97.5109 108.41 97.1952 108.442 96.9808 108.266L91.209 103.517C90.9947 103.341 90.9627 103.022 91.1377 102.806ZM111.339 119.427C111.514 119.211 111.83 119.179 112.044 119.355L117.816 124.104C118.03 124.28 118.062 124.598 117.887 124.814C117.712 125.03 117.396 125.063 117.182 124.886L111.41 120.137C111.196 119.961 111.164 119.643 111.339 119.427Z" fill="#333333"/>
<path fill-rule="evenodd" clip-rule="evenodd" d="M97 39V69L118 55L97 39Z" fill="#BDECFF"/>
<path fill-rule="evenodd" clip-rule="evenodd" d="M52.3125 18.1319C51.0841 18.8163 53.7771 19 55.2014 19H64.8713C66.2956 19 68.9091 18.6384 67.6808 17.954L64 15.0126C62.2822 13.8851 58.9383 13.4443 56.4844 15.0462L52.3125 18.1319Z" fill="#BDECFF"/>
<path fill-rule="evenodd" clip-rule="evenodd" d="M23 39V70L2 55L23 39Z" fill="#BDECFF"/>
<path fill-rule="evenodd" clip-rule="evenodd" d="M57.0743 15.142L3.4455 54.7276C1.938 55.7915 1 57.648 1 59.4461V120.5C1 123.538 3.46243 126 6.49999 126H66.1875C66.4636 126 66.6875 126.224 66.6875 126.5C66.6875 126.776 66.4636 127 66.1875 127H6.49999C2.91014 127 0 124.09 0 120.5V59.4461C0 57.3292 1.09043 55.1679 2.86438 53.9137L56.4929 14.3283C58.8703 12.6479 61.8092 12.47 64.502 14.325L64.5096 14.3302L117.688 53.9149C119.374 55.1141 121 56.9463 121 59.4967V92.1089C121 92.3851 120.776 92.6089 120.5 92.6089C120.224 92.6089 120 92.3851 120 92.1089V59.4967C120 57.4161 118.678 55.8449 117.104 54.7266L117.095 54.7202L63.9273 15.1433C61.5973 13.5422 59.1203 13.698 57.0743 15.142ZM120 111.203C120.276 111.203 120.5 111.427 120.5 111.703V120.5C120.5 124.09 117.59 127 114 127H106.062C105.786 127 105.562 126.776 105.562 126.5C105.562 126.224 105.786 126 106.062 126H114C117.038 126 119.5 123.538 119.5 120.5V111.703C119.5 111.427 119.724 111.203 120 111.203Z" fill="#333333"/>
<path d="M71.355 86.2632L118.106 54.8239M46.2929 87.2812L2.14844 55.2785" stroke="#333333"/>
<path d="M61.7033 93.3436L61.7136 93.3372L61.7236 93.3303L96.2838 69.5027L96.5 69.3536V69.091V19.2633C96.5 18.294 95.7296 17.5 94.7711 17.5H36.3226H36.1139L35.9671 17.6483L21.6446 32.1245L21.5 32.2706V32.4762V69.0392V69.2941L21.7063 69.4439L54.1786 93.0134L54.1785 93.0135L54.1875 93.0197C55.2643 93.7659 56.3729 94.3416 57.6169 94.4721C58.8738 94.604 60.201 94.2752 61.7033 93.3436Z" fill="white" stroke="#333333"/>
<path fill-rule="evenodd" clip-rule="evenodd" d="M74 51.2618C74 53.122 73.7218 54.8297 73.1653 56.3748C72.6088 57.9098 71.8238 59.1093 70.8003 59.9631C69.7966 60.817 68.634 61.2541 67.3024 61.2541C66.3187 61.2541 65.474 60.9797 64.7585 60.4307C64.0431 59.8818 63.5562 59.1398 63.3077 58.2046H63.0891C62.4829 59.2211 61.7377 59.9835 60.8433 60.4917C59.949 61 58.9453 61.2541 57.8324 61.2541C55.8152 61.2541 54.2153 60.5731 53.0527 59.2008C51.9 57.8386 51.3236 55.9886 51.3236 53.6607C51.3236 50.9771 52.0888 48.8119 53.629 47.1449C55.1693 45.4676 57.2262 44.6239 59.8198 44.6239C60.7638 44.6239 61.8072 44.7154 62.9401 44.8983C64.0928 45.0712 65.1163 45.305 66.0106 45.6201L65.6032 54.6976V55.1652C65.6032 57.249 66.2491 58.2859 67.5409 58.2859C68.5247 58.2859 69.2998 57.6252 69.8662 56.2935C70.4525 54.9619 70.7406 53.2745 70.7406 51.2211C70.7406 48.9949 70.3034 47.0432 69.4389 45.3659C68.5744 43.6785 67.3422 42.3774 65.7423 41.4625C64.1424 40.5578 62.3041 40.1004 60.2372 40.1004C57.5939 40.1004 55.2985 40.6696 53.3408 41.8183C51.3932 42.967 49.9026 44.6036 48.8791 46.7382C47.8456 48.8628 47.3389 51.3227 47.3389 54.1283C47.3389 57.8996 48.3028 60.8069 50.2206 62.8297C52.1385 64.8628 54.901 65.8793 58.4982 65.8793C61.2408 65.8793 64.0927 65.2897 67.0739 64.1207V67.3227C64.4704 68.4409 61.6383 69 58.5777 69C53.9867 69 50.4194 67.709 47.8457 65.1169C45.2819 62.5146 44 58.8958 44 54.2503C44 50.8551 44.6956 47.8361 46.0868 45.1931C47.478 42.54 49.3958 40.507 51.8503 39.1042C54.3147 37.7014 57.107 37 60.2173 37C62.9102 37 65.2951 37.5896 67.3919 38.7586C69.4985 39.9276 71.1282 41.6048 72.2809 43.77C73.4237 45.925 74 48.4257 74 51.2618ZM54.8811 53.7319C54.8811 56.7611 56.0139 58.2757 58.2796 58.2757C60.6744 58.2757 61.9762 56.3748 62.2047 52.5629L62.4233 47.8971C61.6383 47.6734 60.8036 47.5616 59.9093 47.5616C58.3193 47.5616 57.0871 48.1105 56.1928 49.2185C55.3283 50.3367 54.8811 51.831 54.8811 53.7319Z" fill="url(#paint0_linear_125_399)"/>
<path d="M36.5 18C36.5 17.7978 36.3782 17.6155 36.1913 17.5381C36.0045 17.4607 35.7894 17.5034 35.6464 17.6464L21.6464 31.6464C21.5034 31.7894 21.4607 32.0045 21.5381 32.1913C21.6155 32.3782 21.7978 32.5 22 32.5H36C36.2761 32.5 36.5 32.2761 36.5 32V18Z" fill="url(#paint1_linear_125_399)" stroke="#333333" stroke-linejoin="round"/>
<path fill-rule="evenodd" clip-rule="evenodd" d="M132.68 98H79.3203C76.3873 98 74 100.491 74 103.529V132.471C74 135.519 76.3971 138 79.3203 138H132.68C135.613 138 138 135.509 138 132.471V103.529C138 100.491 135.613 98 132.68 98Z" fill="url(#paint2_linear_125_399)"/>
<path fill-rule="evenodd" clip-rule="evenodd" d="M132.68 99H79.3203C76.9767 99 75 101.006 75 103.529V132.471C75 135.002 76.9841 137 79.3203 137H132.68C135.023 137 137 134.994 137 132.471V103.529C137 101.006 135.023 99 132.68 99ZM79.3203 98H132.68C135.613 98 138 100.491 138 103.529V132.471C138 135.509 135.613 138 132.68 138H79.3203C76.3971 138 74 135.519 74 132.471V103.529C74 100.491 76.3873 98 79.3203 98Z" fill="#333333"/>
<path fill-rule="evenodd" clip-rule="evenodd" d="M130.34 108.294C131.047 108.794 131.212 109.776 130.709 110.474L117.141 129.345C116.872 129.717 116.454 129.955 115.99 129.994C115.532 130.034 115.074 129.865 114.75 129.543L108.459 123.284C107.847 122.675 107.847 121.684 108.459 121.069C109.072 120.46 110.068 120.46 110.686 121.069L115.662 126.02L128.148 108.656C128.652 107.952 129.633 107.788 130.34 108.294Z" fill="white"/>
<path fill-rule="evenodd" clip-rule="evenodd" d="M92 106C95.3122 106 98.3149 107.341 100.487 109.513C102.659 111.685 104 114.688 104 118C104 121.312 102.653 124.315 100.487 126.487C98.3149 128.659 95.3122 130 92 130C88.6878 130 85.6851 128.659 83.5131 126.487C81.3412 124.315 80 121.312 80 118C80 114.688 81.3466 111.685 83.5131 109.513C85.6851 107.347 88.6878 106 92 106Z" fill="white"/>
<path fill-rule="evenodd" clip-rule="evenodd" d="M92.2229 111.669C93.374 113.613 96.0835 115.872 97.9731 115.601C97.9894 115.405 98.0002 115.21 98.0002 115.014C98.0002 111.691 95.307 109.003 91.9894 109.003C88.6663 109.003 85.9785 111.697 85.9785 115.014C85.9785 115.242 85.9894 115.47 86.0165 115.693C87.8192 115.666 90.7948 114.449 92.2229 111.669Z" fill="#AAAAAA"/>
<path fill-rule="evenodd" clip-rule="evenodd" d="M97.9742 115.595C96.0846 115.867 93.3751 113.613 92.224 111.664C90.7959 114.444 87.8204 115.666 86.0122 115.682C86.3489 118.685 88.8955 121.02 91.9851 121.02C95.1127 121.025 97.6756 118.641 97.9742 115.595Z" fill="white"/>
<path fill-rule="evenodd" clip-rule="evenodd" d="M94.559 123.892L94.711 123.691C94.7816 123.598 94.7816 123.555 94.7816 123.332V122.686V119.504C93.9454 119.944 93.0006 120.188 91.9907 120.188C90.9807 120.188 90.0359 119.939 89.1997 119.504V119.597V122.67V123.327C89.1997 123.55 89.1997 123.593 89.2703 123.685L89.4223 123.886C90.0956 124.777 90.8504 125.553 91.5671 126.52C91.7409 126.753 91.8603 126.862 91.9907 126.835C92.1264 126.867 92.2404 126.753 92.4142 126.52C93.1255 125.559 93.8857 124.782 94.559 123.892Z" fill="white"/>
<path fill-rule="evenodd" clip-rule="evenodd" d="M94.8504 123.626C94.8504 123.626 93.1244 126.071 92.4224 126.982C92.2522 127.204 92.1352 127.312 92.0076 127.281C91.8746 127.312 91.763 127.204 91.5928 126.982C90.8908 126.066 89.3133 123.626 89.3133 123.626C89.3133 123.626 84.8015 124.587 83.2539 125.792C85.3386 128.237 88.4763 129.891 92.0076 129.891C95.5176 129.891 98.6659 128.212 100.745 125.792C99.2084 124.577 97.2489 124.048 94.8504 123.626Z" fill="#BDECFF"/>
<path d="M89.2741 123.332C86.8756 123.744 84.8015 124.587 83.2539 125.792M100.745 125.792C99.2084 124.577 97.1343 123.765 94.7358 123.342" stroke="#333333"/>
<path d="M89.5 120.626V123.583L92.1054 126.91L94.5 123.583V120.583" stroke="#333333" stroke-linecap="round" stroke-linejoin="round"/>
<path d="M91.9841 109.09C95.2482 109.09 97.9022 111.744 97.9022 115.008C97.9022 118.276 95.2439 120.931 91.9841 120.931C88.7194 120.931 86.0605 118.282 86.0605 115.008C86.0605 111.741 88.7231 109.09 91.9841 109.09Z" stroke="#333333"/>
<path d="M98.0163 115.405C95.7528 115.728 93.4345 113.531 92.2335 111.854C90.6362 114.385 87.7953 115.484 86 115.503" stroke="#333333" stroke-linejoin="round"/>
<path fill-rule="evenodd" clip-rule="evenodd" d="M92 106C98.6244 106 104 111.376 104 118C104 124.629 98.6203 130 92 130C85.3756 130 80 124.624 80 118C80 111.376 85.3756 106 92 106Z" stroke="#333333"/>
</g>
<defs>
<linearGradient id="paint0_linear_125_399" x1="48.6726" y1="36.7194" x2="62.4494" y2="57.5016" gradientUnits="userSpaceOnUse">
<stop stop-color="#FFC671"/>
<stop offset="1" stop-color="#FF6F3D"/>
</linearGradient>
<linearGradient id="paint1_linear_125_399" x1="26.8465" y1="22.6148" x2="32.9959" y2="29.3536" gradientUnits="userSpaceOnUse">
<stop stop-color="#FFC671"/>
<stop offset="1" stop-color="#FF6F3D"/>
</linearGradient>
<linearGradient id="paint2_linear_125_399" x1="74.0001" y1="96.4375" x2="109.362" y2="155.226" gradientUnits="userSpaceOnUse">
<stop stop-color="#FFC671"/>
<stop offset="0.59375" stop-color="#FF7541"/>
<stop offset="1" stop-color="#FF6F3D"/>
</linearGradient>
<clipPath id="clip0_125_399">
<rect width="140" height="140" fill="white"/>
</clipPath>
</defs>
</svg>
