<svg width="140" height="140" viewBox="0 0 140 140" fill="none" xmlns="http://www.w3.org/2000/svg">
<g clip-path="url(#clip0_125_352)">
<path fill-rule="evenodd" clip-rule="evenodd" d="M0 60.041C0 56.6072 3.19064 53 6.72959 53H113.596C117.135 53 120 55.7892 120 59.223V119.777C120 123.211 117.135 126 113.596 126H6.71755C3.1786 126 0 122.831 0 119.398V60.041Z" fill="white"/>
<path fill-rule="evenodd" clip-rule="evenodd" d="M71.5 87C56.421 97.3683 57.8393 95.6354 46 87.4937L2 124.519C2.51216 125.621 5.0131 126 7.26647 125.997H109.484C113.629 126.031 115.404 125.761 117 124.243L71.5 87Z" fill="#EFEFEF"/>
<path fill-rule="evenodd" clip-rule="evenodd" d="M70.9365 86.1857C71.1116 85.9696 71.4272 85.9374 71.6416 86.1138L80.2993 93.2369C80.5137 93.4133 80.5456 93.7315 80.3706 93.9476C80.1956 94.1637 79.8799 94.1958 79.6655 94.0194L71.0079 86.8964C70.7935 86.72 70.7615 86.4018 70.9365 86.1857ZM46.2801 86.5761C46.4603 86.7879 46.436 87.1067 46.2259 87.2883L2.82731 124.8C2.61723 124.982 2.30088 124.957 2.12072 124.745C1.94057 124.534 1.96483 124.215 2.17491 124.033L45.5735 86.5215C45.7836 86.3399 46.1 86.3644 46.2801 86.5761ZM91.1377 102.806C91.3127 102.59 91.6284 102.558 91.8428 102.734L97.6146 107.483C97.829 107.659 97.8609 107.978 97.6859 108.194C97.5109 108.41 97.1952 108.442 96.9808 108.266L91.209 103.517C90.9947 103.341 90.9627 103.022 91.1377 102.806ZM111.339 119.427C111.514 119.211 111.83 119.179 112.044 119.355L117.816 124.104C118.03 124.28 118.062 124.598 117.887 124.814C117.712 125.03 117.396 125.063 117.182 124.886L111.41 120.137C111.196 119.961 111.164 119.643 111.339 119.427Z" fill="#333333"/>
<path fill-rule="evenodd" clip-rule="evenodd" d="M97 39V70L118 55L97 39Z" fill="#BDECFF"/>
<path fill-rule="evenodd" clip-rule="evenodd" d="M53.2929 17.1293C52.1414 17.8158 54.666 18 56.0013 18H65.0668C66.4022 18 68.8523 17.6373 67.7007 16.9508L63.876 14.0343C62.2656 12.9034 59.5047 12.4275 57.2041 14.0342L53.2929 17.1293Z" fill="#BDECFF"/>
<path fill-rule="evenodd" clip-rule="evenodd" d="M23 40V71L2 55.4633L23 40Z" fill="#BDECFF"/>
<path fill-rule="evenodd" clip-rule="evenodd" d="M57.0743 15.142L3.4455 54.7276C1.938 55.7915 1 57.648 1 59.4461V120.5C1 123.538 3.46243 126 6.49999 126H66.1875C66.4636 126 66.6875 126.224 66.6875 126.5C66.6875 126.776 66.4636 127 66.1875 127H6.49999C2.91014 127 0 124.09 0 120.5V59.4461C0 57.3292 1.09043 55.1679 2.86438 53.9137L56.4929 14.3283C58.8703 12.6479 61.8092 12.47 64.502 14.325L64.5096 14.3302L117.688 53.9148C119.355 55.1002 121 56.7487 121 59.3134V92.1089C121 92.3851 120.776 92.6089 120.5 92.6089C120.224 92.6089 120 92.3851 120 92.1089V59.3134C120 57.2473 118.697 55.8586 117.104 54.7266L117.095 54.7202L63.9273 15.1433C61.5973 13.5422 59.1203 13.698 57.0743 15.142ZM120 111.203C120.276 111.203 120.5 111.427 120.5 111.703V120.5C120.5 124.09 117.59 127 114 127H106.062C105.786 127 105.562 126.776 105.562 126.5C105.562 126.224 105.786 126 106.062 126H114C117.038 126 119.5 123.538 119.5 120.5V111.703C119.5 111.427 119.724 111.203 120 111.203Z" fill="#333333"/>
<path d="M71.355 86.2632L118.5 55.2785M46.2929 87.2812L2.14844 55.2785" stroke="#333333"/>
<path d="M61.7033 93.3436L61.7136 93.3372L61.7236 93.3303L96.2838 69.5027L96.5 69.3536V69.091V19.2633C96.5 18.294 95.7296 17.5 94.7711 17.5H36.3226H36.1139L35.9671 17.6483L21.6446 32.1245L21.5 32.2706V32.4762V69.0392V69.2941L21.7063 69.4439L54.1786 93.0134L54.1785 93.0135L54.1875 93.0197C55.2643 93.7659 56.3729 94.3416 57.6169 94.4721C58.8738 94.604 60.201 94.2752 61.7033 93.3436Z" fill="white" stroke="#333333"/>
<path fill-rule="evenodd" clip-rule="evenodd" d="M74 51.2618C74 53.122 73.7218 54.8297 73.1653 56.3748C72.6088 57.9098 71.8238 59.1093 70.8003 59.9631C69.7966 60.817 68.634 61.2541 67.3024 61.2541C66.3187 61.2541 65.474 60.9797 64.7585 60.4307C64.0431 59.8818 63.5562 59.1398 63.3077 58.2046H63.0891C62.4829 59.2211 61.7377 59.9835 60.8433 60.4917C59.949 61 58.9453 61.2541 57.8324 61.2541C55.8152 61.2541 54.2153 60.5731 53.0527 59.2008C51.9 57.8386 51.3236 55.9886 51.3236 53.6607C51.3236 50.9771 52.0888 48.8119 53.629 47.1449C55.1693 45.4676 57.2262 44.6239 59.8198 44.6239C60.7638 44.6239 61.8072 44.7154 62.9401 44.8983C64.0928 45.0712 65.1163 45.305 66.0106 45.6201L65.6032 54.6976V55.1652C65.6032 57.249 66.2491 58.2859 67.5409 58.2859C68.5247 58.2859 69.2998 57.6252 69.8662 56.2935C70.4525 54.9619 70.7406 53.2745 70.7406 51.2211C70.7406 48.9949 70.3034 47.0432 69.4389 45.3659C68.5744 43.6785 67.3422 42.3774 65.7423 41.4625C64.1424 40.5578 62.3041 40.1004 60.2372 40.1004C57.5939 40.1004 55.2985 40.6696 53.3408 41.8183C51.3932 42.967 49.9026 44.6036 48.8791 46.7382C47.8456 48.8628 47.3389 51.3227 47.3389 54.1283C47.3389 57.8996 48.3028 60.8069 50.2206 62.8297C52.1385 64.8628 54.901 65.8793 58.4982 65.8793C61.2408 65.8793 64.0927 65.2897 67.0739 64.1207V67.3227C64.4704 68.4409 61.6383 69 58.5777 69C53.9867 69 50.4194 67.709 47.8457 65.1169C45.2819 62.5146 44 58.8958 44 54.2503C44 50.8551 44.6956 47.8361 46.0868 45.1931C47.478 42.54 49.3958 40.507 51.8503 39.1042C54.3147 37.7014 57.107 37 60.2173 37C62.9102 37 65.2951 37.5896 67.3919 38.7586C69.4985 39.9276 71.1282 41.6048 72.2809 43.77C73.4237 45.925 74 48.4257 74 51.2618ZM54.8811 53.7319C54.8811 56.7611 56.0139 58.2757 58.2796 58.2757C60.6744 58.2757 61.9762 56.3748 62.2047 52.5629L62.4233 47.8971C61.6383 47.6734 60.8036 47.5616 59.9093 47.5616C58.3193 47.5616 57.0871 48.1105 56.1928 49.2185C55.3283 50.3367 54.8811 51.831 54.8811 53.7319Z" fill="url(#paint0_linear_125_352)"/>
<path d="M36.5 18C36.5 17.7978 36.3782 17.6155 36.1913 17.5381C36.0045 17.4607 35.7894 17.5034 35.6464 17.6464L21.6464 31.6464C21.5034 31.7894 21.4607 32.0045 21.5381 32.1913C21.6155 32.3782 21.7978 32.5 22 32.5H36C36.2761 32.5 36.5 32.2761 36.5 32V18Z" fill="url(#paint1_linear_125_352)" stroke="#333333" stroke-linejoin="round"/>
<path fill-rule="evenodd" clip-rule="evenodd" d="M132.68 98H79.3203C76.3873 98 74 100.491 74 103.529V132.471C74 135.519 76.3971 138 79.3203 138H132.68C135.613 138 138 135.509 138 132.471V103.529C138 100.491 135.613 98 132.68 98Z" fill="url(#paint2_linear_125_352)"/>
<path fill-rule="evenodd" clip-rule="evenodd" d="M132.68 99H79.3203C76.9767 99 75 101.006 75 103.529V132.471C75 135.002 76.9841 137 79.3203 137H132.68C135.023 137 137 134.994 137 132.471V103.529C137 101.006 135.023 99 132.68 99ZM79.3203 98H132.68C135.613 98 138 100.491 138 103.529V132.471C138 135.509 135.613 138 132.68 138H79.3203C76.3971 138 74 135.519 74 132.471V103.529C74 100.491 76.3873 98 79.3203 98Z" fill="#333333"/>
<path fill-rule="evenodd" clip-rule="evenodd" d="M112 115.5C112 115.224 112.222 115 112.496 115H129.504C129.778 115 130 115.224 130 115.5C130 115.776 129.778 116 129.504 116H112.496C112.222 116 112 115.776 112 115.5Z" fill="white"/>
<path fill-rule="evenodd" clip-rule="evenodd" d="M112 120.5C112 120.224 112.222 120 112.496 120H129.504C129.778 120 130 120.224 130 120.5C130 120.776 129.778 121 129.504 121H112.496C112.222 121 112 120.776 112 120.5Z" fill="white"/>
<path fill-rule="evenodd" clip-rule="evenodd" d="M112 125.5C112 125.224 112.222 125 112.496 125H129.504C129.778 125 130 125.224 130 125.5C130 125.776 129.778 126 129.504 126H112.496C112.222 126 112 125.776 112 125.5Z" fill="white"/>
<path fill-rule="evenodd" clip-rule="evenodd" d="M116 110.5C116 110.224 116.224 110 116.5 110H125.5C125.776 110 126 110.224 126 110.5C126 110.776 125.776 111 125.5 111H116.5C116.224 111 116 110.776 116 110.5Z" fill="white"/>
<path fill-rule="evenodd" clip-rule="evenodd" d="M94 106C97.3122 106 100.315 107.341 102.487 109.513C104.659 111.685 106 114.688 106 118C106 121.312 104.653 124.315 102.487 126.487C100.315 128.659 97.3122 130 94 130C90.6878 130 87.6851 128.659 85.5131 126.487C83.3412 124.315 82 121.312 82 118C82 114.688 83.3466 111.685 85.5131 109.513C87.6851 107.347 90.6878 106 94 106Z" fill="white"/>
<path fill-rule="evenodd" clip-rule="evenodd" d="M94.235 111.793C95.3837 113.827 98.0874 116.19 99.9729 115.906C99.9892 115.702 100 115.497 100 115.293C100 111.815 97.3126 109.003 94.002 109.003C90.4921 109.003 87.6161 112.341 88.0419 116.003C89.8408 115.975 92.81 114.702 94.235 111.793Z" fill="#AAAAAA"/>
<path fill-rule="evenodd" clip-rule="evenodd" d="M100 115.782C98.1044 116.043 95.3863 113.875 94.2315 112C92.7989 114.674 89.8139 115.85 88 115.865C88.3377 118.754 90.8924 121 93.9918 121C97.1294 121.005 99.7004 118.712 100 115.782Z" fill="white"/>
<path fill-rule="evenodd" clip-rule="evenodd" d="M96.8006 124.187C96.933 124 97 123.896 97 123.653V120C96.251 120.42 95.4047 120.653 94.5 120.653C93.5953 120.653 92.749 120.415 92 120V120.088V123.648C92 123.891 92.067 123.995 92.1994 124.181C92.8025 125.031 93.4786 125.772 94.1206 126.694C94.2763 126.917 94.3833 127.021 94.5 126.995C94.6216 127.026 94.7237 126.917 94.8794 126.694C95.5165 125.777 96.1975 125.036 96.8006 124.187Z" fill="white"/>
<path fill-rule="evenodd" clip-rule="evenodd" d="M96.5 123C96.5 123 95.1575 124.983 94.4351 125.923C94.26 126.151 94.1396 126.263 94.0082 126.231C93.8714 126.263 93.7565 126.151 93.5813 125.923C92.8589 124.978 91.5 123 91.5 123C91.5 123 86.5926 124.529 85 125.772C87.1453 128.294 90.3743 130 94.0082 130C97.6202 130 100.86 128.268 103 125.772C101.418 124.519 98.9682 123.435 96.5 123Z" fill="#BDECFF"/>
<path d="M91.2741 123.332C88.8756 123.744 86.8015 124.587 85.2539 125.792M102.745 125.792C101.208 124.577 99.1343 123.765 96.7358 123.342" stroke="#333333"/>
<path fill-rule="evenodd" clip-rule="evenodd" d="M96.5 120.462C96.7761 120.462 97 120.174 97 120.439V123.322C97 123.423 96.9671 123.521 96.9058 123.603L94.5113 126.8C94.4194 126.923 94.2728 126.997 94.1156 127C93.9583 127.003 93.8087 126.935 93.7118 126.816L91.1063 123.618C91.0374 123.534 91 123.429 91 123.322V120.48C91 120.215 91.2239 120 91.5 120C91.7761 120 92 120.215 92 120.48V123.156L94.0886 125.719L96 123.167V120.439C96 120.174 96.2239 120.462 96.5 120.462Z" fill="#333333"/>
<path fill-rule="evenodd" clip-rule="evenodd" d="M99.5482 115.087C99.5482 112.062 97.0881 109.602 94.0633 109.602C91.0407 109.602 88.5729 112.06 88.5729 115.087C88.5729 118.122 91.0373 120.578 94.0633 120.578C97.0837 120.578 99.5482 118.116 99.5482 115.087ZM100.561 115.087C100.561 111.503 97.6472 108.59 94.0633 108.59C90.4835 108.59 87.5605 111.499 87.5605 115.087C87.5605 118.682 90.4794 121.59 94.0633 121.59C97.643 121.59 100.561 118.675 100.561 115.087Z" fill="#333333"/>
<path fill-rule="evenodd" clip-rule="evenodd" d="M94.1717 111C94.3368 110.995 94.4935 111.079 94.5896 111.225C95.2086 112.162 96.0938 113.115 97.0251 113.803L97.0258 113.804C98.0441 114.558 99.057 114.948 99.8548 114.825L99.9951 115.89C98.8316 116.07 97.56 115.502 96.4662 114.692C95.6337 114.077 94.8415 113.278 94.2066 112.446C93.5923 113.316 92.8567 114.008 92.0953 114.541L92.0949 114.542C90.7054 115.513 89.1763 115.987 88.0051 116L87.9951 114.925C88.9577 114.914 90.306 114.512 91.5568 113.638C92.3897 113.055 93.1749 112.267 93.7665 111.251C93.8547 111.099 94.0066 111.005 94.1717 111Z" fill="#333333"/>
<path fill-rule="evenodd" clip-rule="evenodd" d="M94 106C100.624 106 106 111.376 106 118C106 124.629 100.62 130 94 130C87.3756 130 82 124.624 82 118C82 111.376 87.3756 106 94 106Z" stroke="#333333"/>
</g>
<defs>
<linearGradient id="paint0_linear_125_352" x1="48.6726" y1="36.7194" x2="62.4494" y2="57.5016" gradientUnits="userSpaceOnUse">
<stop stop-color="#FFC671"/>
<stop offset="1" stop-color="#FF6F3D"/>
</linearGradient>
<linearGradient id="paint1_linear_125_352" x1="26.8465" y1="22.6148" x2="32.9959" y2="29.3536" gradientUnits="userSpaceOnUse">
<stop stop-color="#FFC671"/>
<stop offset="1" stop-color="#FF6F3D"/>
</linearGradient>
<linearGradient id="paint2_linear_125_352" x1="74.0001" y1="96.4375" x2="109.362" y2="155.226" gradientUnits="userSpaceOnUse">
<stop stop-color="#FFC671"/>
<stop offset="0.59375" stop-color="#FF7541"/>
<stop offset="1" stop-color="#FF6F3D"/>
</linearGradient>
<clipPath id="clip0_125_352">
<rect width="140" height="140" fill="white"/>
</clipPath>
</defs>
</svg>
