<svg width="140" height="140" viewBox="0 0 140 140" fill="none" xmlns="http://www.w3.org/2000/svg">
<path fill-rule="evenodd" clip-rule="evenodd" d="M74.0932 17.4401L135.339 113.556C137.89 117.565 138.28 120.921 137.849 122.76C137.039 126.247 132.438 125.996 127.827 125.996L13.5176 125.775C9.66665 125.765 6.90594 126.257 4.88542 124.358C3.11496 122.69 1.57458 119.062 5.23551 113.315L66.1611 17.7115C68.3817 14.2045 71.9526 14.0839 74.0932 17.4401Z" fill="url(#paint0_linear_125_1170)"/>
<path fill-rule="evenodd" clip-rule="evenodd" d="M74.6843 16.7546L136.219 112.544C137.405 114.387 138.149 116.109 138.561 117.622C139.083 119.535 139.093 121.137 138.832 122.249C137.938 126.045 133.546 126.025 128.933 125.995L13.24 125.765C12.5566 125.765 11.8933 125.775 11.2702 125.795C8.24527 125.855 5.96396 125.915 4.10475 124.162C2.96913 123.1 1.92396 121.338 2.00436 118.824C2.06465 117.021 2.70784 114.837 4.356 112.284L65.5692 16.9949C66.2023 16.0234 66.936 15.2823 67.7198 14.7815C68.5238 14.2707 69.3881 14.0003 70.2423 14.0003C71.1066 13.9903 71.9609 14.2407 72.7548 14.7414C73.4583 15.2122 74.1216 15.8832 74.6843 16.7546ZM135.073 113.295L73.5387 17.4957C73.0864 16.7846 72.5638 16.2538 72.0111 15.9033C71.4483 15.5427 70.8453 15.3724 70.2524 15.3724C69.6494 15.3724 69.0364 15.5727 68.4535 15.9433C67.8304 16.3439 67.2375 16.9449 66.7249 17.7461L5.51173 113.035C4.01432 115.368 3.42137 117.311 3.37113 118.884C3.31083 120.917 4.14496 122.339 5.04944 123.181C6.50665 124.543 8.54676 124.503 11.2501 124.442C11.8732 124.432 12.5365 124.412 13.2501 124.412L128.943 124.643C133.003 124.663 136.862 124.683 137.505 121.949C137.727 121.027 137.706 119.665 137.244 117.992C136.862 116.61 136.179 115.018 135.073 113.295Z" fill="#333333"/>
<path fill-rule="evenodd" clip-rule="evenodd" d="M74.3752 96.1244C74.3752 96.4056 74.3046 96.6366 74.1835 96.8475C74.0725 97.0584 73.8404 97.2392 73.5376 97.3798C73.2147 97.5003 72.8211 97.6108 72.3266 97.6811C71.8422 97.7514 71.2367 97.7916 70.5101 97.7916C69.7835 97.7916 69.1679 97.7514 68.6734 97.6811C68.189 97.6108 67.7954 97.5003 67.4826 97.3798C67.1596 97.2392 66.9477 97.0584 66.8266 96.8475C66.7156 96.6366 66.645 96.4056 66.645 96.1244L65.7569 46.4605C65.7165 46.0387 65.7771 45.6772 65.9184 45.3558C66.0596 45.0545 66.3119 44.7833 66.6853 44.5724C67.0385 44.3615 67.5229 44.2209 68.1486 44.1305C68.7541 44.0401 69.5413 44 70.5202 44C71.4688 44 72.2358 44.0502 72.8413 44.1607C73.4468 44.2711 73.9514 44.4118 74.3046 44.6227C74.678 44.8336 74.9303 45.0846 75.0716 45.3859C75.2128 45.6671 75.2835 46.0287 75.2835 46.4506L74.3752 96.1244ZM76 110.095C76 111.229 75.9092 112.174 75.7477 112.917C75.6064 113.66 75.3037 114.263 74.8697 114.724C74.4257 115.207 73.8505 115.518 73.1541 115.719C72.4578 115.91 71.5899 116 70.5 116C69.4101 116 68.522 115.91 67.8055 115.719C67.089 115.518 66.5239 115.207 66.1101 114.724C65.6862 114.263 65.3936 113.66 65.2523 112.917C65.0908 112.174 65 111.229 65 110.095C65 108.96 65.0908 107.995 65.2523 107.222C65.3936 106.439 65.6762 105.836 66.1101 105.414C66.5239 104.972 67.089 104.671 67.8055 104.47C68.522 104.269 69.4101 104.189 70.5 104.189C71.5899 104.189 72.4578 104.279 73.1541 104.47C73.8505 104.661 74.4257 104.962 74.8697 105.414C75.2936 105.836 75.5963 106.449 75.7477 107.222C75.9092 108.006 76 108.96 76 110.095Z" fill="#FEFEFE"/>
<defs>
<linearGradient id="paint0_linear_125_1170" x1="14.7307" y1="32.6674" x2="69.5424" y2="116.86" gradientUnits="userSpaceOnUse">
<stop stop-color="#FFC671"/>
<stop offset="1" stop-color="#FF6F3D"/>
</linearGradient>
</defs>
</svg>
