<svg width="140" height="140" viewBox="0 0 140 140" fill="none" xmlns="http://www.w3.org/2000/svg">
<path d="M124.5 36.781V36.7801C124.489 30.5677 119.377 25.5 113.144 25.5H12.8556C6.61271 25.5 1.5 30.5779 1.5 36.7909V93.209C1.5 99.422 6.6127 104.5 12.8556 104.5H113.144C119.387 104.5 124.5 99.422 124.5 93.209V36.781Z" fill="#FEFEFE" stroke="#333333"/>
<path d="M22.1455 47.5H103.855C105.828 47.5 107.5 49.2358 107.5 51.4225V57.5774C107.5 59.7641 105.828 61.5 103.855 61.5H22.1455C20.1721 61.5 18.5 59.7641 18.5 57.5774V51.4225C18.5 49.2358 20.1721 47.5 22.1455 47.5Z" fill="#BDECFF" stroke="#333333"/>
<path d="M22.1455 70.5H103.855C105.828 70.5 107.5 72.2358 107.5 74.4225V80.5774C107.5 82.7641 105.828 84.5 103.855 84.5H22.1455C20.1721 84.5 18.5 82.7641 18.5 80.5774V74.4225C18.5 72.2358 20.1721 70.5 22.1455 70.5Z" fill="#BDECFF" stroke="#333333"/>
<path fill-rule="evenodd" clip-rule="evenodd" d="M25 54.5C25 54.2239 25.2211 54 25.494 54H58.3117C58.5845 54 58.8057 54.2239 58.8057 54.5C58.8057 54.7761 58.5845 55 58.3117 55H25.494C25.2211 55 25 54.7761 25 54.5ZM67.1943 54.5C67.1943 54.2239 67.4155 54 67.6883 54H100.506C100.779 54 101 54.2239 101 54.5C101 54.7761 100.779 55 100.506 55H67.6883C67.4155 55 67.1943 54.7761 67.1943 54.5Z" fill="#333333"/>
<path fill-rule="evenodd" clip-rule="evenodd" d="M27 75C28.6588 75 30 76.3412 30 78C30 79.6588 28.6588 81 27 81C25.3412 81 24 79.6588 24 78C24 76.3412 25.3412 75 27 75Z" fill="#333333"/>
<path fill-rule="evenodd" clip-rule="evenodd" d="M37 75C38.6588 75 40 76.3412 40 78C40 79.6588 38.6588 81 37 81C35.3412 81 34 79.6588 34 78C34 76.3412 35.3412 75 37 75Z" fill="#333333"/>
<path d="M47 81C48.6569 81 50 79.6569 50 78C50 76.3432 48.6569 75 47 75C45.3431 75 44 76.3432 44 78C44 79.6569 45.3431 81 47 81Z" fill="#333333"/>
<path fill-rule="evenodd" clip-rule="evenodd" d="M57 75C58.6588 75 60 76.3412 60 78C60 79.6588 58.6588 81 57 81C55.3412 81 54 79.6588 54 78C54 76.3412 55.3412 75 57 75Z" fill="#333333"/>
<path fill-rule="evenodd" clip-rule="evenodd" d="M67 75C68.6588 75 70 76.3412 70 78C70 79.6588 68.6588 81 67 81C65.3412 81 64 79.6588 64 78C64 76.3412 65.3412 75 67 75Z" fill="#333333"/>
<path fill-rule="evenodd" clip-rule="evenodd" d="M77 75C78.6588 75 80 76.3412 80 78C80 79.6588 78.6588 81 77 81C75.3412 81 74 79.6588 74 78C74 76.3412 75.3412 75 77 75Z" fill="#333333"/>
<path fill-rule="evenodd" clip-rule="evenodd" d="M87 75C88.6588 75 90 76.3412 90 78C90 79.6588 88.6588 81 87 81C85.3412 81 84 79.6588 84 78C84 76.3412 85.3412 75 87 75Z" fill="#333333"/>
<path fill-rule="evenodd" clip-rule="evenodd" d="M96.1816 74.6299C97.8405 74.6299 99.1816 75.9711 99.1816 77.6299C99.1816 79.2887 97.8405 80.6299 96.1816 80.6299C94.5228 80.6299 93.1816 79.2887 93.1816 77.6299C93.1816 75.9711 94.5228 74.6299 96.1816 74.6299Z" fill="#333333"/>
<path fill-rule="evenodd" clip-rule="evenodd" d="M114 66C127.807 66 139 77.1933 139 91C139 104.807 127.807 116 114 116C100.193 116 89 104.807 89 91C89 77.1933 100.193 66 114 66Z" fill="url(#paint0_linear_125_470)"/>
<path fill-rule="evenodd" clip-rule="evenodd" d="M114 65C128.359 65 140 76.641 140 91C140 105.359 128.359 117 114 117C99.641 117 88 105.359 88 91C88 76.641 99.641 65 114 65ZM139 91C139 77.1933 127.807 66 114 66C100.193 66 89 77.1933 89 91C89 104.807 100.193 116 114 116C127.807 116 139 104.807 139 91Z" fill="#333333"/>
<path d="M97.5001 87.6426L97.5 87.6426V87.6515V94.3485C97.5 95.0747 98.0871 95.6619 98.8134 95.6619H109.338V106.187C109.338 106.913 109.925 107.5 110.652 107.5H117.348C118.075 107.5 118.662 106.913 118.662 106.187V95.6619H129.187C129.913 95.6619 130.5 95.0747 130.5 94.3485V87.6515C130.5 86.9253 129.913 86.3381 129.187 86.3381H118.662V75.8134C118.662 75.0872 118.075 74.5 117.348 74.5H110.652C109.925 74.5 109.338 75.0872 109.338 75.8134V86.3381H98.8134C98.0871 86.3381 97.5126 86.9393 97.5001 87.6426Z" fill="#FEFEFE" stroke="#333333"/>
<defs>
<linearGradient id="paint0_linear_125_470" x1="97.2612" y1="65.1709" x2="118.473" y2="97.9035" gradientUnits="userSpaceOnUse">
<stop stop-color="#FFC671"/>
<stop offset="1" stop-color="#FF6F3D"/>
</linearGradient>
</defs>
</svg>
