<svg width="140" height="140" viewBox="0 0 140 140" fill="none" xmlns="http://www.w3.org/2000/svg">
<path d="M53.5147 74.2916L53.4479 74.5607L53.6408 74.7599C55.2272 76.3981 57.5235 77.5858 60.1274 78.3617C62.7364 79.1391 65.6873 79.5131 68.62 79.4997C71.5527 79.4862 74.4834 79.0854 77.0523 78.3012C79.6151 77.519 81.8539 76.344 83.3624 74.7565L83.5712 74.5369L83.4731 74.2502C82.2853 70.7786 82.207 67.1737 82.1693 63.4703V63.4701V63.4699V63.4697V63.4694V63.4692V63.4689V63.4687V63.4684V63.4682V63.4679V63.4676V63.4673V63.467V63.4668V63.4665V63.4662V63.4659V63.4656V63.4652V63.4649V63.4646V63.4643V63.4639V63.4636V63.4632V63.4629V63.4625V63.4622V63.4618V63.4615V63.4611V63.4607V63.4603V63.4599V63.4595V63.4591V63.4587V63.4583V63.4579V63.4575V63.4571V63.4567V63.4562V63.4558V63.4554V63.4549V63.4545V63.454V63.4536V63.4531V63.4526V63.4522V63.4517V63.4512V63.4507V63.4502V63.4497V63.4492V63.4487V63.4482V63.4477V63.4472V63.4467V63.4462V63.4456V63.4451V63.4446V63.444V63.4435V63.4429V63.4424V63.4418V63.4413V63.4407V63.4401V63.4396V63.439V63.4384V63.4378V63.4372V63.4366V63.436V63.4354V63.4348V63.4342V63.4336V63.433V63.4323V63.4317V63.4311V63.4304V63.4298V63.4292V63.4285V63.4279V63.4272V63.4266V63.4259V63.4252V63.4246V63.4239V63.4232V63.4225V63.4218V63.4211V63.4205V63.4198V63.4191V63.4183V63.4176V63.4169V63.4162V63.4155V63.4148V63.414V63.4133V63.4126V63.4118V63.4111V63.4104V63.4096V63.4089V63.4081V63.4073V63.4066V63.4058V63.405V63.4043V63.4035V63.4027V63.4019V63.4012V63.4004V63.3996V63.3988V63.398V63.3972V63.3964V63.3956V63.3947V63.3939V63.3931V63.3923V63.3915V63.3906V63.3898V63.389V63.3881V63.3873V63.3864V63.3856V63.3847V63.3839V63.383V63.3822V63.3813V63.3804V63.3796V63.3787V63.3778V63.3769V63.3761V63.3752V63.3743V63.3734V63.3725V63.3716V63.3707V63.3698V63.3689V63.368V63.3671V63.3662V63.3653V63.3643V63.3634V63.3625V63.3616V63.3606V63.3597V63.3588V63.3578V63.3569V63.3559V63.355V63.354V63.3531V63.3521V63.3512V63.3502V63.3493V63.3483V63.3473V63.3464V63.3454V63.3444V63.3434V63.3425V63.3415V63.3405V63.3395V63.3385V63.3375V63.3365V63.3355V63.3345V63.3335V63.3325V63.3315V63.3305V63.3295V63.3285V63.3275V63.3265V63.3254V63.3244V63.3234V63.3224V63.3213V63.3203V63.3193V63.3182V63.3172V63.3162V63.3151V63.3141V63.313V63.312V63.3109V63.3099V63.3088V63.3078V63.3067V63.3057V63.3046V63.3035V63.3025V63.3014V63.3003V63.2993V63.2982V63.2971V63.296V63.295V63.2939V63.2928V63.2917V63.2906V63.2896V63.2885V63.2874V63.2863V63.2852V63.2841V63.283V63.2819V63.2808V63.2797V63.2786V63.2775V63.2764V63.2753V63.2742V63.273V63.2719V63.2708V63.2697V63.2686V63.2675V63.2663V63.2652V63.2641V63.263V63.2618V63.2607V63.2596V63.2584V63.2573V63.2562V63.255V63.2539V63.2528V63.2516V63.2505V63.2493V63.2482V63.2471V63.2459V63.2448V63.2436V63.2425V63.2413V63.2402V63.239V63.2379V63.2367V63.2356V63.2344V63.2332V63.2321V63.2309V63.2298V63.2286V63.2274V63.2263V63.2251V63.2239V63.2228V63.2216V63.2204V63.2193V63.2181V63.2169V63.2158V63.2146V63.2134V63.2122V63.2111V63.2099V63.2087V63.2075V63.2063V63.2052V63.204V63.2028V63.2016V63.2004V63.1993V63.1981V63.1969V63.1957V63.1945V63.1933V63.1921V63.191V63.1898V63.1886V63.1874V63.1862V63.185V63.1838V63.1826V63.1814V63.1802V63.1791V63.1779V63.1767V63.1755V63.1743V63.1731V63.1719V63.1707V63.1695V63.1683V63.1671V63.1659V63.1647V63.1635V63.1623V63.1611V63.1599V63.1587V63.1575V63.1563V63.1551V63.1539V63.1527V63.1515V63.1503V63.1491V63.1479V63.1467V63.1456V63.1444V63.1432V63.142V63.1408V63.1396V63.1384V63.1372V63.136V63.1348V63.1336V63.1324V63.1312V63.13V63.1288V63.1276V63.1264V63.1252V63.124V63.1228V63.1216V63.1204V63.1192V63.118V63.1168V63.1156V63.1144V63.1132V63.112V63.1108V63.1096V63.1084V63.1073V63.1061V63.1049V63.1037V63.1025V63.1013V63.1001V63.0989V63.0977V63.0965V63.0953V63.0942V63.093V63.0918V63.0906V63.0894V63.0882V63.087V63.0859V63.0847V63.0835V63.0823V63.0811V63.08V63.0788V63.0776V63.0764V63.0752V63.0741V63.0729V63.0717V63.0705V63.0694V63.0682V63.067V63.0659V63.0647V63.0635V63.0624V63.0612V63.06V63.0589V63.0577V63.0565V63.0554V63.0542V63.0531V63.0519V63.0507V63.0496V63.0484V63.0473V63.0461V63.045V63.0438V63.0427V63.0415V63.0404V63.0392V63.0381V63.0369V63.0358V63.0347V63.0335V63.0324V63.0312V63.0301V63.029V63.0278V63.0267V63.0256V63.0245V63.0233V63.0222V63.0211V63.02V63.0188V63.0177V63.0166V63.0155V63.0144V63.0132V63.0121V63.011V63.0099V63.0088V63.0077V63.0066V63.0055V63.0044V63.0033V63.0022V63.0011V63V62.0134L81.3736 62.5968C77.4968 65.4394 72.9413 67.0798 68.0606 67.0798C63.4735 67.0798 59.1641 65.6335 55.4495 63.0973L54.6675 62.5634V63.5102V63.511V63.5117V63.5124V63.5132V63.5139V63.5146V63.5154V63.5161V63.5168V63.5175V63.5183V63.519V63.5197V63.5205V63.5212V63.5219V63.5226V63.5234V63.5241V63.5248V63.5256V63.5263V63.527V63.5277V63.5285V63.5292V63.5299V63.5306V63.5314V63.5321V63.5328V63.5336V63.5343V63.535V63.5357V63.5365V63.5372V63.5379V63.5386V63.5394V63.5401V63.5408V63.5415V63.5423V63.543V63.5437V63.5444V63.5452V63.5459V63.5466V63.5473V63.548V63.5488V63.5495V63.5502V63.5509V63.5517V63.5524V63.5531V63.5538V63.5545V63.5553V63.556V63.5567V63.5574V63.5581V63.5589V63.5596V63.5603V63.561V63.5617V63.5624V63.5632V63.5639V63.5646V63.5653V63.566V63.5667V63.5674V63.5682V63.5689V63.5696V63.5703V63.571V63.5717V63.5724V63.5731V63.5738V63.5746V63.5753V63.576V63.5767V63.5774V63.5781V63.5788V63.5795V63.5802V63.5809V63.5816V63.5823V63.583V63.5837V63.5844V63.5851V63.5858V63.5865V63.5872V63.5879V63.5886V63.5893V63.59V63.5907V63.5914V63.5921V63.5928V63.5935V63.5942V63.5949V63.5956V63.5963V63.597V63.5977V63.5984V63.5991V63.5998V63.6005V63.6011V63.6018V63.6025V63.6032V63.6039V63.6046V63.6053V63.606V63.6066V63.6073V63.608V63.6087V63.6094V63.61V63.6107V63.6114V63.6121V63.6128V63.6134V63.6141V63.6148V63.6155V63.6161V63.6168V63.6175V63.6182V63.6188V63.6195V63.6202V63.6208V63.6215V63.6222V63.6228V63.6235V63.6242V63.6248V63.6255V63.6262V63.6268V63.6275V63.6281V63.6288V63.6295V63.6301V63.6308V63.6314V63.6321V63.6327V63.6334V63.634V63.6347V63.6353V63.636V63.6366V63.6373V63.6379V63.6386V63.6392V63.6399V63.6405V63.6412V63.6418V63.6424V63.6431V63.6437V63.6443V63.645V63.6456V63.6463V63.6469V63.6475V63.6482V63.6488V63.6494V63.65V63.6507V63.6513V63.6519V63.6525V63.6532V63.6538V63.6544V63.655V63.6557V63.6563V63.6569V63.6575V63.6581V63.6587V63.6593V63.66V63.6606V63.6612V63.6618V63.6624V63.663V63.6636V63.6642V63.6648V63.6654V63.666V63.6666V63.6672V63.6678V63.6684V63.669V63.6696V63.6702V63.6708V63.6714V63.672V63.6725V63.6731V63.6737V63.6743V63.6749V63.6755V63.6761V63.6766V63.6772V63.6778V63.6784V63.6789V63.6795V63.6801V63.6807V63.6812V63.6818V63.6824V63.6829V63.6835V63.6841V63.6846V63.6852V63.6857V63.6863V63.6868V63.6874V63.688V63.6885V63.6891V63.6896V63.6902V63.6907V63.6913V63.6918V63.6923V63.6929V63.6934V63.694V63.6945V63.695V63.6956V63.6961V63.6966V63.6972V63.6977V63.6982V63.6988V63.6993V63.6998V63.7003V63.7008V63.7014V63.7019V63.7024V63.7029V63.7034V63.7039V63.7045V63.705V63.7055V63.706V63.7065V63.707V63.7075V63.708V63.7085V63.709V63.7095V63.71V63.7105V63.711V63.7114V63.7119V63.7124V63.7129V63.7134V63.7139V63.7143V63.7148V63.7153V63.7158V63.7162V63.7167V63.7172V63.7177V63.7181V63.7186V63.7191V63.7195V63.72V63.7204V63.7209V63.7214V63.7218V63.7223V63.7227V63.7232V63.7236V63.7241V63.7245V63.7249V63.7254V63.7258V63.7263V63.7267V63.7271V63.7276V63.728V63.7284V63.7288V63.7293V63.7297V63.7301V63.7305V63.731V63.7314V63.7318V63.7322V63.7326V63.733V63.7334V63.7338V63.7342V63.7346V63.735V63.7354V63.7358V63.7362V63.7366V63.737V63.7374V63.7378V63.7382V63.7386V63.7389V63.7393V63.7397V63.7401V63.7404V63.7408V63.7412V63.7416V63.7419V63.7423V63.7426V63.743V63.7434V63.7437V63.7441V63.7444V63.7448V63.7451V63.7455V63.7458V63.7462V63.7465V63.7469V63.7472V63.7475V63.7479V63.7482V63.7485V63.7488V63.7492V63.7495V63.7498V63.7501V63.7505V63.7508V63.7511V63.7514V63.7517V63.752V63.7523V63.7526V63.7529V63.7532V63.7535V63.7538V63.7541V63.7544V63.7547V63.755V63.7553V63.7555V63.7558V63.7561V63.7564V63.7566V63.7569V63.7572V63.7575V63.7577V63.758V63.7582V63.7585V63.7588V63.7588C54.6612 63.883 54.6548 64.0071 54.6485 64.1311C54.467 67.6847 54.2888 71.1752 53.5147 74.2916Z" fill="#FEFEFE" stroke="#333333"/>
<mask id="path-2-outside-1_125_1135" maskUnits="userSpaceOnUse" x="10" y="73" width="118" height="66" fill="black">
<rect fill="white" x="10" y="73" width="118" height="66"/>
<path fill-rule="evenodd" clip-rule="evenodd" d="M83.5 75C88.5378 76.24 100.945 80.0726 108.977 84.3C121.825 91.1995 123.954 106.317 125.791 119.366C125.861 119.861 125.931 120.354 126 120.843C111.453 129.569 95.1466 135.593 78 137C77.4062 132.411 77.0598 127.386 76.6972 122.125C76.0598 112.878 75.3723 102.905 73.2036 93.3003C75.3955 88.2029 75.9936 87.3151 77.2683 85.4228C78.3643 83.7958 79.9604 81.4263 83.5 75ZM64.4837 93.9158L58.5994 83.0597C56.2319 81.1172 53.1226 80.1485 50.2012 79.2382C48.4603 78.6958 46.786 78.1742 45.3752 77.4797C44.2522 77.8652 43.0943 78.2525 41.9211 78.645C34.8469 81.0114 27.2144 83.5646 23.2975 87.0301C15.5687 93.8696 13.8592 106.771 12.4803 117.177C12.3187 118.397 12.1617 119.582 12 120.72C20.8161 129.56 44.7455 136.38 59.2291 137C59.2291 135.564 59.2203 134.098 59.2114 132.61C59.1346 119.777 59.0477 105.25 64.4837 93.9158Z"/>
</mask>
<path fill-rule="evenodd" clip-rule="evenodd" d="M83.5 75C88.5378 76.24 100.945 80.0726 108.977 84.3C121.825 91.1995 123.954 106.317 125.791 119.366C125.861 119.861 125.931 120.354 126 120.843C111.453 129.569 95.1466 135.593 78 137C77.4062 132.411 77.0598 127.386 76.6972 122.125C76.0598 112.878 75.3723 102.905 73.2036 93.3003C75.3955 88.2029 75.9936 87.3151 77.2683 85.4228C78.3643 83.7958 79.9604 81.4263 83.5 75ZM64.4837 93.9158L58.5994 83.0597C56.2319 81.1172 53.1226 80.1485 50.2012 79.2382C48.4603 78.6958 46.786 78.1742 45.3752 77.4797C44.2522 77.8652 43.0943 78.2525 41.9211 78.645C34.8469 81.0114 27.2144 83.5646 23.2975 87.0301C15.5687 93.8696 13.8592 106.771 12.4803 117.177C12.3187 118.397 12.1617 119.582 12 120.72C20.8161 129.56 44.7455 136.38 59.2291 137C59.2291 135.564 59.2203 134.098 59.2114 132.61C59.1346 119.777 59.0477 105.25 64.4837 93.9158Z" fill="#FEFEFE"/>
<path d="M108.977 84.3L109.45 83.419L109.443 83.4151L108.977 84.3ZM83.5 75L83.739 74.029L82.9942 73.8456L82.6241 74.5175L83.5 75ZM125.791 119.366L124.801 119.505L124.801 119.505L125.791 119.366ZM126 120.843L126.515 121.701L127.084 121.359L126.99 120.702L126 120.843ZM78 137L77.0083 137.128L77.1307 138.075L78.0818 137.997L78 137ZM76.6972 122.125L75.6995 122.194L75.6995 122.194L76.6972 122.125ZM73.2036 93.3003L72.285 92.9052L72.1566 93.2036L72.2282 93.5205L73.2036 93.3003ZM77.2683 85.4228L78.0977 85.9815L78.0977 85.9815L77.2683 85.4228ZM58.5994 83.0597L59.4785 82.5831L59.3852 82.4109L59.2337 82.2866L58.5994 83.0597ZM64.4837 93.9158L65.3854 94.3483L65.6061 93.888L65.3629 93.4393L64.4837 93.9158ZM50.2012 79.2382L50.4986 78.2835L50.4986 78.2835L50.2012 79.2382ZM45.3752 77.4797L45.8169 76.5825L45.4438 76.3988L45.0506 76.5339L45.3752 77.4797ZM41.9211 78.645L41.6038 77.6966L41.6038 77.6966L41.9211 78.645ZM23.2975 87.0301L22.6348 86.2812L22.6347 86.2813L23.2975 87.0301ZM12.4803 117.177L13.4717 117.309L12.4803 117.177ZM12 120.72L11.01 120.579L10.9398 121.073L11.2919 121.426L12 120.72ZM59.2291 137L59.1863 137.999L60.2291 138.043V137H59.2291ZM59.2114 132.61L60.2114 132.604L60.2114 132.604L59.2114 132.61ZM109.443 83.4151C101.309 79.1338 88.8129 75.2779 83.739 74.029L83.261 75.971C88.2627 77.2021 100.582 81.0114 108.511 85.1849L109.443 83.4151ZM126.782 119.226C125.866 112.724 124.863 105.569 122.449 99.1737C120.024 92.7515 116.149 87.0167 109.45 83.419L108.504 85.181C114.652 88.4829 118.266 93.7565 120.577 99.88C122.899 106.031 123.879 112.959 124.801 119.505L126.782 119.226ZM126.99 120.702C126.921 120.214 126.851 119.722 126.782 119.226L124.801 119.505C124.871 120.001 124.94 120.494 125.01 120.984L126.99 120.702ZM78.0818 137.997C95.4088 136.575 111.862 130.49 126.515 121.701L125.486 119.985C111.044 128.648 94.8844 134.611 77.9182 136.003L78.0818 137.997ZM75.6995 122.194C76.0617 127.447 76.4099 132.504 77.0083 137.128L78.9917 136.872C78.4025 132.318 78.0579 127.324 77.6948 122.056L75.6995 122.194ZM72.2282 93.5205C74.3771 103.038 75.0613 112.935 75.6995 122.194L77.6948 122.056C77.0583 112.822 76.3674 102.772 74.1791 93.08L72.2282 93.5205ZM76.4389 84.8641C75.122 86.8191 74.4956 87.7644 72.285 92.9052L74.1223 93.6953C76.2955 88.6414 76.8653 87.811 78.0977 85.9815L76.4389 84.8641ZM82.6241 74.5175C79.0995 80.9166 77.519 83.2607 76.4389 84.8641L78.0977 85.9815C79.2095 84.331 80.8213 81.9361 84.3759 75.4825L82.6241 74.5175ZM57.7202 83.5362L63.6046 94.3923L65.3629 93.4393L59.4785 82.5831L57.7202 83.5362ZM49.9037 80.193C52.8652 81.1157 55.7751 82.036 57.9651 83.8328L59.2337 82.2866C56.6886 80.1985 53.3801 79.1813 50.4986 78.2835L49.9037 80.193ZM44.9336 78.3769C46.4279 79.1125 48.1821 79.6566 49.9037 80.193L50.4986 78.2835C48.7384 77.7351 47.1442 77.2359 45.8169 76.5825L44.9336 78.3769ZM42.2383 79.5933C43.4108 79.2011 44.5725 78.8125 45.6999 78.4255L45.0506 76.5339C43.9319 76.9179 42.7778 77.3039 41.6038 77.6966L42.2383 79.5933ZM23.9601 87.7791C25.7909 86.1592 28.5526 84.7055 31.8099 83.3485C35.0525 81.9976 38.6936 80.7791 42.2383 79.5933L41.6038 77.6966C38.0743 78.8773 34.3621 80.1186 31.0407 81.5023C27.7339 82.8799 24.7209 84.4355 22.6348 86.2812L23.9601 87.7791ZM13.4717 117.309C14.1629 112.092 14.9268 106.342 16.4679 101.046C18.0098 95.7467 20.2987 91.0192 23.9602 87.779L22.6347 86.2813C18.5674 89.8806 16.1372 95.0237 14.5475 100.487C12.9569 105.953 12.1766 111.856 11.489 117.046L13.4717 117.309ZM12.99 120.86C13.1525 119.717 13.3102 118.527 13.4717 117.309L11.489 117.046C11.3273 118.267 11.1708 119.447 11.01 120.579L12.99 120.86ZM59.2719 136.001C52.1395 135.695 42.6269 133.857 33.798 130.991C24.9346 128.114 16.9406 124.258 12.7081 120.013L11.2919 121.426C15.8755 126.022 24.2542 129.996 33.1805 132.893C42.1412 135.802 51.8351 137.684 59.1863 137.999L59.2719 136.001ZM58.2114 132.616C58.2204 134.105 58.2291 135.568 58.2291 137H60.2291C60.2291 135.561 60.2203 134.092 60.2114 132.604L58.2114 132.616ZM63.5821 93.4834C58.0271 105.065 58.135 119.845 58.2114 132.616L60.2114 132.604C60.1342 119.709 60.0683 105.434 65.3854 94.3483L63.5821 93.4834Z" fill="#333333" mask="url(#path-2-outside-1_125_1135)"/>
<path fill-rule="evenodd" clip-rule="evenodd" d="M69.5 68C74.4267 68 79.0192 66.3299 82.9184 63.4474C84.6267 62.1856 86.1988 60.6763 87.6099 58.9814C90.1971 55.8639 92.2272 52.066 93.5022 47.8474C94.4677 44.6186 95 41.1423 95 37.5299C95 36.268 94.9381 35.0186 94.8143 33.7938C89.0211 33.2742 69.2277 32.1237 62.8155 14C60.1541 20.5567 57.3689 23.9216 45.2874 27.9423C44.458 30.9608 44 34.1773 44 37.5299C44 39.5093 44.1609 41.4392 44.458 43.3072C45.4359 49.3567 47.8993 54.7876 51.39 58.9814C52.9869 60.9113 54.8066 62.5814 56.7871 63.9423C60.5255 66.5278 64.8704 68 69.5 68Z" fill="#FEFEFE"/>
<path fill-rule="evenodd" clip-rule="evenodd" d="M78.5 137.5V134C78.4485 131.975 78.6675 128.82 78.5 125.5C78.3454 122.193 78.24 118.723 77.8793 114.975C77.2097 108.138 76.346 100.833 73.3581 94.5404L75.5 88.1465C69.4509 77.0736 67.6695 77.4975 61.5 88.1465L63 91.6364L64 94.1293C63 96.7167 61.6579 100.841 61 104.101C58.871 114.649 59.0084 125.511 59.0084 136.265C59.0084 136.392 58.9692 137.717 59.06 137.717C64.4004 137.818 71.0323 138.083 78.5 137.5Z" fill="url(#paint0_linear_125_1135)"/>
<path fill-rule="evenodd" clip-rule="evenodd" d="M79 138H78C72.4795 138.447 67.2196 138.262 62.7626 138.11C61.4399 138.065 60.1958 138.022 59.0491 138C58.4797 137.993 58.2112 137.433 58.1816 137.38L58.1807 137.379C58.1147 137.262 58.086 137.158 58.0762 137.121C58.0523 137.031 58.0418 136.947 58.0367 136.903C58.025 136.801 58.0183 136.68 58.0137 136.566C58.0043 136.329 58.0009 136.024 58.0001 135.727C57.9988 135.183 58.0085 135.289 58.0085 135.3C58.0085 124.672 58.5568 113.667 60.5975 103.18C61.2519 99.8166 62.0906 96.7234 63.1824 94.3819L63.1829 94.3809L63.3616 93.9955L62.2679 91.676L60.4771 87.9332L60.8354 87.4443C61.6239 86.3683 62.3266 85.3828 62.9555 84.5009C63.8347 83.268 64.5693 82.2377 65.1918 81.4461C65.7322 80.7588 66.2408 80.1809 66.7429 79.7661C67.2468 79.3499 67.8304 79.0262 68.51 79.0015C69.2013 78.9764 69.8001 79.267 70.3162 79.6732C70.823 80.072 71.3251 80.6406 71.8502 81.3202C72.5679 82.2489 73.4225 83.5124 74.4802 85.0763C74.9616 85.7881 75.4851 86.5621 76.057 87.3952L76.3698 87.8509L73.7192 94.1641C76.4907 100.447 77.2976 107.642 77.919 114.222L77.9192 114.224C78.2635 117.935 78.497 121.631 78.6445 124.903L78.6446 124.906L77.6535 124.951C77.5066 121.692 77.2741 118.011 76.9314 114.318C76.295 107.579 75.4744 100.379 72.6353 94.1778L75.2423 87.9686C71.5735 82.6242 70.0903 80.0105 68.5971 80.0047C67.0695 79.9987 65.5314 82.722 61.6321 88.043L63.162 91.2405L64.4594 93.9919L64.08 94.8099C63.0396 97.0408 62.2196 100.04 61.5709 103.374C59.548 113.77 59.0006 124.701 59.0006 135.3C59.0006 135.314 59.0002 135.357 58.9994 135.421C58.9938 135.918 58.9727 136.886 59.0491 136.886C60.2202 136.908 61.482 136.951 62.8174 136.997C67.2683 137.148 72.5419 137.442 78 137L77.935 133.032C77.886 131.037 77.8126 128.223 77.6535 124.951" fill="#333333"/>
<path d="M78.6446 124.906L77.6535 124.951L79 138L78.6446 124.906Z" fill="#333333"/>
<path fill-rule="evenodd" clip-rule="evenodd" d="M59.5398 66.6349C45.7222 59.5348 40.0487 43.104 44.4774 28L45.4433 28.2802C41.1261 43.0041 46.6813 58.9013 60.0016 65.7457L60.0023 65.7461C65.8364 68.7561 72.8108 68.7445 78.648 65.7457C89.9995 59.9129 95.0486 46.6953 93.812 33.7803L94.8136 33.6854C96.0759 46.8698 90.9357 60.5583 79.1098 66.6349L79.1097 66.6349C72.9844 69.7817 65.6655 69.795 59.5398 66.6349Z" fill="#333333"/>
<path fill-rule="evenodd" clip-rule="evenodd" d="M75.1839 89.5362C75.4407 89.6412 75.5666 89.9417 75.4651 90.2074C74.3659 93.0843 73.168 95.0252 71.9034 96.178C70.6191 97.3486 69.2596 97.7078 67.9226 97.3893C66.6185 97.0786 65.412 96.1413 64.3528 94.8868C63.2881 93.6259 62.3355 92.0016 61.5462 90.2342C61.4304 89.9749 61.5397 89.6675 61.7904 89.5477C62.0411 89.4279 62.3382 89.541 62.454 89.8003C63.2159 91.5064 64.1209 93.0397 65.106 94.2063C66.0964 95.3793 67.1317 96.1392 68.147 96.3811C69.1292 96.6152 70.1666 96.3823 71.2423 95.4018C72.3376 94.4034 73.4627 92.634 74.5351 89.8271C74.6366 89.5615 74.9271 89.4312 75.1839 89.5362Z" fill="#333333"/>
<path fill-rule="evenodd" clip-rule="evenodd" d="M62.0322 13.9525C68.3128 32.1767 87.7379 33.3336 93.4354 33.8561C93.9029 38.5958 93.9402 43.4337 92.6075 48C110.384 4.1918 68.9564 -3.94821 61.4369 5.53084C44.8426 4.19187 35.9374 26.7326 44.0285 43.4346C43.231 38.2964 43.4965 32.9914 44.8425 27.9721C56.687 23.9292 59.4203 20.5456 62.0322 13.9525Z" fill="#E2E2E2" stroke="#333333" stroke-linejoin="round"/>
<path d="M49.4802 84.4757C47.8573 82.0299 46.2645 79.6294 44.7467 77.1274C45.0047 77.0375 45.2608 76.9479 45.5152 76.8589C48.3025 75.8835 50.9012 74.9741 53.8235 74.5312C55.3769 76.0473 57.5909 77.1531 60.0955 77.8847C62.3907 78.5551 64.958 78.9195 67.5461 78.9889L67.5197 79.0216C66.5237 80.2557 65.5865 81.5602 64.6578 82.8529C64.5338 83.0255 64.41 83.1979 64.2862 83.3699C63.2315 84.835 62.1765 86.2744 61.0281 87.6026C60.5259 88.1732 60.0111 88.7443 59.4939 89.3179L59.4938 89.3178L59.4871 89.3256C59.0273 89.8573 58.5217 90.3919 57.9605 90.8005C57.4013 91.2077 56.8133 91.4703 56.1854 91.4974L56.1839 91.4975C55.7515 91.5174 55.3465 91.4195 54.9496 91.2127C54.5115 90.9794 54.0382 90.5949 53.5057 90.0323C53.03 89.5133 52.5131 88.8705 51.9424 88.0882L51.9416 88.0871C51.3578 87.2915 50.7351 86.3718 50.0587 85.3479L50.0583 85.3473C49.8652 85.056 49.6725 84.7655 49.4802 84.4757ZM69.7102 79.032L69.6703 78.9797C72.2574 78.8881 74.8093 78.5024 77.0738 77.8254C79.5342 77.0899 81.6915 75.9996 83.1754 74.5348C83.9992 74.6743 84.7822 74.8708 85.7918 75.1241C85.8972 75.1506 86.0051 75.1776 86.1158 75.2053C88.1932 75.7298 90.2362 76.3869 92.2743 77.0867C91.0342 79.3007 89.7627 81.2415 88.3331 83.4067L88.3328 83.4072L88.1986 83.611C87.2804 85.0051 86.4746 86.2287 85.6805 87.3631C84.8994 88.476 84.2122 89.3591 83.6053 90.02C82.7999 90.8722 81.9485 91.5087 80.9155 91.4849V91.4847H80.904C80.6791 91.4847 80.4611 91.4461 80.2479 91.3757L80.2479 91.3756L80.2414 91.3736C79.364 91.0968 78.5772 90.4625 77.8195 89.6669C77.4435 89.272 77.0846 88.8484 76.73 88.4232C76.6781 88.361 76.6262 88.2986 76.5743 88.2363C76.2834 87.8866 75.993 87.5376 75.7063 87.2191C75.5563 86.9988 75.3966 86.7921 75.2292 86.5899C74.7485 85.9029 74.305 85.2623 73.8939 84.6683C72.4601 82.5971 71.4199 81.0944 70.5659 80.1811C70.3426 79.8569 70.0939 79.5326 69.8437 79.2063C69.7992 79.1482 69.7547 79.0901 69.7102 79.032Z" fill="#BDECFF" stroke="#333333"/>
<defs>
<linearGradient id="paint0_linear_125_1135" x1="48.6292" y1="84.971" x2="71.7139" y2="121.46" gradientUnits="userSpaceOnUse">
<stop stop-color="#FFC671"/>
<stop offset="1" stop-color="#FF6F3D"/>
</linearGradient>
</defs>
</svg>
