<svg width="140" height="140" viewBox="0 0 140 140" fill="none" xmlns="http://www.w3.org/2000/svg">
<g clip-path="url(#clip0_2_11593)">
<path fill-rule="evenodd" clip-rule="evenodd" d="M68.1503 44.8635L92.7546 72.5772C93.9816 73.9643 93.8543 76.103 92.4768 77.3273L49.4992 115.482C48.1121 116.709 45.9734 116.582 44.7491 115.204L20.1448 87.4905C18.9178 86.1034 19.045 83.9647 20.4225 82.7404L63.3905 44.5885C64.7873 43.3588 66.9233 43.4764 68.1503 44.8635ZM113.048 41.4796C112.893 42.6313 112.576 43.7561 112.087 44.8251C111.437 46.2399 110.495 47.5393 109.259 48.6411C104.469 52.8914 97.1463 52.4524 92.8987 47.6725C88.6484 42.8829 89.0875 35.5599 93.8674 31.3123C98.6473 27.0647 105.98 27.501 110.228 32.2809C111.709 33.949 112.623 35.921 112.977 37.9665C113.179 39.1326 113.2 40.3182 113.048 41.4796ZM130.139 14.6029C127.86 11.9594 123.107 13.0567 110.582 12.9843C100.997 12.9394 91.4778 12.8347 81.9133 12.753L79.0174 12.7338C77.6565 12.7206 77.3013 13.0064 75.5009 14.608L4.71042 77.4569C1.38105 80.408 1.07777 85.5485 4.02884 88.8779L41.4632 131.021C44.4143 134.35 49.5549 134.654 52.8842 131.702L123.665 68.8562C125.475 67.252 125.8 66.9331 125.952 65.5854L126.277 62.7077C126.834 57.7344 127.372 52.7665 127.922 47.8055C128.155 45.7098 128.39 43.6238 128.613 41.5309C128.885 39.0929 129.156 36.6549 129.437 34.2141C130.848 21.7707 132.207 17.0014 130.139 14.6029Z" fill="#BDECFF"/>
<mask id="path-2-outside-1_2_11593" maskUnits="userSpaceOnUse" x="1" y="11.7334" width="132" height="123" fill="black">
<rect fill="white" x="1" y="11.7334" width="132" height="123"/>
<path fill-rule="evenodd" clip-rule="evenodd" d="M68.1502 44.8635L92.7546 72.5772C93.9816 73.9643 93.8543 76.103 92.4768 77.3273L49.4992 115.482C48.1121 116.709 45.9734 116.582 44.7491 115.204L20.1448 87.4905C18.9178 86.1034 19.045 83.9647 20.4225 82.7404L63.3905 44.5885C64.7873 43.3588 66.9233 43.4764 68.1502 44.8635ZM130.139 14.6029C127.86 11.9594 123.107 13.0567 110.582 12.9843C100.997 12.9394 91.4778 12.8347 81.9133 12.753L79.0174 12.7338C77.6565 12.7206 77.3013 13.0064 75.5009 14.608L4.71041 77.4569C1.38105 80.408 1.07777 85.5485 4.02885 88.8779L41.4632 131.021C44.4143 134.35 49.5549 134.654 52.8842 131.702L123.665 68.8562C125.475 67.252 125.8 66.9331 125.952 65.5854L126.277 62.7077C126.834 57.7344 127.372 52.7665 127.922 47.8055C128.155 45.7098 128.39 43.6238 128.613 41.5309C128.885 39.0929 129.156 36.6549 129.437 34.2141C130.848 21.7707 132.207 17.0014 130.139 14.6029Z"/>
</mask>
<path d="M109.259 48.6411L109.591 49.0151L109.592 49.0143L109.259 48.6411ZM92.8987 47.6725L92.5247 48.0043L92.525 48.0046L92.8987 47.6725ZM111.633 44.6162C111.011 45.9695 110.11 47.2127 108.926 48.2679L109.592 49.0143C110.88 47.866 111.863 46.5104 112.542 45.0341L111.633 44.6162ZM108.927 48.2671C104.344 52.3341 97.3368 51.914 93.2725 47.3403L92.525 48.0046C96.9558 52.9907 104.595 53.4487 109.591 49.0151L108.927 48.2671ZM93.2727 47.3406C89.2057 42.7576 89.6258 35.7504 94.1995 31.686L93.5352 30.9385C88.5491 35.3694 88.0912 43.0083 92.5247 48.0043L93.2727 47.3406ZM94.1995 31.686C98.7727 27.6221 105.789 28.0393 109.854 32.613L110.601 31.9488C106.17 26.9627 98.5218 26.5073 93.5352 30.9385L94.1995 31.686ZM68.1502 44.8635L67.4012 45.5261L67.4024 45.5274L68.1502 44.8635ZM92.7546 72.5772L93.5036 71.9147L93.5024 71.9133L92.7546 72.5772ZM92.4768 77.3273L93.1407 78.0751L93.1412 78.0748L92.4768 77.3273ZM49.4992 115.482L50.1618 116.231L50.1631 116.23L49.4992 115.482ZM44.7491 115.204L44.0013 115.868L44.0017 115.869L44.7491 115.204ZM20.1448 87.4905L19.3957 88.1531L19.3969 88.1544L20.1448 87.4905ZM20.4225 82.7404L19.7586 81.9927L19.7582 81.993L20.4225 82.7404ZM63.3905 44.5885L62.7297 43.8379L62.7266 43.8407L63.3905 44.5885ZM130.139 14.6029L129.382 15.2559L130.139 14.6029ZM110.582 12.9843L110.588 11.9843L110.587 11.9843L110.582 12.9843ZM81.9133 12.753L81.9218 11.753L81.9199 11.753L81.9133 12.753ZM79.0174 12.7338L79.0077 13.7338L79.0108 13.7338L79.0174 12.7338ZM75.5009 14.608L76.1648 15.3558L76.1656 15.3551L75.5009 14.608ZM4.71041 77.4569L5.37373 78.2052L5.37433 78.2047L4.71041 77.4569ZM4.02885 88.8779L3.2805 89.5412L3.28121 89.542L4.02885 88.8779ZM41.4632 131.021L42.2116 130.358L42.2109 130.357L41.4632 131.021ZM52.8842 131.702L53.5476 132.451L53.5482 132.45L52.8842 131.702ZM123.665 68.8562L123.002 68.1078L123.001 68.1084L123.665 68.8562ZM125.952 65.5854L124.958 65.4732L124.958 65.4736L125.952 65.5854ZM126.277 62.7077L127.27 62.8198L127.27 62.819L126.277 62.7077ZM127.922 47.8055L126.928 47.6952L126.928 47.6952L127.922 47.8055ZM128.613 41.5309L127.619 41.4202L127.619 41.425L128.613 41.5309ZM129.437 34.2141L130.431 34.3286L130.431 34.3268L129.437 34.2141ZM67.4024 45.5274L92.0068 73.2411L93.5024 71.9133L68.8981 44.1996L67.4024 45.5274ZM92.0056 73.2398C92.8689 74.2157 92.7761 75.7234 91.8125 76.5799L93.1412 78.0748C94.9326 76.4826 95.0943 73.713 93.5036 71.9147L92.0056 73.2398ZM91.8129 76.5795L48.8353 114.734L50.1631 116.23L93.1407 78.0751L91.8129 76.5795ZM48.8367 114.733C47.8608 115.596 46.353 115.504 45.4966 114.54L44.0017 115.869C45.5938 117.66 48.3635 117.822 50.1618 116.231L48.8367 114.733ZM45.4969 114.54L20.8926 86.8266L19.3969 88.1544L44.0013 115.868L45.4969 114.54ZM20.8938 86.828C20.0305 85.8521 20.1232 84.3443 21.0868 83.4879L19.7582 81.993C17.9668 83.5852 17.805 86.3548 19.3957 88.1531L20.8938 86.828ZM21.0865 83.4882L64.0545 45.3362L62.7266 43.8407L19.7586 81.9927L21.0865 83.4882ZM64.0513 45.339C65.0419 44.4669 66.5463 44.5596 67.4012 45.5261L68.8993 44.201C67.3002 42.3932 64.5326 42.2507 62.7297 43.8379L64.0513 45.339ZM130.896 13.9498C129.443 12.2645 127.259 11.8948 124.224 11.8297C122.677 11.7965 120.81 11.8451 118.579 11.8963C116.338 11.9476 113.704 12.0023 110.588 11.9843L110.577 13.9842C113.723 14.0024 116.38 13.9472 118.624 13.8957C120.878 13.8441 122.69 13.7972 124.181 13.8292C127.224 13.8945 128.556 14.2978 129.382 15.2559L130.896 13.9498ZM110.587 11.9843C101.004 11.9395 91.4897 11.8348 81.9218 11.753L81.9047 13.753C91.466 13.8346 100.99 13.9394 110.578 13.9842L110.587 11.9843ZM81.9199 11.753L79.024 11.7338L79.0108 13.7338L81.9066 13.753L81.9199 11.753ZM79.0271 11.7339C78.2557 11.7264 77.6314 11.8045 76.9368 12.1921C76.3345 12.5281 75.7019 13.0908 74.8363 13.8608L76.1656 15.3551C77.1003 14.5236 77.5455 14.1426 77.9112 13.9387C78.1845 13.7862 78.4183 13.7281 79.0077 13.7338L79.0271 11.7339ZM74.837 13.8601L4.0465 76.7091L5.37433 78.2047L76.1648 15.3558L74.837 13.8601ZM4.0471 76.7085C0.303365 80.0269 -0.0359562 85.7996 3.2805 89.5412L4.77719 88.2146C2.19149 85.2974 2.45874 80.789 5.37373 78.2052L4.0471 76.7085ZM40.7149 131.684C44.0333 135.428 49.806 135.767 53.5476 132.451L52.2209 130.954C49.3038 133.54 44.7954 133.273 42.2116 130.358L40.7149 131.684ZM53.5482 132.45L124.329 69.604L123.001 68.1084L52.2203 130.955L53.5482 132.45ZM124.328 69.6046C125.199 68.8329 125.833 68.2705 126.239 67.713C126.707 67.0701 126.86 66.4618 126.946 65.6971L124.958 65.4736C124.893 66.0567 124.807 66.2817 124.622 66.5362C124.374 66.8762 123.941 67.2753 123.002 68.1078L124.328 69.6046ZM126.946 65.6975L127.27 62.8198L125.283 62.5956L124.958 65.4732L126.946 65.6975ZM127.27 62.819C127.828 57.8463 128.366 52.872 128.916 47.9157L126.928 47.6952C126.378 52.6609 125.84 57.6225 125.283 62.5963L127.27 62.819ZM128.916 47.9158C129.148 45.8225 129.384 43.7327 129.607 41.6368L127.619 41.425C127.396 43.515 127.161 45.5972 126.928 47.6952L128.916 47.9158ZM129.607 41.6416C129.878 39.2033 130.15 36.7671 130.431 34.3286L128.444 34.0997C128.162 36.5426 127.891 38.9825 127.619 41.4202L129.607 41.6416ZM130.431 34.3268C131.127 28.1855 131.831 23.7779 132.089 20.7259C132.345 17.7041 132.234 15.5006 130.896 13.9498L129.382 15.2559C130.113 16.1037 130.356 17.4842 130.096 20.5574C129.839 23.6006 129.158 27.7994 128.443 34.1015L130.431 34.3268ZM3.28121 89.542L40.7156 131.685L42.2109 130.357L4.77648 88.2138L3.28121 89.542Z" fill="#333333" mask="url(#path-2-outside-1_2_11593)"/>
<path d="M95.4836 49.8406L95.2211 50.2661L95.2214 50.2663L95.4836 49.8406ZM111.855 46.3179C112 46.0828 111.927 45.7748 111.692 45.6298C111.457 45.4848 111.149 45.5578 111.004 45.7928L111.855 46.3179ZM111.46 34.991C111.583 35.238 111.884 35.338 112.131 35.2145C112.378 35.091 112.478 34.7907 112.354 34.5437L111.46 34.991ZM107.636 30.115L107.373 30.5405L107.373 30.5406L107.636 30.115ZM91.69 33.9002L91.2644 33.6377L91.2641 33.6383L91.69 33.9002ZM95.2214 50.2663C100.901 53.7647 108.348 52.0027 111.855 46.3179L111.004 45.7928C107.787 51.0076 100.955 52.6239 95.7459 49.4149L95.2214 50.2663ZM112.354 34.5437C111.385 32.6054 109.878 30.9097 107.898 29.6893L107.373 30.5406C109.192 31.6614 110.572 33.2159 111.46 34.991L112.354 34.5437ZM107.898 29.6894C102.213 26.182 94.7712 27.9533 91.2644 33.6377L92.1155 34.1627C95.3329 28.9474 102.159 27.3237 107.373 30.5405L107.898 29.6894ZM91.2641 33.6383C87.7743 39.3123 89.5364 46.7591 95.2211 50.2661L95.7462 49.415C90.5312 46.1978 88.9151 39.3664 92.1159 34.1621L91.2641 33.6383Z" fill="#333333"/>
<path d="M104.434 39.2671C103.881 39.2671 103.434 39.7148 103.434 40.2671C103.434 40.8194 103.881 41.2671 104.434 41.2671L104.434 39.2671ZM142.434 41.2671C142.986 41.2671 143.434 40.8194 143.434 40.2671C143.434 39.7148 142.986 39.2671 142.434 39.2671L142.434 41.2671ZM104.434 41.2671L142.434 41.2671L142.434 39.2671L104.434 39.2671L104.434 41.2671Z" fill="#333333"/>
<mask id="path-6-inside-2_2_11593" fill="white">
<path fill-rule="evenodd" clip-rule="evenodd" d="M68.151 44.8635L92.7554 72.5772C93.9823 73.9643 93.8551 76.103 92.4776 77.3273L49.5 115.482C48.1129 116.709 45.9742 116.582 44.7499 115.204L20.1455 87.4905C18.9185 86.1034 19.0485 83.9743 20.4233 82.7404L63.4009 44.5858C64.788 43.3588 66.924 43.4764 68.151 44.8635Z"/>
</mask>
<path fill-rule="evenodd" clip-rule="evenodd" d="M68.151 44.8635L92.7554 72.5772C93.9823 73.9643 93.8551 76.103 92.4776 77.3273L49.5 115.482C48.1129 116.709 45.9742 116.582 44.7499 115.204L20.1455 87.4905C18.9185 86.1034 19.0485 83.9743 20.4233 82.7404L63.4009 44.5858C64.788 43.3588 66.924 43.4764 68.151 44.8635Z" fill="url(#paint0_linear_2_11593)"/>
<path d="M68.151 44.8635L67.402 45.5261L67.4032 45.5275L68.151 44.8635ZM92.7554 72.5772L93.5044 71.9147L93.5032 71.9133L92.7554 72.5772ZM92.4776 77.3273L93.1415 78.0751L93.1419 78.0748L92.4776 77.3273ZM49.5 115.482L50.1625 116.231L50.1639 116.23L49.5 115.482ZM44.7499 115.204L44.0021 115.868L44.0024 115.869L44.7499 115.204ZM20.1455 87.4905L19.3965 88.1531L19.3977 88.1544L20.1455 87.4905ZM20.4233 82.7404L19.7594 81.9926L19.7553 81.9962L20.4233 82.7404ZM63.4009 44.5858L62.7383 43.8368L62.737 43.838L63.4009 44.5858ZM67.4032 45.5275L92.0075 73.2411L93.5032 71.9133L68.8988 44.1996L67.4032 45.5275ZM92.0063 73.2398C92.8696 74.2157 92.7769 75.7234 91.8133 76.5799L93.1419 78.0748C94.9333 76.4826 95.0951 73.713 93.5044 71.9147L92.0063 73.2398ZM91.8137 76.5795L48.8361 114.734L50.1639 116.23L93.1415 78.0751L91.8137 76.5795ZM48.8374 114.733C47.8615 115.596 46.3538 115.503 45.4973 114.54L44.0024 115.869C45.5946 117.66 48.3642 117.822 50.1625 116.231L48.8374 114.733ZM45.4977 114.54L20.8933 86.8266L19.3977 88.1544L44.0021 115.868L45.4977 114.54ZM20.8945 86.828C20.0336 85.8547 20.123 84.3536 21.0912 83.4846L19.7553 81.9962C17.9739 83.5951 17.8034 86.3521 19.3965 88.1531L20.8945 86.828ZM21.0872 83.4883L64.0648 45.3336L62.737 43.838L19.7594 81.9926L21.0872 83.4883ZM64.0634 45.3348C65.0423 44.4689 66.5457 44.558 67.402 45.5261L68.9 44.201C67.3023 42.3948 64.5337 42.2486 62.7383 43.8368L64.0634 45.3348Z" fill="#333333" mask="url(#path-6-inside-2_2_11593)"/>
<path fill-rule="evenodd" clip-rule="evenodd" d="M65.7671 57.6407C65.9504 57.8472 65.9317 58.1632 65.7252 58.3466L33.6545 86.8213C33.448 87.0046 33.132 86.9859 32.9486 86.7794C32.7653 86.5729 32.784 86.2568 32.9905 86.0735L65.0612 57.5988C65.2677 57.4154 65.5838 57.4342 65.7671 57.6407ZM66.7643 84.6015C66.9512 84.8048 66.9379 85.1211 66.7346 85.308L47.652 102.851C47.4487 103.038 47.1324 103.024 46.9455 102.821C46.7586 102.618 46.7719 102.301 46.9752 102.115L66.0578 84.5718C66.2611 84.3849 66.5774 84.3982 66.7643 84.6015ZM73.2573 65.7565C73.462 65.5713 73.4779 65.2551 73.2926 65.0503C73.1074 64.8455 72.7912 64.8297 72.5864 65.0149L64.3665 72.4508L60.2565 76.1688C60.0517 76.354 60.0359 76.6702 60.2212 76.875C60.4064 77.0798 60.7226 77.0956 60.9274 76.9104L65.0373 73.1924L73.2573 65.7565ZM52.7074 84.3463C52.9122 84.161 52.9281 83.8448 52.7428 83.64C52.5576 83.4353 52.2414 83.4194 52.0366 83.6047L47.9266 87.3226L39.7067 94.7585C39.5019 94.9438 39.4861 95.26 39.6713 95.4648C39.8566 95.6695 40.1728 95.6854 40.3775 95.5001L48.5975 88.0642L52.7074 84.3463Z" fill="white"/>
</g>
<defs>
<linearGradient id="paint0_linear_2_11593" x1="26.5096" y1="43.1602" x2="65.2064" y2="81.2873" gradientUnits="userSpaceOnUse">
<stop stop-color="#FFC671"/>
<stop offset="1" stop-color="#FF6F3D"/>
</linearGradient>
<clipPath id="clip0_2_11593">
<rect width="140" height="140" fill="white"/>
</clipPath>
</defs>
</svg>
