<svg width="140" height="140" viewBox="0 0 140 140" fill="none" xmlns="http://www.w3.org/2000/svg">
<path d="M0.0447719 33.0445C0.0200912 29.1612 3.16125 26 7.04463 26H113C116.866 26 120 29.134 120 33V97C120 101.418 116.418 105 112 105H8.45142C4.05298 105 0.479525 101.449 0.45157 97.0508L0.0447719 33.0445Z" fill="white"/>
<path fill-rule="evenodd" clip-rule="evenodd" d="M115.721 103.649L73.5 67.5L59.1401 56L4 103.5C4.5 104.355 5.5 105 9.05749 105H112.498C113.791 105 114.995 104.599 116 103.904L115.721 103.649Z" fill="#EFEFEF"/>
<path fill-rule="evenodd" clip-rule="evenodd" d="M47.8802 66.1744C48.0599 66.3828 48.0345 66.6957 47.8235 66.8732L3.82726 103.882C3.61623 104.059 3.29948 104.034 3.11978 103.826C2.94008 103.617 2.96547 103.304 3.1765 103.127L47.1727 66.1183C47.3838 65.9408 47.7005 65.9659 47.8802 66.1744Z" fill="#333333"/>
<path fill-rule="evenodd" clip-rule="evenodd" d="M71.1206 65.1803C70.9399 65.3961 70.9652 65.7202 71.177 65.9043L94.1686 85.8772C94.3805 86.0612 94.6987 86.0355 94.8794 85.8197C95.0601 85.6039 95.0348 85.2798 94.823 85.0957L71.8314 65.1228C71.6195 64.9388 71.3013 64.9645 71.1206 65.1803Z" fill="#333333"/>
<path d="M118.321 28.8682L118.709 28.5431L118.379 28.1588L118 28.4846C118.379 28.1588 118.379 28.1587 118.379 28.1585L118.379 28.1581L118.378 28.1572L118.376 28.1547L118.369 28.147L118.346 28.1213C118.327 28.0998 118.299 28.0697 118.263 28.0323C118.191 27.9574 118.087 27.8528 117.952 27.7285C117.682 27.4803 117.288 27.1515 116.781 26.8229C115.77 26.1669 114.295 25.5 112.475 25.5H9.05224C6.96468 25.5 5.34613 26.3635 4.26087 27.2117C3.71771 27.6361 3.30305 28.0605 3.02308 28.38C2.88289 28.54 2.77584 28.6745 2.70275 28.7705C2.66619 28.8185 2.63808 28.8571 2.61851 28.8844C2.60872 28.8981 2.60107 28.909 2.59556 28.917L2.58891 28.9266L2.58679 28.9297L2.58603 28.9308L2.58573 28.9313C2.5856 28.9315 2.58548 28.9317 3 29.2113L2.58548 28.9317L2.33365 29.305L2.67875 29.5944L55.8228 74.1548C58.2363 76.1784 61.7534 76.1806 64.1694 74.1599L118.321 28.8682Z" fill="#BDECFF" stroke="#333333"/>
<path fill-rule="evenodd" clip-rule="evenodd" d="M0 33.5C0 28.8056 3.80558 25 8.5 25H112.5C117.194 25 121 28.8056 121 33.5V83.5C121 83.7761 120.776 84 120.5 84C120.224 84 120 83.7761 120 83.5V33.5C120 29.3579 116.642 26 112.5 26H8.5C4.35786 26 1 29.3579 1 33.5V97.5C1 101.642 4.35786 105 8.5 105H64C64.2761 105 64.5 105.224 64.5 105.5C64.5 105.776 64.2761 106 64 106H8.5C3.80558 106 0 102.194 0 97.5V33.5Z" fill="#333333"/>
<path fill-rule="evenodd" clip-rule="evenodd" d="M125.249 122C131.189 122 136 116.767 136 110.316C136 103.864 131.189 98.6319 125.249 98.6319C124.427 98.6319 123.626 98.731 122.853 98.9193C122.567 98.9809 122.291 99.0613 122.042 99.1571C122.042 98.8126 122.072 98.4716 122.052 98.1265C121.755 82.3892 96.6891 80.0802 93.5014 95.1436C92.6159 94.8367 91.6889 94.6579 90.7494 94.6579C87.7894 94.6579 85.1858 96.2634 83.6118 98.7211C82.7407 98.4733 81.82 98.3445 80.8796 98.3445C74.8706 98.3445 70 103.636 70 110.167C70 116.698 74.8706 121.99 80.8796 121.99H125.249V122Z" fill="url(#paint0_linear_125_448)"/>
<path fill-rule="evenodd" clip-rule="evenodd" d="M124.249 123V122.99H80.8796C74.2417 122.99 69 117.17 69 110.167C69 103.164 74.2417 97.3446 80.8796 97.3446C81.6625 97.3446 82.4346 97.426 83.1817 97.5848C84.9456 95.2087 87.6611 93.658 90.7494 93.658C91.4508 93.658 92.1291 93.7436 92.7826 93.8948C94.9235 86.4602 102.24 83.4265 108.959 84.0897C115.921 84.7769 122.752 89.4795 123.045 97.8524C123.76 97.7075 124.497 97.6319 125.249 97.6319C131.818 97.6319 137 103.392 137 110.316C137 117.24 131.818 123 125.249 123H124.249ZM122.051 98.1019C121.736 82.7346 97.7835 80.1964 93.7445 94.1697C93.6531 94.4858 93.5719 94.8105 93.5014 95.1436C93.244 95.0544 92.9768 94.9652 92.7095 94.9057C92.6526 94.8915 92.5956 94.8778 92.5385 94.8648C91.9585 94.7319 91.3621 94.658 90.7494 94.658C87.7894 94.658 85.1858 96.2635 83.6118 98.7212C82.7407 98.4734 81.82 98.3446 80.8796 98.3446C74.8706 98.3446 70 103.637 70 110.167C70 116.698 74.8706 121.99 80.8796 121.99H125.249V122C125.399 122 125.548 121.997 125.696 121.99C125.882 121.982 126.066 121.968 126.249 121.95C131.72 121.402 136 116.401 136 110.316C136 103.865 131.189 98.6319 125.249 98.6319C124.499 98.6319 123.766 98.7145 123.056 98.8721C122.988 98.8872 122.921 98.9029 122.853 98.9194C122.715 98.9491 122.576 98.9887 122.448 99.0284C122.436 99.0317 122.424 99.035 122.413 99.0383C122.357 99.0542 122.302 99.0703 122.247 99.0871C122.177 99.1088 122.108 99.1317 122.042 99.1572C122.042 99.1176 122.042 99.0779 122.052 99.0383C122.052 98.9751 122.054 98.9118 122.056 98.8474C122.059 98.7806 122.061 98.7125 122.061 98.6419V98.622C122.061 98.4535 122.061 98.295 122.052 98.1265C122.051 98.1183 122.051 98.1101 122.051 98.1019Z" fill="#333333"/>
<path fill-rule="evenodd" clip-rule="evenodd" d="M106 91C106.552 91 107 91.4442 107 91.9922V110.008C107 110.556 106.552 111 106 111C105.448 111 105 110.556 105 110.008V91.9922C105 91.4442 105.448 91 106 91Z" fill="white"/>
<path fill-rule="evenodd" clip-rule="evenodd" d="M110 95C110.552 95 111 95.4414 111 95.9859V105.014C111 105.559 110.552 106 110 106C109.448 106 109 105.559 109 105.014V95.9859C109 95.4414 109.448 95 110 95Z" fill="white"/>
<path fill-rule="evenodd" clip-rule="evenodd" d="M102 95C102.552 95 103 95.4414 103 95.9859V105.014C103 105.559 102.552 106 102 106C101.448 106 101 105.559 101 105.014V95.9859C101 95.4414 101.448 95 102 95Z" fill="white"/>
<path fill-rule="evenodd" clip-rule="evenodd" d="M98.2929 109.293C98.6834 108.902 99.3166 108.902 99.7071 109.293L106 115.586L112.293 109.293C112.683 108.902 113.317 108.902 113.707 109.293C114.098 109.683 114.098 110.317 113.707 110.707L106.707 117.707C106.52 117.895 106.265 118 106 118C105.735 118 105.48 117.895 105.293 117.707L98.2929 110.707C97.9024 110.317 97.9024 109.683 98.2929 109.293Z" fill="white"/>
<defs>
<linearGradient id="paint0_linear_125_448" x1="87.1739" y1="85.821" x2="107.228" y2="116.734" gradientUnits="userSpaceOnUse">
<stop stop-color="#FFC671"/>
<stop offset="1" stop-color="#FF6F3D"/>
</linearGradient>
</defs>
</svg>
