<svg width="140" height="140" viewBox="0 0 140 140" fill="none" xmlns="http://www.w3.org/2000/svg">
<path d="M20 64.5H20.5V64V36V35.5H20H13C10.741 35.5 8.86443 36.5155 7.55986 37.9053C6.26338 39.2864 5.5 41.0713 5.5 42.6677V64V64.5H6H20Z" fill="#BDECFF" stroke="#333333"/>
<path d="M98 34.5H97.5V35V54V54.5H98H112H112.5V54V41.1864C112.5 37.0591 109.124 34.5 105.778 34.5H98Z" fill="#BDECFF" stroke="#333333"/>
<path d="M89 1.5H89.5V2V67V67.5H89H12H11.5V67V16.9916V16.7844L11.6466 16.6379L26.6506 1.6463L26.797 1.5H27.004H89Z" fill="white" stroke="#333333"/>
<path fill-rule="evenodd" clip-rule="evenodd" d="M27 2L12 17H25C26.1046 17 27 16.1046 27 15V2Z" fill="#BDECFF"/>
<path d="M26.6464 1.64645C26.7894 1.50345 27.0045 1.46067 27.1913 1.53806C27.3782 1.61545 27.5 1.79777 27.5 2V15C27.5 16.3807 26.3807 17.5 25 17.5H12C11.7978 17.5 11.6155 17.3782 11.5381 17.1913C11.4607 17.0045 11.5034 16.7894 11.6464 16.6464L26.6464 1.64645Z" stroke="#333333" stroke-linejoin="round"/>
<path d="M105 14.5H105.5V15V80V80.5H105H28H27.5V80V29.1304V28.9238L27.6459 28.7774L41.7312 14.647L41.8778 14.5H42.0854H105Z" fill="white" stroke="#333333"/>
<path fill-rule="evenodd" clip-rule="evenodd" d="M42 15L28 29H40C41.1046 29 42 28.1046 42 27V15Z" fill="#BDECFF"/>
<path d="M41.6464 14.6464C41.7894 14.5034 42.0045 14.4607 42.1913 14.5381C42.3782 14.6155 42.5 14.7978 42.5 15V27C42.5 28.3807 41.3807 29.5 40 29.5H28C27.7978 29.5 27.6155 29.3782 27.5381 29.1913C27.4607 29.0045 27.5034 28.7894 27.6464 28.6464L41.6464 14.6464Z" stroke="#333333" stroke-linejoin="round"/>
<path fill-rule="evenodd" clip-rule="evenodd" d="M95 54.5C95 54.2239 94.7749 54 94.4973 54H37.5027C37.2251 54 37 54.2239 37 54.5C37 54.7761 37.2251 55 37.5027 55H94.4973C94.7749 55 95 54.7761 95 54.5Z" fill="#333333"/>
<path fill-rule="evenodd" clip-rule="evenodd" d="M97 38.5C97 38.2239 96.7738 38 96.4947 38H50.5053C50.2262 38 50 38.2239 50 38.5C50 38.7761 50.2262 39 50.5053 39H96.4947C96.7738 39 97 38.7761 97 38.5Z" fill="#333333"/>
<path fill-rule="evenodd" clip-rule="evenodd" d="M97 46.5C97 46.2239 96.7734 46 96.4939 46H37.506C37.2266 46 37 46.2239 37 46.5C37 46.7761 37.2266 47 37.506 47H96.4939C96.7734 47 97 46.7761 97 46.5Z" fill="#333333"/>
<path d="M95.9639 62.5H72.8105" stroke="#333333" stroke-linecap="round"/>
<path fill-rule="evenodd" clip-rule="evenodd" d="M84 29C84 28.4477 83.5458 28 82.9855 28H56.0145C55.4542 28 55 28.4477 55 29C55 29.5523 55.4542 30 56.0145 30H82.9855C83.5458 30 84 29.5523 84 29Z" fill="url(#paint0_linear_125_1100)"/>
<path fill-rule="evenodd" clip-rule="evenodd" d="M56.2778 56.0735L49.0264 64.1618H7.0957C3.63172 64.1618 0.653838 67.2669 1.03259 69.7916L7.78431 110.821C8.17095 113.346 10.8735 116 14.3375 116H107.074C110.538 116 112.437 113.752 112.635 111.22L118.961 57.8067C119.276 56.216 117.667 54 114.834 54H61.2095C59.3236 54 57.6271 54.7123 56.2778 56.0735Z" fill="url(#paint1_linear_125_1100)" stroke="#333333"/>
<path fill-rule="evenodd" clip-rule="evenodd" d="M75.1528 77.0426L63.3828 91.9108V107.953C63.3828 108.193 63.2784 108.465 63.1177 108.656C63.0454 108.744 62.965 108.824 62.8767 108.88C62.7561 108.96 62.6196 109 62.4749 109C62.3223 109 62.1777 108.952 62.0411 108.848L57.3492 105.165C57.317 105.141 57.2688 105.109 57.2126 105.085C56.9153 104.909 56.6502 104.758 56.6502 104.27V91.9108L44.8882 77.0506C44.5588 76.6272 44.2455 76.036 44.0929 75.4447C43.9884 75.0293 43.9643 74.5979 44.0607 74.2144C44.1732 73.783 44.4383 73.4154 44.8963 73.1997C45.1694 73.0719 45.4988 73 45.9086 73H74.253C74.6065 73 74.9038 73.0639 75.1448 73.1838C75.5947 73.3995 75.8437 73.767 75.9482 74.2064C76.0366 74.5819 76.0044 75.0053 75.908 75.4208C75.7714 76.036 75.4661 76.6511 75.1528 77.0426ZM62.4669 91.4234L74.3494 76.4114C74.5824 76.1158 74.8154 75.6525 74.9279 75.1811C74.9921 74.9095 75.0162 74.6458 74.968 74.4301C74.9359 74.2863 74.8555 74.1664 74.727 74.1025C74.6226 74.0546 74.4699 74.0226 74.2771 74.0226H45.9246C45.6756 74.0226 45.4908 74.0546 45.3542 74.1185C45.2016 74.1904 45.1132 74.3182 45.073 74.462C45.0248 74.6618 45.0409 74.9174 45.1132 75.1891C45.2257 75.6365 45.4667 76.0919 45.7157 76.4114L57.6946 91.5513V104.278L57.7107 104.246C57.7187 104.222 57.7268 104.19 57.7428 104.198C57.8232 104.246 57.9035 104.294 57.9999 104.366L62.3625 107.786V91.5593L62.4669 91.4234ZM57.6946 104.286C57.6946 104.326 57.7027 104.286 57.7107 104.254L57.6946 104.286Z" fill="white"/>
<path fill-rule="evenodd" clip-rule="evenodd" d="M138 77H99.9517L90 87.0001V138H138V77Z" fill="white"/>
<path fill-rule="evenodd" clip-rule="evenodd" d="M139 76H99.5361L89 86.5873V139H139V76ZM138 77V138H90V87.0001L99.9517 77H138Z" fill="#333333"/>
<path d="M99.6464 76.6464C99.7894 76.5034 100.005 76.4607 100.191 76.5381C100.378 76.6155 100.5 76.7978 100.5 77V85C100.5 86.3807 99.3807 87.5 98 87.5H90C89.7978 87.5 89.6155 87.3782 89.5381 87.1913C89.4607 87.0045 89.5034 86.7895 89.6464 86.6465L99.6464 76.6464Z" fill="url(#paint2_linear_125_1100)" stroke="#333333" stroke-linejoin="round"/>
<path fill-rule="evenodd" clip-rule="evenodd" d="M100 100.5C100 100.224 100.231 100 100.516 100H124.484C124.769 100 125 100.224 125 100.5C125 100.776 124.769 101 124.484 101H100.516C100.231 101 100 100.776 100 100.5Z" fill="#333333"/>
<path fill-rule="evenodd" clip-rule="evenodd" d="M100 112.5C100 112.776 100.226 113 100.505 113H123.495C123.774 113 124 112.776 124 112.5C124 112.224 123.774 112 123.495 112H100.505C100.226 112 100 112.224 100 112.5Z" fill="#333333"/>
<path fill-rule="evenodd" clip-rule="evenodd" d="M130 106.5C130 106.224 129.777 106 129.503 106L100.497 106C100.223 106 100 106.224 100 106.5C100 106.776 100.223 107 100.497 107L129.503 107C129.777 107 130 106.776 130 106.5Z" fill="#333333"/>
<path fill-rule="evenodd" clip-rule="evenodd" d="M130 94.5C130 94.2239 129.777 94 129.503 94L100.497 94C100.223 94 100 94.2239 100 94.5C100 94.7761 100.223 95 100.497 95L129.503 95C129.777 95 130 94.7761 130 94.5Z" fill="#333333"/>
<path fill-rule="evenodd" clip-rule="evenodd" d="M100 118.5C100 118.224 100.23 118 100.513 118H126.487C126.77 118 127 118.224 127 118.5C127 118.776 126.77 119 126.487 119H100.513C100.23 119 100 118.776 100 118.5Z" fill="#333333"/>
<path fill-rule="evenodd" clip-rule="evenodd" d="M119 124.5C119 124.224 118.77 124 118.486 124H100.514C100.23 124 100 124.224 100 124.5C100 124.776 100.23 125 100.514 125H118.486C118.77 125 119 124.776 119 124.5Z" fill="#333333"/>
<path fill-rule="evenodd" clip-rule="evenodd" d="M126 86.5C126 86.2239 125.774 86 125.494 86H108.506C108.226 86 108 86.2239 108 86.5C108 86.7761 108.226 87 108.506 87H125.494C125.774 87 126 86.7761 126 86.5Z" fill="url(#paint3_linear_125_1100)"/>
<defs>
<linearGradient id="paint0_linear_125_1100" x1="83.9999" y1="27.9219" x2="83.7354" y2="31.9073" gradientUnits="userSpaceOnUse">
<stop stop-color="#FF8E3D"/>
<stop offset="1" stop-color="#FF6F3D"/>
</linearGradient>
<linearGradient id="paint1_linear_125_1100" x1="30.5901" y1="33.5252" x2="73.3671" y2="99.3385" gradientUnits="userSpaceOnUse">
<stop stop-color="#FFC671"/>
<stop offset="1" stop-color="#FF6F3D"/>
</linearGradient>
<linearGradient id="paint2_linear_125_1100" x1="100" y1="76.6094" x2="90" y2="87" gradientUnits="userSpaceOnUse">
<stop stop-color="#FF8E3D"/>
<stop offset="1" stop-color="#FF6F3D"/>
</linearGradient>
<linearGradient id="paint3_linear_125_1100" x1="126" y1="85.9609" x2="125.893" y2="87.9567" gradientUnits="userSpaceOnUse">
<stop stop-color="#FF8E3D"/>
<stop offset="1" stop-color="#FF6F3D"/>
</linearGradient>
</defs>
</svg>
