<svg width="140" height="140" viewBox="0 0 140 140" fill="none" xmlns="http://www.w3.org/2000/svg">
<path fill-rule="evenodd" clip-rule="evenodd" d="M2 61.041C2 57.6072 5.19064 54 8.72959 54H115.596C119.135 54 122 56.7892 122 60.223V120.777C122 124.211 119.135 127 115.596 127H8.71755C5.1786 127 2 123.831 2 120.398V61.041Z" fill="white"/>
<path fill-rule="evenodd" clip-rule="evenodd" d="M73.2796 88.0005C58.2791 98.4752 59.7776 96.2257 48 88.0005L4 126.003C4.50949 127.117 6.92023 126.945 8.49611 126.899L111.407 126.998C115.53 127.032 117.412 126.661 119 125.127L73.2796 88.0005Z" fill="#EFEFEF"/>
<path d="M73.6695 87.6128L82.3081 94.6644M48.3004 88.0086L4.5 125.5M119.742 125.221L113.983 120.52M93.8263 104.067L99.5854 108.768" stroke="#333333" stroke-linecap="round" stroke-linejoin="round"/>
<path fill-rule="evenodd" clip-rule="evenodd" d="M99 40.0005V70.0005L120 56.0005L99 40.0005Z" fill="#BDECFF"/>
<path fill-rule="evenodd" clip-rule="evenodd" d="M56.248 18.0783C55.1922 18.9111 57.7755 20.0005 58.9997 20.0005H67.3109C68.5351 20.0005 70.7814 19.5605 69.7256 18.7277L66.0709 15.8523C64.4492 15.1714 61.7254 14.4226 59.686 15.6769L56.248 18.0783Z" fill="#BDECFF"/>
<path fill-rule="evenodd" clip-rule="evenodd" d="M25 41.0005V72.0005L4 56.4637L25 41.0005Z" fill="#BDECFF"/>
<path fill-rule="evenodd" clip-rule="evenodd" d="M59.0743 16.1426L5.44548 55.7282C3.93798 56.792 3 58.6485 3 60.4466V121.501C3 124.538 5.46243 127.001 8.5 127.001H79.1875C79.4636 127.001 79.6875 127.224 79.6875 127.501C79.6875 127.777 79.4636 128.001 79.1875 128.001H8.5C4.91015 128.001 2 125.09 2 121.501V60.4466C2 58.3297 3.09045 56.1684 4.86441 54.9142L58.4929 15.3288C60.8703 13.6484 63.8092 13.4705 66.502 15.3255L66.5089 15.3302L120.29 55.09C120.291 55.0909 120.292 55.0918 120.294 55.0928C122.043 56.3382 123 58.0691 123 60.1993V74.9961C123 75.2723 122.776 75.4961 122.5 75.4961C122.224 75.4961 122 75.2723 122 74.9961V60.1993C122 58.4144 121.218 56.977 119.71 55.9051L119.703 55.8997L65.928 16.1443C63.5978 14.5427 61.1205 14.6984 59.0743 16.1426ZM122 112.204C122.276 112.204 122.5 112.428 122.5 112.704V121.501C122.5 125.09 119.59 128.001 116 128.001H108.062C107.786 128.001 107.562 127.777 107.562 127.501C107.562 127.224 107.786 127.001 108.062 127.001H116C119.037 127.001 121.5 124.538 121.5 121.501V112.704C121.5 112.428 121.724 112.204 122 112.204Z" fill="#333333"/>
<path d="M119.724 55.5837C119.954 55.4312 120.264 55.4941 120.417 55.7243C120.569 55.9544 120.506 56.2647 120.276 56.4173L119.724 55.5837ZM47.8698 88.4073L3.70933 56.8555L4.29067 56.0419L48.4512 87.5937L47.8698 88.4073ZM120.276 56.4173L73.508 87.4136L72.9555 86.58L119.724 55.5837L120.276 56.4173Z" fill="#333333"/>
<path d="M63.7033 94.3436L63.714 94.3369L63.7244 94.3298L98.2846 70.4111L98.5 70.262V70V20.2633C98.5 19.294 97.7296 18.5 96.7711 18.5H38.3226H38.1139L37.9671 18.6483L23.6446 33.1245L23.5 33.2706V33.4762V70.0392V70.2941L23.7063 70.4439L56.1786 94.0134L56.1785 94.0135L56.1875 94.0197C57.2643 94.7659 58.3729 95.3416 59.6169 95.4721C60.8738 95.604 62.201 95.2752 63.7033 94.3436Z" fill="white" stroke="#333333"/>
<path fill-rule="evenodd" clip-rule="evenodd" d="M76 51.2622C76 53.1225 75.7218 54.8302 75.1653 56.3753C74.6088 57.9103 73.8238 59.1098 72.8003 59.9636C71.7966 60.8175 70.634 61.2546 69.3024 61.2546C68.3187 61.2546 67.474 60.9802 66.7585 60.4312C66.0431 59.8823 65.5562 59.1403 65.3077 58.2051H65.0891C64.4829 59.2216 63.7377 59.984 62.8433 60.4922C61.949 61.0005 60.9453 61.2546 59.8324 61.2546C57.8152 61.2546 56.2153 60.5735 55.0527 59.2012C53.9 57.8391 53.3236 55.9891 53.3236 53.6612C53.3236 50.9776 54.0888 48.8124 55.629 47.1453C57.1693 45.4681 59.2262 44.6244 61.8198 44.6244C62.7638 44.6244 63.8072 44.7159 64.9401 44.8988C66.0928 45.0716 67.1163 45.3054 68.0106 45.6206L67.6032 54.6981V55.1657C67.6032 57.2495 68.2491 58.2864 69.5409 58.2864C70.5247 58.2864 71.2998 57.6256 71.8662 56.294C72.4525 54.9624 72.7406 53.2749 72.7406 51.2216C72.7406 48.9954 72.3034 47.0437 71.4389 45.3664C70.5744 43.679 69.3422 42.3779 67.7423 41.463C66.1424 40.5583 64.3041 40.1009 62.2372 40.1009C59.5939 40.1009 57.2985 40.6701 55.3408 41.8188C53.3932 42.9675 51.9026 44.604 50.8791 46.7387C49.8456 48.8633 49.3389 51.3232 49.3389 54.1288C49.3389 57.9001 50.3028 60.8073 52.2206 62.8302C54.1385 64.8633 56.901 65.8798 60.4982 65.8798C63.2408 65.8798 66.0927 65.2902 69.0739 64.1212V67.3232C66.4704 68.4414 63.6383 69.0005 60.5777 69.0005C55.9867 69.0005 52.4194 67.7095 49.8457 65.1174C47.2819 62.5151 46 58.8963 46 54.2508C46 50.8556 46.6956 47.8366 48.0868 45.1936C49.478 42.5405 51.3958 40.5075 53.8503 39.1047C56.3147 37.7019 59.107 37.0005 62.2173 37.0005C64.9102 37.0005 67.2951 37.5901 69.3919 38.7591C71.4985 39.9281 73.1282 41.6053 74.2809 43.7705C75.4237 45.9255 76 48.4262 76 51.2622ZM56.8811 53.7324C56.8811 56.7616 58.0139 58.2762 60.2796 58.2762C62.6744 58.2762 63.9762 56.3753 64.2047 52.5634L64.4233 47.8976C63.6383 47.6739 62.8036 47.5621 61.9093 47.5621C60.3193 47.5621 59.0871 48.111 58.1928 49.219C57.3283 50.3372 56.8811 51.8315 56.8811 53.7324Z" fill="url(#paint0_linear_125_310)"/>
<path d="M38.5 19.0005C38.5 18.7983 38.3782 18.6159 38.1913 18.5385C38.0045 18.4612 37.7894 18.5039 37.6464 18.6469L23.6464 32.6469C23.5034 32.7899 23.4607 33.005 23.5381 33.1918C23.6155 33.3787 23.7978 33.5005 24 33.5005H38C38.2761 33.5005 38.5 33.2766 38.5 33.0005V19.0005Z" fill="url(#paint1_linear_125_310)" stroke="#333333" stroke-linejoin="round"/>
<path fill-rule="evenodd" clip-rule="evenodd" d="M90.4004 133.186C90.5717 135.67 93.3009 136.916 95.4881 136.916L125.525 137C127.726 137 130.328 135.684 130.5 133.186C131.582 117.527 132.858 101.401 134 86.0164C118.334 86.0164 102.667 85.9795 87 86.0164L90.4004 133.186Z" fill="#FEFEFE"/>
<path d="M133 92C131.976 106.177 130.977 118.881 130.003 133.201C129.944 134.065 129.241 135.324 128.467 135.901C127.676 136.495 126.19 137 124.955 137L96.0674 137C94.8283 137 93.3297 136.495 92.5385 135.901C91.7599 135.324 91.1278 134.141 91.0692 133.277L90.2948 122.775L88 92.0843" stroke="#333333" stroke-linecap="round" stroke-linejoin="round"/>
<path fill-rule="evenodd" clip-rule="evenodd" d="M84 89H137V87C137 85.8986 136.02 85 134.823 85H86.1765C84.9798 85 84 85.8986 84 87V89Z" fill="url(#paint2_linear_125_310)" stroke="#333333" stroke-linejoin="round"/>
<path fill-rule="evenodd" clip-rule="evenodd" d="M106.5 78.0909C104.567 78.0909 103 79.8004 103 81.9091V82.4545C103 82.7558 102.776 83 102.5 83C102.224 83 102 82.7558 102 82.4545V81.9091C102 79.1979 104.015 77 106.5 77H114.5C116.985 77 119 79.1979 119 81.9091V82.4545C119 82.7558 118.776 83 118.5 83C118.224 83 118 82.7558 118 82.4545V81.9091C118 79.8004 116.433 78.0909 114.5 78.0909H106.5Z" fill="#333333"/>
<path fill-rule="evenodd" clip-rule="evenodd" d="M110.5 94C110.776 94 111 94.2239 111 94.5V129.5C111 129.776 110.776 130 110.5 130C110.224 130 110 129.776 110 129.5V94.5C110 94.2239 110.224 94 110.5 94Z" fill="#333333"/>
<path fill-rule="evenodd" clip-rule="evenodd" d="M123.499 94.0262C123.775 94.0406 123.987 94.2761 123.972 94.5522L122.141 129.503C122.126 129.779 121.891 129.991 121.615 129.977C121.339 129.962 121.128 129.727 121.142 129.451L122.974 94.4999C122.988 94.2238 123.224 94.0117 123.499 94.0262Z" fill="#333333"/>
<path fill-rule="evenodd" clip-rule="evenodd" d="M97.5007 94.0262C97.2249 94.0406 97.0131 94.2761 97.0276 94.5522L98.8593 129.503C98.8737 129.779 99.109 129.991 99.3848 129.977C99.6605 129.962 99.8724 129.727 99.8579 129.451L98.0262 94.4999C98.0117 94.2238 97.7764 94.0117 97.5007 94.0262Z" fill="#333333"/>
<defs>
<linearGradient id="paint0_linear_125_310" x1="50.6726" y1="36.7199" x2="64.4494" y2="57.502" gradientUnits="userSpaceOnUse">
<stop stop-color="#FFC671"/>
<stop offset="1" stop-color="#FF6F3D"/>
</linearGradient>
<linearGradient id="paint1_linear_125_310" x1="28.8465" y1="23.6153" x2="34.9959" y2="30.3541" gradientUnits="userSpaceOnUse">
<stop stop-color="#FFC671"/>
<stop offset="1" stop-color="#FF6F3D"/>
</linearGradient>
<linearGradient id="paint2_linear_125_310" x1="91.0766" y1="65.6831" x2="114.041" y2="90.3207" gradientUnits="userSpaceOnUse">
<stop stop-color="#FFC671"/>
<stop offset="1" stop-color="#FF6F3D"/>
</linearGradient>
</defs>
</svg>
