<svg width="100" height="100" viewBox="0 0 100 100" fill="none" xmlns="http://www.w3.org/2000/svg">
<path d="M3.55176 42.062C3.55176 39.3067 5.78965 37.0731 8.55022 37.0731H92.0017C94.7623 37.0731 97.0002 39.3067 97.0002 42.062V90.6297C97.0002 93.3849 94.7623 95.6185 92.0017 95.6185H8.55023C5.78965 95.6185 3.55176 93.3849 3.55176 90.6296V42.062Z" fill="white"/>
<path fill-rule="evenodd" clip-rule="evenodd" d="M59.1143 63.6241C47.2181 72.2872 48.1371 70.7585 38.7954 63.9517L4.58545 94.0975C4.99387 95.0148 7.09314 95.6487 8.34867 95.6157H89.0168C92.288 95.6487 93.6916 95.4149 94.9472 94.1483L59.1143 63.6241Z" fill="#EFEFEF"/>
<path fill-rule="evenodd" clip-rule="evenodd" d="M78.9862 26.201V50.1475L95.981 38.4979L78.9862 26.201Z" fill="#CCE9FF"/>
<path fill-rule="evenodd" clip-rule="evenodd" d="M46.0583 8.36271C45.1702 8.87164 45.532 10.2257 46.5561 10.2257L53.5139 10.2257C54.5376 10.2257 54.8997 8.87248 54.0124 8.36308L50.5365 6.36761C50.2281 6.19059 49.8487 6.19044 49.5402 6.36724L46.0583 8.36271Z" fill="#CCE9FF"/>
<path fill-rule="evenodd" clip-rule="evenodd" d="M20.547 26.7708V51.7149L3.55225 39.5626L20.547 26.7708Z" fill="#CCE9FF"/>
<path fill-rule="evenodd" clip-rule="evenodd" d="M96.0015 91V41.5C96.0015 40.225 95.3902 38.9995 94.3569 38.2495L52.3493 7.75882C50.9488 6.74224 49.0512 6.74224 47.6507 7.75882L5.6431 38.2495C4.60981 38.9995 3.99849 40.225 3.99849 41.5V91C3.99849 93.2011 5.7942 95.0036 8 95.0036H92C94.2058 95.0036 96.0015 93.2011 96.0015 91ZM5.05577 37.4438C3.76415 38.3813 3 39.9062 3 41.5V91C3 93.7514 5.24275 96 8 96H92C94.7572 96 97 93.7514 97 91V41.5C97 39.9062 96.2358 38.3813 94.9442 37.4438L52.9367 6.95305C51.186 5.68232 48.814 5.68232 47.0633 6.95305L5.05577 37.4438Z" fill="#333333"/>
<path fill-rule="evenodd" clip-rule="evenodd" d="M51.0169 68.1414L79.5526 49.2194C79.832 49.0341 80 48.7212 80 48.386V10.9989C80 10.4466 79.5523 9.9989 79 9.9989H31.7129C31.4476 9.9989 31.1933 10.1043 31.0057 10.2918L20.3519 20.9461C20.1648 21.1331 20.0595 21.3866 20.059 21.6511L20 49.5613C19.9993 49.8878 20.158 50.194 20.4252 50.3817L45.3677 67.9029C47.0698 69.0459 48.6925 69.5503 51.0169 68.1414Z" fill="white"/>
<path fill-rule="evenodd" clip-rule="evenodd" d="M51.5526 68.983L51.5352 68.9936C50.2322 69.7834 49.0298 70.0907 47.8573 69.9709C46.7094 69.8537 45.7157 69.3382 44.8102 68.7301L44.8015 68.7243L19.8504 51.197C19.3161 50.8216 18.9986 50.1529 19 49.5L19 21.5C19.0011 20.9711 19.2707 20.6101 19.6447 20.2361L30.2986 9.5818C30.6737 9.2067 31.1824 8.99597 31.7129 8.99597H79C80.1045 8.99597 81 9.89139 81 10.996V48.383C81 49.0535 80.6641 49.6793 80.1053 50.0498L51.5526 68.983ZM45.3677 67.8999L20.4252 50.3787C20.1581 50.191 19.9993 49.8265 20 49.5L20 21.5C20.0006 21.2355 20.1649 21.1302 20.3519 20.9431L31.0057 10.2889C31.1933 10.1013 31.4476 9.99597 31.7129 9.99597H79C79.5523 9.99597 80 10.4437 80 10.996V48.383C80 48.7182 79.832 49.0312 79.5526 49.2164L51.0169 68.1384C48.6925 69.5473 47.0698 69.0429 45.3677 67.8999Z" fill="#333333"/>
<path d="M62 36.1433C62 37.5965 61.7771 38.9278 61.3313 40.1372C60.8854 41.3364 60.2563 42.2713 59.444 42.9421C58.6415 43.6128 57.7102 43.9482 56.6502 43.9482C55.8675 43.9482 55.1889 43.7348 54.6142 43.3079C54.0396 42.8811 53.6532 42.3018 53.4551 41.5701H53.2768C52.7913 42.3628 52.192 42.9573 51.4786 43.3537C50.7653 43.75 49.9628 43.9482 49.0712 43.9482C47.4563 43.9482 46.1833 43.4146 45.252 42.3476C44.3306 41.2805 43.87 39.8374 43.87 38.0183C43.87 35.9248 44.4842 34.2276 45.7127 32.9268C46.9412 31.6159 48.5907 30.9604 50.6613 30.9604C51.4142 30.9604 52.2464 31.0315 53.1579 31.1738C54.0793 31.3059 54.8966 31.4939 55.6099 31.7378L55.283 38.8262V39.1921C55.283 40.8181 55.7981 41.6311 56.8285 41.6311C57.6111 41.6311 58.2303 41.1128 58.6861 40.0762C59.1517 39.0396 59.3845 37.7185 59.3845 36.1128C59.3845 34.375 59.0378 32.8506 58.3443 31.5396C57.6508 30.2185 56.665 29.2022 55.387 28.4909C54.109 27.7795 52.6427 27.4238 50.9882 27.4238C48.878 27.4238 47.0402 27.8709 45.4749 28.7652C43.9195 29.6596 42.7306 30.94 41.9084 32.6067C41.0861 34.2632 40.6749 36.189 40.6749 38.3841C40.6749 41.3313 41.4427 43.5976 42.9783 45.1829C44.5139 46.7683 46.7183 47.561 49.5913 47.561C51.7808 47.561 54.0644 47.1037 56.4421 46.189V48.689C54.3616 49.563 52.0978 50 49.6508 50C45.9851 50 43.1269 48.9888 41.0762 46.9665C39.0254 44.9339 38 42.1037 38 38.4756C38 35.8232 38.5548 33.4654 39.6644 31.4024C40.774 29.3293 42.3096 27.7439 44.2712 26.6463C46.2427 25.5488 48.4718 25 50.9585 25C53.1084 25 55.0204 25.4573 56.6947 26.372C58.3789 27.2866 59.6817 28.5925 60.6031 30.2896C61.5344 31.9766 62 33.9278 62 36.1433ZM46.7232 38.0793C46.7232 40.4472 47.6297 41.6311 49.4427 41.6311C51.3548 41.6311 52.4 40.1423 52.5783 37.1646L52.7567 33.5213C52.1325 33.3486 51.4638 33.2622 50.7505 33.2622C49.4824 33.2622 48.4916 33.6941 47.7783 34.5579C47.0749 35.4217 46.7232 36.5955 46.7232 38.0793Z" fill="url(#paint0_linear)"/>
<path d="M31.0278 10.2367V21.2121H20.0059L31.0278 10.2367Z" fill="url(#paint1_linear)"/>
<path fill-rule="evenodd" clip-rule="evenodd" d="M31.6018 9.65321C31.9902 9.87512 32 10.3895 32 11V21C32 22 31 22 31 22H20.0834C19.6452 22 19.2502 21.7563 19.0825 21.3826C18.9148 21.009 19.0075 20.5789 19.3173 20.2929L30.1506 10.2929C30.8221 9.63149 31.2135 9.43129 31.6018 9.65321ZM31 11L20 21H31V11Z" fill="#333333"/>
<path fill-rule="evenodd" clip-rule="evenodd" d="M38.6059 64.5862L4 39.8232L4.57535 39L39.6982 64.133L46.1407 68.5888C47.6663 69.6439 49.7908 69.6439 51.3164 68.5888L58.8974 63.2407L95.4541 39.0205L96 39.864L59.9902 63.7471L95.2494 94.2341L94.6013 95L59.128 64.3275L51.7631 69.4212C49.8985 70.7108 47.443 70.7108 45.5785 69.4212L39.449 65.1819L5.541 94.8251L4.89019 94.0616L38.6059 64.5862Z" fill="#333333"/>
<defs>
<linearGradient id="paint0_linear" x1="50" y1="25" x2="50" y2="50" gradientUnits="userSpaceOnUse">
<stop stop-color="#FF8E3D"/>
<stop offset="1" stop-color="#FF6F3D"/>
</linearGradient>
<linearGradient id="paint1_linear" x1="25.5168" y1="10.2367" x2="25.5168" y2="21.2121" gradientUnits="userSpaceOnUse">
<stop stop-color="#FF8E3D"/>
<stop offset="1" stop-color="#FF6F3D"/>
</linearGradient>
</defs>
</svg>
