<svg width="100" height="100" viewBox="0 0 100 100" fill="none" xmlns="http://www.w3.org/2000/svg">
<path d="M3.54199 41.8965C3.69608 40.0979 4.61324 39.2358 4.61324 39.2358L48.2685 71.7351C54.3532 66.8898 96.1387 39.062 96.1387 39.062C96.694 39.8676 97.0191 40.8441 97.0191 41.8965V90.5728C97.0191 93.3343 94.7806 95.5728 92.0191 95.5728H8.542C5.78058 95.5728 3.54199 93.3343 3.54199 90.5728V41.8965Z" fill="#333333"/>
<path d="M3.54199 41.8965C3.69608 40.0979 4.61324 39.2358 4.61324 39.2358L48.2685 71.7351C54.3532 66.8898 96.1387 39.062 96.1387 39.062C96.694 39.8676 97.0191 40.8441 97.0191 41.8965V90.5728C97.0191 93.3343 94.7806 95.5728 92.0191 95.5728H8.542C5.78058 95.5728 3.54199 93.3343 3.54199 90.5728V41.8965Z" fill="white" fill-opacity="0.88"/>
<path fill-rule="evenodd" clip-rule="evenodd" d="M59.1209 63.5068C47.2209 72.1893 48.1402 70.6571 38.7957 63.8351L4.5752 94.0484C4.98374 94.9677 7.08366 95.603 8.33958 95.57H89.0325C92.3047 95.603 93.7088 95.3687 94.9647 94.0993L59.1209 63.5068Z" fill="#CCCCCC"/>
<path fill-rule="evenodd" clip-rule="evenodd" d="M79 26V50L96 38.5L79 26Z" fill="white" fill-opacity="0.6"/>
<path fill-rule="evenodd" clip-rule="evenodd" d="M46.0613 8.12101C45.173 8.63108 45.5349 9.98822 46.5593 9.98822L53.5193 9.98822C54.5433 9.98822 54.9055 8.63192 54.0179 8.12138L50.5409 6.12145C50.2325 5.94403 49.853 5.94388 49.5444 6.12107L46.0613 8.12101Z" fill="white" fill-opacity="0.6"/>
<path fill-rule="evenodd" clip-rule="evenodd" d="M20.542 26.5713V51.5713L3.54199 39.3918L20.542 26.5713Z" fill="white" fill-opacity="0.6"/>
<path fill-rule="evenodd" clip-rule="evenodd" d="M96.0203 90.9622V41.3059C96.0203 40.028 95.4088 38.8273 94.3752 38.0756L52.3547 7.51666C50.9537 6.4978 49.0556 6.4978 47.6546 7.51666L5.63415 38.0756C4.60054 38.8273 3.98903 40.028 3.98903 41.3059V90.9622C3.98903 93.1683 5.77773 94.9567 7.98421 94.9567H92.0252C94.2316 94.9567 96.0203 93.1683 96.0203 90.9622ZM5.04663 37.268C3.75462 38.2076 2.99023 39.7085 2.99023 41.3059V90.9622C2.99023 93.7198 5.22612 95.9553 7.98421 95.9553H92.0252C94.7833 95.9553 97.0191 93.7198 97.0191 90.9622V41.3059C97.0191 39.7085 96.2547 38.2076 94.9627 37.268L52.9423 6.70909C51.191 5.43551 48.8184 5.43551 47.0671 6.70909L5.04663 37.268Z" fill="#333333"/>
<path fill-rule="evenodd" clip-rule="evenodd" d="M51.0177 68.1428L80 49C80 49 80.0002 48.7225 80.0002 48.3873V11C80.0002 10.4477 79.5525 10 79.0002 10H31.7141C31.4489 10 31.1945 10.1054 31.007 10.2929L20.3533 20.9472C20.1663 21.1343 20.061 21.3877 20.0604 21.6522L20.0015 50L20 50.5L45.3686 67.9043C47.0707 69.0473 48.6933 69.5516 51.0177 68.1428Z" fill="#333333"/>
<path fill-rule="evenodd" clip-rule="evenodd" d="M51.0177 68.1428L80 49C80 49 80.0002 48.7225 80.0002 48.3873V11C80.0002 10.4477 79.5525 10 79.0002 10H31.7141C31.4489 10 31.1945 10.1054 31.007 10.2929L20.3533 20.9472C20.1663 21.1343 20.061 21.3877 20.0604 21.6522L20.0015 50L20 50.5L45.3686 67.9043C47.0707 69.0473 48.6933 69.5516 51.0177 68.1428Z" fill="white" fill-opacity="0.88"/>
<path fill-rule="evenodd" clip-rule="evenodd" d="M51.5 68.7286C50.197 69.5184 49.1725 69.6198 48 69.5C46.8521 69.3827 45.9055 69.1081 45 68.5L44.9913 68.4941L20 51C19.4657 50.6247 18.9986 50.2134 19 49.5605L19.059 21.6501C19.0601 21.1212 19.2707 20.6142 19.6447 20.2402L30.2984 9.58583C30.6734 9.21073 31.1822 9 31.7126 9H78.9987C80.1033 9 80.9987 9.89543 80.9987 11V48.9609L81 49L51.5 68.7286ZM45.5 68.5L20 50.5L20.059 21.6522C20.0595 21.3877 20.1648 21.1343 20.3518 20.9472L31.0055 10.2929C31.193 10.1054 31.4474 10 31.7126 10H78.9987C79.551 10 79.9987 10.4477 79.9987 11L80 49V49.5L51 68.5C48.9838 69.8572 47.2021 69.643 45.5 68.5Z" fill="#333333"/>
<path d="M62 36.1433C62 37.5965 61.7771 38.9278 61.3313 40.1372C60.8854 41.3364 60.2563 42.2713 59.444 42.9421C58.6415 43.6128 57.7102 43.9482 56.6502 43.9482C55.8675 43.9482 55.1889 43.7348 54.6142 43.3079C54.0396 42.8811 53.6532 42.3018 53.4551 41.5701H53.2768C52.7913 42.3628 52.1919 42.9573 51.4786 43.3537C50.7653 43.75 49.9628 43.9482 49.0712 43.9482C47.4563 43.9482 46.1833 43.4146 45.252 42.3476C44.3306 41.2805 43.87 39.8374 43.87 38.0183C43.87 35.9248 44.4842 34.2276 45.7127 32.9268C46.9412 31.6159 48.5907 30.9604 50.6613 30.9604C51.4142 30.9604 52.2464 31.0315 53.1579 31.1738C54.0793 31.3059 54.8966 31.4939 55.6099 31.7378L55.283 38.8262V39.1921C55.283 40.8181 55.7981 41.6311 56.8285 41.6311C57.6111 41.6311 58.2303 41.1128 58.6861 40.0762C59.1517 39.0396 59.3845 37.7185 59.3845 36.1128C59.3845 34.375 59.0378 32.8506 58.3443 31.5396C57.6508 30.2185 56.665 29.2022 55.387 28.4909C54.109 27.7795 52.6427 27.4238 50.9882 27.4238C48.878 27.4238 47.0402 27.8709 45.4749 28.7652C43.9195 29.6596 42.7306 30.94 41.9084 32.6067C41.0861 34.2632 40.6749 36.189 40.6749 38.3841C40.6749 41.3313 41.4427 43.5976 42.9783 45.1829C44.5139 46.7683 46.7183 47.561 49.5913 47.561C51.7808 47.561 54.0644 47.1037 56.4421 46.189V48.689C54.3616 49.563 52.0978 50 49.6508 50C45.9851 50 43.1269 48.9888 41.0762 46.9665C39.0254 44.9339 38 42.1037 38 38.4756C38 35.8232 38.5548 33.4654 39.6644 31.4024C40.774 29.3293 42.3096 27.7439 44.2712 26.6463C46.2427 25.5488 48.4718 25 50.9585 25C53.1084 25 55.0204 25.4573 56.6947 26.372C58.3789 27.2866 59.6817 28.5925 60.6031 30.2896C61.5344 31.9766 62 33.9278 62 36.1433ZM46.7232 38.0793C46.7232 40.4472 47.6297 41.6311 49.4427 41.6311C51.3548 41.6311 52.4 40.1423 52.5783 37.1646L52.7567 33.5213C52.1325 33.3486 51.4638 33.2622 50.7505 33.2622C49.4824 33.2622 48.4916 33.6941 47.7783 34.5579C47.0749 35.4217 46.7232 36.5955 46.7232 38.0793Z" fill="url(#paint0_linear_18495_136482)"/>
<path d="M31 10.5V21H20.5L31 10.5Z" fill="url(#paint1_linear_18495_136482)"/>
<path fill-rule="evenodd" clip-rule="evenodd" d="M31.4996 9.5C31.8733 9.65478 31.9996 9.5 31.9996 9.5L31.9996 21C31.9996 21.5523 31.5519 22 30.9996 22L19.4995 22L19.4997 21.5C19.3449 21.1263 20.0065 20.5789 20.2925 20.2929L30.2925 10.2929C30.5785 10.0069 31.4996 9.5 31.4996 9.5ZM30.9996 10.5L20.4995 21L30.9996 21V10.5Z" fill="#333333"/>
<path fill-rule="evenodd" clip-rule="evenodd" d="M38.27 64.1502L3.54297 39.6885L4.1204 38.8721L45.5 68.0002C46.5114 68.7588 47.5789 69.0101 48.5 69.0002C49.4004 68.9906 50.1571 68.7342 50.914 68.217L95.3268 38.8924L95.8746 39.729L59.735 63.5502L95.1213 93.6509L94.4709 94.4105L58.8697 64.1502L51.4782 69.0426C49.6069 70.3215 47.1426 70.3215 45.2713 69.0426L39.1198 64.7502L5.08952 94.237L4.43637 93.4798L38.27 64.1502Z" fill="#333333"/>
<defs>
<linearGradient id="paint0_linear_18495_136482" x1="50" y1="25" x2="50" y2="50" gradientUnits="userSpaceOnUse">
<stop stop-color="#FF8E3D"/>
<stop offset="1" stop-color="#FF6F3D"/>
</linearGradient>
<linearGradient id="paint1_linear_18495_136482" x1="25.75" y1="10.5" x2="25.75" y2="21" gradientUnits="userSpaceOnUse">
<stop stop-color="#FF8E3D"/>
<stop offset="1" stop-color="#FF6F3D"/>
</linearGradient>
</defs>
</svg>
