<svg width="100" height="100" viewBox="0 0 100 100" fill="none" xmlns="http://www.w3.org/2000/svg">
<path d="M100 55.5327C100 73.6717 79.2556 93.9999 51.0574 93.9999C22.8592 93.9999 0 94.1014 0 64.9114C0 51.2124 6.34441 47.398 17.8248 40.2049C24.5928 35.9644 21.0727 29.897 23.8671 21.4404C25.4373 16.6885 32.8293 8.16739 51.0574 7.05434C71.6012 5.79989 100 26.3427 100 55.5327Z" fill="#F1F9FF"/>
<path d="M82.8947 80.6842C82.8947 81.5153 82.6178 82.2079 82.0642 82.7619C81.5104 83.1775 80.9568 83.4545 80.1261 83.4545H19.216C18.5239 83.4545 17.8317 83.1774 17.2779 82.7619C16.7241 82.2078 16.4474 81.5153 16.4474 80.6842V40.0975H82.8947V80.6842Z" fill="#FFE07D"/>
<path d="M82.0204 82.7636C81.4674 83.1782 80.9145 83.4545 80.0849 83.4545H19.2571C18.566 83.4545 17.8747 83.1781 17.3217 82.7636L49.671 54.9879L82.0204 82.7636Z" fill="#FFD064"/>
<path d="M82.8947 40.0974L73.4814 46.8876L51.4706 62.6852C50.3632 63.5166 48.8405 63.5166 47.733 62.6852L25.8607 46.8876L16.4474 40.0974L25.8607 33.3073L46.3487 18.6184L47.8715 17.5098C48.9789 16.6784 50.5017 16.6784 51.6091 17.5098L53.1319 18.6184L62.9606 25.6857L67.8056 29.15L73.4814 33.3073L82.8947 40.0974Z" fill="#0F4071"/>
<g filter="url(#filter0_d)">
<path d="M73.2773 27.2258V46.8948L51.2532 62.6854C50.145 63.5165 48.6213 63.5165 47.5132 62.6854L25.6276 46.8948V21.4082C25.6276 19.8846 26.8742 18.6379 28.3979 18.6379H64.5507L73.2773 27.2258Z" fill="white"/>
</g>
<path d="M57.9245 46.5792H60.1626C59.4633 48.1208 58.344 49.2419 56.8052 50.0827C55.1265 51.0637 53.0283 51.4842 50.5103 51.4842C48.1322 51.4842 46.0338 51.0637 44.3551 50.2229C42.6764 49.3821 41.2775 48.2608 40.4382 46.5792C39.599 45.0376 39.1793 43.2156 39.1793 41.3939C39.1793 39.2918 39.599 37.4698 40.5782 35.6479C41.5573 33.826 42.8163 32.5647 44.495 31.7239C46.1737 30.8831 48.1321 30.4626 50.2305 30.4626C52.0491 30.4626 53.7277 30.8831 55.1265 31.5838C56.5254 32.2844 57.6445 33.2655 58.344 34.667C59.0434 35.9282 59.4631 37.4698 59.4631 39.0114C59.4631 40.8334 58.9035 42.515 57.7844 44.0566C56.3855 46.0187 54.5669 46.8595 52.3288 46.8595C51.7692 46.8595 51.2097 46.7193 50.9299 46.5792C50.6501 46.2989 50.3703 46.0185 50.3703 45.5982C49.531 46.439 48.5517 46.8595 47.4326 46.8595C46.1736 46.8595 45.1944 46.439 44.4949 45.5982C43.6556 44.7574 43.2359 43.6361 43.2359 42.2347C43.2359 40.5529 43.6556 39.0113 44.6348 37.4697C45.7539 35.788 47.2927 34.9471 49.1113 34.9471C50.3703 34.9471 51.3494 35.5078 52.049 36.4887L52.3288 35.2275H55.2665L53.5878 43.0755C53.4479 43.6361 53.4478 43.9163 53.4478 44.0565C53.4478 44.1966 53.4479 44.3368 53.5878 44.4769C53.7277 44.6171 53.7277 44.6171 53.8676 44.6171C54.1474 44.6171 54.7068 44.3368 55.2665 43.9164C55.9658 43.3558 56.6653 42.6551 57.085 41.6742C57.5048 40.6932 57.7844 39.7121 57.7844 38.7311C57.7844 36.9092 57.085 35.3676 55.8259 34.2465C54.5669 32.9852 52.7483 32.4246 50.3703 32.4246C48.4118 32.4246 46.7332 32.845 45.3343 33.6859C43.9354 34.5267 42.9562 35.6479 42.2567 37.0494C41.5572 38.4508 41.2775 39.9924 41.2775 41.6742C41.2775 43.2158 41.6972 44.6172 42.3966 45.8785C43.2359 47.1398 44.2152 48.1208 45.6141 48.6814C47.013 49.242 48.5518 49.5222 50.3704 49.5222C52.0491 49.5222 53.5879 49.2419 54.8469 48.8216C56.1059 48.2608 57.0851 47.5601 57.9245 46.5792ZM46.0338 42.0945C46.0338 43.0755 46.1737 43.6361 46.5934 44.1966C47.0131 44.6171 47.4327 44.8973 47.9923 44.8973C48.412 44.8973 48.8316 44.7571 49.1114 44.617C49.3912 44.4768 49.671 44.1965 49.9507 43.9163C50.3704 43.4958 50.6502 42.7952 50.9299 41.9542C51.2097 41.1134 51.3496 40.2725 51.3496 39.5718C51.3496 38.731 51.2097 38.1704 50.79 37.6097C50.3703 37.1893 49.9507 36.9091 49.3911 36.9091C48.8315 36.9091 48.1321 37.1894 47.7124 37.6097C47.1528 38.0302 46.7332 38.7309 46.4534 39.7118C46.1737 40.5529 46.0338 41.3937 46.0338 42.0945Z" fill="#FF507D"/>
<defs>
<filter id="filter0_d" x="17.7328" y="7.45373" width="63.4392" height="60.4602" filterUnits="userSpaceOnUse" color-interpolation-filters="sRGB">
<feFlood flood-opacity="0" result="BackgroundImageFix"/>
<feColorMatrix in="SourceAlpha" type="matrix" values="0 0 0 0 0 0 0 0 0 0 0 0 0 0 0 0 0 0 127 0"/>
<feOffset dy="-3.28947"/>
<feGaussianBlur stdDeviation="3.94737"/>
<feColorMatrix type="matrix" values="0 0 0 0 0 0 0 0 0 0 0 0 0 0 0 0 0 0 0.04 0"/>
<feBlend mode="normal" in2="BackgroundImageFix" result="effect1_dropShadow"/>
<feBlend mode="normal" in="SourceGraphic" in2="effect1_dropShadow" result="shape"/>
</filter>
</defs>
</svg>
