<svg width="140" height="140" viewBox="0 0 140 140" fill="none" xmlns="http://www.w3.org/2000/svg">
<g clip-path="url(#clip0_125_237)">
<path fill-rule="evenodd" clip-rule="evenodd" d="M0 59.1321C0 55.6539 4 52.9993 6.72958 52H113.596C117 52.4996 120 54.8253 120 58.3036V119.641C120 123.466 118.5 126.445 113.596 125.945H6.71755C3.5 126.445 0 122.735 0 119.257V59.1321Z" fill="white"/>
<path fill-rule="evenodd" clip-rule="evenodd" d="M71.3386 87C56.1934 97.4632 58.3912 95.7162 46.5 87.5L3 125C3.51441 126.112 5.5 126.357 7.28519 125.856H109.951C114.114 125.89 114.5 126.357 118 124.862L71.3386 87Z" fill="#EFEFEF"/>
<path d="M71.822 87L92.6022 104.018M46.3965 87.3999L2.99707 124.922M117.997 125L112.976 120.76" stroke="#333333" stroke-linecap="round" stroke-linejoin="round"/>
<path fill-rule="evenodd" clip-rule="evenodd" d="M97 39V70L119 55L97 39Z" fill="#BDECFF"/>
<path fill-rule="evenodd" clip-rule="evenodd" d="M53.2929 18.0508C52.1414 18.7992 54.666 19 56.0013 19H65.0668C66.4022 19 68.8523 18.6046 67.7007 17.8563L63.876 14.677C62 13.7915 59.7959 13.7055 57.5 14.8327L53.2929 18.0508Z" fill="#BDECFF"/>
<path fill-rule="evenodd" clip-rule="evenodd" d="M23 40V71L2 55.4633L23 40Z" fill="#BDECFF"/>
<path fill-rule="evenodd" clip-rule="evenodd" d="M57.309 15.1427L3.4558 54.7283C1.94146 55.7925 1 57.6489 1 59.4461V120.5C1 123.538 3.46243 126 6.49999 126H72.4874C72.7636 126 72.9874 126.224 72.9874 126.5C72.9874 126.776 72.7636 127 72.4874 127H6.49999C2.91014 127 0 124.09 0 120.5V59.4461C0 57.3283 1.09545 55.167 2.87629 53.9132L56.7293 14.3278C59.1156 12.648 62.065 12.4702 64.7678 14.3244L64.7754 14.3296L118.177 53.9143C119.94 55.165 121 57.1912 121 59.3135V76.1101C121 76.3863 120.776 76.6101 120.5 76.6101C120.224 76.6101 120 76.3863 120 76.1101V59.3135C120 57.5209 119.102 55.7943 117.594 54.7272L117.585 54.7209L64.1947 15.1439C61.8538 13.542 59.3646 13.6979 57.309 15.1427ZM120.5 111.203C120.776 111.203 121 111.427 121 111.703V120.5C121 124.09 118.09 127 114.5 127H106.504C106.228 127 106.004 126.776 106.004 126.5C106.004 126.224 106.228 126 106.504 126H114.5C117.538 126 120 123.538 120 120.5V111.703C120 111.427 120.224 111.203 120.5 111.203Z" fill="#333333"/>
<path d="M71.977 86.2632L118.5 55M46.6896 87.2812L2.14844 55.2785" stroke="#333333"/>
<path d="M61.7033 93.3436L61.7136 93.3372L61.7236 93.3303L96.2838 69.5027L96.5 69.3536V69.091V19.2633C96.5 18.294 95.7296 17.5 94.7711 17.5H36.3226H36.1139L35.9671 17.6483L21.6446 32.1245L21.5 32.2706V32.4762V69.0392V69.2941L21.7063 69.4439L54.1786 93.0134L54.1785 93.0135L54.1875 93.0197C55.2643 93.7659 56.3729 94.3416 57.6169 94.4721C58.8738 94.604 60.201 94.2752 61.7033 93.3436Z" fill="white" stroke="#333333"/>
<path fill-rule="evenodd" clip-rule="evenodd" d="M74 51.2622C74 53.1225 73.7218 54.8302 73.1653 56.3753C72.6088 57.9103 71.8238 59.1098 70.8003 59.9636C69.7966 60.8175 68.634 61.2546 67.3024 61.2546C66.3187 61.2546 65.474 60.9802 64.7585 60.4312C64.0431 59.8823 63.5562 59.1403 63.3077 58.2051H63.0891C62.4829 59.2216 61.7377 59.984 60.8433 60.4922C59.949 61.0005 58.9453 61.2546 57.8324 61.2546C55.8152 61.2546 54.2153 60.5735 53.0527 59.2012C51.9 57.8391 51.3236 55.9891 51.3236 53.6612C51.3236 50.9776 52.0888 48.8124 53.629 47.1453C55.1693 45.4681 57.2262 44.6244 59.8198 44.6244C60.7638 44.6244 61.8072 44.7159 62.9401 44.8988C64.0928 45.0716 65.1163 45.3054 66.0106 45.6206L65.6032 54.6981V55.1657C65.6032 57.2495 66.2491 58.2864 67.5409 58.2864C68.5247 58.2864 69.2998 57.6256 69.8662 56.294C70.4525 54.9624 70.7406 53.2749 70.7406 51.2216C70.7406 48.9954 70.3034 47.0437 69.4389 45.3664C68.5744 43.679 67.3422 42.3779 65.7423 41.463C64.1424 40.5583 62.3041 40.1009 60.2372 40.1009C57.5939 40.1009 55.2985 40.6701 53.3408 41.8188C51.3932 42.9675 49.9026 44.604 48.8791 46.7387C47.8456 48.8633 47.3389 51.3232 47.3389 54.1288C47.3389 57.9001 48.3028 60.8073 50.2206 62.8302C52.1385 64.8633 54.901 65.8798 58.4982 65.8798C61.2408 65.8798 64.0927 65.2902 67.0739 64.1212V67.3232C64.4704 68.4414 61.6383 69.0005 58.5777 69.0005C53.9867 69.0005 50.4194 67.7095 47.8457 65.1174C45.2819 62.5151 44 58.8963 44 54.2508C44 50.8556 44.6956 47.8366 46.0868 45.1936C47.478 42.5405 49.3958 40.5075 51.8503 39.1047C54.3147 37.7019 57.107 37.0005 60.2173 37.0005C62.9102 37.0005 65.2951 37.5901 67.3919 38.7591C69.4985 39.9281 71.1282 41.6053 72.2809 43.7705C73.4237 45.9255 74 48.4262 74 51.2622ZM54.8811 53.7324C54.8811 56.7616 56.0139 58.2762 58.2796 58.2762C60.6744 58.2762 61.9762 56.3753 62.2047 52.5634L62.4233 47.8976C61.6383 47.6739 60.8036 47.5621 59.9093 47.5621C58.3193 47.5621 57.0871 48.111 56.1928 49.219C55.3283 50.3372 54.8811 51.8315 54.8811 53.7324Z" fill="url(#paint0_linear_125_237)"/>
<path d="M36.5 18C36.5 17.7978 36.3782 17.6155 36.1913 17.5381C36.0045 17.4607 35.7894 17.5034 35.6464 17.6464L21.6464 31.6464C21.5034 31.7894 21.4607 32.0045 21.5381 32.1913C21.6155 32.3782 21.7978 32.5 22 32.5H36C36.2761 32.5 36.5 32.2761 36.5 32V18Z" fill="url(#paint1_linear_125_237)" stroke="#333333" stroke-linejoin="round"/>
<path d="M134.586 90.4142C135.367 89.6332 135.367 88.3668 134.586 87.5858L126.101 79.1005C125.319 78.3195 124.053 78.3195 123.272 79.1005L77.5458 124.827L74.5831 136.678C74.2169 138.143 75.5436 139.469 77.0084 139.103L88.8595 136.14L134.586 90.4142Z" fill="white"/>
<path fill-rule="evenodd" clip-rule="evenodd" d="M115.393 87.3936L126 98.0002L88.5233 135.477L77.9167 124.87L115.393 87.3936Z" fill="url(#paint2_linear_125_237)"/>
<path fill-rule="evenodd" clip-rule="evenodd" d="M84.5233 130.477L122 93.0002L121.293 92.2931L83.8162 129.77L84.5233 130.477Z" fill="white"/>
<path fill-rule="evenodd" clip-rule="evenodd" d="M125.393 79.8076L133.879 88.2929C134.269 88.6834 134.269 89.3166 133.879 89.7071L88.3483 135.237L76.7659 138.133C76.0335 138.316 75.3701 137.653 75.5532 136.92L78.4488 125.338L123.979 79.8076C124.37 79.4171 125.003 79.4171 125.393 79.8076ZM77.5458 124.827L123.272 79.1005C124.053 78.3195 125.319 78.3195 126.101 79.1005L134.586 87.5858C135.367 88.3668 135.367 89.6332 134.586 90.4142L88.8595 136.14L77.0084 139.103C75.5436 139.469 74.2169 138.143 74.5831 136.678L77.5458 124.827Z" fill="#333333"/>
<path fill-rule="evenodd" clip-rule="evenodd" d="M88.6464 135.354C88.8417 135.159 88.8386 134.839 88.6396 134.64L78.7538 124.754C78.5548 124.555 78.2351 124.552 78.0398 124.747C77.8446 124.942 77.8477 125.262 78.0467 125.461L87.9325 135.347C88.1315 135.546 88.4512 135.549 88.6464 135.354Z" fill="#333333"/>
<path fill-rule="evenodd" clip-rule="evenodd" d="M128.646 96.354C128.842 96.1588 128.838 95.8385 128.638 95.6387L118.048 85.0486C117.848 84.8488 117.528 84.8451 117.333 85.0403C117.137 85.2356 117.141 85.5559 117.341 85.7557L127.931 96.3458C128.131 96.5456 128.451 96.5493 128.646 96.354Z" fill="#333333"/>
<path fill-rule="evenodd" clip-rule="evenodd" d="M126.646 98.3532C126.842 98.1579 126.838 97.8376 126.638 97.6378L116.048 87.0478C115.848 86.8479 115.528 86.8442 115.333 87.0395C115.137 87.2347 115.141 87.555 115.341 87.7549L125.931 98.3449C126.131 98.5447 126.451 98.5484 126.646 98.3532Z" fill="#333333"/>
<path fill-rule="evenodd" clip-rule="evenodd" d="M81 138L76.0503 133.05L75.2842 137.941L76.1092 138.766L81 138Z" fill="#333333"/>
</g>
<defs>
<linearGradient id="paint0_linear_125_237" x1="48.6726" y1="36.7199" x2="62.4494" y2="57.502" gradientUnits="userSpaceOnUse">
<stop stop-color="#FFC671"/>
<stop offset="1" stop-color="#FF6F3D"/>
</linearGradient>
<linearGradient id="paint1_linear_125_237" x1="26.8465" y1="22.6148" x2="32.9959" y2="29.3536" gradientUnits="userSpaceOnUse">
<stop stop-color="#FFC671"/>
<stop offset="1" stop-color="#FF6F3D"/>
</linearGradient>
<linearGradient id="paint2_linear_125_237" x1="94.1122" y1="102.511" x2="106.48" y2="115.662" gradientUnits="userSpaceOnUse">
<stop stop-color="#FFC671"/>
<stop offset="1" stop-color="#FF6F3D"/>
</linearGradient>
<clipPath id="clip0_125_237">
<rect width="140" height="140" fill="white"/>
</clipPath>
</defs>
</svg>
