<svg width="466" height="24" viewBox="0 0 466 24" fill="none" xmlns="http://www.w3.org/2000/svg">
<path d="M183.866 17.279C183.866 17.279 183.784 17.1682 183.767 17.1375C183.371 16.4301 182.579 15.5341 181.39 14.4966L181.341 14.4494C180.796 13.9778 180.449 13.6477 180.35 13.459C180.103 13.1289 180.053 12.7988 180.152 12.5158C180.251 12.28 180.648 11.7613 181.291 10.9596C181.638 10.5351 181.885 10.205 182.083 9.9692C183.519 8.12996 184.163 6.99812 183.965 6.47935L183.866 6.33787C183.816 6.24355 183.668 6.19639 183.47 6.14923C183.272 6.10207 182.975 6.10207 182.678 6.10207H179.063C179.014 6.10207 178.915 6.10207 178.815 6.10207C178.716 6.10207 178.667 6.14923 178.667 6.14923L178.465 6.33331C178.465 6.33331 178.25 6.74951 178.215 6.83331C177.819 7.77651 177.429 8.41292 176.934 9.2618C176.637 9.7334 176.34 10.1578 176.092 10.5351C175.845 10.9124 175.597 11.1482 175.448 11.3368C175.25 11.5255 175.102 11.667 174.953 11.7613C174.805 11.8556 174.706 11.9028 174.607 11.9028C174.508 11.9028 174.458 11.8556 174.409 11.8556C174.31 11.7613 174.211 11.667 174.112 11.5726C174.062 11.4312 174.013 11.2897 173.963 11.101C173.914 10.9124 173.914 10.7709 173.914 10.6294C173.914 10.488 173.914 10.2993 173.914 10.0635C173.914 9.82772 173.914 9.63908 173.914 9.54476C173.914 9.2618 173.914 8.93168 173.914 8.5544C173.914 8.22428 173.914 7.94132 173.963 7.70552C173.963 7.51688 173.963 7.28108 173.963 7.04528C173.963 6.80948 173.963 6.62083 173.914 6.52651C173.864 6.38503 173.864 6.29071 173.765 6.14923C173.715 6.00775 173.616 5.91343 173.517 5.86627C173.418 5.81911 173.27 5.72479 173.121 5.72479C172.676 5.63047 172.131 5.58331 171.438 5.58331C169.903 5.58331 168.913 5.67763 168.467 5.86627C168.269 5.96059 168.12 6.05491 167.972 6.24355C167.823 6.43219 167.823 6.52651 167.922 6.52651C168.417 6.62083 168.764 6.76232 168.962 7.04528L169.061 7.18676C169.111 7.28108 169.16 7.46972 169.259 7.75268C169.309 8.03564 169.358 8.3186 169.358 8.60156C169.408 9.16748 169.408 9.68624 169.358 10.1107C169.309 10.5351 169.259 10.8652 169.259 11.0539C169.259 11.2425 169.16 11.4783 169.111 11.6198C169.012 11.7613 168.962 11.8556 168.962 11.9028C168.913 11.9499 168.913 11.9499 168.913 11.9499C168.814 11.9971 168.715 11.9971 168.566 11.9971C168.467 11.9971 168.318 11.9499 168.12 11.8084C167.972 11.7141 167.774 11.5255 167.625 11.3368C167.427 11.1482 167.229 10.8652 167.031 10.5351C166.783 10.205 166.585 9.78056 166.338 9.30896L166.14 8.97884C165.991 8.74304 165.843 8.41292 165.645 7.98848C165.447 7.56404 165.249 7.1396 165.05 6.76232C165.001 6.57367 164.902 6.47935 164.753 6.38503L164.704 6.33787C164.654 6.29071 164.605 6.29071 164.506 6.24355C164.407 6.19639 164.308 6.19639 164.209 6.14923L160.792 6.10207C160.446 6.10207 160.198 6.19639 160.099 6.33787L160.05 6.43219C160 6.47935 160 6.52651 160 6.62083C160 6.71515 160.05 6.80948 160.099 6.95096C160.594 8.0828 161.139 9.16748 161.733 10.205C162.327 11.2425 162.822 12.0914 163.268 12.7045C163.714 13.3176 164.159 13.9306 164.605 14.4966C165.05 15.0625 165.348 15.4398 165.496 15.5813C165.645 15.7227 165.744 15.8642 165.843 15.9585L166.14 16.2415C166.338 16.4301 166.635 16.6659 167.031 16.9017C167.427 17.1847 167.823 17.4205 168.318 17.7035C168.764 17.9393 169.358 18.1751 169.952 18.3165C170.596 18.458 171.25 18.5833 172 18.5833H172.715C173.715 18.5833 173.816 18.272 173.965 18.0833C173.965 18.0833 174.062 17.9036 174.062 17.7435C174.062 17.7044 174.062 17.7506 174.062 17.6091C174.062 17.279 174.062 16.9489 174.161 16.6659C174.211 16.383 174.31 16.1943 174.359 16.0529C174.458 15.9114 174.508 15.8171 174.607 15.7227C174.706 15.6284 174.755 15.5813 174.805 15.5341C174.854 15.5341 174.904 15.4869 174.904 15.4869C175.102 15.4398 175.349 15.4869 175.597 15.6756C175.845 15.8642 176.142 16.1 176.34 16.383C176.587 16.6659 176.884 16.9489 177.181 17.3262C177.528 17.6563 177.825 17.9393 178.073 18.0807L178.32 18.2222C178.469 18.3165 178.716 18.4109 178.964 18.5052C179.215 18.5833 179.465 18.5833 179.715 18.5833H182.715C183.012 18.5833 183.42 18.458 183.618 18.3637C183.767 18.293 183.866 18.1751 183.915 18.0336C183.965 17.8921 183.99 17.6797 183.965 17.5833C183.94 17.487 183.866 17.279 183.866 17.279Z" fill="#4A76A8"/>
<path d="M16.375 3H14.25C11.5625 3 10.125 4.74 10.125 7.44V9.6H7.625C7.4375 9.6 7 9.72 7 10.2V12.6C7 13.02 7.3125 13.2 7.625 13.2H10.125V20.64C10.125 20.82 10.3125 21 10.5 21H13.3125C13.5 21 13.875 20.88 13.875 20.7V13.2H16.375C16.875 13.2 17 12.96 17 12.6V10.2C17 10.08 17 9.6 16.375 9.6H13.875V7.8C13.875 6.96 14.125 6.6 15.0625 6.6H16.375C16.75 6.6 17 6.18 17 6V3.6C17 3.18 16.75 3 16.375 3Z" fill="#41479B"/>
<rect x="242" y="2" width="20" height="20" fill="#666666"/>
<path d="M258.303 7.41032L259.5 6.25326V6H255.354L252.399 13.4324L249.037 6H244.689V6.25326L246.087 7.95411C246.224 8.07979 246.295 8.26358 246.277 8.44863V15.1326C246.32 15.3733 246.242 15.6208 246.075 15.7958L244.5 17.7246V17.9747H248.966V17.7215L247.391 15.7958C247.22 15.6202 247.139 15.3771 247.174 15.1326V9.35116L251.094 17.9779H251.549L254.92 9.35116V16.2234C254.92 16.4046 254.92 16.4419 254.802 16.5606L253.59 17.7461V18H259.472V17.7467L258.304 16.5903C258.201 16.512 258.148 16.3806 258.17 16.2531V7.74758C258.148 7.61937 258.201 7.488 258.303 7.41032V7.41032Z" fill="white"/>
<path d="M207.999 8.17238H206.895L209.906 16.684L211.592 11.8669L210.285 8.17238H209.119V7.36134H214.28V8.17238H213.071L216.082 16.684L217.165 13.5909C218.585 9.62813 216.001 8.3937 216.001 7.50931C216.001 6.62491 216.718 5.908 217.602 5.908C217.65 5.908 217.697 5.9106 217.742 5.91484C216.244 4.50028 214.223 3.63282 212 3.63282C209.095 3.63282 206.536 5.11363 205.036 7.36134H207.999L207.999 8.17238Z" fill="#444444"/>
<path d="M203.633 12.0001C203.633 15.2035 205.433 17.986 208.077 19.392L204.301 8.71816C203.871 9.72586 203.633 10.8351 203.633 12.0001Z" fill="#444444"/>
<path d="M219.282 7.87697C219.402 8.58168 219.365 9.37373 219.182 10.1689H219.215L219.089 10.5304C219.014 10.7914 218.919 11.0584 218.812 11.3208L215.933 19.3866C218.571 17.9789 220.367 15.1994 220.367 12C220.367 10.5008 219.972 9.09397 219.282 7.87697Z" fill="#444444"/>
<path d="M209.419 19.961C210.232 20.2244 211.099 20.3672 212 20.3672C212.859 20.3672 213.688 20.2375 214.468 19.9971L212.02 13.0785L209.419 19.961Z" fill="#444444"/>
<path d="M219.071 4.92892C217.182 3.04018 214.671 2 212 2C209.329 2 206.818 3.04018 204.929 4.92892C203.04 6.81767 202 9.32888 202 12C202 14.6711 203.04 17.1823 204.929 19.0711C206.818 20.9598 209.329 22 212 22C214.671 22 217.182 20.9598 219.071 19.0711C220.96 17.1823 222 14.6711 222 12C222 9.32888 220.96 6.81767 219.071 4.92892ZM212 21.2946C206.875 21.2946 202.705 17.1251 202.705 12C202.705 6.87499 206.875 2.70543 212 2.70543C217.125 2.70543 221.294 6.87499 221.294 12C221.294 17.1251 217.125 21.2946 212 21.2946Z" fill="#444444"/>
<path fill-rule="evenodd" clip-rule="evenodd" d="M140.608 4.48939C141.55 4.753 142.293 5.52465 142.547 6.5036C143.018 8.29168 143 12.0188 143 12.0188C143 12.0188 143 15.727 142.547 17.5152C142.293 18.494 141.55 19.2658 140.608 19.5293C138.886 20 132 20 132 20C132 20 125.132 20 123.392 19.5106C122.45 19.247 121.707 18.4752 121.453 17.4964C121 15.727 121 12 121 12C121 12 121 8.29168 121.453 6.5036C121.707 5.52482 122.468 4.73417 123.392 4.47073C125.114 4 132 4 132 4C132 4 138.886 4 140.608 4.48939ZM135.702 12.0112L129.703 15.5293V8.49316L135.702 12.0112Z" fill="#FF0000"/>
<path d="M83.1782 8.95987V21H87.3366V8.95987H83.1782ZM98.0297 8.77926C97.9703 8.77926 97.9703 8.77926 97.9109 8.71906C97.8515 8.71906 97.7921 8.71906 97.7327 8.65886C97.495 8.59866 97.2574 8.59866 97.0198 8.59866C94.6436 8.59866 93.1584 10.2843 92.6832 10.9465V8.89966H88.5248V20.9398H92.6832V14.3177C92.6832 14.3177 95.5347 9.98328 96.8416 13.1137C96.8416 15.8829 96.8416 20.9398 96.8416 20.9398H101V13.1137C101 11.3077 99.7525 9.26087 98.0297 8.77926ZM84.9604 6.97324C86.0297 6.97324 86.9208 6.07023 86.9208 4.98662C86.9208 3.90301 86.0297 3 84.9604 3C83.8911 3 83 3.90301 83 4.98662C83 6.07023 83.8911 6.97324 84.9604 6.97324Z" fill="#0084B1"/>
<path d="M59.9944 8C59.9944 8.17143 59.9944 8.34286 59.9944 8.51429C59.9944 13.8286 55.8719 20 48.2953 20C45.9554 20 43.7827 19.3143 42 18.1714C42.3343 18.2286 42.6685 18.2286 43.0028 18.2286C44.9526 18.2286 46.6797 17.6 48.1281 16.5143C46.3454 16.4571 44.7855 15.3143 44.2841 13.7143C44.507 13.7714 44.7855 13.7714 45.0641 13.7714C45.454 13.7714 45.7883 13.7143 46.1226 13.6571C44.2284 13.3143 42.8357 11.6571 42.8357 9.71429V9.65714C43.3928 9.94286 44.0056 10.1143 44.6741 10.1714C43.5599 9.42857 42.8357 8.22857 42.8357 6.8C42.8357 6.05714 43.0585 5.37143 43.3928 4.74286C45.3983 7.2 48.4624 8.8 51.8607 8.97143C51.805 8.68571 51.7493 8.34286 51.7493 8.05714C51.7493 5.82857 53.5877 4 55.8719 4C57.0418 4 58.1003 4.51429 58.8802 5.25714C59.8273 5.14286 60.7187 4.8 61.4986 4.34286C61.1643 5.31429 60.5515 6.05714 59.6602 6.57143C60.4958 6.45714 61.2758 6.28571 62 5.94286C61.4986 6.74286 60.8301 7.42857 59.9944 8Z" fill="#26A8DE"/>
<path d="M296.034 3H287.966C285.201 3 283 5.25705 283 7.96552V16.0345C283 18.7994 285.257 21 287.966 21H296.034C298.799 21 301 18.7429 301 16.0345V8.02194C301 5.25705 298.743 3 296.034 3ZM299.42 16.0909C299.42 17.953 297.897 19.4765 296.034 19.4765H287.966C286.103 19.4765 284.58 17.953 284.58 16.0909V8.02194C284.58 6.15987 286.103 4.63636 287.966 4.63636H296.034C297.897 4.63636 299.42 6.15987 299.42 8.02194V16.0909Z" fill="url(#paint0_linear)"/>
<path d="M291.972 7.40123C289.433 7.40123 287.345 9.489 287.345 12.0282C287.345 14.5674 289.433 16.6551 291.972 16.6551C294.511 16.6551 296.599 14.5674 296.599 12.0282C296.599 9.489 294.511 7.40123 291.972 7.40123ZM291.972 15.0752C290.279 15.0752 288.925 13.721 288.925 12.0282C288.925 10.3354 290.279 8.98117 291.972 8.98117C293.665 8.98117 295.019 10.3354 295.019 12.0282C295.019 13.721 293.665 15.0752 291.972 15.0752Z" fill="url(#paint1_linear)"/>
<path d="M296.824 6.04715C296.542 6.04715 296.204 6.16 295.978 6.38571C295.752 6.61142 295.64 6.89355 295.64 7.23211C295.64 7.51424 295.752 7.8528 295.978 8.07851C296.204 8.30422 296.486 8.41707 296.824 8.41707C297.107 8.41707 297.445 8.30422 297.671 8.07851C297.897 7.8528 298.009 7.57067 298.009 7.23211C298.009 6.94998 297.897 6.61142 297.671 6.38571C297.445 6.16 297.107 6.04715 296.824 6.04715Z" fill="url(#paint2_linear)"/>
<path fill-rule="evenodd" clip-rule="evenodd" d="M332 22C337.523 22 342 17.5228 342 12C342 6.47715 337.523 2 332 2C326.477 2 322 6.47715 322 12C322 17.5228 326.477 22 332 22ZM334.532 17.6878C334.52 18.4201 334.527 19.4158 334.532 20.1481C333.924 20.4811 332.42 20.5185 332.014 20.5185C332.014 20.5185 330.91 20.5273 329.63 20.1481C329.658 19.504 329.685 18.7251 329.685 18.1584C329.53 18.1584 329.38 18.1616 329.232 18.1648C328.919 18.1714 328.617 18.1779 328.318 18.1527C327.416 18.073 326.722 17.6662 326.365 16.7535C326.137 16.1714 325.793 15.6781 325.264 15.3321C325.177 15.2765 325.119 15.1739 325.061 15.0712C325.034 15.0237 325.006 14.9761 324.977 14.9333C325.035 14.9171 325.092 14.9009 325.15 14.8846C325.259 14.8538 325.369 14.8231 325.478 14.7933C325.49 14.7914 325.503 14.7955 325.517 14.7996C325.523 14.8017 325.53 14.8039 325.537 14.8052C326.162 14.9207 326.581 15.3196 326.907 15.8533C327.518 16.8542 328.436 17.1689 329.503 16.741C329.588 16.708 329.691 16.642 329.723 16.5635C329.846 16.2611 329.959 15.9549 330.076 15.6378C330.116 15.5283 330.157 15.4175 330.198 15.3052L330.196 15.3048L330.197 15.3044C330.117 15.2902 330.038 15.2771 329.959 15.2639C329.849 15.2457 329.74 15.2275 329.63 15.2064C328.541 14.993 327.561 14.5822 326.823 13.6695C325.873 12.4945 325.363 9.42695 326.772 7.80357C326.835 7.73131 326.862 7.57426 326.836 7.47639C326.655 6.80325 326.673 6.13353 326.85 5.46438C326.991 4.93349 327.037 4.90618 327.569 5.01315C328.256 5.15313 328.852 5.50364 329.448 5.86439C329.58 5.94405 329.773 5.99128 329.917 5.956C331.187 5.65215 332.467 5.56566 333.74 5.86211C334.318 5.99867 334.77 5.92527 335.257 5.58785C335.761 5.23962 336.334 5.01315 336.958 4.9773C337.136 4.96535 337.232 5.02282 337.29 5.20889C337.524 5.95429 337.582 6.69912 337.381 7.4616C337.356 7.55605 337.358 7.70342 337.413 7.76829C338.166 8.69066 338.369 9.76494 338.296 10.936C338.155 13.2365 337.05 14.6226 334.923 15.1273C334.702 15.1798 334.477 15.2189 334.238 15.2604C334.13 15.2791 334.019 15.2984 333.905 15.3196C334.525 16.0144 334.544 16.8457 334.532 17.6878ZM330.233 15.3127C330.233 15.3128 330.232 15.3126 330.232 15.312L330.233 15.3127Z" fill="#24292E"/>
<g clip-path="url(#clip0)">
<path d="M418.574 14.5893C418.28 16.0707 415.941 17.6919 413.255 18.0061C411.854 18.1698 410.474 18.3202 409.004 18.2542C406.598 18.1462 404.7 17.6919 404.7 17.6919C404.7 17.9212 404.715 18.1396 404.744 18.3438C405.056 20.6687 407.097 20.808 409.031 20.873C410.982 20.9384 412.72 20.4017 412.72 20.4017L412.8 22.1296C412.8 22.1296 411.435 22.8475 409.004 22.9795C407.663 23.0517 405.998 22.9465 404.059 22.4438C399.853 21.3536 399.13 16.9629 399.019 12.5078C398.986 11.1851 399.006 9.9378 399.006 8.89463C399.006 4.33909 402.054 3.00379 402.054 3.00379C403.59 2.31261 406.227 2.02195 408.968 2H409.036C411.777 2.02195 414.415 2.31261 415.952 3.00379C415.952 3.00379 418.999 4.33909 418.999 8.89463C418.999 8.89463 419.037 12.2557 418.574 14.5893Z" fill="#2B90D9"/>
<path d="M415.404 9.24798V14.764H413.173V9.41012C413.173 8.28153 412.688 7.70869 411.719 7.70869C410.646 7.70869 410.109 8.38822 410.109 9.73189V12.6624H407.891V9.73189C407.891 8.38822 407.353 7.70869 406.281 7.70869C405.311 7.70869 404.826 8.28153 404.826 9.41012V14.764H402.595V9.24798C402.595 8.12064 402.888 7.22478 403.477 6.562C404.084 5.89921 404.879 5.55945 405.866 5.55945C407.008 5.55945 407.872 5.98927 408.444 6.84904L409 7.76153L409.556 6.84904C410.127 5.98927 410.992 5.55945 412.134 5.55945C413.121 5.55945 413.916 5.89921 414.523 6.562C415.111 7.22478 415.404 8.12064 415.404 9.24798Z" fill="white"/>
</g>
<path d="M381 12.2067C381 11.5949 380.95 10.9798 380.842 10.3779H372.181V13.8437H377.14C376.935 14.9614 376.273 15.9502 375.305 16.5786V18.8273H378.264C380.001 17.2598 381 14.9449 381 12.2067Z" fill="#4285F4"/>
<path d="M372.181 21C374.657 21 376.745 20.203 378.267 18.8273L375.308 16.5786C374.485 17.1275 373.422 17.4384 372.184 17.4384C369.788 17.4384 367.757 15.8543 367.029 13.7246H363.975V16.0428C365.534 19.082 368.709 21 372.181 21Z" fill="#34A853"/>
<path d="M367.025 13.7246C366.641 12.6068 366.641 11.3965 367.025 10.2787V7.96051H363.975C362.673 10.5036 362.673 13.4997 363.975 16.0428L367.025 13.7246Z" fill="#FBBC04"/>
<path d="M372.181 6.56164C373.49 6.54179 374.755 7.02462 375.703 7.91089L378.324 5.34135C376.664 3.81352 374.461 2.97354 372.181 3C368.709 3 365.534 4.91806 363.975 7.9605L367.025 10.2787C367.751 8.14569 369.785 6.56164 372.181 6.56164Z" fill="#EA4335"/>
<defs>
<linearGradient id="paint0_linear" x1="301.017" y1="5.13166" x2="282.979" y2="11.1981" gradientUnits="userSpaceOnUse">
<stop stop-color="#E0316D"/>
<stop offset="1" stop-color="#B034AE"/>
</linearGradient>
<linearGradient id="paint1_linear" x1="301.017" y1="5.13166" x2="282.979" y2="11.1981" gradientUnits="userSpaceOnUse">
<stop stop-color="#E0316D"/>
<stop offset="1" stop-color="#B034AE"/>
</linearGradient>
<linearGradient id="paint2_linear" x1="301.017" y1="5.13166" x2="282.979" y2="11.1981" gradientUnits="userSpaceOnUse">
<stop stop-color="#E0316D"/>
<stop offset="1" stop-color="#B034AE"/>
</linearGradient>
<clipPath id="clip0">
<rect width="20" height="21" fill="white" transform="translate(399 2)"/>
</clipPath>
</defs>
</svg>