<?xml version="1.0" encoding="utf-8"?>
<!-- Generator: Adobe Illustrator 14.0.0, SVG Export Plug-In . SVG Version: 6.00 Build 43363)  -->
<!DOCTYPE svg PUBLIC "-//W3C//DTD SVG 1.1//EN" "http://www.w3.org/Graphics/SVG/1.1/DTD/svg11.dtd">
<svg version="1.1" xmlns="http://www.w3.org/2000/svg" xmlns:xlink="http://www.w3.org/1999/xlink" x="0px" y="0px" width="24px"
	 height="24px" viewBox="20 20 24 24" enable-background="new 20 20 24 24" xml:space="preserve">

	<path fill="#385C8E" d="M26.325,32.782h2.631v10.831c0,0.214,0.173,0.387,0.387,0.387h4.46c0.214,0,0.387-0.173,0.387-0.387v-10.78
		h3.024c0.197,0,0.362-0.147,0.385-0.342l0.459-3.987c0.014-0.11-0.021-0.22-0.096-0.302c-0.072-0.083-0.178-0.13-0.288-0.13h-3.483
		v-2.5c0-0.753,0.405-1.135,1.205-1.135c0.115,0,2.278,0,2.278,0c0.214,0,0.387-0.173,0.387-0.387v-3.66
		c0-0.214-0.173-0.387-0.387-0.387h-3.14C34.514,20.002,34.465,20,34.393,20c-0.545,0-2.438,0.107-3.934,1.482
		c-1.657,1.525-1.426,3.35-1.372,3.667v2.923h-2.762c-0.214,0-0.387,0.173-0.387,0.387v3.937
		C25.938,32.609,26.111,32.782,26.325,32.782z"/>

</svg>
