<svg width="2440" height="1216" viewBox="0 0 2440 1216" fill="none" xmlns="http://www.w3.org/2000/svg">
<path opacity="0.2" fill-rule="evenodd" clip-rule="evenodd" d="M1614.99 1080L2375.87 1056.41C2441.99 1054.03 2459.89 1013.27 2415.89 965.29L1908.42 381.446C1857.7 317.981 1802.26 284.536 1700.74 293.41L941.13 316.312C875.013 318.691 857.109 359.455 901.111 407.432L1380.4 984.477C1430.85 1050.37 1491.21 1079.79 1614.99 1080Z" fill="#BDECFF"/>
<path opacity="0.25" fill-rule="evenodd" clip-rule="evenodd" d="M738.143 1072.56L44.3271 745.339C-14.7757 716.772 -14.7757 672.622 44.3271 646.652L738.143 319.428C797.246 290.861 892.324 290.861 948.857 319.428L1642.67 646.652C1701.78 675.22 1701.78 719.369 1642.67 745.339L948.857 1072.56C880.032 1106.19 794.676 1098.53 738.143 1072.56Z" fill="#BDECFF"/>
<path opacity="0.3" fill-rule="evenodd" clip-rule="evenodd" d="M996.817 799.794L1256.15 77.5866C1277.76 15.5755 1246.54 -15.6483 1186.37 7.79226L464.223 267.153C402.217 288.757 334.967 356.013 315.183 416.206L55.8453 1138.41C34.2433 1200.42 65.4644 1231.65 125.634 1208.21L847.777 948.847C920.237 923.943 975.196 858.151 996.817 799.794Z" fill="#BDECFF"/>
<ellipse cx="610.623" cy="878.828" rx="4.5007" ry="4.50183" fill="#FF6F3D"/>
<ellipse cx="1923.81" cy="842.814" rx="4.5007" ry="4.50183" fill="#9ADAF3"/>
<ellipse cx="1040.69" cy="1131.93" rx="4.5007" ry="4.50183" fill="#9ADAF3"/>
<path d="M1176.99 1054.82L1173.03 1041.53L1186.51 1044.75L1176.99 1054.82Z" fill="#9ADAF3"/>
<path d="M2035.74 1153.58L2030.97 1166.6L2022.08 1155.96L2035.74 1153.58Z" fill="#9ADAF3"/>
<path d="M485.629 1125.16L475.83 1134.96L472.243 1121.57L485.629 1125.16Z" fill="#BDECFF"/>
<path d="M2001.85 589.938L1992.05 599.74L1988.46 586.35L2001.85 589.938Z" fill="#FF6F3D"/>
<path d="M485.887 643.651L481.927 630.367L495.409 633.579L485.887 643.651Z" fill="#BDECFF"/>
</svg>
