<svg width="93" height="24" viewBox="0 0 93 24" fill="none" xmlns="http://www.w3.org/2000/svg">
<path d="M56.7637 14.7422C56.3945 15.1842 55.8727 15.5283 55.1982 15.7744C54.5238 16.016 53.7764 16.1367 52.9561 16.1367C52.0947 16.1367 51.3382 15.9499 50.6865 15.5762C50.0394 15.1979 49.5381 14.651 49.1826 13.9355C48.8317 13.2201 48.6517 12.3792 48.6426 11.4131V10.7363C48.6426 9.74284 48.8089 8.88379 49.1416 8.15918C49.4788 7.43001 49.9619 6.87402 50.5908 6.49121C51.2243 6.10384 51.9648 5.91016 52.8125 5.91016C53.9928 5.91016 54.9157 6.19271 55.5811 6.75781C56.2464 7.31836 56.6406 8.13639 56.7637 9.21191H54.7676C54.6764 8.64225 54.4736 8.22526 54.1592 7.96094C53.8493 7.69661 53.4209 7.56445 52.874 7.56445C52.1768 7.56445 51.6458 7.8265 51.2812 8.35059C50.9167 8.87467 50.7321 9.65397 50.7275 10.6885V11.3242C50.7275 12.3678 50.9258 13.1562 51.3223 13.6895C51.7188 14.2227 52.2998 14.4893 53.0654 14.4893C53.8356 14.4893 54.3848 14.3252 54.7129 13.9971V12.2812H52.8467V10.7705H56.7637V14.7422ZM57.9941 12.2334C57.9941 11.4997 58.1354 10.8457 58.418 10.2715C58.7005 9.69727 59.1061 9.25293 59.6348 8.93848C60.168 8.62402 60.7855 8.4668 61.4873 8.4668C62.4854 8.4668 63.2988 8.77214 63.9277 9.38281C64.5612 9.99349 64.9144 10.8229 64.9873 11.8711L65.001 12.377C65.001 13.5117 64.6842 14.4232 64.0508 15.1113C63.4173 15.7949 62.5674 16.1367 61.501 16.1367C60.4346 16.1367 59.5824 15.7949 58.9443 15.1113C58.3109 14.4277 57.9941 13.498 57.9941 12.3223V12.2334ZM59.9697 12.377C59.9697 13.0788 60.1019 13.6165 60.3662 13.9902C60.6305 14.3594 61.0088 14.5439 61.501 14.5439C61.9795 14.5439 62.3532 14.3617 62.6221 13.9971C62.891 13.6279 63.0254 13.04 63.0254 12.2334C63.0254 11.5452 62.891 11.012 62.6221 10.6338C62.3532 10.2555 61.9749 10.0664 61.4873 10.0664C61.0042 10.0664 60.6305 10.2555 60.3662 10.6338C60.1019 11.0075 59.9697 11.5885 59.9697 12.377ZM65.9102 12.2334C65.9102 11.4997 66.0514 10.8457 66.334 10.2715C66.6165 9.69727 67.0221 9.25293 67.5508 8.93848C68.084 8.62402 68.7015 8.4668 69.4033 8.4668C70.4014 8.4668 71.2148 8.77214 71.8438 9.38281C72.4772 9.99349 72.8304 10.8229 72.9033 11.8711L72.917 12.377C72.917 13.5117 72.6003 14.4232 71.9668 15.1113C71.3333 15.7949 70.4834 16.1367 69.417 16.1367C68.3506 16.1367 67.4984 15.7949 66.8604 15.1113C66.2269 14.4277 65.9102 13.498 65.9102 12.3223V12.2334ZM67.8857 12.377C67.8857 13.0788 68.0179 13.6165 68.2822 13.9902C68.5465 14.3594 68.9248 14.5439 69.417 14.5439C69.8955 14.5439 70.2692 14.3617 70.5381 13.9971C70.807 13.6279 70.9414 13.04 70.9414 12.2334C70.9414 11.5452 70.807 11.012 70.5381 10.6338C70.2692 10.2555 69.891 10.0664 69.4033 10.0664C68.9202 10.0664 68.5465 10.2555 68.2822 10.6338C68.0179 11.0075 67.8857 11.5885 67.8857 12.377ZM73.8467 12.2471C73.8467 11.1123 74.1156 10.1986 74.6533 9.50586C75.1956 8.81315 75.9248 8.4668 76.8408 8.4668C77.652 8.4668 78.2832 8.74479 78.7344 9.30078L78.8164 8.60352H80.6074V15.7539C80.6074 16.401 80.4593 16.9639 80.1631 17.4424C79.8714 17.9209 79.459 18.2855 78.9258 18.5361C78.3926 18.7868 77.7682 18.9121 77.0527 18.9121C76.5104 18.9121 75.9818 18.8027 75.4668 18.584C74.9518 18.3698 74.5622 18.0918 74.2979 17.75L75.1729 16.5469C75.665 17.0983 76.262 17.374 76.9639 17.374C77.488 17.374 77.8958 17.2327 78.1875 16.9502C78.4792 16.6722 78.625 16.2757 78.625 15.7607V15.3643C78.1693 15.8792 77.57 16.1367 76.8271 16.1367C75.9385 16.1367 75.2184 15.7904 74.667 15.0977C74.1201 14.4004 73.8467 13.4775 73.8467 12.3291V12.2471ZM75.8223 12.3906C75.8223 13.0605 75.9567 13.5869 76.2256 13.9697C76.4945 14.348 76.8636 14.5371 77.333 14.5371C77.9346 14.5371 78.3652 14.3115 78.625 13.8604V10.75C78.3607 10.2988 77.9346 10.0732 77.3467 10.0732C76.8727 10.0732 76.499 10.2669 76.2256 10.6543C75.9567 11.0417 75.8223 11.6204 75.8223 12.3906ZM84.2168 16H82.2344V5.5H84.2168V16ZM89.2549 16.1367C88.1702 16.1367 87.2861 15.804 86.6025 15.1387C85.9235 14.4733 85.584 13.5869 85.584 12.4795V12.2881C85.584 11.5452 85.7275 10.8822 86.0146 10.2988C86.3018 9.71094 86.7074 9.25977 87.2314 8.94531C87.7601 8.6263 88.3617 8.4668 89.0361 8.4668C90.0479 8.4668 90.8431 8.78581 91.4219 9.42383C92.0052 10.0618 92.2969 10.9665 92.2969 12.1377V12.9443H87.5869C87.6507 13.4274 87.8421 13.8148 88.1611 14.1064C88.4847 14.3981 88.8926 14.5439 89.3848 14.5439C90.1458 14.5439 90.7406 14.2682 91.1689 13.7168L92.1396 14.8037C91.8434 15.223 91.4424 15.5511 90.9365 15.7881C90.4307 16.0205 89.8701 16.1367 89.2549 16.1367ZM89.0293 10.0664C88.6374 10.0664 88.3184 10.1986 88.0723 10.4629C87.8307 10.7272 87.6758 11.1055 87.6074 11.5977H90.3555V11.4404C90.3464 11.0029 90.2279 10.6657 90 10.4287C89.7721 10.1872 89.4486 10.0664 89.0293 10.0664Z" fill="#666666"/>
<path d="M20.9999 12.2067C20.9999 11.5949 20.9493 10.9798 20.8414 10.3779H12.1804V13.8437H17.1401C16.9343 14.9614 16.273 15.9502 15.3047 16.5786V18.8273H18.2637C20.0013 17.2598 20.9999 14.9449 20.9999 12.2067Z" fill="#4285F4"/>
<path d="M12.1805 21C14.657 21 16.7455 20.203 18.2671 18.8273L15.3082 16.5786C14.4849 17.1275 13.4221 17.4384 12.1839 17.4384C9.78841 17.4384 7.75729 15.8543 7.02852 13.7246H3.9751V16.0428C5.53386 19.082 8.70874 21 12.1805 21Z" fill="#34A853"/>
<path d="M7.0251 13.7246C6.64047 12.6068 6.64047 11.3965 7.0251 10.2787V7.96051H3.97505C2.67271 10.5036 2.67271 13.4997 3.97505 16.0428L7.0251 13.7246Z" fill="#FBBC04"/>
<path d="M12.1805 6.56164C13.4896 6.54179 14.7548 7.02462 15.7029 7.91089L18.3245 5.34135C16.6645 3.81352 14.4613 2.97354 12.1805 3C8.70873 3 5.53386 4.91806 3.9751 7.9605L7.02514 10.2787C7.75053 8.14569 9.78502 6.56164 12.1805 6.56164Z" fill="#EA4335"/>
</svg>
