<?xml version="1.0" encoding="utf-8"?>
<!-- Generator: Adobe Illustrator 14.0.0, SVG Export Plug-In . SVG Version: 6.00 Build 43363)  -->
<!DOCTYPE svg PUBLIC "-//W3C//DTD SVG 1.1//EN" "http://www.w3.org/Graphics/SVG/1.1/DTD/svg11.dtd">
<svg version="1.1" xmlns="http://www.w3.org/2000/svg" xmlns:xlink="http://www.w3.org/1999/xlink" x="0px" y="0px" width="24px"
	 height="24px" viewBox="20 20 24 24" enable-background="new 20 20 24 24" xml:space="preserve">

	<path fill="#FBBB00" d="M25.319,34.503l-0.835,3.119l-3.053,0.064C20.518,35.994,20,34.058,20,32c0-1.99,0.484-3.866,1.342-5.519h0
		l2.718,0.498l1.191,2.702c-0.249,0.727-0.385,1.507-0.385,2.318C24.867,32.881,25.026,33.725,25.319,34.503z"/>
	<path fill="#518EF8" d="M43.791,29.758C43.928,30.484,44,31.234,44,32c0,0.859-0.09,1.697-0.262,2.506
		c-0.585,2.75-2.111,5.152-4.227,6.853v-0.001l-3.424-0.175l-0.484-3.025c1.402-0.822,2.5-2.11,3.076-3.651h-6.416v-4.748h6.51
		H43.791L43.791,29.758z"/>
	<path fill="#28B446" d="M39.512,41.357L39.512,41.357C37.455,43.011,34.844,44,32,44c-4.57,0-8.543-2.555-10.57-6.313l3.889-3.184
		c1.014,2.705,3.623,4.631,6.681,4.631c1.314,0,2.547-0.356,3.604-0.977L39.512,41.357z"/>
	<path fill="#F14336" d="M39.66,22.763l-3.889,3.183c-1.094-0.684-2.387-1.079-3.771-1.079c-3.128,0-5.786,2.014-6.749,4.815
		l-3.909-3.2h0C23.339,22.631,27.362,20,32,20C34.911,20,37.581,21.037,39.66,22.763z"/>

</svg>
