<?xml version="1.0" encoding="utf-8"?>
<!-- Generator: Adobe Illustrator 14.0.0, SVG Export Plug-In . SVG Version: 6.00 Build 43363)  -->
<!DOCTYPE svg PUBLIC "-//W3C//DTD SVG 1.1//EN" "http://www.w3.org/Graphics/SVG/1.1/DTD/svg11.dtd">
<svg version="1.1" xmlns="http://www.w3.org/2000/svg" xmlns:xlink="http://www.w3.org/1999/xlink" x="0px" y="0px" width="24px"
	 height="24px" viewBox="20 20 24 24" enable-background="new 20 20 24 24" xml:space="preserve">

	<path fill="#007AAA" d="M22.897,20.208c1.572,0,2.896,1.324,2.896,2.896c0,1.655-1.407,2.938-2.896,2.896
		c-1.531,0.042-2.896-1.241-2.896-2.896C19.959,21.49,21.284,20.208,22.897,20.208"/>
	<path fill="#007AAA" d="M24.511,43.793h-3.311c-0.455,0-0.827-0.373-0.827-0.828V28.483c0-0.455,0.331-0.828,0.786-0.828h3.352
		c0.456,0,0.828,0.373,0.828,0.828v14.524C25.338,43.42,24.966,43.793,24.511,43.793"/>
	<path fill="#007AAA" d="M43.959,32.703c0-3.062-2.276-5.461-5.338-5.461h-0.869c-1.655,0-3.27,0.786-4.138,2.069
		c-0.29,0.29-0.414,0.414-0.414,0.414v-1.655c0-0.166-0.248-0.414-0.413-0.414h-4.138c-0.166,0-0.414,0.166-0.414,0.373v15.434
		c0,0.165,0.249,0.331,0.414,0.331H33.2c0.165,0,0.414-0.166,0.414-0.331v-8.938c0-1.53,1.159-2.813,2.689-2.854
		c0.786,0,1.489,0.29,2.027,0.828c0.497,0.497,0.704,1.2,0.704,1.986v8.896c0,0.165,0.248,0.414,0.413,0.414h4.138
		c0.166,0,0.414-0.249,0.414-0.414V32.703H43.959z"/>

</svg>
