<svg width="196" height="160" viewBox="0 0 196 160" fill="none" xmlns="http://www.w3.org/2000/svg">
<path d="M188.314 0C190.235 0 191.943 1.17805 193.438 3.53414C194.932 5.67604 195.786 7.81794 196 9.95984C196 11.6734 195.359 13.0656 194.078 14.1365C180.2 24.4177 170.272 33.4137 164.294 41.1245C158.316 48.8353 155.327 57.6171 155.327 67.4699C155.327 73.253 156.928 77.9652 160.131 81.6064C163.333 85.0335 168.564 88.1392 175.824 90.9237C189.274 96.4926 196 107.309 196 123.373C196 133.655 192.584 142.329 185.752 149.398C178.919 156.466 168.991 160 155.967 160C141.662 160 130.24 154.752 121.699 144.257C113.159 133.762 108.889 120.589 108.889 104.739C108.889 86.5328 113.373 69.6118 122.34 53.9759C131.307 38.34 143.477 25.4886 158.85 15.4217C174.222 5.14056 184.044 0 188.314 0ZM79.4248 0C81.3464 0 83.0545 1.17805 84.549 3.53414C86.0436 5.67604 86.8976 7.81794 87.1111 9.95984C87.1111 11.6734 86.4706 13.0656 85.1895 14.1365C71.3115 24.4177 61.3834 33.4137 55.4052 41.1245C49.427 48.8353 46.4379 57.6171 46.4379 67.4699C46.4379 73.253 48.0392 77.9652 51.2418 81.6064C54.4444 85.0335 59.6754 88.1392 66.9346 90.9237C80.3856 96.4926 87.1111 107.309 87.1111 123.373C87.1111 133.655 83.695 142.329 76.8627 149.398C70.0305 156.466 60.1024 160 47.0784 160C32.7734 160 21.3508 154.752 12.8105 144.257C4.27015 133.762 0 120.589 0 104.739C0 86.5328 4.48366 69.6118 13.451 53.9759C22.4183 38.34 34.5882 25.4886 49.9608 15.4217C65.3333 5.14056 75.1547 0 79.4248 0Z" fill="#F5F5F5"/>
</svg>
