<svg width="40" height="40" viewBox="0 0 40 40" fill="none" xmlns="http://www.w3.org/2000/svg">
<path d="M40 20C40 31.0457 31.0457 40 20 40C8.9543 40 0 31.0457 0 20C0 8.9543 8.9543 0 20 0C31.0457 0 40 8.9543 40 20Z" fill="#8BB825"/>
<path d="M18.3826 23.3872C17.9926 23.7862 17.3516 23.7889 16.9583 23.3933L14.1513 20.5701C13.7603 20.1768 13.124 20.1768 12.733 20.5701L12.7019 20.6015C12.3137 20.9918 12.3141 21.6225 12.7027 22.0124L16.959 26.2831C17.3522 26.6776 17.992 26.6749 18.3817 26.277L28.3062 16.1452C28.6903 15.753 28.6865 15.1245 28.2976 14.737L28.273 14.7126C27.8791 14.3201 27.2408 14.3244 26.8521 14.722L18.3826 23.3872Z" fill="white"/>
</svg>
