<svg width="32" height="16" viewBox="0 0 32 16" fill="none" xmlns="http://www.w3.org/2000/svg">
<path d="M7.07668 2.21993C7.41827 1.39864 8.58173 1.39864 8.92332 2.21993L9.88146 4.52358C10.0255 4.86981 10.3511 5.10638 10.7249 5.13635L13.2119 5.33573C14.0985 5.40681 14.458 6.51332 13.7825 7.09199L11.8877 8.7151C11.6029 8.95905 11.4785 9.34183 11.5655 9.70659L12.1444 12.1335C12.3508 12.9987 11.4096 13.6825 10.6505 13.2189L8.52125 11.9184C8.20124 11.7229 7.79876 11.7229 7.47875 11.9184L5.34954 13.2189C4.59044 13.6825 3.64919 12.9987 3.85558 12.1335L4.43448 9.70659C4.52148 9.34183 4.39711 8.95906 4.11232 8.7151L2.2175 7.09199C1.54197 6.51332 1.90149 5.40681 2.78815 5.33573L5.27513 5.13635C5.64892 5.10638 5.97453 4.86981 6.11854 4.52358L7.07668 2.21993Z" fill="#FF6F3D"/>
<path d="M23.0767 2.21993C23.4183 1.39864 24.5817 1.39864 24.9233 2.21993L25.8815 4.52358C26.0255 4.86981 26.3511 5.10638 26.7249 5.13635L29.2119 5.33573C30.0985 5.40681 30.458 6.51332 29.7825 7.09199L27.8877 8.7151C27.6029 8.95905 27.4785 9.34183 27.5655 9.70659L28.1444 12.1335C28.3508 12.9987 27.4096 13.6825 26.6505 13.2189L24.5213 11.9184C24.2012 11.7229 23.7988 11.7229 23.4787 11.9184L21.3495 13.2189C20.5904 13.6825 19.6492 12.9987 19.8556 12.1335L20.4345 9.70659C20.5215 9.34183 20.3971 8.95906 20.1123 8.7151L18.2175 7.09199C17.542 6.51332 17.9015 5.40681 18.7881 5.33573L21.2751 5.13635C21.6489 5.10638 21.9745 4.86981 22.1185 4.52358L23.0767 2.21993Z" fill="#CCCCCC"/>
</svg>
