<?xml version="1.0" encoding="utf-8"?>
<!-- Generator: Adobe Illustrator 14.0.0, SVG Export Plug-In . SVG Version: 6.00 Build 43363)  -->
<!DOCTYPE svg PUBLIC "-//W3C//DTD SVG 1.1//EN" "http://www.w3.org/Graphics/SVG/1.1/DTD/svg11.dtd">
<svg version="1.1" xmlns="http://www.w3.org/2000/svg" xmlns:xlink="http://www.w3.org/1999/xlink" x="0px" y="0px" width="24px"
	 height="24px" viewBox="20 20 24 24" enable-background="new 20 20 24 24" xml:space="preserve">
  <style>
      g.icon { display: none }
      g.icon:target { display: inline } 
    </style>

<g class="icon" id="google">
	<path fill="#FBBB00" d="M25.319,34.503l-0.835,3.119l-3.053,0.064C20.518,35.994,20,34.058,20,32c0-1.99,0.484-3.866,1.342-5.519h0
		l2.718,0.498l1.191,2.702c-0.249,0.727-0.385,1.507-0.385,2.318C24.867,32.881,25.026,33.725,25.319,34.503z"/>
	<path fill="#518EF8" d="M43.791,29.758C43.928,30.484,44,31.234,44,32c0,0.859-0.09,1.697-0.262,2.506
		c-0.585,2.75-2.111,5.152-4.227,6.853v-0.001l-3.424-0.175l-0.484-3.025c1.402-0.822,2.5-2.11,3.076-3.651h-6.416v-4.748h6.51
		H43.791L43.791,29.758z"/>
	<path fill="#28B446" d="M39.512,41.357L39.512,41.357C37.455,43.011,34.844,44,32,44c-4.57,0-8.543-2.555-10.57-6.313l3.889-3.184
		c1.014,2.705,3.623,4.631,6.681,4.631c1.314,0,2.547-0.356,3.604-0.977L39.512,41.357z"/>
	<path fill="#F14336" d="M39.66,22.763l-3.889,3.183c-1.094-0.684-2.387-1.079-3.771-1.079c-3.128,0-5.786,2.014-6.749,4.815
		l-3.909-3.2h0C23.339,22.631,27.362,20,32,20C34.911,20,37.581,21.037,39.66,22.763z"/>
</g>
<g class="icon" id="linkenin">
	<path fill="#007AAA" d="M22.897,20.208c1.572,0,2.896,1.324,2.896,2.896c0,1.655-1.407,2.938-2.896,2.896
		c-1.531,0.042-2.896-1.241-2.896-2.896C19.959,21.49,21.284,20.208,22.897,20.208"/>
	<path fill="#007AAA" d="M24.511,43.793h-3.311c-0.455,0-0.827-0.373-0.827-0.828V28.483c0-0.455,0.331-0.828,0.786-0.828h3.352
		c0.456,0,0.828,0.373,0.828,0.828v14.524C25.338,43.42,24.966,43.793,24.511,43.793"/>
	<path fill="#007AAA" d="M43.959,32.703c0-3.062-2.276-5.461-5.338-5.461h-0.869c-1.655,0-3.27,0.786-4.138,2.069
		c-0.29,0.29-0.414,0.414-0.414,0.414v-1.655c0-0.166-0.248-0.414-0.413-0.414h-4.138c-0.166,0-0.414,0.166-0.414,0.373v15.434
		c0,0.165,0.249,0.331,0.414,0.331H33.2c0.165,0,0.414-0.166,0.414-0.331v-8.938c0-1.53,1.159-2.813,2.689-2.854
		c0.786,0,1.489,0.29,2.027,0.828c0.497,0.497,0.704,1.2,0.704,1.986v8.896c0,0.165,0.248,0.414,0.413,0.414h4.138
		c0.166,0,0.414-0.249,0.414-0.414V32.703H43.959z"/>
</g>
<g class="icon" id="facebook">
	<path fill="#385C8E" d="M26.325,32.782h2.631v10.831c0,0.214,0.173,0.387,0.387,0.387h4.46c0.214,0,0.387-0.173,0.387-0.387v-10.78
		h3.024c0.197,0,0.362-0.147,0.385-0.342l0.459-3.987c0.014-0.11-0.021-0.22-0.096-0.302c-0.072-0.083-0.178-0.13-0.288-0.13h-3.483
		v-2.5c0-0.753,0.405-1.135,1.205-1.135c0.115,0,2.278,0,2.278,0c0.214,0,0.387-0.173,0.387-0.387v-3.66
		c0-0.214-0.173-0.387-0.387-0.387h-3.14C34.514,20.002,34.465,20,34.393,20c-0.545,0-2.438,0.107-3.934,1.482
		c-1.657,1.525-1.426,3.35-1.372,3.667v2.923h-2.762c-0.214,0-0.387,0.173-0.387,0.387v3.937
		C25.938,32.609,26.111,32.782,26.325,32.782z"/>
</g>
<g class="icon" id="twitter">
	<path fill="#03A9F4" d="M44,24.559c-0.893,0.392-1.844,0.651-2.836,0.777c1.021-0.609,1.799-1.566,2.166-2.719
		c-0.951,0.567-2.002,0.967-3.121,1.191c-0.902-0.961-2.189-1.557-3.594-1.557c-2.724,0-4.917,2.211-4.917,4.921
		c0,0.39,0.033,0.765,0.114,1.122c-4.091-0.199-7.71-2.16-10.142-5.146c-0.424,0.736-0.673,1.58-0.673,2.487
		c0,1.704,0.877,3.215,2.186,4.089c-0.791-0.015-1.566-0.245-2.223-0.606c0,0.015,0,0.034,0,0.054c0,2.391,1.706,4.377,3.942,4.834
		c-0.4,0.11-0.837,0.162-1.29,0.162c-0.315,0-0.633-0.018-0.931-0.083c0.637,1.948,2.446,3.381,4.597,3.427
		c-1.674,1.31-3.799,2.099-6.1,2.099c-0.404,0-0.791-0.018-1.178-0.067c2.18,1.405,4.763,2.208,7.548,2.208
		c9.054,0,14.005-7.5,14.005-14.001c0-0.217-0.008-0.428-0.02-0.636C42.51,26.42,43.331,25.555,44,24.559z"/>
</g>
</svg>
