<svg width="174" height="26" viewBox="0 0 174 26" fill="none" xmlns="http://www.w3.org/2000/svg">
<path d="M170.475 2.4747C170.616 2.58235 170.588 2.731 170.588 2.78112C170.588 2.83124 170.593 2.95939 170.475 3.05109C170.27 3.2117 169.7 3.13709 169.7 3.13709V2.40294C169.7 2.40294 170.335 2.36649 170.475 2.4747ZM171.656 5.18406L170.993 3.69354C171.139 3.62633 171.273 3.51527 171.386 3.33757C171.498 3.17069 171.566 2.9816 171.566 2.78112C171.566 2.58064 171.509 2.38073 171.408 2.20246C171.318 2.02476 171.172 1.89148 170.993 1.77985C170.785 1.68381 170.558 1.63441 170.329 1.63518H168.733V5.18349H169.7V3.8496H170.003L170.543 5.18462L171.656 5.18406ZM172.33 2.40294C172.454 2.71448 172.521 3.04824 172.521 3.41503C172.521 3.88206 172.409 4.30524 172.196 4.69424C171.987 5.06559 171.68 5.37343 171.307 5.58445C170.925 5.79575 170.509 5.89599 170.048 5.89599C169.576 5.89599 169.16 5.78436 168.8 5.58445C168.427 5.37066 168.117 5.0637 167.901 4.69424C167.687 4.31606 167.586 3.88263 167.586 3.41503C167.574 2.92579 167.676 2.49236 167.901 2.11361C168.109 1.74242 168.416 1.43476 168.789 1.22397C169.176 1.01837 169.609 0.9113 170.048 0.912423C170.408 0.912423 170.734 0.979061 171.026 1.10151C171.33 1.23479 171.599 1.40167 171.824 1.62436C172.049 1.8351 172.218 2.09139 172.33 2.40294ZM173.229 4.71645C173.407 4.30508 173.499 3.86243 173.5 3.41503C173.5 2.95939 173.41 2.514 173.229 2.09139C173.052 1.68688 172.796 1.32048 172.477 1.01266C172.164 0.692724 171.789 0.439057 171.375 0.267122C170.955 0.0902668 170.504 -0.000603402 170.048 3.01525e-06C169.587 3.01525e-06 169.149 0.0888529 168.733 0.267122C168.322 0.437968 167.945 0.678957 167.619 0.979061C167.304 1.30071 167.052 1.678 166.877 2.09139C166.699 2.51028 166.607 2.96041 166.608 3.41503C166.608 3.86042 166.698 4.29385 166.877 4.71645C167.057 5.16184 167.305 5.52863 167.62 5.81797C167.936 6.1325 168.315 6.37878 168.733 6.5413C169.145 6.72779 169.594 6.82266 170.048 6.81924C170.508 6.81924 170.948 6.73039 171.375 6.5413C171.802 6.36303 172.173 6.12951 172.477 5.81797C172.797 5.50272 173.053 5.12857 173.229 4.71645ZM32.2583 9.19312C32.9866 9.19305 33.7078 9.33492 34.3806 9.61065C35.0535 9.88637 35.6649 10.2905 36.1799 10.8001C36.6949 11.3096 37.1034 11.9145 37.382 12.5803C37.6607 13.246 37.8041 13.9596 37.804 14.6802C37.8037 16.1352 37.2193 17.5305 36.1793 18.5592C35.1393 19.5879 33.7288 20.1657 32.2583 20.1655C30.7879 20.1654 29.3778 19.5874 28.338 18.5588C27.2983 17.5301 26.714 16.135 26.7137 14.6802C26.7136 13.9597 26.857 13.2462 27.1356 12.5805C27.4142 11.9149 27.8225 11.31 28.3374 10.8005C28.8523 10.291 29.4635 9.88677 30.1363 9.61097C30.809 9.33518 31.5301 9.1932 32.2583 9.19312ZM32.2583 3.36035C29.2241 3.3605 26.3142 4.55319 24.1687 6.67605C22.0232 8.79892 20.8179 11.6781 20.8179 14.6802C20.8179 17.6824 22.0233 20.5616 24.1689 22.6845C26.3145 24.8074 29.2245 26 32.2589 26C33.7613 26 35.249 25.7072 36.6371 25.1383C38.0252 24.5695 39.2864 23.7356 40.3488 22.6845C41.4112 21.6334 42.2539 20.3855 42.8289 19.0121C43.4038 17.6387 43.6998 16.1667 43.6998 14.6802C43.6998 13.1936 43.4038 11.7216 42.8288 10.3481C42.2538 8.97471 41.4111 7.7268 40.3486 6.67565C39.2862 5.6245 38.0248 4.7907 36.6367 4.22186C35.2486 3.65302 33.7608 3.36028 32.2583 3.36035ZM157.016 14.5173H160.471L158.75 8.94423L157.016 14.5173ZM164.017 25.9983L162.192 20.0903H155.307L153.469 25.9983H147.602L153.365 7.31873C154.147 4.66121 155.947 3.33301 158.75 3.33301C161.54 3.33301 163.339 4.66121 164.122 7.31873L169.911 25.9983H164.017ZM140.916 25.9983V3.35864H146.535V25.9983H140.916ZM125.111 8.9448V20.4264C130.535 20.4264 133.26 18.5041 133.26 14.6466C133.26 10.8539 130.535 8.94537 125.111 8.94537V8.9448ZM125.111 3.33358C134.382 3.33358 139.018 7.11312 139.018 14.6466C139.018 22.2193 134.382 25.9989 125.111 25.9989H119.353V3.33301L125.111 3.33358ZM114.214 17.4334H107.518V20.4264H117.359V25.9989H107.44C103.718 25.9989 101.871 24.1416 101.871 20.4264V3.33301H117.333V8.9317H107.518V11.8598H114.214V17.4334ZM88.8101 8.86734V14.4535C92.6825 14.4535 94.6328 13.5246 94.6328 11.6667C94.6328 9.80938 92.6963 8.86734 88.8101 8.86734ZM83.0675 3.33358H90.5192C97.1161 3.33358 100.415 6.11983 100.415 11.6798C100.415 17.2528 97.237 20.0391 90.9066 20.0391H88.8228V25.9989H83.0675V3.33358ZM63.221 3.37174H81.2139V8.9579H75.0338V25.9989H69.4011V8.9579H63.221V3.37174ZM45.4163 25.9989L45.4037 8.9448C45.4037 5.66134 47.8882 3.33358 51.1745 3.33358H61.6501V8.9448H51.1739V11.8734H59.1437V17.4334H51.1739V25.9994L45.4163 25.9989ZM0.5 20.4258V25.9983C3.81686 25.9983 6.67205 25.8177 9.06558 25.4823C10.7965 25.2374 12.3255 24.9019 13.623 24.4628C14.6039 24.1279 15.4547 23.7412 16.2047 23.302C17.4015 22.5929 18.3099 21.7284 18.916 20.6963C19.2182 20.1934 19.449 19.6518 19.6079 19.0839L19.7956 17.4584C19.7956 16.865 19.7092 16.2977 19.5504 15.743C19.3912 15.2357 19.1682 14.7502 18.8866 14.298C18.4256 13.5627 17.7762 12.9305 16.9686 12.3889C16.3785 12.0202 15.756 11.7049 15.1087 11.4468C14.445 11.2019 13.4065 10.8796 11.9933 10.4797C11.0562 10.2217 10.393 10.0281 10.0033 9.88627C9.571 9.74388 9.22446 9.60206 8.93606 9.44771C8.76168 9.37624 8.60089 9.2759 8.46058 9.15098C8.34545 9.07352 8.3017 9.00859 8.3017 8.9317H18.3386V3.35864H8.34545C5.87882 3.35864 4.11965 4.44193 3.0668 6.62217C1.94199 8.94423 2.35991 11.0601 4.29292 12.9561C4.82596 13.4853 5.47529 13.9494 6.23975 14.3493C7.06119 14.7753 8.21536 15.2007 9.68613 15.6137C11.2726 16.0784 12.0365 16.2846 11.9501 16.259C12.4838 16.4264 12.9022 16.5813 13.2194 16.7232L13.8106 17.033C14.0697 17.2135 14.1278 17.5103 13.9833 17.9357C13.825 18.1425 13.5654 18.3618 13.2194 18.5679C12.3255 19.1096 10.9554 19.5356 9.10933 19.8323C6.83093 20.2322 3.96077 20.4258 0.5 20.4258Z" fill="#002873"/>
</svg>
