<svg width="964" height="124" viewBox="0 0 964 124" fill="none" xmlns="http://www.w3.org/2000/svg">
<path d="M398.133 39.3885L389.082 45.6701L398.133 51.9517L389.082 58.2333L380.03 51.9077L389.082 45.6262L380.03 39.3885L389.082 33.1069L398.133 39.3885ZM389.041 60.21L398.093 53.9284L407.145 60.21L398.093 66.4916L389.041 60.21ZM398.133 51.9077L407.185 45.6262L398.133 39.3885L407.145 33.1069L416.196 39.3885L407.145 45.6701L416.196 51.9517L407.145 58.2333L398.133 51.9077Z" fill="#0061FF"/>
<path d="M352.607 71.3306H358.488C362.257 71.3306 365.343 73.5564 365.343 78.6062V79.6693C365.343 84.7855 362.451 87.0779 358.618 87.0779H352.607V71.3306ZM355.888 74.1877V84.1876H358.39C360.535 84.1876 361.964 82.759 361.964 79.6029V78.7723C361.964 75.6162 360.47 74.1877 358.293 74.1877H355.888ZM367.065 74.3206H369.697L370.119 77.2773C370.607 75.2508 371.906 74.1877 374.213 74.1877H375.025V77.5763H373.661C370.996 77.5763 370.347 78.5398 370.347 81.2308V87.0779H367.098V74.2873H367.065V74.3206ZM375.708 80.9982V80.6328C375.708 76.3471 378.372 74.0216 382.011 74.0216C385.715 74.0216 388.314 76.3471 388.314 80.6328V80.9982C388.314 85.1842 385.812 87.4433 382.011 87.4433C377.982 87.4101 375.708 85.1842 375.708 80.9982ZM385 80.9318V80.5996C385 78.2408 383.83 76.8122 381.978 76.8122C380.159 76.8122 378.957 78.1079 378.957 80.5996V80.9318C378.957 83.2241 380.126 84.5198 381.978 84.5198C383.83 84.5198 385 83.2573 385 80.9318ZM390.036 74.3206H392.732L393.057 76.7458C393.707 75.1179 395.104 74.0216 397.151 74.0216C400.335 74.0216 402.415 76.3471 402.415 80.666V81.0314C402.415 85.2174 400.108 87.4433 397.151 87.4433C395.169 87.4433 393.837 86.5463 393.155 85.0845V91.5297H389.971L390.036 74.3206ZM399.133 80.9318V80.666C399.133 78.1411 397.866 76.8787 396.144 76.8787C394.324 76.8787 393.122 78.3072 393.122 80.666V80.8986C393.122 83.1577 394.292 84.5862 396.111 84.5862C397.963 84.553 399.133 83.3238 399.133 80.9318ZM407.223 84.7523L406.963 87.0779H404.169V70.0681H407.353V76.6129C408.035 74.9518 409.432 74.0548 411.414 74.0548C414.403 74.088 416.613 76.181 416.613 80.4334V80.8321C416.613 85.0513 414.533 87.4765 411.349 87.4765C409.238 87.4101 407.873 86.4134 407.223 84.7523ZM413.266 80.7989V80.4667C413.266 78.1411 412.032 76.8122 410.277 76.8122C408.49 76.8122 407.256 78.274 407.256 80.4999V80.7657C407.256 83.1244 408.458 84.5198 410.245 84.5198C412.129 84.553 413.266 83.3238 413.266 80.7989ZM417.977 80.9982V80.6328C417.977 76.3471 420.642 74.0216 424.281 74.0216C427.984 74.0216 430.584 76.3471 430.584 80.6328V80.9982C430.584 85.1842 428.017 87.4433 424.281 87.4433C420.252 87.4101 417.977 85.1842 417.977 80.9982ZM427.302 80.9318V80.5996C427.302 78.2408 426.132 76.8122 424.281 76.8122C422.461 76.8122 421.259 78.1079 421.259 80.5996V80.9318C421.259 83.2241 422.429 84.5198 424.281 84.5198C426.132 84.5198 427.302 83.2573 427.302 80.9318ZM434.84 80.4667L430.454 74.3206H434.223L436.724 78.1743L439.291 74.3206H442.995L438.544 80.4002L443.222 87.0447H439.551L436.692 82.8254L433.898 87.0447H430.096L434.84 80.4667Z" fill="black"/>
<path d="M189.206 87.2453C186.81 87.2453 184.89 86.51 183.448 85.0393C182.007 83.5687 181.286 81.6554 181.286 79.2994C181.286 76.7679 182.02 74.7485 183.49 73.2413C184.959 71.734 186.959 70.9804 189.489 70.9804C191.823 70.9804 193.703 71.7121 195.129 73.1754C196.555 74.6387 197.268 76.552 197.268 78.9153C197.268 81.4835 196.537 83.5138 195.076 85.0064C193.614 86.499 191.658 87.2453 189.206 87.2453ZM189.348 72.6486C187.572 72.6486 186.13 73.2449 185.022 74.4375C183.914 75.6301 183.36 77.1959 183.36 79.1348C183.36 81.0737 183.9 82.634 184.981 83.8156C186.061 84.9973 187.47 85.5881 189.206 85.5881C191.061 85.5881 192.522 85.0247 193.591 83.8979C194.659 82.7712 195.194 81.1945 195.194 79.1677C195.194 77.0898 194.675 75.4838 193.638 74.3497C192.601 73.2157 191.171 72.6486 189.348 72.6486Z" fill="#094AB1"/>
<path d="M210.352 86.9841H208.419V80.5747C208.419 78.1895 207.483 76.9969 205.613 76.9968C204.647 76.9969 203.847 77.3352 203.215 78.012C202.582 78.6888 202.266 79.543 202.266 80.5747V86.9841H200.333V75.7457H202.266V77.6114H202.313C203.225 76.192 204.545 75.4823 206.273 75.4823C207.593 75.4823 208.603 75.8792 209.303 76.6731C210.002 77.4669 210.352 78.6138 210.352 80.1137V86.9841Z" fill="#094AB1"/>
<path d="M223.706 81.8149H215.184C215.216 83.066 215.577 84.0318 216.269 84.7123C216.96 85.3927 217.911 85.7329 219.121 85.7329C220.48 85.7329 221.73 85.3159 222.869 84.4818V86.1719C221.808 86.889 220.406 87.2475 218.661 87.2475C216.956 87.2475 215.617 86.7371 214.642 85.7165C213.668 84.6958 213.181 83.2599 213.181 81.4088C213.181 79.6601 213.713 78.2352 214.778 77.134C215.842 76.0329 217.165 75.4823 218.744 75.4823C220.323 75.4823 221.545 75.9579 222.41 76.909C223.274 77.8602 223.706 79.1809 223.706 80.871V81.8149ZM221.726 80.2893C221.718 79.2504 221.449 78.4419 220.919 77.8639C220.388 77.2859 219.651 76.9969 218.709 76.9968C217.797 76.9969 217.023 77.3005 216.387 77.9078C215.75 78.5151 215.357 79.3089 215.208 80.2893H221.726Z" fill="#094AB1"/>
<path d="M226.899 86.9829V71.2448H231.567C237.523 71.2448 240.501 73.8019 240.501 78.9163C240.501 81.3454 239.674 83.2971 238.02 84.7714C236.366 86.2457 234.152 86.9829 231.378 86.9829H226.899ZM228.88 72.9129V85.3147H231.402C233.618 85.3147 235.342 84.7623 236.576 83.6574C237.81 82.5526 238.427 80.9869 238.427 78.9602C238.427 74.9287 236.124 72.913 231.52 72.9129H228.88Z" fill="#094AB1"/>
<path d="M249.86 77.5655C249.522 77.324 249.035 77.2033 248.398 77.2033C247.573 77.2033 246.884 77.5655 246.33 78.2898C245.776 79.0142 245.499 80.0019 245.499 81.2531V86.982H243.566V75.7436H245.499V78.0593H245.546C245.821 77.2692 246.241 76.6527 246.807 76.2101C247.373 75.7674 248.006 75.5461 248.705 75.5461C249.208 75.5461 249.593 75.5973 249.86 75.6997V77.5655Z" fill="#094AB1"/>
<path d="M252.948 72.8911C252.602 72.8911 252.308 72.7813 252.064 72.5618C251.821 72.3423 251.699 72.0643 251.699 71.7277C251.699 71.3912 251.821 71.1113 252.064 70.8881C252.308 70.665 252.602 70.5534 252.948 70.5534C253.302 70.5534 253.602 70.665 253.85 70.8881C254.097 71.1113 254.221 71.3912 254.221 71.7277C254.221 72.0497 254.097 72.324 253.85 72.5509C253.602 72.7777 253.302 72.8911 252.948 72.8911ZM253.891 86.9829H251.958V75.7446H253.891V86.9829Z" fill="#094AB1"/>
<path d="M267.292 75.7462L262.484 86.9845H260.586L256.013 75.7462H258.134L261.199 83.9115C261.427 84.5115 261.568 85.0346 261.623 85.4809H261.67C261.749 84.9176 261.875 84.4091 262.047 83.9554L265.253 75.7462H267.292Z" fill="#094AB1"/>
<path d="M279.055 81.8149H270.533C270.565 83.066 270.926 84.0318 271.618 84.7123C272.309 85.3927 273.26 85.7329 274.47 85.7329C275.83 85.7329 277.079 85.3159 278.218 84.4818V86.1719C277.158 86.889 275.755 87.2475 274.011 87.2475C272.305 87.2475 270.966 86.7371 269.991 85.7165C269.017 84.6958 268.53 83.2599 268.53 81.4088C268.53 79.6601 269.062 78.2352 270.127 77.134C271.192 76.0329 272.514 75.4823 274.093 75.4823C275.672 75.4823 276.894 75.9579 277.759 76.909C278.623 77.8602 279.055 79.1809 279.055 80.871V81.8149ZM277.075 80.2893C277.067 79.2504 276.798 78.4419 276.268 77.8639C275.737 77.2859 275.001 76.9969 274.058 76.9968C273.146 76.9969 272.372 77.3005 271.736 77.9078C271.099 78.5151 270.706 79.3089 270.557 80.2893H277.075Z" fill="#094AB1"/>
<path d="M235.608 49.7045L245.206 40.1536C243.212 32.0644 235.294 27.1886 227.52 29.2631C224.019 30.1973 220.979 32.4555 218.992 35.5969C219.14 35.593 235.608 49.7045 235.608 49.7045Z" fill="#0364B8"/>
<path d="M225.247 37.3926L225.247 37.3943C223.413 36.2123 221.298 35.5876 219.14 35.5906C219.091 35.5906 219.042 35.5939 218.992 35.5945C212.575 35.6773 207.438 41.1571 207.517 47.8341C207.546 50.2561 208.273 52.6133 209.605 54.6002L223.984 52.7262L235.008 43.4764L225.247 37.3926Z" fill="#0078D4"/>
<path d="M245.207 40.1515C244.996 40.1369 244.784 40.1267 244.569 40.1267C243.282 40.1254 242.007 40.3991 240.825 40.9308L240.825 40.9297L235.009 43.4766L241.421 51.7184L252.884 54.618C255.358 49.8393 253.641 43.8787 249.048 41.3046C247.861 40.6394 246.552 40.2463 245.207 40.1516V40.1515H245.207Z" fill="#1490DF"/>
<path d="M209.605 54.6046C211.776 57.8528 215.338 59.7886 219.141 59.7865H244.569C248.043 59.7875 251.236 57.8041 252.884 54.6224L235.009 43.4809L209.605 54.6046Z" fill="#28A8EA"/>
<path d="M735.565 31.6796C726.603 31.6796 719.007 37.6263 716.653 45.6835C714.607 41.4099 710.173 38.4158 705.066 38.4158C698.042 38.4158 692.269 44.0669 692.269 50.9415C692.269 57.8161 698.042 63.4697 705.066 63.4697C710.173 63.4697 714.607 60.4738 716.653 56.1994C719.007 64.2572 726.603 70.206 735.565 70.206C744.46 70.206 752.017 64.347 754.432 56.38C756.516 60.5574 760.895 63.4697 765.929 63.4697C772.952 63.4697 778.728 57.8161 778.728 50.9415C778.728 44.0669 772.952 38.4158 765.929 38.4158C760.895 38.4158 756.516 41.3263 754.432 45.5029C752.017 37.5366 744.46 31.6796 735.565 31.6796ZM735.565 39.0324C742.33 39.0324 747.734 44.3197 747.734 50.9415C747.734 57.5633 742.33 62.8531 735.565 62.8531C728.8 62.8531 723.398 57.5633 723.398 50.9415C723.398 44.3197 728.8 39.0324 735.565 39.0324ZM705.066 45.7687C708.03 45.7687 710.353 48.0403 710.353 50.9415C710.353 53.8426 708.03 56.1169 705.066 56.1169C702.102 56.1169 699.781 53.8426 699.781 50.9415C699.781 48.0403 702.102 45.7687 705.066 45.7687ZM765.929 45.7687C768.893 45.7687 771.216 48.0403 771.216 50.9415C771.216 53.8426 768.893 56.1169 765.929 56.1169C762.965 56.1169 760.644 53.8426 760.644 50.9415C760.644 48.0403 762.965 45.7687 765.929 45.7687Z" fill="#0082C9"/>
<path d="M714.367 79.5581C716.474 79.5581 717.652 81.0416 717.652 83.2669C717.652 83.4788 717.474 83.6554 717.259 83.6554H711.582C711.617 85.6335 713.01 86.7638 714.617 86.7638C715.617 86.7638 716.331 86.3399 716.688 86.0573C716.902 85.916 717.081 85.9514 717.188 86.1633L717.295 86.3399C717.402 86.5165 717.367 86.6931 717.188 86.8344C716.76 87.1523 715.831 87.6821 714.581 87.6821C712.26 87.6821 710.475 86.022 710.475 83.6201C710.511 81.0769 712.225 79.5581 714.367 79.5581ZM716.545 82.8783C716.474 81.2535 715.474 80.4411 714.331 80.4411C713.01 80.4411 711.867 81.2889 711.617 82.8783H716.545Z" fill="#0082C9"/>
<path d="M728.376 77.9687C728.376 77.7214 728.519 77.5801 728.768 77.5801H729.054C729.304 77.5801 729.411 77.7214 729.411 77.9687V79.8054H731.018C731.268 79.8054 731.411 79.9467 731.411 80.1939V80.2999C731.411 80.5472 731.268 80.6531 731.018 80.6531H729.411V84.5386C729.411 86.34 730.518 86.5519 731.125 86.5872C731.447 86.6226 731.554 86.6932 731.554 86.9758V87.1877C731.554 87.435 731.447 87.5409 731.125 87.5409C729.411 87.5409 728.376 86.5166 728.376 84.6798V77.9687Z" fill="#0082C9"/>
<path d="M736.553 79.5581C737.91 79.5581 738.767 80.1232 739.159 80.4411C739.338 80.5824 739.374 80.759 739.195 80.971L739.088 81.1476C738.945 81.3595 738.767 81.3595 738.552 81.2182C738.195 80.971 737.517 80.5118 736.588 80.5118C734.874 80.5118 733.517 81.7834 733.517 83.6554C733.517 85.4922 734.874 86.7638 736.588 86.7638C737.695 86.7638 738.445 86.2693 738.802 85.9514C739.017 85.8101 739.159 85.8454 739.302 86.0573L739.409 86.1986C739.517 86.4105 739.481 86.5518 739.302 86.7284C738.909 87.0463 737.945 87.7175 736.517 87.7175C734.196 87.7175 732.41 86.0573 732.41 83.6554C732.446 81.2535 734.232 79.5581 736.553 79.5581Z" fill="#0082C9"/>
<path d="M741.302 77.0502C741.302 76.803 741.159 76.6617 741.409 76.6617H741.695C741.945 76.6617 742.338 76.803 742.338 77.0502V85.4922C742.338 86.4812 742.802 86.5872 743.159 86.6225C743.337 86.6225 743.48 86.7285 743.48 86.9757V87.223C743.48 87.4703 743.373 87.6115 743.087 87.6115C742.445 87.6115 741.302 87.3996 741.302 85.7042V77.0502Z" fill="#0082C9"/>
<path d="M748.622 79.5581C750.908 79.5581 752.765 81.2889 752.765 83.5848C752.765 85.916 750.908 87.6821 748.622 87.6821C746.337 87.6821 744.48 85.916 744.48 83.5848C744.48 81.2889 746.337 79.5581 748.622 79.5581ZM748.622 86.7638C750.301 86.7638 751.658 85.4215 751.658 83.5848C751.658 81.8187 750.301 80.5118 748.622 80.5118C746.944 80.5118 745.552 81.854 745.552 83.5848C745.587 85.3862 746.944 86.7638 748.622 86.7638Z" fill="#0082C9"/>
<path d="M766.441 79.5582C768.333 79.5582 769.012 81.1124 769.012 81.1124H769.047C769.047 81.1124 769.012 80.8651 769.012 80.5119V77.015C769.012 76.7678 768.905 76.6265 769.155 76.6265H769.44C769.69 76.6265 770.083 76.7678 770.083 77.015V87.0818C770.083 87.3291 769.976 87.4704 769.726 87.4704H769.476C769.226 87.4704 769.083 87.3644 769.083 87.1171V86.5167C769.083 86.2341 769.155 86.0221 769.155 86.0221H769.119C769.119 86.0221 768.44 87.647 766.405 87.647C764.298 87.647 762.977 85.9868 762.977 83.5849C762.906 81.183 764.37 79.5582 766.441 79.5582ZM766.476 86.7639C767.798 86.7639 769.012 85.8455 769.012 83.6203C769.012 82.0308 768.19 80.5119 766.512 80.5119C765.119 80.5119 763.977 81.6422 763.977 83.6203C764.013 85.5276 765.012 86.7639 766.476 86.7639Z" fill="#0082C9"/>
<path d="M701.273 87.5056H701.558C701.808 87.5056 701.951 87.3643 701.951 87.117V79.5326C701.951 78.3316 703.272 77.4741 704.772 77.4741C706.272 77.4741 707.593 78.3316 707.593 79.5326V87.117C707.593 87.3643 707.736 87.5056 707.986 87.5056H708.272C708.521 87.5056 708.629 87.3643 708.629 87.117V79.4875C708.629 77.4741 706.593 76.4851 704.736 76.4851C702.951 76.4851 700.916 77.4741 700.916 79.4875V87.117C700.916 87.3643 701.023 87.5056 701.273 87.5056Z" fill="#0082C9"/>
<path d="M760.87 79.7347H760.585C760.335 79.7347 760.192 79.876 760.192 80.1232V84.3972C760.192 85.5981 759.406 86.6931 757.871 86.6931C756.371 86.6931 755.55 85.5981 755.55 84.3972V80.1232C755.55 79.876 755.407 79.7347 755.157 79.7347H754.871C754.621 79.7347 754.514 79.876 754.514 80.1232V84.6798C754.514 86.6931 756.014 87.6822 757.871 87.6822C759.728 87.6822 761.227 86.6931 761.227 84.6798V80.1232C761.263 79.876 761.12 79.7347 760.87 79.7347Z" fill="#0082C9"/>
<path d="M725.522 79.6768C725.434 79.6906 725.35 79.7484 725.27 79.8431L722.743 82.822L720.217 79.8431C720.137 79.7484 720.046 79.6966 719.951 79.6885C719.857 79.6805 719.759 79.716 719.663 79.7955L719.444 79.9769C719.253 80.1358 719.263 80.3118 719.423 80.5012L722.068 83.6181L720.313 85.6871C720.311 85.6886 720.31 85.6903 720.309 85.6919L719.423 86.7357C719.263 86.9251 719.281 87.1245 719.472 87.2835L719.691 87.4642C719.883 87.6231 720.056 87.5832 720.217 87.3938L722.744 84.4149L724.381 86.3459C724.382 86.3472 724.384 86.3481 724.385 86.3494L725.271 87.3938C725.431 87.5833 725.632 87.6004 725.824 87.4414L726.043 87.26C726.234 87.1011 726.224 86.9251 726.064 86.7357L723.419 83.6188L725.174 81.5498C725.176 81.5483 725.177 81.5466 725.178 81.545L726.064 80.5012C726.224 80.3118 726.206 80.1124 726.015 79.9535L725.796 79.772C725.7 79.6925 725.609 79.663 725.522 79.6768Z" fill="#0082C9"/>
<path d="M918.454 87.76H920.229C924.079 87.76 926.683 84.3846 926.683 78.6314C926.683 72.7357 923.933 70.7629 920.498 70.7629H918.454V87.76ZM920.498 71.7381C923.226 71.7381 925.446 73.4708 925.446 78.7289C925.446 83.9345 923.349 86.7923 920.252 86.7923H919.668V71.7381H920.498ZM929.488 73.4258C929.903 73.4258 930.264 73.0957 930.264 72.6682C930.264 72.2631 929.903 71.8806 929.488 71.8806C929.05 71.8806 928.704 72.2631 928.704 72.6682C928.704 73.0957 929.05 73.4258 929.488 73.4258ZM928.904 75.781V87.76H930.049V75.781H928.904ZM934.405 88C936.011 88 937.402 86.9049 937.402 85.0071C937.402 81.6542 933.138 80.6566 933.138 78.0613C933.138 77.0187 933.944 76.4486 934.843 76.4486C935.696 76.4486 936.303 76.7562 936.841 77.3262L937.156 76.3061C936.749 75.9686 935.988 75.541 934.797 75.541C933.46 75.541 932.116 76.3961 932.116 78.2038C932.116 81.2492 936.334 82.4118 936.334 85.1497C936.334 86.1698 935.604 87.0999 934.382 87.0999C933.215 87.0999 932.631 86.6948 932.047 86.1923L931.801 87.1674C932.262 87.5499 933.045 88 934.405 88ZM940.499 81.5567L944.755 87.76H946L941.667 81.3467L945.708 75.781H944.609L940.499 81.4142V70.7629H939.354V87.76H940.499V81.5567Z" fill="black"/>
<path d="M866.138 87.7597V81.744L870.696 69H868.761L865.201 79.1787L862.113 70.7627H860L864.195 81.6765V87.7597H866.138Z" fill="#FF0000"/>
<path d="M874.527 85.4122C874.179 85.9297 873.521 86.3573 872.856 86.3573C871.873 86.3573 871.408 85.4572 871.408 84.077C871.408 82.5318 871.927 81.5117 874.303 81.5117H874.527V85.4122ZM876.416 85.0521V79.419C876.416 76.5161 875.209 75.616 873.026 75.616C871.78 75.616 870.65 76.1111 870.085 76.5611L870.449 78.2038C871.091 77.6563 871.927 77.1612 872.902 77.1612C873.986 77.1612 874.527 77.8213 874.527 79.3965V80.1091H874.257C870.797 80.1091 869.442 81.7217 869.442 84.2945C869.442 86.6498 870.65 87.9325 872.414 87.9325C873.498 87.9325 874.179 87.4749 874.721 86.8148H874.845C874.868 87.1224 874.945 87.5049 875.015 87.76H876.633C876.54 87.1899 876.416 86.1923 876.416 85.0521ZM880.711 78.4664C881.153 77.8738 881.834 77.2812 882.646 77.2812C883.382 77.2812 883.8 77.5888 883.8 78.4889V87.76H885.735V78.3238C885.735 76.4936 884.875 75.616 883.258 75.616C882.105 75.616 881.176 76.3511 880.828 76.8012H880.711V75.7585H878.792V87.76H880.711V78.4664ZM891.377 87.9325C892.383 87.9325 893.072 87.4749 893.614 86.8148H893.737L893.885 87.76H895.309V70.7629H893.389V76.0661C893.025 75.8035 892.414 75.616 891.826 75.616C889.341 75.616 887.623 77.7763 887.623 82.2243C887.623 85.9297 888.954 87.9325 891.377 87.9325ZM893.389 85.4347C893.072 85.9072 892.561 86.3573 891.601 86.3573C890.2 86.3573 889.666 84.6471 889.666 81.8418C889.666 79.3965 890.402 77.1387 891.942 77.1387C892.584 77.1387 893.002 77.3262 893.389 77.7088V85.4347ZM904.31 86.9574L903.869 85.5322C903.381 85.8622 902.592 86.3348 901.516 86.3348C899.991 86.3348 899.209 84.9096 899.209 82.2018H904.356V81.1742C904.356 77.1087 903.01 75.616 900.951 75.616C898.327 75.616 897.22 78.4214 897.22 82.2693C897.22 85.9597 898.792 87.9325 901.338 87.9325C902.569 87.9325 903.528 87.5499 904.31 86.9574ZM900.951 77.1387C902.05 77.1387 902.398 78.6314 902.398 80.6791H899.233C899.357 78.5414 899.774 77.1387 900.951 77.1387ZM910.811 75.781L909.116 80.1316L907.522 75.781H905.541L907.87 81.5567L905.293 87.76H907.181L909.047 82.8169L910.958 87.76H912.948L910.37 81.3917L912.677 75.781H910.811Z" fill="black"/>
<path d="M926.624 38.8916C924.909 35.1757 919.733 34.6021 913.898 34.815C909.427 34.9796 905.726 31.0947 897.911 34.7228C890.095 38.3504 890.656 43.6916 887.638 47.0043C883.699 51.3261 880.788 55.6541 882.503 59.37L926.624 38.8916Z" fill="black"/>
<path d="M926.624 38.8914C924.882 35.1157 913.199 35.7917 901.015 41.4465C888.831 47.0995 880.715 55.4992 882.502 59.3699C884.692 64.1118 896.859 64.4866 909.043 58.8318C921.226 53.1779 928.815 43.6373 926.624 38.8914Z" fill="#0077FF"/>
<path d="M916.75 47.8372C915.833 45.8473 910.375 46.4231 904.56 49.1236C898.745 51.8219 894.776 55.6216 895.693 57.6089C896.611 59.597 902.069 59.0226 907.884 56.3234C913.699 53.6242 917.669 49.824 916.75 47.8372Z" fill="white"/>
<path d="M55.0326 31.0084L55.067 31.0076L55.0701 31.0471L55.0264 31.0487L55.0326 31.0084Z" fill="#0BA25E"/>
<path d="M54.9087 31.2579C54.937 31.2161 54.992 31.1326 55.0202 31.0908L55.0709 31.0826C55.1085 31.5556 55.2432 32.0115 55.3445 32.4719C55.7803 34.4723 56.2204 36.4712 56.6786 38.4656C56.979 39.8333 57.3141 41.1942 57.5892 42.5671C57.828 43.417 57.9561 44.2937 58.1871 45.145C58.3362 45.9389 58.57 46.7134 58.6952 47.5118C58.6445 47.5991 58.5939 47.6871 58.5425 47.7744C58.5302 47.7945 58.5041 47.8363 58.4918 47.8572L58.473 47.8908C58.4701 47.8968 58.4636 47.9095 58.4599 47.9154C58.4317 47.9691 58.3753 48.0758 58.347 48.1288C58.342 48.1385 58.3311 48.1579 58.3253 48.1676L58.2739 48.2616C58.2674 48.2728 58.2551 48.2945 58.2493 48.3056L58.1892 48.4138C58.1863 48.4198 58.1798 48.4317 58.1762 48.4377L58.1016 48.572C58.0951 48.5832 58.0821 48.6071 58.0756 48.619C58.0683 48.6317 58.0539 48.6563 58.0466 48.669L57.9735 48.7988C57.9677 48.8085 57.9561 48.8294 57.9504 48.8391L57.9055 48.9175C57.8982 48.9309 57.8823 48.9585 57.8751 48.972C57.8461 49.0234 57.7889 49.1264 57.76 49.1786C57.7549 49.1876 57.7441 49.2062 57.739 49.2159L57.6934 49.2943C57.6862 49.3085 57.6702 49.3353 57.6623 49.3495C57.6355 49.398 57.5805 49.4942 57.5537 49.5427C57.5472 49.5539 57.5349 49.5771 57.5284 49.5883L57.4741 49.689C57.469 49.6979 57.4589 49.7166 57.4538 49.7255L57.3981 49.8263C57.3923 49.8367 57.3807 49.8576 57.3749 49.8681C57.3459 49.9173 57.2895 50.0165 57.2613 50.0665C57.2547 50.0777 57.2417 50.1009 57.2352 50.1128L57.1838 50.2083C57.1787 50.2173 57.1693 50.2344 57.165 50.2434L57.1056 50.3493C57.1006 50.359 57.0897 50.3777 57.0846 50.3866C57.0542 50.4403 56.9942 50.547 56.9638 50.6008C56.9587 50.6105 56.9471 50.6299 56.9413 50.6396L56.8979 50.7134C56.8906 50.7269 56.8754 50.753 56.8682 50.7664C56.8407 50.8157 56.7864 50.9134 56.7589 50.9626C56.7546 50.9708 56.7444 50.9888 56.7401 50.997L56.6807 51.1059C56.6764 51.1141 56.6677 51.1298 56.6634 51.138L56.6026 51.2477C56.5975 51.2559 56.5874 51.2738 56.5823 51.282C56.5541 51.3312 56.4969 51.4282 56.4686 51.4775C56.4607 51.4902 56.4462 51.517 56.4382 51.5304L56.3955 51.6125C56.3897 51.623 56.3789 51.6439 56.3738 51.6536L56.2993 51.7864C56.2935 51.7976 56.2804 51.82 56.2747 51.8311C56.2681 51.8416 56.2566 51.8632 56.2508 51.8737C56.1284 52.0863 56.0177 52.3057 55.8823 52.5101C55.1114 53.8062 54.4021 55.1425 53.6558 56.4542C52.444 58.6158 51.2338 60.7773 50.0221 62.9389C49.8404 63.2754 49.6333 63.5977 49.477 63.9491C49.469 63.9611 49.4531 63.985 49.4451 63.9969C49.1549 63.5656 48.9305 63.0896 48.6648 62.6419C47.4531 60.4789 46.2407 58.3166 45.0297 56.1528C44.3565 54.9358 43.6551 53.7338 43 52.5057C45.5943 47.8908 48.177 43.2677 50.7662 38.6499C50.7683 38.6454 50.7734 38.6372 50.7756 38.6327L50.8465 38.5074C50.8494 38.5022 50.8552 38.4917 50.8588 38.4865L50.9305 38.3604C50.937 38.3492 50.95 38.3253 50.9573 38.3141C50.9645 38.3007 50.979 38.2746 50.9862 38.2612L51.0579 38.1298C51.0629 38.1209 51.0731 38.103 51.0781 38.094L51.1317 38.006C51.1411 37.9918 51.1599 37.9627 51.1693 37.9478C51.1954 37.9075 51.2482 37.8262 51.275 37.7859C51.2779 37.7724 51.283 37.7463 51.2859 37.7336L51.3489 37.609C51.3518 37.6038 51.3576 37.5934 51.3604 37.5881L51.4328 37.4628C51.4401 37.4509 51.4545 37.4255 51.4618 37.4128C51.4697 37.3986 51.4857 37.3695 51.4944 37.3546L51.5552 37.2449C51.5617 37.233 51.5747 37.2099 51.5812 37.1987L51.6319 37.1069C51.6377 37.0972 51.6493 37.0763 51.6551 37.0658C51.6833 37.0159 51.7397 36.9159 51.7687 36.8659C51.7745 36.8554 51.7861 36.8345 51.7919 36.8241L51.8447 36.7249C51.849 36.7174 51.8577 36.701 51.8621 36.6935L51.9316 36.5682C51.9402 36.5533 51.9583 36.5227 51.9678 36.5077L52.0148 36.4346C52.0249 36.4197 52.0445 36.3906 52.0546 36.3764C52.0633 36.3615 52.0814 36.3317 52.0908 36.3167L52.1299 36.2391C52.1429 36.21 52.1697 36.1518 52.1827 36.1227L52.2225 36.0653C52.2298 36.0548 52.2435 36.0347 52.2508 36.0242C52.2776 36.0011 52.3318 35.9534 52.3586 35.9295L52.3536 35.8422C52.3579 35.8317 52.368 35.8108 52.3731 35.8004L52.4346 35.6743C52.4397 35.6654 52.4498 35.6467 52.4549 35.6377L52.5092 35.5467C52.5193 35.5318 52.5389 35.5019 52.549 35.487C52.5736 35.4452 52.6236 35.3632 52.6482 35.3221C52.6554 35.3072 52.6684 35.2781 52.6757 35.2632L52.714 35.1774C52.7256 35.155 52.7502 35.1095 52.7625 35.0863L52.8103 35.0162C52.8204 35.002 52.8407 34.9737 52.8508 34.9595C52.8595 34.9446 52.8776 34.9147 52.8863 34.8998L52.9218 34.823C52.9297 34.8058 52.9464 34.7707 52.9544 34.7536L53.0166 34.6297C53.026 34.6148 53.0441 34.5835 53.0528 34.5678L53.1006 34.4947C53.1107 34.4797 53.131 34.4514 53.1411 34.4365C53.1505 34.4215 53.1686 34.3909 53.1773 34.376L53.2142 34.2984C53.2251 34.2768 53.2461 34.2343 53.2562 34.2126L53.3054 34.1291C53.3141 34.1149 53.3315 34.0865 53.3409 34.0723C53.367 34.0306 53.4198 33.947 53.4466 33.906C53.4495 33.8933 53.456 33.8679 53.4589 33.8552L53.5219 33.7314C53.524 33.7261 53.5298 33.7164 53.5327 33.7112L53.6051 33.5836C53.6123 33.5709 53.6261 33.5463 53.6333 33.5336C53.6406 33.5217 53.6543 33.4963 53.6616 33.4844L53.7339 33.3538C53.7368 33.3486 53.7426 33.3382 53.7455 33.3322L53.8136 33.2106C53.8172 33.2053 53.8237 33.1941 53.8266 33.1882L53.8997 33.0613C53.9062 33.0494 53.9192 33.027 53.9258 33.0151C53.933 33.0024 53.9475 32.9763 53.9547 32.9628L54.0242 32.8367C54.0285 32.8285 54.0372 32.8129 54.0416 32.8054L54.1002 32.7077C54.1096 32.6935 54.1284 32.6644 54.1371 32.6502C54.1639 32.6092 54.216 32.5271 54.2428 32.4861C54.245 32.4734 54.2508 32.448 54.2537 32.4353L54.3152 32.3137C54.3203 32.3048 54.3311 32.2861 54.3362 32.2764L54.3912 32.1876C54.4013 32.1734 54.4202 32.1443 54.4303 32.1294C54.4556 32.0876 54.5063 32.0048 54.5316 31.963C54.5352 31.9511 54.5418 31.9272 54.5454 31.9153L54.6091 31.7922C54.612 31.7862 54.6178 31.7757 54.6207 31.7698L54.6945 31.6414C54.7003 31.6302 54.7133 31.6079 54.7198 31.5967C54.7263 31.584 54.7394 31.5601 54.7459 31.5482L54.8183 31.4154C54.8219 31.4101 54.8277 31.3989 54.8306 31.3937L54.8993 31.2736C54.9015 31.2699 54.9066 31.2617 54.9087 31.2579Z" fill="#0BA25E"/>
<path d="M55.027 31.0471L55.0708 31.0455L55.0747 31.0818L55.02 31.0907L55.027 31.0471Z" fill="#089156"/>
<path d="M55.0709 31.0768C55.2251 31.2827 55.3394 31.5155 55.4654 31.7394C57.4769 35.3275 59.4871 38.9157 61.4943 42.5061C60.5649 44.1745 59.6282 45.8391 58.6952 47.506C58.57 46.7076 58.3362 45.9331 58.187 45.1392C57.9561 44.2879 57.828 43.4112 57.5891 42.5613C57.3141 41.1884 56.9789 39.8275 56.6785 38.4598C56.2203 36.4654 55.7802 34.4665 55.3445 32.4661C55.2431 32.0057 55.1085 31.5498 55.0709 31.0768Z" fill="#089156"/>
<path d="M52.2507 36.0206C52.276 35.9749 52.3275 35.8838 52.3536 35.8382L52.3586 35.9255C52.3318 35.9495 52.2775 35.9974 52.2507 36.0206Z" fill="#089156"/>
<path d="M55.0645 31.0074C57.4155 30.9962 59.7673 31.0059 62.1191 31.0022C64.0648 31.0097 66.0119 30.9865 67.9569 31.0134C67.9953 31.0895 68.0344 31.1649 68.0756 31.2402C68.0814 31.2499 68.0923 31.2708 68.0981 31.2813C68.2863 31.6193 68.4774 31.9558 68.6634 32.2945C68.667 32.3005 68.6728 32.3117 68.6764 32.3169C69.0369 32.9548 69.3959 33.5935 69.7499 34.2352C69.7528 34.2404 69.7593 34.2509 69.7622 34.2569C69.8266 34.371 69.8932 34.4852 69.9591 34.6001C69.9649 34.6098 69.9757 34.6299 69.9815 34.6404C70.072 34.8045 70.1632 34.9679 70.2551 35.1313C70.2587 35.1365 70.2645 35.147 70.2674 35.153C70.3594 35.3156 70.4498 35.4798 70.541 35.6439C70.5468 35.6536 70.5577 35.673 70.5635 35.6827C70.6554 35.8424 70.7445 36.0036 70.8328 36.1647C70.8386 36.1744 70.8494 36.1946 70.8552 36.2043C71.7195 37.7428 72.5816 39.2821 73.443 40.8229C73.3445 41.2698 73.5827 41.7145 73.4502 42.1637C73.3698 43.3911 72.9203 44.5856 72.1791 45.5496C71.9381 45.819 72.1719 46.1928 72.1458 46.5121C71.886 46.8367 71.5515 47.0792 71.2359 47.3411C71.2367 47.5858 71.2374 47.8306 71.2265 48.076C70.945 48.2678 70.6221 48.379 70.3362 48.564C70.3058 48.6633 70.2747 48.7632 70.245 48.864C70.0155 48.9759 69.7702 49.0483 69.5407 49.1617C68.6323 48.8931 67.7332 48.5939 66.827 48.317C65.9837 48.0298 65.1202 47.8045 64.2856 47.4881L64.2378 47.4C64.2334 47.3933 64.2262 47.3799 64.2226 47.3732L64.1538 47.2531C64.1466 47.2404 64.1321 47.215 64.1249 47.2023C64.1183 47.1911 64.1068 47.1695 64.1002 47.1583C64.0489 47.0643 64.0018 46.968 63.9598 46.8695L63.9555 46.8598L63.9504 46.8524C63.9186 46.8002 63.8541 46.6949 63.8216 46.6427C63.8179 46.6367 63.8107 46.6248 63.8071 46.6181L63.7861 46.5838C63.7738 46.5621 63.7485 46.5196 63.7362 46.498C63.705 46.4435 63.6421 46.3346 63.6109 46.2801C63.603 46.2667 63.5878 46.2391 63.5798 46.2256L63.5356 46.148C63.5299 46.1376 63.5183 46.1174 63.5125 46.107L63.4423 45.9824C63.4394 45.9772 63.4329 45.9667 63.43 45.9607L63.3561 45.8302C63.3496 45.8182 63.3366 45.7944 63.3301 45.7832C63.3228 45.7697 63.3076 45.7421 63.3004 45.7287L63.2403 45.6198C63.2331 45.6071 63.2186 45.5802 63.2114 45.5675L63.165 45.4832C63.1585 45.472 63.1462 45.4496 63.1397 45.4385C63.1115 45.3847 63.0543 45.278 63.0253 45.2243C63.0224 45.2183 63.0152 45.2057 63.0123 45.1997L62.9928 45.1646C62.979 45.1437 62.9522 45.1019 62.9385 45.0811C62.8668 44.9572 62.7995 44.8304 62.7351 44.7028C62.7315 44.6968 62.7249 44.6841 62.722 44.6781L62.7032 44.6438C62.6895 44.6237 62.662 44.5834 62.6482 44.564C62.6164 44.505 62.5527 44.3871 62.5208 44.3282C62.5172 44.3222 62.51 44.3095 62.5071 44.3028L62.4875 44.267C62.473 44.2424 62.4448 44.1939 62.4303 44.1693L62.3681 44.0611C62.3623 44.0506 62.35 44.0297 62.3435 44.0186C62.316 43.9693 62.2602 43.8701 62.232 43.8208C62.2255 43.8096 62.2132 43.7865 62.2067 43.7746C62.1574 43.6903 62.1104 43.6052 62.0641 43.5201C62.0604 43.5134 62.0525 43.5 62.0489 43.4933L61.9801 43.3717C61.9729 43.3597 61.9591 43.3358 61.9526 43.3232C61.9461 43.312 61.9338 43.2896 61.9273 43.2784L61.8541 43.1471C61.8505 43.1411 61.844 43.1284 61.8404 43.1224L61.781 43.0128C61.776 43.0038 61.7666 42.9866 61.7615 42.9777C61.734 42.9277 61.6783 42.8285 61.6507 42.7785C61.645 42.768 61.6334 42.7479 61.6276 42.7382C61.5827 42.6613 61.5378 42.5837 61.4944 42.5069C59.4872 38.9165 57.477 35.3283 55.4655 31.7401C55.3395 31.5163 55.2251 31.2835 55.071 31.0776L55.0673 31.044L55.0645 31.0074Z" fill="#F9C941"/>
<path d="M73.443 40.8229C74.7017 43.071 75.9684 45.3153 77.2171 47.5701C77.2229 47.5798 77.2345 47.6007 77.2402 47.6104C77.2692 47.6597 77.3271 47.7574 77.3553 47.8059C77.3611 47.8156 77.3727 47.8358 77.3785 47.8455L77.4364 47.9477C77.44 47.9544 77.4473 47.9686 77.4516 47.9753L77.524 48.1051C77.5312 48.1178 77.545 48.1439 77.5522 48.1566C77.5587 48.1678 77.5718 48.1909 77.5783 48.2029L77.6492 48.3297C77.6521 48.3349 77.6579 48.3454 77.6608 48.3506L77.7317 48.4759C77.7346 48.4812 77.7404 48.4909 77.7433 48.4961L77.8143 48.6229C77.8215 48.6356 77.8352 48.6602 77.8425 48.6729C77.849 48.6856 77.8628 48.7102 77.8693 48.7222L77.9424 48.855C77.9525 48.8811 77.9728 48.9318 77.9829 48.9572L78.0032 48.9982L78.0126 49.0199L78.0285 49.0415L78.0712 49.1079C78.0864 49.1325 78.1161 49.1818 78.1313 49.2064C78.14 49.2213 78.1588 49.2512 78.1675 49.2661L78.2153 49.3444C78.2297 49.378 78.2587 49.4459 78.2732 49.4795L78.2949 49.5198L78.3029 49.5355L78.3094 49.5452C78.3412 49.5937 78.4042 49.6914 78.436 49.7399C78.444 49.7533 78.4599 49.7802 78.4686 49.7936L78.512 49.8682C78.5186 49.8802 78.5316 49.9033 78.5381 49.9145L78.6112 50.0466C78.6177 50.0585 78.6308 50.0824 78.6373 50.0943C78.6438 50.1063 78.6568 50.1294 78.6633 50.1413L78.7357 50.2689C78.7386 50.2749 78.7451 50.2861 78.7487 50.2913L78.8146 50.4107C78.819 50.4181 78.8276 50.4338 78.832 50.4413L78.8986 50.5614C78.9065 50.5748 78.9217 50.6024 78.9297 50.6159C78.9362 50.6278 78.95 50.6517 78.9565 50.6636C79.0101 50.7554 79.0614 50.8487 79.1092 50.9442C79.1165 50.9598 79.1309 50.9912 79.1375 51.0068L79.1707 51.0844C79.1794 51.0994 79.1968 51.13 79.2048 51.1449C79.2156 51.1598 79.2366 51.1881 79.2475 51.2023L79.2974 51.2754C79.3061 51.2896 79.3235 51.318 79.3329 51.3329L79.406 51.4635C79.4125 51.4754 79.4255 51.4993 79.4321 51.5112C79.4386 51.5232 79.4516 51.5463 79.4588 51.5582L79.5312 51.6866C79.5341 51.6925 79.5399 51.703 79.5428 51.7082L79.6116 51.8321C79.6145 51.8373 79.6203 51.847 79.6232 51.8522L79.6934 51.9783C79.7006 51.991 79.7151 52.0164 79.7223 52.0298C79.7296 52.0425 79.744 52.0678 79.7506 52.0805L79.8229 52.2089C79.8258 52.2141 79.8309 52.2245 79.8338 52.2298L79.9105 52.3775L79.9098 52.4446C78.0987 51.9082 76.3166 51.2717 74.5005 50.7546C72.8523 50.2062 71.1889 49.7071 69.5407 49.1617C69.7702 49.0483 70.0155 48.9759 70.245 48.864C70.2747 48.7632 70.3058 48.6633 70.3362 48.564C70.6221 48.379 70.945 48.2678 71.2265 48.076C71.2374 47.8306 71.2367 47.5858 71.2359 47.3411C71.5515 47.0792 71.886 46.8367 72.1458 46.5121C72.1719 46.1928 71.9381 45.819 72.1791 45.5496C72.9203 44.5856 73.3698 43.3911 73.4502 42.1637C73.5827 41.7145 73.3445 41.2698 73.443 40.8229Z" fill="#F9C941"/>
<path d="M79.9102 52.4456L79.9508 52.4472L79.9734 52.5078L79.9273 52.511L79.9102 52.4456Z" fill="#F9C941"/>
<path d="M78.0036 48.9989C78.0101 49.0101 78.0224 49.0319 78.0289 49.0424L78.013 49.0206L78.0036 48.9989Z" fill="#E8B835"/>
<path d="M78.2954 49.5207C78.2991 49.5274 78.3065 49.5401 78.3102 49.5461L78.3035 49.5364L78.2954 49.5207Z" fill="#E8B835"/>
<path d="M63.9507 46.8533L63.9559 46.8607L63.9603 46.8704C63.9581 46.866 63.9529 46.8578 63.9507 46.8533Z" fill="#E8B835"/>
<path d="M64.2859 47.489C65.1205 47.8054 65.984 48.0307 66.8273 48.318C67.7336 48.5948 68.6326 48.894 69.541 49.1626C71.1892 49.708 72.8526 50.2072 74.5008 50.7556C74.4762 51.119 74.5457 51.4913 74.4581 51.8479C74.3908 52.1949 73.9883 52.2494 73.8226 52.5262C71.5953 52.5269 69.3687 52.5336 67.1422 52.5239L67.0944 52.5202C66.1744 50.8339 65.2175 49.1686 64.2859 47.489Z" fill="#E8B835"/>
<path d="M74.5008 50.7556C76.317 51.2727 78.0991 51.9089 79.9102 52.4454L79.9261 52.5066C77.8928 52.5543 75.8566 52.515 73.8226 52.5262C73.9883 52.2494 74.3908 52.1949 74.4581 51.8479C74.5457 51.4913 74.4762 51.119 74.5008 50.7556Z" fill="#E8B835"/>
<path d="M79.9109 52.3795C79.9211 52.3978 79.9406 52.4346 79.9508 52.4529L79.9102 52.4513L79.9109 52.3795Z" fill="#E8B835"/>
<path d="M53.6592 56.4494C54.4055 55.1377 55.1149 53.8014 55.8858 52.5053C59.623 52.5195 63.361 52.4837 67.0975 52.5195L67.1453 52.5232C65.2553 52.5859 63.3603 52.5068 61.4703 52.5561C61.1098 52.7956 60.8695 53.1836 60.5242 53.4447C60.2036 53.6857 59.9676 54.0215 59.6614 54.2789C59.2322 54.6049 58.9129 55.0571 58.4772 55.3765C57.9734 55.9264 57.3921 56.3897 56.884 56.9366C56.5032 57.2381 56.1848 57.6104 55.8301 57.9424C55.4399 58.2342 55.141 58.6296 54.7761 58.9519C54.7667 58.9601 54.7486 58.9766 54.7392 58.9855C54.7197 59.0012 54.6813 59.034 54.6618 59.0497C54.6524 59.0579 54.635 59.0728 54.6256 59.081C54.3382 59.3101 54.1182 59.6123 53.8359 59.8473C53.8265 59.8555 53.8084 59.8712 53.7997 59.8786C53.7903 59.8869 53.7722 59.9025 53.7628 59.91C53.3509 60.2584 53.0208 60.6994 52.5887 61.024C52.1536 61.4687 51.6629 61.8507 51.2496 62.3193C50.6386 62.8371 50.1102 63.4482 49.4805 63.9443C49.6368 63.5929 49.8438 63.2706 50.0255 62.9341C51.2372 60.7725 52.4475 58.611 53.6592 56.4494Z" fill="#296AD9"/>
<path d="M49.4453 63.9971C49.4539 63.9843 49.4711 63.9588 49.4797 63.946L49.4773 63.9979L49.4453 63.9971Z" fill="#296AD9"/>
<path d="M67.1445 52.5231C69.3711 52.5328 71.5976 52.5261 73.8249 52.5254C75.8589 52.5142 77.8951 52.5537 79.9284 52.506L79.9711 52.503L80 52.5112V52.5172C77.8531 56.3426 75.7127 60.1725 73.5657 63.9987C65.5361 63.9965 57.5065 64.0062 49.4775 63.9928L49.4797 63.9443C50.1095 63.4481 50.6379 62.837 51.2488 62.3192C51.6621 61.8506 52.1529 61.4686 52.5879 61.0239C53.0201 60.6993 53.3501 60.2583 53.762 59.9099C53.7714 59.9024 53.7895 59.8868 53.7989 59.8786C53.8076 59.8711 53.8257 59.8554 53.8351 59.8472C54.1174 59.6122 54.3375 59.31 54.6248 59.0809C54.6342 59.0727 54.6516 59.0578 54.661 59.0496C54.6806 59.0339 54.7189 59.0011 54.7385 58.9854C54.7479 58.9765 54.766 58.9601 54.7754 58.9518C55.1402 58.6295 55.4392 58.2341 55.8293 57.9423C56.184 57.6103 56.5025 57.238 56.8832 56.9365C57.3914 56.3896 57.9726 55.9263 58.4764 55.3764C58.9122 55.057 59.2314 54.6049 59.6606 54.2788C59.9668 54.0214 60.2028 53.6856 60.5235 53.4446C60.8687 53.1835 61.1091 52.7955 61.4695 52.556C63.3595 52.5067 65.2545 52.5858 67.1445 52.5231Z" fill="#2A71E9"/>
<path d="M38.8885 82.4202C38.8885 84.7221 37.0801 86.4183 34.8608 86.4183C32.6414 86.4183 30.833 84.7221 30.833 82.4202C30.833 80.1022 32.6414 78.4222 34.8608 78.4222C37.0801 78.4222 38.8885 80.1022 38.8885 82.4202ZM37.1253 82.4202C37.1253 80.9818 36.0772 79.9976 34.8608 79.9976C33.6443 79.9976 32.5962 80.9818 32.5962 82.4202C32.5962 83.8443 33.6443 84.8429 34.8608 84.8429C36.0772 84.8429 37.1253 83.8425 37.1253 82.4202Z" fill="#676667"/>
<path d="M47.5775 82.4202C47.5775 84.7221 45.7691 86.4183 43.5497 86.4183C41.3304 86.4183 39.522 84.7221 39.522 82.4202C39.522 80.104 41.3304 78.4222 43.5497 78.4222C45.7691 78.4222 47.5775 80.1022 47.5775 82.4202ZM45.8143 82.4202C45.8143 80.9818 44.7662 79.9976 43.5497 79.9976C42.3332 79.9976 41.2851 80.9818 41.2851 82.4202C41.2851 83.8443 42.3332 84.8429 43.5497 84.8429C44.7662 84.8429 45.8143 83.8425 45.8143 82.4202Z" fill="#676667"/>
<path d="M55.9041 78.6637V85.8415C55.9041 88.7941 54.1554 90 52.0881 90C50.1422 90 48.9709 88.7039 48.5293 87.644L50.0643 87.0077C50.3377 87.6585 51.0074 88.4264 52.0863 88.4264C53.4096 88.4264 54.2296 87.6134 54.2296 86.083V85.508H54.1681C53.7735 85.9929 53.0132 86.4165 52.0538 86.4165C50.0462 86.4165 48.207 84.6752 48.207 82.4347C48.207 80.1779 50.0462 78.4222 52.0538 78.4222C53.0114 78.4222 53.7717 78.8458 54.1681 79.3162H54.2296V78.6655H55.9041V78.6637ZM54.3545 82.4347C54.3545 81.0269 53.4114 79.9976 52.2112 79.9976C50.9948 79.9976 49.9756 81.0269 49.9756 82.4347C49.9756 83.828 50.9948 84.8429 52.2112 84.8429C53.4114 84.8429 54.3545 83.828 54.3545 82.4347Z" fill="#676667"/>
<path d="M58.665 74.4574V86.174H56.9453V74.4574H58.665Z" fill="#676667"/>
<path d="M65.3663 83.7355L66.7349 84.644C66.2932 85.2947 65.2288 86.4159 63.3896 86.4159C61.1087 86.4159 59.4053 84.6602 59.4053 82.4179C59.4053 80.0403 61.1232 78.4198 63.1923 78.4198C65.2758 78.4198 66.295 80.0709 66.6281 80.9632L66.8109 81.4174L61.4436 83.631C61.8545 84.4331 62.4935 84.8423 63.3896 84.8423C64.2874 84.8423 64.9102 84.4025 65.3663 83.7355ZM61.1539 82.2971L64.7418 80.8136C64.5445 80.3143 63.9507 79.9664 63.252 79.9664C62.3559 79.9664 61.1087 80.7541 61.1539 82.2971V82.2971Z" fill="#676667"/>
<path d="M24.3231 81.3797V79.6835H30.0633C30.1194 79.9791 30.1484 80.3288 30.1484 80.7073C30.1484 81.9799 29.799 83.5535 28.6731 84.6747C27.5779 85.8103 26.1786 86.416 24.3249 86.416C20.8891 86.416 18 83.6292 18 80.208C18 76.7867 20.8891 74 24.3249 74C26.2256 74 27.5797 74.7427 28.597 75.7106L27.3951 76.9075C26.6655 76.2262 25.6772 75.6962 24.3231 75.6962C21.8141 75.6962 19.8519 77.7097 19.8519 80.208C19.8519 82.7063 21.8141 84.7198 24.3231 84.7198C25.9505 84.7198 26.8773 84.0691 27.4711 83.4778C27.9526 82.9983 28.2694 82.3134 28.3943 81.3778L24.3231 81.3797V81.3797Z" fill="#676667"/>
<path d="M69.1353 75.955C70.1544 75.7944 71.186 75.7142 72.2193 75.7152C74.3024 75.7152 75.7885 76.1949 76.7716 77.0393C77.7547 77.8837 78.372 79.1312 78.372 80.8488C78.372 82.5663 77.7878 83.9961 76.7538 84.9724C75.7199 85.9488 73.9543 86.5101 71.7696 86.5101C70.8896 86.5153 70.0101 86.4728 69.1353 86.383V75.955ZM70.5858 85.337C71.0734 85.3864 71.5638 85.4072 72.0541 85.3994C75.1712 85.3994 76.8377 83.7634 76.8377 80.8967C76.8554 78.3947 75.3541 76.8042 72.2853 76.8042C71.7151 76.7955 71.1456 76.843 70.5858 76.9458V85.337Z" fill="#676667"/>
<path d="M80.1909 81.1702C80.1909 80.273 80.1732 79.491 80.1224 78.7929H81.4052L81.4738 80.3042H81.5221C81.8905 79.2823 82.7923 78.625 83.7729 78.625C83.9073 78.6271 84.0415 78.6383 84.1742 78.6586V79.9636C84.0066 79.9355 83.8362 79.925 83.6662 79.9324C82.6322 79.9324 81.8879 80.652 81.6999 81.6956C81.6654 81.9091 81.6484 82.1248 81.6491 82.3409V86.4117H80.1833L80.1909 81.1702Z" fill="#676667"/>
<path d="M87.3421 76.6507C87.3459 76.7662 87.3241 76.8812 87.278 76.9882C87.2319 77.0952 87.1626 77.192 87.0746 77.2722C86.9865 77.3524 86.8816 77.4144 86.7667 77.454C86.6518 77.4936 86.5293 77.5101 86.4072 77.5023C86.2889 77.5051 86.1713 77.4848 86.0617 77.4427C85.9521 77.4007 85.8528 77.3377 85.7701 77.2578C85.6874 77.1779 85.623 77.0827 85.581 76.9783C85.5389 76.8738 85.5201 76.7623 85.5257 76.6507C85.5226 76.5363 85.5442 76.4225 85.5892 76.3162C85.6342 76.2099 85.7016 76.1134 85.7875 76.0326C85.8733 75.9517 85.9757 75.8883 86.0884 75.8461C86.201 75.8039 86.3216 75.7838 86.4428 75.7871C86.563 75.7844 86.6825 75.805 86.7939 75.8476C86.9053 75.8902 87.0063 75.954 87.0906 76.0349C87.1749 76.1159 87.2407 76.2123 87.2839 76.3182C87.3272 76.4241 87.347 76.5373 87.3421 76.6507ZM85.7086 86.4117V78.7929H87.1744V86.4117H85.7086Z" fill="#676667"/>
<path d="M90.1771 78.7929L91.7598 83.0605C92.0112 83.7055 92.2283 84.3621 92.4101 85.0276H92.4609C92.6438 84.3967 92.8776 83.7682 93.1443 83.0605L94.7117 78.7929H96.2359L93.0782 86.4117H91.676L88.6097 78.7929H90.1771Z" fill="#676667"/>
<path d="M98.2809 82.8542C98.3139 84.7277 99.5638 85.493 101.047 85.493C101.813 85.5175 102.575 85.3832 103.28 85.0996L103.547 86.0903C102.693 86.4282 101.773 86.5917 100.847 86.5701C98.3622 86.5701 96.8786 85.0132 96.8786 82.7151C96.8786 80.417 98.3139 78.6202 100.664 78.6202C103.313 78.6202 103.999 80.7936 103.999 82.1945C104.004 82.4107 103.987 82.6267 103.948 82.8398L98.2809 82.8542ZM102.582 81.8635C102.597 80.9975 102.198 79.6277 100.549 79.6277C99.0481 79.6277 98.4156 80.9015 98.2987 81.8635H102.582Z" fill="#676667"/>
<g style="mix-blend-mode:luminosity">
<path fill-rule="evenodd" clip-rule="evenodd" d="M522.39 77.9559C520.034 77.9559 518.124 79.8632 518.124 82.216C518.124 84.5687 520.034 86.476 522.39 86.476C524.746 86.476 526.656 84.5687 526.656 82.216C526.656 79.8632 524.746 77.9559 522.39 77.9559ZM517.03 82.216C517.03 79.2599 519.43 76.8636 522.39 76.8636C525.35 76.8636 527.749 79.2599 527.749 82.216C527.749 85.172 525.35 87.5684 522.39 87.5684C519.43 87.5684 517.03 85.172 517.03 82.216Z" fill="#1D2D44"/>
<path fill-rule="evenodd" clip-rule="evenodd" d="M580.913 77.9555C578.557 77.9555 576.647 79.863 576.647 82.216C576.647 84.569 578.557 86.4764 580.913 86.4764C583.269 86.4764 585.179 84.569 585.179 82.216C585.179 79.863 583.269 77.9555 580.913 77.9555ZM575.553 82.216C575.553 79.2597 577.953 76.8631 580.913 76.8631C583.873 76.8631 586.273 79.2597 586.273 82.216C586.273 85.1723 583.873 87.5688 580.913 87.5688C577.953 87.5688 575.553 85.1723 575.553 82.216Z" fill="#1D2D44"/>
<path fill-rule="evenodd" clip-rule="evenodd" d="M530.156 83.9352V77.3648H531.25V83.9352C531.25 85.3378 532.389 86.4745 533.793 86.4745C535.198 86.4745 536.336 85.3378 536.336 83.9352V77.3648C536.336 77.3648 536.336 77.3648 536.883 77.3648C537.43 77.3648 537.43 77.3648 537.43 77.3648V83.9351C537.43 85.9411 535.802 87.5669 533.793 87.5669C531.785 87.5669 530.156 85.9412 530.156 83.9352Z" fill="#1D2D44"/>
<path fill-rule="evenodd" clip-rule="evenodd" d="M536.336 83.9352V77.3648H537.43V83.9351C537.43 85.3377 538.568 86.4745 539.973 86.4745C541.378 86.4745 542.516 85.3378 542.516 83.9352V77.3648C542.516 77.3648 542.516 77.3648 543.063 77.3648C543.61 77.3648 543.61 77.3648 543.61 77.3648V83.9351C543.61 85.9412 541.982 87.5669 539.973 87.5669C537.965 87.5669 536.336 85.9413 536.336 83.9352Z" fill="#1D2D44"/>
<path fill-rule="evenodd" clip-rule="evenodd" d="M570.468 83.9351V68.6249H571.561V83.9351C571.561 85.3378 572.7 86.4745 574.104 86.4745V87.5669C572.096 87.5669 570.468 85.9411 570.468 83.9351Z" fill="#1D2D44"/>
<path fill-rule="evenodd" clip-rule="evenodd" d="M551.487 77.9114C549.131 77.9114 547.221 79.8188 547.221 82.1716V87.022H546.127V82.1716C546.127 79.2155 548.527 76.819 551.487 76.819C554.448 76.819 556.847 79.2155 556.847 82.1716V87.0218C556.847 87.0218 556.847 87.022 556.3 87.022C555.753 87.022 555.753 87.022 555.753 87.0219V82.1716C555.753 79.8189 553.843 77.9114 551.487 77.9114Z" fill="#1D2D44"/>
<path fill-rule="evenodd" clip-rule="evenodd" d="M588.35 82.216V77.3648H589.444V82.216C589.444 84.5684 591.354 86.4758 593.71 86.4758C596.066 86.4758 597.977 84.5683 597.977 82.216V77.365C597.977 77.365 597.977 77.3648 598.524 77.3648C599.071 77.3648 599.071 77.3648 599.071 77.3648V82.216C599.071 85.1718 596.67 87.5682 593.71 87.5682C590.75 87.5682 588.35 85.1717 588.35 82.216Z" fill="#1D2D44"/>
<path fill-rule="evenodd" clip-rule="evenodd" d="M559.179 79.3395C559.179 74.7946 562.869 71.1105 567.42 71.1105V72.2028C563.473 72.2028 560.273 75.398 560.273 79.3395C560.273 83.281 563.473 86.4758 567.42 86.4758V87.5682C562.869 87.5682 559.179 83.8845 559.179 79.3395Z" fill="#1D2D44"/>
<path fill-rule="evenodd" clip-rule="evenodd" d="M610.944 68.6249H612.037V77.4014H610.944V68.6249Z" fill="#1D2D44"/>
<path fill-rule="evenodd" clip-rule="evenodd" d="M612.037 77.3981L611.49 77.4015C612.037 77.3981 612.037 77.3981 612.037 77.3981V77.3984L612.038 77.6114C612.039 77.7482 612.04 77.9454 612.041 78.1873C612.044 78.671 612.047 79.3331 612.048 80.0469C612.052 81.4719 612.052 83.1108 612.037 83.9427C612.019 84.9536 611.489 85.8571 610.806 86.4941C610.126 87.1274 609.221 87.5656 608.349 87.5656H606.632C603.672 87.5656 601.272 85.1691 601.272 82.2134C601.272 79.2574 603.672 76.8609 606.632 76.8607C606.632 76.8607 606.632 76.8607 606.632 76.8607L612.034 76.8547L612.037 77.3981ZM610.946 77.9483L606.632 77.9531C604.276 77.9531 602.366 79.8606 602.366 82.2134C602.366 84.5657 604.276 86.4732 606.632 86.4732H608.349C608.875 86.4732 609.526 86.193 610.06 85.6955C610.589 85.2017 610.932 84.5618 610.943 83.9228C610.958 83.1045 610.958 81.4778 610.955 80.0498C610.953 79.337 610.95 78.6757 610.948 78.1926C610.947 78.105 610.947 78.0233 610.946 77.9483Z" fill="#1D2D44"/>
<path d="M576.944 50.3925C573.135 50.3925 569.731 52.1438 567.482 54.8912C566.65 53.6086 566.167 52.0758 566.167 50.4293C566.167 45.9183 569.796 42.2614 574.272 42.2614C578.748 42.2614 582.377 45.9183 582.377 50.4293C582.377 50.8358 582.347 51.2353 582.291 51.6259C580.675 50.8357 578.861 50.3925 576.944 50.3925Z" fill="#1D2D44"/>
<path d="M583.301 52.1808C583.926 52.5632 584.514 53.0004 585.059 53.4856C585.967 54.2943 586.755 55.2366 587.394 56.2819C588.548 55.7646 589.819 55.4643 591.155 55.4324C590.523 51.6052 587.251 48.6778 583.289 48.6157C583.404 49.2022 583.465 49.8086 583.465 50.4293C583.465 51.0281 583.409 51.6136 583.301 52.1808Z" fill="#1D2D44"/>
<path d="M566.793 55.818C565.915 54.5821 565.33 53.1195 565.143 51.534C564.965 51.5369 564.789 51.5452 564.613 51.5587C563.773 51.6234 562.966 51.8075 562.209 52.0942C561.66 52.3021 561.137 52.5639 560.647 52.8733C559.367 53.6809 558.309 54.8125 557.586 56.154C557.327 56.6339 557.111 57.1406 556.944 57.669C556.674 58.5183 556.528 59.4235 556.528 60.3631C556.528 63.0215 557.694 65.4056 559.538 67.0244C560.335 65.252 561.996 63.9579 563.979 63.6871C564.22 63.6541 564.466 63.6363 564.715 63.6347C564.695 63.3417 564.684 63.046 564.684 62.7478C564.684 60.1795 565.462 57.7942 566.793 55.818Z" fill="#1D2D44"/>
<path d="M564.842 64.732C564.813 64.7314 564.784 64.7312 564.754 64.7312C564.563 64.7312 564.373 64.7429 564.188 64.7657C562.468 64.977 561.038 66.1379 560.432 67.7125C560.295 68.0675 560.2 68.4436 560.153 68.8345C560.131 69.0207 560.119 69.2103 560.119 69.4026C560.119 70.4829 560.483 71.4775 561.094 72.2688C561.942 73.3673 563.266 74.074 564.754 74.074C566.412 74.074 567.866 73.1972 568.686 71.8787C566.686 70.0412 565.292 67.5457 564.842 64.732Z" fill="#1D2D44"/>
<path d="M566.075 46.2307C565.521 45.9796 564.907 45.84 564.261 45.84C561.817 45.84 559.836 47.8365 559.836 50.2993C559.836 50.8653 559.941 51.4067 560.131 51.9049C561.576 51.0083 563.267 50.4769 565.079 50.4384L565.079 50.4293C565.079 48.9179 565.438 47.4911 566.075 46.2307Z" fill="#1D2D44"/>
<path d="M598.231 72.5023C600.088 70.6968 601.244 68.1626 601.244 65.3565C601.244 64.9931 601.224 64.6343 601.187 64.281C601.206 64.2808 601.225 64.2807 601.244 64.2807C603.805 64.2807 605.88 66.3722 605.88 68.9523C605.88 71.5324 603.805 73.624 601.244 73.624C600.094 73.624 599.041 73.2016 598.231 72.5023Z" fill="#1D2D44"/>
<path d="M585.593 71.5049C585.511 71.5864 585.429 71.6668 585.345 71.746C586.918 73.2582 589.048 74.1868 591.393 74.1868C596.232 74.1868 600.155 70.2333 600.155 65.3565C600.155 60.4796 596.232 56.5262 591.393 56.5262C590.161 56.5262 588.988 56.7825 587.925 57.2451C588.744 58.9021 589.205 60.7707 589.205 62.7478C589.205 66.1594 587.832 69.248 585.614 71.4836C585.607 71.4907 585.6 71.4978 585.593 71.5049Z" fill="#1D2D44"/>
<path d="M555.816 57.6367C551.493 57.8114 548.042 61.3986 548.042 65.7982C548.042 70.3093 551.67 73.9663 556.147 73.9663C557.618 73.9663 558.998 73.5711 560.188 72.8803C559.462 71.9134 559.031 70.7087 559.031 69.4026C559.031 68.969 559.078 68.5466 559.168 68.1403C556.897 66.3218 555.44 63.5139 555.44 60.3631C555.44 59.4176 555.571 58.503 555.816 57.6367Z" fill="#1D2D44"/>
<path d="M588.117 62.7478C588.117 68.9653 583.114 74.0054 576.944 74.0054C570.774 74.0054 565.773 68.9653 565.773 62.7478C565.773 56.5297 570.775 51.4891 576.944 51.4891C583.114 51.4891 588.117 56.5297 588.117 62.7478Z" fill="#1D2D44"/>
</g>
</svg>
