<svg width="100" height="100" viewBox="0 0 100 100" fill="none" xmlns="http://www.w3.org/2000/svg">
<path d="M48 82.5059L47.9967 82.5059L90 82.0038L90.0001 82.5038L89.9987 82.5038L72.709 82.5059L67.8558 87.4206L67.8539 87.4224C67.0273 88.2506 65.9835 88.6598 65.0719 88.4431C64.6081 88.3328 64.2032 88.0627 63.9207 87.6416C63.6418 87.2259 63.5 86.6908 63.5 86.0673L63.5 86.0624L63.5 86.0576L63.5 86.0527L63.5 86.0478L63.5 86.043L63.5 86.0381L63.5 86.0332L63.5 86.0283L63.5 86.0234L63.5 86.0185L63.5 86.0135L63.5 86.0086L63.5 86.0036L63.5 85.9987L63.5 85.9937L63.5 85.9887L63.5 85.9837L63.5 85.9788L63.5 85.9738L63.5 85.9687L63.5 85.9637L63.5 85.9587L63.5 85.9537L63.5 85.9486L63.5 85.9436L63.5 85.9385L63.5 85.9334L63.5 85.9283L63.5 85.9233L63.5 85.9182L63.5 85.9131L63.5 85.9079L63.5 85.9028L63.5 85.8977L63.5 85.8926L63.5 85.8874L63.5 85.8822L63.5 85.8771L63.5 85.8719L63.5 85.8667L63.5 85.8615L63.5 85.8563L63.5 85.8511L63.5 85.8459L63.5 85.8407L63.5 85.8355L63.5 85.8302L63.5 85.825L63.5 85.8197L63.5 85.8145L63.5 85.8092L63.5 85.8039L63.5 85.7987L63.5 85.7934L63.5 85.7881L63.5 85.7828L63.5 85.7774L63.5 85.7721L63.5 85.7668L63.5 85.7614L63.5 85.7561L63.5 85.7507L63.5 85.7454L63.5 85.74L63.5 85.7346L63.5 85.7293L63.5 85.7239L63.5 85.7185L63.5 85.7131L63.5 85.7076L63.5 85.7022L63.5 85.6968L63.5 85.6914L63.5 85.6859L63.5 85.6805L63.5 85.675L63.5 85.6696L63.5 85.6641L63.5 85.6586L63.5 85.6531L63.5 85.6476L63.5 85.6421L63.5 85.6366L63.5 85.6311L63.5 85.6256L63.5 85.6201L63.5 85.6145L63.5 85.609L63.5 85.6034L63.5 85.5979L63.5 85.5923L63.5 85.5868L63.5 85.5812L63.5 85.5756L63.5 85.57L63.5 85.5644L63.5 85.5588L63.5 85.5532L63.5 85.5476L63.5 85.542L63.5 85.5363L63.5 85.5307L63.5 85.5251L63.5 85.5194L63.5 85.5138L63.5 85.5081L63.5 85.5024L63.5 85.4968L63.5 85.4911L63.5 85.4854L63.5 85.4797L63.5 85.474L63.5 85.4683L63.5 85.4626L63.5 85.4569L63.5 85.4512L63.5 85.4455L63.5 85.4397L63.5 85.434L63.5 85.4282L63.5 85.4225L63.5 85.4167L63.5 85.411L63.5 85.4052L63.5 85.3994L63.5 85.3936L63.5 85.3879L63.5 85.3821L63.5 85.3763L63.5 85.3705L63.5 85.3647L63.5 85.3588L63.5 85.353L63.5 85.3472L63.5 85.3414L63.5 85.3355L63.5 85.3297L63.5 85.3239L63.5 85.318L63.5 85.3121L63.5 85.3063L63.5 85.3004L63.5 85.2945L63.5 85.2887L63.5 85.2828L63.5 85.2769L63.5 85.271L63.5 85.2651L63.5 85.2592L63.5 85.2533L63.5 85.2474L63.5 85.2414L63.5 85.2355L63.5 85.2296L63.5 85.2237L63.5 85.2177L63.5 85.2118L63.5 85.2058L63.5 85.1999L63.5 85.1939L63.5 85.1879L63.5 85.182L63.5 85.176L63.5 85.17L63.5 85.164L63.5 85.1581L63.5 85.1521L63.5 85.1461L63.5 85.1401L63.5 85.1341L63.5 85.1281L63.5 85.122L63.5 85.116L63.5 85.11L63.5 85.104L63.5 85.0979L63.5 85.0919L63.5 85.0859L63.5 85.0798L63.5 85.0738L63.5 85.0677L63.5 85.0617L63.5 85.0556L63.5 85.0495L63.5 85.0435L63.5 85.0374L63.5 85.0313L63.5 85.0252L63.5 85.0192L63.5 85.0131L63.5 85.007L63.5 85.0009L63.5 84.9948L63.5 84.9887L63.5 84.9826L63.5 84.9765L63.5 84.9703L63.5 84.9642L63.5 84.9581L63.5 84.952L63.5 84.9458L63.5 84.9397L63.5 84.9336L63.5 84.9274L63.5 84.9213L63.5 84.9151L63.5 84.909L63.5 84.9028L63.5 84.8967L63.5 84.8905L63.5 84.8843L63.5 84.8782L63.5 84.872L63.5 84.8658L63.5 84.8597L63.5 84.8535L63.5 84.8473L63.5 84.8411L63.5 84.8349L63.5 84.8287L63.5 84.8225L63.5 84.8163L63.5 84.8101L63.5 84.8039L63.5 84.7977L63.5 84.7915L63.5 84.7853L63.5 84.7791L63.5 84.7728L63.5 84.7666L63.5 84.7604L63.5 84.7542L63.5 84.7479L63.5 84.7417L63.5 84.7355L63.5 84.7292L63.5 84.723L63.5 84.7167L63.5 84.7105L63.5 84.7042L63.5 84.698L63.5 84.6917L63.5 84.6855L63.5 84.6792L63.5 84.673L63.5 84.6667L63.5 84.6604L63.5 84.6542L63.5 84.6479L63.5 84.6416L63.5 84.6353L63.5 84.6291L63.5 84.6228L63.5 84.6165L63.5 84.6102L63.5 84.6039L63.5 84.5976L63.5 84.5914L63.5 84.5851L63.5 84.5788L63.5 84.5725L63.5 84.5662L63.5 84.5599L63.5 84.5536L63.5 84.5473L63.5 84.541L63.5 84.5347L63.5 84.5284L63.5 84.522L63.5 84.5157L63.5 84.5094L63.5 84.5031L63.5 84.4968L63.5 84.4905L63.5 84.4842L63.5 84.4778L63.5 84.4715L63.5 84.4652L63.5 84.4589L63.5 84.4525L63.5 84.4462L63.5 84.4399L63.5 84.4336L63.5 84.4272L63.5 84.4209L63.5 84.4145L63.5 84.4082L63.5 84.4019L63.5 84.3955L63.5 84.3892L63.5 84.3829L63.5 84.3765L63.5 84.3702L63.5 84.3638L63.5 84.3575L63.5 84.3512L63.5 84.3448L63.5 84.3385L63.5 84.3321L63.5 84.3258L63.5 84.3194L63.5 84.3131L63.5 84.3067L63.5 84.3004L63.5 84.294L63.5 84.2877L63.5 84.2813L63.5 84.275L63.5 84.2686L63.5 84.2623L63.5 84.2559L63.5 84.2495L63.5 84.2432L63.5 84.2368L63.5 84.2305L63.5 84.2241L63.5 84.2178L63.5 84.2114L63.5 84.205L63.5 84.1987L63.5 84.1923L63.5 84.186L63.5 84.1796L63.5 84.1733L63.5 84.1669L63.5 84.1605L63.5 84.1542L63.5 84.1478L63.5 84.1415L63.5 84.1351L63.5 84.1287L63.5 84.1224L63.5 84.116L63.5 84.1097L63.5 84.1033L63.5 84.097L63.5 84.0906L63.5 84.0842L63.5 84.0779L63.5 84.0715L63.5 84.0652L63.5 84.0588L63.5 84.0525L63.5 84.0461L63.5 84.0398L63.5 84.0334L63.5 84.027L63.5 84.0207L63.5 84.0143L63.5 84.008L63.5 84.0016L63.5 83.9953L63.5 83.9889L63.5 83.9826L63.5 83.9762L63.5 83.9699L63.5 83.9636L63.5 83.9572L63.5 83.9509L63.5 83.9445L63.5 83.9382L63.5 83.9318L63.5 83.9255L63.5 83.9192L63.5 83.9128L63.5 83.9065L63.5 83.9001L63.5 83.8938L63.5 83.8875L63.5 83.8811L63.5 83.8748L63.5 83.8685L63.5 83.8621L63.5 83.8558L63.5 83.8495L63.5 83.8432L63.5 83.8368L63.5 83.8305L63.5 83.8242L63.5 83.8179L63.5 83.8116L63.5 83.8053L63.5 83.7989L63.5 83.7926L63.5 83.7863L63.5 83.78L63.5 83.7737L63.5 83.7674L63.5 83.7611L63.5 83.7548L63.5 83.7485L63.5 83.7422L63.5 83.7359L63.5 83.7296L63.5 83.7233L63.5 83.717L63.5 83.7107L63.5 83.7044L63.5 83.6981L63.5 83.6919L63.5 83.6856L63.5 83.6793L63.5 83.673L63.5 83.6667L63.5 83.6605L63.5 83.6542L63.5 83.6479L63.5 83.6417L63.5 83.6354L63.5 83.6291L63.5 83.6229L63.5 83.6166L63.5 83.6104L63.5 83.6041L63.5 83.5979L63.5 83.5916L63.5 83.5854L63.5 83.5791L63.5 83.5729L63.5 83.5667L63.5 83.5604L63.5 83.5542L63.5 83.548L63.5 83.5417L63.5 83.5355L63.5 83.5293L63.5 83.5231L63.5 83.5169L63.5 83.5106L63.5 83.5044L63.5 83.4982L63.5 83.492L63.5 83.4858L63.5 83.4796L63.5 83.4734L63.5 83.4672L63.5 83.4611L63.5 83.4549L63.5 83.4487L63.5 83.4425L63.5 83.4363L63.5 83.4302L63.5 83.424L63.5 83.4178L63.5 83.4117L63.5 83.4055L63.5 83.3994L63.5 83.3932L63.5 83.3871L63.5 83.3809L63.5 83.3748L63.5 83.3686L63.5 83.3625L63.5 83.3564L63.5 83.3502L63.5 83.3441L63.5 83.338L63.5 83.3319L63.5 83.3258L63.5 83.3197L63.5 83.3136L63.5 83.3075L63.5 83.3014L63.5 83.2953L63.5 83.2892L63.5 83.2831L63.5 83.277L63.5 83.2709L63.5 83.2649L63.5 83.2588L63.5 83.2527L63.5 83.2467L63.5 83.2406L63.5 83.2346L63.5 83.2285L63.5 83.2225L63.5 83.2164L63.5 83.2104L63.5 83.2044L63.5 83.1983L63.5 83.1923L63.5 83.1863L63.5 83.1803L63.5 83.1743L63.5 83.1683L63.5 83.1623L63.5 83.1563L63.5 83.1503L63.5 83.1443L63.5 83.1383L63.5 83.1323L63.5 83.1263L63.5 83.1204L63.5 83.1144L63.5 83.1085L63.5 83.1025L63.5 83.0966L63.5 83.0906L63.5 83.0847L63.5 83.0787L63.5 83.0728L63.5 83.0669L63.5 83.061L63.5 83.055L63.5 83.0491L63.5 83.0432L63.5 83.0373L63.5 83.0314L63.5 83.0256L63.5 83.0197L63.5 83.0138L63.5 83.0079C63.5 82.9197 63.451 82.7899 63.3336 82.6723C63.2162 82.5546 63.087 82.5059 63 82.5059L48 82.5059Z" fill="white" fill-opacity="0.6" stroke="#333333"/>
<path fill-rule="evenodd" clip-rule="evenodd" d="M56 64C56 63.4478 56.4416 63 57 63H83C83.5584 63 84 63.4478 84 64C84 64.5522 83.5584 65 83 65H57C56.4416 65 56 64.5522 56 64Z" fill="#333333"/>
<path fill-rule="evenodd" clip-rule="evenodd" d="M56 69.5C56 69.2239 56.2183 69 56.4875 69H73.5125C73.7817 69 74 69.2239 74 69.5C74 69.7761 73.7817 70 73.5125 70H56.4875C56.2183 70 56 69.7761 56 69.5Z" fill="#333333"/>
<path d="M8 17C8 15.4737 9.56002 14 11 14L53.3927 14C54.8327 14 56 15.2373 56 16.7635L56 41C56 42.5196 54.4337 43.9906 53 44L38 44C36.6758 44.0087 37.0954 46.4545 37.0275 47.8562C36.9113 50.2543 35.2793 50.7082 33.817 48.8742L29.6089 44.938C29.1104 44.3129 28.7722 43.9957 28 44L11 44C9.55473 44.008 8.00001 42.5319 8.00001 41L8 17Z" fill="#E07751"/>
<path fill-rule="evenodd" clip-rule="evenodd" d="M28.8919 44.6587L28.8613 44.6207C28.5491 44.2336 28.0996 44.0224 27.6388 44.0249L10.6227 44.0249C8.58878 44.036 7 42.3225 7 40.2885L7.00011 17C7.00011 14.9665 8.98041 13 11 13L53 13C55.0262 13 57 14.9734 57 17L57 40.2721C57 42.289 55.4374 43.9938 53.4217 44.0084L53 44L38.0003 44.0084L37.9503 46.4321C37.9503 46.8766 37.9706 47.5982 37.9503 48.0135C37.8853 49.3404 37.6168 50.5483 36.3897 50.9169C35.2083 51.2719 34.0672 50.4343 33.2537 49.4436L28.8919 44.6587ZM33.9965 48.7686C35.4573 50.5798 36.8319 50.2054 36.9479 47.8371C36.9655 47.4798 36.998 44.0783 36.998 44.0783C36.998 44.0783 36.998 43.0416 38.0003 43.0416L53 43.0013C54.4322 42.992 56.001 41.5007 56.001 40L56 17C56 15.4927 54.7848 14.0072 53.3462 14.0072L11 14C9.56146 14 7.99911 15.4927 7.99911 17L7.999 40.2885C7.999 41.8014 9.17346 43.0256 10.6173 43.0177L27.6333 43.0177C28.4048 43.0135 29.1384 43.3679 29.6364 43.9853L33.9965 48.7686Z" fill="#333333"/>
<path fill-rule="evenodd" clip-rule="evenodd" d="M16.9902 24.9983C16.9902 24.4496 17.443 24.0049 18.0015 24.0049H44.0005C44.559 24.0049 44.9957 24.4496 44.9957 24.9983C44.9957 25.5469 44.559 26 44.0005 26H18.0015C17.443 26 16.9902 25.5469 16.9902 24.9983Z" fill="#333333"/>
<path fill-rule="evenodd" clip-rule="evenodd" d="M16.9902 24.9983C16.9902 24.4496 17.443 24.0049 18.0015 24.0049H44.0005C44.559 24.0049 44.9957 24.4496 44.9957 24.9983C44.9957 25.5469 44.559 26 44.0005 26H18.0015C17.443 26 16.9902 25.5469 16.9902 24.9983Z" fill="white" fill-opacity="0.88"/>
<path fill-rule="evenodd" clip-rule="evenodd" d="M17.5001 31C17.224 31 17.0001 30.6718 17.0001 30.3957C17 30.1195 17.2239 30 17.5 30H34.5C34.7761 30 35 30.2239 35 30.5C35 30.7761 34.7761 31 34.5 31H17.5001Z" fill="#333333"/>
<path fill-rule="evenodd" clip-rule="evenodd" d="M17.5001 31C17.224 31 17.0001 30.6718 17.0001 30.3957C17 30.1195 17.2239 30 17.5 30H34.5C34.7761 30 35 30.2239 35 30.5C35 30.7761 34.7761 31 34.5 31H17.5001Z" fill="white" fill-opacity="0.88"/>
</svg>
