<svg width="100" height="100" viewBox="0 0 100 100" fill="none" xmlns="http://www.w3.org/2000/svg">
<path d="M93 54.7872C93 53.2479 91.8191 52 90.3791 52L47.6073 52C46.1673 52 45 53.2479 45 54.7872L45 79C45 80.5326 46.5663 81.9905 48 82L63 82C64.3242 82.0088 63.9725 84.4482 63.9725 85.8379C64.0887 88.2565 65.7207 88.7143 67.183 86.8645L71.3911 82.986C71.8896 82.3555 72.6239 81.9936 73.3961 81.9979L90 81.9979C91.4453 82.006 93 80.545 93 79L93 54.7872Z" fill="#CCE9FF"/>
<path fill-rule="evenodd" clip-rule="evenodd" d="M72.1183 83.4221L72.149 83.6343C72.4615 83.2412 72.9114 83.0267 73.3727 83.0293L90 83C92.036 83.0113 94 81.0653 94 79L94 55C94 52.9352 92.0216 51 90 51L48 51C45.9717 51 44 52.9422 44 55L44 79C44 81.048 45.9107 83.0094 47.9284 83.0243L48 83L63.0187 82.9811C63.0233 83.3812 63.0187 84.458 63.0187 84.458C62.9889 84.9119 62.9533 85.4534 62.9737 85.8751C63.0388 87.2225 63.559 88.5322 64.7873 88.9066C65.9699 89.267 67.1122 88.5368 67.9265 87.5309L72.1183 83.4221ZM67.1829 86.8454C65.7206 88.6846 64.0886 88.2294 63.9725 85.8247C63.9549 85.4619 63.9855 84.9969 64.0178 84.5064C64.1104 83.0966 64.0012 82.0081 63.0187 82.0016L48 82.0016C46.5663 81.9922 45 80.5238 45 79L45 55C45 53.4695 46.56 52 48 52L90 52C91.44 52 93 53.4695 93 55L93 79C93 80.5362 91.4453 82.008 90 82L73.3781 82.0066C72.6059 82.0023 71.8716 82.1114 71.3731 82.7383L67.1829 86.8454Z" fill="#333333"/>
<path fill-rule="evenodd" clip-rule="evenodd" d="M56 64C56 63.4478 56.4416 63 57 63H83C83.5584 63 84 63.4478 84 64C84 64.5522 83.5584 65 83 65H57C56.4416 65 56 64.5522 56 64Z" fill="#333333"/>
<path fill-rule="evenodd" clip-rule="evenodd" d="M56 69.5C56 69.2239 56.2183 69 56.4875 69H73.5125C73.7817 69 74 69.2239 74 69.5C74 69.7761 73.7817 70 73.5125 70H56.4875C56.2183 70 56 69.7761 56 69.5Z" fill="#333333"/>
<path d="M8 17C8 15.4737 9.56002 14 11 14L53.3927 14C54.8327 14 56 15.2373 56 16.7635L56 41C56 42.5196 54.4337 43.9906 53 44L38 44C36.6758 44.0087 37.0954 46.4545 37.0275 47.8562C36.9113 50.2543 35.2793 50.7082 33.817 48.8742L29.6089 44.938C29.1104 44.3129 28.7722 43.9957 28 44L11 44C9.55473 44.008 8.00001 42.5319 8.00001 41L8 17Z" fill="url(#paint0_linear)"/>
<path fill-rule="evenodd" clip-rule="evenodd" d="M28.8919 44.6587L28.8613 44.6207C28.5491 44.2336 28.0996 44.0224 27.6388 44.0249L10.6227 44.0249C8.58878 44.036 7 42.3225 7 40.2885L7.00011 17C7.00011 14.9665 8.98041 13 11 13L53 13C55.0262 13 57 14.9734 57 17L57 40.2721C57 42.289 55.4374 43.9938 53.4217 44.0084L53 44L38.0003 44.0084L37.9503 46.4321C37.9503 46.8766 37.9706 47.5982 37.9503 48.0135C37.8853 49.3404 37.6168 50.5483 36.3897 50.9169C35.2083 51.2719 34.0672 50.4343 33.2537 49.4436L28.8919 44.6587ZM33.9965 48.7686C35.4573 50.5798 36.8319 50.2054 36.9479 47.8371C36.9655 47.4798 36.998 44.0783 36.998 44.0783C36.998 44.0783 36.998 43.0416 38.0003 43.0416L53 43.0013C54.4322 42.992 56.001 41.5007 56.001 40L56 17C56 15.4927 54.7848 14.0072 53.3462 14.0072L11 14C9.56146 14 7.99911 15.4927 7.99911 17L7.999 40.2885C7.999 41.8014 9.17346 43.0256 10.6173 43.0177L27.6333 43.0177C28.4048 43.0135 29.1384 43.3679 29.6364 43.9853L33.9965 48.7686Z" fill="#333333"/>
<path fill-rule="evenodd" clip-rule="evenodd" d="M16.9897 24.9983C16.9897 24.4496 17.4425 24.0049 18.0011 24.0049H44C44.5585 24.0049 44.9952 24.4496 44.9952 24.9983C44.9952 25.5469 44.5585 26 44 26H18.0011C17.4425 26 16.9897 25.5469 16.9897 24.9983Z" fill="white"/>
<path fill-rule="evenodd" clip-rule="evenodd" d="M17.0001 31C17.0001 30.7216 17 30 17 30H35V31H17.0001Z" fill="white"/>
<defs>
<linearGradient id="paint0_linear" x1="32" y1="14" x2="32" y2="50" gradientUnits="userSpaceOnUse">
<stop stop-color="#FF8E3D"/>
<stop offset="1" stop-color="#FF6F3D"/>
</linearGradient>
</defs>
</svg>
