<svg width="128" height="128" viewBox="0 0 128 128" fill="none" xmlns="http://www.w3.org/2000/svg">
<path d="M0 23C0 20.2386 2.23858 18 5 18H123C125.761 18 128 20.2386 128 23V105C128 107.761 125.761 110 123 110H5C2.23858 110 0 107.761 0 105V23Z" fill="url(#paint0_linear_125_4452)"/>
<path fill-rule="evenodd" clip-rule="evenodd" d="M123 19H5C2.79086 19 1 20.7909 1 23V105C1 107.209 2.79086 109 5 109H123C125.209 109 127 107.209 127 105V23C127 20.7909 125.209 19 123 19ZM5 18C2.23858 18 0 20.2386 0 23V105C0 107.761 2.23858 110 5 110H123C125.761 110 128 107.761 128 105V23C128 20.2386 125.761 18 123 18H5Z" fill="#333333"/>
<path d="M3 24C3 22.3431 4.34315 21 6 21H122C123.657 21 125 22.3431 125 24V104C125 105.657 123.657 107 122 107H6C4.34314 107 3 105.657 3 104V24Z" fill="white"/>
<path fill-rule="evenodd" clip-rule="evenodd" d="M122 22H6C4.89543 22 4 22.8954 4 24V104C4 105.105 4.89543 106 6 106H122C123.105 106 124 105.105 124 104V24C124 22.8954 123.105 22 122 22ZM6 21C4.34315 21 3 22.3431 3 24V104C3 105.657 4.34314 107 6 107H122C123.657 107 125 105.657 125 104V24C125 22.3431 123.657 21 122 21H6Z" fill="#333333"/>
<path fill-rule="evenodd" clip-rule="evenodd" d="M102 55C105.864 55 109.367 56.5647 111.901 59.0986C114.435 61.6326 116 65.1357 116 69C116 72.8643 114.429 76.3674 111.901 78.9014C109.367 81.4353 105.864 83 102 83C98.1357 83 94.6326 81.4353 92.0986 78.9014C89.5647 76.3674 88 72.8643 88 69C88 65.1357 89.571 61.6326 92.0986 59.0986C94.6326 56.571 98.1357 55 102 55Z" fill="#EFEFEF" stroke="#333333"/>
<path fill-rule="evenodd" clip-rule="evenodd" d="M102.26 61.6138C103.603 63.8817 106.764 66.517 108.969 66.2003C108.988 65.9722 109 65.7441 109 65.5161C109 61.6392 105.858 58.5034 101.988 58.5034C98.1108 58.5034 94.9751 61.6455 94.9751 65.5161C94.9751 65.7822 94.9878 66.0482 95.0194 66.3079C97.1226 66.2763 100.594 64.8573 102.26 61.6138Z" fill="#AAAAAA"/>
<path d="M99.0921 75.5L99.049 75.4999L99.0065 75.5072C96.386 75.9572 94.0904 76.8829 92.3594 78.2305L91.9469 78.5516L92.286 78.9494C94.5969 81.6603 98.0803 83.5 102.008 83.5C105.916 83.5 109.409 81.6312 111.712 78.9509L112.052 78.5558L111.643 78.2328C109.919 76.8697 107.62 75.9786 105.007 75.5186L104.964 75.5111L104.921 75.511L99.0921 75.5Z" fill="#BDECFF" stroke="#333333"/>
<path fill-rule="evenodd" clip-rule="evenodd" d="M104.984 75.8731L105.161 75.6387C105.244 75.531 105.244 75.4803 105.244 75.2206V74.4667V70.7545C104.268 71.2676 103.166 71.5527 101.988 71.5527C100.809 71.5527 99.707 71.2613 98.7314 70.7545V70.8622V74.4477V75.2142C98.7314 75.474 98.7314 75.5246 98.8138 75.6323L98.9912 75.8667C99.7767 76.9056 100.657 77.8115 101.493 78.9391C101.696 79.2115 101.836 79.3382 101.988 79.3066C102.146 79.3446 102.279 79.2115 102.482 78.9391C103.312 77.8179 104.198 76.912 104.984 75.8731Z" fill="white"/>
<path fill-rule="evenodd" clip-rule="evenodd" d="M108.968 66.1934C106.764 66.5101 103.603 63.8811 102.26 61.6069C100.594 64.8504 97.1222 66.2757 95.0127 66.2947C95.4055 69.7979 98.3765 72.5219 101.981 72.5219C105.63 72.5282 108.62 69.7472 108.968 66.1934Z" fill="white"/>
<path d="M101.98 58.5215C103.908 58.5215 105.657 59.3015 106.923 60.5669C108.188 61.8323 108.968 63.5816 108.968 65.5093C108.968 67.4367 108.188 69.1858 106.923 70.4512C105.65 71.7184 103.906 72.5034 101.98 72.5034C100.054 72.5034 98.3043 71.7178 97.0381 70.4516C95.7717 69.1853 94.9863 67.442 94.9863 65.5093C94.9863 63.5818 95.7662 61.8326 97.0314 60.5673C98.3036 59.3012 100.053 58.5215 101.98 58.5215Z" stroke="#333333"/>
<path d="M109.019 65.971C107.866 66.1357 106.523 65.6162 105.281 64.7674C104.129 63.9818 103.039 62.8986 102.272 61.828C101.525 63.0126 100.537 63.9248 99.4977 64.5963C97.9457 65.5972 96.2543 66.0723 95 66.085" stroke="#333333" stroke-linejoin="round"/>
<path d="M99.0835 71.9166V76L102 79.5L104.917 76V71.9166" stroke="#333333" stroke-linecap="round" stroke-linejoin="round"/>
<path fill-rule="evenodd" clip-rule="evenodd" d="M26 29C29.8642 29 33.3674 30.5647 35.9013 33.0986C38.4353 35.6326 40 39.1357 40 43C40 46.8643 38.429 50.3674 35.9013 52.9014C33.3674 55.4353 29.8642 57 26 57C22.1357 57 18.6326 55.4353 16.0986 52.9014C13.5647 50.3674 12 46.8643 12 43C12 39.1357 13.571 35.6326 16.0986 33.0986C18.6326 30.571 22.1357 29 26 29Z" fill="#EFEFEF" stroke="#333333"/>
<path fill-rule="evenodd" clip-rule="evenodd" d="M26.2602 35.6138C27.6032 37.8817 30.7642 40.517 32.9688 40.2003C32.9878 39.9722 33.0004 39.7441 33.0004 39.5161C33.0004 35.6392 29.8584 32.5034 25.9878 32.5034C22.1108 32.5034 18.9751 35.6455 18.9751 39.5161C18.9751 39.7822 18.9878 40.0482 19.0194 40.3079C21.1226 40.2763 24.5941 38.8573 26.2602 35.6138Z" fill="#AAAAAA"/>
<path d="M23.0921 49.5L23.049 49.4999L23.0065 49.5072C20.386 49.9572 18.0904 50.8829 16.3594 52.2305L15.9469 52.5516L16.286 52.9494C18.5969 55.6603 22.0803 57.5 26.0084 57.5C29.9157 57.5 33.4091 55.6312 35.7124 52.9509L36.0519 52.5558L35.6433 52.2328C33.919 50.8697 31.6201 49.9786 29.0065 49.5186L28.964 49.5111L28.9208 49.511L23.0921 49.5Z" fill="#BDECFF" stroke="#333333"/>
<path fill-rule="evenodd" clip-rule="evenodd" d="M28.9839 49.8731L29.1613 49.6387C29.2437 49.531 29.2437 49.4803 29.2437 49.2206V48.4667V44.7545C28.2681 45.2676 27.1658 45.5527 25.9876 45.5527C24.8093 45.5527 23.707 45.2613 22.7314 44.7545V44.8622V48.4477V49.2142C22.7314 49.474 22.7314 49.5246 22.8138 49.6323L22.9912 49.8667C23.7767 50.9056 24.6572 51.8115 25.4934 52.9391C25.6962 53.2115 25.8355 53.3382 25.9876 53.3066C26.1459 53.3446 26.279 53.2115 26.4817 52.9391C27.3115 51.8179 28.1984 50.912 28.9839 49.8731Z" fill="white"/>
<path fill-rule="evenodd" clip-rule="evenodd" d="M32.9683 40.1934C30.7638 40.5101 27.6027 37.8811 26.2598 35.6069C24.5937 38.8504 21.1222 40.2757 19.0127 40.2947C19.4055 43.7979 22.3765 46.5219 25.981 46.5219C29.6299 46.5282 32.6199 43.7472 32.9683 40.1934Z" fill="white"/>
<path d="M25.9804 32.5215C27.9081 32.5215 29.6574 33.3015 30.9228 34.5669C32.1882 35.8323 32.9682 37.5816 32.9682 39.5093C32.9682 41.4368 32.1883 43.186 30.923 44.4514C29.6497 45.7185 27.9061 46.5034 25.9804 46.5034C24.0539 46.5034 22.3043 45.7178 21.0381 44.4516C19.7717 43.1853 18.9863 41.442 18.9863 39.5093C18.9863 37.5819 19.7661 35.8327 21.0313 34.5674C22.3035 33.3012 24.0532 32.5215 25.9804 32.5215Z" stroke="#333333"/>
<path d="M33.019 39.971C31.8661 40.1357 30.5231 39.6162 29.2814 38.7674C28.1285 37.9818 27.0389 36.8986 26.2724 35.828C25.5249 37.0126 24.5367 37.9248 23.4977 38.5963C21.9457 39.5972 20.2543 40.0723 19 40.085" stroke="#333333" stroke-linejoin="round"/>
<path d="M23.0835 45.9166V50L26.0002 53.5L28.9168 50V45.9166" stroke="#333333" stroke-linecap="round" stroke-linejoin="round"/>
<path d="M99.7573 92.5H13.2427C11.2282 92.5 9.5 94.0343 9.5 96C9.5 97.9647 11.2175 99.5 13.2427 99.5H99.7573C101.782 99.5 103.5 97.9648 103.5 96C103.5 94.0352 101.782 92.5 99.7573 92.5Z" fill="#E0E0E0" stroke="#333333"/>
<path fill-rule="evenodd" clip-rule="evenodd" d="M113.5 88C117.646 88 121 91.3544 121 95.5C121 99.6456 117.635 103 113.5 103C109.354 103 106 99.635 106 95.5C105.989 91.365 109.354 88 113.5 88Z" fill="url(#paint1_linear_125_4452)"/>
<path d="M118 92L108 96L118 100L116 96L118 92Z" fill="white"/>
<path d="M51.1105 45.7412L51.1722 45.9686L51.0361 46.161L47.9662 50.5H57.5334H90.8042C95.642 50.5 99.5 47.2008 99.5 42.3333C99.5 39.8838 98.5303 37.9394 96.9768 36.6007C95.4158 35.2555 93.2384 34.5 90.8042 34.5H58.2009C55.796 34.5 53.9406 35.3686 52.68 36.8176C51.4121 38.275 50.7068 40.3658 50.7068 42.8684C50.7068 43.6743 50.9106 45.005 51.1105 45.7412Z" fill="#BDECFF" stroke="#333333"/>
<path fill-rule="evenodd" clip-rule="evenodd" d="M59 40.5C59 40.2239 59.2239 40 59.5 40H90.5C90.7761 40 91 40.2239 91 40.5C91 40.7761 90.7761 41 90.5 41H59.5C59.2239 41 59 40.7761 59 40.5Z" fill="#333333"/>
<path fill-rule="evenodd" clip-rule="evenodd" d="M59 44.5C59 44.2239 59.2239 44 59.5 44H78.5C78.7761 44 79 44.2239 79 44.5C79 44.7761 78.7761 45 78.5 45H59.5C59.2239 45 59 44.7761 59 44.5Z" fill="#333333"/>
<path d="M77.8996 73.7416L77.8413 73.9569L77.9626 74.1441L82.0803 80.5H71.5H41.1892C36.4334 80.5 32.5 76.3612 32.5 71.4292C32.5 66.5071 36.424 62.5 41.1892 62.5H69.5283C74.2935 62.5 78.2164 66.507 78.2164 71.4292C78.2164 72.2371 78.0984 73.0074 77.8996 73.7416Z" fill="url(#paint2_linear_125_4452)" stroke="#333333"/>
<path fill-rule="evenodd" clip-rule="evenodd" d="M54 69.5C54 68.129 52.871 67 51.5 67C50.129 67 49 68.129 49 69.5C49 70.871 50.129 72 51.5 72C52.871 72 54 70.871 54 69.5ZM45 72C45 70.629 43.871 69.5 42.5 69.5C41.129 69.5 40 70.629 40 72C40 73.371 41.129 74.5 42.5 74.5C43.871 74.5 45 73.371 45 72ZM63 72C63 70.629 61.871 69.5 60.5 69.5C59.129 69.5 58 70.629 58 72C58 73.371 59.129 74.5 60.5 74.5C61.871 74.5 63 73.371 63 72ZM69.5 69.5C70.871 69.5 72 70.629 72 72C72 73.371 70.871 74.5 69.5 74.5C68.129 74.5 67 73.371 67 72C67 70.629 68.129 69.5 69.5 69.5Z" fill="white"/>
<defs>
<linearGradient id="paint0_linear_125_4452" x1="0.00024644" y1="14.4062" x2="86.1501" y2="138.949" gradientUnits="userSpaceOnUse">
<stop stop-color="#FF8E3D"/>
<stop offset="1" stop-color="#FF6F3D"/>
</linearGradient>
<linearGradient id="paint1_linear_125_4452" x1="105.767" y1="86.992" x2="114.663" y2="96.7908" gradientUnits="userSpaceOnUse">
<stop stop-color="#FFC671"/>
<stop offset="1" stop-color="#FF6F3D"/>
</linearGradient>
<linearGradient id="paint2_linear_125_4452" x1="32.0001" y1="61.2578" x2="44.0816" y2="94.954" gradientUnits="userSpaceOnUse">
<stop stop-color="#FF8E3D"/>
<stop offset="1" stop-color="#FF6F3D"/>
</linearGradient>
</defs>
</svg>
