<svg width="32" height="32" viewBox="0 0 32 32" fill="none" xmlns="http://www.w3.org/2000/svg">
<path d="M29 4.50001L3.00006 4.50008C1.61935 4.50009 0.500069 5.61937 0.500065 7.00007L0.500006 26C0.500002 27.3807 1.61929 28.5 3.00001 28.5H29C30.3807 28.5 31.5 27.3807 31.5 26V7.00001C31.5 5.61929 30.3807 4.5 29 4.50001Z" fill="#FEFEFE" stroke="#333333"/>
<path fill-rule="evenodd" clip-rule="evenodd" d="M3 15L3.6471 11.7489C3.56357 11.4403 3.51345 11.1146 3.51345 10.7717C3.51345 8.69726 5.16731 7 7.18868 7H15.3243C17.3457 7 19 8.47293 19 10.5474C19 12.6218 17.3457 14.128 15.3243 14.128H5.66919L3 15Z" fill="#BDECFF"/>
<path fill-rule="evenodd" clip-rule="evenodd" d="M4.67365 11.714L4.61236 11.4876C4.54902 11.2536 4.51345 11.016 4.51345 10.7717C4.51345 9.22496 5.74385 8 7.18868 8H15.3243C16.8506 8 18 9.08077 18 10.5474C18 12.026 16.8379 13.128 15.3243 13.128H5.50998L4.31448 13.5186L4.67365 11.714ZM3 15L5.66919 14.128H15.3243C17.3457 14.128 19 12.6218 19 10.5474C19 8.47293 17.3457 7 15.3243 7H7.18868C5.16731 7 3.51345 8.69726 3.51345 10.7717C3.51345 11.1146 3.56357 11.4403 3.6471 11.7489L3 15Z" fill="#333333"/>
<path fill-rule="evenodd" clip-rule="evenodd" d="M29 23L28.3529 19.7489C28.4364 19.4403 28.4865 19.1146 28.4865 18.7717C28.4865 16.6973 26.8327 15 24.8113 15H16.6757C14.6543 15 13 16.4729 13 18.5474C13 20.6218 14.6543 22.128 16.6757 22.128H26.3308L29 23Z" fill="url(#paint0_linear_125_5849)"/>
<path fill-rule="evenodd" clip-rule="evenodd" d="M27.3263 19.714L27.3876 19.4876C27.451 19.2536 27.4865 19.016 27.4865 18.7717C27.4865 17.225 26.2561 16 24.8113 16H16.6757C15.1494 16 14 17.0808 14 18.5474C14 20.026 15.1621 21.128 16.6757 21.128H26.49L27.6855 21.5186L27.3263 19.714ZM29 23L26.3308 22.128H16.6757C14.6543 22.128 13 20.6218 13 18.5474C13 16.4729 14.6543 15 16.6757 15H24.8113C26.8327 15 28.4865 16.6973 28.4865 18.7717C28.4865 19.1146 28.4364 19.4403 28.3529 19.7489L29 23Z" fill="#333333"/>
<path fill-rule="evenodd" clip-rule="evenodd" d="M20 18C20 17.4516 19.5484 17 19 17C18.4516 17 18 17.4516 18 18C18 18.5484 18.4516 19 19 19C19.5484 19 20 18.5484 20 18ZM17 19C17 18.4516 16.5484 18 16 18C15.4516 18 15 18.4516 15 19C15 19.5484 15.4516 20 16 20C16.5484 20 17 19.5484 17 19ZM23 19C23 18.4516 22.5484 18 22 18C21.4516 18 21 18.4516 21 19C21 19.5484 21.4516 20 22 20C22.5484 20 23 19.5484 23 19ZM25 18C25.5484 18 26 18.4516 26 19C26 19.5484 25.5484 20 25 20C24.4516 20 24 19.5484 24 19C24 18.4516 24.4516 18 25 18Z" fill="white"/>
<path d="M25.5348 24.5H3.4652C2.90094 24.5 2.5 24.9846 2.5 25.5C2.5 26.0154 2.90094 26.5 3.4652 26.5H25.5348C26.0991 26.5 26.5 26.0154 26.5 25.5C26.5 24.9846 26.0991 24.5 25.5348 24.5Z" fill="#E0E0E0" stroke="#333333"/>
<path fill-rule="evenodd" clip-rule="evenodd" d="M11.4453 12C11.7303 12 12 11.7975 12 11.5C12 11.2108 11.7404 11 11.4599 11C6.5756 11 13.6364 11 7.5456 11C7.26545 11 7 11.2333 7 11.5C7 11.7757 7.25672 12 7.5456 12C9.51215 12 9.4787 12 11.4453 12Z" fill="#333333"/>
<path fill-rule="evenodd" clip-rule="evenodd" d="M15.3759 10C15.6966 10 16 9.79751 16 9.5C16 9.2108 15.7079 9 15.3923 9C9.89755 9 14.4659 9 7.6138 9C7.29863 9 7 9.23329 7 9.5C7 9.77571 7.28881 10 7.6138 10C9.82617 10 13.1635 10 15.3759 10Z" fill="#333333"/>
<path fill-rule="evenodd" clip-rule="evenodd" d="M26.5 27L26.5 27.0024H28.5L28.5 27C29.3258 27 30 26.3258 30 25.5C30 24.6742 29.3258 24 28.5 24H26.5C25.6742 24 25.0084 24.6657 25 25.5C25 26.3258 25.6742 27 26.5 27Z" fill="url(#paint1_linear_125_5849)"/>
<defs>
<linearGradient id="paint0_linear_125_5849" x1="13" y1="14.6875" x2="19.2563" y2="27.6887" gradientUnits="userSpaceOnUse">
<stop stop-color="#FF8E3D"/>
<stop offset="1" stop-color="#FF6F3D"/>
</linearGradient>
<linearGradient id="paint1_linear_125_5849" x1="25" y1="23.8827" x2="27.6034" y2="28.3875" gradientUnits="userSpaceOnUse">
<stop stop-color="#FF8E3D"/>
<stop offset="1" stop-color="#FF6F3D"/>
</linearGradient>
</defs>
</svg>
