<svg width="48" height="48" viewBox="0 0 48 48" fill="none" xmlns="http://www.w3.org/2000/svg">
<path fill-rule="evenodd" clip-rule="evenodd" d="M1.00009 9.00012C1.0001 7.89555 1.89552 7.00013 3.00009 7.00012L44 7C45.1046 7 46 7.89543 46 9V40C46 41.1046 45.1046 42 44 42H3C1.89543 42 0.999997 41.1046 1 40L1.00009 9.00012Z" fill="#FEFEFE"/>
<path fill-rule="evenodd" clip-rule="evenodd" d="M3.00009 6.00012L44 6C45.6568 5.99999 47 7.34314 47 9V40C47 41.6568 45.6568 43 44 43H3C1.34315 43 -5.06638e-06 41.6568 0 40L9.38773e-05 9.00011C9.89437e-05 7.34327 1.34324 6.00013 3.00009 6.00012ZM3.00009 7.00012C1.89552 7.00013 1.0001 7.89555 1.00009 9.00012L1 40C0.999997 41.1046 1.89543 42 3 42H44C45.1046 42 46 41.1046 46 40V9C46 7.89543 45.1046 7 44 7L3.00009 7.00012Z" fill="#333333"/>
<path fill-rule="evenodd" clip-rule="evenodd" d="M44 34L43.0294 29.1233C43.1546 28.6604 43.2298 28.1718 43.2298 27.6575C43.2298 24.5459 40.749 22 37.717 22H25.5135C22.4815 22 20 24.2094 20 27.321C20 30.4327 22.4815 33 25.5135 33H39L44 34Z" fill="url(#paint0_linear_125_4847)"/>
<path fill-rule="evenodd" clip-rule="evenodd" d="M42.0028 29.0885L42.0641 28.8621C42.1692 28.4737 42.2298 28.0732 42.2298 27.6575C42.2298 25.0736 40.1725 23 37.717 23H25.5135C22.9765 23 21 24.8172 21 27.321C21 29.9098 23.0627 32 25.5135 32H39.099L42.7267 32.7255L42.0028 29.0885ZM44 34L39 33H25.5135C22.4815 33 20 30.4327 20 27.321C20 24.2094 22.4815 22 25.5135 22H37.717C40.749 22 43.2298 24.5459 43.2298 27.6575C43.2298 28.1718 43.1546 28.6604 43.0294 29.1233L44 34Z" fill="#333333"/>
<path fill-rule="evenodd" clip-rule="evenodd" d="M30.5 26.5C30.5 25.6774 29.8226 25 29 25C28.1774 25 27.5 25.6774 27.5 26.5C27.5 27.3226 28.1774 28 29 28C29.8226 28 30.5 27.3226 30.5 26.5ZM26 28C26 27.1774 25.3226 26.5 24.5 26.5C23.6774 26.5 23 27.1774 23 28C23 28.8226 23.6774 29.5 24.5 29.5C25.3226 29.5 26 28.8226 26 28ZM35 28C35 27.1774 34.3226 26.5 33.5 26.5C32.6774 26.5 32 27.1774 32 28C32 28.8226 32.6774 29.5 33.5 29.5C34.3226 29.5 35 28.8226 35 28ZM38 26.5C38.8226 26.5 39.5 27.1774 39.5 28C39.5 28.8226 38.8226 29.5 38 29.5C37.1774 29.5 36.5 28.8226 36.5 28C36.5 27.1774 37.1774 26.5 38 26.5Z" fill="white"/>
<path d="M38.3123 36.5H5.68768C5.28477 36.5 4.97632 36.7413 4.79064 37.0113C4.6024 37.2851 4.5 37.6363 4.5 38C4.5 38.3637 4.6024 38.7149 4.79064 38.9887C4.97632 39.2587 5.28477 39.5 5.68768 39.5H38.3123C38.7152 39.5 39.0237 39.2587 39.2094 38.9887C39.3976 38.7149 39.5 38.3637 39.5 38C39.5 37.6363 39.3976 37.2851 39.2094 37.0113C39.0237 36.7413 38.7152 36.5 38.3123 36.5Z" fill="#E0E0E0" stroke="#333333"/>
<path d="M37 36H42C43.1046 36 44 36.8954 44 38V38C44 39.1046 43.1046 40 42 40H37V36Z" fill="url(#paint1_linear_125_4847)"/>
<path fill-rule="evenodd" clip-rule="evenodd" d="M5 22L5.95084 17.1233C5.8281 16.6604 5.70408 15.8354 5.70408 15.321C5.70408 12.2094 7.41757 10 10.3878 10H23.6122C26.5824 10 29 11.8884 29 15C29 18.1116 26.5824 20 23.6122 20H9.89796L5 22Z" fill="#BDECFF"/>
<path fill-rule="evenodd" clip-rule="evenodd" d="M6.95644 17.0885L6.8964 16.8621C6.79235 16.4696 6.68367 15.733 6.68367 15.321C6.68367 13.9453 7.06189 12.8672 7.67217 12.1488C8.26789 11.4476 9.15821 11 10.3878 11H23.6122C24.8995 11 26.008 11.409 26.7793 12.0896C27.5363 12.7577 28.0204 13.7299 28.0204 15C28.0204 16.2701 27.5363 17.2423 26.7793 17.9104C26.008 18.591 24.8995 19 23.6122 19H9.70931L6.31337 20.3867L6.95644 17.0885ZM5 22L9.89796 20H23.6122C26.5824 20 29 18.1116 29 15C29 11.8884 26.5824 10 23.6122 10H10.3878C7.41757 10 5.70408 12.2094 5.70408 15.321C5.70408 15.8354 5.8281 16.6604 5.95084 17.1233L5 22Z" fill="#333333"/>
<path fill-rule="evenodd" clip-rule="evenodd" d="M10 13.5C10 13.2239 10.2239 13 10.5 13H23.5C23.7761 13 24 13.2239 24 13.5C24 13.7761 23.7761 14 23.5 14H10.5C10.2239 14 10 13.7761 10 13.5Z" fill="#333333"/>
<path fill-rule="evenodd" clip-rule="evenodd" d="M10 16.5C10 16.2239 10.2239 16 10.5 16H18.5C18.7761 16 19 16.2239 19 16.5C19 16.7761 18.7761 17 18.5 17H10.5C10.2239 17 10 16.7761 10 16.5Z" fill="#333333"/>
<defs>
<linearGradient id="paint0_linear_125_4847" x1="20" y1="21.5312" x2="29.3844" y2="41.0331" gradientUnits="userSpaceOnUse">
<stop stop-color="#FF8E3D"/>
<stop offset="1" stop-color="#FF6F3D"/>
</linearGradient>
<linearGradient id="paint1_linear_125_4847" x1="37" y1="35.8437" x2="40.3804" y2="41.9906" gradientUnits="userSpaceOnUse">
<stop stop-color="#FF8E3D"/>
<stop offset="1" stop-color="#FF6F3D"/>
</linearGradient>
</defs>
</svg>
