<svg width="16" height="16" viewBox="0 0 16 16" fill="none" xmlns="http://www.w3.org/2000/svg">
<g clip-path="url(#clip0_125_6143)">
<path d="M14 0.500004L2.00003 0.500047C1.1716 0.50005 0.500033 1.17162 0.500031 2.00004L0.500002 14C0.5 14.8284 1.17157 15.5 2 15.5H14C14.8284 15.5 15.5 14.8284 15.5 14V2C15.5 1.17157 14.8284 0.500001 14 0.500004Z" fill="#FEFEFE" stroke="#333333"/>
<path fill-rule="evenodd" clip-rule="evenodd" d="M2.00039 8.24864V5.83522C2.00039 5.83522 2.00039 5.24968 2.00039 4.40535C2.00039 2.95122 3.17899 2 4.27824 2H9.50495C10.9401 2 12 3.16478 12 4.5C12 5.83522 11.0082 7.02281 9.50495 7.02281H4.96477L2.00039 8.24864Z" fill="#BDECFF"/>
<path d="M4.77371 6.56076L4.86547 6.52281H4.96477H9.50495C10.7033 6.52281 11.5 5.5888 11.5 4.5C11.5 3.42648 10.6497 2.5 9.50495 2.5H4.27824C3.44121 2.5 2.50039 3.24108 2.50039 4.40535V4.4103V4.41523V4.42017V4.42509V4.43001V4.43493V4.43984V4.44474V4.44964V4.45453V4.45941V4.46429V4.46916V4.47403V4.47889V4.48374V4.48859V4.49343V4.49826V4.50309V4.50792V4.51273V4.51754V4.52235V4.52714V4.53194V4.53672V4.5415V4.54627V4.55104V4.5558V4.56055V4.5653V4.57004V4.57477V4.5795V4.58422V4.58894V4.59365V4.59835V4.60304V4.60773V4.61241V4.61709V4.62176V4.62642V4.63108V4.63573V4.64037V4.64501V4.64964V4.65426V4.65887V4.66348V4.66809V4.67268V4.67727V4.68185V4.68643V4.691V4.69556V4.70012V4.70467V4.70921V4.71374V4.71827V4.72279V4.72731V4.73181V4.73631V4.74081V4.74529V4.74977V4.75424V4.75871V4.76317V4.76762V4.77206V4.7765V4.78093V4.78535V4.78977V4.79418V4.79858V4.80298V4.80736V4.81174V4.81612V4.82048V4.82484V4.82919V4.83354V4.83787V4.8422V4.84652V4.85084V4.85515V4.85945V4.86374V4.86803V4.8723V4.87658V4.88084V4.88509V4.88934V4.89358V4.89782V4.90204V4.90626V4.91047V4.91468V4.91887V4.92306V4.92724V4.93142V4.93558V4.93974V4.94389V4.94803V4.95217V4.9563V4.96042V4.96453V4.96863V4.97273V4.97682V4.9809V4.98497V4.98904V4.99309V4.99714V5.00119V5.00522V5.00925V5.01327V5.01728V5.02128V5.02527V5.02926V5.03324V5.03721V5.04117V5.04513V5.04907V5.05301V5.05694V5.06087V5.06478V5.06869V5.07259V5.07648V5.08036V5.08423V5.0881V5.09196V5.09581V5.09965V5.10348V5.10731V5.11112V5.11493V5.11873V5.12252V5.12631V5.13008V5.13385V5.13761V5.14136V5.1451V5.14883V5.15256V5.15627V5.15998V5.16368V5.16737V5.17106V5.17473V5.1784V5.18205V5.1857V5.18934V5.19297V5.1966V5.20021V5.20382V5.20741V5.211V5.21458V5.21815V5.22172V5.22527V5.22882V5.23235V5.23588V5.2394V5.24291V5.24641V5.2499V5.25339V5.25686V5.26033V5.26378V5.26723V5.27067V5.2741V5.27752V5.28094V5.28434V5.28774V5.29112V5.2945V5.29787V5.30122V5.30457V5.30791V5.31125V5.31457V5.31788V5.32119V5.32448V5.32777V5.33104V5.33431V5.33757V5.34082V5.34406V5.34729V5.35051V5.35373V5.35693V5.36012V5.36331V5.36648V5.36965V5.37281V5.37595V5.37909V5.38222V5.38534V5.38845V5.39155V5.39464V5.39772V5.40079V5.40385V5.40691V5.40995V5.41298V5.41601V5.41902V5.42203V5.42502V5.42801V5.43099V5.43395V5.43691V5.43986V5.4428V5.44572V5.44864V5.45155V5.45445V5.45734V5.46022V5.46309V5.46595V5.4688V5.47164V5.47447V5.47729V5.4801V5.4829V5.48569V5.48847V5.49124V5.494V5.49675V5.4995V5.50223V5.50495V5.50766V5.51036V5.51305V5.51573V5.5184V5.52106V5.52372V5.52636V5.52899V5.53161V5.53422V5.53682V5.53941V5.54199V5.54456V5.54711V5.54966V5.5522V5.55473V5.55725V5.55976V5.56225V5.56474V5.56722V5.56968V5.57214V5.57459V5.57702V5.57945V5.58186V5.58426V5.58666V5.58904V5.59141V5.59378V5.59613V5.59847V5.6008V5.60312V5.60543V5.60773V5.61001V5.61229V5.61456V5.61681V5.61906V5.62129V5.62352V5.62573V5.62793V5.63013V5.63231V5.63448V5.63664V5.63879V5.64092V5.64305V5.64517V5.64727V5.64937V5.65145V5.65352V5.65559V5.65764V5.65968V5.66171V5.66372V5.66573V5.66773V5.66971V5.67168V5.67365V5.6756V5.67754V5.67947V5.68139V5.6833V5.68519V5.68708V5.68895V5.69081V5.69267V5.69451V5.69633V5.69815V5.69996V5.70175V5.70354V5.70531V5.70707V5.70882V5.71056V5.71229V5.71401V5.71571V5.7174V5.71909V5.72076V5.72241V5.72406V5.7257V5.72732V5.72894V5.73054V5.73213V5.73371V5.73527V5.73683V5.73837V5.7399V5.74142V5.74293V5.74443V5.74592V5.74739V5.74885V5.7503V5.75174V5.75317V5.75458V5.75599V5.75738V5.75876V5.76013V5.76148V5.76283V5.76416V5.76548V5.76679V5.76809V5.76937V5.77065V5.77191V5.77316V5.77439V5.77562V5.77683V5.77803V5.77922V5.7804V5.78156V5.78272V5.78386V5.78499V5.7861V5.78721V5.7883V5.78938V5.79045V5.79151V5.79255V5.79358V5.7946V5.79561V5.7966V5.79758V5.79855V5.79951V5.80046V5.80139V5.80231V5.80322V5.80412V5.805V5.80587V5.80673V5.80758V5.80841V5.80923V5.81004V5.81084V5.81162V5.81239V5.81315V5.8139V5.81463V5.81535V5.81606V5.81676V5.81744V5.81811V5.81877V5.81942V5.82005V5.82067V5.82128V5.82187V5.82245V5.82302V5.82358V5.82412V5.82465V5.82517V5.82568V5.82617V5.82665V5.82712V5.82757V5.82801V5.82844V5.82885V5.82926V5.82964V5.83002V5.83038V5.83073V5.83107V5.83139V5.8317V5.832V5.83229V5.83256V5.83282V5.83306V5.8333V5.83351V5.83372V5.83391V5.83409V5.83426V5.83441V5.83455V5.83468V5.83479V5.83489V5.83498V5.83505V5.83511V5.83516V5.83519V5.83522V7.50082L4.77371 6.56076Z" stroke="#333333"/>
<path d="M11.322 12.5608L11.2302 12.5228H11.1309H6.59076C5.39245 12.5228 4.5957 11.5888 4.5957 10.5C4.5957 9.42648 5.44601 8.5 6.59076 8.5H11.8175C12.6545 8.5 13.5953 9.24108 13.5953 10.4054V10.4103V10.4152V10.4202V10.4251V10.43V10.4349V10.4398V10.4447V10.4496V10.4545V10.4594V10.4643V10.4692V10.474V10.4789V10.4837V10.4886V10.4934V10.4983V10.5031V10.5079V10.5127V10.5175V10.5223V10.5271V10.5319V10.5367V10.5415V10.5463V10.551V10.5558V10.5606V10.5653V10.57V10.5748V10.5795V10.5842V10.5889V10.5936V10.5983V10.603V10.6077V10.6124V10.6171V10.6218V10.6264V10.6311V10.6357V10.6404V10.645V10.6496V10.6543V10.6589V10.6635V10.6681V10.6727V10.6773V10.6819V10.6864V10.691V10.6956V10.7001V10.7047V10.7092V10.7137V10.7183V10.7228V10.7273V10.7318V10.7363V10.7408V10.7453V10.7498V10.7542V10.7587V10.7632V10.7676V10.7721V10.7765V10.7809V10.7854V10.7898V10.7942V10.7986V10.803V10.8074V10.8117V10.8161V10.8205V10.8248V10.8292V10.8335V10.8379V10.8422V10.8465V10.8508V10.8551V10.8594V10.8637V10.868V10.8723V10.8766V10.8808V10.8851V10.8893V10.8936V10.8978V10.902V10.9063V10.9105V10.9147V10.9189V10.9231V10.9272V10.9314V10.9356V10.9397V10.9439V10.948V10.9522V10.9563V10.9604V10.9645V10.9686V10.9727V10.9768V10.9809V10.985V10.989V10.9931V10.9971V11.0012V11.0052V11.0092V11.0133V11.0173V11.0213V11.0253V11.0293V11.0332V11.0372V11.0412V11.0451V11.0491V11.053V11.0569V11.0609V11.0648V11.0687V11.0726V11.0765V11.0804V11.0842V11.0881V11.092V11.0958V11.0996V11.1035V11.1073V11.1111V11.1149V11.1187V11.1225V11.1263V11.1301V11.1338V11.1376V11.1414V11.1451V11.1488V11.1526V11.1563V11.16V11.1637V11.1674V11.1711V11.1747V11.1784V11.1821V11.1857V11.1893V11.193V11.1966V11.2002V11.2038V11.2074V11.211V11.2146V11.2182V11.2217V11.2253V11.2288V11.2324V11.2359V11.2394V11.2429V11.2464V11.2499V11.2534V11.2569V11.2603V11.2638V11.2672V11.2707V11.2741V11.2775V11.2809V11.2843V11.2877V11.2911V11.2945V11.2979V11.3012V11.3046V11.3079V11.3112V11.3146V11.3179V11.3212V11.3245V11.3278V11.331V11.3343V11.3376V11.3408V11.3441V11.3473V11.3505V11.3537V11.3569V11.3601V11.3633V11.3665V11.3696V11.3728V11.376V11.3791V11.3822V11.3853V11.3884V11.3915V11.3946V11.3977V11.4008V11.4039V11.4069V11.41V11.413V11.416V11.419V11.422V11.425V11.428V11.431V11.434V11.4369V11.4399V11.4428V11.4457V11.4486V11.4516V11.4544V11.4573V11.4602V11.4631V11.4659V11.4688V11.4716V11.4745V11.4773V11.4801V11.4829V11.4857V11.4885V11.4912V11.494V11.4968V11.4995V11.5022V11.5049V11.5077V11.5104V11.5131V11.5157V11.5184V11.5211V11.5237V11.5264V11.529V11.5316V11.5342V11.5368V11.5394V11.542V11.5446V11.5471V11.5497V11.5522V11.5547V11.5572V11.5598V11.5623V11.5647V11.5672V11.5697V11.5721V11.5746V11.577V11.5794V11.5819V11.5843V11.5867V11.589V11.5914V11.5938V11.5961V11.5985V11.6008V11.6031V11.6054V11.6077V11.61V11.6123V11.6146V11.6168V11.6191V11.6213V11.6235V11.6257V11.6279V11.6301V11.6323V11.6345V11.6366V11.6388V11.6409V11.6431V11.6452V11.6473V11.6494V11.6515V11.6535V11.6556V11.6576V11.6597V11.6617V11.6637V11.6657V11.6677V11.6697V11.6717V11.6736V11.6756V11.6775V11.6795V11.6814V11.6833V11.6852V11.6871V11.689V11.6908V11.6927V11.6945V11.6963V11.6982V11.7V11.7018V11.7035V11.7053V11.7071V11.7088V11.7106V11.7123V11.714V11.7157V11.7174V11.7191V11.7208V11.7224V11.7241V11.7257V11.7273V11.7289V11.7305V11.7321V11.7337V11.7353V11.7368V11.7384V11.7399V11.7414V11.7429V11.7444V11.7459V11.7474V11.7489V11.7503V11.7517V11.7532V11.7546V11.756V11.7574V11.7588V11.7601V11.7615V11.7628V11.7642V11.7655V11.7668V11.7681V11.7694V11.7706V11.7719V11.7732V11.7744V11.7756V11.7768V11.778V11.7792V11.7804V11.7816V11.7827V11.7839V11.785V11.7861V11.7872V11.7883V11.7894V11.7904V11.7915V11.7925V11.7936V11.7946V11.7956V11.7966V11.7976V11.7986V11.7995V11.8005V11.8014V11.8023V11.8032V11.8041V11.805V11.8059V11.8067V11.8076V11.8084V11.8092V11.81V11.8108V11.8116V11.8124V11.8132V11.8139V11.8146V11.8154V11.8161V11.8168V11.8174V11.8181V11.8188V11.8194V11.8201V11.8207V11.8213V11.8219V11.8225V11.823V11.8236V11.8241V11.8247V11.8252V11.8257V11.8262V11.8266V11.8271V11.8276V11.828V11.8284V11.8289V11.8293V11.8296V11.83V11.8304V11.8307V11.8311V11.8314V11.8317V11.832V11.8323V11.8326V11.8328V11.8331V11.8333V11.8335V11.8337V11.8339V11.8341V11.8343V11.8344V11.8346V11.8347V11.8348V11.8349V11.835V11.8351V11.8351V11.8352V11.8352V11.8352V13.5008L11.322 12.5608Z" fill="url(#paint0_linear_125_6143)" stroke="#333333"/>
<rect x="4" y="4" width="6" height="1" rx="0.5" fill="#333333"/>
<circle cx="6.5" cy="10.5" r="0.5" fill="white"/>
<circle cx="8.5" cy="10.5" r="0.5" fill="white"/>
<circle cx="10.5" cy="10.5" r="0.5" fill="white"/>
</g>
<defs>
<linearGradient id="paint0_linear_125_6143" x1="4.09572" y1="7.75591" x2="9.6193" y2="16.9405" gradientUnits="userSpaceOnUse">
<stop stop-color="#FF8E3D"/>
<stop offset="1" stop-color="#FF6F3D"/>
</linearGradient>
<clipPath id="clip0_125_6143">
<rect width="16" height="16" fill="white"/>
</clipPath>
</defs>
</svg>
