<svg width="18" height="16" viewBox="0 0 18 16" fill="none" xmlns="http://www.w3.org/2000/svg">
<path d="M15 14L3 2" stroke="#83888D" stroke-width="2"/>
<path fill-rule="evenodd" clip-rule="evenodd" d="M15.7584 10.7584C16.5148 10.0886 17.2185 9.30994 17.8589 8.438C17.9505 8.31108 17.9998 8.15853 17.9998 8.002C17.9998 7.84547 17.9505 7.69292 17.8589 7.566C15.5579 4.429 12.4389 2.5 8.99991 2.5C8.52905 2.5 8.06419 2.53616 7.60661 2.60662L9.13053 4.13055C10.0086 4.18149 10.8476 4.52968 11.5061 5.12386C12.2583 5.80254 12.7154 6.7484 12.7797 7.75947C12.7802 7.76666 12.7806 7.77386 12.781 7.78105L15.7584 10.7584ZM8.30596 6.01301L10.9405 8.64755C10.8445 8.95281 10.6779 9.23389 10.4514 9.46664C10.1016 9.82597 9.63286 10.0455 9.13291 10.084C8.70777 10.122 8.2812 10.0289 7.91054 9.81723C7.53989 9.60557 7.24292 9.2855 7.05958 8.90005C6.87623 8.51461 6.8153 8.08228 6.88496 7.66117C6.95463 7.24007 7.15156 6.85039 7.44927 6.54453C7.68806 6.2992 7.98251 6.11723 8.30596 6.01301ZM7.01154 4.71859C6.69208 4.92181 6.40134 5.1724 6.15027 5.46474C5.4902 6.23331 5.15674 7.22947 5.22109 8.24054C5.28544 9.25161 5.7425 10.1975 6.49468 10.8761C7.24687 11.5548 8.23457 11.9126 9.24691 11.873C10.2561 11.7839 11.1905 11.3038 11.8505 10.5353C12.0041 10.3564 12.1401 10.1652 12.2574 9.96443L14.2169 11.924C12.6238 12.9365 10.8586 13.5 8.99991 13.5C5.56091 13.5 2.44091 11.571 0.140906 8.434C0.0493014 8.30708 0 8.15453 0 7.998C0 7.84147 0.0493014 7.68893 0.140906 7.562C1.62664 5.53905 3.45342 4.01807 5.48717 3.19422L7.01154 4.71859Z" fill="#83888D"/>
</svg>
