<svg width="16" height="16" viewBox="0 0 16 16" fill="none" xmlns="http://www.w3.org/2000/svg">
<path d="M7.10326 1.81695C7.47008 1.07371 8.52992 1.07371 8.89674 1.81696L10.1185 4.29246C10.2641 4.5876 10.5457 4.79217 10.8714 4.8395L13.6033 5.23647C14.4235 5.35565 14.751 6.36362 14.1575 6.94216L12.1807 8.86907C11.945 9.09881 11.8375 9.42981 11.8931 9.7542L12.3598 12.4751C12.4999 13.292 11.6424 13.9149 10.9088 13.5293L8.46534 12.2446C8.17402 12.0915 7.82598 12.0915 7.53466 12.2446L5.09119 13.5293C4.35756 13.9149 3.50013 13.292 3.64024 12.4751L4.1069 9.7542C4.16254 9.42981 4.05499 9.09881 3.81931 8.86907L1.8425 6.94216C1.24898 6.36362 1.57649 5.35565 2.39671 5.23647L5.12859 4.8395C5.4543 4.79217 5.73587 4.5876 5.88153 4.29246L7.10326 1.81695Z" fill="#BDBDBD"/>
</svg>
