<svg width="18" height="12" viewBox="0 0 18 12" fill="none" xmlns="http://www.w3.org/2000/svg">
<g clip-path="url(#clip0)">
<path d="M8.99991 0.5C5.56091 0.5 2.44191 2.429 0.140906 5.562C0.0493014 5.68893 0 5.84147 0 5.998C0 6.15453 0.0493014 6.30708 0.140906 6.434C2.44091 9.571 5.56091 11.5 8.99991 11.5C12.4389 11.5 15.5579 9.571 17.8589 6.438C17.9505 6.31108 17.9998 6.15853 17.9998 6.002C17.9998 5.84547 17.9505 5.69292 17.8589 5.566C15.5579 2.429 12.4389 0.5 8.99991 0.5ZM9.24691 9.873C8.23457 9.91258 7.24687 9.55483 6.49468 8.87614C5.7425 8.19746 5.28544 7.25161 5.22109 6.24054C5.15674 5.22947 5.4902 4.23331 6.15027 3.46474C6.81034 2.69616 7.74472 2.21608 8.75391 2.127C9.76624 2.08742 10.7539 2.44517 11.5061 3.12386C12.2583 3.80254 12.7154 4.7484 12.7797 5.75947C12.8441 6.77053 12.5106 7.76669 11.8505 8.53526C11.1905 9.30383 10.2561 9.78392 9.24691 9.873ZM9.13291 8.084C8.70777 8.12198 8.2812 8.02889 7.91054 7.81723C7.53989 7.60557 7.24292 7.2855 7.05958 6.90005C6.87623 6.51461 6.8153 6.08228 6.88496 5.66117C6.95463 5.24007 7.15156 4.85039 7.44927 4.54453C7.74698 4.23866 8.1312 4.03129 8.55027 3.95028C8.96935 3.86927 9.40317 3.91851 9.79343 4.09138C10.1837 4.26426 10.5116 4.55248 10.7332 4.91728C10.9548 5.28209 11.0594 5.706 11.0329 6.132C11.0079 6.63282 10.8011 7.10732 10.4514 7.46664C10.1016 7.82597 9.63286 8.04545 9.13291 8.084Z" fill="#83888D"/>
</g>
<defs>
<clipPath id="clip0">
<rect width="18" height="11" fill="white" transform="translate(0 0.5)"/>
</clipPath>
</defs>
</svg>
