<svg width="16" height="16" viewBox="0 0 16 16" fill="none" xmlns="http://www.w3.org/2000/svg">
<path fill-rule="evenodd" clip-rule="evenodd" d="M7 15C8.65685 15 10 13.6569 10 12C10 10.3431 8.65685 9 7 9C5.34315 9 4 10.3431 4 12C4 13.6569 5.34315 15 7 15ZM7 13.5C7.82843 13.5 8.5 12.8284 8.5 12C8.5 11.1716 7.82843 10.5 7 10.5C6.17157 10.5 5.5 11.1716 5.5 12C5.5 12.8284 6.17157 13.5 7 13.5Z" fill="#83888D"/>
<path fill-rule="evenodd" clip-rule="evenodd" d="M9 7C10.6569 7 12 5.65685 12 4C12 2.34315 10.6569 1 9 1C7.34315 1 6 2.34315 6 4C6 5.65685 7.34315 7 9 7ZM9 5.5C9.82843 5.5 10.5 4.82843 10.5 4C10.5 3.17157 9.82843 2.5 9 2.5C8.17157 2.5 7.5 3.17157 7.5 4C7.5 4.82843 8.17157 5.5 9 5.5Z" fill="#83888D"/>
<rect x="1" y="3" width="6" height="2" rx="1" fill="#83888D"/>
<rect x="9" y="11" width="6" height="2" rx="1" fill="#83888D"/>
<rect x="1" y="11" width="2" height="2" rx="1" fill="#83888D"/>
<rect x="13" y="3" width="2" height="2" rx="1" fill="#83888D"/>
</svg>
