<svg width="24" height="24" viewBox="0 0 24 24" fill="none" xmlns="http://www.w3.org/2000/svg">
<path d="M0 12C0 5.37258 5.37258 0 12 0C18.6274 0 24 5.37258 24 12C24 18.6274 18.6274 24 12 24C5.37258 24 0 18.6274 0 12Z" fill="#EAEAEA"/>
<path d="M12.0002 11.8515C13.5123 11.8515 14.7383 10.3625 14.7383 8.5258C14.7383 6.68906 14.3357 5.20007 12.0002 5.20007C9.66457 5.20007 9.26208 6.68906 9.26208 8.5258C9.26213 10.3625 10.488 11.8515 12.0002 11.8515Z" fill="#787D82"/>
<path d="M17.1658 16.7952C17.1152 13.5955 16.6973 12.6838 13.4995 12.1066C13.4995 12.1066 13.0493 12.6802 12.0002 12.6802C10.951 12.6802 10.5009 12.1066 10.5009 12.1066C7.33805 12.6774 6.89468 13.5757 6.8364 16.6912C6.83166 16.9456 6.82948 16.9589 6.82861 16.9294C6.82878 16.9847 6.82903 17.0871 6.82903 17.2656C6.82903 17.2656 7.59035 18.8003 12.0002 18.8003C16.4101 18.8003 17.1715 17.2656 17.1715 17.2656C17.1715 17.1509 17.1716 17.0711 17.1717 17.0169C17.1708 17.0352 17.169 16.9998 17.1658 16.7952Z" fill="#787D82"/>
<path d="M15.8 11.2579C17.0282 11.2579 18.0238 10.0486 18.0238 8.55681C18.0238 7.06503 17.6969 5.85571 15.8 5.85571C15.481 5.85571 15.2064 5.89004 14.9702 5.95413C15.4083 6.76182 15.4684 7.74286 15.4684 8.52594C15.4684 9.4126 15.228 10.2591 14.7854 10.96C15.0896 11.15 15.4344 11.2579 15.8 11.2579Z" fill="#787D82"/>
<path d="M19.9953 15.2726C19.954 12.6739 19.6147 11.9334 17.0175 11.4647C17.0175 11.4647 16.6519 11.9305 15.7998 11.9305C15.7646 11.9305 15.7304 11.9295 15.6968 11.9279C16.2382 12.172 16.7307 12.5119 17.0934 13.0093C17.7205 13.8691 17.8647 15.0241 17.8944 16.721C19.6417 16.3757 19.9998 15.6547 19.9998 15.6547C19.9998 15.5607 19.9998 15.4963 20 15.4522C19.9993 15.4677 19.9978 15.4399 19.9953 15.2726Z" fill="#787D82"/>
<path d="M8.20005 11.2579C8.56573 11.2579 8.9104 11.15 9.21475 10.9601C8.77213 10.2592 8.53177 9.41266 8.53177 8.52601C8.53177 7.74288 8.59182 6.76184 9.02987 5.95419C8.79372 5.8901 8.5192 5.85577 8.20005 5.85577C6.30314 5.85577 5.97632 7.06509 5.97632 8.55687C5.97632 10.0486 6.97194 11.2579 8.20005 11.2579Z" fill="#787D82"/>
<path d="M8.30313 11.9284C8.26958 11.9299 8.23542 11.931 8.2001 11.931C7.34798 11.931 6.98238 11.4651 6.98238 11.4651C4.3853 11.9338 4.04587 12.6743 4.00474 15.273C4.00206 15.4404 4.0007 15.4681 4 15.4526C4.00008 15.4967 4.00016 15.5611 4.00016 15.6551C4.00016 15.6551 4.35831 16.3761 6.10549 16.7214C6.13537 15.0246 6.27945 13.8695 6.90659 13.0097C7.26926 12.5124 7.76172 12.1725 8.30313 11.9284Z" fill="#787D82"/>
</svg>
