<svg width="16" height="16" viewBox="0 0 16 16" fill="none" xmlns="http://www.w3.org/2000/svg">
<path d="M10.25 7.25H8.75V5C8.75 4.80109 8.67098 4.61032 8.53033 4.46967C8.38968 4.32902 8.19891 4.25 8 4.25C7.80109 4.25 7.61032 4.32902 7.46967 4.46967C7.32902 4.61032 7.25 4.80109 7.25 5V8C7.25 8.19891 7.32902 8.38968 7.46967 8.53033C7.61032 8.67098 7.80109 8.75 8 8.75H10.25C10.4489 8.75 10.6397 8.67098 10.7803 8.53033C10.921 8.38968 11 8.19891 11 8C11 7.80109 10.921 7.61032 10.7803 7.46967C10.6397 7.32902 10.4489 7.25 10.25 7.25Z" fill="#CECECE"/>
<path d="M8 1C6.61553 1 5.26216 1.41054 4.11101 2.17971C2.95987 2.94888 2.06266 4.04213 1.53285 5.32122C1.00303 6.6003 0.86441 8.00776 1.13451 9.36563C1.4046 10.7235 2.07129 11.9708 3.05026 12.9497C4.02922 13.9287 5.2765 14.5954 6.63437 14.8655C7.99224 15.1356 9.3997 14.997 10.6788 14.4672C11.9579 13.9373 13.0511 13.0401 13.8203 11.889C14.5895 10.7378 15 9.38447 15 8C15 6.14348 14.2625 4.36301 12.9497 3.05025C11.637 1.7375 9.85652 1 8 1ZM8 13C7.0111 13 6.0444 12.7068 5.22215 12.1573C4.39991 11.6079 3.75904 10.827 3.38061 9.91342C3.00217 8.99979 2.90315 7.99445 3.09608 7.02455C3.289 6.05464 3.76521 5.16373 4.46447 4.46447C5.16373 3.7652 6.05465 3.289 7.02455 3.09607C7.99446 2.90315 8.99979 3.00216 9.91342 3.3806C10.8271 3.75904 11.6079 4.3999 12.1574 5.22215C12.7068 6.04439 13 7.01109 13 8C13 9.32608 12.4732 10.5979 11.5355 11.5355C10.5979 12.4732 9.32609 13 8 13Z" fill="#CECECE"/>
</svg>
