<svg width="24" height="24" viewBox="0 0 24 24" fill="none" xmlns="http://www.w3.org/2000/svg">
<g clip-path="url(#clip0_205_66)">
<path d="M0 12C0 5.37258 5.37258 0 12 0C18.6274 0 24 5.37258 24 12C24 18.6274 18.6274 24 12 24C5.37258 24 0 18.6274 0 12Z" fill="#494949"/>
<path d="M12.0003 11.8514C13.5124 11.8514 14.7384 10.3624 14.7384 8.52568C14.7384 6.68894 14.3358 5.19995 12.0003 5.19995C9.6647 5.19995 9.26221 6.68894 9.26221 8.52568C9.26226 10.3624 10.4881 11.8514 12.0003 11.8514Z" fill="#303030"/>
<path d="M17.1658 16.7953C17.1152 13.5956 16.6973 12.6839 13.4995 12.1067C13.4995 12.1067 13.0493 12.6803 12.0002 12.6803C10.951 12.6803 10.5009 12.1067 10.5009 12.1067C7.33805 12.6775 6.89468 13.5758 6.8364 16.6913C6.83166 16.9457 6.82948 16.959 6.82861 16.9295C6.82878 16.9848 6.82903 17.0872 6.82903 17.2657C6.82903 17.2657 7.59035 18.8004 12.0002 18.8004C16.4101 18.8004 17.1715 17.2657 17.1715 17.2657C17.1715 17.151 17.1716 17.0712 17.1717 17.017C17.1708 17.0353 17.169 16.9999 17.1658 16.7953Z" fill="#303030"/>
</g>
<defs>
<clipPath id="clip0_205_66">
<rect width="24" height="24" fill="white"/>
</clipPath>
</defs>
</svg>
