<svg width="24" height="24" viewBox="0 0 24 24" fill="none" xmlns="http://www.w3.org/2000/svg">
<path d="M0 12C0 5.37258 5.37258 0 12 0C18.6274 0 24 5.37258 24 12C24 18.6274 18.6274 24 12 24C5.37258 24 0 18.6274 0 12Z" fill="#EAEAEA"/>
<path d="M12.0002 11.8515C13.5123 11.8515 14.7383 10.3625 14.7383 8.5258C14.7383 6.68906 14.3357 5.20007 12.0002 5.20007C9.66457 5.20007 9.26208 6.68906 9.26208 8.5258C9.26213 10.3625 10.488 11.8515 12.0002 11.8515Z" fill="#787D82"/>
<path d="M17.1658 16.7952C17.1152 13.5955 16.6973 12.6838 13.4995 12.1066C13.4995 12.1066 13.0493 12.6802 12.0002 12.6802C10.951 12.6802 10.5009 12.1066 10.5009 12.1066C7.33805 12.6774 6.89468 13.5757 6.8364 16.6912C6.83166 16.9456 6.82948 16.9589 6.82861 16.9294C6.82878 16.9847 6.82903 17.0871 6.82903 17.2656C6.82903 17.2656 7.59035 18.8003 12.0002 18.8003C16.4101 18.8003 17.1715 17.2656 17.1715 17.2656C17.1715 17.1509 17.1716 17.0711 17.1717 17.0169C17.1708 17.0352 17.169 16.9998 17.1658 16.7952Z" fill="#787D82"/>
</svg>